<svg height="512pt" viewBox="0 0 512.01196 512" width="512pt" xmlns="http://www.w3.org/2000/svg"><path d="m247.480469 8.539062c-101.273438-.015624-190.679688 66.109376-220.316407 162.949219-29.636718 96.835938 7.441407 201.675781 91.375 258.339844h.085938l69.121094 48.042969v8.535156c.027344 9.414062 7.652344 17.039062 17.066406 17.066406h145.066406c9.414063-.027344 17.039063-7.652344 17.066406-17.066406v-50.433594c.769532-.511718 1.535157-.9375 2.304688-1.449218 3.753906-2.390626 7.507812-4.863282 11.09375-7.425782.007812.09375.039062.179688.085938.257813 1.054687 2.222656 2.566406 4.199219 4.4375 5.800781.59375.597656 1.277343 1.28125 1.960937 1.878906 1.257813 1.097656 2.597656 2.09375 4.011719 2.988282.683594.558593 1.429687 1.046874 2.21875 1.449218.796875.449219 1.625.847656 2.472656 1.195313.691406.335937 1.402344.621093 2.132812.851562 1.109376.429688 2.21875.769531 3.328126 1.109375 2.8125.753906 5.710937 1.125 8.621093 1.109375 9.707031.015625 18.957031-4.113281 25.429688-11.347656 43.40625-48.574219 67.722656-111.246094 68.4375-176.382813 1.023437-76.800781-51.203125-247.46875-256-247.46875zm0 0" fill="#f0c419"/><path d="m78.007812 395.015625c-3.160156 4.007813-6.488281 7.933594-9.898437 11.773437-12.605469 13.949219-34.113281 15.082032-48.117187 2.535157-14-12.542969-15.226563-34.046875-2.742188-48.101563 7.550781-8.457031 14.371094-17.535156 20.394531-27.136718zm0 0" fill="#ff9801"/><path d="m503.480469 256.007812c-.714844 65.136719-25.03125 127.808594-68.4375 176.382813-6.472657 7.234375-15.722657 11.363281-25.429688 11.347656-2.910156.015625-5.808593-.355469-8.621093-1.109375-1.109376-.339844-2.21875-.679687-3.328126-1.109375-.730468-.230469-1.441406-.515625-2.132812-.851562-.847656-.347657-1.675781-.746094-2.472656-1.195313-.789063-.402344-1.535156-.890625-2.21875-1.449218-1.414063-.894532-2.753906-1.890626-4.011719-2.988282-.683594-.597656-1.367187-1.28125-1.960937-1.878906-1.871094-1.601562-3.382813-3.578125-4.4375-5.800781-.046876-.078125-.078126-.164063-.085938-.257813-3.585938 2.5625-7.339844 5.035156-11.09375 7.425782-.769531.511718-1.535156.9375-2.304688 1.449218-20.9375 12.730469-43.785156 22.007813-67.667968 27.480469h-.257813l-.339843-2.648437c-8.613282-20.691407-28.789063-34.207032-51.199219-34.300782h-8.535157c-20.351562.027344-38.761718 12.078125-46.933593 30.71875-.6875 1.617188-1.285157 3.269532-1.792969 4.949219-1.648438 5.039063-2.484375 10.3125-2.472656 15.617187v.082032l-69.121094-48.042969h-.085938c-83.933593-56.664063-121.011718-161.503906-91.375-258.339844 29.636719-96.839843 119.042969-162.964843 220.316407-162.949219 204.796875 0 257.023437 170.667969 256 247.46875zm0 0" fill="#ffdc00"/><path d="m503.480469 256.007812c-.714844 65.136719-25.03125 127.808594-68.4375 176.382813-6.472657 7.234375-15.722657 11.363281-25.429688 11.347656-2.910156.015625-5.808593-.355469-8.621093-1.109375-1.109376-.339844-2.21875-.679687-3.328126-1.109375-.300781-.058593-.589843-.175781-.851562-.339843 4.851562-1.878907 9.179688-4.894532 12.628906-8.789063 43.410156-48.574219 67.722656-111.246094 68.4375-176.382813 1.023438-74.925781-48.726562-239.277343-241.492187-247.128906 3.667969-.253906 7.335937-.339844 11.09375-.339844 204.796875 0 257.023437 170.667969 256 247.46875zm0 0" fill="#fec108"/><path d="m380.34375 427.097656c-3.585938 2.5625-7.339844 5.035156-11.09375 7.425782-13.523438-12.691407-14.472656-33.851563-2.132812-47.703126 26.308593-29.351562 43.140624-65.96875 48.289062-105.050781 1.207031-9.3125 9.136719-16.285156 18.527344-16.292969-2.132813 44.96875-19.703125 87.824219-49.75 121.34375-9.945313 11.144532-11.5 27.457032-3.839844 40.277344zm0 0" fill="#fec108"/><path d="m192.011719 457.222656c-8.152344-18.652344-26.578125-30.703125-46.933594-30.695312h-8.53125c-28.296875.046875-51.207031 23-51.203125 51.296875v8.550781c.019531 9.421875 7.644531 17.0625 17.066406 17.097656h145.070313zm0 0" fill="#3f51b5"/><path d="m187.746094 178.589844c0-23.609375-19.101563-42.746094-42.667969-42.746094-23.5625 0-42.667969 19.136719-42.667969 42.746094s19.105469 42.746094 42.667969 42.746094c23.566406 0 42.667969-19.136719 42.667969-42.746094zm0 0" fill="#f5f5f5"/><path d="m162.144531 178.589844c0-14.164063-11.460937-25.648438-25.597656-25.648438-14.140625 0-25.601563 11.484375-25.601563 25.648438 0 14.164062 11.460938 25.648437 25.601563 25.648437 14.136719 0 25.597656-11.484375 25.597656-25.648437zm0 0" fill="#3f51b5"/><path d="m324.277344 178.589844c-.019532 20.371094-14.425782 37.894531-34.40625 41.851562-19.984375 3.957032-39.984375-6.75-47.765625-25.574218-7.785157-18.828126-1.1875-40.53125 15.757812-51.839844 16.945313-11.308594 39.519531-9.074219 53.917969 5.335937 8.015625 8.011719 12.515625 18.890625 12.496094 30.226563zm0 0" fill="#f5f5f5"/><path d="m298.679688 178.589844c-.011719 12.222656-8.65625 22.734375-20.648438 25.109375-11.988281 2.375-23.988281-4.046875-28.65625-15.34375-4.671875-11.296875-.710938-24.316407 9.453125-31.101563 10.167969-6.789062 23.710937-5.445312 32.351563 3.199219 4.8125 4.808594 7.507812 11.335937 7.5 18.136719zm0 0" fill="#3f51b5"/><path d="m187.746094 256.007812h51.199218c18.851563 0 34.132813 15.28125 34.132813 34.132813v25.777344c0 18.851562-15.28125 34.132812-34.132813 34.132812h-51.199218c-18.851563 0-34.132813-15.28125-34.132813-34.132812v-25.777344c0-18.851563 15.28125-34.132813 34.132813-34.132813zm0 0" fill="#bb193b"/><path d="m366.945312 435.972656v50.433594c-.027343 9.414062-7.652343 17.039062-17.066406 17.066406h-145.066406c-9.414062-.027344-17.039062-7.652344-17.066406-17.066406v-8.617188c-.011719-5.304687.824218-10.578124 2.472656-15.617187.507812-1.679687 1.105469-3.332031 1.792969-4.949219 8.171875-18.640625 26.582031-30.691406 46.933593-30.71875h8.535157c22.410156.09375 42.585937 13.609375 51.199219 34.300782l.597656 2.648437c23.882812-5.472656 46.730468-14.75 67.667968-27.480469zm0 0" fill="#3f51b5"/><path d="m380.429688 427.355469c1.296874 2.066406 2.785156 4.007812 4.4375 5.800781-1.871094-1.601562-3.382813-3.578125-4.4375-5.800781zm0 0" fill="#f0c419"/><path d="m273.078125 298.757812v17.152344c.003906 9.054688-3.59375 17.738282-9.996094 24.136719-6.398437 6.402344-15.082031 10-24.136719 9.996094h-25.601562v-17.066407c-.019531-9.066406 3.566406-17.769531 9.972656-24.1875 6.402344-6.421874 15.09375-10.027343 24.164063-10.03125zm0 0" fill="#ad1457"/><path d="m256.011719 298.757812v16.980469c.003906 9.054688-3.59375 17.738281-9.996094 24.140625-6.398437 6.402344-15.082031 9.996094-24.136719 9.992188h-8.535156v-16.894532c-.019531-9.066406 3.566406-17.769531 9.972656-24.1875 6.402344-6.421874 15.09375-10.027343 24.164063-10.03125zm0 0" fill="#e91e63"/><path d="m366.945312 435.972656v17.066406c-15.941406 9.691407-33.011718 17.394532-50.824218 22.9375-3.960938 1.199219-8.253906.449219-11.574219-2.019531-3.324219-2.46875-5.277344-6.367187-5.269531-10.503906 23.882812-5.472656 46.730468-14.75 67.667968-27.480469zm0 0" fill="#283593"/><path d="m162.144531 162.140625c0 4.710937-3.820312 8.53125-8.53125 8.53125-4.714843 0-8.535156-3.820313-8.535156-8.53125 0-4.714844 3.820313-8.535156 8.535156-8.535156 4.710938 0 8.53125 3.820312 8.53125 8.535156zm0 0" fill="#f5f5f5"/><path d="m298.679688 162.140625c0 4.710937-3.820313 8.53125-8.535157 8.53125-4.710937 0-8.53125-3.820313-8.53125-8.53125 0-4.714844 3.820313-8.535156 8.53125-8.535156 4.714844 0 8.535157 3.820312 8.535157 8.535156zm0 0" fill="#f5f5f5"/><path d="m366.945312 435.972656v50.433594c-.027343 9.414062-7.652343 17.039062-17.066406 17.066406h-25.601562c9.414062-.027344 17.039062-7.652344 17.066406-17.066406v-37.035156c8.808594-3.917969 17.359375-8.394532 25.601562-13.398438zm0 0" fill="#283593"/><path d="m145.078125 229.871094c-20.75.035156-39.476563-12.4375-47.441406-31.597656-7.964844-19.164063-3.597657-41.234376 11.0625-55.921876 14.660156-14.683593 36.726562-19.085937 55.898437-11.152343 19.175782 7.929687 31.679688 26.636719 31.679688 47.386719-.003906 28.289062-22.910156 51.234374-51.199219 51.285156zm0-85.492188c-13.847656-.035156-26.351563 8.28125-31.675781 21.0625-5.320313 12.785156-2.414063 27.519532 7.367187 37.324219 9.78125 9.800781 24.507813 12.742187 37.304688 7.449219 12.796875-5.292969 21.140625-17.777344 21.136719-31.625.003906-18.867188-15.269532-34.171875-34.132813-34.210938zm0 0"/><path d="m86.789062 120.140625c3.035157-10.285156 8.695313-19.601563 16.421876-27.035156 8.003906-7.992188 18.234374-13.386719 29.347656-15.472657 2.792968-.632812 5.652344-.9375 8.515625-.90625 2.835937-.253906 5.691406-.125 8.492187.394532 2.777344.476562 5.582032.851562 8.289063 1.46875l7.742187 2.878906c2.5625.878906 4.992188 2.09375 7.234375 3.613281 2.285157 1.40625 4.589844 2.730469 6.789063 4.195313 4.070312 3.261718 7.9375 6.761718 11.589844 10.488281 1.042968 1.058594 1.210937 2.699219.410156 3.953125-.804688 1.25-2.367188 1.777344-3.765625 1.269531l-.429688-.15625c-4.699219-1.714843-8.992187-3.824219-13.3125-5.6875-4.515625-1.269531-8.703125-3.371093-13.097656-4.15625-8.269531-2.28125-16.941406-2.679687-25.378906-1.164062-8.4375 1.742187-16.4375 5.175781-23.515625 10.089843-7.738282 5.390626-14.964844 11.480469-21.589844 18.195313l-.148438.144531c-.695312.6875-1.769531.824219-2.613281.328125-.84375-.496093-1.246093-1.5-.984375-2.441406zm0 0"/><path d="m281.613281 229.871094c-24.445312.015625-45.492187-17.234375-50.277343-41.207032-4.785157-23.96875 8.03125-47.980468 30.609374-57.347656 22.578126-9.367187 48.625-1.480468 62.214844 18.835938 13.59375 20.316406 10.9375 47.402344-6.335937 64.695312-9.574219 9.648438-22.617188 15.058594-36.210938 15.023438zm0-85.492188c-13.824219.039063-26.265625 8.386719-31.542969 21.160156-5.277343 12.773438-2.351562 27.46875 7.414063 37.25 13.492187 12.914063 34.765625 12.914063 48.261719 0 9.777344-9.777343 12.707031-24.480468 7.425781-37.257812-5.28125-12.78125-17.730469-21.128906-31.558594-21.152344zm0 0"/><path d="m237.511719 102.160156c6.296875-8.691406 14.765625-15.578125 24.558593-19.96875 20.957032-10.019531 45.925782-6.054687 62.75 9.960938 7.820313 7.199218 13.929688 16.058594 17.882813 25.929687.660156 1.65625-.144531 3.535157-1.800781 4.199219-1.191406.464844-2.546875.191406-3.464844-.699219-6.601562-6.722656-13.800781-12.835937-21.503906-18.257812-7.039063-4.917969-15.078125-8.210938-23.542969-9.640625-8.546875-1.125-17.234375-.554688-25.5625 1.6875-9.109375 2.460937-17.96875 5.777344-26.453125 9.90625l-.183594.085937c-.886718.414063-1.945312.183594-2.574218-.566406-.628907-.753906-.675782-1.832031-.109376-2.632813zm0 0"/><path d="m238.945312 358.585938h-51.199218c-23.554688-.027344-42.640625-19.113282-42.667969-42.667969v-25.777344c.027344-23.554687 19.113281-42.640625 42.667969-42.667969h51.199218c23.550782.027344 42.640626 19.113282 42.667969 42.667969v25.777344c-.027343 23.554687-19.117187 42.640625-42.667969 42.667969zm-51.199218-94.046876c-14.132813.015626-25.585938 11.46875-25.601563 25.601563v25.777344c.015625 14.132812 11.46875 25.585937 25.601563 25.601562h51.199218c14.132813-.015625 25.585938-11.46875 25.601563-25.601562v-25.777344c-.015625-14.132813-11.46875-25.585937-25.601563-25.601563zm0 0"/><path d="m213.34375 358.585938c-4.710938 0-8.53125-3.820313-8.53125-8.535157v-17.097656c.011719-23.570313 19.09375-42.6875 42.667969-42.734375h25.597656c4.714844 0 8.535156 3.820312 8.535156 8.535156 0 4.710938-3.820312 8.53125-8.535156 8.53125h-25.597656c-14.152344.035156-25.605469 11.515625-25.601563 25.667969v17.097656c0 4.714844-3.820312 8.535157-8.535156 8.535157zm0 0"/><path d="m349.878906 512.007812h-145.066406c-14.132812-.015624-25.585938-11.46875-25.601562-25.601562v-8.617188c-.003907-6.207031.972656-12.375 2.902343-18.273437.578125-1.90625 1.257813-3.777344 2.039063-5.613281 9.503906-21.796875 31.011718-35.902344 54.792968-35.933594h8.535157c26.03125.015625 49.457031 15.816406 59.226562 39.949219 1.519531 4.414062-.789062 9.226562-5.179687 10.804687-4.390625 1.582032-9.238282-.660156-10.878906-5.027344-7.355469-17.332031-24.339844-28.609374-43.167969-28.660156h-8.535157c-16.96875.019532-32.320312 10.070313-39.121093 25.617188-.546875 1.296875-1.023438 2.621094-1.429688 3.96875-1.402343 4.25-2.113281 8.695312-2.117187 13.167968v8.617188c.007812 4.710938 3.824218 8.527344 8.535156 8.53125h145.066406c4.710938-.003906 8.527344-3.820312 8.53125-8.53125v-50.433594c0-4.710937 3.824219-8.53125 8.535156-8.53125 4.710938 0 8.535157 3.820313 8.535157 8.53125v50.433594c-.015625 14.132812-11.46875 25.585938-25.601563 25.601562zm0 0"/><path d="m247.480469 512.007812h-145.070313c-14.140625-.027343-25.589844-11.496093-25.597656-25.636718v-8.546875c.007812-33.003907 26.730469-59.769531 59.734375-59.832031h8.53125c23.757813-.023438 45.265625 14.046874 54.757813 35.824218 1.21875 2.792969.847656 6.027344-.964844 8.476563-1.8125 2.453125-4.792969 3.75-7.824219 3.402343-3.027344-.34375-5.644531-2.277343-6.859375-5.074218-6.785156-15.546875-22.144531-25.585938-39.109375-25.5625h-8.53125c-23.582031.054687-42.667969 19.183594-42.667969 42.765625v8.546875c-.003906 4.722656 3.8125 8.554687 8.53125 8.566406h145.070313c4.710937 0 8.53125 3.824219 8.53125 8.535156 0 4.710938-3.820313 8.535156-8.53125 8.535156zm0 0"/><path d="m42.679688 426.671875c-16.832032.003906-32.09375-9.886719-38.964844-25.25-6.867188-15.367187-4.0625-33.335937 7.164062-45.875 7.226563-8.097656 13.761719-16.789063 19.527344-25.984375 2.5-3.996094 7.765625-5.210938 11.761719-2.714844 3.996093 2.5 5.210937 7.765625 2.714843 11.761719-6.28125 10.007813-13.394531 19.46875-21.257812 28.285156-9.402344 10.550781-8.527344 26.710938 1.960938 36.183594 10.683593 9.015625 26.539062 8.140625 36.167968-1.992187 3.273438-3.683594 6.492188-7.480469 9.546875-11.359376 2.917969-3.703124 8.285157-4.339843 11.984375-1.421874 3.703125 2.917968 4.339844 8.285156 1.421875 11.988281-3.261719 4.136719-6.703125 8.199219-10.226562 12.164062-8.105469 9.035157-19.664063 14.199219-31.800781 14.214844zm0 0"/><path d="m409.613281 452.273438c-16.832031.003906-32.09375-9.886719-38.964843-25.253907-6.867188-15.363281-4.0625-33.332031 7.164062-45.871093 28.699219-32.09375 45.503906-73.074219 47.59375-116.074219.289062-4.679688 4.246094-8.28125 8.929688-8.121094 2.261718.105469 4.386718 1.105469 5.910156 2.78125 1.523437 1.675781 2.320312 3.886719 2.210937 6.144531-2.28125 46.917969-20.613281 91.621094-51.921875 126.636719-9.386718 10.550781-8.496094 26.703125 1.988282 36.164063 10.683593 9.011718 26.539062 8.140624 36.167968-1.992188 42.003906-47.050781 65.542969-107.726562 66.253906-170.792969-1.121093-63.945312-26.054687-125.171875-69.925781-171.710937-43.9375-44.53125-103.675781-67.109375-177.539062-67.109375-97.460938-.015625-183.511719 63.578125-212.105469 156.746093-28.59375 93.167969 6.96875 194.085938 87.65625 248.746094 3.253906 1.984375 4.792969 5.890625 3.769531 9.5625-1.023437 3.671875-4.363281 6.21875-8.175781 6.234375h-.085938c-1.699218 0-3.363281-.507812-4.773437-1.460937-87.042969-58.769532-125.496094-167.488282-94.761719-267.914063 30.734375-100.421875 123.453125-168.9960935 228.476563-168.9804685 78.601562 0 142.417969 24.2851565 189.695312 72.1914065 47.363281 49.597656 74.117188 115.339843 74.835938 183.917969-.769531 67.199218-25.855469 131.84375-70.617188 181.96875-8.105469 9.019531-19.65625 14.175781-31.78125 14.1875zm0 0"/><path d="m299.265625 471.984375c-4.339844-.003906-7.984375-3.265625-8.46875-7.578125s2.34375-8.300781 6.574219-9.273438c22.996094-5.261718 44.992187-14.191406 65.144531-26.453124 4.300781-2.679688 8.683594-5.570313 12.902344-8.550782 3.84375-2.605468 9.070312-1.65625 11.753906 2.140625 2.683594 3.792969 1.835937 9.035157-1.90625 11.792969-4.484375 3.171875-9.148437 6.246094-13.808594 9.152344-21.738281 13.234375-45.46875 22.875-70.277343 28.554687-.628907.144531-1.269532.214844-1.914063.214844zm0 0"/></svg>