<svg height="511pt" viewBox="0 0 511 511.97328" width="511pt" xmlns="http://www.w3.org/2000/svg"><path d="m77.441406 250.425781-34.21875 14.679688 19.199219 48.636719-29.097656 19.203124-21.847657-55.296874c-6.863281-17.15625 1.25-36.648438 18.261719-43.863282l44.542969-19.113281c1.421875-.59375 2.914062-.996094 4.4375-1.195313zm0 0" fill="#ff5722"/><path d="m472.449219 93.070312 30.378906 111.875c2.578125 10.207032.300781 21.035157-6.167969 29.339844-6.472656 8.304688-16.414062 13.160156-26.941406 13.15625h-34.304688l-1.367187-34.136718h35.671875l-29.269531-108.03125zm0 0" fill="#ff5722"/><path d="m435.582031 238.90625c.929688 65.347656-29.976562 127.0625-82.855469 165.460938l-97.28125 72.535156-12.714843-9.644532-82.6875-62.890624c-16.207031-11.367188-30.496094-25.253907-42.324219-41.128907l-22.613281-38.65625c-10.3125-23.453125-16.296875-48.574219-17.664063-74.15625-.171875-3.839843-.257812-7.679687-.257812-11.519531-.007813-8.5.503906-16.992188 1.535156-25.429688 10.839844-91.816406 79.617188-163.753906 164.863281-170.238281 4.269531-.425781 8.535157-.597656 12.800781-.597656 98.988282 0 179.199219 87.894531 179.199219 196.265625zm0 0" fill="#fec108"/><path d="m409.984375 238.90625c.929687 65.347656-29.976563 127.0625-82.859375 165.460938l-84.394531 62.890624-82.6875-62.890624c-16.207031-11.367188-30.496094-25.253907-42.324219-41.128907l-22.613281-38.65625c-10.3125-23.453125-16.296875-48.574219-17.664063-74.15625-.171875-3.839843-.257812-7.679687-.257812-11.519531-.007813-8.5.503906-16.992188 1.535156-25.429688 10.839844-91.816406 79.617188-163.753906 164.863281-170.238281 93.015625 7.082031 166.402344 91.988281 166.402344 195.667969zm0 0" fill="#ffdc00"/><path d="m256.382812 460.773438v25.601562c-.027343 9.414062-7.652343 17.039062-17.066406 17.066406h-102.398437c-9.414063-.027344-17.039063-7.652344-17.066407-17.066406v-25.601562c-.070312-31.34375 24.195313-57.363282 55.464844-59.476563 1.417969-.171875 2.839844-.257813 4.265625-.257813h17.070313c15.84375-.011718 31.042968 6.277344 42.25 17.484376 11.203125 11.203124 17.492187 26.402343 17.480468 42.25zm0 0" fill="#283593"/><path d="m230.785156 460.773438v25.601562c-.027344 9.414062-7.652344 17.039062-17.066406 17.066406h-76.800781c-9.414063-.027344-17.039063-7.652344-17.066407-17.066406v-25.601562c-.070312-31.34375 24.195313-57.363282 55.464844-59.476563 31.273438 2.113281 55.535156 28.132813 55.46875 59.476563zm0 0" fill="#3f51b5"/><path d="m392.917969 460.773438v25.601562c-.027344 9.414062-7.652344 17.039062-17.066407 17.066406h-102.402343c-9.414063-.027344-17.039063-7.652344-17.066407-17.066406v-25.601562c-.066406-31.34375 24.195313-57.363282 55.46875-59.476563 1.414063-.171875 2.839844-.257813 4.265626-.257813h17.066406c15.847656-.011718 31.046875 6.277344 42.25 17.484376 11.207031 11.203124 17.496094 26.402343 17.484375 42.25zm0 0" fill="#283593"/><path d="m367.316406 460.773438v25.601562c-.027344 9.414062-7.652344 17.039062-17.066406 17.066406h-76.800781c-9.414063-.027344-17.039063-7.652344-17.066407-17.066406v-25.601562c-.066406-31.34375 24.195313-57.363282 55.46875-59.476563 31.269532 2.113281 55.535157 28.132813 55.464844 59.476563zm0 0" fill="#3f51b5"/><path d="m222.25 166.375c0-21.210938-7.640625-38.402344-17.066406-38.402344-9.425782 0-17.066406 17.191406-17.066406 38.402344 0 21.207031 7.640624 38.398438 17.066406 38.398438 9.425781 0 17.066406-17.191407 17.066406-38.398438zm0 0" fill="#3f51b5"/><path d="m214.664062 149.304688c0-11.78125-4.242187-21.332032-9.480468-21.332032-5.234375 0-9.480469 9.550782-9.480469 21.332032 0 11.785156 4.246094 21.335937 9.480469 21.335937 5.238281 0 9.480468-9.550781 9.480468-21.335937zm0 0" fill="#f5f5f5"/><path d="m324.652344 166.375c0-21.210938-7.644532-38.402344-17.070313-38.402344s-17.066406 17.191406-17.066406 38.402344c0 21.207031 7.640625 38.398438 17.066406 38.398438s17.070313-17.191407 17.070313-38.398438zm0 0" fill="#3f51b5"/><path d="m317.066406 149.304688c0-11.78125-4.246094-21.332032-9.484375-21.332032-5.234375 0-9.480469 9.550782-9.480469 21.332032 0 11.785156 4.246094 21.335937 9.480469 21.335937 5.238281 0 9.484375-9.550781 9.484375-21.335937zm0 0" fill="#f5f5f5"/><path d="m205.183594 238.90625h102.398437c4.714844 0 8.535157 3.820312 8.535157 8.535156v17.066406c0 32.988282-26.742188 59.730469-59.734376 59.730469-32.988281 0-59.730468-26.742187-59.730468-59.730469v-17.066406c0-4.714844 3.820312-8.535156 8.53125-8.535156zm0 0" fill="#bb193b"/><path d="m106.238281 335.761719c-16.804687-22.015625-45.03125-28.71875-63.046875-14.972657-18.015625 13.75-18.996094 42.746094-2.191406 64.765626 16.804688 22.019531 45.03125 28.722656 63.046875 14.972656s18.996094-42.746094 2.191406-64.765625zm0 0" fill="#ff9801"/><path d="m460.585938 102.375c-8.882813 4.042969-19.003907 4.414062-28.160157 1.023438-13.570312-5.101563-24.5625-15.382813-30.546875-28.585938-11.949218-25.003906-5.035156-53.25 15.445313-62.976562.765625-.34375 1.621093-.683594 2.472656-1.023438 20.054687-7.683594 44.628906 4.605469 56.148437 28.671875 11.949219 25 5.121094 53.160156-15.359374 62.890625zm0 0" fill="#f57c00"/><path d="m434.988281 102.375c-.824219.414062-1.679687.753906-2.5625 1.023438-13.570312-5.101563-24.5625-15.382813-30.546875-28.585938-11.949218-25.003906-5.035156-53.25 15.445313-62.976562.765625-.34375 1.621093-.683594 2.472656-1.023438 13.546875 5.183594 24.515625 15.480469 30.550781 28.671875 11.945313 25 5.117188 53.160156-15.359375 62.890625zm0 0" fill="#ff9801"/><path d="m302.632812 302.222656c-11.3125 13.929688-28.304687 22.015625-46.25 22.015625-17.945312 0-34.933593-8.085937-46.25-22.015625 1.796876-3.65625 3.96875-7.117187 6.484376-10.324218 9.449218-12.316407 24.25-19.335938 39.765624-18.859376 15.519532-.476562 30.316407 6.542969 39.765626 18.859376 2.515624 3.207031 4.691406 6.667968 6.484374 10.324218zm0 0" fill="#ad1457"/><path d="m296.148438 291.898438c-22.597657 20.367187-56.929688 20.367187-79.53125 0 9.449218-12.316407 24.25-19.335938 39.765624-18.859376 15.519532-.476562 30.316407 6.542969 39.765626 18.859376zm0 0" fill="#e91e63"/><path d="m160.035156 412.902344c-1.742187 0-3.445312-.535156-4.871094-1.535156-16.957031-11.886719-31.902343-26.40625-44.273437-43.011719-2.828125-3.769531-2.0625-9.117188 1.707031-11.945313 3.769532-2.828125 9.117188-2.0625 11.945313 1.707032 11.28125 15.152343 24.914062 28.40625 40.378906 39.253906 3.058594 2.132812 4.375 6.003906 3.257813 9.558594-1.121094 3.554687-4.417969 5.972656-8.144532 5.972656zm0 0"/><path d="m352.734375 412.902344c-3.730469.003906-7.03125-2.414063-8.152344-5.96875-1.121093-3.554688.199219-7.429688 3.257813-9.5625 50.65625-36.75 80.21875-95.886719 79.210937-158.464844 0-103.515625-76.5625-187.734375-170.667969-187.734375-85.488281 0-158.222656 70.207031-169.1875 163.304687-.992187 8.105469-1.484374 16.265626-1.476562 24.429688 0 3.714844.082031 7.429688.242188 11.140625 1.308593 24.527344 7.050781 48.613281 16.953124 71.089844 1.230469 2.789062.878907 6.023437-.921874 8.484375-1.800782 2.460937-4.777344 3.773437-7.808594 3.445312s-5.65625-2.25-6.886719-5.039062c-10.742187-24.386719-16.972656-50.523438-18.378906-77.132813-.183594-4.050781-.265625-8.023437-.265625-11.988281-.011719-8.851562.523437-17.695312 1.601562-26.480469 11.964844-101.636719 91.988282-178.320312 186.128906-178.320312 103.519532 0 187.734376 91.871093 187.734376 204.800781 1.007812 68.152344-31.277344 132.515625-86.503907 172.460938-1.429687 1-3.132812 1.535156-4.878906 1.535156zm0 0"/><path d="m239.316406 511.972656h-102.398437c-14.132813-.015625-25.585938-11.46875-25.601563-25.597656v-25.601562c.042969-37.683594 30.582032-68.222657 68.265625-68.265626h17.070313c37.683594.042969 68.222656 30.582032 68.265625 68.265626v25.601562c-.015625 14.128906-11.46875 25.582031-25.601563 25.597656zm-59.734375-102.398437c-28.261719.03125-51.167969 22.933593-51.199219 51.199219v25.601562c.007813 4.707031 3.824219 8.527344 8.535157 8.53125h102.398437c4.710938-.003906 8.527344-3.824219 8.535156-8.53125v-25.601562c-.03125-28.265626-22.9375-51.167969-51.199218-51.199219zm0 0"/><path d="m256.382812 477.839844h-136.53125c-4.714843 0-8.535156-3.820313-8.535156-8.535156 0-4.710938 3.820313-8.53125 8.535156-8.53125h136.53125c4.714844 0 8.535157 3.820312 8.535157 8.53125 0 4.714843-3.820313 8.535156-8.535157 8.535156zm0 0"/><path d="m375.851562 511.972656h-102.402343c-14.128907-.015625-25.582031-11.46875-25.597657-25.597656v-25.601562c.042969-37.683594 30.582032-68.222657 68.265626-68.265626h17.066406c37.683594.042969 68.222656 30.582032 68.265625 68.265626v25.601562c-.015625 14.128906-11.464844 25.582031-25.597657 25.597656zm-59.734374-102.398437c-28.265626.03125-51.167969 22.933593-51.199219 51.199219v25.601562c.003906 4.707031 3.820312 8.527344 8.53125 8.53125h102.402343c4.710938-.003906 8.527344-3.824219 8.53125-8.53125v-25.601562c-.03125-28.265626-22.933593-51.167969-51.199218-51.199219zm0 0"/><path d="m392.917969 477.839844h-136.535157c-4.710937 0-8.53125-3.820313-8.53125-8.535156 0-4.710938 3.820313-8.53125 8.53125-8.53125h136.535157c4.710937 0 8.53125 3.820312 8.53125 8.53125 0 4.714843-3.820313 8.535156-8.53125 8.535156zm0 0"/><path d="m205.183594 213.304688c-16.808594 0-25.601563-23.609376-25.601563-46.929688 0-23.324219 8.792969-46.933594 25.601563-46.933594 16.8125 0 25.601562 23.609375 25.601562 46.933594 0 23.320312-8.789062 46.929688-25.601562 46.929688zm-.171875-76.820313c-2.046875.777344-8.359375 11.144531-8.359375 29.890625s6.3125 29.109375 8.703125 29.886719c2.046875-.777344 8.363281-11.140625 8.363281-29.886719s-6.316406-29.113281-8.707031-29.890625zm0 0"/><path d="m307.582031 213.304688c-16.808593 0-25.597656-23.609376-25.597656-46.929688 0-23.324219 8.789063-46.933594 25.597656-46.933594 16.8125 0 25.601563 23.609375 25.601563 46.933594 0 23.320312-8.789063 46.929688-25.601563 46.929688zm-.167969-76.820313c-2.050781.777344-8.363281 11.144531-8.363281 29.890625s6.3125 29.109375 8.703125 29.886719c2.046875-.777344 8.363282-11.140625 8.363282-29.886719s-6.316407-29.113281-8.703126-29.890625zm0 0"/><path d="m256.484375 366.90625c-12.792969.019531-25.476563-2.390625-37.371094-7.097656-2.898437-1.078125-4.988281-3.636719-5.464843-6.691406-.472657-3.054688.742187-6.128907 3.175781-8.035157 2.4375-1.902343 5.714843-2.339843 8.5625-1.140625 19.902343 7.792969 42.003906 7.828125 61.929687.097656 4.390625-1.71875 9.339844.445313 11.0625 4.832032 1.71875 4.386718-.445312 9.339844-4.832031 11.058594-11.808594 4.628906-24.382813 6.996093-37.0625 6.976562zm0 0"/><path d="m256.382812 332.773438c-37.683593-.042969-68.222656-30.582032-68.265624-68.265626v-17.066406c.007812-9.421875 7.644531-17.058594 17.066406-17.066406h102.398437c9.421875.007812 17.058594 7.644531 17.070313 17.066406v17.066406c-.046875 37.683594-30.582032 68.222657-68.269532 68.265626zm-51.199218-85.332032v17.066406c0 28.277344 22.921875 51.199219 51.199218 51.199219 28.277344 0 51.199219-22.921875 51.199219-51.199219v-17.066406zm0 0"/><path d="m302.640625 310.757812c-3.242187.003907-6.207031-1.832031-7.648437-4.738281-7.0625-14.925781-22.09375-24.445312-38.609376-24.445312-16.511718 0-31.546874 9.519531-38.605468 24.445312-2.117188 4.183594-7.214844 5.875-11.414063 3.789063-4.195312-2.085938-5.925781-7.171875-3.871093-11.382813 9.945312-20.734375 30.898437-33.921875 53.890624-33.921875 22.992188 0 43.949219 13.1875 53.890626 33.921875 1.316406 2.644531 1.167968 5.777344-.386719 8.285157-1.550781 2.511718-4.292969 4.039062-7.246094 4.042968zm0 0"/><path d="m229.128906 96.046875c-9.644531-3.753906-20.175781-4.605469-30.300781-2.460937-4.835937 1.554687-9.347656 3.976562-13.3125 7.152343-2.179687 1.535157-3.980469 3.636719-6.203125 5.355469-1.953125 2.019531-3.78125 4.183594-5.945312 6.203125l-.257813.234375c-.933594.875-2.347656.980469-3.402344.253906-1.050781-.722656-1.460937-2.085937-.976562-3.269531 1.167969-2.871094 2.613281-5.636719 4.035156-8.472656 1.703125-2.730469 3.621094-5.320313 5.730469-7.746094 4.539062-5.070313 10.28125-8.921875 16.695312-11.195313 6.59375-2.296874 13.726563-2.542968 20.460938-.707031 6.476562 1.691407 12.3125 5.253907 16.78125 10.238281.820312.941407.917968 2.316407.242187 3.363282-.679687 1.050781-1.96875 1.523437-3.164062 1.164062zm0 0"/><path d="m280.328125 91.636719c4.46875-4.988281 10.304687-8.550781 16.785156-10.242188 6.734375-1.835937 13.867188-1.589843 20.460938.707031 6.414062 2.273438 12.152343 6.125 16.691406 11.195313 2.113281 2.429687 4.03125 5.019531 5.734375 7.746094 1.421875 2.835937 2.867188 5.605469 4.035156 8.472656.480469 1.183594.074219 2.542969-.980468 3.269531-1.050782.726563-2.464844.621094-3.398438-.25l-.257812-.238281c-2.164063-2.015625-3.992188-4.179687-5.941407-6.203125-2.21875-1.714844-4.027343-3.816406-6.207031-5.355469-3.964844-3.175781-8.476562-5.597656-13.3125-7.152343-10.125-2.144532-20.65625-1.292969-30.300781 2.460937l-.378907.113281c-1.195312.363282-2.488281-.113281-3.164062-1.160156-.679688-1.046875-.585938-2.417969.234375-3.363281zm0 0"/><path d="m82.285156 416.21875c-4.105468-.011719-8.195312-.503906-12.1875-1.460938-14.367187-3.648437-27.039062-12.132812-35.882812-24.03125-9.140625-11.664062-13.980469-26.125-13.707032-40.945312.078126-13.96875 6.523438-27.140625 17.507813-35.773438 11.226563-8.316406 25.632813-11.058593 39.128906-7.445312 14.367188 3.644531 27.035157 12.132812 35.878907 24.027344 9.140624 11.667968 13.984374 26.128906 13.710937 40.945312-.078125 13.972656-6.523437 27.144532-17.511719 35.777344-7.742187 5.871094-17.21875 9.003906-26.9375 8.90625zm-17.242187-94.035156c-6.003907-.097656-11.867188 1.800781-16.671875 5.394531-6.878906 5.554687-10.855469 13.941406-10.804688 22.785156-.140625 10.878907 3.464844 21.476563 10.21875 30.011719 6.449219 8.765625 15.722656 15.042969 26.257813 17.777344 8.515625 2.378906 17.648437.757812 24.824219-4.40625 6.878906-5.554688 10.855468-13.941406 10.804687-22.785156.144531-10.882813-3.464844-21.480469-10.214844-30.015626v-.003906c-6.453125-8.765625-15.726562-15.042968-26.261719-17.777344-2.667968-.644531-5.40625-.976562-8.152343-.988281zm0 0"/><path d="m445.640625 114.277344c-7.355469-.0625-14.605469-1.75-21.238281-4.941406-13.335938-6.507813-24.023438-17.417969-30.246094-30.890626-13.925781-29.210937-5.183594-62.542968 19.480469-74.308593 24.667969-11.765625 56.082031 2.433593 70.003906 31.644531 6.546875 13.289062 8.332031 28.421875 5.0625 42.871094-2.898437 13.664062-11.902344 25.246094-24.429687 31.433594-5.816407 2.773437-12.183594 4.203124-18.632813 4.191406zm-13.332031-97.253906c-3.917969-.019532-7.785156.839843-11.324219 2.519531-16.175781 7.714843-21.300781 30.84375-11.421875 51.558593 4.527344 9.910157 12.328125 17.957032 22.097656 22.785157 7.863282 4.089843 17.164063 4.382812 25.269532.789062 7.859374-4.011719 13.453124-11.398437 15.191406-20.050781 2.339844-10.636719.96875-21.753906-3.890625-31.5-6.125-14.753906-20-24.832031-35.921875-26.101562zm0 0"/><path d="m25.386719 336.082031-21.84375-55.296875c-8.597657-21.445312 1.554687-45.824218 22.828125-54.835937l44.550781-19.117188c2.175781-.914062 4.464844-1.53125 6.808594-1.828125l1.992187 16.949219c-.75.105469-1.480468.308594-2.171875.605469l-44.441406 19.070312c-12.757813 5.402344-18.847656 20.019532-13.695313 32.878906l21.847657 55.296876zm0 0"/><path d="m54.484375 316.878906-19.199219-48.640625c-1.695312-4.292969.332032-9.15625 4.574219-10.976562l34.21875-14.675781 6.726563 15.683593-26.605469 11.410157 16.15625 40.929687zm0 0"/><path d="m469.71875 221.839844h-35.671875c-4.710937 0-8.53125-3.820313-8.53125-8.535156 0-4.710938 3.820313-8.53125 8.53125-8.53125h24.519531l-26.359375-97.265626c-.796875-2.945312.035157-6.089843 2.1875-8.25 2.148438-2.164062 5.289063-3.015624 8.238281-2.234374 2.945313.78125 5.253907 3.074218 6.050782 6.015624l29.269531 108.03125c.695313 2.566407.15625 5.308594-1.457031 7.421876-1.613282 2.109374-4.121094 3.347656-6.777344 3.347656zm0 0"/><path d="m469.71875 255.972656h-34.304688c-4.714843 0-8.535156-3.820312-8.535156-8.53125 0-4.714844 3.820313-8.535156 8.535156-8.535156h34.304688c7.914062.003906 15.390625-3.652344 20.242188-9.910156 4.855468-6.253906 6.539062-14.40625 4.5625-22.074219l-30.308594-111.613281c-1.238282-4.546875 1.445312-9.238282 5.996094-10.472656 4.546874-1.238282 9.234374 1.449218 10.472656 5.996093l30.378906 111.871094c3.257812 12.902344.359375 26.585937-7.851562 37.058594-8.082032 10.261719-20.433594 16.238281-33.492188 16.210937zm0 0"/></svg>