<svg height="511pt" viewBox="0 0 511 511.97689" width="511pt" xmlns="http://www.w3.org/2000/svg"><path d="m472.449219 93.074219 30.378906 111.875c2.578125 10.207031.304687 21.035156-6.167969 29.339843-6.472656 8.304688-16.414062 13.160157-26.941406 13.15625h-34.304688l-1.367187-34.136718h35.671875l-29.269531-108.03125zm0 0" fill="#ff5722"/><path d="m77.441406 250.429688-34.21875 14.679687 19.199219 48.636719-29.097656 19.203125-21.847657-55.296875c-6.863281-17.15625 1.253907-36.648438 18.261719-43.863282l44.546875-19.113281c1.417969-.59375 2.910156-.996093 4.433594-1.195312zm0 0" fill="#ff5722"/><path d="m435.585938 238.910156c.929687 65.347656-29.976563 127.0625-82.859376 165.460938l-97.28125 72.535156-12.714843-9.644531-82.6875-62.890625c-16.207031-11.371094-30.496094-25.253906-42.324219-41.128906l-22.613281-38.65625c-10.3125-23.453126-16.296875-48.574219-17.664063-74.15625-.171875-3.839844-.257812-7.679688-.257812-11.519532-.007813-8.5.503906-16.992187 1.535156-25.429687 10.839844-91.816407 79.617188-163.753907 164.867188-170.238281 4.265624-.429688 8.53125-.597657 12.796874-.597657 98.988282 0 179.203126 87.890625 179.203126 196.265625zm0 0" fill="#fec108"/><path d="m409.984375 238.910156c.929687 65.347656-29.976563 127.0625-82.859375 165.460938l-84.394531 62.890625-82.6875-62.890625c-16.207031-11.371094-30.496094-25.253906-42.324219-41.128906l-22.613281-38.65625c-10.3125-23.453126-16.296875-48.574219-17.664063-74.15625-.171875-3.839844-.257812-7.679688-.257812-11.519532-.007813-8.5.503906-16.992187 1.535156-25.429687 10.839844-91.816407 79.617188-163.753907 164.867188-170.238281 93.011718 7.082031 166.398437 91.988281 166.398437 195.667968zm0 0" fill="#ffdc00"/><path d="m256.382812 460.777344v25.597656c-.027343 9.417969-7.652343 17.039062-17.066406 17.070312h-102.398437c-9.414063-.03125-17.039063-7.652343-17.066407-17.070312v-25.597656c-.070312-31.34375 24.195313-57.363282 55.464844-59.476563 1.417969-.171875 2.84375-.257812 4.269532-.257812h17.066406c15.84375-.011719 31.042968 6.277343 42.25 17.484375 11.203125 11.203125 17.492187 26.402344 17.480468 42.25zm0 0" fill="#283593"/><path d="m230.785156 460.777344v25.597656c-.027344 9.417969-7.652344 17.039062-17.066406 17.070312h-76.800781c-9.414063-.03125-17.039063-7.652343-17.066407-17.070312v-25.597656c-.070312-31.34375 24.195313-57.363282 55.464844-59.476563 31.273438 2.113281 55.535156 28.132813 55.46875 59.476563zm0 0" fill="#3f51b5"/><path d="m392.917969 460.777344v25.597656c-.027344 9.417969-7.652344 17.039062-17.066407 17.070312h-102.398437c-9.417969-.03125-17.039063-7.652343-17.070313-17.070312v-25.597656c-.066406-31.34375 24.195313-57.363282 55.46875-59.476563 1.414063-.171875 2.839844-.257812 4.265626-.257812h17.066406c15.847656-.011719 31.046875 6.277343 42.25 17.484375 11.207031 11.203125 17.496094 26.402344 17.484375 42.25zm0 0" fill="#283593"/><path d="m367.316406 460.777344v25.597656c-.027344 9.417969-7.652344 17.039062-17.066406 17.070312h-76.796875c-9.417969-.03125-17.039063-7.652343-17.070313-17.070312v-25.597656c-.066406-31.34375 24.195313-57.363282 55.46875-59.476563 31.269532 2.113281 55.535157 28.132813 55.464844 59.476563zm0 0" fill="#3f51b5"/><path d="m179.585938 255.976562h153.597656c23.566406 0 42.667968 19.101563 42.667968 42.667969 0 23.5625-19.101562 42.664063-42.667968 42.664063h-153.597656c-23.566407 0-42.667969-19.101563-42.667969-42.664063 0-23.566406 19.101562-42.667969 42.667969-42.667969zm0 0" fill="#f5f5f5"/><path d="m106.238281 335.765625c-16.804687-22.015625-45.03125-28.722656-63.046875-14.972656s-18.996094 42.746093-2.191406 64.765625c16.804688 22.019531 45.03125 28.722656 63.046875 14.972656s18.996094-42.746094 2.191406-64.765625zm0 0" fill="#ff9801"/><path d="m460.585938 102.375c-8.882813 4.046875-19.003907 4.417969-28.160157 1.027344-13.570312-5.101563-24.558593-15.382813-30.546875-28.589844-11.949218-25-5.035156-53.246094 15.445313-62.972656.765625-.34375 1.621093-.683594 2.472656-1.027344 20.054687-7.679688 44.628906 4.609375 56.148437 28.671875 11.949219 25.003906 5.121094 53.164063-15.359374 62.890625zm0 0" fill="#f57c00"/><path d="m434.988281 102.375c-.824219.417969-1.679687.757812-2.5625 1.027344-13.570312-5.101563-24.558593-15.382813-30.546875-28.589844-11.949218-25-5.035156-53.246094 15.445313-62.972656.765625-.34375 1.621093-.683594 2.472656-1.027344 13.546875 5.1875 24.515625 15.484375 30.550781 28.671875 11.945313 25.003906 5.121094 53.164063-15.359375 62.890625zm0 0" fill="#ff9801"/><path d="m333.183594 349.84375h-153.597656c-28.277344 0-51.203126-22.921875-51.203126-51.199219 0-28.277343 22.925782-51.199219 51.203126-51.199219h153.597656c28.277344 0 51.199218 22.921876 51.199218 51.199219 0 28.277344-22.921874 51.199219-51.199218 51.199219zm-153.597656-85.332031c-18.851563 0-34.132813 15.28125-34.132813 34.132812 0 18.851563 15.28125 34.132813 34.132813 34.132813h153.597656c18.851562 0 34.132812-15.28125 34.132812-34.132813 0-18.851562-15.28125-34.132812-34.132812-34.132812zm0 0"/><path d="m341.71875 307.175781h-170.667969c-4.710937 0-8.53125-3.820312-8.53125-8.53125 0-4.714843 3.820313-8.535156 8.53125-8.535156h170.667969c4.710938 0 8.53125 3.820313 8.53125 8.535156 0 4.710938-3.820312 8.53125-8.53125 8.53125zm0 0"/><path d="m256.382812 324.242188c-4.710937 0-8.53125-3.820313-8.53125-8.53125v-34.132813c0-4.714844 3.820313-8.535156 8.53125-8.535156 4.714844 0 8.535157 3.820312 8.535157 8.535156v34.132813c0 4.710937-3.820313 8.53125-8.535157 8.53125zm0 0"/><path d="m205.183594 315.710938c-4.710938 0-8.53125-3.820313-8.53125-8.535157v-17.066406c0-4.710937 3.820312-8.53125 8.53125-8.53125 4.714844 0 8.535156 3.820313 8.535156 8.53125v17.066406c0 4.714844-3.820312 8.535157-8.535156 8.535157zm0 0"/><path d="m307.585938 315.710938c-4.714844 0-8.535157-3.820313-8.535157-8.535157v-17.066406c0-4.710937 3.820313-8.53125 8.535157-8.53125 4.710937 0 8.53125 3.820313 8.53125 8.53125v17.066406c0 4.714844-3.820313 8.535157-8.53125 8.535157zm0 0"/><path d="m229.128906 113.113281c-9.644531-3.75-20.175781-4.605469-30.300781-2.457031-4.835937 1.554688-9.34375 3.976562-13.308594 7.152344-2.183593 1.535156-3.984375 3.636718-6.207031 5.355468-1.953125 2.019532-3.78125 4.183594-5.945312 6.203126l-.253907.234374c-.9375.875-2.351562.976563-3.402343.253907-1.054688-.726563-1.460938-2.085938-.980469-3.269531 1.167969-2.871094 2.613281-5.636719 4.035156-8.472657 1.703125-2.730469 3.621094-5.320312 5.734375-7.746093 4.535156-5.070313 10.277344-8.921876 16.691406-11.195313 6.59375-2.296875 13.726563-2.542969 20.460938-.707031 6.476562 1.691406 12.316406 5.253906 16.78125 10.238281.820312.941406.921875 2.316406.242187 3.363281-.675781 1.050782-1.96875 1.523438-3.164062 1.164063zm0 0"/><path d="m280.332031 108.707031c4.46875-4.988281 10.304688-8.550781 16.78125-10.242187 6.734375-1.835938 13.867188-1.589844 20.460938.707031 6.414062 2.273437 12.15625 6.125 16.691406 11.195313 2.113281 2.429687 4.03125 5.019531 5.734375 7.746093 1.421875 2.835938 2.867188 5.601563 4.035156 8.472657.480469 1.183593.074219 2.542968-.976562 3.269531-1.050782.726562-2.46875.621093-3.402344-.25l-.257812-.238281c-2.164063-2.015626-3.988282-4.179688-5.941407-6.199219-2.21875-1.722657-4.027343-3.820313-6.207031-5.359375-3.964844-3.175782-8.476562-5.597656-13.3125-7.152344-10.125-2.144531-20.65625-1.292969-30.300781 2.460938l-.378907.113281c-1.195312.363281-2.488281-.113281-3.164062-1.160157-.679688-1.046874-.582031-2.417968.234375-3.363281zm0 0"/><path d="m160.035156 412.90625c-1.742187-.003906-3.441406-.539062-4.871094-1.539062-16.957031-11.878907-31.90625-26.398438-44.269531-43.007813-1.910156-2.433594-2.351562-5.707031-1.15625-8.5625 1.195313-2.851563 3.839844-4.835937 6.914063-5.183594 3.074218-.34375 6.09375 1 7.894531 3.515625 11.28125 15.148438 24.914063 28.394532 40.378906 39.238282 3.054688 2.136718 4.375 6.003906 3.253907 9.5625-1.117188 3.554687-4.414063 5.972656-8.140626 5.96875zm0 0"/><path d="m352.734375 412.90625c-3.726563 0-7.019531-2.414062-8.140625-5.96875-1.121094-3.550781.191406-7.421875 3.246094-9.558594 50.65625-36.75 80.21875-95.890625 79.210937-158.46875 0-103.515625-76.5625-187.734375-170.667969-187.734375-85.484374 0-158.222656 70.203125-169.1875 163.300781-.992187 8.105469-1.484374 16.265626-1.476562 24.433594 0 3.714844.082031 7.425782.246094 11.132813 1.300781 24.527343 7.042968 48.617187 16.949218 71.09375 1.230469 2.789062.882813 6.023437-.917968 8.484375-1.796875 2.464844-4.773438 3.777344-7.808594 3.449218-3.03125-.324218-5.65625-2.246093-6.890625-5.035156-10.742187-24.390625-16.96875-50.527344-18.378906-77.140625-.179688-4.046875-.265625-8.019531-.265625-11.984375-.011719-8.851562.527344-17.695312 1.601562-26.484375 11.964844-101.632812 91.992188-178.316406 186.128906-178.316406 103.519532 0 187.734376 91.875 187.734376 204.800781 1.011718 68.148438-31.273438 132.511719-86.503907 172.449219-1.429687 1.007813-3.132812 1.546875-4.878906 1.546875zm0 0"/><path d="m239.316406 511.976562h-102.398437c-14.132813-.015624-25.585938-11.46875-25.601563-25.601562v-25.597656c.042969-37.683594 30.582032-68.222656 68.269532-68.265625h17.066406c37.683594.042969 68.222656 30.582031 68.265625 68.265625v25.597656c-.015625 14.132812-11.46875 25.585938-25.601563 25.601562zm-59.730468-102.398437c-28.265626.03125-51.171876 22.933594-51.203126 51.199219v25.597656c.007813 4.714844 3.824219 8.53125 8.535157 8.535156h102.398437c4.710938-.003906 8.53125-3.820312 8.535156-8.535156v-25.597656c-.03125-28.265625-22.9375-51.167969-51.199218-51.199219zm0 0"/><path d="m256.382812 477.84375h-136.53125c-4.714843 0-8.535156-3.820312-8.535156-8.535156 0-4.710938 3.820313-8.53125 8.535156-8.53125h136.53125c4.714844 0 8.535157 3.820312 8.535157 8.53125 0 4.714844-3.820313 8.535156-8.535157 8.535156zm0 0"/><path d="m375.851562 511.976562h-102.398437c-14.132813-.015624-25.585937-11.46875-25.601563-25.601562v-25.597656c.042969-37.683594 30.582032-68.222656 68.265626-68.265625h17.066406c37.6875.042969 68.222656 30.582031 68.269531 68.265625v25.597656c-.015625 14.132812-11.46875 25.585938-25.601563 25.601562zm-59.734374-102.398437c-28.261719.03125-51.167969 22.933594-51.199219 51.199219v25.597656c.003906 4.714844 3.820312 8.53125 8.535156 8.535156h102.398437c4.710938-.003906 8.527344-3.820312 8.53125-8.535156v-25.597656c-.027343-28.265625-22.933593-51.167969-51.199218-51.199219zm0 0"/><path d="m392.917969 477.84375h-136.535157c-4.710937 0-8.53125-3.820312-8.53125-8.535156 0-4.710938 3.820313-8.53125 8.53125-8.53125h136.535157c4.710937 0 8.535156 3.820312 8.535156 8.53125 0 4.714844-3.824219 8.535156-8.535156 8.535156zm0 0"/><path d="m82.28125 416.21875c-4.101562-.011719-8.191406-.503906-12.179688-1.457031-14.367187-3.648438-27.039062-12.132813-35.882812-24.027344-19.628906-25.722656-17.921875-60.148437 3.796875-76.722656 21.714844-16.578125 55.378906-9.144531 75.007813 16.582031 9.140624 11.664062 13.980468 26.125 13.707031 40.941406-.074219 13.972656-6.519531 27.144532-17.507813 35.773438-7.746094 5.875-17.222656 9.007812-26.941406 8.910156zm-17.183594-94.058594c-6.023437-.097656-11.90625 1.808594-16.726562 5.417969-14.246094 10.875-14.507813 34.558594-.585938 52.808594 6.453125 8.761719 15.722656 15.035156 26.257813 17.765625 8.515625 2.382812 17.652343.757812 24.824219-4.410156 6.882812-5.554688 10.859374-13.941407 10.804687-22.78125.140625-10.882813-3.464844-21.480469-10.214844-30.019532-7.980469-11.179687-20.636719-18.097656-34.359375-18.78125zm0 0"/><path d="m445.644531 114.285156c-7.359375-.0625-14.613281-1.753906-21.238281-4.949218-13.339844-6.503907-24.023438-17.414063-30.25-30.882813-13.925781-29.210937-5.183594-62.542969 19.480469-74.308594 24.671875-11.785156 56.082031 2.433594 70.007812 31.640625 6.542969 13.289063 8.332031 28.421875 5.0625 42.867188-2.902343 13.667968-11.902343 25.25-24.429687 31.433594-5.820313 2.777343-12.1875 4.214843-18.632813 4.199218zm-13.335937-97.257812c-3.914063-.019532-7.785156.839844-11.324219 2.515625-16.175781 7.71875-21.300781 30.851562-11.421875 51.558593 4.523438 9.914063 12.328125 17.964844 22.097656 22.792969 7.863282 4.089844 17.164063 4.382813 25.269532.789063 7.859374-4.015625 13.453124-11.402344 15.191406-20.058594 2.339844-10.628906.96875-21.742188-3.886719-31.488281-6.125-14.753907-20-24.839844-35.925781-26.109375zm0 0"/><path d="m25.386719 336.078125-21.84375-55.292969c-8.59375-21.445312 1.554687-45.824218 22.828125-54.832031l44.550781-19.117187c2.167969-.910157 4.449219-1.527344 6.78125-1.832032l2.042969 16.949219c-.757813.101563-1.496094.308594-2.195313.605469l-44.445312 19.078125c-12.753907 5.398437-18.84375 20.015625-13.691407 32.875l21.847657 55.292969zm0 0"/><path d="m54.484375 316.875-19.199219-48.632812c-1.695312-4.292969.332032-9.152344 4.570313-10.972657l34.21875-14.683593 6.734375 15.683593-26.609375 11.414063 16.160156 40.925781zm0 0"/><path d="m469.71875 221.84375h-35.671875c-4.710937 0-8.53125-3.820312-8.53125-8.535156 0-4.710938 3.820313-8.53125 8.53125-8.53125h24.519531l-26.355468-97.265625c-1.234376-4.550781 1.453124-9.238281 6.003906-10.472657 4.546875-1.234374 9.238281 1.453126 10.46875 6.003907l29.269531 108.03125c.699219 2.566406.160156 5.308593-1.457031 7.421875-1.613282 2.109375-4.121094 3.347656-6.777344 3.347656zm0 0"/><path d="m469.71875 255.976562h-34.304688c-4.714843 0-8.535156-3.820312-8.535156-8.53125 0-4.714843 3.820313-8.535156 8.535156-8.535156h34.304688c7.917969.007813 15.394531-3.652344 20.25-9.914062 4.851562-6.257813 6.535156-14.410156 4.558594-22.078125l-30.3125-111.609375c-.855469-2.957032-.046875-6.148438 2.113281-8.347656 2.160156-2.199219 5.335937-3.058594 8.3125-2.253907 2.972656.804688 5.285156 3.148438 6.042969 6.136719l30.378906 111.867188c3.253906 12.902343.355469 26.582031-7.851562 37.058593-8.085938 10.257813-20.433594 16.230469-33.492188 16.207031zm0 0"/><path d="m162.507812 204.777344c-3.144531-.003906-6.03125-1.738282-7.515624-4.511719-1.480469-2.773437-1.320313-6.136719.425781-8.753906.859375-1.277344 21.480469-31.144531 70.003906-11.726563 4.378906 1.75 6.503906 6.71875 4.753906 11.097656-1.75 4.375-6.71875 6.503907-11.09375 4.753907-35.816406-14.335938-49.332031 5.148437-49.464843 5.339843-1.582032 2.378907-4.25 3.804688-7.109376 3.800782zm0 0"/><path d="m350.261719 204.777344c-2.824219 0-5.464844-1.390625-7.054688-3.714844-.710937-1.003906-14.53125-19.425781-49.519531-5.425781-4.375 1.75-9.34375-.378907-11.09375-4.753907-1.753906-4.378906.375-9.347656 4.753906-11.097656 48.546875-19.398437 69.144532 10.441406 70.003906 11.726563 1.746094 2.617187 1.90625 5.980469.425782 8.753906-1.484375 2.773437-4.371094 4.507813-7.515625 4.511719zm0 0"/></svg>