<svg height="512pt" viewBox="0 0 512 512" width="512pt" xmlns="http://www.w3.org/2000/svg"><path d="m434.972656 250.453125 34.21875 14.675781-19.199218 48.640625 29.097656 19.199219 21.84375-55.292969c6.867187-17.15625-1.25-36.648437-18.261719-43.863281l-44.542969-19.113281c-1.417968-.597657-2.910156-.996094-4.4375-1.195313zm0 0" fill="#ff5722"/><path d="m76.953125 250.453125-34.21875 14.675781 19.199219 48.640625-29.097656 19.199219-21.84375-55.292969c-6.867188-17.15625 1.25-36.648437 18.257812-43.863281l44.546875-19.113281c1.417969-.597657 2.910156-.996094 4.4375-1.195313zm0 0" fill="#ff5722"/><path d="m435.097656 238.933594c.929688 65.347656-29.976562 127.0625-82.859375 165.460937l-97.28125 72.535157-12.714843-9.644532-82.6875-62.890625c-16.207032-11.371093-30.496094-25.253906-42.324219-41.128906l-22.613281-38.65625c-10.3125-23.453125-16.296876-48.574219-17.664063-74.15625-.171875-3.839844-.257813-7.679687-.257813-11.519531-.007812-8.5.503907-16.992188 1.539063-25.429688 10.835937-91.820312 79.613281-163.753906 164.863281-170.238281 4.265625-.429687 8.53125-.597656 12.800782-.597656 98.984374 0 179.199218 87.890625 179.199218 196.265625zm0 0" fill="#fec108"/><path d="m409.496094 238.933594c.929687 65.347656-29.976563 127.0625-82.859375 165.460937l-84.394531 62.890625-82.6875-62.890625c-16.207032-11.371093-30.496094-25.253906-42.324219-41.128906l-22.613281-38.65625c-10.3125-23.453125-16.296876-48.574219-17.664063-74.15625-.171875-3.839844-.257813-7.679687-.257813-11.519531-.007812-8.5.503907-16.992188 1.539063-25.429688 10.835937-91.820312 79.613281-163.753906 164.863281-170.238281 93.011719 7.082031 166.398438 91.988281 166.398438 195.667969zm0 0" fill="#ffdc00"/><path d="m255.898438 460.800781v25.597657c-.027344 9.414062-7.652344 17.039062-17.066407 17.066406h-102.402343c-9.414063-.027344-17.039063-7.652344-17.066407-17.066406v-25.597657c-.066406-31.34375 24.195313-57.363281 55.46875-59.476562 1.414063-.171875 2.839844-.257813 4.265625-.257813h17.066406c15.84375-.011718 31.046876 6.277344 42.25 17.484375 11.203126 11.203125 17.496094 26.402344 17.484376 42.25zm0 0" fill="#283593"/><path d="m230.296875 460.800781v25.597657c-.027344 9.414062-7.652344 17.039062-17.066406 17.066406h-76.800781c-9.414063-.027344-17.039063-7.652344-17.066407-17.066406v-25.597657c-.066406-31.34375 24.195313-57.363281 55.46875-59.476562 31.269531 2.113281 55.535157 28.132812 55.464844 59.476562zm0 0" fill="#3f51b5"/><path d="m392.429688 460.800781v25.597657c-.027344 9.414062-7.652344 17.039062-17.066407 17.066406h-102.398437c-9.414063-.027344-17.039063-7.652344-17.066406-17.066406v-25.597657c-.070313-31.34375 24.195312-57.363281 55.464843-59.476562 1.417969-.171875 2.839844-.257813 4.265625-.257813h17.066406c15.847657-.011718 31.046876 6.277344 42.253907 17.484375 11.203125 11.203125 17.492187 26.402344 17.480469 42.25zm0 0" fill="#283593"/><path d="m366.832031 460.800781v25.597657c-.027343 9.414062-7.652343 17.039062-17.066406 17.066406h-76.800781c-9.414063-.027344-17.039063-7.652344-17.066406-17.066406v-25.597657c-.070313-31.34375 24.195312-57.363281 55.464843-59.476562 31.273438 2.113281 55.535157 28.132812 55.46875 59.476562zm0 0" fill="#3f51b5"/><path d="m105.75 335.789062c-16.804688-22.015624-45.03125-28.722656-63.046875-14.972656-18.011719 13.75-18.996094 42.746094-2.191406 64.765625 16.804687 22.015625 45.035156 28.722657 63.046875 14.972657 18.015625-13.75 19-42.746094 2.191406-64.765626zm0 0" fill="#ff9801"/><path d="m471.449219 385.621094c-11.785157 17.347656-33.222657 25.382812-53.503907 20.054687-3.453124-1.15625-6.683593-2.890625-9.558593-5.121093-18.003907-13.738282-19.027344-42.753907-2.21875-64.769532 7.015625-9.398437 16.761719-16.402344 27.90625-20.050781 11.847656-4.179687 24.992187-2.265625 35.15625 5.117187 18.003906 13.742188 18.945312 42.667969 2.21875 64.769532zm0 0" fill="#f57c00"/><path d="m445.847656 385.621094c-7.03125 9.382812-16.769531 16.378906-27.902344 20.054687-3.453124-1.15625-6.683593-2.890625-9.558593-5.121093-18.003907-13.738282-19.027344-42.753907-2.21875-64.769532 7.015625-9.398437 16.761719-16.402344 27.90625-20.050781 3.449219 1.15625 6.679687 2.886719 9.554687 5.117187 18.007813 13.742188 18.945313 42.667969 2.21875 64.769532zm0 0" fill="#ff9801"/><path d="m221.765625 183.464844c0-21.207032-7.644531-38.398438-17.070313-38.398438-9.425781 0-17.066406 17.191406-17.066406 38.398438 0 21.210937 7.640625 38.402344 17.066406 38.402344 9.425782 0 17.070313-17.191407 17.070313-38.402344zm0 0" fill="#3f51b5"/><path d="m214.179688 166.398438c0-11.78125-4.246094-21.332032-9.484376-21.332032-5.234374 0-9.480468 9.550782-9.480468 21.332032 0 11.785156 4.246094 21.335937 9.480468 21.335937 5.238282 0 9.484376-9.550781 9.484376-21.335937zm0 0" fill="#f5f5f5"/><path d="m324.164062 183.464844c0-21.207032-7.640624-38.398438-17.066406-38.398438-9.425781 0-17.066406 17.191406-17.066406 38.398438 0 21.210937 7.640625 38.402344 17.066406 38.402344 9.425782 0 17.066406-17.191407 17.066406-38.402344zm0 0" fill="#3f51b5"/><path d="m316.578125 166.398438c0-11.78125-4.246094-21.332032-9.480469-21.332032-5.238281 0-9.480468 9.550782-9.480468 21.332032 0 11.785156 4.242187 21.335937 9.480468 21.335937 5.234375 0 9.480469-9.550781 9.480469-21.335937zm0 0" fill="#f5f5f5"/><path d="m159.546875 412.929688c-1.742187 0-3.441406-.539063-4.871094-1.539063-16.957031-11.882813-31.902343-26.402344-44.273437-43.007813-2.828125-3.769531-2.0625-9.117187 1.707031-11.945312s9.121094-2.0625 11.949219 1.707031c11.28125 15.152344 24.910156 28.402344 40.378906 39.253907 3.054688 2.132812 4.371094 6.003906 3.253906 9.558593-1.117187 3.554688-4.414062 5.972657-8.140625 5.972657zm0 0"/><path d="m352.246094 412.929688c-3.726563.003906-7.027344-2.414063-8.148438-5.96875-1.121094-3.558594.195313-7.429688 3.253906-9.5625 15.570313-10.882813 29.257813-24.238282 40.511719-39.542969 2.804688-3.765625 8.125-4.554688 11.90625-1.769531 3.777344 2.785156 4.597657 8.101562 1.832031 11.894531-12.359374 16.800781-27.382812 31.464843-44.480468 43.410156-1.425782 1-3.128906 1.535156-4.875 1.539063zm0 0"/><path d="m417.089844 333.316406c-2.886719-.003906-5.578125-1.46875-7.148438-3.890625-1.570312-2.425781-1.8125-5.476562-.640625-8.117187 9.980469-22.535156 15.753907-46.707032 17.023438-71.320313.160156-3.632812.238281-7.339843.238281-11.054687.007812-8.148438-.480469-16.289063-1.46875-24.378906-10.972656-93.148438-83.707031-163.355469-169.195312-163.355469-85.488282 0-158.226563 70.207031-169.1875 163.304687-.996094 8.105469-1.488282 16.265625-1.480469 24.429688 0 3.714844.082031 7.429687.246093 11.140625 1.304688 24.527343 7.046876 48.613281 16.949219 71.089843 1.230469 2.789063.878907 6.023438-.917969 8.484376-1.800781 2.460937-4.777343 3.773437-7.808593 3.445312s-5.660157-2.25-6.890625-5.039062c-10.742188-24.386719-16.96875-50.523438-18.378906-77.132813-.179688-4.050781-.265626-8.023437-.265626-11.988281-.007812-8.851563.527344-17.695313 1.605469-26.480469 11.960938-101.636719 91.984375-178.320313 186.128907-178.320313 94.140624 0 174.164062 76.683594 186.136718 178.371094 1.070313 8.769532 1.605469 17.59375 1.59375 26.429688 0 3.964844-.085937 7.933594-.261718 11.898437-1.375 26.71875-7.640626 52.957031-18.476563 77.417969-1.371094 3.082031-4.425781 5.066406-7.800781 5.066406zm0 0"/><path d="m238.832031 512h-102.402343c-14.132813-.015625-25.582032-11.46875-25.597657-25.601562v-25.597657c.042969-37.683593 30.582031-68.222656 68.265625-68.265625h17.066406c37.683594.042969 68.222657 30.582032 68.265626 68.265625v25.597657c-.015626 14.132812-11.46875 25.585937-25.597657 25.601562zm-59.734375-102.398438c-28.265625.03125-51.167968 22.933594-51.199218 51.199219v25.597657c.003906 4.710937 3.820312 8.527343 8.53125 8.535156h102.402343c4.707031-.007813 8.527344-3.824219 8.53125-8.535156v-25.597657c-.03125-28.265625-22.933593-51.167969-51.199219-51.199219zm0 0"/><path d="m255.898438 477.867188h-136.535157c-4.710937 0-8.53125-3.820313-8.53125-8.535157 0-4.710937 3.820313-8.53125 8.53125-8.53125h136.535157c4.710937 0 8.53125 3.820313 8.53125 8.53125 0 4.714844-3.820313 8.535157-8.53125 8.535157zm0 0"/><path d="m375.363281 512h-102.398437c-14.132813-.015625-25.585938-11.46875-25.601563-25.601562v-25.597657c.042969-37.683593 30.582031-68.222656 68.265625-68.265625h17.066406c37.6875.042969 68.226563 30.582032 68.269532 68.265625v25.597657c-.015625 14.132812-11.46875 25.585937-25.601563 25.601562zm-59.734375-102.398438c-28.261718.03125-51.167968 22.933594-51.199218 51.199219v25.597657c.007812 4.710937 3.824218 8.527343 8.535156 8.535156h102.398437c4.710938-.007813 8.527344-3.824219 8.535157-8.535156v-25.597657c-.03125-28.265625-22.9375-51.167969-51.203126-51.199219zm0 0"/><path d="m392.429688 477.867188h-136.53125c-4.714844 0-8.535157-3.820313-8.535157-8.535157 0-4.710937 3.820313-8.53125 8.535157-8.53125h136.53125c4.714843 0 8.535156 3.820313 8.535156 8.53125 0 4.714844-3.820313 8.535157-8.535156 8.535157zm0 0"/><path d="m81.796875 416.246094c-4.105469-.011719-8.195313-.503906-12.1875-1.464844-14.367187-3.644531-27.039063-12.132812-35.878906-24.027344-9.140625-11.667968-13.980469-26.125-13.707031-40.945312.074218-13.96875 6.519531-27.144532 17.503906-35.773438 11.226562-8.316406 25.632812-11.058594 39.128906-7.449218 14.367188 3.648437 27.039062 12.132812 35.878906 24.03125 9.144532 11.667968 13.984375 26.125 13.710938 40.945312-.074219 13.972656-6.523438 27.144531-17.507813 35.773438-7.746093 5.875-17.222656 9.007812-26.941406 8.910156zm-17.242187-94.039063c-6-.09375-11.863282 1.800781-16.671876 5.398438-6.878906 5.554687-10.855468 13.941406-10.800781 22.78125-.144531 10.882812 3.464844 21.480469 10.214844 30.015625 6.453125 8.765625 15.722656 15.042968 26.257813 17.777344 8.515624 2.378906 17.652343.757812 24.824218-4.40625 6.882813-5.558594 10.859375-13.941407 10.804688-22.785157.144531-10.882812-3.460938-21.484375-10.214844-30.019531v-.003906c-6.453125-8.761719-15.726562-15.039063-26.257812-17.773438-2.671876-.644531-5.410157-.976562-8.15625-.988281zm0 0"/><path d="m24.898438 336.109375-21.84375-55.296875c-8.59375-21.445312 1.554687-45.828125 22.828124-54.835938l44.550782-19.117187c2.175781-.914063 4.464844-1.53125 6.808594-1.828125l1.992187 16.949219c-.746094.105469-1.476563.308593-2.171875.605469l-44.441406 19.070312c-12.753906 5.402344-18.84375 20.015625-13.695313 32.878906l21.851563 55.292969zm0 0"/><path d="m54 316.902344-19.203125-48.636719c-1.691406-4.296875.335937-9.15625 4.578125-10.976563l34.21875-14.675781 6.722656 15.679688-26.601562 11.410156 16.15625 40.933594zm0 0"/><path d="m430.128906 416.246094c-9.71875.097656-19.199218-3.035156-26.945312-8.910156-10.984375-8.632813-17.429688-21.804688-17.503906-35.773438-.277344-14.820312 4.566406-29.28125 13.707031-40.949219 8.84375-11.894531 21.515625-20.378906 35.882812-24.027343 13.484375-3.816407 27.984375-1.058594 39.125 7.445312 11.144531 8.503906 17.628907 21.761719 17.507813 35.777344.175781 30.417968-20.203125 57.121094-49.589844 64.972656-3.988281.960938-8.078125 1.453125-12.183594 1.464844zm17.238282-94.039063c-2.746094.011719-5.484376.34375-8.15625.988281-10.535157 2.734376-19.804688 9.011719-26.257813 17.773438v.007812c-6.753906 8.53125-10.359375 19.128907-10.21875 30.011719-.296875 8.894531 3.726563 17.382813 10.800781 22.785157 7.074219 5.398437 16.328125 7.042968 24.828125 4.410156 21.484375-5.976563 36.378907-25.496094 36.476563-47.792969.050781-8.839844-3.921875-17.226563-10.800782-22.78125-4.804687-3.597656-10.667968-5.496094-16.667968-5.40625zm0 0"/><path d="m487.027344 336.109375-15.875-6.277344 21.847656-55.296875c5.152344-12.859375-.9375-27.484375-13.695312-32.886718l-44.539063-19.109376c-.664063-.273437-1.359375-.460937-2.070313-.5625l2-16.949218c2.300782.292968 4.550782.890625 6.691407 1.785156l44.65625 19.160156c21.277343 9.011719 31.425781 33.394532 22.828125 54.84375zm0 0"/><path d="m457.925781 316.902344-15.871093-6.265625 16.160156-40.933594-26.601563-11.40625 6.726563-15.683594 34.21875 14.675781c4.238281 1.820313 6.265625 6.683594 4.574218 10.976563zm0 0"/><path d="m204.695312 230.398438c-16.808593 0-25.597656-23.609376-25.597656-46.933594 0-23.320313 8.789063-46.929688 25.597656-46.929688 16.8125 0 25.601563 23.609375 25.601563 46.929688 0 23.324218-8.789063 46.933594-25.601563 46.933594zm-.167968-76.820313c-2.050782.777344-8.363282 11.140625-8.363282 29.886719s6.3125 29.113281 8.703126 29.890625c2.046874-.777344 8.363281-11.144531 8.363281-29.890625s-6.316407-29.109375-8.703125-29.886719zm0 0"/><path d="m307.097656 230.398438c-16.8125 0-25.601562-23.609376-25.601562-46.933594 0-23.320313 8.789062-46.929688 25.601562-46.929688 16.808594 0 25.597656 23.609375 25.597656 46.929688 0 23.324218-8.789062 46.933594-25.597656 46.933594zm-.171875-76.820313c-2.046875.777344-8.363281 11.140625-8.363281 29.886719s6.316406 29.113281 8.707031 29.890625c2.046875-.777344 8.359375-11.144531 8.359375-29.890625s-6.3125-29.109375-8.703125-29.886719zm0 0"/><path d="m172.554688 118.472656c4.648437 3.832032 9.667968 7.191406 14.984374 10.027344 4.996094 2.59375 10.21875 4.726562 15.601563 6.371094 5.464844 1.28125 10.902344 2.492187 16.703125 3.472656 2.875.707031 5.871094.855469 8.917969 1.65625 3.242187.417969 6.441406 1.113281 9.570312 2.070312l.3125.101563c1.207031.402344 2.070313 1.464844 2.21875 2.730469.144531 1.261718-.453125 2.496094-1.535156 3.160156-6.144531 3.640625-13.0625 5.757812-20.1875 6.183594-14.828125.867187-29.328125-4.59375-39.898437-15.03125-5.292969-5.089844-9-11.601563-10.671876-18.753906-.199218-.945313.21875-1.910157 1.039063-2.414063.824219-.507813 1.875-.4375 2.628906.167969zm0 0"/><path d="m343.222656 120.460938c-1.675781 7.152343-5.382812 13.664062-10.675781 18.753906-10.570313 10.4375-25.070313 15.898437-39.898437 15.03125-7.125-.425782-14.042969-2.542969-20.183594-6.183594-1.082032-.664062-1.679688-1.898438-1.53125-3.160156.144531-1.261719 1.007812-2.324219 2.210937-2.726563l.320313-.101562c3.125-.957031 6.324218-1.652344 9.566406-2.070313 3.046875-.804687 6.046875-.949218 8.921875-1.65625 5.800781-.980468 11.238281-2.1875 16.699219-3.472656 5.386718-1.644531 10.609375-3.777344 15.605468-6.375 5.316407-2.832031 10.335938-6.191406 14.980469-10.027344l.308594-.246094c.75-.609374 1.804687-.679687 2.628906-.175781.824219.503907 1.242188 1.46875 1.046875 2.414063zm0 0"/><path d="m315.628906 315.734375c-4.710937 0-8.53125-3.820313-8.53125-8.535156-.023437-18.839844-15.292968-34.113281-34.132812-34.132813h-34.132813c-18.84375.019532-34.113281 15.292969-34.136719 34.132813 0 4.714843-3.820312 8.535156-8.53125 8.535156-4.714843 0-8.535156-3.820313-8.535156-8.535156.03125-28.261719 22.9375-51.167969 51.203125-51.199219h34.132813c28.261718.03125 51.167968 22.9375 51.199218 51.199219 0 4.714843-3.820312 8.535156-8.535156 8.535156zm0 0"/><path d="m264.429688 307.199219h-17.066407c-4.710937 0-8.53125-3.820313-8.53125-8.53125 0-4.714844 3.820313-8.535157 8.53125-8.535157h17.066407c4.714843 0 8.535156 3.820313 8.535156 8.535157 0 4.710937-3.820313 8.53125-8.535156 8.53125zm0 0"/><path d="m418.03125 51.199219h-17.066406c-4.714844 0-8.535156-3.820313-8.535156-8.53125 0-4.714844 3.820312-8.535157 8.535156-8.535157h17.066406c4.710938-.003906 8.527344-3.824218 8.53125-8.53125v-17.066406c0-4.714844 3.820312-8.535156 8.535156-8.535156 4.710938 0 8.53125 3.820312 8.53125 8.535156v17.066406c-.015625 14.128907-11.464844 25.582032-25.597656 25.597657zm0 0"/><path d="m503.363281 51.199219h-17.066406c-14.132813-.015625-25.585937-11.46875-25.601563-25.597657v-17.066406c0-4.714844 3.824219-8.535156 8.535157-8.535156 4.710937 0 8.535156 3.820312 8.535156 8.535156v17.066406c.003906 4.707032 3.820313 8.527344 8.53125 8.53125h17.066406c4.714844 0 8.535157 3.820313 8.535157 8.535157 0 4.710937-3.820313 8.53125-8.535157 8.53125zm0 0"/><path d="m435.097656 119.464844c-4.714844 0-8.535156-3.820313-8.535156-8.53125v-17.066406c-.003906-4.710938-3.820312-8.527344-8.53125-8.535157h-17.066406c-4.714844 0-8.535156-3.820312-8.535156-8.53125 0-4.714843 3.820312-8.535156 8.535156-8.535156h17.066406c14.132812.015625 25.582031 11.46875 25.597656 25.601563v17.066406c0 2.261718-.898437 4.433594-2.496094 6.035156-1.601562 1.597656-3.773437 2.496094-6.035156 2.496094zm0 0"/><path d="m469.230469 119.464844c-4.710938 0-8.535157-3.820313-8.535157-8.53125v-17.066406c.015626-14.132813 11.46875-25.585938 25.601563-25.601563h17.066406c4.714844 0 8.535157 3.820313 8.535157 8.535156 0 4.710938-3.820313 8.53125-8.535157 8.53125h-17.066406c-4.710937.007813-8.527344 3.824219-8.53125 8.535157v17.066406c0 4.710937-3.824219 8.53125-8.535156 8.53125zm0 0"/></svg>