<svg height="512pt" viewBox="0 0 512.01754 512" width="512pt" xmlns="http://www.w3.org/2000/svg"><path d="m78.011719 395.035156c-3.15625 4.007813-6.484375 7.933594-9.898438 11.773438-12.605469 13.949218-34.113281 15.082031-48.113281 2.535156-14.003906-12.542969-15.230469-34.046875-2.746094-48.101562 7.550782-8.457032 14.375-17.53125 20.394532-27.136719zm0 0" fill="#ff9801"/><path d="m247.484375 8.558594c-101.273437-.015625-190.675781 66.109375-220.316406 162.949218-29.636719 96.835938 7.445312 201.675782 91.378906 258.34375h.085937l69.117188 48.039063v8.535156c.027344 9.414063 7.652344 17.039063 17.066406 17.066407h145.066406c9.414063-.027344 17.039063-7.652344 17.066407-17.066407v-50.433593c.769531-.511719 1.539062-.9375 2.304687-1.449219 3.753906-2.390625 7.511719-4.863281 11.09375-7.421875.011719.089844.039063.175781.085938.253906 1.058594 2.222656 2.570312 4.199219 4.4375 5.804688.597656.59375 1.28125 1.277343 1.960937 1.875 1.261719 1.097656 2.601563 2.097656 4.011719 2.988281.6875.558593 1.429688 1.046875 2.21875 1.449219.800781.449218 1.625.847656 2.476562 1.195312.6875.335938 1.402344.621094 2.132813.851562 1.109375.429688 2.21875.769532 3.328125 1.109376 2.808594.753906 5.707031 1.125 8.617188 1.109374 9.707031.015626 18.957031-4.113281 25.429687-11.347656 43.410156-48.574218 67.722656-111.246094 68.4375-176.382812 1.023437-76.800782-51.199219-247.46875-256-247.46875zm0 0" fill="#f0c419"/><path d="m503.484375 256.027344c-.714844 65.136718-25.027344 127.808594-68.4375 176.382812-6.472656 7.234375-15.722656 11.363282-25.429687 11.347656-2.910157.015626-5.808594-.355468-8.617188-1.109374-1.109375-.339844-2.21875-.679688-3.328125-1.109376-.730469-.230468-1.445313-.515624-2.132813-.851562-.851562-.347656-1.675781-.746094-2.476562-1.195312-.789062-.402344-1.53125-.890626-2.21875-1.449219-1.410156-.890625-2.75-1.890625-4.011719-2.988281-.679687-.597657-1.363281-1.28125-1.960937-1.875-1.867188-1.605469-3.378906-3.582032-4.4375-5.804688-.046875-.078125-.074219-.164062-.085938-.253906-3.582031 2.558594-7.339844 5.03125-11.09375 7.421875-.765625.511719-1.535156.9375-2.304687 1.449219-20.9375 12.730468-43.785157 22.007812-67.667969 27.480468h-.253906l-.34375-2.648437c-8.613282-20.691407-28.785156-34.207031-51.199219-34.300781h-8.535156c-20.351563.027343-38.761719 12.078124-46.933594 30.71875-.683594 1.617187-1.28125 3.269531-1.789063 4.949218-1.652343 5.039063-2.488281 10.3125-2.476562 15.617188v.082031l-69.117188-48.039063h-.085937c-83.933594-56.667968-121.015625-161.507812-91.378906-258.34375 29.640625-96.839843 119.042969-162.964843 220.316406-162.949218 204.800781 0 257.023437 170.667968 256 247.46875zm0 0" fill="#ffdc00"/><path d="m380.347656 427.121094c-3.582031 2.558594-7.339844 5.03125-11.09375 7.421875-13.523437-12.691407-14.46875-33.851563-2.132812-47.699219 26.3125-29.355469 43.144531-65.972656 48.292968-105.054688 1.203126-9.3125 9.132813-16.285156 18.523438-16.292968-2.132812 44.96875-19.703125 87.824218-49.75 121.347656-9.945312 11.140625-11.5 27.453125-3.839844 40.277344zm0 0" fill="#fec108"/><path d="m192.015625 457.242188c-8.148437-18.652344-26.578125-30.703126-46.929687-30.695313h-8.535157c-28.296875.046875-51.207031 23-51.199219 51.296875v8.550781c.019532 9.421875 7.644532 17.0625 17.066407 17.097657h145.066406zm0 0" fill="#3f51b5"/><path d="m366.949219 435.992188v50.433593c-.027344 9.414063-7.652344 17.039063-17.066407 17.066407h-145.066406c-9.414062-.027344-17.039062-7.652344-17.066406-17.066407v-8.617187c-.011719-5.304688.824219-10.578125 2.476562-15.617188.507813-1.679687 1.105469-3.332031 1.789063-4.949218 8.171875-18.640626 26.582031-30.691407 46.933594-30.71875h8.535156c22.414063.09375 42.585937 13.609374 51.199219 34.300781l.597656 2.648437c23.882812-5.472656 46.730469-14.75 67.667969-27.480468zm0 0" fill="#3f51b5"/><path d="m380.433594 427.375c1.300781 2.066406 2.785156 4.007812 4.4375 5.804688-1.867188-1.605469-3.378906-3.582032-4.4375-5.804688zm0 0" fill="#f0c419"/><path d="m366.949219 435.992188v17.066406c-15.941407 9.691406-33.007813 17.394531-50.820313 22.9375-3.960937 1.199218-8.257812.449218-11.578125-2.019532-3.320312-2.46875-5.277343-6.367187-5.269531-10.503906 23.882812-5.472656 46.730469-14.75 67.667969-27.480468zm0 0" fill="#283593"/><path d="m397.671875 220.519531c12.914063 17.230469 9.414063 41.667969-7.816406 54.582031-17.230469 12.910157-41.667969 9.410157-54.582031-7.820312-12.910157-17.230469-10.886719-79.535156-10.886719-79.535156s60.371093 15.542968 73.285156 32.773437zm0 0" fill="#0377bc"/><path d="m381.640625 213.351562c10.085937 13.460938 7.351563 32.550782-6.109375 42.636719-13.460938 10.089844-32.550781 7.355469-42.640625-6.105469-10.085937-13.460937-8.503906-62.140624-8.503906-62.140624s47.164062 12.144531 57.253906 25.609374zm0 0" fill="#02a9f4"/><path d="m24.449219 222.570312c-13.722657 18.308594-10.003907 44.273438 8.308593 57.996094 18.308594 13.71875 44.273438 10 57.992188-8.308594 13.722656-18.308593 11.570312-84.515624 11.570312-84.515624s-64.152343 16.519531-77.871093 34.828124zm0 0" fill="#0377bc"/><path d="m40.476562 215.398438c-10.808593 14.542968-7.824218 35.085937 6.675782 45.953124 14.496094 10.863282 35.054687 7.960938 45.976562-6.492187 10.894532-14.539063 9.183594-67.117187 9.183594-67.117187s-50.9375 13.117187-61.835938 27.65625zm0 0" fill="#02a9f4"/><path d="m503.484375 256.027344c-.714844 65.136718-25.027344 127.808594-68.4375 176.382812-6.472656 7.234375-15.722656 11.363282-25.429687 11.347656-2.910157.015626-5.808594-.355468-8.617188-1.109374-1.109375-.339844-2.21875-.679688-3.328125-1.109376-.304687-.058593-.59375-.175781-.855469-.339843 4.851563-1.878907 9.183594-4.894531 12.628906-8.789063 43.410157-48.574218 67.726563-111.246094 68.4375-176.382812 1.027344-74.925782-48.722656-239.277344-241.492187-247.125 3.667969-.257813 7.339844-.34375 11.09375-.34375 204.800781 0 257.023437 170.667968 256 247.46875zm0 0" fill="#fec108"/><path d="m366.949219 435.992188v50.433593c-.027344 9.414063-7.652344 17.039063-17.066407 17.066407h-25.597656c9.414063-.027344 17.039063-7.652344 17.066406-17.066407v-37.035156c8.808594-3.917969 17.359376-8.394531 25.597657-13.398437zm0 0" fill="#283593"/><path d="m349.882812 512.007812h-145.066406c-14.132812-.015624-25.582031-11.46875-25.597656-25.597656v-8.621094c-.007812-6.207031.972656-12.375 2.898438-18.273437.582031-1.902344 1.257812-3.769531 2.035156-5.601563 9.503906-21.800781 31.015625-35.90625 54.796875-35.9375h8.535156c26.035156.015626 49.460937 15.816407 59.230469 39.949219 1.113281 2.886719.578125 6.15625-1.40625 8.535157-1.980469 2.378906-5.097656 3.496093-8.140625 2.921874-3.042969-.574218-5.535157-2.753906-6.511719-5.691406-7.363281-17.328125-24.34375-28.597656-43.171875-28.648437h-8.535156c-16.964844.015625-32.316407 10.066406-39.121094 25.609375-.542969 1.296875-1.019531 2.625-1.425781 3.972656-1.402344 4.25-2.117188 8.695312-2.117188 13.167969v8.617187c.003906 4.710938 3.820313 8.53125 8.53125 8.535156h145.066406c4.710938-.003906 8.53125-3.824218 8.535157-8.535156v-50.429687c0-4.714844 3.820312-8.535157 8.53125-8.535157 4.714843 0 8.535156 3.820313 8.535156 8.535157v50.429687c-.015625 14.132813-11.46875 25.582032-25.601563 25.597656zm0 0"/><path d="m247.484375 512.007812h-145.066406c-14.140625-.023437-25.59375-11.492187-25.601563-25.632812v-8.550781c.011719-33 26.734375-59.761719 59.734375-59.824219h8.535157c23.753906-.027344 45.261718 14.042969 54.757812 35.816406 1.882812 4.324219-.097656 9.351563-4.417969 11.234375-4.320312 1.882813-9.351562-.09375-11.234375-4.417969-6.78125-15.546874-22.144531-25.589843-39.105468-25.566406h-8.535157c-23.578125.054688-42.664062 19.179688-42.667969 42.757813v8.550781c-.003906 4.71875 3.816407 8.554688 8.535157 8.566406h145.066406c4.710937 0 8.53125 3.820313 8.53125 8.535156 0 4.710938-3.820313 8.53125-8.53125 8.53125zm0 0"/><path d="m42.683594 426.675781c-16.832032.007813-32.097656-9.882812-38.96875-25.25-6.871094-15.367187-4.0625-33.335937 7.167968-45.875 7.226563-8.097656 13.761719-16.789062 19.53125-25.984375 2.496094-3.996094 7.761719-5.210937 11.757813-2.714844 4 2.5 5.214844 7.765626 2.714844 11.761719-6.28125 10.007813-13.390625 19.46875-21.257813 28.285157-9.402344 10.550781-8.523437 26.714843 1.964844 36.191406 10.6875 9 26.535156 8.125 36.167969-1.996094 3.273437-3.683594 6.492187-7.476562 9.546875-11.359375 2.917968-3.703125 8.285156-4.339844 11.988281-1.421875s4.339844 8.285156 1.421875 11.988281c-3.261719 4.132813-6.703125 8.191407-10.226562 12.15625-8.105469 9.039063-19.667969 14.207031-31.808594 14.21875zm0 0"/><path d="m409.617188 452.277344c-16.832032.007812-32.097657-9.882813-38.96875-25.25-6.871094-15.367188-4.0625-33.335938 7.167968-45.875 28.699219-32.09375 45.503906-73.074219 47.597656-116.078125.273438-4.683594 4.242188-8.289063 8.929688-8.113281 4.707031.226562 8.339844 4.222656 8.121094 8.929687-2.289063 46.914063-20.617188 91.613281-51.921875 126.625-9.386719 10.558594-8.496094 26.710937 1.988281 36.175781 10.6875 8.996094 26.53125 8.121094 36.164062-2 42.015626-47.042968 65.554688-107.71875 66.253907-170.789062-1.117188-63.949219-26.050781-125.179688-69.921875-171.71875-43.9375-44.523438-103.675782-67.109375-177.542969-67.109375-122.433594.175781-221.652344 99.359375-221.867187 221.792969v.074218c0 3.136719-1.714844 6.019532-4.472657 7.515625-2.753906 1.492188-6.109375 1.359375-8.734375-.351562-2.628906-1.710938-4.109375-4.722657-3.859375-7.847657.5625-131.613281 107.316407-238.0625 238.933594-238.2499995 78.605469 0 142.421875 24.2929685 189.695313 72.1914065 47.367187 49.601562 74.117187 115.347656 74.835937 183.925781-.757813 67.199219-25.84375 131.847656-70.613281 181.96875-8.105469 9.019531-19.660156 14.171875-31.785156 14.183594zm0 0"/><path d="m118.632812 438.367188c-1.730468 0-3.417968-.507813-4.859374-1.457032-59.703126-40.109375-98.058594-105.074218-104.335938-176.726562-.269531-3.035156 1.101562-5.988282 3.597656-7.738282 2.492188-1.753906 5.734375-2.042968 8.5-.757812 2.761719 1.285156 4.632813 3.945312 4.902344 6.984375 5.816406 66.410156 41.316406 126.640625 96.597656 163.898437 3.253906 1.988282 4.792969 5.890626 3.769532 9.5625-1.023438 3.671876-4.363282 6.21875-8.171876 6.234376zm0 0"/><path d="m299.269531 471.984375c-4.335937-.011719-7.976562-3.273437-8.457031-7.582031-.484375-4.308594 2.339844-8.296875 6.566406-9.269532 22.992188-5.265624 44.988282-14.195312 65.144532-26.453124 4.296874-2.683594 8.679687-5.574219 12.898437-8.550782 3.847656-2.617187 9.085937-1.671875 11.769531 2.128906 2.6875 3.800782 1.832032 9.054688-1.917968 11.804688-4.484376 3.175781-9.152344 6.25-13.808594 9.152344-21.742188 13.234375-45.472656 22.875-70.285156 28.550781-.625.144531-1.265626.21875-1.910157.21875zm0 0"/><path d="m187.75 196.277344c-2.261719 0-4.433594-.898438-6.03125-2.5-10.105469-9.039063-23.085938-14.199219-36.632812-14.570313-13.566407.292969-26.574219 5.464844-36.636719 14.570313-3.34375 3.246094-8.675781 3.203125-11.972657-.09375-3.296874-3.296875-3.339843-8.628906-.09375-11.972656 13.289063-12.273438 30.617188-19.238282 48.703126-19.570313 18.082031.332031 35.414062 7.296875 48.699218 19.570313 2.4375 2.4375 3.167969 6.109374 1.847656 9.296874-1.320312 3.1875-4.429687 5.265626-7.882812 5.269532zm0 0"/><path d="m324.285156 196.277344c-2.265625 0-4.4375-.898438-6.035156-2.5-10.101562-9.039063-23.082031-14.199219-36.632812-14.570313-13.566407.292969-26.570313 5.464844-36.632813 14.570313-3.347656 3.246094-8.679687 3.203125-11.976563-.09375-3.296874-3.296875-3.335937-8.628906-.089843-11.972656 27.226562-26.089844 70.175781-26.089844 97.398437 0 2.441406 2.4375 3.171875 6.109374 1.851563 9.296874-1.320313 3.1875-4.433594 5.265626-7.882813 5.269532zm0 0"/><path d="m366.53125 291.402344c-14.984375.03125-29.101562-7.011719-38.089844-19-14-18.683594-12.9375-74.035156-12.582031-84.933594.085937-2.589844 1.339844-5 3.414063-6.550781 2.070312-1.554688 4.734374-2.085938 7.242187-1.441407 10.570313 2.722657 63.984375 17.25 77.984375 35.925782 10.792969 14.386718 12.53125 33.640625 4.492188 49.730468-8.039063 16.089844-24.476563 26.257813-42.464844 26.269532zm-33.765625-92.476563c.074219 23.101563 2.417969 54.007813 9.335937 63.242188 10.085938 13.460937 29.175782 16.191406 42.636719 6.105469 13.460938-10.089844 16.195313-29.179688 6.105469-42.640626-6.921875-9.222656-35.925781-20.148437-58.078125-26.707031zm0 0"/><path d="m57.496094 297.382812c-18.902344-.042968-36.160156-10.746093-44.597656-27.660156-8.4375-16.914062-6.613282-37.140625 4.71875-52.265625 15.082031-20.125 75.703124-36.210937 82.566406-37.976562 2.507812-.640625 5.175781-.113281 7.246094 1.441406 2.070312 1.554687 3.328124 3.964844 3.414062 6.550781.226562 7.082032 1.816406 69.785156-13.269531 89.910156-7.917969 10.628907-19.765625 17.648438-32.894531 19.492188-2.378907.339844-4.78125.507812-7.183594.507812zm36.445312-98.472656c-23.699218 6.964844-55.175781 18.773438-62.664062 28.773438-7.113282 9.402344-8.652344 21.886718-4.035156 32.734375 4.617187 10.84375 14.683593 18.390625 26.386718 19.78125 11.707032 1.386719 23.261719-3.59375 30.289063-13.054688 7.492187-10 9.992187-43.527343 10.023437-68.234375zm0 0"/><path d="m94.992188 106.265625c16.148437 4.609375 33.09375 5.726563 49.710937 3.28125 7.734375-1.5625 15.074219-4.679687 21.566406-9.167969 3.476563-2.28125 6.789063-4.800781 9.921875-7.53125 3.25-2.777344 6.09375-6.074218 9.644532-9.003906l.441406-.367188c1.125-.933593 2.742187-.976562 3.917968-.101562 1.171876.871094 1.597657 2.433594 1.03125 3.78125-1.765624 4.507812-3.910156 8.859375-6.417968 13.003906-2.714844 4.183594-5.953125 8.007813-9.628906 11.378906-7.484376 7.207032-16.882813 12.113282-27.074219 14.132813-19.914063 4.066406-40.5625-1.828125-55.332031-15.796875-.679688-.683594-.828126-1.730469-.367188-2.578125.464844-.84375 1.429688-1.285156 2.371094-1.078125zm0 0"/><path d="m334.699219 109.875c-14.765625 13.964844-35.410157 19.863281-55.324219 15.800781-10.191406-2.023437-19.585938-6.925781-27.070312-14.132812-3.679688-3.375-6.914063-7.195313-9.632813-11.382813-2.503906-4.140625-4.652344-8.492187-6.414063-13.003906-.566406-1.34375-.140624-2.902344 1.03125-3.773438 1.167969-.871093 2.785157-.832031 3.910157.09375l.445312.367188c3.546875 2.933594 6.390625 6.230469 9.640625 9.007812 3.132813 2.730469 6.449219 5.25 9.921875 7.53125 6.492188 4.488282 13.832031 7.605469 21.570313 9.164063 16.613281 2.449219 33.558594 1.332031 49.707031-3.277344l.203125-.046875c.558594-.125 1.148438-.027344 1.636719.28125.488281.304688.832031.792969.960937 1.355469.160156.726563-.058594 1.484375-.585937 2.015625zm0 0"/><path d="m281.617188 315.742188c-4.710938 0-8.53125-3.820313-8.53125-8.535157-.015626-14.128906-11.46875-25.582031-25.601563-25.597656h-68.265625c-14.132812.015625-25.585938 11.46875-25.601562 25.597656 0 4.714844-3.820313 8.535157-8.53125 8.535157-4.714844 0-8.535157-3.820313-8.535157-8.535157.027344-23.550781 19.113281-42.636719 42.667969-42.664062h68.265625c23.550781.027343 42.640625 19.113281 42.667969 42.664062 0 4.714844-3.820313 8.535157-8.535156 8.535157zm0 0"/><path d="m213.351562 315.742188h-8.535156c-4.710937 0-8.53125-3.820313-8.53125-8.535157 0-4.710937 3.820313-8.53125 8.53125-8.53125h8.535156c4.710938 0 8.53125 3.820313 8.53125 8.53125 0 4.714844-3.820312 8.535157-8.53125 8.535157zm0 0"/></svg>