<svg height="512pt" viewBox="0 0 512.01754 512" width="512pt" xmlns="http://www.w3.org/2000/svg"><path d="m78.011719 395.035156c-3.15625 4.007813-6.484375 7.933594-9.898438 11.773438-12.605469 13.949218-34.113281 15.082031-48.113281 2.535156-14.003906-12.542969-15.230469-34.046875-2.746094-48.101562 7.550782-8.457032 14.375-17.53125 20.394532-27.136719zm0 0" fill="#ff9801"/><path d="m247.484375 8.558594c-101.273437-.015625-190.675781 66.109375-220.316406 162.949218-29.636719 96.835938 7.445312 201.675782 91.378906 258.34375h.085937l69.117188 48.039063v8.535156c.027344 9.414063 7.652344 17.039063 17.066406 17.066407h145.066406c9.414063-.027344 17.039063-7.652344 17.066407-17.066407v-50.433593c.769531-.511719 1.539062-.9375 2.304687-1.449219 3.753906-2.390625 7.511719-4.863281 11.09375-7.421875.011719.089844.039063.175781.085938.253906 1.058594 2.222656 2.570312 4.199219 4.4375 5.804688.597656.59375 1.28125 1.277343 1.960937 1.875 1.261719 1.097656 2.601563 2.097656 4.011719 2.988281.6875.558593 1.429688 1.046875 2.21875 1.449219.800781.449218 1.625.847656 2.476562 1.195312.6875.335938 1.402344.621094 2.132813.851562 1.109375.429688 2.21875.769532 3.328125 1.109376 2.808594.753906 5.707031 1.125 8.617188 1.109374 9.707031.015626 18.957031-4.113281 25.429687-11.347656 43.410156-48.574218 67.722656-111.246094 68.4375-176.382812 1.023437-76.800782-51.199219-247.46875-256-247.46875zm0 0" fill="#f0c419"/><path d="m503.484375 256.027344c-.714844 65.136718-25.027344 127.808594-68.4375 176.382812-6.472656 7.234375-15.722656 11.363282-25.429687 11.347656-2.910157.015626-5.808594-.355468-8.617188-1.109374-1.109375-.339844-2.21875-.679688-3.328125-1.109376-.730469-.230468-1.445313-.515624-2.132813-.851562-.851562-.347656-1.675781-.746094-2.476562-1.195312-.789062-.402344-1.53125-.890626-2.21875-1.449219-1.410156-.890625-2.75-1.890625-4.011719-2.988281-.679687-.597657-1.363281-1.28125-1.960937-1.875-1.867188-1.605469-3.378906-3.582032-4.4375-5.804688-.046875-.078125-.074219-.164062-.085938-.253906-3.582031 2.558594-7.339844 5.03125-11.09375 7.421875-.765625.511719-1.535156.9375-2.304687 1.449219-20.9375 12.730468-43.785157 22.007812-67.667969 27.480468h-.253906l-.34375-2.648437c-8.613282-20.691407-28.785156-34.207031-51.199219-34.300781h-8.535156c-20.351563.027343-38.761719 12.078124-46.933594 30.71875-.683594 1.617187-1.28125 3.269531-1.789063 4.949218-1.652343 5.039063-2.488281 10.3125-2.476562 15.617188v.082031l-69.117188-48.039063h-.085937c-83.933594-56.667968-121.015625-161.507812-91.378906-258.34375 29.640625-96.839843 119.042969-162.964843 220.316406-162.949218 204.800781 0 257.023437 170.667968 256 247.46875zm0 0" fill="#ffdc00"/><path d="m380.347656 427.121094c-3.582031 2.558594-7.339844 5.03125-11.09375 7.421875-13.523437-12.691407-14.46875-33.851563-2.132812-47.699219 26.3125-29.355469 43.144531-65.972656 48.292968-105.054688 1.203126-9.3125 9.132813-16.285156 18.523438-16.292968-2.132812 44.96875-19.703125 87.824218-49.75 121.347656-9.945312 11.140625-11.5 27.453125-3.839844 40.277344zm0 0" fill="#fec108"/><path d="m192.015625 457.242188c-8.148437-18.652344-26.578125-30.703126-46.929687-30.695313h-8.535157c-28.296875.046875-51.207031 23-51.199219 51.296875v8.550781c.019532 9.421875 7.644532 17.0625 17.066407 17.097657h145.066406zm0 0" fill="#3f51b5"/><path d="m366.949219 435.992188v50.433593c-.027344 9.414063-7.652344 17.039063-17.066407 17.066407h-145.066406c-9.414062-.027344-17.039062-7.652344-17.066406-17.066407v-8.617187c-.011719-5.304688.824219-10.578125 2.476562-15.617188.507813-1.679687 1.105469-3.332031 1.789063-4.949218 8.171875-18.640626 26.582031-30.691407 46.933594-30.71875h8.535156c22.414063.09375 42.585937 13.609374 51.199219 34.300781l.597656 2.648437c23.882812-5.472656 46.730469-14.75 67.667969-27.480468zm0 0" fill="#3f51b5"/><path d="m380.433594 427.375c1.300781 2.066406 2.785156 4.007812 4.4375 5.804688-1.867188-1.605469-3.378906-3.582032-4.4375-5.804688zm0 0" fill="#f0c419"/><path d="m366.949219 435.992188v17.066406c-15.941407 9.691406-33.007813 17.394531-50.820313 22.9375-3.960937 1.199218-8.257812.449218-11.578125-2.019532-3.320312-2.46875-5.277343-6.367187-5.269531-10.503906 23.882812-5.472656 46.730469-14.75 67.667969-27.480468zm0 0" fill="#283593"/><path d="m238.949219 358.410156h42.667969c4.707031-.015625 8.519531-3.828125 8.535156-8.535156v-8.53125c0-42.417969-34.386719-76.800781-76.800782-76.800781-42.417968 0-76.800781 34.382812-76.800781 76.800781v8.53125c.015625 4.707031 3.828125 8.519531 8.535157 8.535156zm0 0" fill="#bb193b"/><path d="m290.152344 341.359375v8.53125c-.015625 4.710937-3.828125 8.523437-8.535156 8.535156h-42.667969v8.535157c.003906 9.050781-3.589844 17.734374-9.992188 24.136718-6.402343 6.402344-15.085937 9.996094-24.140625 9.996094-2.882812.023438-5.753906-.347656-8.53125-1.109375-5.894531-1.542969-11.277344-4.601563-15.617187-8.875-6.378907-6.421875-9.96875-15.097656-9.984375-24.148437v-17.070313c.007812-23.558594 19.105468-42.65625 42.667968-42.664063h68.777344c5.285156 10.601563 8.03125 22.285157 8.023438 34.132813zm0 0" fill="#ad1457"/><path d="m273.085938 341.359375v8.53125c-.015626 4.710937-3.828126 8.523437-8.535157 8.535156h-42.667969v8.535157c.015626 15.5625-10.523437 29.15625-25.597656 33.023437-5.894531-1.542969-11.277344-4.601563-15.617187-8.875-6.378907-6.421875-9.96875-15.097656-9.984375-24.148437v-17.070313c.007812-23.558594 19.105468-42.65625 42.667968-42.664063h51.710938c5.28125 10.601563 8.027344 22.285157 8.023438 34.132813zm0 0" fill="#e91e63"/><path d="m503.484375 256.027344c-.714844 65.136718-25.027344 127.808594-68.4375 176.382812-6.472656 7.234375-15.722656 11.363282-25.429687 11.347656-2.910157.015626-5.808594-.355468-8.617188-1.109374-1.109375-.339844-2.21875-.679688-3.328125-1.109376-.304687-.058593-.59375-.175781-.855469-.339843 4.851563-1.878907 9.183594-4.894531 12.628906-8.789063 43.410157-48.574218 67.726563-111.246094 68.4375-176.382812 1.027344-74.925782-48.722656-239.277344-241.492187-247.125 3.667969-.257813 7.339844-.34375 11.09375-.34375 204.800781 0 257.023437 170.667968 256 247.46875zm0 0" fill="#fec108"/><path d="m366.949219 435.992188v50.433593c-.027344 9.414063-7.652344 17.039063-17.066407 17.066407h-25.597656c9.414063-.027344 17.039063-7.652344 17.066406-17.066407v-37.035156c8.808594-3.917969 17.359376-8.394531 25.597657-13.398437zm0 0" fill="#283593"/><path d="m349.882812 512.007812h-145.066406c-14.132812-.015624-25.582031-11.46875-25.597656-25.597656v-8.621094c-.007812-6.207031.972656-12.375 2.898438-18.273437.582031-1.902344 1.257812-3.769531 2.035156-5.601563 9.503906-21.800781 31.015625-35.90625 54.796875-35.9375h8.535156c26.035156.015626 49.460937 15.816407 59.230469 39.949219 1.113281 2.886719.578125 6.15625-1.40625 8.535157-1.980469 2.378906-5.097656 3.496093-8.140625 2.921874-3.042969-.574218-5.535157-2.753906-6.511719-5.691406-7.363281-17.328125-24.34375-28.597656-43.171875-28.648437h-8.535156c-16.964844.015625-32.316407 10.066406-39.121094 25.609375-.542969 1.296875-1.019531 2.625-1.425781 3.972656-1.402344 4.25-2.117188 8.695312-2.117188 13.167969v8.617187c.003906 4.710938 3.820313 8.53125 8.53125 8.535156h145.066406c4.710938-.003906 8.53125-3.824218 8.535157-8.535156v-50.429687c0-4.714844 3.820312-8.535157 8.53125-8.535157 4.714843 0 8.535156 3.820313 8.535156 8.535157v50.429687c-.015625 14.132813-11.46875 25.582032-25.601563 25.597656zm0 0"/><path d="m247.484375 512.007812h-145.066406c-14.140625-.023437-25.59375-11.492187-25.601563-25.632812v-8.550781c.011719-33 26.734375-59.761719 59.734375-59.824219h8.535157c23.753906-.027344 45.261718 14.042969 54.757812 35.816406 1.882812 4.324219-.097656 9.351563-4.417969 11.234375-4.320312 1.882813-9.351562-.09375-11.234375-4.417969-6.78125-15.546874-22.144531-25.589843-39.105468-25.566406h-8.535157c-23.578125.054688-42.664062 19.179688-42.667969 42.757813v8.550781c-.003906 4.71875 3.816407 8.554688 8.535157 8.566406h145.066406c4.710937 0 8.53125 3.820313 8.53125 8.535156 0 4.710938-3.820313 8.53125-8.53125 8.53125zm0 0"/><path d="m42.683594 426.675781c-16.832032.007813-32.097656-9.882812-38.96875-25.25-6.871094-15.367187-4.0625-33.335937 7.167968-45.875 7.226563-8.097656 13.761719-16.789062 19.53125-25.984375 2.496094-3.996094 7.761719-5.210937 11.757813-2.714844 4 2.5 5.214844 7.765626 2.714844 11.761719-6.28125 10.007813-13.390625 19.46875-21.257813 28.285157-9.402344 10.550781-8.523437 26.714843 1.964844 36.191406 10.6875 9 26.535156 8.125 36.167969-1.996094 3.273437-3.683594 6.492187-7.476562 9.546875-11.359375 2.917968-3.703125 8.285156-4.339844 11.988281-1.421875s4.339844 8.285156 1.421875 11.988281c-3.261719 4.132813-6.703125 8.191407-10.226562 12.15625-8.105469 9.039063-19.667969 14.207031-31.808594 14.21875zm0 0"/><path d="m409.617188 452.277344c-16.832032.007812-32.097657-9.882813-38.96875-25.25-6.871094-15.367188-4.0625-33.335938 7.167968-45.875 28.699219-32.09375 45.503906-73.074219 47.597656-116.078125.289063-4.675781 4.246094-8.269531 8.929688-8.113281 4.707031.226562 8.339844 4.222656 8.121094 8.929687-2.289063 46.914063-20.617188 91.613281-51.921875 126.625-9.386719 10.558594-8.496094 26.710937 1.988281 36.175781 10.6875 9 26.535156 8.121094 36.164062-2 42.007813-47.050781 65.546876-107.726562 66.253907-170.796875-1.121094-63.945312-26.054688-125.171875-69.921875-171.710937-43.9375-44.523438-103.675782-67.109375-177.542969-67.109375-97.457031-.011719-183.507813 63.582031-212.105469 156.746093-28.59375 93.167969 6.96875 194.085938 87.65625 248.746094 3.253906 1.984375 4.796875 5.894532 3.773438 9.566406-1.023438 3.671876-4.363282 6.21875-8.175782 6.234376h-.085937c-1.703125 0-3.363281-.507813-4.777344-1.457032-87.039062-58.769531-125.496093-167.488281-94.761719-267.914062 30.738282-100.425782 123.453126-169.00000025 228.476563-168.9882815 78.605469 0 142.421875 24.2929685 189.695313 72.1914065 47.367187 49.601562 74.117187 115.347656 74.835937 183.925781-.765625 67.199219-25.855469 131.84375-70.613281 181.96875-8.105469 9.019531-19.660156 14.171875-31.785156 14.183594zm0 0"/><path d="m299.269531 471.984375c-4.335937-.011719-7.976562-3.273437-8.457031-7.582031-.484375-4.308594 2.339844-8.296875 6.566406-9.269532 22.992188-5.265624 44.988282-14.195312 65.144532-26.453124 4.296874-2.683594 8.679687-5.574219 12.898437-8.550782 3.847656-2.617187 9.085937-1.671875 11.769531 2.128906 2.6875 3.800782 1.832032 9.054688-1.917968 11.804688-4.484376 3.175781-9.152344 6.25-13.808594 9.152344-21.742188 13.234375-45.472656 22.875-70.285156 28.550781-.625.144531-1.265626.21875-1.910157.21875zm0 0"/><path d="m92.230469 118.152344c4.222656-8.453125 10.839843-15.472656 19.03125-20.183594 8.242187-4.953125 17.574219-7.816406 27.175781-8.332031 9.460938-.457031 18.910156 1.046875 27.761719 4.417969 4.273437 1.652343 8.40625 3.648437 12.359375 5.972656 3.757812 2.492187 7.351562 5.222656 10.761718 8.171875 1.105469.957031 1.421876 2.539062.773438 3.847656-.644531 1.3125-2.09375 2.019531-3.527344 1.722656l-.382812-.078125c-4.265625-.886718-8.203125-2.183594-12.136719-3.304687-4.03125-.765625-7.867187-2.007813-11.761719-2.601563-7.53125-1.421875-15.199218-1.988281-22.859375-1.699218-7.523437.558593-14.949219 2.074218-22.089843 4.515624-7.59375 2.652344-14.894532 6.070313-21.796876 10.199219l-.261718.152344c-.820313.476563-1.855469.367187-2.554688-.277344-.699218-.640625-.898437-1.664062-.488281-2.519531zm0 0"/><path d="m331.164062 120.800781c-6.902343-4.128906-14.203124-7.546875-21.796874-10.203125-7.140626-2.4375-14.566407-3.957031-22.089844-4.511718-7.660156-.292969-15.328125.277343-22.859375 1.695312-3.894531.59375-7.730469 1.839844-11.761719 2.601562-3.933594 1.121094-7.871094 2.417969-12.136719 3.304688l-.378906.078125c-1.433594.300781-2.882813-.40625-3.53125-1.71875-.648437-1.308594-.332031-2.890625.773437-3.847656 3.410157-2.953125 7.003907-5.683594 10.761719-8.175781 3.953125-2.324219 8.085938-4.320313 12.359375-5.972657 8.851563-3.371093 18.300782-4.875 27.761719-4.417969 9.601563.519532 18.933594 3.378907 27.175781 8.335938 8.191406 4.707031 14.808594 11.730469 19.03125 20.183594.40625.851562.207032 1.871094-.484375 2.515625-.695312.644531-1.726562.757812-2.546875.289062zm0 0"/><path d="m110.949219 238.941406c-3.449219 0-6.558594-2.078125-7.878907-5.265625-1.320312-3.191406-.59375-6.859375 1.847657-9.300781l68.265625-68.265625c2.144531-2.210937 5.3125-3.09375 8.292968-2.3125 2.976563.78125 5.304688 3.109375 6.085938 6.085937.78125 2.980469-.101562 6.148438-2.3125 8.292969l-68.265625 68.265625c-1.597656 1.605469-3.769531 2.503906-6.035156 2.5zm0 0"/><path d="m179.21875 238.941406c-2.265625.003906-4.4375-.894531-6.035156-2.5l-68.265625-68.265625c-2.210938-2.144531-3.09375-5.3125-2.3125-8.292969.78125-2.976562 3.109375-5.304687 6.085937-6.085937 2.980469-.78125 6.148438.101563 8.292969 2.3125l68.265625 68.265625c2.441406 2.441406 3.171875 6.109375 1.847656 9.300781-1.320312 3.1875-4.429687 5.265625-7.878906 5.265625zm0 0"/><path d="m247.484375 238.941406c-3.449219 0-6.5625-2.078125-7.882813-5.265625-1.320312-3.191406-.589843-6.859375 1.847657-9.300781l68.269531-68.265625c2.144531-2.210937 5.3125-3.09375 8.289062-2.3125 2.980469.78125 5.308594 3.109375 6.089844 6.085937.78125 2.980469-.101562 6.148438-2.3125 8.292969l-68.269531 68.265625c-1.597656 1.605469-3.769531 2.503906-6.03125 2.5zm0 0"/><path d="m315.75 238.941406c-2.261719.003906-4.433594-.894531-6.03125-2.5l-68.269531-68.265625c-2.207031-2.144531-3.09375-5.3125-2.308594-8.292969.78125-2.976562 3.105469-5.304687 6.085937-6.085937 2.976563-.78125 6.144532.101563 8.289063 2.3125l68.269531 68.265625c2.4375 2.441406 3.167969 6.109375 1.847656 9.300781-1.320312 3.1875-4.429687 5.265625-7.882812 5.265625zm0 0"/><path d="m204.816406 409.609375c-11.320312.011719-22.179687-4.480469-30.183594-12.484375-8.003906-8.003906-12.492187-18.863281-12.480468-30.183594v-17.066406c.03125-28.265625 22.933594-51.167969 51.199218-51.199219h68.777344c4.714844 0 8.535156 3.820313 8.535156 8.53125 0 4.714844-3.820312 8.535157-8.535156 8.535157h-68.777344c-18.84375.019531-34.113281 15.289062-34.132812 34.132812v17.066406c0 14.140625 11.460938 25.601563 25.597656 25.601563 14.140625 0 25.601563-11.460938 25.601563-25.601563v-25.597656c0-4.714844 3.820312-8.535156 8.53125-8.535156 4.714843 0 8.535156 3.820312 8.535156 8.535156v25.597656c-.027344 23.554688-19.113281 42.640625-42.667969 42.667969zm0 0"/><path d="m281.617188 366.941406h-42.667969c-4.710938 0-8.53125-3.820312-8.53125-8.53125 0-4.714844 3.820312-8.535156 8.53125-8.535156h42.667969v-8.53125c0-37.703125-30.5625-68.269531-68.265626-68.269531-37.703124 0-68.265624 30.566406-68.265624 68.269531v8.53125h25.597656c4.714844 0 8.535156 3.820312 8.535156 8.535156 0 4.710938-3.820312 8.53125-8.535156 8.53125h-25.597656c-9.421876-.011718-17.058594-7.644531-17.070313-17.066406v-8.53125c0-47.128906 38.207031-85.335938 85.335937-85.335938 47.128907 0 85.332032 38.207032 85.332032 85.335938v8.53125c-.011719 9.421875-7.644532 17.054688-17.066406 17.066406zm0 0"/></svg>