<svg height="512pt" viewBox="0 0 512.01754 512" width="512pt" xmlns="http://www.w3.org/2000/svg"><path d="m78.011719 395.035156c-3.15625 4.007813-6.484375 7.933594-9.898438 11.773438-12.605469 13.949218-34.113281 15.082031-48.113281 2.535156-14.003906-12.542969-15.230469-34.046875-2.746094-48.101562 7.550782-8.457032 14.375-17.53125 20.394532-27.136719zm0 0" fill="#ff9801"/><path d="m247.484375 8.558594c-101.273437-.015625-190.675781 66.109375-220.316406 162.949218-29.636719 96.835938 7.445312 201.675782 91.378906 258.34375h.085937l69.117188 48.039063v8.535156c.027344 9.414063 7.652344 17.039063 17.066406 17.066407h145.066406c9.414063-.027344 17.039063-7.652344 17.066407-17.066407v-50.433593c.769531-.511719 1.539062-.9375 2.304687-1.449219 3.753906-2.390625 7.511719-4.863281 11.09375-7.421875.011719.089844.039063.175781.085938.253906 1.058594 2.222656 2.570312 4.199219 4.4375 5.804688.597656.59375 1.28125 1.277343 1.960937 1.875 1.261719 1.097656 2.601563 2.097656 4.011719 2.988281.6875.558593 1.429688 1.046875 2.21875 1.449219.800781.449218 1.625.847656 2.476562 1.195312.6875.335938 1.402344.621094 2.132813.851562 1.109375.429688 2.21875.769532 3.328125 1.109376 2.808594.753906 5.707031 1.125 8.617188 1.109374 9.707031.015626 18.957031-4.113281 25.429687-11.347656 43.410156-48.574218 67.722656-111.246094 68.4375-176.382812 1.023437-76.800782-51.199219-247.46875-256-247.46875zm0 0" fill="#f0c419"/><path d="m503.484375 256.027344c-.714844 65.136718-25.027344 127.808594-68.4375 176.382812-6.472656 7.234375-15.722656 11.363282-25.429687 11.347656-2.910157.015626-5.808594-.355468-8.617188-1.109374-1.109375-.339844-2.21875-.679688-3.328125-1.109376-.730469-.230468-1.445313-.515624-2.132813-.851562-.851562-.347656-1.675781-.746094-2.476562-1.195312-.789062-.402344-1.53125-.890626-2.21875-1.449219-1.410156-.890625-2.75-1.890625-4.011719-2.988281-.679687-.597657-1.363281-1.28125-1.960937-1.875-1.867188-1.605469-3.378906-3.582032-4.4375-5.804688-.046875-.078125-.074219-.164062-.085938-.253906-3.582031 2.558594-7.339844 5.03125-11.09375 7.421875-.765625.511719-1.535156.9375-2.304687 1.449219-20.9375 12.730468-43.785157 22.007812-67.667969 27.480468h-.253906l-.34375-2.648437c-8.613282-20.691407-28.785156-34.207031-51.199219-34.300781h-8.535156c-20.351563.027343-38.761719 12.078124-46.933594 30.71875-.683594 1.617187-1.28125 3.269531-1.789063 4.949218-1.652343 5.039063-2.488281 10.3125-2.476562 15.617188v.082031l-69.117188-48.039063h-.085937c-83.933594-56.667968-121.015625-161.507812-91.378906-258.34375 29.640625-96.839843 119.042969-162.964843 220.316406-162.949218 204.800781 0 257.023437 170.667968 256 247.46875zm0 0" fill="#ffdc00"/><path d="m380.347656 427.121094c-3.582031 2.558594-7.339844 5.03125-11.09375 7.421875-13.523437-12.691407-14.46875-33.851563-2.132812-47.699219 26.3125-29.355469 43.144531-65.972656 48.292968-105.054688 1.203126-9.3125 9.132813-16.285156 18.523438-16.292968-2.132812 44.96875-19.703125 87.824218-49.75 121.347656-9.945312 11.140625-11.5 27.453125-3.839844 40.277344zm0 0" fill="#fec108"/><path d="m192.015625 457.242188c-8.148437-18.652344-26.578125-30.703126-46.929687-30.695313h-8.535157c-28.296875.046875-51.207031 23-51.199219 51.296875v8.550781c.019532 9.421875 7.644532 17.0625 17.066407 17.097657h145.066406zm0 0" fill="#3f51b5"/><path d="m366.949219 435.992188v50.433593c-.027344 9.414063-7.652344 17.039063-17.066407 17.066407h-145.066406c-9.414062-.027344-17.039062-7.652344-17.066406-17.066407v-8.617187c-.011719-5.304688.824219-10.578125 2.476562-15.617188.507813-1.679687 1.105469-3.332031 1.789063-4.949218 8.171875-18.640626 26.582031-30.691407 46.933594-30.71875h8.535156c22.414063.09375 42.585937 13.609374 51.199219 34.300781l.597656 2.648437c23.882812-5.472656 46.730469-14.75 67.667969-27.480468zm0 0" fill="#3f51b5"/><path d="m380.433594 427.375c1.300781 2.066406 2.785156 4.007812 4.4375 5.804688-1.867188-1.605469-3.378906-3.582032-4.4375-5.804688zm0 0" fill="#f0c419"/><path d="m366.949219 435.992188v17.066406c-15.941407 9.691406-33.007813 17.394531-50.820313 22.9375-3.960937 1.199218-8.257812.449218-11.578125-2.019532-3.320312-2.46875-5.277343-6.367187-5.269531-10.503906 23.882812-5.472656 46.730469-14.75 67.667969-27.480468zm0 0" fill="#283593"/><path d="m191.675781 274.542969-15.445312 52.820312c.769531.429688 1.621093.941407 2.390625 1.453125 9.59375 6.621094 13.511718 18.886719 9.535156 29.84375-3.980469 10.960938-14.855469 17.851563-26.464844 16.773438s-21.027344-9.855469-22.921875-21.359375c-.703125 2.53125-1.828125 4.925781-3.328125 7.082031-5.695312 8.429688-15.835937 12.6875-25.84375 10.855469-10.003906-1.835938-17.976562-9.417969-20.308594-19.316407-2.332031-9.902343 1.414063-20.246093 9.542969-26.355468-10.140625 2-20.496093-2.269532-26.28125-10.835938-4.480469-6.589844-5.585937-14.910156-2.988281-22.445312 2.03125-5.777344 6.015625-10.667969 11.265625-13.820313 8.59375-5.167969 19.425781-4.800781 27.648437.9375.777344.550781 1.515626 1.148438 2.21875 1.792969l44.117188-33.027344c8.152344-6.105468 19.300781-6.308594 27.667969-.496094 8.367187 5.808594 12.070312 16.324219 9.195312 26.097657zm0 0" fill="#ecf0f1"/><path d="m191.675781 274.542969-15.445312 52.820312c.769531.429688 1.621093.941407 2.390625 1.453125 8.378906 5.84375 12.496094 16.09375 10.496094 26.109375-5.714844 3.355469-12.515626 4.335938-18.945313 2.730469-9.972656-2.445312-17.527344-10.601562-19.199219-20.734375-.699218 2.546875-1.855468 4.949219-3.414062 7.082031-7.746094 11.253906-22.976563 14.414063-34.558594 7.167969-8.328125-5.253906-12.960938-14.777344-11.949219-24.574219.183594-1.925781.613281-3.820312 1.28125-5.632812 1.664063-4.683594 4.660157-8.777344 8.617188-11.777344-10.113281 1.980469-20.433594-2.285156-26.195313-10.835938-3.8125-5.589843-5.226562-12.476562-3.925781-19.113281 8.59375-5.167969 19.425781-4.800781 27.648437.9375.777344.550781 1.515626 1.148438 2.21875 1.792969l44.117188-33.027344c8.152344-6.105468 19.300781-6.308594 27.667969-.496094 8.367187 5.808594 12.070312 16.324219 9.195312 26.097657zm0 0" fill="#f5f5f5"/><path d="m354.320312 315.503906c-5.757812 8.550782-16.078124 12.816406-26.195312 10.835938 8.003906 6.144531 11.648438 16.421875 9.296875 26.238281-2.347656 9.8125-10.25 17.328125-20.167969 19.183594-9.921875 1.851562-20.003906-2.300781-25.738281-10.605469-1.558594-2.132812-2.714844-4.535156-3.414063-7.082031-1.667968 10.132812-9.222656 18.292969-19.199218 20.734375-8.125 2.019531-16.722656-.121094-22.953125-5.714844-5.550781-4.980469-8.714844-12.085938-8.703125-19.542969.082031-8.289062 4.1875-16.019531 11.007812-20.734375.792969-.535156 1.621094-1.019531 2.472656-1.453125l-15.53125-52.820312c-2.867187-9.789063.855469-20.316407 9.242188-26.128907 8.386719-5.808593 19.550781-5.597656 27.707031.527344l44.03125 33.027344c.769531-.597656 1.453125-1.28125 2.21875-1.792969 6.628907-4.570312 15.019531-5.769531 22.664063-3.238281 7.644531 2.53125 13.660156 8.5 16.25 16.121094 2.644531 7.53125 1.535156 15.871094-2.988282 22.445312zm0 0" fill="#ecf0f1"/><path d="m346.386719 279.40625c-.085938 4.917969-1.628907 9.699219-4.4375 13.738281-5.777344 8.535157-16.070313 12.828125-26.199219 10.925781 3.976562 2.945313 6.976562 7.019532 8.621094 11.6875 1.25 3.347657 1.71875 6.941407 1.363281 10.496094-.6875 8.121094-5.140625 15.449219-12.03125 19.796875-11.589844 7.203125-26.792969 4.050781-34.558594-7.167969-1.5625-2.164062-2.71875-4.589843-3.414062-7.167968-1.671875 10.132812-9.226563 18.292968-19.199219 20.738281-6.558594 1.671875-13.511719.628906-19.285156-2.902344.082031-8.289062 4.1875-16.019531 11.007812-20.734375.792969-.535156 1.621094-1.019531 2.472656-1.453125l-15.53125-52.820312c-2.867187-9.789063.855469-20.316407 9.242188-26.128907 8.386719-5.808593 19.550781-5.597656 27.707031.527344l44.03125 33.027344c.769531-.597656 1.453125-1.28125 2.21875-1.792969 8.34375-5.816406 19.34375-6.117187 27.992188-.769531zm0 0" fill="#f5f5f5"/><path d="m503.484375 256.027344c-.714844 65.136718-25.027344 127.808594-68.4375 176.382812-6.472656 7.234375-15.722656 11.363282-25.429687 11.347656-2.910157.015626-5.808594-.355468-8.617188-1.109374-1.109375-.339844-2.21875-.679688-3.328125-1.109376-.304687-.058593-.59375-.175781-.855469-.339843 4.851563-1.878907 9.183594-4.894531 12.628906-8.789063 43.410157-48.574218 67.726563-111.246094 68.4375-176.382812 1.027344-74.925782-48.722656-239.277344-241.492187-247.125 3.667969-.257813 7.339844-.34375 11.09375-.34375 204.800781 0 257.023437 170.667968 256 247.46875zm0 0" fill="#fec108"/><path d="m366.949219 435.992188v50.433593c-.027344 9.414063-7.652344 17.039063-17.066407 17.066407h-25.597656c9.414063-.027344 17.039063-7.652344 17.066406-17.066407v-37.035156c8.808594-3.917969 17.359376-8.394531 25.597657-13.398437zm0 0" fill="#283593"/><path d="m349.882812 512.007812h-145.066406c-14.132812-.015624-25.582031-11.46875-25.597656-25.597656v-8.621094c-.007812-6.207031.972656-12.375 2.898438-18.273437.582031-1.902344 1.257812-3.769531 2.035156-5.601563 9.503906-21.800781 31.015625-35.90625 54.796875-35.9375h8.535156c26.035156.015626 49.460937 15.816407 59.230469 39.949219 1.113281 2.886719.578125 6.15625-1.40625 8.535157-1.980469 2.378906-5.097656 3.496093-8.140625 2.921874-3.042969-.574218-5.535157-2.753906-6.511719-5.691406-7.363281-17.328125-24.34375-28.597656-43.171875-28.648437h-8.535156c-16.964844.015625-32.316407 10.066406-39.121094 25.609375-.542969 1.296875-1.019531 2.625-1.425781 3.972656-1.402344 4.25-2.117188 8.695312-2.117188 13.167969v8.617187c.003906 4.710938 3.820313 8.53125 8.53125 8.535156h145.066406c4.710938-.003906 8.53125-3.824218 8.535157-8.535156v-50.429687c0-4.714844 3.820312-8.535157 8.53125-8.535157 4.714843 0 8.535156 3.820313 8.535156 8.535157v50.429687c-.015625 14.132813-11.46875 25.582032-25.601563 25.597656zm0 0"/><path d="m247.484375 512.007812h-145.066406c-14.140625-.023437-25.59375-11.492187-25.601563-25.632812v-8.550781c.011719-33 26.734375-59.761719 59.734375-59.824219h8.535157c23.753906-.027344 45.261718 14.042969 54.757812 35.816406 1.882812 4.324219-.097656 9.351563-4.417969 11.234375-4.320312 1.882813-9.351562-.09375-11.234375-4.417969-6.78125-15.546874-22.144531-25.589843-39.105468-25.566406h-8.535157c-23.578125.054688-42.664062 19.179688-42.667969 42.757813v8.550781c-.003906 4.71875 3.816407 8.554688 8.535157 8.566406h145.066406c4.710937 0 8.53125 3.820313 8.53125 8.535156 0 4.710938-3.820313 8.53125-8.53125 8.53125zm0 0"/><path d="m42.683594 426.675781c-16.832032.007813-32.097656-9.882812-38.96875-25.25-6.871094-15.367187-4.0625-33.335937 7.167968-45.875 7.226563-8.097656 13.761719-16.789062 19.53125-25.984375 2.496094-3.996094 7.761719-5.210937 11.757813-2.714844 4 2.5 5.214844 7.765626 2.714844 11.761719-6.28125 10.007813-13.390625 19.46875-21.257813 28.285157-9.402344 10.550781-8.523437 26.714843 1.964844 36.191406 10.6875 9 26.535156 8.125 36.167969-1.996094 3.273437-3.683594 6.492187-7.476562 9.546875-11.359375 2.917968-3.703125 8.285156-4.339844 11.988281-1.421875s4.339844 8.285156 1.421875 11.988281c-3.261719 4.132813-6.703125 8.191407-10.226562 12.15625-8.105469 9.039063-19.667969 14.207031-31.808594 14.21875zm0 0"/><path d="m409.617188 452.277344c-16.832032.007812-32.097657-9.882813-38.96875-25.25-6.871094-15.367188-4.0625-33.335938 7.167968-45.875 28.699219-32.09375 45.503906-73.074219 47.597656-116.078125.28125-4.679688 4.242188-8.28125 8.929688-8.113281 4.707031.226562 8.339844 4.222656 8.121094 8.929687-2.289063 46.914063-20.617188 91.613281-51.921875 126.625-9.386719 10.558594-8.496094 26.710937 1.988281 36.175781 10.6875 8.996094 26.53125 8.121094 36.164062-2 42.007813-47.050781 65.546876-107.726562 66.253907-170.796875-1.121094-63.945312-26.054688-125.171875-69.921875-171.710937-43.9375-44.523438-103.675782-67.109375-177.542969-67.109375-97.457031-.011719-183.507813 63.582031-212.105469 156.746093-28.59375 93.167969 6.96875 194.085938 87.65625 248.746094 3.253906 1.984375 4.796875 5.894532 3.773438 9.566406-1.023438 3.671876-4.363282 6.21875-8.175782 6.234376h-.085937c-1.703125 0-3.363281-.507813-4.777344-1.457032-87.039062-58.769531-125.496093-167.488281-94.761719-267.914062 30.738282-100.425782 123.453126-169.00000025 228.476563-168.9882815 78.605469 0 142.421875 24.2929685 189.695313 72.1914065 47.367187 49.601562 74.117187 115.347656 74.835937 183.925781-.765625 67.199219-25.855469 131.84375-70.613281 181.96875-8.105469 9.019531-19.660156 14.171875-31.785156 14.183594zm0 0"/><path d="m299.269531 471.984375c-4.335937-.011719-7.976562-3.273437-8.457031-7.582031-.484375-4.308594 2.339844-8.296875 6.566406-9.269532 22.992188-5.265624 44.988282-14.195312 65.144532-26.453124 4.296874-2.683594 8.679687-5.574219 12.898437-8.550782 3.847656-2.617187 9.085937-1.671875 11.769531 2.128906 2.6875 3.800782 1.832032 9.054688-1.917968 11.804688-4.484376 3.175781-9.152344 6.25-13.808594 9.152344-21.742188 13.234375-45.472656 22.875-70.285156 28.550781-.625.144531-1.265626.21875-1.910157.21875zm0 0"/><path d="m104.253906 90.824219c11.957032 11.792969 26.289063 20.902343 42.042969 26.722656 7.535156 2.34375 15.472656 3.128906 23.320313 2.304687 4.144531-.335937 8.261718-.953124 12.320312-1.847656 4.179688-.878906 8.261719-2.40625 12.777344-3.277344l.5625-.109374c1.433594-.273438 2.871094.464843 3.484375 1.792968.609375 1.324219.234375 2.898438-.910157 3.808594-3.707031 3.109375-7.679687 5.898438-11.867187 8.332031-4.390625 2.367188-9.0625 4.167969-13.910156 5.363281-10.023438 2.734376-20.621094 2.527344-30.53125-.589843-19.421875-5.988281-34.707031-21.0625-40.960938-40.402344-.269531-.925781.101563-1.917969.914063-2.4375s1.867187-.441406 2.59375.191406zm0 0"/><path d="m326.121094 92.925781c-6.253906 19.335938-21.539063 34.414063-40.960938 40.402344-9.910156 3.117187-20.507812 3.320313-30.53125.585937-4.84375-1.191406-9.519531-2.992187-13.910156-5.363281-4.1875-2.429687-8.15625-5.21875-11.867188-8.332031-1.144531-.90625-1.519531-2.480469-.910156-3.804688.609375-1.328124 2.046875-2.070312 3.480469-1.792968l.566406.109375c4.519531.867187 8.597657 2.398437 12.777344 3.273437 4.0625.898438 8.175781 1.515625 12.320313 1.851563 7.851562.824219 15.785156.039062 23.320312-2.304688 15.753906-5.824219 30.085938-14.933593 42.042969-26.722656l.15625-.140625c.898437-.792969 2.265625-.707031 3.0625.1875.488281.5625.660156 1.335938.453125 2.050781zm0 0"/><path d="m145.085938 204.808594c-18.085938-.332032-35.414063-7.292969-48.703126-19.566406-3.25-3.339844-3.214843-8.675782.074219-11.976563 3.292969-3.300781 8.625-3.347656 11.976563-.105469 10.105468 9.046875 23.09375 14.210938 36.652344 14.582032 13.5625-.292969 26.570312-5.460938 36.632812-14.566407 2.144531-2.210937 5.3125-3.09375 8.289062-2.3125 2.980469.78125 5.308594 3.109375 6.089844 6.085938.78125 2.980469-.101562 6.148437-2.3125 8.292969-13.289062 12.273437-30.617187 19.234374-48.699218 19.566406zm0 0"/><path d="m281.617188 204.808594c-18.082032-.332032-35.414063-7.292969-48.699219-19.566406-3.25-3.339844-3.21875-8.675782.074219-11.976563 3.292968-3.300781 8.625-3.347656 11.976562-.105469 10.105469 9.046875 23.089844 14.210938 36.648438 14.582032 13.566406-.292969 26.574218-5.460938 36.632812-14.566407 2.144531-2.210937 5.3125-3.09375 8.292969-2.3125s5.304687 3.109375 6.085937 6.085938c.78125 2.980469-.101562 6.148437-2.3125 8.292969-13.285156 12.273437-30.617187 19.234374-48.699218 19.566406zm0 0"/><path d="m239.804688 298.675781h-52.738282c-4.710937 0-8.53125-3.820312-8.53125-8.535156 0-4.710937 3.820313-8.53125 8.53125-8.53125h52.738282c4.710937 0 8.53125 3.820313 8.53125 8.53125 0 4.714844-3.820313 8.535156-8.53125 8.535156zm0 0"/><path d="m163.96875 384.015625c-10.191406-.035156-19.835938-4.609375-26.308594-12.480469-9.132812 8.519532-22.191406 11.375-34.046875 7.441406-11.855469-3.933593-20.617187-14.027343-22.84375-26.316406-1.1875-6.453125-.472656-13.109375 2.054688-19.160156-10.121094-3.457031-18.035157-11.46875-21.371094-21.632812-3.335937-10.164063-1.710937-21.304688 4.398437-30.089844 10.75-15.480469 32.011719-19.328125 47.503907-8.59375.9375.652344 1.832031 1.382812 2.71875 2.117187 3.636719 3.019531 4.144531 8.410157 1.144531 12.058594-1.4375 1.742187-3.503906 2.835937-5.75 3.050781-2.246094.210938-4.484375-.476562-6.222656-1.917968-.585938-.492188-1.082032-.917969-1.613282-1.28125-5.003906-3.566407-11.542968-4.167969-17.117187-1.570313-5.570313 2.597656-9.316406 7.988281-9.800781 14.117187-.488282 6.128907 2.359375 12.046876 7.453125 15.488282 3.769531 2.636718 8.449219 3.621094 12.957031 2.726562 3.941406-.792968 7.898438 1.273438 9.503906 4.957032 1.605469 3.683593.425782 7.988281-2.835937 10.332031-1.339844.992187-2.503907 2.207031-3.4375 3.585937-3.625 5.003906-4.261719 11.578125-1.664063 17.183594s8.023438 9.371094 14.183594 9.84375c6.164062.46875 12.097656-2.425781 15.515625-7.570312.964844-1.355469 1.6875-2.863282 2.144531-4.460938 1.085938-3.851562 4.671875-6.460938 8.675782-6.308594 4.015624.210938 7.34375 3.191406 7.988281 7.160156 1.289062 7.640626 7.5625 13.457032 15.28125 14.160157 7.714843.699219 14.9375-3.886719 17.582031-11.171875s.046875-15.433594-6.324219-19.847656c-.546875-.375-1.152343-.707032-1.761719-1.058594-4.097656-2.328125-5.53125-7.539063-3.199218-11.636719 2.328125-4.097656 7.539062-5.53125 11.636718-3.199219 1.03125.582032 2.054688 1.183594 3.03125 1.847656 12.261719 8.523438 17.566407 24.015626 13.105469 38.265626-4.457031 14.25-17.652343 23.953124-32.585937 23.960937zm0 0"/><path d="m176.199219 335.894531c-2.6875.003907-5.222657-1.261719-6.835938-3.414062-1.613281-2.152344-2.113281-4.941407-1.355469-7.523438l20.285157-69.214843c.8125-2.976563 3.167969-5.285157 6.164062-6.03125 2.996094-.75 6.160157.179687 8.277344 2.425781 2.117187 2.246093 2.855469 5.460937 1.933594 8.40625l-20.285157 69.214843c-1.0625 3.636719-4.394531 6.132813-8.183593 6.136719zm0 0"/><path d="m110.714844 290.46875c-3.679688.003906-6.945313-2.347656-8.109375-5.835938-1.164063-3.488281.039062-7.328124 2.984375-9.53125l57.726562-43.25c3.773438-2.828124 9.125-2.058593 11.949219 1.714844 2.828125 3.777344 2.058594 9.125-1.714844 11.953125l-57.730469 43.246094c-1.472656 1.105469-3.265624 1.699219-5.105468 1.703125zm0 0"/><path d="m262.929688 384.015625c-14.933594.015625-28.144532-9.675781-32.617188-23.929687-4.46875-14.25.839844-29.75 13.109375-38.269532.984375-.679687 2.019531-1.277344 3.0625-1.875 4.082031-2.21875 9.191406-.757812 11.488281 3.28125 2.296875 4.039063.9375 9.175782-3.054687 11.550782-.597657.34375-1.210938.675781-1.777344 1.066406-6.371094 4.417968-8.960937 12.574218-6.3125 19.859375 2.652344 7.285156 9.878906 11.871093 17.601563 11.160156 7.71875-.707031 13.992187-6.53125 15.269531-14.175781.648437-3.96875 3.976562-6.945313 7.992187-7.152344 3.992188-.128906 7.5625 2.46875 8.671875 6.308594.453125 1.601562 1.179688 3.109375 2.140625 4.46875 3.476563 5.011718 9.359375 7.785156 15.433594 7.28125 6.078125-.503906 11.425781-4.210938 14.027344-9.722656 2.601562-5.515626 2.0625-12-1.410156-17.007813-.9375-1.386719-2.105469-2.605469-3.449219-3.601563-3.261719-2.347656-4.445313-6.652343-2.839844-10.335937s5.566406-5.75 9.503906-4.957031c6.816407 1.324218 13.753907-1.613282 17.542969-7.429688 3.789062-5.8125 3.671875-13.347656-.292969-19.042968-5.382812-7.726563-16-9.648438-23.746093-4.292969-.535157.375-1.007813.773437-1.476563 1.175781l-10.921875-13.117188c.875-.726562 1.757812-1.449218 2.699219-2.101562 10.949219-7.59375 25.320312-8.121094 36.796875-1.351562 11.480468 6.773437 17.964844 19.605468 16.613281 32.863281-1.351563 13.257812-10.296875 24.515625-22.90625 28.832031 6.144531 14.84375 1.113281 31.964844-12.089844 41.121094s-31.003906 7.871094-42.753906-3.089844c-6.46875 7.875-16.113281 12.453125-26.304687 12.484375zm0 0"/><path d="m250.695312 335.894531c-3.785156 0-7.121093-2.5-8.183593-6.136719l-20.28125-69.214843c-.914063-2.941407-.171875-6.148438 1.945312-8.390625 2.113281-2.242188 5.273438-3.167969 8.261719-2.421875 2.992188.742187 5.347656 3.042969 6.167969 6.011719l20.28125 69.214843c.761719 2.582031.257812 5.371094-1.355469 7.523438-1.613281 2.152343-4.144531 3.417969-6.835938 3.414062zm0 0"/><path d="m316.183594 290.46875c-1.839844-.003906-3.632813-.597656-5.109375-1.703125l-57.726563-43.246094c-3.773437-2.828125-4.542968-8.175781-1.71875-11.953125 2.828125-3.773437 8.175782-4.542968 11.949219-1.714844l57.730469 43.25c2.945312 2.203126 4.148437 6.042969 2.984375 9.53125-1.164063 3.488282-4.429688 5.839844-8.109375 5.835938zm0 0"/></svg>