<svg height="512pt" viewBox="0 0 512.02797 512" width="512pt" xmlns="http://www.w3.org/2000/svg"><path d="m78.011719 395.050781c-3.15625 4.011719-6.484375 7.9375-9.898438 11.777344-12.605469 13.945313-34.113281 15.082031-48.113281 2.535156-14.003906-12.542969-15.230469-34.046875-2.746094-48.101562 7.550782-8.457031 14.375-17.535157 20.394532-27.136719zm0 0" fill="#ff9801"/><path d="m247.484375 8.578125c-101.273437-.015625-190.675781 66.109375-220.316406 162.949219-29.636719 96.835937 7.445312 201.671875 91.378906 258.339844h.085937l69.117188 48.042968v8.535156c.027344 9.414063 7.652344 17.039063 17.066406 17.066407h145.066406c9.414063-.027344 17.039063-7.652344 17.066407-17.066407v-50.433593c.769531-.511719 1.539062-.9375 2.304687-1.449219 3.753906-2.390625 7.511719-4.863281 11.09375-7.425781.011719.089843.039063.179687.085938.257812 1.058594 2.222657 2.570312 4.199219 4.4375 5.800781.597656.597657 1.28125 1.28125 1.960937 1.878907 1.261719 1.097656 2.601563 2.09375 4.011719 2.984375.6875.5625 1.429688 1.050781 2.21875 1.453125.800781.449219 1.625.847656 2.476562 1.195312.6875.335938 1.402344.621094 2.132813.851563 1.109375.425781 2.21875.769531 3.328125 1.109375 2.808594.75 5.707031 1.125 8.617188 1.109375 9.707031.015625 18.957031-4.113282 25.429687-11.347656 43.410156-48.574219 67.722656-111.246094 68.4375-176.386719 1.023437-76.796875-51.199219-247.464844-256-247.464844zm0 0" fill="#f0c419"/><path d="m503.484375 256.042969c-.714844 65.140625-25.027344 127.8125-68.4375 176.386719-6.472656 7.234374-15.722656 11.363281-25.429687 11.347656-2.910157.015625-5.808594-.359375-8.617188-1.109375-1.109375-.339844-2.21875-.683594-3.328125-1.109375-.730469-.230469-1.445313-.515625-2.132813-.851563-.851562-.347656-1.675781-.746093-2.476562-1.195312-.789062-.402344-1.53125-.890625-2.21875-1.453125-1.410156-.890625-2.75-1.886719-4.011719-2.984375-.679687-.597657-1.363281-1.28125-1.960937-1.878907-1.867188-1.601562-3.378906-3.578124-4.4375-5.800781-.046875-.078125-.074219-.167969-.085938-.257812-3.582031 2.5625-7.339844 5.035156-11.09375 7.425781-.765625.511719-1.535156.9375-2.304687 1.449219-20.9375 12.730469-43.785157 22.007812-67.667969 27.476562h-.253906l-.34375-2.644531c-8.613282-20.691406-28.785156-34.207031-51.199219-34.304688h-8.535156c-20.351563.03125-38.761719 12.082032-46.933594 30.722657-.683594 1.613281-1.28125 3.265625-1.789063 4.949219-1.652343 5.039062-2.488281 10.3125-2.476562 15.613281v.085937l-69.117188-48.042968h-.085937c-83.933594-56.667969-121.015625-161.503907-91.378906-258.339844 29.640625-96.839844 119.042969-162.964844 220.316406-162.949219 204.800781 0 257.023437 170.667969 256 247.464844zm0 0" fill="#ffdc00"/><path d="m192.015625 457.261719c-8.148437-18.652344-26.578125-30.703125-46.929687-30.695313h-8.535157c-28.296875.046875-51.207031 23-51.199219 51.296875v8.546875c.019532 9.425782 7.644532 17.0625 17.066407 17.101563h145.066406zm0 0" fill="#3f51b5"/><path d="m366.949219 436.011719v50.433593c-.027344 9.414063-7.652344 17.039063-17.066407 17.066407h-145.066406c-9.414062-.027344-17.039062-7.652344-17.066406-17.066407v-8.621093c-.011719-5.300781.824219-10.574219 2.476562-15.613281.507813-1.683594 1.105469-3.335938 1.789063-4.949219 8.171875-18.640625 26.582031-30.691407 46.933594-30.722657h8.535156c22.414063.097657 42.585937 13.613282 51.199219 34.304688l.597656 2.644531c23.882812-5.46875 46.730469-14.746093 67.667969-27.476562zm0 0" fill="#3f51b5"/><path d="m503.484375 256.042969c-.714844 65.140625-25.027344 127.8125-68.4375 176.386719-6.472656 7.234374-15.722656 11.363281-25.429687 11.347656-2.910157.015625-5.808594-.359375-8.617188-1.109375-1.109375-.339844-2.21875-.683594-3.328125-1.109375-.304687-.0625-.59375-.175782-.855469-.339844 4.851563-1.882812 9.183594-4.894531 12.628906-8.789062 43.410157-48.574219 67.726563-111.246094 68.4375-176.386719 1.027344-74.921875-48.722656-239.273438-241.492187-247.125 3.667969-.253907 7.339844-.339844 11.09375-.339844 204.800781 0 257.023437 170.667969 256 247.464844zm0 0" fill="#fec108"/><path d="m366.949219 436.011719v50.433593c-.027344 9.414063-7.652344 17.039063-17.066407 17.066407h-25.597656c9.414063-.027344 17.039063-7.652344 17.066406-17.066407v-37.035156c8.808594-3.917968 17.359376-8.394531 25.597657-13.398437zm0 0" fill="#283593"/><path d="m380.347656 427.136719c-3.582031 2.5625-7.339844 5.035156-11.09375 7.425781-13.523437-12.695312-14.46875-33.851562-2.132812-47.703125 26.3125-29.351563 43.144531-65.96875 48.292968-105.050781 1.203126-9.316406 9.132813-16.289063 18.523438-16.292969-2.132812 44.96875-19.703125 87.824219-49.75 121.34375-9.945312 11.144531-11.5 27.457031-3.839844 40.277344zm0 0" fill="#fec108"/><path d="m380.433594 427.394531c1.300781 2.0625 2.785156 4.007813 4.4375 5.800781-1.867188-1.601562-3.378906-3.578124-4.4375-5.800781zm0 0" fill="#f0c419"/><path d="m366.949219 436.011719v17.066406c-15.941407 9.691406-33.007813 17.390625-50.820313 22.9375-3.960937 1.199219-8.257812.449219-11.578125-2.023437-3.320312-2.46875-5.277343-6.363282-5.269531-10.503907 23.882812-5.46875 46.730469-14.746093 67.667969-27.476562zm0 0" fill="#283593"/><path d="m438.886719 85.9375 56.054687-5.671875c2.691406-.261719 5.324219.898437 6.941406 3.066406 1.621094 2.167969 1.988282 5.023438.96875 7.527344l-22.441406 50.121094c-1.125 2.300781-3.367187 3.851562-5.917968 4.097656-2.550782.246094-5.046876-.851563-6.589844-2.898437l-34.941406-43.015626-54.503907-26.0625-54.34375.324219c-2.582031.019531-5-1.25-6.449219-3.386719-1.449218-2.132812-1.734374-4.851562-.761718-7.242187l22.441406-50.121094c1.191406-2.410156 3.597656-3.988281 6.285156-4.117187s5.230469 1.207031 6.652344 3.492187l32.101562 47.824219zm0 0" fill="#6a1b9a"/><path d="m154.898438 137.757812c17.339843 4.132813 30.273437 18.625 32.414062 36.324219 2.136719 17.699219-6.96875 34.859375-22.824219 43.003907-15.855469 8.148437-35.109375 5.5625-48.25-6.480469-13.144531-12.046875-17.398437-31-10.664062-47.503907zm0 0" fill="#f5f5f5"/><path d="m162.132812 187.746094c0-14.15625-11.453124-25.632813-25.582031-25.632813-14.128906 0-25.582031 11.476563-25.582031 25.632813s11.453125 25.632812 25.582031 25.632812c14.128907 0 25.582031-11.476562 25.582031-25.632812zm0 0" fill="#3f51b5"/><path d="m321.125 163.101562c8.089844 19.792969.277344 42.511719-18.269531 53.152344-18.542969 10.640625-42.101563 5.910156-55.105469-11.0625s-11.4375-40.945312 3.660156-56.085937c5.589844-5.628907 12.660156-9.566407 20.394532-11.347657zm0 0" fill="#f5f5f5"/><path d="m298.667969 187.746094c-.011719 12.214844-8.648438 22.722656-20.632813 25.09375-11.980468 2.375-23.972656-4.046875-28.640625-15.335938-4.667969-11.289062-.710937-24.300781 9.449219-31.082031s23.695312-5.441406 32.332031 3.199219c4.804688 4.804687 7.503907 11.328125 7.492188 18.125zm0 0" fill="#3f51b5"/><path d="m412.476562 107.984375-27.253906-13.03125c-7.585937-3.773437-10.824218-12.878906-7.320312-20.59375l6.304687-14.082031c1.582031-3.695313 4.601563-6.585938 8.359375-8.015625 3.757813-1.425781 7.933594-1.261719 11.570313.449219l27.253906 13.03125c7.585937 3.773437 10.824219 12.878906 7.320313 20.597656l-6.304688 14.078125c-1.582031 3.695312-4.601562 6.589843-8.359375 8.015625-3.757813 1.425781-7.933594 1.265625-11.570313-.449219zm0 0" fill="#9d27b0"/><path d="m162.152344 179.246094c0 4.710937-3.820313 8.53125-8.535156 8.53125-4.710938 0-8.53125-3.820313-8.53125-8.53125 0-4.714844 3.820312-8.535156 8.53125-8.535156 4.714843 0 8.535156 3.820312 8.535156 8.535156zm0 0" fill="#f5f5f5"/><path d="m298.683594 179.246094c0 4.710937-3.820313 8.53125-8.53125 8.53125-4.714844 0-8.535156-3.820313-8.535156-8.53125 0-4.714844 3.820312-8.535156 8.535156-8.535156 4.710937 0 8.53125 3.820312 8.53125 8.535156zm0 0" fill="#f5f5f5"/><path d="m349.882812 512.027344h-145.066406c-14.132812-.015625-25.582031-11.46875-25.597656-25.601563v-8.617187c-.007812-6.207032.972656-12.375 2.898438-18.273438.582031-1.902344 1.257812-3.773437 2.035156-5.601562 9.503906-21.800782 31.015625-35.910156 54.796875-35.9375h8.535156c26.035156.015625 49.460937 15.816406 59.230469 39.945312 1.113281 2.890625.578125 6.15625-1.40625 8.535156-1.980469 2.382813-5.097656 3.5-8.140625 2.925782-3.042969-.574219-5.535157-2.753906-6.511719-5.691406-7.363281-17.328126-24.34375-28.601563-43.171875-28.648438h-8.535156c-16.964844.015625-32.316407 10.0625-39.121094 25.605469-.542969 1.300781-1.019531 2.628906-1.425781 3.976562-1.402344 4.25-2.117188 8.691407-2.117188 13.167969v8.617188c.003906 4.710937 3.820313 8.527343 8.53125 8.535156h145.066406c4.710938-.007813 8.53125-3.824219 8.535157-8.535156v-50.433594c0-4.710938 3.820312-8.53125 8.53125-8.53125 4.714843 0 8.535156 3.820312 8.535156 8.53125v50.433594c-.015625 14.132812-11.46875 25.582031-25.601563 25.597656zm0 0"/><path d="m247.484375 512.027344h-145.066406c-14.140625-.023438-25.59375-11.492188-25.601563-25.632813v-8.550781c.011719-33 26.734375-59.761719 59.734375-59.824219h8.535157c23.753906-.027343 45.261718 14.039063 54.757812 35.816407 1.882812 4.320312-.097656 9.351562-4.417969 11.234374-4.320312 1.882813-9.351562-.097656-11.234375-4.417968-6.78125-15.546875-22.144531-25.589844-39.105468-25.566406h-8.535157c-23.578125.054687-42.664062 19.179687-42.667969 42.757812v8.550781c-.003906 4.71875 3.816407 8.550781 8.535157 8.566407h145.066406c4.710937 0 8.53125 3.820312 8.53125 8.53125 0 4.714843-3.820313 8.535156-8.53125 8.535156zm0 0"/><path d="m42.683594 426.695312c-16.832032.007813-32.097656-9.882812-38.96875-25.25-6.871094-15.367187-4.0625-33.335937 7.167968-45.875 7.226563-8.097656 13.761719-16.789062 19.53125-25.984374 2.496094-3.996094 7.761719-5.210938 11.757813-2.714844 4 2.5 5.214844 7.761718 2.714844 11.761718-6.28125 10.003907-13.390625 19.464844-21.257813 28.28125-9.402344 10.554688-8.523437 26.71875 1.964844 36.191407 10.6875 9.003906 26.535156 8.128906 36.167969-1.996094 3.273437-3.679687 6.492187-7.472656 9.546875-11.355469 2.917968-3.703125 8.285156-4.339844 11.988281-1.421875s4.339844 8.285157 1.421875 11.988281c-3.261719 4.132813-6.703125 8.191407-10.226562 12.15625-8.105469 9.039063-19.667969 14.207032-31.808594 14.21875zm0 0"/><path d="m409.617188 452.292969c-16.832032.007812-32.097657-9.878907-38.96875-25.246094-6.871094-15.367187-4.0625-33.339844 7.167968-45.878906 28.699219-32.09375 45.503906-73.070313 47.597656-116.074219.296876-4.671875 4.25-8.265625 8.929688-8.117188 4.707031.226563 8.339844 4.226563 8.121094 8.933594-2.289063 46.910156-20.617188 91.613282-51.921875 126.625-9.386719 10.558594-8.496094 26.710938 1.988281 36.175782 10.6875 8.996093 26.53125 8.121093 36.164062-2 42.015626-47.042969 65.554688-107.722657 66.253907-170.792969-.542969-37.394531-9.257813-74.222657-25.527344-107.898438-2.039063-4.25-.246094-9.347656 4.003906-11.386719 4.25-2.039062 9.347657-.246093 11.386719 4.003907 17.378906 36.054687 26.660156 75.472656 27.203125 115.492187-.753906 67.207032-25.84375 131.859375-70.613281 181.984375-8.105469 9.019531-19.660156 14.171875-31.785156 14.179688zm0 0"/><path d="m398.949219 59.84375c-4.730469.007812-8.578125-3.800781-8.617188-8.53125-.019531-2.257812.859375-4.425781 2.445313-6.027344 1.589844-1.601562 3.75-2.503906 6.003906-2.507812h.167969c4.714843 0 8.535156 3.820312 8.535156 8.535156 0 4.710938-3.820313 8.53125-8.535156 8.53125zm0 0"/><path d="m118.632812 438.386719c-1.730468 0-3.417968-.507813-4.859374-1.457031-87.042969-58.769532-125.496094-167.488282-94.761719-267.914063s123.449219-169 228.472656-168.9882812c30.699219-.2851558 61.265625 4.0429682 90.675781 12.8398442 2.96875.855468 5.246094 3.25 5.949219 6.257812s-.273437 6.164062-2.554687 8.246094c-2.28125 2.085937-5.511719 2.769531-8.445313 1.796875-27.777344-8.285157-56.640625-12.355469-85.625-12.074219-97.457031-.015625-183.511719 63.578125-212.105469 156.746094-28.59375 93.167968 6.972656 194.089844 87.660156 248.746094 3.253907 1.988281 4.792969 5.894531 3.769532 9.566406-1.023438 3.671875-4.363282 6.21875-8.175782 6.234375zm0 0"/><path d="m299.269531 472.003906c-4.335937-.011718-7.976562-3.273437-8.457031-7.582031-.484375-4.3125 2.339844-8.296875 6.566406-9.269531 22.992188-5.265625 44.988282-14.199219 65.144532-26.453125 4.296874-2.683594 8.679687-5.574219 12.898437-8.550781 3.847656-2.621094 9.085937-1.671876 11.769531 2.128906 2.6875 3.800781 1.832032 9.050781-1.917968 11.804687-4.484376 3.175781-9.152344 6.25-13.808594 9.152344-21.742188 13.234375-45.472656 22.875-70.285156 28.546875-.625.148438-1.265626.222656-1.910157.222656zm0 0"/><path d="m418.761719 117.96875c-3.449219-.003906-6.859375-.785156-9.96875-2.28125l-27.25-13.035156c-11.734375-5.796875-16.78125-19.839844-11.425781-31.78125l6.304687-14.078125c2.578125-5.867188 7.433594-10.425781 13.445313-12.632813 5.851562-2.171875 12.335937-1.863281 17.953124.855469l27.25 13.035156c11.738282 5.792969 16.789063 19.839844 11.425782 31.78125l-6.304688 14.074219c-2.574218 5.867188-7.429687 10.429688-13.445312 12.632812-2.554688.945313-5.257813 1.429688-7.984375 1.429688zm-20.929688-58.15625c-.710937 0-1.414062.125-2.082031.375-1.683594.628906-3.039062 1.921875-3.753906 3.574219l-6.304688 14.078125c-1.628906 3.492187-.210937 7.648437 3.214844 9.410156l27.253906 13.03125c1.46875.71875 3.171875.800781 4.703125.226562 1.683594-.632812 3.039063-1.921874 3.753907-3.574218l6.304687-14.082032c1.632813-3.488281.214844-7.640624-3.207031-9.40625l-27.257813-13.035156c-.820312-.394531-1.714843-.597656-2.625-.597656zm0 0"/><path d="m324.066406 81.964844c-5.527344-.003906-10.679687-2.8125-13.671875-7.457032-2.996093-4.519531-3.476562-10.25-1.273437-15.203124l22.4375-50.105469c2.285156-5.183594 7.238281-8.683594 12.886718-9.1093752 5.914063-.4882818 11.628907 2.2734372 14.921876 7.2070312l32.105468 47.824219c1.636719 2.449218 1.902344 5.566406.695313 8.253906-1.203125 2.683594-3.707031 4.5625-6.625 4.964844 1.757812 2.609375 1.9375 5.972656.464843 8.753906-1.46875 2.78125-4.347656 4.527344-7.496093 4.546875l-54.34375.324219zm22.121094-63.683594-21 46.894531 52.082031-.589843zm0 0"/><path d="m324.066406 81.964844c-5.527344-.003906-10.679687-2.8125-13.671875-7.457032-2.996093-4.519531-3.476562-10.25-1.273437-15.203124l22.4375-50.105469c2.285156-5.183594 7.238281-8.683594 12.886718-9.1093752 5.914063-.4882818 11.628907 2.2734372 14.921876 7.2070312l32.105468 47.824219c1.636719 2.449218 1.902344 5.566406.695313 8.253906-1.203125 2.683594-3.707031 4.5625-6.625 4.964844 1.757812 2.609375 1.9375 5.972656.464843 8.753906-1.46875 2.78125-4.347656 4.527344-7.496093 4.546875l-54.34375.324219zm22.121094-63.683594-21 46.894531 52.082031-.589843zm0 0"/><path d="m473.910156 153.628906c-4.914062-.007812-9.558594-2.242187-12.628906-6.078125l-34.941406-43.007812c-1.941406-2.394531-2.445313-5.648438-1.3125-8.515625 1.132812-2.867188 3.722656-4.902344 6.777344-5.324219-1.679688-2.492187-1.925782-5.679687-.648438-8.398437s3.890625-4.566407 6.878906-4.863282l56.050782-5.667968c5.789062-.519532 11.425781 2.035156 14.847656 6.734374 3.390625 4.585938 4.046875 10.640626 1.714844 15.84375l-22.4375 50.109376c-2.195313 4.929687-6.8125 8.355468-12.167969 9.023437-.707031.097656-1.421875.144531-2.132813.144531zm-33.828125-59.242187 33.421875 41.148437 21.027344-46.972656zm0 0"/><path d="m145.085938 230.601562c-28.292969-.054687-51.195313-23-51.203126-51.289062-.027343-6.679688 1.265626-13.300781 3.808594-19.476562 1.828125-4.316407 6.796875-6.351563 11.125-4.554688 4.332032 1.792969 6.402344 6.742188 4.640625 11.089844-1.679687 4.105468-2.53125 8.503906-2.507812 12.941406 0 12.191406 6.507812 23.460938 17.066406 29.558594 10.5625 6.097656 23.574219 6.097656 34.136719 0 10.558594-6.097656 17.066406-17.367188 17.066406-29.558594.113281-15.859375-10.792969-29.671875-26.242188-33.242188-4.59375-1.0625-7.457031-5.644531-6.398437-10.238281 1.0625-4.59375 5.644531-7.457031 10.238281-6.394531 25.304688 5.988281 42.117188 29.96875 39.125 55.800781-2.996094 25.828125-24.855468 45.328125-50.855468 45.363281zm0 0"/><path d="m281.617188 230.601562c-13.605469.027344-26.65625-5.390624-36.242188-15.046874-9.5625-9.640626-14.9375-22.664063-14.957031-36.242188-.0625-23.792969 16.3125-44.480469 39.488281-49.875 3-.761719 6.179688.164062 8.304688 2.414062 2.125 2.253907 2.859374 5.480469 1.925781 8.433594-.933594 2.953125-3.398438 5.164063-6.429688 5.785156-15.410156 3.628907-26.28125 17.410157-26.222656 33.242188.003906 9.054688 3.585937 17.742188 9.957031 24.171875 13.507813 12.96875 34.84375 12.96875 48.351563 0 9.6875-9.785156 12.609375-24.40625 7.429687-37.164063-1.777344-4.367187.320313-9.34375 4.6875-11.121093 4.363282-1.777344 9.34375.320312 11.121094 4.6875 6.472656 15.808593 4.648438 33.800781-4.863281 47.992187-9.515625 14.1875-25.46875 22.707032-42.550781 22.722656zm0 0"/><path d="m181.398438 68.984375c-1.125 9.378906-4.996094 18.21875-11.121094 25.410156-6.09375 7.441407-13.914063 13.277344-22.785156 16.996094-8.75 3.617187-18.160157 5.382813-27.625 5.1875-4.582032-.117187-9.148438-.605469-13.648438-1.460937-4.378906-1.082032-8.679688-2.441407-12.886719-4.074219-1.359375-.527344-2.191406-1.910157-2.023437-3.363281.167968-1.449219 1.296875-2.605469 2.742187-2.808594l.390625-.054688c4.316406-.59375 8.457032-.703125 12.542969-.972656 4.054687-.636719 8.085937-.757812 11.949219-1.511719 7.570312-1.195312 14.984375-3.242187 22.097656-6.09375 6.898438-3.058593 13.382812-6.988281 19.285156-11.691406 6.253906-5.054687 11.980469-10.734375 17.089844-16.941406l.191406-.234375c.609375-.722656 1.621094-.964844 2.496094-.597656.871094.371093 1.402344 1.265624 1.308594 2.207031zm0 0"/><path d="m249.484375 67.605469c5.109375 6.210937 10.835937 11.886719 17.09375 16.941406 5.902344 4.703125 12.382813 8.632813 19.28125 11.691406 7.113281 2.855469 14.523437 4.898438 22.09375 6.097657 3.867187.753906 7.898437.871093 11.953125 1.511718 4.078125.265625 8.222656.375 12.542969.972656l.382812.054688c1.449219.199219 2.578125 1.355469 2.75 2.808594.167969 1.449218-.664062 2.832031-2.027343 3.363281-4.203126 1.632813-8.507813 2.992187-12.886719 4.070313-4.5.859374-9.0625 1.347656-13.644531 1.460937-9.46875.199219-18.875-1.566406-27.628907-5.183594-8.867187-3.71875-16.691406-9.554687-22.78125-16.996093-6.128906-7.195313-9.996093-16.035157-11.125-25.414063-.09375-.941406.433594-1.835937 1.304688-2.207031.871093-.371094 1.878906-.132813 2.496093.585937zm0 0"/><path d="m112.445312 172.285156c-8.460937.144532-16.761718-2.328125-23.765624-7.082031-3.753907-2.851563-4.484376-8.203125-1.632813-11.957031s8.203125-4.484375 11.957031-1.632813c9.125 5.1875 20.339844 5.039063 29.320313-.382812 10.675781-4.574219 18.75-13.679688 22.007812-24.828125.960938-4.578125 5.398438-7.554688 9.996094-6.707032 4.589844.871094 7.613281 5.28125 6.773437 9.875-4.246093 16.476563-15.785156 30.109376-31.335937 37.015626-7.234375 3.65625-15.210937 5.605468-23.320313 5.699218zm0 0"/><path d="m314.253906 172.285156c-8.101562-.09375-16.078125-2.042968-23.316406-5.691406-15.546875-6.910156-27.089844-20.546875-31.335938-37.023438-.609374-3.023437.460938-6.140624 2.796876-8.152343 2.335937-2.011719 5.578124-2.605469 8.476562-1.554688s5.003906 3.582031 5.511719 6.621094c3.28125 11.113281 11.34375 20.183594 21.992187 24.75 8.957032 5.386719 20.117188 5.554687 29.230469.433594 2.417969-1.859375 5.644531-2.289063 8.464844-1.125 2.816406 1.164062 4.800781 3.742187 5.203125 6.765625.402344 3.023437-.839844 6.03125-3.257813 7.890625-7 4.753906-15.300781 7.230469-23.765625 7.085937zm0 0"/><path d="m281.617188 315.761719c-4.710938 0-8.53125-3.820313-8.53125-8.535157-.015626-14.132812-11.46875-25.582031-25.601563-25.597656h-68.265625c-14.132812.015625-25.585938 11.464844-25.601562 25.597656 0 4.714844-3.820313 8.535157-8.53125 8.535157-4.714844 0-8.535157-3.820313-8.535157-8.535157.027344-23.550781 19.113281-42.636718 42.667969-42.664062h68.265625c23.550781.027344 42.640625 19.113281 42.667969 42.664062 0 4.714844-3.820313 8.535157-8.535156 8.535157zm0 0"/><path d="m213.351562 315.761719h-8.535156c-4.710937 0-8.53125-3.820313-8.53125-8.535157 0-4.710937 3.820313-8.53125 8.53125-8.53125h8.535156c4.710938 0 8.53125 3.820313 8.53125 8.53125 0 4.714844-3.820312 8.535157-8.53125 8.535157zm0 0"/></svg>