<svg height="511pt" viewBox="0 0 511 511.9921" width="511pt" xmlns="http://www.w3.org/2000/svg"><path d="m77.449219 250.445312-34.21875 14.675782 19.199219 48.640625-29.097657 19.199219-21.84375-55.292969c-6.867187-17.15625 1.25-36.648438 18.257813-43.863281l44.546875-19.113282c1.417969-.597656 2.910156-.996094 4.4375-1.195312zm0 0" fill="#ff5722"/><path d="m472.457031 93.089844 30.378907 111.871094c2.578124 10.210937.304687 21.039062-6.167969 29.34375-6.46875 8.304687-16.414063 13.160156-26.941407 13.152343h-34.304687l-1.363281-34.132812h35.667968l-29.269531-108.03125zm0 0" fill="#ff5722"/><path d="m435.59375 238.925781c.929688 65.347657-29.976562 127.0625-82.859375 165.460938l-97.28125 72.535156-12.714844-9.644531-82.6875-62.890625c-16.207031-11.371094-30.496093-25.253907-42.324219-41.128907l-22.613281-38.65625c-10.3125-23.453124-16.296875-48.574218-17.664062-74.15625-.171875-3.839843-.257813-7.679687-.257813-11.519531-.007812-8.5.503906-16.992187 1.539063-25.429687 10.835937-91.820313 79.613281-163.753906 164.863281-170.238282 4.265625-.429687 8.53125-.597656 12.800781-.597656 98.984375 0 179.199219 87.890625 179.199219 196.265625zm0 0" fill="#fec108"/><path d="m409.992188 238.925781c.929687 65.347657-29.976563 127.0625-82.859376 165.460938l-84.394531 62.890625-82.6875-62.890625c-16.207031-11.371094-30.496093-25.253907-42.324219-41.128907l-22.613281-38.65625c-10.3125-23.453124-16.296875-48.574218-17.664062-74.15625-.171875-3.839843-.257813-7.679687-.257813-11.519531-.007812-8.5.503906-16.992187 1.539063-25.429687 10.835937-91.820313 79.613281-163.753906 164.863281-170.238282 93.011719 7.082032 166.398438 91.988282 166.398438 195.667969zm0 0" fill="#ffdc00"/><path d="m256.394531 460.792969v25.597656c-.027343 9.414063-7.652343 17.039063-17.066406 17.066406h-102.402344c-9.414062-.027343-17.039062-7.652343-17.066406-17.066406v-25.597656c-.066406-31.34375 24.195313-57.363281 55.46875-59.476563 1.414063-.171875 2.839844-.257812 4.265625-.257812h17.066406c15.84375-.011719 31.046875 6.277344 42.25 17.484375 11.203125 11.203125 17.496094 26.402343 17.484375 42.25zm0 0" fill="#283593"/><path d="m230.792969 460.792969v25.597656c-.027344 9.414063-7.652344 17.039063-17.066407 17.066406h-76.800781c-9.414062-.027343-17.039062-7.652343-17.066406-17.066406v-25.597656c-.066406-31.34375 24.195313-57.363281 55.46875-59.476563 31.269531 2.113282 55.535156 28.132813 55.464844 59.476563zm0 0" fill="#3f51b5"/><path d="m392.925781 460.792969v25.597656c-.027343 9.414063-7.652343 17.039063-17.066406 17.066406h-102.398437c-9.414063-.027343-17.039063-7.652343-17.066407-17.066406v-25.597656c-.070312-31.34375 24.195313-57.363281 55.464844-59.476563 1.417969-.171875 2.839844-.257812 4.265625-.257812h17.066406c15.847656-.011719 31.046875 6.277344 42.253906 17.484375 11.203126 11.203125 17.492188 26.402343 17.480469 42.25zm0 0" fill="#283593"/><path d="m367.328125 460.792969v25.597656c-.027344 9.414063-7.652344 17.039063-17.066406 17.066406h-76.800781c-9.414063-.027343-17.039063-7.652343-17.066407-17.066406v-25.597656c-.070312-31.34375 24.195313-57.363281 55.464844-59.476563 31.273437 2.113282 55.535156 28.132813 55.46875 59.476563zm0 0" fill="#3f51b5"/><path d="m106.246094 335.78125c-16.804688-22.019531-45.03125-28.722656-63.046875-14.972656-18.011719 13.75-18.996094 42.746094-2.191407 64.765625 16.804688 22.015625 45.035157 28.722656 63.046876 14.972656 18.015624-13.75 19-42.746094 2.191406-64.765625zm0 0" fill="#ff9801"/><path d="m460.597656 102.390625c-8.886718 4.046875-19.007812 4.414063-28.160156 1.027344-13.574219-5.101563-24.5625-15.382813-30.550781-28.589844-11.945313-25-5.035157-53.246094 15.445312-62.976563.769531-.339843 1.621094-.679687 2.472657-1.023437 20.054687-7.679687 44.632812 4.609375 56.152343 28.671875 11.945313 25.003906 5.117188 53.164062-15.359375 62.890625zm0 0" fill="#f57c00"/><path d="m434.996094 102.390625c-.824219.414063-1.679688.757813-2.558594 1.027344-13.574219-5.101563-24.5625-15.382813-30.550781-28.589844-11.945313-25-5.035157-53.246094 15.445312-62.976563.769531-.339843 1.621094-.679687 2.472657-1.023437 13.546874 5.1875 24.515624 15.484375 30.550781 28.671875 11.945312 25.003906 5.121093 53.164062-15.359375 62.890625zm0 0" fill="#ff9801"/><path d="m205.191406 238.925781h102.402344c4.710938 0 8.53125 3.820313 8.53125 8.53125v17.070313c0 32.988281-26.742188 59.730468-59.730469 59.730468-32.992187 0-59.734375-26.742187-59.734375-59.730468v-17.070313c0-4.710937 3.820313-8.53125 8.53125-8.53125zm0 0" fill="#bb193b"/><path d="m281.992188 22.136719 48.855468-13.292969c2.511719-.75 5.230469-.296875 7.359375 1.234375 2.128907 1.53125 3.429688 3.960937 3.519531 6.578125v43.46875c-.089843 2.621094-1.390624 5.050781-3.519531 6.582031-2.128906 1.527344-4.847656 1.984375-7.359375 1.234375l-48.855468-13.296875h-51.199219l-48.855469 13.296875c-2.511719.75-5.230469.292969-7.359375-1.234375-2.128906-1.53125-3.429687-3.960937-3.519531-6.582031v-43.46875c.089844-2.617188 1.390625-5.046875 3.519531-6.578125s4.847656-1.984375 7.359375-1.234375l48.855469 13.292969zm0 0" fill="#6a1b9a"/><path d="m302.644531 302.242188c-11.316406 13.929687-28.304687 22.015624-46.25 22.015624-17.945312 0-34.9375-8.085937-46.253906-22.015624 1.796875-3.65625 3.972656-7.117188 6.488281-10.324219 9.449219-12.316407 24.246094-19.335938 39.765625-18.859375 15.515625-.476563 30.316407 6.542968 39.765625 18.859375 2.515625 3.207031 4.6875 6.667969 6.484375 10.324219zm0 0" fill="#ad1457"/><path d="m296.160156 291.917969c-22.601562 20.367187-56.933594 20.367187-79.53125 0 9.449219-12.316407 24.246094-19.335938 39.765625-18.859375 15.515625-.476563 30.316407 6.542968 39.765625 18.859375zm0 0" fill="#e91e63"/><path d="m239.328125 17.058594h34.132813c4.710937 0 8.53125 3.820312 8.53125 8.535156v25.597656c0 4.714844-3.820313 8.535156-8.53125 8.535156h-34.132813c-4.714844 0-8.535156-3.820312-8.535156-8.535156v-25.597656c0-4.714844 3.820312-8.535156 8.535156-8.535156zm0 0" fill="#9d27b0"/><path d="m222.261719 166.390625c0-21.207031-7.644531-38.398437-17.070313-38.398437-9.425781 0-17.066406 17.191406-17.066406 38.398437 0 21.210937 7.640625 38.402344 17.066406 38.402344 9.425782 0 17.070313-17.191407 17.070313-38.402344zm0 0" fill="#3f51b5"/><path d="m214.675781 149.324219c0-11.78125-4.246093-21.332031-9.484375-21.332031-5.234375 0-9.480468 9.550781-9.480468 21.332031 0 11.785156 4.246093 21.335937 9.480468 21.335937 5.238282 0 9.484375-9.550781 9.484375-21.335937zm0 0" fill="#f5f5f5"/><path d="m324.660156 166.390625c0-21.207031-7.640625-38.398437-17.066406-38.398437s-17.066406 17.191406-17.066406 38.398437c0 21.210937 7.640625 38.402344 17.066406 38.402344s17.066406-17.191407 17.066406-38.402344zm0 0" fill="#3f51b5"/><path d="m317.074219 149.324219c0-11.78125-4.246094-21.332031-9.480469-21.332031-5.238281 0-9.480469 9.550781-9.480469 21.332031 0 11.785156 4.242188 21.335937 9.480469 21.335937 5.234375 0 9.480469-9.550781 9.480469-21.335937zm0 0" fill="#f5f5f5"/><path d="m160.042969 412.921875c-1.742188 0-3.441407-.539063-4.871094-1.539063-16.957031-11.882812-31.902344-26.402343-44.273437-43.007812-2.828126-3.769531-2.0625-9.117188 1.707031-11.945312 3.769531-2.828126 9.121093-2.0625 11.949219 1.707031 11.28125 15.152343 24.910156 28.402343 40.378906 39.253906 3.054687 2.132813 4.371094 6.003906 3.253906 9.558594-1.117188 3.554687-4.414062 5.972656-8.140625 5.972656zm0 0"/><path d="m352.742188 412.921875c-3.726563.003906-7.027344-2.414063-8.148438-5.96875-1.121094-3.558594.195312-7.429687 3.253906-9.5625 50.660156-36.75 80.222656-95.890625 79.210938-158.464844 0-69.988281-35.054688-133.695312-91.476563-166.261719-4.082031-2.359374-5.480469-7.578124-3.125-11.660156 2.355469-4.082031 7.578125-5.480468 11.660157-3.125 61.6875 35.609375 100.007812 104.980469 100.007812 181.046875 1.011719 68.152344-31.273438 132.515625-86.503906 172.457031-1.429688 1-3.132813 1.539063-4.878906 1.539063zm0 0"/><path d="m95.117188 333.136719c-3.382813 0-6.445313-1.996094-7.8125-5.089844-10.742188-24.386719-16.96875-50.523437-18.378907-77.132813-.179687-4.050781-.265625-8.023437-.265625-11.988281-.007812-8.851562.527344-17.695312 1.605469-26.480469 6.675781-64.132812 43.132813-121.386718 98.417969-154.570312 4.078125-2.253906 9.207031-.824219 11.527344 3.210938 2.324218 4.039062.980468 9.191406-3.015626 11.582031-50.625 30.496093-83.957031 83.03125-89.988281 141.824219-.996093 8.105468-1.488281 16.265624-1.480469 24.433593 0 3.714844.082032 7.429688.246094 11.140625 1.304688 24.527344 7.046875 48.613282 16.949219 71.089844 1.164063 2.636719.914063 5.683594-.65625 8.101562-1.574219 2.417969-4.261719 3.875-7.148437 3.878907zm0 0"/><path d="m239.328125 511.992188h-102.402344c-14.132812-.015626-25.582031-11.46875-25.597656-25.601563v-25.597656c.042969-37.6875 30.582031-68.222657 68.265625-68.265625h17.066406c37.683594.042968 68.222656 30.578125 68.265625 68.265625v25.597656c-.015625 14.132813-11.46875 25.585937-25.597656 25.601563zm-59.734375-102.398438c-28.265625.03125-51.167969 22.933594-51.199219 51.199219v25.597656c.003907 4.710937 3.820313 8.527344 8.53125 8.535156h102.402344c4.707031-.007812 8.527344-3.824219 8.53125-8.535156v-25.597656c-.03125-28.265625-22.933594-51.167969-51.199219-51.199219zm0 0"/><path d="m256.394531 477.859375h-136.535156c-4.710937 0-8.53125-3.820313-8.53125-8.535156 0-4.710938 3.820313-8.53125 8.53125-8.53125h136.535156c4.710938 0 8.53125 3.820312 8.53125 8.53125 0 4.714843-3.820312 8.535156-8.53125 8.535156zm0 0"/><path d="m375.859375 511.992188h-102.398437c-14.132813-.015626-25.585938-11.46875-25.601563-25.601563v-25.597656c.042969-37.6875 30.582031-68.222657 68.265625-68.265625h17.066406c37.6875.042968 68.226563 30.578125 68.269532 68.265625v25.597656c-.015626 14.132813-11.46875 25.585937-25.601563 25.601563zm-59.734375-102.398438c-28.261719.03125-51.167969 22.933594-51.199219 51.199219v25.597656c.007813 4.710937 3.824219 8.527344 8.535157 8.535156h102.398437c4.710937-.007812 8.527344-3.824219 8.535156-8.535156v-25.597656c-.03125-28.265625-22.9375-51.167969-51.203125-51.199219zm0 0"/><path d="m392.925781 477.859375h-136.53125c-4.714843 0-8.535156-3.820313-8.535156-8.535156 0-4.710938 3.820313-8.53125 8.535156-8.53125h136.53125c4.714844 0 8.535157 3.820312 8.535157 8.53125 0 4.714843-3.820313 8.535156-8.535157 8.535156zm0 0"/><path d="m205.191406 213.324219c-16.808594 0-25.597656-23.613281-25.597656-46.933594s8.789062-46.933594 25.597656-46.933594c16.8125 0 25.601563 23.613281 25.601563 46.933594s-8.789063 46.933594-25.601563 46.933594zm-.167968-76.820313c-2.050782.777344-8.363282 11.140625-8.363282 29.886719s6.3125 29.113281 8.703125 29.886719c2.046875-.773438 8.363281-11.140625 8.363281-29.886719s-6.316406-29.109375-8.703124-29.886719zm0 0"/><path d="m307.59375 213.324219c-16.8125 0-25.601562-23.613281-25.601562-46.933594s8.789062-46.933594 25.601562-46.933594c16.808594 0 25.597656 23.613281 25.597656 46.933594s-8.789062 46.933594-25.597656 46.933594zm-.171875-76.820313c-2.046875.777344-8.363281 11.140625-8.363281 29.886719s6.316406 29.113281 8.707031 29.886719c2.046875-.773438 8.359375-11.140625 8.359375-29.886719s-6.3125-29.109375-8.703125-29.886719zm0 0"/><path d="m256.492188 366.925781c-12.792969.019531-25.472657-2.390625-37.371094-7.101562-2.898438-1.074219-4.988282-3.632813-5.460938-6.6875-.476562-3.058594.738282-6.128907 3.175782-8.035157 2.433593-1.902343 5.710937-2.339843 8.5625-1.144531 19.898437 7.796875 42.003906 7.832031 61.929687.101563 4.386719-1.71875 9.339844.441406 11.058594 4.832031 1.71875 4.386719-.441407 9.339844-4.832031 11.058594-11.804688 4.628906-24.378907 6.996093-37.0625 6.976562zm0 0"/><path d="m256.394531 332.792969c-37.6875-.042969-68.226562-30.582031-68.269531-68.265625v-17.070313c.011719-9.421875 7.644531-17.054687 17.066406-17.066406h102.402344c9.421875.011719 17.058594 7.644531 17.066406 17.066406v17.070313c-.042968 37.683594-30.582031 68.222656-68.265625 68.265625zm-51.203125-85.335938v17.070313c0 28.273437 22.925782 51.199218 51.203125 51.199218 28.277344 0 51.199219-22.925781 51.199219-51.199218v-17.070313zm0 0"/><path d="m302.652344 310.777344c-3.242188 0-6.207032-1.835938-7.652344-4.738282-7.058594-14.925781-22.09375-24.445312-38.605469-24.445312-16.515625 0-31.546875 9.519531-38.609375 24.445312-2.117187 4.183594-7.210937 5.875-11.410156 3.789063-4.199219-2.089844-5.929688-7.171875-3.875-11.382813 9.945312-20.734374 30.898438-33.921874 53.894531-33.921874 22.992188 0 43.945313 13.1875 53.890625 33.921874 1.3125 2.640626 1.164063 5.777344-.386718 8.285157-1.554688 2.511719-4.296876 4.039062-7.246094 4.042969zm0 0"/><path d="m229.140625 96.0625c-9.648437-3.75-20.179687-4.605469-30.300781-2.457031-4.835938 1.554687-9.347656 3.976562-13.3125 7.152343-2.183594 1.535157-3.984375 3.636719-6.207032 5.355469-1.953124 2.019531-3.78125 4.179688-5.945312 6.203125l-.253906.234375c-.933594.875-2.351563.980469-3.402344.253907-1.054688-.726563-1.460938-2.085938-.980469-3.269532 1.167969-2.871094 2.613281-5.636718 4.035157-8.472656 1.703124-2.730469 3.621093-5.320312 5.734374-7.746094 4.539063-5.070312 10.277344-8.921875 16.691407-11.195312 6.59375-2.296875 13.726562-2.542969 20.460937-.707032 6.480469 1.691407 12.316406 5.253907 16.785156 10.238282.820313.941406.917969 2.3125.238282 3.363281-.675782 1.050781-1.964844 1.523437-3.164063 1.164063zm0 0"/><path d="m280.339844 91.652344c4.46875-4.984375 10.304687-8.546875 16.78125-10.238282 6.734375-1.835937 13.867187-1.589843 20.460937.707032 6.414063 2.273437 12.15625 6.125 16.695313 11.195312 2.109375 2.425782 4.027344 5.015625 5.730468 7.746094 1.421876 2.835938 2.867188 5.601562 4.035157 8.472656.480469 1.183594.074219 2.542969-.976563 3.269532-1.050781.722656-2.46875.621093-3.402344-.25l-.257812-.238282c-2.160156-2.019531-3.988281-4.179687-5.941406-6.203125-2.21875-1.714843-4.023438-3.816406-6.207032-5.355469-3.964843-3.175781-8.476562-5.597656-13.3125-7.152343-10.125-2.144531-20.652343-1.292969-30.300781 2.460937l-.378906.113282c-1.195313.359374-2.484375-.113282-3.164063-1.160157-.679687-1.046875-.582031-2.417969.234376-3.363281zm0 0"/><path d="m82.292969 416.238281c-4.105469-.011719-8.195313-.503906-12.1875-1.464843-14.367188-3.644532-27.039063-12.132813-35.878907-24.027344-9.140624-11.667969-13.980468-26.125-13.707031-40.945313.074219-13.96875 6.519531-27.144531 17.503907-35.773437 11.226562-8.316406 25.632812-11.058594 39.128906-7.449219 14.367187 3.648437 27.039062 12.132813 35.878906 24.03125 9.144531 11.664063 13.984375 26.125 13.710938 40.945313-.074219 13.972656-6.523438 27.144531-17.507813 35.773437-7.746094 5.875-17.222656 9.007813-26.941406 8.910156zm-17.242188-94.039062c-6-.097657-11.863281 1.800781-16.671875 5.398437-6.878906 5.554688-10.855468 13.941406-10.800781 22.78125-.144531 10.882813 3.464844 21.480469 10.214844 30.015625 6.453125 8.765625 15.722656 15.042969 26.257812 17.777344 8.515625 2.378906 17.652344.757813 24.824219-4.410156 6.882812-5.554688 10.859375-13.9375 10.804688-22.78125.144531-10.882813-3.460938-21.484375-10.214844-30.019531v-.003907c-6.453125-8.761719-15.726563-15.039062-26.257813-17.773437-2.671875-.644532-5.410156-.976563-8.15625-.988282zm0 0"/><path d="m445.652344 114.296875c-7.359375-.066406-14.609375-1.753906-21.238282-4.941406-13.339843-6.507813-24.023437-17.417969-30.25-30.890625-13.925781-29.210938-5.183593-62.542969 19.484376-74.308594 24.675781-11.769531 56.078124 2.429688 70.003906 31.644531 6.542968 13.289063 8.332031 28.421875 5.0625 42.867188-2.902344 13.667969-11.902344 25.25-24.429688 31.433593-5.820312 2.773438-12.1875 4.207032-18.632812 4.195313zm-13.335938-97.253906c-3.914062-.019531-7.785156.839843-11.324218 2.519531-16.171876 7.714844-21.296876 30.84375-11.417969 51.558594 4.523437 9.910156 12.328125 17.957031 22.09375 22.785156 7.867187 4.089844 17.164062 4.382812 25.269531.789062 7.863281-4.011718 13.457031-11.398437 15.191406-20.054687 2.34375-10.632813.972656-21.75-3.886718-31.496094-6.128907-14.753906-20-24.832031-35.925782-26.101562zm0 0"/><path d="m25.394531 336.101562-21.84375-55.296874c-8.59375-21.445313 1.554688-45.828126 22.828125-54.839844l44.550782-19.113282c2.175781-.914062 4.464843-1.53125 6.808593-1.828124l1.992188 16.949218c-.746094.105469-1.476563.308594-2.171875.605469l-44.441406 19.070313c-12.757813 5.402343-18.84375 20.015624-13.695313 32.878906l21.851563 55.292968zm0 0"/><path d="m54.496094 316.894531-19.203125-48.636719c-1.691407-4.296874.335937-9.15625 4.578125-10.976562l34.21875-14.675781 6.722656 15.679687-26.601562 11.410156 16.15625 40.933594zm0 0"/><path d="m469.726562 221.859375h-35.667968c-4.714844 0-8.535156-3.820313-8.535156-8.535156 0-4.710938 3.820312-8.53125 8.535156-8.53125h24.515625l-26.355469-97.265625c-.796875-2.945313.035156-6.089844 2.183594-8.253906 2.148437-2.160157 5.289062-3.011719 8.238281-2.230469 2.949219.777343 5.253906 3.074219 6.054687 6.015625l29.265626 108.03125c.699218 2.566406.160156 5.308594-1.457032 7.417968-1.613281 2.113282-4.121094 3.351563-6.777344 3.351563zm0 0"/><path d="m469.726562 255.992188h-34.304687c-4.710937 0-8.53125-3.820313-8.53125-8.535157 0-4.710937 3.820313-8.53125 8.53125-8.53125h34.304687c7.917969.003907 15.390626-3.652343 20.246094-9.910156 4.851563-6.257813 6.535156-14.40625 4.5625-22.074219l-30.3125-111.613281c-1.234375-4.550781 1.449219-9.238281 5.996094-10.472656 4.546875-1.238281 9.238281 1.449219 10.472656 5.996093l30.378906 111.871094c3.261719 12.902344.363282 26.585938-7.851562 37.058594-8.082031 10.257812-20.429688 16.238281-33.492188 16.210938zm0 0"/><path d="m273.460938 68.257812h-34.132813c-9.421875-.007812-17.058594-7.644531-17.066406-17.066406v-25.597656c.007812-9.421875 7.644531-17.058594 17.066406-17.066406h34.132813c9.421874.007812 17.054687 7.644531 17.066406 17.066406v25.597656c-.011719 9.421875-7.644532 17.058594-17.066406 17.066406zm-34.132813-42.664062v25.597656h34.144531l-.011718-25.597656zm0 0"/><path d="m179.617188 76.785156c-3.808594.003906-7.515626-1.238281-10.550782-3.542968-4.117187-3.101563-6.542968-7.960938-6.539062-13.117188v-43.464844c-.003906-5.160156 2.421875-10.015625 6.539062-13.117187 4.3125-3.261719 9.886719-4.347657 15.105469-2.933594l48.863281 13.292969c4.546875 1.238281 7.230469 5.925781 5.992188 10.476562-1.238282 4.546875-5.929688 7.230469-10.476563 5.992188l-48.851562-13.296875-.105469 43.050781 48.957031-13.710938c4.546875-1.238281 9.238281 1.445313 10.476563 5.992188 1.238281 4.546875-1.445313 9.238281-5.992188 10.476562l-48.855468 13.292969c-1.484376.402344-3.019532.609375-4.5625.609375zm0 0"/><path d="m333.167969 76.785156c-1.539063 0-3.074219-.207031-4.558594-.609375l-48.859375-13.292969c-4.546875-1.238281-7.230469-5.929687-5.992188-10.476562 1.238282-4.546875 5.929688-7.230469 10.476563-5.992188l48.855469 13.292969.101562-43.046875-48.957031 13.710938c-4.546875 1.238281-9.238281-1.445313-10.476563-5.992188-1.238281-4.550781 1.445313-9.238281 5.992188-10.476562l48.855469-13.292969c5.21875-1.417969 10.800781-.332031 15.113281 2.933594 4.121094 3.101562 6.542969 7.957031 6.542969 13.117187v43.464844c0 5.15625-2.421875 10.015625-6.542969 13.117188-3.035156 2.304687-6.742188 3.546874-10.550781 3.542968zm0 0"/><path d="m163.949219 143.636719c2.375 1.253906 5.105469 1.679687 7.75 1.207031 2.050781-.6875 3.890625-1.878906 5.355469-3.464844 1.675781-1.800781 3.6875-3.601562 5.546874-5.910156 2.070313-2.367188 4.332032-4.558594 6.757813-6.554688l-2.527344 5.820313c.027344-.953125.214844-1.898437.554688-2.789063 1.269531-3.359374 4.488281-5.582031 8.078125-5.574218 4.714844 0 8.535156 3.820312 8.535156 8.53125 0 4.714844-3.820312 8.535156-8.535156 8.535156.96875.003906 1.929687-.164062 2.84375-.488281 2.339844-.835938 4.199218-2.65625 5.078125-4.984375.332031-.871094.515625-1.789063.539062-2.722656l-2.527343 5.824218c-2.152344 2.667969-4.621094 5.058594-7.359376 7.121094-3.113281 2.402344-6.566406 4.328125-10.242187 5.71875-4.296875 1.738281-9.058594 1.96875-13.5.644531-3.988281-1.40625-7.28125-4.296875-9.191406-8.070312-.425781-.789063-.300781-1.761719.3125-2.417969.609375-.660156 1.570312-.855469 2.390625-.488281zm0 0"/><path d="m351.386719 146.183594c-1.9375 3.601562-5.136719 6.363281-8.984375 7.75-4.332032 1.335937-8.984375 1.210937-13.238282-.351563-3.75-1.199219-7.273437-3.023437-10.421874-5.390625-2.757813-2.035156-5.234376-4.429687-7.355469-7.125l-2.53125-5.820312c.023437.929687.207031 1.851562.542969 2.722656.878906 2.328125 2.738281 4.148438 5.082031 4.984375.910156.324219 1.871093.492187 2.839843.488281-3.394531-.011718-6.460937-2.039062-7.804687-5.160156s-.707031-6.738281 1.617187-9.214844c2.324219-2.476562 5.898438-3.335937 9.097657-2.191406 2.382812.847656 4.277343 2.703125 5.171875 5.074219.339844.890625.527344 1.835937.554687 2.789062l-2.53125-5.820312c4.421875 3.886719 8.484375 8.167969 12.132813 12.789062 1.46875 1.769531 3.417968 3.074219 5.617187 3.757813 2.75.402344 5.550781-.136719 7.957031-1.527344l.085938-.042969c.648438-.320312 1.433594-.179687 1.929688.347657.5.523437.59375 1.316406.238281 1.945312zm0 0"/></svg>