<svg height="512pt" viewBox="0 0 512.01509 512" width="512pt" xmlns="http://www.w3.org/2000/svg"><path d="m39.953125 93.097656-30.378906 111.871094c-2.582031 10.207031-.304688 21.035156 6.167969 29.339844 6.46875 8.308594 16.410156 13.160156 26.941406 13.15625h34.304687l1.363281-34.132813h-35.667968l29.269531-108.03125zm0 0" fill="#ff5722"/><path d="m472.09375 93.097656 30.378906 111.871094c2.582032 10.207031.304688 21.035156-6.167968 29.339844-6.46875 8.308594-16.410157 13.160156-26.941407 13.15625h-34.304687l-1.363282-34.132813h35.667969l-29.269531-108.03125zm0 0" fill="#ff5722"/><path d="m435.230469 238.933594c.929687 65.34375-29.976563 127.0625-82.859375 165.460937l-97.277344 72.53125-12.714844-9.640625-82.6875-62.890625c-16.210937-11.371093-30.496094-25.253906-42.328125-41.132812l-22.613281-38.65625c-10.308594-23.449219-16.292969-48.570313-17.664062-74.152344-.167969-3.839844-.253907-7.679687-.253907-11.519531-.011719-8.5.503907-16.992188 1.535157-25.429688 10.835937-91.820312 79.617187-163.753906 164.863281-170.242187 4.265625-.425781 8.535156-.597657 12.800781-.597657 98.988281 0 179.199219 87.894532 179.199219 196.269532zm0 0" fill="#fec108"/><path d="m409.632812 238.933594c.929688 65.34375-29.976562 127.0625-82.859374 165.460937l-84.394532 62.890625-82.6875-62.890625c-16.210937-11.371093-30.496094-25.253906-42.328125-41.132812l-22.613281-38.65625c-10.308594-23.449219-16.292969-48.570313-17.664062-74.152344-.167969-3.839844-.253907-7.679687-.253907-11.519531-.011719-8.5.503907-16.992188 1.535157-25.429688 10.835937-91.820312 79.617187-163.753906 164.863281-170.242187 93.015625 7.082031 166.402343 91.992187 166.402343 195.671875zm0 0" fill="#ffdc00"/><path d="m256.03125 460.800781v25.597657c-.027344 9.414062-7.652344 17.039062-17.066406 17.066406h-102.402344c-9.414062-.027344-17.039062-7.652344-17.066406-17.066406v-25.597657c-.066406-31.34375 24.195312-57.363281 55.46875-59.480469 1.414062-.167968 2.839844-.253906 4.265625-.253906h17.066406c15.847656-.011718 31.046875 6.277344 42.25 17.480469 11.207031 11.207031 17.496094 26.40625 17.484375 42.253906zm0 0" fill="#283593"/><path d="m230.429688 460.800781v25.597657c-.027344 9.414062-7.652344 17.039062-17.066407 17.066406h-76.800781c-9.414062-.027344-17.039062-7.652344-17.066406-17.066406v-25.597657c-.066406-31.34375 24.195312-57.363281 55.46875-59.480469 31.269531 2.117188 55.535156 28.136719 55.464844 59.480469zm0 0" fill="#3f51b5"/><path d="m392.5625 460.800781v25.597657c-.027344 9.414062-7.652344 17.039062-17.066406 17.066406h-102.398438c-9.414062-.027344-17.039062-7.652344-17.066406-17.066406v-25.597657c-.070312-31.34375 24.195312-57.363281 55.464844-59.480469 1.417968-.167968 2.84375-.253906 4.269531-.253906h17.066406c15.84375-.011718 31.046875 6.277344 42.25 17.480469 11.203125 11.207031 17.492188 26.40625 17.480469 42.253906zm0 0" fill="#283593"/><path d="m366.964844 460.800781v25.597657c-.027344 9.414062-7.652344 17.039062-17.066406 17.066406h-76.800782c-9.414062-.027344-17.039062-7.652344-17.066406-17.066406v-25.597657c-.070312-31.34375 24.195312-57.363281 55.464844-59.480469 31.273437 2.117188 55.535156 28.136719 55.46875 59.480469zm0 0" fill="#3f51b5"/><path d="m460.234375 102.398438c-8.882813 4.046874-19.007813 4.414062-28.160156 1.023437-13.574219-5.097656-24.5625-15.382813-30.550781-28.585937-11.945313-25.003907-5.035157-53.246094 15.445312-62.976563.769531-.339844 1.621094-.683594 2.476562-1.023437 20.050782-7.679688 44.628907 4.609374 56.148438 28.671874 11.945312 25.003907 5.121094 53.164063-15.359375 62.890626zm0 0" fill="#f57c00"/><path d="m434.632812 102.398438c-.820312.414062-1.679687.757812-2.558593 1.023437-13.574219-5.097656-24.5625-15.382813-30.550781-28.585937-11.945313-25.003907-5.035157-53.246094 15.445312-62.976563.769531-.339844 1.621094-.683594 2.476562-1.023437 13.542969 5.1875 24.515626 15.484374 30.546876 28.671874 11.949218 25.003907 5.121093 53.164063-15.359376 62.890626zm0 0" fill="#ff9801"/><path d="m36.460938 39.480469c-11.917969 25-5.125 53.175781 15.332031 62.929687 20.457031 9.75 46.828125-2.609375 58.75-27.613281 11.917969-25.003906 4.996093-53.175781-15.457031-62.929687-20.457032-9.753907-46.703126 2.609374-58.625 27.613281zm0 0" fill="#ff9801"/><path d="m230.429688 238.933594h51.203124c18.847657 0 34.132813 15.28125 34.132813 34.132812v51.199219c0 9.425781-7.640625 17.066406-17.066406 17.066406h-85.335938c-9.425781 0-17.066406-7.640625-17.066406-17.066406v-51.199219c0-18.851562 15.28125-34.132812 34.132813-34.132812zm0 0" fill="#bb193b"/><path d="m281.632812 324.265625v17.066406h-51.203124v-17.066406c0-14.136719 11.460937-25.601563 25.601562-25.601563 14.136719 0 25.601562 11.464844 25.601562 25.601563zm0 0" fill="#ad1457"/><path d="m281.632812 324.265625h-51.203124c0-14.136719 11.460937-25.601563 25.601562-25.601563 14.136719 0 25.601562 11.464844 25.601562 25.601563zm0 0" fill="#e91e63"/><path d="m396.777344 187.988281c8.832031 11.039063 7.042968 27.148438-4 35.984375-11.039063 8.832032-27.148438 7.039063-35.980469-4-8.832031-11.039062-6.664063-49.308594-6.664063-49.308594s37.8125 6.285157 46.644532 17.324219zm0 0" fill="#02a9f4"/><path d="m115.285156 187.988281c-8.832031 11.039063-7.042968 27.148438 4 35.984375 11.039063 8.832032 27.148438 7.039063 35.980469-4 8.832031-11.042968 6.664063-49.308594 6.664063-49.308594s-37.8125 6.285157-46.644532 17.324219zm0 0" fill="#02a9f4"/><path d="m281.632812 22.144531 48.855469-13.292969c2.511719-.753906 5.226563-.296874 7.355469 1.234376 2.128906 1.527343 3.429688 3.957031 3.519531 6.578124v43.46875c-.089843 2.621094-1.390625 5.050782-3.519531 6.582032-2.128906 1.527344-4.84375 1.984375-7.355469 1.234375l-48.855469-13.296875h-51.203124l-48.855469 13.296875c-2.511719.75-5.230469.292969-7.359375-1.234375-2.128906-1.53125-3.425782-3.960938-3.515625-6.582032v-43.46875c.089843-2.621093 1.386719-5.050781 3.515625-6.578124 2.128906-1.53125 4.847656-1.988282 7.359375-1.234376l48.855469 13.292969zm0 0" fill="#6a1b9a"/><path d="m238.964844 17.066406h34.132812c4.710938 0 8.535156 3.820313 8.535156 8.53125v25.601563c0 4.710937-3.824218 8.53125-8.535156 8.53125h-34.132812c-4.714844 0-8.535156-3.820313-8.535156-8.53125v-25.601563c0-4.710937 3.820312-8.53125 8.535156-8.53125zm0 0" fill="#9d27b0"/><path d="m159.679688 412.925781c-1.746094.003907-3.449219-.535156-4.878907-1.539062-55.230469-39.941407-87.515625-104.304688-86.503906-172.453125 0-76.066406 38.324219-145.441406 100.011719-181.042969 4.082031-2.355469 9.300781-.957031 11.65625 3.125 2.359375 4.082031.960937 9.300781-3.125 11.660156-56.421875 32.566407-91.476563 96.265625-91.476563 166.257813-1.003906 62.574218 28.558594 121.710937 79.214844 158.460937 3.054687 2.136719 4.375 6.007813 3.253906 9.566407-1.121093 3.554687-4.421875 5.972656-8.152343 5.964843zm0 0"/><path d="m352.382812 412.925781c-3.726562.003907-7.023437-2.414062-8.144531-5.964843-1.117187-3.554688.195313-7.421876 3.246094-9.558594 50.660156-36.753906 80.222656-95.890625 79.214844-158.46875 0-69.992188-35.054688-133.691406-91.480469-166.257813-4.082031-2.359375-5.480469-7.578125-3.125-11.660156 2.359375-4.082031 7.578125-5.480469 11.660156-3.125 61.6875 35.601563 100.011719 104.976563 100.011719 181.042969 1.007813 68.148437-31.277344 132.507812-86.503906 172.449218-1.429688 1.003907-3.132813 1.542969-4.878907 1.542969zm0 0"/><path d="m238.964844 512h-102.402344c-14.128906-.015625-25.582031-11.46875-25.597656-25.601562v-25.597657c.042968-37.6875 30.582031-68.226562 68.265625-68.269531h17.066406c37.683594.042969 68.222656 30.582031 68.265625 68.269531v25.597657c-.011719 14.132812-11.464844 25.585937-25.597656 25.601562zm-59.734375-102.402344c-28.261719.03125-51.167969 22.9375-51.199219 51.203125v25.597657c.003906 4.710937 3.820312 8.53125 8.53125 8.535156h102.402344c4.710937-.003906 8.527344-3.824219 8.53125-8.535156v-25.597657c-.03125-28.265625-22.933594-51.171875-51.199219-51.203125zm0 0"/><path d="m256.03125 477.867188h-136.535156c-4.710938 0-8.53125-3.820313-8.53125-8.535157 0-4.710937 3.820312-8.53125 8.53125-8.53125h136.535156c4.710938 0 8.53125 3.820313 8.53125 8.53125 0 4.714844-3.820312 8.535157-8.53125 8.535157zm0 0"/><path d="m375.496094 512h-102.398438c-14.132812-.015625-25.585937-11.46875-25.601562-25.601562v-25.597657c.042968-37.6875 30.582031-68.226562 68.269531-68.269531h17.066406c37.683594.042969 68.222657 30.582031 68.265625 68.269531v25.597657c-.015625 14.132812-11.46875 25.585937-25.601562 25.601562zm-59.730469-102.402344c-28.265625.03125-51.171875 22.9375-51.203125 51.203125v25.597657c.007812 4.710937 3.824219 8.53125 8.535156 8.535156h102.398438c4.710937-.003906 8.53125-3.824219 8.535156-8.535156v-25.597657c-.03125-28.265625-22.9375-51.171875-51.199219-51.203125zm0 0"/><path d="m392.5625 477.867188h-136.53125c-4.714844 0-8.535156-3.820313-8.535156-8.535157 0-4.710937 3.820312-8.53125 8.535156-8.53125h136.53125c4.714844 0 8.535156 3.820313 8.535156 8.53125 0 4.714844-3.820312 8.535157-8.535156 8.535157zm0 0"/><path d="m343.019531 113.136719c-4.46875 4.988281-10.304687 8.546875-16.78125 10.242187-6.738281 1.835938-13.871093 1.585938-20.464843-.710937-6.414063-2.273438-12.152344-6.121094-16.691407-11.195313-2.113281-2.425781-4.027343-5.015625-5.730469-7.746094-1.425781-2.832031-2.871093-5.601562-4.039062-8.472656-.480469-1.183594-.074219-2.542968.976562-3.265625 1.054688-.726562 2.46875-.625 3.40625.246094l.253907.238281c2.164062 2.019532 3.992187 4.183594 5.945312 6.203125 2.21875 1.71875 4.023438 3.820313 6.203125 5.359375 3.964844 3.171875 8.476563 5.597656 13.3125 7.152344 10.125 2.144531 20.65625 1.289062 30.300782-2.460938l.382812-.117187c1.195312-.359375 2.484375.113281 3.164062 1.164063.675782 1.046874.582032 2.417968-.238281 3.359374zm0 0"/><path d="m172.351562 108.726562c9.644532 3.75 20.175782 4.605469 30.300782 2.460938 4.835937-1.554688 9.347656-3.976562 13.3125-7.152344 2.179687-1.535156 3.984375-3.640625 6.207031-5.359375 1.953125-2.015625 3.777344-4.179687 5.941406-6.199219l.257813-.238281c.933594-.871093 2.347656-.976562 3.402344-.25 1.050781.726563 1.457031 2.085938.976562 3.269531-1.164062 2.871094-2.613281 5.636719-4.035156 8.46875-1.703125 2.730469-3.617188 5.320313-5.730469 7.75-4.539063 5.070313-10.28125 8.921876-16.695313 11.195313-6.589843 2.296875-13.726562 2.542969-20.460937.707031-6.476563-1.695312-12.3125-5.253906-16.78125-10.242187-.816406-.941407-.914063-2.308594-.234375-3.355469.675781-1.046875 1.960938-1.523438 3.15625-1.164062zm0 0"/><path d="m445.289062 114.308594c-7.359374-.0625-14.609374-1.753906-21.238281-4.949219-13.339843-6.503906-24.023437-17.414063-30.25-30.886719-13.921875-29.207031-5.183593-62.539062 19.484375-74.308594 24.667969-11.765624 56.078125 2.425782 70.003906 31.644532 6.546876 13.289062 8.332032 28.417968 5.0625 42.867187-2.898437 13.667969-11.902343 25.25-24.429687 31.433594-5.816406 2.777344-12.183594 4.210937-18.632813 4.199219zm-13.332031-97.261719c-3.917969-.015625-7.785156.84375-11.324219 2.519531-16.175781 7.714844-21.300781 30.847656-11.421874 51.558594 4.523437 9.914062 12.328124 17.960938 22.09375 22.789062 7.867187 4.09375 17.167968 4.386719 25.273437.792969 7.859375-4.015625 13.453125-11.40625 15.1875-20.058593 2.34375-10.632813.972656-21.746094-3.886719-31.488282-6.121094-14.757812-19.996094-24.839844-35.921875-26.113281zm0 0"/><path d="m469.363281 221.867188h-35.667969c-4.714843 0-8.535156-3.820313-8.535156-8.535157 0-4.710937 3.820313-8.53125 8.535156-8.53125h24.515626l-26.355469-97.269531c-1.234375-4.546875 1.457031-9.238281 6.003906-10.46875 4.550781-1.234375 9.238281 1.453125 10.472656 6.003906l29.269531 108.03125c.695313 2.566406.15625 5.308594-1.457031 7.417969-1.617187 2.113281-4.121093 3.351563-6.78125 3.351563zm0 0"/><path d="m469.363281 256h-34.304687c-4.710938 0-8.53125-3.820312-8.53125-8.535156 0-4.710938 3.820312-8.53125 8.53125-8.53125h34.304687c7.921875.003906 15.398438-3.65625 20.25-9.914063 4.851563-6.257812 6.535157-14.410156 4.558594-22.078125l-30.3125-111.609375c-.855469-2.960937-.046875-6.152343 2.113281-8.347656 2.160156-2.199219 5.339844-3.0625 8.3125-2.257813 2.976563.804688 5.285156 3.152344 6.042969 6.140626l30.378906 111.863281c3.253907 12.902343.355469 26.585937-7.847656 37.058593-8.085937 10.257813-20.433594 16.234376-33.496094 16.210938zm0 0"/><path d="m66.753906 114.308594c-6.445312.011718-12.816406-1.425782-18.636718-4.203125-12.523438-6.183594-21.523438-17.765625-24.425782-31.429688-3.265625-14.445312-1.476562-29.578125 5.066406-42.867187 13.925782-29.210938 45.355469-43.410156 69.996094-31.644532 24.671875 11.769532 33.414063 45.101563 19.488282 74.308594-6.226563 13.472656-16.910157 24.386719-30.25 30.890625-6.628907 3.191407-13.878907 4.878907-21.238282 4.945313zm-30.292968-74.824219 7.703124 3.671875c-4.859374 9.742188-6.230468 20.855469-3.886718 31.488281 1.738281 8.652344 7.332031 16.039063 15.1875 20.058594 8.109375 3.597656 17.410156 3.304687 25.277344-.789063 9.765624-4.828124 17.570312-12.875 22.09375-22.789062 9.878906-20.710938 4.753906-43.84375-11.425782-51.558594-16.15625-7.691406-37.371094 2.875-47.246094 23.589844zm0 0"/><path d="m78.351562 221.867188h-35.671874c-2.65625 0-5.164063-1.238282-6.777344-3.351563-1.613282-2.109375-2.15625-4.851563-1.457032-7.417969l29.265626-108.03125c1.234374-4.550781 5.921874-7.238281 10.472656-6.003906 4.550781 1.234375 7.238281 5.921875 6.003906 10.472656l-26.351562 97.265625h24.515624c4.714844 0 8.535157 3.820313 8.535157 8.53125 0 4.714844-3.820313 8.535157-8.535157 8.535157zm0 0"/><path d="m76.984375 256h-34.304687c-13.140626.003906-25.546876-6.046875-33.636719-16.402344-8.089844-10.355468-10.957031-23.859375-7.769531-36.605468l30.445312-112.128907c.757812-2.988281 3.066406-5.332031 6.042969-6.136719 2.976562-.804687 6.152343.054688 8.3125 2.253907 2.160156 2.195312 2.96875 5.390625 2.113281 8.347656l-30.382812 111.871094c-1.882813 7.644531-.144532 15.726562 4.710937 21.925781 4.855469 6.195312 12.292969 9.8125 20.164063 9.808594h34.304687c4.714844 0 8.535156 3.820312 8.535156 8.53125 0 4.714844-3.820312 8.535156-8.535156 8.535156zm0 0"/><path d="m298.699219 349.867188h-85.335938c-14.132812-.015626-25.582031-11.46875-25.597656-25.601563v-51.199219c.027344-23.554687 19.113281-42.640625 42.664063-42.667968h51.203124c23.550782.027343 42.636719 19.113281 42.664063 42.667968v51.199219c-.015625 14.132813-11.46875 25.585937-25.597656 25.601563zm-68.269531-102.402344c-14.128907.015625-25.582032 11.46875-25.597657 25.601562v51.199219c.003907 4.710937 3.820313 8.527344 8.53125 8.535156h85.335938c4.710937-.007812 8.527343-3.824219 8.53125-8.535156v-51.199219c-.015625-14.132812-11.46875-25.585937-25.597657-25.601562zm0 0"/><path d="m281.632812 349.867188c-4.714843 0-8.535156-3.820313-8.535156-8.535157v-17.066406c0-9.425781-7.640625-17.066406-17.066406-17.066406s-17.066406 7.640625-17.066406 17.066406v17.066406c0 4.714844-3.820313 8.535157-8.535156 8.535157-4.710938 0-8.53125-3.820313-8.53125-8.535157v-17.066406c0-18.851563 15.28125-34.132813 34.132812-34.132813s34.132812 15.28125 34.132812 34.132813v17.066406c0 4.714844-3.820312 8.535157-8.53125 8.535157zm0 0"/><path d="m194.539062 196.222656c-16.125.445313-31.277343-7.6875-39.8125-21.375-2.3125-4.097656-.875-9.289062 3.214844-11.613281s9.289063-.902344 11.625 3.179687c1.433594 2.425782 14.738282 22.734376 48.675782 6.65625 2.769531-1.394531 6.074218-1.183593 8.636718.558594 2.566406 1.738282 3.984375 4.734375 3.707032 7.820313-.273438 3.085937-2.203126 5.78125-5.035157 7.039062-9.628906 4.859375-20.226562 7.5-31.011719 7.734375zm0 0"/><path d="m317.523438 196.222656c-10.785157-.234375-21.382813-2.875-31.011719-7.730468-2.832031-1.257813-4.761719-3.953126-5.035157-7.039063-.277343-3.085937 1.140626-6.082031 3.707032-7.820313 2.5625-1.742187 5.867187-1.953124 8.632812-.558593 33.992188 16.097656 47.28125-4.285157 48.683594-6.667969 2.332031-4.09375 7.542969-5.527344 11.640625-3.195312 4.09375 2.332031 5.527344 7.542968 3.195313 11.636718-8.539063 13.6875-23.6875 21.820313-39.8125 21.375zm0 0"/><path d="m376.855469 238.125c-1.28125-.003906-2.5625-.074219-3.839844-.21875-9.003906-.976562-17.242187-5.511719-22.882813-12.597656-10.347656-12.941406-8.914062-48.191406-8.519531-55.125.136719-2.421875 1.296875-4.667969 3.1875-6.183594 1.894531-1.515625 4.339844-2.152344 6.730469-1.753906 6.851562 1.132812 41.558594 7.472656 51.910156 20.40625 8.1875 10.238281 9.789063 24.261718 4.125 36.082031-5.667968 11.820313-17.601562 19.355469-30.707031 19.386719zm-18.46875-57.132812c.003906 14.480468 1.675781 29.40625 5.074219 33.648437 3.773437 4.867187 9.875 7.328125 15.96875 6.429687 6.097656-.894531 11.234374-5.003906 13.449218-10.753906 2.210938-5.746094 1.15625-12.242187-2.765625-16.992187-3.304687-4.132813-17.539062-9.125-31.726562-12.332031zm0 0"/><path d="m135.210938 238.125c-13.109376-.027344-25.046876-7.5625-30.714844-19.382812-5.667969-11.824219-4.0625-25.847657 4.125-36.085938 10.351562-12.933594 45.058594-19.273438 51.910156-20.40625 2.390625-.398438 4.839844.238281 6.730469 1.753906 1.894531 1.511719 3.054687 3.761719 3.191406 6.179688.390625 6.933594 1.824219 42.183594-8.527344 55.125-5.636719 7.089844-13.875 11.625-22.878906 12.601562-1.273437.140625-2.554687.210938-3.835937.214844zm18.464843-57.144531c-14.132812 3.183593-28.328125 8.09375-31.726562 12.34375-3.953125 4.746093-5.035157 11.261719-2.824219 17.027343 2.210938 5.769532 7.367188 9.894532 13.480469 10.78125 6.113281.890626 12.230469-1.59375 15.992187-6.492187 3.398438-4.242187 5.074219-19.175781 5.078125-33.660156zm0 0"/><path d="m273.097656 68.265625h-34.132812c-9.421875-.011719-17.054688-7.644531-17.066406-17.066406v-25.601563c.011718-9.421875 7.644531-17.054687 17.066406-17.066406h34.132812c9.421875.011719 17.054688 7.644531 17.066406 17.066406v25.601563c-.011718 9.421875-7.644531 17.054687-17.066406 17.066406zm-34.132812-42.667969v25.601563h34.144531l-.011719-25.601563zm0 0"/><path d="m179.253906 76.789062c-3.808594.007813-7.515625-1.238281-10.546875-3.539062-4.121093-3.101562-6.542969-7.960938-6.542969-13.117188v-43.46875c0-5.15625 2.421876-10.015624 6.542969-13.117187 4.308594-3.261719 9.886719-4.347656 15.101563-2.929687l48.863281 13.292968c4.546875 1.234375 7.230469 5.925782 5.992187 10.472656-1.238281 4.550782-5.925781 7.234376-10.476562 5.996094l-48.851562-13.296875-.105469 43.050781 48.957031-13.710937c4.550781-1.238281 9.238281 1.445313 10.476562 5.992187 1.238282 4.546876-1.445312 9.238282-5.992187 10.476563l-48.851563 13.292969c-1.488281.402344-3.023437.609375-4.566406.605468zm0 0"/><path d="m332.804688 76.789062c-1.539063.003907-3.070313-.203124-4.558594-.605468l-48.855469-13.292969c-4.550781-1.238281-7.230469-5.929687-5.996094-10.476563 1.238281-4.546874 5.929688-7.230468 10.476563-5.992187l48.855468 13.292969.105469-43.050782-48.960937 13.714844c-4.546875 1.238282-9.238282-1.445312-10.476563-5.996094-1.234375-4.546874 1.445313-9.238281 5.996094-10.472656l48.851563-13.292968c5.222656-1.414063 10.800781-.332032 15.113281 2.929687 4.121093 3.101563 6.542969 7.960937 6.542969 13.117187v43.46875c0 5.15625-2.421876 10.015626-6.542969 13.117188-3.035157 2.300781-6.738281 3.546875-10.550781 3.539062zm0 0"/></svg>