<svg height="512pt" viewBox="0 0 512 512.02135" width="512pt" xmlns="http://www.w3.org/2000/svg"><path d="m471.972656 93.121094 30.378906 111.871094c2.578126 10.207031.304688 21.035156-6.167968 29.339843-6.472656 8.304688-16.414063 13.160157-26.941406 13.15625h-34.304688l-1.367188-34.132812h35.671876l-29.269532-108.03125zm0 0" fill="#ff5722"/><path d="m76.964844 250.476562-34.21875 14.675782 19.199218 48.640625-29.097656 19.199219-21.847656-55.296876c-6.863281-17.152343 1.253906-36.648437 18.261719-43.859374l44.542969-19.117188c1.421874-.59375 2.914062-.996094 4.4375-1.195312zm0 0" fill="#ff5722"/><path d="m435.109375 238.953125c0 3.074219-.085937 6.058594-.171875 9.046875-1.441406 38.34375-13.496094 75.535156-34.816406 107.433594-3.226563 4.839844-6.703125 9.511718-10.410156 13.996094-10.792969 13.351562-23.402344 25.128906-37.460938 34.984374l-97.28125 72.535157-12.714844-9.640625-82.6875-62.894532c-14.105468-9.863281-26.746094-21.667968-37.546875-35.070312-1.621093-1.960938-3.242187-4.011719-4.777343-6.058594l-4.863282-8.363281-17.75-30.292969c-10.3125-23.449218-16.296875-48.574218-17.664062-74.152344 0-.855468-.085938-1.625-.085938-2.476562-.085937-2.988281-.171875-6.058594-.171875-9.046875 0-2.8125.085938-5.714844.171875-8.53125.253906-5.71875.683594-11.351563 1.363282-16.898437 10.839843-91.816407 79.617187-163.839844 164.949218-170.238282 4.226563-.414062 8.472656-.613281 12.714844-.597656 96.34375 0 174.933594 83.285156 178.945312 187.734375.171876 2.816406.257813 5.632813.257813 8.53125zm0 0" fill="#fec108"/><path d="m409.507812 238.953125c0 3.074219-.085937 6.058594-.171874 9.046875-1.441407 38.34375-13.492188 75.535156-34.816407 107.433594-3.226562 4.839844-6.699219 9.511718-10.410156 13.996094-10.792969 13.351562-23.402344 25.128906-37.460937 34.984374l-84.394532 62.894532-82.6875-62.894532c-14.105468-9.863281-26.746094-21.667968-37.546875-35.070312-1.621093-1.960938-3.242187-4.011719-4.777343-6.058594l-4.863282-8.363281-17.75-30.292969c-10.3125-23.449218-16.296875-48.574218-17.664062-74.152344 0-.855468-.085938-1.625-.085938-2.476562-.085937-2.988281-.171875-6.058594-.171875-9.046875 0-2.8125.085938-5.714844.171875-8.53125.253906-5.71875.683594-11.351563 1.363282-16.898437 10.839843-91.816407 79.617187-163.839844 164.949218-170.238282 90.371094 6.914063 162.21875 87.382813 166.0625 187.136719.167969 2.816406.253906 5.632813.253906 8.53125zm0 0" fill="#ffdc00"/><path d="m255.90625 460.820312v25.601563c-.027344 9.414063-7.652344 17.039063-17.066406 17.066406h-102.398438c-9.414062-.027343-17.039062-7.652343-17.066406-17.066406v-25.601563c-.070312-31.34375 24.195312-57.359374 55.464844-59.476562 1.417968-.171875 2.84375-.253906 4.269531-.253906h17.066406c15.84375-.011719 31.042969 6.277344 42.25 17.480468 11.203125 11.207032 17.492188 26.40625 17.480469 42.25zm0 0" fill="#283593"/><path d="m230.308594 460.820312v25.601563c-.027344 9.414063-7.652344 17.039063-17.066406 17.066406h-76.800782c-9.414062-.027343-17.039062-7.652343-17.066406-17.066406v-25.601563c-.070312-31.34375 24.195312-57.359374 55.464844-59.476562 31.273437 2.117188 55.535156 28.132812 55.46875 59.476562zm0 0" fill="#3f51b5"/><path d="m392.441406 460.820312v25.601563c-.027344 9.414063-7.652344 17.039063-17.066406 17.066406h-102.398438c-9.417968-.027343-17.039062-7.652343-17.070312-17.066406v-25.601563c-.066406-31.34375 24.195312-57.359374 55.46875-59.476562 1.414062-.171875 2.839844-.253906 4.265625-.253906h17.066406c15.847657-.011719 31.046875 6.277344 42.25 17.480468 11.207031 11.207032 17.496094 26.40625 17.484375 42.25zm0 0" fill="#283593"/><path d="m366.839844 460.820312v25.601563c-.027344 9.414063-7.652344 17.039063-17.066406 17.066406h-76.796876c-9.417968-.027343-17.039062-7.652343-17.070312-17.066406v-25.601563c-.066406-31.34375 24.195312-57.359374 55.46875-59.476562 31.269531 2.117188 55.535156 28.132812 55.464844 59.476562zm0 0" fill="#3f51b5"/><path d="m204.707031 238.953125h102.402344c4.710937 0 8.53125 3.820313 8.53125 8.535156v17.066407c0 32.988281-26.742187 59.734374-59.734375 59.734374-32.988281 0-59.730469-26.746093-59.730469-59.734374v-17.066407c0-4.714843 3.820313-8.535156 8.53125-8.535156zm0 0" fill="#bb193b"/><path d="m105.761719 335.8125c-16.804688-22.019531-45.03125-28.722656-63.046875-14.972656s-18.996094 42.742187-2.191406 64.761718c16.804687 22.019532 45.03125 28.722657 63.046874 14.972657 18.015626-13.75 18.996094-42.746094 2.191407-64.761719zm0 0" fill="#ff9801"/><path d="m460.109375 102.421875c-8.882813 4.046875-19.003906 4.414063-28.160156 1.023437-13.570313-5.097656-24.558594-15.382812-30.546875-28.585937-11.949219-25.003906-5.035156-53.25 15.445312-62.976563.765625-.339843 1.621094-.683593 2.472656-1.023437 20.054688-7.679687 44.628907 4.605469 56.148438 28.671875 11.949219 25.003906 5.121094 53.160156-15.359375 62.890625zm0 0" fill="#f57c00"/><path d="m434.511719 102.421875c-.824219.414063-1.679688.757813-2.5625 1.023437-13.570313-5.097656-24.558594-15.382812-30.546875-28.585937-11.949219-25.003906-5.035156-53.25 15.445312-62.976563.765625-.339843 1.621094-.683593 2.472656-1.023437 13.546876 5.1875 24.515626 15.480469 30.550782 28.671875 11.945312 25.003906 5.121094 53.160156-15.359375 62.890625zm0 0" fill="#ff9801"/><path d="m386.832031 205.078125c5.757813 7.136719 7.257813 16.8125 3.933594 25.359375s-10.96875 14.660156-20.039063 16.03125c-9.070312 1.367188-18.175781-2.222656-23.875-9.40625-8.832031-11.039062-6.664062-49.308594-6.664062-49.308594s37.8125 6.285156 46.644531 17.324219zm0 0" fill="#0377bc"/><path d="m374.328125 200.4375c4.183594 5.226562 5.257813 12.289062 2.824219 18.523438-2.4375 6.234374-8.015625 10.699218-14.632813 11.707031-6.617187 1.007812-13.273437-1.589844-17.457031-6.816407-6.464844-8.082031-4.875-36.097656-4.875-36.097656s27.679688 4.601563 34.140625 12.683594zm0 0" fill="#02a9f4"/><path d="m124.984375 205.078125c-5.757813 7.136719-7.261719 16.8125-3.933594 25.359375 3.324219 8.546875 10.96875 14.660156 20.039063 16.03125 9.070312 1.367188 18.175781-2.222656 23.875-9.40625 8.832031-11.042969 6.664062-49.308594 6.664062-49.308594s-37.8125 6.285156-46.644531 17.324219zm0 0" fill="#0377bc"/><path d="m138.398438 200.097656c-4.144532 5.082032-5.246094 11.996094-2.878907 18.113282 2.367188 6.117187 7.835938 10.488281 14.324219 11.457031 6.484375.964843 12.992188-1.625 17.039062-6.785157 6.292969-7.867187 4.746094-35.128906 4.746094-35.128906s-26.9375 4.476563-33.230468 12.34375zm0 0" fill="#02a9f4"/><path d="m281.507812 22.167969 48.855469-13.296875c2.511719-.75 5.230469-.292969 7.359375 1.234375 2.128906 1.53125 3.429688 3.960937 3.519532 6.582031v43.46875c-.089844 2.621094-1.390626 5.050781-3.519532 6.578125-2.128906 1.53125-4.847656 1.988281-7.359375 1.234375l-48.855469-13.292969h-51.199218l-48.855469 13.292969c-2.511719.753906-5.230469.296875-7.359375-1.234375-2.128906-1.527344-3.429688-3.957031-3.519531-6.578125v-43.46875c.089843-2.621094 1.390625-5.050781 3.519531-6.582031 2.128906-1.527344 4.847656-1.984375 7.359375-1.234375l48.855469 13.296875zm0 0" fill="#6a1b9a"/><path d="m238.839844 17.089844h34.136718c4.710938 0 8.53125 3.820312 8.53125 8.53125v25.601562c0 4.710938-3.820312 8.53125-8.53125 8.53125h-34.136718c-4.710938 0-8.53125-3.820312-8.53125-8.53125v-25.601562c0-4.710938 3.820312-8.53125 8.53125-8.53125zm0 0" fill="#9d27b0"/><path d="m302.160156 302.273438c-11.316406 13.929687-28.304687 22.015624-46.253906 22.015624-17.945312 0-34.933594-8.085937-46.25-22.015624 1.796875-3.660157 3.96875-7.121094 6.488281-10.328126 9.445313-12.316406 24.246094-19.335937 39.761719-18.855468 15.519531-.480469 30.316406 6.539062 39.765625 18.855468 2.519531 3.207032 4.691406 6.667969 6.488281 10.328126zm0 0" fill="#ad1457"/><path d="m295.671875 291.945312c-22.597656 20.367188-56.929687 20.367188-79.527344 0 9.445313-12.316406 24.246094-19.335937 39.761719-18.855468 15.519531-.480469 30.316406 6.539062 39.765625 18.855468zm0 0" fill="#e91e63"/><path d="m159.558594 412.949219c-1.742188 0-3.4375-.539063-4.863282-1.535157-16.960937-11.882812-31.910156-26.402343-44.28125-43.007812-2.699218-3.773438-1.890624-9.011719 1.820313-11.796875 3.714844-2.78125 8.96875-2.089844 11.832031 1.5625 11.285156 15.148437 24.914063 28.394531 40.375 39.242187 3.058594 2.132813 4.375 6 3.257813 9.554688-1.117188 3.554688-4.414063 5.976562-8.140625 5.976562zm0 0"/><path d="m352.257812 412.949219c-3.722656 0-7.019531-2.417969-8.136718-5.96875-1.121094-3.550781.195312-7.421875 3.246094-9.554688 50.65625-36.753906 80.214843-95.894531 79.207031-158.472656 0-69.980469-35.050781-133.691406-91.476563-166.257813-4.082031-2.355468-5.480468-7.574218-3.125-11.65625 2.355469-4.082031 7.574219-5.480468 11.65625-3.125 61.6875 35.605469 100.011719 104.972657 100.011719 181.039063 1.007813 68.152344-31.277344 132.511719-86.507813 172.453125-1.425781 1.003906-3.128906 1.542969-4.875 1.542969zm0 0"/><path d="m94.632812 333.164062c-3.382812 0-6.445312-1.992187-7.816406-5.085937-10.746094-24.386719-16.96875-50.527344-18.367187-77.140625-.1875-4.039062-.273438-8.007812-.273438-11.984375-.007812-8.851563.527344-17.695313 1.597657-26.480469 6.6875-64.128906 43.140624-121.382812 98.417968-154.566406 4.085938-2.355469 9.304688-.945312 11.660156 3.140625 2.351563 4.085937.945313 9.304687-3.144531 11.65625-50.625 30.496094-83.957031 83.027344-89.992187 141.816406-.992188 8.109375-1.484375 16.269531-1.472656 24.433594 0 3.710937.085937 7.425781.25 11.125 1.296874 24.53125 7.039062 48.621094 16.941406 71.101563 1.167968 2.636718.921875 5.6875-.652344 8.105468-1.574219 2.417969-4.261719 3.878906-7.148438 3.878906zm0 0"/><path d="m238.839844 512.019531h-102.398438c-14.132812-.015625-25.585937-11.464843-25.601562-25.597656v-25.601563c.042968-37.683593 30.582031-68.222656 68.269531-68.265624h17.066406c37.683594.042968 68.222657 30.582031 68.265625 68.265624v25.601563c-.015625 14.132813-11.46875 25.582031-25.601562 25.597656zm-59.730469-102.398437c-28.265625.03125-51.171875 22.9375-51.203125 51.199218v25.601563c.003906 4.710937 3.824219 8.53125 8.535156 8.53125h102.398438c4.714844 0 8.53125-3.820313 8.535156-8.53125v-25.601563c-.03125-28.261718-22.9375-51.167968-51.199219-51.199218zm0 0"/><path d="m255.90625 477.886719h-136.53125c-4.714844 0-8.535156-3.820313-8.535156-8.53125 0-4.714844 3.820312-8.535157 8.535156-8.535157h136.53125c4.714844 0 8.535156 3.820313 8.535156 8.535157 0 4.710937-3.820312 8.53125-8.535156 8.53125zm0 0"/><path d="m375.375 512.019531h-102.398438c-14.132812-.015625-25.585937-11.464843-25.601562-25.597656v-25.601563c.042969-37.683593 30.582031-68.222656 68.265625-68.265624h17.066406c37.6875.042968 68.222657 30.582031 68.269531 68.265624v25.601563c-.015624 14.132813-11.46875 25.582031-25.601562 25.597656zm-59.734375-102.398437c-28.261719.03125-51.167969 22.9375-51.199219 51.199218v25.601563c.003906 4.710937 3.820313 8.53125 8.535156 8.53125h102.398438c4.710938 0 8.53125-3.820313 8.53125-8.53125v-25.601563c-.03125-28.261718-22.933594-51.167968-51.199219-51.199218zm0 0"/><path d="m392.441406 477.886719h-136.535156c-4.710938 0-8.53125-3.820313-8.53125-8.53125 0-4.714844 3.820312-8.535157 8.53125-8.535157h136.535156c4.710938 0 8.535156 3.820313 8.535156 8.535157 0 4.710937-3.824218 8.53125-8.535156 8.53125zm0 0"/><path d="m256.007812 366.953125c-12.792968.015625-25.472656-2.394531-37.367187-7.097656-2.921875-1.058594-5.035156-3.621094-5.523437-6.691407-.484376-3.066406.734374-6.15625 3.1875-8.066406 2.453124-1.90625 5.746093-2.332031 8.601562-1.109375 19.902344 7.789063 42 7.824219 61.925781.101563 4.351563-1.578125 9.164063.597656 10.855469 4.902344 1.6875 4.308593-.363281 9.179687-4.625 10.980468-11.804688 4.628906-24.375 6.996094-37.054688 6.980469zm0 0"/><path d="m255.90625 332.820312c-37.683594-.042968-68.222656-30.582031-68.265625-68.265624v-17.066407c.011719-9.421875 7.648437-17.054687 17.066406-17.066406h102.402344c9.417969.011719 17.050781 7.644531 17.066406 17.066406v17.066407c-.042969 37.683593-30.582031 68.222656-68.269531 68.265624zm-51.199219-85.332031v17.066407c0 28.277343 22.925781 51.199218 51.199219 51.199218 28.277344 0 51.203125-22.921875 51.203125-51.199218v-17.066407zm0 0"/><path d="m302.167969 310.804688c-3.246094.003906-6.210938-1.832032-7.652344-4.742188-7.0625-14.921875-22.097656-24.441406-38.609375-24.441406s-31.542969 9.519531-38.605469 24.441406c-2.164062 4.09375-7.195312 5.71875-11.339843 3.660156-4.148438-2.054687-5.898438-7.042968-3.945313-11.242187 9.941406-20.734375 30.898437-33.925781 53.890625-33.925781 22.996094 0 43.949219 13.191406 53.894531 33.925781 1.007813 2.027343 1.167969 4.371093.445313 6.515625-.722656 2.144531-2.265625 3.914062-4.296875 4.917968-1.175781.589844-2.46875.894532-3.78125.890626zm0 0"/><path d="m81.800781 416.195312c-19.082031-.609374-36.8125-9.988281-48.058593-25.414062-19.632813-25.726562-17.921876-60.144531 3.800781-76.726562 21.707031-16.59375 55.355469-9.148438 75.007812 16.582031 19.632813 25.726562 17.925781 60.144531-3.800781 76.714843-7.757812 5.847657-17.234375 8.957032-26.949219 8.84375zm-17.175781-93.992187c-6.023438-.097656-11.910156 1.808594-16.734375 5.417969-14.242187 10.875-14.507813 34.558594-.582031 52.808594 13.910156 18.234374 36.824218 24.234374 51.089844 13.359374 14.242187-10.867187 14.5-34.5625.585937-52.800781-7.984375-11.183593-20.636719-18.101562-34.359375-18.785156zm0 0"/><path d="m445.167969 114.328125c-7.359375-.0625-14.613281-1.75-21.242188-4.941406-13.335937-6.507813-24.019531-17.417969-30.242187-30.890625-13.925782-29.207032-5.183594-62.539063 19.484375-74.308594 12.691406-5.835938 27.351562-5.558594 39.816406.75 13.308594 6.523438 23.964844 17.433594 30.175781 30.890625 6.550782 13.289063 8.335938 28.421875 5.0625 42.871094-2.894531 13.664062-11.890625 25.246093-24.414062 31.433593-5.820313 2.777344-12.191406 4.210938-18.640625 4.195313zm-13.386719-97.238281c-3.894531-.019532-7.746094.835937-11.265625 2.5-16.175781 7.714844-21.308594 30.847656-11.433594 51.558594 4.523438 9.910156 12.332031 17.960937 22.101563 22.789062 7.867187 4.085938 17.164062 4.375 25.273437.792969 7.859375-4.019531 13.449219-11.40625 15.183594-20.058594 2.34375-10.632813.972656-21.746094-3.882813-31.488281v-.007813c-4.515624-9.898437-12.300781-17.945312-22.042968-22.792969-4.34375-2.109374-9.101563-3.234374-13.933594-3.292968zm0 0"/><path d="m24.917969 336.121094-21.851563-55.292969c-8.597656-21.445313 1.554688-45.824219 22.832032-54.832031l44.542968-19.113282c2.167969-.914062 4.445313-1.53125 6.777344-1.835937l2.046875 16.953125c-.753906.101562-1.492187.308594-2.191406.605469l-44.441407 19.074219c-12.753906 5.402343-18.84375 20.015624-13.695312 32.875l21.847656 55.296874zm0 0"/><path d="m54.007812 316.921875-19.199218-48.632813c-1.699219-4.292968.324218-9.15625 4.566406-10.976562l34.226562-14.683594 6.734376 15.683594-26.613282 11.417969 16.152344 40.925781zm0 0"/><path d="m469.242188 221.886719h-35.671876c-4.710937 0-8.53125-3.820313-8.53125-8.53125 0-4.714844 3.820313-8.535157 8.53125-8.535157h24.519532l-26.347656-97.265624c-1.148438-4.515626 1.539062-9.117188 6.035156-10.335938s9.140625 1.394531 10.433594 5.867188l29.269531 108.035156c.695312 2.5625.15625 5.308594-1.457031 7.417968-1.617188 2.113282-4.125 3.351563-6.78125 3.347657zm0 0"/><path d="m469.242188 256.019531h-34.304688c-4.714844 0-8.535156-3.820312-8.535156-8.53125 0-4.714843 3.820312-8.535156 8.535156-8.535156h34.304688c7.917968.003906 15.390624-3.65625 20.242187-9.914063 4.851563-6.257812 6.539063-14.40625 4.566406-22.074218l-30.308593-111.609375c-.855469-2.960938-.046876-6.152344 2.113281-8.351563 2.160156-2.195312 5.335937-3.058594 8.3125-2.253906 2.972656.804688 5.285156 3.152344 6.042969 6.136719l30.378906 111.867187c3.253906 12.90625.351562 26.59375-7.859375 37.066406-8.082031 10.257813-20.429688 16.230469-33.488281 16.199219zm0 0"/><path d="m339.949219 196.96875c-2.460938.003906-4.804688-1.058594-6.425781-2.914062-24.023438-27.449219-46.808594-8.492188-47.757813-7.675782-2.3125 1.988282-5.511719 2.589844-8.386719 1.578125-2.878906-1.007812-4.996094-3.480469-5.558594-6.480469-.558593-2.996093.527344-6.066406 2.84375-8.046874 12.546876-10.757813 43.667969-22.640626 71.710938 9.390624 2.203125 2.519532 2.730469 6.097657 1.34375 9.144532-1.382812 3.050781-4.421875 5.007812-7.769531 5.003906zm0 0"/><path d="m366.90625 255.214844c-1.28125-.003906-2.5625-.074219-3.839844-.21875-9-.976563-17.242187-5.515625-22.882812-12.601563-10.347656-12.941406-8.90625-48.191406-8.515625-55.125.136719-2.417969 1.292969-4.667969 3.183593-6.183593 1.898438-1.5 4.34375-2.132813 6.734376-1.75 6.847656 1.132812 41.566406 7.476562 51.914062 20.410156 8.1875 10.238281 9.792969 24.261718 4.125 36.082031-5.667969 11.824219-17.605469 19.355469-30.714844 19.382813zm-18.464844-57.144532c0 14.484376 1.675782 29.417969 5.074219 33.660157 3.761719 4.90625 9.878906 7.394531 16 6.507812 6.117187-.890625 11.273437-5.015625 13.484375-10.789062 2.210938-5.773438 1.125-12.289063-2.832031-17.035157-3.394531-4.25-17.59375-9.160156-31.726563-12.34375zm0 0"/><path d="m171.867188 196.96875c-3.347657.003906-6.386719-1.953125-7.773438-5.003906-1.382812-3.046875-.855469-6.625 1.347656-9.144532 28.050782-32.042968 59.167969-20.148437 71.707032-9.390624 3.433593 3.09375 3.777343 8.355468.78125 11.871093-2.996094 3.519531-8.25 4.011719-11.847657 1.113281-2.464843-2.050781-24.449219-19.011718-47.789062 7.640626-1.621094 1.855468-3.964844 2.917968-6.425781 2.914062zm0 0"/><path d="m144.90625 255.214844c-13.109375-.03125-25.042969-7.5625-30.710938-19.382813-5.667968-11.824219-4.066406-25.847656 4.121094-36.085937 10.351563-12.933594 45.066406-19.273438 51.917969-20.40625 2.390625-.402344 4.839844.234375 6.730469 1.75 1.894531 1.515625 3.050781 3.761718 3.183594 6.183594.394531 6.933593 1.835937 42.183593-8.515626 55.125-5.640624 7.085937-13.878906 11.621093-22.882812 12.597656-1.277344.144531-2.558594.214844-3.84375.21875zm18.46875-57.144532c-14.132812 3.183594-28.332031 8.09375-31.726562 12.34375-3.960938 4.746094-5.042969 11.261719-2.832032 17.035157 2.210938 5.773437 7.367188 9.898437 13.484375 10.789062 6.117188.886719 12.238281-1.601562 16-6.507812 3.398438-4.242188 5.074219-19.175781 5.074219-33.660157zm0 0"/><path d="m228.652344 96.09375c-9.644532-3.75-20.175782-4.605469-30.296875-2.460938-4.835938 1.554688-9.347657 3.976563-13.3125 7.152344-2.183594 1.535156-3.984375 3.640625-6.207031 5.359375-1.953126 2.015625-3.78125 4.179688-5.945313 6.199219l-.253906.238281c-.933594.871094-2.351563.976563-3.402344.25-1.054687-.722656-1.460937-2.085937-.976563-3.269531 1.164063-2.871094 2.609376-5.636719 4.035157-8.46875 1.703125-2.730469 3.617187-5.320312 5.730469-7.75 4.539062-5.070312 10.277343-8.921875 16.691406-11.195312 6.59375-2.296876 13.726562-2.542969 20.464844-.707032 6.476562 1.695313 12.3125 5.253906 16.78125 10.242188.820312.941406.917968 2.3125.242187 3.363281-.679687 1.046875-1.96875 1.523437-3.164063 1.164063zm0 0"/><path d="m279.855469 91.683594c4.464843-4.988282 10.304687-8.546875 16.78125-10.242188 6.734375-1.835937 13.867187-1.585937 20.460937.710938 6.414063 2.273437 12.15625 6.121094 16.691406 11.195312 2.113282 2.425782 4.03125 5.015625 5.734376 7.746094 1.421874 2.832031 2.867187 5.601562 4.035156 8.472656.480468 1.183594.074218 2.542969-.976563 3.265625-1.054687.726563-2.46875.625-3.402343-.246093l-.257813-.238282c-2.164063-2.019531-3.992187-4.183594-5.941406-6.203125-2.21875-1.71875-4.027344-3.820312-6.207031-5.359375-3.964844-3.171875-8.476563-5.597656-13.3125-7.152344-10.125-2.144531-20.65625-1.289062-30.300782 2.460938l-.378906.117188c-1.195312.359374-2.484375-.113282-3.164062-1.164063-.679688-1.046875-.582032-2.417969.234374-3.359375zm0 0"/><path d="m272.976562 68.289062h-34.136718c-9.417969-.015624-17.050782-7.648437-17.066406-17.066406v-25.601562c.015624-9.421875 7.648437-17.054688 17.066406-17.066406h34.136718c9.417969.011718 17.050782 7.644531 17.066407 17.066406v25.601562c-.015625 9.417969-7.648438 17.050782-17.066407 17.066406zm-34.136718-42.667968v25.601562h34.152344l-.015626-25.601562zm0 0"/><path d="m179.132812 76.8125c-3.808593.007812-7.515624-1.238281-10.550781-3.542969-4.121093-3.097656-6.542969-7.957031-6.539062-13.113281v-43.46875c-.003907-5.15625 2.417969-10.015625 6.539062-13.117188 4.308594-3.261718 9.886719-4.34375 15.105469-2.933593l48.863281 13.292969c4.546875 1.238281 7.230469 5.929687 5.992188 10.476562s-5.929688 7.230469-10.476563 5.992188l-48.859375-13.292969-.097656 43.050781 48.957031-13.714844c4.546875-1.238281 9.238282 1.445313 10.476563 5.996094 1.238281 4.546875-1.445313 9.238281-5.992188 10.472656l-48.859375 13.292969c-1.484375.40625-3.019531.609375-4.558594.609375zm0 0"/><path d="m332.683594 76.8125c-1.539063 0-3.074219-.203125-4.558594-.609375l-48.859375-13.292969c-4.546875-1.234375-7.230469-5.925781-5.992187-10.472656 1.238281-4.550781 5.929687-7.234375 10.476562-5.996094l48.859375 13.296875.097656-43.050781-48.957031 13.710938c-4.546875 1.238281-9.238281-1.445313-10.476562-5.992188-1.238282-4.546875 1.445312-9.238281 5.992187-10.476562l48.859375-13.292969c5.21875-1.410157 10.796875-.328125 15.109375 2.933593 4.117187 3.101563 6.542969 7.960938 6.539063 13.117188v43.46875c.003906 5.15625-2.421876 10.015625-6.539063 13.113281-3.035156 2.304688-6.742187 3.550781-10.550781 3.542969zm0 0"/></svg>