<svg height="512pt" viewBox="0 0 512.01754 512" width="512pt" xmlns="http://www.w3.org/2000/svg"><path d="m78.011719 395.035156c-3.15625 4.007813-6.484375 7.933594-9.898438 11.773438-12.605469 13.949218-34.113281 15.082031-48.113281 2.535156-14.003906-12.542969-15.230469-34.046875-2.746094-48.101562 7.550782-8.457032 14.375-17.53125 20.394532-27.136719zm0 0" fill="#ff9801"/><path d="m247.484375 8.558594c-101.273437-.015625-190.675781 66.109375-220.316406 162.949218-29.636719 96.835938 7.445312 201.675782 91.378906 258.34375h.085937l69.117188 48.039063v8.535156c.027344 9.414063 7.652344 17.039063 17.066406 17.066407h145.066406c9.414063-.027344 17.039063-7.652344 17.066407-17.066407v-50.433593c.769531-.511719 1.539062-.9375 2.304687-1.449219 3.753906-2.390625 7.511719-4.863281 11.09375-7.421875.011719.089844.039063.175781.085938.253906 1.058594 2.222656 2.570312 4.199219 4.4375 5.804688.597656.59375 1.28125 1.277343 1.960937 1.875 1.261719 1.097656 2.601563 2.097656 4.011719 2.988281.6875.558593 1.429688 1.046875 2.21875 1.449219.800781.449218 1.625.847656 2.476562 1.195312.6875.335938 1.402344.621094 2.132813.851562 1.109375.429688 2.21875.769532 3.328125 1.109376 2.808594.753906 5.707031 1.125 8.617188 1.109374 9.707031.015626 18.957031-4.113281 25.429687-11.347656 43.410156-48.574218 67.722656-111.246094 68.4375-176.382812 1.023437-76.800782-51.199219-247.46875-256-247.46875zm0 0" fill="#f0c419"/><path d="m503.484375 256.027344c-.714844 65.136718-25.027344 127.808594-68.4375 176.382812-6.472656 7.234375-15.722656 11.363282-25.429687 11.347656-2.910157.015626-5.808594-.355468-8.617188-1.109374-1.109375-.339844-2.21875-.679688-3.328125-1.109376-.730469-.230468-1.445313-.515624-2.132813-.851562-.851562-.347656-1.675781-.746094-2.476562-1.195312-.789062-.402344-1.53125-.890626-2.21875-1.449219-1.410156-.890625-2.75-1.890625-4.011719-2.988281-.679687-.597657-1.363281-1.28125-1.960937-1.875-1.867188-1.605469-3.378906-3.582032-4.4375-5.804688-.046875-.078125-.074219-.164062-.085938-.253906-3.582031 2.558594-7.339844 5.03125-11.09375 7.421875-.765625.511719-1.535156.9375-2.304687 1.449219-20.9375 12.730468-43.785157 22.007812-67.667969 27.480468h-.253906l-.34375-2.648437c-8.613282-20.691407-28.785156-34.207031-51.199219-34.300781h-8.535156c-20.351563.027343-38.761719 12.078124-46.933594 30.71875-.683594 1.617187-1.28125 3.269531-1.789063 4.949218-1.652343 5.039063-2.488281 10.3125-2.476562 15.617188v.082031l-69.117188-48.039063h-.085937c-83.933594-56.667968-121.015625-161.507812-91.378906-258.34375 29.640625-96.839843 119.042969-162.964843 220.316406-162.949218 204.800781 0 257.023437 170.667968 256 247.46875zm0 0" fill="#ffdc00"/><path d="m380.347656 427.121094c-3.582031 2.558594-7.339844 5.03125-11.09375 7.421875-13.523437-12.691407-14.46875-33.851563-2.132812-47.699219 26.3125-29.355469 43.144531-65.972656 48.292968-105.054688 1.203126-9.3125 9.132813-16.285156 18.523438-16.292968-2.132812 44.96875-19.703125 87.824218-49.75 121.347656-9.945312 11.140625-11.5 27.453125-3.839844 40.277344zm0 0" fill="#fec108"/><path d="m192.015625 457.242188c-8.148437-18.652344-26.578125-30.703126-46.929687-30.695313h-8.535157c-28.296875.046875-51.207031 23-51.199219 51.296875v8.550781c.019532 9.421875 7.644532 17.0625 17.066407 17.097657h145.066406zm0 0" fill="#3f51b5"/><path d="m366.949219 435.992188v50.433593c-.027344 9.414063-7.652344 17.039063-17.066407 17.066407h-145.066406c-9.414062-.027344-17.039062-7.652344-17.066406-17.066407v-8.617187c-.011719-5.304688.824219-10.578125 2.476562-15.617188.507813-1.679687 1.105469-3.332031 1.789063-4.949218 8.171875-18.640626 26.582031-30.691407 46.933594-30.71875h8.535156c22.414063.09375 42.585937 13.609374 51.199219 34.300781l.597656 2.648437c23.882812-5.472656 46.730469-14.75 67.667969-27.480468zm0 0" fill="#3f51b5"/><path d="m380.433594 427.375c1.300781 2.066406 2.785156 4.007812 4.4375 5.804688-1.867188-1.605469-3.378906-3.582032-4.4375-5.804688zm0 0" fill="#f0c419"/><path d="m366.949219 435.992188v17.066406c-15.941407 9.691406-33.007813 17.394531-50.820313 22.9375-3.960937 1.199218-8.257812.449218-11.578125-2.019532-3.320312-2.46875-5.277343-6.367187-5.269531-10.503906 23.882812-5.472656 46.730469-14.75 67.667969-27.480468zm0 0" fill="#283593"/><path d="m187.75 178.59375c0-23.609375-19.101562-42.746094-42.664062-42.746094-23.566407 0-42.667969 19.136719-42.667969 42.746094s19.101562 42.746094 42.667969 42.746094c23.5625 0 42.664062-19.136719 42.664062-42.746094zm0 0" fill="#f5f5f5"/><path d="m162.152344 178.59375c0-14.164062-11.464844-25.648438-25.601563-25.648438s-25.601562 11.484376-25.601562 25.648438 11.464843 25.648438 25.601562 25.648438 25.601563-11.484376 25.601563-25.648438zm0 0" fill="#3f51b5"/><path d="m324.285156 178.59375c-.019531 20.371094-14.425781 37.894531-34.410156 41.851562-19.984375 3.957032-39.980469-6.75-47.765625-25.574218-7.78125-18.828125-1.183594-40.53125 15.761719-51.839844 16.941406-11.308594 39.515625-9.074219 53.917968 5.335938 8.015626 8.011718 12.511719 18.890624 12.496094 30.226562zm0 0" fill="#f5f5f5"/><path d="m298.683594 178.59375c-.011719 12.222656-8.65625 22.734375-20.644532 25.109375-11.992187 2.375-23.988281-4.046875-28.660156-15.34375-4.667968-11.296875-.710937-24.316406 9.457032-31.105469 10.167968-6.785156 23.710937-5.445312 32.351562 3.203125 4.808594 4.808594 7.507812 11.335938 7.496094 18.136719zm0 0" fill="#3f51b5"/><path d="m384.015625 281.609375c0 18.851563-15.28125 34.132813-34.132813 34.132813-18.851562 0-34.132812-15.28125-34.132812-34.132813s34.132812-51.199219 34.132812-51.199219 34.132813 32.347656 34.132813 51.199219zm0 0" fill="#0377bc"/><path d="m373.785156 266.257812c0 8.539063-4.554687 16.429688-11.949218 20.699219-7.394532 4.269531-16.507813 4.269531-23.902344 0-7.394532-4.269531-11.949219-12.160156-11.949219-20.699219 0-13.199218 23.898437-35.847656 23.898437-35.847656s23.902344 22.648438 23.902344 35.847656zm0 0" fill="#02a9f4"/><path d="m162.152344 170.691406c0 4.714844-3.820313 8.535156-8.535156 8.535156-4.710938 0-8.53125-3.820312-8.53125-8.535156 0-4.710937 3.820312-8.53125 8.53125-8.53125 4.714843 0 8.535156 3.820313 8.535156 8.53125zm0 0" fill="#f5f5f5"/><path d="m298.683594 170.691406c0 4.714844-3.820313 8.535156-8.53125 8.535156-4.714844 0-8.535156-3.820312-8.535156-8.535156 0-4.710937 3.820312-8.53125 8.535156-8.53125 4.710937 0 8.53125 3.820313 8.53125 8.53125zm0 0" fill="#f5f5f5"/><path d="m503.484375 256.027344c-.714844 65.136718-25.027344 127.808594-68.4375 176.382812-6.472656 7.234375-15.722656 11.363282-25.429687 11.347656-2.910157.015626-5.808594-.355468-8.617188-1.109374-1.109375-.339844-2.21875-.679688-3.328125-1.109376-.304687-.058593-.59375-.175781-.855469-.339843 4.851563-1.878907 9.183594-4.894531 12.628906-8.789063 43.410157-48.574218 67.726563-111.246094 68.4375-176.382812 1.027344-74.925782-48.722656-239.277344-241.492187-247.125 3.667969-.257813 7.339844-.34375 11.09375-.34375 204.800781 0 257.023437 170.667968 256 247.46875zm0 0" fill="#fec108"/><path d="m366.949219 435.992188v50.433593c-.027344 9.414063-7.652344 17.039063-17.066407 17.066407h-25.597656c9.414063-.027344 17.039063-7.652344 17.066406-17.066407v-37.035156c8.808594-3.917969 17.359376-8.394531 25.597657-13.398437zm0 0" fill="#283593"/><path d="m349.882812 512.007812h-145.066406c-14.132812-.015624-25.582031-11.46875-25.597656-25.597656v-8.621094c-.007812-6.207031.972656-12.375 2.898438-18.273437.582031-1.902344 1.257812-3.769531 2.035156-5.601563 9.503906-21.800781 31.015625-35.90625 54.796875-35.9375h8.535156c26.035156.015626 49.460937 15.816407 59.230469 39.949219 1.113281 2.886719.578125 6.15625-1.40625 8.535157-1.980469 2.378906-5.097656 3.496093-8.140625 2.921874-3.042969-.574218-5.535157-2.753906-6.511719-5.691406-7.363281-17.328125-24.34375-28.597656-43.171875-28.648437h-8.535156c-16.964844.015625-32.316407 10.066406-39.121094 25.609375-.542969 1.296875-1.019531 2.625-1.425781 3.972656-1.402344 4.25-2.117188 8.695312-2.117188 13.167969v8.617187c.003906 4.710938 3.820313 8.53125 8.53125 8.535156h145.066406c4.710938-.003906 8.53125-3.824218 8.535157-8.535156v-50.429687c0-4.714844 3.820312-8.535157 8.53125-8.535157 4.714843 0 8.535156 3.820313 8.535156 8.535157v50.429687c-.015625 14.132813-11.46875 25.582032-25.601563 25.597656zm0 0"/><path d="m247.484375 512.007812h-145.066406c-14.140625-.023437-25.59375-11.492187-25.601563-25.632812v-8.550781c.011719-33 26.734375-59.761719 59.734375-59.824219h8.535157c23.753906-.027344 45.261718 14.042969 54.757812 35.816406 1.882812 4.324219-.097656 9.351563-4.417969 11.234375-4.320312 1.882813-9.351562-.09375-11.234375-4.417969-6.78125-15.546874-22.144531-25.589843-39.105468-25.566406h-8.535157c-23.578125.054688-42.664062 19.179688-42.667969 42.757813v8.550781c-.003906 4.71875 3.816407 8.554688 8.535157 8.566406h145.066406c4.710937 0 8.53125 3.820313 8.53125 8.535156 0 4.710938-3.820313 8.53125-8.53125 8.53125zm0 0"/><path d="m42.683594 426.675781c-16.832032.007813-32.097656-9.882812-38.96875-25.25-6.871094-15.367187-4.0625-33.335937 7.167968-45.875 7.226563-8.097656 13.761719-16.789062 19.53125-25.984375 2.496094-3.996094 7.761719-5.210937 11.757813-2.714844 4 2.5 5.214844 7.765626 2.714844 11.761719-6.28125 10.007813-13.390625 19.46875-21.257813 28.285157-9.402344 10.550781-8.523437 26.714843 1.964844 36.191406 10.6875 9.003906 26.539062 8.128906 36.167969-1.996094 3.273437-3.683594 6.492187-7.476562 9.546875-11.359375 2.917968-3.703125 8.285156-4.339844 11.988281-1.421875s4.339844 8.285156 1.421875 11.988281c-3.261719 4.132813-6.703125 8.191407-10.226562 12.15625-8.105469 9.039063-19.667969 14.207031-31.808594 14.21875zm0 0"/><path d="m409.617188 452.277344c-16.832032.007812-32.097657-9.882813-38.96875-25.25-6.871094-15.367188-4.0625-33.335938 7.167968-45.875 28.699219-32.09375 45.503906-73.074219 47.597656-116.078125.328126-4.65625 4.261719-8.230469 8.929688-8.113281 4.707031.226562 8.339844 4.222656 8.121094 8.929687-2.289063 46.914063-20.617188 91.613281-51.921875 126.625-9.386719 10.558594-8.496094 26.710937 1.988281 36.175781 10.6875 9.003906 26.535156 8.125 36.164062-2 42.007813-47.050781 65.546876-107.726562 66.253907-170.796875-1.121094-63.945312-26.054688-125.171875-69.921875-171.710937-43.9375-44.523438-103.675782-67.109375-177.542969-67.109375-97.457031-.011719-183.507813 63.582031-212.105469 156.746093-28.59375 93.167969 6.96875 194.085938 87.65625 248.746094 3.253906 1.984375 4.796875 5.894532 3.773438 9.566406-1.023438 3.671876-4.363282 6.21875-8.175782 6.234376h-.085937c-1.703125 0-3.363281-.507813-4.777344-1.457032-87.039062-58.769531-125.496093-167.488281-94.761719-267.914062 30.738282-100.425782 123.453126-169.00000025 228.476563-168.9882815 78.605469 0 142.421875 24.2929685 189.695313 72.1914065 47.367187 49.601562 74.117187 115.347656 74.835937 183.925781-.765625 67.199219-25.855469 131.84375-70.613281 181.96875-8.105469 9.019531-19.660156 14.171875-31.785156 14.183594zm0 0"/><path d="m299.269531 471.984375c-4.335937-.011719-7.976562-3.273437-8.457031-7.582031-.484375-4.308594 2.339844-8.296875 6.566406-9.269532 22.992188-5.265624 44.988282-14.195312 65.144532-26.453124 4.296874-2.683594 8.679687-5.574219 12.898437-8.550782 3.847656-2.617187 9.085937-1.671875 11.769531 2.128906 2.6875 3.800782 1.832032 9.054688-1.917968 11.804688-4.484376 3.175781-9.152344 6.25-13.808594 9.152344-21.742188 13.234375-45.472656 22.875-70.285156 28.550781-.625.144531-1.265626.21875-1.910157.21875zm0 0"/><path d="m145.085938 229.875c-20.753907.035156-39.480469-12.4375-47.445313-31.601562-7.964844-19.160157-3.597656-41.230469 11.0625-55.917969 14.664063-14.683594 36.726563-19.089844 55.902344-11.15625 19.175781 7.933593 31.679687 26.640625 31.679687 47.390625-.007812 28.289062-22.914062 51.230468-51.199218 51.285156zm0-85.5c-13.847657-.035156-26.351563 8.28125-31.675782 21.066406-5.324218 12.78125-2.417968 27.515625 7.363282 37.320313 9.777343 9.804687 24.503906 12.746093 37.300781 7.453125 12.796875-5.289063 21.144531-17.773438 21.144531-31.621094 0-18.867188-15.269531-34.171875-34.132812-34.21875zm0 0"/><path d="m281.617188 229.875c-24.453126.027344-45.523438-17.226562-50.316407-41.207031s8.023438-48.007813 30.609375-57.386719c22.585938-9.375 48.648438-1.492188 62.25 18.832031 13.601563 20.324219 10.949219 47.425781-6.332031 64.730469-9.574219 9.652344-22.617187 15.066406-36.210937 15.03125zm0-85.5c-16.304688-.019531-30.351563 11.484375-33.546876 27.472656-3.195312 15.988282 5.347657 32.007813 20.40625 38.257813 15.058594 6.25 32.4375.992187 41.503907-12.558594 9.066406-13.550781 7.292969-31.621094-4.230469-43.152344-6.382812-6.429687-15.074219-10.039062-24.132812-10.019531zm0 0"/><path d="m181.398438 68.964844c-1.125 9.378906-4.996094 18.21875-11.121094 25.410156-6.09375 7.441406-13.914063 13.277344-22.785156 17-8.75 3.613281-18.160157 5.378906-27.625 5.183594-4.582032-.113282-9.148438-.601563-13.648438-1.460938-4.378906-1.078125-8.679688-2.441406-12.886719-4.070312-1.359375-.53125-2.191406-1.914063-2.023437-3.363282.167968-1.453124 1.296875-2.605468 2.742187-2.8125l.390625-.050781c4.316406-.597656 8.457032-.707031 12.542969-.976562 4.050781-.636719 8.082031-.757813 11.949219-1.511719 7.570312-1.195312 14.984375-3.242188 22.09375-6.09375 6.902344-3.058594 13.382812-6.988281 19.289062-11.691406 6.253906-5.054688 11.980469-10.730469 17.089844-16.941406l.191406-.230469c.609375-.726563 1.621094-.96875 2.496094-.601563.871094.371094 1.402344 1.265625 1.308594 2.210938zm0 0"/><path d="m249.484375 67.585938c5.109375 6.210937 10.835937 11.890624 17.09375 16.945312 5.902344 4.703125 12.382813 8.628906 19.28125 11.6875 7.113281 2.855469 14.523437 4.898438 22.09375 6.097656 3.867187.753906 7.898437.875 11.953125 1.511719 4.078125.269531 8.222656.375 12.542969.972656l.382812.054688c1.449219.203125 2.578125 1.355469 2.746094 2.808593.171875 1.449219-.660156 2.835938-2.023437 3.363282-4.203126 1.632812-8.507813 2.992187-12.886719 4.074218-4.5.855469-9.0625 1.34375-13.644531 1.460938-9.46875.195312-18.875-1.570312-27.628907-5.1875-8.867187-3.71875-16.691406-9.554688-22.78125-16.996094-6.128906-7.191406-9.996093-16.03125-11.125-25.414062-.09375-.941406.433594-1.832032 1.304688-2.207032.871093-.371093 1.878906-.132812 2.496093.585938zm0 0"/><path d="m349.882812 324.277344c-23.550781-.03125-42.636718-19.117188-42.664062-42.667969 0-21.433594 30.648438-51.566406 36.792969-57.390625 3.292969-3.117188 8.449219-3.117188 11.742187 0 6.144532 5.824219 36.796875 35.957031 36.796875 57.390625-.027343 23.550781-19.113281 42.636719-42.667969 42.667969zm.003907-81.816406c-12.089844 12.648437-25.601563 30.199218-25.601563 39.148437 0 14.136719 11.460938 25.597656 25.597656 25.597656 14.140626 0 25.601563-11.460937 25.601563-25.597656 0-8.964844-13.507813-26.515625-25.597656-39.152344zm0 0"/><path d="m281.617188 315.742188c-4.710938 0-8.53125-3.820313-8.53125-8.535157-.015626-14.128906-11.46875-25.582031-25.601563-25.597656h-68.265625c-14.132812.015625-25.585938 11.46875-25.601562 25.597656 0 4.714844-3.820313 8.535157-8.53125 8.535157-4.714844 0-8.535157-3.820313-8.535157-8.535157.027344-23.550781 19.113281-42.636719 42.667969-42.664062h68.265625c23.550781.027343 42.640625 19.113281 42.667969 42.664062 0 4.714844-3.820313 8.535157-8.535156 8.535157zm0 0"/><path d="m213.351562 315.742188h-8.535156c-4.710937 0-8.53125-3.820313-8.53125-8.535157 0-4.710937 3.820313-8.53125 8.53125-8.53125h8.535156c4.710938 0 8.53125 3.820313 8.53125 8.53125 0 4.714844-3.820312 8.535157-8.53125 8.535157zm0 0"/></svg>