<svg height="512pt" viewBox="0 0 512.02432 512" width="512pt" xmlns="http://www.w3.org/2000/svg"><path d="m78.011719 395.050781c-3.15625 4.011719-6.484375 7.9375-9.898438 11.777344-12.605469 13.945313-34.113281 15.078125-48.113281 2.535156-14-12.546875-15.226562-34.050781-2.742188-48.105469 7.546876-8.453124 14.371094-17.53125 20.394532-27.136718zm0 0" fill="#ff9801"/><path d="m247.484375 8.574219c-101.269531-.015625-190.675781 66.113281-220.3125 162.949219-29.640625 96.839843 7.441406 201.675781 91.375 258.34375h.085937l69.121094 48.042968v8.53125c.027344 9.414063 7.652344 17.039063 17.066406 17.066406h145.066407c9.414062-.027343 17.039062-7.652343 17.066406-17.066406v-50.429687c.765625-.511719 1.535156-.941407 2.304687-1.453125 3.753907-2.386719 7.507813-4.863282 11.089844-7.421875.011719.089843.042969.175781.085938.253906 1.058594 2.222656 2.570312 4.203125 4.4375 5.804687.597656.597657 1.28125 1.277344 1.964844 1.875 1.257812 1.097657 2.597656 2.097657 4.007812 2.988282.6875.5625 1.429688 1.046875 2.21875 1.449218.800781.449219 1.628906.847657 2.476562 1.195313.6875.335937 1.402344.621094 2.132813.855469 1.109375.425781 2.21875.765625 3.328125 1.109375 2.8125.75 5.710938 1.121093 8.617188 1.109375 9.707031.011718 18.960937-4.117188 25.429687-11.351563 43.410156-48.574219 67.726563-111.242187 68.4375-176.382812 1.023437-76.800781-51.199219-247.46875-256-247.46875zm0 0" fill="#f0c419"/><path d="m503.484375 256.042969c-.710937 65.140625-25.027344 127.808593-68.4375 176.382812-6.46875 7.234375-15.722656 11.363281-25.429687 11.351563-2.90625.011718-5.804688-.359375-8.617188-1.109375-1.109375-.34375-2.21875-.683594-3.328125-1.109375-.730469-.234375-1.445313-.519532-2.132813-.855469-.847656-.347656-1.675781-.746094-2.476562-1.195313-.789062-.402343-1.53125-.886718-2.21875-1.449218-1.410156-.890625-2.75-1.890625-4.007812-2.988282-.683594-.597656-1.367188-1.277343-1.964844-1.875-1.867188-1.601562-3.378906-3.582031-4.4375-5.804687-.042969-.078125-.074219-.164063-.085938-.253906-3.582031 2.558593-7.335937 5.035156-11.089844 7.421875-.769531.511718-1.539062.941406-2.304687 1.453125-20.9375 12.726562-43.785156 22.003906-67.671875 27.476562h-.253906l-.339844-2.644531c-8.617188-20.691406-28.789062-34.210938-51.203125-34.304688h-8.53125c-20.351563.027344-38.765625 12.078126-46.933594 30.71875-.6875 1.617188-1.285156 3.269532-1.792969 4.949219-1.648437 5.042969-2.484374 10.3125-2.472656 15.617188v.085937l-69.121094-48.042968h-.085937c-83.933594-56.667969-121.015625-161.503907-91.375-258.34375 29.636719-96.835938 119.042969-162.964844 220.3125-162.949219 204.800781 0 257.023437 170.667969 256 247.46875zm0 0" fill="#ffdc00"/><path d="m380.347656 427.136719c-3.582031 2.558593-7.335937 5.035156-11.089844 7.421875-13.527343-12.691406-14.472656-33.851563-2.136718-47.699219 26.3125-29.355469 43.144531-65.972656 48.292968-105.054687 1.207032-9.3125 9.132813-16.285157 18.523438-16.289063-2.128906 44.964844-19.699219 87.820313-49.746094 121.34375-9.945312 11.144531-11.5 27.453125-3.84375 40.277344zm0 0" fill="#fec108"/><path d="m192.019531 457.257812c-8.152343-18.652343-26.578125-30.703124-46.933593-30.695312h-8.535157c-28.292969.046875-51.207031 23.003906-51.199219 51.296875v8.550781c.019532 9.421875 7.644532 17.0625 17.066407 17.097656h145.066406zm0 0" fill="#3f51b5"/><path d="m366.953125 436.011719v50.429687c-.027344 9.414063-7.652344 17.039063-17.066406 17.066406h-145.066407c-9.414062-.027343-17.039062-7.652343-17.066406-17.066406v-8.617187c-.011718-5.304688.824219-10.574219 2.472656-15.617188.507813-1.679687 1.105469-3.332031 1.792969-4.949219 8.167969-18.640624 26.582031-30.691406 46.933594-30.71875h8.53125c22.414063.09375 42.585937 13.613282 51.203125 34.304688l.59375 2.644531c23.886719-5.472656 46.734375-14.75 67.671875-27.476562zm0 0" fill="#3f51b5"/><path d="m380.433594 427.390625c1.300781 2.066406 2.785156 4.007813 4.4375 5.804687-1.867188-1.601562-3.378906-3.582031-4.4375-5.804687zm0 0" fill="#f0c419"/><path d="m366.953125 436.011719v17.066406c-15.945313 9.6875-33.011719 17.390625-50.824219 22.933594-3.960937 1.199219-8.253906.449219-11.578125-2.019531-3.320312-2.46875-5.273437-6.367188-5.269531-10.503907 23.886719-5.472656 46.734375-14.75 67.671875-27.476562zm0 0" fill="#283593"/><path d="m397.671875 220.535156c12.914063 17.230469 9.414063 41.667969-7.816406 54.582032-17.230469 12.914062-41.667969 9.414062-54.578125-7.816407-12.914063-17.230469-10.886719-79.539062-10.886719-79.539062s60.367187 15.542969 73.28125 32.773437zm0 0" fill="#0377bc"/><path d="m381.640625 213.367188c10.089844 13.460937 7.355469 32.550781-6.105469 42.640624-13.464844 10.085938-32.554687 7.351563-42.640625-6.109374-10.089843-13.460938-8.503906-62.140626-8.503906-62.140626s47.164063 12.148438 57.25 25.609376zm0 0" fill="#02a9f4"/><path d="m24.449219 222.585938c-13.722657 18.308593-10 44.277343 8.308593 57.996093 18.308594 13.71875 44.273438 10 57.996094-8.308593 13.71875-18.308594 11.566406-84.515626 11.566406-84.515626s-64.152343 16.519532-77.871093 34.828126zm0 0" fill="#0377bc"/><path d="m40.480469 215.417969c-10.808594 14.539062-7.828125 35.085937 6.671875 45.949219 14.5 10.867187 35.054687 7.964843 45.976562-6.492188 10.894532-14.539062 9.1875-67.117188 9.1875-67.117188s-50.941406 13.121094-61.835937 27.660157zm0 0" fill="#02a9f4"/><path d="m204.820312 256.027344h17.066407c28.277343 0 51.199219 22.921875 51.199219 51.199218v8.710938c0 18.851562-15.28125 34.132812-34.132813 34.132812h-51.199219c-18.851562 0-34.136718-15.28125-34.136718-34.132812v-8.710938c0-28.277343 22.925781-51.199218 51.203124-51.199218zm0 0" fill="#bb193b"/><path d="m273.085938 307.242188v8.703124c.003906 9.054688-3.59375 17.738282-9.996094 24.140626-6.402344 6.402343-15.085938 9.996093-24.136719 9.992187h-25.601563v-17.066406c-.019531-9.066407 3.566407-17.769531 9.96875-24.1875 6.40625-6.417969 15.097657-10.027344 24.164063-10.03125h24.832031c.519532 2.789062.773438 5.617187.769532 8.449219zm0 0" fill="#ad1457"/><path d="m256.019531 307.242188v8.703124c0 9.054688-3.59375 17.738282-9.996093 24.140626-6.402344 6.402343-15.085938 9.996093-24.136719 9.992187h-8.535157v-17.066406c-.019531-9.066407 3.566407-17.769531 9.96875-24.1875 6.40625-6.417969 15.097657-10.027344 24.164063-10.03125h7.765625c.519531 2.789062.773438 5.617187.769531 8.449219zm0 0" fill="#e91e63"/><path d="m503.484375 256.042969c-.710937 65.140625-25.027344 127.808593-68.4375 176.382812-6.46875 7.234375-15.722656 11.363281-25.429687 11.351563-2.90625.011718-5.804688-.359375-8.617188-1.109375-1.109375-.34375-2.21875-.683594-3.328125-1.109375-.300781-.0625-.589844-.179688-.851563-.34375 4.847657-1.878906 9.179688-4.894532 12.628907-8.789063 43.40625-48.574219 67.722656-111.242187 68.4375-176.382812 1.023437-74.921875-48.726563-239.273438-241.496094-247.125 3.671875-.257813 7.339844-.34375 11.09375-.34375 204.800781 0 257.023437 170.667969 256 247.46875zm0 0" fill="#fec108"/><path d="m366.953125 436.011719v50.429687c-.027344 9.414063-7.652344 17.039063-17.066406 17.066406h-25.601563c9.414063-.027343 17.039063-7.652343 17.066406-17.066406v-37.035156c8.808594-3.917969 17.359376-8.390625 25.601563-13.394531zm0 0" fill="#283593"/><path d="m438.359375 85.933594 56.054687-5.667969c2.691407-.265625 5.324219.898437 6.941407 3.066406 1.621093 2.164063 1.988281 5.019531.96875 7.527344l-22.441407 50.117187c-1.125 2.304688-3.367187 3.855469-5.917968 4.101563-2.550782.242187-5.046875-.851563-6.589844-2.898437l-34.9375-43.019532-54.503906-26.058594-54.34375.324219c-2.582032.019531-5.003906-1.25-6.449219-3.386719-1.449219-2.136718-1.734375-4.855468-.761719-7.246093l22.441406-50.117188c1.191407-2.414062 3.597657-3.988281 6.285157-4.117187 2.683593-.132813 5.230469 1.207031 6.648437 3.492187l32.105469 47.824219zm0 0" fill="#6a1b9a"/><path d="m412.476562 107.984375-27.25-13.03125c-7.589843-3.773437-10.824218-12.878906-7.324218-20.597656l6.308594-14.078125c1.582031-3.695313 4.597656-6.589844 8.355468-8.015625 3.757813-1.425781 7.9375-1.265625 11.574219.449219l27.25 13.03125c7.589844 3.773437 10.824219 12.878906 7.320313 20.59375l-6.304688 14.082031c-1.582031 3.695312-4.597656 6.585937-8.359375 8.011719-3.757813 1.429687-7.933594 1.265624-11.570313-.445313zm0 0" fill="#9d27b0"/><path d="m349.886719 512.027344h-145.066407c-14.132812-.015625-25.585937-11.46875-25.601562-25.601563v-8.617187c-.007812-6.207032.96875-12.378906 2.902344-18.277344.574218-1.902344 1.253906-3.769531 2.03125-5.601562 9.503906-21.800782 31.015625-35.910157 54.800781-35.9375h8.53125c26.035156.019531 49.460937 15.816406 59.234375 39.949218 1.03125 2.871094.449219 6.070313-1.519531 8.398438-1.972657 2.328125-5.03125 3.425781-8.035157 2.882812-3-.542968-5.480468-2.644531-6.511718-5.515625-7.359375-17.328125-24.339844-28.597656-43.167969-28.648437h-8.53125c-16.96875.015625-32.320313 10.0625-39.117187 25.609375-.546876 1.292969-1.027344 2.613281-1.433594 3.957031-1.402344 4.253906-2.117188 8.707031-2.117188 13.183594v8.621094c.003906 4.710937 3.820313 8.527343 8.535156 8.53125h145.066407c4.710937-.003907 8.53125-3.820313 8.53125-8.53125v-50.433594c0-4.710938 3.820312-8.535156 8.535156-8.535156 4.710937 0 8.53125 3.824218 8.53125 8.535156v50.433594c-.015625 14.128906-11.46875 25.582031-25.597656 25.597656zm0 0"/><path d="m247.484375 512.027344h-145.066406c-14.140625-.027344-25.59375-11.492188-25.597657-25.636719v-8.546875c.011719-33 26.730469-59.765625 59.730469-59.828125h8.535157c23.753906-.027344 45.265624 14.042969 54.757812 35.820313 1.21875 2.792968.851562 6.027343-.960938 8.480468-1.8125 2.449219-4.796874 3.75-7.824218 3.40625-3.03125-.34375-5.648438-2.277344-6.863282-5.070312-6.785156-15.550782-22.144531-25.59375-39.109374-25.570313h-8.535157c-23.578125.054688-42.664062 19.183594-42.664062 42.761719v8.546875c-.007813 4.722656 3.8125 8.554687 8.53125 8.566406h145.066406c4.714844 0 8.535156 3.824219 8.535156 8.535157 0 4.710937-3.820312 8.535156-8.535156 8.535156zm0 0"/><path d="m42.6875 426.691406c-16.835938.007813-32.097656-9.882812-38.96875-25.246094-6.871094-15.367187-4.066406-33.335937 7.160156-45.878906 7.230469-8.09375 13.769532-16.785156 19.539063-25.980468 2.550781-3.867188 7.722656-4.996094 11.648437-2.539063 3.925782 2.457031 5.179688 7.597656 2.820313 11.582031-6.28125 10.007813-13.390625 19.46875-21.257813 28.285156-9.398437 10.558594-8.515625 26.71875 1.972656 36.191407 10.6875 8.996093 26.535157 8.121093 36.167969-1.996094 3.265625-3.683594 6.484375-7.476563 9.542969-11.359375 1.863281-2.464844 4.914062-3.730469 7.972656-3.308594 3.0625.425782 5.65625 2.46875 6.78125 5.347656 1.125 2.878907.605469 6.140626-1.359375 8.527344-3.257812 4.132813-6.691406 8.191406-10.207031 12.160156-8.109375 9.035157-19.671875 14.203126-31.8125 14.214844zm0 0"/><path d="m409.617188 452.292969c-16.832032.007812-32.09375-9.882813-38.964844-25.25-6.871094-15.363281-4.066406-33.335938 7.160156-45.875 28.703125-32.089844 45.507812-73.070313 47.597656-116.074219.226563-4.710938 4.226563-8.34375 8.933594-8.117188 4.707031.226563 8.34375 4.222657 8.117188 8.933594-2.285157 46.910156-20.613282 91.613282-51.917969 126.625-9.382813 10.558594-8.492188 26.707032 1.992187 36.175782 10.691406 8.996093 26.535156 8.117187 36.167969-2 42.011719-47.046876 65.546875-107.722657 66.25-170.792969-.546875-37.398438-9.261719-74.226563-25.527344-107.90625-1.347656-2.753907-1.117187-6.019531.605469-8.554688 1.726562-2.535156 4.679688-3.949219 7.734375-3.703125 3.058594.246094 5.746094 2.113282 7.042969 4.890625 17.382812 36.050781 26.667968 75.464844 27.210937 115.484375-.753906 67.199219-25.839843 131.847656-70.609375 181.972656-8.105468 9.023438-19.660156 14.183594-31.792968 14.191407zm0 0"/><path d="m398.953125 59.84375c-4.730469.007812-8.582031-3.804688-8.621094-8.535156-.019531-2.253906.863281-4.421875 2.449219-6.023438 1.585938-1.605468 3.746094-2.507812 6-2.507812h.171875c4.710937 0 8.53125 3.820312 8.53125 8.53125 0 4.714844-3.820313 8.535156-8.53125 8.535156zm0 0"/><path d="m118.632812 438.382812c-1.730468 0-3.421874-.503906-4.863281-1.457031-87.042969-58.769531-125.496093-167.488281-94.757812-267.914062 30.734375-100.425781 123.449219-169.0000002 228.472656-168.9843752 30.699219-.2890628 61.265625 4.0390622 90.675781 12.8398442 2.96875.855468 5.246094 3.246093 5.949219 6.257812.707031 3.007812-.269531 6.160156-2.554687 8.246094-2.28125 2.082031-5.511719 2.769531-8.445313 1.792968-27.777344-8.285156-56.640625-12.355468-85.625-12.070312-97.453125-.015625-183.503906 63.574219-212.097656 156.738281-28.597657 93.160157 6.953125 194.078125 87.632812 248.742188 3.261719 1.980469 4.808594 5.890625 3.789063 9.566406-1.019532 3.675781-4.359375 6.226563-8.175782 6.242187zm0 0"/><path d="m299.277344 472c-4.335938-.007812-7.976563-3.269531-8.460938-7.582031-.484375-4.308594 2.34375-8.296875 6.570313-9.265625 22.988281-5.265625 44.980469-14.199219 65.132812-26.453125 4.308594-2.683594 8.691407-5.578125 12.914063-8.558594 2.492187-1.757813 5.734375-2.050781 8.5-.773437 2.765625 1.28125 4.640625 3.941406 4.917968 6.976562.273438 3.035156-1.089843 5.988281-3.582031 7.746094-4.492187 3.164062-9.140625 6.242187-13.808593 9.140625-21.738282 13.234375-45.46875 22.875-70.273438 28.550781-.628906.144531-1.269531.21875-1.910156.21875zm0 0"/><path d="m418.769531 117.96875c-3.453125-.007812-6.863281-.785156-9.976562-2.285156l-27.25-13.03125c-11.734375-5.796875-16.785157-19.839844-11.433594-31.78125l6.308594-14.082032c2.585937-5.863281 7.445312-10.421874 13.460937-12.628906 5.84375-2.171875 12.324219-1.867187 17.941406.851563l27.257813 13.035156c11.734375 5.800781 16.777344 19.84375 11.414063 31.785156l-6.289063 14.074219c-2.585937 5.863281-7.445313 10.425781-13.460937 12.632812-2.550782.945313-5.25 1.425782-7.972657 1.429688zm-20.933593-58.160156c-.710938.003906-1.414063.128906-2.082032.367187-1.691406.636719-3.046875 1.933594-3.757812 3.59375l-6.304688 14.078125c-1.628906 3.488282-.210937 7.640625 3.214844 9.398438l27.25 13.035156c1.472656.699219 3.164062.78125 4.699219.234375 1.691406-.640625 3.050781-1.933594 3.765625-3.59375l6.292968-14.074219c1.640626-3.488281.226563-7.644531-3.199218-9.40625l-27.261719-13.03125c-.816406-.394531-1.710937-.601562-2.617187-.601562zm0 0"/><path d="m324.070312 81.960938c-5.527343-.003907-10.671874-2.808594-13.667968-7.449219-3-4.511719-3.480469-10.246094-1.28125-15.199219l22.445312-50.117188c2.285156-5.179687 7.238282-8.679687 12.882813-9.1093745 5.914062-.4921875 11.628906 2.2695315 14.917969 7.2109375l32.101562 47.820313c1.640625 2.445312 1.902344 5.5625.699219 8.25s-3.707031 4.5625-6.625 4.96875c1.757812 2.605468 1.9375 5.96875.46875 8.75s-4.347657 4.527343-7.492188 4.546874l-54.351562.328126zm22.125-63.671876-21 46.890626 52.074219-.59375zm0 0"/><path d="m324.070312 81.960938c-5.527343-.003907-10.671874-2.808594-13.667968-7.449219-3-4.511719-3.480469-10.246094-1.28125-15.199219l22.445312-50.117188c2.285156-5.179687 7.238282-8.679687 12.882813-9.1093745 5.914062-.4921875 11.628906 2.2695315 14.917969 7.2109375l32.101562 47.820313c1.640625 2.445312 1.902344 5.5625.699219 8.25s-3.707031 4.5625-6.625 4.96875c1.757812 2.605468 1.9375 5.96875.46875 8.75s-4.347657 4.527343-7.492188 4.546874l-54.351562.328126zm22.125-63.671876-21 46.890626 52.074219-.59375zm0 0"/><path d="m473.910156 153.625c-4.914062-.003906-9.558594-2.238281-12.628906-6.074219l-34.941406-43.007812c-1.949219-2.394531-2.453125-5.652344-1.316406-8.523438 1.136718-2.871093 3.734374-4.90625 6.792968-5.320312-1.683594-2.488281-1.933594-5.675781-.65625-8.394531 1.273438-2.71875 3.886719-4.566407 6.875-4.863282l56.050782-5.667968c5.789062-.539063 11.4375 2.019531 14.847656 6.734374 3.386718 4.585938 4.039062 10.636719 1.714844 15.839844l-22.441407 50.109375c-2.203125 4.929688-6.820312 8.355469-12.175781 9.03125-.703125.09375-1.410156.136719-2.121094.136719zm-33.828125-59.234375 33.425781 41.144531 21.03125-46.976562zm0 0"/><path d="m94.996094 106.28125c16.148437 4.609375 33.09375 5.726562 49.707031 3.28125 7.738281-1.558594 15.078125-4.679688 21.570313-9.167969 3.472656-2.28125 6.789062-4.796875 9.917968-7.53125 3.25-2.777343 6.09375-6.074219 9.644532-9.003906l.441406-.363281c1.125-.933594 2.742187-.976563 3.917968-.105469 1.171876.871094 1.597657 2.433594 1.03125 3.78125-1.761718 4.511719-3.910156 8.859375-6.417968 13.003906-2.714844 4.183594-5.953125 8.007813-9.628906 11.378907-7.484376 7.207031-16.882813 12.113281-27.074219 14.132812-19.914063 4.066406-40.5625-1.828125-55.328125-15.796875-.683594-.679687-.832032-1.730469-.371094-2.578125.464844-.84375 1.429688-1.28125 2.371094-1.074219zm0 0"/><path d="m334.703125 109.890625c-14.765625 13.96875-35.410156 19.863281-55.324219 15.800781-10.191406-2.019531-19.589844-6.925781-27.074218-14.132812-3.675782-3.371094-6.914063-7.195313-9.628907-11.378906-2.507812-4.144532-4.65625-8.496094-6.417969-13.003907-.566406-1.347656-.140624-2.90625 1.03125-3.777343 1.171876-.871094 2.785157-.832032 3.910157.097656l.445312.367187c3.546875 2.929688 6.390625 6.226563 9.644531 9.003907 3.132813 2.734374 6.445313 5.25 9.921876 7.53125 6.492187 4.488281 13.832031 7.605468 21.566406 9.167968 16.617187 2.445313 33.5625 1.328125 49.710937-3.28125l.199219-.042968c.5625-.128907 1.152344-.03125 1.640625.277343.484375.304688.832031.792969.957031 1.355469.160156.726562-.058594 1.488281-.582031 2.015625zm0 0"/><path d="m324.285156 196.292969c-2.253906.003906-4.421875-.890625-6.015625-2.484375-10.105469-9.046875-23.09375-14.210938-36.652343-14.582032-13.5625.289063-26.570313 5.460938-36.632813 14.566407-3.34375 3.246093-8.679687 3.207031-11.972656-.089844-3.296875-3.296875-3.339844-8.632813-.09375-11.976563 27.226562-26.089843 70.175781-26.089843 97.402343 0 2.4375 2.441407 3.167969 6.109376 1.847657 9.296876-1.320313 3.1875-4.429688 5.269531-7.882813 5.269531zm0 0"/><path d="m187.753906 196.292969c-2.257812.003906-4.421875-.890625-6.019531-2.484375-10.105469-9.046875-23.089844-14.210938-36.648437-14.582032-13.566407.289063-26.574219 5.460938-36.632813 14.566407-3.347656 3.246093-8.679687 3.207031-11.976563-.089844-3.296874-3.296875-3.335937-8.632813-.089843-11.976563 13.285156-12.269531 30.617187-19.234374 48.699219-19.566406 18.082031.332032 35.414062 7.296875 48.699218 19.566406 2.441406 2.441407 3.167969 6.109376 1.847656 9.296876-1.320312 3.1875-4.429687 5.269531-7.878906 5.269531zm0 0"/><path d="m366.527344 291.417969c-14.980469.03125-29.097656-7.011719-38.078125-19-14.007813-18.683594-12.949219-74.035157-12.589844-84.933594.082031-2.585937 1.335937-4.996094 3.40625-6.550781 2.070313-1.554688 4.734375-2.085938 7.242187-1.441406 10.566407 2.726562 63.992188 17.25 77.984376 35.925781 10.796874 14.386719 12.539062 33.640625 4.5 49.730469-8.039063 16.089843-24.480469 26.261718-42.464844 26.269531zm-33.757813-92.476563c.066407 23.101563 2.414063 54.007813 9.332031 63.242188 10.089844 13.460937 29.179688 16.195312 42.640626 6.105468 13.457031-10.089843 16.191406-29.179687 6.101562-42.636718-6.925781-9.242188-35.921875-20.160156-58.074219-26.710938zm0 0"/><path d="m57.496094 297.402344c-18.902344-.042969-36.164063-10.75-44.597656-27.664063-8.4375-16.914062-6.605469-37.140625 4.730468-52.265625 15.082032-20.125 75.699219-36.210937 82.566406-37.972656 2.507813-.644531 5.171876-.113281 7.242188 1.4375 2.070312 1.554688 3.324219 3.964844 3.40625 6.550781.234375 7.085938 1.816406 69.785157-13.257812 89.910157-7.925782 10.632812-19.777344 17.652343-32.910157 19.492187-2.378906.339844-4.777343.511719-7.179687.511719zm36.449218-98.476563c-23.703124 6.96875-55.175781 18.773438-62.660156 28.777344h-.007812c-10.894532 14.539063-7.941406 35.15625 6.597656 46.054687 14.539062 10.894532 35.15625 7.941407 46.054688-6.597656 7.488281-10 9.980468-43.527344 10.015624-68.234375zm0 0"/><path d="m238.953125 358.601562h-51.199219c-23.554687-.027343-42.640625-19.113281-42.667968-42.667968v-8.707032c.039062-32.972656 26.757812-59.695312 59.734374-59.734374h17.066407c32.972656.039062 59.691406 26.761718 59.730469 59.734374v8.707032c-.027344 23.554687-19.113282 42.640625-42.664063 42.667968zm-34.132813-94.042968c-23.554687.027344-42.640624 19.113281-42.667968 42.667968v8.707032c.015625 14.132812 11.46875 25.585937 25.601562 25.601562h51.199219c14.132813-.015625 25.582031-11.46875 25.597656-25.601562v-8.707032c-.027343-23.554687-19.113281-42.640624-42.664062-42.667968zm0 0"/><path d="m213.351562 358.601562c-4.710937 0-8.53125-3.820312-8.53125-8.535156v-17.066406c0-23.578125 19.085938-42.703125 42.664063-42.757812h24.832031c4.714844 0 8.535156 3.820312 8.535156 8.535156 0 4.710937-3.820312 8.53125-8.535156 8.53125h-24.832031c-14.15625.042968-25.609375 11.535156-25.597656 25.691406v17.066406c0 4.714844-3.820313 8.535156-8.535157 8.535156zm0 0"/><path d="m106.242188 195.570312c-4.320313 1.5625-9.011719 1.789063-13.460938.648438-4.070312-1.011719-7.765625-3.167969-10.648438-6.210938-2.445312-2.640624-4.375-5.710937-5.695312-9.058593-1.113281-3.015625-1.960938-6.121094-2.535156-9.28125-.285156-1.492188.550781-2.96875 1.972656-3.492188 1.425781-.523437 3.019531.058594 3.765625 1.378907l.09375.171874c1.300781 2.375 2.804687 4.632813 4.488281 6.75 1.492188 1.796876 3.320313 3.289063 5.382813 4.390626 1.574219.816406 3.367187 1.113281 5.121093.839843.777344-.128906 1.535157-.363281 2.253907-.695312.566406-.292969 1.734375-.945313 1.410156-1.054688 2.792969-1.4375 6.144531-1.265625 8.777344.449219 2.628906 1.71875 4.136719 4.714844 3.949219 7.851562-.191407 3.136719-2.050782 5.929688-4.871094 7.316407zm0 0"/><path d="m328.261719 179.851562c-.347657.109376.820312.777344 1.375 1.078126.707031.34375 1.460937.589843 2.238281.730468 1.75.296875 3.550781.027344 5.136719-.777344 2.082031-1.085937 3.933593-2.570312 5.449219-4.363281 1.710937-2.113281 3.238281-4.371093 4.5625-6.746093l.085937-.152344c.710937-1.238282 2.210937-1.789063 3.554687-1.296875 1.34375.492187 2.136719 1.882812 1.878907 3.289062-.550781 3.160157-1.375 6.269531-2.464844 9.285157-1.292969 3.355468-3.203125 6.4375-5.625 9.089843-2.871094 3.0625-6.558594 5.238281-10.625 6.269531-2.121094.539063-4.308594.785157-6.496094.726563-2.398437-.046875-4.773437-.492187-7.023437-1.316406-4.328125-2.21875-6.054688-7.511719-3.871094-11.855469s7.464844-6.113281 11.824219-3.960938zm0 0"/></svg>