<svg height="512pt" viewBox="0 0 512.01888 512" width="512pt" xmlns="http://www.w3.org/2000/svg"><path d="m78.011719 395.035156c-3.15625 4.011719-6.484375 7.933594-9.898438 11.773438-12.605469 13.949218-34.113281 15.082031-48.113281 2.539062-14-12.546875-15.226562-34.050781-2.742188-48.105468 7.546876-8.453126 14.371094-17.53125 20.394532-27.136719zm0 0" fill="#ff9801"/><path d="m247.484375 8.558594c-101.269531-.015625-190.675781 66.109375-220.3125 162.949218-29.640625 96.835938 7.441406 201.675782 91.375 258.34375h.085937l69.121094 48.042969v8.53125c.027344 9.414063 7.652344 17.039063 17.066406 17.066407h145.066407c9.414062-.027344 17.039062-7.652344 17.066406-17.066407v-50.429687c.765625-.511719 1.535156-.941406 2.304687-1.453125 3.753907-2.386719 7.507813-4.863281 11.089844-7.421875.011719.089844.042969.175781.085938.253906 1.058594 2.222656 2.570312 4.199219 4.4375 5.804688.597656.597656 1.28125 1.277343 1.964844 1.875 1.257812 1.097656 2.597656 2.097656 4.007812 2.988281.6875.5625 1.429688 1.046875 2.21875 1.449219.800781.449218 1.628906.847656 2.476562 1.195312.6875.335938 1.402344.621094 2.132813.855469 1.109375.425781 2.21875.765625 3.328125 1.109375 2.8125.75 5.710938 1.121094 8.617188 1.109375 9.707031.011719 18.960937-4.117188 25.429687-11.351563 43.410156-48.574218 67.726563-111.242187 68.4375-176.382812 1.023437-76.800782-51.199219-247.46875-256-247.46875zm0 0" fill="#f0c419"/><path d="m503.484375 256.027344c-.710937 65.140625-25.027344 127.808594-68.4375 176.382812-6.46875 7.234375-15.722656 11.363282-25.429687 11.351563-2.90625.011719-5.804688-.359375-8.617188-1.109375-1.109375-.34375-2.21875-.683594-3.328125-1.109375-.730469-.234375-1.445313-.519531-2.132813-.855469-.847656-.347656-1.675781-.746094-2.476562-1.195312-.789062-.402344-1.53125-.886719-2.21875-1.449219-1.410156-.890625-2.75-1.890625-4.007812-2.988281-.683594-.597657-1.367188-1.277344-1.964844-1.875-1.867188-1.605469-3.378906-3.582032-4.4375-5.804688-.042969-.078125-.074219-.164062-.085938-.253906-3.582031 2.558594-7.335937 5.035156-11.089844 7.421875-.769531.511719-1.539062.941406-2.304687 1.453125-20.9375 12.726562-43.785156 22.003906-67.671875 27.476562h-.253906l-.339844-2.644531c-8.617188-20.695313-28.789062-34.210937-51.203125-34.304687h-8.53125c-20.351563.027343-38.765625 12.078124-46.933594 30.71875-.6875 1.617187-1.285156 3.269531-1.792969 4.949218-1.648437 5.042969-2.484374 10.3125-2.472656 15.617188v.085937l-69.121094-48.042969h-.085937c-83.933594-56.667968-121.015625-161.507812-91.375-258.34375 29.636719-96.839843 119.042969-162.964843 220.3125-162.949218 204.800781 0 257.023437 170.667968 256 247.46875zm0 0" fill="#ffdc00"/><path d="m380.347656 427.121094c-3.582031 2.558594-7.335937 5.035156-11.089844 7.421875-13.527343-12.691407-14.472656-33.851563-2.136718-47.699219 26.3125-29.355469 43.144531-65.972656 48.292968-105.054688 1.207032-9.3125 9.132813-16.285156 18.523438-16.289062-2.128906 44.964844-19.699219 87.820312-49.746094 121.34375-9.945312 11.144531-11.5 27.453125-3.84375 40.277344zm0 0" fill="#fec108"/><path d="m192.019531 457.242188c-8.152343-18.652344-26.578125-30.703126-46.933593-30.695313h-8.535157c-28.292969.046875-51.207031 23.003906-51.199219 51.296875v8.550781c.019532 9.421875 7.644532 17.0625 17.066407 17.097657h145.066406zm0 0" fill="#3f51b5"/><path d="m366.953125 435.996094v50.429687c-.027344 9.414063-7.652344 17.039063-17.066406 17.066407h-145.066407c-9.414062-.027344-17.039062-7.652344-17.066406-17.066407v-8.617187c-.011718-5.304688.824219-10.574219 2.472656-15.617188.507813-1.679687 1.105469-3.332031 1.792969-4.949218 8.167969-18.640626 26.582031-30.691407 46.933594-30.71875h8.53125c22.414063.09375 42.585937 13.609374 51.203125 34.304687l.59375 2.644531c23.886719-5.472656 46.734375-14.75 67.671875-27.476562zm0 0" fill="#3f51b5"/><path d="m380.433594 427.375c1.300781 2.066406 2.785156 4.007812 4.4375 5.804688-1.867188-1.605469-3.378906-3.582032-4.4375-5.804688zm0 0" fill="#f0c419"/><path d="m366.953125 435.996094v17.066406c-15.945313 9.6875-33.011719 17.390625-50.824219 22.933594-3.960937 1.199218-8.253906.449218-11.578125-2.019532-3.320312-2.46875-5.273437-6.367187-5.269531-10.503906 23.886719-5.472656 46.734375-14.75 67.671875-27.476562zm0 0" fill="#283593"/><path d="m145.085938 264.542969h136.53125c4.714843 0 8.535156 3.820312 8.535156 8.535156v8.53125c0 42.417969-34.382813 76.800781-76.800782 76.800781-42.414062 0-76.800781-34.382812-76.800781-76.800781v-8.53125c0-4.714844 3.820313-8.535156 8.535157-8.535156zm0 0" fill="#bb193b"/><path d="m288.273438 298.691406c-7.988282 34.949219-39.074219 59.730469-74.921876 59.734375-2.507812.03125-5.019531-.113281-7.507812-.425781-3.214844-.261719-6.410156-.746094-9.558594-1.449219v-15.191406c.007813-23.558594 19.105469-42.65625 42.667969-42.667969zm0 0" fill="#ad1457"/><path d="m273.085938 298.691406c-7.367188 32.152344-34.425782 56.015625-67.242188 59.308594-3.214844-.261719-6.410156-.746094-9.558594-1.449219v-15.191406c.007813-23.558594 19.105469-42.65625 42.667969-42.667969zm0 0" fill="#e91e63"/><path d="m503.484375 256.027344c-.710937 65.140625-25.027344 127.808594-68.4375 176.382812-6.46875 7.234375-15.722656 11.363282-25.429687 11.351563-2.90625.011719-5.804688-.359375-8.617188-1.109375-1.109375-.34375-2.21875-.683594-3.328125-1.109375-.300781-.0625-.589844-.179688-.851563-.34375 4.847657-1.878907 9.179688-4.894531 12.628907-8.789063 43.40625-48.574218 67.722656-111.242187 68.4375-176.382812 1.023437-74.921875-48.726563-239.277344-241.496094-247.125 3.671875-.257813 7.339844-.34375 11.09375-.34375 204.800781 0 257.023437 170.667968 256 247.46875zm0 0" fill="#fec108"/><path d="m366.953125 435.996094v50.429687c-.027344 9.414063-7.652344 17.039063-17.066406 17.066407h-25.601563c9.414063-.027344 17.039063-7.652344 17.066406-17.066407v-37.035156c8.808594-3.917969 17.359376-8.394531 25.601563-13.394531zm0 0" fill="#283593"/><path d="m469.351562 119.476562c0 28.277344-22.921874 51.199219-51.199218 51.199219s-51.199219-22.921875-51.199219-51.199219c0-28.277343 51.199219-85.332031 51.199219-85.332031s51.199218 57.054688 51.199218 85.332031zm0 0" fill="#0377bc"/><path d="m459.757812 103.488281c0 22.976563-18.628906 41.605469-41.605468 41.605469-22.976563 0-41.605469-18.628906-41.605469-41.605469 0-22.980469 41.605469-69.34375 41.605469-69.34375s41.605468 46.363281 41.605468 69.34375zm0 0" fill="#02a9f4"/><path d="m349.886719 512.007812h-145.066407c-14.132812-.015624-25.585937-11.464843-25.601562-25.597656v-8.621094c-.007812-6.207031.96875-12.375 2.902344-18.273437.574218-1.902344 1.253906-3.769531 2.03125-5.601563 9.503906-21.800781 31.015625-35.910156 54.800781-35.9375h8.53125c26.035156.019532 49.460937 15.816407 59.234375 39.949219 1.03125 2.871094.449219 6.070313-1.519531 8.398438-1.972657 2.328125-5.03125 3.425781-8.035157 2.882812-3-.542969-5.480468-2.644531-6.511718-5.515625-7.359375-17.328125-24.339844-28.597656-43.167969-28.648437h-8.53125c-16.96875.011719-32.320313 10.0625-39.117187 25.609375-.546876 1.292968-1.027344 2.613281-1.433594 3.957031-1.402344 4.253906-2.117188 8.703125-2.117188 13.183594v8.617187c.003906 4.714844 3.820313 8.53125 8.535156 8.535156h145.066407c4.710937-.003906 8.53125-3.820312 8.53125-8.535156v-50.429687c0-4.714844 3.820312-8.535157 8.535156-8.535157 4.710937 0 8.53125 3.820313 8.53125 8.535157v50.429687c-.015625 14.132813-11.46875 25.582032-25.597656 25.597656zm0 0"/><path d="m247.484375 512.007812h-145.066406c-14.140625-.023437-25.59375-11.492187-25.597657-25.632812v-8.546875c.011719-33 26.730469-59.765625 59.730469-59.828125h8.535157c23.753906-.027344 45.265624 14.042969 54.757812 35.816406 1.21875 2.796875.851562 6.03125-.960938 8.484375-1.8125 2.449219-4.796874 3.75-7.824218 3.40625-3.03125-.34375-5.648438-2.277343-6.863282-5.074219-6.785156-15.546874-22.144531-25.589843-39.109374-25.566406h-8.535157c-23.578125.054688-42.664062 19.183594-42.664062 42.761719v8.546875c-.007813 4.722656 3.8125 8.554688 8.53125 8.566406h145.066406c4.714844 0 8.535156 3.820313 8.535156 8.535156 0 4.710938-3.820312 8.53125-8.535156 8.53125zm0 0"/><path d="m42.6875 426.675781c-16.835938.007813-32.097656-9.882812-38.96875-25.246093-6.871094-15.367188-4.066406-33.335938 7.160156-45.878907 7.230469-8.09375 13.769532-16.785156 19.539063-25.980469 2.550781-3.867187 7.722656-4.996093 11.648437-2.539062 3.925782 2.457031 5.179688 7.597656 2.820313 11.582031-6.28125 10.007813-13.390625 19.46875-21.257813 28.285157-9.398437 10.554687-8.515625 26.71875 1.972656 36.191406 10.6875 8.996094 26.535157 8.121094 36.167969-1.996094 3.265625-3.683594 6.484375-7.476562 9.542969-11.359375 1.863281-2.464844 4.914062-3.730469 7.972656-3.308594 3.0625.421875 5.65625 2.46875 6.78125 5.347657 1.125 2.878906.605469 6.140624-1.359375 8.527343-3.257812 4.132813-6.691406 8.191407-10.207031 12.160157-8.109375 9.035156-19.671875 14.203124-31.8125 14.214843zm0 0"/><path d="m409.617188 452.277344c-16.832032.007812-32.09375-9.882813-38.964844-25.25-6.871094-15.363282-4.066406-33.335938 7.160156-45.875 28.703125-32.089844 45.507812-73.070313 47.597656-116.078125.226563-4.707031 4.226563-8.339844 8.933594-8.113281 4.707031.222656 8.34375 4.222656 8.117188 8.933593-2.285157 46.910157-20.613282 91.609375-51.917969 126.625-9.382813 10.558594-8.492188 26.707031 1.992187 36.175781 10.691406 8.996094 26.535156 8.117188 36.167969-2.003906 42.011719-47.042968 65.546875-107.71875 66.25-170.789062-.726563-43.378906-12.34375-85.878906-33.785156-123.59375-1.578125-2.652344-1.601563-5.953125-.054688-8.628906 1.542969-2.675782 4.414063-4.308594 7.5-4.265626 3.089844.039063 5.914063 1.746094 7.390625 4.460938 23.105469 40.28125 35.503906 85.808594 36.015625 132.242188-.757812 67.199218-25.839843 131.847656-70.609375 181.96875-8.105468 9.023437-19.660156 14.183593-31.792968 14.191406zm0 0"/><path d="m118.632812 438.367188h-.085937c-1.699219 0-3.363281-.507813-4.773437-1.457032-87.039063-58.769531-125.492188-167.488281-94.757813-267.914062 30.734375-100.421875 123.449219-169.00000025 228.46875-168.9882815 62.617187 0 116.308594 15.6367185 159.574219 46.4687495 2.539062 1.746094 3.941406 4.726563 3.664062 7.796876-.277344 3.070312-2.1875 5.75-4.996094 7.015624-2.8125 1.265626-6.085937.917969-8.566406-.914062-40.324218-28.730469-90.683594-43.300781-149.675781-43.300781-97.453125-.011719-183.503906 63.578125-212.097656 156.742187-28.597657 93.160156 6.953125 194.078125 87.632812 248.742188 3.261719 1.980468 4.808594 5.886718 3.789063 9.566406-1.019532 3.675781-4.359375 6.226562-8.175782 6.242188zm0 0"/><path d="m299.277344 471.984375c-4.335938-.011719-7.976563-3.269531-8.460938-7.582031-.484375-4.308594 2.34375-8.296875 6.570313-9.265625 22.988281-5.265625 44.980469-14.199219 65.132812-26.457031 4.308594-2.683594 8.691407-5.574219 12.914063-8.554688 2.492187-1.757812 5.734375-2.050781 8.5-.773438 2.765625 1.28125 4.640625 3.9375 4.917968 6.976563.273438 3.035156-1.089843 5.988281-3.582031 7.746094-4.492187 3.164062-9.140625 6.242187-13.808593 9.140625-21.738282 13.234375-45.46875 22.875-70.273438 28.550781-.628906.144531-1.269531.21875-1.910156.21875zm0 0"/><path d="m92.046875 118.425781c6.253906-19.335937 21.539063-34.414062 40.960937-40.402343 9.910157-3.117188 20.511719-3.320313 30.535157-.585938 4.84375 1.191406 9.515625 2.996094 13.90625 5.363281 4.1875 2.429688 8.160156 5.21875 11.867187 8.332031 1.144532.90625 1.519532 2.480469.910156 3.804688-.609374 1.328125-2.046874 2.070312-3.480468 1.792969l-.566406-.109375c-4.515626-.867188-8.59375-2.398438-12.777344-3.273438-4.058594-.898437-8.175782-1.515625-12.320313-1.847656-7.847656-.824219-15.785156-.042969-23.320312 2.300781-15.75 5.824219-30.082031 14.933594-42.042969 26.726563l-.152344.136718c-.433594.382813-.996094.574219-1.570312.539063-.574219-.035156-1.113282-.296875-1.492188-.726563-.492187-.5625-.664062-1.335937-.457031-2.050781zm0 0"/><path d="m330.980469 120.527344c-11.957031-11.792969-26.289063-20.902344-42.039063-26.726563-7.539062-2.34375-15.472656-3.125-23.324218-2.300781-4.144532.332031-8.257813.949219-12.316407 1.847656-4.183593.875-8.261719 2.40625-12.78125 3.273438l-.5625.109375c-1.433593.277343-2.871093-.460938-3.480469-1.789063-.609374-1.328125-.234374-2.902344.90625-3.808594 3.710938-3.113281 7.679688-5.902343 11.867188-8.332031 4.390625-2.367187 9.066406-4.171875 13.910156-5.363281 10.023438-2.734375 20.621094-2.53125 30.535156.585938 19.417969 5.988281 34.703126 21.066406 40.957032 40.402343.273437.925781-.097656 1.921875-.910156 2.441407-.8125.519531-1.871094.441406-2.597657-.195313zm0 0"/><path d="m187.753906 213.34375c-2.265625.003906-4.4375-.898438-6.035156-2.5-10.101562-9.035156-23.082031-14.199219-36.632812-14.566406-13.566407.289062-26.574219 5.460937-36.632813 14.566406-3.347656 3.246094-8.679687 3.203125-11.976563-.09375-3.296874-3.296875-3.335937-8.628906-.089843-11.972656 13.285156-12.269532 30.617187-19.234375 48.699219-19.566406 18.082031.332031 35.414062 7.296874 48.699218 19.566406 2.441406 2.441406 3.167969 6.109375 1.847656 9.296875-1.320312 3.1875-4.429687 5.269531-7.878906 5.269531zm0 0"/><path d="m324.285156 213.34375c-2.261718.003906-4.433594-.898438-6.03125-2.5-10.105468-9.035156-23.085937-14.199219-36.636718-14.566406-13.5625.289062-26.570313 5.460937-36.632813 14.566406-3.34375 3.246094-8.679687 3.203125-11.972656-.09375-3.296875-3.296875-3.339844-8.628906-.09375-11.972656 27.226562-26.089844 70.175781-26.089844 97.402343 0 2.4375 2.441406 3.167969 6.109375 1.847657 9.296875-1.320313 3.1875-4.429688 5.269531-7.882813 5.269531zm0 0"/><path d="m213.351562 366.941406c-47.105468-.054687-85.277343-38.226562-85.332031-85.332031v-8.535156c.011719-9.417969 7.644531-17.050781 17.066407-17.066407h136.53125c9.421874.015626 17.054687 7.648438 17.070312 17.066407v8.535156c-.058594 47.105469-38.230469 85.277344-85.335938 85.332031zm-68.265624-93.867187v8.535156c0 37.703125 30.5625 68.265625 68.265624 68.265625 37.703126 0 68.265626-30.5625 68.265626-68.265625v-8.535156zm0 0"/><path d="m196.285156 365.066406c-2.261718.003906-4.433594-.894531-6.035156-2.496094-1.601562-1.601562-2.5-3.773437-2.496094-6.035156v-15.191406c.03125-28.261719 22.933594-51.167969 51.199219-51.199219h49.320313c4.714843 0 8.535156 3.820313 8.535156 8.535157 0 4.710937-3.820313 8.53125-8.535156 8.53125h-49.320313c-18.84375.019531-34.117187 15.289062-34.132813 34.132812v15.191406c0 2.261719-.898437 4.433594-2.5 6.035156-1.601562 1.601563-3.769531 2.5-6.035156 2.496094zm0 0"/><path d="m418.152344 179.210938c-32.972656-.042969-59.695313-26.761719-59.734375-59.734376 0-30.65625 47.917969-84.941406 53.382812-91.03125 1.664063-1.726562 3.957031-2.703124 6.351563-2.703124 2.394531 0 4.6875.976562 6.347656 2.703124 5.46875 6.089844 53.386719 60.375 53.386719 91.03125-.042969 32.972657-26.761719 59.691407-59.734375 59.734376zm0-132.050782c-18.632813 22.109375-42.667969 56.050782-42.667969 72.316406 0 23.5625 19.105469 42.667969 42.667969 42.667969s42.667968-19.105469 42.667968-42.667969c0-16.28125-24.035156-50.214843-42.667968-72.316406zm0 0"/></svg>