<svg height="512pt" viewBox="0 0 512.01808 512" width="512pt" xmlns="http://www.w3.org/2000/svg"><path d="m39.949219 93.082031-30.378907 111.871094c-2.578124 10.207031-.300781 21.035156 6.167969 29.339844 6.472657 8.304687 16.414063 13.160156 26.941407 13.15625h34.304687l1.367187-34.132813h-35.671874l29.269531-108.03125zm0 0" fill="#ff5722"/><path d="m472.09375 93.082031 30.378906 111.871094c2.578125 10.207031.304688 21.035156-6.167968 29.339844-6.46875 8.304687-16.414063 13.160156-26.941407 13.15625h-34.304687l-1.363282-34.132813h35.667969l-29.269531-108.03125zm0 0" fill="#ff5722"/><path d="m435.230469 238.914062c.929687 65.347657-29.976563 127.0625-82.859375 165.464844l-97.28125 72.53125-12.714844-9.640625-82.6875-62.890625c-16.207031-11.371094-30.496094-25.257812-42.324219-41.132812l-22.613281-38.65625c-10.3125-23.449219-16.296875-48.574219-17.664062-74.152344-.171876-3.84375-.257813-7.683594-.257813-11.523438-.007813-8.5.507813-16.992187 1.539063-25.429687 10.835937-91.816406 79.613281-163.753906 164.863281-170.238281 4.265625-.425782 8.53125-.597656 12.800781-.597656 98.984375 0 179.199219 87.894531 179.199219 196.265624zm0 0" fill="#fec108"/><path d="m409.628906 238.914062c.929688 65.347657-29.976562 127.0625-82.859375 165.464844l-84.394531 62.890625-82.6875-62.890625c-16.207031-11.371094-30.496094-25.257812-42.324219-41.132812l-22.613281-38.65625c-10.3125-23.449219-16.296875-48.574219-17.664062-74.152344-.171876-3.84375-.257813-7.683594-.257813-11.523438-.007813-8.5.507813-16.992187 1.539063-25.429687 10.835937-91.816406 79.613281-163.753906 164.863281-170.238281 93.011719 7.082031 166.398437 91.988281 166.398437 195.667968zm0 0" fill="#ffdc00"/><path d="m256.03125 460.78125v25.601562c-.027344 9.414063-7.652344 17.039063-17.066406 17.066407h-102.402344c-9.414062-.027344-17.039062-7.652344-17.066406-17.066407v-25.601562c-.066406-31.339844 24.195312-57.359375 55.46875-59.476562 1.414062-.171876 2.839844-.253907 4.265625-.253907h17.066406c15.84375-.011719 31.046875 6.277344 42.25 17.480469 11.203125 11.207031 17.496094 26.40625 17.484375 42.25zm0 0" fill="#283593"/><path d="m230.429688 460.78125v25.601562c-.027344 9.414063-7.652344 17.039063-17.066407 17.066407h-76.800781c-9.414062-.027344-17.039062-7.652344-17.066406-17.066407v-25.601562c-.066406-31.339844 24.195312-57.359375 55.46875-59.476562 31.269531 2.117187 55.535156 28.136718 55.464844 59.476562zm0 0" fill="#3f51b5"/><path d="m392.5625 460.78125v25.601562c-.027344 9.414063-7.652344 17.039063-17.066406 17.066407h-102.398438c-9.414062-.027344-17.039062-7.652344-17.066406-17.066407v-25.601562c-.070312-31.339844 24.195312-57.359375 55.464844-59.476562 1.417968-.171876 2.839844-.253907 4.265625-.253907h17.066406c15.847656-.011719 31.046875 6.277344 42.253906 17.480469 11.203125 11.207031 17.492188 26.40625 17.480469 42.25zm0 0" fill="#283593"/><path d="m366.964844 460.78125v25.601562c-.027344 9.414063-7.652344 17.039063-17.066406 17.066407h-76.800782c-9.414062-.027344-17.039062-7.652344-17.066406-17.066407v-25.601562c-.070312-31.339844 24.195312-57.359375 55.464844-59.476562 31.273437 2.117187 55.535156 28.136718 55.46875 59.476562zm0 0" fill="#3f51b5"/><path d="m221.898438 166.382812c0-21.207031-7.644532-38.402343-17.070313-38.402343-9.421875 0-17.066406 17.195312-17.066406 38.402343 0 21.207032 7.644531 38.398438 17.066406 38.398438 9.425781 0 17.070313-17.191406 17.070313-38.398438zm0 0" fill="#3f51b5"/><path d="m214.3125 149.316406c0-11.78125-4.246094-21.335937-9.484375-21.335937-5.234375 0-9.480469 9.554687-9.480469 21.335937s4.246094 21.332032 9.480469 21.332032c5.238281 0 9.484375-9.550782 9.484375-21.332032zm0 0" fill="#f5f5f5"/><path d="m324.296875 166.382812c0-21.207031-7.640625-38.402343-17.066406-38.402343s-17.066407 17.195312-17.066407 38.402343c0 21.207032 7.640626 38.398438 17.066407 38.398438s17.066406-17.191406 17.066406-38.398438zm0 0" fill="#3f51b5"/><path d="m316.710938 149.316406c0-11.78125-4.246094-21.335937-9.480469-21.335937-5.238281 0-9.480469 9.554687-9.480469 21.335937s4.242188 21.332032 9.480469 21.332032c5.234375 0 9.480469-9.550782 9.480469-21.332032zm0 0" fill="#f5f5f5"/><path d="m460.234375 102.382812c-8.886719 4.046876-19.007813 4.414063-28.160156 1.023438-13.574219-5.097656-24.5625-15.382812-30.550781-28.585938-11.945313-25.003906-5.035157-53.25 15.445312-62.976562.769531-.339844 1.621094-.683594 2.472656-1.023438 20.054688-7.679687 44.632813 4.605469 56.152344 28.671876 11.945312 25.003906 5.117188 53.164062-15.359375 62.890624zm0 0" fill="#f57c00"/><path d="m434.632812 102.382812c-.824218.414063-1.679687.757813-2.558593 1.023438-13.574219-5.097656-24.5625-15.382812-30.550781-28.585938-11.945313-25.003906-5.035157-53.25 15.445312-62.976562.769531-.339844 1.621094-.683594 2.472656-1.023438 13.546875 5.1875 24.515625 15.480469 30.550782 28.671876 11.945312 25.003906 5.121093 53.164062-15.359376 62.890624zm0 0" fill="#ff9801"/><path d="m36.460938 39.460938c-11.921876 25.003906-5.125 53.179687 15.332031 62.929687 20.457031 9.753906 46.828125-2.609375 58.746093-27.609375 11.921876-25.003906 5-53.175781-15.457031-62.929688-20.453125-9.753906-46.703125 2.609376-58.621093 27.609376zm0 0" fill="#ff9801"/><path d="m230.429688 238.914062h51.199218c18.851563 0 34.132813 15.285157 34.132813 34.136719v51.199219c0 9.425781-7.640625 17.066406-17.066407 17.066406h-85.332031c-9.425781 0-17.066406-7.640625-17.066406-17.066406v-51.199219c0-18.851562 15.28125-34.136719 34.132813-34.136719zm0 0" fill="#bb193b"/><path d="m281.628906 324.25v17.066406h-51.199218v-17.066406c0-14.140625 11.460937-25.601562 25.601562-25.601562 14.136719 0 25.597656 11.460937 25.597656 25.601562zm0 0" fill="#ad1457"/><path d="m281.628906 324.25h-51.199218c0-14.140625 11.460937-25.601562 25.601562-25.601562 14.136719 0 25.597656 11.460937 25.597656 25.601562zm0 0" fill="#e91e63"/><path d="m352.378906 412.910156c-3.726562.003906-7.027344-2.410156-8.148437-5.96875-1.121094-3.554687.195312-7.425781 3.253906-9.5625 50.660156-36.75 80.222656-95.886718 79.210937-158.464844 0-103.515624-76.5625-187.730468-170.664062-187.730468-94.105469 0-170.667969 84.214844-170.667969 187.730468-1.007812 62.578126 28.554688 121.714844 79.210938 158.464844 3.867187 2.699219 4.8125 8.019532 2.113281 11.886719-2.703125 3.863281-8.023438 4.808594-11.886719 2.109375-55.230469-39.945312-87.511719-104.308594-86.503906-172.460938 0-112.925781 84.214844-204.796874 187.734375-204.796874 103.515625 0 187.730469 91.871093 187.730469 204.796874 1.011719 68.152344-31.273438 132.515626-86.503907 172.460938-1.429687 1-3.132812 1.535156-4.878906 1.535156zm0 0"/><path d="m238.964844 511.980469h-102.402344c-14.132812-.011719-25.582031-11.464844-25.597656-25.597657v-25.601562c.042968-37.683594 30.582031-68.222656 68.265625-68.265625h17.066406c37.683594.042969 68.222656 30.582031 68.265625 68.265625v25.601562c-.015625 14.132813-11.46875 25.585938-25.597656 25.597657zm-59.734375-102.398438c-28.265625.03125-51.167969 22.9375-51.199219 51.199219v25.601562c.003906 4.710938 3.820312 8.527344 8.53125 8.53125h102.402344c4.707031-.003906 8.527344-3.820312 8.53125-8.53125v-25.601562c-.03125-28.261719-22.933594-51.167969-51.199219-51.199219zm0 0"/><path d="m256.03125 477.847656h-136.535156c-4.710938 0-8.53125-3.820312-8.53125-8.53125 0-4.714844 3.820312-8.535156 8.53125-8.535156h136.535156c4.710938 0 8.53125 3.820312 8.53125 8.535156 0 4.710938-3.820312 8.53125-8.53125 8.53125zm0 0"/><path d="m375.496094 511.980469h-102.398438c-14.132812-.011719-25.585937-11.464844-25.601562-25.597657v-25.601562c.042968-37.683594 30.582031-68.222656 68.265625-68.265625h17.066406c37.6875.042969 68.226563 30.582031 68.269531 68.265625v25.601562c-.015625 14.132813-11.46875 25.585938-25.601562 25.597657zm-59.734375-102.398438c-28.261719.03125-51.167969 22.9375-51.199219 51.199219v25.601562c.007812 4.710938 3.824219 8.527344 8.535156 8.53125h102.398438c4.710937-.003906 8.527344-3.820312 8.535156-8.53125v-25.601562c-.03125-28.261719-22.9375-51.167969-51.203125-51.199219zm0 0"/><path d="m392.5625 477.847656h-136.53125c-4.714844 0-8.535156-3.820312-8.535156-8.53125 0-4.714844 3.820312-8.535156 8.535156-8.535156h136.53125c4.714844 0 8.535156 3.820312 8.535156 8.535156 0 4.710938-3.820312 8.53125-8.535156 8.53125zm0 0"/><path d="m204.828125 213.316406c-16.808594 0-25.597656-23.613281-25.597656-46.933594 0-23.320312 8.789062-46.933593 25.597656-46.933593 16.8125 0 25.601563 23.613281 25.601563 46.933593 0 23.320313-8.789063 46.933594-25.601563 46.933594zm-.167969-76.820312c-2.050781.773437-8.363281 11.140625-8.363281 29.886718 0 18.746094 6.3125 29.113282 8.703125 29.886719 2.046875-.773437 8.363281-11.140625 8.363281-29.886719 0-18.746093-6.316406-29.113281-8.703125-29.886718zm0 0"/><path d="m307.230469 213.316406c-16.8125 0-25.601563-23.613281-25.601563-46.933594 0-23.320312 8.789063-46.933593 25.601563-46.933593 16.808593 0 25.597656 23.613281 25.597656 46.933593 0 23.320313-8.789063 46.933594-25.597656 46.933594zm-.171875-76.820312c-2.046875.773437-8.363282 11.140625-8.363282 29.886718 0 18.746094 6.316407 29.113282 8.707032 29.886719 2.046875-.773437 8.359375-11.140625 8.359375-29.886719 0-18.746093-6.3125-29.113281-8.703125-29.886718zm0 0"/><path d="m228.777344 96.054688c-9.648438-3.75-20.179688-4.605469-30.300782-2.460938-4.835937 1.554688-9.347656 3.980469-13.3125 7.152344-2.183593 1.539062-3.984374 3.640625-6.207031 5.359375-1.953125 2.019531-3.78125 4.179687-5.945312 6.199219l-.253907.238281c-.933593.871093-2.351562.976562-3.402343.253906-1.054688-.726563-1.460938-2.085937-.980469-3.269531 1.167969-2.871094 2.613281-5.640625 4.035156-8.472656 1.703125-2.730469 3.621094-5.320313 5.734375-7.75 4.539063-5.070313 10.277344-8.917969 16.691407-11.195313 6.59375-2.296875 13.726562-2.542969 20.460937-.707031 6.480469 1.695312 12.316406 5.253906 16.785156 10.242187.820313.941407.917969 2.3125.238281 3.363281-.675781 1.046876-1.964843 1.523438-3.164062 1.164063zm0 0"/><path d="m279.976562 91.644531c4.46875-4.988281 10.304688-8.546875 16.78125-10.242187 6.734376-1.835938 13.871094-1.585938 20.460938.710937 6.414062 2.273438 12.15625 6.121094 16.695312 11.195313 2.109376 2.425781 4.027344 5.015625 5.730469 7.746094 1.421875 2.832031 2.867188 5.601562 4.035157 8.472656.480468 1.183594.074218 2.542968-.976563 3.265625-1.050781.726562-2.46875.625-3.402344-.246094l-.257812-.242187c-2.160157-2.015626-3.988281-4.179688-5.941407-6.199219-2.21875-1.71875-4.023437-3.820313-6.207031-5.355469-3.964843-3.175781-8.476562-5.601562-13.3125-7.152344-10.125-2.148437-20.652343-1.292968-30.300781 2.457032l-.378906.117187c-1.195313.359375-2.488282-.113281-3.167969-1.160156-.675781-1.050781-.578125-2.421875.238281-3.363281zm0 0"/><path d="m445.289062 114.285156c-7.359374-.0625-14.609374-1.75-21.238281-4.941406-13.339843-6.503906-24.023437-17.417969-30.25-30.890625-13.925781-29.207031-5.183593-62.539063 19.484375-74.308594 24.664063-11.765625 56.078125 2.433594 70.003906 31.644531 6.542969 13.289063 8.332032 28.421876 5.0625 42.871094-2.902343 13.664063-11.902343 25.246094-24.429687 31.433594-5.820313 2.773438-12.1875 4.207031-18.632813 4.191406zm-13.335937-97.253906c-3.914063-.019531-7.785156.84375-11.324219 2.523438-16.171875 7.710937-21.296875 30.839843-11.417968 51.554687 4.523437 9.910156 12.328124 17.957031 22.09375 22.785156 7.867187 4.09375 17.164062 4.382813 25.269531.792969 7.863281-4.015625 13.457031-11.402344 15.191406-20.054688 2.34375-10.636718.972656-21.753906-3.886719-31.5-6.128906-14.753906-20-24.832031-35.925781-26.101562zm0 0"/><path d="m469.363281 221.847656h-35.667969c-4.714843 0-8.535156-3.820312-8.535156-8.53125 0-4.714844 3.820313-8.535156 8.535156-8.535156h24.515626l-26.355469-97.265625c-.796875-2.941406.035156-6.085937 2.183593-8.25 2.148438-2.164063 5.289063-3.015625 8.238282-2.234375 2.949218.78125 5.253906 3.074219 6.054687 6.015625l29.269531 108.035156c.695313 2.5625.15625 5.308594-1.460937 7.417969-1.613281 2.109375-4.121094 3.347656-6.777344 3.347656zm0 0"/><path d="m469.363281 255.980469h-34.304687c-4.710938 0-8.53125-3.820313-8.53125-8.53125 0-4.714844 3.820312-8.535157 8.53125-8.535157h34.304687c7.917969.007813 15.390625-3.652343 20.246094-9.90625 4.851563-6.257812 6.535156-14.40625 4.5625-22.074218l-30.3125-111.617188c-1.234375-4.546875 1.449219-9.234375 5.996094-10.472656 4.546875-1.234375 9.238281 1.449219 10.472656 5.996094l30.378906 111.875c3.261719 12.898437.363281 26.585937-7.851562 37.058594-8.082031 10.257812-20.429688 16.234374-33.492188 16.207031zm0 0"/><path d="m66.753906 114.285156c-6.445312.015625-12.816406-1.417968-18.636718-4.191406-12.523438-6.1875-21.523438-17.769531-24.425782-31.433594-3.265625-14.449218-1.480468-29.582031 5.0625-42.871094 13.929688-29.210937 45.34375-43.382812 70-31.644531 24.671875 11.765625 33.414063 45.101563 19.488282 74.308594-6.222657 13.472656-16.910157 24.386719-30.25 30.890625-6.628907 3.191406-13.878907 4.878906-21.238282 4.941406zm-22.589844-71.152344c-4.859374 9.746094-6.230468 20.863282-3.886718 31.5 1.734375 8.652344 7.328125 16.035157 15.1875 20.050782 8.109375 3.59375 17.40625 3.300781 25.273437-.789063 9.769531-4.824219 17.574219-12.871093 22.097657-22.785156 9.878906-20.714844 4.753906-43.84375-11.425782-51.558594-16.160156-7.726562-37.371094 2.871094-47.246094 23.582031zm0 0"/><path d="m78.351562 221.847656h-35.671874c-2.65625 0-5.164063-1.234375-6.777344-3.347656-1.617188-2.109375-2.15625-4.851562-1.460938-7.417969l29.269532-108.03125c1.234374-4.550781 5.921874-7.238281 10.472656-6.003906 4.550781 1.234375 7.238281 5.921875 6.003906 10.472656l-26.351562 97.261719h24.515624c4.710938 0 8.53125 3.820312 8.53125 8.535156 0 4.710938-3.820312 8.53125-8.53125 8.53125zm0 0"/><path d="m76.984375 255.980469h-34.304687c-13.140626.003906-25.546876-6.042969-33.636719-16.398438-8.085938-10.351562-10.953125-23.855469-7.769531-36.605469l30.445312-112.132812c1.234375-4.546875 5.921875-7.230469 10.472656-5.996094 4.546875 1.234375 7.230469 5.925782 5.996094 10.472656l-30.378906 111.871094c-1.878906 7.640625-.140625 15.722656 4.714844 21.917969 4.851562 6.191406 12.285156 9.808594 20.15625 9.804687h34.304687c4.710937 0 8.53125 3.820313 8.53125 8.535157 0 4.710937-3.820313 8.53125-8.53125 8.53125zm0 0"/><path d="m298.695312 349.847656h-85.332031c-14.132812-.015625-25.585937-11.464844-25.601562-25.597656v-51.199219c.03125-23.554687 19.117187-42.640625 42.667969-42.667969h51.199218c23.554688.027344 42.640625 19.113282 42.667969 42.667969v51.199219c-.015625 14.132812-11.46875 25.582031-25.601563 25.597656zm-68.265624-102.398437c-14.132813.015625-25.585938 11.46875-25.601563 25.601562v51.199219c.007813 4.710938 3.824219 8.527344 8.535156 8.53125h85.332031c4.710938-.003906 8.527344-3.820312 8.535157-8.53125v-51.199219c-.015625-14.132812-11.46875-25.585937-25.601563-25.601562zm0 0"/><path d="m281.628906 349.847656c-4.710937 0-8.53125-3.820312-8.53125-8.53125v-17.066406c0-9.425781-7.640625-17.066406-17.066406-17.066406s-17.066406 7.640625-17.066406 17.066406v17.066406c0 4.710938-3.820313 8.53125-8.535156 8.53125-4.710938 0-8.53125-3.820312-8.53125-8.53125v-17.066406c0-18.851562 15.28125-34.132812 34.132812-34.132812s34.132812 15.28125 34.132812 34.132812v17.066406c0 4.710938-3.820312 8.53125-8.535156 8.53125zm0 0"/></svg>