<svg height="511pt" viewBox="0 -17 511.92915 511" width="511pt" xmlns="http://www.w3.org/2000/svg"><path d="m76.953125 216.785156-34.21875 14.675782 19.203125 48.640624-29.101562 19.199219-21.84375-55.292969c-6.867188-17.15625 1.25-36.648437 18.261718-43.863281l44.542969-19.113281c1.417969-.597656 2.910156-1 4.4375-1.195312zm0 0" fill="#ff5722"/><path d="m434.972656 216.785156 34.21875 14.675782-19.199218 48.640624 29.097656 19.199219 21.847656-55.292969c6.863281-17.15625-1.253906-36.648437-18.261719-43.863281l-44.546875-19.113281c-1.417968-.597656-2.910156-1-4.4375-1.195312zm0 0" fill="#ff5722"/><path d="m435.097656 205.265625c.929688 65.34375-29.976562 127.0625-82.859375 165.460937l-97.277343 72.53125-12.714844-9.640624-82.6875-62.890626c-16.210938-11.371093-30.496094-25.253906-42.328125-41.132812l-22.613281-38.65625c-10.308594-23.449219-16.292969-48.570312-17.664063-74.152344-.167969-3.839844-.253906-7.679687-.253906-11.519531-.007813-8.5.503906-16.992187 1.535156-25.429687 10.835937-91.820313 79.617187-163.753907 164.863281-170.242188 4.269532-.425781 8.535156-.597656 12.800782-.597656 98.988281 0 179.199218 87.894531 179.199218 196.269531zm0 0" fill="#fec108"/><path d="m409.5 205.265625c.929688 65.34375-29.976562 127.0625-82.859375 165.460937l-84.394531 62.890626-82.6875-62.890626c-16.210938-11.371093-30.496094-25.253906-42.328125-41.132812l-22.613281-38.65625c-10.308594-23.449219-16.292969-48.570312-17.664063-74.152344-.167969-3.839844-.253906-7.679687-.253906-11.519531-.007813-8.5.503906-16.992187 1.535156-25.429687 10.835937-91.820313 79.617187-163.753907 164.863281-170.242188 93.015625 7.085938 166.402344 91.992188 166.402344 195.671875zm0 0" fill="#ffdc00"/><path d="m255.898438 427.132812v25.597657c-.027344 9.414062-7.652344 17.039062-17.066407 17.066406h-102.398437c-9.414063-.027344-17.039063-7.652344-17.066406-17.066406v-25.597657c-.070313-31.34375 24.195312-57.363281 55.464843-59.480468 1.414063-.167969 2.839844-.253906 4.265625-.253906h17.066406c15.847657-.011719 31.046876 6.277343 42.253907 17.480468 11.203125 11.207032 17.492187 26.40625 17.480469 42.253906zm0 0" fill="#283593"/><path d="m230.296875 427.132812v25.597657c-.027344 9.414062-7.652344 17.039062-17.066406 17.066406h-76.796875c-9.414063-.027344-17.039063-7.652344-17.066406-17.066406v-25.597657c-.070313-31.34375 24.195312-57.363281 55.464843-59.480468 31.269531 2.117187 55.535157 28.136718 55.464844 59.480468zm0 0" fill="#3f51b5"/><path d="m392.433594 427.132812v25.597657c-.027344 9.414062-7.652344 17.039062-17.066406 17.066406h-102.402344c-9.414063-.027344-17.039063-7.652344-17.066406-17.066406v-25.597657c-.070313-31.34375 24.195312-57.363281 55.46875-59.480468 1.414062-.167969 2.839843-.253906 4.265624-.253906h17.066407c15.84375-.011719 31.046875 6.277343 42.25 17.480468 11.203125 11.207032 17.496093 26.40625 17.484375 42.253906zm0 0" fill="#283593"/><path d="m366.832031 427.132812v25.597657c-.027343 9.414062-7.652343 17.039062-17.066406 17.066406h-76.800781c-9.414063-.027344-17.039063-7.652344-17.066406-17.066406v-25.597657c-.070313-31.34375 24.195312-57.363281 55.46875-59.480468 31.269531 2.117187 55.535156 28.136718 55.464843 59.480468zm0 0" fill="#3f51b5"/><path d="m105.753906 302.121094c-16.804687-22.019532-45.03125-28.722656-63.046875-14.972656s-18.996093 42.746093-2.191406 64.765624c16.804687 22.015626 45.03125 28.71875 63.046875 14.972657 18.015625-13.75 18.996094-42.746094 2.191406-64.765625zm0 0" fill="#ff9801"/><path d="m471.449219 351.953125c-11.78125 17.347656-33.21875 25.378906-53.503907 20.054687-3.449218-1.160156-6.679687-2.890624-9.554687-5.121093-18.007813-13.738281-19.03125-42.753907-2.21875-64.769531 7.011719-9.398438 16.757813-16.402344 27.902344-20.050782 11.847656-4.183594 24.996093-2.269531 35.15625 5.117188 18.007812 13.738281 18.945312 42.667968 2.21875 64.769531zm0 0" fill="#f57c00"/><path d="m445.851562 351.953125c-7.03125 9.378906-16.773437 16.378906-27.90625 20.054687-3.449218-1.160156-6.679687-2.890624-9.554687-5.121093-18.007813-13.738281-19.03125-42.753907-2.21875-64.769531 7.011719-9.398438 16.757813-16.402344 27.902344-20.050782 3.453125 1.15625 6.683593 2.886719 9.558593 5.117188 18.003907 13.738281 18.941407 42.667968 2.21875 64.769531zm0 0" fill="#ff9801"/><path d="m221.765625 140.347656c0-21.207031-7.640625-38.398437-17.066406-38.398437s-17.066407 17.191406-17.066407 38.398437c0 21.207032 7.640626 38.402344 17.066407 38.402344s17.066406-17.195312 17.066406-38.402344zm0 0" fill="#3f51b5"/><path d="m214.382812 123.738281c0-12.035156-4.335937-21.789062-9.683593-21.789062-5.347657 0-9.6875 9.753906-9.6875 21.789062 0 12.035157 4.339843 21.792969 9.6875 21.792969 5.347656 0 9.683593-9.757812 9.683593-21.792969zm0 0" fill="#f5f5f5"/><path d="m324.164062 140.347656c0-21.207031-7.640624-38.398437-17.066406-38.398437-9.425781 0-17.066406 17.191406-17.066406 38.398437 0 21.207032 7.640625 38.402344 17.066406 38.402344 9.425782 0 17.066406-17.195312 17.066406-38.402344zm0 0" fill="#3f51b5"/><path d="m316.785156 123.738281c0-12.035156-4.335937-21.789062-9.6875-21.789062-5.347656 0-9.683594 9.753906-9.683594 21.789062 0 12.035157 4.335938 21.792969 9.683594 21.792969 5.351563 0 9.6875-9.757812 9.6875-21.792969zm0 0" fill="#f5f5f5"/><path d="m159.550781 379.257812c-1.742187.003907-3.441406-.535156-4.867187-1.535156-16.960938-11.878906-31.910156-26.398437-44.277344-43.007812-1.828125-2.4375-2.21875-5.667969-1.023438-8.472656 1.199219-2.800782 3.800782-4.753907 6.828126-5.117188 3.027343-.367188 6.019531.910156 7.847656 3.351562 11.28125 15.148438 24.910156 28.402344 40.375 39.253907 3.054687 2.132812 4.375 6 3.257812 9.554687-1.121094 3.554688-4.414062 5.972656-8.140625 5.972656zm0 0"/><path d="m352.25 379.257812c-3.730469.003907-7.027344-2.414062-8.148438-5.96875-1.121093-3.554687.199219-7.425781 3.253907-9.558593 15.570312-10.882813 29.25-24.238281 40.5-39.539063 2.796875-3.796875 8.136719-4.609375 11.933593-1.816406 3.796876 2.792969 4.613282 8.136719 1.816407 11.933594-12.355469 16.804687-27.382813 31.46875-44.480469 43.414062-1.429688 1-3.132812 1.539063-4.875 1.535156zm0 0"/><path d="m417.082031 299.648438c-2.890625-.003907-5.582031-1.46875-7.152343-3.894532-1.570313-2.425781-1.808594-5.480468-.628907-8.117187 9.980469-22.535157 15.753907-46.707031 17.023438-71.316407.15625-3.632812.242187-7.34375.242187-11.054687.007813-8.148437-.480468-16.292969-1.46875-24.378906-10.972656-93.152344-83.714844-163.355469-169.199218-163.355469-85.484376 0-158.226563 70.203125-169.191407 163.304688-.992187 8.105468-1.484375 16.261718-1.476562 24.429687 0 3.710937.085937 7.421875.25 11.132813 1.300781 24.527343 7.039062 48.617187 16.941406 71.09375 1.234375 2.789062.882813 6.023437-.917969 8.484374-1.800781 2.460938-4.777344 3.777344-7.808594 3.449219-3.03125-.332031-5.65625-2.25-6.886718-5.039062-10.742188-24.386719-16.964844-50.523438-18.367188-77.132813-.191406-4.054687-.277344-8.019531-.277344-11.988281-.007812-8.851563.527344-17.695313 1.601563-26.480469 11.976563-101.636718 91.992187-178.320312 186.132813-178.320312 94.140624 0 174.160156 76.683594 186.140624 178.371094 1.070313 8.769531 1.601563 17.59375 1.59375 26.429687 0 3.96875-.089843 7.9375-.265624 11.90625-1.371094 26.71875-7.636719 52.957031-18.484376 77.414063-1.371093 3.078124-4.429687 5.0625-7.800781 5.0625zm0 0"/><path d="m238.832031 478.332031h-102.398437c-14.132813-.015625-25.585938-11.46875-25.601563-25.601562v-25.597657c.042969-37.6875 30.582031-68.226562 68.265625-68.269531h17.066406c37.6875.042969 68.226563 30.582031 68.269532 68.269531v25.597657c-.015625 14.132812-11.46875 25.585937-25.601563 25.601562zm-59.734375-102.402343c-28.261718.03125-51.167968 22.9375-51.199218 51.203124v25.597657c.003906 4.710937 3.824218 8.53125 8.535156 8.535156h102.398437c4.710938-.003906 8.527344-3.824219 8.535157-8.535156v-25.597657c-.03125-28.265624-22.9375-51.171874-51.203126-51.203124zm0 0"/><path d="m255.898438 444.199219h-136.53125c-4.714844 0-8.535157-3.820313-8.535157-8.535157 0-4.710937 3.820313-8.53125 8.535157-8.53125h136.53125c4.714843 0 8.535156 3.820313 8.535156 8.53125 0 4.714844-3.820313 8.535157-8.535156 8.535157zm0 0"/><path d="m375.367188 478.332031h-102.402344c-14.132813-.015625-25.582032-11.46875-25.597656-25.601562v-25.597657c.042968-37.6875 30.582031-68.226562 68.265624-68.269531h17.066407c37.683593.042969 68.222656 30.582031 68.265625 68.269531v25.597657c-.015625 14.132812-11.46875 25.585937-25.597656 25.601562zm-59.734376-102.402343c-28.265624.03125-51.167968 22.9375-51.199218 51.203124v25.597657c.003906 4.710937 3.820312 8.53125 8.53125 8.535156h102.402344c4.710937-.003906 8.527343-3.824219 8.53125-8.535156v-25.597657c-.03125-28.265624-22.9375-51.171874-51.199219-51.203124zm0 0"/><path d="m392.433594 444.199219h-136.535156c-4.710938 0-8.53125-3.820313-8.53125-8.535157 0-4.710937 3.820312-8.53125 8.53125-8.53125h136.535156c4.710937 0 8.53125 3.820313 8.53125 8.53125 0 4.714844-3.820313 8.535157-8.53125 8.535157zm0 0"/><path d="m81.800781 382.507812c-19.085937-.609374-36.820312-9.988281-48.070312-25.417968-9.140625-11.667969-13.980469-26.128906-13.707031-40.949219.070312-13.972656 6.519531-27.148437 17.507812-35.777344 21.734375-16.578125 55.378906-9.136719 75.007812 16.582031 19.625 25.71875 17.925782 60.136719-3.800781 76.71875-7.753906 5.84375-17.230469 8.953126-26.9375 8.84375zm-17.183593-93.996093c-6.027344-.097657-11.910157 1.808593-16.734376 5.417969-6.878906 5.558593-10.855468 13.941406-10.800781 22.785156-.140625 10.882812 3.464844 21.480468 10.21875 30.011718 13.921875 18.25 36.839844 24.234376 51.089844 13.371094 14.25-10.863281 14.5-34.558594.582031-52.804687v.003906c-7.980468-11.183594-20.636718-18.101563-34.355468-18.785156zm0 0"/><path d="m24.90625 302.441406-21.851562-55.296875c-8.597657-21.449219 1.554687-45.832031 22.835937-54.839843l44.542969-19.113282c2.171875-.914062 4.460937-1.53125 6.800781-1.828125l2 16.949219c-.746094.109375-1.472656.3125-2.167969.605469l-44.441406 19.066406c-12.757812 5.40625-18.84375 20.019531-13.695312 32.878906l21.847656 55.296875zm0 0"/><path d="m54 283.234375-19.199219-48.640625c-1.703125-4.289062.324219-9.15625 4.566407-10.972656l34.222656-14.679688 6.734375 15.683594-26.609375 11.410156 16.152344 40.933594zm0 0"/><path d="m430.132812 382.507812c-9.710937.113282-19.1875-2.996093-26.941406-8.839843-10.988281-8.628907-17.4375-21.800781-17.507812-35.773438-.273438-14.820312 4.566406-29.28125 13.707031-40.949219 19.625-25.71875 53.273437-33.167968 75.007813-16.582031 21.734374 16.589844 23.425781 51 3.800781 76.722657-11.246094 15.429687-28.984375 24.808593-48.066407 25.421874zm17.183594-93.996093c-13.722656.679687-26.382812 7.605469-34.359375 18.789062-6.75 8.535157-10.359375 19.132813-10.214843 30.015625-.054688 8.839844 3.917968 17.226563 10.796874 22.78125 14.242188 10.855469 37.167969 4.890625 51.09375-13.371094 13.914063-18.238281 13.65625-41.925781-.582031-52.800781-4.824219-3.605469-10.710937-5.511719-16.734375-5.414062zm0 0"/><path d="m487.023438 302.433594-15.867188-6.265625 21.847656-55.296875c5.152344-12.863282-.933594-27.484375-13.691406-32.890625l-44.546875-19.109375c-.664063-.273438-1.359375-.460938-2.074219-.5625l2-16.949219c2.308594.289063 4.5625.890625 6.710938 1.789063l44.640625 19.152343c21.28125 9.011719 31.433593 33.402344 22.824219 54.851563zm0 0"/><path d="m457.921875 283.234375-15.863281-6.265625 16.148437-40.933594-26.601562-11.410156 6.734375-15.679688 34.21875 14.675782c4.242187 1.820312 6.265625 6.683594 4.566406 10.976562zm0 0"/><path d="m204.699219 187.28125c-16.8125 0-25.601563-23.613281-25.601563-46.933594 0-23.320312 8.789063-46.933594 25.601563-46.933594 16.808593 0 25.597656 23.613282 25.597656 46.933594 0 23.320313-8.789063 46.933594-25.597656 46.933594zm-.171875-76.820312c-2.046875.773437-8.363282 11.140624-8.363282 29.886718s6.308594 29.113282 8.707032 29.886719c2.046875-.773437 8.359375-11.140625 8.359375-29.886719s-6.308594-29.113281-8.703125-29.886718zm0 0"/><path d="m307.097656 187.28125c-16.808594 0-25.597656-23.613281-25.597656-46.933594 0-23.320312 8.789062-46.933594 25.597656-46.933594 16.8125 0 25.601563 23.613282 25.601563 46.933594 0 23.320313-8.789063 46.933594-25.601563 46.933594zm-.167968-76.820312c-2.050782.773437-8.363282 11.140624-8.363282 29.886718s6.308594 29.113282 8.703125 29.886719c2.046875-.773437 8.363281-11.140625 8.363281-29.886719s-6.308593-29.113281-8.703124-29.886718zm0 0"/><path d="m228.644531 86.167969c-9.644531-3.75-20.175781-4.605469-30.300781-2.457031-4.835938 1.554687-9.347656 3.976562-13.3125 7.152343-2.179688 1.535157-3.980469 3.636719-6.203125 5.355469-1.953125 2.019531-3.78125 4.183594-5.945313 6.203125l-.253906.234375c-.9375.871094-2.351562.976562-3.402344.253906-1.054687-.726562-1.460937-2.085937-.980468-3.269531 1.167968-2.871094 2.613281-5.636719 4.035156-8.472656 1.703125-2.730469 3.621094-5.320313 5.734375-7.746094 4.539063-5.070313 10.277344-8.921875 16.691406-11.195313 6.59375-2.296874 13.726563-2.542968 20.460938-.707031 6.476562 1.691407 12.316406 5.253907 16.78125 10.238281.824219.941407.921875 2.3125.246093 3.363282-.679687 1.050781-1.96875 1.527344-3.167968 1.164062zm0 0"/><path d="m279.84375 57.078125c4.46875-4.988281 10.304688-8.550781 16.78125-10.242187 6.738281-1.835938 13.871094-1.589844 20.464844.707031 6.414062 2.273437 12.152344 6.125 16.691406 11.195312 2.113281 2.425781 4.027344 5.015625 5.730469 7.746094 1.425781 2.835937 2.871093 5.601563 4.039062 8.472656.480469 1.183594.074219 2.542969-.980469 3.269531-1.050781.722657-2.464843.621094-3.402343-.25l-.253907-.238281c-2.164062-2.015625-3.992187-4.179687-5.945312-6.203125-2.21875-1.714844-4.023438-3.816406-6.203125-5.355468-3.964844-3.175782-8.476563-5.597657-13.3125-7.152344-10.125-2.144532-20.65625-1.292969-30.300781 2.460937l-.378906.113281c-1.195313.363282-2.488282-.113281-3.164063-1.160156-.679687-1.046875-.582031-2.417968.234375-3.363281zm0 0"/><path d="m307.097656 273.53125c-4.710937 0-8.53125-3.820312-8.53125-8.535156-.015625-14.128906-11.46875-25.582032-25.601562-25.597656h-68.265625c-4.714844 0-8.535157-3.820313-8.535157-8.535157 0-4.710937 3.820313-8.53125 8.535157-8.53125h68.265625c23.554687.027344 42.640625 19.113281 42.667968 42.664063 0 4.714844-3.820312 8.535156-8.535156 8.535156zm0 0"/><path d="m238.832031 273.53125h-8.535156c-4.710937 0-8.53125-3.820312-8.53125-8.535156 0-4.710938 3.820313-8.53125 8.53125-8.53125h8.535156c4.710938 0 8.535157 3.820312 8.535157 8.53125 0 4.714844-3.824219 8.535156-8.535157 8.535156zm0 0"/></svg>