<svg height="512pt" viewBox="0 0 512.0112 512" width="512pt" xmlns="http://www.w3.org/2000/svg"><path d="m78.007812 395.03125c-3.160156 4.011719-6.488281 7.933594-9.902343 11.777344-12.605469 13.945312-34.113281 15.078125-48.113281 2.535156-14-12.546875-15.226563-34.050781-2.742188-48.105469 7.546875-8.453125 14.371094-17.53125 20.394531-27.136719zm0 0" fill="#ff9801"/><path d="m247.476562 8.554688c-101.269531-.015626-190.675781 66.109374-220.3125 162.949218-29.640624 96.839844 7.441407 201.675782 91.375 258.34375h.085938l69.121094 48.042969v8.53125c.027344 9.414063 7.652344 17.039063 17.066406 17.066406h145.066406c9.414063-.027343 17.039063-7.652343 17.066406-17.066406v-50.429687c.765626-.511719 1.535157-.941407 2.304688-1.453126 3.753906-2.386718 7.507812-4.863281 11.09375-7.421874.007812.089843.039062.175781.082031.253906 1.058594 2.222656 2.570313 4.199218 4.4375 5.804687.597657.597657 1.28125 1.277344 1.964844 1.875 1.257813 1.097657 2.597656 2.097657 4.007813 2.988281.6875.5625 1.429687 1.046876 2.21875 1.449219.800781.449219 1.628906.847657 2.476562 1.195313.691406.335937 1.402344.621094 2.132812.855468 1.109376.425782 2.21875.765626 3.328126 1.109376 2.8125.75 5.710937 1.121093 8.617187 1.109374 9.707031.011719 18.960937-4.117187 25.429687-11.351562 43.410157-48.574219 67.726563-111.242188 68.4375-176.382812 1.023438-76.800782-51.199218-247.46875-256-247.46875zm0 0" fill="#f0c419"/><path d="m503.476562 256.023438c-.710937 65.140624-25.027343 127.808593-68.4375 176.382812-6.46875 7.234375-15.722656 11.363281-25.429687 11.351562-2.90625.011719-5.804687-.359374-8.617187-1.109374-1.109376-.34375-2.21875-.683594-3.328126-1.109376-.730468-.234374-1.441406-.519531-2.132812-.855468-.847656-.347656-1.675781-.746094-2.476562-1.195313-.789063-.402343-1.53125-.886719-2.21875-1.449219-1.410157-.890624-2.75-1.890624-4.007813-2.988281-.683594-.597656-1.367187-1.277343-1.964844-1.875-1.867187-1.605469-3.378906-3.582031-4.4375-5.804687-.042969-.078125-.074219-.164063-.082031-.253906-3.585938 2.558593-7.339844 5.035156-11.09375 7.421874-.769531.511719-1.539062.941407-2.304688 1.453126-20.9375 12.726562-43.785156 22.003906-67.671874 27.476562h-.253907l-.339843-2.644531c-8.617188-20.695313-28.789063-34.210938-51.203126-34.304688h-8.53125c-20.351562.027344-38.765624 12.078125-46.933593 30.71875-.6875 1.617188-1.285157 3.269531-1.792969 4.949219-1.648438 5.042969-2.484375 10.3125-2.472656 15.617188v.085937l-69.121094-48.042969h-.085938c-83.933593-56.667968-121.015624-161.503906-91.375-258.34375 29.636719-96.839844 119.042969-162.964844 220.3125-162.949218 204.800782 0 257.023438 170.667968 256 247.46875zm0 0" fill="#ffdc00"/><path d="m380.34375 427.117188c-3.585938 2.558593-7.339844 5.035156-11.09375 7.421874-13.527344-12.691406-14.472656-33.851562-2.136719-47.699218 26.3125-29.355469 43.144531-65.972656 48.292969-105.054688 1.207031-9.3125 9.132812-16.285156 18.523438-16.289062-2.128907 44.964844-19.699219 87.820312-49.746094 121.34375-9.945313 11.144531-11.5 27.453125-3.839844 40.277344zm0 0" fill="#fec108"/><path d="m192.011719 457.238281c-8.152344-18.652343-26.578125-30.703125-46.933594-30.695312h-8.535156c-28.292969.046875-51.203125 23.003906-51.199219 51.296875v8.550781c.019531 9.421875 7.644531 17.0625 17.066406 17.097656h145.066406zm0 0" fill="#3f51b5"/><path d="m366.945312 435.992188v50.429687c-.027343 9.414063-7.652343 17.039063-17.066406 17.066406h-145.066406c-9.414062-.027343-17.039062-7.652343-17.066406-17.066406v-8.617187c-.011719-5.304688.824218-10.574219 2.472656-15.617188.507812-1.679688 1.105469-3.332031 1.792969-4.949219 8.167969-18.640625 26.582031-30.691406 46.933593-30.71875h8.53125c22.414063.09375 42.585938 13.609375 51.203126 34.304688l.59375 2.644531c23.886718-5.472656 46.734374-14.75 67.671874-27.476562zm0 0" fill="#3f51b5"/><path d="m380.425781 427.371094c1.300781 2.066406 2.785157 4.007812 4.4375 5.804687-1.867187-1.605469-3.378906-3.582031-4.4375-5.804687zm0 0" fill="#f0c419"/><path d="m366.945312 435.992188v17.066406c-15.941406 9.6875-33.011718 17.390625-50.824218 22.933594-3.960938 1.199218-8.253906.449218-11.578125-2.019532-3.320313-2.46875-5.273438-6.367187-5.269531-10.503906 23.886718-5.472656 46.734374-14.75 67.671874-27.476562zm0 0" fill="#283593"/><path d="m238.945312 349.875h42.664063c4.710937-.015625 8.523437-3.828125 8.535156-8.535156v-8.535156c0-42.414063-34.382812-76.796876-76.800781-76.796876-42.414062 0-76.800781 34.382813-76.800781 76.796876v8.535156c.015625 4.707031 3.828125 8.519531 8.535156 8.535156zm0 0" fill="#bb193b"/><path d="m290.144531 332.824219v8.53125c-.011719 4.707031-3.824219 8.519531-8.535156 8.535156h-42.664063v8.53125c0 9.054687-3.59375 17.738281-9.996093 24.140625-6.402344 6.402344-15.085938 9.996094-24.136719 9.992188-2.882812.027343-5.753906-.347657-8.535156-1.109376-5.890625-1.539062-11.277344-4.601562-15.617188-8.875-6.378906-6.417968-9.964844-15.097656-9.980468-24.148437v-17.066406c.007812-23.558594 19.105468-42.65625 42.664062-42.667969h68.78125c5.28125 10.605469 8.027344 22.289062 8.019531 34.136719zm0 0" fill="#ad1457"/><path d="m273.078125 332.824219v8.53125c-.015625 4.707031-3.828125 8.519531-8.535156 8.535156h-42.664063v8.53125c.011719 15.566406-10.523437 29.160156-25.601562 33.023437-5.890625-1.539062-11.277344-4.601562-15.617188-8.875-6.378906-6.417968-9.964844-15.097656-9.980468-24.148437v-17.066406c.007812-23.558594 19.105468-42.65625 42.664062-42.667969h51.710938c5.285156 10.605469 8.03125 22.289062 8.023437 34.136719zm0 0" fill="#e91e63"/><path d="m503.476562 256.023438c-.710937 65.140624-25.027343 127.808593-68.4375 176.382812-6.46875 7.234375-15.722656 11.363281-25.429687 11.351562-2.90625.011719-5.804687-.359374-8.617187-1.109374-1.109376-.34375-2.21875-.683594-3.328126-1.109376-.300781-.0625-.589843-.179687-.851562-.34375 4.847656-1.878906 9.179688-4.894531 12.628906-8.789062 43.40625-48.574219 67.722656-111.242188 68.4375-176.382812 1.023438-74.921876-48.726562-239.277344-241.496094-247.125 3.671876-.257813 7.339844-.34375 11.09375-.34375 204.800782 0 257.023438 170.667968 256 247.46875zm0 0" fill="#fec108"/><path d="m366.945312 435.992188v50.429687c-.027343 9.414063-7.652343 17.039063-17.066406 17.066406h-25.601562c9.414062-.027343 17.039062-7.652343 17.066406-17.066406v-37.035156c8.808594-3.917969 17.359375-8.394531 25.601562-13.394531zm0 0" fill="#283593"/><path d="m349.878906 512.003906h-145.066406c-14.132812-.015625-25.585938-11.464844-25.601562-25.597656v-8.621094c-.007813-6.203125.972656-12.371094 2.902343-18.269531.578125-1.90625 1.257813-3.78125 2.035157-5.613281 9.507812-21.796875 31.015624-35.902344 54.796874-35.933594h8.53125c26.035157.015625 49.460938 15.820312 59.230469 39.953125 1.085938 2.882813.535157 6.125-1.441406 8.484375-1.976563 2.363281-5.074219 3.476562-8.101563 2.914062-3.027343-.5625-5.515624-2.710937-6.515624-5.625-7.355469-17.332031-24.339844-28.609374-43.171876-28.660156h-8.53125c-16.96875.019532-32.320312 10.070313-39.121093 25.617188-.546875 1.296875-1.023438 2.621094-1.429688 3.96875-1.402343 4.25-2.117187 8.695312-2.117187 13.167968v8.617188c.007812 4.710938 3.824218 8.527344 8.535156 8.535156h145.066406c4.710938-.007812 8.527344-3.824218 8.53125-8.535156v-50.429688c0-4.714843 3.820313-8.535156 8.535156-8.535156 4.710938 0 8.53125 3.820313 8.53125 8.535156v50.429688c-.015624 14.132812-11.46875 25.582031-25.597656 25.597656zm0 0"/><path d="m247.476562 512.003906h-145.066406c-14.140625-.023437-25.59375-11.492187-25.597656-25.632812v-8.546875c.007812-33.003907 26.730469-59.769531 59.730469-59.832031h8.535156c23.757813-.023438 45.265625 14.046874 54.757813 35.820312 1.878906 4.324219-.097657 9.351562-4.421876 11.230469-4.320312 1.882812-9.347656-.097657-11.226562-4.421875-6.785156-15.542969-22.148438-25.585938-39.109375-25.5625h-8.535156c-23.578125.054687-42.664063 19.183594-42.664063 42.765625v8.546875c-.003906 4.722656 3.8125 8.554687 8.53125 8.566406h145.066406c4.714844 0 8.535157 3.820312 8.535157 8.535156 0 4.710938-3.820313 8.53125-8.535157 8.53125zm0 0"/><path d="m42.679688 426.671875c-16.832032.003906-32.09375-9.886719-38.964844-25.25-6.867188-15.367187-4.0625-33.332031 7.164062-45.875 7.226563-8.097656 13.761719-16.789063 19.527344-25.988281 1.617188-2.582032 4.488281-4.109375 7.535156-4.003906 3.046875.105468 5.808594 1.828124 7.238282 4.523437 1.433593 2.691406 1.316406 5.941406-.296876 8.527344-6.28125 10.007812-13.394531 19.46875-21.257812 28.289062-9.40625 10.546875-8.53125 26.710938 1.960938 36.179688 10.679687 9.023437 26.542968 8.152343 36.171874-1.984375 3.269532-3.679688 6.492188-7.476563 9.546876-11.355469 2.921874-3.675781 8.265624-4.296875 11.953124-1.390625 3.691407 2.90625 4.339844 8.246094 1.453126 11.949219-3.261719 4.148437-6.699219 8.199219-10.226563 12.167969-8.105469 9.035156-19.667969 14.199218-31.804687 14.210937zm0 0"/><path d="m409.609375 452.273438c-16.828125.003906-32.089844-9.886719-38.960937-25.253907-6.867188-15.363281-4.0625-33.332031 7.164062-45.871093 28.699219-32.09375 45.5-73.074219 47.59375-116.074219.335938-4.65625 4.265625-8.226563 8.929688-8.121094 2.261718.105469 4.386718 1.105469 5.910156 2.78125 1.523437 1.675781 2.316406 3.886719 2.210937 6.148437-2.28125 46.914063-20.613281 91.621094-51.921875 126.632813-9.386718 10.550781-8.5 26.703125 1.988282 36.164063 10.679687 9.015624 26.539062 8.144531 36.167968-1.992188 42.003906-47.050781 65.539063-107.722656 66.253906-170.792969-1.121093-63.945312-26.054687-125.171875-69.925781-171.710937-43.9375-44.53125-103.675781-67.109375-177.542969-67.109375-97.457031-.015625-183.507812 63.578125-212.101562 156.746093-28.59375 93.167969 6.96875 194.085938 87.65625 248.742188 3.257812 1.988281 4.796875 5.894531 3.773438 9.570312-1.027344 3.671876-4.367188 6.21875-8.179688 6.230469h-.085938c-1.703124.003907-3.363281-.507812-4.773437-1.460937-87.042969-58.765625-125.496094-167.488282-94.761719-267.910156 30.734375-100.425782 123.449219-169.0000005 228.472656-168.98828175 78.605469 0 142.421876 24.28906275 189.699219 72.19531275 47.363281 49.597656 74.113281 115.339843 74.835938 183.917969-.769531 67.199218-25.855469 131.84375-70.617188 181.96875-8.101562 9.019531-19.65625 14.179687-31.785156 14.1875zm0 0"/><path d="m299.265625 471.984375c-4.339844-.007813-7.980469-3.269531-8.464844-7.578125-.484375-4.3125 2.339844-8.300781 6.570313-9.269531 22.992187-5.265625 44.992187-14.195313 65.144531-26.453125 4.304687-2.679688 8.6875-5.578125 12.902344-8.550782 3.851562-2.648437 9.113281-1.707031 11.808593 2.109376 2.695313 3.816406 1.820313 9.089843-1.964843 11.832031-4.484375 3.164062-9.152344 6.246093-13.808594 9.144531-21.738281 13.234375-45.46875 22.875-70.273437 28.550781-.628907.144531-1.269532.21875-1.914063.214844zm0 0"/><path d="m104.25 90.820312c11.957031 11.792969 26.289062 20.902344 42.039062 26.726563 7.539063 2.34375 15.472657 3.125 23.324219 2.300781 4.140625-.332031 8.257813-.949218 12.316407-1.847656 4.183593-.875 8.261718-2.40625 12.78125-3.273438l.5625-.109374c1.433593-.277344 2.871093.464843 3.480468 1.789062.609375 1.328125.234375 2.902344-.90625 3.808594-3.710937 3.113281-7.683594 5.902344-11.867187 8.332031-4.394531 2.367187-9.066407 4.171875-13.910157 5.363281-10.023437 2.734375-20.621093 2.53125-30.535156-.585937-19.421875-5.988281-34.703125-21.066407-40.957031-40.402344-.273437-.925781.097656-1.921875.910156-2.441406s1.871094-.441407 2.597657.195312zm0 0"/><path d="m326.113281 92.921875c-6.253906 19.335937-21.535156 34.414063-40.957031 40.402344-9.914062 3.117187-20.511719 3.320312-30.535156.589843-4.84375-1.195312-9.515625-2.996093-13.910156-5.367187-4.183594-2.429687-8.15625-5.21875-11.867188-8.328125-1.140625-.910156-1.515625-2.480469-.90625-3.808594s2.042969-2.066406 3.480469-1.792968l.5625.109374c4.519531.867188 8.597656 2.398438 12.78125 3.273438 4.058593.898438 8.175781 1.515625 12.316406 1.851562 7.851563.824219 15.785156.039063 23.324219-2.304687 15.75-5.824219 30.082031-14.933594 42.039062-26.722656l.15625-.140625c.898438-.792969 2.269532-.707032 3.0625.1875.492188.5625.660156 1.335937.453125 2.050781zm0 0"/><path d="m145.078125 204.804688c-18.082031-.332032-35.414063-7.292969-48.699219-19.566407-3.339844-3.328125-3.347656-8.730469-.019531-12.066406 3.328125-3.339844 8.730469-3.347656 12.070313-.019531 10.101562 9.050781 23.089843 14.21875 36.648437 14.585937 13.566406-.289062 26.574219-5.460937 36.632813-14.566406 2.144531-2.210937 5.3125-3.09375 8.292968-2.3125 2.976563.785156 5.304688 3.109375 6.085938 6.089844.78125 2.976562-.101563 6.144531-2.3125 8.289062-13.285156 12.273438-30.617188 19.234375-48.699219 19.566407zm0 0"/><path d="m281.609375 204.804688c-18.082031-.332032-35.410156-7.292969-48.699219-19.566407-3.335937-3.328125-3.34375-8.730469-.015625-12.066406 3.324219-3.339844 8.730469-3.347656 12.066407-.019531 10.105468 9.050781 23.089843 14.21875 36.648437 14.585937 13.566406-.289062 26.574219-5.460937 36.636719-14.566406 2.144531-2.210937 5.3125-3.09375 8.289062-2.3125 2.980469.785156 5.304688 3.109375 6.089844 6.089844.78125 2.976562-.105469 6.144531-2.3125 8.289062-13.289062 12.273438-30.617188 19.234375-48.703125 19.566407zm0 0"/><path d="m204.8125 401.074219c-11.320312.011719-22.179688-4.480469-30.183594-12.484375s-12.496094-18.863282-12.484375-30.183594v-17.066406c.03125-28.265625 22.9375-51.167969 51.199219-51.199219h68.78125c4.710938 0 8.53125 3.820313 8.53125 8.53125 0 4.714844-3.820312 8.535156-8.53125 8.535156h-68.78125c-18.839844.019531-34.109375 15.289063-34.132812 34.132813v17.066406c0 14.136719 11.460937 25.597656 25.601562 25.597656 14.136719 0 25.597656-11.460937 25.597656-25.597656v-25.601562c0-4.710938 3.820313-8.53125 8.535156-8.53125 4.710938 0 8.53125 3.820312 8.53125 8.53125v25.601562c-.027343 23.550781-19.113281 42.636719-42.664062 42.667969zm0 0"/><path d="m281.609375 358.40625h-42.664063c-4.714843 0-8.535156-3.820312-8.535156-8.535156 0-4.710938 3.820313-8.53125 8.535156-8.53125h42.664063v-8.535156c0-37.703126-30.5625-68.265626-68.265625-68.265626s-68.265625 30.5625-68.265625 68.265626v8.535156h25.601563c4.710937 0 8.53125 3.820312 8.53125 8.53125 0 4.714844-3.820313 8.535156-8.53125 8.535156h-25.601563c-9.421875-.007812-17.058594-7.644531-17.066406-17.066406v-8.535156c0-47.128907 38.203125-85.332032 85.332031-85.332032s85.335938 38.203125 85.335938 85.332032v8.535156c-.011719 9.421875-7.648438 17.058594-17.070313 17.066406zm0 0"/></svg>