<svg height="512pt" viewBox="0 0 512.0112 512" width="512pt" xmlns="http://www.w3.org/2000/svg"><path d="m78.007812 395.03125c-3.160156 4.011719-6.488281 7.933594-9.902343 11.777344-12.605469 13.945312-34.113281 15.078125-48.113281 2.535156-14-12.546875-15.226563-34.050781-2.742188-48.105469 7.546875-8.453125 14.371094-17.53125 20.394531-27.136719zm0 0" fill="#ff9801"/><path d="m247.476562 8.554688c-101.269531-.015626-190.675781 66.109374-220.3125 162.949218-29.640624 96.839844 7.441407 201.675782 91.375 258.34375h.085938l69.121094 48.042969v8.53125c.027344 9.414063 7.652344 17.039063 17.066406 17.066406h145.066406c9.414063-.027343 17.039063-7.652343 17.066406-17.066406v-50.429687c.765626-.511719 1.535157-.941407 2.304688-1.453126 3.753906-2.386718 7.507812-4.863281 11.09375-7.421874.007812.089843.039062.175781.082031.253906 1.058594 2.222656 2.570313 4.199218 4.4375 5.804687.597657.597657 1.28125 1.277344 1.964844 1.875 1.257813 1.097657 2.597656 2.097657 4.007813 2.988281.6875.5625 1.429687 1.046876 2.21875 1.449219.800781.449219 1.628906.847657 2.476562 1.195313.691406.335937 1.402344.621094 2.132812.855468 1.109376.425782 2.21875.765626 3.328126 1.109376 2.8125.75 5.710937 1.121093 8.617187 1.109374 9.707031.011719 18.960937-4.117187 25.429687-11.351562 43.410157-48.574219 67.726563-111.242188 68.4375-176.382812 1.023438-76.800782-51.199218-247.46875-256-247.46875zm0 0" fill="#f0c419"/><path d="m503.476562 256.023438c-.710937 65.140624-25.027343 127.808593-68.4375 176.382812-6.46875 7.234375-15.722656 11.363281-25.429687 11.351562-2.90625.011719-5.804687-.359374-8.617187-1.109374-1.109376-.34375-2.21875-.683594-3.328126-1.109376-.730468-.234374-1.441406-.519531-2.132812-.855468-.847656-.347656-1.675781-.746094-2.476562-1.195313-.789063-.402343-1.53125-.886719-2.21875-1.449219-1.410157-.890624-2.75-1.890624-4.007813-2.988281-.683594-.597656-1.367187-1.277343-1.964844-1.875-1.867187-1.605469-3.378906-3.582031-4.4375-5.804687-.042969-.078125-.074219-.164063-.082031-.253906-3.585938 2.558593-7.339844 5.035156-11.09375 7.421874-.769531.511719-1.539062.941407-2.304688 1.453126-20.9375 12.726562-43.785156 22.003906-67.671874 27.476562h-.253907l-.339843-2.644531c-8.617188-20.695313-28.789063-34.210938-51.203126-34.304688h-8.53125c-20.351562.027344-38.765624 12.078125-46.933593 30.71875-.6875 1.617188-1.285157 3.269531-1.792969 4.949219-1.648438 5.042969-2.484375 10.3125-2.472656 15.617188v.085937l-69.121094-48.042969h-.085938c-83.933593-56.667968-121.015624-161.503906-91.375-258.34375 29.636719-96.839844 119.042969-162.964844 220.3125-162.949218 204.800782 0 257.023438 170.667968 256 247.46875zm0 0" fill="#ffdc00"/><path d="m324.277344 178.625c0 23.566406-19.101563 42.667969-42.667969 42.667969-23.5625 0-42.664063-19.101563-42.664063-42.667969l9.726563-6.828125 25.601563-18.089844 21.671874-15.273437h.085938c16.972656 6.070312 28.285156 22.167968 28.246094 40.191406zm0 0" fill="#f5f5f5"/><path d="m130.65625 138.417969h.085938l57.003906 40.191406c-.019532 21.667969-16.273438 39.878906-37.800782 42.351563-21.523437 2.472656-41.484374-11.582032-46.414062-32.679688s6.734375-42.539062 27.125-49.863281zm0 0" fill="#f5f5f5"/><path d="m380.34375 427.117188c-3.585938 2.558593-7.339844 5.035156-11.09375 7.421874-13.527344-12.691406-14.472656-33.851562-2.136719-47.699218 26.3125-29.355469 43.144531-65.972656 48.292969-105.054688 1.207031-9.3125 9.132812-16.285156 18.523438-16.289062-2.128907 44.964844-19.699219 87.820312-49.746094 121.34375-9.945313 11.144531-11.5 27.453125-3.839844 40.277344zm0 0" fill="#fec108"/><path d="m192.011719 457.238281c-8.152344-18.652343-26.578125-30.703125-46.933594-30.695312h-8.535156c-28.292969.046875-51.203125 23.003906-51.199219 51.296875v8.550781c.019531 9.421875 7.644531 17.0625 17.066406 17.097656h145.066406zm0 0" fill="#3f51b5"/><path d="m366.945312 435.992188v50.429687c-.027343 9.414063-7.652343 17.039063-17.066406 17.066406h-145.066406c-9.414062-.027343-17.039062-7.652343-17.066406-17.066406v-8.617187c-.011719-5.304688.824218-10.574219 2.472656-15.617188.507812-1.679688 1.105469-3.332031 1.792969-4.949219 8.167969-18.640625 26.582031-30.691406 46.933593-30.71875h8.53125c22.414063.09375 42.585938 13.609375 51.203126 34.304688l.59375 2.644531c23.886718-5.472656 46.734374-14.75 67.671874-27.476562zm0 0" fill="#3f51b5"/><path d="m366.945312 435.992188v17.066406c-15.941406 9.6875-33.011718 17.390625-50.824218 22.933594-3.960938 1.199218-8.253906.449218-11.578125-2.019532-3.320313-2.46875-5.273438-6.367187-5.269531-10.503906 23.886718-5.472656 46.734374-14.75 67.671874-27.476562zm0 0" fill="#283593"/><path d="m162.097656 179.222656c0-14.136718-11.441406-25.601562-25.554687-25.601562-14.109375 0-25.550781 11.464844-25.550781 25.601562 0 14.136719 11.441406 25.601563 25.550781 25.601563 14.113281 0 25.554687-11.464844 25.554687-25.601563zm0 0" fill="#3f51b5"/><path d="m187.746094 256.007812h51.199218c18.851563 0 34.132813 15.28125 34.132813 34.132813v25.777344c0 18.851562-15.28125 34.132812-34.132813 34.132812h-51.199218c-18.851563 0-34.136719-15.28125-34.136719-34.132812v-25.777344c0-18.851563 15.285156-34.132813 34.136719-34.132813zm0 0" fill="#bb193b"/><path d="m298.59375 179.222656c0 14.089844-11.425781 25.515625-25.515625 25.515625s-25.515625-11.425781-25.515625-25.515625c-.027344-2.519531.347656-5.023437 1.109375-7.425781l25.601563-18.089844c13.632812.617188 24.359374 11.867188 24.320312 25.515625zm0 0" fill="#3f51b5"/><path d="m273.078125 298.773438v17.152343c.003906 9.054688-3.59375 17.738281-9.996094 24.140625-6.402343 6.402344-15.085937 9.996094-24.136719 9.992188h-25.601562v-17.066406c-.019531-9.066407 3.566406-17.769532 9.96875-24.1875 6.40625-6.417969 15.097656-10.027344 24.164062-10.03125zm0 0" fill="#ad1457"/><path d="m256.011719 298.773438v17.152343c.003906 9.054688-3.59375 17.738281-9.996094 24.140625s-15.085937 9.996094-24.136719 9.992188h-8.535156v-17.066406c-.019531-9.066407 3.566406-17.769532 9.96875-24.1875 6.40625-6.417969 15.097656-10.027344 24.164062-10.03125zm0 0" fill="#e91e63"/><path d="m162.144531 170.6875c0 4.714844-3.820312 8.535156-8.535156 8.535156-4.710937 0-8.53125-3.820312-8.53125-8.535156 0-4.710938 3.820313-8.53125 8.53125-8.53125 4.714844 0 8.535156 3.820312 8.535156 8.53125zm0 0" fill="#f5f5f5"/><path d="m298.679688 170.6875c0 4.714844-3.824219 8.535156-8.535157 8.535156-4.710937 0-8.535156-3.820312-8.535156-8.535156 0-4.710938 3.824219-8.53125 8.535156-8.53125 4.710938 0 8.535157 3.820312 8.535157 8.53125zm0 0" fill="#f5f5f5"/><path d="m503.476562 256.023438c-.710937 65.140624-25.027343 127.808593-68.4375 176.382812-6.46875 7.234375-15.722656 11.363281-25.429687 11.351562-2.90625.011719-5.804687-.359374-8.617187-1.109374-1.109376-.34375-2.21875-.683594-3.328126-1.109376-.300781-.0625-.589843-.179687-.851562-.34375 4.847656-1.878906 9.179688-4.894531 12.628906-8.789062 43.40625-48.574219 67.722656-111.242188 68.4375-176.382812 1.023438-74.921876-48.726562-239.277344-241.496094-247.125 3.671876-.257813 7.339844-.34375 11.09375-.34375 204.800782 0 257.023438 170.667968 256 247.46875zm0 0" fill="#fec108"/><path d="m366.945312 435.992188v50.429687c-.027343 9.414063-7.652343 17.039063-17.066406 17.066406h-25.601562c9.414062-.027343 17.039062-7.652343 17.066406-17.066406v-37.035156c8.808594-3.917969 17.359375-8.394531 25.601562-13.394531zm0 0" fill="#283593"/><path d="m145.078125 229.894531c-24.902344-.035156-46.179687-17.957031-50.445313-42.492187-4.261718-24.535156 9.722657-48.585938 33.152344-57.015625 2.617188-.855469 5.480469-.425781 7.730469 1.152343 2.253906 1.582032 3.628906 4.128907 3.714844 6.878907.015625 3.835937-2.539063 7.207031-6.234375 8.234375-16.195313 6.089844-25.285156 23.320312-21.167969 40.125 4.117187 16.804687 20.140625 27.882812 37.3125 25.800781 17.175781-2.082031 30.089844-16.667969 30.070313-33.96875 0-4.710937 3.820312-8.53125 8.535156-8.53125 4.710937 0 8.53125 3.820313 8.53125 8.53125-.007813 28.289063-22.914063 51.230469-51.199219 51.285156zm0 0"/><path d="m106.699219 85.429688c7.527343-6.097657 16.683593-9.847657 26.324219-10.78125 9.863281-1.140626 19.851562.289062 29 4.144531 8.988281 3.847656 17.023437 9.613281 23.542968 16.898437 3.125 3.527344 5.953125 7.308594 8.457032 11.300782 2.226562 4.058593 4.199218 8.253906 5.902343 12.554687.539063 1.367187.082031 2.921875-1.105469 3.777344-1.191406.859375-2.808593.800781-3.933593-.140625l-.304688-.257813c-3.421875-2.871093-6.367187-5.945312-9.375-8.871093-3.292969-2.621094-6.175781-5.597657-9.429687-7.976563-6.144532-4.851563-12.882813-8.902344-20.050782-12.054687-7.164062-2.863282-14.707031-4.671876-22.386718-5.367188-8.234375-.6875-16.519532-.507812-24.714844.539062l-.296875.035157c-.945313.105469-1.851563-.421875-2.226563-1.296875-.378906-.875-.132812-1.894532.597657-2.507813zm0 0"/><path d="m238.945312 358.585938h-51.199218c-23.554688-.027344-42.640625-19.113282-42.667969-42.667969v-25.777344c.027344-23.554687 19.113281-42.640625 42.667969-42.667969h51.199218c23.550782.027344 42.636719 19.113282 42.664063 42.667969v25.777344c-.027344 23.554687-19.113281 42.640625-42.664063 42.667969zm-51.199218-94.046876c-14.132813.015626-25.585938 11.46875-25.601563 25.601563v25.777344c.015625 14.132812 11.46875 25.585937 25.601563 25.601562h51.199218c14.132813-.015625 25.582032-11.46875 25.597657-25.601562v-25.777344c-.015625-14.132813-11.464844-25.585937-25.597657-25.601563zm0 0"/><path d="m213.34375 358.585938c-4.710938 0-8.53125-3.820313-8.53125-8.535157v-17.097656c.007812-23.570313 19.09375-42.6875 42.664062-42.730469h25.601563c4.710937 0 8.53125 3.820313 8.53125 8.535156 0 4.710938-3.820313 8.53125-8.53125 8.53125h-25.601563c-14.148437.03125-25.601562 11.511719-25.597656 25.664063v17.097656c0 4.714844-3.820312 8.535157-8.535156 8.535157zm0 0"/><path d="m349.878906 512.003906h-145.066406c-14.132812-.015625-25.585938-11.464844-25.601562-25.597656v-8.621094c-.007813-6.203125.972656-12.371094 2.902343-18.269531.578125-1.90625 1.257813-3.78125 2.035157-5.613281 9.507812-21.796875 31.015624-35.902344 54.796874-35.933594h8.53125c26.035157.015625 49.460938 15.820312 59.230469 39.953125 1.085938 2.882813.535157 6.125-1.441406 8.484375-1.976563 2.363281-5.074219 3.476562-8.101563 2.914062-3.027343-.5625-5.515624-2.710937-6.515624-5.625-7.355469-17.332031-24.339844-28.609374-43.171876-28.660156h-8.53125c-16.96875.019532-32.320312 10.070313-39.121093 25.617188-.546875 1.296875-1.023438 2.621094-1.429688 3.96875-1.402343 4.25-2.117187 8.695312-2.117187 13.167968v8.617188c.007812 4.710938 3.824218 8.527344 8.535156 8.535156h145.066406c4.710938-.007812 8.527344-3.824218 8.53125-8.535156v-50.429688c0-4.714843 3.820313-8.535156 8.535156-8.535156 4.710938 0 8.53125 3.820313 8.53125 8.535156v50.429688c-.015624 14.132812-11.46875 25.582031-25.597656 25.597656zm0 0"/><path d="m247.476562 512.003906h-145.066406c-14.140625-.023437-25.59375-11.492187-25.597656-25.632812v-8.546875c.007812-33.003907 26.730469-59.769531 59.730469-59.832031h8.535156c23.757813-.023438 45.265625 14.046874 54.757813 35.820312 1.878906 4.324219-.097657 9.351562-4.421876 11.230469-4.320312 1.882812-9.347656-.097657-11.226562-4.421875-6.785156-15.542969-22.148438-25.585938-39.109375-25.5625h-8.535156c-23.578125.054687-42.664063 19.183594-42.664063 42.765625v8.546875c-.003906 4.722656 3.8125 8.554687 8.53125 8.566406h145.066406c4.714844 0 8.535157 3.820312 8.535157 8.535156 0 4.710938-3.820313 8.53125-8.535157 8.53125zm0 0"/><path d="m42.679688 426.671875c-16.832032.003906-32.09375-9.886719-38.964844-25.25-6.867188-15.367187-4.0625-33.332031 7.164062-45.875 7.226563-8.097656 13.761719-16.789063 19.527344-25.988281 1.617188-2.582032 4.488281-4.109375 7.535156-4.003906 3.046875.105468 5.808594 1.828124 7.238282 4.523437 1.433593 2.691406 1.316406 5.941406-.296876 8.527344-6.28125 10.007812-13.394531 19.46875-21.257812 28.289062-9.40625 10.546875-8.53125 26.710938 1.960938 36.179688 10.679687 9.023437 26.542968 8.152343 36.171874-1.984375 3.269532-3.679688 6.492188-7.476563 9.546876-11.355469 2.921874-3.675781 8.265624-4.296875 11.953124-1.390625 3.691407 2.90625 4.339844 8.246094 1.453126 11.949219-3.261719 4.148437-6.699219 8.199219-10.226563 12.167969-8.105469 9.035156-19.667969 14.199218-31.804687 14.210937zm0 0"/><path d="m409.609375 452.273438c-16.828125.003906-32.089844-9.886719-38.960937-25.253907-6.867188-15.363281-4.0625-33.332031 7.164062-45.871093 28.699219-32.09375 45.5-73.074219 47.59375-116.074219.355469-4.648438 4.273438-8.210938 8.929688-8.121094 2.261718.105469 4.386718 1.105469 5.910156 2.78125 1.523437 1.675781 2.316406 3.886719 2.210937 6.148437-2.28125 46.914063-20.613281 91.621094-51.921875 126.632813-9.386718 10.550781-8.5 26.703125 1.988282 36.164063 10.679687 9.015624 26.539062 8.144531 36.167968-1.992188 42.003906-47.050781 65.539063-107.722656 66.253906-170.792969-1.121093-63.945312-26.054687-125.171875-69.925781-171.710937-43.9375-44.53125-103.675781-67.109375-177.542969-67.109375-97.457031-.015625-183.507812 63.578125-212.101562 156.746093-28.59375 93.167969 6.96875 194.085938 87.65625 248.742188 3.257812 1.988281 4.796875 5.894531 3.773438 9.570312-1.027344 3.671876-4.367188 6.21875-8.179688 6.230469h-.085938c-1.703124.003907-3.363281-.507812-4.773437-1.460937-87.042969-58.765625-125.496094-167.488282-94.761719-267.910156 30.734375-100.425782 123.449219-169.0000005 228.472656-168.98828175 78.605469 0 142.421876 24.28906275 189.699219 72.19531275 47.363281 49.597656 74.113281 115.339843 74.835938 183.917969-.769531 67.199218-25.855469 131.84375-70.617188 181.96875-8.101562 9.019531-19.65625 14.179687-31.785156 14.1875zm0 0"/><path d="m299.265625 471.984375c-4.339844-.007813-7.980469-3.269531-8.464844-7.578125-.484375-4.3125 2.339844-8.300781 6.570313-9.269531 22.992187-5.265625 44.992187-14.195313 65.144531-26.453125 4.304687-2.679688 8.6875-5.578125 12.902344-8.550782 3.851562-2.648437 9.113281-1.707031 11.808593 2.109376 2.695313 3.816406 1.820313 9.089843-1.964843 11.832031-4.484375 3.164062-9.152344 6.246093-13.808594 9.144531-21.738281 13.234375-45.46875 22.875-70.273437 28.550781-.628907.144531-1.269532.21875-1.914063.214844zm0 0"/><path d="m187.734375 187.144531c-1.757813 0-3.472656-.542969-4.90625-1.558593l-56.707031-39.984376c-3.195313-2.027343-4.671875-5.921874-3.621094-9.558593s4.371094-6.144531 8.15625-6.160157c1.789062 0 3.53125.546876 5 1.558594l57.003906 40.195313c3.042969 2.140625 4.34375 6.007812 3.214844 9.554687-1.125 3.546875-4.417969 5.957032-8.140625 5.953125zm0 0"/><path d="m281.609375 229.894531c-28.285156-.054687-51.191406-23-51.199219-51.285156 0-4.714844 3.820313-8.535156 8.535156-8.535156 4.710938 0 8.53125 3.820312 8.53125 8.535156.019532 17.300781 12.980469 31.855469 30.164063 33.867187 17.1875 2.011719 33.160156-9.15625 37.171875-25.984374 4.015625-16.832032-5.199219-34.003907-21.441406-39.964844-3.515625-1.144532-5.898438-4.414063-5.914063-8.109375.085938-2.75 1.460938-5.300781 3.710938-6.882813 2.253906-1.582031 5.121093-2.007812 7.734375-1.152344 23.433594 8.429688 37.421875 32.484376 33.15625 57.019532-4.261719 24.539062-25.542969 42.460937-50.449219 42.492187zm0 0"/><path d="m318.132812 89.574219c-8.1875-1.113281-16.46875-1.359375-24.707031-.734375-7.691406.632812-15.246093 2.378906-22.429687 5.183594-7.195313 3.097656-13.964844 7.09375-20.152344 11.898437-3.273438 2.351563-6.175781 5.304687-9.492188 7.898437-3.03125 2.902344-6 5.949219-9.441406 8.796876l-.304687.25c-1.132813.933593-2.75.980468-3.933594.117187-1.183594-.867187-1.628906-2.425781-1.082031-3.785156 1.738281-4.292969 3.742187-8.46875 6.003906-12.511719 2.535156-3.972656 5.390625-7.726562 8.542969-11.230469 6.578125-7.234375 14.664062-12.9375 23.679687-16.710937 9.179688-3.785156 19.179688-5.132813 29.03125-3.910156 9.636719 1.007812 18.757813 4.832031 26.238282 10.988281.722656.617187.957031 1.632812.578124 2.503906-.378906.875-1.28125 1.394531-2.226562 1.285156zm0 0"/><path d="m238.953125 187.144531c-3.722656.003907-7.015625-2.40625-8.144531-5.953125-1.125-3.546875.175781-7.414062 3.21875-9.554687l57.003906-40.195313c2.574219-1.800781 5.933594-2.046875 8.742188-.636718 2.8125 1.414062 4.621093 4.253906 4.714843 7.394531.089844 3.144531-1.550781 6.085937-4.273437 7.65625l-56.351563 39.730469c-1.433593 1.015624-3.152343 1.558593-4.910156 1.558593zm0 0"/></svg>