<svg height="512pt" viewBox="0 0 512.01888 512" width="512pt" xmlns="http://www.w3.org/2000/svg"><path d="m78.011719 395.035156c-3.15625 4.011719-6.484375 7.933594-9.898438 11.773438-12.605469 13.949218-34.113281 15.082031-48.113281 2.539062-14-12.546875-15.226562-34.050781-2.742188-48.105468 7.546876-8.453126 14.371094-17.53125 20.394532-27.136719zm0 0" fill="#ff9801"/><path d="m247.484375 8.558594c-101.269531-.015625-190.675781 66.109375-220.3125 162.949218-29.640625 96.835938 7.441406 201.675782 91.375 258.34375h.085937l69.121094 48.042969v8.53125c.027344 9.414063 7.652344 17.039063 17.066406 17.066407h145.066407c9.414062-.027344 17.039062-7.652344 17.066406-17.066407v-50.429687c.765625-.511719 1.535156-.941406 2.304687-1.453125 3.753907-2.386719 7.507813-4.863281 11.089844-7.421875.011719.089844.042969.175781.085938.253906 1.058594 2.222656 2.570312 4.199219 4.4375 5.804688.597656.597656 1.28125 1.277343 1.964844 1.875 1.257812 1.097656 2.597656 2.097656 4.007812 2.988281.6875.5625 1.429688 1.046875 2.21875 1.449219.800781.449218 1.628906.847656 2.476562 1.195312.6875.335938 1.402344.621094 2.132813.855469 1.109375.425781 2.21875.765625 3.328125 1.109375 2.8125.75 5.710938 1.121094 8.617188 1.109375 9.707031.011719 18.960937-4.117188 25.429687-11.351563 43.410156-48.574218 67.726563-111.242187 68.4375-176.382812 1.023437-76.800782-51.199219-247.46875-256-247.46875zm0 0" fill="#f0c419"/><path d="m503.484375 256.027344c-.710937 65.140625-25.027344 127.808594-68.4375 176.382812-6.46875 7.234375-15.722656 11.363282-25.429687 11.351563-2.90625.011719-5.804688-.359375-8.617188-1.109375-1.109375-.34375-2.21875-.683594-3.328125-1.109375-.730469-.234375-1.445313-.519531-2.132813-.855469-.847656-.347656-1.675781-.746094-2.476562-1.195312-.789062-.402344-1.53125-.886719-2.21875-1.449219-1.410156-.890625-2.75-1.890625-4.007812-2.988281-.683594-.597657-1.367188-1.277344-1.964844-1.875-1.867188-1.605469-3.378906-3.582032-4.4375-5.804688-.042969-.078125-.074219-.164062-.085938-.253906-3.582031 2.558594-7.335937 5.035156-11.089844 7.421875-.769531.511719-1.539062.941406-2.304687 1.453125-20.9375 12.726562-43.785156 22.003906-67.671875 27.476562h-.253906l-.339844-2.644531c-8.617188-20.695313-28.789062-34.210937-51.203125-34.304687h-8.53125c-20.351563.027343-38.765625 12.078124-46.933594 30.71875-.6875 1.617187-1.285156 3.269531-1.792969 4.949218-1.648437 5.042969-2.484374 10.3125-2.472656 15.617188v.085937l-69.121094-48.042969h-.085937c-83.933594-56.667968-121.015625-161.507812-91.375-258.34375 29.636719-96.839843 119.042969-162.964843 220.3125-162.949218 204.800781 0 257.023437 170.667968 256 247.46875zm0 0" fill="#ffdc00"/><path d="m380.347656 427.121094c-3.582031 2.558594-7.335937 5.035156-11.089844 7.421875-13.527343-12.691407-14.472656-33.851563-2.136718-47.699219 26.3125-29.355469 43.144531-65.972656 48.292968-105.054688 1.207032-9.3125 9.132813-16.285156 18.523438-16.289062-2.128906 44.964844-19.699219 87.820312-49.746094 121.34375-9.945312 11.144531-11.5 27.453125-3.84375 40.277344zm0 0" fill="#fec108"/><path d="m192.019531 457.242188c-8.152343-18.652344-26.578125-30.703126-46.933593-30.695313h-8.535157c-28.292969.046875-51.207031 23.003906-51.199219 51.296875v8.550781c.019532 9.421875 7.644532 17.0625 17.066407 17.097657h145.066406zm0 0" fill="#3f51b5"/><path d="m366.953125 435.996094v50.429687c-.027344 9.414063-7.652344 17.039063-17.066406 17.066407h-145.066407c-9.414062-.027344-17.039062-7.652344-17.066406-17.066407v-8.617187c-.011718-5.304688.824219-10.574219 2.472656-15.617188.507813-1.679687 1.105469-3.332031 1.792969-4.949218 8.167969-18.640626 26.582031-30.691407 46.933594-30.71875h8.53125c22.414063.09375 42.585937 13.609374 51.203125 34.304687l.59375 2.644531c23.886719-5.472656 46.734375-14.75 67.671875-27.476562zm0 0" fill="#3f51b5"/><path d="m366.953125 435.996094v17.066406c-15.945313 9.6875-33.011719 17.390625-50.824219 22.933594-3.960937 1.199218-8.253906.449218-11.578125-2.019532-3.320312-2.46875-5.273437-6.367187-5.269531-10.503906 23.886719-5.472656 46.734375-14.75 67.671875-27.476562zm0 0" fill="#283593"/><path d="m172.902344 211.636719c13.53125-11.632813 18.390625-30.457031 12.1875-47.183594-6.203125-16.730469-22.160156-27.832031-40.003906-27.832031s-33.800782 11.101562-40.003907 27.832031c-6.203125 16.726563-1.34375 35.550781 12.183594 47.183594zm0 0" fill="#f5f5f5"/><path d="m162.136719 179.195312c0-14.15625-11.453125-25.632812-25.585938-25.632812-14.128906 0-25.582031 11.476562-25.582031 25.632812s11.453125 25.632813 25.582031 25.632813c14.132813 0 25.585938-11.476563 25.585938-25.632813zm0 0" fill="#3f51b5"/><path d="m309.4375 211.636719c.855469-.640625 1.65625-1.355469 2.390625-2.132813 16.628906-16.671875 16.605469-43.667968-.050781-60.316406-16.660156-16.644531-43.65625-16.644531-60.316406 0-16.660157 16.648438-16.679688 43.644531-.050782 60.316406.734375.777344 1.535156 1.492188 2.390625 2.132813zm0 0" fill="#f5f5f5"/><path d="m298.667969 179.195312c-.011719 12.214844-8.648438 22.71875-20.632813 25.09375-11.980468 2.375-23.972656-4.046874-28.636718-15.335937-4.667969-11.289063-.710938-24.300781 9.449218-31.082031s23.695313-5.441406 32.328125 3.199218c4.808594 4.804688 7.503907 11.328126 7.492188 18.125zm0 0" fill="#3f51b5"/><path d="m128.128906 268.46875c.078125-2.777344 1.511719-5.339844 3.832032-6.863281 2.324218-1.527344 5.246093-1.820313 7.828124-.789063 47.371094 18.097656 99.753907 18.097656 147.128907 0 2.578125-1.03125 5.5-.738281 7.824219.789063 2.320312 1.523437 3.753906 4.085937 3.835937 6.863281 1.074219 30.605469-4.347656 107.007812-85.226563 107.007812-80.878906 0-86.296874-76.402343-85.222656-107.007812zm0 0" fill="#cfd8dc"/><g fill="#f5f5f5"><path d="m162.152344 170.691406c0 4.714844-3.820313 8.535156-8.535156 8.535156-4.710938 0-8.53125-3.820312-8.53125-8.535156 0-4.710937 3.820312-8.53125 8.53125-8.53125 4.714843 0 8.535156 3.820313 8.535156 8.53125zm0 0"/><path d="m298.6875 170.691406c0 4.714844-3.824219 8.535156-8.535156 8.535156-4.714844 0-8.535156-3.820312-8.535156-8.535156 0-4.710937 3.820312-8.53125 8.535156-8.53125 4.710937 0 8.535156 3.820313 8.535156 8.53125zm0 0"/><path d="m295.613281 306.714844c-52.335937 23.4375-112.1875 23.4375-164.523437 0-2.476563-12.582032-3.480469-25.40625-2.996094-38.21875.078125-2.777344 1.503906-5.347656 3.828125-6.875 2.320313-1.53125 5.242187-1.832032 7.828125-.804688 47.40625 18.070313 99.800781 18.070313 147.203125 0 2.585937-1.027344 5.507813-.726562 7.832031.804688 2.320313 1.527344 3.75 4.097656 3.824219 6.875.484375 12.8125-.519531 25.636718-2.996094 38.21875zm0 0"/></g><path d="m503.484375 256.027344c-.710937 65.140625-25.027344 127.808594-68.4375 176.382812-6.46875 7.234375-15.722656 11.363282-25.429687 11.351563-2.90625.011719-5.804688-.359375-8.617188-1.109375-1.109375-.34375-2.21875-.683594-3.328125-1.109375-.300781-.0625-.589844-.179688-.851563-.34375 4.847657-1.878907 9.179688-4.894531 12.628907-8.789063 43.40625-48.574218 67.722656-111.242187 68.4375-176.382812 1.023437-74.921875-48.726563-239.277344-241.496094-247.125 3.671875-.257813 7.339844-.34375 11.09375-.34375 204.800781 0 257.023437 170.667968 256 247.46875zm0 0" fill="#fec108"/><path d="m366.953125 435.996094v50.429687c-.027344 9.414063-7.652344 17.039063-17.066406 17.066407h-25.601563c9.414063-.027344 17.039063-7.652344 17.066406-17.066407v-37.035156c8.808594-3.917969 17.359376-8.394531 25.601563-13.394531zm0 0" fill="#283593"/><path d="m349.886719 512.007812h-145.066407c-14.132812-.015624-25.585937-11.464843-25.601562-25.597656v-8.621094c-.007812-6.207031.96875-12.378906 2.902344-18.277343.574218-1.902344 1.253906-3.773438 2.03125-5.605469 9.507812-21.800781 31.015625-35.90625 54.800781-35.933594h8.53125c26.035156.019532 49.460937 15.820313 59.234375 39.953125 1.59375 4.4375-.710938 9.324219-5.144531 10.921875-4.4375 1.59375-9.328125-.710937-10.921875-5.148437-7.355469-17.332031-24.339844-28.609375-43.167969-28.660157h-8.53125c-16.96875.019532-32.320313 10.070313-39.117187 25.617188-.546876 1.292969-1.027344 2.613281-1.433594 3.957031-1.402344 4.253907-2.117188 8.703125-2.117188 13.179688v8.617187c.003906 4.714844 3.824219 8.53125 8.535156 8.535156h145.066407c4.710937-.003906 8.527343-3.820312 8.53125-8.535156v-50.429687c0-4.714844 3.820312-8.535157 8.535156-8.535157 4.710937 0 8.53125 3.820313 8.53125 8.535157v50.429687c-.015625 14.132813-11.46875 25.582032-25.597656 25.597656zm0 0"/><path d="m247.484375 512.007812h-145.066406c-14.140625-.023437-25.59375-11.492187-25.597657-25.632812v-8.546875c.011719-33.003906 26.730469-59.765625 59.730469-59.832031h8.535157c23.757812-.023438 45.265624 14.046875 54.757812 35.820312 1.878906 4.324219-.097656 9.351563-4.421875 11.230469-4.320313 1.878906-9.347656-.097656-11.226563-4.421875-6.785156-15.546875-22.148437-25.585938-39.109374-25.5625h-8.535157c-23.578125.054688-42.664062 19.183594-42.664062 42.765625v8.546875c-.007813 4.722656 3.8125 8.554688 8.53125 8.566406h145.066406c4.714844 0 8.535156 3.820313 8.535156 8.535156 0 4.710938-3.820312 8.53125-8.535156 8.53125zm0 0"/><path d="m42.6875 426.675781c-16.835938.007813-32.097656-9.882812-38.96875-25.246093-6.871094-15.367188-4.066406-33.335938 7.160156-45.878907 7.234375-8.097656 13.769532-16.789062 19.539063-25.988281 1.578125-2.664062 4.476562-4.265625 7.574219-4.179688 3.097656.082032 5.90625 1.839844 7.335937 4.585938 1.433594 2.746094 1.261719 6.054688-.441406 8.640625-6.28125 10.007813-13.390625 19.472656-21.257813 28.289063-9.398437 10.550781-8.519531 26.710937 1.964844 36.179687 10.683594 9.015625 26.542969 8.144531 36.175781-1.984375 3.265625-3.679688 6.484375-7.472656 9.53125-11.355469 1.886719-2.394531 4.910157-3.605469 7.925781-3.167969 3.019532.433594 5.578126 2.445313 6.710938 5.277344 1.132812 2.832032.667969 6.050782-1.21875 8.449219-3.265625 4.140625-6.699219 8.199219-10.214844 12.164063-8.109375 9.035156-19.675781 14.203124-31.816406 14.214843zm0 0"/><path d="m409.617188 452.277344c-16.832032.007812-32.09375-9.882813-38.964844-25.25-6.871094-15.363282-4.066406-33.335938 7.160156-45.875 28.703125-32.089844 45.511719-73.070313 47.597656-116.078125.339844-4.652344 4.269532-8.226563 8.933594-8.117188 4.707031.222657 8.339844 4.222657 8.117188 8.929688-2.28125 46.910156-20.613282 91.617187-51.917969 126.632812-9.386719 10.550781-8.5 26.699219 1.984375 36.164063 10.683594 9.011718 26.542968 8.140625 36.175781-1.992188 42.003906-47.050781 65.539063-107.726562 66.25-170.792968-1.121094-63.945313-26.054687-125.171876-69.925781-171.710938-43.941406-44.53125-103.675782-67.113281-177.542969-67.113281-97.453125-.011719-183.503906 63.578125-212.101563 156.746093-28.59375 93.164063 6.960938 194.082032 87.644532 248.742188 3.257812 1.984375 4.800781 5.890625 3.777344 9.566406-1.019532 3.675782-4.359376 6.222656-8.171876 6.238282h-.085937c-1.703125 0-3.363281-.507813-4.773437-1.460938-87.039063-58.769531-125.492188-167.488281-94.757813-267.910156 30.734375-100.425782 123.449219-169.00000025 228.46875-168.9882815 78.601563 0 142.421875 24.2890625 189.695313 72.1953125 47.367187 49.597656 74.121093 115.339844 74.839843 183.917969-.765625 67.199218-25.851562 131.839844-70.609375 181.96875-8.105468 9.019531-19.664062 14.175781-31.792968 14.1875zm0 0"/><path d="m299.277344 471.988281c-4.335938-.007812-7.976563-3.269531-8.460938-7.582031-.484375-4.308594 2.34375-8.296875 6.570313-9.265625 22.988281-5.265625 44.984375-14.195313 65.132812-26.453125 4.316407-2.683594 8.691407-5.582031 12.914063-8.554688 2.492187-1.757812 5.734375-2.050781 8.5-.773437 2.765625 1.28125 4.640625 3.941406 4.917968 6.976563.273438 3.035156-1.089843 5.988281-3.582031 7.746093-4.492187 3.167969-9.152343 6.246094-13.808593 9.140625-21.738282 13.234375-45.46875 22.875-70.273438 28.550782-.628906.144531-1.269531.21875-1.910156.214843zm0 0"/><path d="m172.902344 220.171875c-3.566406 0-6.761719-2.222656-8-5.570313-1.238282-3.347656-.265625-7.113281 2.441406-9.4375 10.824219-9.308593 14.710938-24.363281 9.746094-37.746093-4.964844-13.382813-17.730469-22.265625-32.003906-22.265625-14.273438 0-27.039063 8.882812-32 22.265625-4.964844 13.382812-1.078126 28.4375 9.742187 37.746093 2.335937 1.980469 3.433594 5.058594 2.875 8.070313-.558594 3.007813-2.6875 5.488281-5.578125 6.496094-2.890625 1.011719-6.101562.390625-8.414062-1.617188-16.238282-13.957031-22.074219-36.546875-14.632813-56.625 7.445313-20.078125 26.597656-33.402343 48.007813-33.402343 21.414062 0 40.566406 13.324218 48.007812 33.402343 7.445312 20.078125 1.605469 42.667969-14.632812 56.625-1.542969 1.332031-3.515626 2.0625-5.558594 2.058594zm0 0"/><path d="m92.046875 118.425781c6.253906-19.335937 21.539063-34.414062 40.960937-40.402343 9.910157-3.117188 20.511719-3.320313 30.535157-.585938 4.84375 1.191406 9.515625 2.996094 13.90625 5.363281 4.1875 2.429688 8.160156 5.21875 11.867187 8.332031 1.144532.90625 1.519532 2.480469.910156 3.804688-.609374 1.328125-2.046874 2.070312-3.480468 1.792969l-.566406-.109375c-4.515626-.867188-8.59375-2.398438-12.777344-3.273438-4.058594-.898437-8.175782-1.515625-12.320313-1.851562-7.847656-.820313-15.785156-.039063-23.320312 2.304687-15.75 5.824219-30.082031 14.933594-42.042969 26.726563l-.152344.136718c-.433594.378907-.996094.574219-1.570312.539063-.574219-.035156-1.113282-.296875-1.492188-.726563-.492187-.5625-.660156-1.332031-.457031-2.050781zm0 0"/><path d="m330.980469 120.527344c-11.957031-11.792969-26.289063-20.902344-42.039063-26.726563-7.539062-2.339843-15.472656-3.125-23.324218-2.300781-4.144532.335938-8.257813.953125-12.316407 1.847656-4.183593.875-8.261719 2.40625-12.78125 3.273438l-.5625.109375c-1.433593.277343-2.871093-.460938-3.480469-1.789063-.609374-1.328125-.234374-2.898437.90625-3.808594 3.710938-3.113281 7.679688-5.898437 11.867188-8.332031 4.390625-2.367187 9.066406-4.171875 13.910156-5.363281 10.023438-2.734375 20.621094-2.53125 30.535156.582031 19.417969 5.992188 34.703126 21.066407 40.957032 40.40625.273437.925781-.097656 1.917969-.910156 2.4375s-1.871094.441407-2.597657-.191406zm0 0"/><path d="m309.445312 220.171875c-3.730468.007813-7.035156-2.410156-8.15625-5.964844-1.121093-3.558593.195313-7.429687 3.253907-9.566406.453125-.351563.871093-.742187 1.25-1.171875 13.277343-13.378906 13.277343-34.964844 0-48.34375-13.507813-12.964844-34.839844-12.964844-48.347657 0-13.277343 13.382812-13.277343 34.96875 0 48.351562.378907.425782.796876.816407 1.25 1.167969 3.863282 2.703125 4.804688 8.027344 2.105469 11.890625-2.703125 3.863282-8.027343 4.808594-11.890625 2.105469-1.265625-.929687-2.445312-1.964844-3.53125-3.097656-19.964844-20.003907-19.941406-52.402344.046875-72.382813 19.992188-19.976562 52.390625-19.976562 72.382813 0 19.992187 19.980469 20.015625 52.378906.050781 72.382813-1.085937 1.132812-2.269531 2.167969-3.53125 3.097656-1.433594.996094-3.136719 1.53125-4.882813 1.53125zm0 0"/><path d="m187.753906 230.410156c-2.265625.003906-4.4375-.898437-6.035156-2.5-10.101562-9.039062-23.082031-14.199218-36.632812-14.566406-13.566407.289062-26.574219 5.460938-36.632813 14.566406-3.347656 3.246094-8.679687 3.207032-11.976563-.089844-3.296874-3.296874-3.335937-8.632812-.089843-11.976562 13.285156-12.269531 30.617187-19.234375 48.699219-19.566406 18.082031.332031 35.414062 7.296875 48.699218 19.566406 2.441406 2.441406 3.167969 6.109375 1.847656 9.296875-1.320312 3.1875-4.429687 5.269531-7.878906 5.269531zm0 0"/><path d="m324.285156 230.410156c-2.261718.003906-4.433594-.898437-6.03125-2.5-10.105468-9.039062-23.085937-14.199218-36.636718-14.566406-13.566407.289062-26.570313 5.460938-36.632813 14.566406-3.34375 3.246094-8.679687 3.207032-11.972656-.089844-3.296875-3.296874-3.339844-8.632812-.09375-11.976562 27.226562-26.089844 70.175781-26.089844 97.402343 0 2.4375 2.441406 3.167969 6.109375 1.847657 9.296875-1.320313 3.1875-4.429688 5.269531-7.882813 5.269531zm0 0"/><path d="m213.351562 384.007812c-25.933593 1.445313-51.140624-8.851562-68.648437-28.039062-32.617187-37.546875-24.453125-98.570312-24.085937-101.152344.394531-2.765625 2.117187-5.164062 4.613281-6.421875 2.496093-1.257812 5.449219-1.214843 7.910156.113281 25.09375 11.730469 52.511719 17.660157 80.210937 17.347657 27.703126.367187 55.125-5.5625 80.199219-17.339844 2.457031-1.339844 5.417969-1.386719 7.917969-.128906 2.5 1.253906 4.226562 3.660156 4.617188 6.429687.367187 2.578125 8.53125 63.605469-24.082032 101.152344-17.507812 19.1875-42.71875 29.484375-68.652344 28.039062zm-76.675781-115.226562c-.613281 18.070312 1.109375 53.253906 20.953125 76.042969 14.332032 15.332031 34.777344 23.445312 55.722656 22.117187 20.949219 1.328125 41.390626-6.785156 55.722657-22.117187 19.84375-22.785157 21.566406-57.972657 20.949219-76.042969-49.375 18.855469-103.972657 18.855469-153.347657 0zm0 0"/><path d="m213.351562 332.808594c-29.570312.023437-58.808593-6.226563-85.78125-18.339844-2.808593-1.238281-4.734374-3.890625-5.046874-6.945312-.308594-3.054688 1.042968-6.039063 3.546874-7.816407 2.5-1.78125 5.765626-2.078125 8.546876-.78125 50.097656 22.421875 107.375 22.421875 157.46875 0 2.78125-1.296875 6.046874-1 8.546874.78125 2.503907 1.777344 3.859376 4.761719 3.546876 7.816407-.308594 3.054687-2.234376 5.707031-5.042969 6.945312-26.976563 12.113281-56.214844 18.363281-85.785157 18.339844zm0 0"/></svg>