<svg height="512pt" viewBox="0 0 512.01888 512" width="512pt" xmlns="http://www.w3.org/2000/svg"><path d="m78.011719 395.035156c-3.15625 4.011719-6.484375 7.9375-9.898438 11.777344-12.605469 13.945312-34.113281 15.078125-48.113281 2.535156-14-12.546875-15.226562-34.046875-2.742188-48.105468 7.546876-8.453126 14.371094-17.53125 20.394532-27.132813zm0 0" fill="#ff9801"/><path d="m247.484375 8.5625c-101.269531-.015625-190.675781 66.109375-220.3125 162.945312-29.640625 96.839844 7.441406 201.675782 91.375 258.34375h.085937l69.121094 48.042969v8.53125c.027344 9.417969 7.652344 17.039063 17.066406 17.070313h145.066407c9.414062-.03125 17.039062-7.652344 17.066406-17.070313v-50.429687c.765625-.511719 1.535156-.9375 2.304687-1.449219 3.753907-2.390625 7.507813-4.867187 11.089844-7.425781.011719.089844.042969.175781.085938.257812 1.058594 2.222656 2.570312 4.199219 4.4375 5.800782.597656.597656 1.28125 1.28125 1.964844 1.878906 1.257812 1.09375 2.597656 2.09375 4.007812 2.984375.6875.5625 1.429688 1.046875 2.21875 1.453125.800781.449218 1.628906.847656 2.476562 1.191406.6875.335938 1.402344.621094 2.132813.855469 1.109375.425781 2.21875.765625 3.328125 1.109375 2.8125.75 5.710938 1.125 8.617188 1.109375 9.707031.011719 18.960937-4.117188 25.429687-11.351563 43.410156-48.574218 67.726563-111.242187 68.4375-176.382812 1.023437-76.800782-51.199219-247.464844-256-247.464844zm0 0" fill="#f0c419"/><path d="m503.484375 256.027344c-.710937 65.140625-25.027344 127.808594-68.4375 176.382812-6.46875 7.234375-15.722656 11.363282-25.429687 11.351563-2.90625.015625-5.804688-.359375-8.617188-1.109375-1.109375-.34375-2.21875-.683594-3.328125-1.109375-.730469-.234375-1.445313-.519531-2.132813-.855469-.847656-.34375-1.675781-.742188-2.476562-1.191406-.789062-.40625-1.53125-.890625-2.21875-1.453125-1.410156-.890625-2.75-1.890625-4.007812-2.984375-.683594-.597656-1.367188-1.28125-1.964844-1.878906-1.867188-1.601563-3.378906-3.578126-4.4375-5.800782-.042969-.082031-.074219-.167968-.085938-.257812-3.582031 2.558594-7.335937 5.035156-11.089844 7.425781-.769531.511719-1.539062.9375-2.304687 1.449219-20.9375 12.726562-43.785156 22.003906-67.671875 27.476562h-.253906l-.339844-2.644531c-8.617188-20.691406-28.789062-34.207031-51.203125-34.304687h-8.53125c-20.351563.027343-38.765625 12.082031-46.933594 30.71875-.6875 1.617187-1.285156 3.269531-1.792969 4.949218-1.648437 5.042969-2.484374 10.3125-2.472656 15.617188v.085937l-69.121094-48.042969h-.085937c-83.933594-56.667968-121.015625-161.503906-91.375-258.34375 29.636719-96.835937 119.042969-162.960937 220.3125-162.945312 204.800781 0 257.023437 170.664062 256 247.464844zm0 0" fill="#ffdc00"/><path d="m59.753906 136.542969h-34.136718c-4.527344-.023438-8.867188 1.796875-12.03125 5.035156-3.242188 3.164063-5.058594 7.503906-5.035157 12.035156.027344 9.414063 7.652344 17.039063 17.066407 17.066407h25.601562zm0 0" fill="#3f51b5"/><path d="m380.347656 427.121094c-3.582031 2.558594-7.335937 5.035156-11.089844 7.425781-13.527343-12.695313-14.472656-33.851563-2.136718-47.703125 26.3125-29.355469 43.144531-65.96875 48.292968-105.054688 1.207032-9.3125 9.132813-16.285156 18.523438-16.289062-2.128906 44.964844-19.699219 87.824219-49.746094 121.34375-9.945312 11.144531-11.5 27.453125-3.84375 40.277344zm0 0" fill="#fec108"/><path d="m192.019531 457.242188c-8.152343-18.648438-26.578125-30.699219-46.933593-30.695313h-8.535157c-28.292969.046875-51.207031 23.003906-51.199219 51.300781v8.546875c.019532 9.425781 7.644532 17.0625 17.066407 17.101563h145.066406zm0 0" fill="#3f51b5"/><path d="m366.953125 435.996094v50.429687c-.027344 9.417969-7.652344 17.039063-17.066406 17.070313h-145.066407c-9.414062-.03125-17.039062-7.652344-17.066406-17.070313v-8.617187c-.011718-5.304688.824219-10.574219 2.472656-15.617188.507813-1.679687 1.105469-3.332031 1.792969-4.949218 8.167969-18.636719 26.582031-30.691407 46.933594-30.71875h8.53125c22.414063.097656 42.585937 13.613281 51.203125 34.304687l.59375 2.644531c23.886719-5.472656 46.734375-14.75 67.671875-27.476562zm0 0" fill="#3f51b5"/><path d="m366.953125 435.996094v17.066406c-15.945313 9.6875-33.011719 17.390625-50.824219 22.9375-3.960937 1.195312-8.253906.445312-11.578125-2.023438-3.320312-2.46875-5.273437-6.363281-5.269531-10.503906 23.886719-5.472656 46.734375-14.75 67.671875-27.476562zm0 0" fill="#283593"/><g fill="#3f51b5"><path d="m247.484375 136.542969h119.46875c4.710937 0 8.53125 3.824219 8.53125 8.535156v59.734375c0 28.277344-22.921875 51.199219-51.199219 51.199219h-34.132812c-28.277344 0-51.199219-22.921875-51.199219-51.199219v-59.734375c0-4.710937 3.820313-8.535156 8.53125-8.535156zm0 0"/><path d="m59.753906 136.542969h119.464844c4.714844 0 8.535156 3.824219 8.535156 8.535156v59.734375c0 28.277344-22.925781 51.199219-51.203125 51.199219h-34.132812c-28.277344 0-51.199219-22.921875-51.199219-51.199219v-59.734375c0-4.710937 3.820312-8.535156 8.535156-8.535156zm0 0"/><path d="m187.753906 145.078125c7.171875-5.933594 16.300782-8.976563 25.597656-8.535156 9.300782-.441407 18.425782 2.601562 25.601563 8.535156v34.132813c-7.175781-5.933594-16.300781-8.976563-25.601563-8.53125-9.296874-.445313-18.425781 2.597656-25.597656 8.53125zm0 0"/></g><path d="m503.484375 256.027344c-.710937 65.140625-25.027344 127.808594-68.4375 176.382812-6.46875 7.234375-15.722656 11.363282-25.429687 11.351563-2.90625.015625-5.804688-.359375-8.617188-1.109375-1.109375-.34375-2.21875-.683594-3.328125-1.109375-.300781-.0625-.589844-.175781-.851563-.34375 4.847657-1.878907 9.179688-4.890625 12.628907-8.789063 43.40625-48.574218 67.722656-111.242187 68.4375-176.382812 1.023437-74.921875-48.726563-239.273438-241.496094-247.125 3.671875-.257813 7.339844-.339844 11.09375-.339844 204.800781 0 257.023437 170.664062 256 247.464844zm0 0" fill="#fec108"/><path d="m366.953125 435.996094v50.429687c-.027344 9.417969-7.652344 17.039063-17.066406 17.070313h-25.601563c9.414063-.03125 17.039063-7.652344 17.066406-17.070313v-37.03125c8.808594-3.921875 17.359376-8.394531 25.601563-13.398437zm0 0" fill="#283593"/><path d="m375.484375 170.679688h110.933594c9.398437-.070313 17-7.671876 17.066406-17.066407-.027344-9.414062-7.652344-17.039062-17.066406-17.070312h-119.464844zm0 0" fill="#3f51b5"/><path d="m92.046875 118.429688c6.253906-19.339844 21.539063-34.414063 40.960937-40.40625 9.910157-3.117188 20.511719-3.320313 30.535157-.585938 4.84375 1.191406 9.515625 2.996094 13.90625 5.363281 4.1875 2.433594 8.160156 5.21875 11.867187 8.332031 1.144532.910157 1.519532 2.480469.910156 3.808594-.609374 1.324219-2.046874 2.066406-3.480468 1.792969l-.566406-.109375c-4.515626-.871094-8.59375-2.398438-12.777344-3.277344-4.058594-.894531-8.175782-1.511718-12.320313-1.847656-7.847656-.824219-15.785156-.039062-23.320312 2.304688-15.75 5.820312-30.082031 14.929687-42.042969 26.722656l-.152344.136718c-.433594.382813-.996094.574219-1.570312.539063-.574219-.035156-1.113282-.296875-1.492188-.726563-.492187-.5625-.660156-1.332031-.457031-2.046874zm0 0"/><path d="m330.980469 120.527344c-11.957031-11.789063-26.289063-20.898438-42.039063-26.722656-7.539062-2.34375-15.472656-3.128907-23.324218-2.304688-4.144532.335938-8.257813.953125-12.316407 1.847656-4.183593.878906-8.261719 2.40625-12.78125 3.277344l-.5625.109375c-1.433593.273437-2.871093-.464844-3.480469-1.792969-.609374-1.324218-.234374-2.898437.90625-3.808594 3.710938-3.109374 7.679688-5.898437 11.867188-8.332031 4.390625-2.367187 9.066406-4.171875 13.910156-5.363281 10.023438-2.734375 20.621094-2.53125 30.535156.585938 19.417969 5.988281 34.703126 21.066406 40.957032 40.402343.273437.925781-.097656 1.917969-.910156 2.441407-.8125.519531-1.871094.441406-2.597657-.195313zm0 0"/><path d="m349.886719 512.011719h-145.066407c-14.132812-.015625-25.585937-11.46875-25.601562-25.601563v-8.617187c-.007812-6.210938.96875-12.378907 2.902344-18.28125.574218-1.902344 1.253906-3.773438 2.03125-5.601563 9.507812-21.800781 31.015625-35.90625 54.800781-35.9375h8.53125c26.035156.023438 49.460937 15.820313 59.234375 39.953125 1.59375 4.4375-.710938 9.328125-5.144531 10.921875-4.4375 1.59375-9.328125-.710937-10.921875-5.148437-7.355469-17.332031-24.339844-28.609375-43.167969-28.660157h-8.53125c-16.96875.019532-32.320313 10.070313-39.117187 25.617188-.546876 1.292969-1.027344 2.617188-1.433594 3.960938-1.402344 4.25-2.117188 8.699218-2.117188 13.175781v8.621093c.003906 4.710938 3.824219 8.527344 8.535156 8.53125h145.066407c4.710937-.003906 8.527343-3.820312 8.53125-8.53125v-50.433593c0-4.710938 3.820312-8.53125 8.535156-8.53125 4.710937 0 8.53125 3.820312 8.53125 8.53125v50.433593c-.015625 14.128907-11.46875 25.582032-25.597656 25.597657zm0 0"/><path d="m247.484375 512.011719h-145.066406c-14.140625-.027344-25.59375-11.492188-25.597657-25.632813v-8.550781c.011719-33 26.730469-59.765625 59.730469-59.828125h8.535157c23.757812-.027344 45.265624 14.042969 54.757812 35.820312 1.878906 4.320313-.097656 9.347657-4.421875 11.226563-4.320313 1.882813-9.347656-.097656-11.226563-4.417969-6.785156-15.546875-22.148437-25.589844-39.109374-25.5625h-8.535157c-23.578125.054688-42.664062 19.183594-42.664062 42.761719v8.550781c-.007813 4.71875 3.8125 8.550782 8.53125 8.566406h145.066406c4.714844 0 8.535156 3.820313 8.535156 8.53125 0 4.714844-3.820312 8.535157-8.535156 8.535157zm0 0"/><path d="m42.6875 426.675781c-16.835938.007813-32.097656-9.878906-38.96875-25.246093-6.871094-15.367188-4.066406-33.335938 7.160156-45.875 7.234375-8.097657 13.769532-16.792969 19.539063-25.988282 1.578125-2.667968 4.476562-4.269531 7.574219-4.183594 3.097656.082032 5.90625 1.839844 7.335937 4.585938 1.433594 2.75 1.261719 6.054688-.441406 8.640625-6.28125 10.011719-13.390625 19.472656-21.257813 28.289063-9.398437 10.550781-8.519531 26.710937 1.964844 36.183593 10.683594 9.011719 26.542969 8.140625 36.175781-1.988281 3.265625-3.679688 6.484375-7.46875 9.53125-11.355469 1.886719-2.394531 4.910157-3.601562 7.925781-3.167969 3.019532.433594 5.578126 2.445313 6.710938 5.277344 1.132812 2.832032.667969 6.054688-1.21875 8.449219-3.265625 4.144531-6.699219 8.203125-10.214844 12.164063-8.109375 9.035156-19.675781 14.203124-31.816406 14.214843zm0 0"/><path d="m41.050781 145.078125c-2.953125-.003906-5.691406-1.53125-7.246093-4.042969-1.554688-2.511718-1.699219-5.648437-.386719-8.292968 40.136719-81.507813 123.210937-133.023438 214.066406-132.7304692 135.875 0 201.859375 72.1054692 233.285156 132.5976562 1.40625 2.707031 1.257813 5.957031-.382812 8.527344-1.640625 2.570312-4.527344 4.070312-7.574219 3.933593-3.046875-.136718-5.789062-1.886718-7.195312-4.59375-29.242188-56.292968-90.824219-123.398437-218.132813-123.398437-84.371094-.269531-161.519531 47.570313-198.78125 123.265625-1.445313 2.902344-4.410156 4.738281-7.652344 4.734375zm0 0"/><path d="m409.617188 452.277344c-16.832032.007812-32.09375-9.882813-38.964844-25.246094-6.871094-15.367188-4.066406-33.335938 7.160156-45.878906 28.703125-32.089844 45.511719-73.070313 47.597656-116.074219.3125-4.667969 4.257813-8.253906 8.933594-8.121094 4.707031.226563 8.339844 4.222657 8.117188 8.929688-2.28125 46.914062-20.613282 91.621093-51.917969 126.632812-9.386719 10.554688-8.5 26.703125 1.984375 36.164063 10.683594 9.011718 26.542968 8.140625 36.175781-1.988282 42.011719-47.046874 65.546875-107.726562 66.25-170.796874-.242187-28.132813-5.296875-56.015626-14.953125-82.441407-1.578125-4.441406.738281-9.324219 5.179688-10.90625 4.441406-1.578125 9.324218.738281 10.90625 5.179688 10.316406 28.34375 15.707031 58.246093 15.933593 88.410156-.761719 67.191406-25.847656 131.832031-70.609375 181.949219-8.105468 9.019531-19.664062 14.175781-31.792968 14.1875zm0 0"/><path d="m118.632812 438.371094h-.085937c-1.703125 0-3.363281-.511719-4.773437-1.464844-87.21875-59.019531-125.617188-168.105469-94.605469-268.746094 1.390625-4.503906 6.171875-7.03125 10.675781-5.640625 4.507812 1.390625 7.03125 6.171875 5.640625 10.675781-28.773437 93.328126 6.746094 194.507813 87.542969 249.371094 3.257812 1.980469 4.800781 5.886719 3.777344 9.5625-1.019532 3.675782-4.359376 6.222656-8.171876 6.242188zm0 0"/><path d="m299.277344 471.988281c-4.335938-.007812-7.976563-3.269531-8.460938-7.578125-.484375-4.3125 2.34375-8.296875 6.570313-9.269531 22.988281-5.261719 44.984375-14.195313 65.132812-26.453125 4.316407-2.683594 8.691407-5.578125 12.914063-8.554688 2.492187-1.757812 5.734375-2.050781 8.5-.769531 2.765625 1.277344 4.640625 3.9375 4.917968 6.972657.273438 3.039062-1.089843 5.988281-3.582031 7.746093-4.492187 3.167969-9.152343 6.246094-13.808593 9.140625-21.738282 13.234375-45.46875 22.875-70.273438 28.550782-.628906.148437-1.269531.21875-1.910156.214843zm0 0"/><path d="m324.285156 264.542969h-34.132812c-32.972656-.035157-59.695313-26.757813-59.734375-59.730469v-59.734375c.011719-9.421875 7.644531-17.058594 17.066406-17.066406h119.46875c9.421875.007812 17.054687 7.644531 17.066406 17.066406v59.734375c-.039062 32.972656-26.761719 59.695312-59.734375 59.730469zm-76.800781-119.464844v59.734375c.027344 23.550781 19.113281 42.636719 42.667969 42.664062h34.132812c23.554688-.027343 42.640625-19.113281 42.667969-42.664062v-59.734375zm0 0"/><path d="m136.550781 264.542969h-34.132812c-32.972657-.035157-59.695313-26.757813-59.730469-59.730469v-59.734375c.007812-9.421875 7.644531-17.058594 17.066406-17.066406h119.464844c9.421875.007812 17.054688 7.644531 17.066406 17.066406v59.734375c-.039062 32.972656-26.757812 59.695312-59.734375 59.730469zm-76.796875-119.464844v59.734375c.027344 23.550781 19.113282 42.636719 42.664063 42.664062h34.132812c23.554688-.027343 42.640625-19.113281 42.667969-42.664062v-59.734375zm0 0"/><path d="m51.21875 179.210938h-25.601562c-14.128907-.015626-25.5820318-11.46875-25.5976568-25.601563-.0390624-6.832031 2.7109378-13.386719 7.6171878-18.144531 4.738281-4.816406 11.226562-7.503906 17.980469-7.453125h34.136718c4.710938 0 8.53125 3.820312 8.53125 8.53125 0 4.714843-3.820312 8.535156-8.53125 8.535156h-34.136718c-2.226563-.019531-4.363282.867187-5.921876 2.457031-1.671874 1.578125-2.613281 3.777344-2.609374 6.074219.003906 4.710937 3.820312 8.53125 8.53125 8.535156h25.601562c4.714844 0 8.535156 3.820313 8.535156 8.53125 0 4.714844-3.820312 8.535157-8.535156 8.535157zm0 0"/><path d="m238.953125 187.742188c-2.265625 0-4.433594-.898438-6.035156-2.496094-5.597657-4.269532-12.535157-6.410156-19.566407-6.035156-7.078124-.382813-14.058593 1.792968-19.667968 6.128906-2.492188 2.335937-6.128906 2.980468-9.273438 1.644531-3.125-1.324219-5.164062-4.378906-5.191406-7.773437v-34.132813c0-2.265625.898438-4.433594 2.5-6.035156 8.746094-7.582031 20.066406-11.53125 31.632812-11.03125 11.566407-.5 22.886719 3.449219 31.632813 11.03125 1.601563 1.601562 2.5 3.769531 2.5 6.035156v34.132813c0 4.710937-3.820313 8.53125-8.53125 8.53125zm-25.601563-25.597657c5.796876-.039062 11.5625.867188 17.066407 2.683594v-15.488281c-10.667969-5.6875-23.46875-5.683594-34.132813.007812v15.480469c5.503906-1.816406 11.269532-2.722656 17.066406-2.683594zm0 0"/><path d="m486.417969 179.210938h-110.933594c-4.710937 0-8.53125-3.820313-8.53125-8.535157 0-4.710937 3.820313-8.53125 8.53125-8.53125h110.933594c2.226562.023438 4.363281-.863281 5.917969-2.453125 1.679687-1.578125 2.625-3.777344 2.617187-6.082031-.003906-4.710937-3.824219-8.527344-8.535156-8.53125h-119.464844c-4.714844 0-8.535156-3.820313-8.535156-8.535156 0-4.710938 3.820312-8.53125 8.535156-8.53125h119.464844c14.132812.015625 25.585937 11.46875 25.601562 25.597656-.066406 14.113281-11.488281 25.535156-25.601562 25.601563zm0 0"/><path d="m85.351562 187.742188c-3.449218 0-6.5625-2.078126-7.882812-5.265626s-.589844-6.859374 1.851562-9.300781l8.53125-8.53125c2.144532-2.210937 5.3125-3.09375 8.292969-2.3125 2.976563.78125 5.304688 3.109375 6.085938 6.085938.78125 2.980469-.101563 6.148437-2.3125 8.292969l-8.53125 8.535156c-1.601563 1.601562-3.769531 2.5-6.035157 2.496094zm0 0"/><path d="m93.886719 221.878906c-3.453125-.003906-6.5625-2.082031-7.882813-5.269531-1.320312-3.1875-.589844-6.859375 1.847656-9.296875l42.667969-42.667969c2.144531-2.210937 5.3125-3.09375 8.292969-2.3125 2.976562.78125 5.304688 3.109375 6.085938 6.085938.78125 2.980469-.101563 6.148437-2.3125 8.292969l-42.667969 42.667968c-1.597657 1.601563-3.769531 2.5-6.03125 2.5zm0 0"/><path d="m273.085938 187.742188c-3.453126 0-6.5625-2.078126-7.882813-5.265626s-.589844-6.859374 1.847656-9.300781l8.535157-8.53125c2.144531-2.210937 5.3125-3.09375 8.292968-2.3125 2.976563.78125 5.304688 3.109375 6.085938 6.085938.78125 2.980469-.101563 6.148437-2.3125 8.292969l-8.535156 8.535156c-1.597657 1.601562-3.769532 2.5-6.03125 2.496094zm0 0"/><path d="m281.617188 221.878906c-3.449219-.003906-6.558594-2.082031-7.878907-5.269531-1.320312-3.1875-.59375-6.859375 1.847657-9.296875l42.667968-42.667969c2.144532-2.210937 5.3125-3.09375 8.289063-2.3125 2.980469.78125 5.304687 3.109375 6.089843 6.085938.78125 2.980469-.105468 6.148437-2.3125 8.292969l-42.667968 42.667968c-1.597656 1.601563-3.769532 2.5-6.035156 2.5zm0 0"/><path d="m256.019531 324.277344h-102.402343c-4.710938 0-8.53125-3.820313-8.53125-8.535156 0-4.710938 3.820312-8.53125 8.53125-8.53125h102.402343c4.710938-.003907 8.527344-3.824219 8.53125-8.535157v-8.53125c0-4.714843 3.820313-8.535156 8.535157-8.535156 4.710937 0 8.53125 3.820313 8.53125 8.535156v8.53125c-.015626 14.132813-11.464844 25.585938-25.597657 25.601563zm0 0"/><path d="m196.285156 358.410156h-8.53125c-4.714844 0-8.535156-3.820312-8.535156-8.53125 0-4.714844 3.820312-8.535156 8.535156-8.535156h8.53125c4.714844 0 8.535156 3.820312 8.535156 8.535156 0 4.710938-3.820312 8.53125-8.535156 8.53125zm0 0"/></svg>