<svg height="512pt" viewBox="0 0 512.01888 512" width="512pt" xmlns="http://www.w3.org/2000/svg"><path d="m78.011719 395.035156c-3.15625 4.011719-6.484375 7.933594-9.898438 11.773438-12.605469 13.949218-34.113281 15.082031-48.113281 2.539062-14-12.546875-15.226562-34.050781-2.742188-48.105468 7.546876-8.453126 14.371094-17.53125 20.394532-27.136719zm0 0" fill="#ff9801"/><path d="m247.484375 8.558594c-101.269531-.015625-190.675781 66.109375-220.3125 162.949218-29.640625 96.835938 7.441406 201.675782 91.375 258.34375h.085937l69.121094 48.042969v8.53125c.027344 9.414063 7.652344 17.039063 17.066406 17.066407h145.066407c9.414062-.027344 17.039062-7.652344 17.066406-17.066407v-50.429687c.765625-.511719 1.535156-.941406 2.304687-1.453125 3.753907-2.386719 7.507813-4.863281 11.089844-7.421875.011719.089844.042969.175781.085938.253906 1.058594 2.222656 2.570312 4.199219 4.4375 5.804688.597656.597656 1.28125 1.277343 1.964844 1.875 1.257812 1.097656 2.597656 2.097656 4.007812 2.988281.6875.5625 1.429688 1.046875 2.21875 1.449219.800781.449218 1.628906.847656 2.476562 1.195312.6875.335938 1.402344.621094 2.132813.855469 1.109375.425781 2.21875.765625 3.328125 1.109375 2.8125.75 5.710938 1.121094 8.617188 1.109375 9.707031.011719 18.960937-4.117188 25.429687-11.351563 43.410156-48.574218 67.726563-111.242187 68.4375-176.382812 1.023437-76.800782-51.199219-247.46875-256-247.46875zm0 0" fill="#f0c419"/><path d="m503.484375 256.027344c-.710937 65.140625-25.027344 127.808594-68.4375 176.382812-6.46875 7.234375-15.722656 11.363282-25.429687 11.351563-2.90625.011719-5.804688-.359375-8.617188-1.109375-1.109375-.34375-2.21875-.683594-3.328125-1.109375-.730469-.234375-1.445313-.519531-2.132813-.855469-.847656-.347656-1.675781-.746094-2.476562-1.195312-.789062-.402344-1.53125-.886719-2.21875-1.449219-1.410156-.890625-2.75-1.890625-4.007812-2.988281-.683594-.597657-1.367188-1.277344-1.964844-1.875-1.867188-1.605469-3.378906-3.582032-4.4375-5.804688-.042969-.078125-.074219-.164062-.085938-.253906-3.582031 2.558594-7.335937 5.035156-11.089844 7.421875-.769531.511719-1.539062.941406-2.304687 1.453125-20.9375 12.726562-43.785156 22.003906-67.671875 27.476562h-.253906l-.339844-2.644531c-8.617188-20.695313-28.789062-34.210937-51.203125-34.304687h-8.53125c-20.351563.027343-38.765625 12.078124-46.933594 30.71875-.6875 1.617187-1.285156 3.269531-1.792969 4.949218-1.648437 5.042969-2.484374 10.3125-2.472656 15.617188v.085937l-69.121094-48.042969h-.085937c-83.933594-56.667968-121.015625-161.507812-91.375-258.34375 29.636719-96.839843 119.042969-162.964843 220.3125-162.949218 204.800781 0 257.023437 170.667968 256 247.46875zm0 0" fill="#ffdc00"/><path d="m380.347656 427.121094c-3.582031 2.558594-7.335937 5.035156-11.089844 7.421875-13.527343-12.691407-14.472656-33.851563-2.136718-47.699219 26.3125-29.355469 43.144531-65.972656 48.292968-105.054688 1.207032-9.3125 9.132813-16.285156 18.523438-16.289062-2.128906 44.964844-19.699219 87.820312-49.746094 121.34375-9.945312 11.144531-11.5 27.453125-3.84375 40.277344zm0 0" fill="#fec108"/><path d="m192.019531 457.242188c-8.152343-18.652344-26.578125-30.703126-46.933593-30.695313h-8.535157c-28.292969.046875-51.207031 23.003906-51.199219 51.296875v8.550781c.019532 9.421875 7.644532 17.0625 17.066407 17.097657h145.066406zm0 0" fill="#3f51b5"/><path d="m366.953125 435.996094v50.429687c-.027344 9.414063-7.652344 17.039063-17.066406 17.066407h-145.066407c-9.414062-.027344-17.039062-7.652344-17.066406-17.066407v-8.617187c-.011718-5.304688.824219-10.574219 2.472656-15.617188.507813-1.679687 1.105469-3.332031 1.792969-4.949218 8.167969-18.640626 26.582031-30.691407 46.933594-30.71875h8.53125c22.414063.09375 42.585937 13.609374 51.203125 34.304687l.59375 2.644531c23.886719-5.472656 46.734375-14.75 67.671875-27.476562zm0 0" fill="#3f51b5"/><path d="m366.953125 435.996094v17.066406c-15.945313 9.6875-33.011719 17.390625-50.824219 22.933594-3.960937 1.199218-8.253906.449218-11.578125-2.019532-3.320312-2.46875-5.273437-6.367187-5.269531-10.503906 23.886719-5.472656 46.734375-14.75 67.671875-27.476562zm0 0" fill="#283593"/><path d="m187.753906 179.292969c0-23.609375-19.105468-42.75-42.667968-42.75-23.566407 0-42.667969 19.140625-42.667969 42.75 0 23.605469 19.101562 42.746093 42.667969 42.746093 23.5625 0 42.667968-19.140624 42.667968-42.746093zm0 0" fill="#f5f5f5"/><path d="m162.039062 179.292969c0-14.105469-11.410156-25.535157-25.488281-25.535157-14.074219 0-25.484375 11.429688-25.484375 25.535157 0 14.101562 11.410156 25.535156 25.484375 25.535156 14.078125 0 25.488281-11.433594 25.488281-25.535156zm0 0" fill="#3f51b5"/><path d="m324.285156 179.292969c-.019531 20.371093-14.425781 37.890625-34.410156 41.851562-19.980469 3.957031-39.980469-6.75-47.761719-25.578125-7.785156-18.824218-1.1875-40.527344 15.757813-51.835937 16.945312-11.3125 39.519531-9.078125 53.917968 5.332031 8.015626 8.015625 12.511719 18.894531 12.496094 30.230469zm0 0" fill="#f5f5f5"/><path d="m298.570312 179.292969c-.007812 12.167969-8.613281 22.640625-20.554687 25.003906-11.9375 2.367187-23.886719-4.03125-28.539063-15.277344-4.648437-11.25-.707031-24.214843 9.417969-30.972656s23.609375-5.421875 32.210938 3.1875c4.789062 4.789063 7.476562 11.285156 7.464843 18.058594zm0 0" fill="#3f51b5"/><path d="m162.152344 170.691406c0 4.714844-3.820313 8.535156-8.535156 8.535156-4.710938 0-8.53125-3.820312-8.53125-8.535156 0-4.710937 3.820312-8.53125 8.53125-8.53125 4.714843 0 8.535156 3.820313 8.535156 8.53125zm0 0" fill="#f5f5f5"/><path d="m298.6875 170.691406c0 4.714844-3.824219 8.535156-8.535156 8.535156-4.714844 0-8.535156-3.820312-8.535156-8.535156 0-4.710937 3.820312-8.53125 8.535156-8.53125 4.710937 0 8.535156 3.820313 8.535156 8.53125zm0 0" fill="#f5f5f5"/><path d="m503.484375 256.027344c-.710937 65.140625-25.027344 127.808594-68.4375 176.382812-6.46875 7.234375-15.722656 11.363282-25.429687 11.351563-2.90625.011719-5.804688-.359375-8.617188-1.109375-1.109375-.34375-2.21875-.683594-3.328125-1.109375-.300781-.0625-.589844-.179688-.851563-.34375 4.847657-1.878907 9.179688-4.894531 12.628907-8.789063 43.40625-48.574218 67.722656-111.242187 68.4375-176.382812 1.023437-74.921875-48.726563-239.277344-241.496094-247.125 3.671875-.257813 7.339844-.34375 11.09375-.34375 204.800781 0 257.023437 170.667968 256 247.46875zm0 0" fill="#fec108"/><path d="m366.953125 435.996094v50.429687c-.027344 9.414063-7.652344 17.039063-17.066406 17.066407h-25.601563c9.414063-.027344 17.039063-7.652344 17.066406-17.066407v-37.035156c8.808594-3.917969 17.359376-8.394531 25.601563-13.394531zm0 0" fill="#283593"/><path d="m349.886719 512.007812h-145.066407c-14.132812-.015624-25.585937-11.464843-25.601562-25.597656v-8.621094c-.007812-6.207031.96875-12.378906 2.902344-18.277343.574218-1.902344 1.253906-3.773438 2.03125-5.605469 9.507812-21.800781 31.015625-35.90625 54.800781-35.933594h8.53125c26.035156.019532 49.460937 15.820313 59.234375 39.953125 1.59375 4.4375-.710938 9.324219-5.144531 10.921875-4.4375 1.59375-9.328125-.710937-10.921875-5.148437-7.355469-17.332031-24.339844-28.609375-43.167969-28.660157h-8.53125c-16.96875.019532-32.320313 10.070313-39.117187 25.617188-.546876 1.292969-1.027344 2.613281-1.433594 3.957031-1.402344 4.253907-2.117188 8.703125-2.117188 13.179688v8.617187c.003906 4.714844 3.824219 8.53125 8.535156 8.535156h145.066407c4.710937-.003906 8.527343-3.820312 8.53125-8.535156v-50.429687c0-4.714844 3.820312-8.535157 8.535156-8.535157 4.710937 0 8.53125 3.820313 8.53125 8.535157v50.429687c-.015625 14.132813-11.46875 25.582032-25.597656 25.597656zm0 0"/><path d="m247.484375 512.007812h-145.066406c-14.140625-.023437-25.59375-11.492187-25.597657-25.632812v-8.546875c.011719-33.003906 26.730469-59.765625 59.730469-59.832031h8.535157c23.757812-.023438 45.265624 14.046875 54.757812 35.820312 1.878906 4.324219-.097656 9.351563-4.421875 11.230469-4.320313 1.878906-9.347656-.097656-11.226563-4.421875-6.785156-15.546875-22.148437-25.585938-39.109374-25.5625h-8.535157c-23.578125.054688-42.664062 19.183594-42.664062 42.765625v8.546875c-.007813 4.722656 3.8125 8.554688 8.53125 8.566406h145.066406c4.714844 0 8.535156 3.820313 8.535156 8.535156 0 4.710938-3.820312 8.53125-8.535156 8.53125zm0 0"/><path d="m42.6875 426.675781c-16.835938.007813-32.097656-9.882812-38.96875-25.246093-6.871094-15.367188-4.066406-33.335938 7.160156-45.878907 7.234375-8.097656 13.769532-16.789062 19.539063-25.988281 1.578125-2.664062 4.476562-4.265625 7.574219-4.179688 3.097656.082032 5.90625 1.839844 7.335937 4.585938 1.433594 2.746094 1.261719 6.054688-.441406 8.640625-6.28125 10.007813-13.390625 19.472656-21.257813 28.289063-9.398437 10.550781-8.519531 26.710937 1.964844 36.179687 10.683594 9.015625 26.542969 8.144531 36.175781-1.984375 3.265625-3.679688 6.484375-7.472656 9.53125-11.355469 1.886719-2.394531 4.910157-3.605469 7.925781-3.167969 3.019532.433594 5.578126 2.445313 6.710938 5.277344 1.132812 2.832032.667969 6.050782-1.21875 8.449219-3.265625 4.140625-6.699219 8.199219-10.214844 12.164063-8.109375 9.035156-19.675781 14.203124-31.816406 14.214843zm0 0"/><path d="m409.617188 452.277344c-16.832032.007812-32.09375-9.882813-38.964844-25.25-6.871094-15.363282-4.066406-33.335938 7.160156-45.875 28.703125-32.089844 45.511719-73.070313 47.597656-116.078125.285156-4.679688 4.246094-8.28125 8.933594-8.117188 4.707031.222657 8.339844 4.222657 8.117188 8.929688-2.28125 46.910156-20.613282 91.617187-51.917969 126.632812-9.386719 10.550781-8.5 26.699219 1.984375 36.164063 10.683594 9.011718 26.542968 8.140625 36.175781-1.992188 42.003906-47.050781 65.539063-107.726562 66.25-170.792968-1.121094-63.945313-26.054687-125.171876-69.925781-171.710938-43.941406-44.53125-103.675782-67.113281-177.542969-67.113281-97.453125-.011719-183.503906 63.578125-212.101563 156.746093-28.59375 93.164063 6.960938 194.082032 87.644532 248.742188 3.257812 1.984375 4.800781 5.890625 3.777344 9.566406-1.019532 3.675782-4.359376 6.222656-8.171876 6.238282h-.085937c-1.703125 0-3.363281-.507813-4.773437-1.460938-87.039063-58.769531-125.492188-167.488281-94.757813-267.910156 30.734375-100.425782 123.449219-169.00000025 228.46875-168.9882815 78.601563 0 142.421875 24.2890625 189.695313 72.1953125 47.367187 49.597656 74.121093 115.339844 74.839843 183.917969-.765625 67.199218-25.851562 131.839844-70.609375 181.96875-8.105468 9.019531-19.664062 14.175781-31.792968 14.1875zm0 0"/><path d="m299.277344 471.988281c-4.335938-.007812-7.976563-3.269531-8.460938-7.582031-.484375-4.308594 2.34375-8.296875 6.570313-9.265625 22.988281-5.265625 44.984375-14.195313 65.132812-26.453125 4.316407-2.683594 8.691407-5.582031 12.914063-8.554688 2.492187-1.757812 5.734375-2.050781 8.5-.773437 2.765625 1.28125 4.640625 3.941406 4.917968 6.976563.273438 3.035156-1.089843 5.988281-3.582031 7.746093-4.492187 3.167969-9.152343 6.246094-13.808593 9.140625-21.738282 13.234375-45.46875 22.875-70.273438 28.550782-.628906.144531-1.269531.21875-1.910156.214843zm0 0"/><path d="m145.085938 230.574219c-20.75.03125-39.480469-12.441407-47.441407-31.601563-7.964843-19.164062-3.597656-41.238281 11.0625-55.921875 14.664063-14.683593 36.730469-19.085937 55.902344-11.152343 19.175781 7.9375 31.679687 26.644531 31.675781 47.394531-.007812 28.285156-22.914062 51.226562-51.199218 51.28125zm0-85.5c-13.847657-.03125-26.351563 8.28125-31.675782 21.066406-5.324218 12.785156-2.417968 27.515625 7.363282 37.320313 9.78125 9.804687 24.503906 12.746093 37.300781 7.457031 12.796875-5.292969 21.144531-17.773438 21.144531-31.625.003906-18.863281-15.265625-34.171875-34.132812-34.21875zm0 0"/><path d="m92.234375 118.15625c4.21875-8.453125 10.835937-15.476562 19.027344-20.183594 8.242187-4.957031 17.574219-7.816406 27.175781-8.335937 9.460938-.457031 18.914062 1.046875 27.761719 4.417969 4.273437 1.652343 8.410156 3.648437 12.359375 5.972656 3.757812 2.492187 7.351562 5.222656 10.761718 8.175781 1.105469.957031 1.425782 2.539063.777344 3.847656-.648437 1.308594-2.097656 2.019531-3.527344 1.722657l-.386718-.082032c-4.265625-.886718-8.203125-2.183594-12.136719-3.304687-4.03125-.761719-7.867187-2.007813-11.761719-2.601563-7.53125-1.417968-15.199218-1.988281-22.855468-1.695312-7.527344.554687-14.953126 2.074218-22.09375 4.511718-7.589844 2.65625-14.894532 6.074219-21.796876 10.199219l-.261718.152344c-.820313.480469-1.855469.367187-2.554688-.273437-.695312-.644532-.894531-1.664063-.488281-2.519532zm0 0"/><path d="m331.164062 120.796875c-6.898437-4.125-14.203124-7.542969-21.796874-10.195313-7.140626-2.441406-14.5625-3.960937-22.089844-4.515624-7.660156-.292969-15.324219.277343-22.855469 1.695312-3.894531.59375-7.730469 1.839844-11.765625 2.601562-3.933594 1.125-7.871094 2.417969-12.136719 3.304688l-.378906.082031c-1.429687.296875-2.882813-.410156-3.53125-1.722656-.648437-1.308594-.328125-2.890625.773437-3.847656 3.410157-2.953125 7.003907-5.683594 10.765626-8.175781 3.949218-2.320313 8.082031-4.320313 12.355468-5.972657 8.851563-3.371093 18.304688-4.875 27.761719-4.417969 9.605469.519532 18.933594 3.378907 27.175781 8.335938 8.191406 4.710938 14.8125 11.730469 19.03125 20.183594.40625.855468.207032 1.875-.484375 2.515625-.695312.640625-1.726562.757812-2.546875.285156zm0 0"/><path d="m281.617188 230.574219c-24.453126.023437-45.523438-17.230469-50.316407-41.210938-4.792969-23.984375 8.023438-48.011719 30.613281-57.386719 22.585938-9.375 48.652344-1.488281 62.25 18.839844 13.597657 20.328125 10.941407 47.429688-6.34375 64.730469-9.574218 9.648437-22.609374 15.0625-36.203124 15.027344zm0-85.5c-13.820313.042969-26.261719 8.390625-31.539063 21.164062-5.277344 12.773438-2.355469 27.46875 7.40625 37.25 13.492187 12.921875 34.765625 12.925781 48.257813.003907 9.78125-9.777344 12.714843-24.476563 7.433593-37.257813-5.277343-12.78125-17.730469-21.128906-31.558593-21.160156zm0 0"/><path d="m281.617188 315.742188c-4.710938 0-8.53125-3.820313-8.53125-8.53125v-8.535157c-.003907-4.710937-3.824219-8.527343-8.535157-8.53125h-119.464843c-4.714844 0-8.535157-3.820312-8.535157-8.535156 0-4.710937 3.820313-8.535156 8.535157-8.535156h119.464843c14.132813.015625 25.585938 11.46875 25.601563 25.601562v8.535157c0 4.710937-3.820313 8.53125-8.535156 8.53125zm0 0"/><path d="m196.285156 324.277344h-17.066406c-4.710938 0-8.53125-3.820313-8.53125-8.535156 0-4.710938 3.820312-8.53125 8.53125-8.53125h17.066406c4.714844 0 8.535156 3.820312 8.535156 8.53125 0 4.714843-3.820312 8.535156-8.535156 8.535156zm0 0"/></svg>