<svg height="512pt" viewBox="0 0 512.01888 512" width="512pt" xmlns="http://www.w3.org/2000/svg"><path d="m78.011719 395.035156c-3.15625 4.011719-6.484375 7.933594-9.898438 11.773438-12.605469 13.949218-34.113281 15.082031-48.113281 2.539062-14-12.546875-15.226562-34.050781-2.742188-48.105468 7.546876-8.453126 14.371094-17.53125 20.394532-27.136719zm0 0" fill="#ff9801"/><path d="m247.484375 8.558594c-101.269531-.015625-190.675781 66.109375-220.3125 162.949218-29.640625 96.835938 7.441406 201.675782 91.375 258.34375h.085937l69.121094 48.042969v8.53125c.027344 9.414063 7.652344 17.039063 17.066406 17.066407h145.066407c9.414062-.027344 17.039062-7.652344 17.066406-17.066407v-50.429687c.765625-.511719 1.535156-.941406 2.304687-1.453125 3.753907-2.386719 7.507813-4.863281 11.089844-7.421875.011719.089844.042969.175781.085938.253906 1.058594 2.222656 2.570312 4.199219 4.4375 5.804688.597656.597656 1.28125 1.277343 1.964844 1.875 1.257812 1.097656 2.597656 2.097656 4.007812 2.988281.6875.5625 1.429688 1.046875 2.21875 1.449219.800781.449218 1.628906.847656 2.476562 1.195312.6875.335938 1.402344.621094 2.132813.855469 1.109375.425781 2.21875.765625 3.328125 1.109375 2.8125.75 5.710938 1.121094 8.617188 1.109375 9.707031.011719 18.960937-4.117188 25.429687-11.351563 43.410156-48.574218 67.726563-111.242187 68.4375-176.382812 1.023437-76.800782-51.199219-247.46875-256-247.46875zm0 0" fill="#f0c419"/><path d="m503.484375 256.027344c-.710937 65.140625-25.027344 127.808594-68.4375 176.382812-6.46875 7.234375-15.722656 11.363282-25.429687 11.351563-2.90625.011719-5.804688-.359375-8.617188-1.109375-1.109375-.34375-2.21875-.683594-3.328125-1.109375-.730469-.234375-1.445313-.519531-2.132813-.855469-.847656-.347656-1.675781-.746094-2.476562-1.195312-.789062-.402344-1.53125-.886719-2.21875-1.449219-1.410156-.890625-2.75-1.890625-4.007812-2.988281-.683594-.597657-1.367188-1.277344-1.964844-1.875-1.867188-1.605469-3.378906-3.582032-4.4375-5.804688-.042969-.078125-.074219-.164062-.085938-.253906-3.582031 2.558594-7.335937 5.035156-11.089844 7.421875-.769531.511719-1.539062.941406-2.304687 1.453125-20.9375 12.726562-43.785156 22.003906-67.671875 27.476562h-.253906l-.339844-2.644531c-8.617188-20.695313-28.789062-34.210937-51.203125-34.304687h-8.53125c-20.351563.027343-38.765625 12.078124-46.933594 30.71875-.6875 1.617187-1.285156 3.269531-1.792969 4.949218-1.648437 5.042969-2.484374 10.3125-2.472656 15.617188v.085937l-69.121094-48.042969h-.085937c-83.933594-56.667968-121.015625-161.507812-91.375-258.34375 29.636719-96.839843 119.042969-162.964843 220.3125-162.949218 204.800781 0 257.023437 170.667968 256 247.46875zm0 0" fill="#ffdc00"/><path d="m380.347656 427.121094c-3.582031 2.558594-7.335937 5.035156-11.089844 7.421875-13.527343-12.691407-14.472656-33.851563-2.136718-47.699219 26.3125-29.355469 43.144531-65.972656 48.292968-105.054688 1.207032-9.3125 9.132813-16.285156 18.523438-16.289062-2.128906 44.964844-19.699219 87.820312-49.746094 121.34375-9.945312 11.144531-11.5 27.453125-3.84375 40.277344zm0 0" fill="#fec108"/><path d="m192.019531 457.242188c-8.152343-18.652344-26.578125-30.703126-46.933593-30.695313h-8.535157c-28.292969.046875-51.207031 23.003906-51.199219 51.296875v8.550781c.019532 9.421875 7.644532 17.0625 17.066407 17.097657h145.066406zm0 0" fill="#3f51b5"/><path d="m366.953125 435.996094v50.429687c-.027344 9.414063-7.652344 17.039063-17.066406 17.066407h-145.066407c-9.414062-.027344-17.039062-7.652344-17.066406-17.066407v-8.617187c-.011718-5.304688.824219-10.574219 2.472656-15.617188.507813-1.679687 1.105469-3.332031 1.792969-4.949218 8.167969-18.640626 26.582031-30.691407 46.933594-30.71875h8.53125c22.414063.09375 42.585937 13.609374 51.203125 34.304687l.59375 2.644531c23.886719-5.472656 46.734375-14.75 67.671875-27.476562zm0 0" fill="#3f51b5"/><path d="m366.953125 435.996094v17.066406c-15.945313 9.6875-33.011719 17.390625-50.824219 22.933594-3.960937 1.199218-8.253906.449218-11.578125-2.019532-3.320312-2.46875-5.273437-6.367187-5.269531-10.503906 23.886719-5.472656 46.734375-14.75 67.671875-27.476562zm0 0" fill="#283593"/><path d="m397.671875 220.519531c12.914063 17.230469 9.414063 41.667969-7.816406 54.582031-17.230469 12.914063-41.667969 9.414063-54.578125-7.816406-12.914063-17.230468-10.886719-79.539062-10.886719-79.539062s60.367187 15.542968 73.28125 32.773437zm0 0" fill="#0377bc"/><path d="m381.640625 213.351562c10.089844 13.460938 7.355469 32.550782-6.105469 42.640626-13.464844 10.085937-32.554687 7.351562-42.640625-6.109376-10.089843-13.460937-8.503906-62.140624-8.503906-62.140624s47.164063 12.148437 57.25 25.609374zm0 0" fill="#02a9f4"/><path d="m24.449219 222.570312c-13.722657 18.308594-10 44.273438 8.308593 57.996094 18.308594 13.71875 44.273438 10 57.996094-8.308594 13.71875-18.308593 11.566406-84.515624 11.566406-84.515624s-64.152343 16.519531-77.871093 34.828124zm0 0" fill="#0377bc"/><path d="m41.628906 214.886719c-10.695312 14.269531-7.796875 34.507812 6.472656 45.199219 14.269532 10.695312 34.507813 7.792968 45.199219-6.472657 10.691407-14.269531 9.015625-65.871093 9.015625-65.871093s-49.996094 12.875-60.6875 27.144531zm0 0" fill="#02a9f4"/><path d="m204.820312 256.011719h17.066407c28.277343 0 51.199219 22.921875 51.199219 51.199219v8.710937c0 18.851563-15.28125 34.132813-34.132813 34.132813h-51.199219c-18.851562 0-34.136718-15.28125-34.136718-34.132813v-8.710937c0-28.277344 22.925781-51.199219 51.203124-51.199219zm0 0" fill="#bb193b"/><path d="m273.085938 307.226562v8.703126c.003906 9.054687-3.59375 17.738281-9.996094 24.140624-6.402344 6.402344-15.085938 9.996094-24.136719 9.992188h-25.601563v-17.066406c-.019531-9.066406 3.566407-17.769532 9.96875-24.1875 6.40625-6.417969 15.097657-10.027344 24.164063-10.03125h24.832031c.519532 2.789062.777344 5.617187.769532 8.449218zm0 0" fill="#ad1457"/><path d="m256.019531 307.226562v8.703126c0 9.054687-3.59375 17.738281-9.996093 24.140624-6.402344 6.402344-15.085938 9.996094-24.136719 9.992188h-8.535157v-17.066406c-.019531-9.066406 3.566407-17.769532 9.96875-24.1875 6.40625-6.417969 15.097657-10.027344 24.164063-10.03125h7.765625c.519531 2.789062.777344 5.617187.769531 8.449218zm0 0" fill="#e91e63"/><path d="m503.484375 256.027344c-.710937 65.140625-25.027344 127.808594-68.4375 176.382812-6.46875 7.234375-15.722656 11.363282-25.429687 11.351563-2.90625.011719-5.804688-.359375-8.617188-1.109375-1.109375-.34375-2.21875-.683594-3.328125-1.109375-.300781-.0625-.589844-.179688-.851563-.34375 4.847657-1.878907 9.179688-4.894531 12.628907-8.789063 43.40625-48.574218 67.722656-111.242187 68.4375-176.382812 1.023437-74.921875-48.726563-239.277344-241.496094-247.125 3.671875-.257813 7.339844-.34375 11.09375-.34375 204.800781 0 257.023437 170.667968 256 247.46875zm0 0" fill="#fec108"/><path d="m366.953125 435.996094v50.429687c-.027344 9.414063-7.652344 17.039063-17.066406 17.066407h-25.601563c9.414063-.027344 17.039063-7.652344 17.066406-17.066407v-37.035156c8.808594-3.917969 17.359376-8.394531 25.601563-13.394531zm0 0" fill="#283593"/><path d="m349.886719 512.007812h-145.066407c-14.132812-.015624-25.585937-11.464843-25.601562-25.597656v-8.621094c-.007812-6.207031.96875-12.378906 2.902344-18.277343.574218-1.902344 1.253906-3.773438 2.03125-5.605469 9.507812-21.800781 31.015625-35.90625 54.800781-35.933594h8.53125c26.035156.019532 49.460937 15.820313 59.234375 39.953125 1.59375 4.4375-.710938 9.324219-5.144531 10.921875-4.4375 1.59375-9.328125-.710937-10.921875-5.148437-7.355469-17.332031-24.339844-28.609375-43.167969-28.660157h-8.53125c-16.96875.019532-32.320313 10.070313-39.117187 25.617188-.546876 1.292969-1.027344 2.613281-1.433594 3.957031-1.402344 4.253907-2.117188 8.703125-2.117188 13.179688v8.617187c.003906 4.714844 3.824219 8.53125 8.535156 8.535156h145.066407c4.710937-.003906 8.527343-3.820312 8.53125-8.535156v-50.429687c0-4.714844 3.820312-8.535157 8.535156-8.535157 4.710937 0 8.53125 3.820313 8.53125 8.535157v50.429687c-.015625 14.132813-11.46875 25.582032-25.597656 25.597656zm0 0"/><path d="m247.484375 512.007812h-145.066406c-14.140625-.023437-25.59375-11.492187-25.597657-25.632812v-8.546875c.011719-33.003906 26.730469-59.765625 59.730469-59.832031h8.535157c23.757812-.023438 45.265624 14.046875 54.757812 35.820312 1.878906 4.324219-.097656 9.351563-4.421875 11.230469-4.320313 1.878906-9.347656-.097656-11.226563-4.421875-6.785156-15.546875-22.148437-25.585938-39.109374-25.5625h-8.535157c-23.578125.054688-42.664062 19.183594-42.664062 42.765625v8.546875c-.007813 4.722656 3.8125 8.554688 8.53125 8.566406h145.066406c4.714844 0 8.535156 3.820313 8.535156 8.535156 0 4.710938-3.820312 8.53125-8.535156 8.53125zm0 0"/><path d="m42.6875 426.675781c-16.835938.007813-32.097656-9.882812-38.96875-25.246093-6.871094-15.367188-4.066406-33.335938 7.160156-45.878907 7.234375-8.097656 13.769532-16.789062 19.539063-25.988281 1.578125-2.664062 4.476562-4.265625 7.574219-4.179688 3.097656.082032 5.90625 1.839844 7.335937 4.585938 1.433594 2.746094 1.261719 6.054688-.441406 8.640625-6.28125 10.007813-13.390625 19.472656-21.257813 28.289063-9.398437 10.550781-8.519531 26.710937 1.964844 36.179687 10.683594 9.015625 26.542969 8.144531 36.175781-1.984375 3.265625-3.679688 6.484375-7.472656 9.53125-11.355469 1.886719-2.394531 4.910157-3.605469 7.925781-3.167969 3.019532.433594 5.578126 2.445313 6.710938 5.277344 1.132812 2.832032.667969 6.050782-1.21875 8.449219-3.265625 4.140625-6.699219 8.199219-10.214844 12.164063-8.109375 9.035156-19.675781 14.203124-31.816406 14.214843zm0 0"/><path d="m409.617188 452.277344c-16.832032.007812-32.09375-9.882813-38.964844-25.25-6.871094-15.363282-4.066406-33.335938 7.160156-45.875 28.703125-32.089844 45.511719-73.070313 47.597656-116.078125.351563-4.648438 4.273438-8.210938 8.933594-8.117188 4.707031.222657 8.339844 4.222657 8.117188 8.929688-2.28125 46.910156-20.613282 91.617187-51.917969 126.632812-9.386719 10.550781-8.5 26.699219 1.984375 36.164063 10.683594 9.011718 26.542968 8.140625 36.175781-1.992188 42.011719-47.046875 65.546875-107.722656 66.25-170.792968-1.121094-63.945313-26.054687-125.171876-69.925781-171.710938-43.941406-44.53125-103.675782-67.113281-177.542969-67.113281-122.429687.175781-221.648437 99.359375-221.867187 221.789062v.078125c-.003907 4.078125-2.890626 7.582032-6.890626 8.375-4 .789063-8-1.355468-9.558593-5.125-.515625-1.242187-.726563-2.589844-.617188-3.929687.570313-131.613281 107.320313-238.0625 238.933594-238.2539065 78.601563 0 142.421875 24.2890625 189.695313 72.1953125 47.367187 49.597656 74.121093 115.339844 74.839843 183.917969-.757812 67.199218-25.84375 131.84375-70.609375 181.96875-8.105468 9.019531-19.664062 14.175781-31.792968 14.1875zm0 0"/><path d="m118.632812 438.367188c-1.730468 0-3.421874-.507813-4.863281-1.460938-59.703125-40.109375-98.054687-105.074219-104.335937-176.726562-.417969-4.695313 3.046875-8.839844 7.742187-9.257813 4.695313-.417969 8.839844 3.046875 9.257813 7.742187 5.820312 66.40625 41.3125 126.632813 96.585937 163.894532 3.265625 1.980468 4.816407 5.886718 3.796875 9.566406-1.023437 3.679688-4.367187 6.230469-8.183594 6.242188zm0 0"/><path d="m299.277344 471.988281c-4.335938-.007812-7.976563-3.269531-8.460938-7.582031-.484375-4.308594 2.34375-8.296875 6.570313-9.265625 22.988281-5.265625 44.984375-14.195313 65.132812-26.453125 4.316407-2.683594 8.691407-5.582031 12.914063-8.554688 2.492187-1.757812 5.734375-2.050781 8.5-.773437 2.765625 1.28125 4.640625 3.941406 4.917968 6.976563.273438 3.035156-1.089843 5.988281-3.582031 7.746093-4.492187 3.167969-9.152343 6.246094-13.808593 9.140625-21.738282 13.234375-45.46875 22.875-70.273438 28.550782-.628906.144531-1.269531.21875-1.910156.214843zm0 0"/><path d="m94.996094 106.265625c16.148437 4.609375 33.09375 5.726563 49.707031 3.28125 7.738281-1.5625 15.074219-4.679687 21.570313-9.167969 3.472656-2.28125 6.789062-4.796875 9.917968-7.53125 3.25-2.777344 6.097656-6.074218 9.644532-9.003906l.441406-.367188c1.125-.933593 2.746094-.976562 3.917968-.101562 1.175782.871094 1.601563 2.433594 1.03125 3.78125-1.761718 4.507812-3.910156 8.859375-6.414062 13.003906-2.71875 4.183594-5.953125 8.007813-9.632812 11.378906-7.484376 7.207032-16.878907 12.113282-27.070313 14.132813-19.917969 4.066406-40.566406-1.828125-55.332031-15.796875-.683594-.683594-.832032-1.730469-.371094-2.578125.464844-.84375 1.429688-1.28125 2.371094-1.078125zm0 0"/><path d="m334.703125 109.875c-14.765625 13.96875-35.410156 19.863281-55.324219 15.800781-10.195312-2.019531-19.589844-6.925781-27.074218-14.132812-3.675782-3.371094-6.914063-7.195313-9.628907-11.378907-2.507812-4.144531-4.65625-8.496093-6.417969-13.003906-.566406-1.347656-.140624-2.90625 1.03125-3.777344 1.171876-.871093 2.785157-.832031 3.910157.09375l.445312.371094c3.546875 2.929688 6.390625 6.226563 9.644531 9.003906 3.132813 2.734376 6.445313 5.25 9.921876 7.53125 6.492187 4.488282 13.832031 7.605469 21.566406 9.167969 16.617187 2.445313 33.5625 1.328125 49.710937-3.28125l.199219-.046875c.945312-.214844 1.914062.222656 2.382812 1.070313.46875.84375.316407 1.898437-.367187 2.582031zm0 0"/><path d="m324.285156 196.277344c-2.253906.003906-4.417968-.890625-6.015625-2.480469-10.105469-9.050781-23.09375-14.21875-36.652343-14.585937-13.566407.289062-26.570313 5.460937-36.632813 14.566406-3.34375 3.246094-8.679687 3.203125-11.972656-.09375-3.296875-3.296875-3.339844-8.628906-.09375-11.972656 27.226562-26.089844 70.175781-26.089844 97.402343 0 2.4375 2.4375 3.167969 6.109374 1.847657 9.296874-1.320313 3.1875-4.429688 5.265626-7.882813 5.269532zm0 0"/><path d="m187.753906 196.277344c-2.257812.003906-4.421875-.890625-6.019531-2.480469-10.101563-9.050781-23.089844-14.21875-36.648437-14.585937-13.566407.289062-26.574219 5.460937-36.632813 14.566406-3.347656 3.246094-8.679687 3.203125-11.976563-.09375-3.296874-3.296875-3.335937-8.628906-.089843-11.972656 13.285156-12.273438 30.617187-19.234376 48.699219-19.566407 18.082031.332031 35.414062 7.292969 48.699218 19.566407 2.441406 2.4375 3.167969 6.109374 1.847656 9.296874-1.320312 3.1875-4.429687 5.265626-7.878906 5.269532zm0 0"/><path d="m366.578125 291.429688c-2.289063 0-4.578125-.164063-6.84375-.488282-12.488281-1.753906-23.753906-8.433594-31.289063-18.542968-14-18.679688-12.941406-74.027344-12.585937-84.933594.085937-2.589844 1.335937-4.996094 3.410156-6.550782 2.070313-1.550781 4.734375-2.078124 7.242188-1.433593 10.566406 2.722656 63.980469 17.238281 77.980469 35.925781 10.777343 14.386719 12.515624 33.621094 4.492187 49.707031-8.019531 16.085938-24.429687 26.269531-42.40625 26.316407zm-33.808594-92.507813c.066407 23.105469 2.414063 54.015625 9.332031 63.242187 6.523438 8.707032 17.199219 13.273438 28.003907 11.976563 10.800781-1.296875 20.089843-8.261719 24.371093-18.265625 4.277344-10.003906 2.894532-21.527344-3.632812-30.234375h-.007812c-6.917969-9.246094-35.914063-20.167969-58.066407-26.71875zm0 0"/><path d="m57.535156 297.355469c-18.910156-.015625-36.183594-10.707031-44.632812-27.625-8.449219-16.914063-6.621094-37.148438 4.726562-52.273438 15.082032-20.125 75.699219-36.210937 82.566406-37.972656 2.507813-.648437 5.171876-.121094 7.242188 1.433594 2.070312 1.554687 3.324219 3.964843 3.40625 6.550781.234375 7.082031 1.816406 69.78125-13.257812 89.90625-9.453126 12.601562-24.296876 20.007812-40.050782 19.980469zm36.40625-98.441407c-23.699218 6.964844-55.164062 18.773438-62.65625 28.773438h-.007812c-10.894532 14.539062-7.941406 35.15625 6.597656 46.050781s35.15625 7.9375 46.050781-6.601562c7.492188-10 9.984375-43.523438 10.019531-68.222657zm0 0"/><path d="m238.953125 358.589844h-51.199219c-23.554687-.027344-42.640625-19.113282-42.667968-42.667969v-8.710937c.039062-32.976563 26.757812-59.695313 59.734374-59.734376h17.066407c32.972656.039063 59.695312 26.757813 59.730469 59.734376v8.710937c-.027344 23.554687-19.113282 42.640625-42.664063 42.667969zm-34.132813-94.046875c-23.554687.027343-42.640624 19.113281-42.667968 42.667969v8.710937c.015625 14.132813 11.46875 25.585937 25.601562 25.601563h51.199219c14.132813-.015626 25.582031-11.46875 25.597656-25.601563v-8.710937c-.027343-23.554688-19.113281-42.640626-42.664062-42.667969zm0 0"/><path d="m213.351562 358.582031c-4.710937 0-8.53125-3.820312-8.53125-8.535156v-17.066406c.003907-23.574219 19.089844-42.699219 42.664063-42.75h24.832031c4.714844 0 8.535156 3.820312 8.535156 8.53125 0 4.714843-3.820312 8.535156-8.535156 8.535156h-24.832031c-14.15625.039063-25.605469 11.527344-25.597656 25.683594v17.066406c0 4.714844-3.820313 8.535156-8.535157 8.535156zm0 0"/></svg>