<svg height="512pt" viewBox="0 0 512.01196 512" width="512pt" xmlns="http://www.w3.org/2000/svg"><path d="m247.480469 8.539062c-101.273438-.015624-190.679688 66.109376-220.316407 162.949219-29.636718 96.835938 7.441407 201.675781 91.375 258.339844h.085938l69.121094 48.042969v8.535156c.027344 9.414062 7.652344 17.039062 17.066406 17.066406h145.066406c9.414063-.027344 17.039063-7.652344 17.066406-17.066406v-50.433594c.769532-.511718 1.535157-.9375 2.304688-1.449218 3.753906-2.390626 7.507812-4.863282 11.09375-7.425782.007812.09375.039062.179688.085938.257813 1.054687 2.222656 2.566406 4.199219 4.4375 5.800781.59375.597656 1.277343 1.28125 1.960937 1.878906 1.257813 1.097656 2.597656 2.09375 4.011719 2.988282.683594.558593 1.429687 1.046874 2.21875 1.449218.796875.449219 1.625.847656 2.472656 1.195313.691406.335937 1.402344.621093 2.132812.851562 1.109376.429688 2.21875.769531 3.328126 1.109375 2.8125.753906 5.710937 1.125 8.621093 1.109375 9.707031.015625 18.957031-4.113281 25.429688-11.347656 43.40625-48.574219 67.722656-111.246094 68.4375-176.382813 1.023437-76.800781-51.203125-247.46875-256-247.46875zm0 0" fill="#f0c419"/><path d="m78.007812 395.015625c-3.160156 4.007813-6.488281 7.933594-9.898437 11.773437-12.605469 13.949219-34.113281 15.082032-48.117187 2.535157-14-12.542969-15.226563-34.046875-2.742188-48.101563 7.550781-8.457031 14.371094-17.535156 20.394531-27.136718zm0 0" fill="#ff9801"/><path d="m503.480469 256.007812c-.714844 65.136719-25.03125 127.808594-68.4375 176.382813-6.472657 7.234375-15.722657 11.363281-25.429688 11.347656-2.910156.015625-5.808593-.355469-8.621093-1.109375-1.109376-.339844-2.21875-.679687-3.328126-1.109375-.730468-.230469-1.441406-.515625-2.132812-.851562-.847656-.347657-1.675781-.746094-2.472656-1.195313-.789063-.402344-1.535156-.890625-2.21875-1.449218-1.414063-.894532-2.753906-1.890626-4.011719-2.988282-.683594-.597656-1.367187-1.28125-1.960937-1.878906-1.871094-1.601562-3.382813-3.578125-4.4375-5.800781-.046876-.078125-.078126-.164063-.085938-.257813-3.585938 2.5625-7.339844 5.035156-11.09375 7.425782-.769531.511718-1.535156.9375-2.304688 1.449218-20.9375 12.730469-43.785156 22.007813-67.667968 27.480469h-.257813l-.339843-2.648437c-8.613282-20.691407-28.789063-34.207032-51.199219-34.300782h-8.535157c-20.351562.027344-38.761718 12.078125-46.933593 30.71875-.6875 1.617188-1.285157 3.269532-1.792969 4.949219-1.648438 5.039063-2.484375 10.3125-2.472656 15.617187v.082032l-69.121094-48.042969h-.085938c-83.933593-56.664063-121.011718-161.503906-91.375-258.339844 29.636719-96.839843 119.042969-162.964843 220.316407-162.949219 204.796875 0 257.023437 170.667969 256 247.46875zm0 0" fill="#ffdc00"/><path d="m503.480469 256.007812c-.714844 65.136719-25.03125 127.808594-68.4375 176.382813-6.472657 7.234375-15.722657 11.363281-25.429688 11.347656-2.910156.015625-5.808593-.355469-8.621093-1.109375-1.109376-.339844-2.21875-.679687-3.328126-1.109375-.300781-.058593-.589843-.175781-.851562-.339843 4.851562-1.878907 9.179688-4.894532 12.628906-8.789063 43.410156-48.574219 67.722656-111.246094 68.4375-176.382813 1.023438-74.925781-48.726562-239.277343-241.492187-247.128906 3.667969-.253906 7.335937-.339844 11.09375-.339844 204.796875 0 257.023437 170.667969 256 247.46875zm0 0" fill="#fec108"/><path d="m380.34375 427.097656c-3.585938 2.5625-7.339844 5.035156-11.09375 7.425782-13.523438-12.691407-14.472656-33.851563-2.132812-47.703126 26.308593-29.351562 43.140624-65.96875 48.289062-105.050781 1.207031-9.3125 9.136719-16.285156 18.527344-16.292969-2.132813 44.96875-19.703125 87.824219-49.75 121.34375-9.945313 11.144532-11.5 27.457032-3.839844 40.277344zm0 0" fill="#fec108"/><path d="m192.011719 457.222656c-8.152344-18.652344-26.578125-30.703125-46.933594-30.695312h-8.53125c-28.296875.046875-51.207031 23-51.203125 51.296875v8.550781c.019531 9.421875 7.644531 17.0625 17.066406 17.097656h145.070313zm0 0" fill="#3f51b5"/><path d="m366.945312 435.972656v50.433594c-.027343 9.414062-7.652343 17.039062-17.066406 17.066406h-145.066406c-9.414062-.027344-17.039062-7.652344-17.066406-17.066406v-8.617188c-.011719-5.304687.824218-10.578124 2.472656-15.617187.507812-1.679687 1.105469-3.332031 1.792969-4.949219 8.171875-18.640625 26.582031-30.691406 46.933593-30.71875h8.535157c22.410156.09375 42.585937 13.609375 51.199219 34.300782l.597656 2.648437c23.882812-5.472656 46.730468-14.75 67.667968-27.480469zm0 0" fill="#3f51b5"/><path d="m366.945312 435.972656v50.433594c-.027343 9.414062-7.652343 17.039062-17.066406 17.066406h-25.601562c9.414062-.027344 17.039062-7.652344 17.066406-17.066406v-37.035156c8.808594-3.917969 17.359375-8.394532 25.601562-13.398438zm0 0" fill="#283593"/><path d="m380.429688 427.355469c1.296874 2.066406 2.785156 4.007812 4.4375 5.800781-1.871094-1.601562-3.382813-3.578125-4.4375-5.800781zm0 0" fill="#f0c419"/><path d="m366.945312 435.972656v17.066406c-15.941406 9.691407-33.011718 17.394532-50.824218 22.9375-3.960938 1.199219-8.253906.449219-11.574219-2.019531-3.324219-2.46875-5.277344-6.367187-5.269531-10.503906 23.882812-5.472656 46.730468-14.75 67.667968-27.480469zm0 0" fill="#283593"/><path d="m145.078125 264.539062h136.535156c4.710938 0 8.53125 3.820313 8.53125 8.535157v8.53125c0 42.414062-34.382812 76.800781-76.800781 76.800781-42.414062 0-76.796875-34.386719-76.796875-76.800781v-8.53125c0-4.714844 3.820313-8.535157 8.53125-8.535157zm0 0" fill="#bb193b"/><path d="m187.746094 178.609375c.015625 12.664063-5.613282 24.679687-15.359375 32.765625-17.152344-8.757812-37.464844-8.757812-54.613281 0-15.242188-12.664062-19.761719-34.152344-10.917969-51.886719 8.847656-17.734375 28.734375-27.046875 48.019531-22.488281 19.289062 4.558594 32.898438 21.792969 32.871094 41.609375zm0 0" fill="#f5f5f5"/><path d="m162.144531 178.589844c0-14.164063-11.460937-25.648438-25.597656-25.648438-14.140625 0-25.601563 11.484375-25.601563 25.648438 0 14.164062 11.460938 25.648437 25.601563 25.648437 14.136719 0 25.597656-11.484375 25.597656-25.648437zm0 0" fill="#3f51b5"/><path d="m324.277344 178.609375c0 11.320313-4.476563 22.179687-12.457032 30.207031-.90625.921875-1.875 1.777344-2.902343 2.558594-17.148438-8.757812-37.460938-8.757812-54.613281 0-1.027344-.78125-1.996094-1.636719-2.902344-2.558594-13.707032-13.660156-16.519532-34.828125-6.859375-51.59375 9.664062-16.765625 29.390625-24.941406 48.082031-19.929687s31.679688 21.964843 31.652344 41.316406zm0 0" fill="#f5f5f5"/><path d="m298.679688 178.589844c-.011719 12.222656-8.65625 22.734375-20.648438 25.109375-11.988281 2.375-23.988281-4.046875-28.65625-15.34375-4.671875-11.296875-.710938-24.316407 9.453125-31.101563 10.167969-6.789062 23.710937-5.445312 32.351563 3.199219 4.8125 4.808594 7.507812 11.335937 7.5 18.136719zm0 0" fill="#3f51b5"/><path d="m162.144531 162.140625c0 4.710937-3.820312 8.53125-8.53125 8.53125-4.714843 0-8.535156-3.820313-8.535156-8.53125 0-4.714844 3.820313-8.535156 8.535156-8.535156 4.710938 0 8.53125 3.820312 8.53125 8.535156zm0 0" fill="#f5f5f5"/><path d="m298.679688 162.140625c0 4.710937-3.820313 8.53125-8.535157 8.53125-4.710937 0-8.53125-3.820313-8.53125-8.53125 0-4.714844 3.820313-8.535156 8.53125-8.535156 4.714844 0 8.535157 3.820312 8.535157 8.535156zm0 0" fill="#f5f5f5"/><path d="m288.269531 298.671875c-7.992187 34.945313-39.078125 59.730469-74.925781 59.734375-2.878906 0-5.757812-.167969-8.617188-.511719 0 0 0 .085938-.085937 0-2.816406-.34375-5.632813-.769531-8.363281-1.367187v-15.1875c.007812-23.5625 19.105468-42.660156 42.667968-42.667969zm0 0" fill="#ad1457"/><path d="m271.203125 298.671875c-7.28125 31.886719-33.964844 55.65625-66.476563 59.222656 0 0 0 .085938-.085937 0-2.816406-.34375-5.632813-.769531-8.363281-1.367187v-15.1875c.007812-23.5625 19.105468-42.660156 42.667968-42.667969zm0 0" fill="#e91e63"/><path d="m172.898438 220.164062c-3.570313.003907-6.765626-2.21875-8.007813-5.566406s-.265625-7.113281 2.445313-9.441406c10.820312-9.304688 14.707031-24.363281 9.742187-37.746094-4.960937-13.382812-17.730469-22.261718-32.003906-22.261718-14.269531 0-27.039063 8.878906-32 22.261718-4.964844 13.382813-1.078125 28.441406 9.742187 37.746094 2.316406 1.988281 3.394532 5.054688 2.828125 8.050781-.5625 2.996094-2.679687 5.464844-5.554687 6.476563-2.878906 1.011718-6.074219.410156-8.386719-1.574219-16.238281-13.960937-22.078125-36.546875-14.632813-56.625 7.441407-20.078125 26.59375-33.402344 48.003907-33.402344 21.414062 0 40.566406 13.324219 48.007812 33.402344 7.445313 20.078125 1.605469 42.664063-14.632812 56.625-1.542969 1.328125-3.515625 2.058594-5.550781 2.054687zm0 0"/><path d="m92.042969 118.421875c6.253906-19.335937 21.539062-34.414063 40.957031-40.402344 9.914062-3.117187 20.511719-3.320312 30.535156-.589843 4.84375 1.195312 9.515625 2.996093 13.910156 5.367187 4.183594 2.429687 8.15625 5.21875 11.867188 8.332031 1.140625.90625 1.515625 2.480469.90625 3.804688-.609375 1.328125-2.042969 2.066406-3.480469 1.792968l-.5625-.109374c-4.519531-.867188-8.597656-2.398438-12.78125-3.273438-4.058593-.898438-8.175781-1.515625-12.316406-1.851562-7.851563-.820313-15.785156-.039063-23.324219 2.304687-15.75 5.824219-30.082031 14.933594-42.039062 26.722656l-.15625.140625c-.898438.792969-2.269532.707032-3.0625-.1875-.488282-.5625-.660156-1.335937-.453125-2.050781zm0 0"/><path d="m330.976562 120.523438c-11.960937-11.792969-26.292968-20.902344-42.042968-26.726563-7.539063-2.34375-15.472656-3.125-23.324219-2.300781-4.140625.332031-8.257813.953125-12.316406 1.847656-4.183594.875-8.261719 2.40625-12.777344 3.273438l-.5625.109374c-1.4375.277344-2.875-.460937-3.484375-1.789062s-.234375-2.898438.90625-3.808594c3.710938-3.113281 7.683594-5.898437 11.871094-8.332031 4.390625-2.367187 9.0625-4.171875 13.90625-5.363281 10.023437-2.734375 20.625-2.53125 30.535156.585937 19.421875 5.988281 34.707031 21.066407 40.960938 40.40625.269531.921875-.101563 1.917969-.914063 2.4375s-1.871094.441407-2.597656-.191406zm0 0"/><path d="m309.4375 220.164062c-3.730469.003907-7.027344-2.414062-8.148438-5.96875-1.117187-3.554687.199219-7.425781 3.257813-9.558593.441406-.347657.851563-.734375 1.222656-1.152344 6.425781-6.40625 10.015625-15.121094 9.976563-24.191406-.007813-9.054688-3.585938-17.742188-9.960938-24.171875-13.511718-12.960938-34.835937-12.960938-48.347656 0-6.371094 6.429687-9.949219 15.117187-9.957031 24.171875-.042969 9.0625 3.542969 17.769531 9.957031 24.171875.378906.425781.792969.816406 1.242188 1.167968 2.5 1.746094 3.878906 4.691407 3.617187 7.726563-.257813 3.039063-2.121094 5.707031-4.882813 7-2.761718 1.292969-6 1.015625-8.5-.730469-1.277343-.929687-2.46875-1.972656-3.558593-3.117187-19.953125-20.011719-19.917969-52.40625.074219-72.375 19.996093-19.96875 52.390624-19.960938 72.378906.015625 19.988281 19.980468 20.007812 52.375.046875 72.378906-1.089844 1.132812-2.273438 2.171875-3.542969 3.097656-1.429688 1-3.132812 1.539063-4.875 1.535156zm0 0"/><path d="m349.878906 512.007812h-145.066406c-14.132812-.015624-25.585938-11.46875-25.601562-25.601562v-8.617188c-.003907-6.207031.972656-12.375 2.902343-18.273437.578125-1.90625 1.257813-3.777344 2.039063-5.613281 9.503906-21.796875 31.011718-35.902344 54.792968-35.933594h8.535157c26.03125.015625 49.457031 15.816406 59.226562 39.949219 1.519531 4.414062-.789062 9.226562-5.179687 10.804687-4.390625 1.582032-9.238282-.660156-10.878906-5.027344-7.355469-17.332031-24.339844-28.609374-43.167969-28.660156h-8.535157c-16.96875.019532-32.320312 10.070313-39.121093 25.617188-.546875 1.296875-1.023438 2.621094-1.429688 3.96875-1.402343 4.25-2.113281 8.695312-2.117187 13.167968v8.617188c.007812 4.710938 3.824218 8.527344 8.535156 8.53125h145.066406c4.710938-.003906 8.527344-3.820312 8.53125-8.53125v-50.433594c0-4.710937 3.824219-8.53125 8.535156-8.53125 4.710938 0 8.535157 3.820313 8.535157 8.53125v50.433594c-.015625 14.132812-11.46875 25.585938-25.601563 25.601562zm0 0"/><path d="m247.480469 512.007812h-145.070313c-14.140625-.027343-25.589844-11.496093-25.597656-25.636718v-8.546875c.007812-33.003907 26.730469-59.769531 59.734375-59.832031h8.53125c23.757813-.023438 45.265625 14.046874 54.757813 35.824218 1.21875 2.792969.847656 6.027344-.964844 8.476563-1.8125 2.453125-4.792969 3.75-7.824219 3.402343-3.027344-.34375-5.644531-2.277343-6.859375-5.074218-6.785156-15.546875-22.144531-25.585938-39.109375-25.5625h-8.53125c-23.582031.054687-42.667969 19.183594-42.667969 42.765625v8.546875c-.003906 4.722656 3.8125 8.554687 8.53125 8.566406h145.070313c4.710937 0 8.53125 3.824219 8.53125 8.535156 0 4.710938-3.820313 8.535156-8.53125 8.535156zm0 0"/><path d="m42.679688 426.671875c-16.832032.003906-32.09375-9.886719-38.964844-25.25-6.867188-15.367187-4.0625-33.335937 7.164062-45.875 7.226563-8.097656 13.761719-16.789063 19.527344-25.984375 2.5-3.996094 7.765625-5.210938 11.761719-2.714844 3.996093 2.5 5.210937 7.765625 2.714843 11.761719-6.28125 10.007813-13.394531 19.46875-21.257812 28.285156-9.402344 10.550781-8.527344 26.710938 1.960938 36.183594 10.683593 9.015625 26.539062 8.140625 36.167968-1.992187 3.273438-3.683594 6.492188-7.480469 9.546875-11.359376 2.917969-3.703124 8.285157-4.339843 11.984375-1.421874 3.703125 2.917968 4.339844 8.285156 1.421875 11.988281-3.261719 4.136719-6.703125 8.199219-10.226562 12.164062-8.105469 9.035157-19.664063 14.199219-31.800781 14.214844zm0 0"/><path d="m409.613281 452.273438c-16.832031.003906-32.09375-9.886719-38.964843-25.253907-6.867188-15.363281-4.0625-33.332031 7.164062-45.871093 28.699219-32.09375 45.503906-73.074219 47.59375-116.074219.277344-4.683594 4.242188-8.292969 8.929688-8.121094 2.261718.105469 4.386718 1.105469 5.910156 2.78125 1.523437 1.675781 2.320312 3.886719 2.210937 6.144531-2.28125 46.917969-20.613281 91.621094-51.921875 126.636719-9.386718 10.550781-8.496094 26.703125 1.988282 36.164063 10.683593 9.011718 26.539062 8.140624 36.167968-1.992188 42.003906-47.050781 65.542969-107.726562 66.253906-170.792969-1.121093-63.945312-26.054687-125.171875-69.925781-171.710937-43.9375-44.53125-103.675781-67.109375-177.539062-67.109375-97.460938-.015625-183.511719 63.578125-212.105469 156.746093-28.59375 93.167969 6.96875 194.085938 87.65625 248.746094 3.253906 1.984375 4.792969 5.890625 3.769531 9.5625-1.023437 3.671875-4.363281 6.21875-8.175781 6.234375h-.085938c-1.699218 0-3.363281-.507812-4.773437-1.460937-87.042969-58.769532-125.496094-167.488282-94.761719-267.914063 30.734375-100.421875 123.453125-168.9960935 228.476563-168.9804685 78.601562 0 142.417969 24.2851565 189.695312 72.1914065 47.363281 49.597656 74.117188 115.339843 74.835938 183.917969-.769531 67.199218-25.855469 131.84375-70.617188 181.96875-8.105469 9.019531-19.65625 14.175781-31.78125 14.1875zm0 0"/><path d="m299.265625 471.984375c-4.339844-.003906-7.984375-3.265625-8.46875-7.578125s2.34375-8.300781 6.574219-9.273438c22.996094-5.261718 44.992187-14.191406 65.144531-26.453124 4.300781-2.679688 8.683594-5.570313 12.902344-8.550782 3.84375-2.605468 9.070312-1.65625 11.753906 2.140625 2.683594 3.792969 1.835937 9.035157-1.90625 11.792969-4.484375 3.171875-9.148437 6.246094-13.808594 9.152344-21.738281 13.234375-45.46875 22.875-70.277343 28.554687-.628907.144531-1.269532.214844-1.914063.214844zm0 0"/><path d="m187.746094 230.40625c-2.265625.003906-4.4375-.898438-6.035156-2.5-10.101563-9.039062-23.082032-14.199219-36.632813-14.566406-13.566406.289062-26.574219 5.460937-36.632813 14.566406-3.347656 3.234375-8.671874 3.1875-11.960937-.105469-3.292969-3.289062-3.339844-8.613281-.105469-11.960937 13.285156-12.273438 30.617188-19.234375 48.699219-19.566406 18.082031.332031 35.414063 7.292968 48.699219 19.566406 2.441406 2.441406 3.171875 6.109375 1.851562 9.296875-1.320312 3.191406-4.433594 5.269531-7.882812 5.269531zm0 0"/><path d="m324.277344 230.40625c-2.261719.003906-4.433594-.898438-6.03125-2.5-10.105469-9.039062-23.085938-14.199219-36.632813-14.566406-13.566406.289062-26.574219 5.460937-36.636719 14.566406-3.347656 3.234375-8.667968 3.1875-11.960937-.105469-3.292969-3.289062-3.335937-8.613281-.101563-11.960937 27.222657-26.089844 70.171876-26.089844 97.398438 0 2.4375 2.441406 3.167969 6.109375 1.847656 9.296875-1.320312 3.191406-4.429687 5.269531-7.882812 5.269531zm0 0"/><path d="m213.34375 366.9375c-47.105469-.050781-85.28125-38.226562-85.332031-85.332031v-8.53125c.007812-9.421875 7.644531-17.058594 17.066406-17.066407h136.535156c9.421875.007813 17.054688 7.644532 17.066407 17.066407v8.53125c-.054688 47.105469-38.226563 85.28125-85.335938 85.332031zm-68.265625-93.863281v8.53125c0 37.703125 30.566406 68.265625 68.265625 68.265625 37.703125 0 68.269531-30.5625 68.269531-68.265625v-8.53125zm0 0"/><path d="m196.277344 365.0625c-4.710938 0-8.53125-3.820312-8.53125-8.535156v-15.1875c.03125-28.265625 22.933594-51.167969 51.199218-51.199219h49.324219c4.710938 0 8.53125 3.820313 8.53125 8.53125 0 4.714844-3.820312 8.535156-8.53125 8.535156h-49.324219c-18.84375.019531-34.113281 15.289063-34.132812 34.132813v15.1875c0 4.714844-3.820312 8.535156-8.535156 8.535156zm0 0"/></svg>