<svg height="512pt" viewBox="0 0 512.01808 512" width="512pt" xmlns="http://www.w3.org/2000/svg"><path d="m472.09375 93.082031 30.378906 111.871094c2.578125 10.207031.304688 21.035156-6.167968 29.339844-6.46875 8.308593-16.414063 13.160156-26.941407 13.15625h-34.304687l-1.363282-34.132813h35.667969l-29.269531-108.03125zm0 0" fill="#ff5722"/><path d="m39.949219 93.082031-30.378907 111.871094c-2.578124 10.207031-.300781 21.035156 6.167969 29.339844 6.472657 8.308593 16.414063 13.160156 26.941407 13.15625h34.304687l1.367187-34.132813h-35.671874l29.269531-108.03125zm0 0" fill="#ff5722"/><path d="m435.230469 238.917969c.929687 65.34375-29.976563 127.0625-82.859375 165.460937l-97.28125 72.53125-12.714844-9.640625-82.6875-62.890625c-16.207031-11.371094-30.496094-25.257812-42.324219-41.132812l-22.613281-38.65625c-10.3125-23.449219-16.296875-48.574219-17.664062-74.152344-.171876-3.839844-.257813-7.679688-.257813-11.519531-.007813-8.5.507813-16.996094 1.539063-25.429688 10.835937-91.820312 79.613281-163.757812 164.863281-170.242187 4.265625-.425782 8.53125-.597656 12.800781-.597656 98.984375 0 179.199219 87.894531 179.199219 196.269531zm0 0" fill="#fec108"/><path d="m409.628906 238.917969c.929688 65.34375-29.976562 127.0625-82.859375 165.460937l-84.394531 62.890625-82.6875-62.890625c-16.207031-11.371094-30.496094-25.257812-42.324219-41.132812l-22.613281-38.65625c-10.3125-23.449219-16.296875-48.574219-17.664062-74.152344-.171876-3.839844-.257813-7.679688-.257813-11.519531-.007813-8.5.507813-16.996094 1.539063-25.429688 10.835937-91.820312 79.613281-163.757812 164.863281-170.242187 93.011719 7.082031 166.398437 91.988281 166.398437 195.671875zm0 0" fill="#ffdc00"/><path d="m256.03125 460.78125v25.601562c-.027344 9.414063-7.652344 17.039063-17.066406 17.066407h-102.402344c-9.414062-.027344-17.039062-7.652344-17.066406-17.066407v-25.601562c-.066406-31.339844 24.195312-57.359375 55.46875-59.476562 1.414062-.167969 2.839844-.253907 4.265625-.253907h17.066406c15.84375-.011719 31.046875 6.277344 42.25 17.480469 11.203125 11.207031 17.496094 26.40625 17.484375 42.25zm0 0" fill="#283593"/><path d="m230.429688 460.78125v25.601562c-.027344 9.414063-7.652344 17.039063-17.066407 17.066407h-76.800781c-9.414062-.027344-17.039062-7.652344-17.066406-17.066407v-25.601562c-.066406-31.339844 24.195312-57.359375 55.46875-59.476562 31.269531 2.117187 55.535156 28.136718 55.464844 59.476562zm0 0" fill="#3f51b5"/><path d="m392.5625 460.78125v25.601562c-.027344 9.414063-7.652344 17.039063-17.066406 17.066407h-102.398438c-9.414062-.027344-17.039062-7.652344-17.066406-17.066407v-25.601562c-.070312-31.339844 24.195312-57.359375 55.464844-59.476562 1.417968-.167969 2.839844-.253907 4.265625-.253907h17.066406c15.847656-.011719 31.046875 6.277344 42.253906 17.480469 11.203125 11.207031 17.492188 26.40625 17.480469 42.25zm0 0" fill="#283593"/><path d="m366.964844 460.78125v25.601562c-.027344 9.414063-7.652344 17.039063-17.066406 17.066407h-76.800782c-9.414062-.027344-17.039062-7.652344-17.066406-17.066407v-25.601562c-.070312-31.339844 24.195312-57.359375 55.464844-59.476562 31.273437 2.117187 55.535156 28.136718 55.46875 59.476562zm0 0" fill="#3f51b5"/><path d="m221.898438 174.917969c0-21.210938-7.644532-38.402344-17.070313-38.402344-9.421875 0-17.066406 17.191406-17.066406 38.402344 0 21.207031 7.644531 38.398437 17.066406 38.398437 9.425781 0 17.070313-17.191406 17.070313-38.398437zm0 0" fill="#3f51b5"/><path d="m214.3125 157.847656c0-11.78125-4.246094-21.332031-9.484375-21.332031-5.234375 0-9.480469 9.550781-9.480469 21.332031 0 11.785156 4.246094 21.335938 9.480469 21.335938 5.238281 0 9.484375-9.550782 9.484375-21.335938zm0 0" fill="#f5f5f5"/><path d="m324.296875 174.917969c0-21.210938-7.640625-38.402344-17.066406-38.402344s-17.066407 17.191406-17.066407 38.402344c0 21.207031 7.640626 38.398437 17.066407 38.398437s17.066406-17.191406 17.066406-38.398437zm0 0" fill="#3f51b5"/><path d="m316.710938 157.847656c0-11.78125-4.246094-21.332031-9.480469-21.332031-5.238281 0-9.480469 9.550781-9.480469 21.332031 0 11.785156 4.242188 21.335938 9.480469 21.335938 5.234375 0 9.480469-9.550782 9.480469-21.335938zm0 0" fill="#f5f5f5"/><path d="m460.234375 102.382812c-8.886719 4.046876-19.007813 4.414063-28.160156 1.023438-13.574219-5.097656-24.5625-15.382812-30.550781-28.585938-11.945313-25.003906-5.035157-53.25 15.445312-62.976562.769531-.339844 1.621094-.683594 2.472656-1.023438 20.054688-7.679687 44.632813 4.609376 56.152344 28.671876 11.945312 25.003906 5.117188 53.164062-15.359375 62.890624zm0 0" fill="#f57c00"/><path d="m434.632812 102.382812c-.824218.414063-1.679687.757813-2.558593 1.023438-13.574219-5.097656-24.5625-15.382812-30.550781-28.585938-11.945313-25.003906-5.035157-53.25 15.445312-62.976562.769531-.339844 1.621094-.683594 2.472656-1.023438 13.546875 5.1875 24.515625 15.480469 30.550782 28.671876 11.945312 25.003906 5.121093 53.164062-15.359376 62.890624zm0 0" fill="#ff9801"/><path d="m36.460938 39.464844c-11.921876 25-5.125 53.175781 15.332031 62.929687 20.457031 9.75 46.828125-2.609375 58.746093-27.613281 11.921876-25.003906 5-53.175781-15.457031-62.929688-20.453125-9.753906-46.703125 2.609376-58.621093 27.613282zm0 0" fill="#ff9801"/><path d="m256.03125 238.917969c32.988281 0 59.730469 26.742187 59.730469 59.730469v25.601562c0 9.425781-7.640625 17.066406-17.066407 17.066406h-85.332031c-9.425781 0-17.066406-7.640625-17.066406-17.066406v-25.601562c0-32.988282 26.742187-59.730469 59.734375-59.730469zm0 0" fill="#bb193b"/><path d="m281.628906 324.25v17.066406h-51.199218v-17.066406c0-14.140625 11.460937-25.601562 25.601562-25.601562 14.136719 0 25.597656 11.460937 25.597656 25.601562zm0 0" fill="#ad1457"/><path d="m281.628906 324.25h-51.199218c0-14.140625 11.460937-25.601562 25.601562-25.601562 14.136719 0 25.597656 11.460937 25.597656 25.601562zm0 0" fill="#e91e63"/><path d="m401.097656 245.742188c.613282 9.539062-4.128906 18.628906-12.300781 23.582031-8.175781 4.957031-18.425781 4.957031-26.597656 0-8.175781-4.953125-12.917969-14.042969-12.300781-23.582031 0-15.082032 25.597656-40.960938 25.597656-40.960938s25.601562 25.878906 25.601562 40.960938zm0 0" fill="#2fa8cc"/><path d="m401.097656 245.742188c.613282 9.539062-4.128906 18.628906-12.300781 23.582031-8.175781 4.957031-18.425781 4.957031-26.597656 0-8.175781-4.953125-12.917969-14.042969-12.300781-23.582031 0-15.082032 25.597656-40.960938 25.597656-40.960938s25.601562 25.878906 25.601562 40.960938zm0 0" fill="#0377bc"/><path d="m394.695312 235.503906c.464844 7.15625-3.089843 13.972656-9.222656 17.691406-6.132812 3.71875-13.820312 3.71875-19.953125 0-6.128906-3.71875-9.6875-10.535156-9.222656-17.691406 0-11.3125 19.199219-30.722656 19.199219-30.722656s19.199218 19.410156 19.199218 30.722656zm0 0" fill="#02a9f4"/><path d="m352.378906 412.910156c-3.726562.003906-7.027344-2.410156-8.148437-5.96875-1.121094-3.554687.195312-7.425781 3.253906-9.5625 50.660156-36.746094 80.222656-95.886718 79.210937-158.460937 0-103.519531-76.5625-187.734375-170.664062-187.734375-94.105469 0-170.667969 84.214844-170.667969 187.734375-1.007812 62.574219 28.554688 121.714843 79.210938 158.460937 3.867187 2.699219 4.8125 8.019532 2.113281 11.886719-2.703125 3.863281-8.023438 4.808594-11.886719 2.109375-55.230469-39.945312-87.511719-104.308594-86.503906-172.457031 0-112.929688 84.214844-204.800781 187.734375-204.800781 103.515625 0 187.730469 91.871093 187.730469 204.800781 1.011719 68.148437-31.273438 132.511719-86.503907 172.457031-1.429687 1-3.132812 1.535156-4.878906 1.535156zm0 0"/><path d="m238.964844 511.984375h-102.402344c-14.132812-.015625-25.582031-11.46875-25.597656-25.601563v-25.601562c.042968-37.683594 30.582031-68.222656 68.265625-68.265625h17.066406c37.683594.042969 68.222656 30.582031 68.265625 68.265625v25.601562c-.015625 14.132813-11.46875 25.585938-25.597656 25.601563zm-59.734375-102.402344c-28.265625.03125-51.167969 22.9375-51.199219 51.199219v25.601562c.003906 4.710938 3.820312 8.527344 8.53125 8.535157h102.402344c4.707031-.007813 8.527344-3.824219 8.53125-8.535157v-25.601562c-.03125-28.261719-22.933594-51.167969-51.199219-51.199219zm0 0"/><path d="m256.03125 477.847656h-136.535156c-4.710938 0-8.53125-3.820312-8.53125-8.53125 0-4.714844 3.820312-8.535156 8.53125-8.535156h136.535156c4.710938 0 8.53125 3.820312 8.53125 8.535156 0 4.710938-3.820312 8.53125-8.53125 8.53125zm0 0"/><path d="m375.496094 511.984375h-102.398438c-14.132812-.015625-25.585937-11.46875-25.601562-25.601563v-25.601562c.042968-37.683594 30.582031-68.222656 68.265625-68.265625h17.066406c37.6875.042969 68.226563 30.582031 68.269531 68.265625v25.601562c-.015625 14.132813-11.46875 25.585938-25.601562 25.601563zm-59.734375-102.402344c-28.261719.03125-51.167969 22.9375-51.199219 51.199219v25.601562c.007812 4.710938 3.824219 8.527344 8.535156 8.535157h102.398438c4.710937-.007813 8.527344-3.824219 8.535156-8.535157v-25.601562c-.03125-28.261719-22.9375-51.167969-51.203125-51.199219zm0 0"/><path d="m392.5625 477.847656h-136.53125c-4.714844 0-8.535156-3.820312-8.535156-8.53125 0-4.714844 3.820312-8.535156 8.535156-8.535156h136.53125c4.714844 0 8.535156 3.820312 8.535156 8.535156 0 4.710938-3.820312 8.53125-8.535156 8.53125zm0 0"/><path d="m204.828125 221.847656c-16.808594 0-25.597656-23.609375-25.597656-46.929687 0-23.324219 8.789062-46.933594 25.597656-46.933594 16.8125 0 25.601563 23.609375 25.601563 46.933594 0 23.320312-8.789063 46.929687-25.601563 46.929687zm-.167969-76.820312c-2.050781.777344-8.363281 11.144531-8.363281 29.890625 0 18.746093 6.3125 29.109375 8.703125 29.886719 2.046875-.777344 8.363281-11.140626 8.363281-29.886719 0-18.746094-6.316406-29.113281-8.703125-29.890625zm0 0"/><path d="m307.230469 221.847656c-16.8125 0-25.601563-23.609375-25.601563-46.929687 0-23.324219 8.789063-46.933594 25.601563-46.933594 16.808593 0 25.597656 23.609375 25.597656 46.933594 0 23.320312-8.789063 46.929687-25.597656 46.929687zm-.171875-76.820312c-2.046875.777344-8.363282 11.144531-8.363282 29.890625 0 18.746093 6.316407 29.109375 8.707032 29.886719 2.046875-.777344 8.359375-11.140626 8.359375-29.886719 0-18.746094-6.3125-29.113281-8.703125-29.890625zm0 0"/><path d="m163.816406 101.09375c9.644532 3.75 20.175782 4.605469 30.300782 2.460938 4.835937-1.554688 9.347656-3.980469 13.3125-7.152344 2.183593-1.539063 3.984374-3.640625 6.207031-5.359375 1.953125-2.019531 3.78125-4.179688 5.941406-6.199219l.257813-.238281c.933593-.871094 2.351562-.976563 3.402343-.25 1.050781.726562 1.460938 2.082031.980469 3.269531-1.167969 2.867188-2.613281 5.636719-4.039062 8.472656-1.703126 2.726563-3.617188 5.316406-5.730469 7.746094-4.539063 5.070312-10.277344 8.921875-16.695313 11.195312-6.589844 2.296876-13.722656 2.542969-20.460937.707032-6.476563-1.695313-12.3125-5.253906-16.78125-10.242188-.816407-.941406-.910157-2.308594-.234375-3.355468.675781-1.046876 1.964844-1.523438 3.160156-1.164063zm0 0"/><path d="m351.550781 105.503906c-4.46875 4.988282-10.304687 8.546875-16.78125 10.242188-6.734375 1.832031-13.871093 1.585937-20.460937-.710938-6.414063-2.273437-12.15625-6.121094-16.695313-11.191406-2.113281-2.429688-4.027343-5.019531-5.730469-7.75-1.421874-2.832031-2.871093-5.601562-4.035156-8.472656-.480468-1.183594-.074218-2.542969.976563-3.265625 1.050781-.726563 2.464843-.621094 3.402343.25l.253907.234375c2.164062 2.019531 3.992187 4.183594 5.945312 6.203125 2.21875 1.71875 4.023438 3.820312 6.207031 5.355469 3.964844 3.175781 8.476563 5.601562 13.3125 7.152343 10.121094 2.148438 20.652344 1.292969 30.300782-2.457031l.378906-.117188c1.195312-.359374 2.484375.113282 3.164062 1.164063.679688 1.046875.582032 2.417969-.238281 3.359375zm0 0"/><path d="m445.289062 114.285156c-7.359374-.0625-14.609374-1.75-21.238281-4.941406-13.339843-6.503906-24.023437-17.417969-30.25-30.890625-13.925781-29.207031-5.183593-62.539063 19.484375-74.308594 24.664063-11.765625 56.078125 2.429688 70.003906 31.648438 6.542969 13.285156 8.332032 28.417969 5.0625 42.867187-2.902343 13.664063-11.902343 25.246094-24.429687 31.433594-5.820313 2.773438-12.1875 4.207031-18.632813 4.191406zm-13.335937-97.253906c-3.914063-.019531-7.785156.84375-11.324219 2.523438-16.171875 7.710937-21.296875 30.839843-11.417968 51.558593 4.523437 9.90625 12.328124 17.953125 22.09375 22.78125 7.867187 4.09375 17.164062 4.382813 25.269531.792969 7.863281-4.015625 13.457031-11.402344 15.191406-20.054688 2.34375-10.636718.972656-21.753906-3.886719-31.5-6.128906-14.75-20-24.832031-35.925781-26.101562zm0 0"/><path d="m469.363281 221.847656h-35.667969c-4.714843 0-8.535156-3.820312-8.535156-8.53125 0-4.714844 3.820313-8.535156 8.535156-8.535156h24.515626l-26.355469-97.265625c-.796875-2.941406.035156-6.085937 2.183593-8.25 2.148438-2.164063 5.289063-3.015625 8.238282-2.234375 2.949218.78125 5.253906 3.074219 6.054687 6.019531l29.269531 108.03125c.695313 2.5625.15625 5.308594-1.460937 7.417969-1.613281 2.113281-4.121094 3.351562-6.777344 3.347656zm0 0"/><path d="m469.363281 255.984375h-34.304687c-4.710938 0-8.53125-3.820313-8.53125-8.535156 0-4.710938 3.820312-8.53125 8.53125-8.53125h34.304687c7.917969.003906 15.390625-3.65625 20.246094-9.910157 4.851563-6.257812 6.535156-14.40625 4.5625-22.074218l-30.3125-111.617188c-1.234375-4.546875 1.449219-9.234375 5.996094-10.472656 4.546875-1.234375 9.238281 1.449219 10.472656 5.996094l30.378906 111.875c3.261719 12.902344.363281 26.585937-7.851562 37.058594-8.082031 10.257812-20.429688 16.234374-33.492188 16.210937zm0 0"/><path d="m66.753906 114.285156c-6.445312.015625-12.816406-1.417968-18.636718-4.191406-12.523438-6.1875-21.523438-17.769531-24.425782-31.433594-3.265625-14.449218-1.480468-29.582031 5.0625-42.871094 13.929688-29.210937 45.359375-43.386718 70-31.644531 24.671875 11.765625 33.414063 45.101563 19.488282 74.308594-6.222657 13.472656-16.910157 24.386719-30.25 30.890625-6.628907 3.191406-13.878907 4.878906-21.238282 4.941406zm-22.589844-71.152344c-4.859374 9.746094-6.230468 20.863282-3.886718 31.5 1.734375 8.652344 7.328125 16.035157 15.1875 20.054688 8.105468 3.59375 17.410156 3.300781 25.273437-.792969 9.769531-4.824219 17.574219-12.871093 22.097657-22.785156 9.878906-20.714844 4.753906-43.84375-11.425782-51.554687-16.160156-7.730469-37.363281 2.867187-47.246094 23.578124zm0 0"/><path d="m78.351562 221.847656h-35.671874c-2.65625.003906-5.164063-1.234375-6.777344-3.347656-1.617188-2.109375-2.15625-4.851562-1.460938-7.417969l29.269532-108.03125c1.234374-4.550781 5.921874-7.238281 10.472656-6.003906 4.550781 1.234375 7.238281 5.921875 6.003906 10.472656l-26.351562 97.261719h24.515624c4.710938 0 8.53125 3.820312 8.53125 8.535156 0 4.710938-3.820312 8.53125-8.53125 8.53125zm0 0"/><path d="m76.984375 255.984375h-34.304687c-13.140626.003906-25.546876-6.046875-33.636719-16.402344-8.085938-10.351562-10.953125-23.855469-7.769531-36.601562l30.445312-112.136719c1.234375-4.546875 5.921875-7.230469 10.472656-5.996094 4.546875 1.238282 7.230469 5.925782 5.996094 10.472656l-30.378906 111.871094c-1.878906 7.644532-.140625 15.722656 4.714844 21.917969 4.851562 6.191406 12.285156 9.808594 20.15625 9.808594h34.304687c4.710937 0 8.53125 3.820312 8.53125 8.53125 0 4.714843-3.820313 8.535156-8.53125 8.535156zm0 0"/><path d="m298.695312 349.847656h-85.332031c-14.132812-.015625-25.585937-11.464844-25.601562-25.597656v-25.601562c0-37.703126 30.566406-68.265626 68.269531-68.265626s68.265625 30.5625 68.265625 68.265626v25.601562c-.015625 14.132812-11.46875 25.582031-25.601563 25.597656zm-42.664062-102.398437c-28.265625.03125-51.171875 22.9375-51.203125 51.199219v25.601562c.007813 4.710938 3.824219 8.527344 8.535156 8.53125h85.332031c4.710938-.003906 8.527344-3.820312 8.535157-8.53125v-25.601562c-.03125-28.261719-22.9375-51.167969-51.199219-51.199219zm0 0"/><path d="m281.628906 349.847656c-4.710937 0-8.53125-3.820312-8.53125-8.53125v-17.066406c0-9.425781-7.640625-17.066406-17.066406-17.066406s-17.066406 7.640625-17.066406 17.066406v17.066406c0 4.710938-3.820313 8.53125-8.535156 8.53125-4.710938 0-8.53125-3.820312-8.53125-8.53125v-17.066406c0-18.851562 15.28125-34.132812 34.132812-34.132812s34.132812 15.28125 34.132812 34.132812v17.066406c0 4.710938-3.820312 8.53125-8.535156 8.53125zm0 0"/><path d="m375.496094 281.582031c-19.308594-.503906-34.570313-16.53125-34.132813-35.839843 0-17.691407 23.382813-42.21875 28.066407-46.957032 3.394531-3.242187 8.738281-3.242187 12.132812 0 4.6875 4.734375 28.066406 29.265625 28.066406 46.957032.4375 19.308593-14.824218 35.335937-34.132812 35.839843zm0-64.199219c-8.285156 9.597657-17.066406 22.082032-17.066406 28.359376-.617188 6.484374 2.492187 12.761718 8.027343 16.195312 5.535157 3.4375 12.542969 3.4375 18.078125 0 5.535156-3.433594 8.648438-9.710938 8.027344-16.195312 0-6.277344-8.777344-18.761719-17.066406-28.359376zm0 0"/></svg>