<svg height="512pt" viewBox="0 0 512 512" width="512pt" xmlns="http://www.w3.org/2000/svg"><path d="m76.953125 250.453125-34.21875 14.675781 19.203125 48.640625-29.101562 19.199219-21.84375-55.292969c-6.867188-17.15625 1.25-36.648437 18.261718-43.863281l44.542969-19.113281c1.417969-.597657 2.910156-.996094 4.4375-1.195313zm0 0" fill="#ff5722"/><path d="m434.972656 250.453125 34.21875 14.675781-19.199218 48.640625 29.097656 19.199219 21.847656-55.292969c6.863281-17.15625-1.253906-36.648437-18.261719-43.863281l-44.546875-19.113281c-1.417968-.597657-2.910156-.996094-4.4375-1.195313zm0 0" fill="#ff5722"/><path d="m435.097656 238.933594c.929688 65.347656-29.976562 127.0625-82.859375 165.460937l-97.277343 72.535157-12.714844-9.644532-82.6875-62.890625c-16.210938-11.371093-30.496094-25.253906-42.328125-41.128906l-22.613281-38.65625c-10.308594-23.453125-16.292969-48.574219-17.664063-74.15625-.167969-3.839844-.253906-7.679687-.253906-11.519531-.007813-8.5.503906-16.992188 1.535156-25.429688 10.835937-91.820312 79.617187-163.753906 164.863281-170.238281 4.269532-.429687 8.535156-.597656 12.800782-.597656 98.988281 0 179.199218 87.890625 179.199218 196.265625zm0 0" fill="#fec108"/><path d="m409.5 238.933594c.929688 65.347656-29.976562 127.0625-82.859375 165.460937l-84.394531 62.890625-82.6875-62.890625c-16.210938-11.371093-30.496094-25.253906-42.328125-41.128906l-22.613281-38.65625c-10.308594-23.453125-16.292969-48.574219-17.664063-74.15625-.167969-3.839844-.253906-7.679687-.253906-11.519531-.007813-8.5.503906-16.992188 1.535156-25.429688 10.835937-91.820312 79.617187-163.753906 164.863281-170.238281 93.015625 7.082031 166.402344 91.988281 166.402344 195.667969zm0 0" fill="#ffdc00"/><path d="m255.898438 460.800781v25.597657c-.027344 9.414062-7.652344 17.039062-17.066407 17.066406h-102.398437c-9.414063-.027344-17.039063-7.652344-17.066406-17.066406v-25.597657c-.070313-31.34375 24.195312-57.363281 55.464843-59.476562 1.414063-.171875 2.839844-.257813 4.265625-.257813h17.066406c15.847657-.011718 31.046876 6.277344 42.253907 17.484375 11.203125 11.203125 17.492187 26.402344 17.480469 42.25zm0 0" fill="#283593"/><path d="m230.296875 460.800781v25.597657c-.027344 9.414062-7.652344 17.039062-17.066406 17.066406h-76.796875c-9.414063-.027344-17.039063-7.652344-17.066406-17.066406v-25.597657c-.070313-31.34375 24.195312-57.363281 55.464843-59.476562 31.269531 2.113281 55.535157 28.132812 55.464844 59.476562zm0 0" fill="#3f51b5"/><path d="m392.433594 460.800781v25.597657c-.027344 9.414062-7.652344 17.039062-17.066406 17.066406h-102.402344c-9.414063-.027344-17.039063-7.652344-17.066406-17.066406v-25.597657c-.070313-31.34375 24.195312-57.363281 55.46875-59.476562 1.414062-.171875 2.839843-.257813 4.265624-.257813h17.066407c15.84375-.011718 31.046875 6.277344 42.25 17.484375 11.203125 11.203125 17.496093 26.402344 17.484375 42.25zm0 0" fill="#283593"/><path d="m366.832031 460.800781v25.597657c-.027343 9.414062-7.652343 17.039062-17.066406 17.066406h-76.800781c-9.414063-.027344-17.039063-7.652344-17.066406-17.066406v-25.597657c-.070313-31.34375 24.195312-57.363281 55.46875-59.476562 31.269531 2.113281 55.535156 28.132812 55.464843 59.476562zm0 0" fill="#3f51b5"/><path d="m105.753906 335.789062c-16.804687-22.015624-45.03125-28.722656-63.046875-14.972656s-18.996093 42.746094-2.191406 64.765625c16.804687 22.015625 45.03125 28.722657 63.046875 14.972657s18.996094-42.746094 2.191406-64.765626zm0 0" fill="#ff9801"/><path d="m471.449219 385.621094c-11.78125 17.347656-33.21875 25.382812-53.503907 20.054687-3.449218-1.15625-6.679687-2.890625-9.554687-5.121093-18.007813-13.738282-19.03125-42.753907-2.21875-64.769532 7.011719-9.398437 16.757813-16.402344 27.902344-20.050781 11.847656-4.179687 24.996093-2.265625 35.15625 5.117187 18.007812 13.742188 18.945312 42.667969 2.21875 64.769532zm0 0" fill="#f57c00"/><path d="m445.851562 385.621094c-7.03125 9.382812-16.773437 16.378906-27.90625 20.054687-3.449218-1.15625-6.679687-2.890625-9.554687-5.121093-18.007813-13.738282-19.03125-42.753907-2.21875-64.769532 7.011719-9.398437 16.757813-16.402344 27.902344-20.050781 3.453125 1.15625 6.683593 2.886719 9.558593 5.117187 18.003907 13.742188 18.941407 42.667969 2.21875 64.769532zm0 0" fill="#ff9801"/><path d="m281.5 315.734375h25.597656c4.707032-.015625 8.519532-3.828125 8.535156-8.535156v-17.066407c-.007812-23.558593-19.105468-42.65625-42.667968-42.667968h-34.132813c-23.5625.011718-42.65625 19.109375-42.667969 42.667968v17.066407c.015626 4.707031 3.828126 8.519531 8.535157 8.535156zm0 0" fill="#bb193b"/><path d="m281.5 307.199219v42.667969c0 14.136718-11.460938 25.597656-25.601562 25.597656-14.136719 0-25.601563-11.460938-25.601563-25.597656v-42.667969c.03125-9.414063 7.65625-17.039063 17.070313-17.066407h17.066406c9.414062.027344 17.039062 7.652344 17.066406 17.066407zm0 0" fill="#ad1457"/><path d="m281.5 307.199219v25.601562c0 14.136719-11.460938 25.597657-25.601562 25.597657-14.136719 0-25.601563-11.460938-25.601563-25.597657v-25.601562c.03125-9.414063 7.65625-17.039063 17.070313-17.066407h17.066406c9.414062.027344 17.039062 7.652344 17.066406 17.066407zm0 0" fill="#e91e63"/><path d="m159.550781 412.929688c-1.742187 0-3.441406-.539063-4.867187-1.539063-16.960938-11.878906-31.910156-26.398437-44.277344-43.007813-1.828125-2.4375-2.21875-5.667968-1.023438-8.472656 1.199219-2.800781 3.800782-4.753906 6.828126-5.117187 3.027343-.367188 6.019531.910156 7.847656 3.351562 11.28125 15.152344 24.910156 28.402344 40.375 39.253907 3.054687 2.132812 4.375 6 3.257812 9.554687-1.121094 3.554687-4.414062 5.972656-8.140625 5.976563zm0 0"/><path d="m352.25 412.929688c-3.730469 0-7.027344-2.414063-8.148438-5.972657-1.121093-3.554687.199219-7.425781 3.253907-9.558593 15.570312-10.882813 29.25-24.238282 40.5-39.539063 2.796875-3.796875 8.136719-4.609375 11.933593-1.816406 3.796876 2.792969 4.613282 8.136719 1.816407 11.933593-12.355469 16.804688-27.382813 31.46875-44.480469 43.414063-1.429688 1-3.132812 1.539063-4.875 1.539063zm0 0"/><path d="m417.082031 333.316406c-2.890625-.003906-5.582031-1.46875-7.152343-3.894531-1.570313-2.425781-1.808594-5.480469-.628907-8.117187 9.980469-22.535157 15.753907-46.703126 17.023438-71.316407.15625-3.632812.242187-7.34375.242187-11.054687.007813-8.148438-.480468-16.289063-1.46875-24.378906-10.972656-93.148438-83.714844-163.355469-169.199218-163.355469-85.484376 0-158.226563 70.207031-169.191407 163.304687-.992187 8.105469-1.484375 16.265625-1.476562 24.429688 0 3.710937.085937 7.421875.25 11.132812 1.300781 24.527344 7.039062 48.617188 16.941406 71.097656 1.234375 2.789063.882813 6.023438-.917969 8.484376-1.800781 2.460937-4.777344 3.773437-7.808594 3.445312s-5.65625-2.25-6.886718-5.039062c-10.742188-24.386719-16.964844-50.523438-18.367188-77.132813-.191406-4.050781-.277344-8.019531-.277344-11.988281-.007812-8.851563.527344-17.695313 1.601563-26.480469 11.976563-101.636719 91.992187-178.320313 186.132813-178.320313 94.140624 0 174.160156 76.683594 186.140624 178.371094 1.070313 8.769532 1.601563 17.59375 1.59375 26.429688 0 3.96875-.089843 7.9375-.265624 11.90625-1.371094 26.71875-7.636719 52.960937-18.484376 77.414062-1.371093 3.082032-4.429687 5.0625-7.800781 5.0625zm0 0"/><path d="m238.832031 512h-102.398437c-14.132813-.015625-25.585938-11.46875-25.601563-25.601562v-25.597657c.042969-37.683593 30.582031-68.222656 68.265625-68.265625h17.066406c37.6875.042969 68.226563 30.582032 68.269532 68.265625v25.597657c-.015625 14.132812-11.46875 25.585937-25.601563 25.601562zm-59.734375-102.398438c-28.261718.03125-51.167968 22.933594-51.199218 51.199219v25.597657c.003906 4.710937 3.824218 8.53125 8.535156 8.535156h102.398437c4.710938-.003906 8.527344-3.824219 8.535157-8.535156v-25.597657c-.03125-28.265625-22.9375-51.167969-51.203126-51.199219zm0 0"/><path d="m255.898438 477.867188h-136.53125c-4.714844 0-8.535157-3.820313-8.535157-8.535157 0-4.710937 3.820313-8.53125 8.535157-8.53125h136.53125c4.714843 0 8.535156 3.820313 8.535156 8.53125 0 4.714844-3.820313 8.535157-8.535156 8.535157zm0 0"/><path d="m375.367188 512h-102.402344c-14.132813-.015625-25.582032-11.46875-25.597656-25.601562v-25.597657c.042968-37.683593 30.582031-68.222656 68.265624-68.265625h17.066407c37.683593.042969 68.222656 30.582032 68.265625 68.265625v25.597657c-.015625 14.132812-11.46875 25.585937-25.597656 25.601562zm-59.734376-102.398438c-28.265624.03125-51.167968 22.933594-51.199218 51.199219v25.597657c.003906 4.710937 3.820312 8.53125 8.53125 8.535156h102.402344c4.710937-.003906 8.527343-3.824219 8.53125-8.535156v-25.597657c-.03125-28.265625-22.9375-51.167969-51.199219-51.199219zm0 0"/><path d="m392.433594 477.867188h-136.535156c-4.710938 0-8.53125-3.820313-8.53125-8.535157 0-4.710937 3.820312-8.53125 8.53125-8.53125h136.535156c4.710937 0 8.53125 3.820313 8.53125 8.53125 0 4.714844-3.820313 8.535157-8.53125 8.535157zm0 0"/><path d="m81.800781 416.175781c-19.085937-.609375-36.820312-9.988281-48.070312-25.417969-9.140625-11.667968-13.980469-26.128906-13.707031-40.949218.070312-13.972656 6.519531-27.144532 17.507812-35.773438 21.734375-16.589844 55.378906-9.140625 75.007812 16.578125 19.625 25.722657 17.925782 60.136719-3.800781 76.722657-7.753906 5.839843-17.230469 8.949218-26.9375 8.839843zm-17.183593-93.996093c-6.027344-.097657-11.910157 1.808593-16.734376 5.421874-6.878906 5.554688-10.855468 13.941407-10.800781 22.78125-.140625 10.882813 3.464844 21.480469 10.21875 30.011719 13.921875 18.246094 36.839844 24.246094 51.089844 13.371094s14.5-34.558594.582031-52.800781v.003906c-7.980468-11.183594-20.636718-18.105469-34.355468-18.789062zm0 0"/><path d="m24.90625 336.109375-21.851562-55.296875c-8.597657-21.449219 1.554687-45.832031 22.835937-54.835938l44.542969-19.117187c2.171875-.914063 4.460937-1.53125 6.800781-1.828125l2 16.949219c-.746094.109375-1.472656.3125-2.167969.605469l-44.441406 19.066406c-12.757812 5.40625-18.84375 20.019531-13.695312 32.882812l21.847656 55.292969zm0 0"/><path d="m54 316.902344-19.199219-48.636719c-1.703125-4.292969.324219-9.160156 4.566407-10.976563l34.222656-14.675781 6.734375 15.679688-26.609375 11.410156 16.152344 40.933594zm0 0"/><path d="m430.132812 416.175781c-9.710937.113281-19.1875-2.996093-26.941406-8.839843-10.988281-8.628907-17.4375-21.800782-17.507812-35.773438-.273438-14.820312 4.566406-29.28125 13.707031-40.949219 19.625-25.714843 53.273437-33.175781 75.007813-16.578125 21.726562 16.582032 23.425781 50.996094 3.800781 76.71875-11.246094 15.429688-28.984375 24.8125-48.066407 25.421875zm17.183594-93.996093c-13.722656.683593-26.382812 7.605468-34.359375 18.789062-6.75 8.535156-10.359375 19.132812-10.214843 30.015625-.054688 8.839844 3.917968 17.226563 10.796874 22.78125 14.242188 10.863281 37.167969 4.890625 51.09375-13.371094 13.914063-18.234375 13.65625-41.921875-.582031-52.796875-4.824219-3.609375-10.710937-5.515625-16.734375-5.417968zm0 0"/><path d="m487.023438 336.105469-15.867188-6.269531 21.847656-55.292969c5.152344-12.863281-.933594-27.488281-13.691406-32.894531l-44.546875-19.109376c-.664063-.273437-1.359375-.460937-2.074219-.5625l2-16.949218c2.308594.292968 4.5625.894531 6.710938 1.789062l44.640625 19.15625c21.28125 9.007813 31.433593 33.398438 22.824219 54.847656zm0 0"/><path d="m457.921875 316.902344-15.863281-6.265625 16.148437-40.933594-26.601562-11.40625 6.734375-15.683594 34.21875 14.675781c4.242187 1.820313 6.265625 6.683594 4.566406 10.976563zm0 0"/><path d="m172.554688 109.9375c4.648437 3.835938 9.667968 7.191406 14.984374 10.027344 4.996094 2.597656 10.21875 4.730468 15.605469 6.375 5.460938 1.277344 10.902344 2.488281 16.699219 3.472656 2.875.707031 5.871094.851562 8.917969 1.652344 3.242187.421875 6.445312 1.113281 9.570312 2.070312l.3125.105469c1.207031.398437 2.070313 1.460937 2.214844 2.726563.148437 1.261718-.449219 2.492187-1.53125 3.160156-6.140625 3.636718-13.0625 5.757812-20.183594 6.183594-14.828125.867187-29.332031-4.597657-39.902343-15.03125-5.292969-5.089844-8.996094-11.605469-10.671876-18.753907-.199218-.945312.21875-1.914062 1.042969-2.417969.824219-.503906 1.875-.4375 2.628907.167969zm0 0"/><path d="m343.222656 111.929688c-1.671875 7.148437-5.378906 13.664062-10.671875 18.753906-10.570312 10.433594-25.070312 15.898437-39.898437 15.03125-7.125-.425782-14.046875-2.546875-20.1875-6.183594-1.078125-.667969-1.675782-1.898438-1.53125-3.160156.148437-1.261719 1.011718-2.324219 2.214844-2.726563l.316406-.105469c3.125-.957031 6.328125-1.648437 9.570312-2.070312 3.046875-.800781 6.042969-.945312 8.917969-1.65625 5.804687-.980469 11.242187-2.1875 16.703125-3.46875 5.382812-1.644531 10.605469-3.777344 15.601562-6.375 5.316407-2.835938 10.335938-6.195312 14.984376-10.027344l.308593-.25c.75-.605468 1.800781-.671875 2.625-.171875.820313.503907 1.238281 1.46875 1.042969 2.414063zm0 0"/><path d="m418.03125 51.199219h-17.066406c-4.710938 0-8.53125-3.820313-8.53125-8.53125 0-4.714844 3.820312-8.535157 8.53125-8.535157h17.066406c4.710938-.003906 8.53125-3.820312 8.535156-8.53125v-17.066406c0-4.714844 3.820313-8.535156 8.53125-8.535156 4.714844 0 8.535156 3.820312 8.535156 8.535156v17.066406c-.015624 14.128907-11.46875 25.582032-25.601562 25.597657zm0 0"/><path d="m503.367188 51.199219h-17.070313c-14.128906-.015625-25.582031-11.46875-25.597656-25.597657v-17.066406c0-4.714844 3.820312-8.535156 8.53125-8.535156 4.714843 0 8.535156 3.820312 8.535156 8.535156v17.066406c.003906 4.710938 3.820313 8.527344 8.53125 8.53125h17.070313c4.710937 0 8.53125 3.820313 8.53125 8.535157 0 4.710937-3.820313 8.53125-8.53125 8.53125zm0 0"/><path d="m435.097656 119.464844c-4.710937 0-8.53125-3.820313-8.53125-8.53125v-17.066406c-.003906-4.710938-3.824218-8.53125-8.535156-8.535157h-17.066406c-4.710938 0-8.53125-3.820312-8.53125-8.53125 0-4.714843 3.820312-8.535156 8.53125-8.535156h17.066406c14.132812.015625 25.585938 11.46875 25.601562 25.601563v17.066406c0 2.261718-.898437 4.433594-2.5 6.035156-1.601562 1.597656-3.769531 2.496094-6.035156 2.496094zm0 0"/><path d="m469.230469 119.464844c-4.710938 0-8.53125-3.820313-8.53125-8.53125v-17.066406c.015625-14.132813 11.46875-25.585938 25.597656-25.601563h17.070313c4.710937 0 8.53125 3.820313 8.53125 8.535156 0 4.710938-3.820313 8.53125-8.53125 8.53125h-17.070313c-4.710937.003907-8.527344 3.824219-8.53125 8.535157v17.066406c0 4.710937-3.820313 8.53125-8.535156 8.53125zm0 0"/><path d="m199.765625 210.417969c-15.644531-.410157-30.710937-5.984375-42.855469-15.859375-3.769531-2.828125-4.53125-8.175782-1.703125-11.945313 2.824219-3.769531 8.175781-4.535156 11.945313-1.707031 28.535156 21.394531 49.101562 8.753906 49.957031 8.207031 3.9375-2.59375 9.230469-1.503906 11.824219 2.429688 2.589844 3.9375 1.503906 9.230469-2.429688 11.824219-8.09375 4.769531-17.347656 7.207031-26.738281 7.050781zm0 0"/><path d="m312.03125 210.417969c-9.390625.15625-18.640625-2.28125-26.734375-7.050781-3.835937-2.632813-4.859375-7.855469-2.292969-11.738282 2.5625-3.886718 7.765625-5 11.695313-2.503906 1.007812.632812 21.542969 13.066406 49.949219-8.214844 2.433593-1.902344 5.707031-2.34375 8.554687-1.148437 2.851563 1.195312 4.832031 3.835937 5.179687 6.90625.347657 3.070312-.988281 6.089843-3.496093 7.890625-12.144531 9.875-27.210938 15.449218-42.855469 15.859375zm0 0"/><path d="m307.097656 324.265625h-25.597656c-4.714844 0-8.535156-3.820313-8.535156-8.53125 0-4.714844 3.820312-8.535156 8.535156-8.535156h25.597656v-17.066407c-.019531-18.84375-15.289062-34.113281-34.132812-34.132812h-34.132813c-18.84375.019531-34.113281 15.289062-34.132812 34.132812v17.066407h25.597656c4.714844 0 8.535156 3.820312 8.535156 8.535156 0 4.710937-3.820312 8.53125-8.535156 8.53125h-25.597656c-9.421875-.011719-17.054688-7.644531-17.066407-17.066406v-17.066407c.03125-28.261718 22.933594-51.167968 51.199219-51.199218h34.132813c28.265625.03125 51.167968 22.9375 51.199218 51.199218v17.066407c-.007812 9.421875-7.644531 17.054687-17.066406 17.066406zm0 0"/><path d="m255.898438 384c-18.84375-.019531-34.113282-15.289062-34.132813-34.132812v-42.667969c.015625-14.132813 11.46875-25.582031 25.601563-25.597657h17.066406c14.128906.015626 25.582031 11.464844 25.597656 25.597657v42.667969c-.019531 18.84375-15.289062 34.113281-34.132812 34.132812zm-8.53125-85.332031c-4.710938.003906-8.53125 3.820312-8.535157 8.53125v42.667969c0 9.425781 7.640625 17.066406 17.066407 17.066406 9.425781 0 17.066406-7.640625 17.066406-17.066406v-42.667969c-.003906-4.710938-3.820313-8.527344-8.53125-8.53125zm0 0"/></svg>