<svg height="511pt" viewBox="0 -17 511.92915 511" width="511pt" xmlns="http://www.w3.org/2000/svg"><path d="m76.953125 216.785156-34.21875 14.675782 19.203125 48.640624-29.101562 19.199219-21.84375-55.292969c-6.867188-17.15625 1.25-36.648437 18.261718-43.863281l44.542969-19.113281c1.417969-.597656 2.910156-1 4.4375-1.195312zm0 0" fill="#ff5722"/><path d="m434.972656 216.785156 34.21875 14.675782-19.199218 48.640624 29.097656 19.199219 21.847656-55.292969c6.863281-17.15625-1.253906-36.648437-18.261719-43.863281l-44.546875-19.113281c-1.417968-.597656-2.910156-1-4.4375-1.195312zm0 0" fill="#ff5722"/><path d="m435.097656 205.265625c.929688 65.34375-29.976562 127.0625-82.859375 165.460937l-97.277343 72.53125-12.714844-9.640624-82.6875-62.890626c-16.210938-11.371093-30.496094-25.253906-42.328125-41.132812l-22.613281-38.65625c-10.308594-23.449219-16.292969-48.570312-17.664063-74.152344-.167969-3.839844-.253906-7.679687-.253906-11.519531-.007813-8.5.503906-16.992187 1.535156-25.429687 10.835937-91.820313 79.617187-163.753907 164.863281-170.242188 4.269532-.425781 8.535156-.597656 12.800782-.597656 98.988281 0 179.199218 87.894531 179.199218 196.269531zm0 0" fill="#fec108"/><path d="m409.5 205.265625c.929688 65.34375-29.976562 127.0625-82.859375 165.460937l-84.394531 62.890626-82.6875-62.890626c-16.210938-11.371093-30.496094-25.253906-42.328125-41.132812l-22.613281-38.65625c-10.308594-23.449219-16.292969-48.570312-17.664063-74.152344-.167969-3.839844-.253906-7.679687-.253906-11.519531-.007813-8.5.503906-16.992187 1.535156-25.429687 10.835937-91.820313 79.617187-163.753907 164.863281-170.242188 93.015625 7.085938 166.402344 91.992188 166.402344 195.671875zm0 0" fill="#ffdc00"/><path d="m255.898438 427.132812v25.597657c-.027344 9.414062-7.652344 17.039062-17.066407 17.066406h-102.398437c-9.414063-.027344-17.039063-7.652344-17.066406-17.066406v-25.597657c-.070313-31.34375 24.195312-57.363281 55.464843-59.480468 1.414063-.167969 2.839844-.253906 4.265625-.253906h17.066406c15.847657-.011719 31.046876 6.277343 42.253907 17.480468 11.203125 11.207032 17.492187 26.40625 17.480469 42.253906zm0 0" fill="#283593"/><path d="m230.296875 427.132812v25.597657c-.027344 9.414062-7.652344 17.039062-17.066406 17.066406h-76.796875c-9.414063-.027344-17.039063-7.652344-17.066406-17.066406v-25.597657c-.070313-31.34375 24.195312-57.363281 55.464843-59.480468 31.269531 2.117187 55.535157 28.136718 55.464844 59.480468zm0 0" fill="#3f51b5"/><path d="m392.433594 427.132812v25.597657c-.027344 9.414062-7.652344 17.039062-17.066406 17.066406h-102.402344c-9.414063-.027344-17.039063-7.652344-17.066406-17.066406v-25.597657c-.070313-31.34375 24.195312-57.363281 55.46875-59.480468 1.414062-.167969 2.839843-.253906 4.265624-.253906h17.066407c15.84375-.011719 31.046875 6.277343 42.25 17.480468 11.203125 11.207032 17.496093 26.40625 17.484375 42.253906zm0 0" fill="#283593"/><path d="m366.832031 427.132812v25.597657c-.027343 9.414062-7.652343 17.039062-17.066406 17.066406h-76.800781c-9.414063-.027344-17.039063-7.652344-17.066406-17.066406v-25.597657c-.070313-31.34375 24.195312-57.363281 55.46875-59.480468 31.269531 2.117187 55.535156 28.136718 55.464843 59.480468zm0 0" fill="#3f51b5"/><path d="m105.753906 302.121094c-16.804687-22.019532-45.03125-28.722656-63.046875-14.972656s-18.996093 42.746093-2.191406 64.765624c16.804687 22.015626 45.03125 28.71875 63.046875 14.972657 18.015625-13.75 18.996094-42.746094 2.191406-64.765625zm0 0" fill="#ff9801"/><path d="m471.449219 351.953125c-11.78125 17.347656-33.21875 25.378906-53.503907 20.054687-3.449218-1.160156-6.679687-2.890624-9.554687-5.121093-18.007813-13.738281-19.03125-42.753907-2.21875-64.769531 7.011719-9.398438 16.757813-16.402344 27.902344-20.050782 11.847656-4.183594 24.996093-2.269531 35.15625 5.117188 18.007812 13.738281 18.945312 42.667968 2.21875 64.769531zm0 0" fill="#f57c00"/><path d="m445.851562 351.953125c-7.03125 9.378906-16.773437 16.378906-27.90625 20.054687-3.449218-1.160156-6.679687-2.890624-9.554687-5.121093-18.007813-13.738281-19.03125-42.753907-2.21875-64.769531 7.011719-9.398438 16.757813-16.402344 27.902344-20.050782 3.453125 1.15625 6.683593 2.886719 9.558593 5.117188 18.003907 13.738281 18.941407 42.667968 2.21875 64.769531zm0 0" fill="#ff9801"/><g fill="#3f51b5"><path d="m272.964844 162.597656s0-8.53125-17.066406-8.53125c-17.066407 0-17.066407 8.53125-17.066407 8.53125v-34.132812s0-8.535156 17.066407-8.535156c17.066406 0 17.066406 8.535156 17.066406 8.535156zm0 0"/><path d="m76.699219 128.464844h42.667969v34.132812h-42.667969c-9.425781 0-17.066407-7.640625-17.066407-17.066406s7.640626-17.066406 17.066407-17.066406zm0 0"/><path d="m392.433594 128.464844h42.664062c9.425782 0 17.066406 7.640625 17.066406 17.066406s-7.640624 17.066406-17.066406 17.066406h-42.664062zm0 0"/><path d="m127.898438 119.929688h102.398437c4.714844 0 8.535156 3.820312 8.535156 8.535156v34.132812c0 32.988282-26.742187 59.734375-59.734375 59.734375-32.988281 0-59.730468-26.746093-59.730468-59.734375v-34.132812c0-4.714844 3.820312-8.535156 8.53125-8.535156zm0 0"/><path d="m281.5 119.929688h102.398438c4.714843 0 8.535156 3.820312 8.535156 8.535156v34.132812c0 32.988282-26.746094 59.734375-59.734375 59.734375-32.992188 0-59.734375-26.746093-59.734375-59.734375v-34.132812c0-4.714844 3.820312-8.535156 8.535156-8.535156zm0 0"/></g><path d="m159.550781 379.257812c-1.742187.003907-3.441406-.535156-4.867187-1.535156-16.960938-11.878906-31.910156-26.398437-44.277344-43.007812-1.828125-2.4375-2.21875-5.667969-1.023438-8.472656 1.199219-2.800782 3.800782-4.753907 6.828126-5.117188 3.027343-.367188 6.019531.910156 7.847656 3.351562 11.28125 15.148438 24.910156 28.402344 40.375 39.253907 3.054687 2.132812 4.375 6 3.257812 9.554687-1.121094 3.554688-4.414062 5.972656-8.140625 5.972656zm0 0"/><path d="m352.25 379.257812c-3.730469.003907-7.027344-2.414062-8.148438-5.96875-1.121093-3.554687.199219-7.425781 3.253907-9.558593 15.570312-10.882813 29.25-24.238281 40.5-39.539063 2.796875-3.796875 8.136719-4.609375 11.933593-1.816406 3.796876 2.792969 4.613282 8.136719 1.816407 11.933594-12.355469 16.804687-27.382813 31.46875-44.480469 43.414062-1.429688 1-3.132812 1.539063-4.875 1.535156zm0 0"/><path d="m94.625 299.476562c-3.386719.003907-6.453125-1.996093-7.816406-5.089843-10.742188-24.386719-16.964844-50.523438-18.367188-77.132813-.191406-4.054687-.277344-8.019531-.277344-11.988281-.007812-8.851563.527344-17.695313 1.601563-26.480469.648437-5.644531 1.582031-11.503906 2.824219-17.835937.910156-4.625 5.398437-7.636719 10.023437-6.726563s7.636719 5.394532 6.726563 10.019532c-1.15625 5.890624-2.023438 11.3125-2.632813 16.574218-.992187 8.113282-1.484375 16.277344-1.476562 24.449219 0 3.710937.085937 7.421875.25 11.132813 1.300781 24.527343 7.039062 48.617187 16.941406 71.09375 1.167969 2.640624.921875 5.6875-.652344 8.105468-1.574219 2.417969-4.261719 3.878906-7.144531 3.878906zm0 0"/><path d="m417.082031 299.648438c-2.890625-.003907-5.582031-1.46875-7.152343-3.894532-1.570313-2.425781-1.808594-5.480468-.628907-8.117187 9.980469-22.535157 15.753907-46.707031 17.023438-71.316407.15625-3.632812.242187-7.34375.242187-11.054687.007813-8.148437-.480468-16.292969-1.46875-24.378906-.613281-5.332031-1.480468-10.753907-2.640625-16.640625-.910156-4.625 2.105469-9.113282 6.730469-10.019532 4.625-.910156 9.109375 2.101563 10.019531 6.726563 1.242188 6.328125 2.175781 12.1875 2.832031 17.902344 1.070313 8.761719 1.601563 17.582031 1.59375 26.410156 0 3.96875-.089843 7.9375-.265624 11.90625-1.371094 26.71875-7.636719 52.957031-18.484376 77.414063-1.371093 3.078124-4.429687 5.0625-7.800781 5.0625zm0 0"/><path d="m420.847656 137.003906c-3.519531 0-6.679687-2.164062-7.949218-5.449218-26.941407-69.265626-88.5625-114.023438-157-114.023438s-130.058594 44.757812-157 114.023438c-1.042969 2.925781-3.59375 5.050781-6.660157 5.550781-3.0625.5-6.15625-.703125-8.078125-3.140625-1.921875-2.441406-2.367187-5.730469-1.160156-8.59375 29.5-75.878906 97.363281-124.90625 172.898438-124.90625 75.535156 0 143.402343 49.027344 172.898437 124.90625 1.019531 2.628906.679687 5.585937-.910156 7.910156-1.589844 2.324219-4.222657 3.71875-7.039063 3.722656zm0 0"/><path d="m238.832031 478.332031h-102.398437c-14.132813-.015625-25.585938-11.46875-25.601563-25.601562v-25.597657c.042969-37.6875 30.582031-68.226562 68.265625-68.269531h17.066406c37.6875.042969 68.226563 30.582031 68.269532 68.269531v25.597657c-.015625 14.132812-11.46875 25.585937-25.601563 25.601562zm-59.734375-102.402343c-28.261718.03125-51.167968 22.9375-51.199218 51.203124v25.597657c.003906 4.710937 3.824218 8.53125 8.535156 8.535156h102.398437c4.710938-.003906 8.527344-3.824219 8.535157-8.535156v-25.597657c-.03125-28.265624-22.9375-51.171874-51.203126-51.203124zm0 0"/><path d="m255.898438 444.199219h-136.53125c-4.714844 0-8.535157-3.820313-8.535157-8.535157 0-4.710937 3.820313-8.53125 8.535157-8.53125h136.53125c4.714843 0 8.535156 3.820313 8.535156 8.53125 0 4.714844-3.820313 8.535157-8.535156 8.535157zm0 0"/><path d="m375.367188 478.332031h-102.402344c-14.132813-.015625-25.582032-11.46875-25.597656-25.601562v-25.597657c.042968-37.6875 30.582031-68.226562 68.265624-68.269531h17.066407c37.683593.042969 68.222656 30.582031 68.265625 68.269531v25.597657c-.015625 14.132812-11.46875 25.585937-25.597656 25.601562zm-59.734376-102.402343c-28.265624.03125-51.167968 22.9375-51.199218 51.203124v25.597657c.003906 4.710937 3.820312 8.53125 8.53125 8.535156h102.402344c4.710937-.003906 8.527343-3.824219 8.53125-8.535156v-25.597657c-.03125-28.265624-22.9375-51.171874-51.199219-51.203124zm0 0"/><path d="m392.433594 444.199219h-136.535156c-4.710938 0-8.53125-3.820313-8.53125-8.535157 0-4.710937 3.820312-8.53125 8.53125-8.53125h136.535156c4.710937 0 8.53125 3.820313 8.53125 8.53125 0 4.714844-3.820313 8.535157-8.53125 8.535157zm0 0"/><path d="m81.800781 382.507812c-19.085937-.609374-36.820312-9.988281-48.070312-25.417968-9.140625-11.667969-13.980469-26.128906-13.707031-40.949219.070312-13.972656 6.519531-27.148437 17.507812-35.777344 21.734375-16.585937 55.378906-9.136719 75.007812 16.582031 19.625 25.71875 17.925782 60.136719-3.800781 76.71875-7.753906 5.84375-17.230469 8.953126-26.9375 8.84375zm-17.183593-93.996093c-6.027344-.097657-11.910157 1.808593-16.734376 5.417969-6.878906 5.558593-10.855468 13.941406-10.800781 22.785156-.140625 10.882812 3.464844 21.480468 10.21875 30.011718 13.921875 18.246094 36.839844 24.246094 51.089844 13.371094s14.5-34.558594.582031-52.804687v.003906c-7.980468-11.183594-20.636718-18.101563-34.355468-18.785156zm0 0"/><path d="m24.90625 302.441406-21.851562-55.296875c-8.597657-21.449219 1.554687-45.832031 22.835937-54.839843l44.542969-19.113282c2.171875-.914062 4.460937-1.53125 6.800781-1.828125l2 16.949219c-.746094.109375-1.472656.3125-2.167969.605469l-44.441406 19.066406c-12.757812 5.40625-18.84375 20.019531-13.695312 32.878906l21.847656 55.296875zm0 0"/><path d="m54 283.234375-19.199219-48.640625c-1.703125-4.289062.324219-9.15625 4.566407-10.972656l34.222656-14.679688 6.734375 15.683594-26.609375 11.410156 16.152344 40.933594zm0 0"/><path d="m430.132812 382.507812c-9.710937.113282-19.1875-2.996093-26.941406-8.839843-10.988281-8.628907-17.4375-21.800781-17.507812-35.773438-.273438-14.820312 4.566406-29.28125 13.707031-40.949219 19.625-25.714843 53.273437-33.175781 75.007813-16.582031 21.726562 16.585938 23.425781 51 3.800781 76.722657-11.246094 15.429687-28.984375 24.808593-48.066407 25.421874zm17.183594-93.996093c-13.722656.679687-26.382812 7.605469-34.359375 18.789062-6.75 8.535157-10.359375 19.132813-10.214843 30.015625-.054688 8.839844 3.917968 17.226563 10.796874 22.78125 14.242188 10.863282 37.167969 4.890625 51.09375-13.371094 13.914063-18.238281 13.65625-41.925781-.582031-52.800781-4.824219-3.605469-10.710937-5.511719-16.734375-5.414062zm0 0"/><path d="m487.023438 302.433594-15.867188-6.265625 21.847656-55.296875c5.152344-12.863282-.933594-27.484375-13.691406-32.890625l-44.546875-19.109375c-.664063-.273438-1.359375-.460938-2.074219-.5625l2-16.949219c2.308594.289063 4.5625.890625 6.710938 1.789063l44.640625 19.152343c21.28125 9.011719 31.433593 33.402344 22.824219 54.851563zm0 0"/><path d="m457.921875 283.234375-15.863281-6.265625 16.148437-40.933594-26.601562-11.410156 6.734375-15.679688 34.21875 14.675782c4.242187 1.820312 6.265625 6.683594 4.566406 10.976562zm0 0"/><path d="m179.097656 230.863281c-37.683594-.042969-68.222656-30.582031-68.265625-68.265625v-34.132812c.011719-9.421875 7.644531-17.054688 17.066407-17.066406h102.398437c9.421875.011718 17.058594 7.644531 17.070313 17.066406v34.132812c-.046876 37.683594-30.582032 68.222656-68.269532 68.265625zm-51.199218-102.398437v34.132812c0 28.277344 22.921874 51.199219 51.199218 51.199219s51.199219-22.921875 51.199219-51.199219v-34.132812zm0 0"/><path d="m332.699219 230.863281c-37.683594-.042969-68.222657-30.582031-68.265625-68.265625v-34.132812c.007812-9.421875 7.644531-17.054688 17.066406-17.066406h102.398438c9.421874.011718 17.054687 7.644531 17.066406 17.066406v34.132812c-.042969 37.683594-30.582032 68.222656-68.265625 68.265625zm-51.199219-102.398437v34.132812c0 28.277344 22.921875 51.199219 51.199219 51.199219 28.277343 0 51.199219-22.921875 51.199219-51.199219v-34.132812zm0 0"/><path d="m272.964844 136.996094c-4.097656.003906-7.613282-2.90625-8.382813-6.929688-2.6875-1.339844-5.695312-1.894531-8.683593-1.601562-2.988282-.292969-5.996094.261718-8.683594 1.601562-.820313 4.324219-4.800782 7.3125-9.1875 6.898438-4.382813-.414063-7.730469-4.097656-7.730469-8.5 0-.695313.292969-17.066406 25.601563-17.066406 25.308593 0 25.601562 16.371093 25.601562 17.066406 0 4.710937-3.820312 8.53125-8.535156 8.53125zm0 0"/><path d="m272.964844 171.132812c-4.097656 0-7.613282-2.910156-8.382813-6.933593-2.6875-1.335938-5.695312-1.890625-8.683593-1.601563-2.988282-.289062-5.996094.265625-8.683594 1.601563-.820313 4.324219-4.800782 7.316406-9.1875 6.898437-4.382813-.414062-7.730469-4.097656-7.730469-8.5 0-.695312.292969-17.066406 25.601563-17.066406 25.308593 0 25.601562 16.371094 25.601562 17.066406 0 4.714844-3.820312 8.535156-8.535156 8.535156zm0 0"/><path d="m119.367188 171.132812h-42.667969c-14.140625 0-25.601563-11.464843-25.601563-25.601562s11.460938-25.601562 25.601563-25.601562h42.667969c4.710937 0 8.53125 3.820312 8.53125 8.535156v34.132812c0 4.714844-3.820313 8.535156-8.53125 8.535156zm-42.667969-34.136718c-4.714844 0-8.535157 3.824218-8.535157 8.535156s3.820313 8.535156 8.535157 8.535156h34.132812v-17.070312zm0 0"/><path d="m435.097656 171.132812h-42.664062c-4.714844 0-8.535156-3.820312-8.535156-8.535156v-34.132812c0-4.714844 3.820312-8.535156 8.535156-8.535156h42.664062c14.140625 0 25.601563 11.464843 25.601563 25.601562s-11.460938 25.601562-25.601563 25.601562zm-34.132812-17.066406h34.132812c4.714844 0 8.535156-3.824218 8.535156-8.535156s-3.820312-8.535156-8.535156-8.535156h-34.132812zm0 0"/><path d="m153.5 171.132812c-3.453125-.003906-6.5625-2.082031-7.882812-5.269531-1.320313-3.1875-.589844-6.859375 1.847656-9.296875l8.535156-8.535156c3.347656-3.234375 8.667969-3.1875 11.960938.105469 3.292968 3.289062 3.339843 8.613281.105468 11.960937l-8.535156 8.535156c-1.597656 1.601563-3.769531 2.5-6.03125 2.5zm0 0"/><path d="m307.097656 171.132812c-3.449218-.003906-6.558594-2.082031-7.882812-5.269531-1.320313-3.1875-.589844-6.859375 1.851562-9.296875l8.53125-8.535156c3.351563-3.234375 8.671875-3.1875 11.964844.105469 3.289062 3.289062 3.335938 8.613281.101562 11.960937l-8.53125 8.535156c-1.597656 1.601563-3.769531 2.5-6.035156 2.5zm0 0"/><path d="m272.964844 290.597656h-68.265625c-4.714844 0-8.535157-3.820312-8.535157-8.53125 0-4.714844 3.820313-8.535156 8.535157-8.535156h68.265625c14.132812-.015625 25.585937-11.46875 25.601562-25.601562 0-4.710938 3.820313-8.53125 8.53125-8.53125 4.714844 0 8.535156 3.820312 8.535156 8.53125-.027343 23.554687-19.113281 42.640624-42.667968 42.667968zm0 0"/><path d="m238.832031 324.730469h-8.535156c-4.710937 0-8.53125-3.820313-8.53125-8.53125 0-4.714844 3.820313-8.535157 8.53125-8.535157h8.535156c4.710938 0 8.535157 3.820313 8.535157 8.535157 0 4.710937-3.824219 8.53125-8.535157 8.53125zm0 0"/><path d="m228.644531 70.019531c-9.644531-3.75-20.175781-4.605469-30.300781-2.460937-4.835938 1.554687-9.347656 3.980468-13.3125 7.15625-2.179688 1.535156-3.980469 3.636718-6.203125 5.355468-1.953125 2.019532-3.78125 4.179688-5.945313 6.203126l-.253906.234374c-.9375.871094-2.351562.976563-3.40625.253907-1.050781-.726563-1.457031-2.085938-.976562-3.269531 1.167968-2.871094 2.613281-5.640626 4.035156-8.472657 1.703125-2.730469 3.621094-5.320312 5.734375-7.75 4.539063-5.070312 10.277344-8.917969 16.691406-11.191406 6.59375-2.296875 13.726563-2.546875 20.460938-.710937 6.480469 1.695312 12.316406 5.253906 16.78125 10.242187.820312.941406.921875 2.3125.242187 3.363281-.675781 1.046875-1.96875 1.523438-3.164062 1.164063zm0 0"/><path d="m279.84375 65.609375c4.46875-4.984375 10.304688-8.546875 16.78125-10.238281 6.738281-1.835938 13.871094-1.589844 20.464844.707031 6.414062 2.273437 12.152344 6.121094 16.691406 11.195313 2.113281 2.425781 4.027344 5.015624 5.730469 7.746093 1.425781 2.832031 2.871093 5.601563 4.039062 8.472657.480469 1.183593.074219 2.542968-.980469 3.265624-1.050781.726563-2.464843.625-3.402343-.246093l-.253907-.238281c-2.164062-2.019532-3.992187-4.183594-5.945312-6.203126-2.21875-1.71875-4.023438-3.820312-6.203125-5.355468-3.964844-3.175782-8.476563-5.601563-13.3125-7.152344-10.125-2.148438-20.65625-1.292969-30.300781 2.457031l-.378906.117188c-1.195313.359375-2.488282-.113281-3.164063-1.160157-.679687-1.050781-.582031-2.421874.234375-3.363281zm0 0"/></svg>