<svg height="512pt" viewBox="0 0 512.01861 512" width="512pt" xmlns="http://www.w3.org/2000/svg"><path d="m247.480469 8.554688c-101.273438-.015626-190.675781 66.109374-220.316407 162.949218-29.636718 96.839844 7.445313 201.675782 91.378907 258.34375h.082031l69.121094 48.042969v8.53125c.027344 9.414063 7.652344 17.039063 17.066406 17.066406h145.066406c9.414063-.027343 17.039063-7.652343 17.066406-17.066406v-50.429687c.769532-.511719 1.539063-.941407 2.304688-1.453126 3.753906-2.386718 7.511719-4.863281 11.09375-7.421874.011719.089843.039062.175781.085938.253906 1.058593 2.222656 2.566406 4.199218 4.4375 5.804687.597656.597657 1.28125 1.277344 1.960937 1.875 1.257813 1.097657 2.601563 2.097657 4.011719 2.988281.6875.5625 1.429687 1.046876 2.21875 1.449219.800781.449219 1.625.847657 2.476562 1.195313.6875.335937 1.402344.621094 2.132813.855468 1.109375.425782 2.21875.765626 3.328125 1.109376 2.808594.75 5.707031 1.121093 8.617187 1.109374 9.707031.011719 18.957031-4.117187 25.429688-11.351562 43.40625-48.574219 67.722656-111.242188 68.4375-176.382812 1.023437-76.800782-51.199219-247.46875-256-247.46875zm0 0" fill="#f0c419"/><path d="m503.480469 256.023438c-.714844 65.140624-25.03125 127.808593-68.4375 176.382812-6.472657 7.234375-15.722657 11.363281-25.429688 11.351562-2.910156.011719-5.808593-.359374-8.617187-1.109374-1.109375-.34375-2.21875-.683594-3.328125-1.109376-.730469-.234374-1.445313-.519531-2.132813-.855468-.851562-.347656-1.675781-.746094-2.476562-1.195313-.789063-.402343-1.53125-.886719-2.21875-1.449219-1.410156-.890624-2.753906-1.890624-4.011719-2.988281-.679687-.597656-1.363281-1.277343-1.960937-1.875-1.871094-1.605469-3.378907-3.582031-4.4375-5.804687-.046876-.078125-.074219-.164063-.085938-.253906-3.582031 2.558593-7.339844 5.035156-11.09375 7.421874-.765625.511719-1.535156.941407-2.304688 1.453126-20.9375 12.726562-43.785156 22.003906-67.667968 27.476562h-.257813l-.339843-2.644531c-8.613282-20.695313-28.785157-34.210938-51.199219-34.304688h-8.535157c-20.351562.027344-38.761718 12.078125-46.933593 30.71875-.683594 1.617188-1.28125 3.269531-1.789063 4.949219-1.652344 5.042969-2.488281 10.3125-2.476562 15.617188v.085937l-69.121094-48.042969h-.082031c-83.933594-56.667968-121.015625-161.503906-91.378907-258.34375 29.640626-96.839844 119.042969-162.964844 220.316407-162.949218 204.800781 0 257.023437 170.667968 256 247.46875zm0 0" fill="#ffdc00"/><path d="m192.011719 457.238281c-8.148438-18.652343-26.578125-30.703125-46.933594-30.695312h-8.53125c-28.296875.046875-51.207031 23.003906-51.199219 51.296875v8.550781c.019532 9.421875 7.640625 17.0625 17.066406 17.097656h145.066407zm0 0" fill="#3f51b5"/><path d="m366.945312 435.992188v50.429687c-.027343 9.414063-7.652343 17.039063-17.066406 17.066406h-145.066406c-9.414062-.027343-17.039062-7.652343-17.066406-17.066406v-8.617187c-.011719-5.304688.824218-10.574219 2.476562-15.617188.507813-1.679688 1.105469-3.332031 1.789063-4.949219 8.171875-18.640625 26.582031-30.691406 46.933593-30.71875h8.535157c22.414062.09375 42.585937 13.609375 51.199219 34.304688l.597656 2.644531c23.882812-5.472656 46.730468-14.75 67.667968-27.476562zm0 0" fill="#3f51b5"/><path d="m503.480469 256.023438c-.714844 65.140624-25.03125 127.808593-68.4375 176.382812-6.472657 7.234375-15.722657 11.363281-25.429688 11.351562-2.910156.011719-5.808593-.359374-8.617187-1.109374-1.109375-.34375-2.21875-.683594-3.328125-1.109376-.304688-.0625-.59375-.179687-.855469-.34375 4.851562-1.878906 9.183594-4.894531 12.628906-8.789062 43.410156-48.574219 67.726563-111.242188 68.4375-176.382812 1.023438-74.921876-48.722656-239.273438-241.492187-247.125 3.667969-.257813 7.339843-.34375 11.09375-.34375 204.800781 0 257.023437 170.667968 256 247.46875zm0 0" fill="#fec108"/><path d="m366.945312 435.992188v50.429687c-.027343 9.414063-7.652343 17.039063-17.066406 17.066406h-25.597656c9.414062-.027343 17.039062-7.652343 17.066406-17.066406v-37.035156c8.808594-3.917969 17.359375-8.390625 25.597656-13.394531zm0 0" fill="#283593"/><path d="m78.007812 395.03125c-3.15625 4.011719-6.484374 7.933594-9.898437 11.777344-12.605469 13.945312-34.113281 15.078125-48.113281 2.535156-14.003906-12.546875-15.230469-34.050781-2.746094-48.105469 7.550781-8.453125 14.375-17.53125 20.394531-27.136719zm0 0" fill="#ff9801"/><path d="m380.34375 427.117188c-3.582031 2.558593-7.339844 5.035156-11.09375 7.421874-13.523438-12.691406-14.46875-33.851562-2.132812-47.699218 26.3125-29.355469 43.144531-65.972656 48.292968-105.054688 1.203125-9.3125 9.132813-16.285156 18.523438-16.289062-2.132813 44.964844-19.703125 87.820312-49.75 121.34375-9.945313 11.144531-11.5 27.453125-3.839844 40.277344zm0 0" fill="#fec108"/><path d="m380.429688 427.371094c1.300781 2.066406 2.785156 4.007812 4.4375 5.804687-1.871094-1.605469-3.378907-3.582031-4.4375-5.804687zm0 0" fill="#f0c419"/><path d="m366.945312 435.992188v17.066406c-15.941406 9.6875-33.007812 17.390625-50.820312 22.933594-3.960938 1.199218-8.257812.449218-11.578125-2.019532s-5.277344-6.367187-5.269531-10.503906c23.882812-5.472656 46.730468-14.75 67.667968-27.476562zm0 0" fill="#283593"/><path d="m438.882812 85.929688 56.050782-5.667969c2.695312-.265625 5.328125.898437 6.945312 3.066406 1.621094 2.164063 1.988282 5.019531.96875 7.527344l-22.441406 50.117187c-1.125 2.304688-3.367188 3.855469-5.917969 4.101563-2.550781.242187-5.046875-.851563-6.589843-2.898438l-34.941407-43.019531-54.503906-26.058594-54.34375.324219c-2.582031.019531-5-1.25-6.449219-3.386719-1.449218-2.136718-1.734375-4.855468-.761718-7.246094l22.441406-50.117187c1.191406-2.410156 3.597656-3.988281 6.285156-4.117187 2.6875-.128907 5.230469 1.207031 6.648438 3.492187l32.105468 47.824219zm0 0" fill="#6a1b9a"/><path d="m172.898438 211.648438c13.527343-11.632813 18.390624-30.457032 12.1875-47.183594-6.203126-16.730469-22.164063-27.832032-40.007813-27.832032-17.839844 0-33.800781 11.101563-40.003906 27.832032-6.203125 16.726562-1.339844 35.550781 12.1875 47.183594zm0 0" fill="#f5f5f5"/><path d="m162.113281 179.207031c0-14.148437-11.445312-25.617187-25.566406-25.617187s-25.566406 11.46875-25.566406 25.617187c0 14.148438 11.445312 25.617188 25.566406 25.617188s25.566406-11.46875 25.566406-25.617188zm0 0" fill="#3f51b5"/><path d="m309.433594 211.648438c.855468-.640626 1.652344-1.355469 2.386718-2.132813 16.632813-16.671875 16.609376-43.667969-.050781-60.3125-16.660156-16.648437-43.652343-16.648437-60.3125 0-16.660156 16.644531-16.683593 43.640625-.050781 60.3125.734375.777344 1.53125 1.492187 2.386719 2.132813zm0 0" fill="#f5f5f5"/><path d="m298.648438 179.207031c-.011719 12.207031-8.644532 22.707031-20.621094 25.078125-11.972656 2.371094-23.957032-4.042968-28.621094-15.324218s-.710938-24.289063 9.441406-31.066407c10.15625-6.773437 23.683594-5.4375 32.3125 3.199219 4.800782 4.800781 7.496094 11.320312 7.488282 18.113281zm0 0" fill="#3f51b5"/><path d="m142.519531 295.019531-21.589843 44.117188-16.46875-7.507813-28.160157-12.886718c-6.0625-2.730469-10.753906-7.8125-12.992187-14.074219-2.238282-6.261719-1.828125-13.164063 1.132812-19.121094 5.972656-12.089844 20.175782-17.640625 32.765625-12.796875 4.609375-8.160156 13.246094-13.210938 22.613281-13.230469 8.585938-.136719 16.632813 4.183594 21.257813 11.417969s5.171875 16.347656 1.441406 24.082031zm0 0" fill="#bb193b"/><path d="m125.453125 288.707031-20.992187 42.921875-28.160157-12.886718c-6.0625-2.730469-10.753906-7.8125-12.992187-14.074219-2.238282-6.261719-1.828125-13.164063 1.132812-19.121094 5.972656-12.089844 20.175782-17.640625 32.765625-12.796875 4.609375-8.160156 13.246094-13.210938 22.613281-13.230469 8.242188 7.347657 10.550782 19.300781 5.632813 29.1875zm0 0" fill="#ef314c"/><path d="m412.472656 107.980469-27.253906-13.03125c-7.585938-3.773438-10.824219-12.878907-7.320312-20.597657l6.304687-14.078124c1.582031-3.695313 4.601563-6.589844 8.359375-8.015626 3.757812-1.425781 7.933594-1.265624 11.570312.449219l27.253907 13.03125c7.585937 3.773438 10.824219 12.878907 7.320312 20.59375l-6.304687 14.082031c-1.585938 3.695313-4.601563 6.585938-8.359375 8.015626-3.757813 1.425781-7.933594 1.261718-11.570313-.449219zm0 0" fill="#9d27b0"/><g fill="#f5f5f5"><path d="m85.347656 290.15625c0 4.710938-3.820312 8.53125-8.535156 8.53125-4.710938 0-8.53125-3.820312-8.53125-8.53125 0-4.714844 3.820312-8.535156 8.53125-8.535156 4.714844 0 8.535156 3.820312 8.535156 8.535156zm0 0"/><path d="m162.148438 170.6875c0 4.714844-3.824219 8.535156-8.535157 8.535156-4.710937 0-8.535156-3.820312-8.535156-8.535156 0-4.710938 3.824219-8.53125 8.535156-8.53125 4.710938 0 8.535157 3.820312 8.535157 8.53125zm0 0"/><path d="m298.679688 170.6875c0 4.714844-3.820313 8.535156-8.53125 8.535156-4.714844 0-8.535157-3.820312-8.535157-8.535156 0-4.710938 3.820313-8.53125 8.535157-8.53125 4.710937 0 8.53125 3.820312 8.53125 8.53125zm0 0"/></g><path d="m349.878906 512.023438h-145.066406c-14.132812-.015626-25.582031-11.46875-25.597656-25.601563v-8.617187c-.011719-6.210938.96875-12.378907 2.898437-18.28125.578125-1.902344 1.257813-3.773438 2.035157-5.601563 9.503906-21.800781 31.015624-35.90625 54.796874-35.9375h8.535157c26.035156.023437 49.457031 15.820313 59.234375 39.949219 1.59375 4.4375-.710938 9.328125-5.148438 10.921875-4.433594 1.59375-9.324218-.707031-10.917968-5.144531-7.355469-17.332032-24.339844-28.609376-43.167969-28.660157h-8.535157c-16.964843.019531-32.316406 10.070313-39.117187 25.613281-.546875 1.292969-1.023437 2.613282-1.433594 3.957032-1.398437 4.253906-2.113281 8.703125-2.113281 13.183594v8.617187c.003906 4.710937 3.820312 8.53125 8.53125 8.535156h145.066406c4.710938-.003906 8.53125-3.824219 8.535156-8.535156v-50.429687c0-4.714844 3.820313-8.535157 8.53125-8.535157 4.714844 0 8.535157 3.820313 8.535157 8.535157v50.429687c-.015625 14.132813-11.46875 25.585937-25.601563 25.601563zm0 0"/><path d="m247.480469 512.023438h-145.066407c-14.140624-.027344-25.59375-11.492188-25.601562-25.632813v-8.550781c.011719-33 26.734375-59.765625 59.734375-59.828125h8.53125c23.757813-.027344 45.265625 14.042969 54.761719 35.820312 1.878906 4.320313-.101563 9.347657-4.421875 11.226563-4.324219 1.882812-9.351563-.097656-11.230469-4.417969-6.785156-15.546875-22.144531-25.589844-39.109375-25.5625h-8.53125c-23.578125.054687-42.664063 19.183594-42.667969 42.761719v8.550781c-.003906 4.71875 3.8125 8.550781 8.535156 8.566406h145.066407c4.710937 0 8.53125 3.820313 8.53125 8.53125 0 4.714844-3.820313 8.535157-8.53125 8.535157zm0 0"/><path d="m42.679688 426.6875c-16.832032.003906-32.089844-9.886719-38.960938-25.25s-4.070312-33.332031 7.152344-45.875c7.234375-8.09375 13.773437-16.789062 19.542968-25.984375 1.585938-2.652344 4.480469-4.238281 7.566407-4.148437 3.085937.089843 5.886719 1.839843 7.316406 4.578124 1.429687 2.734376 1.269531 6.03125-.417969 8.617188-6.277344 10.007812-13.390625 19.472656-21.257812 28.289062-9.398438 10.550782-8.515625 26.710938 1.976562 36.179688 10.679688 9.015625 26.539063 8.144531 36.164063-1.992188 3.269531-3.679687 6.488281-7.480468 9.542969-11.359374 1.863281-2.464844 4.914062-3.730469 7.976562-3.308594 3.0625.425781 5.65625 2.46875 6.78125 5.347656s.605469 6.140625-1.359375 8.527344c-3.257813 4.136718-6.691406 8.195312-10.210937 12.160156-8.105469 9.035156-19.671876 14.207031-31.8125 14.21875zm0 0"/><path d="m409.613281 452.289062c-16.832031.007813-32.097656-9.882812-38.96875-25.246093-6.871093-15.367188-4.066406-33.335938 7.160157-45.878907 28.707031-32.089843 45.511718-73.070312 47.601562-116.074218.324219-4.664063 4.261719-8.242188 8.933594-8.121094 4.707031.222656 8.339844 4.222656 8.113281 8.929688-2.28125 46.914062-20.609375 91.617187-51.914063 126.632812-9.386718 10.554688-8.5 26.703125 1.992188 36.164062 10.679688 9.011719 26.535156 8.136719 36.164062-1.992187 42.011719-47.046875 65.546876-107.722656 66.25-170.792969-.546874-37.398437-9.257812-74.222656-25.523437-107.898437-1.421875-2.761719-1.230469-6.082031.5-8.660157 1.726563-2.582031 4.722656-4.015624 7.820313-3.75 3.09375.265626 5.800781 2.195313 7.0625 5.035157 17.382812 36.050781 26.667968 75.464843 27.207031 115.484375-.753907 67.203125-25.839844 131.855468-70.605469 181.980468-8.109375 9.019532-19.664062 14.175782-31.792969 14.1875zm0 0"/><path d="m398.945312 59.839844c-4.730468.011718-8.578124-3.800782-8.617187-8.53125-.019531-2.253906.859375-4.421875 2.449219-6.027344 1.585937-1.601562 3.746094-2.503906 6-2.507812h.167968c4.714844 0 8.535157 3.820312 8.535157 8.535156 0 4.710937-3.820313 8.53125-8.535157 8.53125zm0 0"/><path d="m118.625 438.378906c-1.726562 0-3.417969-.507812-4.863281-1.460937-87.039063-58.769531-125.492188-167.488281-94.753907-267.914063 30.734376-100.421875 123.449219-168.9960935 228.472657-168.9804685 30.699219-.2890625 61.265625 4.0390625 90.675781 12.8398435 2.96875.855469 5.246094 3.25 5.949219 6.257813.703125 3.007812-.273438 6.164062-2.554688 8.246094-2.28125 2.082031-5.511719 2.769531-8.445312 1.796874-27.777344-8.289062-56.640625-12.359374-85.625-12.074218-97.453125-.011719-183.503907 63.578125-212.101563 156.742187-28.597656 93.164063 6.957032 194.078125 87.632813 248.746094 3.261719 1.980469 4.808593 5.886719 3.789062 9.5625-1.019531 3.671875-4.359375 6.222656-8.175781 6.238281zm0 0"/><path d="m299.269531 472c-4.335937-.007812-7.976562-3.269531-8.460937-7.582031-.484375-4.308594 2.34375-8.296875 6.570312-9.265625 22.992188-5.265625 44.984375-14.195313 65.132813-26.453125 4.308593-2.6875 8.691406-5.578125 12.917969-8.554688 2.488281-1.855469 5.785156-2.210937 8.609374-.933593 2.828126 1.273437 4.738282 3.984374 4.992188 7.074218.253906 3.09375-1.1875 6.078125-3.769531 7.800782-4.488281 3.167968-9.140625 6.242187-13.808594 9.148437-21.734375 13.234375-45.464844 22.871094-70.273437 28.550781-.625.144532-1.265626.21875-1.910157.214844zm0 0"/><path d="m418.761719 117.960938c-3.453125-.003907-6.859375-.785157-9.972657-2.28125l-27.25-13.03125c-11.738281-5.796876-16.789062-19.839844-11.433593-31.785157l6.308593-14.078125c2.582032-5.859375 7.4375-10.417968 13.449219-12.628906 5.847657-2.175781 12.332031-1.867188 17.949219.859375l27.257812 13.023437c11.734376 5.800782 16.777344 19.839844 11.417969 31.78125l-6.292969 14.082032c-2.582031 5.859375-7.4375 10.421875-13.449218 12.628906-2.554688.941406-5.257813 1.425781-7.984375 1.429688zm-2.605469-17.679688c1.472656.707031 3.171875.789062 4.707031.226562 1.683594-.636718 3.039063-1.929687 3.753907-3.582031l6.292968-14.078125c1.636719-3.492187.21875-7.652344-3.207031-9.417968l-27.257813-13.023438c-1.46875-.714844-3.167968-.796875-4.699218-.230469-1.6875.632813-3.042969 1.929688-3.753906 3.585938l-6.308594 14.078125c-1.636719 3.488281-.21875 7.648437 3.210937 9.410156zm0 0"/><path d="m324.0625 81.953125c-5.527344-.003906-10.675781-2.808594-13.675781-7.453125-2.992188-4.511719-3.472657-10.242188-1.273438-15.195312l22.441407-50.121094c2.289062-5.175782 7.242187-8.675782 12.886718-9.1015628 5.910156-.4648432 11.613282 2.2890628 14.925782 7.2070308l32.097656 47.824219c1.636718 2.445313 1.902344 5.5625.695312 8.25-1.203125 2.683594-3.707031 4.5625-6.621094 4.964844 1.757813 2.605469 1.9375 5.972656.46875 8.753906s-4.347656 4.53125-7.496093 4.550781l-54.347657.320313zm22.125-63.667969-21 46.890625 52.074219-.597656zm0 0"/><path d="m324.0625 81.953125c-5.527344-.003906-10.675781-2.808594-13.675781-7.453125-2.992188-4.511719-3.472657-10.242188-1.273438-15.195312l22.441407-50.121094c2.289062-5.175782 7.242187-8.675782 12.886718-9.1015628 5.910156-.4648432 11.613282 2.2890628 14.925782 7.2070308l32.097656 47.824219c1.636718 2.445313 1.902344 5.5625.695312 8.25-1.203125 2.683594-3.707031 4.5625-6.621094 4.964844 1.757813 2.605469 1.9375 5.972656.46875 8.753906s-4.347656 4.53125-7.496093 4.550781l-54.347657.320313zm22.125-63.667969-21 46.890625 52.074219-.597656zm0 0"/><path d="m473.898438 153.628906c-4.910157-.011718-9.550782-2.242187-12.617188-6.074218l-34.941406-43.015626c-1.945313-2.394531-2.449219-5.652343-1.3125-8.519531 1.132812-2.871093 3.730468-4.902343 6.785156-5.316406-1.675781-2.488281-1.925781-5.675781-.652344-8.394531 1.273438-2.71875 3.882813-4.566406 6.871094-4.867188l56.046875-5.671875c5.796875-.558593 11.449219 2.007813 14.847656 6.734375 3.386719 4.582032 4.042969 10.632813 1.71875 15.835938l-22.445312 50.121094c-2.199219 4.929687-6.816407 8.351562-12.175781 9.023437-.703126.09375-1.414063.144531-2.125.144531zm-33.820313-59.242187 33.414063 41.144531 21.042968-46.980469zm0 0"/><path d="m172.898438 220.183594c-3.570313 0-6.761719-2.222656-8.003907-5.570313-1.238281-3.347656-.261719-7.113281 2.445313-9.4375 10.820312-9.308593 14.707031-24.367187 9.746094-37.75-4.964844-13.382812-17.730469-22.261719-32.003907-22.261719-14.273437 0-27.039062 8.878907-32.003906 22.261719-4.964844 13.382813-1.074219 28.441407 9.746094 37.75 3.578125 3.066407 3.988281 8.457031.917969 12.035157-3.070313 3.574218-8.457032 3.988281-12.035157.917968-16.238281-13.957031-22.074219-36.546875-14.632812-56.625 7.441406-20.078125 26.59375-33.402344 48.007812-33.402344 21.414063 0 40.5625 13.324219 48.007813 33.402344 7.441406 20.078125 1.605468 42.667969-14.632813 56.625-1.546875 1.328125-3.519531 2.054688-5.558593 2.054688zm0 0"/><path d="m92.042969 118.441406c6.253906-19.339844 21.539062-34.417968 40.960937-40.40625 9.910156-3.117187 20.507813-3.320312 30.53125-.585937 4.84375 1.191406 9.519532 2.996093 13.910156 5.363281 4.1875 2.433594 8.15625 5.21875 11.867188 8.332031 1.140625.910157 1.515625 2.480469.90625 3.808594-.609375 1.324219-2.042969 2.066406-3.476562 1.792969l-.566407-.113282c-4.519531-.867187-8.597656-2.398437-12.777343-3.273437-4.0625-.894531-8.175782-1.515625-12.320313-1.847656-7.851563-.824219-15.785156-.039063-23.324219 2.300781-15.75 5.824219-30.082031 14.933594-42.039062 26.726562l-.15625.136719c-.894532.792969-2.269532.710938-3.0625-.1875-.488282-.5625-.660156-1.332031-.453125-2.046875zm0 0"/><path d="m330.976562 120.539062c-11.957031-11.789062-26.289062-20.902343-42.042968-26.722656-7.535156-2.34375-15.472656-3.128906-23.320313-2.304687-4.144531.335937-8.261719.953125-12.320312 1.847656-4.179688.878906-8.257813 2.40625-12.777344 3.277344l-.5625.105469c-1.433594.277343-2.871094-.460938-3.484375-1.789063-.609375-1.328125-.234375-2.898437.910156-3.808594 3.710938-3.113281 7.679688-5.898437 11.867188-8.332031 4.390625-2.367188 9.0625-4.167969 13.910156-5.363281 10.023438-2.734375 20.621094-2.53125 30.53125.585937 19.421875 5.992188 34.707031 21.066406 40.960938 40.40625.273437.925782-.101563 1.917969-.914063 2.4375-.808594.519532-1.867187.441406-2.59375-.191406zm0 0"/><path d="m309.4375 220.183594c-3.730469 0-7.03125-2.421875-8.148438-5.980469-1.117187-3.558594.210938-7.433594 3.273438-9.5625.433594-.347656.839844-.726563 1.210938-1.140625 13.292968-13.378906 13.300781-34.972656.015624-48.359375-13.511718-12.964844-34.839843-12.964844-48.351562-.003906-13.277344 13.378906-13.277344 34.964843 0 48.34375.375.417969.785156.808593 1.226562 1.160156 3.753907 2.726563 4.640626 7.960937 1.992188 11.773437-2.644531 3.8125-7.855469 4.808594-11.726562 2.242188-1.28125-.929688-2.480469-1.976562-3.574219-3.125-19.949219-20.015625-19.914063-52.410156.082031-72.375 19.996094-19.96875 52.390625-19.960938 72.378906.019531 19.984375 19.980469 20.003906 52.375.039063 72.375-1.089844 1.140625-2.28125 2.179688-3.558594 3.105469-1.425781.992188-3.121094 1.527344-4.859375 1.527344zm0 0"/><path d="m187.746094 230.421875c-2.261719.003906-4.433594-.894531-6.03125-2.5-10.105469-9.035156-23.085938-14.199219-36.636719-14.566406-13.5625.289062-26.570313 5.460937-36.632813 14.566406-3.347656 3.234375-8.667968 3.1875-11.960937-.101563-3.292969-3.292968-3.339844-8.617187-.105469-11.964843 13.289063-12.269531 30.617188-19.234375 48.699219-19.566407 18.085937.332032 35.414063 7.296876 48.703125 19.566407 2.4375 2.441406 3.167969 6.109375 1.847656 9.300781-1.320312 3.1875-4.429687 5.265625-7.882812 5.265625zm0 0"/><path d="m324.28125 230.421875c-2.265625.003906-4.4375-.894531-6.035156-2.5-10.101563-9.035156-23.082032-14.199219-36.632813-14.566406-13.566406.289062-26.574219 5.460937-36.632812 14.566406-3.347657 3.234375-8.671875 3.1875-11.964844-.101563-3.289063-3.292968-3.335937-8.617187-.101563-11.964843 27.226563-26.089844 70.171876-26.089844 97.398438 0 2.441406 2.441406 3.171875 6.109375 1.847656 9.300781-1.320312 3.1875-4.429687 5.265625-7.878906 5.265625zm0 0"/><path d="m213.328125 366.957031c-12.671875-.007812-24.300781-7.035156-30.195313-18.253906-5.898437-11.214844-5.097656-24.777344 2.082032-35.222656.40625-.59375.832031-1.175781 1.273437-1.738281-13.480469-8.070313-19.707031-24.304688-15.082031-39.324219 4.625-15.015625 18.90625-24.933594 34.59375-24.023438 15.6875.910157 28.722656 12.414063 31.582031 27.867188.859375 4.632812-2.203125 9.085937-6.839843 9.945312-4.632813.855469-9.085938-2.203125-9.945313-6.839843-1.257813-6.785157-6.480469-12.148438-13.230469-13.585938-6.753906-1.433594-13.707031 1.339844-17.617187 7.027344-3.90625 5.691406-4.003907 13.175781-.242188 18.964844 3.757813 5.789062 10.636719 8.742187 17.425781 7.484374 4.632813-.855468 9.082032 2.207032 9.941407 6.839844.09375.515625.144531 1.039063.140625 1.5625-.007813 4.109375-2.941406 7.628906-6.984375 8.378906-9.265625 1.71875-15.386719 10.625-13.667969 19.890626 1.714844 9.269531 10.621094 15.390624 19.890625 13.671874 9.265625-1.71875 15.386719-10.625 13.671875-19.890624-.859375-4.636719 2.199219-9.089844 6.835938-9.945313 4.632812-.859375 9.085937 2.203125 9.945312 6.835937 1.84375 9.972657-.84375 20.25-7.332031 28.046876-6.484375 7.796874-16.101563 12.304687-26.246094 12.308593zm0 0"/><path d="m120.9375 347.648438c-1.222656 0-2.429688-.261719-3.539062-.769532l-44.652344-20.410156c-8.15625-3.6875-14.46875-10.53125-17.480469-18.960938-3.015625-8.425781-2.476563-17.71875 1.496094-25.742187 6.824219-13.730469 21.839843-21.363281 36.957031-18.789063 10.046875-11.574218 26.496094-15.191406 40.472656-8.902343 8.164063 3.679687 14.480469 10.519531 17.5 18.949219 3.019532 8.429687 2.480469 17.726562-1.492187 25.75l-21.589844 44.089843c-1.433594 2.929688-4.410156 4.785157-7.671875 4.785157zm-33.125-68.121094c-6.664062-.007813-12.753906 3.769531-15.714844 9.742187-1.949218 3.882813-2.226562 8.398438-.761718 12.492188 1.460937 4.09375 4.53125 7.410156 8.503906 9.179687l37.097656 16.957032 17.925781-36.621094c1.949219-3.886719 2.222657-8.402344.761719-12.496094-1.464844-4.097656-4.539062-7.414062-8.511719-9.183594-8.257812-3.71875-17.988281-.535156-22.449219 7.347656-2.089843 3.710938-6.589843 5.316407-10.558593 3.769532-2.003907-.785156-4.140625-1.1875-6.292969-1.1875zm0 0"/><path d="m145.078125 145.089844c-5.492187.25-10.945313 1.085937-16.261719 2.496094-5.355468 1.421874-10.496094 3.5625-15.273437 6.371093-2.378907 1.464844-4.640625 3.109375-6.769531 4.921875-3.117188 2.824219-6.847657 4.886719-10.894532 6.035156-4.296875 1.15625-8.867187.753907-12.902344-1.132812-3.582031-1.765625-6.546874-4.570312-8.511718-8.046875-.671875-1.199219-.507813-2.691406.414062-3.710937.917969-1.023438 2.390625-1.339844 3.648438-.792969l.640625.28125c3.964843 2.269531 8.695312 2.785156 13.054687 1.421875 1.957032-.914063 3.6875-2.242188 5.078125-3.894532 2.414063-2.609374 5.023438-5.027343 7.800781-7.238281 5.730469-4.289062 12.109376-7.632812 18.898438-9.90625 6.789062-2.34375 13.898438-3.652343 21.078125-3.871093 4.613281-.003907 8.390625 3.660156 8.535156 8.265624.144531 4.609376-3.402343 8.5-8.003906 8.785157h-.003906zm0 0"/><path d="m281.613281 128.023438c7.207031.035156 14.359375 1.242187 21.179688 3.570312 6.851562 2.203125 13.269531 5.570312 18.976562 9.953125 2.789063 2.226563 5.402344 4.664063 7.820313 7.289063 1.390625 1.609374 3.054687 2.957031 4.914062 3.992187 4.402344 1.851563 9.414063 1.539063 13.554688-.839844l.433594-.195312c.976562-.441407 2.121093-.207031 2.851562.578125.726562.785156.871094 1.949218.359375 2.886718-1.835937 3.464844-4.660156 6.300782-8.113281 8.15625-3.941406 2.035157-8.480469 2.605469-12.804688 1.605469-4.125-1.027343-7.921875-3.070312-11.054687-5.9375-2.121094-1.796875-4.378907-3.425781-6.753907-4.871093-4.792968-2.707032-9.890624-4.832032-15.1875-6.324219-5.296874-1.414063-10.710937-2.351563-16.175781-2.796875l-.632812-.042969c-4.601563-.300781-8.125-4.210937-7.953125-8.820313.167968-4.605468 3.976562-8.242187 8.585937-8.203124zm0 0"/></svg>