<svg height="512pt" viewBox="0 0 512.01331 512" width="512pt" xmlns="http://www.w3.org/2000/svg"><path d="m78.007812 395.015625c-3.15625 4.007813-6.484374 7.933594-9.898437 11.773437-12.605469 13.949219-34.113281 15.082032-48.113281 2.535157-14.003906-12.542969-15.230469-34.046875-2.746094-48.101563 7.550781-8.453125 14.375-17.53125 20.394531-27.136718zm0 0" fill="#ff9801"/><path d="m247.480469 8.539062c-101.273438-.015624-190.675781 66.109376-220.316407 162.949219-29.636718 96.835938 7.445313 201.675781 91.378907 258.34375h.082031l69.121094 48.042969v8.53125c.027344 9.414062 7.652344 17.039062 17.066406 17.066406h145.066406c9.414063-.027344 17.039063-7.652344 17.066406-17.066406v-50.429688c.769532-.515624 1.539063-.941406 2.304688-1.453124 3.753906-2.390626 7.511719-4.863282 11.09375-7.421876.011719.089844.039062.175782.085938.253907 1.058593 2.222656 2.566406 4.199219 4.4375 5.804687.597656.597656 1.28125 1.277344 1.960937 1.875 1.257813 1.097656 2.601563 2.097656 4.011719 2.988282.6875.5625 1.429687 1.046874 2.21875 1.449218.800781.449219 1.625.847656 2.476562 1.195313.6875.335937 1.402344.621093 2.132813.851562 1.109375.429688 2.21875.769531 3.328125 1.109375 2.808594.753906 5.707031 1.125 8.617187 1.109375 9.707031.015625 18.957031-4.113281 25.429688-11.347656 43.40625-48.574219 67.722656-111.242187 68.4375-176.382813 1.023437-76.800781-51.199219-247.46875-256-247.46875zm0 0" fill="#f0c419"/><path d="m503.480469 256.007812c-.714844 65.140626-25.03125 127.808594-68.4375 176.382813-6.472657 7.234375-15.722657 11.363281-25.429688 11.347656-2.910156.015625-5.808593-.355469-8.617187-1.109375-1.109375-.339844-2.21875-.679687-3.328125-1.109375-.730469-.230469-1.445313-.515625-2.132813-.851562-.851562-.347657-1.675781-.746094-2.476562-1.195313-.789063-.402344-1.53125-.886718-2.21875-1.449218-1.410156-.890626-2.753906-1.890626-4.011719-2.988282-.679687-.597656-1.363281-1.277344-1.960937-1.875-1.871094-1.605468-3.378907-3.582031-4.4375-5.804687-.046876-.078125-.074219-.164063-.085938-.253907-3.582031 2.558594-7.339844 5.03125-11.09375 7.421876-.765625.511718-1.535156.9375-2.304688 1.453124-20.9375 12.726563-43.785156 22.003907-67.667968 27.476563h-.257813l-.339843-2.644531c-8.613282-20.695313-28.785157-34.210938-51.199219-34.304688h-8.535157c-20.351562.027344-38.761718 12.078125-46.933593 30.71875-.683594 1.617188-1.28125 3.269532-1.789063 4.949219-1.652344 5.039063-2.488281 10.3125-2.476562 15.617187v.085938l-69.121094-48.042969h-.082031c-83.933594-56.667969-121.015625-161.507812-91.378907-258.34375 29.640626-96.839843 119.042969-162.964843 220.316407-162.949219 204.800781 0 257.023437 170.667969 256 247.46875zm0 0" fill="#ffdc00"/><path d="m380.34375 427.101562c-3.582031 2.558594-7.339844 5.03125-11.09375 7.421876-13.523438-12.691407-14.46875-33.851563-2.132812-47.699219 26.3125-29.355469 43.144531-65.972657 48.292968-105.054688 1.203125-9.3125 9.132813-16.285156 18.523438-16.289062-2.132813 44.964843-19.703125 87.820312-49.75 121.34375-9.945313 11.140625-11.5 27.453125-3.839844 40.277343zm0 0" fill="#fec108"/><path d="m192.011719 457.222656c-8.148438-18.652344-26.578125-30.703125-46.933594-30.695312h-8.53125c-28.296875.046875-51.207031 23-51.199219 51.296875v8.550781c.019532 9.421875 7.640625 17.0625 17.066406 17.097656h145.066407zm0 0" fill="#3f51b5"/><path d="m366.945312 435.976562v50.429688c-.027343 9.414062-7.652343 17.039062-17.066406 17.066406h-145.066406c-9.414062-.027344-17.039062-7.652344-17.066406-17.066406v-8.617188c-.011719-5.304687.824218-10.578124 2.476562-15.617187.507813-1.679687 1.105469-3.332031 1.789063-4.949219 8.171875-18.640625 26.582031-30.691406 46.933593-30.71875h8.535157c22.414062.09375 42.585937 13.609375 51.199219 34.304688l.597656 2.644531c23.882812-5.472656 46.730468-14.75 67.667968-27.476563zm0 0" fill="#3f51b5"/><path d="m380.429688 427.355469c1.300781 2.066406 2.785156 4.007812 4.4375 5.804687-1.871094-1.605468-3.378907-3.582031-4.4375-5.804687zm0 0" fill="#f0c419"/><path d="m366.945312 435.976562v17.066407c-15.941406 9.6875-33.007812 17.390625-50.820312 22.933593-3.960938 1.199219-8.257812.449219-11.578125-2.019531s-5.277344-6.367187-5.269531-10.503906c23.882812-5.472656 46.730468-14.75 67.667968-27.476563zm0 0" fill="#283593"/><path d="m503.480469 256.007812c-.714844 65.140626-25.03125 127.808594-68.4375 176.382813-6.472657 7.234375-15.722657 11.363281-25.429688 11.347656-2.910156.015625-5.808593-.355469-8.617187-1.109375-1.109375-.339844-2.21875-.679687-3.328125-1.109375-.304688-.058593-.59375-.175781-.855469-.339843 4.851562-1.878907 9.183594-4.894532 12.628906-8.789063 43.410156-48.574219 67.726563-111.242187 68.4375-176.382813 1.023438-74.921874-48.722656-239.277343-241.492187-247.125 3.667969-.257812 7.339843-.34375 11.09375-.34375 204.800781 0 257.023437 170.667969 256 247.46875zm0 0" fill="#fec108"/><path d="m366.945312 435.976562v50.429688c-.027343 9.414062-7.652343 17.039062-17.066406 17.066406h-25.597656c9.414062-.027344 17.039062-7.652344 17.066406-17.066406v-37.035156c8.808594-3.917969 17.359375-8.394532 25.597656-13.394532zm0 0" fill="#283593"/><path d="m349.878906 512.007812h-145.066406c-14.132812-.015624-25.582031-11.46875-25.597656-25.601562v-8.617188c-.011719-6.210937.96875-12.378906 2.898437-18.28125.578125-1.902343 1.257813-3.773437 2.035157-5.601562 9.503906-21.800781 31.015624-35.910156 54.796874-35.9375h8.535157c26.035156.019531 49.457031 15.820312 59.234375 39.949219 1.59375 4.4375-.710938 9.328125-5.148438 10.921875-4.433594 1.59375-9.324218-.707032-10.917968-5.144532-7.355469-17.332031-24.339844-28.609374-43.167969-28.660156h-8.535157c-16.964843.019532-32.316406 10.070313-39.117187 25.613282-.546875 1.292968-1.023437 2.613281-1.433594 3.957031-1.398437 4.253906-2.113281 8.703125-2.113281 13.183593v8.617188c.003906 4.710938 3.820312 8.53125 8.53125 8.535156h145.066406c4.710938-.003906 8.53125-3.824218 8.535156-8.535156v-50.429688c0-4.714843 3.820313-8.535156 8.53125-8.535156 4.714844 0 8.535157 3.820313 8.535157 8.535156v50.429688c-.015625 14.132812-11.46875 25.585938-25.601563 25.601562zm0 0"/><path d="m247.480469 512.007812h-145.066407c-14.140624-.027343-25.59375-11.492187-25.601562-25.632812v-8.550781c.011719-33 26.734375-59.765625 59.734375-59.832031h8.53125c23.757813-.023438 45.265625 14.046874 54.761719 35.824218 1.878906 4.320313-.101563 9.347656-4.421875 11.226563-4.324219 1.882812-9.351563-.097657-11.230469-4.417969-6.785156-15.546875-22.144531-25.589844-39.109375-25.5625h-8.53125c-23.578125.050781-42.664063 19.179688-42.667969 42.761719v8.550781c-.003906 4.71875 3.8125 8.550781 8.535156 8.566406h145.066407c4.710937 0 8.53125 3.820313 8.53125 8.53125 0 4.714844-3.820313 8.535156-8.53125 8.535156zm0 0"/><path d="m42.679688 426.671875c-16.832032.003906-32.089844-9.886719-38.960938-25.25s-4.070312-33.332031 7.152344-45.875c7.234375-8.09375 13.773437-16.789063 19.542968-25.984375 1.585938-2.652344 4.480469-4.238281 7.566407-4.148438 3.085937.089844 5.886719 1.839844 7.316406 4.578126 1.429687 2.734374 1.269531 6.03125-.417969 8.617187-6.277344 10.007813-13.390625 19.472656-21.257812 28.285156-9.398438 10.554688-8.515625 26.714844 1.976562 36.183594 10.679688 9.015625 26.539063 8.140625 36.164063-1.992187 3.269531-3.679688 6.488281-7.480469 9.542969-11.359376 1.863281-2.464843 4.914062-3.730468 7.976562-3.308593 3.0625.425781 5.65625 2.46875 6.78125 5.347656s.605469 6.140625-1.359375 8.527344c-3.257813 4.136719-6.691406 8.191406-10.210937 12.160156-8.105469 9.035156-19.671876 14.207031-31.8125 14.21875zm0 0"/><path d="m409.613281 452.273438c-16.832031.007812-32.097656-9.882813-38.96875-25.25-6.871093-15.363282-4.066406-33.335938 7.160157-45.875 28.707031-32.089844 45.511718-73.070313 47.601562-116.074219.269531-4.6875 4.242188-8.296875 8.933594-8.121094 4.707031.222656 8.339844 4.222656 8.113281 8.929687-2.28125 46.914063-20.609375 91.617188-51.914063 126.632813-9.386718 10.554687-8.5 26.703125 1.992188 36.164063 10.679688 9.011718 26.535156 8.136718 36.164062-1.992188 42.003907-47.050781 65.539063-107.726562 66.25-170.792969-1.121093-63.945312-26.054687-125.171875-69.921874-171.710937-43.945313-44.53125-103.675782-67.109375-177.542969-67.109375-97.457031-.015625-183.507813 63.578125-212.101563 156.742187-28.597656 93.164063 6.960938 194.082032 87.640625 248.746094 3.257813 1.980469 4.800781 5.886719 3.78125 9.5625-1.023437 3.671875-4.359375 6.222656-8.175781 6.238281h-.082031c-1.703125 0-3.367188-.507812-4.777344-1.460937-87.039063-58.769532-125.492187-167.488282-94.753906-267.910156 30.734375-100.425782 123.445312-169.0000005 228.46875-168.9843755 78.597656 0 142.421875 24.2851565 189.695312 72.1914065 47.367188 49.597656 74.117188 115.339843 74.835938 183.921875-.765625 67.195312-25.847657 131.839844-70.605469 181.964844-8.109375 9.019531-19.664062 14.175781-31.792969 14.1875zm0 0"/><path d="m299.269531 471.984375c-4.335937-.007813-7.976562-3.269531-8.460937-7.582031-.484375-4.308594 2.34375-8.296875 6.570312-9.269532 22.992188-5.261718 44.984375-14.191406 65.132813-26.453124 4.308593-2.683594 8.691406-5.574219 12.917969-8.554688 2.488281-1.851562 5.785156-2.207031 8.609374-.929688 2.828126 1.273438 4.738282 3.984376 4.992188 7.074219.253906 3.09375-1.1875 6.078125-3.769531 7.796875-4.488281 3.171875-9.140625 6.246094-13.808594 9.152344-21.734375 13.230469-45.464844 22.871094-70.273437 28.550781-.625.144531-1.265626.21875-1.910157.214844zm0 0"/><path d="m187.746094 204.808594c-2.261719 0-4.433594-.902344-6.03125-2.503906-10.105469-9.035157-23.085938-14.195313-36.636719-14.566407-13.5625.289063-26.570313 5.460938-36.632813 14.566407-3.347656 3.234374-8.667968 3.1875-11.960937-.101563-3.292969-3.292969-3.339844-8.613281-.105469-11.960937 13.289063-12.273438 30.617188-19.234376 48.699219-19.570313 6.507813.011719 12.980469.957031 19.21875 2.816406-5.972656-5.644531-13.304687-9.640625-21.285156-11.605469-4.480469-1.21875-7.164063-5.796874-6.039063-10.300781 1.125-4.503906 5.648438-7.28125 10.175782-6.253906 23.734374 6.59375 42.28125 25.140625 48.875 48.875.640624 2.546875.070312 5.25-1.546876 7.324219-1.617187 2.070312-4.101562 3.28125-6.730468 3.28125zm0 0"/><path d="m238.945312 204.808594c-2.628906 0-5.109374-1.210938-6.726562-3.28125-1.617188-2.074219-2.191406-4.777344-1.550781-7.324219 6.597656-23.734375 25.144531-42.28125 48.878906-48.875 4.527344-1.027344 9.046875 1.75 10.171875 6.253906 1.125 4.503907-1.558594 9.082031-6.039062 10.300781-7.976563 1.964844-15.304688 5.964844-21.273438 11.605469 6.234375-1.855469 12.703125-2.804687 19.207031-2.816406 18.082031.335937 35.414063 7.296875 48.699219 19.570313 3.339844 3.324218 3.347656 8.730468.019531 12.070312-3.324219 3.335938-8.730469 3.347656-12.070312.019531-10.101563-9.050781-23.089844-14.222656-36.648438-14.59375-13.566406.289063-26.574219 5.460938-36.632812 14.566407-1.601563 1.601562-3.769531 2.503906-6.035157 2.503906zm0 0"/><path d="m181.394531 68.960938c-1.125 9.382812-4.996093 18.21875-11.121093 25.414062-6.09375 7.4375-13.917969 13.273438-22.785157 16.996094-8.753906 3.617187-18.160156 5.382812-27.625 5.183594-4.582031-.113282-9.148437-.601563-13.648437-1.460938-4.378906-1.078125-8.683594-2.4375-12.886719-4.070312-1.359375-.53125-2.195313-1.914063-2.023437-3.363282.167968-1.453125 1.292968-2.605468 2.742187-2.808594l.386719-.054687c4.316406-.597656 8.460937-.707031 12.546875-.972656 4.054687-.640625 8.085937-.757813 11.949219-1.511719 7.570312-1.199219 14.984374-3.242188 22.097656-6.097656 6.898437-3.058594 13.378906-6.988282 19.285156-11.691406 6.253906-5.054688 11.980469-10.730469 17.089844-16.941407l.195312-.234375c.609375-.722656 1.625-.964844 2.496094-.597656.875.371094 1.40625 1.265625 1.3125 2.207031zm0 0"/><path d="m249.480469 67.585938c5.109375 6.210937 10.835937 11.886718 17.09375 16.941406 5.902343 4.703125 12.378906 8.632812 19.28125 11.691406 7.113281 2.851562 14.523437 4.898438 22.09375 6.097656 3.867187.75 7.898437.871094 11.953125 1.507813 4.078125.269531 8.222656.375 12.542968.976562l.382813.050781c1.449219.203126 2.578125 1.359376 2.746094 2.808594.171875 1.453125-.660157 2.835938-2.023438 3.367188-4.203125 1.628906-8.507812 2.992187-12.886719 4.070312-4.5.859375-9.0625 1.347656-13.644531 1.460938-9.46875.199218-18.875-1.566406-27.628906-5.183594-8.867187-3.722656-16.691406-9.558594-22.785156-17-6.125-7.191406-9.992188-16.03125-11.121094-25.410156-.09375-.941406.433594-1.835938 1.304687-2.207032.867188-.371093 1.878907-.132812 2.492188.585938zm0 0"/><path d="m281.613281 315.738281c-4.710937 0-8.535156-3.820312-8.535156-8.53125-.011719-14.132812-11.464844-25.585937-25.597656-25.601562h-68.265625c-14.132813.015625-25.585938 11.46875-25.601563 25.601562 0 4.710938-3.820312 8.53125-8.535156 8.53125-4.710937 0-8.53125-3.820312-8.53125-8.53125.027344-23.554687 19.113281-42.640625 42.667969-42.667969h68.265625c23.550781.027344 42.636719 19.113282 42.667969 42.667969 0 4.710938-3.824219 8.53125-8.535157 8.53125zm0 0"/><path d="m213.347656 315.738281h-8.535156c-4.710938 0-8.53125-3.820312-8.53125-8.53125 0-4.714843 3.820312-8.535156 8.53125-8.535156h8.535156c4.710938 0 8.53125 3.820313 8.53125 8.535156 0 4.710938-3.820312 8.53125-8.53125 8.53125zm0 0"/></svg>