<svg height="512pt" viewBox="0 0 512.01331 512" width="512pt" xmlns="http://www.w3.org/2000/svg"><path d="m78.007812 395.015625c-3.15625 4.007813-6.484374 7.933594-9.898437 11.773437-12.605469 13.949219-34.113281 15.082032-48.113281 2.535157-14.003906-12.542969-15.230469-34.046875-2.746094-48.101563 7.550781-8.453125 14.375-17.53125 20.394531-27.136718zm0 0" fill="#ff9801"/><path d="m247.480469 8.539062c-101.273438-.015624-190.675781 66.109376-220.316407 162.949219-29.636718 96.835938 7.445313 201.675781 91.378907 258.34375h.082031l69.121094 48.042969v8.53125c.027344 9.414062 7.652344 17.039062 17.066406 17.066406h145.066406c9.414063-.027344 17.039063-7.652344 17.066406-17.066406v-50.429688c.769532-.515624 1.539063-.941406 2.304688-1.453124 3.753906-2.390626 7.511719-4.863282 11.09375-7.421876.011719.089844.039062.175782.085938.253907 1.058593 2.222656 2.566406 4.199219 4.4375 5.804687.597656.597656 1.28125 1.277344 1.960937 1.875 1.257813 1.097656 2.601563 2.097656 4.011719 2.988282.6875.5625 1.429687 1.046874 2.21875 1.449218.800781.449219 1.625.847656 2.476562 1.195313.6875.335937 1.402344.621093 2.132813.851562 1.109375.429688 2.21875.769531 3.328125 1.109375 2.808594.753906 5.707031 1.125 8.617187 1.109375 9.707031.015625 18.957031-4.113281 25.429688-11.347656 43.40625-48.574219 67.722656-111.242187 68.4375-176.382813 1.023437-76.800781-51.199219-247.46875-256-247.46875zm0 0" fill="#f0c419"/><path d="m503.480469 256.007812c-.714844 65.140626-25.03125 127.808594-68.4375 176.382813-6.472657 7.234375-15.722657 11.363281-25.429688 11.347656-2.910156.015625-5.808593-.355469-8.617187-1.109375-1.109375-.339844-2.21875-.679687-3.328125-1.109375-.730469-.230469-1.445313-.515625-2.132813-.851562-.851562-.347657-1.675781-.746094-2.476562-1.195313-.789063-.402344-1.53125-.886718-2.21875-1.449218-1.410156-.890626-2.753906-1.890626-4.011719-2.988282-.679687-.597656-1.363281-1.277344-1.960937-1.875-1.871094-1.605468-3.378907-3.582031-4.4375-5.804687-.046876-.078125-.074219-.164063-.085938-.253907-3.582031 2.558594-7.339844 5.03125-11.09375 7.421876-.765625.511718-1.535156.9375-2.304688 1.453124-20.9375 12.726563-43.785156 22.003907-67.667968 27.476563h-.257813l-.339843-2.644531c-8.613282-20.695313-28.785157-34.210938-51.199219-34.304688h-8.535157c-20.351562.027344-38.761718 12.078125-46.933593 30.71875-.683594 1.617188-1.28125 3.269532-1.789063 4.949219-1.652344 5.039063-2.488281 10.3125-2.476562 15.617187v.085938l-69.121094-48.042969h-.082031c-83.933594-56.667969-121.015625-161.507812-91.378907-258.34375 29.640626-96.839843 119.042969-162.964843 220.316407-162.949219 204.800781 0 257.023437 170.667969 256 247.46875zm0 0" fill="#ffdc00"/><path d="m380.34375 427.101562c-3.582031 2.558594-7.339844 5.03125-11.09375 7.421876-13.523438-12.691407-14.46875-33.851563-2.132812-47.699219 26.3125-29.355469 43.144531-65.972657 48.292968-105.054688 1.203125-9.3125 9.132813-16.285156 18.523438-16.289062-2.132813 44.964843-19.703125 87.820312-49.75 121.34375-9.945313 11.140625-11.5 27.453125-3.839844 40.277343zm0 0" fill="#fec108"/><path d="m192.011719 457.222656c-8.148438-18.652344-26.578125-30.703125-46.933594-30.695312h-8.53125c-28.296875.046875-51.207031 23-51.199219 51.296875v8.550781c.019532 9.421875 7.640625 17.0625 17.066406 17.097656h145.066407zm0 0" fill="#3f51b5"/><path d="m366.945312 435.976562v50.429688c-.027343 9.414062-7.652343 17.039062-17.066406 17.066406h-145.066406c-9.414062-.027344-17.039062-7.652344-17.066406-17.066406v-8.617188c-.011719-5.304687.824218-10.578124 2.476562-15.617187.507813-1.679687 1.105469-3.332031 1.789063-4.949219 8.171875-18.640625 26.582031-30.691406 46.933593-30.71875h8.535157c22.414062.09375 42.585937 13.609375 51.199219 34.304688l.597656 2.644531c23.882812-5.472656 46.730468-14.75 67.667968-27.476563zm0 0" fill="#3f51b5"/><path d="m380.429688 427.355469c1.300781 2.066406 2.785156 4.007812 4.4375 5.804687-1.871094-1.605468-3.378907-3.582031-4.4375-5.804687zm0 0" fill="#f0c419"/><path d="m366.945312 435.976562v17.066407c-15.941406 9.6875-33.007812 17.390625-50.820312 22.933593-3.960938 1.199219-8.257812.449219-11.578125-2.019531s-5.277344-6.367187-5.269531-10.503906c23.882812-5.472656 46.730468-14.75 67.667968-27.476563zm0 0" fill="#283593"/><path d="m503.480469 256.007812c-.714844 65.140626-25.03125 127.808594-68.4375 176.382813-6.472657 7.234375-15.722657 11.363281-25.429688 11.347656-2.910156.015625-5.808593-.355469-8.617187-1.109375-1.109375-.339844-2.21875-.679687-3.328125-1.109375-.304688-.058593-.59375-.175781-.855469-.339843 4.851562-1.878907 9.183594-4.894532 12.628906-8.789063 43.410156-48.574219 67.726563-111.242187 68.4375-176.382813 1.023438-74.921874-48.722656-239.277343-241.492187-247.125 3.667969-.257812 7.339843-.34375 11.09375-.34375 204.800781 0 257.023437 170.667969 256 247.46875zm0 0" fill="#fec108"/><path d="m366.945312 435.976562v50.429688c-.027343 9.414062-7.652343 17.039062-17.066406 17.066406h-25.597656c9.414062-.027344 17.039062-7.652344 17.066406-17.066406v-37.035156c8.808594-3.917969 17.359375-8.394532 25.597656-13.394532zm0 0" fill="#283593"/><path d="m503.480469 51.207031c0 23.550781-110.761719 42.667969-247.46875 42.667969-136.703125 0-247.464844-19.117188-247.464844-42.667969 0-22.785156 103.9375-41.472656 234.75-42.582031-47.382813.722656-93.371094 16.171875-131.582031 44.203125 96.351562 7.84375 193.183594 7.84375 289.535156 0-36.605469-25.769531-84.992188-43.265625-148.480469-44.289063h3.242188c136.707031 0 247.46875 19.117188 247.46875 42.667969zm0 0" fill="#ffeb3a"/><path d="m349.878906 512.007812h-145.066406c-14.132812-.015624-25.582031-11.46875-25.597656-25.601562v-8.617188c-.011719-6.210937.96875-12.378906 2.898437-18.28125.578125-1.902343 1.257813-3.773437 2.035157-5.601562 9.503906-21.800781 31.015624-35.910156 54.796874-35.9375h8.535157c26.035156.019531 49.457031 15.820312 59.234375 39.949219 1.59375 4.4375-.710938 9.328125-5.148438 10.921875-4.433594 1.59375-9.324218-.707032-10.917968-5.144532-7.355469-17.332031-24.339844-28.609374-43.167969-28.660156h-8.535157c-16.964843.019532-32.316406 10.070313-39.117187 25.613282-.546875 1.292968-1.023437 2.613281-1.433594 3.957031-1.398437 4.253906-2.113281 8.703125-2.113281 13.183593v8.617188c.003906 4.710938 3.820312 8.53125 8.53125 8.535156h145.066406c4.710938-.003906 8.53125-3.824218 8.535156-8.535156v-50.429688c0-4.714843 3.820313-8.535156 8.53125-8.535156 4.714844 0 8.535157 3.820313 8.535157 8.535156v50.429688c-.015625 14.132812-11.46875 25.585938-25.601563 25.601562zm0 0"/><path d="m247.480469 512.007812h-145.066407c-14.140624-.027343-25.59375-11.492187-25.601562-25.632812v-8.550781c.011719-33 26.734375-59.765625 59.734375-59.832031h8.53125c23.757813-.023438 45.265625 14.046874 54.761719 35.824218 1.878906 4.320313-.101563 9.347656-4.421875 11.226563-4.324219 1.882812-9.351563-.097657-11.230469-4.417969-6.785156-15.546875-22.144531-25.589844-39.109375-25.5625h-8.53125c-23.578125.050781-42.664063 19.179688-42.667969 42.761719v8.550781c-.003906 4.71875 3.8125 8.550781 8.535156 8.566406h145.066407c4.710937 0 8.53125 3.820313 8.53125 8.53125 0 4.714844-3.820313 8.535156-8.53125 8.535156zm0 0"/><path d="m42.679688 426.671875c-16.832032.003906-32.089844-9.886719-38.960938-25.25s-4.070312-33.332031 7.152344-45.875c7.234375-8.09375 13.773437-16.789063 19.542968-25.984375 1.585938-2.652344 4.480469-4.238281 7.566407-4.148438 3.085937.089844 5.886719 1.839844 7.316406 4.578126 1.429687 2.734374 1.269531 6.03125-.417969 8.617187-6.277344 10.007813-13.390625 19.472656-21.257812 28.285156-9.398438 10.554688-8.515625 26.714844 1.976562 36.183594 10.679688 9.015625 26.539063 8.140625 36.164063-1.992187 3.269531-3.679688 6.488281-7.480469 9.542969-11.359376 1.863281-2.464843 4.914062-3.730468 7.976562-3.308593 3.0625.425781 5.65625 2.46875 6.78125 5.347656s.605469 6.140625-1.359375 8.527344c-3.257813 4.136719-6.691406 8.191406-10.210937 12.160156-8.105469 9.035156-19.671876 14.207031-31.8125 14.21875zm0 0"/><path d="m401.238281 61.359375c-1.753906.003906-3.464843-.539063-4.898437-1.550781-39.257813-27.601563-87.859375-41.976563-144.453125-42.734375h-4.40625c-.371094-.023438-.742188-.015625-1.109375.019531-.300782.035156-.726563.0625-1.023438.0625h-2.050781c-45.574219.703125-89.800781 15.578125-126.542969 42.554688-2.457031 1.855468-5.71875 2.242187-8.542968 1.015624-2.824219-1.226562-4.765626-3.878906-5.085938-6.941406-.316406-3.0625 1.035156-6.058594 3.546875-7.839844 39.625-29.089843 87.324219-45.117187 136.476563-45.851562h1.78125c.855468-.0742188 1.742187-.0859375 2.550781-.0859375h4.523437c60.203125.8007815 112.027344 16.2265625 154.152344 45.8398435 3.042969 2.140625 4.347656 6.011719 3.222656 9.558594s-4.417968 5.957031-8.140625 5.953125zm0 0"/><path d="m409.613281 452.273438c-16.832031.003906-32.089843-9.886719-38.960937-25.25-6.871094-15.367188-4.070313-33.332032 7.152344-45.875 28.707031-32.089844 45.511718-73.070313 47.601562-116.074219.308594-4.667969 4.257812-8.253907 8.933594-8.121094 4.707031.222656 8.339844 4.222656 8.113281 8.929687-2.28125 46.914063-20.609375 91.617188-51.914063 126.632813-9.386718 10.554687-8.5 26.703125 1.992188 36.164063 10.679688 9.011718 26.535156 8.136718 36.164062-1.992188 42.011719-47.046875 65.546876-107.722656 66.25-170.792969-.746093-62.761719-24.746093-123.015625-67.355468-169.105469-3.167969-3.421874-3-8.75.375-11.96875s8.707031-3.128906 11.972656.195313c45.613281 49.367187 71.296875 113.898437 72.074219 181.109375-.757813 67.195312-25.84375 131.839844-70.605469 181.960938-8.109375 9.019531-19.664062 14.175781-31.792969 14.1875zm0 0"/><path d="m118.625 438.363281c-1.726562 0-3.417969-.507812-4.863281-1.460937-58.066407-39.175782-96-101.875-103.75-171.492188-7.75-69.617187 15.464843-139.125 63.492187-190.113281 3.238282-3.425781 8.640625-3.585937 12.066406-.347656 3.429688 3.234375 3.585938 8.636719.351563 12.066406-44.550781 47.296875-66.105469 111.761719-58.964844 176.34375s42.257813 122.777344 96.0625 159.203125c3.257813 1.980469 4.800781 5.886719 3.78125 9.5625-1.023437 3.671875-4.359375 6.222656-8.175781 6.238281zm0 0"/><path d="m299.269531 471.984375c-4.335937-.007813-7.976562-3.269531-8.460937-7.582031-.484375-4.308594 2.34375-8.296875 6.570312-9.269532 22.992188-5.261718 44.984375-14.191406 65.132813-26.453124 4.308593-2.683594 8.691406-5.574219 12.917969-8.554688 2.488281-1.851562 5.785156-2.207031 8.609374-.929688 2.828126 1.273438 4.738282 3.984376 4.992188 7.074219.253906 3.09375-1.1875 6.078125-3.769531 7.796875-4.488281 3.171875-9.140625 6.246094-13.808594 9.152344-21.734375 13.230469-45.464844 22.871094-70.273437 28.550781-.625.144531-1.265626.21875-1.910157.214844zm0 0"/><path d="m256.011719 102.40625c-10.449219 0-256.0000002-.582031-256.0000002-51.199219 0-50.617187 245.5507812-51.1992185 256.0000002-51.1992185 10.453125 0 256 .5820315 256 51.1992185 0 50.617188-245.546875 51.199219-256 51.199219zm0-85.332031c-151.898438 0-235.074219 22.019531-238.957031 34.34375 3.882812 11.902343 87.058593 33.921875 238.957031 33.921875 151.027343 0 234.117187-21.765625 238.882812-34.132813-4.765625-12.367187-87.855469-34.132812-238.882812-34.132812zm0 0"/><path d="m262.511719 67.269531c-95.882813 0-168.441407-7.464843-169.523438-7.574219-4.6875-.492187-8.089843-4.691406-7.59375-9.378906.492188-4.6875 4.691407-8.089844 9.378907-7.597656 107.269531 9.769531 215.210937 9.769531 322.480468 0 4.6875-.492188 8.886719 2.910156 9.378906 7.597656.492188 4.6875-2.90625 8.886719-7.59375 9.378906-52.011718 5.21875-104.253906 7.75-156.527343 7.574219zm0 0"/><path d="m92.226562 148.453125c4.222657-8.453125 10.839844-15.472656 19.03125-20.183594 8.242188-4.957031 17.574219-7.816406 27.175782-8.335937 9.460937-.457032 18.910156 1.046875 27.761718 4.421875 4.273438 1.648437 8.40625 3.648437 12.355469 5.972656 3.761719 2.488281 7.355469 5.21875 10.765625 8.171875 1.105469.957031 1.421875 2.539062.777344 3.847656-.648438 1.3125-2.097656 2.019532-3.53125 1.722656l-.382812-.085937c-4.265626-.886719-8.207032-2.179687-12.136719-3.304687-4.03125-.761719-7.871094-2.007813-11.761719-2.597657-7.535156-1.421875-15.199219-1.992187-22.859375-1.699219-7.527344.558594-14.949219 2.074219-22.089844 4.515626-7.59375 2.652343-14.898437 6.070312-21.800781 10.199218l-.257812.152344c-.820313.476562-1.855469.363281-2.554688-.277344s-.898438-1.664062-.488281-2.519531zm0 0"/><path d="m331.160156 151.097656c-6.902344-4.128906-14.203125-7.546875-21.796875-10.199218-7.140625-2.441407-14.566406-3.957032-22.089843-4.515626-7.660157-.292968-15.328126.277344-22.859376 1.699219-3.894531.589844-7.730468 1.835938-11.761718 2.601563-3.933594 1.121094-7.871094 2.414062-12.136719 3.304687l-.378906.078125c-1.433594.296875-2.882813-.410156-3.53125-1.71875-.648438-1.308594-.332031-2.894531.773437-3.851562 3.410156-2.953125 7.003906-5.679688 10.761719-8.171875 3.953125-2.324219 8.085937-4.324219 12.359375-5.972657 8.847656-3.375 18.300781-4.878906 27.761719-4.421874 9.601562.519531 18.933593 3.382812 27.175781 8.335937 8.191406 4.710937 14.808594 11.730469 19.027344 20.183594.40625.855469.210937 1.875-.484375 2.515625-.695313.640625-1.722657.757812-2.542969.289062zm0 0"/><path d="m213.347656 341.339844c-73.199218 0-92.476562-46.070313-93.257812-48.027344-1.753906-4.378906.375-9.347656 4.753906-11.097656 4.375-1.75 9.34375.378906 11.09375 4.753906.609375 1.464844 16.308594 37.304688 77.410156 37.304688 61.097656 0 76.800782-35.839844 77.433594-37.363282 1.140625-2.824218 3.707031-4.828125 6.726562-5.25 3.019532-.425781 6.035157.792969 7.910157 3.199219 1.878906 2.402344 2.332031 5.625 1.1875 8.453125-.785157 1.957031-20.058594 48.027344-93.257813 48.027344zm0 0"/><path d="m187.746094 230.40625c-2.261719.003906-4.433594-.898438-6.03125-2.5-10.105469-9.035156-23.085938-14.199219-36.636719-14.566406-13.5625.289062-26.570313 5.460937-36.632813 14.566406-3.347656 3.234375-8.667968 3.1875-11.960937-.105469-3.292969-3.289062-3.339844-8.613281-.105469-11.960937 13.289063-12.269532 30.617188-19.234375 48.699219-19.566406 18.085937.332031 35.414063 7.296874 48.703125 19.566406 2.4375 2.441406 3.167969 6.109375 1.847656 9.296875-1.320312 3.191406-4.429687 5.269531-7.882812 5.269531zm0 0"/><path d="m324.28125 230.40625c-2.265625.003906-4.4375-.898438-6.035156-2.5-10.101563-9.035156-23.082032-14.199219-36.632813-14.566406-13.566406.289062-26.574219 5.460937-36.632812 14.566406-3.347657 3.234375-8.671875 3.1875-11.964844-.105469-3.289063-3.289062-3.335937-8.613281-.101563-11.960937 27.226563-26.089844 70.171876-26.089844 97.398438 0 2.441406 2.441406 3.171875 6.109375 1.847656 9.296875-1.320312 3.191406-4.429687 5.269531-7.878906 5.269531zm0 0"/></svg>