<svg height="512pt" viewBox="0 0 512.0112 512" width="512pt" xmlns="http://www.w3.org/2000/svg"><path d="m247.476562 8.554688c-101.269531-.015626-190.675781 66.109374-220.3125 162.949218-29.640624 96.839844 7.441407 201.675782 91.375 258.34375h.085938l69.121094 48.042969v8.53125c.027344 9.414063 7.652344 17.039063 17.066406 17.066406h145.066406c9.414063-.027343 17.039063-7.652343 17.066406-17.066406v-50.429687c.765626-.511719 1.535157-.941407 2.304688-1.453126 3.753906-2.386718 7.507812-4.863281 11.09375-7.421874.007812.089843.039062.175781.082031.253906 1.058594 2.222656 2.570313 4.199218 4.4375 5.804687.597657.597657 1.28125 1.277344 1.964844 1.875 1.257813 1.097657 2.597656 2.097657 4.007813 2.988281.6875.5625 1.429687 1.046876 2.21875 1.449219.800781.449219 1.628906.847657 2.476562 1.195313.691406.335937 1.402344.621094 2.132812.855468 1.109376.425782 2.21875.765626 3.328126 1.109376 2.8125.75 5.710937 1.121093 8.617187 1.109374 9.707031.011719 18.960937-4.117187 25.429687-11.351562 43.410157-48.574219 67.726563-111.242188 68.4375-176.382812 1.023438-76.800782-51.199218-247.46875-256-247.46875zm0 0" fill="#f0c419"/><path d="m78.007812 395.03125c-3.160156 4.011719-6.488281 7.933594-9.902343 11.777344-12.605469 13.945312-34.113281 15.078125-48.113281 2.535156-14-12.546875-15.226563-34.050781-2.742188-48.105469 7.546875-8.453125 14.371094-17.53125 20.394531-27.136719zm0 0" fill="#ff9801"/><path d="m503.476562 256.023438c-.710937 65.140624-25.027343 127.808593-68.4375 176.382812-6.46875 7.234375-15.722656 11.363281-25.429687 11.351562-2.90625.011719-5.804687-.359374-8.617187-1.109374-1.109376-.34375-2.21875-.683594-3.328126-1.109376-.730468-.234374-1.441406-.519531-2.132812-.855468-.847656-.347656-1.675781-.746094-2.476562-1.195313-.789063-.402343-1.53125-.886719-2.21875-1.449219-1.410157-.890624-2.75-1.890624-4.007813-2.988281-.683594-.597656-1.367187-1.277343-1.964844-1.875-1.867187-1.605469-3.378906-3.582031-4.4375-5.804687-.042969-.078125-.074219-.164063-.082031-.253906-3.585938 2.558593-7.339844 5.035156-11.09375 7.421874-.769531.511719-1.539062.941407-2.304688 1.453126-20.9375 12.726562-43.785156 22.003906-67.671874 27.476562h-.253907l-.339843-2.644531c-8.617188-20.695313-28.789063-34.210938-51.203126-34.304688h-8.53125c-20.351562.027344-38.765624 12.078125-46.933593 30.71875-.6875 1.617188-1.285157 3.269531-1.792969 4.949219-1.648438 5.042969-2.484375 10.3125-2.472656 15.617188v.085937l-69.121094-48.042969h-.085938c-83.933593-56.667968-121.015624-161.503906-91.375-258.34375 29.636719-96.839844 119.042969-162.964844 220.3125-162.949218 204.800782 0 257.023438 170.667968 256 247.46875zm0 0" fill="#ffdc00"/><path d="m380.34375 427.117188c-3.585938 2.558593-7.339844 5.035156-11.09375 7.421874-13.527344-12.691406-14.472656-33.851562-2.136719-47.699218 26.3125-29.355469 43.144531-65.972656 48.292969-105.054688 1.207031-9.3125 9.132812-16.285156 18.523438-16.289062-2.128907 44.964844-19.699219 87.820312-49.746094 121.34375-9.945313 11.144531-11.5 27.453125-3.839844 40.277344zm0 0" fill="#fec108"/><path d="m192.011719 457.238281c-8.152344-18.652343-26.578125-30.703125-46.933594-30.695312h-8.535156c-28.292969.046875-51.203125 23.003906-51.199219 51.296875v8.550781c.019531 9.421875 7.644531 17.0625 17.066406 17.097656h145.066406zm0 0" fill="#3f51b5"/><path d="m366.945312 435.992188v50.429687c-.027343 9.414063-7.652343 17.039063-17.066406 17.066406h-145.066406c-9.414062-.027343-17.039062-7.652343-17.066406-17.066406v-8.617187c-.011719-5.304688.824218-10.574219 2.472656-15.617188.507812-1.679688 1.105469-3.332031 1.792969-4.949219 8.167969-18.640625 26.582031-30.691406 46.933593-30.71875h8.53125c22.414063.09375 42.585938 13.609375 51.203126 34.304688l.59375 2.644531c23.886718-5.472656 46.734374-14.75 67.671874-27.476562zm0 0" fill="#3f51b5"/><path d="m380.425781 427.371094c1.300781 2.066406 2.785157 4.007812 4.4375 5.804687-1.867187-1.605469-3.378906-3.582031-4.4375-5.804687zm0 0" fill="#f0c419"/><path d="m366.945312 435.992188v17.066406c-15.941406 9.6875-33.011718 17.390625-50.824218 22.933594-3.960938 1.199218-8.253906.449218-11.578125-2.019532-3.320313-2.46875-5.273438-6.367187-5.269531-10.503906 23.886718-5.472656 46.734374-14.75 67.671874-27.476562zm0 0" fill="#283593"/><path d="m172.898438 211.632812c13.527343-11.632812 18.386718-30.457031 12.183593-47.183593-6.203125-16.730469-22.160156-27.832031-40.003906-27.832031s-33.800781 11.101562-40.003906 27.832031c-6.203125 16.726562-1.34375 35.550781 12.183593 47.183593zm0 0" fill="#f5f5f5"/><path d="m162.128906 179.191406c0-14.15625-11.453125-25.632812-25.585937-25.632812-14.128907 0-25.582031 11.476562-25.582031 25.632812s11.453124 25.632813 25.582031 25.632813c14.132812 0 25.585937-11.476563 25.585937-25.632813zm0 0" fill="#3f51b5"/><path d="m142.519531 295.019531-21.589843 44.117188-16.46875-7.59375-28.160157-12.886719c-6.070312-2.722656-10.765625-7.804688-13.003906-14.070312-2.238281-6.261719-1.828125-13.167969 1.140625-19.125 5.992188-12.070313 20.203125-17.585938 32.769531-12.714844 4.605469-8.15625 13.242188-13.207032 22.613281-13.226563 8.585938-.136719 16.628907 4.183594 21.253907 11.417969s5.171875 16.347656 1.445312 24.082031zm0 0" fill="#bb193b"/><path d="m125.453125 288.707031-20.992187 42.835938-28.160157-12.886719c-6.070312-2.722656-10.765625-7.804688-13.003906-14.070312-2.238281-6.261719-1.828125-13.167969 1.140625-19.125 5.992188-12.070313 20.203125-17.585938 32.769531-12.714844 4.605469-8.15625 13.242188-13.207032 22.613281-13.226563 8.242188 7.347657 10.546876 19.300781 5.632813 29.1875zm0 0" fill="#ef314c"/><path d="m162.144531 170.6875c0 4.714844-3.820312 8.535156-8.535156 8.535156-4.710937 0-8.53125-3.820312-8.53125-8.535156 0-4.710938 3.820313-8.53125 8.53125-8.53125 4.714844 0 8.535156 3.820312 8.535156 8.53125zm0 0" fill="#f5f5f5"/><path d="m102.410156 290.15625c0 9.425781-7.640625 17.066406-17.066406 17.066406s-17.066406-7.640625-17.066406-17.066406 7.640625-17.066406 17.066406-17.066406 17.066406 7.640625 17.066406 17.066406zm0 0" fill="#f5f5f5"/><path d="m503.476562 256.023438c-.710937 65.140624-25.027343 127.808593-68.4375 176.382812-6.46875 7.234375-15.722656 11.363281-25.429687 11.351562-2.90625.011719-5.804687-.359374-8.617187-1.109374-1.109376-.34375-2.21875-.683594-3.328126-1.109376-.300781-.0625-.589843-.179687-.851562-.34375 4.847656-1.878906 9.179688-4.894531 12.628906-8.789062 43.40625-48.574219 67.722656-111.242188 68.4375-176.382812 1.023438-74.921876-48.726562-239.277344-241.496094-247.125 3.671876-.257813 7.339844-.34375 11.09375-.34375 204.800782 0 257.023438 170.667968 256 247.46875zm0 0" fill="#fec108"/><path d="m366.945312 435.992188v50.429687c-.027343 9.414063-7.652343 17.039063-17.066406 17.066406h-25.601562c9.414062-.027343 17.039062-7.652343 17.066406-17.066406v-37.035156c8.808594-3.917969 17.359375-8.394531 25.601562-13.394531zm0 0" fill="#283593"/><path d="m349.878906 512.003906h-145.066406c-14.132812-.015625-25.585938-11.464844-25.601562-25.597656v-8.621094c-.007813-6.203125.972656-12.371094 2.902343-18.269531.578125-1.90625 1.257813-3.78125 2.035157-5.613281 9.507812-21.796875 31.015624-35.902344 54.796874-35.933594h8.53125c26.035157.015625 49.460938 15.820312 59.230469 39.953125 1.085938 2.882813.535157 6.125-1.441406 8.484375-1.976563 2.363281-5.074219 3.476562-8.101563 2.914062-3.027343-.5625-5.515624-2.710937-6.515624-5.625-7.355469-17.332031-24.339844-28.609374-43.171876-28.660156h-8.53125c-16.96875.019532-32.320312 10.070313-39.121093 25.617188-.546875 1.296875-1.023438 2.621094-1.429688 3.96875-1.402343 4.25-2.117187 8.695312-2.117187 13.167968v8.617188c.007812 4.710938 3.824218 8.527344 8.535156 8.535156h145.066406c4.710938-.007812 8.527344-3.824218 8.53125-8.535156v-50.429688c0-4.714843 3.820313-8.535156 8.535156-8.535156 4.710938 0 8.53125 3.820313 8.53125 8.535156v50.429688c-.015624 14.132812-11.46875 25.582031-25.597656 25.597656zm0 0"/><path d="m247.476562 512.003906h-145.066406c-14.140625-.023437-25.59375-11.492187-25.597656-25.632812v-8.546875c.007812-33.003907 26.730469-59.769531 59.730469-59.832031h8.535156c23.757813-.023438 45.265625 14.046874 54.757813 35.820312 1.878906 4.324219-.097657 9.351562-4.421876 11.230469-4.320312 1.882812-9.347656-.097657-11.226562-4.421875-6.785156-15.542969-22.148438-25.585938-39.109375-25.5625h-8.535156c-23.578125.054687-42.664063 19.183594-42.664063 42.765625v8.546875c-.003906 4.722656 3.8125 8.554687 8.53125 8.566406h145.066406c4.714844 0 8.535157 3.820312 8.535157 8.535156 0 4.710938-3.820313 8.53125-8.535157 8.53125zm0 0"/><path d="m42.679688 426.671875c-16.832032.003906-32.09375-9.886719-38.964844-25.25-6.867188-15.367187-4.0625-33.332031 7.164062-45.875 7.226563-8.097656 13.761719-16.789063 19.527344-25.988281 1.617188-2.582032 4.488281-4.109375 7.535156-4.003906 3.046875.105468 5.808594 1.828124 7.238282 4.523437 1.433593 2.691406 1.316406 5.941406-.296876 8.527344-6.28125 10.007812-13.394531 19.46875-21.257812 28.289062-9.40625 10.546875-8.53125 26.710938 1.960938 36.179688 10.679687 9.023437 26.542968 8.152343 36.171874-1.984375 3.269532-3.679688 6.492188-7.476563 9.546876-11.355469 2.921874-3.675781 8.265624-4.296875 11.953124-1.390625 3.691407 2.90625 4.339844 8.246094 1.453126 11.949219-3.261719 4.148437-6.699219 8.199219-10.226563 12.167969-8.105469 9.035156-19.667969 14.199218-31.804687 14.210937zm0 0"/><path d="m409.609375 452.273438c-16.828125.003906-32.089844-9.886719-38.960937-25.253907-6.867188-15.363281-4.0625-33.332031 7.164062-45.871093 28.699219-32.09375 45.5-73.074219 47.59375-116.074219.324219-4.664063 4.261719-8.242188 8.929688-8.121094 2.261718.105469 4.386718 1.105469 5.910156 2.78125 1.523437 1.675781 2.316406 3.886719 2.210937 6.148437-2.28125 46.914063-20.613281 91.621094-51.921875 126.632813-9.386718 10.550781-8.5 26.703125 1.988282 36.164063 10.679687 9.019531 26.539062 8.144531 36.167968-1.992188 42.003906-47.050781 65.539063-107.722656 66.253906-170.792969-1.121093-63.945312-26.054687-125.171875-69.925781-171.710937-43.9375-44.53125-103.675781-67.109375-177.542969-67.109375-97.457031-.015625-183.507812 63.578125-212.101562 156.746093-28.59375 93.167969 6.96875 194.085938 87.65625 248.742188 3.257812 1.988281 4.796875 5.894531 3.773438 9.570312-1.027344 3.671876-4.367188 6.21875-8.179688 6.230469h-.085938c-1.703124.003907-3.363281-.507812-4.773437-1.460937-87.042969-58.765625-125.496094-167.488282-94.761719-267.910156 30.734375-100.425782 123.449219-169.0000005 228.472656-168.98828175 78.605469 0 142.421876 24.28906275 189.699219 72.19531275 47.363281 49.597656 74.113281 115.339843 74.835938 183.917969-.769531 67.199218-25.855469 131.84375-70.617188 181.96875-8.101562 9.019531-19.65625 14.179687-31.785156 14.1875zm0 0"/><path d="m299.265625 471.984375c-4.339844-.007813-7.980469-3.269531-8.464844-7.578125-.484375-4.3125 2.339844-8.300781 6.570313-9.269531 22.992187-5.265625 44.992187-14.195313 65.144531-26.453125 4.304687-2.679688 8.6875-5.578125 12.902344-8.550782 3.851562-2.648437 9.113281-1.707031 11.808593 2.109376 2.695313 3.816406 1.820313 9.089843-1.964843 11.832031-4.484375 3.164062-9.152344 6.246093-13.808594 9.144531-21.738281 13.234375-45.46875 22.875-70.273437 28.550781-.628907.144531-1.269532.21875-1.914063.214844zm0 0"/><path d="m172.898438 220.167969c-3.574219 0-6.765626-2.21875-8.007813-5.566407-1.242187-3.347656-.265625-7.113281 2.441406-9.441406 10.824219-9.308594 14.710938-24.363281 9.746094-37.746094-4.964844-13.382812-17.730469-22.265624-32.003906-22.265624-14.273438 0-27.039063 8.882812-32 22.265624-4.964844 13.382813-1.078125 28.4375 9.742187 37.746094 2.335938 1.980469 3.433594 5.058594 2.875 8.070313-.558594 3.007812-2.6875 5.488281-5.578125 6.496093-2.894531 1.011719-6.101562.394532-8.414062-1.617187-16.238281-13.957031-22.074219-36.546875-14.632813-56.625 7.445313-20.078125 26.597656-33.402344 48.007813-33.402344 21.414062 0 40.566406 13.324219 48.007812 33.402344 7.445313 20.078125 1.605469 42.667969-14.632812 56.625-1.542969 1.332031-3.515625 2.0625-5.550781 2.058594zm0 0"/><path d="m92.039062 118.421875c6.253907-19.335937 21.539063-34.414063 40.960938-40.402344 9.910156-3.117187 20.511719-3.320312 30.535156-.585937 4.84375 1.191406 9.515625 2.996094 13.90625 5.363281 4.1875 2.429687 8.160156 5.21875 11.867188 8.332031 1.144531.90625 1.519531 2.480469.910156 3.804688-.609375 1.328125-2.046875 2.070312-3.480469 1.792968l-.566406-.109374c-4.515625-.867188-8.59375-2.398438-12.777344-3.273438-4.058593-.898438-8.175781-1.515625-12.320312-1.851562-7.847657-.820313-15.78125-.039063-23.320313 2.304687-15.75 5.824219-30.082031 14.933594-42.042968 26.726563l-.152344.136718c-.429688.378906-.996094.574219-1.570313.539063-.574219-.035157-1.113281-.296875-1.492187-.726563-.492188-.5625-.660156-1.332031-.457032-2.050781zm0 0"/><path d="m187.746094 230.40625c-2.265625.003906-4.4375-.898438-6.035156-2.5-10.101563-9.039062-23.082032-14.199219-36.632813-14.566406-13.566406.289062-26.574219 5.460937-36.632813 14.566406-3.347656 3.246094-8.679687 3.207031-11.976562-.089844s-3.335938-8.632812-.089844-11.976562c13.285156-12.273438 30.617188-19.234375 48.699219-19.566406 18.082031.332031 35.414063 7.292968 48.699219 19.566406 2.441406 2.441406 3.167968 6.109375 1.847656 9.296875s-4.429688 5.269531-7.878906 5.269531zm0 0"/><path d="m213.269531 366.941406c-13.046875-.023437-24.941406-7.488281-30.636719-19.226562-5.695312-11.738282-4.199218-25.699219 3.855469-35.960938-.609375-.367187-1.214843-.761718-1.8125-1.167968-12.726562-8.753907-17.984375-24.964844-12.824219-39.527344 5.160157-14.558594 19.453126-23.839844 34.855469-22.625 15.398438 1.214844 28.0625 12.621094 30.878907 27.808594.554687 3-.53125 6.066406-2.851563 8.046874-2.320313 1.980469-5.515625 2.570313-8.390625 1.554688-2.875-1.019531-4.988281-3.492188-5.542969-6.492188-1.257812-6.789062-6.476562-12.148437-13.230469-13.585937-6.75-1.4375-13.703124 1.335937-17.613281 7.023437-3.910156 5.6875-4.011719 13.171876-.253906 18.960938s10.636719 8.746094 17.421875 7.488281c2.226562-.414062 4.527344.070313 6.394531 1.355469 1.867188 1.28125 3.144531 3.253906 3.550781 5.484375.097657.515625.144532 1.035156.144532 1.5625-.007813 4.109375-2.9375 7.632813-6.980469 8.382813-6.789063 1.253906-12.148437 6.476562-13.585937 13.230468-1.4375 6.75 1.335937 13.703125 7.023437 17.613282 5.691406 3.910156 13.175781 4.011718 18.964844.25 5.789062-3.757813 8.742187-10.636719 7.484375-17.421876-.859375-4.636718 2.203125-9.089843 6.839844-9.949218 4.632812-.855469 9.085937 2.203125 9.945312 6.839844 3.40625 18.53125-8.824219 36.324218-27.347656 39.777343-2.074219.386719-4.179688.578125-6.289063.578125zm0 0"/><path d="m120.941406 347.632812c-1.222656 0-2.429687-.261718-3.542968-.769531l-44.644532-20.410156c-8.160156-3.6875-14.472656-10.53125-17.484375-18.960937-3.015625-8.429688-2.472656-17.726563 1.5-25.75 6.824219-13.726563 21.835938-21.359376 36.949219-18.78125 10.050781-11.574219 26.5-15.191407 40.480469-8.902344 8.160156 3.6875 14.472656 10.53125 17.488281 18.960937 3.015625 8.429688 2.472656 17.726563-1.5 25.75l-21.578125 44.078125c-1.433594 2.929688-4.410156 4.785156-7.667969 4.785156zm-33.121094-68.121093c-6.667968-.007813-12.761718 3.765625-15.726562 9.738281-1.945312 3.886719-2.222656 8.402344-.757812 12.496094 1.464843 4.09375 4.539062 7.410156 8.507812 9.179687l37.089844 16.953125 17.925781-36.621094c1.949219-3.886718 2.222656-8.398437.757813-12.492187-1.460938-4.09375-4.535157-7.410156-8.507813-9.179687-8.25-3.722657-17.980469-.539063-22.441406 7.335937-2.082031 3.722656-6.59375 5.335937-10.5625 3.777344-2.003907-.785157-4.136719-1.1875-6.285157-1.1875zm0 0"/><path d="m326.113281 92.921875c-6.253906 19.335937-21.535156 34.414063-40.957031 40.402344-9.914062 3.117187-20.511719 3.320312-30.535156.589843-4.84375-1.195312-9.515625-2.996093-13.910156-5.367187-4.183594-2.429687-8.15625-5.21875-11.867188-8.328125-1.140625-.910156-1.515625-2.480469-.90625-3.808594s2.042969-2.066406 3.480469-1.792968l.5625.109374c4.519531.867188 8.597656 2.398438 12.78125 3.273438 4.058593.898438 8.175781 1.515625 12.316406 1.851562 7.851563.824219 15.785156.039063 23.324219-2.304687 15.75-5.824219 30.082031-14.933594 42.039062-26.722656l.15625-.136719c.429688-.382812.996094-.578125 1.570313-.542969.574219.035157 1.113281.296875 1.492187.726563.492188.5625.660156 1.335937.453125 2.050781zm0 0"/><path d="m273.359375 213.242188c-13.898437-.101563-27.496094-4.082032-39.257813-11.492188-3.886718-2.664062-4.878906-7.980469-2.210937-11.867188 2.664063-3.886718 7.980469-4.878906 11.867187-2.210937 11.554688 7.070313 25.25 9.792969 38.628907 7.679687 13.242187-2.828124 25.050781-10.273437 33.3125-21.003906 2.675781-3.882812 7.988281-4.859375 11.871093-2.183594 3.878907 2.675782 4.859376 7.988282 2.183594 11.871094-10.808594 14.476563-26.558594 24.476563-44.257812 28.097656-4.003906.742188-8.066406 1.113282-12.136719 1.109376zm0 0"/></svg>