<svg height="512pt" viewBox="0 0 512.0112 512" width="512pt" xmlns="http://www.w3.org/2000/svg"><path d="m38.835938 141.148438c-54.015626-59.132813-13.226563-132.605469-13.226563-132.605469 24.152344 30.207031 61.269531 43.347656 80.726563 48.382812zm0 0" fill="#6a1b9a"/><path d="m247.476562 8.558594c-101.269531-.015625-190.675781 66.109375-220.3125 162.949218-29.640624 96.835938 7.441407 201.671876 91.375 258.339844h.085938l69.121094 48.042969v8.535156c.027344 9.414063 7.652344 17.039063 17.066406 17.066407h145.066406c9.414063-.027344 17.039063-7.652344 17.066406-17.066407v-50.433593c.765626-.511719 1.535157-.9375 2.304688-1.449219 3.753906-2.390625 7.507812-4.863281 11.09375-7.425781.007812.089843.039062.179687.082031.257812 1.058594 2.222656 2.570313 4.199219 4.4375 5.800781.597657.597657 1.28125 1.28125 1.964844 1.878907 1.257813 1.097656 2.597656 2.09375 4.007813 2.984374.6875.5625 1.429687 1.050782 2.21875 1.453126.800781.449218 1.628906.847656 2.476562 1.195312.691406.335938 1.402344.621094 2.132812.851562 1.109376.425782 2.21875.769532 3.328126 1.109376 2.8125.75 5.710937 1.125 8.617187 1.109374 9.707031.015626 18.960937-4.113281 25.429687-11.347656 43.410157-48.574218 67.726563-111.246094 68.4375-176.386718 1.023438-76.796876-51.199218-247.464844-256-247.464844zm0 0" fill="#955ba5"/><path d="m503.476562 256.023438c-.710937 65.140624-25.027343 127.8125-68.4375 176.386718-6.46875 7.234375-15.722656 11.363282-25.429687 11.347656-2.90625.015626-5.804687-.359374-8.617187-1.109374-1.109376-.339844-2.21875-.683594-3.328126-1.109376-.730468-.230468-1.441406-.515624-2.132812-.851562-.847656-.347656-1.675781-.746094-2.476562-1.195312-.789063-.402344-1.53125-.890626-2.21875-1.453126-1.410157-.890624-2.75-1.886718-4.007813-2.984374-.683594-.597657-1.367187-1.28125-1.964844-1.878907-1.867187-1.601562-3.378906-3.578125-4.4375-5.800781-.042969-.078125-.074219-.167969-.082031-.257812-3.585938 2.5625-7.339844 5.035156-11.09375 7.425781-.769531.511719-1.539062.9375-2.304688 1.449219-20.9375 12.730468-43.785156 22.007812-67.671874 27.476562h-.253907l-.339843-2.644531c-8.617188-20.691407-28.789063-34.207031-51.203126-34.304688h-8.53125c-20.351562.03125-38.765624 12.082031-46.933593 30.722657-.6875 1.613281-1.285157 3.265624-1.792969 4.949218-1.648438 5.039063-2.484375 10.3125-2.472656 15.613282v.085937l-69.121094-48.042969h-.085938c-83.933593-56.667968-121.015624-161.503906-91.375-258.339844 29.636719-96.839843 119.042969-162.964843 220.3125-162.949218 45.90625-1.105469 91.335938 9.496094 132.011719 30.804687 40.125 22.144531 72.679688 55.824219 93.441407 96.683594 19.523437 37.015625 29.992187 78.132813 30.546874 119.976563zm0 0" fill="#9d27b0"/><path d="m130.65625 138.417969h.085938l57.003906 40.191406c-.019532 21.667969-16.273438 39.882813-37.800782 42.351563-21.523437 2.472656-41.484374-11.578126-46.414062-32.675782s6.734375-42.542968 27.125-49.867187zm0 0" fill="#f5f5f5"/><path d="m324.277344 178.628906c0 23.5625-19.101563 42.664063-42.667969 42.664063-23.5625 0-42.664063-19.101563-42.664063-42.664063l9.640626-6.828125 25.855468-18.175781 21.503906-15.191406h.085938c16.972656 6.074218 28.285156 22.167968 28.246094 40.195312zm0 0" fill="#f5f5f5"/><path d="m78.007812 395.03125c-3.160156 4.011719-6.488281 7.9375-9.902343 11.777344-12.605469 13.945312-34.113281 15.082031-48.113281 2.535156-14-12.542969-15.226563-34.046875-2.742188-48.101562 7.546875-8.457032 14.371094-17.535157 20.394531-27.136719zm0 0" fill="#6a1b9a"/><path d="m380.34375 427.117188c-3.585938 2.5625-7.339844 5.035156-11.09375 7.425781-13.527344-12.695313-14.472656-33.851563-2.136719-47.703125 26.3125-29.351563 43.144531-65.96875 48.292969-105.050782 1.207031-9.316406 9.132812-16.289062 18.523438-16.292968-2.128907 44.96875-19.699219 87.824218-49.746094 121.34375-9.945313 11.144531-11.5 27.457031-3.839844 40.277344zm0 0" fill="#6a1b9a"/><path d="m192.011719 457.242188c-8.152344-18.652344-26.578125-30.703126-46.933594-30.695313h-8.535156c-28.292969.046875-51.203125 23-51.199219 51.296875v8.546875c.019531 9.425781 7.644531 17.0625 17.066406 17.101563h145.066406zm0 0" fill="#3f51b5"/><path d="m366.945312 435.992188v50.433593c-.027343 9.414063-7.652343 17.039063-17.066406 17.066407h-145.066406c-9.414062-.027344-17.039062-7.652344-17.066406-17.066407v-8.621093c-.011719-5.300782.824218-10.574219 2.472656-15.613282.507812-1.683594 1.105469-3.335937 1.792969-4.949218 8.167969-18.640626 26.582031-30.691407 46.933593-30.722657h8.53125c22.414063.097657 42.585938 13.613281 51.203126 34.304688l.59375 2.644531c23.886718-5.46875 46.734374-14.746094 67.671874-27.476562zm0 0" fill="#3f51b5"/><path d="m380.425781 427.375c1.300781 2.0625 2.785157 4.007812 4.4375 5.800781-1.867187-1.601562-3.378906-3.578125-4.4375-5.800781zm0 0" fill="#f0c419"/><path d="m366.945312 435.992188v17.066406c-15.941406 9.691406-33.011718 17.390625-50.824218 22.9375-3.960938 1.199218-8.253906.449218-11.578125-2.023438-3.320313-2.46875-5.273438-6.363281-5.269531-10.503906 23.886718-5.46875 46.734374-14.746094 67.671874-27.476562zm0 0" fill="#283593"/><path d="m162.097656 179.226562c0-14.140624-11.441406-25.601562-25.554687-25.601562-14.109375 0-25.550781 11.460938-25.550781 25.601562 0 14.136719 11.441406 25.597657 25.550781 25.597657 14.113281 0 25.554687-11.460938 25.554687-25.597657zm0 0" fill="#3f51b5"/><path d="m298.679688 179.226562c0 14.136719-11.464844 25.597657-25.601563 25.597657-14.140625 0-25.601563-11.460938-25.601563-25.597657.015626-2.515624.390626-5.015624 1.109376-7.425781l25.855468-18.175781c13.621094.691406 24.292969 11.964844 24.238282 25.601562zm0 0" fill="#3f51b5"/><path d="m472.929688 136.046875c-4.960938 7.609375-10.710938 14.675781-17.152344 21.078125-3.3125 3.308594-7.835938 5.113281-12.511719 4.988281-4.679687-.121093-9.101563-2.160156-12.234375-5.636719l-76.765625-85.261718c-4.222656-4.691406-5.515625-11.332032-3.363281-17.265625 2.152344-5.933594 7.402344-10.195313 13.652344-11.085938 5.042968-.871093 10.03125-2.039062 14.933593-3.5 40.125 22.144531 72.679688 55.824219 93.441407 96.683594zm0 0" fill="#6a1b9a"/><path d="m153.609375 162.15625c0 4.714844-3.820313 8.535156-8.53125 8.535156-4.714844 0-8.535156-3.820312-8.535156-8.535156 0-4.710938 3.820312-8.53125 8.535156-8.53125 4.710937 0 8.53125 3.820312 8.53125 8.53125zm0 0" fill="#f5f5f5"/><path d="m290.144531 162.15625c0 4.714844-3.820312 8.535156-8.535156 8.535156-4.710937 0-8.53125-3.820312-8.53125-8.535156 0-4.710938 3.820313-8.53125 8.53125-8.53125 4.714844 0 8.535156 3.820312 8.535156 8.53125zm0 0" fill="#f5f5f5"/><path d="m503.476562 256.023438c-.710937 65.140624-25.027343 127.8125-68.4375 176.386718-6.46875 7.234375-15.722656 11.363282-25.429687 11.347656-2.90625.015626-5.804687-.359374-8.617187-1.109374-1.109376-.339844-2.21875-.683594-3.328126-1.109376-.300781-.0625-.589843-.175781-.851562-.339843 4.847656-1.882813 9.179688-4.894531 12.628906-8.789063 43.40625-48.574218 67.722656-111.246094 68.4375-176.386718 1.023438-74.921876-48.726562-239.273438-241.496094-247.125 3.671876-.253907 7.339844-.339844 11.09375-.339844 204.800782 0 257.023438 170.667968 256 247.464844zm0 0" fill="#6a1b9a"/><path d="m366.945312 435.992188v50.433593c-.027343 9.414063-7.652343 17.039063-17.066406 17.066407h-25.601562c9.414062-.027344 17.039062-7.652344 17.066406-17.066407v-37.035156c8.808594-3.917969 17.359375-8.394531 25.601562-13.398437zm0 0" fill="#283593"/><path d="m341.34375 68.292969s85.335938-17.085938 119.46875-59.75c0 0 51.199219 80.132812-34.132812 162.148437zm0 0" fill="#9d27b0"/><path d="m349.878906 512.007812h-145.066406c-14.132812-.015624-25.585938-11.46875-25.601562-25.601562v-8.617188c-.007813-6.207031.972656-12.371093 2.902343-18.269531.578125-1.90625 1.257813-3.78125 2.035157-5.613281 9.507812-21.796875 31.015624-35.902344 54.796874-35.9375h8.53125c26.035157.019531 49.460938 15.820312 59.230469 39.953125 1.085938 2.882813.535157 6.125-1.441406 8.488281-1.976563 2.359375-5.074219 3.472656-8.101563 2.910156-3.027343-.558593-5.515624-2.710937-6.515624-5.621093-7.355469-17.335938-24.339844-28.609375-43.171876-28.664063h-8.53125c-16.96875.023438-32.320312 10.074219-39.121093 25.617188-.546875 1.300781-1.023438 2.625-1.429688 3.972656-1.402343 4.25-2.117187 8.691406-2.117187 13.167969v8.617187c.007812 4.710938 3.824218 8.527344 8.535156 8.535156h145.066406c4.710938-.007812 8.527344-3.824218 8.53125-8.535156v-50.433594c0-4.710937 3.820313-8.53125 8.535156-8.53125 4.710938 0 8.53125 3.820313 8.53125 8.53125v50.433594c-.015624 14.132813-11.46875 25.582032-25.597656 25.597656zm0 0"/><path d="m247.476562 512.007812h-145.066406c-14.140625-.023437-25.59375-11.492187-25.597656-25.632812v-8.550781c.007812-33 26.730469-59.765625 59.730469-59.828125h8.535156c23.757813-.027344 45.265625 14.042968 54.757813 35.820312 1.878906 4.320313-.097657 9.347656-4.421876 11.230469-4.320312 1.878906-9.347656-.101563-11.226562-4.421875-6.785156-15.546875-22.148438-25.585938-39.109375-25.5625h-8.535156c-23.578125.054688-42.664063 19.183594-42.664063 42.761719v8.550781c-.003906 4.71875 3.8125 8.550781 8.53125 8.566406h145.066406c4.714844 0 8.535157 3.820313 8.535157 8.53125 0 4.714844-3.820313 8.535156-8.535157 8.535156zm0 0"/><path d="m42.679688 426.675781c-16.832032.003907-32.09375-9.886719-38.964844-25.253906-6.867188-15.363281-4.0625-33.332031 7.164062-45.871094 7.226563-8.097656 13.761719-16.792969 19.527344-25.988281 1.617188-2.585938 4.488281-4.113281 7.535156-4.007812 3.046875.109374 5.808594 1.832031 7.238282 4.523437 1.433593 2.691406 1.316406 5.945313-.296876 8.53125-6.28125 10.003906-13.394531 19.46875-21.257812 28.285156-9.40625 10.550781-8.53125 26.714844 1.960938 36.183594 10.679687 9.019531 26.542968 8.148437 36.171874-1.988281 3.269532-3.679688 6.492188-7.472656 9.546876-11.351563 2.921874-3.675781 8.265624-4.296875 11.953124-1.390625 3.691407 2.902344 4.339844 8.242188 1.453126 11.949219-3.261719 4.144531-6.699219 8.199219-10.226563 12.164063-8.105469 9.035156-19.667969 14.203124-31.804687 14.214843zm0 0"/><path d="m409.609375 452.273438c-16.828125.003906-32.089844-9.886719-38.960937-25.25-6.867188-15.367188-4.0625-33.332032 7.164062-45.875 28.699219-32.089844 45.5-73.070313 47.59375-116.074219.296875-4.675781 4.25-8.269531 8.929688-8.121094 2.261718.109375 4.386718 1.109375 5.910156 2.785156 1.523437 1.671875 2.316406 3.882813 2.210937 6.144531-2.28125 46.914063-20.613281 91.621094-51.921875 126.636719-9.386718 10.550781-8.5 26.703125 1.988282 36.160157 10.679687 9.019531 26.539062 8.148437 36.167968-1.988282 42.011719-47.046875 65.550782-107.722656 66.253906-170.796875-.765624-46.789062-14.210937-92.492187-38.902343-132.246093-2.492188-4-1.273438-9.261719 2.726562-11.757813 4-2.492187 9.265625-1.273437 11.757813 2.726563 26.371094 42.542968 40.707031 91.445312 41.484375 141.492187-.757813 67.203125-25.847657 131.851563-70.617188 181.976563-8.101562 9.023437-19.65625 14.179687-31.785156 14.1875zm0 0"/><path d="m118.625 438.367188c-1.726562 0-3.417969-.507813-4.859375-1.464844-65.820313-44.375-105.261719-118.578125-105.222656-197.960938-.097657-35.066406 7.613281-69.714844 22.570312-101.429687 16.101563-34.238281 40.089844-64.167969 70-87.335938 41.765625-32.695312 93.324219-50.367187 146.363281-50.1679685 60.933594 0 113.433594 14.8281255 156.042969 44.0820315 2.585938 1.699218 4.050781 4.660156 3.832031 7.742187-.21875 3.085938-2.089843 5.808594-4.890624 7.121094-2.796876 1.3125-6.089844 1.007813-8.601563-.796875-39.710937-27.257812-88.960937-41.082031-146.382813-41.082031-49.246093-.183594-97.117187 16.226562-135.894531 46.582031-27.785156 21.511719-50.066406 49.3125-65.015625 81.109375-13.890625 29.445313-21.050781 61.617187-20.957031 94.175781-.03125 73.585938 36.46875 142.390625 97.417969 183.625 3.257812 1.984375 4.796875 5.890625 3.773437 9.566406-1.023437 3.671876-4.363281 6.21875-8.175781 6.234376zm0 0"/><path d="m299.265625 471.988281c-4.339844-.007812-7.980469-3.269531-8.464844-7.582031-.484375-4.308594 2.339844-8.296875 6.570313-9.269531 22.992187-5.261719 44.992187-14.195313 65.144531-26.453125 4.304687-2.679688 8.6875-5.574219 12.902344-8.550782 3.851562-2.648437 9.113281-1.707031 11.808593 2.109376 2.695313 3.816406 1.820313 9.09375-1.964843 11.832031-4.484375 3.167969-9.152344 6.246093-13.808594 9.148437-21.738281 13.230469-45.46875 22.871094-70.273437 28.546875-.628907.148438-1.269532.21875-1.914063.21875zm0 0"/><path d="m145.078125 229.894531c-24.902344-.03125-46.179687-17.953125-50.445313-42.488281-4.261718-24.535156 9.722657-48.585938 33.152344-57.019531 2.617188-.855469 5.480469-.425781 7.734375 1.152343 2.25 1.582032 3.628907 4.132813 3.710938 6.882813.015625 3.835937-2.539063 7.207031-6.234375 8.230469-16.195313 6.09375-25.285156 23.324218-21.167969 40.125 4.117187 16.804687 20.140625 27.886718 37.3125 25.804687 17.175781-2.082031 30.089844-16.667969 30.070313-33.96875 0-4.714843 3.820312-8.535156 8.535156-8.535156 4.710937 0 8.53125 3.820313 8.53125 8.535156-.007813 28.285157-22.914063 51.226563-51.199219 51.28125zm0 0"/><path d="m187.734375 187.144531c-1.757813.003907-3.472656-.542969-4.90625-1.558593l-56.707031-39.984376c-3.195313-2.027343-4.671875-5.921874-3.621094-9.558593 1.050781-3.632813 4.371094-6.144531 8.15625-6.15625 1.789062 0 3.53125.542969 5 1.558593l57.003906 40.191407c3.042969 2.144531 4.34375 6.011719 3.214844 9.558593-1.125 3.546876-4.417969 5.953126-8.140625 5.949219zm0 0"/><path d="m281.609375 229.894531c-28.285156-.054687-51.191406-22.996093-51.199219-51.285156 0-4.710937 3.820313-8.53125 8.535156-8.53125 4.710938 0 8.53125 3.820313 8.53125 8.53125.019532 17.304687 12.980469 31.855469 30.164063 33.867187 17.1875 2.011719 33.160156-9.152343 37.171875-25.984374 4.015625-16.828126-5.199219-34-21.441406-39.960938-3.515625-1.144531-5.898438-4.414062-5.914063-8.113281.082031-2.75 1.457031-5.304688 3.710938-6.886719 2.25-1.582031 5.121093-2.003906 7.734375-1.144531 23.433594 8.429687 37.421875 32.480469 33.15625 57.019531-4.261719 24.535156-25.542969 42.457031-50.449219 42.488281zm0 0"/><path d="m238.953125 187.144531c-3.722656.003907-7.015625-2.402343-8.144531-5.949219-1.125-3.546874.175781-7.414062 3.21875-9.558593l57.003906-40.191407c2.574219-1.804687 5.933594-2.046874 8.742188-.636718 2.8125 1.410156 4.621093 4.25 4.714843 7.394531.089844 3.144531-1.550781 6.082031-4.273437 7.65625l-56.351563 39.730469c-1.433593 1.015625-3.152343 1.558594-4.910156 1.554687zm0 0"/><path d="m106.699219 85.429688c7.527343-6.097657 16.683593-9.84375 26.324219-10.777344 9.863281-1.140625 19.851562.285156 29 4.144531 8.988281 3.84375 17.023437 9.613281 23.542968 16.894531 3.125 3.53125 5.953125 7.308594 8.457032 11.300782 2.226562 4.0625 4.199218 8.253906 5.902343 12.558593.539063 1.363281.082031 2.917969-1.105469 3.777344-1.191406.859375-2.808593.800781-3.933593-.144531l-.304688-.253906c-3.421875-2.875-6.367187-5.949219-9.375-8.875-3.292969-2.617188-6.171875-5.59375-9.429687-7.972657-6.144532-4.851562-12.882813-8.90625-20.050782-12.058593-7.164062-2.863282-14.707031-4.667969-22.386718-5.363282-8.234375-.691406-16.519532-.511718-24.714844.539063l-.296875.03125c-.945313.109375-1.851563-.417969-2.226563-1.292969-.378906-.878906-.132812-1.894531.597657-2.507812zm0 0"/><path d="m318.132812 89.574219c-8.1875-1.109375-16.46875-1.359375-24.707031-.734375-7.691406.636718-15.246093 2.382812-22.429687 5.1875-7.195313 3.09375-13.964844 7.09375-20.152344 11.894531-3.273438 2.351563-6.175781 5.308594-9.492188 7.898437-3.03125 2.902344-6 5.949219-9.441406 8.796876l-.304687.253906c-1.132813.933594-2.753907.980468-3.9375.113281-1.183594-.863281-1.625-2.421875-1.078125-3.785156 1.738281-4.289063 3.742187-8.46875 6.003906-12.507813 2.535156-3.972656 5.394531-7.730468 8.546875-11.234375 6.578125-7.230469 14.660156-12.933593 23.675781-16.707031 9.179688-3.785156 19.179688-5.132812 29.03125-3.914062 9.636719 1.011718 18.757813 4.832031 26.238282 10.988281.722656.617187.957031 1.636719.578124 2.507812-.378906.871094-1.28125 1.394531-2.226562 1.285157zm0 0"/><path d="m256.011719 298.675781h-102.402344c-4.710937 0-8.53125-3.820312-8.53125-8.535156 0-4.710937 3.820313-8.53125 8.53125-8.53125h102.402344c4.710937-.007813 8.527343-3.824219 8.53125-8.535156v-8.53125c0-4.714844 3.820312-8.535157 8.535156-8.535157 4.710937 0 8.53125 3.820313 8.53125 8.535157v8.53125c-.015625 14.132812-11.464844 25.585937-25.597656 25.601562zm0 0"/><path d="m196.277344 332.808594h-8.53125c-4.714844 0-8.535156-3.820313-8.535156-8.535156 0-4.710938 3.820312-8.53125 8.535156-8.53125h8.53125c4.714844 0 8.535156 3.820312 8.535156 8.53125 0 4.714843-3.820312 8.535156-8.535156 8.535156zm0 0"/><path d="m443.746094 153.609375c-3.453125-.003906-6.5625-2.082031-7.882813-5.269531-1.320312-3.1875-.589843-6.859375 1.847657-9.296875 42.003906-42.003907 29.375-92.835938 20.730468-115.097657-25.160156 23.203126-56.535156 38.578126-90.289062 44.242188-4.625.597656-8.875-2.632812-9.539063-7.25-.664062-4.617188 2.507813-8.914062 7.113281-9.640625.566407-.085937 56.882813-8.664063 88.421876-48.085937 1.785156-2.207032 4.542968-3.394532 7.375-3.1718755 2.835937.2343755 5.363281 1.8710935 6.746093 4.3554685.457031.828125 45.054688 83.164063-18.492187 146.714844-1.597656 1.601563-3.769532 2.5-6.03125 2.5zm0 0"/><path d="m38.835938 149.683594c-2.398438.003906-4.6875-1.003906-6.300782-2.78125-57.488281-62.941406-14.824218-141.714844-14.386718-142.503906 1.382812-2.488282 3.910156-4.125 6.746093-4.3632818 2.835938-.2382812 5.605469.9531248 7.382813 3.1757818 22.566406 28.234374 57.425781 40.597656 76.191406 45.453124 3 .722657 5.375 3.003907 6.214844 5.96875.84375 2.964844.019531 6.15625-2.152344 8.34375s-5.355469 3.03125-8.328125 2.210938c-28.53125-6.953125-54.785156-21.160156-76.21875-41.238281-8.386719 21.617187-20.535156 70.179687 17.152344 111.445312 2.28125 2.496094 2.871093 6.105469 1.507812 9.199219s-4.425781 5.089844-7.808593 5.089844zm0 0"/></svg>