<svg height="512pt" viewBox="0 0 512.01888 512" width="512pt" xmlns="http://www.w3.org/2000/svg"><path d="m247.484375 8.558594c-101.269531-.015625-190.675781 66.109375-220.3125 162.949218-29.640625 96.835938 7.441406 201.675782 91.375 258.34375h.085937l69.121094 48.042969v8.53125c.027344 9.414063 7.652344 17.039063 17.066406 17.066407h145.066407c9.414062-.027344 17.039062-7.652344 17.066406-17.066407v-50.429687c.765625-.511719 1.535156-.941406 2.304687-1.453125 3.753907-2.386719 7.507813-4.863281 11.089844-7.421875.011719.089844.042969.175781.085938.253906 1.058594 2.222656 2.570312 4.199219 4.4375 5.804688.597656.597656 1.28125 1.277343 1.964844 1.875 1.257812 1.097656 2.597656 2.097656 4.007812 2.988281.6875.5625 1.429688 1.046875 2.21875 1.449219.800781.449218 1.628906.847656 2.476562 1.195312.6875.335938 1.402344.621094 2.132813.855469 1.109375.425781 2.21875.765625 3.328125 1.109375 2.8125.75 5.710938 1.121094 8.617188 1.109375 9.707031.011719 18.960937-4.117188 25.429687-11.351563 43.410156-48.574218 67.726563-111.242187 68.4375-176.382812 1.023437-76.800782-51.199219-247.46875-256-247.46875zm0 0" fill="#f0c419"/><path d="m78.011719 395.035156c-3.15625 4.011719-6.484375 7.933594-9.898438 11.773438-12.605469 13.949218-34.113281 15.082031-48.113281 2.539062-14-12.546875-15.226562-34.050781-2.742188-48.105468 7.546876-8.453126 14.371094-17.53125 20.394532-27.136719zm0 0" fill="#ff9801"/><path d="m503.484375 256.027344c-.710937 65.140625-25.027344 127.808594-68.4375 176.382812-6.46875 7.234375-15.722656 11.363282-25.429687 11.351563-2.90625.011719-5.804688-.359375-8.617188-1.109375-1.109375-.34375-2.21875-.683594-3.328125-1.109375-.730469-.234375-1.445313-.519531-2.132813-.855469-.847656-.347656-1.675781-.746094-2.476562-1.195312-.789062-.402344-1.53125-.886719-2.21875-1.449219-1.410156-.890625-2.75-1.890625-4.007812-2.988281-.683594-.597657-1.367188-1.277344-1.964844-1.875-1.867188-1.601563-3.378906-3.582032-4.4375-5.804688-.042969-.078125-.074219-.164062-.085938-.253906-3.582031 2.558594-7.335937 5.035156-11.089844 7.421875-.769531.511719-1.539062.941406-2.304687 1.453125-16.046875 9.765625-33.246094 17.507812-51.199219 23.039062-5.464844 1.707032-10.925781 3.15625-16.472656 4.4375h-.253906l-.339844-2.644531c-8.617188-20.695313-28.789062-34.210937-51.203125-34.304687h-8.53125c-20.351563.027343-38.765625 12.078124-46.933594 30.71875-.6875 1.617187-1.285156 3.269531-1.792969 4.949218-1.648437 5.042969-2.484374 10.3125-2.472656 15.617188v.085937l-28.078125-19.542969-41.042969-28.5h-.085937c-2.558594-1.707031-5.121094-3.5-7.59375-5.378906-80.199219-58.984375-113.429687-162.820312-82.378906-257.40625 31.054687-94.589844 119.355469-158.527344 218.910156-158.507812 204.800781 0 257.023437 170.667968 256 247.46875zm0 0" fill="#ffdc00"/><path d="m380.347656 427.121094c-3.582031 2.558594-7.335937 5.035156-11.089844 7.421875-13.527343-12.691407-14.472656-33.851563-2.136718-47.699219 26.3125-29.355469 43.144531-65.972656 48.292968-105.054688 1.207032-9.3125 9.132813-16.285156 18.523438-16.289062-2.128906 44.964844-19.699219 87.820312-49.746094 121.34375-9.945312 11.144531-11.5 27.453125-3.84375 40.277344zm0 0" fill="#fec108"/><path d="m247.484375 273.078125c-8.054687-10.746094-20.703125-17.066406-34.132813-17.066406-13.429687 0-26.074218 6.320312-34.132812 17.066406v51.199219c8.058594 10.742187 20.703125 17.066406 34.132812 17.066406 13.429688 0 26.078126-6.324219 34.132813-17.066406zm0 0" fill="#bb193b"/><path d="m179.21875 204.910156v255.917969l-19.542969-2.476563-41.042969-28.5h-.085937c-2.558594-1.707031-5.121094-3.5-7.59375-5.378906v-219.5625zm0 0" fill="#02a9f4"/><path d="m315.753906 204.910156v254.125c-5.464844 1.707032-2.988281 17.578125-8.535156 18.859375l-8.53125-8.535156-51.203125 17.066406c-7.082031-19.710937 22.1875-59.902343 0-59.902343v-221.613282zm0 0" fill="#02a9f4"/><path d="m154.898438 137.738281c17.339843 4.132813 30.273437 18.628907 32.414062 36.328125 2.140625 17.695313-6.964844 34.855469-22.824219 43.003906-15.855469 8.148438-35.105469 5.558594-48.25-6.484374-13.144531-12.042969-17.398437-31-10.660156-47.503907l22.441406-.921875zm0 0" fill="#f5f5f5"/><path d="m162.136719 187.726562c0-14.15625-11.453125-25.632812-25.585938-25.632812-14.128906 0-25.582031 11.476562-25.582031 25.632812s11.453125 25.632813 25.582031 25.632813c14.132813 0 25.585938-11.476563 25.585938-25.632813zm0 0" fill="#3f51b5"/><path d="m321.128906 163.082031c8.085938 19.792969.277344 42.515625-18.269531 53.152344-18.546875 10.640625-42.105469 5.914063-55.105469-11.058594-13.003906-16.972656-11.441406-40.949219 3.65625-56.089843 5.59375-5.628907 12.664063-9.5625 20.394532-11.347657l18.347656 24.421875zm0 0" fill="#f5f5f5"/><path d="m298.667969 187.726562c-.011719 12.214844-8.648438 22.722657-20.632813 25.097657-11.980468 2.371093-23.972656-4.050781-28.636718-15.335938-4.667969-11.289062-.710938-24.304687 9.449218-31.085937s23.695313-5.441406 32.328125 3.199218c4.808594 4.808594 7.503907 11.328126 7.492188 18.125zm0 0" fill="#3f51b5"/><path d="m162.152344 179.226562c0 4.710938-3.820313 8.535157-8.535156 8.535157-4.710938 0-8.53125-3.824219-8.53125-8.535157 0-4.710937 3.820312-8.535156 8.53125-8.535156 4.714843 0 8.535156 3.824219 8.535156 8.535156zm0 0" fill="#f5f5f5"/><path d="m298.6875 179.226562c0 4.710938-3.824219 8.535157-8.535156 8.535157-4.714844 0-8.535156-3.824219-8.535156-8.535157 0-4.710937 3.820312-8.535156 8.535156-8.535156 4.710937 0 8.535156 3.824219 8.535156 8.535156zm0 0" fill="#f5f5f5"/><path d="m192.019531 457.242188c-8.152343-18.652344-26.578125-30.703126-46.933593-30.695313h-8.535157c-28.292969.046875-51.207031 23.003906-51.199219 51.296875v8.550781c.019532 9.421875 7.644532 17.0625 17.066407 17.097657h145.066406zm0 0" fill="#3f51b5"/><path d="m366.953125 435.996094v50.429687c-.027344 9.414063-7.652344 17.039063-17.066406 17.066407h-145.066407c-9.414062-.027344-17.039062-7.652344-17.066406-17.066407v-8.617187c-.011718-5.304688.824219-10.574219 2.472656-15.617188.507813-1.679687 1.105469-3.332031 1.792969-4.949218 8.167969-18.640626 26.582031-30.691407 46.933594-30.71875h8.53125c22.414063.09375 42.585937 13.609374 51.203125 34.304687l.59375 2.644531c23.886719-5.472656 46.734375-14.75 67.671875-27.476562zm0 0" fill="#3f51b5"/><path d="m366.953125 435.996094v17.066406c-15.945313 9.6875-33.011719 17.390625-50.824219 22.933594-3.960937 1.199218-8.253906.449218-11.578125-2.019532-3.320312-2.46875-5.273437-6.367187-5.269531-10.503906 23.886719-5.472656 46.734375-14.75 67.671875-27.476562zm0 0" fill="#283593"/><path d="m503.484375 256.027344c-.710937 65.140625-25.027344 127.808594-68.4375 176.382812-6.46875 7.234375-15.722656 11.363282-25.429687 11.351563-2.90625.011719-5.804688-.359375-8.617188-1.109375-1.109375-.34375-2.21875-.683594-3.328125-1.109375-.300781-.0625-.589844-.179688-.851563-.34375 4.847657-1.878907 9.179688-4.894531 12.628907-8.789063 43.40625-48.574218 67.722656-111.242187 68.4375-176.382812 1.023437-74.921875-48.726563-239.277344-241.496094-247.125 3.671875-.257813 7.339844-.34375 11.09375-.34375 204.800781 0 257.023437 170.667968 256 247.46875zm0 0" fill="#fec108"/><path d="m366.953125 435.996094v50.429687c-.027344 9.414063-7.652344 17.039063-17.066406 17.066407h-25.601563c9.414063-.027344 17.039063-7.652344 17.066406-17.066407v-37.035156c8.808594-3.917969 17.359376-8.394531 25.601563-13.394531zm0 0" fill="#283593"/><path d="m349.886719 512.007812h-145.066407c-14.132812-.015624-25.585937-11.464843-25.601562-25.597656v-8.621094c-.007812-6.207031.96875-12.378906 2.902344-18.277343.574218-1.902344 1.253906-3.773438 2.03125-5.605469 9.507812-21.800781 31.015625-35.90625 54.800781-35.933594h8.53125c26.035156.019532 49.460937 15.820313 59.234375 39.953125 1.59375 4.4375-.710938 9.324219-5.144531 10.921875-4.4375 1.59375-9.328125-.710937-10.921875-5.148437-7.355469-17.332031-24.339844-28.609375-43.167969-28.660157h-8.53125c-16.96875.019532-32.320313 10.070313-39.117187 25.617188-.546876 1.292969-1.027344 2.613281-1.433594 3.957031-1.402344 4.253907-2.117188 8.703125-2.117188 13.179688v8.617187c.003906 4.714844 3.824219 8.53125 8.535156 8.535156h145.066407c4.710937-.003906 8.527343-3.820312 8.53125-8.535156v-50.429687c0-4.714844 3.820312-8.535157 8.535156-8.535157 4.710937 0 8.53125 3.820313 8.53125 8.535157v50.429687c-.015625 14.132813-11.46875 25.582032-25.597656 25.597656zm0 0"/><path d="m247.484375 512.007812h-145.066406c-14.140625-.023437-25.59375-11.492187-25.597657-25.632812v-8.546875c.011719-33.003906 26.730469-59.765625 59.730469-59.832031h8.535157c23.757812-.023438 45.265624 14.046875 54.757812 35.820312 1.878906 4.324219-.097656 9.351563-4.421875 11.230469-4.320313 1.878906-9.347656-.097656-11.226563-4.421875-6.785156-15.546875-22.148437-25.585938-39.109374-25.5625h-8.535157c-23.578125.054688-42.664062 19.183594-42.664062 42.765625v8.546875c-.007813 4.722656 3.8125 8.554688 8.53125 8.566406h145.066406c4.714844 0 8.535156 3.820313 8.535156 8.535156 0 4.710938-3.820312 8.53125-8.535156 8.53125zm0 0"/><path d="m42.6875 426.675781c-16.835938.007813-32.097656-9.882812-38.96875-25.246093-6.871094-15.367188-4.066406-33.335938 7.160156-45.878907 7.234375-8.097656 13.769532-16.789062 19.539063-25.988281 1.578125-2.664062 4.476562-4.265625 7.574219-4.179688 3.097656.082032 5.90625 1.839844 7.335937 4.585938 1.433594 2.746094 1.261719 6.054688-.441406 8.640625-6.28125 10.007813-13.390625 19.472656-21.257813 28.289063-9.398437 10.550781-8.519531 26.710937 1.964844 36.179687 10.683594 9.019531 26.542969 8.148437 36.175781-1.984375 3.265625-3.679688 6.484375-7.472656 9.53125-11.355469 2.917969-3.703125 8.285157-4.34375 11.988281-1.429687 3.707032 2.917968 4.34375 8.285156 1.429688 11.988281-3.265625 4.140625-6.699219 8.199219-10.214844 12.164063-8.109375 9.035156-19.675781 14.203124-31.816406 14.214843zm0 0"/><path d="m409.617188 452.277344c-16.832032.007812-32.09375-9.882813-38.964844-25.25-6.871094-15.363282-4.066406-33.335938 7.160156-45.875 28.703125-32.089844 45.511719-73.070313 47.597656-116.078125.335938-4.652344 4.265625-8.226563 8.933594-8.117188 4.707031.222657 8.339844 4.222657 8.117188 8.929688-2.28125 46.910156-20.613282 91.617187-51.917969 126.632812-9.386719 10.550781-8.5 26.699219 1.984375 36.164063 10.683594 9.011718 26.542968 8.140625 36.175781-1.992188 42.003906-47.050781 65.539063-107.726562 66.25-170.792968-1.121094-63.945313-26.054687-125.171876-69.925781-171.710938-43.941406-44.53125-103.675782-67.113281-177.542969-67.113281-97.453125-.011719-183.503906 63.578125-212.101563 156.746093-28.59375 93.164063 6.960938 194.082032 87.644532 248.742188 3.257812 1.984375 4.800781 5.890625 3.777344 9.566406-1.019532 3.675782-4.359376 6.222656-8.171876 6.238282h-.085937c-1.703125 0-3.363281-.507813-4.773437-1.460938-87.039063-58.769531-125.492188-167.488281-94.757813-267.910156 30.734375-100.425782 123.449219-169.00000025 228.46875-168.9882815 78.601563 0 142.421875 24.2890625 189.695313 72.1953125 47.367187 49.597656 74.121093 115.339844 74.839843 183.917969-.765625 67.199218-25.851562 131.839844-70.609375 181.96875-8.105468 9.019531-19.664062 14.175781-31.792968 14.1875zm0 0"/><path d="m299.277344 471.988281c-4.335938-.007812-7.976563-3.269531-8.460938-7.582031-.484375-4.308594 2.34375-8.296875 6.570313-9.265625 22.988281-5.265625 44.984375-14.195313 65.132812-26.453125 4.316407-2.683594 8.691407-5.582031 12.914063-8.554688 2.492187-1.757812 5.734375-2.050781 8.5-.773437 2.765625 1.28125 4.640625 3.941406 4.917968 6.976563.273438 3.035156-1.089843 5.988281-3.582031 7.746093-4.492187 3.167969-9.152343 6.246094-13.808593 9.140625-21.738282 13.234375-45.46875 22.875-70.273438 28.550782-.628906.144531-1.269531.21875-1.910156.214843zm0 0"/><path d="m145.085938 230.582031c-28.289063-.054687-51.195313-23-51.199219-51.285156-.027344-6.683594 1.265625-13.304687 3.808593-19.484375 1.824219-4.316406 6.792969-6.351562 11.125-4.558594 4.328126 1.796875 6.402344 6.746094 4.640626 11.089844-1.683594 4.109375-2.535157 8.511719-2.507813 12.953125 0 12.195313 6.503906 23.464844 17.066406 29.5625 10.558594 6.09375 23.570313 6.09375 34.132813 0 10.5625-6.097656 17.066406-17.367187 17.066406-29.5625.117188-15.855469-10.785156-29.671875-26.234375-33.242187-2.96875-.683594-5.351563-2.902344-6.242187-5.816407-.894532-2.917969-.164063-6.085937 1.917968-8.316406 2.078125-2.230469 5.1875-3.183594 8.160156-2.5 25.304688 5.984375 42.121094 29.96875 39.125 55.796875-2.996093 25.832031-24.855468 45.328125-50.859374 45.363281zm0 0"/><path d="m281.617188 230.582031c-26.035157.015625-47.949219-19.496093-50.945313-45.359375-2.996094-25.867187 13.878906-49.867187 39.230469-55.804687 2.972656-.679688 6.082031.28125 8.15625 2.515625 2.074218 2.234375 2.796875 5.40625 1.898437 8.320312-.898437 2.914063-3.28125 5.125-6.253906 5.804688-12.023437 2.894531-21.550781 12.050781-24.921875 23.949218-3.371094 11.902344-.058594 24.691407 8.664062 33.460938 13.511719 12.957031 34.835938 12.957031 48.347657 0 6.417969-6.402344 10.003906-15.105469 9.960937-24.171875.007813-4.457031-.851562-8.871094-2.527344-13-1.25-2.84375-.859374-6.140625 1.023438-8.613281 1.882812-2.46875 4.957031-3.722656 8.03125-3.269532 3.074219.453126 5.65625 2.542969 6.746094 5.449219 6.476562 15.808594 4.65625 33.804688-4.855469 47.996094-9.515625 14.1875-25.46875 22.707031-42.554687 22.722656zm0 0"/><path d="m181.402344 68.964844c-1.128906 9.378906-4.996094 18.21875-11.125 25.414062-6.09375 7.4375-13.914063 13.273438-22.78125 16.996094-8.753906 3.617188-18.160156 5.382812-27.628906 5.183594-4.582032-.113282-9.144532-.601563-13.648438-1.460938-4.375-1.078125-8.679688-2.441406-12.882812-4.070312-1.363282-.53125-2.195313-1.914063-2.027344-3.363282.167968-1.453124 1.296875-2.609374 2.742187-2.8125l.390625-.050781c4.316406-.597656 8.460938-.707031 12.542969-.976562 4.054687-.636719 8.085937-.753907 11.953125-1.507813 7.570312-1.199218 14.980469-3.246094 22.09375-6.097656 6.902344-3.058594 13.382812-6.988281 19.285156-11.691406 6.253906-5.054688 11.980469-10.730469 17.089844-16.941406l.191406-.230469c.609375-.726563 1.621094-.96875 2.496094-.597657.871094.367188 1.402344 1.261719 1.308594 2.207032zm0 0"/><path d="m249.488281 67.589844c5.109375 6.210937 10.835938 11.886718 17.089844 16.941406 5.902344 4.703125 12.382813 8.632812 19.28125 11.691406 7.113281 2.851563 14.523437 4.898438 22.097656 6.097656 3.863281.753907 7.894531.871094 11.949219 1.507813 4.082031.269531 8.226562.375 12.542969.976563l.386719.050781c1.445312.203125 2.578124 1.355469 2.746093 2.808593.167969 1.453126-.664062 2.835938-2.023437 3.367188-4.207032 1.628906-8.507813 2.992188-12.886719 4.070312-4.5.859376-9.066406 1.347657-13.648437 1.460938-9.464844.195312-18.871094-1.570312-27.625-5.183594-8.871094-3.722656-16.691407-9.558594-22.785157-17-6.125-7.191406-9.996093-16.03125-11.121093-25.410156-.097657-.941406.429687-1.835938 1.300781-2.207031.871093-.371094 1.882812-.132813 2.496093.585937zm0 0"/><path d="m112.445312 172.269531c-8.460937.144531-16.761718-2.332031-23.761718-7.089843-3.699219-2.863282-4.402344-8.179688-1.570313-11.90625 2.828125-3.730469 8.136719-4.480469 11.890625-1.683594 9.125 5.183594 20.332032 5.035156 29.320313-.378906 10.675781-4.574219 18.746093-13.679688 22.007812-24.828126.964844-4.53125 5.371094-7.464843 9.925781-6.605468 4.554688.859375 7.589844 5.195312 6.839844 9.769531-4.238281 16.480469-15.78125 30.117187-31.332031 37.019531-7.238281 3.660156-15.214844 5.609375-23.320313 5.703125zm0 0"/><path d="m314.261719 172.269531c-8.109375-.097656-16.089844-2.046875-23.324219-5.703125-15.550781-6.90625-27.089844-20.539062-31.328125-37.019531-.75-4.585937 2.3125-8.929687 6.882813-9.769531 4.570312-.835938 8.972656 2.136718 9.902343 6.691406 3.277344 11.109375 11.335938 20.179688 21.984375 24.742188 8.988282 5.433593 20.214844 5.574218 29.339844.371093 3.785156-2.738281 9.066406-1.949219 11.882812 1.777344 2.808594 3.707031 2.105469 8.984375-1.582031 11.820313-7 4.757812-15.296875 7.234374-23.757812 7.089843zm0 0"/><path d="m110.953125 432.992188c-4.714844 0-8.535156-3.820313-8.535156-8.53125v-219.5625c0-4.714844 3.820312-8.535157 8.535156-8.535157 4.710937 0 8.53125 3.820313 8.53125 8.535157v219.5625c0 4.710937-3.820313 8.53125-8.53125 8.53125zm0 0"/><path d="m179.21875 448.007812c-4.710938 0-8.53125-3.820312-8.53125-8.53125v-234.582031c0-4.710937 3.820312-8.53125 8.53125-8.53125 4.714844 0 8.535156 3.820313 8.535156 8.53125v234.582031c0 4.710938-3.820312 8.53125-8.535156 8.53125zm0 0"/><path d="m247.484375 435.125c-2.253906.019531-4.421875-.859375-6.023437-2.445312-1.601563-1.585938-2.503907-3.746094-2.507813-6v-221.78125c0-4.714844 3.820313-8.535157 8.53125-8.535157 4.714844 0 8.535156 3.820313 8.535156 8.535157v221.609374c.007813 4.730469-3.804687 8.578126-8.535156 8.617188zm0 0"/><path d="m315.753906 467.550781c-4.714844 0-8.535156-3.820312-8.535156-8.53125v-254.125c0-4.710937 3.820312-8.53125 8.535156-8.53125 4.710938 0 8.53125 3.820313 8.53125 8.53125v254.125c0 4.710938-3.820312 8.53125-8.53125 8.53125zm0 0"/><path d="m145.085938 435.0625c-4.714844 0-8.535157-3.820312-8.535157-8.53125v-42.523438c0-4.710937 3.820313-8.53125 8.535157-8.53125 4.710937 0 8.53125 3.820313 8.53125 8.53125v42.523438c0 4.710938-3.820313 8.53125-8.53125 8.53125zm0 0"/><path d="m145.085938 332.808594c-4.714844 0-8.535157-3.820313-8.535157-8.53125v-51.203125c0-4.710938 3.820313-8.53125 8.535157-8.53125 4.710937 0 8.53125 3.820312 8.53125 8.53125v51.203125c0 4.710937-3.820313 8.53125-8.53125 8.53125zm0 0"/><path d="m281.617188 366.941406c-4.710938 0-8.53125-3.820312-8.53125-8.53125v-93.867187c0-4.714844 3.820312-8.535157 8.53125-8.535157 4.714843 0 8.535156 3.820313 8.535156 8.535157v93.867187c0 4.710938-3.820313 8.53125-8.535156 8.53125zm0 0"/><path d="m281.617188 443.742188c-4.710938 0-8.53125-3.820313-8.53125-8.53125v-25.601563c0-4.710937 3.820312-8.535156 8.53125-8.535156 4.714843 0 8.535156 3.824219 8.535156 8.535156v25.601563c0 4.710937-3.820313 8.53125-8.535156 8.53125zm0 0"/><path d="m213.351562 349.875c-16.097656-.046875-31.246093-7.621094-40.949218-20.46875-1.925782-2.429688-2.386719-5.714844-1.195313-8.578125 1.1875-2.863281 3.835938-4.855469 6.917969-5.207031 3.082031-.347656 6.109375 1 7.910156 3.527344 6.449219 8.597656 16.570313 13.660156 27.316406 13.660156 10.75 0 20.871094-5.0625 27.316407-13.660156 1.800781-2.527344 4.828125-3.875 7.910156-3.527344 3.082031.351562 5.730469 2.34375 6.917969 5.207031 1.191406 2.863281.734375 6.148437-1.195313 8.578125-9.699219 12.847656-24.851562 20.421875-40.949219 20.46875zm0 0"/><path d="m247.492188 281.609375c-2.683594.003906-5.214844-1.257813-6.824219-3.402344-6.449219-8.601562-16.570313-13.664062-27.316407-13.664062-10.75 0-20.871093 5.0625-27.316406 13.664062-1.800781 2.523438-4.828125 3.871094-7.910156 3.523438-3.082031-.347657-5.730469-2.34375-6.921875-5.207031-1.1875-2.863282-.730469-6.148438 1.199219-8.574219 9.667968-12.890625 24.835937-20.472657 40.949218-20.472657 16.109376 0 31.28125 7.582032 40.949219 20.472657 1.945313 2.582031 2.265625 6.042969.824219 8.9375s-4.398438 4.722656-7.632812 4.722656zm0 0"/></svg>