<svg height="512pt" viewBox="0 0 512.01331 512" width="512pt" xmlns="http://www.w3.org/2000/svg"><path d="m78.007812 395.015625c-3.15625 4.007813-6.484374 7.933594-9.898437 11.773437-12.605469 13.949219-34.113281 15.082032-48.113281 2.535157-14.003906-12.542969-15.230469-34.046875-2.746094-48.101563 7.550781-8.453125 14.375-17.53125 20.394531-27.136718zm0 0" fill="#ff9801"/><path d="m247.480469 8.539062c-101.273438-.015624-190.675781 66.109376-220.316407 162.949219-29.636718 96.835938 7.445313 201.675781 91.378907 258.34375h.082031l69.121094 48.042969v8.53125c.027344 9.414062 7.652344 17.039062 17.066406 17.066406h145.066406c9.414063-.027344 17.039063-7.652344 17.066406-17.066406v-50.429688c.769532-.515624 1.539063-.941406 2.304688-1.453124 3.753906-2.390626 7.511719-4.863282 11.09375-7.421876.011719.089844.039062.175782.085938.253907 1.058593 2.222656 2.566406 4.199219 4.4375 5.804687.597656.597656 1.28125 1.277344 1.960937 1.875 1.257813 1.097656 2.601563 2.097656 4.011719 2.988282.6875.5625 1.429687 1.046874 2.21875 1.449218.800781.449219 1.625.847656 2.476562 1.195313.6875.335937 1.402344.621093 2.132813.851562 1.109375.429688 2.21875.769531 3.328125 1.109375 2.808594.753906 5.707031 1.125 8.617187 1.109375 9.707031.015625 18.957031-4.113281 25.429688-11.347656 43.40625-48.574219 67.722656-111.242187 68.4375-176.382813 1.023437-76.800781-51.199219-247.46875-256-247.46875zm0 0" fill="#f0c419"/><path d="m503.480469 256.007812c-.714844 65.140626-25.03125 127.808594-68.4375 176.382813-6.472657 7.234375-15.722657 11.363281-25.429688 11.347656-2.910156.015625-5.808593-.355469-8.617187-1.109375-1.109375-.339844-2.21875-.679687-3.328125-1.109375-.730469-.230469-1.445313-.515625-2.132813-.851562-.851562-.347657-1.675781-.746094-2.476562-1.195313-.789063-.402344-1.53125-.886718-2.21875-1.449218-1.410156-.890626-2.753906-1.890626-4.011719-2.988282-.679687-.597656-1.363281-1.277344-1.960937-1.875-1.871094-1.605468-3.378907-3.582031-4.4375-5.804687-.046876-.078125-.074219-.164063-.085938-.253907-3.582031 2.558594-7.339844 5.03125-11.09375 7.421876-.765625.511718-1.535156.9375-2.304688 1.453124-20.9375 12.726563-43.785156 22.003907-67.667968 27.476563h-.257813l-.339843-2.644531c-8.613282-20.695313-28.785157-34.210938-51.199219-34.304688h-8.535157c-20.351562.027344-38.761718 12.078125-46.933593 30.71875-.683594 1.617188-1.28125 3.269532-1.789063 4.949219-1.652344 5.039063-2.488281 10.3125-2.476562 15.617187v.085938l-69.121094-48.042969h-.082031c-83.933594-56.667969-121.015625-161.507812-91.378907-258.34375 29.640626-96.839843 119.042969-162.964843 220.316407-162.949219 204.800781 0 257.023437 170.667969 256 247.46875zm0 0" fill="#ffdc00"/><path d="m380.34375 427.101562c-3.582031 2.558594-7.339844 5.03125-11.09375 7.421876-13.523438-12.691407-14.46875-33.851563-2.132812-47.699219 26.3125-29.355469 43.144531-65.972657 48.292968-105.054688 1.203125-9.3125 9.132813-16.285156 18.523438-16.289062-2.132813 44.964843-19.703125 87.820312-49.75 121.34375-9.945313 11.140625-11.5 27.453125-3.839844 40.277343zm0 0" fill="#fec108"/><path d="m192.011719 457.222656c-8.148438-18.652344-26.578125-30.703125-46.933594-30.695312h-8.53125c-28.296875.046875-51.207031 23-51.199219 51.296875v8.550781c.019532 9.421875 7.640625 17.0625 17.066406 17.097656h145.066407zm0 0" fill="#3f51b5"/><path d="m366.945312 435.976562v50.429688c-.027343 9.414062-7.652343 17.039062-17.066406 17.066406h-145.066406c-9.414062-.027344-17.039062-7.652344-17.066406-17.066406v-8.617188c-.011719-5.304687.824218-10.578124 2.476562-15.617187.507813-1.679687 1.105469-3.332031 1.789063-4.949219 8.171875-18.640625 26.582031-30.691406 46.933593-30.71875h8.535157c22.414062.09375 42.585937 13.609375 51.199219 34.304688l.597656 2.644531c23.882812-5.472656 46.730468-14.75 67.667968-27.476563zm0 0" fill="#3f51b5"/><path d="m380.429688 427.355469c1.300781 2.066406 2.785156 4.007812 4.4375 5.804687-1.871094-1.605468-3.378907-3.582031-4.4375-5.804687zm0 0" fill="#f0c419"/><path d="m366.945312 435.976562v17.066407c-15.941406 9.6875-33.007812 17.390625-50.820312 22.933593-3.960938 1.199219-8.257812.449219-11.578125-2.019531s-5.277344-6.367187-5.269531-10.503906c23.882812-5.472656 46.730468-14.75 67.667968-27.476563zm0 0" fill="#283593"/><path d="m397.667969 220.515625c12.910156 17.230469 9.410156 41.667969-7.816407 54.582031-17.230468 12.914063-41.667968 9.414063-54.582031-7.816406-12.914062-17.234375-10.886719-79.542969-10.886719-79.542969s60.371094 15.546875 73.285157 32.777344zm0 0" fill="#0377bc"/><path d="m383.578125 211.878906c9.242187 14.546875 5.730469 33.757813-8.0625 44.09375-13.789063 10.335938-33.210937 8.3125-44.578125-4.640625-10.089844-13.460937-6.554688-63.59375-6.554688-63.59375s49.109376 10.683594 59.195313 24.140625zm0 0" fill="#02a9f4"/><path d="m24.445312 222.566406c-13.722656 18.308594-10.003906 44.273438 8.308594 57.996094 18.308594 13.71875 44.273438 10 57.992188-8.308594 13.714844-18.308594 11.5625-84.515625 11.5625-84.515625s-64.144532 16.519531-77.863282 34.828125zm0 0" fill="#0377bc"/><path d="m39.679688 213.417969c-10.53125 15.214843-6.761719 36.082031 8.425781 46.652343 14.410156 11.609376 35.496093 9.371094 47.140625-5.007812 10.695312-14.269531 7.0625-67.324219 7.0625-67.324219s-51.9375 11.410157-62.628906 25.679688zm0 0" fill="#02a9f4"/><path d="m145.078125 264.539062h136.535156c4.710938 0 8.535157 3.820313 8.535157 8.535157v8.53125c0 42.417969-34.386719 76.800781-76.800782 76.800781-42.417968 0-76.800781-34.382812-76.800781-76.800781v-8.53125c0-4.714844 3.820313-8.535157 8.53125-8.535157zm0 0" fill="#bb193b"/><path d="m288.269531 298.671875c-7.992187 34.945313-39.074219 59.730469-74.921875 59.734375-2.882812.003906-5.757812-.167969-8.621094-.511719 0 0 0 .085938-.082031 0-2.816406-.339843-5.632812-.769531-8.363281-1.363281v-15.191406c.007812-23.558594 19.105469-42.65625 42.664062-42.667969zm0 0" fill="#ad1457"/><path d="m271.203125 298.671875c-7.28125 31.886719-33.964844 55.65625-66.476563 59.222656 0 0 0 .085938-.082031 0-2.816406-.339843-5.632812-.769531-8.363281-1.363281v-15.191406c.007812-23.558594 19.105469-42.65625 42.664062-42.667969zm0 0" fill="#e91e63"/><path d="m366.945312 435.976562v50.429688c-.027343 9.414062-7.652343 17.039062-17.066406 17.066406h-25.597656c9.414062-.027344 17.039062-7.652344 17.066406-17.066406v-37.035156c8.808594-3.917969 17.359375-8.394532 25.597656-13.394532zm0 0" fill="#283593"/><path d="m503.480469 256.007812c-.714844 65.140626-25.03125 127.808594-68.4375 176.382813-6.472657 7.234375-15.722657 11.363281-25.429688 11.347656-2.910156.015625-5.808593-.355469-8.617187-1.109375-1.109375-.339844-2.21875-.679687-3.328125-1.109375-.304688-.058593-.59375-.175781-.855469-.339843 4.851562-1.878907 9.183594-4.894532 12.628906-8.789063 43.410156-48.574219 67.726563-111.242187 68.4375-176.382813 1.023438-74.921874-48.722656-239.277343-241.492187-247.125 3.667969-.257812 7.339843-.34375 11.09375-.34375 204.800781 0 257.023437 170.667969 256 247.46875zm0 0" fill="#fec108"/><path d="m349.878906 512.007812h-145.066406c-14.132812-.015624-25.582031-11.46875-25.597656-25.601562v-8.617188c-.011719-6.210937.96875-12.378906 2.898437-18.28125.578125-1.902343 1.257813-3.773437 2.035157-5.601562 9.503906-21.800781 31.015624-35.910156 54.796874-35.9375h8.535157c26.035156.019531 49.457031 15.820312 59.234375 39.949219 1.59375 4.4375-.710938 9.328125-5.148438 10.921875-4.433594 1.59375-9.324218-.707032-10.917968-5.144532-7.355469-17.332031-24.339844-28.609374-43.167969-28.660156h-8.535157c-16.964843.019532-32.316406 10.070313-39.117187 25.613282-.546875 1.292968-1.023437 2.613281-1.433594 3.957031-1.398437 4.253906-2.113281 8.703125-2.113281 13.183593v8.617188c.003906 4.710938 3.820312 8.53125 8.53125 8.535156h145.066406c4.710938-.003906 8.53125-3.824218 8.535156-8.535156v-50.429688c0-4.714843 3.820313-8.535156 8.53125-8.535156 4.714844 0 8.535157 3.820313 8.535157 8.535156v50.429688c-.015625 14.132812-11.46875 25.585938-25.601563 25.601562zm0 0"/><path d="m247.480469 512.007812h-145.066407c-14.140624-.027343-25.59375-11.492187-25.601562-25.632812v-8.550781c.011719-33 26.734375-59.765625 59.734375-59.832031h8.53125c23.757813-.023438 45.265625 14.046874 54.761719 35.824218 1.878906 4.320313-.101563 9.347656-4.421875 11.226563-4.324219 1.882812-9.351563-.097657-11.230469-4.417969-6.785156-15.546875-22.144531-25.589844-39.109375-25.5625h-8.53125c-23.578125.050781-42.664063 19.179688-42.667969 42.761719v8.550781c-.003906 4.71875 3.8125 8.550781 8.535156 8.566406h145.066407c4.710937 0 8.53125 3.820313 8.53125 8.53125 0 4.714844-3.820313 8.535156-8.53125 8.535156zm0 0"/><path d="m42.679688 426.671875c-16.832032.003906-32.089844-9.886719-38.960938-25.25s-4.070312-33.332031 7.152344-45.875c7.234375-8.09375 13.773437-16.789063 19.542968-25.984375 1.585938-2.652344 4.480469-4.238281 7.566407-4.148438 3.085937.089844 5.886719 1.839844 7.316406 4.578126 1.429687 2.734374 1.269531 6.03125-.417969 8.617187-6.277344 10.007813-13.390625 19.472656-21.257812 28.285156-9.398438 10.554688-8.515625 26.714844 1.976562 36.183594 10.683594 9.011719 26.535156 8.136719 36.164063-1.992187 3.269531-3.679688 6.488281-7.480469 9.542969-11.359376 1.863281-2.464843 4.914062-3.730468 7.976562-3.308593 3.0625.425781 5.65625 2.46875 6.78125 5.347656s.605469 6.140625-1.359375 8.527344c-3.257813 4.136719-6.691406 8.191406-10.210937 12.160156-8.105469 9.035156-19.671876 14.207031-31.8125 14.21875zm0 0"/><path d="m409.613281 452.273438c-16.832031.007812-32.097656-9.882813-38.96875-25.25-6.871093-15.363282-4.066406-33.335938 7.160157-45.875 28.707031-32.089844 45.511718-73.070313 47.601562-116.074219.316406-4.667969 4.257812-8.25 8.933594-8.121094 4.707031.222656 8.339844 4.222656 8.113281 8.929687-2.28125 46.914063-20.609375 91.617188-51.914063 126.632813-9.386718 10.554687-8.5 26.703125 1.992188 36.164063 10.679688 9.011718 26.535156 8.136718 36.164062-1.992188 42.011719-47.046875 65.546876-107.722656 66.25-170.792969-1.121093-63.945312-26.054687-125.171875-69.921874-171.710937-43.945313-44.53125-103.675782-67.109375-177.542969-67.109375-122.429688.175781-221.648438 99.355469-221.867188 221.785156v.082031c-.007812 4.074219-2.890625 7.582032-6.890625 8.371094s-8.003906-1.355469-9.558594-5.121094c-.515624-1.246094-.726562-2.59375-.617187-3.933594.566406-131.613281 107.320313-238.058593 238.933594-238.2499995 78.597656 0 142.421875 24.2851565 189.695312 72.1914065 47.367188 49.597656 74.117188 115.339843 74.835938 183.921875-.757813 67.195312-25.839844 131.84375-70.605469 181.964844-8.109375 9.019531-19.664062 14.175781-31.792969 14.1875zm0 0"/><path d="m118.625 438.363281c-1.726562 0-3.417969-.507812-4.863281-1.460937-59.699219-40.113282-98.054688-105.074219-104.332031-176.726563-.417969-4.695312 3.046874-8.839843 7.742187-9.257812 4.691406-.417969 8.839844 3.046875 9.257813 7.742187 5.816406 66.40625 41.308593 126.632813 96.582031 163.898438 3.269531 1.976562 4.820312 5.886718 3.796875 9.5625-1.019532 3.679687-4.363282 6.230468-8.183594 6.242187zm0 0"/><path d="m299.269531 471.984375c-4.335937-.007813-7.976562-3.269531-8.460937-7.582031-.484375-4.308594 2.34375-8.296875 6.570312-9.269532 22.992188-5.261718 44.984375-14.191406 65.132813-26.453124 4.308593-2.683594 8.691406-5.574219 12.917969-8.554688 2.488281-1.851562 5.785156-2.207031 8.609374-.929688 2.828126 1.273438 4.738282 3.984376 4.992188 7.074219.253906 3.09375-1.1875 6.078125-3.769531 7.796875-4.488281 3.171875-9.140625 6.246094-13.808594 9.152344-21.734375 13.230469-45.464844 22.871094-70.273437 28.550781-.625.144531-1.265626.21875-1.910157.214844zm0 0"/><path d="m92.042969 118.421875c6.253906-19.335937 21.539062-34.414063 40.960937-40.402344 9.910156-3.117187 20.507813-3.320312 30.53125-.585937 4.84375 1.191406 9.519532 2.996094 13.910156 5.363281 4.1875 2.433594 8.15625 5.21875 11.867188 8.332031 1.140625.910156 1.515625 2.480469.90625 3.804688-.609375 1.328125-2.042969 2.070312-3.476562 1.796875l-.566407-.113281c-4.519531-.867188-8.597656-2.398438-12.777343-3.273438-4.0625-.894531-8.175782-1.515625-12.320313-1.847656-7.851563-.824219-15.785156-.042969-23.324219 2.300781-15.75 5.824219-30.082031 14.933594-42.039062 26.726563l-.15625.136718c-.894532.792969-2.269532.710938-3.0625-.1875-.488282-.5625-.660156-1.332031-.453125-2.050781zm0 0"/><path d="m330.976562 120.523438c-11.957031-11.792969-26.289062-20.902344-42.042968-26.722657-7.535156-2.34375-15.472656-3.128906-23.320313-2.304687-4.144531.335937-8.261719.953125-12.320312 1.847656-4.179688.875-8.257813 2.40625-12.777344 3.277344l-.5625.105468c-1.433594.277344-2.871094-.460937-3.484375-1.789062-.609375-1.328125-.234375-2.898438.910156-3.808594 3.710938-3.113281 7.679688-5.898437 11.867188-8.332031 4.390625-2.367187 9.0625-4.171875 13.910156-5.363281 10.023438-2.734375 20.621094-2.53125 30.53125.585937 19.421875 5.992188 34.707031 21.066407 40.960938 40.40625.273437.925781-.101563 1.917969-.914063 2.4375-.808594.519531-1.867187.441407-2.59375-.191406zm0 0"/><path d="m187.746094 196.273438c-2.261719.003906-4.433594-.898438-6.03125-2.5-10.105469-9.039063-23.085938-14.199219-36.636719-14.566407-13.5625.289063-26.570313 5.460938-36.632813 14.566407-3.347656 3.234374-8.667968 3.1875-11.960937-.105469-3.292969-3.289063-3.339844-8.613281-.105469-11.960938 13.289063-12.269531 30.617188-19.234375 48.699219-19.566406 18.085937.332031 35.414063 7.296875 48.703125 19.566406 2.4375 2.441407 3.167969 6.109375 1.847656 9.296875-1.320312 3.191406-4.429687 5.269532-7.882812 5.269532zm0 0"/><path d="m324.28125 196.273438c-2.265625.003906-4.4375-.898438-6.035156-2.5-10.101563-9.039063-23.082032-14.199219-36.632813-14.566407-13.566406.289063-26.574219 5.460938-36.632812 14.566407-3.347657 3.234374-8.671875 3.1875-11.964844-.105469-3.289063-3.289063-3.335937-8.613281-.101563-11.960938 27.226563-26.089843 70.171876-26.089843 97.398438 0 2.441406 2.441407 3.171875 6.109375 1.847656 9.296875-1.320312 3.191406-4.429687 5.269532-7.878906 5.269532zm0 0"/><path d="m213.347656 366.941406c-47.105468-.054687-85.28125-38.230468-85.335937-85.335937v-8.53125c.011719-9.421875 7.648437-17.058594 17.066406-17.066407h136.535156c9.421875.007813 17.054688 7.644532 17.066407 17.066407v8.53125c-.054688 47.105469-38.226563 85.28125-85.332032 85.335937zm-68.269531-93.867187v8.53125c0 37.703125 30.566406 68.269531 68.269531 68.269531s68.265625-30.566406 68.265625-68.269531v-8.53125zm0 0"/><path d="m196.28125 365.0625c-4.714844 0-8.535156-3.820312-8.535156-8.53125v-15.191406c.03125-28.265625 22.9375-51.167969 51.199218-51.199219h49.324219c4.710938 0 8.53125 3.820313 8.53125 8.53125 0 4.714844-3.820312 8.535156-8.53125 8.535156h-49.324219c-18.84375.019531-34.113281 15.289063-34.132812 34.132813v15.191406c0 4.710938-3.820312 8.53125-8.53125 8.53125zm0 0"/><path d="m366.5625 291.421875c-2.285156 0-4.570312-.164063-6.832031-.488281-12.488281-1.753906-23.757813-8.433594-31.292969-18.542969-14-18.679687-12.941406-74.023437-12.582031-84.933594.082031-2.585937 1.335937-4.996093 3.40625-6.550781 2.070312-1.550781 4.734375-2.078125 7.242187-1.433594 10.566406 2.722656 63.984375 17.238282 77.984375 35.925782 10.777344 14.386718 12.519531 33.625 4.492188 49.710937-8.023438 16.089844-24.441407 26.269531-42.417969 26.3125zm-33.800781-92.503906c.070312 23.105469 2.417969 54.015625 9.335937 63.242187 10.140625 13.285156 29.09375 15.917969 42.46875 5.894532 13.378906-10.023438 16.175782-28.953126 6.273438-42.417969h-.011719c-6.914063-9.246094-35.914063-20.167969-58.066406-26.71875zm0 0"/><path d="m57.527344 297.351562c-18.90625-.015624-36.183594-10.707031-44.632813-27.621093-8.449219-16.917969-6.621093-37.152344 4.726563-52.277344 15.082031-20.125 75.699218-36.207031 82.566406-37.972656 2.507812-.648438 5.171875-.121094 7.242188 1.433593 2.074218 1.554688 3.324218 3.964844 3.40625 6.554688.234374 7.082031 1.816406 69.777344-13.257813 89.902344-9.453125 12.601562-24.296875 20.007812-40.050781 19.980468zm36.410156-98.441406c-23.699219 6.96875-55.167969 18.773438-62.660156 28.777344h-.007813c-10.894531 14.539062-7.9375 35.15625 6.601563 46.050781 14.539062 10.890625 35.15625 7.9375 46.050781-6.601562 7.492187-10 9.984375-43.527344 10.015625-68.226563zm0 0"/></svg>