<svg height="512pt" viewBox="0 0 512.01888 512" width="512pt" xmlns="http://www.w3.org/2000/svg"><path d="m247.484375 8.570312c-101.269531-.015624-190.675781 66.109376-220.3125 162.945313-29.640625 96.839844 7.441406 201.675781 91.375 258.34375h.085937l69.121094 48.042969v8.53125c.027344 9.414062 7.652344 17.039062 17.066406 17.070312h145.066407c9.414062-.03125 17.039062-7.65625 17.066406-17.070312v-50.429688c.765625-.511718 1.535156-.9375 2.304687-1.449218 3.753907-2.390626 7.507813-4.867188 11.089844-7.425782.011719.089844.042969.175782.085938.253906 1.058594 2.226563 2.570312 4.203126 4.4375 5.804688.597656.597656 1.28125 1.28125 1.964844 1.878906 1.257812 1.09375 2.597656 2.09375 4.007812 2.984375.6875.5625 1.429688 1.046875 2.21875 1.453125.800781.449219 1.628906.847656 2.476562 1.191406.6875.335938 1.402344.621094 2.132813.855469 1.109375.425781 2.21875.765625 3.328125 1.109375 2.8125.75 5.710938 1.125 8.617188 1.109375 9.707031.011719 18.960937-4.117187 25.429687-11.351562 43.410156-48.574219 67.726563-111.242188 68.4375-176.382813 1.023437-76.800781-51.199219-247.464844-256-247.464844zm0 0" fill="#955ba5"/><path d="m503.484375 256.035156c-.710937 65.140625-25.027344 127.808594-68.4375 176.382813-6.46875 7.234375-15.722656 11.363281-25.429687 11.351562-2.90625.015625-5.804688-.359375-8.617188-1.109375-1.109375-.34375-2.21875-.683594-3.328125-1.109375-.730469-.234375-1.445313-.519531-2.132813-.855469-.847656-.34375-1.675781-.742187-2.476562-1.191406-.789062-.40625-1.53125-.890625-2.21875-1.453125-1.410156-.890625-2.75-1.890625-4.007812-2.984375-.683594-.597656-1.367188-1.28125-1.964844-1.878906-1.867188-1.601562-3.378906-3.578125-4.4375-5.804688-.042969-.078124-.074219-.164062-.085938-.253906-3.582031 2.558594-7.335937 5.035156-11.089844 7.425782-.769531.511718-1.539062.9375-2.304687 1.449218-20.9375 12.726563-43.785156 22.003906-67.671875 27.476563h-.253906l-.339844-2.644531c-8.617188-20.691407-28.789062-34.207032-51.203125-34.304688h-8.53125c-20.351563.027344-38.765625 12.082031-46.933594 30.71875-.6875 1.617188-1.285156 3.269531-1.792969 4.949219-1.648437 5.042969-2.484374 10.3125-2.472656 15.617187v.085938l-69.121094-48.042969h-.085937c-83.933594-56.667969-121.015625-161.503906-91.375-258.34375 29.636719-96.835937 119.042969-162.960937 220.3125-162.945313 45.90625-1.109374 91.335937 9.492188 132.011719 30.804688 40.125 22.144531 72.679687 55.824219 93.441406 96.683594 19.523438 37.011718 29.992188 78.132812 30.546875 119.976562zm0 0" fill="#9d27b0"/><g fill="#6a1b9a"><path d="m503.484375 256.035156c-.710937 65.140625-25.027344 127.808594-68.4375 176.382813-6.46875 7.234375-15.722656 11.363281-25.429687 11.351562-2.90625.015625-5.804688-.359375-8.617188-1.109375-1.109375-.34375-2.21875-.683594-3.328125-1.109375-.300781-.0625-.589844-.175781-.851563-.34375 4.847657-1.878906 9.179688-4.890625 12.628907-8.789062 43.40625-48.574219 67.722656-111.242188 68.4375-176.382813 1.023437-74.921875-48.726563-239.273437-241.496094-247.125 3.671875-.257812 7.339844-.339844 11.09375-.339844 204.800781 0 257.023437 170.664063 256 247.464844zm0 0"/><path d="m78.011719 395.042969c-3.15625 4.011719-6.484375 7.9375-9.898438 11.777343-12.605469 13.945313-34.113281 15.078126-48.113281 2.535157-14-12.546875-15.226562-34.046875-2.742188-48.105469 7.546876-8.453125 14.371094-17.53125 20.394532-27.132812zm0 0"/><path d="m38.84375 141.160156c-54.015625-59.136718-13.226562-132.609375-13.226562-132.609375 24.152343 30.210938 61.269531 43.351563 80.726562 48.386719zm0 0"/><path d="m380.347656 427.128906c-3.582031 2.558594-7.335937 5.035156-11.089844 7.425782-13.527343-12.695313-14.472656-33.855469-2.136718-47.703126 26.3125-29.355468 43.144531-65.96875 48.292968-105.054687 1.207032-9.3125 9.132813-16.285156 18.523438-16.289063-2.128906 44.964844-19.699219 87.820313-49.746094 121.34375-9.945312 11.144532-11.5 27.453126-3.84375 40.277344zm0 0"/></g><path d="m192.019531 457.25c-8.152343-18.648438-26.578125-30.703125-46.933593-30.695312h-8.535157c-28.292969.046874-51.207031 23.003906-51.199219 51.296874v8.550782c.019532 9.421875 7.644532 17.0625 17.066407 17.101562h145.066406zm0 0" fill="#3f51b5"/><path d="m366.953125 436.003906v50.429688c-.027344 9.414062-7.652344 17.039062-17.066406 17.070312h-145.066407c-9.414062-.03125-17.039062-7.65625-17.066406-17.070312v-8.617188c-.011718-5.304687.824219-10.574218 2.472656-15.617187.507813-1.679688 1.105469-3.332031 1.792969-4.949219 8.167969-18.636719 26.582031-30.691406 46.933594-30.71875h8.53125c22.414063.097656 42.585937 13.613281 51.203125 34.304688l.59375 2.644531c23.886719-5.472657 46.734375-14.75 67.671875-27.476563zm0 0" fill="#3f51b5"/><path d="m380.433594 427.382812c1.300781 2.066407 2.785156 4.007813 4.4375 5.804688-1.867188-1.601562-3.378906-3.578125-4.4375-5.804688zm0 0" fill="#f0c419"/><path d="m366.953125 436.003906v17.066406c-15.945313 9.6875-33.011719 17.390626-50.824219 22.9375-3.960937 1.195313-8.253906.445313-11.578125-2.023437-3.320312-2.46875-5.273437-6.363281-5.269531-10.503906 23.886719-5.472657 46.734375-14.75 67.671875-27.476563zm0 0" fill="#283593"/><path d="m472.9375 136.058594c-4.960938 7.609375-10.710938 14.671875-17.152344 21.074218-3.3125 3.308594-7.835937 5.113282-12.511718 4.992188-4.679688-.125-9.105469-2.160156-12.234376-5.640625l-76.765624-85.257813c-4.222657-4.695312-5.515626-11.332031-3.363282-17.265624 2.152344-5.933594 7.402344-10.199219 13.652344-11.089844 5.042969-.867188 10.03125-2.035156 14.933594-3.496094 40.125 22.144531 72.679687 55.824219 93.441406 96.683594zm0 0" fill="#6a1b9a"/><path d="m426.6875 170.703125-11.949219-14.335937-73.386719-88.066407s62.378907-12.457031 101.804688-42.75c6.53125-4.949219 12.460938-10.648437 17.664062-16.980469 0 0 51.199219 80.125-34.132812 162.132813zm0 0" fill="#6a1b9a"/><path d="m418.152344 187.769531-76.800782-119.46875s62.378907-12.457031 101.804688-42.75c9.214844 25.515625 21.332031 108.117188-25.003906 162.21875zm0 0" fill="#9d27b0"/><path d="m130.664062 138.429688h.085938l57.003906 40.191406c-.019531 21.667968-16.273437 39.878906-37.800781 42.351562-21.523437 2.472656-41.484375-11.578125-46.414063-32.679687-4.929687-21.097657 6.734376-42.539063 27.125-49.863281zm0 0" fill="#f5f5f5"/><path d="m324.285156 178.636719c0 23.566406-19.101562 42.667969-42.667968 42.667969-23.5625 0-42.664063-19.101563-42.664063-42.667969l9.640625-6.824219 25.855469-18.175781 21.503906-15.191407h.085937c16.972657 6.070313 28.285157 22.167969 28.246094 40.191407zm0 0" fill="#f5f5f5"/><path d="m162.105469 179.234375c0-14.136719-11.441407-25.597656-25.554688-25.597656-14.109375 0-25.550781 11.460937-25.550781 25.597656 0 14.140625 11.441406 25.601563 25.550781 25.601563 14.113281 0 25.554688-11.460938 25.554688-25.601563zm0 0" fill="#3f51b5"/><path d="m298.6875 179.234375c0 14.140625-11.464844 25.601563-25.601562 25.601563-14.140626 0-25.601563-11.460938-25.601563-25.601563.015625-2.515625.390625-5.011719 1.109375-7.421875l25.855469-18.175781c13.621093.691406 24.292969 11.960937 24.238281 25.597656zm0 0" fill="#3f51b5"/><path d="m153.617188 162.167969c0 4.714843-3.820313 8.535156-8.53125 8.535156-4.714844 0-8.535157-3.820313-8.535157-8.535156 0-4.710938 3.820313-8.53125 8.535157-8.53125 4.710937 0 8.53125 3.820312 8.53125 8.53125zm0 0" fill="#f5f5f5"/><path d="m290.152344 162.167969c0 4.714843-3.820313 8.535156-8.535156 8.535156-4.710938 0-8.53125-3.820313-8.53125-8.535156 0-4.710938 3.820312-8.53125 8.53125-8.53125 4.714843 0 8.535156 3.820312 8.535156 8.53125zm0 0" fill="#f5f5f5"/><path d="m187.753906 256.019531h51.199219c18.851563 0 34.132813 15.28125 34.132813 34.132813v25.777344c0 18.851562-15.28125 34.132812-34.132813 34.132812h-51.199219c-18.851562 0-34.136718-15.28125-34.136718-34.132812v-25.777344c0-18.851563 15.285156-34.132813 34.136718-34.132813zm0 0" fill="#bb193b"/><path d="m273.085938 298.789062v17.148438c.003906 9.054688-3.59375 17.738281-9.996094 24.140625s-15.085938 9.996094-24.136719 9.996094h-25.601563v-17.066407c-.019531-9.070312 3.566407-17.769531 9.96875-24.191406 6.40625-6.417968 15.097657-10.027344 24.164063-10.027344zm0 0" fill="#ad1457"/><path d="m256.019531 298.789062v17.148438c0 9.054688-3.59375 17.738281-9.996093 24.140625-6.402344 6.402344-15.085938 9.996094-24.136719 9.996094h-8.535157v-17.066407c-.019531-9.070312 3.566407-17.769531 9.96875-24.191406 6.40625-6.417968 15.097657-10.027344 24.164063-10.027344zm0 0" fill="#e91e63"/><path d="m366.953125 436.003906v50.429688c-.027344 9.414062-7.652344 17.039062-17.066406 17.070312h-25.601563c9.414063-.03125 17.039063-7.65625 17.066406-17.070312v-37.03125c8.808594-3.921875 17.359376-8.394532 25.601563-13.398438zm0 0" fill="#283593"/><path d="m349.886719 512.019531h-145.066407c-14.132812-.015625-25.585937-11.46875-25.601562-25.601562v-8.617188c-.007812-6.210937.96875-12.378906 2.902344-18.28125.574218-1.902343 1.253906-3.773437 2.03125-5.601562 9.507812-21.800781 31.015625-35.90625 54.800781-35.9375h8.53125c26.035156.023437 49.460937 15.820312 59.234375 39.953125 1.59375 4.4375-.710938 9.328125-5.144531 10.921875-4.4375 1.59375-9.328125-.710938-10.921875-5.148438-7.355469-17.332031-24.339844-28.609375-43.167969-28.660156h-8.53125c-16.96875.019531-32.320313 10.070313-39.117187 25.617187-.546876 1.292969-1.027344 2.617188-1.433594 3.960938-1.402344 4.25-2.117188 8.699219-2.117188 13.175781v8.621094c.003906 4.710937 3.824219 8.527344 8.535156 8.53125h145.066407c4.710937-.003906 8.527343-3.820313 8.53125-8.53125v-50.433594c0-4.710937 3.820312-8.53125 8.535156-8.53125 4.710937 0 8.53125 3.820313 8.53125 8.53125v50.433594c-.015625 14.128906-11.46875 25.582031-25.597656 25.597656zm0 0"/><path d="m247.484375 512.019531h-145.066406c-14.140625-.027343-25.59375-11.492187-25.597657-25.632812v-8.550781c.011719-33 26.730469-59.765626 59.730469-59.828126h8.535157c23.757812-.027343 45.265624 14.042969 54.757812 35.820313 1.878906 4.320313-.097656 9.347656-4.421875 11.226563-4.320313 1.882812-9.347656-.097657-11.226563-4.417969-6.785156-15.546875-22.148437-25.589844-39.109374-25.5625h-8.535157c-23.578125.050781-42.664062 19.183593-42.664062 42.761719v8.550781c-.007813 4.71875 3.8125 8.550781 8.53125 8.566406h145.066406c4.714844 0 8.535156 3.820313 8.535156 8.53125 0 4.714844-3.820312 8.535156-8.535156 8.535156zm0 0"/><path d="m42.6875 426.683594c-16.835938.007812-32.097656-9.882813-38.96875-25.246094-6.871094-15.367188-4.066406-33.335938 7.160156-45.878906 7.234375-8.09375 13.769532-16.789063 19.539063-25.984375 1.578125-2.667969 4.476562-4.269531 7.574219-4.183594 3.097656.082031 5.90625 1.839844 7.335937 4.585937 1.433594 2.75 1.261719 6.054688-.441406 8.640626-6.28125 10.011718-13.390625 19.472656-21.257813 28.289062-9.398437 10.550781-8.519531 26.710938 1.964844 36.179688 10.683594 9.019531 26.542969 8.148437 36.175781-1.984376 3.265625-3.679687 6.484375-7.46875 9.53125-11.355468 2.917969-3.703125 8.285157-4.34375 11.988281-1.429688 3.707032 2.917969 4.34375 8.285156 1.429688 11.988282-3.265625 4.144531-6.699219 8.203124-10.214844 12.164062-8.109375 9.035156-19.675781 14.203125-31.816406 14.214844zm0 0"/><path d="m409.617188 452.285156c-16.832032.007813-32.09375-9.882812-38.964844-25.25-6.871094-15.363281-4.066406-33.332031 7.160156-45.875 28.703125-32.089844 45.511719-73.070312 47.597656-116.074218.308594-4.671876 4.257813-8.257813 8.933594-8.121094 4.707031.226562 8.339844 4.222656 8.117188 8.929687-2.28125 46.914063-20.613282 91.621094-51.917969 126.632813-9.386719 10.554687-8.5 26.703125 1.984375 36.164062 10.683594 9.011719 26.542968 8.140625 36.175781-1.988281 42.011719-47.046875 65.546875-107.726563 66.25-170.796875-.765625-46.789062-14.210937-92.492188-38.902344-132.246094-2.492187-4-1.273437-9.265625 2.726563-11.757812 4-2.496094 9.265625-1.273438 11.757812 2.726562 26.371094 42.542969 40.707032 91.445313 41.484375 141.492188-.757812 67.199218-25.84375 131.851562-70.609375 181.972656-8.105468 9.023438-19.660156 14.179688-31.792968 14.191406zm0 0"/><path d="m118.632812 438.378906h-.085937c-1.703125 0-3.363281-.511718-4.773437-1.464844-87.039063-58.765624-125.492188-167.484374-94.757813-267.910156 30.734375-100.421875 123.449219-168.99999975 228.46875-168.9843748 60.933594 0 113.425781 14.8281248 156.042969 44.0820308 3.882812 2.671876 4.867187 7.984376 2.199218 11.867188-2.667968 3.882812-7.980468 4.871094-11.867187 2.199219-39.707031-27.257813-88.957031-41.082031-146.375-41.082031-97.453125-.015626-183.503906 63.578124-212.101563 156.742187-28.59375 93.164063 6.960938 194.082031 87.644532 248.746094 3.257812 1.980469 4.800781 5.886719 3.777344 9.5625-1.019532 3.675781-4.359376 6.222656-8.171876 6.242187zm0 0"/><path d="m299.277344 471.996094c-4.335938-.007813-7.976563-3.269532-8.460938-7.578125-.484375-4.3125 2.34375-8.296875 6.570313-9.269531 22.988281-5.261719 44.984375-14.195313 65.132812-26.453126 4.316407-2.683593 8.691407-5.578124 12.914063-8.554687 2.492187-1.757813 5.734375-2.050781 8.5-.769531 2.765625 1.277344 4.640625 3.9375 4.917968 6.972656.273438 3.039062-1.089843 5.988281-3.582031 7.746094-4.492187 3.167968-9.152343 6.246094-13.808593 9.140625-21.738282 13.234375-45.46875 22.875-70.273438 28.550781-.628906.148438-1.269531.21875-1.910156.214844zm0 0"/><path d="m443.753906 153.617188c-3.453125 0-6.5625-2.078126-7.882812-5.265626-1.320313-3.1875-.589844-6.859374 1.847656-9.300781 42.007812-42.003906 29.375-92.832031 20.738281-115.09375-25.164062 23.203125-56.539062 38.578125-90.296875 44.242188-4.625.597656-8.875-2.632813-9.539062-7.25-.664063-4.621094 2.507812-8.914063 7.113281-9.644531.566406-.082032 56.882813-8.660157 88.417969-48.082032 1.757812-2.25 4.542968-3.449218 7.382812-3.175781 2.832032.242187 5.359375 1.875 6.742188 4.359375.457031.824219 45.054687 83.164062-18.492188 146.710938-1.597656 1.605468-3.769531 2.503906-6.03125 2.5zm0 0"/><path d="m38.84375 149.695312c-2.394531 0-4.683594-1.007812-6.296875-2.78125-57.496094-62.941406-14.828125-141.714843-14.386719-142.503906 1.378906-2.488281 3.90625-4.125 6.742188-4.363281 2.839844-.257813 5.617187.9375 7.382812 3.175781 22.574219 28.238282 57.425782 40.597656 76.191406 45.453125 4.5625 1.179688 7.308594 5.832031 6.128907 10.394531-1.175781 4.5625-5.832031 7.308594-10.394531 6.128907-28.535157-6.949219-54.789063-21.15625-76.21875-41.238281-8.390626 21.617187-20.539063 70.179687 17.152343 111.445312 2.28125 2.496094 2.871094 6.101562 1.507813 9.195312-1.363282 3.09375-4.425782 5.09375-7.808594 5.09375zm0 0"/><path d="m145.085938 229.90625c-24.902344-.035156-46.179688-17.953125-50.441407-42.488281-4.265625-24.53125 9.710938-48.582031 33.140625-57.019531 2.617188-.863282 5.484375-.4375 7.742188 1.144531 2.253906 1.582031 3.628906 4.136719 3.707031 6.886719.019531 3.847656-2.546875 7.222656-6.257813 8.238281-16.183593 6.101562-25.261718 23.335937-21.140624 40.132812 4.125 16.800781 20.144531 27.875 37.320312 25.789063 17.171875-2.085938 30.078125-16.667969 30.0625-33.96875 0-4.710938 3.820312-8.53125 8.535156-8.53125 4.710938 0 8.53125 3.820312 8.53125 8.53125-.007812 28.289062-22.914062 51.230468-51.199218 51.285156zm0 0"/><path d="m106.707031 85.441406c7.527344-6.097656 16.683594-9.84375 26.324219-10.777344 9.863281-1.144531 19.851562.285157 29 4.144532 8.988281 3.84375 17.023438 9.609375 23.542969 16.894531 3.125 3.527344 5.953125 7.308594 8.457031 11.300781 2.226562 4.058594 4.199219 8.253906 5.902344 12.558594.539062 1.363281.082031 2.917969-1.105469 3.777344-1.191406.855468-2.8125.796875-3.933594-.144532l-.308593-.253906c-3.417969-2.875-6.363282-5.949218-9.371094-8.875-3.296875-2.617187-6.175782-5.597656-9.429688-7.976562-6.144531-4.851563-12.882812-8.902344-20.050781-12.054688-7.164063-2.863281-14.707031-4.667968-22.386719-5.363281-8.234375-.691406-16.519531-.511719-24.714844.535156l-.296874.035157c-.570313.0625-1.140626-.101563-1.589844-.457032-.449219-.355468-.734375-.878906-.800782-1.445312-.074218-.722656.210938-1.429688.761719-1.898438zm0 0"/><path d="m238.953125 358.597656h-51.199219c-23.554687-.027344-42.640625-19.113281-42.667968-42.667968v-25.777344c.027343-23.554688 19.113281-42.640625 42.667968-42.667969h51.199219c23.550781.027344 42.636719 19.113281 42.664063 42.667969v25.777344c-.027344 23.554687-19.113282 42.640624-42.664063 42.667968zm-51.199219-94.046875c-14.132812.015625-25.585937 11.46875-25.601562 25.601563v25.777344c.015625 14.132812 11.46875 25.585937 25.601562 25.601562h51.199219c14.132813-.015625 25.582031-11.46875 25.597656-25.601562v-25.777344c-.015625-14.132813-11.464843-25.585938-25.597656-25.601563zm0 0"/><path d="m213.351562 358.597656c-4.710937 0-8.53125-3.820312-8.53125-8.535156v-17.097656c.007813-23.570313 19.09375-42.6875 42.664063-42.730469h25.601563c4.710937 0 8.53125 3.820313 8.53125 8.535156 0 4.710938-3.820313 8.53125-8.53125 8.53125h-25.601563c-14.148437.035157-25.601563 11.515625-25.597656 25.664063v17.097656c0 4.714844-3.820313 8.535156-8.535157 8.535156zm0 0"/><path d="m187.742188 187.15625c-1.757813 0-3.472657-.542969-4.90625-1.558594l-56.695313-39.976562c-3.203125-2.019532-4.6875-5.914063-3.644531-9.554688 1.046875-3.644531 4.375-6.15625 8.164062-6.167968 1.785156 0 3.53125.542968 5.007813 1.558593l57 40.191407c3.042969 2.144531 4.34375 6.011718 3.21875 9.558593s-4.421875 5.953125-8.144531 5.949219zm0 0"/><path d="m281.617188 229.90625c-28.285157-.054688-51.191407-22.996094-51.199219-51.285156 0-4.714844 3.820312-8.535156 8.535156-8.535156 4.710937 0 8.53125 3.820312 8.53125 8.535156.019531 17.300781 12.980469 31.851562 30.164063 33.863281 17.183593 2.011719 33.15625-9.148437 37.171874-25.980469 4.015626-16.828125-5.195312-34-21.433593-39.960937-3.519531-1.140625-5.90625-4.414063-5.917969-8.113281.082031-2.75 1.460938-5.300782 3.714844-6.882813s5.117187-2.007813 7.734375-1.148437c23.433593 8.433593 37.414062 32.484374 33.148437 57.019531-4.265625 24.535156-25.542968 42.457031-50.449218 42.488281zm0 0"/><path d="m318.136719 89.585938c-8.1875-1.113282-16.46875-1.359376-24.710938-.734376-7.6875.632813-15.242187 2.378907-22.425781 5.183594-7.195312 3.097656-13.964844 7.097656-20.148438 11.898438-3.273437 2.351562-6.175781 5.308594-9.492187 7.898437-3.03125 2.902344-6 5.949219-9.441406 8.796875l-.304688.25c-1.132812.933594-2.75.980469-3.933593.117188-1.183594-.867188-1.628907-2.425782-1.082032-3.785156 1.738282-4.289063 3.746094-8.46875 6.003906-12.507813 2.535157-3.976563 5.390626-7.730469 8.546876-11.234375 6.574218-7.230469 14.660156-12.933594 23.675781-16.707031 9.179687-3.785157 19.179687-5.132813 29.03125-3.914063 9.636719 1.011719 18.761719 4.832032 26.238281 10.988282.722656.617187.957031 1.632812.578125 2.507812-.378906.871094-1.28125 1.390625-2.226563 1.285156zm0 0"/><path d="m238.960938 187.15625c-3.722657.003906-7.015626-2.402344-8.144532-5.949219-1.125-3.546875.175782-7.414062 3.21875-9.558593l57.003906-40.191407c2.578126-1.824219 5.953126-2.078125 8.777344-.660156 2.824219 1.417969 4.636719 4.277344 4.714844 7.433594.074219 3.160156-1.59375 6.101562-4.34375 7.660156l-56.320312 39.707031c-1.433594 1.015625-3.148438 1.558594-4.90625 1.558594zm0 0"/></svg>