<svg height="512pt" viewBox="0 0 512 512" width="512pt" xmlns="http://www.w3.org/2000/svg"><path d="m76.953125 250.453125-34.21875 14.675781 19.199219 48.640625-29.097656 19.199219-21.84375-55.292969c-6.867188-17.15625 1.25-36.648437 18.257812-43.863281l44.546875-19.113281c1.417969-.597657 2.910156-.996094 4.4375-1.195313zm0 0" fill="#ff5722"/><path d="m434.972656 250.453125 34.21875 14.675781-19.199218 48.640625 29.097656 19.199219 21.84375-55.292969c6.867187-17.15625-1.25-36.648437-18.261719-43.863281l-44.542969-19.113281c-1.417968-.597657-2.910156-.996094-4.4375-1.195313zm0 0" fill="#ff5722"/><path d="m366.746094 87.28125c21.332031-4.199219 34.21875-9.503906 34.21875-15.367188 0-13.152343-64.941406-23.769531-145.066406-23.769531-80.128907 0-145.066407 10.617188-145.066407 23.769531 0 5.863282 12.882813 11.167969 34.21875 15.367188l-30.976562 31.769531c-43.351563-11.566406-70.570313-28.441406-70.570313-47.136719 0-35.019531 95.316406-63.378906 212.90625-63.378906 117.503906 0 212.820313 28.359375 212.820313 63.378906 0 18.859376-27.5625 35.730469-71.339844 47.296876zm0 0" fill="#ffeb3a"/><path d="m469.230469 71.914062c0 18.859376-27.5625 35.730469-71.339844 47.296876l-5.886719-6.019532c32.171875-11.011718 51.625-25.429687 51.625-41.277344 0-33.75-88.488281-61.320312-200.019531-63.222656 4.179687-.15625 8.449219-.15625 12.800781-.15625 117.503906 0 212.820313 28.359375 212.820313 63.378906zm0 0" fill="#fdd834"/><path d="m435.097656 238.933594c.929688 65.347656-29.976562 127.0625-82.859375 165.460937l-97.28125 72.535157-12.714843-9.644532-82.6875-62.890625c-16.207032-11.371093-30.496094-25.253906-42.324219-41.128906l-22.613281-38.65625c-10.3125-23.453125-16.296876-48.574219-17.664063-74.15625-.171875-3.839844-.257813-7.679687-.257813-11.519531-.007812-8.5.503907-16.992188 1.539063-25.429688 10.835937-91.820312 79.613281-163.753906 164.863281-170.238281 4.265625-.429687 8.53125-.597656 12.800782-.597656 98.984374 0 179.199218 87.890625 179.199218 196.265625zm0 0" fill="#fec108"/><path d="m409.496094 238.933594c.929687 65.347656-29.976563 127.0625-82.859375 165.460937l-84.394531 62.890625-82.6875-62.890625c-16.207032-11.371093-30.496094-25.253906-42.324219-41.128906l-22.613281-38.65625c-10.3125-23.453125-16.296876-48.574219-17.664063-74.15625-.171875-3.839844-.257813-7.679687-.257813-11.519531-.007812-8.5.503907-16.992188 1.539063-25.429688 10.835937-91.820312 79.613281-163.753906 164.863281-170.238281 93.011719 7.082031 166.398438 91.988281 166.398438 195.667969zm0 0" fill="#ffdc00"/><path d="m255.898438 460.800781v25.597657c-.027344 9.414062-7.652344 17.039062-17.066407 17.066406h-102.402343c-9.414063-.027344-17.039063-7.652344-17.066407-17.066406v-25.597657c-.066406-31.34375 24.195313-57.363281 55.46875-59.476562 1.414063-.171875 2.839844-.257813 4.265625-.257813h17.066406c15.84375-.011718 31.046876 6.277344 42.25 17.484375 11.203126 11.203125 17.496094 26.402344 17.484376 42.25zm0 0" fill="#283593"/><path d="m230.296875 460.800781v25.597657c-.027344 9.414062-7.652344 17.039062-17.066406 17.066406h-76.800781c-9.414063-.027344-17.039063-7.652344-17.066407-17.066406v-25.597657c-.066406-31.34375 24.195313-57.363281 55.46875-59.476562 31.269531 2.113281 55.535157 28.132812 55.464844 59.476562zm0 0" fill="#3f51b5"/><path d="m392.429688 460.800781v25.597657c-.027344 9.414062-7.652344 17.039062-17.066407 17.066406h-102.398437c-9.414063-.027344-17.039063-7.652344-17.066406-17.066406v-25.597657c-.070313-31.34375 24.195312-57.363281 55.464843-59.476562 1.417969-.171875 2.839844-.257813 4.265625-.257813h17.066406c15.847657-.011718 31.046876 6.277344 42.253907 17.484375 11.203125 11.203125 17.492187 26.402344 17.480469 42.25zm0 0" fill="#283593"/><path d="m366.832031 460.800781v25.597657c-.027343 9.414062-7.652343 17.039062-17.066406 17.066406h-76.800781c-9.414063-.027344-17.039063-7.652344-17.066406-17.066406v-25.597657c-.070313-31.34375 24.195312-57.363281 55.464843-59.476562 31.273438 2.113281 55.535157 28.132812 55.46875 59.476562zm0 0" fill="#3f51b5"/><path d="m105.75 335.789062c-16.804688-22.015624-45.03125-28.722656-63.046875-14.972656-18.011719 13.75-18.996094 42.746094-2.191406 64.765625 16.804687 22.015625 45.035156 28.722657 63.046875 14.972657 18.015625-13.75 19-42.746094 2.191406-64.765626zm0 0" fill="#ff9801"/><path d="m471.449219 385.621094c-11.785157 17.347656-33.222657 25.382812-53.503907 20.054687-3.453124-1.15625-6.683593-2.890625-9.558593-5.121093-18.003907-13.738282-19.027344-42.753907-2.21875-64.769532 7.015625-9.398437 16.761719-16.402344 27.90625-20.050781 11.847656-4.179687 24.992187-2.265625 35.15625 5.117187 18.003906 13.742188 18.945312 42.667969 2.21875 64.769532zm0 0" fill="#f57c00"/><path d="m445.847656 385.621094c-7.03125 9.382812-16.769531 16.378906-27.902344 20.054687-3.453124-1.15625-6.683593-2.890625-9.558593-5.121093-18.003907-13.738282-19.027344-42.753907-2.21875-64.769532 7.015625-9.398437 16.761719-16.402344 27.90625-20.050781 3.449219 1.15625 6.679687 2.886719 9.554687 5.117187 18.007813 13.742188 18.945313 42.667969 2.21875 64.769532zm0 0" fill="#ff9801"/><path d="m159.546875 412.929688c-1.742187 0-3.441406-.539063-4.871094-1.539063-16.957031-11.882813-31.902343-26.402344-44.273437-43.007813-2.828125-3.769531-2.0625-9.117187 1.707031-11.945312s9.121094-2.0625 11.949219 1.707031c11.28125 15.152344 24.910156 28.402344 40.378906 39.253907 3.054688 2.132812 4.371094 6.003906 3.253906 9.558593-1.117187 3.554688-4.414062 5.972657-8.140625 5.972657zm0 0"/><path d="m352.246094 412.929688c-3.726563.003906-7.027344-2.414063-8.148438-5.96875-1.121094-3.558594.195313-7.429688 3.253906-9.5625 15.570313-10.882813 29.257813-24.238282 40.511719-39.542969 2.804688-3.765625 8.125-4.554688 11.90625-1.769531 3.777344 2.785156 4.597657 8.101562 1.832031 11.894531-12.359374 16.800781-27.382812 31.464843-44.480468 43.410156-1.425782 1-3.128906 1.535156-4.875 1.539063zm0 0"/><path d="m417.089844 333.316406c-2.886719-.003906-5.578125-1.46875-7.148438-3.890625-1.570312-2.425781-1.8125-5.476562-.640625-8.117187 9.980469-22.535156 15.753907-46.707032 17.023438-71.320313.160156-3.632812.238281-7.339843.238281-11.054687.007812-8.148438-.480469-16.289063-1.46875-24.378906-10.972656-93.148438-83.707031-163.355469-169.195312-163.355469-85.488282 0-158.226563 70.207031-169.1875 163.304687-.996094 8.105469-1.488282 16.265625-1.480469 24.429688 0 3.714844.082031 7.429687.246093 11.140625 1.304688 24.527343 7.046876 48.613281 16.949219 71.089843 1.230469 2.789063.878907 6.023438-.917969 8.484376-1.800781 2.460937-4.777343 3.773437-7.808593 3.445312s-5.660157-2.25-6.890625-5.039062c-10.742188-24.386719-16.96875-50.523438-18.378906-77.132813-.179688-4.050781-.265626-8.023437-.265626-11.988281-.007812-8.851563.527344-17.695313 1.605469-26.480469 11.960938-101.636719 91.984375-178.320313 186.128907-178.320313 94.140624 0 174.164062 76.683594 186.136718 178.371094 1.070313 8.769532 1.605469 17.59375 1.59375 26.429688 0 3.964844-.085937 7.933594-.261718 11.898437-1.375 26.71875-7.640626 52.957031-18.476563 77.417969-1.371094 3.082031-4.425781 5.066406-7.800781 5.066406zm0 0"/><path d="m238.832031 512h-102.402343c-14.132813-.015625-25.582032-11.46875-25.597657-25.601562v-25.597657c.042969-37.683593 30.582031-68.222656 68.265625-68.265625h17.066406c37.683594.042969 68.222657 30.582032 68.265626 68.265625v25.597657c-.015626 14.132812-11.46875 25.585937-25.597657 25.601562zm-59.734375-102.398438c-28.265625.03125-51.167968 22.933594-51.199218 51.199219v25.597657c.003906 4.710937 3.820312 8.527343 8.53125 8.535156h102.402343c4.707031-.007813 8.527344-3.824219 8.53125-8.535156v-25.597657c-.03125-28.265625-22.933593-51.167969-51.199219-51.199219zm0 0"/><path d="m255.898438 477.867188h-136.535157c-4.710937 0-8.53125-3.820313-8.53125-8.535157 0-4.710937 3.820313-8.53125 8.53125-8.53125h136.535157c4.710937 0 8.53125 3.820313 8.53125 8.53125 0 4.714844-3.820313 8.535157-8.53125 8.535157zm0 0"/><path d="m375.363281 512h-102.398437c-14.132813-.015625-25.585938-11.46875-25.601563-25.601562v-25.597657c.042969-37.683593 30.582031-68.222656 68.265625-68.265625h17.066406c37.6875.042969 68.226563 30.582032 68.269532 68.265625v25.597657c-.015625 14.132812-11.46875 25.585937-25.601563 25.601562zm-59.734375-102.398438c-28.261718.03125-51.167968 22.933594-51.199218 51.199219v25.597657c.007812 4.710937 3.824218 8.527343 8.535156 8.535156h102.398437c4.710938-.007813 8.527344-3.824219 8.535157-8.535156v-25.597657c-.03125-28.265625-22.9375-51.167969-51.203126-51.199219zm0 0"/><path d="m392.429688 477.867188h-136.53125c-4.714844 0-8.535157-3.820313-8.535157-8.535157 0-4.710937 3.820313-8.53125 8.535157-8.53125h136.53125c4.714843 0 8.535156 3.820313 8.535156 8.53125 0 4.714844-3.820313 8.535157-8.535156 8.535157zm0 0"/><path d="m81.796875 416.246094c-4.105469-.011719-8.195313-.503906-12.1875-1.464844-14.367187-3.644531-27.039063-12.132812-35.878906-24.027344-9.140625-11.667968-13.980469-26.125-13.707031-40.945312.074218-13.96875 6.519531-27.144532 17.503906-35.773438 11.230468-8.316406 25.632812-11.058594 39.128906-7.449218 14.367188 3.648437 27.039062 12.132812 35.878906 24.03125 9.144532 11.667968 13.984375 26.125 13.710938 40.945312-.074219 13.972656-6.523438 27.144531-17.507813 35.773438-7.746093 5.875-17.222656 9.007812-26.941406 8.910156zm-17.242187-94.039063c-6-.09375-11.863282 1.800781-16.671876 5.398438-6.878906 5.554687-10.855468 13.941406-10.800781 22.78125-.144531 10.882812 3.464844 21.480469 10.214844 30.015625 6.453125 8.765625 15.722656 15.042968 26.257813 17.777344 8.515624 2.382812 17.652343.757812 24.824218-4.40625 6.882813-5.558594 10.859375-13.941407 10.804688-22.785157.144531-10.882812-3.460938-21.484375-10.214844-30.019531v-.003906c-6.453125-8.761719-15.726562-15.039063-26.257812-17.773438-2.671876-.644531-5.410157-.976562-8.15625-.988281zm0 0"/><path d="m24.898438 336.109375-21.84375-55.296875c-8.59375-21.445312 1.554687-45.828125 22.828124-54.835938l44.550782-19.117187c2.175781-.914063 4.464844-1.53125 6.808594-1.828125l1.992187 16.949219c-.746094.105469-1.476563.308593-2.171875.605469l-44.441406 19.070312c-12.753906 5.402344-18.84375 20.015625-13.695313 32.878906l21.851563 55.292969zm0 0"/><path d="m54 316.902344-19.203125-48.636719c-1.691406-4.296875.335937-9.15625 4.578125-10.976563l34.21875-14.675781 6.722656 15.679688-26.601562 11.410156 16.15625 40.933594zm0 0"/><path d="m430.128906 416.246094c-9.71875.097656-19.199218-3.035156-26.945312-8.910156-10.984375-8.632813-17.429688-21.804688-17.503906-35.773438-.277344-14.820312 4.566406-29.28125 13.707031-40.949219 8.84375-11.894531 21.515625-20.378906 35.882812-24.027343 13.484375-3.816407 27.984375-1.058594 39.125 7.445312 11.144531 8.503906 17.628907 21.761719 17.507813 35.777344.175781 30.417968-20.203125 57.121094-49.589844 64.972656-3.988281.960938-8.078125 1.453125-12.183594 1.464844zm17.238282-94.039063c-2.746094.011719-5.484376.34375-8.15625.988281-10.535157 2.734376-19.804688 9.011719-26.257813 17.773438v.007812c-6.753906 8.53125-10.359375 19.128907-10.21875 30.011719-.296875 8.894531 3.726563 17.382813 10.800781 22.785157 7.074219 5.398437 16.328125 7.042968 24.828125 4.410156 21.484375-5.976563 36.378907-25.496094 36.476563-47.792969.050781-8.839844-3.921875-17.226563-10.800782-22.78125-4.804687-3.597656-10.667968-5.496094-16.667968-5.40625zm0 0"/><path d="m487.027344 336.109375-15.875-6.277344 21.847656-55.296875c5.152344-12.859375-.9375-27.484375-13.695312-32.886718l-44.539063-19.109376c-.664063-.273437-1.359375-.460937-2.070313-.5625l2-16.949218c2.300782.292968 4.550782.890625 6.691407 1.785156l44.65625 19.160156c21.277343 9.011719 31.425781 33.394532 22.828125 54.84375zm0 0"/><path d="m457.925781 316.902344-15.871093-6.265625 16.160156-40.933594-26.601563-11.40625 6.726563-15.683594 34.21875 14.675781c4.238281 1.820313 6.265625 6.683594 4.574218 10.976563zm0 0"/><path d="m162.023438 204.800781c-3.148438-.003906-6.035157-1.738281-7.519532-4.511719-1.480468-2.773437-1.316406-6.136718.425782-8.753906.855468-1.28125 21.472656-31.125 70.003906-11.726562 4.378906 1.75 6.507812 6.71875 4.753906 11.097656-1.75 4.375-6.71875 6.503906-11.09375 4.753906-35.824219-14.339844-49.332031 5.144532-49.464844 5.339844-1.582031 2.378906-4.25 3.804688-7.105468 3.800781zm0 0"/><path d="m349.773438 204.800781c-2.824219.003907-5.464844-1.390625-7.054688-3.722656-.714844-.988281-14.53125-19.417969-49.515625-5.417969-4.378906 1.75-9.347656-.378906-11.097656-4.753906-1.75-4.378906.378906-9.347656 4.753906-11.097656 48.554687-19.410156 69.148437 10.445312 70.003906 11.726562 1.746094 2.617188 1.910157 5.980469.425781 8.753906-1.484374 2.773438-4.371093 4.507813-7.515624 4.511719zm0 0"/><path d="m228.644531 129.289062c-9.648437-3.753906-20.179687-4.605468-30.300781-2.457031-4.835938 1.550781-9.347656 3.972657-13.3125 7.148438-2.183594 1.535156-3.984375 3.640625-6.207031 5.359375-1.953125 2.019531-3.78125 4.179687-5.945313 6.199218l-.253906.238282c-.933594.871094-2.351562.976562-3.402344.25-1.054687-.726563-1.460937-2.085938-.980468-3.269532 1.167968-2.871093 2.613281-5.636718 4.035156-8.46875 1.703125-2.730468 3.621094-5.320312 5.734375-7.75 4.539062-5.070312 10.277343-8.921874 16.691406-11.195312 6.59375-2.296875 13.726563-2.542969 20.460937-.707031 6.480469 1.695312 12.316407 5.253906 16.785157 10.242187.820312.941406.917969 2.3125.238281 3.363282-.675781 1.046874-1.964844 1.523437-3.164062 1.164062zm0 0"/><path d="m279.84375 124.878906c4.46875-4.988281 10.304688-8.546875 16.78125-10.242187 6.734375-1.835938 13.867188-1.589844 20.460938.710937 6.414062 2.273438 12.15625 6.121094 16.695312 11.191406 2.109375 2.429688 4.027344 5.019532 5.730469 7.75 1.421875 2.832032 2.867187 5.601563 4.035156 8.472657.480469 1.183593.074219 2.542969-.976563 3.265625-1.050781.726562-2.46875.621094-3.402343-.25l-.257813-.234375c-2.160156-2.019531-3.988281-4.183594-5.941406-6.203125-2.21875-1.71875-4.023438-3.820313-6.207031-5.359375-3.964844-3.171875-8.476563-5.597657-13.3125-7.148438-10.125-2.148437-20.652344-1.292969-30.300781 2.457031l-.378907.117188c-1.195312.359375-2.484375-.113281-3.164062-1.164062-.679688-1.046876-.582031-2.417969.234375-3.359376zm0 0"/><path d="m255.898438 307.199219c-33.988282.015625-62.917969-24.746094-68.152344-58.328125-.722656-4.617188 2.40625-8.957032 7.015625-9.734375 4.609375-.777344 8.984375 2.300781 9.8125 6.902343.316406 1.796876 8.15625 44.09375 51.324219 44.09375 43.46875 0 51.015624-42.269531 51.316406-44.070312.472656-3.035156 2.539062-5.582031 5.410156-6.667969 2.871094-1.085937 6.105469-.546875 8.46875 1.414063 2.363281 1.960937 3.492188 5.039062 2.953125 8.0625-5.234375 33.582031-34.160156 58.34375-68.148437 58.328125zm0 0"/><path d="m255.898438 341.332031c-27.734376 0-38.328126-9.191406-40.167969-11.03125-3.28125-3.300781-3.316407-8.617187-.078125-11.957031 3.238281-3.339844 8.554687-3.472656 11.953125-.296875.488281.394531 8.039062 6.21875 28.292969 6.21875 20.859374 0 28.242187-6.179687 28.316406-6.242187 3.488281-3.035157 8.746094-2.800782 11.945312.539062 3.164063 3.289062 3.121094 8.5-.097656 11.738281-1.839844 1.839844-12.433594 11.03125-40.164062 11.03125zm0 0"/><path d="m397.890625 127.75c-4.292969.003906-7.921875-3.179688-8.472656-7.4375s2.148437-8.261719 6.300781-9.351562c47.910156-12.65625 64.976562-28.472657 64.976562-39.050782 0-22.898437-77.714843-54.84375-204.285156-54.84375-126.625 0-204.375 31.945313-204.375 54.84375 0 10.035156 16.824219 26.242188 64.238282 38.898438 4.554687 1.214844 7.261718 5.890625 6.046874 10.445312-1.214843 4.554688-5.894531 7.261719-10.445312 6.046875-50.316406-13.429687-76.90625-32.582031-76.90625-55.390625 0-46.707031 114.089844-71.910156 221.441406-71.910156 107.308594 0 221.355469 25.203125 221.355469 71.910156 0 22.914063-26.867187 42.125-77.695313 55.554688-.710937.1875-1.441406.285156-2.179687.285156zm0 0"/><path d="m366.738281 93.355469c-4.371093 0-8.035156-3.300781-8.488281-7.648438-.453125-4.347656 2.449219-8.335937 6.726562-9.234375 8.9375-1.433594 17.601563-4.226562 25.695313-8.285156-10.945313-6.632812-56.425781-16.988281-134.773437-16.988281-78.351563 0-123.832032 10.355469-134.777344 16.988281 8.09375 4.058594 16.757812 6.851562 25.695312 8.28125 2.984375.632812 5.402344 2.8125 6.347656 5.710938.945313 2.898437.269532 6.082031-1.769531 8.351562-2.042969 2.265625-5.136719 3.273438-8.117187 2.640625-28.726563-6.089844-40.980469-13.539063-40.980469-24.90625 0-32.484375 127.949219-34.132813 153.601563-34.132813 25.648437 0 153.597656 1.648438 153.597656 34.132813 0 11.367187-12.253906 18.816406-40.976563 24.90625-.585937.121094-1.183593.183594-1.78125.183594zm0 0"/></svg>