<svg height="512pt" viewBox="0 0 512 512.01874" width="512pt" xmlns="http://www.w3.org/2000/svg"><path d="m39.957031 93.117188-30.375 111.871093c-2.582031 10.210938-.304687 21.035157 6.164063 29.34375 6.472656 8.304688 16.414062 13.160157 26.945312 13.152344h34.300782l1.367187-34.132813h-35.667969l29.265625-108.03125zm0 0" fill="#ff5722"/><path d="m472.101562 93.117188 30.378907 111.871093c2.578125 10.210938.304687 21.035157-6.167969 29.34375-6.46875 8.304688-16.410156 13.160157-26.941406 13.152344h-34.304688l-1.363281-34.132813h35.667969l-29.269532-108.03125zm0 0" fill="#ff5722"/><path d="m435.238281 238.953125c.929688 65.34375-29.976562 127.0625-82.859375 165.460937l-97.28125 72.53125-12.710937-9.640624-82.691407-62.890626c-16.207031-11.371093-30.496093-25.253906-42.324218-41.132812l-22.613282-38.65625c-10.3125-23.449219-16.296874-48.570312-17.664062-74.152344-.171875-3.839844-.253906-7.679687-.253906-11.519531-.007813-8.5.503906-16.992187 1.535156-25.429687 10.835938-91.820313 79.613281-163.753907 164.863281-170.242188 4.265625-.425781 8.535157-.597656 12.800781-.597656 98.984376 0 179.199219 87.894531 179.199219 196.269531zm0 0" fill="#fec108"/><path d="m409.636719 238.953125c.929687 65.34375-29.976563 127.0625-82.855469 165.460937l-84.394531 62.890626-82.691407-62.890626c-16.207031-11.371093-30.496093-25.253906-42.324218-41.132812l-22.613282-38.65625c-10.3125-23.449219-16.296874-48.570312-17.664062-74.152344-.171875-3.839844-.253906-7.679687-.253906-11.519531-.007813-8.5.503906-16.992187 1.535156-25.429687 10.835938-91.820313 79.613281-163.753907 164.863281-170.242188 93.011719 7.085938 166.398438 91.992188 166.398438 195.671875zm0 0" fill="#ffdc00"/><path d="m460.242188 102.417969c-8.882813 4.046875-19.007813 4.414062-28.160157 1.023437-13.574219-5.097656-24.5625-15.382812-30.550781-28.585937-11.945312-25.003907-5.035156-53.246094 15.445312-62.976563.769532-.339844 1.621094-.679687 2.476563-1.023437 20.050781-7.679688 44.628906 4.609375 56.148437 28.671875 11.945313 25.003906 5.121094 53.164062-15.359374 62.890625zm0 0" fill="#f57c00"/><path d="m434.640625 102.417969c-.820313.414062-1.679687.757812-2.558594 1.023437-13.574219-5.097656-24.5625-15.382812-30.550781-28.585937-11.945312-25.003907-5.035156-53.246094 15.445312-62.976563.769532-.339844 1.621094-.679687 2.476563-1.023437 13.542969 5.1875 24.511719 15.484375 30.546875 28.671875 11.949219 25.003906 5.121094 53.164062-15.359375 62.890625zm0 0" fill="#ff9801"/><path d="m36.46875 39.5c-11.921875 25-5.125 53.175781 15.332031 62.929688 20.457031 9.753906 46.828125-2.609376 58.746094-27.613282 11.921875-25.003906 5-53.175781-15.453125-62.929687-20.457031-9.75-46.703125 2.609375-58.625 27.613281zm0 0" fill="#ff9801"/><path d="m221.90625 166.417969c0-21.207031-7.640625-38.398438-17.066406-38.398438-9.425782 0-17.066406 17.191407-17.066406 38.398438s7.640624 38.402343 17.066406 38.402343c9.425781 0 17.066406-17.195312 17.066406-38.402343zm0 0" fill="#3f51b5"/><path d="m214.320312 149.351562c0-11.78125-4.246093-21.332031-9.480468-21.332031-5.238282 0-9.484375 9.550781-9.484375 21.332031s4.246093 21.332032 9.484375 21.332032c5.234375 0 9.480468-9.550782 9.480468-21.332032zm0 0" fill="#f5f5f5"/><path d="m324.304688 166.417969c0-21.207031-7.640626-38.398438-17.066407-38.398438s-17.066406 17.191407-17.066406 38.398438 7.640625 38.402343 17.066406 38.402343 17.066407-17.195312 17.066407-38.402343zm0 0" fill="#3f51b5"/><path d="m316.71875 149.351562c0-11.78125-4.246094-21.332031-9.480469-21.332031-5.238281 0-9.480469 9.550781-9.480469 21.332031s4.242188 21.332032 9.480469 21.332032c5.234375 0 9.480469-9.550782 9.480469-21.332032zm0 0" fill="#f5f5f5"/><path d="m281.636719 245.863281c-15.820313-9.214843-35.375-9.214843-51.199219 0v88.578125c15.824219 9.214844 35.378906 9.214844 51.199219 0zm0 0" fill="#bb193b"/><path d="m230.4375 411.835938v-198.484376c-7.171875-5.933593-16.300781-8.976562-25.597656-8.53125-9.300782-.445312-18.429688 2.597657-25.601563 8.53125v187.734376zm0 0" fill="#02a9f4"/><path d="m332.839844 401.085938v-187.734376c-7.175782-5.933593-16.304688-8.976562-25.601563-8.53125-9.296875-.445312-18.425781 2.597657-25.601562 8.53125v198.484376zm0 0" fill="#02a9f4"/><path d="m256.039062 460.820312v25.597657c-.027343 9.414062-7.652343 17.039062-17.066406 17.066406h-102.402344c-9.414062-.027344-17.039062-7.652344-17.066406-17.066406v-25.597657c-.066406-31.34375 24.195313-57.363281 55.46875-59.480468 1.414063-.167969 2.839844-.253906 4.265625-.253906h17.066407c15.847656-.011719 31.046874 6.277343 42.25 17.480468 11.207031 11.207032 17.496093 26.40625 17.484374 42.253906zm0 0" fill="#3f51b5"/><path d="m230.4375 460.820312v25.597657c-.027344 9.414062-7.652344 17.039062-17.066406 17.066406h-76.800782c-9.414062-.027344-17.039062-7.652344-17.066406-17.066406v-25.597657c-.066406-31.34375 24.195313-57.363281 55.46875-59.480468 31.269532 2.117187 55.535156 28.136718 55.464844 59.480468zm0 0" fill="#3f51b5"/><path d="m392.570312 460.820312v25.597657c-.027343 9.414062-7.652343 17.039062-17.066406 17.066406h-102.398437c-9.414063-.027344-17.039063-7.652344-17.066407-17.066406v-25.597657c-.070312-31.34375 24.195313-57.363281 55.464844-59.480468 1.417969-.167969 2.839844-.253906 4.269532-.253906h17.066406c15.84375-.011719 31.042968 6.277343 42.25 17.480468 11.203125 11.207032 17.492187 26.40625 17.480468 42.253906zm0 0" fill="#283593"/><path d="m366.972656 460.820312v25.597657c-.027344 9.414062-7.652344 17.039062-17.066406 17.066406h-76.800781c-9.414063-.027344-17.039063-7.652344-17.066407-17.066406v-25.597657c-.070312-31.34375 24.195313-57.363281 55.464844-59.480468 31.273438 2.117187 55.535156 28.136718 55.46875 59.480468zm0 0" fill="#3f51b5"/><path d="m281.636719 307.21875v27.222656c-15.820313 9.214844-35.375 9.214844-51.199219 0v-27.222656c7.171875-5.933594 16.300781-8.976562 25.601562-8.535156 9.296876-.441406 18.425782 2.601562 25.597657 8.535156zm0 0" fill="#e91e63"/><path d="m352.386719 412.945312c-3.726563.003907-7.023438-2.414062-8.144531-5.96875-1.121094-3.554687.199218-7.425781 3.253906-9.558593 50.660156-36.75 80.21875-95.890625 79.207031-158.464844 0-103.519531-76.558594-187.734375-170.664063-187.734375-94.109374 0-170.667968 84.214844-170.667968 187.734375-1.011719 62.574219 28.550781 121.714844 79.207031 158.464844 3.804687 2.71875 4.710937 7.988281 2.035156 11.824219-2.675781 3.832031-7.9375 4.800781-11.800781 2.167968-55.230469-39.941406-87.515625-104.304687-86.507812-172.457031 0-112.929687 84.214843-204.800781 187.734374-204.800781 103.515626 0 187.734376 91.871094 187.734376 204.800781 1.003906 68.152344-31.28125 132.515625-86.511719 172.457031-1.425781 1-3.128907 1.539063-4.875 1.535156zm0 0"/><path d="m238.972656 512.019531h-102.402344c-14.132812-.015625-25.582031-11.46875-25.597656-25.601562v-25.597657c.042969-37.6875 30.582032-68.226562 68.265625-68.269531h17.066407c37.683593.042969 68.222656 30.582031 68.265624 68.269531v25.597657c-.015624 14.132812-11.464843 25.585937-25.597656 25.601562zm-59.734375-102.402343c-28.265625.03125-51.167969 22.9375-51.199219 51.203124v25.597657c.003907 4.710937 3.820313 8.53125 8.53125 8.535156h102.402344c4.710938-.003906 8.527344-3.824219 8.53125-8.535156v-25.597657c-.03125-28.265624-22.933594-51.171874-51.199218-51.203124zm0 0"/><path d="m256.039062 477.886719h-136.535156c-4.710937 0-8.53125-3.820313-8.53125-8.535157 0-4.710937 3.820313-8.53125 8.53125-8.53125h136.535156c4.710938 0 8.53125 3.820313 8.53125 8.53125 0 4.714844-3.820312 8.535157-8.53125 8.535157zm0 0"/><path d="m375.503906 512.019531h-102.398437c-14.132813-.015625-25.585938-11.46875-25.601563-25.601562v-25.597657c.042969-37.6875 30.582032-68.226562 68.269532-68.269531h17.066406c37.683594.042969 68.222656 30.582031 68.265625 68.269531v25.597657c-.015625 14.132812-11.46875 25.585937-25.601563 25.601562zm-59.730468-102.402343c-28.265626.03125-51.171876 22.9375-51.203126 51.203124v25.597657c.003907 4.710937 3.824219 8.53125 8.535157 8.535156h102.398437c4.710938-.003906 8.53125-3.824219 8.535156-8.535156v-25.597657c-.03125-28.265624-22.9375-51.171874-51.199218-51.203124zm0 0"/><path d="m392.570312 477.886719h-136.53125c-4.714843 0-8.535156-3.820313-8.535156-8.535157 0-4.710937 3.820313-8.53125 8.535156-8.53125h136.53125c4.714844 0 8.535157 3.820313 8.535157 8.53125 0 4.714844-3.820313 8.535157-8.535157 8.535157zm0 0"/><path d="m445.296875 114.324219c-7.359375-.066407-14.609375-1.753907-21.242187-4.941407-13.335938-6.511718-24.019532-17.421874-30.242188-30.890624-13.925781-29.214844-5.183594-62.550782 19.484375-74.308594 12.695313-5.824219 27.351563-5.546875 39.816406.757812 13.3125 6.519532 23.96875 17.429688 30.175781 30.890625 6.546876 13.285157 8.335938 28.417969 5.066407 42.863281-2.898438 13.664063-11.898438 25.246094-24.417969 31.433594-5.820312 2.773438-12.191406 4.207032-18.640625 4.195313zm-13.386719-97.238281c-3.894531-.023438-7.746094.835937-11.265625 2.503906-16.171875 7.710937-21.296875 30.839844-11.433593 51.558594 4.527343 9.910156 12.332031 17.957031 22.101562 22.78125 7.867188 4.089843 17.167969 4.382812 25.277344.792968 7.855468-4.015625 13.449218-11.402344 15.179687-20.054687 2.347657-10.632813.976563-21.75-3.882812-31.496094-4.515625-9.894531-12.296875-17.941406-22.039063-22.78125-4.347656-2.117187-9.105468-3.246094-13.9375-3.304687zm0 0"/><path d="m469.371094 221.886719h-35.667969c-4.714844 0-8.535156-3.820313-8.535156-8.535157 0-4.710937 3.820312-8.53125 8.535156-8.53125h24.515625l-26.347656-97.269531c-.855469-2.960937-.046875-6.152343 2.113281-8.347656 2.160156-2.199219 5.339844-3.058594 8.3125-2.253906 2.976563.804687 5.285156 3.148437 6.042969 6.136719l29.269531 108.03125c.695313 2.566406.15625 5.308593-1.457031 7.421874-1.617188 2.109376-4.121094 3.347657-6.78125 3.347657zm0 0"/><path d="m469.371094 256.019531h-34.304688c-4.710937 0-8.53125-3.820312-8.53125-8.535156 0-4.710937 3.820313-8.53125 8.53125-8.53125h34.304688c7.917968 0 15.390625-3.660156 20.242187-9.914063 4.851563-6.257812 6.539063-14.40625 4.566407-22.074218l-30.308594-111.609375c-1.234375-4.546875 1.449218-9.234375 5.996094-10.472657 4.550781-1.234374 9.238281 1.449219 10.472656 5.996094l30.378906 111.875c3.257812 12.902344.355469 26.589844-7.855469 37.0625-8.085937 10.253906-20.433593 16.230469-33.492187 16.203125zm0 0"/><path d="m66.761719 114.324219c-6.449219.011719-12.816407-1.417969-18.640625-4.191407-12.519532-6.191406-21.515625-17.773437-24.417969-31.4375-3.269531-14.449218-1.480469-29.582031 5.070313-42.871093 6.207031-13.457031 16.863281-24.363281 30.171874-30.882813 12.464844-6.3125 27.125-6.589844 39.816407-.761718 12.527343 6.191406 21.542969 17.761718 24.484375 31.417968 3.320312 14.449219 1.550781 29.597656-5 42.894532-6.222656 13.472656-16.90625 24.382812-30.242188 30.890624-6.628906 3.191407-13.882812 4.875-21.242187 4.941407zm13.386719-97.238281c-4.832032.058593-9.589844 1.183593-13.933594 3.296874-9.746094 4.839844-17.527344 12.882813-22.042969 22.78125-4.859375 9.75-6.230469 20.867188-3.882813 31.503907 1.730469 8.652343 7.324219 16.039062 15.183594 20.054687 8.105469 3.59375 17.40625 3.300782 25.273438-.792968 9.769531-4.824219 17.574218-12.871094 22.101562-22.78125 4.851563-9.742188 6.203125-20.859376 3.824219-31.480469-1.765625-8.667969-7.378906-16.058594-15.257813-20.078125-3.519531-1.667969-7.371093-2.523438-11.265624-2.503906zm0 0"/><path d="m78.355469 221.886719h-35.667969c-2.65625-.003907-5.160156-1.242188-6.773438-3.351563-1.617187-2.109375-2.15625-4.851562-1.460937-7.417968l29.269531-108.03125c.761719-2.984376 3.070313-5.332032 6.042969-6.136719 2.976563-.804688 6.152344.058593 8.3125 2.253906 2.164063 2.199219 2.96875 5.390625 2.117187 8.351563l-26.355468 97.265624h24.515625c4.710937 0 8.53125 3.820313 8.53125 8.53125 0 4.714844-3.820313 8.535157-8.53125 8.535157zm0 0"/><path d="m76.996094 256.019531h-34.308594c-13.136719 0-25.542969-6.046875-33.632812-16.402343-8.089844-10.351563-10.957032-23.855469-7.773438-36.601563l30.441406-112.136719c1.234375-4.546875 5.921875-7.230468 10.472656-5.996094 4.546876 1.238282 7.230469 5.925782 5.996094 10.472657l-30.378906 111.875c-1.878906 7.640625-.140625 15.722656 4.71875 21.914062 4.855469 6.191407 12.285156 9.808594 20.15625 9.808594h34.308594c4.714844 0 8.535156 3.820313 8.535156 8.53125 0 4.714844-3.820312 8.535156-8.535156 8.535156zm0 0"/><path d="m204.839844 213.351562c-16.8125 0-25.601563-23.613281-25.601563-46.933593 0-23.320313 8.789063-46.933594 25.601563-46.933594 16.808594 0 25.597656 23.613281 25.597656 46.933594 0 23.320312-8.789062 46.933593-25.597656 46.933593zm-.171875-76.820312c-2.046875.773438-8.363281 11.140625-8.363281 29.886719 0 18.746093 6.308593 29.113281 8.703124 29.886719 2.050782-.773438 8.363282-11.140626 8.363282-29.886719 0-18.746094-6.308594-29.113281-8.703125-29.886719zm0 0"/><path d="m307.238281 213.351562c-16.8125 0-25.601562-23.613281-25.601562-46.933593 0-23.320313 8.789062-46.933594 25.601562-46.933594 16.808594 0 25.601563 23.613281 25.601563 46.933594 0 23.320312-8.792969 46.933593-25.601563 46.933593zm-.171875-76.820312c-2.046875.773438-8.363281 11.140625-8.363281 29.886719 0 18.746093 6.308594 29.113281 8.707031 29.886719 2.046875-.773438 8.363282-11.140626 8.363282-29.886719 0-18.746094-6.3125-29.113281-8.707032-29.886719zm0 0"/><path d="m230.4375 221.886719c-2.261719 0-4.433594-.898438-6.03125-2.5-5.601562-4.269531-12.535156-6.410157-19.566406-6.035157-7.082032-.378906-14.058594 1.792969-19.667969 6.128907-3.410156 3.1875-8.742187 3.078125-12.015625-.25-3.25-3.3125-3.226562-8.625.050781-11.910157 8.746094-7.585937 20.0625-11.535156 31.632813-11.035156 11.566406-.5 22.882812 3.449219 31.632812 11.035156 2.4375 2.4375 3.167969 6.109376 1.847656 9.296876-1.320312 3.1875-4.429687 5.265624-7.882812 5.269531zm0 0"/><path d="m332.839844 221.886719c-2.265625 0-4.4375-.898438-6.035156-2.5-5.601563-4.269531-12.535157-6.410157-19.566407-6.035157-7.078125-.378906-14.058593 1.792969-19.667969 6.128907-3.410156 3.1875-8.738281 3.078125-12.015624-.25-3.25-3.3125-3.226563-8.625.050781-11.910157 8.746093-7.585937 20.066406-11.535156 31.632812-11.035156 11.566407-.5 22.886719 3.449219 31.632813 11.035156 2.441406 2.4375 3.167968 6.109376 1.847656 9.296876s-4.429688 5.265624-7.878906 5.269531zm0 0"/><path d="m163.824219 117.28125c9.648437 3.75 20.175781 4.605469 30.300781 2.457031 4.835938-1.550781 9.347656-3.976562 13.3125-7.152343 2.183594-1.535157 3.984375-3.636719 6.207031-5.355469 1.949219-2.019531 3.78125-4.179688 5.941407-6.203125l.257812-.234375c.933594-.871094 2.347656-.976563 3.402344-.253907 1.050781.726563 1.457031 2.085938.976562 3.269532-1.164062 2.871094-2.613281 5.640625-4.035156 8.472656-1.703125 2.730469-3.621094 5.320312-5.730469 7.746094-4.539062 5.074218-10.28125 8.921875-16.695312 11.195312-6.589844 2.296875-13.726563 2.542969-20.460938.707032-6.476562-1.691407-12.3125-5.253907-16.78125-10.238282-.820312-.941406-.917969-2.3125-.242187-3.363281.679687-1.050781 1.96875-1.523437 3.164062-1.164063zm0 0"/><path d="m351.558594 121.691406c-4.46875 4.984375-10.304688 8.546875-16.78125 10.238282-6.734375 1.835937-13.871094 1.589843-20.460938-.707032-6.414062-2.273437-12.15625-6.125-16.695312-11.195312-2.109375-2.425782-4.027344-5.015625-5.730469-7.746094-1.421875-2.835938-2.871094-5.601562-4.035156-8.472656-.480469-1.183594-.074219-2.542969.976562-3.269532 1.050781-.722656 2.464844-.621093 3.402344.25l.253906.238282c2.164063 2.019531 3.992188 4.183594 5.945313 6.203125 2.21875 1.71875 4.023437 3.816406 6.207031 5.355469 3.964844 3.175781 8.476563 5.597656 13.3125 7.152343 10.121094 2.148438 20.652344 1.292969 30.296875-2.457031l.382812-.117188c1.195313-.359374 2.484376.113282 3.164063 1.160157.675781 1.050781.582031 2.417969-.238281 3.363281zm0 0"/><path d="m179.238281 409.617188c-4.714843 0-8.535156-3.820313-8.535156-8.53125v-187.734376c0-4.710937 3.820313-8.53125 8.535156-8.53125 4.710938 0 8.535157 3.820313 8.535157 8.53125v187.734376c0 4.710937-3.824219 8.53125-8.535157 8.53125zm0 0"/><path d="m230.4375 420.371094c-4.710938 0-8.53125-3.820313-8.53125-8.535156v-198.484376c0-4.710937 3.820312-8.53125 8.53125-8.53125 4.714844 0 8.535156 3.820313 8.535156 8.53125v198.484376c0 4.714843-3.820312 8.535156-8.535156 8.535156zm0 0"/><path d="m281.636719 420.371094c-4.710938 0-8.53125-3.820313-8.53125-8.535156v-198.484376c0-4.710937 3.820312-8.53125 8.53125-8.53125 4.714843 0 8.535156 3.820313 8.535156 8.53125v198.484376c0 4.714843-3.820313 8.535156-8.535156 8.535156zm0 0"/><path d="m332.839844 409.617188c-4.714844 0-8.535156-3.820313-8.535156-8.53125v-187.734376c0-4.710937 3.820312-8.53125 8.535156-8.53125 4.710937 0 8.53125 3.820313 8.53125 8.53125v187.734376c0 4.710937-3.820313 8.53125-8.53125 8.53125zm0 0"/><path d="m256.039062 349.886719c-10.527343.027343-20.867187-2.769531-29.941406-8.101563-2.652344-1.539062-4.273437-4.378906-4.25-7.445312.023438-3.0625 1.6875-5.878906 4.363282-7.378906 2.671874-1.496094 5.941406-1.445313 8.570312.132812 13.179688 7.492188 29.332031 7.492188 42.515625 0 2.625-1.578125 5.898437-1.628906 8.570313-.132812 2.671874 1.5 4.335937 4.316406 4.359374 7.378906.023438 3.066406-1.597656 5.90625-4.246093 7.445312-9.078125 5.332032-19.417969 8.128906-29.941407 8.101563zm0 0"/><path d="m281.628906 254.398438c-1.523437-.003907-3.019531-.414063-4.332031-1.1875-13.152344-7.601563-29.363281-7.601563-42.515625 0-2.628906 1.578124-5.898438 1.628906-8.570312.128906-2.675782-1.496094-4.339844-4.3125-4.363282-7.378906-.023437-3.0625 1.597656-5.90625 4.25-7.441407 18.550782-10.601562 41.328125-10.601562 59.882813 0 3.3125 1.957031 4.90625 5.890625 3.886719 9.601563-1.015626 3.710937-4.390626 6.28125-8.238282 6.277344zm0 0"/><path d="m281.636719 315.753906c-2.261719 0-4.433594-.898437-6.03125-2.503906-5.601563-4.265625-12.535157-6.40625-19.566407-6.03125-7.078124-.382812-14.058593 1.792969-19.667968 6.128906-3.410156 3.195313-8.742188 3.082032-12.015625-.25-3.25-3.3125-3.226563-8.625.050781-11.910156 8.746094-7.585938 20.066406-11.535156 31.632812-11.035156 11.566407-.5 22.886719 3.449218 31.632813 11.035156 2.4375 2.4375 3.167969 6.109375 1.847656 9.296875-1.320312 3.1875-4.429687 5.265625-7.882812 5.269531zm0 0"/></svg>