<svg height="512pt" viewBox="0 0 512.01331 512" width="512pt" xmlns="http://www.w3.org/2000/svg"><path d="m78.007812 395.015625c-3.15625 4.007813-6.484374 7.933594-9.898437 11.773437-12.605469 13.949219-34.113281 15.082032-48.113281 2.535157-14.003906-12.542969-15.230469-34.046875-2.746094-48.101563 7.550781-8.453125 14.375-17.53125 20.394531-27.136718zm0 0" fill="#ff9801"/><path d="m247.480469 8.539062c-101.273438-.015624-190.675781 66.109376-220.316407 162.949219-29.636718 96.835938 7.445313 201.675781 91.378907 258.34375h.082031l69.121094 48.042969v8.53125c.027344 9.414062 7.652344 17.039062 17.066406 17.066406h145.066406c9.414063-.027344 17.039063-7.652344 17.066406-17.066406v-50.429688c.769532-.515624 1.539063-.941406 2.304688-1.453124 3.753906-2.390626 7.511719-4.863282 11.09375-7.421876.011719.089844.039062.175782.085938.253907 1.058593 2.222656 2.566406 4.199219 4.4375 5.804687.597656.597656 1.28125 1.277344 1.960937 1.875 1.257813 1.097656 2.601563 2.097656 4.011719 2.988282.6875.5625 1.429687 1.046874 2.21875 1.449218.800781.449219 1.625.847656 2.476562 1.195313.6875.335937 1.402344.621093 2.132813.851562 1.109375.429688 2.21875.769531 3.328125 1.109375 2.808594.753906 5.707031 1.125 8.617187 1.109375 9.707031.015625 18.957031-4.113281 25.429688-11.347656 43.40625-48.574219 67.722656-111.242187 68.4375-176.382813 1.023437-76.800781-51.199219-247.46875-256-247.46875zm0 0" fill="#f0c419"/><path d="m503.480469 256.007812c-.714844 65.140626-25.03125 127.808594-68.4375 176.382813-6.472657 7.234375-15.722657 11.363281-25.429688 11.347656-2.910156.015625-5.808593-.355469-8.617187-1.109375-1.109375-.339844-2.21875-.679687-3.328125-1.109375-.730469-.230469-1.445313-.515625-2.132813-.851562-.851562-.347657-1.675781-.746094-2.476562-1.195313-.789063-.402344-1.53125-.886718-2.21875-1.449218-1.410156-.890626-2.753906-1.890626-4.011719-2.988282-.679687-.597656-1.363281-1.277344-1.960937-1.875-1.871094-1.605468-3.378907-3.582031-4.4375-5.804687-.046876-.078125-.074219-.164063-.085938-.253907-3.582031 2.558594-7.339844 5.03125-11.09375 7.421876-.765625.511718-1.535156.9375-2.304688 1.453124-20.9375 12.726563-43.785156 22.003907-67.667968 27.476563h-.257813l-.339843-2.644531c-8.613282-20.695313-28.785157-34.210938-51.199219-34.304688h-8.535157c-20.351562.027344-38.761718 12.078125-46.933593 30.71875-.683594 1.617188-1.28125 3.269532-1.789063 4.949219-1.652344 5.039063-2.488281 10.3125-2.476562 15.617187v.085938l-69.121094-48.042969h-.082031c-83.933594-56.667969-121.015625-161.507812-91.378907-258.34375 29.640626-96.839843 119.042969-162.964843 220.316407-162.949219 204.800781 0 257.023437 170.667969 256 247.46875zm0 0" fill="#ffdc00"/><path d="m380.34375 427.101562c-3.582031 2.558594-7.339844 5.03125-11.09375 7.421876-13.523438-12.691407-14.46875-33.851563-2.132812-47.699219 26.3125-29.355469 43.144531-65.972657 48.292968-105.054688 1.203125-9.3125 9.132813-16.285156 18.523438-16.289062-2.132813 44.964843-19.703125 87.820312-49.75 121.34375-9.945313 11.140625-11.5 27.453125-3.839844 40.277343zm0 0" fill="#fec108"/><path d="m192.011719 457.222656c-8.148438-18.652344-26.578125-30.703125-46.933594-30.695312h-8.53125c-28.296875.046875-51.207031 23-51.199219 51.296875v8.550781c.019532 9.421875 7.640625 17.0625 17.066406 17.097656h145.066407zm0 0" fill="#3f51b5"/><path d="m366.945312 435.976562v50.429688c-.027343 9.414062-7.652343 17.039062-17.066406 17.066406h-145.066406c-9.414062-.027344-17.039062-7.652344-17.066406-17.066406v-8.617188c-.011719-5.304687.824218-10.578124 2.476562-15.617187.507813-1.679687 1.105469-3.332031 1.789063-4.949219 8.171875-18.640625 26.582031-30.691406 46.933593-30.71875h8.535157c22.414062.09375 42.585937 13.609375 51.199219 34.304688l.597656 2.644531c23.882812-5.472656 46.730468-14.75 67.667968-27.476563zm0 0" fill="#3f51b5"/><path d="m380.429688 427.355469c1.300781 2.066406 2.785156 4.007812 4.4375 5.804687-1.871094-1.605468-3.378907-3.582031-4.4375-5.804687zm0 0" fill="#f0c419"/><path d="m366.945312 435.976562v17.066407c-15.941406 9.6875-33.007812 17.390625-50.820312 22.933593-3.960938 1.199219-8.257812.449219-11.578125-2.019531s-5.277344-6.367187-5.269531-10.503906c23.882812-5.472656 46.730468-14.75 67.667968-27.476563zm0 0" fill="#283593"/><path d="m142.519531 295.003906-21.589843 44.117188-15.359376-6.996094-29.269531-13.398438c-6.0625-2.730468-10.753906-7.8125-12.992187-14.074218-2.238282-6.261719-1.828125-13.164063 1.132812-19.121094 5.972656-12.089844 20.175782-17.640625 32.765625-12.800781 3.96875-7.082031 11.0625-11.863281 19.117188-12.882813 4.867187-.792968 9.859375-.109375 14.335937 1.960938 6.066406 2.726562 10.761719 7.804687 13 14.070312 2.238282 6.265625 1.828125 13.171875-1.140625 19.125zm0 0" fill="#bb193b"/><path d="m125.453125 291.503906-19.882813 40.621094-29.269531-13.398438c-6.0625-2.730468-10.753906-7.8125-12.992187-14.074218-2.238282-6.261719-1.828125-13.164063 1.132812-19.121094 5.972656-12.089844 20.175782-17.640625 32.765625-12.800781 3.96875-7.082031 11.0625-11.863281 19.117188-12.882813 10.855469 6.535156 14.839843 20.339844 9.128906 31.65625zm0 0" fill="#ef314c"/><path d="m102.414062 290.140625c0 9.425781-7.640624 17.066406-17.066406 17.066406-9.425781 0-17.066406-7.640625-17.066406-17.066406s7.640625-17.066406 17.066406-17.066406c9.425782 0 17.066406 7.640625 17.066406 17.066406zm0 0" fill="#f5f5f5"/><path d="m187.746094 178.609375c.019531 12.664063-5.613282 24.679687-15.359375 32.769531-17.152344-8.761718-37.464844-8.761718-54.613281 0-15.242188-12.667968-19.761719-34.15625-10.914063-51.890625 8.847656-17.730469 28.734375-27.046875 48.019531-22.484375 19.285156 4.558594 32.898438 21.789063 32.867188 41.605469zm0 0" fill="#f5f5f5"/><path d="m162.148438 178.589844c0-14.164063-11.464844-25.648438-25.601563-25.648438-14.140625 0-25.601563 11.484375-25.601563 25.648438 0 14.167968 11.460938 25.648437 25.601563 25.648437 14.136719 0 25.601563-11.480469 25.601563-25.648437zm0 0" fill="#3f51b5"/><path d="m324.28125 178.609375c0 11.320313-4.480469 22.179687-12.460938 30.207031-.902343.921875-1.875 1.777344-2.898437 2.5625-17.152344-8.761718-37.464844-8.761718-54.617187 0-1.023438-.785156-1.996094-1.640625-2.898438-2.5625-13.707031-13.660156-16.523438-34.824218-6.859375-51.59375 9.664063-16.765625 29.386719-24.941406 48.078125-19.929687 18.691406 5.015625 31.679688 21.964843 31.65625 41.316406zm0 0" fill="#f5f5f5"/><path d="m298.679688 178.589844c-.011719 12.222656-8.65625 22.738281-20.644532 25.113281-11.992187 2.375-23.988281-4.050781-28.660156-15.347656-4.667969-11.296875-.710938-24.316407 9.457031-31.101563 10.164063-6.785156 23.710938-5.445312 32.351563 3.199219 4.808594 4.808594 7.507812 11.335937 7.496094 18.136719zm0 0" fill="#3f51b5"/><path d="m162.148438 162.140625c0 4.710937-3.824219 8.53125-8.535157 8.53125-4.710937 0-8.535156-3.820313-8.535156-8.53125 0-4.714844 3.824219-8.535156 8.535156-8.535156 4.710938 0 8.535157 3.820312 8.535157 8.535156zm0 0" fill="#f5f5f5"/><path d="m298.679688 162.140625c0 4.710937-3.820313 8.53125-8.53125 8.53125-4.714844 0-8.535157-3.820313-8.535157-8.53125 0-4.714844 3.820313-8.535156 8.535157-8.535156 4.710937 0 8.53125 3.820312 8.53125 8.535156zm0 0" fill="#f5f5f5"/><path d="m366.945312 435.976562v50.429688c-.027343 9.414062-7.652343 17.039062-17.066406 17.066406h-25.597656c9.414062-.027344 17.039062-7.652344 17.066406-17.066406v-37.035156c8.808594-3.917969 17.359375-8.394532 25.597656-13.394532zm0 0" fill="#283593"/><path d="m503.480469 256.007812c-.714844 65.140626-25.03125 127.808594-68.4375 176.382813-6.472657 7.234375-15.722657 11.363281-25.429688 11.347656-2.910156.015625-5.808593-.355469-8.617187-1.109375-1.109375-.339844-2.21875-.679687-3.328125-1.109375-.304688-.058593-.59375-.175781-.855469-.339843 4.851562-1.878907 9.183594-4.894532 12.628906-8.789063 43.410156-48.574219 67.726563-111.242187 68.4375-176.382813 1.023438-74.921874-48.722656-239.277343-241.492187-247.125 3.667969-.257812 7.339843-.34375 11.09375-.34375 204.800781 0 257.023437 170.667969 256 247.46875zm0 0" fill="#fec108"/><path d="m349.878906 512.007812h-145.066406c-14.132812-.015624-25.582031-11.46875-25.597656-25.601562v-8.617188c-.011719-6.210937.96875-12.378906 2.898437-18.28125.578125-1.902343 1.257813-3.773437 2.035157-5.601562 9.503906-21.800781 31.015624-35.910156 54.796874-35.9375h8.535157c26.035156.019531 49.457031 15.820312 59.234375 39.949219 1.59375 4.4375-.710938 9.328125-5.148438 10.921875-4.433594 1.59375-9.324218-.707032-10.917968-5.144532-7.355469-17.332031-24.339844-28.609374-43.167969-28.660156h-8.535157c-16.964843.019532-32.316406 10.070313-39.117187 25.613282-.546875 1.292968-1.023437 2.613281-1.433594 3.957031-1.398437 4.253906-2.113281 8.703125-2.113281 13.183593v8.617188c.003906 4.710938 3.820312 8.53125 8.53125 8.535156h145.066406c4.710938-.003906 8.53125-3.824218 8.535156-8.535156v-50.429688c0-4.714843 3.820313-8.535156 8.53125-8.535156 4.714844 0 8.535157 3.820313 8.535157 8.535156v50.429688c-.015625 14.132812-11.46875 25.585938-25.601563 25.601562zm0 0"/><path d="m247.480469 512.007812h-145.066407c-14.140624-.027343-25.59375-11.492187-25.601562-25.632812v-8.550781c.011719-33 26.734375-59.765625 59.734375-59.832031h8.53125c23.757813-.023438 45.265625 14.046874 54.761719 35.824218 1.878906 4.320313-.101563 9.347656-4.421875 11.226563-4.324219 1.882812-9.351563-.097657-11.230469-4.417969-6.785156-15.546875-22.144531-25.589844-39.109375-25.5625h-8.53125c-23.578125.050781-42.664063 19.179688-42.667969 42.761719v8.550781c-.003906 4.71875 3.8125 8.550781 8.535156 8.566406h145.066407c4.710937 0 8.53125 3.820313 8.53125 8.53125 0 4.714844-3.820313 8.535156-8.53125 8.535156zm0 0"/><path d="m42.679688 426.671875c-16.832032.003906-32.089844-9.886719-38.960938-25.25s-4.070312-33.332031 7.152344-45.875c7.234375-8.09375 13.773437-16.789063 19.542968-25.984375 1.585938-2.652344 4.480469-4.238281 7.566407-4.148438 3.085937.089844 5.886719 1.839844 7.316406 4.578126 1.429687 2.734374 1.269531 6.03125-.417969 8.617187-6.277344 10.007813-13.390625 19.472656-21.257812 28.285156-9.398438 10.554688-8.515625 26.714844 1.976562 36.183594 10.683594 9.011719 26.535156 8.136719 36.164063-1.992187 3.269531-3.679688 6.488281-7.480469 9.542969-11.359376 1.863281-2.464843 4.914062-3.730468 7.976562-3.308593 3.0625.425781 5.65625 2.46875 6.78125 5.347656s.605469 6.140625-1.359375 8.527344c-3.257813 4.136719-6.691406 8.191406-10.210937 12.160156-8.105469 9.035156-19.671876 14.207031-31.8125 14.21875zm0 0"/><path d="m409.613281 452.273438c-16.832031.007812-32.097656-9.882813-38.96875-25.25-6.871093-15.363282-4.066406-33.335938 7.160157-45.875 28.707031-32.089844 45.511718-73.070313 47.601562-116.074219.289062-4.679688 4.246094-8.28125 8.933594-8.121094 4.707031.222656 8.339844 4.222656 8.113281 8.929687-2.28125 46.914063-20.609375 91.617188-51.914063 126.632813-9.386718 10.554687-8.5 26.703125 1.992188 36.164063 10.679688 9.011718 26.535156 8.136718 36.164062-1.992188 42.003907-47.050781 65.539063-107.726562 66.25-170.792969-1.121093-63.945312-26.054687-125.171875-69.921874-171.710937-43.945313-44.53125-103.675782-67.109375-177.542969-67.109375-97.457031-.015625-183.507813 63.578125-212.101563 156.742187-28.597656 93.164063 6.960938 194.082032 87.640625 248.746094 3.257813 1.980469 4.800781 5.886719 3.78125 9.5625-1.023437 3.671875-4.359375 6.222656-8.175781 6.238281h-.082031c-1.703125 0-3.367188-.507812-4.777344-1.460937-87.039063-58.769532-125.492187-167.488282-94.753906-267.910156 30.734375-100.425782 123.445312-169.0000005 228.46875-168.9843755 78.597656 0 142.421875 24.2851565 189.695312 72.1914065 47.367188 49.597656 74.117188 115.339843 74.835938 183.921875-.765625 67.195312-25.847657 131.839844-70.605469 181.964844-8.109375 9.019531-19.664062 14.175781-31.792969 14.1875zm0 0"/><path d="m299.269531 471.984375c-4.335937-.007813-7.976562-3.269531-8.460937-7.582031-.484375-4.308594 2.34375-8.296875 6.570312-9.269532 22.992188-5.261718 44.984375-14.191406 65.132813-26.453124 4.308593-2.683594 8.691406-5.574219 12.917969-8.554688 2.488281-1.851562 5.785156-2.207031 8.609374-.929688 2.828126 1.273438 4.738282 3.984376 4.992188 7.074219.253906 3.09375-1.1875 6.078125-3.769531 7.796875-4.488281 3.171875-9.140625 6.246094-13.808594 9.152344-21.734375 13.230469-45.464844 22.871094-70.273437 28.550781-.625.144531-1.265626.21875-1.910157.214844zm0 0"/><path d="m172.898438 220.167969c-3.570313 0-6.761719-2.222657-8.003907-5.570313-1.238281-3.347656-.261719-7.113281 2.445313-9.4375 10.820312-9.308594 14.707031-24.367187 9.746094-37.75-4.964844-13.382812-17.730469-22.261718-32.003907-22.261718-14.273437 0-27.039062 8.878906-32.003906 22.261718-4.964844 13.382813-1.074219 28.441406 9.746094 37.75 3.578125 3.066406 3.988281 8.457032.917969 12.035156-3.070313 3.574219-8.457032 3.988282-12.035157.917969-16.238281-13.957031-22.074219-36.546875-14.632812-56.625 7.441406-20.078125 26.59375-33.402343 48.007812-33.402343 21.414063 0 40.5625 13.324218 48.007813 33.402343 7.441406 20.078125 1.605468 42.667969-14.632813 56.625-1.546875 1.328125-3.519531 2.054688-5.558593 2.054688zm0 0"/><path d="m92.042969 118.421875c6.253906-19.335937 21.539062-34.414063 40.960937-40.402344 9.910156-3.117187 20.507813-3.320312 30.53125-.585937 4.84375 1.191406 9.519532 2.996094 13.910156 5.363281 4.1875 2.433594 8.15625 5.21875 11.867188 8.332031 1.140625.910156 1.515625 2.480469.90625 3.804688-.609375 1.328125-2.042969 2.070312-3.476562 1.796875l-.566407-.113281c-4.519531-.867188-8.597656-2.398438-12.777343-3.273438-4.0625-.894531-8.175782-1.515625-12.320313-1.847656-7.851563-.824219-15.785156-.042969-23.324219 2.300781-15.75 5.824219-30.082031 14.933594-42.039062 26.726563l-.15625.136718c-.894532.792969-2.269532.710938-3.0625-.1875-.488282-.5625-.660156-1.332031-.453125-2.050781zm0 0"/><path d="m330.976562 120.523438c-11.957031-11.792969-26.289062-20.902344-42.042968-26.722657-7.535156-2.34375-15.472656-3.128906-23.320313-2.304687-4.144531.335937-8.261719.953125-12.320312 1.847656-4.179688.875-8.257813 2.40625-12.777344 3.277344l-.5625.105468c-1.433594.277344-2.871094-.460937-3.484375-1.789062-.609375-1.328125-.234375-2.898438.910156-3.808594 3.710938-3.113281 7.679688-5.898437 11.867188-8.332031 4.390625-2.367187 9.0625-4.171875 13.910156-5.363281 10.023438-2.734375 20.621094-2.53125 30.53125.585937 19.421875 5.992188 34.707031 21.066407 40.960938 40.40625.273437.925781-.101563 1.917969-.914063 2.4375-.808594.519531-1.867187.441407-2.59375-.191406zm0 0"/><path d="m309.4375 220.167969c-3.730469 0-7.03125-2.421875-8.148438-5.980469-1.117187-3.5625.210938-7.433594 3.273438-9.5625.433594-.347656.839844-.726562 1.210938-1.140625 13.292968-13.378906 13.300781-34.972656.015624-48.359375-13.511718-12.964844-34.839843-12.964844-48.351562-.003906-13.277344 13.378906-13.277344 34.960937 0 48.339844.375.421874.785156.8125 1.226562 1.164062 3.753907 2.726562 4.640626 7.957031 1.992188 11.773438-2.644531 3.8125-7.855469 4.808593-11.726562 2.242187-1.28125-.933594-2.480469-1.976563-3.574219-3.125-19.949219-20.015625-19.914063-52.410156.082031-72.378906s52.390625-19.957031 72.378906.023437c19.984375 19.976563 20.003906 52.371094.039063 72.375-1.089844 1.140625-2.28125 2.179688-3.558594 3.105469-1.425781.992187-3.121094 1.527344-4.859375 1.527344zm0 0"/><path d="m187.746094 230.40625c-2.261719.003906-4.433594-.898438-6.03125-2.5-10.105469-9.035156-23.085938-14.199219-36.636719-14.566406-13.5625.289062-26.570313 5.460937-36.632813 14.566406-3.347656 3.234375-8.667968 3.1875-11.960937-.105469-3.292969-3.289062-3.339844-8.613281-.105469-11.960937 13.289063-12.269532 30.617188-19.234375 48.699219-19.566406 18.085937.332031 35.414063 7.296874 48.703125 19.566406 2.4375 2.441406 3.167969 6.109375 1.847656 9.296875-1.320312 3.191406-4.429687 5.269531-7.882812 5.269531zm0 0"/><path d="m324.28125 230.40625c-2.265625.003906-4.4375-.898438-6.035156-2.5-10.101563-9.035156-23.082032-14.199219-36.632813-14.566406-13.566406.289062-26.574219 5.460937-36.632812 14.566406-3.347657 3.234375-8.671875 3.1875-11.964844-.105469-3.289063-3.289062-3.335937-8.613281-.101563-11.960937 27.226563-26.089844 70.171876-26.089844 97.398438 0 2.441406 2.441406 3.171875 6.109375 1.847656 9.296875-1.320312 3.191406-4.429687 5.269531-7.878906 5.269531zm0 0"/><path d="m213.328125 366.941406c-12.671875-.007812-24.300781-7.035156-30.195313-18.253906-5.898437-11.214844-5.097656-24.777344 2.082032-35.222656.40625-.59375.832031-1.175782 1.273437-1.738282-13.480469-8.074218-19.707031-24.304687-15.082031-39.324218 4.625-15.015625 18.90625-24.933594 34.59375-24.023438s28.722656 12.414063 31.582031 27.867188c.859375 4.632812-2.203125 9.085937-6.839843 9.945312-4.632813.855469-9.085938-2.203125-9.945313-6.839844-1.257813-6.789062-6.480469-12.148437-13.230469-13.585937-6.753906-1.433594-13.707031 1.339844-17.617187 7.027344-3.90625 5.691406-4.003907 13.175781-.242188 18.964843 3.757813 5.789063 10.636719 8.742188 17.425781 7.480469 4.632813-.84375 9.074219 2.214844 9.941407 6.84375.09375.515625.144531 1.039063.140625 1.5625-.007813 4.109375-2.941406 7.628907-6.984375 8.378907-9.265625 1.71875-15.386719 10.621093-13.667969 19.890624 1.714844 9.269532 10.621094 15.386719 19.890625 13.671876 9.265625-1.71875 15.386719-10.625 13.671875-19.890626-.859375-4.636718 2.199219-9.089843 6.835938-9.945312 4.632812-.859375 9.085937 2.203125 9.945312 6.835938 1.84375 9.972656-.84375 20.25-7.332031 28.046874-6.484375 7.796876-16.101563 12.304688-26.246094 12.308594zm0 0"/><path d="m120.9375 347.632812c-1.222656 0-2.429688-.261718-3.539062-.769531l-44.652344-20.410156c-8.15625-3.6875-14.46875-10.53125-17.480469-18.960937-3.015625-8.429688-2.476563-17.71875 1.496094-25.742188 6.824219-13.730469 21.839843-21.363281 36.957031-18.789062 10.046875-11.578126 26.496094-15.199219 40.472656-8.902344 8.164063 3.679687 14.480469 10.519531 17.5 18.949218 3.019532 8.429688 2.480469 17.726563-1.492187 25.75l-21.589844 44.089844c-1.433594 2.929688-4.410156 4.785156-7.671875 4.785156zm-33.125-68.121093c-6.664062-.007813-12.753906 3.769531-15.714844 9.742187-1.949218 3.882813-2.226562 8.398438-.761718 12.492188 1.460937 4.09375 4.53125 7.410156 8.503906 9.179687l37.097656 16.957031 17.925781-36.621093c1.949219-3.886719 2.222657-8.402344.761719-12.5-1.464844-4.09375-4.539062-7.410157-8.511719-9.179688-8.257812-3.71875-17.988281-.535156-22.449219 7.347657-2.085937 3.714843-6.589843 5.320312-10.558593 3.769531-2.003907-.785157-4.140625-1.1875-6.292969-1.1875zm0 0"/></svg>