<svg height="512pt" viewBox="0 0 512 512.03459" width="512pt" xmlns="http://www.w3.org/2000/svg"><path d="m247.5 8.585938c-101.269531-.015626-190.675781 66.109374-220.3125 162.945312-29.640625 96.839844 7.441406 201.675781 91.375 258.34375h.085938l69.121093 48.042969v8.535156c.027344 9.414063 7.652344 17.039063 17.066407 17.066406h145.066406c9.414062-.027343 17.039062-7.652343 17.066406-17.066406v-50.433594c.765625-.511719 1.535156-.9375 2.304688-1.449219 3.753906-2.390624 7.507812-4.867187 11.09375-7.425781.007812.089844.039062.179688.082031.257813 1.058593 2.222656 2.570312 4.199218 4.4375 5.800781.597656.597656 1.28125 1.28125 1.964843 1.878906 1.257813 1.097657 2.597657 2.09375 4.011719 2.984375.683594.5625 1.425781 1.050782 2.21875 1.453125.796875.449219 1.625.847657 2.472657 1.195313.691406.332031 1.402343.617187 2.132812.851562 1.109375.425782 2.21875.769532 3.328125 1.109375 2.8125.75 5.710937 1.125 8.621094 1.109375 9.703125.015625 18.957031-4.113281 25.425781-11.347656 43.410156-48.574219 67.726562-111.246094 68.4375-176.386719 1.027344-76.800781-51.199219-247.464843-256-247.464843zm0 0" fill="#f0c419"/><path d="m503.5 256.050781c-.710938 65.140625-25.027344 127.8125-68.4375 176.386719-6.46875 7.234375-15.722656 11.363281-25.425781 11.347656-2.910157.015625-5.808594-.359375-8.621094-1.109375-1.109375-.339843-2.21875-.683593-3.328125-1.109375-.730469-.234375-1.441406-.519531-2.132812-.851562-.847657-.347656-1.675782-.746094-2.472657-1.195313-.792969-.402343-1.535156-.890625-2.21875-1.453125-1.414062-.890625-2.753906-1.886718-4.011719-2.984375-.683593-.597656-1.367187-1.28125-1.964843-1.878906-1.867188-1.601563-3.378907-3.578125-4.4375-5.800781-.042969-.078125-.074219-.167969-.082031-.257813-3.585938 2.558594-7.339844 5.035157-11.09375 7.425781-.769532.511719-1.539063.9375-2.304688 1.449219-20.9375 12.726563-43.785156 22.007813-67.667969 27.476563h-.257812l-.339844-2.644532c-8.613281-20.691406-28.789063-34.207031-51.203125-34.304687h-8.53125c-20.351562.03125-38.765625 12.082031-46.933594 30.722656-.6875 1.613281-1.285156 3.265625-1.792968 4.949219-1.648438 5.039062-2.484376 10.308594-2.472657 15.613281v.085938l-69.121093-48.042969h-.085938c-83.933594-56.667969-121.015625-161.503906-91.375-258.34375 29.636719-96.835938 119.042969-162.960938 220.3125-162.945312 204.800781 0 257.027344 170.664062 256 247.464843zm0 0" fill="#ffdc00"/><path d="m192.035156 457.269531c-8.152344-18.652343-26.578125-30.703125-46.933594-30.695312h-8.535156c-28.292968.046875-51.203125 23-51.199218 51.296875v8.546875c.019531 9.425781 7.644531 17.0625 17.066406 17.101562h145.066406zm0 0" fill="#3f51b5"/><path d="m366.96875 436.019531v50.433594c-.027344 9.414063-7.652344 17.039063-17.066406 17.066406h-145.066406c-9.414063-.027343-17.039063-7.652343-17.066407-17.066406v-8.621094c-.011719-5.304687.824219-10.574219 2.472657-15.613281.507812-1.683594 1.105468-3.335938 1.792968-4.949219 8.167969-18.640625 26.582032-30.691406 46.933594-30.722656h8.53125c22.414062.097656 42.589844 13.613281 51.203125 34.304687l.597656 2.644532c23.882813-5.46875 46.730469-14.75 67.667969-27.476563zm0 0" fill="#3f51b5"/><path d="m503.5 256.050781c-.710938 65.140625-25.027344 127.8125-68.4375 176.386719-6.46875 7.234375-15.722656 11.363281-25.425781 11.347656-2.910157.015625-5.808594-.359375-8.621094-1.109375-1.109375-.339843-2.21875-.683593-3.328125-1.109375-.300781-.0625-.589844-.175781-.851562-.339844 4.851562-1.882812 9.179687-4.894531 12.628906-8.789062 43.40625-48.574219 67.722656-111.246094 68.4375-176.386719 1.023437-74.921875-48.726563-239.273437-241.496094-247.125 3.671875-.253906 7.339844-.339843 11.09375-.339843 204.800781 0 257.027344 170.664062 256 247.464843zm0 0" fill="#fec108"/><path d="m366.96875 436.019531v50.433594c-.027344 9.414063-7.652344 17.039063-17.066406 17.066406h-25.601563c9.414063-.027343 17.039063-7.652343 17.066407-17.066406v-37.035156c8.808593-3.921875 17.359374-8.394531 25.601562-13.398438zm0 0" fill="#283593"/><path d="m78.03125 395.058594c-3.160156 4.011718-6.488281 7.9375-9.902344 11.777344-12.601562 13.945312-34.113281 15.078124-48.113281 2.535156-14-12.546875-15.226563-34.046875-2.742187-48.101563 7.546874-8.457031 14.371093-17.535156 20.394531-27.136719zm0 0" fill="#ff9801"/><path d="m380.367188 427.144531c-3.585938 2.558594-7.339844 5.035157-11.09375 7.425781-13.527344-12.695312-14.472657-33.851562-2.132813-47.703124 26.308594-29.355469 43.140625-65.96875 48.289063-105.050782 1.207031-9.316406 9.132812-16.289062 18.523437-16.292968-2.128906 44.964843-19.699219 87.824218-49.746094 121.34375-9.945312 11.144531-11.5 27.457031-3.839843 40.277343zm0 0" fill="#fec108"/><path d="m380.449219 427.402344c1.300781 2.0625 2.785156 4.003906 4.4375 5.800781-1.867188-1.601563-3.378907-3.578125-4.4375-5.800781zm0 0" fill="#f0c419"/><path d="m366.96875 436.019531v17.066407c-15.941406 9.6875-33.011719 17.390624-50.824219 22.9375-3.960937 1.195312-8.253906.445312-11.574219-2.023438-3.324218-2.46875-5.277343-6.363281-5.269531-10.503906 23.882813-5.46875 46.730469-14.75 67.667969-27.476563zm0 0" fill="#283593"/><path d="m365.933594 109.933594c10.007812-9.921875 26.15625-9.886719 36.125.078125 9.964844 9.96875 10 26.117187.078125 36.125-9.996094 10-48.269531 12.066406-48.269531 12.066406s2.066406-38.273437 12.066406-48.269531zm0 0" fill="#0377bc"/><path d="m363.539062 119.511719c8.015626-8.015625 21.007813-8.015625 29.019532 0 8.015625 8.011719 8.015625 21.007812 0 29.019531-8.011719 8.015625-38.691406 9.671875-38.691406 9.671875s1.65625-30.679687 9.671874-38.691406zm0 0" fill="#02a9f4"/><path d="m467.84375 105.929688c13.003906-5.550782 28.046875.492187 33.597656 13.496093 5.546875 13.003907-.492187 28.042969-13.496094 33.59375-13.003906 5.546875-49.292968-6.792969-49.292968-6.792969s16.191406-34.746093 29.191406-40.296874zm0 0" fill="#0377bc"/><path d="m460.492188 116.074219c9.726562-4.140625 20.972656.382812 25.121093 10.105469 4.152344 9.722656-.359375 20.96875-10.082031 25.128906-9.726562 4.152344-36.878906-5.082032-36.878906-5.082032s12.113281-26 21.839844-30.152343zm0 0" fill="#02a9f4"/><path d="m406.140625 44.226562c5.550781-13.003906-.492187-28.046874-13.496094-33.597656-13.003906-5.546875-28.042969.492188-33.59375 13.496094-5.546875 13.003906 6.792969 49.292969 6.792969 49.292969s34.746094-16.191407 40.296875-29.191407zm0 0" fill="#0377bc"/><path d="m395.988281 51.578125c2.6875-6.292969 1.8125-13.539063-2.292969-19.011719-4.109374-5.472656-10.820312-8.339844-17.613281-7.519531s-12.632812 5.203125-15.320312 11.496094c-4.152344 9.726562 5.082031 36.875 5.082031 36.875s25.992188-12.113281 30.144531-21.839844zm0 0" fill="#02a9f4"/><path d="m44.226562 105.929688c-13.003906-5.550782-28.046874.492187-33.597656 13.496093-5.550781 13.003907.492188 28.042969 13.496094 33.59375 13.003906 5.546875 49.292969-6.792969 49.292969-6.792969s-16.191407-34.746093-29.191407-40.296874zm0 0" fill="#0377bc"/><path d="m51.574219 116.074219c-9.726563-4.140625-20.96875.382812-25.117188 10.105469-4.152343 9.722656.359375 20.96875 10.078125 25.128906 9.730469 4.152344 36.882813-5.082032 36.882813-5.082032s-12.113281-26-21.84375-30.152343zm0 0" fill="#02a9f4"/><path d="m105.933594 44.226562c-5.550782-13.003906.492187-28.046874 13.496094-33.597656 13.003906-5.546875 28.042968.492188 33.59375 13.496094 5.546874 13.003906-6.792969 49.292969-6.792969 49.292969s-34.75-16.191407-40.296875-29.191407zm0 0" fill="#0377bc"/><path d="m116.078125 51.578125c-4.152344-9.726563.367187-20.980469 10.097656-25.132813 9.726563-4.152343 20.980469.367188 25.132813 10.097657 4.152344 9.726562-5.085938 36.875-5.085938 36.875s-25.992187-12.113281-30.144531-21.839844zm0 0" fill="#02a9f4"/><path d="m172.921875 211.660156c13.527344-11.632812 18.386719-30.453125 12.183594-47.183594-6.203125-16.730468-22.160157-27.832031-40.003907-27.832031s-33.800781 11.101563-40.003906 27.832031c-6.203125 16.730469-1.34375 35.550782 12.183594 47.183594zm0 0" fill="#f5f5f5"/><path d="m162.152344 179.21875c0-14.15625-11.453125-25.632812-25.585938-25.632812-14.128906 0-25.582031 11.476562-25.582031 25.632812s11.453125 25.632812 25.582031 25.632812c14.132813 0 25.585938-11.476562 25.585938-25.632812zm0 0" fill="#3f51b5"/><path d="m309.453125 211.660156c.855469-.640625 1.65625-1.351562 2.390625-2.132812 16.628906-16.671875 16.609375-43.667969-.050781-60.3125-16.660157-16.644532-43.65625-16.644532-60.316407 0-16.660156 16.644531-16.679687 43.640625-.050781 60.3125.734375.78125 1.535157 1.492187 2.390625 2.132812zm0 0" fill="#f5f5f5"/><path d="m298.683594 179.21875c-.011719 12.214844-8.648438 22.722656-20.628906 25.09375-11.984376 2.375-23.976563-4.046875-28.640626-15.335938-4.667968-11.289062-.710937-24.300781 9.449219-31.082031 10.160157-6.78125 23.695313-5.441406 32.328125 3.199219 4.808594 4.804688 7.503906 11.328125 7.492188 18.125zm0 0" fill="#3f51b5"/><path d="m162.167969 170.71875c0 4.710938-3.820313 8.53125-8.53125 8.53125-4.714844 0-8.535157-3.820312-8.535157-8.53125 0-4.714844 3.820313-8.535156 8.535157-8.535156 4.710937 0 8.53125 3.820312 8.53125 8.535156zm0 0" fill="#f5f5f5"/><path d="m298.703125 170.71875c0 4.710938-3.820313 8.53125-8.535156 8.53125-4.710938 0-8.53125-3.820312-8.53125-8.53125 0-4.714844 3.820312-8.535156 8.53125-8.535156 4.714843 0 8.535156 3.820312 8.535156 8.535156zm0 0" fill="#f5f5f5"/><path d="m349.902344 512.035156h-145.066406c-14.132813-.015625-25.585938-11.46875-25.601563-25.601562v-8.617188c-.007813-6.207031.972656-12.375 2.902344-18.277344.578125-1.898437 1.257812-3.769531 2.03125-5.597656 9.507812-21.800781 31.015625-35.910156 54.800781-35.941406h8.53125c26.035156.019531 49.460938 15.816406 59.230469 39.949219 1.117187 2.890625.578125 6.15625-1.402344 8.535156-1.984375 2.382813-5.101563 3.5-8.144531 2.925781-3.042969-.578125-5.535156-2.753906-6.511719-5.695312-7.359375-17.328125-24.34375-28.597656-43.171875-28.648438h-8.53125c-16.96875.019532-32.316406 10.066406-39.121094 25.609375-.546875 1.300781-1.023437 2.625-1.429687 3.976563-1.402344 4.246094-2.117188 8.691406-2.117188 13.167968v8.617188c.003907 4.710938 3.824219 8.527344 8.535157 8.53125h145.066406c4.710937-.003906 8.527344-3.820312 8.53125-8.53125v-50.433594c0-4.710937 3.820312-8.53125 8.535156-8.53125 4.710938 0 8.53125 3.820313 8.53125 8.53125v50.433594c-.015625 14.128906-11.46875 25.582031-25.597656 25.597656zm0 0"/><path d="m247.5 512.035156h-145.066406c-14.140625-.027344-25.59375-11.492187-25.597656-25.632812v-8.550782c.007812-33 26.730468-59.765624 59.730468-59.824218h8.535156c23.753907-.027344 45.265626 14.039062 54.757813 35.816406 1.882813 4.320312-.09375 9.351562-4.417969 11.234375-4.320312 1.878906-9.347656-.097656-11.230468-4.417969-6.785157-15.550781-22.144532-25.589844-39.109376-25.566406h-8.535156c-23.574218.054688-42.664062 19.179688-42.664062 42.757812v8.550782c-.003906 4.71875 3.8125 8.550781 8.53125 8.566406h145.066406c4.714844 0 8.535156 3.820312 8.535156 8.53125 0 4.714844-3.820312 8.535156-8.535156 8.535156zm0 0"/><path d="m42.703125 426.703125c-16.835937.007813-32.097656-9.882813-38.96875-25.25s-4.0625-33.335937 7.167969-45.875c7.226562-8.101563 13.757812-16.792969 19.527344-25.984375 2.5-3.996094 7.765624-5.210938 11.761718-2.714844s5.210938 7.761719 2.714844 11.761719c-6.28125 10.003906-13.394531 19.464844-21.257812 28.28125-9.402344 10.554687-8.527344 26.71875 1.960937 36.191406 10.6875 9.011719 26.542969 8.136719 36.171875-1.996093 3.269531-3.683594 6.492188-7.472657 9.546875-11.359376 1.886719-2.394531 4.90625-3.601562 7.925781-3.164062 3.019532.4375 5.574219 2.453125 6.703125 5.285156 1.132813 2.832032.664063 6.050782-1.222656 8.449219-3.261719 4.132813-6.699219 8.191406-10.226563 12.15625-8.101562 9.039063-19.667968 14.207031-31.804687 14.21875zm0 0"/><path d="m409.636719 452.300781c-16.835938.007813-32.097657-9.882812-38.96875-25.246093-6.871094-15.367188-4.0625-33.339844 7.167969-45.878907 28.699218-32.09375 45.5-73.070312 47.59375-116.074219.226562-4.707031 4.226562-8.34375 8.933593-8.117187s8.34375 4.226563 8.117188 8.933594c-2.285157 46.910156-20.613281 91.613281-51.921875 126.625-9.382813 10.558593-8.496094 26.710937 1.988281 36.175781 10.6875 9.003906 26.539063 8.128906 36.167969-2 42.011718-47.042969 65.550781-107.722656 66.253906-170.792969-.269531-33.816406-7.46875-67.222656-21.152344-98.148437-1.832031-4.324219.171875-9.3125 4.484375-11.171875 4.308594-1.855469 9.3125.121093 11.191407 4.421875 14.53125 33.160156 22.199218 68.914062 22.542968 105.117187-.757812 67.199219-25.84375 131.851563-70.617187 181.972657-8.105469 9.019531-19.65625 14.175781-31.78125 14.183593zm0 0"/><path d="m357.835938 37.492188c-1.128907.003906-2.25-.222657-3.289063-.664063-34.019531-13.613281-70.410156-20.316406-107.046875-19.726563-30.960938-.09375-61.59375 6.371094-89.878906 18.964844-4.277344 1.808594-9.21875-.140625-11.113282-4.382812-1.890624-4.242188-.039062-9.222656 4.164063-11.199219 30.472656-13.578125 63.472656-20.546875 96.828125-20.4492188 38.902344-.5976562 77.53125 6.5585938 113.636719 21.0585938 3.742187 1.574219 5.859375 5.566406 5.058593 9.546875-.800781 3.984375-4.296874 6.847656-8.359374 6.851563zm0 0"/><path d="m118.648438 438.394531c-1.726563 0-3.417969-.507812-4.859376-1.460937-65.820312-44.375-105.261718-118.582032-105.222656-197.964844-.082031-30.007812 5.570313-59.753906 16.652344-87.640625 1.074219-2.910156 3.640625-5.003906 6.703125-5.476563 3.066406-.46875 6.140625.757813 8.042969 3.203126 1.898437 2.449218 2.320312 5.738281 1.101562 8.585937-10.273437 25.878906-15.511718 53.484375-15.429687 81.328125-.039063 73.585938 36.464843 142.390625 97.414062 183.625 3.257813 1.984375 4.796875 5.890625 3.773438 9.566406-1.023438 3.671875-4.363281 6.21875-8.175781 6.234375zm0 0"/><path d="m53.871094 122.660156c-3.121094-.007812-5.988282-1.714844-7.480469-4.457031-1.492187-2.738281-1.371094-6.078125.320313-8.703125 16.0625-24.957031 36.652343-46.6875 60.707031-64.074219 3.820312-2.761719 9.15625-1.902343 11.917969 1.917969 2.761718 3.820312 1.902343 9.15625-1.917969 11.917969-22.335938 16.136719-41.457031 36.316406-56.371094 59.488281-1.570313 2.441406-4.273437 3.914062-7.175781 3.910156zm0 0"/><path d="m459.222656 121.46875c-2.863281.003906-5.539062-1.429688-7.121094-3.816406-15.121093-22.976563-34.460937-42.875-56.992187-58.652344-3.863281-2.695312-4.8125-8.015625-2.117187-11.882812 2.699218-3.863282 8.019531-4.8125 11.882812-2.117188 24.292969 17.003906 45.144531 38.453125 61.453125 63.21875 1.734375 2.617188 1.890625 5.980469.40625 8.75s-4.371094 4.496094-7.511719 4.5zm0 0"/><path d="m299.289062 472.011719c-4.335937-.011719-7.976562-3.273438-8.460937-7.582031-.484375-4.3125 2.34375-8.296876 6.570313-9.269532 22.992187-5.265625 44.988281-14.199218 65.140624-26.453125 4.300782-2.683593 8.683594-5.574219 12.898438-8.550781 3.847656-2.621094 9.085938-1.671875 11.773438 2.128906 2.6875 3.800782 1.832031 9.050782-1.921876 11.804688-4.484374 3.175781-9.148437 6.25-13.808593 9.148437-21.738281 13.234375-45.472657 22.875-70.28125 28.550781-.628907.148438-1.269531.222657-1.910157.222657zm0 0"/><path d="m353.863281 166.734375c-2.339843 0-4.582031-.960937-6.191406-2.664063-1.613281-1.699218-2.453125-3.988281-2.328125-6.328124.375-6.933594 2.839844-42.125 14.558594-53.84375 13.503906-12.898438 34.761718-12.898438 48.265625 0 6.402343 6.398437 10 15.082031 10 24.132812 0 9.054688-3.597657 17.734375-10 24.132812-11.710938 11.71875-46.90625 14.183594-53.84375 14.558594-.152344.011719-.304688.011719-.460938.011719zm30.171875-55.765625c-4.527344-.011719-8.875 1.789062-12.066406 5-3.847656 3.851562-7.160156 18.5-8.761719 32.890625 14.394531-1.597656 29.046875-4.90625 32.894531-8.757813 4.878907-4.882812 6.339844-12.222656 3.699219-18.597656-2.640625-6.378906-8.863281-10.535156-15.765625-10.535156zm0 0"/><path d="m478.699219 162.917969c-14.597657-.863281-29-3.761719-42.792969-8.617188-2.296875-.777343-4.152344-2.496093-5.105469-4.722656-.949219-2.230469-.90625-4.757813.117188-6.953125 2.933593-6.300781 18.34375-38.042969 33.574219-44.550781 17.339843-7.402344 37.394531.65625 44.796874 17.996093 7.398438 17.339844-.65625 37.394532-17.996093 44.796876-4.023438 1.5-8.304688 2.199218-12.59375 2.050781zm-27.894531-21.882813c13.953124 3.882813 28.789062 6.257813 33.789062 4.132813 5.667969-2.351563 9.636719-7.570313 10.390625-13.660157.757813-6.089843-1.816406-12.117187-6.734375-15.785156-4.921875-3.667968-11.433594-4.410156-17.054688-1.945312-5.003906 2.132812-13.539062 14.5-20.390624 27.257812zm0 0"/><path d="m365.847656 81.953125c-3.652344 0-6.902344-2.324219-8.078125-5.785156-2.238281-6.574219-13.066406-40.15625-6.570312-55.390625 7.398437-17.339844 27.453125-25.394532 44.792969-17.996094 17.339843 7.402344 25.394531 27.457031 17.996093 44.796875-6.503906 15.230469-38.242187 30.640625-44.535156 33.574219-1.128906.527344-2.359375.800781-3.605469.800781zm16.753906-64.859375c-6.839843.011719-13.011718 4.09375-15.703124 10.382812-2.074219 4.859376.261718 19.765626 4.140624 33.785157 12.753907-6.851563 25.113282-15.386719 27.246094-20.386719 3.683594-8.667969-.339844-18.6875-9-22.398438-2.109375-.910156-4.386718-1.382812-6.683594-1.382812zm0 0"/><path d="m33.375 162.917969c-4.292969.148437-8.574219-.546875-12.597656-2.046875-17.339844-7.402344-25.398438-27.457032-17.996094-44.796875 7.398438-17.339844 27.457031-25.394531 44.796875-17.996094 15.230469 6.507813 30.640625 38.25 33.574219 44.546875 1.023437 2.195312 1.066406 4.726562.113281 6.953125-.949219 2.230469-2.804687 3.945313-5.101563 4.722656-13.789062 4.855469-28.191406 7.753907-42.789062 8.617188zm.804688-50.523438c-8.109376 0-15.101563 5.703125-16.726563 13.648438-1.625 7.949219 2.5625 15.941406 10.023437 19.125 4.984376 2.125 19.824219-.25 33.792969-4.132813-6.851562-12.757812-15.386719-25.125-20.390625-27.257812-2.117187-.910156-4.394531-1.378906-6.699218-1.382813zm0 0"/><path d="m146.222656 81.953125c-1.246094 0-2.476562-.273437-3.605468-.800781-6.292969-2.933594-38.03125-18.34375-44.535157-33.574219-7.398437-17.339844.65625-37.394531 17.996094-44.796875 17.335937-7.398438 37.390625.65625 44.792969 17.996094 6.5 15.234375-4.328125 48.816406-6.570313 55.390625-1.175781 3.460937-4.425781 5.785156-8.078125 5.785156zm-32.4375-41.078125c2.136719 5 14.496094 13.535156 27.253906 20.398438 3.878907-13.960938 6.269532-28.792969 4.132813-33.792969-2.316406-5.726563-7.542969-9.753907-13.667969-10.535157s-12.195312 1.8125-15.871094 6.773438c-3.675781 4.964844-4.382812 11.527344-1.847656 17.15625zm0 0"/><path d="m172.921875 220.195312c-3.574219 0-6.765625-2.222656-8.007813-5.570312-1.242187-3.347656-.265624-7.113281 2.441407-9.441406 10.824219-9.304688 14.710937-24.363282 9.746093-37.746094-4.964843-13.382812-17.730468-22.261719-32.003906-22.261719-14.273437 0-27.039062 8.878907-32 22.261719-4.964844 13.382812-1.078125 28.441406 9.742188 37.746094 3.539062 3.082031 3.929687 8.4375.875 12-3.054688 3.558594-8.410156 3.984375-11.992188.949218-16.238281-13.957031-22.074218-36.546874-14.632812-56.621093 7.445312-20.078125 26.597656-33.40625 48.007812-33.40625 21.414063 0 40.566406 13.328125 48.007813 33.40625 7.445312 20.074219 1.605469 42.664062-14.632813 56.621093-1.542968 1.332032-3.515625 2.0625-5.550781 2.0625zm0 0"/><path d="m92.0625 118.453125c6.253906-19.339844 21.539062-34.414063 40.960938-40.402344 9.910156-3.121093 20.511718-3.324219 30.535156-.589843 4.84375 1.195312 9.515625 2.996093 13.90625 5.363281 4.1875 2.433593 8.160156 5.222656 11.871094 8.332031 1.140624.910156 1.515624 2.480469.90625 3.808594-.609376 1.328125-2.046876 2.066406-3.480469 1.792968l-.566407-.109374c-4.515624-.871094-8.59375-2.398438-12.777343-3.277344-4.058594-.894532-8.175781-1.511719-12.316407-1.847656-7.851562-.824219-15.785156-.039063-23.324218 2.304687-15.75 5.820313-30.082032 14.933594-42.042969 26.722656l-.152344.136719c-.898437.792969-2.269531.710938-3.0625-.1875-.492187-.5625-.660156-1.332031-.457031-2.046875zm0 0"/><path d="m330.996094 120.550781c-11.957032-11.789062-26.289063-20.898437-42.039063-26.722656-7.539062-2.34375-15.472656-3.128906-23.324219-2.304687-4.140624.335937-8.257812.953124-12.316406 1.847656-4.183594.878906-8.261718 2.40625-12.78125 3.277344l-.5625.109374c-1.433594.273438-2.871094-.464843-3.480468-1.792968-.609376-1.324219-.234376-2.898438.90625-3.808594 3.710937-3.109375 7.679687-5.898438 11.867187-8.332031 4.394531-2.367188 9.066406-4.167969 13.910156-5.363281 10.023438-2.734376 20.621094-2.53125 30.535157.585937 19.417968 5.988281 34.703124 21.066406 40.957031 40.402344.273437.925781-.097657 1.921875-.910157 2.441406s-1.871093.441406-2.597656-.195313zm0 0"/><path d="m309.5 220.183594c-3.722656-.007813-7.011719-2.425782-8.132812-5.976563-1.121094-3.546875.179687-7.414062 3.222656-9.5625.425781-.335937.824218-.710937 1.183594-1.117187 6.394531-6.4375 9.984374-15.136719 9.996093-24.210938.039063-9.0625-3.546875-17.769531-9.964843-24.171875-13.511719-12.953125-34.832032-12.953125-48.34375 0-6.414063 6.40625-10 15.109375-9.960938 24.171875.007812 9.058594 3.585938 17.746094 9.960938 24.175782.371093.417968.78125.804687 1.21875 1.152343 3.875 2.683594 4.839843 8 2.15625 11.875-2.683594 3.875-8 4.839844-11.875 2.15625-1.269532-.921875-2.449219-1.953125-3.535157-3.082031-9.582031-9.644531-14.96875-22.679688-14.992187-36.277344 0-28.273437 22.925781-51.199218 51.203125-51.199218 28.273437 0 51.199219 22.925781 51.199219 51.199218-.019532 13.582032-5.394532 26.605469-14.960938 36.242188-1.09375 1.144531-2.285156 2.1875-3.566406 3.117187-1.410156.980469-3.089844 1.507813-4.808594 1.507813zm0 0"/><path d="m187.769531 230.433594c-2.265625.003906-4.4375-.894532-6.035156-2.5-10.101563-9.035156-23.082031-14.195313-36.632813-14.566406-13.566406.292968-26.570312 5.464843-36.632812 14.566406-3.347656 3.246094-8.679688 3.207031-11.976562-.089844-3.296876-3.296875-3.335938-8.628906-.089844-11.976562 13.285156-12.269532 30.617187-19.234376 48.699218-19.566407 18.082032.332031 35.414063 7.296875 48.699219 19.566407 2.441407 2.441406 3.167969 6.109374 1.847657 9.300781-1.320313 3.1875-4.429688 5.265625-7.878907 5.265625zm0 0"/><path d="m324.300781 230.433594c-2.261719.003906-4.433593-.894532-6.03125-2.5-10.105469-9.035156-23.085937-14.195313-36.632812-14.566406-13.566407.292968-26.574219 5.464843-36.636719 14.566406-3.34375 3.246094-8.675781 3.207031-11.972656-.089844s-3.339844-8.628906-.09375-11.976562c27.226562-26.089844 70.175781-26.089844 97.402344 0 2.4375 2.441406 3.167968 6.109374 1.847656 9.300781-1.320313 3.1875-4.429688 5.265625-7.882813 5.265625zm0 0"/><path d="m256.035156 307.234375h-110.933594c-9.421874-.011719-17.054687-7.644531-17.066406-17.066406v-17.066407c0-4.714843 3.820313-8.535156 8.53125-8.535156 4.714844 0 8.535156 3.820313 8.535156 8.535156v17.066407h110.933594c14.132813-.015625 25.585938-11.46875 25.601563-25.601563v-8.53125c0-4.714844 3.820312-8.535156 8.53125-8.535156 4.714843 0 8.535156 3.820312 8.535156 8.535156v8.53125c-.03125 23.554688-19.117187 42.640625-42.667969 42.667969zm0 0"/><path d="m196.300781 341.367188h-8.53125c-4.714843 0-8.535156-3.820313-8.535156-8.53125 0-4.714844 3.820313-8.535157 8.535156-8.535157h8.53125c4.714844 0 8.535157 3.820313 8.535157 8.535157 0 4.710937-3.820313 8.53125-8.535157 8.53125zm0 0"/></svg>