<svg height="512pt" viewBox="0 0 512.03336 512" width="512pt" xmlns="http://www.w3.org/2000/svg"><path d="m247.484375 8.578125c-101.273437-.015625-190.675781 66.109375-220.316406 162.945313-29.636719 96.839843 7.445312 201.675781 91.378906 258.34375h.085937l69.117188 48.042968v8.535156c.027344 9.414063 7.652344 17.039063 17.066406 17.066407h145.066406c9.414063-.027344 17.039063-7.652344 17.066407-17.066407v-50.433593c.769531-.511719 1.539062-.9375 2.304687-1.449219 3.753906-2.390625 7.511719-4.867188 11.09375-7.425781.011719.089843.039063.179687.085938.257812 1.058594 2.222657 2.570312 4.199219 4.4375 5.800781.597656.597657 1.28125 1.28125 1.960937 1.878907 1.261719 1.097656 2.601563 2.09375 4.011719 2.984375.6875.5625 1.429688 1.050781 2.21875 1.453125.800781.449219 1.625.847656 2.476562 1.191406.6875.335937 1.402344.621094 2.132813.855469 1.109375.425781 2.21875.769531 3.328125 1.109375 2.808594.75 5.707031 1.125 8.617188 1.109375 9.707031.015625 18.957031-4.113282 25.429687-11.351563 43.410156-48.570312 67.722656-111.242187 68.4375-176.382812 1.023437-76.800781-51.199219-247.464844-256-247.464844zm0 0" fill="#f0c419"/><path d="m78.011719 395.050781c-3.15625 4.011719-6.484375 7.9375-9.898438 11.777344-12.605469 13.945313-34.113281 15.078125-48.113281 2.535156-14.003906-12.546875-15.230469-34.046875-2.746094-48.105469 7.550782-8.453124 14.375-17.53125 20.394532-27.132812zm0 0" fill="#ff9801"/><path d="m503.484375 256.042969c-.714844 65.140625-25.027344 127.8125-68.4375 176.382812-6.472656 7.238281-15.722656 11.367188-25.429687 11.351563-2.910157.015625-5.808594-.359375-8.617188-1.109375-1.109375-.339844-2.21875-.683594-3.328125-1.109375-.730469-.234375-1.445313-.519532-2.132813-.855469-.851562-.34375-1.675781-.742187-2.476562-1.191406-.789062-.402344-1.53125-.890625-2.21875-1.453125-1.410156-.890625-2.75-1.886719-4.011719-2.984375-.679687-.597657-1.363281-1.28125-1.960937-1.878907-1.867188-1.601562-3.378906-3.578124-4.4375-5.800781-.046875-.078125-.074219-.167969-.085938-.257812-3.582031 2.558593-7.339844 5.035156-11.09375 7.425781-.765625.511719-1.535156.9375-2.304687 1.449219-20.9375 12.726562-43.785157 22.003906-67.667969 27.476562h-.253906l-.34375-2.644531c-8.613282-20.691406-28.785156-34.207031-51.199219-34.304688h-8.535156c-20.351563.03125-38.761719 12.082032-46.933594 30.71875-.683594 1.617188-1.28125 3.269532-1.789063 4.953126-1.652343 5.039062-2.488281 10.308593-2.476562 15.613281v.085937l-69.117188-48.042968h-.085937c-83.933594-56.667969-121.015625-161.503907-91.378906-258.34375 29.640625-96.835938 119.042969-162.960938 220.316406-162.945313 204.800781 0 257.023437 170.664063 256 247.464844zm0 0" fill="#ffdc00"/><path d="m380.347656 427.136719c-3.582031 2.558593-7.339844 5.035156-11.09375 7.425781-13.523437-12.695312-14.46875-33.851562-2.132812-47.703125 26.3125-29.355469 43.144531-65.96875 48.292968-105.050781 1.203126-9.316406 9.132813-16.289063 18.523438-16.292969-2.132812 44.964844-19.703125 87.824219-49.75 121.34375-9.945312 11.144531-11.5 27.457031-3.839844 40.277344zm0 0" fill="#fec108"/><path d="m192.015625 457.257812c-8.148437-18.648437-26.578125-30.699218-46.929687-30.691406h-8.535157c-28.296875.046875-51.207031 23-51.199219 51.296875v8.546875c.019532 9.425782 7.644532 17.0625 17.066407 17.101563h145.066406zm0 0" fill="#3f51b5"/><path d="m366.949219 436.011719v50.433593c-.027344 9.414063-7.652344 17.039063-17.066407 17.066407h-145.066406c-9.414062-.027344-17.039062-7.652344-17.066406-17.066407v-8.621093c-.011719-5.304688.824219-10.574219 2.476562-15.613281.507813-1.683594 1.105469-3.335938 1.789063-4.953126 8.171875-18.636718 26.582031-30.6875 46.933594-30.71875h8.535156c22.414063.097657 42.585937 13.613282 51.199219 34.304688l.597656 2.644531c23.882812-5.472656 46.730469-14.75 67.667969-27.476562zm0 0" fill="#3f51b5"/><path d="m380.433594 427.394531c1.300781 2.0625 2.785156 4.003907 4.4375 5.800781-1.867188-1.601562-3.378906-3.578124-4.4375-5.800781zm0 0" fill="#f0c419"/><path d="m366.949219 436.011719v17.066406c-15.941407 9.6875-33.007813 17.390625-50.820313 22.9375-3.960937 1.195313-8.257812.445313-11.578125-2.023437-3.320312-2.46875-5.277343-6.363282-5.269531-10.503907 23.882812-5.472656 46.730469-14.75 67.667969-27.476562zm0 0" fill="#283593"/><path d="m187.75 264.5625h51.199219c18.851562 0 34.136719 15.28125 34.136719 34.132812v25.777344c0 18.851563-15.285157 34.132813-34.136719 34.132813h-51.199219c-18.851562 0-34.132812-15.28125-34.132812-34.132813v-25.777344c0-18.851562 15.28125-34.132812 34.132812-34.132812zm0 0" fill="#bb193b"/><g fill="#02a9f4"><path d="m301.28125 106.886719 13.847656 29.320312c1.070313 2.328125 3.230469 3.96875 5.761719 4.375l30.964844 4.703125c2.9375.5625 5.324219 2.695313 6.210937 5.550782.890625 2.851562.132813 5.964843-1.96875 8.089843l-22.40625 22.828125c-1.816406 1.875-2.632812 4.5-2.203125 7.078125l5.292969 32.226563c.597656 2.914062-.527344 5.914062-2.898438 7.714844-2.367187 1.796874-5.5625 2.078124-8.207031.71875l-27.695312-15.21875c-2.21875-1.222657-4.90625-1.222657-7.121094 0l-27.699219 15.21875c-2.644531 1.359374-5.839844 1.078124-8.207031-.71875-2.371094-1.800782-3.496094-4.800782-2.898437-7.714844l5.292968-32.226563c.429688-2.578125-.386718-5.203125-2.203125-7.078125l-22.40625-22.828125c-2.101562-2.125-2.859375-5.238281-1.96875-8.089843.886719-2.855469 3.273438-4.988282 6.210938-5.550782l30.964843-4.703125c2.53125-.40625 4.691407-2.046875 5.761719-4.375l13.847657-29.320312c1.207031-2.714844 3.894531-4.460938 6.863281-4.460938s5.65625 1.746094 6.863281 4.460938zm0 0"/><path d="m139.148438 106.886719 13.847656 29.320312c1.070312 2.328125 3.230468 3.96875 5.761718 4.375l30.964844 4.703125c2.9375.5625 5.324219 2.695313 6.210938 5.550782.890625 2.851562.132812 5.964843-1.96875 8.089843l-22.40625 22.828125c-1.816406 1.875-2.632813 4.5-2.203125 7.078125l5.292969 32.226563c.597656 2.914062-.527344 5.914062-2.898438 7.714844-2.371094 1.796874-5.5625 2.078124-8.207031.71875l-27.695313-15.21875c-2.21875-1.222657-4.90625-1.222657-7.125 0l-27.695312 15.21875c-2.648438 1.359374-5.839844 1.078124-8.207032-.71875-2.371093-1.800782-3.496093-4.800782-2.898437-7.714844l5.289063-32.226563c.433593-2.578125-.382813-5.203125-2.199219-7.078125l-22.40625-22.828125c-2.101563-2.125-2.859375-5.238281-1.972657-8.089843.886719-2.855469 3.277344-4.988282 6.210938-5.550782l30.96875-4.703125c2.527344-.40625 4.691406-2.046875 5.761719-4.375l13.847656-29.320312c1.203125-2.714844 3.894531-4.460938 6.863281-4.460938s5.65625 1.746094 6.863282 4.460938zm0 0"/><path d="m92.820312 19.175781 6.460938 13.683594c.5 1.085937 1.507812 1.851563 2.691406 2.042969l14.449219 2.191406c1.371094.261719 2.484375 1.257812 2.898437 2.589844.414063 1.332031.0625 2.785156-.917968 3.777344l-10.457032 10.652343c-.847656.875-1.226562 2.101563-1.023437 3.300781l2.46875 15.042969c.277344 1.359375-.246094 2.757813-1.351563 3.597657-1.105468.839843-2.597656.972656-3.832031.335937l-12.921875-7.101563c-1.039062-.574218-2.292968-.574218-3.328125 0l-12.925781 7.101563c-1.234375.636719-2.726562.503906-3.832031-.335937-1.105469-.839844-1.628907-2.238282-1.351563-3.597657l2.46875-15.042969c.203125-1.199218-.175781-2.425781-1.023437-3.300781l-10.460938-10.652343c-.980469-.992188-1.332031-2.445313-.917969-3.777344.414063-1.332032 1.527344-2.328125 2.898438-2.589844l14.449219-2.191406c1.183593-.191406 2.191406-.957032 2.691406-2.042969l6.460937-13.683594c.5625-1.265625 1.820313-2.082031 3.203126-2.082031 1.386718 0 2.640624.816406 3.203124 2.082031zm0 0"/><path d="m340.285156 19.175781 6.464844 13.683594c.5 1.085937 1.507812 1.851563 2.6875 2.042969l14.453125 2.191406c1.367187.261719 2.484375 1.257812 2.898437 2.589844.414063 1.332031.058594 2.785156-.921874 3.777344l-10.457032 10.652343c-.84375.875-1.226562 2.101563-1.023437 3.300781l2.46875 15.042969c.28125 1.359375-.246094 2.757813-1.351563 3.597657-1.105468.839843-2.59375.972656-3.828125.335937l-12.925781-7.101563c-1.035156-.574218-2.292969-.574218-3.328125 0l-12.925781 7.101563c-1.234375.636719-2.722656.503906-3.828125-.335937-1.105469-.839844-1.632813-2.238282-1.351563-3.597657l2.46875-15.042969c.203125-1.199218-.179687-2.425781-1.027344-3.300781l-10.457031-10.652343c-.980469-.992188-1.335937-2.445313-.921875-3.777344.414063-1.332032 1.53125-2.328125 2.902344-2.589844l14.449219-2.191406c1.179687-.191406 2.1875-.957032 2.6875-2.042969l6.464843-13.683594c.5625-1.265625 1.816407-2.082031 3.203126-2.082031 1.382812 0 2.636718.816406 3.199218 2.082031zm0 0"/></g><path d="m273.085938 307.328125v17.152344c0 9.054687-3.59375 17.738281-9.996094 24.140625s-15.085938 9.996094-24.140625 9.992187h-25.597657v-17.066406c-.019531-9.066406 3.566407-17.769531 9.96875-24.1875 6.402344-6.417969 15.097657-10.027344 24.164063-10.03125zm0 0" fill="#ad1457"/><path d="m256.015625 307.328125v17.152344c.003906 9.054687-3.589844 17.738281-9.992187 24.140625-6.402344 6.402344-15.085938 9.996094-24.140626 9.992187h-8.53125v-17.066406c-.019531-9.066406 3.566407-17.769531 9.96875-24.1875 6.402344-6.417969 15.097657-10.027344 24.164063-10.03125zm0 0" fill="#e91e63"/><path d="m503.484375 256.042969c-.714844 65.140625-25.027344 127.8125-68.4375 176.382812-6.472656 7.238281-15.722656 11.367188-25.429687 11.351563-2.910157.015625-5.808594-.359375-8.617188-1.109375-1.109375-.339844-2.21875-.683594-3.328125-1.109375-.304687-.0625-.59375-.175782-.855469-.339844 4.851563-1.882812 9.183594-4.894531 12.628906-8.792969 43.410157-48.570312 67.726563-111.242187 68.4375-176.382812 1.027344-74.921875-48.722656-239.273438-241.492187-247.125 3.667969-.253907 7.339844-.339844 11.09375-.339844 204.800781 0 257.023437 170.664063 256 247.464844zm0 0" fill="#fec108"/><path d="m366.949219 436.011719v50.433593c-.027344 9.414063-7.652344 17.039063-17.066407 17.066407h-25.597656c9.414063-.027344 17.039063-7.652344 17.066406-17.066407v-37.035156c8.808594-3.921875 17.359376-8.394531 25.597657-13.398437zm0 0" fill="#283593"/><path d="m349.882812 512.027344h-145.066406c-14.132812-.015625-25.582031-11.46875-25.597656-25.601563v-8.617187c-.007812-6.207032.972656-12.375 2.898438-18.277344.582031-1.898438 1.257812-3.769531 2.035156-5.597656 9.503906-21.800782 31.015625-35.910156 54.796875-35.941406h8.535156c26.035156.019531 49.460937 15.816406 59.230469 39.949218 1.113281 2.890625.578125 6.15625-1.40625 8.535156-1.980469 2.378907-5.097656 3.5-8.140625 2.925782-3.042969-.578125-5.535157-2.753906-6.511719-5.695313-7.363281-17.328125-24.34375-28.597656-43.171875-28.648437h-8.535156c-16.964844.019531-32.316407 10.066406-39.121094 25.609375-.542969 1.300781-1.019531 2.625-1.425781 3.976562-1.402344 4.246094-2.117188 8.691407-2.117188 13.167969v8.617188c.003906 4.710937 3.820313 8.527343 8.53125 8.53125h145.066406c4.710938-.003907 8.53125-3.820313 8.535157-8.53125v-50.433594c0-4.710938 3.820312-8.53125 8.53125-8.53125 4.714843 0 8.535156 3.820312 8.535156 8.53125v50.433594c-.015625 14.128906-11.46875 25.582031-25.601563 25.597656zm0 0"/><path d="m247.484375 512.027344h-145.066406c-14.140625-.027344-25.59375-11.492188-25.601563-25.632813v-8.550781c.011719-33 26.734375-59.765625 59.734375-59.824219h8.535157c23.753906-.027343 45.261718 14.039063 54.757812 35.816407 1.882812 4.320312-.097656 9.351562-4.417969 11.234374-4.320312 1.878907-9.351562-.097656-11.234375-4.417968-6.78125-15.550782-22.144531-25.589844-39.105468-25.566406h-8.535157c-23.578125.050781-42.664062 19.179687-42.667969 42.757812v8.550781c-.003906 4.71875 3.816407 8.550781 8.535157 8.566407h145.066406c4.710937 0 8.53125 3.820312 8.53125 8.53125 0 4.714843-3.820313 8.535156-8.53125 8.535156zm0 0"/><path d="m42.683594 426.691406c-16.832032.011719-32.097656-9.878906-38.96875-25.246094-6.871094-15.367187-4.0625-33.335937 7.167968-45.875 7.226563-8.101562 13.761719-16.792968 19.53125-25.984374 2.496094-3.996094 7.761719-5.214844 11.757813-2.714844 4 2.496094 5.214844 7.761718 2.714844 11.761718-6.28125 10.003907-13.390625 19.464844-21.257813 28.28125-9.402344 10.554688-8.523437 26.71875 1.964844 36.191407 10.683594 9.011719 26.539062 8.136719 36.167969-1.996094 3.273437-3.683594 6.492187-7.472656 9.546875-11.359375 2.917968-3.699219 8.285156-4.335938 11.988281-1.417969s4.339844 8.285157 1.421875 11.988281c-3.261719 4.132813-6.703125 8.191407-10.226562 12.15625-8.105469 9.039063-19.667969 14.207032-31.808594 14.214844zm0 0"/><path d="m409.617188 452.292969c-16.832032.007812-32.097657-9.882813-38.96875-25.25-6.871094-15.363281-4.0625-33.335938 7.167968-45.875 28.699219-32.09375 45.503906-73.070313 47.597656-116.074219.226563-4.707031 4.222657-8.34375 8.933594-8.117188 4.707032.226563 8.339844 4.226563 8.117188 8.933594-2.289063 46.910156-20.617188 91.613282-51.921875 126.625-9.386719 10.558594-8.496094 26.710938 1.988281 36.175782 10.683594 9.003906 26.539062 8.128906 36.164062-2 42.015626-47.042969 65.554688-107.722657 66.253907-170.792969.933593-68.941407-39.703125-185.683594-155.476563-224.765625-2.9375-.9375-5.144531-3.386719-5.769531-6.40625-.625-3.019532.429687-6.144532 2.757813-8.167969 2.328124-2.023437 5.570312-2.632813 8.472656-1.59375 134.128906 45.277344 167.941406 177.542969 167.082031 241.160156-.757813 67.199219-25.84375 131.84375-70.613281 181.964844-8.105469 9.019531-19.660156 14.175781-31.785156 14.183594zm0 0"/><path d="m118.632812 438.386719h-.085937c-1.703125 0-3.363281-.507813-4.777344-1.460938-60.5625-40.867187-99.082031-107.210937-104.550781-180.066406-5.464844-72.855469 22.71875-144.207031 76.503906-193.65625 2.246094-2.0625 5.417969-2.773437 8.328125-1.859375 2.910157.910156 5.109375 3.304688 5.773438 6.28125.664062 2.976562-.308594 6.082031-2.550781 8.144531-49.894532 45.875-76.066407 112.050781-71.046876 179.640625 5.019532 67.59375 40.683594 129.175782 96.808594 167.175782 3.253906 1.984374 4.796875 5.890624 3.773438 9.566406-1.023438 3.671875-4.363282 6.21875-8.175782 6.234375zm0 0"/><path d="m106.941406 65.050781c-3.816406.011719-7.179687-2.507812-8.238281-6.171875-1.0625-3.667968.4375-7.589844 3.671875-9.617187 41.546875-32.09375 92.609375-49.417969 145.109375-49.2343752 29.847656-.2382818 59.574219 3.8164062 88.265625 12.0429682 2.925781.863282 5.164062 3.222657 5.878906 6.1875.710938 2.964844-.210937 6.082032-2.421875 8.183594-2.210937 2.097656-5.375 2.859375-8.296875 1.992188-27.121094-7.757813-55.21875-11.578125-83.425781-11.339844-49-.175781-96.648437 16.082031-135.320313 46.175781-1.496093 1.15625-3.332031 1.785157-5.222656 1.78125zm0 0"/><path d="m299.269531 472c-4.335937-.007812-7.976562-3.269531-8.457031-7.578125-.484375-4.3125 2.339844-8.296875 6.566406-9.269531 22.992188-5.265625 44.988282-14.199219 65.144532-26.453125 4.296874-2.683594 8.679687-5.574219 12.898437-8.550781 3.847656-2.621094 9.085937-1.671876 11.769531 2.128906 2.6875 3.800781 1.832032 9.050781-1.917968 11.804687-4.484376 3.175781-9.152344 6.25-13.808594 9.148438-21.742188 13.234375-45.472656 22.875-70.285156 28.550781-.625.148438-1.265626.222656-1.910157.21875zm0 0"/><path d="m238.949219 367.136719h-51.199219c-23.550781-.027344-42.636719-19.113281-42.664062-42.667969v-25.777344c.027343-23.550781 19.113281-42.636718 42.664062-42.664062h51.199219c23.554687.027344 42.640625 19.113281 42.667969 42.664062v25.777344c-.027344 23.554688-19.113282 42.640625-42.667969 42.667969zm-51.199219-94.042969c-14.132812.015625-25.582031 11.46875-25.597656 25.597656v25.777344c.015625 14.132812 11.464844 25.585938 25.597656 25.601562h51.199219c14.132812-.015624 25.585937-11.46875 25.601562-25.601562v-25.777344c-.015625-14.128906-11.46875-25.582031-25.601562-25.597656zm0 0"/><path d="m213.351562 367.136719c-4.714843 0-8.535156-3.820313-8.535156-8.535157v-17.089843c.011719-23.570313 19.097656-42.6875 42.667969-42.734375h25.601563c4.710937 0 8.53125 3.820312 8.53125 8.53125 0 4.714844-3.820313 8.535156-8.53125 8.535156h-25.601563c-14.148437.035156-25.601563 11.515625-25.601563 25.667969v17.089843c0 4.714844-3.820312 8.535157-8.53125 8.535157zm0 0"/><path d="m329.246094 238.960938c-2.6875-.003907-5.328125-.6875-7.679688-1.992188l-27.148437-14.917969-27.148438 14.917969c-5.339843 2.964844-11.910156 2.59375-16.878906-.957031-5.210937-3.6875-7.84375-10.042969-6.757813-16.335938l5.292969-32.230469-22.28125-22.542968c-4.40625-4.492188-5.910156-11.082032-3.882812-17.042969 1.890625-5.816406 6.894531-10.078125 12.941406-11.007813l30.960937-4.699218 13.171876-28.90625c2.617187-5.699219 8.308593-9.351563 14.578124-9.355469 6.269532 0 11.964844 3.648437 14.582032 9.347656v.007813l13.847656 29.324218 30.289062 4.28125c6.046876.933594 11.050782 5.191407 12.9375 11.007813 2.03125 5.960937.527344 12.554687-3.886718 17.042969l-22.398438 22.824218 5.414063 31.949219c1.085937 6.292969-1.542969 12.648438-6.757813 16.335938-2.683594 1.910156-5.898437 2.941406-9.195312 2.949219zm-34.828125-34.140626c2.683593 0 5.324219.683594 7.671875 1.980469l26.410156 14.507813-5.433594-31.097656c-.867187-5.265626.816406-10.625 4.542969-14.445313l21.8125-22.222656-29.808594-4.523438c-5.339843-.832031-9.917969-4.269531-12.203125-9.167969l-12.992187-27.515624-12.996094 27.515624c-2.28125 4.894532-6.847656 8.332032-12.183594 9.167969l-29.824219 4.523438 21.820313 22.230469c3.71875 3.816406 5.402344 9.175781 4.535156 14.433593l-5.078125 30.898438 26.054688-14.300781c2.347656-1.300782 4.988281-1.984376 7.671875-1.984376zm6.863281-97.9375-7.71875 3.644532zm0 0"/><path d="m167.113281 238.960938c-2.6875-.003907-5.332031-.6875-7.679687-1.992188l-27.148438-14.917969-27.152344 14.917969c-5.335937 2.964844-11.90625 2.59375-16.875-.957031-5.210937-3.6875-7.84375-10.042969-6.757812-16.335938l5.292969-32.230469-22.28125-22.542968c-4.40625-4.492188-5.910157-11.082032-3.882813-17.042969 1.890625-5.816406 6.894532-10.078125 12.941406-11.007813l30.960938-4.699218 13.171875-28.90625c2.617187-5.699219 8.308594-9.351563 14.578125-9.355469 6.269531 0 11.964844 3.648437 14.582031 9.347656v.007813l13.851563 29.324218 30.285156 4.28125c6.046875.933594 11.050781 5.191407 12.9375 11.007813 2.03125 5.960937.527344 12.554687-3.886719 17.042969l-22.398437 22.824218 5.414062 31.949219c1.085938 6.292969-1.542968 12.648438-6.757812 16.335938-2.683594 1.910156-5.898438 2.941406-9.195313 2.949219zm-34.828125-34.140626c2.683594 0 5.320313.683594 7.667969 1.980469l26.414063 14.507813-5.433594-31.097656c-.867188-5.265626.816406-10.625 4.542968-14.445313l21.8125-22.222656-29.808593-4.523438c-5.34375-.832031-9.917969-4.269531-12.203125-9.167969l-12.992188-27.515624-12.996094 27.515624c-2.28125 4.894532-6.851562 8.332032-12.183593 9.167969l-29.824219 4.523438 21.820312 22.230469c3.71875 3.816406 5.402344 9.175781 4.53125 14.433593l-5.074218 30.898438 26.054687-14.300781c2.347657-1.300782 4.988281-1.984376 7.671875-1.984376zm6.863282-97.9375-7.71875 3.644532zm0 0"/><path d="m105.871094 85.359375c-2.015625 0-3.996094-.507813-5.761719-1.484375l-10.492187-5.765625-10.472657 5.757813c-4.023437 2.234374-8.96875 1.953124-12.710937-.722657-3.855469-2.726562-5.800782-7.421875-5.007813-12.074219l2.085938-12.703124-8.769531-8.933594c-3.253907-3.308594-4.371094-8.167969-2.886719-12.566406 1.417969-4.335938 5.152343-7.507813 9.660156-8.207032l11.832031-1.792968 5.347656-11.332032c1.96875-4.253906 6.230469-6.972656 10.914063-6.976562 4.6875 0 8.949219 2.71875 10.921875 6.96875l.003906.007812 5.351563 11.332032 11.8125 1.792968c4.515625.695313 8.257812 3.867188 9.679687 8.210938 1.484375 4.398437.363282 9.261718-2.890625 12.574218l-8.765625 8.921876 2.085938 12.703124c.792968 4.652344-1.152344 9.347657-5.007813 12.074219-2.023437 1.4375-4.445312 2.214844-6.929687 2.214844zm-16.246094-25.03125c2.003906 0 3.976562.5 5.734375 1.457031l3.992187 2.199219-.855468-5.183594c-.636719-3.886719.609375-7.84375 3.359375-10.664062l3.945312-4.027344-5.105469-.773437c-4-.613282-7.425781-3.183594-9.132812-6.851563l-1.945312-4.105469-1.949219 4.125c-1.710938 3.660156-5.136719 6.226563-9.132813 6.839844l-5.097656.769531 3.945312 4.023438c2.75 2.820312 3.996094 6.777343 3.359376 10.664062l-.855469 5.1875 3.957031-2.175781c1.773438-.972656 3.761719-1.480469 5.78125-1.484375zm-17.390625-31.109375-.007813.015625zm34.757813-.015625.007812.015625zm0 0"/><path d="m353.339844 85.359375c-2.015625 0-4-.507813-5.765625-1.484375l-10.488281-5.765625-10.476563 5.757813c-4.019531 2.234374-8.96875 1.953124-12.707031-.722657-3.855469-2.726562-5.804688-7.421875-5.007813-12.074219l2.085938-12.703124-8.769531-8.933594c-3.257813-3.308594-4.375-8.167969-2.890626-12.566406 1.417969-4.335938 5.152344-7.507813 9.664063-8.207032l11.828125-1.792968 5.347656-11.332032c1.972656-4.253906 6.230469-6.972656 10.917969-6.976562 4.6875 0 8.949219 2.71875 10.921875 6.96875l.003906.007812 5.347656 11.332032 11.8125 1.792968c4.515626.695313 8.261719 3.867188 9.679688 8.210938 1.484375 4.398437.367188 9.261718-2.890625 12.574218l-8.765625 8.921876 2.089844 12.703124c.792968 4.652344-1.15625 9.347657-5.011719 12.074219-2.023437 1.4375-4.445313 2.214844-6.925781 2.214844zm-16.246094-25.03125c2.003906 0 3.972656.5 5.734375 1.457031l3.988281 2.199219-.851562-5.183594c-.636719-3.886719.609375-7.84375 3.359375-10.664062l3.945312-4.027344-5.109375-.773437c-3.996094-.613282-7.425781-3.183594-9.128906-6.851563l-1.945312-4.105469-1.953126 4.125c-1.707031 3.660156-5.132812 6.226563-9.128906 6.839844l-5.101562.769531 3.945312 4.023438c2.75 2.820312 3.996094 6.777343 3.359375 10.664062l-.851562 5.1875 3.957031-2.175781c1.773438-.972656 3.757812-1.480469 5.78125-1.484375zm-17.394531-31.109375-.007813.015625zm34.757812-.015625.011719.015625zm0 0"/></svg>