<svg height="512pt" viewBox="0 0 512.01754 512" width="512pt" xmlns="http://www.w3.org/2000/svg"><path d="m247.484375 8.558594c-101.273437-.015625-190.675781 66.109375-220.316406 162.949218-29.636719 96.835938 7.445312 201.675782 91.378906 258.34375h.085937l69.117188 48.039063v8.535156c.027344 9.414063 7.652344 17.039063 17.066406 17.066407h145.066406c9.414063-.027344 17.039063-7.652344 17.066407-17.066407v-50.433593c.769531-.511719 1.539062-.9375 2.304687-1.449219 3.753906-2.390625 7.511719-4.863281 11.09375-7.421875.011719.089844.039063.175781.085938.253906 1.058594 2.222656 2.570312 4.199219 4.4375 5.804688.597656.59375 1.28125 1.277343 1.960937 1.875 1.261719 1.097656 2.601563 2.097656 4.011719 2.988281.6875.558593 1.429688 1.046875 2.21875 1.449219.800781.449218 1.625.847656 2.476562 1.195312.6875.335938 1.402344.621094 2.132813.851562 1.109375.429688 2.21875.769532 3.328125 1.109376 2.808594.753906 5.707031 1.125 8.617188 1.109374 9.707031.015626 18.957031-4.113281 25.429687-11.347656 43.410156-48.574218 67.722656-111.246094 68.4375-176.382812 1.023437-76.800782-51.199219-247.46875-256-247.46875zm0 0" fill="#f0c419"/><path d="m78.011719 395.035156c-3.15625 4.007813-6.484375 7.933594-9.898438 11.773438-12.605469 13.949218-34.113281 15.082031-48.113281 2.535156-14.003906-12.542969-15.230469-34.046875-2.746094-48.101562 7.550782-8.457032 14.375-17.53125 20.394532-27.136719zm0 0" fill="#ff9801"/><path d="m503.484375 256.027344c-.714844 65.136718-25.027344 127.808594-68.4375 176.382812-6.472656 7.234375-15.722656 11.363282-25.429687 11.347656-2.910157.015626-5.808594-.355468-8.617188-1.109374-1.109375-.339844-2.21875-.679688-3.328125-1.109376-.730469-.230468-1.445313-.515624-2.132813-.851562-.851562-.347656-1.675781-.746094-2.476562-1.195312-.789062-.402344-1.53125-.890626-2.21875-1.449219-1.410156-.890625-2.75-1.890625-4.011719-2.988281-.679687-.597657-1.363281-1.28125-1.960937-1.875-1.867188-1.605469-3.378906-3.582032-4.4375-5.804688-.046875-.078125-.074219-.164062-.085938-.253906-3.582031 2.558594-7.339844 5.03125-11.09375 7.421875-.765625.511719-1.535156.9375-2.304687 1.449219-20.9375 12.730468-43.785157 22.007812-67.667969 27.480468h-.253906l-.34375-2.648437c-8.613282-20.691407-28.785156-34.207031-51.199219-34.300781h-8.535156c-20.351563.027343-38.761719 12.078124-46.933594 30.71875-.683594 1.617187-1.28125 3.269531-1.789063 4.949218-1.652343 5.039063-2.488281 10.3125-2.476562 15.617188v.082031l-69.117188-48.039063h-.085937c-83.933594-56.667968-121.015625-161.507812-91.378906-258.34375 29.640625-96.839843 119.042969-162.964843 220.316406-162.949218 204.800781 0 257.023437 170.667968 256 247.46875zm0 0" fill="#ffdc00"/><path d="m380.347656 427.121094c-3.582031 2.558594-7.339844 5.03125-11.09375 7.421875-13.523437-12.691407-14.46875-33.851563-2.132812-47.699219 26.3125-29.355469 43.144531-65.972656 48.292968-105.054688 1.203126-9.3125 9.132813-16.285156 18.523438-16.292968-2.132812 44.96875-19.703125 87.824218-49.75 121.347656-9.945312 11.140625-11.5 27.453125-3.839844 40.277344zm0 0" fill="#fec108"/><path d="m192.015625 457.242188c-8.148437-18.652344-26.578125-30.703126-46.929687-30.695313h-8.535157c-28.296875.046875-51.207031 23-51.199219 51.296875v8.550781c.019532 9.421875 7.644532 17.0625 17.066407 17.097657h145.066406zm0 0" fill="#3f51b5"/><path d="m366.949219 435.992188v50.433593c-.027344 9.414063-7.652344 17.039063-17.066407 17.066407h-145.066406c-9.414062-.027344-17.039062-7.652344-17.066406-17.066407v-8.617187c-.011719-5.304688.824219-10.578125 2.476562-15.617188.507813-1.679687 1.105469-3.332031 1.789063-4.949218 8.171875-18.640626 26.582031-30.691407 46.933594-30.71875h8.535156c22.414063.09375 42.585937 13.609374 51.199219 34.300781l.597656 2.648437c23.882812-5.472656 46.730469-14.75 67.667969-27.480468zm0 0" fill="#3f51b5"/><path d="m380.433594 427.375c1.300781 2.066406 2.785156 4.007812 4.4375 5.804688-1.867188-1.605469-3.378906-3.582032-4.4375-5.804688zm0 0" fill="#f0c419"/><path d="m366.949219 435.992188v17.066406c-15.941407 9.691406-33.007813 17.394531-50.820313 22.9375-3.960937 1.199218-8.257812.449218-11.578125-2.019532-3.320312-2.46875-5.277343-6.367187-5.269531-10.503906 23.882812-5.472656 46.730469-14.75 67.667969-27.480468zm0 0" fill="#283593"/><path d="m187.75 256.007812h51.199219c18.851562 0 34.136719 15.285157 34.136719 34.136719v25.777344c0 18.851563-15.285157 34.132813-34.136719 34.132813h-51.199219c-18.851562 0-34.132812-15.28125-34.132812-34.132813v-25.777344c0-18.851562 15.28125-34.136719 34.132812-34.136719zm0 0" fill="#bb193b"/><path d="m273.085938 298.777344v17.152344c0 9.054687-3.59375 17.738281-9.996094 24.140624-6.402344 6.398438-15.085938 9.996094-24.140625 9.992188h-25.597657v-17.066406c-.019531-9.066406 3.566407-17.769532 9.96875-24.1875 6.402344-6.417969 15.097657-10.027344 24.164063-10.03125zm0 0" fill="#e91e63"/><path d="m503.484375 256.027344c-.714844 65.136718-25.027344 127.808594-68.4375 176.382812-6.472656 7.234375-15.722656 11.363282-25.429687 11.347656-2.910157.015626-5.808594-.355468-8.617188-1.109374-1.109375-.339844-2.21875-.679688-3.328125-1.109376-.304687-.058593-.59375-.175781-.855469-.339843 4.851563-1.878907 9.183594-4.894531 12.628906-8.789063 43.410157-48.574218 67.726563-111.246094 68.4375-176.382812 1.027344-74.925782-48.722656-239.277344-241.492187-247.125 3.667969-.257813 7.339844-.34375 11.09375-.34375 204.800781 0 257.023437 170.667968 256 247.46875zm0 0" fill="#fec108"/><path d="m366.949219 435.992188v50.433593c-.027344 9.414063-7.652344 17.039063-17.066407 17.066407h-25.597656c9.414063-.027344 17.039063-7.652344 17.066406-17.066407v-37.035156c8.808594-3.917969 17.359376-8.394531 25.597657-13.398437zm0 0" fill="#283593"/><path d="m349.882812 512.007812h-145.066406c-14.132812-.015624-25.582031-11.46875-25.597656-25.597656v-8.621094c-.007812-6.207031.972656-12.375 2.898438-18.273437.582031-1.902344 1.257812-3.769531 2.035156-5.601563 9.503906-21.800781 31.015625-35.90625 54.796875-35.9375h8.535156c26.035156.015626 49.460937 15.816407 59.230469 39.949219 1.113281 2.886719.578125 6.15625-1.40625 8.535157-1.980469 2.378906-5.097656 3.496093-8.140625 2.921874-3.042969-.574218-5.535157-2.753906-6.511719-5.691406-7.363281-17.328125-24.34375-28.597656-43.171875-28.648437h-8.535156c-16.964844.015625-32.316407 10.066406-39.121094 25.609375-.542969 1.296875-1.019531 2.625-1.425781 3.972656-1.402344 4.25-2.117188 8.695312-2.117188 13.167969v8.617187c.003906 4.710938 3.820313 8.53125 8.53125 8.535156h145.066406c4.710938-.003906 8.53125-3.824218 8.535157-8.535156v-50.429687c0-4.714844 3.820312-8.535157 8.53125-8.535157 4.714843 0 8.535156 3.820313 8.535156 8.535157v50.429687c-.015625 14.132813-11.46875 25.582032-25.601563 25.597656zm0 0"/><path d="m247.484375 512.007812h-145.066406c-14.140625-.023437-25.59375-11.492187-25.601563-25.632812v-8.550781c.011719-33 26.734375-59.761719 59.734375-59.824219h8.535157c23.753906-.027344 45.261718 14.042969 54.757812 35.816406 1.882812 4.324219-.097656 9.351563-4.417969 11.234375-4.320312 1.882813-9.351562-.09375-11.234375-4.417969-6.78125-15.546874-22.144531-25.589843-39.105468-25.566406h-8.535157c-23.578125.054688-42.664062 19.179688-42.667969 42.757813v8.550781c-.003906 4.71875 3.816407 8.554688 8.535157 8.566406h145.066406c4.710937 0 8.53125 3.820313 8.53125 8.535156 0 4.710938-3.820313 8.53125-8.53125 8.53125zm0 0"/><path d="m42.683594 426.675781c-16.832032.007813-32.097656-9.882812-38.96875-25.25-6.871094-15.367187-4.0625-33.335937 7.167968-45.875 7.226563-8.097656 13.761719-16.789062 19.53125-25.984375 2.496094-3.996094 7.761719-5.210937 11.757813-2.714844 4 2.5 5.214844 7.765626 2.714844 11.761719-6.28125 10.007813-13.390625 19.46875-21.257813 28.285157-9.402344 10.550781-8.523437 26.714843 1.964844 36.191406 10.683594 9.007812 26.539062 8.132812 36.167969-1.996094 3.273437-3.683594 6.492187-7.476562 9.546875-11.359375 1.886718-2.394531 4.910156-3.601563 7.929687-3.164063 3.015625.4375 5.574219 2.449219 6.703125 5.28125 1.128906 2.832032.664063 6.054688-1.222656 8.449219-3.261719 4.132813-6.703125 8.191407-10.226562 12.15625-8.105469 9.039063-19.667969 14.207031-31.808594 14.21875zm0 0"/><path d="m409.617188 452.277344c-16.832032.007812-32.097657-9.882813-38.96875-25.25-6.871094-15.367188-4.0625-33.335938 7.167968-45.875 28.699219-32.09375 45.503906-73.074219 47.597656-116.078125.226563-4.707031 4.222657-8.339844 8.933594-8.117188 4.707032.226563 8.339844 4.226563 8.117188 8.933594-2.289063 46.914063-20.617188 91.613281-51.921875 126.625-9.386719 10.558594-8.496094 26.710937 1.988281 36.175781 10.683594 9.007813 26.535156 8.128906 36.164062-2 42.007813-47.050781 65.546876-107.726562 66.253907-170.796875-1.121094-63.945312-26.054688-125.171875-69.921875-171.710937-43.9375-44.523438-103.675782-67.109375-177.542969-67.109375-97.457031-.011719-183.507813 63.582031-212.105469 156.746093-28.59375 93.167969 6.96875 194.085938 87.65625 248.746094 3.253906 1.984375 4.796875 5.894532 3.773438 9.566406-1.023438 3.671876-4.363282 6.21875-8.175782 6.234376h-.085937c-1.703125 0-3.363281-.507813-4.777344-1.457032-87.039062-58.769531-125.496093-167.488281-94.761719-267.914062 30.738282-100.425782 123.453126-169.00000025 228.476563-168.9882815 78.605469 0 142.421875 24.2929685 189.695313 72.1914065 47.367187 49.601562 74.117187 115.347656 74.835937 183.925781-.765625 67.199219-25.855469 131.84375-70.613281 181.96875-8.105469 9.019531-19.660156 14.171875-31.785156 14.183594zm0 0"/><path d="m299.269531 471.984375c-4.335937-.011719-7.976562-3.273437-8.457031-7.582031-.484375-4.308594 2.339844-8.296875 6.566406-9.269532 22.992188-5.265624 44.988282-14.195312 65.144532-26.453124 4.296874-2.683594 8.679687-5.574219 12.898437-8.550782 3.847656-2.617187 9.085937-1.671875 11.769531 2.128906 2.6875 3.800782 1.832032 9.054688-1.917968 11.804688-4.484376 3.175781-9.152344 6.25-13.808594 9.152344-21.742188 13.234375-45.472656 22.875-70.285156 28.550781-.625.144531-1.265626.21875-1.910157.21875zm0 0"/><path d="m238.949219 358.585938h-51.199219c-23.550781-.027344-42.636719-19.117188-42.664062-42.667969v-25.777344c.027343-23.550781 19.113281-42.636719 42.664062-42.664063h51.199219c23.554687.027344 42.640625 19.113282 42.667969 42.664063v25.777344c-.027344 23.550781-19.113282 42.640625-42.667969 42.667969zm-51.199219-94.042969c-14.132812.015625-25.582031 11.46875-25.597656 25.597656v25.777344c.015625 14.132812 11.464844 25.585937 25.597656 25.601562h51.199219c14.132812-.015625 25.585937-11.46875 25.601562-25.601562v-25.777344c-.015625-14.128906-11.46875-25.582031-25.601562-25.597656zm0 0"/><path d="m213.351562 358.585938c-4.714843 0-8.535156-3.820313-8.535156-8.535157v-17.09375c.011719-23.570312 19.097656-42.683593 42.667969-42.730469h25.601563c4.710937 0 8.53125 3.820313 8.53125 8.53125 0 4.714844-3.820313 8.535157-8.53125 8.535157h-25.601563c-14.148437.035156-25.601563 11.515625-25.601563 25.664062v17.09375c0 4.714844-3.820312 8.535157-8.53125 8.535157zm0 0"/><path d="m104.253906 90.824219c11.957032 11.792969 26.289063 20.902343 42.042969 26.722656 7.535156 2.347656 15.472656 3.128906 23.320313 2.304687 4.144531-.332031 8.261718-.953124 12.320312-1.847656 4.179688-.875 8.261719-2.40625 12.777344-3.277344l.5625-.105468c1.433594-.277344 2.871094.464844 3.480468 1.789062.613282 1.328125.238282 2.898438-.90625 3.808594-3.707031 3.113281-7.679687 5.898438-11.867187 8.332031-4.390625 2.367188-9.0625 4.171875-13.910156 5.363281-10.023438 2.734376-20.621094 2.53125-30.53125-.585937-19.421875-5.988281-34.707031-21.066406-40.960938-40.402344-.269531-.925781.101563-1.921875.914063-2.441406s1.867187-.441406 2.59375.191406zm0 0"/><path d="m326.121094 92.925781c-6.253906 19.335938-21.539063 34.414063-40.960938 40.402344-9.910156 3.117187-20.507812 3.320313-30.53125.585937-4.84375-1.191406-9.519531-2.996093-13.910156-5.363281-4.1875-2.429687-8.15625-5.21875-11.867188-8.332031-1.140624-.90625-1.515624-2.480469-.90625-3.804688.609376-1.328124 2.042969-2.066406 3.476563-1.792968l.566406.109375c4.519531.867187 8.597657 2.398437 12.777344 3.273437 4.0625.898438 8.175781 1.515625 12.320313 1.847656 7.851562.824219 15.785156.042969 23.324218-2.300781 15.75-5.824219 30.082032-14.933593 42.039063-26.726562l.15625-.136719c.429687-.378906.996093-.574219 1.570312-.539062.574219.035156 1.109375.296874 1.492188.726562.488281.5625.660156 1.335938.453125 2.050781zm0 0"/><path d="m145.085938 204.808594c-18.085938-.332032-35.414063-7.292969-48.703126-19.566406-3.25-3.339844-3.214843-8.675782.074219-11.976563 3.292969-3.300781 8.625-3.347656 11.976563-.105469 10.105468 9.046875 23.09375 14.210938 36.652344 14.582032 13.5625-.292969 26.570312-5.460938 36.632812-14.566407 2.144531-2.210937 5.3125-3.09375 8.289062-2.3125 2.980469.78125 5.308594 3.109375 6.089844 6.085938.78125 2.980469-.101562 6.148437-2.3125 8.292969-13.289062 12.273437-30.617187 19.234374-48.699218 19.566406zm0 0"/><path d="m281.617188 204.808594c-18.082032-.332032-35.414063-7.292969-48.699219-19.566406-3.25-3.339844-3.21875-8.675782.074219-11.976563 3.292968-3.300781 8.625-3.347656 11.976562-.105469 10.105469 9.046875 23.089844 14.210938 36.648438 14.582032 13.566406-.292969 26.574218-5.460938 36.632812-14.566407 2.144531-2.210937 5.3125-3.09375 8.292969-2.3125s5.304687 3.109375 6.085937 6.085938c.78125 2.980469-.101562 6.148437-2.3125 8.292969-13.285156 12.273437-30.617187 19.234374-48.699218 19.566406zm0 0"/></svg>