<svg height="511pt" viewBox="0 -17 511.92518 511" width="511pt" xmlns="http://www.w3.org/2000/svg"><path d="m76.953125 216.78125-34.21875 14.679688 19.199219 48.640624-29.097656 19.199219-21.847657-55.296875c-6.863281-17.152344 1.253907-36.648437 18.261719-43.859375l44.542969-19.117187c1.421875-.59375 2.914062-.996094 4.4375-1.195313zm0 0" fill="#ff5722"/><path d="m434.972656 216.78125 34.214844 14.679688-19.199219 48.640624 29.101563 19.199219 21.84375-55.296875c6.863281-17.152344-1.25-36.648437-18.261719-43.859375l-44.542969-19.117187c-1.417968-.59375-2.914062-.996094-4.4375-1.195313zm0 0" fill="#ff5722"/><path d="m435.097656 205.261719c.929688 65.347656-29.976562 127.0625-82.859375 165.460937l-97.28125 72.535156-12.714843-9.644531-82.6875-62.890625c-16.207032-11.367187-30.496094-25.253906-42.324219-41.128906l-22.613281-38.65625c-10.3125-23.449219-16.296876-48.574219-17.664063-74.15625-.171875-3.839844-.257813-7.679688-.257813-11.519531-.007812-8.5.503907-16.992188 1.535157-25.429688 10.839843-91.816406 79.617187-163.753906 164.867187-170.238281 4.265625-.425781 8.53125-.597656 12.796875-.597656 98.988281 0 179.203125 87.894531 179.203125 196.265625zm0 0" fill="#fec108"/><path d="m409.496094 205.261719c.929687 65.347656-29.976563 127.0625-82.859375 165.460937l-84.394531 62.890625-82.6875-62.890625c-16.207032-11.367187-30.496094-25.253906-42.324219-41.128906l-22.613281-38.65625c-10.3125-23.449219-16.296876-48.574219-17.664063-74.15625-.171875-3.839844-.257813-7.679688-.257813-11.519531-.007812-8.5.503907-16.992188 1.535157-25.429688 10.839843-91.816406 79.617187-163.753906 164.867187-170.238281 93.011719 7.082031 166.398438 91.988281 166.398438 195.667969zm0 0" fill="#ffdc00"/><path d="m255.894531 427.128906v25.601563c-.027343 9.414062-7.652343 17.039062-17.066406 17.066406h-102.398437c-9.414063-.027344-17.039063-7.652344-17.066407-17.066406v-25.601563c-.070312-31.34375 24.195313-57.359375 55.464844-59.476562 1.417969-.171875 2.84375-.257813 4.269531-.257813h17.066406c15.84375-.011719 31.042969 6.28125 42.25 17.484375 11.203126 11.203125 17.492188 26.40625 17.480469 42.25zm0 0" fill="#283593"/><path d="m230.296875 427.128906v25.601563c-.027344 9.414062-7.652344 17.039062-17.066406 17.066406h-76.800781c-9.414063-.027344-17.039063-7.652344-17.066407-17.066406v-25.601563c-.070312-31.34375 24.195313-57.359375 55.464844-59.476562 31.273437 2.117187 55.535156 28.132812 55.46875 59.476562zm0 0" fill="#3f51b5"/><path d="m392.429688 427.128906v25.601563c-.027344 9.414062-7.652344 17.039062-17.066407 17.066406h-102.402343c-9.414063-.027344-17.039063-7.652344-17.066407-17.066406v-25.601563c-.066406-31.34375 24.195313-57.359375 55.46875-59.476562 1.414063-.171875 2.839844-.257813 4.265625-.257813h17.066406c15.847657-.011719 31.046876 6.28125 42.25 17.484375 11.207032 11.203125 17.496094 26.40625 17.484376 42.25zm0 0" fill="#283593"/><path d="m366.828125 427.128906v25.601563c-.027344 9.414062-7.652344 17.039062-17.066406 17.066406h-76.800781c-9.414063-.027344-17.039063-7.652344-17.066407-17.066406v-25.601563c-.066406-31.34375 24.195313-57.359375 55.46875-59.476562 31.269531 2.117187 55.535157 28.132812 55.464844 59.476562zm0 0" fill="#3f51b5"/><path d="m105.75 302.121094c-16.804688-22.019532-45.03125-28.722656-63.046875-14.972656-18.015625 13.746093-18.996094 42.742187-2.191406 64.761718 16.804687 22.019532 45.03125 28.722656 63.046875 14.972656s18.996094-42.746093 2.191406-64.761718zm0 0" fill="#ff9801"/><path d="m471.449219 351.949219c-11.785157 17.347656-33.222657 25.382812-53.503907 20.054687-3.453124-1.15625-6.683593-2.886718-9.558593-5.121094-18.003907-13.738281-19.027344-42.75-2.21875-64.765624 7.015625-9.398438 16.757812-16.402344 27.902343-20.054688 11.851563-4.179688 24.996094-2.265625 35.160157 5.121094 18.003906 13.738281 18.941406 42.664062 2.21875 64.765625zm0 0" fill="#f57c00"/><path d="m445.847656 351.949219c-7.03125 9.382812-16.769531 16.382812-27.902344 20.054687-3.453124-1.15625-6.683593-2.886718-9.558593-5.121094-18.003907-13.738281-19.027344-42.75-2.21875-64.765624 7.015625-9.398438 16.757812-16.402344 27.902343-20.054688 3.453126 1.15625 6.683594 2.886719 9.558594 5.121094 18.007813 13.738281 18.945313 42.664062 2.21875 64.765625zm0 0" fill="#ff9801"/><path d="m221.761719 149.796875c0 21.246094-7.679688 38.398437-17.066407 38.398437-9.386718 0-17.066406-17.152343-17.066406-38.398437-.019531-4.289063.324219-8.570313 1.023438-12.800781h32.085937c.699219 4.230468 1.042969 8.511718 1.023438 12.800781zm0 0" fill="#3f51b5"/><path d="m324.164062 149.796875c0 21.246094-7.679687 38.398437-17.066406 38.398437-9.386718 0-17.066406-17.152343-17.066406-38.398437-.019531-4.289063.320312-8.570313 1.023438-12.800781h32.085937c.699219 4.230468 1.042969 8.511718 1.023437 12.800781zm0 0" fill="#3f51b5"/><path d="m214.167969 141.261719c0 11.777343-4.265625 21.335937-9.472657 21.335937-5.203124 0-9.472656-9.558594-9.472656-21.335937 0-1.449219.085938-2.902344.171875-4.265625h18.601563c.085937 1.363281.171875 2.816406.171875 4.265625zm0 0" fill="#f5f5f5"/><path d="m316.566406 141.261719c0 11.777343-4.265625 21.335937-9.46875 21.335937-5.207031 0-9.472656-9.558594-9.472656-21.335937 0-1.449219.085938-2.902344.167969-4.265625h18.605469c.085937 1.363281.167968 2.816406.167968 4.265625zm0 0" fill="#f5f5f5"/><path d="m159.546875 379.257812c-1.742187-.003906-3.441406-.539062-4.871094-1.535156-16.957031-11.882812-31.90625-26.402344-44.269531-43.007812-1.910156-2.433594-2.351562-5.710938-1.15625-8.566406 1.195312-2.851563 3.839844-4.835938 6.914062-5.179688 3.074219-.347656 6.09375.996094 7.894532 3.511719 11.28125 15.148437 24.914062 28.394531 40.378906 39.242187 3.054688 2.132813 4.375 6.003906 3.253906 9.558594-1.117187 3.554688-4.414062 5.972656-8.140625 5.972656zm0 0"/><path d="m352.246094 379.257812c-3.726563.003907-7.027344-2.414062-8.144532-5.96875-1.121093-3.558593.195313-7.429687 3.253907-9.5625 15.570312-10.875 29.257812-24.230468 40.507812-39.53125 2.796875-3.796874 8.140625-4.601562 11.933594-1.804687 3.796875 2.796875 4.601563 8.140625 1.804687 11.9375-12.359374 16.796875-27.386718 31.457031-44.484374 43.398437-1.429688.996094-3.128907 1.53125-4.871094 1.53125zm0 0"/><path d="m417.089844 299.640625c-1.195313.003906-2.375-.25-3.464844-.742187-4.304688-1.914063-6.242188-6.957032-4.324219-11.261719 9.984375-22.535157 15.753907-46.703125 17.023438-71.316407.160156-3.625.238281-7.339843.238281-11.058593.007812-8.148438-.484375-16.292969-1.476562-24.382813-10.964844-93.148437-83.703126-163.351562-169.191407-163.351562-85.484375 0-158.222656 70.203125-169.1875 163.300781-.992187 8.109375-1.484375 16.265625-1.476562 24.433594 0 3.71875.082031 7.429687.246093 11.132812 1.300782 24.527344 7.042969 48.617188 16.949219 71.09375 1.230469 2.789063.882813 6.023438-.917969 8.484375-1.796874 2.464844-4.773437 3.777344-7.808593 3.453125-3.03125-.328125-5.65625-2.25-6.890625-5.039062-10.742188-24.390625-16.96875-50.527344-18.378906-77.140625-.179688-4.046875-.265626-8.015625-.265626-11.984375-.011718-8.851563.527344-17.695313 1.601563-26.480469 11.964844-101.636719 91.992187-178.320312 186.128906-178.320312 94.140625 0 174.167969 76.683593 186.140625 178.367187 1.070313 8.769531 1.601563 17.597656 1.59375 26.433594 0 3.96875-.085937 7.933593-.261718 11.902343-1.378907 26.714844-7.640626 52.957032-18.480469 77.414063-1.371094 3.082031-4.425781 5.0625-7.796875 5.0625zm0 0"/><path d="m238.828125 478.328125h-102.398437c-14.132813-.015625-25.585938-11.46875-25.601563-25.597656v-25.601563c.042969-37.683594 30.582031-68.222656 68.269531-68.265625h17.066406c37.683594.042969 68.222657 30.582031 68.265626 68.265625v25.601563c-.015626 14.128906-11.46875 25.582031-25.601563 25.597656zm-59.730469-102.398437c-28.265625.03125-51.171875 22.933593-51.203125 51.199218v25.601563c.003907 4.710937 3.824219 8.527343 8.535157 8.53125h102.398437c4.710937-.003907 8.53125-3.820313 8.535156-8.53125v-25.601563c-.03125-28.265625-22.9375-51.167968-51.199219-51.199218zm0 0"/><path d="m255.894531 444.195312h-136.53125c-4.714843 0-8.535156-3.820312-8.535156-8.53125 0-4.714843 3.820313-8.535156 8.535156-8.535156h136.53125c4.714844 0 8.535157 3.820313 8.535157 8.535156 0 4.710938-3.820313 8.53125-8.535157 8.53125zm0 0"/><path d="m375.363281 478.328125h-102.402343c-14.128907-.015625-25.582032-11.46875-25.597657-25.597656v-25.601563c.042969-37.683594 30.582031-68.222656 68.265625-68.265625h17.066406c37.683594.042969 68.222657 30.582031 68.265626 68.265625v25.601563c-.011719 14.128906-11.464844 25.582031-25.597657 25.597656zm-59.734375-102.398437c-28.261718.03125-51.167968 22.933593-51.199218 51.199218v25.601563c.003906 4.710937 3.820312 8.527343 8.53125 8.53125h102.402343c4.710938-.003907 8.527344-3.820313 8.53125-8.53125v-25.601563c-.03125-28.265625-22.933593-51.167968-51.199219-51.199218zm0 0"/><path d="m392.429688 444.195312h-136.535157c-4.710937 0-8.53125-3.820312-8.53125-8.53125 0-4.714843 3.820313-8.535156 8.53125-8.535156h136.535157c4.710937 0 8.53125 3.820313 8.53125 8.535156 0 4.710938-3.820313 8.53125-8.53125 8.53125zm0 0"/><path d="m81.792969 382.570312c-4.101563-.011718-8.191407-.5-12.179688-1.457031-14.367187-3.648437-27.039062-12.132812-35.882812-24.027343-19.628907-25.722657-17.921875-60.148438 3.796875-76.722657 21.726562-16.59375 55.367187-9.152343 75.007812 16.582031 9.136719 11.664063 13.980469 26.125 13.707032 40.941407-.074219 13.972656-6.519532 27.148437-17.507813 35.777343-7.746094 5.871094-17.222656 9.003907-26.941406 8.90625zm-17.183594-94.058593c-6.023437-.097657-11.90625 1.808593-16.726563 5.417969-14.246093 10.875-14.507812 34.558593-.585937 52.808593 6.453125 8.761719 15.722656 15.035157 26.257813 17.765625 8.515624 2.378906 17.648437.757813 24.824218-4.410156 6.882813-5.554688 10.859375-13.9375 10.804688-22.78125.140625-10.882812-3.464844-21.480469-10.214844-30.015625-7.980469-11.183594-20.640625-18.101563-34.359375-18.785156zm0 0"/><path d="m24.898438 302.429688-21.84375-55.292969c-8.59375-21.445313 1.554687-45.820313 22.828124-54.832031l44.550782-19.117188c2.167968-.910156 4.449218-1.527344 6.78125-1.832031l2.042968 16.949219c-.757812.105468-1.496093.308593-2.199218.609374l-44.441406 19.074219c-12.753907 5.398438-18.84375 20.015625-13.691407 32.875l21.847657 55.296875zm0 0"/><path d="m53.996094 283.230469-19.199219-48.632813c-1.695313-4.292968.332031-9.15625 4.570313-10.976562l34.21875-14.683594 6.734374 15.683594-26.609374 11.417968 16.160156 40.921876zm0 0"/><path d="m430.136719 382.503906c-9.714844.113282-19.195313-2.996094-26.957031-8.839844-10.984376-8.632812-17.429688-21.804687-17.5-35.777343-.175782-30.414063 20.203124-57.113281 49.585937-64.964844 13.496094-3.617187 27.90625-.878906 39.128906 7.441406 21.722657 16.574219 23.425781 51 3.796875 76.722657-11.242187 15.429687-28.972656 24.804687-48.054687 25.417968zm17.238281-93.964844c-2.75.007813-5.488281.339844-8.160156.980469-21.480469 5.976563-36.378906 25.496094-36.472656 47.792969-.054688 8.84375 3.921874 17.226562 10.796874 22.785156 14.253907 10.875 37.164063 4.875 51.089844-13.359375 13.921875-18.25 13.65625-41.933593-.582031-52.808593-4.808594-3.59375-10.671875-5.492188-16.675781-5.390626zm0 0"/><path d="m487.023438 302.429688-15.871094-6.265626 21.847656-55.292968c5.15625-12.863282-.933594-27.484375-13.699219-32.882813l-44.535156-19.117187c-.671875-.277344-1.375-.46875-2.09375-.566406l2.042969-16.949219c2.292968.300781 4.535156.898437 6.671875 1.785156l44.652343 19.164063c21.277344 9.011718 31.429688 33.394531 22.828126 54.84375zm0 0"/><path d="m457.925781 283.230469-15.871093-6.269531 16.15625-40.921876-26.601563-11.417968 6.730469-15.683594 34.21875 14.683594c4.242187 1.820312 6.265625 6.683594 4.574218 10.976562zm0 0"/><path d="m204.695312 196.730469c-16.808593 0-25.597656-23.609375-25.597656-46.933594-.019531-4.769531.363282-9.53125 1.144532-14.234375.792968-4.644531 5.199218-7.769531 9.847656-6.980469 4.644531.792969 7.769531 5.203125 6.976562 9.847657-.617187 3.757812-.921875 7.558593-.902344 11.367187 0 18.714844 6.3125 29.097656 8.71875 29.890625 2.03125-.792969 8.347657-11.175781 8.347657-29.890625.015625-3.808594-.285157-7.609375-.90625-11.367187-.792969-4.644532 2.332031-9.054688 6.980469-9.847657 4.644531-.789062 9.054687 2.335938 9.84375 6.980469.78125 4.703125 1.164062 9.464844 1.148437 14.234375 0 23.324219-8.789063 46.933594-25.601563 46.933594zm0 0"/><path d="m307.097656 196.730469c-16.8125 0-25.601562-23.609375-25.601562-46.933594-.015625-4.769531.367187-9.53125 1.144531-14.234375.515625-3.003906 2.589844-5.507812 5.449219-6.570312 2.859375-1.058594 6.066406-.511719 8.414062 1.433593 2.34375 1.949219 3.476563 5 2.964844 8.003907-.621094 3.757812-.925781 7.558593-.90625 11.367187 0 18.714844 6.316406 29.097656 8.722656 29.890625 2.03125-.792969 8.34375-11.175781 8.34375-29.890625.019532-3.808594-.285156-7.609375-.902344-11.367187-.792968-4.644532 2.332032-9.054688 6.976563-9.847657 4.648437-.789062 9.054687 2.335938 9.847656 6.980469.777344 4.703125 1.160157 9.464844 1.144531 14.234375 0 23.324219-8.789062 46.933594-25.597656 46.933594zm0 0"/><path d="m238.828125 145.527344h-68.265625c-4.710938 0-8.53125-3.820313-8.53125-8.53125 0-4.714844 3.820312-8.535156 8.53125-8.535156h68.265625c4.714844 0 8.535156 3.820312 8.535156 8.535156 0 4.710937-3.820312 8.53125-8.535156 8.53125zm0 0"/><path d="m341.230469 145.527344h-68.269531c-4.710938 0-8.53125-3.820313-8.53125-8.53125 0-4.714844 3.820312-8.535156 8.53125-8.535156h68.269531c4.710937 0 8.53125 3.820312 8.53125 8.535156 0 4.710937-3.820313 8.53125-8.53125 8.53125zm0 0"/><path d="m231.949219 105.066406c-4.46875 4.988282-10.304688 8.546875-16.78125 10.242188-6.734375 1.835937-13.867188 1.589844-20.460938-.707032-6.414062-2.277343-12.15625-6.125-16.695312-11.195312-2.109375-2.429688-4.027344-5.019531-5.730469-7.75-1.421875-2.832031-2.867188-5.601562-4.035156-8.472656-.480469-1.183594-.074219-2.542969.976562-3.265625 1.054688-.726563 2.46875-.621094 3.402344.25l.257812.238281c2.160157 2.015625 3.988282 4.179688 5.941407 6.199219 2.222656 1.71875 4.023437 3.820312 6.207031 5.359375 3.964844 3.171875 8.476562 5.597656 13.3125 7.148437 10.125 2.148438 20.65625 1.292969 30.300781-2.457031l.378907-.113281c1.195312-.363281 2.484374.109375 3.164062 1.160156.679688 1.046875.582031 2.417969-.234375 3.359375zm0 0"/><path d="m279.84375 57.992188c4.464844-4.988282 10.304688-8.546876 16.78125-10.242188 6.734375-1.835938 13.867188-1.589844 20.460938.707031 6.414062 2.277344 12.152343 6.125 16.691406 11.195313 2.113281 2.429687 4.03125 5.019531 5.734375 7.75 1.421875 2.832031 2.867187 5.601562 4.035156 8.472656.480469 1.183594.074219 2.539062-.976563 3.265625-1.054687.726563-2.46875.621094-3.402343-.25l-.257813-.238281c-2.164062-2.015625-3.988281-4.179688-5.941406-6.199219-2.21875-1.71875-4.027344-3.820313-6.207031-5.359375-3.964844-3.171875-8.476563-5.597656-13.3125-7.152344-10.125-2.144531-20.65625-1.289062-30.300781 2.460938l-.378907.113281c-1.195312.363281-2.488281-.109375-3.164062-1.160156-.679688-1.046875-.582031-2.417969.234375-3.359375zm0 0"/><path d="m187.628906 256.460938c-3.449218 0-6.5625-2.078126-7.882812-5.265626-1.320313-3.1875-.589844-6.859374 1.851562-9.300781l8.53125-8.53125c1.601563-1.601562 3.769532-2.5 6.035156-2.5h115.933594l6.03125-6.035156c3.347656-3.234375 8.671875-3.1875 11.964844.105469 3.289062 3.292968 3.335938 8.613281.101562 11.960937l-8.53125 8.535157c-1.601562 1.601562-3.773437 2.5-6.035156 2.5h-115.933594l-6.03125 6.03125c-1.601562 1.605468-3.769531 2.503906-6.035156 2.5zm0 0"/><path d="m264.429688 282.0625h-17.066407c-4.714843 0-8.535156-3.820312-8.535156-8.535156 0-4.710938 3.820313-8.53125 8.535156-8.53125h17.066407c4.710937 0 8.53125 3.820312 8.53125 8.53125 0 4.714844-3.820313 8.535156-8.53125 8.535156zm0 0"/></svg>