<svg height="511pt" viewBox="0 0 511 511.99162" width="511pt" xmlns="http://www.w3.org/2000/svg"><path d="m77.449219 250.445312-34.21875 14.675782 19.199219 48.640625-29.097657 19.199219-21.847656-55.292969c-6.863281-17.15625 1.25-36.648438 18.261719-43.863281l44.542968-19.113282c1.421876-.597656 2.914063-1 4.4375-1.195312zm0 0" fill="#ff5722"/><path d="m435.464844 250.445312 34.21875 14.675782-19.199219 48.640625 29.097656 19.199219 21.847657-55.292969c6.863281-17.15625-1.25-36.648438-18.261719-43.863281l-44.542969-19.113282c-1.421875-.597656-2.914062-1-4.4375-1.195312zm0 0" fill="#ff5722"/><path d="m435.59375 238.925781c.929688 65.34375-29.976562 127.0625-82.859375 165.460938l-97.28125 72.53125-12.714844-9.640625-82.6875-62.890625c-16.207031-11.371094-30.496093-25.253907-42.324219-41.132813l-22.613281-38.652344c-10.3125-23.453124-16.296875-48.574218-17.664062-74.15625-.171875-3.839843-.257813-7.679687-.257813-11.519531-.007812-8.5.503906-16.992187 1.535156-25.429687 10.839844-91.820313 79.617188-163.753906 164.867188-170.242188 4.265625-.425781 8.53125-.59375 12.796875-.59375 98.988281 0 179.203125 87.890625 179.203125 196.265625zm0 0" fill="#fec108"/><path d="m409.992188 238.925781c.929687 65.34375-29.976563 127.0625-82.859376 165.460938l-84.394531 62.890625-82.6875-62.890625c-16.207031-11.371094-30.496093-25.253907-42.324219-41.132813l-22.613281-38.652344c-10.3125-23.453124-16.296875-48.574218-17.664062-74.15625-.171875-3.839843-.257813-7.679687-.257813-11.519531-.007812-8.5.503906-16.992187 1.535156-25.429687 10.839844-91.820313 79.617188-163.753906 164.867188-170.242188 93.011719 7.085938 166.398438 91.992188 166.398438 195.671875zm0 0" fill="#ffdc00"/><path d="m256.390625 460.792969v25.597656c-.027344 9.414063-7.652344 17.039063-17.066406 17.066406h-102.398438c-9.414062-.027343-17.039062-7.652343-17.066406-17.066406v-25.597656c-.070313-31.34375 24.195313-57.363281 55.464844-59.480469 1.417969-.167969 2.839843-.253906 4.269531-.253906h17.066406c15.84375-.011719 31.042969 6.277344 42.25 17.480468 11.203125 11.207032 17.492188 26.40625 17.480469 42.253907zm0 0" fill="#283593"/><path d="m230.792969 460.792969v25.597656c-.027344 9.414063-7.652344 17.039063-17.066407 17.066406h-76.800781c-9.414062-.027343-17.039062-7.652343-17.066406-17.066406v-25.597656c-.070313-31.34375 24.195313-57.363281 55.464844-59.480469 31.273437 2.117188 55.535156 28.136719 55.46875 59.480469zm0 0" fill="#3f51b5"/><path d="m392.925781 460.792969v25.597656c-.027343 9.414063-7.652343 17.039063-17.066406 17.066406h-102.402344c-9.414062-.027343-17.039062-7.652343-17.066406-17.066406v-25.597656c-.066406-31.34375 24.195313-57.363281 55.46875-59.480469 1.414063-.167969 2.839844-.253906 4.265625-.253906h17.066406c15.847656-.011719 31.046875 6.277344 42.25 17.480468 11.207032 11.207032 17.496094 26.40625 17.484375 42.253907zm0 0" fill="#283593"/><path d="m367.324219 460.792969v25.597656c-.027344 9.414063-7.652344 17.039063-17.066407 17.066406h-76.800781c-9.414062-.027343-17.039062-7.652343-17.066406-17.066406v-25.597656c-.066406-31.34375 24.195313-57.363281 55.46875-59.480469 31.269531 2.117188 55.535156 28.136719 55.464844 59.480469zm0 0" fill="#3f51b5"/><path d="m106.246094 335.78125c-16.804688-22.019531-45.03125-28.722656-63.046875-14.972656s-18.996094 42.746094-2.191407 64.765625c16.804688 22.015625 45.03125 28.71875 63.046876 14.972656 18.015624-13.75 18.996093-42.746094 2.191406-64.765625zm0 0" fill="#ff9801"/><path d="m471.945312 385.613281c-11.785156 17.347657-33.222656 25.382813-53.503906 20.054688-3.453125-1.160157-6.683594-2.890625-9.558594-5.121094-18.003906-13.738281-19.03125-42.753906-2.21875-64.769531 7.015626-9.398438 16.757813-16.402344 27.902344-20.050782 11.847656-4.183593 24.996094-2.265624 35.160156 5.117188 18.003907 13.738281 18.941407 42.667969 2.21875 64.769531zm0 0" fill="#f57c00"/><path d="m446.34375 385.613281c-7.03125 9.378907-16.769531 16.378907-27.902344 20.054688-3.453125-1.160157-6.683594-2.890625-9.558594-5.121094-18.003906-13.738281-19.03125-42.753906-2.21875-64.769531 7.015626-9.398438 16.757813-16.402344 27.902344-20.050782 3.453125 1.15625 6.683594 2.886719 9.558594 5.117188 18.003906 13.738281 18.945312 42.667969 2.21875 64.769531zm0 0" fill="#ff9801"/><g fill="#3f51b5"><path d="m281.992188 196.257812s0-8.53125-25.601563-8.53125c-25.597656 0-25.597656 8.53125-25.597656 8.53125v-34.132812s0-8.535156 25.597656-8.535156c25.601563 0 25.601563 8.535156 25.601563 8.535156zm0 0"/><path d="m77.191406 162.125h51.199219v34.132812h-51.199219c-9.425781 0-17.066406-7.640624-17.066406-17.066406 0-9.425781 7.640625-17.066406 17.066406-17.066406zm0 0"/><path d="m384.390625 162.125h51.203125c9.425781 0 17.066406 7.640625 17.066406 17.066406 0 9.425782-7.640625 17.066406-17.066406 17.066406h-51.203125zm0 0"/></g><path d="m281.992188 22.136719 48.855468-13.292969c2.511719-.753906 5.230469-.296875 7.359375 1.234375 2.128907 1.527344 3.429688 3.960937 3.519531 6.578125v43.46875c-.089843 2.621094-1.390624 5.050781-3.519531 6.582031-2.128906 1.527344-4.847656 1.984375-7.359375 1.234375l-48.855468-13.296875h-51.199219l-48.855469 13.296875c-2.511719.75-5.230469.292969-7.359375-1.234375-2.128906-1.53125-3.429687-3.960937-3.519531-6.582031v-43.46875c.089844-2.617188 1.390625-5.050781 3.519531-6.578125 2.128906-1.53125 4.847656-1.988281 7.359375-1.234375l48.855469 13.292969zm0 0" fill="#6a1b9a"/><path d="m128.390625 153.589844h102.402344c4.710937 0 8.53125 3.824218 8.53125 8.535156v34.132812c0 32.992188-26.742188 59.734376-59.730469 59.734376-32.992188 0-59.734375-26.742188-59.734375-59.734376v-34.132812c0-4.710938 3.820313-8.535156 8.53125-8.535156zm0 0" fill="#3f51b5"/><path d="m281.992188 153.589844h102.398437c4.714844 0 8.535156 3.824218 8.535156 8.535156v34.132812c0 32.992188-26.742187 59.734376-59.734375 59.734376-32.988281 0-59.734375-26.742188-59.734375-59.734376v-34.132812c0-4.710938 3.820313-8.535156 8.535157-8.535156zm0 0" fill="#3f51b5"/><path d="m239.324219 17.058594h34.132812c4.714844 0 8.535157 3.820312 8.535157 8.53125v25.601562c0 4.714844-3.820313 8.535156-8.535157 8.535156h-34.132812c-4.710938 0-8.53125-3.820312-8.53125-8.535156v-25.601562c0-4.710938 3.820312-8.53125 8.53125-8.53125zm0 0" fill="#9d27b0"/><path d="m160.042969 412.917969c-1.742188 0-3.445313-.535157-4.871094-1.535157-16.957031-11.878906-31.90625-26.398437-44.273437-43.007812-1.90625-2.433594-2.347657-5.710938-1.152344-8.5625 1.195312-2.851562 3.839844-4.835938 6.914062-5.183594 3.074219-.34375 6.09375 1 7.894532 3.511719 11.28125 15.152344 24.914062 28.398437 40.378906 39.242187 3.054687 2.132813 4.375 6.003907 3.253906 9.558594-1.117188 3.554688-4.414062 5.972656-8.140625 5.972656zm0 0"/><path d="m352.742188 412.917969c-3.726563.003906-7.027344-2.414063-8.148438-5.96875-1.117188-3.554688.199219-7.425781 3.257812-9.558594 15.570313-10.875 29.253907-24.230469 40.507813-39.535156 2.796875-3.792969 8.140625-4.601563 11.933594-1.800781 3.796875 2.796874 4.601562 8.140624 1.804687 11.933593-12.359375 16.800781-27.386718 31.460938-44.484375 43.402344-1.429687.996094-3.128906 1.527344-4.871093 1.527344zm0 0"/><path d="m95.117188 333.132812c-3.378907 0-6.441407-1.992187-7.8125-5.082031-10.742188-24.390625-16.96875-50.527343-18.378907-77.140625-.183593-4.050781-.265625-8.019531-.265625-11.984375-.011718-8.851562.523438-17.699219 1.601563-26.484375.648437-5.625 1.578125-11.484375 2.824219-17.835937.550781-3.027344 2.691406-5.527344 5.601562-6.539063 2.90625-1.007812 6.136719-.371094 8.445312 1.667969 2.308594 2.035156 3.339844 5.160156 2.695313 8.171875-1.15625 5.902344-2.015625 11.316406-2.625 16.554688-.992187 8.117187-1.484375 16.289062-1.476563 24.464843 0 3.714844.082032 7.425781.246094 11.132813 1.300782 24.527344 7.042969 48.613281 16.949219 71.089844 1.164063 2.640624.917969 5.691406-.65625 8.109374-1.574219 2.417969-4.261719 3.875-7.148437 3.875zm0 0"/><path d="m417.585938 333.304688c-1.195313 0-2.375-.253907-3.464844-.742188-4.304688-1.917969-6.242188-6.960938-4.324219-11.265625 9.984375-22.53125 15.753906-46.703125 17.023437-71.316406.160157-3.621094.238282-7.339844.238282-11.054688.007812-8.152343-.484375-16.292969-1.476563-24.382812-.609375-5.316407-1.46875-10.734375-2.628906-16.632813-.640625-3.015625.390625-6.136718 2.699219-8.175781s5.535156-2.675781 8.445312-1.667969c2.910156 1.011719 5.050782 3.511719 5.597656 6.542969 1.25 6.347656 2.179688 12.207031 2.835938 17.90625 1.070312 8.761719 1.605469 17.582031 1.59375 26.410156 0 3.964844-.085938 7.933594-.261719 11.898438-1.378906 26.71875-7.640625 52.957031-18.480469 77.417969-1.371093 3.078124-4.425781 5.0625-7.796874 5.0625zm0 0"/><path d="m421.339844 170.660156c-3.515625-.003906-6.671875-2.160156-7.949219-5.433594-14.699219-38.804687-42.132813-71.46875-77.808594-92.652343-4.082031-2.355469-5.484375-7.574219-3.125-11.65625 2.355469-4.082031 7.574219-5.484375 11.65625-3.125 39.039063 23.125 69.066407 58.816406 85.179688 101.230469.824219 2.109374.773437 4.460937-.136719 6.53125-.910156 2.074218-2.609375 3.699218-4.714844 4.519531-.988281.386719-2.039062.585937-3.101562.585937zm0 0"/><path d="m91.441406 170.660156c-1.058594 0-2.109375-.199218-3.09375-.585937-2.109375-.820313-3.804687-2.445313-4.714844-4.519531-.910156-2.070313-.960937-4.421876-.140624-6.53125 16.113281-42.414063 46.140624-78.105469 85.175781-101.230469 2.640625-1.527344 5.894531-1.527344 8.535156 0 2.640625 1.523437 4.269531 4.34375 4.269531 7.390625-.003906 3.050781-1.628906 5.867187-4.269531 7.390625-35.679687 21.183593-63.113281 53.847656-77.8125 92.652343-1.277344 3.273438-4.433594 5.429688-7.949219 5.433594zm0 0"/><path d="m239.324219 511.992188h-102.398438c-14.132812-.015626-25.585937-11.46875-25.601562-25.601563v-25.597656c.042969-37.6875 30.582031-68.226563 68.269531-68.269531h17.066406c37.683594.042968 68.222656 30.582031 68.265625 68.269531v25.597656c-.015625 14.132813-11.46875 25.585937-25.601562 25.601563zm-59.730469-102.402344c-28.265625.03125-51.171875 22.9375-51.203125 51.203125v25.597656c.003906 4.710937 3.824219 8.53125 8.535156 8.535156h102.398438c4.710937-.003906 8.53125-3.824219 8.535156-8.535156v-25.597656c-.03125-28.265625-22.9375-51.171875-51.199219-51.203125zm0 0"/><path d="m256.390625 477.859375h-136.53125c-4.714844 0-8.535156-3.820313-8.535156-8.535156 0-4.710938 3.820312-8.53125 8.535156-8.53125h136.53125c4.714844 0 8.535156 3.820312 8.535156 8.53125 0 4.714843-3.820312 8.535156-8.535156 8.535156zm0 0"/><path d="m375.859375 511.992188h-102.402344c-14.128906-.015626-25.582031-11.46875-25.597656-25.601563v-25.597656c.042969-37.6875 30.582031-68.226563 68.265625-68.269531h17.066406c37.683594.042968 68.222656 30.582031 68.265625 68.269531v25.597656c-.015625 14.132813-11.464843 25.585937-25.597656 25.601563zm-59.734375-102.402344c-28.265625.03125-51.167969 22.9375-51.199219 51.203125v25.597656c.003907 4.710937 3.820313 8.53125 8.53125 8.535156h102.402344c4.710937-.003906 8.527344-3.824219 8.53125-8.535156v-25.597656c-.03125-28.265625-22.933594-51.171875-51.199219-51.203125zm0 0"/><path d="m392.925781 477.859375h-136.535156c-4.710937 0-8.53125-3.820313-8.53125-8.535156 0-4.710938 3.820313-8.53125 8.53125-8.53125h136.535156c4.710938 0 8.53125 3.820312 8.53125 8.53125 0 4.714843-3.820312 8.535156-8.53125 8.535156zm0 0"/><path d="m82.289062 416.234375c-4.101562-.015625-8.191406-.503906-12.179687-1.460937-14.367187-3.644532-27.039063-12.128907-35.882813-24.023438-19.628906-25.726562-17.921874-60.148438 3.792969-76.726562 21.726563-16.589844 55.382813-9.148438 75.011719 16.585937 9.136719 11.664063 13.980469 26.125 13.707031 40.941406-.074219 13.972657-6.519531 27.144531-17.507812 35.773438-7.746094 5.875-17.222657 9.007812-26.941407 8.910156zm-17.183593-94.058594c-6.023438-.097656-11.90625 1.808594-16.726563 5.414063-14.246094 10.875-14.507812 34.5625-.585937 52.808594 6.453125 8.761718 15.722656 15.035156 26.257812 17.769531 8.515625 2.375 17.648438.753906 24.824219-4.410157 6.878906-5.554687 10.855469-13.941406 10.804688-22.785156.140624-10.878906-3.464844-21.480468-10.214844-30.015625-7.984375-11.179687-20.640625-18.097656-34.359375-18.78125zm0 0"/><path d="m25.394531 336.089844-21.84375-55.289063c-8.59375-21.445312 1.554688-45.824219 22.828125-54.835937l44.550782-19.113282c2.167968-.914062 4.449218-1.527343 6.78125-1.832031l2.042968 16.945313c-.757812.105468-1.496094.3125-2.199218.609375l-44.441407 19.074219c-12.753906 5.402343-18.84375 20.019531-13.691406 32.875l21.847656 55.296874zm0 0"/><path d="m54.492188 316.890625-19.199219-48.632813c-1.695313-4.292968.332031-9.152343 4.570312-10.972656l34.21875-14.683594 6.734375 15.683594-26.609375 11.414063 16.160157 40.925781zm0 0"/><path d="m430.632812 416.167969c-9.714843.113281-19.195312-2.996094-26.957031-8.84375-10.984375-8.628907-17.429687-21.804688-17.5-35.773438-.175781-30.414062 20.203125-57.113281 49.585938-64.96875 13.496093-3.617187 27.90625-.875 39.128906 7.441407 21.722656 16.578124 23.425781 51 3.796875 76.726562-11.242188 15.425781-28.976562 24.804688-48.054688 25.417969zm17.238282-93.96875c-2.75.011719-5.488282.339843-8.160156.984375-21.480469 5.972656-36.378907 25.492187-36.472657 47.792968-.054687 8.839844 3.921875 17.226563 10.796875 22.78125 14.246094 10.875 37.167969 4.875 51.089844-13.355468 13.921875-18.25 13.65625-41.933594-.582031-52.808594-4.808594-3.597656-10.671875-5.492188-16.675781-5.394531zm0 0"/><path d="m487.519531 336.089844-15.871093-6.265625 21.84375-55.289063c5.160156-12.863281-.929688-27.488281-13.695313-32.886718l-44.535156-19.113282c-.671875-.277344-1.375-.46875-2.09375-.566406l2.042969-16.949219c2.292968.296875 4.535156.898438 6.671874 1.78125l44.652344 19.167969c21.277344 9.011719 31.429688 33.394531 22.828125 54.839844zm0 0"/><path d="m458.421875 316.890625-15.871094-6.265625 16.15625-40.925781-26.601562-11.414063 6.730469-15.683594 34.21875 14.683594c4.242187 1.820313 6.265624 6.679688 4.574218 10.972656zm0 0"/><path d="m179.59375 264.523438c-37.6875-.042969-68.226562-30.582032-68.269531-68.265626v-34.132812c.011719-9.421875 7.648437-17.054688 17.066406-17.066406h102.402344c9.421875.011718 17.054687 7.644531 17.066406 17.066406v34.132812c-.042969 37.683594-30.582031 68.222657-68.265625 68.265626zm-51.203125-102.398438v34.132812c0 28.277344 22.925781 51.199219 51.203125 51.199219 28.273438 0 51.199219-22.921875 51.199219-51.199219v-34.132812zm0 0"/><path d="m333.191406 264.523438c-37.683594-.042969-68.222656-30.582032-68.265625-68.265626v-34.132812c.011719-9.421875 7.644531-17.054688 17.066407-17.066406h102.398437c9.421875.011718 17.058594 7.644531 17.066406 17.066406v34.132812c-.042969 37.683594-30.582031 68.222657-68.265625 68.265626zm-51.199218-102.398438v34.132812c0 28.277344 22.921874 51.199219 51.199218 51.199219s51.199219-22.921875 51.199219-51.199219v-34.132812zm0 0"/><path d="m273.457031 170.660156c-4.09375 0-7.613281-2.910156-8.382812-6.933594-2.6875-1.339843-5.695313-1.890624-8.683594-1.601562-2.984375-.289062-5.996094.261719-8.683594 1.601562-.820312 4.324219-4.800781 7.316407-9.183593 6.898438-4.386719-.414062-7.734376-4.097656-7.730469-8.5 0-.699219.289062-17.066406 25.597656-17.066406s25.601563 16.367187 25.601563 17.066406c0 4.710938-3.820313 8.535156-8.535157 8.535156zm0 0"/><path d="m273.457031 204.792969c-4.09375 0-7.613281-2.910157-8.382812-6.933594-2.6875-1.335937-5.695313-1.890625-8.683594-1.601563-2.984375-.289062-5.996094.265626-8.683594 1.601563-.820312 4.324219-4.800781 7.316406-9.183593 6.902344-4.386719-.417969-7.734376-4.097657-7.730469-8.503907 0-.699218.289062-17.066406 25.597656-17.066406s25.601563 16.367188 25.601563 17.066406c0 4.714844-3.820313 8.535157-8.535157 8.535157zm0 0"/><path d="m119.859375 204.792969h-42.667969c-14.136718 0-25.597656-11.460938-25.597656-25.601563 0-14.136718 11.460938-25.601562 25.597656-25.601562h42.667969c4.710937 0 8.53125 3.824218 8.53125 8.535156v34.132812c0 4.714844-3.820313 8.535157-8.53125 8.535157zm-42.667969-34.132813c-4.710937 0-8.53125 3.820313-8.53125 8.53125 0 4.714844 3.820313 8.535156 8.53125 8.535156h34.132813v-17.066406zm0 0"/><path d="m435.59375 204.792969h-42.667969c-4.714843 0-8.535156-3.820313-8.535156-8.535157v-34.132812c0-4.710938 3.820313-8.535156 8.535156-8.535156h42.667969c14.136719 0 25.597656 11.464844 25.597656 25.601562 0 14.140625-11.460937 25.601563-25.597656 25.601563zm-34.136719-17.066407h34.136719c4.710938 0 8.53125-3.820312 8.53125-8.535156 0-4.710937-3.820312-8.53125-8.53125-8.53125h-34.136719zm0 0"/><path d="m153.992188 204.792969c-3.449219-.003907-6.5625-2.082031-7.882813-5.269531s-.589844-6.859376 1.847656-9.296876l8.535157-8.535156c3.347656-3.234375 8.671874-3.1875 11.960937.105469 3.292969 3.289063 3.339844 8.613281.105469 11.960937l-8.535156 8.535157c-1.597657 1.601562-3.769532 2.5-6.03125 2.5zm0 0"/><path d="m307.59375 204.792969c-3.453125-.003907-6.5625-2.082031-7.882812-5.269531-1.320313-3.1875-.589844-6.859376 1.847656-9.296876l8.535156-8.535156c3.347656-3.234375 8.667969-3.1875 11.960938.105469 3.292968 3.289063 3.335937 8.613281.105468 11.960937l-8.535156 8.535157c-1.597656 1.601562-3.769531 2.5-6.03125 2.5zm0 0"/><path d="m273.457031 324.257812h-68.265625c-4.710937 0-8.53125-3.820312-8.53125-8.53125 0-4.714843 3.820313-8.535156 8.53125-8.535156h68.265625c14.132813-.015625 25.585938-11.46875 25.601563-25.601562 0-4.710938 3.820312-8.53125 8.535156-8.53125 4.710938 0 8.53125 3.820312 8.53125 8.53125-.027344 23.554687-19.113281 42.640625-42.667969 42.667968zm0 0"/><path d="m239.324219 358.390625h-8.53125c-4.714844 0-8.535157-3.820313-8.535157-8.53125 0-4.714844 3.820313-8.535156 8.535157-8.535156h8.53125c4.714843 0 8.535156 3.820312 8.535156 8.535156 0 4.710937-3.820313 8.53125-8.535156 8.53125zm0 0"/><path d="m229.136719 103.679688c-9.644531-3.75-20.175781-4.605469-30.300781-2.457032-4.835938 1.550782-9.347657 3.976563-13.3125 7.148438-2.179688 1.539062-3.980469 3.640625-6.203126 5.359375-1.953124 2.019531-3.78125 4.179687-5.945312 6.203125l-.253906.234375c-.9375.871093-2.351563.976562-3.402344.25-1.054688-.722657-1.460938-2.082031-.980469-3.265625 1.167969-2.871094 2.613281-5.640625 4.035157-8.472656 1.703124-2.730469 3.621093-5.320313 5.730468-7.75 4.539063-5.070313 10.28125-8.917969 16.695313-11.191407 6.59375-2.300781 13.726562-2.546875 20.460937-.710937 6.476563 1.695312 12.3125 5.253906 16.78125 10.242187.820313.941407.921875 2.3125.242188 3.363281-.675782 1.050782-1.96875 1.523438-3.164063 1.164063zm0 0"/><path d="m280.339844 99.269531c4.464844-4.984375 10.300781-8.546875 16.78125-10.238281 6.734375-1.835938 13.867187-1.589844 20.460937.707031 6.414063 2.273438 12.152344 6.121094 16.691407 11.195313 2.113281 2.425781 4.03125 5.015625 5.734374 7.746094 1.421876 2.835937 2.867188 5.601562 4.035157 8.472656.480469 1.183594.074219 2.542968-.976563 3.265625-1.054687.726562-2.46875.625-3.402344-.246094l-.257812-.238281c-2.164062-2.019532-3.992188-4.183594-5.941406-6.203125-2.21875-1.71875-4.027344-3.820313-6.207032-5.355469-3.964843-3.175781-8.476562-5.601562-13.3125-7.152344-10.125-2.148437-20.65625-1.292968-30.300781 2.457032l-.378906.117187c-1.195313.359375-2.488281-.113281-3.164063-1.160156-.679687-1.050781-.582031-2.421875.234376-3.363281zm0 0"/><path d="m273.457031 68.257812h-34.132812c-9.421875-.011718-17.054688-7.644531-17.066407-17.066406v-25.601562c.011719-9.417969 7.644532-17.054688 17.066407-17.066406h34.132812c9.421875.011718 17.058594 7.648437 17.066407 17.066406v25.601562c-.007813 9.421875-7.644532 17.054688-17.066407 17.066406zm-34.132812-42.667968v25.601562h34.148437l-.015625-25.601562zm0 0"/><path d="m179.617188 76.78125c-3.808594.007812-7.515626-1.234375-10.550782-3.539062-4.121094-3.101563-6.542968-7.960938-6.542968-13.117188v-43.46875c0-5.15625 2.421874-10.011719 6.542968-13.113281 4.308594-3.265625 9.886719-4.347657 15.105469-2.933594l48.863281 13.292969c4.546875 1.238281 7.230469 5.925781 5.992188 10.476562-1.238282 4.546875-5.929688 7.230469-10.476563 5.992188l-48.855469-13.296875-.101562 43.050781 48.957031-13.710938c4.546875-1.238281 9.238281 1.445313 10.476563 5.992188 1.238281 4.546875-1.445313 9.238281-5.992188 10.476562l-48.855468 13.292969c-1.488282.402344-3.023438.609375-4.5625.605469zm0 0"/><path d="m333.167969 76.78125c-1.539063.003906-3.074219-.203125-4.558594-.605469l-48.859375-13.292969c-4.546875-1.238281-7.230469-5.929687-5.992188-10.476562 1.238282-4.546875 5.929688-7.230469 10.476563-5.992188l48.851563 13.292969.105468-43.050781-48.957031 13.714844c-4.546875 1.238281-9.238281-1.445313-10.476563-5.992188-1.238281-4.550781 1.445313-9.238281 5.992188-10.476562l48.855469-13.292969c5.21875-1.414063 10.800781-.332031 15.113281 2.933594 4.117188 3.101562 6.542969 7.957031 6.539062 13.113281v43.46875c.003907 5.15625-2.421874 10.015625-6.539062 13.117188-3.035156 2.300781-6.742188 3.546874-10.550781 3.539062zm0 0"/></svg>