<svg height="512pt" viewBox="0 0 512.01942 512" width="512pt" xmlns="http://www.w3.org/2000/svg"><path d="m472.09375 93.128906 30.378906 111.871094c2.582032 10.207031.304688 21.035156-6.167968 29.339844-6.46875 8.304687-16.410157 13.160156-26.941407 13.15625h-34.304687l-1.363282-34.132813h35.667969l-29.269531-108.035156zm0 0" fill="#ff5722"/><path d="m39.953125 93.128906-30.378906 111.871094c-2.582031 10.207031-.304688 21.035156 6.167969 29.339844 6.46875 8.304687 16.410156 13.160156 26.941406 13.15625h34.304687l1.363281-34.132813h-35.667968l29.269531-108.035156zm0 0" fill="#ff5722"/><path d="m435.230469 238.960938c.929687 65.347656-29.976563 127.0625-82.859375 165.460937l-97.277344 72.535156-12.714844-9.644531-82.6875-62.890625c-16.210937-11.367187-30.5-25.253906-42.328125-41.128906l-22.613281-38.65625c-10.308594-23.449219-16.292969-48.574219-17.664062-74.15625-.167969-3.839844-.253907-7.679688-.253907-11.519531-.011719-8.5.503907-16.992188 1.535157-25.429688 10.835937-91.816406 79.617187-163.753906 164.863281-170.238281 4.265625-.425781 8.535156-.597657 12.800781-.597657 98.988281 0 179.199219 87.894532 179.199219 196.265626zm0 0" fill="#fec108"/><path d="m409.632812 238.960938c.929688 65.347656-29.976562 127.0625-82.859374 165.460937l-84.394532 62.890625-82.6875-62.890625c-16.210937-11.367187-30.5-25.253906-42.328125-41.128906l-22.613281-38.65625c-10.308594-23.449219-16.292969-48.574219-17.664062-74.15625-.167969-3.839844-.253907-7.679688-.253907-11.519531-.011719-8.5.503907-16.992188 1.535157-25.429688 10.835937-91.816406 79.617187-163.753906 164.863281-170.238281 93.015625 7.082031 166.402343 91.988281 166.402343 195.667969zm0 0" fill="#ffdc00"/><path d="m256.03125 460.828125v25.601563c-.027344 9.414062-7.652344 17.039062-17.066406 17.066406h-102.402344c-9.414062-.027344-17.039062-7.652344-17.066406-17.066406v-25.601563c-.066406-31.34375 24.195312-57.359375 55.46875-59.476563 1.414062-.171874 2.839844-.257812 4.265625-.257812h17.066406c15.847656-.011719 31.046875 6.28125 42.25 17.484375 11.207031 11.203125 17.496094 26.40625 17.484375 42.25zm0 0" fill="#283593"/><path d="m230.429688 460.828125v25.601563c-.027344 9.414062-7.652344 17.039062-17.066407 17.066406h-76.800781c-9.414062-.027344-17.039062-7.652344-17.066406-17.066406v-25.601563c-.066406-31.34375 24.195312-57.359375 55.46875-59.476563 31.269531 2.117188 55.535156 28.132813 55.464844 59.476563zm0 0" fill="#3f51b5"/><path d="m392.5625 460.828125v25.601563c-.027344 9.414062-7.652344 17.039062-17.066406 17.066406h-102.398438c-9.414062-.027344-17.039062-7.652344-17.066406-17.066406v-25.601563c-.070312-31.34375 24.195312-57.359375 55.464844-59.476563 1.417968-.171874 2.84375-.257812 4.269531-.257812h17.066406c15.84375-.011719 31.046875 6.28125 42.25 17.484375s17.492188 26.40625 17.480469 42.25zm0 0" fill="#283593"/><path d="m366.964844 460.828125v25.601563c-.027344 9.414062-7.652344 17.039062-17.066406 17.066406h-76.800782c-9.414062-.027344-17.039062-7.652344-17.066406-17.066406v-25.601563c-.070312-31.34375 24.195312-57.359375 55.464844-59.476563 31.273437 2.117188 55.535156 28.132813 55.46875 59.476563zm0 0" fill="#3f51b5"/><path d="m460.234375 102.429688c-8.882813 4.046874-19.007813 4.414062-28.160156 1.023437-13.574219-5.097656-24.5625-15.382813-30.550781-28.585937-11.945313-25.003907-5.035157-53.25 15.445312-62.976563.769531-.34375 1.621094-.683594 2.476562-1.023437 20.050782-7.679688 44.628907 4.605468 56.148438 28.671874 11.945312 25 5.121094 53.160157-15.359375 62.890626zm0 0" fill="#f57c00"/><path d="m434.632812 102.429688c-.820312.414062-1.679687.757812-2.558593 1.023437-13.574219-5.097656-24.5625-15.382813-30.550781-28.585937-11.945313-25.003907-5.035157-53.25 15.445312-62.976563.769531-.34375 1.621094-.683594 2.476562-1.023437 13.542969 5.1875 24.515626 15.480468 30.546876 28.671874 11.949218 25 5.121093 53.160157-15.359376 62.890626zm0 0" fill="#ff9801"/><path d="m36.460938 39.507812c-11.917969 25.003907-5.125 53.179688 15.332031 62.929688 20.457031 9.753906 46.828125-2.609375 58.75-27.609375 11.917969-25.003906 4.996093-53.175781-15.457031-62.929687-20.457032-9.753907-46.703126 2.609374-58.625 27.609374zm0 0" fill="#ff9801"/><path d="m204.832031 256.027344h102.398438c4.714843 0 8.535156 3.820312 8.535156 8.535156v17.066406c0 32.988282-26.746094 59.734375-59.734375 59.734375s-59.734375-26.746093-59.734375-59.734375v-17.066406c0-4.714844 3.820313-8.535156 8.535156-8.535156zm0 0" fill="#bb193b"/><path d="m302.28125 319.347656c-11.316406 13.925782-28.304688 22.015625-46.25 22.015625s-34.9375-8.089843-46.25-22.015625c1.796875-3.660156 3.96875-7.121094 6.484375-10.328125 9.449219-12.316406 24.25-19.335937 39.765625-18.859375 15.515625-.476562 30.316406 6.542969 39.765625 18.859375 2.515625 3.207031 4.6875 6.667969 6.484375 10.328125zm0 0" fill="#ad1457"/><path d="m295.796875 309.019531c-22.597656 20.367188-56.933594 20.367188-79.53125 0 9.449219-12.316406 24.25-19.335937 39.765625-18.859375 15.515625-.476562 30.316406 6.542969 39.765625 18.859375zm0 0" fill="#e91e63"/><path d="m352.382812 412.957031c-3.726562 0-7.019531-2.417969-8.140624-5.96875-1.117188-3.554687.195312-7.421875 3.246093-9.554687 50.660157-36.753906 80.21875-95.894532 79.210938-158.472656 0-103.515626-76.558594-187.730469-170.667969-187.730469s-170.667969 84.214843-170.667969 187.730469c-1.007812 62.574218 28.554688 121.714843 79.210938 158.464843 2.496093 1.746094 3.875 4.691407 3.613281 7.726563s-2.125 5.699218-4.882812 6.992187c-2.761719 1.289063-6 1.007813-8.5-.734375-55.226563-39.9375-87.515626-104.296875-86.507813-172.449218 0-112.925782 84.21875-204.800782 187.734375-204.800782s187.734375 91.875 187.734375 204.800782c1.007813 68.152343-31.277344 132.511718-86.507813 172.453124-1.429687 1.003907-3.132812 1.542969-4.875 1.542969zm0 0"/><path d="m238.964844 512.027344h-102.402344c-14.128906-.015625-25.582031-11.464844-25.597656-25.597656v-25.601563c.042968-37.683594 30.582031-68.222656 68.265625-68.265625h17.066406c37.683594.042969 68.222656 30.582031 68.265625 68.265625v25.601563c-.011719 14.132812-11.464844 25.582031-25.597656 25.597656zm-59.734375-102.398438c-28.261719.03125-51.167969 22.9375-51.199219 51.199219v25.601563c.003906 4.710937 3.820312 8.53125 8.53125 8.53125h102.402344c4.710937 0 8.53125-3.820313 8.53125-8.53125v-25.601563c-.03125-28.261719-22.933594-51.167969-51.199219-51.199219zm0 0"/><path d="m256.03125 477.894531h-136.535156c-4.710938 0-8.53125-3.820312-8.53125-8.53125 0-4.714843 3.820312-8.535156 8.53125-8.535156h136.535156c4.710938 0 8.53125 3.820313 8.53125 8.535156 0 4.710938-3.820312 8.53125-8.53125 8.53125zm0 0"/><path d="m375.496094 512.027344h-102.398438c-14.132812-.015625-25.585937-11.464844-25.601562-25.597656v-25.601563c.042968-37.683594 30.582031-68.222656 68.269531-68.265625h17.066406c37.683594.042969 68.222657 30.582031 68.265625 68.265625v25.601563c-.015625 14.132812-11.46875 25.582031-25.601562 25.597656zm-59.730469-102.398438c-28.265625.03125-51.171875 22.9375-51.203125 51.199219v25.601563c.003906 4.710937 3.824219 8.53125 8.535156 8.53125h102.398438c4.714844 0 8.53125-3.820313 8.535156-8.53125v-25.601563c-.03125-28.261719-22.9375-51.167969-51.199219-51.199219zm0 0"/><path d="m392.5625 477.894531h-136.53125c-4.714844 0-8.535156-3.820312-8.535156-8.53125 0-4.714843 3.820312-8.535156 8.535156-8.535156h136.53125c4.714844 0 8.535156 3.820313 8.535156 8.535156 0 4.710938-3.820312 8.53125-8.535156 8.53125zm0 0"/><path d="m279.976562 107.839844c4.46875-4.984375 10.304688-8.546875 16.78125-10.238282 6.738282-1.835937 13.871094-1.589843 20.464844.707032 6.414063 2.273437 12.152344 6.125 16.691406 11.195312 2.113282 2.425782 4.027344 5.015625 5.730469 7.746094 1.421875 2.835938 2.871094 5.601562 4.035157 8.472656.480468 1.183594.074218 2.542969-.976563 3.265625-1.050781.726563-2.464844.625-3.402344-.246093l-.253906-.238282c-2.164063-2.019531-3.992187-4.183594-5.945313-6.203125-2.21875-1.71875-4.023437-3.816406-6.207031-5.355469-3.964843-3.175781-8.472656-5.597656-13.308593-7.152343-10.125-2.148438-20.65625-1.292969-30.304688 2.457031l-.378906.117188c-1.195313.363281-2.484375-.109376-3.164063-1.160157-.679687-1.046875-.582031-2.421875.238281-3.363281zm0 0"/><path d="m228.777344 112.25c-9.644532-3.75-20.175782-4.605469-30.300782-2.457031-4.835937 1.550781-9.347656 3.976562-13.3125 7.148437-2.183593 1.539063-3.984374 3.640625-6.207031 5.359375-1.953125 2.019531-3.78125 4.179688-5.941406 6.203125l-.257813.234375c-.933593.871094-2.347656.976563-3.402343.25-1.050781-.722656-1.457031-2.082031-.976563-3.265625 1.164063-2.871094 2.613282-5.640625 4.035156-8.472656 1.703126-2.730469 3.617188-5.320312 5.730469-7.746094 4.539063-5.074218 10.277344-8.921875 16.691407-11.195312 6.59375-2.296875 13.726562-2.546875 20.464843-.707032 6.476563 1.691407 12.3125 5.253907 16.78125 10.238282.820313.941406.917969 2.3125.242188 3.363281-.679688 1.050781-1.96875 1.523437-3.164063 1.164063zm0 0"/><path d="m445.289062 114.335938c-7.359374-.0625-14.609374-1.75-21.242187-4.941407-13.335937-6.507812-24.015625-17.417969-30.242187-30.890625-13.921876-29.207031-5.183594-62.539062 19.484374-74.308594 12.691407-5.832031 27.351563-5.554687 39.816407.75 13.308593 6.523438 23.964843 17.433594 30.175781 30.890626 6.550781 13.289062 8.339844 28.421874 5.066406 42.871093-2.898437 13.664063-11.894531 25.246094-24.417968 31.433594-5.820313 2.777344-12.191407 4.210937-18.640626 4.195313zm-13.386718-97.242188c-3.894532-.015625-7.742188.835938-11.261719 2.5-16.175781 7.71875-21.308594 30.851562-11.4375 51.558594 4.527344 9.914062 12.332031 17.964844 22.101563 22.792968 7.867187 4.089844 17.167968 4.378907 25.277343.792969 7.855469-4.019531 13.449219-11.40625 15.183594-20.058593 2.34375-10.632813.972656-21.746094-3.882813-31.488282v-.007812c-4.519531-9.902344-12.300781-17.945313-22.042968-22.792969-4.347656-2.113281-9.105469-3.238281-13.9375-3.296875zm0 0"/><path d="m469.363281 221.894531h-35.667969c-4.714843 0-8.535156-3.820312-8.535156-8.53125 0-4.714843 3.820313-8.535156 8.535156-8.535156h24.515626l-26.347657-97.265625c-1.144531-4.515625 1.542969-9.117188 6.039063-10.335938s9.140625 1.390626 10.429687 5.867188l29.269531 108.035156c.699219 2.5625.160157 5.308594-1.457031 7.417969-1.613281 2.113281-4.121093 3.347656-6.78125 3.347656zm0 0"/><path d="m469.363281 256.027344h-34.304687c-4.710938 0-8.53125-3.820313-8.53125-8.53125 0-4.714844 3.820312-8.535156 8.53125-8.535156h34.304687c7.917969.003906 15.394531-3.65625 20.246094-9.914063s6.535156-14.40625 4.5625-22.078125l-30.308594-111.605469c-.851562-2.960937-.046875-6.152343 2.113281-8.351562 2.164063-2.195313 5.339844-3.058594 8.3125-2.253907 2.976563.804688 5.285157 3.152344 6.042969 6.136719l30.378907 111.867188c3.257812 12.90625.355468 26.59375-7.855469 37.066406-8.085938 10.257813-20.433594 16.230469-33.492188 16.199219zm0 0"/><path d="m66.753906 114.335938c-6.449218.015624-12.820312-1.421876-18.640625-4.199219-12.519531-6.1875-21.519531-17.769531-24.414062-31.429688-3.273438-14.449219-1.484375-29.582031 5.066406-42.867187 6.207031-13.460938 16.863281-24.371094 30.171875-30.894532 12.464844-6.308593 27.125-6.582031 39.816406-.75 12.527344 6.191407 21.542969 17.757813 24.484375 31.417969 3.320313 14.445313 1.550781 29.59375-5 42.890625-6.222656 13.472656-16.90625 24.382813-30.242187 30.890625-6.628906 3.191407-13.882813 4.878907-21.242188 4.941407zm13.386719-97.242188c-4.832031.058594-9.589844 1.183594-13.933594 3.292969-9.742187 4.847656-17.523437 12.890625-22.042969 22.792969v.007812c-4.855468 9.742188-6.226562 20.855469-3.882812 31.488281 1.734375 8.652344 7.324219 16.039063 15.183594 20.058594 8.105468 3.589844 17.40625 3.300781 25.273437-.792969 9.769531-4.828125 17.578125-12.875 22.101563-22.789062 4.855468-9.742188 6.203125-20.855469 3.824218-31.476563-1.765624-8.664062-7.382812-16.054687-15.257812-20.082031-3.523438-1.660156-7.371094-2.515625-11.265625-2.5zm0 0"/><path d="m78.347656 221.894531h-35.667968c-2.65625 0-5.160157-1.238281-6.773438-3.347656-1.613281-2.113281-2.152344-4.855469-1.457031-7.417969l29.269531-108.03125c1.289062-4.476562 5.933594-7.089844 10.429688-5.871094 4.496093 1.222657 7.183593 5.820313 6.039062 10.335938l-26.355469 97.265625h24.515625c4.710938 0 8.53125 3.820313 8.53125 8.535156 0 4.710938-3.820312 8.53125-8.53125 8.53125zm0 0"/><path d="m76.988281 256.027344h-34.308593c-13.140626.003906-25.546876-6.042969-33.636719-16.398438-8.089844-10.355468-10.957031-23.859375-7.769531-36.609375l30.441406-112.128906c.757812-2.984375 3.066406-5.332031 6.042968-6.136719 2.972657-.804687 6.152344.058594 8.3125 2.257813 2.160157 2.195312 2.96875 5.386719 2.113282 8.347656l-30.378906 111.867187c-1.882813 7.644532-.144532 15.730469 4.710937 21.925782 4.855469 6.195312 12.292969 9.8125 20.164063 9.808594h34.308593c4.714844 0 8.535157 3.820312 8.535157 8.535156 0 4.710937-3.820313 8.53125-8.535157 8.53125zm0 0"/><path d="m194.398438 219.296875c-15.296876.636719-29.953126-6.171875-39.332032-18.269531-2.640625-3.90625-1.609375-9.210938 2.296875-11.847656 3.910157-2.636719 9.214844-1.609376 11.851563 2.296874.699218 1 14.53125 19.410157 49.515625 5.425782 2.832031-1.128906 6.050781-.664063 8.445312 1.222656 2.398438 1.886719 3.605469 4.90625 3.167969 7.921875-.433594 3.019531-2.449219 5.574219-5.28125 6.707031-9.710938 4.117188-20.117188 6.335938-30.664062 6.542969zm0 0"/><path d="m317.664062 219.296875c-10.546874-.203125-20.957031-2.421875-30.667968-6.542969-2.828125-1.132812-4.84375-3.6875-5.277344-6.707031-.4375-3.015625.769531-6.035156 3.164062-7.921875 2.398438-1.886719 5.617188-2.351562 8.449219-1.222656 35.847657 14.335937 49.332031-5.148438 49.464844-5.339844 1.679687-2.566406 4.605469-4.039062 7.667969-3.847656 3.0625.1875 5.785156 2.003906 7.136718 4.757812 1.351563 2.753906 1.121094 6.019532-.605468 8.554688-9.378906 12.097656-24.035156 18.90625-39.332032 18.269531zm0 0"/><path d="m256.132812 384.027344c-12.792968.015625-25.472656-2.394532-37.367187-7.097656-2.921875-1.058594-5.039063-3.621094-5.523437-6.691407-.484376-3.066406.734374-6.15625 3.1875-8.066406 2.449218-1.910156 5.746093-2.332031 8.601562-1.109375 19.898438 7.796875 42 7.835938 61.925781.097656 4.347657-1.574218 9.164063.601563 10.851563 4.90625 1.691406 4.308594-.359375 9.179688-4.625 10.980469-11.800782 4.628906-24.371094 6.996094-37.050782 6.980469zm0 0"/><path d="m256.03125 349.894531c-37.683594-.042969-68.222656-30.582031-68.265625-68.265625v-17.066406c.011719-9.421875 7.644531-17.054688 17.066406-17.066406h102.398438c9.421875.011718 17.054687 7.644531 17.066406 17.066406v17.066406c-.042969 37.683594-30.582031 68.222656-68.265625 68.265625zm-51.199219-85.332031v17.066406c0 28.277344 22.921875 51.199219 51.199219 51.199219s51.199219-22.921875 51.199219-51.199219v-17.066406zm0 0"/><path d="m302.289062 327.878906c-3.246093.003906-6.210937-1.832031-7.648437-4.742187-7.066406-14.921875-22.097656-24.441407-38.609375-24.441407s-31.546875 9.519532-38.609375 24.441407c-2.160156 4.09375-7.191406 5.71875-11.339844 3.660156-4.144531-2.054687-5.894531-7.046875-3.941406-11.242187 9.941406-20.734376 30.894531-33.925782 53.890625-33.925782 22.992188 0 43.949219 13.191406 53.890625 33.925782 1.007813 2.027343 1.171875 4.371093.449219 6.515624-.722656 2.144532-2.269532 3.914063-4.296875 4.917969-1.175781.589844-2.472657.894531-3.785157.890625zm0 0"/></svg>