<?xml version="1.0" encoding="iso-8859-1"?>
<!-- Generator: Adobe Illustrator 19.0.0, SVG Export Plug-In . SVG Version: 6.00 Build 0)  -->
<svg version="1.1" id="Layer_1" xmlns="http://www.w3.org/2000/svg" xmlns:xlink="http://www.w3.org/1999/xlink" x="0px" y="0px"
	 viewBox="0 0 512 512" style="enable-background:new 0 0 512 512;" xml:space="preserve">
<circle style="fill:#FDDF6D;" cx="256.001" cy="256.001" r="245.994"/>
<path style="fill:#FCC56B;" d="M308.715,465.678c-135.858,0-245.993-110.134-245.993-245.993
	c0-72.584,31.443-137.816,81.444-182.842C64.527,77.562,10.007,160.414,10.007,256c0,135.858,110.134,245.993,245.993,245.993
	c63.274,0,120.962-23.898,164.549-63.149C386.996,455.999,348.987,465.678,308.715,465.678z"/>
<g>
	<circle style="fill:#FFFFFF;" cx="213.157" cy="179.852" r="71.359"/>
	<circle style="fill:#FFFFFF;" cx="413.277" cy="179.852" r="71.359"/>
</g>
<g>
	<path style="fill:#F9A880;" d="M150.288,278.282c-18.268,0-33.078,14.81-33.078,33.078h66.157
		C183.365,293.091,168.556,278.282,150.288,278.282z"/>
	<path style="fill:#F9A880;" d="M438.814,278.282c-18.268,0-33.078,14.81-33.078,33.078h66.157
		C471.893,293.091,457.082,278.282,438.814,278.282z"/>
</g>
<path d="M358.846,355.174H252.308c-5.527,0-10.007-4.479-10.007-10.007c0-5.528,4.481-10.007,10.007-10.007h106.538
	c5.527,0,10.007,4.479,10.007,10.007C368.854,350.695,364.373,355.174,358.846,355.174z"/>
<g>
	<circle style="fill:#7F184C;" cx="225.165" cy="179.852" r="20.015"/>
	<circle style="fill:#7F184C;" cx="428.234" cy="179.852" r="20.015"/>
</g>
<path d="M488.148,148.014c-12.417-29.085-41.3-49.526-74.871-49.526c-44.866,0-81.366,36.5-81.366,81.366s36.5,81.366,81.366,81.366
	c33.387,0,62.128-20.22,74.658-49.051c2.682,14.319,4.052,28.947,4.052,43.828c0,130.124-105.862,235.984-235.985,235.984
	S20.015,386.124,20.015,256S125.876,20.015,256,20.015c42.978,0,85.042,11.662,121.645,33.726
	c4.734,2.855,10.884,1.329,13.737-3.404c2.853-4.734,1.329-10.884-3.404-13.737C348.257,12.656,302.62,0,256,0
	C114.84,0,0,114.84,0,256c0,141.158,114.84,256,256,256s256-114.84,256-255.999C512,218.227,503.962,181.924,488.148,148.014z
	 M474.627,179.856c0,33.83-27.522,61.352-61.352,61.352s-61.352-27.523-61.352-61.352s27.522-61.352,61.352-61.352
	c24.01,0,44.83,13.872,54.902,34.014c0.068,0.161,0.128,0.324,0.205,0.483c0.508,1.046,0.986,2.103,1.478,3.154
	C472.929,163.451,474.627,171.458,474.627,179.856z"/>
<path d="M213.163,98.49c-44.866,0-81.366,36.5-81.366,81.366s36.5,81.366,81.366,81.366s81.366-36.5,81.366-81.366
	S258.028,98.49,213.163,98.49z M213.163,241.208c-33.83,0-61.352-27.523-61.352-61.352s27.522-61.352,61.352-61.352
	s61.352,27.523,61.352,61.352S246.992,241.208,213.163,241.208z"/>
<path d="M242.301,345.165c0,5.528,4.481,10.007,10.007,10.007h106.538c5.527,0,10.007-4.479,10.007-10.007
	c0-5.528-4.481-10.007-10.007-10.007H252.308C246.781,335.158,242.301,339.637,242.301,345.165z"/>
<circle cx="413.277" cy="66.271" r="10.007"/>
<g>
</g>
<g>
</g>
<g>
</g>
<g>
</g>
<g>
</g>
<g>
</g>
<g>
</g>
<g>
</g>
<g>
</g>
<g>
</g>
<g>
</g>
<g>
</g>
<g>
</g>
<g>
</g>
<g>
</g>
</svg>
