<?xml version="1.0" encoding="iso-8859-1"?>
<!-- Generator: Adobe Illustrator 19.0.0, SVG Export Plug-In . SVG Version: 6.00 Build 0)  -->
<svg version="1.1" id="Layer_1" xmlns="http://www.w3.org/2000/svg" xmlns:xlink="http://www.w3.org/1999/xlink" x="0px" y="0px"
	 viewBox="0 0 511.999 511.999" style="enable-background:new 0 0 511.999 511.999;" xml:space="preserve">
<circle style="fill:#FDDF6D;" cx="256.001" cy="256.001" r="245.993"/>
<path style="fill:#FCC56B;" d="M308.715,465.677c-135.858,0-245.992-110.134-245.992-245.992
	c0-72.584,31.443-137.816,81.444-182.842c-79.64,40.719-134.16,123.57-134.16,219.156c0,135.858,110.134,245.992,245.992,245.992
	c63.274,0,120.962-23.897,164.548-63.149C386.997,455.998,348.986,465.677,308.715,465.677z"/>
<g>
	<path style="fill:#7F184C;" d="M240.368,196.324c-3.513,0-6.921-1.853-8.752-5.14c-6.422-11.527-18.595-18.687-31.771-18.687
		c-12.851,0-25.19,7.265-32.202,18.962c-2.843,4.739-8.989,6.278-13.729,3.437c-4.741-2.842-6.279-8.988-3.437-13.729
		c10.608-17.694,29.524-28.686,49.368-28.686c20.431,0,39.305,11.097,49.255,28.961c2.69,4.829,0.957,10.924-3.872,13.613
		C243.686,195.917,242.014,196.324,240.368,196.324z"/>
	<path style="fill:#7F184C;" d="M416.497,196.324c-3.513,0-6.921-1.853-8.752-5.14c-6.422-11.527-18.595-18.687-31.771-18.687
		c-12.851,0-25.19,7.265-32.202,18.962c-2.843,4.739-8.989,6.278-13.729,3.437c-4.741-2.842-6.279-8.988-3.437-13.729
		c10.608-17.694,29.524-28.686,49.368-28.686c20.431,0,39.305,11.097,49.255,28.961c2.69,4.829,0.957,10.924-3.872,13.613
		C419.815,195.917,418.143,196.324,416.497,196.324z"/>
</g>
<path d="M473.265,120.544c-24.642-39.445-59.524-71.47-100.874-92.612c-4.918-2.515-10.949-0.567-13.466,4.354
	s-0.567,10.951,4.355,13.466c38.124,19.494,70.286,49.024,93.009,85.396c23.352,37.378,35.694,80.551,35.694,124.851
	c0,130.123-105.863,235.985-235.985,235.985S20.015,386.123,20.015,255.999S125.877,20.015,255.999,20.015
	c5.528,0,10.007-4.481,10.007-10.007S261.527,0,255.999,0C114.84,0,0,114.841,0,255.999s114.84,255.999,255.999,255.999
	s255.999-114.84,255.999-255.999C512,207.946,498.606,161.106,473.265,120.544z"/>
<path d="M199.845,152.485c-19.844,0-38.76,10.991-49.368,28.685c-2.842,4.739-1.304,10.887,3.437,13.729
	c4.739,2.841,10.885,1.304,13.729-3.437c7.012-11.697,19.352-18.962,32.202-18.962c13.176,0,25.351,7.16,31.771,18.686
	c1.831,3.286,5.238,5.14,8.752,5.14c1.647,0,3.318-0.408,4.861-1.266c4.829-2.69,6.562-8.784,3.872-13.613
	C239.15,163.582,220.277,152.485,199.845,152.485z"/>
<path d="M326.606,181.17c-2.842,4.739-1.304,10.887,3.437,13.729c4.739,2.841,10.885,1.304,13.729-3.437
	c7.012-11.697,19.352-18.962,32.202-18.962c13.176,0,25.351,7.16,31.771,18.686c1.831,3.286,5.238,5.14,8.752,5.14
	c1.647,0,3.318-0.408,4.861-1.266c4.829-2.69,6.562-8.784,3.872-13.613c-9.95-17.864-28.824-28.961-49.255-28.961
	C356.13,152.485,337.215,163.476,326.606,181.17z"/>
<path d="M315.679,313.898c10.636-2.003,21.27-4.006,31.906-6.008c7.951-1.497,27.783-8.656,28.305,5.376
	c0.242,6.501-4.455,8.714-9.139,11.574c-5.966,3.643-11.93,7.287-17.896,10.929c-5.732,3.501-11.147,9.391-6.265,16.32
	c3.085,4.379,10.649,6.231,15.295,8.259c4.389,1.916,13.146,4.188,16.1,8.031c4.726,6.147,0.084,14.097-6.962,14.512
	c-12.282,0.725-25.549-1.784-37.824-2.641c-3.635-0.254-7.443-0.871-11.091-0.774c-10.692,0.286-15.26,14.962-4.338,19.265
	c3.588,1.413,8.302,1.075,12.073,1.338c6.976,0.487,13.952,0.974,20.927,1.461c13.098,0.914,26.985,4.196,38.171-4.77
	c8.892-7.128,12.901-19.075,10.009-30.121c-3.225-12.313-12.05-16.766-22.555-21.809c13.698-8.365,25.858-17.689,23.22-35.948
	c-2.702-18.704-20.579-26.463-37.454-23.364c-12.361,2.27-24.702,4.651-37.054,6.977c-3.488,0.656-7.76,0.858-11.079,2.294
	C299.451,299.379,304.03,316.098,315.679,313.898z"/>
<circle cx="331.536" cy="22.857" r="10.007"/>
<g>
	<path style="fill:#F9A880;" d="M150.287,224.91c-18.268,0-33.078,14.809-33.078,33.078h66.156
		C183.366,239.719,168.555,224.91,150.287,224.91z"/>
	<path style="fill:#F9A880;" d="M438.814,224.91c-18.268,0-33.078,14.809-33.078,33.078h66.156
		C471.892,239.719,457.083,224.91,438.814,224.91z"/>
</g>
<g>
</g>
<g>
</g>
<g>
</g>
<g>
</g>
<g>
</g>
<g>
</g>
<g>
</g>
<g>
</g>
<g>
</g>
<g>
</g>
<g>
</g>
<g>
</g>
<g>
</g>
<g>
</g>
<g>
</g>
</svg>
