<svg height="511pt" viewBox="0 -17 511.92655 511" width="511pt" xmlns="http://www.w3.org/2000/svg"><path d="m76.953125 216.785156-34.21875 14.675782 19.199219 48.640624-29.097656 19.199219-21.84375-55.296875c-6.867188-17.152344 1.25-36.648437 18.261718-43.859375l44.542969-19.117187c1.417969-.59375 2.910156-.996094 4.4375-1.195313zm0 0" fill="#ff5722"/><path d="m434.972656 216.785156 34.21875 14.675782-19.199218 48.640624 29.097656 19.199219 21.84375-55.296875c6.867187-17.152344-1.25-36.648437-18.261719-43.859375l-44.542969-19.117187c-1.417968-.59375-2.910156-.996094-4.4375-1.195313zm0 0" fill="#ff5722"/><path d="m435.097656 205.261719c.929688 65.347656-29.976562 127.0625-82.859375 165.460937l-97.28125 72.535156-12.714843-9.640624-82.6875-62.894532c-16.207032-11.367187-30.496094-25.253906-42.324219-41.128906l-22.613281-38.65625c-10.3125-23.449219-16.296876-48.574219-17.664063-74.152344-.171875-3.84375-.253906-7.683594-.253906-11.523437-.011719-8.5.503906-16.992188 1.535156-25.429688 10.835937-91.816406 79.613281-163.753906 164.863281-170.238281 4.265625-.425781 8.53125-.597656 12.800782-.597656 98.984374 0 179.199218 87.894531 179.199218 196.265625zm0 0" fill="#fec108"/><path d="m409.496094 205.261719c.929687 65.347656-29.976563 127.0625-82.859375 165.460937l-84.394531 62.894532-82.6875-62.894532c-16.207032-11.367187-30.496094-25.253906-42.324219-41.128906l-22.613281-38.65625c-10.3125-23.449219-16.296876-48.574219-17.664063-74.152344-.171875-3.84375-.253906-7.683594-.253906-11.523437-.011719-8.5.503906-16.992188 1.535156-25.429688 10.835937-91.816406 79.613281-163.753906 164.863281-170.238281 93.011719 7.082031 166.398438 91.988281 166.398438 195.667969zm0 0" fill="#ffdc00"/><path d="m255.898438 427.128906v25.601563c-.027344 9.414062-7.652344 17.039062-17.066407 17.066406h-102.402343c-9.414063-.027344-17.039063-7.652344-17.066407-17.066406v-25.601563c-.066406-31.34375 24.195313-57.359375 55.46875-59.476562 1.414063-.171875 2.839844-.253906 4.265625-.253906h17.066406c15.84375-.011719 31.046876 6.277343 42.25 17.480468 11.207032 11.207032 17.496094 26.40625 17.484376 42.25zm0 0" fill="#283593"/><path d="m230.296875 427.128906v25.601563c-.027344 9.414062-7.652344 17.039062-17.066406 17.066406h-76.800781c-9.414063-.027344-17.039063-7.652344-17.066407-17.066406v-25.601563c-.066406-31.34375 24.195313-57.359375 55.46875-59.476562 31.269531 2.117187 55.535157 28.132812 55.464844 59.476562zm0 0" fill="#3f51b5"/><path d="m392.429688 427.128906v25.601563c-.027344 9.414062-7.652344 17.039062-17.066407 17.066406h-102.398437c-9.414063-.027344-17.039063-7.652344-17.066406-17.066406v-25.601563c-.070313-31.34375 24.195312-57.359375 55.464843-59.476562 1.417969-.171875 2.839844-.253906 4.265625-.253906h17.070313c15.84375-.011719 31.042969 6.277343 42.25 17.480468 11.203125 11.207032 17.492187 26.40625 17.480469 42.25zm0 0" fill="#283593"/><path d="m366.832031 427.128906v25.601563c-.027343 9.414062-7.652343 17.039062-17.066406 17.066406h-76.800781c-9.414063-.027344-17.039063-7.652344-17.066406-17.066406v-25.601563c-.070313-31.34375 24.195312-57.359375 55.464843-59.476562 31.273438 2.117187 55.535157 28.132812 55.46875 59.476562zm0 0" fill="#3f51b5"/><path d="m105.753906 302.121094c-16.804687-22.019532-45.035156-28.722656-63.050781-14.972656-18.011719 13.75-18.996094 42.742187-2.191406 64.761718 16.804687 22.019532 45.035156 28.722656 63.046875 14.972656 18.015625-13.75 19-42.746093 2.195312-64.761718zm0 0" fill="#ff9801"/><path d="m471.449219 351.953125c-11.785157 17.34375-33.222657 25.378906-53.503907 20.050781-3.449218-1.15625-6.683593-2.886718-9.558593-5.121094-18.003907-13.738281-19.027344-42.75-2.21875-64.765624 7.015625-9.398438 16.761719-16.402344 27.90625-20.054688 11.847656-4.179688 24.992187-2.265625 35.15625 5.121094 18.003906 13.738281 18.945312 42.667968 2.21875 64.769531zm0 0" fill="#f57c00"/><path d="m445.847656 351.953125c-7.03125 9.378906-16.769531 16.378906-27.902344 20.050781-3.449218-1.15625-6.683593-2.886718-9.558593-5.121094-18.003907-13.738281-19.027344-42.75-2.21875-64.765624 7.015625-9.398438 16.761719-16.402344 27.90625-20.054688 3.449219 1.15625 6.679687 2.890625 9.554687 5.121094 18.007813 13.738281 18.945313 42.667968 2.21875 64.769531zm0 0" fill="#ff9801"/><path d="m255.898438 222.328125c32.988281 0 59.730468 26.746094 59.730468 59.734375v17.066406c0 4.714844-3.820312 8.535156-8.53125 8.535156h-102.398437c-4.714844 0-8.535157-3.820312-8.535157-8.535156v-17.066406c0-32.988281 26.742188-59.734375 59.734376-59.734375zm0 0" fill="#bb193b"/><path d="m230.296875 307.664062v-17.066406c0-14.140625 11.460937-25.601562 25.601563-25.601562 14.136718 0 25.597656 11.460937 25.597656 25.601562v17.066406zm0 0" fill="#e91e63"/><path d="m159.546875 379.257812c-1.738281 0-3.4375-.539062-4.863281-1.535156-16.960938-11.882812-31.910156-26.402344-44.28125-43.007812-2.699219-3.773438-1.890625-9.011719 1.824218-11.796875 3.710938-2.78125 8.96875-2.089844 11.832032 1.5625 11.28125 15.148437 24.910156 28.394531 40.375 39.242187 3.054687 2.132813 4.371094 6 3.253906 9.554688-1.117188 3.554687-4.410156 5.976562-8.136719 5.976562zm0 0"/><path d="m352.246094 379.257812c-3.726563.003907-7.027344-2.414062-8.144532-5.96875-1.121093-3.558593.199219-7.429687 3.253907-9.5625 15.566406-10.878906 29.25-24.226562 40.507812-39.523437 2.792969-3.792969 8.132813-4.601563 11.925781-1.808594 3.792969 2.792969 4.601563 8.132813 1.808594 11.925781-12.351562 16.804688-27.375 31.46875-44.476562 43.40625-1.429688 1-3.128906 1.53125-4.875 1.53125zm0 0"/><path d="m417.082031 299.640625c-1.195312.003906-2.378906-.25-3.46875-.738281-2.066406-.921875-3.683593-2.628906-4.492187-4.738282-.808594-2.113281-.746094-4.460937.175781-6.527343 9.984375-22.53125 15.753906-46.703125 17.027344-71.316407.15625-3.632812.238281-7.347656.238281-11.058593.011719-8.148438-.476562-16.292969-1.464844-24.382813-10.976562-93.148437-83.71875-163.347656-169.199218-163.347656-85.484376 0-158.226563 70.199219-169.191407 163.296875-.992187 8.109375-1.488281 16.269531-1.476562 24.433594 0 3.710937.085937 7.425781.25 11.125 1.296875 24.53125 7.039062 48.621093 16.941406 71.101562 1.90625 4.3125-.046875 9.351563-4.359375 11.257813s-9.351562-.046875-11.257812-4.359375c-10.742188-24.386719-16.96875-50.527344-18.367188-77.140625-.1875-4.039063-.273438-8.007813-.273438-11.984375-.007812-8.851563.527344-17.695313 1.601563-26.480469 11.972656-101.636719 92-178.316406 186.132813-178.316406 94.132812 0 174.15625 76.679687 186.140624 178.363281 1.066407 8.773437 1.597657 17.601563 1.589844 26.433594 0 3.976562-.085937 7.945312-.265625 11.910156-1.367187 26.714844-7.632812 52.953125-18.484375 77.40625-1.371094 3.082031-4.425781 5.066406-7.796875 5.0625zm0 0"/><path d="m238.832031 478.328125h-102.402343c-14.132813-.015625-25.582032-11.464844-25.597657-25.597656v-25.601563c.042969-37.683594 30.582031-68.222656 68.265625-68.265625h17.066406c37.683594.042969 68.222657 30.582031 68.265626 68.265625v25.601563c-.015626 14.132812-11.46875 25.582031-25.597657 25.597656zm-59.734375-102.398437c-28.265625.03125-51.167968 22.9375-51.199218 51.199218v25.601563c0 4.710937 3.820312 8.53125 8.53125 8.53125h102.402343c4.710938 0 8.527344-3.820313 8.53125-8.53125v-25.601563c-.03125-28.261718-22.933593-51.167968-51.199219-51.199218zm0 0"/><path d="m255.898438 444.195312h-136.535157c-4.710937 0-8.53125-3.820312-8.53125-8.53125 0-4.714843 3.820313-8.535156 8.53125-8.535156h136.535157c4.710937 0 8.53125 3.820313 8.53125 8.535156 0 4.710938-3.820313 8.53125-8.53125 8.53125zm0 0"/><path d="m375.363281 478.328125h-102.398437c-14.132813-.015625-25.585938-11.464844-25.601563-25.597656v-25.601563c.042969-37.683594 30.582031-68.222656 68.265625-68.265625h17.070313c37.683593.042969 68.222656 30.582031 68.265625 68.265625v25.601563c-.015625 14.132812-11.46875 25.582031-25.601563 25.597656zm-59.734375-102.398437c-28.261718.03125-51.167968 22.9375-51.199218 51.199218v25.601563c.003906 4.710937 3.824218 8.53125 8.535156 8.53125h102.398437c4.710938 0 8.53125-3.820313 8.535157-8.53125v-25.601563c-.03125-28.261718-22.9375-51.167968-51.199219-51.199218zm0 0"/><path d="m392.429688 444.195312h-136.53125c-4.714844 0-8.535157-3.820312-8.535157-8.53125 0-4.714843 3.820313-8.535156 8.535157-8.535156h136.53125c4.714843 0 8.535156 3.820313 8.535156 8.535156 0 4.710938-3.820313 8.53125-8.535156 8.53125zm0 0"/><path d="m81.789062 382.503906c-19.082031-.609375-36.8125-9.988281-48.058593-25.414062-19.632813-25.726563-17.921875-60.144532 3.800781-76.726563 21.707031-16.59375 55.359375-9.148437 75.007812 16.582031 19.632813 25.726563 17.925782 60.144532-3.800781 76.714844-7.757812 5.847656-17.234375 8.957032-26.949219 8.84375zm-17.175781-93.992187c-6.023437-.097657-11.910156 1.808593-16.734375 5.417969-14.238281 10.875-14.503906 34.558593-.582031 52.808593 13.910156 18.234375 36.824219 24.226563 51.09375 13.359375 14.238281-10.867187 14.5-34.5625.582031-52.800781-7.980468-11.183594-20.636718-18.101563-34.359375-18.785156zm0 0"/><path d="m24.90625 302.429688-21.851562-55.292969c-8.59375-21.445313 1.558593-45.824219 22.832031-54.832031l44.546875-19.113282c2.164062-.914062 4.445312-1.53125 6.773437-1.835937l2.046875 16.953125c-.753906.101562-1.488281.308594-2.191406.605468l-44.441406 19.074219c-12.753906 5.402344-18.84375 20.015625-13.695313 32.875l21.851563 55.296875zm0 0"/><path d="m54 283.230469-19.203125-48.632813c-1.699219-4.292968.328125-9.15625 4.570313-10.976562l34.222656-14.683594 6.734375 15.683594-26.609375 11.417968 16.148437 40.925782zm0 0"/><path d="m430.136719 382.503906c-9.710938.117188-19.191407-2.992187-26.949219-8.839844-10.988281-8.625-17.4375-21.796874-17.507812-35.765624-.273438-14.820313 4.566406-29.285157 13.710937-40.953126 19.632813-25.722656 53.289063-33.164062 75.007813-16.582031 21.714843 16.582031 23.421874 51 3.796874 76.726563-11.246093 15.425781-28.976562 24.800781-48.058593 25.414062zm17.183593-93.992187c-13.722656.683593-26.378906 7.601562-34.363281 18.785156-6.75 8.535156-10.359375 19.132813-10.21875 30.015625-.054687 8.84375 3.921875 17.230469 10.800781 22.785156 14.257813 10.882813 37.175782 4.875 51.089844-13.359375 13.917969-18.25 13.65625-41.933593-.582031-52.808593-4.820313-3.605469-10.703125-5.511719-16.726563-5.417969zm0 0"/><path d="m487.023438 302.429688-15.867188-6.265626 21.84375-55.292968c5.160156-12.859375-.929688-27.484375-13.691406-32.882813l-44.542969-19.113281c-.671875-.277344-1.378906-.46875-2.101563-.566406l2.050782-16.953125c2.296875.296875 4.542968.902343 6.683594 1.792969l44.644531 19.15625c21.277343 9.007812 31.429687 33.394531 22.824219 54.84375zm0 0"/><path d="m457.921875 283.230469-15.867187-6.265625 16.152343-40.925782-26.601562-11.417968 6.734375-15.683594 34.21875 14.683594c4.242187 1.820312 6.265625 6.683594 4.566406 10.976562zm0 0"/><path d="m228.644531 70.019531c-9.648437-3.753906-20.175781-4.605469-30.300781-2.460937-4.835938 1.554687-9.347656 3.976562-13.3125 7.152344-2.183594 1.535156-3.984375 3.636718-6.207031 5.355468-1.949219 2.023438-3.78125 4.183594-5.941407 6.203125l-.257812.238281c-.933594.871094-2.347656.976563-3.402344.25-1.054687-.722656-1.460937-2.085937-.976562-3.269531 1.164062-2.871093 2.613281-5.636719 4.035156-8.472656 1.703125-2.726563 3.621094-5.320313 5.730469-7.746094 4.539062-5.070312 10.28125-8.921875 16.695312-11.195312 6.589844-2.296875 13.726563-2.542969 20.460938-.707031 6.476562 1.691406 12.3125 5.253906 16.78125 10.242187.820312.941406.917969 2.3125.242187 3.359375-.679687 1.050781-1.96875 1.527344-3.164062 1.164062zm0 0"/><path d="m279.84375 65.609375c4.46875-4.988281 10.304688-8.546875 16.78125-10.242187 6.734375-1.835938 13.871094-1.589844 20.460938.707031 6.414062 2.277343 12.15625 6.125 16.695312 11.195312 2.109375 2.429688 4.027344 5.019531 5.730469 7.75 1.421875 2.832031 2.871093 5.601563 4.035156 8.46875.480469 1.183594.074219 2.542969-.976563 3.269531-1.050781.726563-2.46875.621094-3.402343-.25l-.253907-.238281c-2.164062-2.015625-3.992187-4.179687-5.945312-6.199219-2.21875-1.71875-4.023438-3.820312-6.207031-5.359374-3.964844-3.175782-8.476563-5.597657-13.3125-7.148438-10.121094-2.148438-20.652344-1.292969-30.300781 2.457031l-.378907.113281c-1.195312.363282-2.484375-.109374-3.164062-1.160156-.679688-1.046875-.582031-2.417968.238281-3.359375zm0 0"/><path d="m179.097656 196.730469c-3.328125-.003907-6.351562-1.945313-7.742187-4.96875-1.390625-3.023438-.898438-6.582031 1.265625-9.113281l51.199218-59.730469c1.960938-2.394531 5.0625-3.542969 8.105469-2.996094 3.046875.542969 5.558594 2.695313 6.5625 5.621094 1.007813 2.921875.351563 6.164062-1.714843 8.46875l-51.199219 59.730469c-1.617188 1.898437-3.984375 2.992187-6.476563 2.988281zm0 0"/><path d="m230.296875 196.730469c-2.492187.003906-4.859375-1.089844-6.476563-2.988281l-51.199218-59.730469c-2.933594-3.589844-2.464844-8.863281 1.054687-11.878907 3.519531-3.011718 8.800781-2.664062 11.898438.785157l51.199219 59.730469c2.164062 2.53125 2.65625 6.089843 1.265624 9.113281-1.390624 3.023437-4.414062 4.964843-7.742187 4.96875zm0 0"/><path d="m281.496094 196.730469c-3.328125-.003907-6.351563-1.945313-7.742188-4.96875-1.390625-3.023438-.894531-6.582031 1.269532-9.113281l51.199218-59.730469c3.09375-3.449219 8.375-3.796875 11.894532-.785157 3.519531 3.015626 3.988281 8.289063 1.054687 11.878907l-51.199219 59.730469c-1.617187 1.898437-3.984375 2.992187-6.476562 2.988281zm0 0"/><path d="m332.699219 196.730469c-2.496094.003906-4.863281-1.089844-6.476563-2.988281l-51.199218-59.730469c-2.066407-2.304688-2.722657-5.546875-1.71875-8.46875 1.007812-2.925781 3.519531-5.078125 6.5625-5.621094 3.046874-.546875 6.148437.601563 8.105468 2.996094l51.199219 59.730469c2.164063 2.53125 2.660156 6.089843 1.269531 9.113281-1.390625 3.023437-4.414062 4.964843-7.742187 4.96875zm0 0"/><path d="m307.097656 316.195312h-102.398437c-9.421875-.011718-17.054688-7.644531-17.070313-17.066406v-17.066406c0-37.703125 30.566406-68.265625 68.269532-68.265625 37.703124 0 68.265624 30.5625 68.265624 68.265625v17.066406c-.011718 9.421875-7.644531 17.054688-17.066406 17.066406zm-51.199218-85.332031c-28.265626.03125-51.171876 22.9375-51.199219 51.199219v17.066406h102.398437v-17.066406c-.03125-28.261719-22.9375-51.167969-51.199218-51.199219zm0 0"/><path d="m281.496094 316.195312c-4.710938 0-8.53125-3.820312-8.53125-8.53125v-17.066406c0-9.425781-7.640625-17.066406-17.066406-17.066406-9.425782 0-17.066407 7.640625-17.066407 17.066406v17.066406c0 4.710938-3.820312 8.53125-8.535156 8.53125-4.710937 0-8.53125-3.820312-8.53125-8.53125v-17.066406c0-18.851562 15.28125-34.132812 34.132813-34.132812 18.851562 0 34.132812 15.28125 34.132812 34.132812v17.066406c0 4.710938-3.820312 8.53125-8.535156 8.53125zm0 0"/></svg>