<svg height="512pt" viewBox="0 0 512.01754 512" width="512pt" xmlns="http://www.w3.org/2000/svg"><path d="m78.011719 395.035156c-3.15625 4.007813-6.484375 7.933594-9.898438 11.773438-12.605469 13.949218-34.113281 15.082031-48.113281 2.535156-14.003906-12.542969-15.230469-34.046875-2.746094-48.101562 7.550782-8.457032 14.375-17.53125 20.394532-27.136719zm0 0" fill="#ff9801"/><path d="m247.484375 8.558594c-101.273437-.015625-190.675781 66.109375-220.316406 162.949218-29.636719 96.835938 7.445312 201.675782 91.378906 258.34375h.085937l69.117188 48.039063v8.535156c.027344 9.414063 7.652344 17.039063 17.066406 17.066407h145.066406c9.414063-.027344 17.039063-7.652344 17.066407-17.066407v-50.433593c.769531-.511719 1.539062-.9375 2.304687-1.449219 3.753906-2.390625 7.511719-4.863281 11.09375-7.421875.011719.089844.039063.175781.085938.253906 1.058594 2.222656 2.570312 4.199219 4.4375 5.804688.597656.59375 1.28125 1.277343 1.960937 1.875 1.261719 1.097656 2.601563 2.097656 4.011719 2.988281.6875.558593 1.429688 1.046875 2.21875 1.449219.800781.449218 1.625.847656 2.476562 1.195312.6875.335938 1.402344.621094 2.132813.851562 1.109375.429688 2.21875.769532 3.328125 1.109376 2.808594.753906 5.707031 1.125 8.617188 1.109374 9.707031.015626 18.957031-4.113281 25.429687-11.347656 43.410156-48.574218 67.722656-111.246094 68.4375-176.382812 1.023437-76.800782-51.199219-247.46875-256-247.46875zm0 0" fill="#f0c419"/><path d="m503.484375 256.027344c-.714844 65.136718-25.027344 127.808594-68.4375 176.382812-6.472656 7.234375-15.722656 11.363282-25.429687 11.347656-2.910157.015626-5.808594-.355468-8.617188-1.109374-1.109375-.339844-2.21875-.679688-3.328125-1.109376-.730469-.230468-1.445313-.515624-2.132813-.851562-.851562-.347656-1.675781-.746094-2.476562-1.195312-.789062-.402344-1.53125-.890626-2.21875-1.449219-1.410156-.890625-2.75-1.890625-4.011719-2.988281-.679687-.597657-1.363281-1.28125-1.960937-1.875-1.867188-1.605469-3.378906-3.582032-4.4375-5.804688-.046875-.078125-.074219-.164062-.085938-.253906-3.582031 2.558594-7.339844 5.03125-11.09375 7.421875-.765625.511719-1.535156.9375-2.304687 1.449219-20.9375 12.730468-43.785157 22.007812-67.667969 27.480468h-.253906l-.34375-2.648437c-8.613282-20.691407-28.785156-34.207031-51.199219-34.300781h-8.535156c-20.351563.027343-38.761719 12.078124-46.933594 30.71875-.683594 1.617187-1.28125 3.269531-1.789063 4.949218-1.652343 5.039063-2.488281 10.3125-2.476562 15.617188v.082031l-69.117188-48.039063h-.085937c-83.933594-56.667968-121.015625-161.507812-91.378906-258.34375 29.640625-96.839843 119.042969-162.964843 220.316406-162.949218 204.800781 0 257.023437 170.667968 256 247.46875zm0 0" fill="#ffdc00"/><path d="m187.75 178.628906c-.019531 21.667969-16.273438 39.878906-37.796875 42.351563-21.523437 2.472656-41.484375-11.582031-46.417969-32.679688-4.929687-21.097656 6.738282-42.539062 27.128906-49.863281h.085938zm0 0" fill="#f5f5f5"/><path d="m380.347656 427.121094c-3.582031 2.558594-7.339844 5.03125-11.09375 7.421875-13.523437-12.691407-14.46875-33.851563-2.132812-47.699219 26.3125-29.355469 43.144531-65.972656 48.292968-105.054688 1.203126-9.3125 9.132813-16.285156 18.523438-16.292968-2.132812 44.96875-19.703125 87.824218-49.75 121.347656-9.945312 11.140625-11.5 27.453125-3.839844 40.277344zm0 0" fill="#fec108"/><path d="m192.015625 457.242188c-8.148437-18.652344-26.578125-30.703126-46.929687-30.695313h-8.535157c-28.296875.046875-51.207031 23-51.199219 51.296875v8.550781c.019532 9.421875 7.644532 17.0625 17.066407 17.097657h145.066406zm0 0" fill="#3f51b5"/><path d="m366.949219 435.992188v50.433593c-.027344 9.414063-7.652344 17.039063-17.066407 17.066407h-145.066406c-9.414062-.027344-17.039062-7.652344-17.066406-17.066407v-8.617187c-.011719-5.304688.824219-10.578125 2.476562-15.617188.507813-1.679687 1.105469-3.332031 1.789063-4.949218 8.171875-18.640626 26.582031-30.691407 46.933594-30.71875h8.535156c22.414063.09375 42.585937 13.609374 51.199219 34.300781l.597656 2.648437c23.882812-5.472656 46.730469-14.75 67.667969-27.480468zm0 0" fill="#3f51b5"/><path d="m380.433594 427.375c1.300781 2.066406 2.785156 4.007812 4.4375 5.804688-1.867188-1.605469-3.378906-3.582032-4.4375-5.804688zm0 0" fill="#f0c419"/><path d="m366.949219 435.992188v17.066406c-15.941407 9.691406-33.007813 17.394531-50.820313 22.9375-3.960937 1.199218-8.257812.449218-11.578125-2.019532-3.320312-2.46875-5.277343-6.367187-5.269531-10.503906 23.882812-5.472656 46.730469-14.75 67.667969-27.480468zm0 0" fill="#283593"/><path d="m162.101562 179.226562c0-14.140624-11.4375-25.601562-25.550781-25.601562s-25.550781 11.460938-25.550781 25.601562c0 14.136719 11.4375 25.597657 25.550781 25.597657s25.550781-11.460938 25.550781-25.597657zm0 0" fill="#3f51b5"/><path d="m324.285156 178.628906c0 23.5625-19.101562 42.667969-42.667968 42.667969-23.5625 0-42.667969-19.105469-42.667969-42.667969l9.730469-6.828125 25.597656-18.089843 21.675781-15.273438h.085937c16.972657 6.070312 28.28125 22.167969 28.246094 40.191406zm0 0" fill="#f5f5f5"/><path d="m298.597656 179.226562c0 14.089844-11.421875 25.515626-25.511718 25.515626-14.09375 0-25.515626-11.425782-25.515626-25.515626-.027343-2.519531.347657-5.023437 1.109376-7.425781l25.597656-18.089843c13.636718.613281 24.359375 11.867187 24.320312 25.515624zm0 0" fill="#3f51b5"/><path d="m128.125 268.46875c.082031-2.777344 1.515625-5.339844 3.835938-6.863281 2.324218-1.527344 5.246093-1.820313 7.824218-.789063 47.375 18.097656 99.757813 18.097656 147.128906 0 2.582032-1.03125 5.503907-.738281 7.828126.789063 2.320312 1.523437 3.753906 4.085937 3.832031 6.863281 1.074219 30.605469-4.34375 107.007812-85.222657 107.007812-80.878906 0-86.300781-76.402343-85.226562-107.007812zm0 0" fill="#cfd8dc"/><g fill="#f5f5f5"><path d="m295.613281 306.714844c-52.335937 23.4375-112.1875 23.4375-164.523437 0-2.476563-12.582032-3.480469-25.40625-2.996094-38.21875.078125-2.777344 1.503906-5.347656 3.828125-6.875 2.320313-1.53125 5.242187-1.832032 7.828125-.804688 47.402344 18.070313 99.800781 18.070313 147.203125 0 2.585937-1.027344 5.507813-.726562 7.828125.804688 2.320312 1.527344 3.75 4.097656 3.824219 6.875.488281 12.8125-.515625 25.636718-2.992188 38.21875zm0 0"/><path d="m162.152344 170.691406c0 4.714844-3.820313 8.535156-8.535156 8.535156-4.710938 0-8.53125-3.820312-8.53125-8.535156 0-4.710937 3.820312-8.53125 8.53125-8.53125 4.714843 0 8.535156 3.820313 8.535156 8.53125zm0 0"/><path d="m298.683594 170.691406c0 4.714844-3.820313 8.535156-8.53125 8.535156-4.714844 0-8.535156-3.820312-8.535156-8.535156 0-4.710937 3.820312-8.53125 8.535156-8.53125 4.710937 0 8.53125 3.820313 8.53125 8.53125zm0 0"/></g><path d="m503.484375 256.027344c-.714844 65.136718-25.027344 127.808594-68.4375 176.382812-6.472656 7.234375-15.722656 11.363282-25.429687 11.347656-2.910157.015626-5.808594-.355468-8.617188-1.109374-1.109375-.339844-2.21875-.679688-3.328125-1.109376-.304687-.058593-.59375-.175781-.855469-.339843 4.851563-1.878907 9.183594-4.894531 12.628906-8.789063 43.410157-48.574218 67.726563-111.246094 68.4375-176.382812 1.027344-74.925782-48.722656-239.277344-241.492187-247.125 3.667969-.257813 7.339844-.34375 11.09375-.34375 204.800781 0 257.023437 170.667968 256 247.46875zm0 0" fill="#fec108"/><path d="m366.949219 435.992188v50.433593c-.027344 9.414063-7.652344 17.039063-17.066407 17.066407h-25.597656c9.414063-.027344 17.039063-7.652344 17.066406-17.066407v-37.035156c8.808594-3.917969 17.359376-8.394531 25.597657-13.398437zm0 0" fill="#283593"/><path d="m349.882812 512.007812h-145.066406c-14.132812-.015624-25.582031-11.46875-25.597656-25.597656v-8.621094c-.007812-6.207031.972656-12.375 2.898438-18.273437.582031-1.902344 1.257812-3.769531 2.035156-5.601563 9.503906-21.800781 31.015625-35.90625 54.796875-35.9375h8.535156c26.035156.015626 49.460937 15.816407 59.230469 39.949219 1.113281 2.886719.578125 6.15625-1.40625 8.535157-1.980469 2.378906-5.097656 3.496093-8.140625 2.921874-3.042969-.574218-5.535157-2.753906-6.511719-5.691406-7.363281-17.328125-24.34375-28.597656-43.171875-28.648437h-8.535156c-16.964844.015625-32.316407 10.066406-39.121094 25.609375-.542969 1.296875-1.019531 2.625-1.425781 3.972656-1.402344 4.25-2.117188 8.695312-2.117188 13.167969v8.617187c.003906 4.710938 3.820313 8.53125 8.53125 8.535156h145.066406c4.710938-.003906 8.53125-3.824218 8.535157-8.535156v-50.429687c0-4.714844 3.820312-8.535157 8.53125-8.535157 4.714843 0 8.535156 3.820313 8.535156 8.535157v50.429687c-.015625 14.132813-11.46875 25.582032-25.601563 25.597656zm0 0"/><path d="m247.484375 512.007812h-145.066406c-14.140625-.023437-25.59375-11.492187-25.601563-25.632812v-8.550781c.011719-33 26.734375-59.761719 59.734375-59.824219h8.535157c23.753906-.027344 45.261718 14.042969 54.757812 35.816406 1.882812 4.324219-.097656 9.351563-4.417969 11.234375-4.320312 1.882813-9.351562-.09375-11.234375-4.417969-6.78125-15.546874-22.144531-25.589843-39.105468-25.566406h-8.535157c-23.578125.054688-42.664062 19.179688-42.667969 42.757813v8.550781c-.003906 4.71875 3.816407 8.554688 8.535157 8.566406h145.066406c4.710937 0 8.53125 3.820313 8.53125 8.535156 0 4.710938-3.820313 8.53125-8.53125 8.53125zm0 0"/><path d="m42.683594 426.675781c-16.832032.007813-32.097656-9.882812-38.96875-25.25-6.871094-15.367187-4.0625-33.335937 7.167968-45.875 7.226563-8.097656 13.761719-16.789062 19.53125-25.984375 2.496094-3.996094 7.761719-5.210937 11.757813-2.714844 4 2.5 5.214844 7.765626 2.714844 11.761719-6.28125 10.007813-13.390625 19.46875-21.257813 28.285157-9.402344 10.550781-8.523437 26.714843 1.964844 36.191406 10.6875 9 26.535156 8.125 36.167969-1.996094 3.273437-3.683594 6.492187-7.476562 9.546875-11.359375 2.917968-3.703125 8.285156-4.339844 11.988281-1.421875s4.339844 8.285156 1.421875 11.988281c-3.261719 4.132813-6.703125 8.191407-10.226562 12.15625-8.105469 9.039063-19.667969 14.207031-31.808594 14.21875zm0 0"/><path d="m409.617188 452.277344c-16.832032.007812-32.097657-9.882813-38.96875-25.25-6.871094-15.367188-4.0625-33.335938 7.167968-45.875 28.699219-32.09375 45.503906-73.074219 47.597656-116.078125.226563-4.707031 4.222657-8.339844 8.933594-8.117188 4.707032.226563 8.339844 4.226563 8.117188 8.933594-2.289063 46.914063-20.617188 91.613281-51.921875 126.625-9.386719 10.558594-8.496094 26.710937 1.988281 36.175781 10.6875 8.996094 26.53125 8.121094 36.164062-2 42.007813-47.050781 65.546876-107.726562 66.253907-170.796875-1.121094-63.945312-26.054688-125.171875-69.921875-171.710937-43.9375-44.523438-103.675782-67.109375-177.542969-67.109375-97.457031-.011719-183.507813 63.582031-212.105469 156.746093-28.59375 93.167969 6.96875 194.085938 87.65625 248.746094 3.253906 1.984375 4.796875 5.894532 3.773438 9.566406-1.023438 3.671876-4.363282 6.21875-8.175782 6.234376h-.085937c-1.703125 0-3.363281-.507813-4.777344-1.457032-87.039062-58.769531-125.496093-167.488281-94.761719-267.914062 30.738282-100.425782 123.453126-169.00000025 228.476563-168.9882815 78.605469 0 142.421875 24.2929685 189.695313 72.1914065 47.367187 49.601562 74.117187 115.347656 74.835937 183.925781-.765625 67.199219-25.855469 131.84375-70.613281 181.96875-8.105469 9.019531-19.660156 14.171875-31.785156 14.183594zm0 0"/><path d="m299.269531 471.984375c-4.335937-.011719-7.976562-3.273437-8.457031-7.582031-.484375-4.308594 2.339844-8.296875 6.566406-9.269532 22.992188-5.265624 44.988282-14.195312 65.144532-26.453124 4.296874-2.683594 8.679687-5.574219 12.898437-8.550782 3.847656-2.617187 9.085937-1.671875 11.769531 2.128906 2.6875 3.800782 1.832032 9.054688-1.917968 11.804688-4.484376 3.175781-9.152344 6.25-13.808594 9.152344-21.742188 13.234375-45.472656 22.875-70.285156 28.550781-.625.144531-1.265626.21875-1.910157.21875zm0 0"/><path d="m145.085938 229.902344c-24.90625-.039063-46.179688-17.960938-50.445313-42.496094s9.71875-48.585938 33.148437-57.023438c2.613282-.851562 5.480469-.425781 7.734376 1.15625 2.25 1.578126 3.628906 4.128907 3.714843 6.878907.011719 3.835937-2.542969 7.207031-6.238281 8.234375-16.195312 6.089844-25.289062 23.320312-21.171875 40.128906 4.117187 16.804688 20.140625 27.886719 37.320313 25.804688 17.175781-2.082032 30.089843-16.671876 30.070312-33.976563 0-4.714844 3.820312-8.535156 8.53125-8.535156 4.714844 0 8.535156 3.820312 8.535156 8.535156-.007812 28.289063-22.910156 51.234375-51.199218 51.292969zm0 0"/><path d="m187.742188 187.140625c-1.757813 0-3.472657-.542969-4.910157-1.554687l-56.707031-39.980469c-3.195312-2.03125-4.667969-5.921875-3.617188-9.558594 1.046876-3.636719 4.371094-6.144531 8.15625-6.160156 1.785157 0 3.53125.542969 5 1.558593l57.003907 40.191407c3.039062 2.144531 4.339843 6.011719 3.214843 9.558593-1.128906 3.546876-4.421874 5.953126-8.140624 5.949219zm0 0"/><path d="m281.617188 229.902344c-28.289063-.058594-51.195313-23.003906-51.199219-51.292969 0-4.714844 3.820312-8.535156 8.53125-8.535156 4.714843 0 8.535156 3.820312 8.535156 8.535156.019531 17.300781 12.984375 31.851563 30.167969 33.859375 17.183594 2.011719 33.15625-9.15625 37.167968-25.984375 4.011719-16.832031-5.203124-34-21.445312-39.960937-3.515625-1.140626-5.898438-4.410157-5.910156-8.105469.078125-2.753907 1.453125-5.308594 3.707031-6.890625 2.257813-1.582032 5.125-2.007813 7.742187-1.144532 23.429688 8.4375 37.414063 32.488282 33.148438 57.023438s-25.542969 42.460938-50.445312 42.496094zm0 0"/><path d="m238.960938 187.140625c-3.722657.003906-7.015626-2.402344-8.144532-5.949219-1.125-3.546875.175782-7.414062 3.21875-9.558594l57-40.191406c2.578125-1.8125 5.9375-2.0625 8.753906-.648437 2.816407 1.410156 4.628907 4.25 4.71875 7.398437.089844 3.148438-1.558593 6.089844-4.289062 7.660156l-56.347656 39.734376c-1.4375 1.011718-3.152344 1.558593-4.910156 1.554687zm0 0"/><path d="m106.707031 85.433594c7.527344-6.097656 16.679688-9.847656 26.324219-10.78125 9.859375-1.140625 19.851562.285156 28.996094 4.144531 8.988281 3.84375 17.027344 9.613281 23.546875 16.898437 3.125 3.527344 5.953125 7.304688 8.457031 11.300782 2.226562 4.058594 4.195312 8.25 5.902344 12.554687.539062 1.363281.082031 2.921875-1.109375 3.777344-1.1875.859375-2.808594.800781-3.933594-.140625l-.304687-.257812c-3.421876-2.875-6.363282-5.945313-9.371094-8.875-3.296875-2.617188-6.175782-5.59375-9.429688-7.972657-6.148437-4.851562-12.886718-8.902343-20.054687-12.058593-7.164063-2.859376-14.703125-4.667969-22.386719-5.363282-8.234375-.6875-16.515625-.507812-24.714844.539063l-.292968.035156c-.949219.105469-1.851563-.421875-2.230469-1.296875-.375-.875-.132813-1.894531.597656-2.507812zm0 0"/><path d="m318.140625 89.578125c-8.1875-1.113281-16.472656-1.359375-24.710937-.738281-7.6875.636718-15.242188 2.382812-22.429688 5.1875-7.191406 3.09375-13.964844 7.09375-20.148438 11.898437-3.273437 2.351563-6.175781 5.304688-9.492187 7.894531-3.03125 2.902344-6 5.953126-9.445313 8.796876l-.304687.253906c-1.128906.933594-2.75.980468-3.933594.113281-1.179687-.867187-1.625-2.421875-1.078125-3.78125 1.738282-4.292969 3.742188-8.46875 6-12.511719 2.535156-3.972656 5.394532-7.730468 8.546875-11.230468 6.578125-7.234376 14.660157-12.9375 23.679688-16.710938 9.179687-3.785156 19.179687-5.132812 29.03125-3.910156 9.632812 1.007812 18.757812 4.832031 26.234375 10.988281.726562.617187.960937 1.632813.582031 2.503906-.378906.871094-1.28125 1.394531-2.226563 1.285157zm0 0"/><path d="m213.351562 384.007812c-25.933593 1.441407-51.144531-8.855468-68.652343-28.039062-32.613281-37.546875-24.441407-98.574219-24.078125-101.152344.394531-2.765625 2.117187-5.167968 4.613281-6.425781s5.449219-1.210937 7.910156.117187c25.09375 11.734376 52.507813 17.664063 80.207031 17.351563 27.699219.367187 55.121094-5.5625 80.195313-17.34375 2.457031-1.339844 5.414063-1.386719 7.914063-.132813 2.503906 1.257813 4.226562 3.664063 4.617187 6.433594.363281 2.574219 8.535156 63.601563-24.078125 101.148438-17.507812 19.1875-42.714844 29.484375-68.648438 28.042968zm-76.675781-115.230468c-.613281 18.074218 1.109375 53.257812 20.949219 76.039062 14.332031 15.335938 34.777344 23.453125 55.726562 22.125 20.96875 1.332032 41.433594-6.804687 55.765626-22.167968 19.867187-22.875 21.5625-57.976563 20.925781-76-49.382813 18.867187-103.984375 18.867187-153.367188 0zm0 0"/><path d="m213.351562 332.808594c-29.570312.019531-58.804687-6.226563-85.785156-18.328125-4.292968-1.945313-6.199218-7.003907-4.253906-11.296875 1.945312-4.292969 7.003906-6.199219 11.296875-4.253906 50.101563 22.421874 107.382813 22.421874 157.484375 0 2.777344-1.257813 6.015625-.9375 8.492188.835937 2.476562 1.777344 3.820312 4.742187 3.519531 7.777344-.296875 3.035156-2.195313 5.679687-4.972657 6.9375-26.976562 12.101562-56.214843 18.347656-85.78125 18.328125zm0 0"/></svg>