<svg height="512pt" viewBox="0 0 512.01754 512" width="512pt" xmlns="http://www.w3.org/2000/svg"><path d="m78.011719 395.035156c-3.15625 4.007813-6.484375 7.933594-9.898438 11.773438-12.605469 13.949218-34.113281 15.082031-48.113281 2.535156-14.003906-12.542969-15.230469-34.046875-2.746094-48.101562 7.550782-8.457032 14.375-17.53125 20.394532-27.136719zm0 0" fill="#ff9801"/><path d="m247.484375 8.558594c-101.273437-.015625-190.675781 66.109375-220.316406 162.949218-29.636719 96.835938 7.445312 201.675782 91.378906 258.34375h.085937l69.117188 48.039063v8.535156c.027344 9.414063 7.652344 17.039063 17.066406 17.066407h145.066406c9.414063-.027344 17.039063-7.652344 17.066407-17.066407v-50.433593c.769531-.511719 1.539062-.9375 2.304687-1.449219 3.753906-2.390625 7.511719-4.863281 11.09375-7.421875.011719.089844.039063.175781.085938.253906 1.058594 2.222656 2.570312 4.199219 4.4375 5.804688.597656.59375 1.28125 1.277343 1.960937 1.875 1.261719 1.097656 2.601563 2.097656 4.011719 2.988281.6875.558593 1.429688 1.046875 2.21875 1.449219.800781.449218 1.625.847656 2.476562 1.195312.6875.335938 1.402344.621094 2.132813.851562 1.109375.429688 2.21875.769532 3.328125 1.109376 2.808594.753906 5.707031 1.125 8.617188 1.109374 9.707031.015626 18.957031-4.113281 25.429687-11.347656 43.410156-48.574218 67.722656-111.246094 68.4375-176.382812 1.023437-76.800782-51.199219-247.46875-256-247.46875zm0 0" fill="#f0c419"/><path d="m503.484375 256.027344c-.714844 65.136718-25.027344 127.808594-68.4375 176.382812-6.472656 7.234375-15.722656 11.363282-25.429687 11.347656-2.910157.015626-5.808594-.355468-8.617188-1.109374-1.109375-.339844-2.21875-.679688-3.328125-1.109376-.730469-.230468-1.445313-.515624-2.132813-.851562-.851562-.347656-1.675781-.746094-2.476562-1.195312-.789062-.402344-1.53125-.890626-2.21875-1.449219-1.410156-.890625-2.75-1.890625-4.011719-2.988281-.679687-.597657-1.363281-1.28125-1.960937-1.875-1.867188-1.605469-3.378906-3.582032-4.4375-5.804688-.046875-.078125-.074219-.164062-.085938-.253906-3.582031 2.558594-7.339844 5.03125-11.09375 7.421875-.765625.511719-1.535156.9375-2.304687 1.449219-20.9375 12.730468-43.785157 22.007812-67.667969 27.480468h-.253906l-.34375-2.648437c-8.613282-20.691407-28.785156-34.207031-51.199219-34.300781h-8.535156c-20.351563.027343-38.761719 12.078124-46.933594 30.71875-.683594 1.617187-1.28125 3.269531-1.789063 4.949218-1.652343 5.039063-2.488281 10.3125-2.476562 15.617188v.082031l-69.117188-48.039063h-.085937c-83.933594-56.667968-121.015625-161.507812-91.378906-258.34375 29.640625-96.839843 119.042969-162.964843 220.316406-162.949218 204.800781 0 257.023437 170.667968 256 247.46875zm0 0" fill="#ffdc00"/><path d="m380.347656 427.121094c-3.582031 2.558594-7.339844 5.03125-11.09375 7.421875-13.523437-12.691407-14.46875-33.851563-2.132812-47.699219 26.3125-29.355469 43.144531-65.972656 48.292968-105.054688 1.203126-9.3125 9.132813-16.285156 18.523438-16.292968-2.132812 44.96875-19.703125 87.824218-49.75 121.347656-9.945312 11.140625-11.5 27.453125-3.839844 40.277344zm0 0" fill="#fec108"/><path d="m192.015625 457.242188c-8.148437-18.652344-26.578125-30.703126-46.929687-30.695313h-8.535157c-28.296875.046875-51.207031 23-51.199219 51.296875v8.550781c.019532 9.421875 7.644532 17.0625 17.066407 17.097657h145.066406zm0 0" fill="#3f51b5"/><path d="m366.949219 435.992188v50.433593c-.027344 9.414063-7.652344 17.039063-17.066407 17.066407h-145.066406c-9.414062-.027344-17.039062-7.652344-17.066406-17.066407v-8.617187c-.011719-5.304688.824219-10.578125 2.476562-15.617188.507813-1.679687 1.105469-3.332031 1.789063-4.949218 8.171875-18.640626 26.582031-30.691407 46.933594-30.71875h8.535156c22.414063.09375 42.585937 13.609374 51.199219 34.300781l.597656 2.648437c23.882812-5.472656 46.730469-14.75 67.667969-27.480468zm0 0" fill="#3f51b5"/><path d="m380.433594 427.375c1.300781 2.066406 2.785156 4.007812 4.4375 5.804688-1.867188-1.605469-3.378906-3.582032-4.4375-5.804688zm0 0" fill="#f0c419"/><path d="m366.949219 435.992188v17.066406c-15.941407 9.691406-33.007813 17.394531-50.820313 22.9375-3.960937 1.199218-8.257812.449218-11.578125-2.019532-3.320312-2.46875-5.277343-6.367187-5.269531-10.503906 23.882812-5.472656 46.730469-14.75 67.667969-27.480468zm0 0" fill="#283593"/><path d="m181.863281 184.773438-35.15625 47.957031-16.300781-11.691407-32-22.953124c-6.566406-4.714844-10.972656-11.859376-12.238281-19.84375-1.265625-7.980469.710937-16.140626 5.496093-22.652344 9.664063-13.105469 27.816407-16.496094 41.558594-7.765625 2.855469-3.503907 6.476563-6.304688 10.582032-8.191407 10.136718-4.925781 22.152343-3.910156 31.316406 2.644532 6.578125 4.703125 10.996094 11.847656 12.261718 19.835937 1.265626 7.988281-.722656 16.148438-5.519531 22.660157zm0 0" fill="#ef314c"/><path d="m328.292969 198.085938-48.296875 34.644531-14.761719-20.140625-20.394531-27.816406c-4.800782-6.511719-6.789063-14.671876-5.519532-22.660157 1.265626-7.988281 5.683594-15.132812 12.261719-19.835937 13.261719-9.414063 31.539063-6.992188 41.898438 5.546875 10.46875-6.652344 23.898437-6.417969 34.132812.597656.085938.082031 0 .082031 0 .082031 2.890625 1.882813 5.410157 4.28125 7.421875 7.085938 4.785156 6.511718 6.765625 14.671875 5.5 22.652344-1.265625 7.984374-5.675781 15.128906-12.242187 19.84375zm0 0" fill="#ef314c"/><path d="m145.085938 264.542969h136.53125c4.714843 0 8.535156 3.820312 8.535156 8.535156v8.53125c0 42.414063-34.386719 76.800781-76.800782 76.800781-42.417968 0-76.800781-34.386718-76.800781-76.800781v-8.53125c0-4.714844 3.820313-8.535156 8.535157-8.535156zm0 0" fill="#bb193b"/><path d="m288.273438 298.691406c-7.992188 34.945313-39.074219 59.730469-74.921876 59.734375-2.882812.003907-5.757812-.167969-8.621093-.511719 0 0 0 .085938-.082031 0-2.816407-.339843-5.632813-.769531-8.363282-1.367187v-15.1875c.007813-23.5625 19.105469-42.660156 42.664063-42.667969zm0 0" fill="#ad1457"/><path d="m271.207031 298.691406c-7.28125 31.886719-33.964843 55.65625-66.476562 59.222656 0 0 0 .085938-.082031 0-2.816407-.339843-5.632813-.769531-8.363282-1.367187v-15.1875c.007813-23.5625 19.105469-42.660156 42.664063-42.667969zm0 0" fill="#e91e63"/><path d="m181.863281 184.773438-35.15625 47.957031-16.300781-11.691407c4.09375-8.699218 9.007812-16.984374 14.679688-24.746093 21.417968-30.039063 12.714843-47.105469-1.28125-56.660157 10.136718-4.925781 22.152343-3.910156 31.316406 2.644532 6.578125 4.703125 10.996094 11.847656 12.261718 19.835937 1.265626 7.988281-.722656 16.148438-5.519531 22.660157zm0 0" fill="#bb193b"/><path d="m328.292969 198.085938-48.296875 34.644531-14.761719-20.140625c10.605469-6.484375 21.804687-11.941406 33.449219-16.296875 19.34375-7.550781 31.203125-27.148438 28.929687-47.789063 2.890625 1.882813 5.410157 4.28125 7.421875 7.085938 4.785156 6.511718 6.765625 14.671875 5.5 22.652344-1.265625 7.984374-5.675781 15.128906-12.242187 19.84375zm0 0" fill="#bb193b"/><path d="m128.015625 170.691406c0 9.425782-7.640625 17.066406-17.066406 17.066406s-17.066407-7.640624-17.066407-17.066406c0-9.425781 7.640626-17.066406 17.066407-17.066406s17.066406 7.640625 17.066406 17.066406zm0 0" fill="#f5f5f5"/><path d="m281.617188 162.160156c0 9.425782-7.640626 17.066406-17.066407 17.066406s-17.066406-7.640624-17.066406-17.066406c0-9.425781 7.640625-17.066406 17.066406-17.066406s17.066407 7.640625 17.066407 17.066406zm0 0" fill="#f5f5f5"/><path d="m503.484375 256.027344c-.714844 65.136718-25.027344 127.808594-68.4375 176.382812-6.472656 7.234375-15.722656 11.363282-25.429687 11.347656-2.910157.015626-5.808594-.355468-8.617188-1.109374-1.109375-.339844-2.21875-.679688-3.328125-1.109376-.304687-.058593-.59375-.175781-.855469-.339843 4.851563-1.878907 9.183594-4.894531 12.628906-8.789063 43.410157-48.574218 67.726563-111.246094 68.4375-176.382812 1.027344-74.925782-48.722656-239.277344-241.492187-247.125 3.667969-.257813 7.339844-.34375 11.09375-.34375 204.800781 0 257.023437 170.667968 256 247.46875zm0 0" fill="#fec108"/><path d="m366.949219 435.992188v50.433593c-.027344 9.414063-7.652344 17.039063-17.066407 17.066407h-25.597656c9.414063-.027344 17.039063-7.652344 17.066406-17.066407v-37.035156c8.808594-3.917969 17.359376-8.394531 25.597657-13.398437zm0 0" fill="#283593"/><path d="m349.882812 512.007812h-145.066406c-14.132812-.015624-25.582031-11.46875-25.597656-25.597656v-8.621094c-.007812-6.207031.972656-12.375 2.898438-18.273437.582031-1.902344 1.257812-3.769531 2.035156-5.601563 9.503906-21.800781 31.015625-35.90625 54.796875-35.9375h8.535156c26.035156.015626 49.460937 15.816407 59.230469 39.949219 1.113281 2.886719.578125 6.15625-1.40625 8.535157-1.980469 2.378906-5.097656 3.496093-8.140625 2.921874-3.042969-.574218-5.535157-2.753906-6.511719-5.691406-7.363281-17.328125-24.34375-28.597656-43.171875-28.648437h-8.535156c-16.964844.015625-32.316407 10.066406-39.121094 25.609375-.542969 1.296875-1.019531 2.625-1.425781 3.972656-1.402344 4.25-2.117188 8.695312-2.117188 13.167969v8.617187c.003906 4.710938 3.820313 8.53125 8.53125 8.535156h145.066406c4.710938-.003906 8.53125-3.824218 8.535157-8.535156v-50.429687c0-4.714844 3.820312-8.535157 8.53125-8.535157 4.714843 0 8.535156 3.820313 8.535156 8.535157v50.429687c-.015625 14.132813-11.46875 25.582032-25.601563 25.597656zm0 0"/><path d="m247.484375 512.007812h-145.066406c-14.140625-.023437-25.59375-11.492187-25.601563-25.632812v-8.550781c.011719-33 26.734375-59.761719 59.734375-59.824219h8.535157c23.753906-.027344 45.261718 14.042969 54.757812 35.816406 1.882812 4.324219-.097656 9.351563-4.417969 11.234375-4.320312 1.882813-9.351562-.09375-11.234375-4.417969-6.78125-15.546874-22.144531-25.589843-39.105468-25.566406h-8.535157c-23.578125.054688-42.664062 19.179688-42.667969 42.757813v8.550781c-.003906 4.71875 3.816407 8.554688 8.535157 8.566406h145.066406c4.710937 0 8.53125 3.820313 8.53125 8.535156 0 4.710938-3.820313 8.53125-8.53125 8.53125zm0 0"/><path d="m42.683594 426.675781c-16.832032.007813-32.097656-9.882812-38.96875-25.25-6.871094-15.367187-4.0625-33.335937 7.167968-45.875 7.226563-8.097656 13.761719-16.789062 19.53125-25.984375 2.496094-3.996094 7.761719-5.210937 11.757813-2.714844 4 2.5 5.214844 7.765626 2.714844 11.761719-6.28125 10.007813-13.390625 19.46875-21.257813 28.285157-9.402344 10.550781-8.523437 26.714843 1.964844 36.191406 10.6875 9 26.535156 8.125 36.167969-1.996094 3.273437-3.683594 6.492187-7.476562 9.546875-11.359375 2.917968-3.703125 8.285156-4.339844 11.988281-1.421875s4.339844 8.285156 1.421875 11.988281c-3.261719 4.132813-6.703125 8.191407-10.226562 12.15625-8.105469 9.039063-19.667969 14.207031-31.808594 14.21875zm0 0"/><path d="m409.617188 452.277344c-16.832032.007812-32.097657-9.882813-38.96875-25.25-6.871094-15.367188-4.0625-33.335938 7.167968-45.875 28.699219-32.09375 45.503906-73.074219 47.597656-116.078125.226563-4.707031 4.222657-8.339844 8.933594-8.117188 4.707032.226563 8.339844 4.226563 8.117188 8.933594-2.289063 46.914063-20.617188 91.613281-51.921875 126.625-9.386719 10.558594-8.496094 26.710937 1.988281 36.175781 10.6875 9 26.535156 8.121094 36.164062-2 42.007813-47.050781 65.546876-107.726562 66.253907-170.796875-1.121094-63.945312-26.054688-125.171875-69.921875-171.710937-43.9375-44.523438-103.675782-67.109375-177.542969-67.109375-97.457031-.011719-183.507813 63.582031-212.105469 156.746093-28.59375 93.167969 6.96875 194.085938 87.65625 248.746094 3.253906 1.984375 4.796875 5.894532 3.773438 9.566406-1.023438 3.671876-4.363282 6.21875-8.175782 6.234376h-.085937c-1.703125 0-3.363281-.507813-4.777344-1.457032-87.039062-58.769531-125.496093-167.488281-94.761719-267.914062 30.738282-100.425782 123.453126-169.00000025 228.476563-168.9882815 78.605469 0 142.421875 24.2929685 189.695313 72.1914065 47.367187 49.601562 74.117187 115.347656 74.835937 183.925781-.765625 67.199219-25.855469 131.84375-70.613281 181.96875-8.105469 9.019531-19.660156 14.171875-31.785156 14.183594zm0 0"/><path d="m299.269531 471.984375c-4.335937-.011719-7.976562-3.273437-8.457031-7.582031-.484375-4.308594 2.339844-8.296875 6.566406-9.269532 22.992188-5.265624 44.988282-14.195312 65.144532-26.453124 4.296874-2.683594 8.679687-5.574219 12.898437-8.550782 3.847656-2.617187 9.085937-1.671875 11.769531 2.128906 2.6875 3.800782 1.832032 9.054688-1.917968 11.804688-4.484376 3.175781-9.152344 6.25-13.808594 9.152344-21.742188 13.234375-45.472656 22.875-70.285156 28.550781-.625.144531-1.265626.21875-1.910157.21875zm0 0"/><path d="m146.71875 241.261719c-1.785156.003906-3.523438-.554688-4.96875-1.597657l-48.28125-34.640624c-8.433594-6.03125-14.097656-15.1875-15.726562-25.425782-1.628907-10.238281.910156-20.699218 7.054687-29.050781 10.734375-14.566406 29.988281-19.992187 46.75-13.175781 13.816406-11.675782 33.796875-12.492188 48.519531-1.984375 8.4375 6.027343 14.105469 15.183593 15.734375 25.417969 1.632813 10.238281-.910156 20.703124-7.058593 29.050781l-35.132813 47.910156c-1.605469 2.199219-4.167969 3.5-6.890625 3.496094zm-30.070312-89.753907c-7.140626-.011718-13.863282 3.378907-18.09375 9.132813-3.445313 4.671875-4.871094 10.535156-3.960938 16.269531.914062 5.734375 4.089844 10.863282 8.816406 14.238282l41.429688 29.71875 30.140625-41.105469c3.449219-4.675781 4.878906-10.535157 3.96875-16.273438-.914063-5.734375-4.09375-10.867187-8.824219-14.238281-9.582031-6.84375-22.824219-5.113281-30.324219 3.96875-2.734375 3.347656-7.546875 4.109375-11.1875 1.773438-3.574219-2.277344-7.726562-3.484376-11.964843-3.484376zm0 0"/><path d="m279.984375 241.261719c-2.722656.007812-5.285156-1.292969-6.890625-3.488281l-35.140625-47.925782c-6.144531-8.347656-8.6875-18.8125-7.054687-29.046875 1.628906-10.238281 7.296874-19.390625 15.734374-25.417969 14.722657-10.503906 34.699219-9.6875 48.519532 1.984376 16.761718-6.8125 36.007812-1.390626 46.746094 13.175781 6.144531 8.347656 8.6875 18.8125 7.058593 29.050781-1.628906 10.238281-7.296875 19.394531-15.730469 25.425781l-48.28125 34.644531c-1.441406 1.042969-3.179687 1.601563-4.960937 1.597657zm-10.386719-96.1875c-4.671875-.007813-9.226562 1.453125-13.023437 4.175781-4.726563 3.371094-7.90625 8.496094-8.820313 14.234375-.914062 5.734375.515625 11.59375 3.964844 16.265625l30.144531 41.117188 41.421875-29.714844c4.730469-3.371094 7.90625-8.5 8.820313-14.238282.914062-5.734374-.515625-11.597656-3.964844-16.269531-6.984375-9.480469-20.105469-11.949219-30.054687-5.652343-3.636719 2.339843-8.449219 1.574218-11.183594-1.777344-4.257813-5.167969-10.609375-8.15625-17.304688-8.140625zm0 0"/><path d="m86.792969 120.144531c3.035156-10.285156 8.695312-19.605469 16.425781-27.039062 8.003906-7.992188 18.230469-13.382813 29.347656-15.46875 2.792969-.636719 5.648438-.9375 8.511719-.90625 2.835937-.257813 5.691406-.125 8.492187.390625 2.777344.480468 5.582032.855468 8.289063 1.472656l7.742187 2.878906c2.5625.878906 4.996094 2.09375 7.238282 3.613282 2.28125 1.40625 4.585937 2.730468 6.785156 4.195312 4.070312 3.261719 7.941406 6.761719 11.589844 10.488281 1.046875 1.058594 1.21875 2.699219.414062 3.953125-.804687 1.25-2.367187 1.777344-3.765625 1.269532l-.429687-.15625c-4.699219-1.714844-8.992188-3.828126-13.308594-5.6875-4.519531-1.269532-8.707031-3.371094-13.101562-4.15625-8.265626-2.28125-16.9375-2.679688-25.378907-1.167969-8.4375 1.746093-16.4375 5.179687-23.511719 10.09375-7.738281 5.390625-14.964843 11.480469-21.589843 18.195312l-.148438.144531c-.695312.691407-1.769531.824219-2.613281.328126-.84375-.496094-1.25-1.5-.988281-2.441407zm0 0"/><path d="m237.515625 102.164062c6.296875-8.691406 14.765625-15.578124 24.558594-19.96875 20.957031-10.019531 45.925781-6.054687 62.75 9.960938 7.820312 7.199219 13.933593 16.058594 17.882812 25.929688.664063 1.65625-.144531 3.535156-1.800781 4.199218-1.191406.464844-2.546875.191406-3.464844-.699218-6.601562-6.726563-13.796875-12.835938-21.503906-18.257813-7.035156-4.917969-15.074219-8.210937-23.539062-9.640625-8.550782-1.128906-17.238282-.554688-25.5625 1.6875-9.113282 2.460938-17.96875 5.777344-26.453126 9.90625l-.1875.082031c-.886718.417969-1.941406.1875-2.574218-.566406-.628906-.75-.671875-1.832031-.105469-2.632813zm0 0"/><path d="m213.351562 366.941406c-47.105468-.054687-85.28125-38.226562-85.335937-85.332031v-8.535156c.011719-9.421875 7.648437-17.054688 17.070313-17.066407h136.53125c9.421874.011719 17.054687 7.644532 17.066406 17.066407v8.535156c-.054688 47.105469-38.226563 85.277344-85.332032 85.332031zm-68.265624-93.867187v8.535156c0 37.703125 30.5625 68.265625 68.265624 68.265625 37.703126 0 68.265626-30.5625 68.265626-68.265625v-8.535156zm0 0"/><path d="m196.285156 365.066406c-4.714844 0-8.535156-3.820312-8.535156-8.53125v-15.191406c.03125-28.261719 22.9375-51.167969 51.199219-51.199219h49.324219c4.714843 0 8.535156 3.820313 8.535156 8.535157 0 4.710937-3.820313 8.53125-8.535156 8.53125h-49.324219c-18.839844.019531-34.113281 15.289062-34.132813 34.132812v15.191406c0 4.710938-3.820312 8.53125-8.53125 8.53125zm0 0"/></svg>