<svg height="512pt" viewBox="0 0 512.01754 512" width="512pt" xmlns="http://www.w3.org/2000/svg"><path d="m78.011719 395.035156c-3.15625 4.007813-6.484375 7.933594-9.898438 11.773438-12.605469 13.949218-34.113281 15.082031-48.113281 2.535156-14.003906-12.542969-15.230469-34.046875-2.746094-48.101562 7.550782-8.457032 14.375-17.53125 20.394532-27.136719zm0 0" fill="#ff9801"/><path d="m247.484375 8.558594c-101.273437-.015625-190.675781 66.109375-220.316406 162.949218-29.636719 96.835938 7.445312 201.675782 91.378906 258.34375h.085937l69.117188 48.039063v8.535156c.027344 9.414063 7.652344 17.039063 17.066406 17.066407h145.066406c9.414063-.027344 17.039063-7.652344 17.066407-17.066407v-50.433593c.769531-.511719 1.539062-.9375 2.304687-1.449219 3.753906-2.390625 7.511719-4.863281 11.09375-7.421875.011719.089844.039063.175781.085938.253906 1.058594 2.222656 2.570312 4.199219 4.4375 5.804688.597656.59375 1.28125 1.277343 1.960937 1.875 1.261719 1.097656 2.601563 2.097656 4.011719 2.988281.6875.558593 1.429688 1.046875 2.21875 1.449219.800781.449218 1.625.847656 2.476562 1.195312.6875.335938 1.402344.621094 2.132813.851562 1.109375.429688 2.21875.769532 3.328125 1.109376 2.808594.753906 5.707031 1.125 8.617188 1.109374 9.707031.015626 18.957031-4.113281 25.429687-11.347656 43.410156-48.574218 67.722656-111.246094 68.4375-176.382812 1.023437-76.800782-51.199219-247.46875-256-247.46875zm0 0" fill="#f0c419"/><path d="m503.484375 256.027344c-.714844 65.136718-25.027344 127.808594-68.4375 176.382812-6.472656 7.234375-15.722656 11.363282-25.429687 11.347656-2.910157.015626-5.808594-.355468-8.617188-1.109374-1.109375-.339844-2.21875-.679688-3.328125-1.109376-.730469-.230468-1.445313-.515624-2.132813-.851562-.851562-.347656-1.675781-.746094-2.476562-1.195312-.789062-.402344-1.53125-.890626-2.21875-1.449219-1.410156-.890625-2.75-1.890625-4.011719-2.988281-.679687-.597657-1.363281-1.28125-1.960937-1.875-1.867188-1.605469-3.378906-3.582032-4.4375-5.804688-.046875-.078125-.074219-.164062-.085938-.253906-3.582031 2.558594-7.339844 5.03125-11.09375 7.421875-.765625.511719-1.535156.9375-2.304687 1.449219-20.9375 12.730468-43.785157 22.007812-67.667969 27.480468h-.253906l-.34375-2.648437c-8.613282-20.691407-28.785156-34.207031-51.199219-34.300781h-8.535156c-20.351563.027343-38.761719 12.078124-46.933594 30.71875-.683594 1.617187-1.28125 3.269531-1.789063 4.949218-1.652343 5.039063-2.488281 10.3125-2.476562 15.617188v.082031l-69.117188-48.039063h-.085937c-83.933594-56.667968-121.015625-161.507812-91.378906-258.34375 29.640625-96.839843 119.042969-162.964843 220.316406-162.949218 204.800781 0 257.023437 170.667968 256 247.46875zm0 0" fill="#ffdc00"/><path d="m380.347656 427.121094c-3.582031 2.558594-7.339844 5.03125-11.09375 7.421875-13.523437-12.691407-14.46875-33.851563-2.132812-47.699219 26.3125-29.355469 43.144531-65.972656 48.292968-105.054688 1.203126-9.3125 9.132813-16.285156 18.523438-16.292968-2.132812 44.96875-19.703125 87.824218-49.75 121.347656-9.945312 11.140625-11.5 27.453125-3.839844 40.277344zm0 0" fill="#fec108"/><path d="m192.015625 457.242188c-8.148437-18.652344-26.578125-30.703126-46.929687-30.695313h-8.535157c-28.296875.046875-51.207031 23-51.199219 51.296875v8.550781c.019532 9.421875 7.644532 17.0625 17.066407 17.097657h145.066406zm0 0" fill="#3f51b5"/><path d="m366.949219 435.992188v50.433593c-.027344 9.414063-7.652344 17.039063-17.066407 17.066407h-145.066406c-9.414062-.027344-17.039062-7.652344-17.066406-17.066407v-8.617187c-.011719-5.304688.824219-10.578125 2.476562-15.617188.507813-1.679687 1.105469-3.332031 1.789063-4.949218 8.171875-18.640626 26.582031-30.691407 46.933594-30.71875h8.535156c22.414063.09375 42.585937 13.609374 51.199219 34.300781l.597656 2.648437c23.882812-5.472656 46.730469-14.75 67.667969-27.480468zm0 0" fill="#3f51b5"/><path d="m380.433594 427.375c1.300781 2.066406 2.785156 4.007812 4.4375 5.804688-1.867188-1.605469-3.378906-3.582032-4.4375-5.804688zm0 0" fill="#f0c419"/><path d="m366.949219 435.992188v17.066406c-15.941407 9.691406-33.007813 17.394531-50.820313 22.9375-3.960937 1.199218-8.257812.449218-11.578125-2.019532-3.320312-2.46875-5.277343-6.367187-5.269531-10.503906 23.882812-5.472656 46.730469-14.75 67.667969-27.480468zm0 0" fill="#283593"/><path d="m154.898438 137.738281c17.339843 4.132813 30.273437 18.628907 32.414062 36.324219 2.136719 17.699219-6.96875 34.859375-22.824219 43.007812-15.855469 8.144532-35.109375 5.558594-48.25-6.484374-13.144531-12.042969-17.398437-31-10.664062-47.503907zm0 0" fill="#f5f5f5"/><path d="m162.132812 187.726562c0-14.15625-11.453124-25.632812-25.582031-25.632812-14.128906 0-25.582031 11.476562-25.582031 25.632812s11.453125 25.632813 25.582031 25.632813c14.128907 0 25.582031-11.476563 25.582031-25.632813zm0 0" fill="#3f51b5"/><path d="m321.125 163.082031c8.089844 19.792969.277344 42.515625-18.269531 53.152344-18.542969 10.640625-42.101563 5.910156-55.105469-11.0625-13.003906-16.96875-11.4375-40.945313 3.660156-56.085937 5.589844-5.628907 12.660156-9.5625 20.394532-11.347657zm0 0" fill="#f5f5f5"/><path d="m298.683594 187.726562c-.011719 12.222657-8.65625 22.734376-20.644532 25.109376-11.992187 2.375-23.988281-4.046876-28.660156-15.34375-4.667968-11.296876-.710937-24.316407 9.457032-31.101563 10.167968-6.785156 23.710937-5.445313 32.351562 3.199219 4.808594 4.808594 7.507812 11.335937 7.496094 18.136718zm0 0" fill="#3f51b5"/><path d="m162.152344 179.226562c0 4.710938-3.820313 8.53125-8.535156 8.53125-4.710938 0-8.53125-3.820312-8.53125-8.53125 0-4.714843 3.820312-8.535156 8.53125-8.535156 4.714843 0 8.535156 3.820313 8.535156 8.535156zm0 0" fill="#f5f5f5"/><path d="m298.683594 179.226562c0 4.710938-3.820313 8.53125-8.53125 8.53125-4.714844 0-8.535156-3.820312-8.535156-8.53125 0-4.714843 3.820312-8.535156 8.535156-8.535156 4.710937 0 8.53125 3.820313 8.53125 8.535156zm0 0" fill="#f5f5f5"/><path d="m503.484375 256.027344c-.714844 65.136718-25.027344 127.808594-68.4375 176.382812-6.472656 7.234375-15.722656 11.363282-25.429687 11.347656-2.910157.015626-5.808594-.355468-8.617188-1.109374-1.109375-.339844-2.21875-.679688-3.328125-1.109376-.304687-.058593-.59375-.175781-.855469-.339843 4.851563-1.878907 9.183594-4.894531 12.628906-8.789063 43.410157-48.574218 67.726563-111.246094 68.4375-176.382812 1.027344-74.925782-48.722656-239.277344-241.492187-247.125 3.667969-.257813 7.339844-.34375 11.09375-.34375 204.800781 0 257.023437 170.667968 256 247.46875zm0 0" fill="#fec108"/><path d="m366.949219 435.992188v50.433593c-.027344 9.414063-7.652344 17.039063-17.066407 17.066407h-25.597656c9.414063-.027344 17.039063-7.652344 17.066406-17.066407v-37.035156c8.808594-3.917969 17.359376-8.394531 25.597657-13.398437zm0 0" fill="#283593"/><path d="m349.882812 512.007812h-145.066406c-14.132812-.015624-25.582031-11.46875-25.597656-25.597656v-8.621094c-.007812-6.207031.972656-12.375 2.898438-18.273437.582031-1.902344 1.257812-3.769531 2.035156-5.601563 9.503906-21.800781 31.015625-35.90625 54.796875-35.9375h8.535156c26.035156.015626 49.460937 15.816407 59.230469 39.949219 1.113281 2.886719.578125 6.15625-1.40625 8.535157-1.980469 2.378906-5.097656 3.496093-8.140625 2.921874-3.042969-.574218-5.535157-2.753906-6.511719-5.691406-7.363281-17.328125-24.34375-28.597656-43.171875-28.648437h-8.535156c-16.964844.015625-32.316407 10.066406-39.121094 25.609375-.542969 1.296875-1.019531 2.625-1.425781 3.972656-1.402344 4.25-2.117188 8.695312-2.117188 13.167969v8.617187c.003906 4.710938 3.820313 8.53125 8.53125 8.535156h145.066406c4.710938-.003906 8.53125-3.824218 8.535157-8.535156v-50.429687c0-4.714844 3.820312-8.535157 8.53125-8.535157 4.714843 0 8.535156 3.820313 8.535156 8.535157v50.429687c-.015625 14.132813-11.46875 25.582032-25.601563 25.597656zm0 0"/><path d="m247.484375 512.007812h-145.066406c-14.140625-.023437-25.59375-11.492187-25.601563-25.632812v-8.550781c.011719-33 26.734375-59.761719 59.734375-59.824219h8.535157c23.753906-.027344 45.261718 14.042969 54.757812 35.816406 1.882812 4.324219-.097656 9.351563-4.417969 11.234375-4.320312 1.882813-9.351562-.09375-11.234375-4.417969-6.78125-15.546874-22.144531-25.589843-39.105468-25.566406h-8.535157c-23.578125.054688-42.664062 19.179688-42.667969 42.757813v8.550781c-.003906 4.71875 3.816407 8.554688 8.535157 8.566406h145.066406c4.710937 0 8.53125 3.820313 8.53125 8.535156 0 4.710938-3.820313 8.53125-8.53125 8.53125zm0 0"/><path d="m42.683594 426.675781c-16.832032.007813-32.097656-9.882812-38.96875-25.25-6.871094-15.367187-4.0625-33.335937 7.167968-45.875 7.226563-8.097656 13.761719-16.789062 19.53125-25.984375 2.496094-3.996094 7.761719-5.210937 11.757813-2.714844 4 2.5 5.214844 7.765626 2.714844 11.761719-6.28125 10.007813-13.390625 19.46875-21.257813 28.285157-9.402344 10.550781-8.523437 26.714843 1.964844 36.191406 10.6875 9 26.535156 8.125 36.167969-1.996094 3.273437-3.683594 6.492187-7.476562 9.546875-11.359375 2.917968-3.703125 8.285156-4.339844 11.988281-1.421875s4.339844 8.285156 1.421875 11.988281c-3.261719 4.132813-6.703125 8.191407-10.226562 12.15625-8.105469 9.039063-19.667969 14.207031-31.808594 14.21875zm0 0"/><path d="m409.617188 452.277344c-16.832032.007812-32.097657-9.882813-38.96875-25.25-6.871094-15.367188-4.0625-33.335938 7.167968-45.875 28.699219-32.09375 45.503906-73.074219 47.597656-116.078125.226563-4.707031 4.222657-8.339844 8.933594-8.117188 4.707032.226563 8.339844 4.226563 8.117188 8.933594-2.289063 46.914063-20.617188 91.613281-51.921875 126.625-9.386719 10.558594-8.496094 26.710937 1.988281 36.175781 10.6875 8.996094 26.53125 8.121094 36.164062-2 42.007813-47.050781 65.546876-107.726562 66.253907-170.796875-1.121094-63.945312-26.054688-125.171875-69.921875-171.710937-43.9375-44.523438-103.675782-67.109375-177.542969-67.109375-97.457031-.011719-183.507813 63.582031-212.105469 156.746093-28.59375 93.167969 6.96875 194.085938 87.65625 248.746094 3.253906 1.984375 4.796875 5.894532 3.773438 9.566406-1.023438 3.671876-4.363282 6.21875-8.175782 6.234376h-.085937c-1.703125 0-3.363281-.507813-4.777344-1.457032-87.039062-58.769531-125.496093-167.488281-94.761719-267.914062 30.738282-100.425782 123.453126-169.00000025 228.476563-168.9882815 78.605469 0 142.421875 24.2929685 189.695313 72.1914065 47.367187 49.601562 74.117187 115.347656 74.835937 183.925781-.765625 67.199219-25.855469 131.84375-70.613281 181.96875-8.105469 9.019531-19.660156 14.171875-31.785156 14.183594zm0 0"/><path d="m299.269531 471.984375c-4.335937-.011719-7.976562-3.273437-8.457031-7.582031-.484375-4.308594 2.339844-8.296875 6.566406-9.269532 22.992188-5.265624 44.988282-14.195312 65.144532-26.453124 4.296874-2.683594 8.679687-5.574219 12.898437-8.550782 3.847656-2.617187 9.085937-1.671875 11.769531 2.128906 2.6875 3.800782 1.832032 9.054688-1.917968 11.804688-4.484376 3.175781-9.152344 6.25-13.808594 9.152344-21.742188 13.234375-45.472656 22.875-70.285156 28.550781-.625.144531-1.265626.21875-1.910157.21875zm0 0"/><path d="m145.085938 230.585938c-28.292969-.058594-51.195313-23.003907-51.203126-51.292969-.027343-6.679688 1.265626-13.296875 3.808594-19.476563 1.828125-4.316406 6.796875-6.351562 11.125-4.554687 4.332032 1.792969 6.402344 6.746093 4.640625 11.089843-1.679687 4.105469-2.53125 8.503907-2.507812 12.941407 0 12.195312 6.507812 23.460937 17.066406 29.558593 10.5625 6.097657 23.574219 6.097657 34.136719 0 10.558594-6.097656 17.066406-17.363281 17.066406-29.558593.113281-15.859375-10.792969-29.671875-26.242188-33.242188-4.59375-1.058593-7.457031-5.644531-6.398437-10.238281 1.0625-4.589844 5.644531-7.457031 10.238281-6.394531 25.304688 5.988281 42.117188 29.96875 39.125 55.800781-2.996094 25.828125-24.855468 45.328125-50.855468 45.367188zm0 0"/><path d="m281.617188 230.585938c-13.605469.027343-26.65625-5.394532-36.242188-15.050782-9.5625-9.640625-14.9375-22.664062-14.957031-36.242187-.0625-23.792969 16.3125-44.476563 39.488281-49.875 3-.761719 6.179688.164062 8.304688 2.417969 2.125 2.25 2.859374 5.480468 1.925781 8.429687-.933594 2.953125-3.398438 5.167969-6.429688 5.785156-15.410156 3.632813-26.28125 17.410157-26.222656 33.242188.003906 9.054687 3.585937 17.742187 9.957031 24.175781 13.507813 12.964844 34.84375 12.964844 48.351563 0 9.6875-9.789062 12.609375-24.40625 7.429687-37.167969-1.777344-4.363281.320313-9.34375 4.6875-11.121093 4.363282-1.777344 9.34375.320312 11.121094 4.6875 6.472656 15.808593 4.648438 33.804687-4.863281 47.992187-9.515625 14.1875-25.46875 22.710937-42.550781 22.726563zm0 0"/><path d="m181.398438 68.964844c-1.125 9.378906-4.996094 18.21875-11.121094 25.410156-6.09375 7.441406-13.914063 13.277344-22.785156 17-8.753907 3.613281-18.160157 5.378906-27.628907 5.183594-4.578125-.113282-9.144531-.601563-13.644531-1.460938-4.378906-1.078125-8.683594-2.441406-12.886719-4.070312-1.359375-.53125-2.191406-1.914063-2.023437-3.363282.167968-1.453124 1.292968-2.605468 2.742187-2.8125l.386719-.050781c4.316406-.597656 8.460938-.707031 12.546875-.976562 4.050781-.636719 8.082031-.753907 11.949219-1.507813 7.570312-1.199218 14.980468-3.246094 22.09375-6.097656 6.902344-3.058594 13.382812-6.988281 19.285156-11.691406 6.257812-5.054688 11.984375-10.730469 17.09375-16.941406l.191406-.230469c.609375-.726563 1.621094-.96875 2.496094-.601563.871094.371094 1.402344 1.265625 1.308594 2.210938zm0 0"/><path d="m249.484375 67.585938c5.109375 6.214843 10.835937 11.890624 17.09375 16.945312 5.902344 4.703125 12.382813 8.632812 19.28125 11.6875 7.113281 2.855469 14.523437 4.902344 22.09375 6.097656 3.867187.753906 7.898437.875 11.953125 1.511719 4.082031.269531 8.222656.375 12.542969.972656l.382812.054688c1.449219.203125 2.578125 1.355469 2.746094 2.808593.171875 1.453126-.660156 2.835938-2.023437 3.363282-4.203126 1.632812-8.507813 2.992187-12.886719 4.074218-4.5.855469-9.0625 1.347657-13.644531 1.460938-9.46875.195312-18.875-1.570312-27.628907-5.183594-8.867187-3.722656-16.691406-9.558594-22.78125-17-6.128906-7.191406-9.996093-16.03125-11.125-25.410156-.09375-.941406.433594-1.835938 1.304688-2.207031.871093-.371094 1.878906-.136719 2.496093.585937zm0 0"/><path d="m112.445312 172.269531c-8.460937.144531-16.761718-2.332031-23.765624-7.085937-3.753907-2.851563-4.484376-8.203125-1.632813-11.957032 2.851563-3.753906 8.203125-4.484374 11.957031-1.632812 9.125 5.1875 20.339844 5.042969 29.320313-.382812 10.675781-4.574219 18.75-13.679688 22.007812-24.824219.953125-4.585938 5.394531-7.566407 9.996094-6.710938 4.589844.871094 7.613281 5.28125 6.773437 9.875-4.246093 16.476563-15.785156 30.109375-31.335937 37.015625-7.234375 3.65625-15.210937 5.605469-23.320313 5.703125zm0 0"/><path d="m314.253906 172.269531c-8.101562-.097656-16.078125-2.042969-23.316406-5.695312-15.546875-6.910157-27.089844-20.546875-31.335938-37.023438-.609374-3.023437.460938-6.136719 2.796876-8.152343 2.335937-2.011719 5.578124-2.605469 8.476562-1.554688s5.003906 3.582031 5.511719 6.625c3.28125 11.109375 11.34375 20.179688 21.992187 24.746094 8.957032 5.390625 20.117188 5.554687 29.230469.433594 3.738281-2.875 9.097656-2.175782 11.972656 1.5625 2.875 3.734374 2.175781 9.09375-1.5625 11.96875-7 4.753906-15.300781 7.230468-23.765625 7.089843zm0 0"/><path d="m281.617188 315.742188c-4.710938 0-8.53125-3.820313-8.53125-8.535157-.015626-14.128906-11.46875-25.582031-25.601563-25.597656h-68.265625c-14.132812.015625-25.585938 11.46875-25.601562 25.597656 0 4.714844-3.820313 8.535157-8.53125 8.535157-4.714844 0-8.535157-3.820313-8.535157-8.535157.027344-23.550781 19.113281-42.636719 42.667969-42.664062h68.265625c23.550781.027343 42.640625 19.113281 42.667969 42.664062 0 4.714844-3.820313 8.535157-8.535156 8.535157zm0 0"/><path d="m213.351562 315.742188h-8.535156c-4.710937 0-8.53125-3.820313-8.53125-8.535157 0-4.710937 3.820313-8.53125 8.53125-8.53125h8.535156c4.710938 0 8.53125 3.820313 8.53125 8.53125 0 4.714844-3.820312 8.535157-8.53125 8.535157zm0 0"/></svg>