<svg height="512pt" viewBox="0 0 512.01888 512" width="512pt" xmlns="http://www.w3.org/2000/svg"><path d="m78.011719 395.035156c-3.15625 4.011719-6.484375 7.933594-9.898438 11.773438-12.605469 13.949218-34.113281 15.082031-48.113281 2.539062-14-12.546875-15.226562-34.050781-2.742188-48.105468 7.546876-8.453126 14.371094-17.53125 20.394532-27.136719zm0 0" fill="#ff9801"/><path d="m503.484375 256.027344c-.710937 65.140625-25.027344 127.808594-68.4375 176.382812-6.46875 7.234375-15.722656 11.363282-25.429687 11.351563-2.90625.011719-5.804688-.359375-8.617188-1.109375-1.109375-.34375-2.21875-.683594-3.328125-1.109375-.730469-.234375-1.445313-.519531-2.132813-.855469-.847656-.347656-1.675781-.746094-2.476562-1.195312-.789062-.402344-1.53125-.886719-2.21875-1.449219-1.410156-.890625-2.75-1.890625-4.007812-2.988281-.683594-.597657-1.367188-1.277344-1.964844-1.875-1.867188-1.605469-3.378906-3.582032-4.4375-5.804688-.042969-.078125-.074219-.164062-.085938-.253906-3.582031 2.558594-7.335937 5.035156-11.089844 7.421875-.769531.511719-1.539062.941406-2.304687 1.453125v50.429687c-.027344 9.414063-7.652344 17.039063-17.066406 17.066407h-145.066407c-9.414062-.027344-17.039062-7.652344-17.066406-17.066407v-8.53125l-69.121094-48.042969h-.085937c-18.734375-12.628906-35.496094-27.953124-49.75-45.484374-3.839844-4.691407-7.421875-9.472657-10.921875-14.421876-24.914062-35.929687-39.007812-78.246093-40.617188-121.941406-.085937-2.984375-.171874-5.972656-.171874-9.042968 0-2.988282.085937-5.972657.253906-8.960938 4.757812-123.660156 106.394531-221.453125 230.144531-221.441406 162.476563 0 228.949219 107.4375 248.917969 190.210937 1.453125 5.800781 2.558594 11.433594 3.585937 16.894531 2.375 13.320313 3.546875 26.832032 3.496094 40.363282zm0 0" fill="#f0c419"/><path d="m503.484375 256.027344c-.710937 65.140625-25.027344 127.808594-68.4375 176.382812-6.46875 7.234375-15.722656 11.363282-25.429687 11.351563-2.90625.011719-5.804688-.359375-8.617188-1.109375-1.109375-.34375-2.21875-.683594-3.328125-1.109375-.730469-.234375-1.445313-.519531-2.132813-.855469-.847656-.347656-1.675781-.746094-2.476562-1.195312-.789062-.402344-1.53125-.886719-2.21875-1.449219-1.410156-.890625-2.75-1.890625-4.007812-2.988281-.683594-.597657-1.367188-1.277344-1.964844-1.875-1.867188-1.605469-3.378906-3.582032-4.4375-5.804688-.042969-.078125-.074219-.164062-.085938-.253906-3.582031 2.558594-7.335937 5.035156-11.089844 7.421875-.769531.511719-1.539062.941406-2.304687 1.453125-20.9375 12.726562-43.785156 22.003906-67.671875 27.476562h-.253906l-.339844-2.644531c-8.617188-20.695313-28.789062-34.210937-51.203125-34.304687h-8.53125c-20.351563.027343-38.765625 12.078124-46.933594 30.71875-.6875 1.617187-1.285156 3.269531-1.792969 4.949218-1.648437 5.042969-2.484374 10.3125-2.472656 15.617188v.085937l-69.121094-48.042969h-.085937c-18.734375-12.628906-35.496094-27.953124-49.75-45.484374-3.839844-4.691407-7.421875-9.472657-10.921875-14.421876-24.914062-35.929687-39.007812-78.246093-40.617188-121.941406-.085937-2.984375-.171874-5.972656-.171874-9.042968 0-2.988282.085937-5.972657.253906-8.960938 4.757812-123.660156 106.394531-221.453125 230.144531-221.441406 162.476563 0 228.949219 107.4375 248.917969 190.210937 1.453125 5.800781 2.558594 11.433594 3.585937 16.894531 2.375 13.320313 3.546875 26.832032 3.496094 40.363282zm0 0" fill="#ffdc00"/><path d="m433.9375 265.5c-1.074219 22.308594-5.953125 44.269531-14.421875 64.9375-6.992187 17.179688-16.449219 33.246094-28.074219 47.699219-2.300781 2.988281-4.691406 5.890625-7.25 8.707031-1.375 1.582031-2.628906 3.265625-3.757812 5.035156-6.554688 10.824219-6.585938 24.382813-.085938 35.242188-3.582031 2.558594-7.335937 5.035156-11.089844 7.421875-13.367187-12.546875-14.457031-33.398438-2.476562-47.273438.085938-.171875.257812-.257812.339844-.425781 3.925781-4.4375 7.683594-8.960938 11.179687-13.738281 20.007813-26.746094 32.792969-58.191407 37.121094-91.308594 1.199219-9.3125 9.125-16.289063 18.515625-16.296875zm0 0" fill="#fec108"/><path d="m192.019531 457.242188c-8.152343-18.652344-26.578125-30.703126-46.933593-30.695313h-8.535157c-28.292969.046875-51.207031 23.003906-51.199219 51.296875v8.550781c.019532 9.421875 7.644532 17.0625 17.066407 17.097657h145.066406zm0 0" fill="#3f51b5"/><path d="m366.953125 435.996094v50.429687c-.027344 9.414063-7.652344 17.039063-17.066406 17.066407h-145.066407c-9.414062-.027344-17.039062-7.652344-17.066406-17.066407v-8.617187c-.011718-5.304688.824219-10.574219 2.472656-15.617188.507813-1.679687 1.105469-3.332031 1.792969-4.949218 8.167969-18.640626 26.582031-30.691407 46.933594-30.71875h8.53125c22.414063.09375 42.585937 13.609374 51.203125 34.304687l.59375 2.644531c23.886719-5.472656 46.734375-14.75 67.671875-27.476562zm0 0" fill="#3f51b5"/><path d="m380.433594 427.375c1.300781 2.066406 2.785156 4.007812 4.4375 5.804688-1.867188-1.605469-3.378906-3.582032-4.4375-5.804688zm0 0" fill="#f0c419"/><path d="m366.953125 435.996094v17.066406c-15.945313 9.6875-33.011719 17.390625-50.824219 22.933594-3.960937 1.199218-8.253906.449218-11.578125-2.019532-3.320312-2.46875-5.273437-6.367187-5.269531-10.503906 23.886719-5.472656 46.734375-14.75 67.671875-27.476562zm0 0" fill="#283593"/><path d="m172.902344 211.636719c13.53125-11.632813 18.390625-30.457031 12.1875-47.183594-6.203125-16.730469-22.160156-27.832031-40.003906-27.832031s-33.800782 11.101562-40.003907 27.832031c-6.203125 16.726563-1.34375 35.550781 12.183594 47.183594zm0 0" fill="#f5f5f5"/><path d="m162.136719 179.195312c0-14.15625-11.453125-25.632812-25.585938-25.632812-14.128906 0-25.582031 11.476562-25.582031 25.632812s11.453125 25.632813 25.582031 25.632813c14.132813 0 25.585938-11.476563 25.585938-25.632813zm0 0" fill="#3f51b5"/><path d="m309.4375 211.636719c.855469-.640625 1.65625-1.355469 2.390625-2.132813 16.628906-16.671875 16.605469-43.667968-.050781-60.316406-16.660156-16.644531-43.65625-16.644531-60.316406 0-16.660157 16.648438-16.679688 43.644531-.050782 60.316406.734375.777344 1.535156 1.492188 2.390625 2.132813zm0 0" fill="#f5f5f5"/><path d="m298.667969 179.195312c-.011719 12.214844-8.648438 22.71875-20.632813 25.09375-11.980468 2.375-23.972656-4.046874-28.636718-15.335937-4.667969-11.289063-.710938-24.300781 9.449218-31.082031s23.695313-5.441406 32.328125 3.199218c4.808594 4.804688 7.503907 11.328126 7.492188 18.125zm0 0" fill="#3f51b5"/><path d="m213.351562 264.542969c42.417969 0 76.800782 34.386719 76.800782 76.800781v8.535156c0 4.710938-3.820313 8.53125-8.535156 8.53125h-136.53125c-4.714844 0-8.535157-3.820312-8.535157-8.53125v-8.535156c0-42.414062 34.386719-76.800781 76.800781-76.800781zm0 0" fill="#bb193b"/><path d="m162.152344 170.691406c0 4.714844-3.820313 8.535156-8.535156 8.535156-4.710938 0-8.53125-3.820312-8.53125-8.535156 0-4.710937 3.820312-8.53125 8.53125-8.53125 4.714843 0 8.535156 3.820313 8.535156 8.53125zm0 0" fill="#f5f5f5"/><path d="m298.6875 170.691406c0 4.714844-3.824219 8.535156-8.535156 8.535156-4.714844 0-8.535156-3.820312-8.535156-8.535156 0-4.710937 3.820312-8.53125 8.535156-8.53125 4.710937 0 8.535156 3.820313 8.535156 8.53125zm0 0" fill="#f5f5f5"/><path d="m290.152344 341.359375v8.535156c-.015625 4.707031-3.828125 8.519531-8.535156 8.53125h-85.332032v-8.53125c-.003906-9.054687 3.59375-17.738281 9.996094-24.140625s15.085938-9.996094 24.136719-9.992187h55.296875c2.957031 8.207031 4.457031 16.871093 4.4375 25.597656zm0 0" fill="#ad1457"/><path d="m273.085938 341.359375v8.535156c-.015626 4.707031-3.828126 8.519531-8.535157 8.53125h-68.265625v-8.53125c-.003906-9.054687 3.59375-17.738281 9.996094-24.140625s15.085938-9.996094 24.136719-9.992187h38.230469c2.957031 8.207031 4.457031 16.871093 4.4375 25.597656zm0 0" fill="#e91e63"/><path d="m503.484375 256.027344c-.710937 65.140625-25.027344 127.808594-68.4375 176.382812-6.46875 7.234375-15.722656 11.363282-25.429687 11.351563-2.90625.011719-5.804688-.359375-8.617188-1.109375-1.109375-.34375-2.21875-.683594-3.328125-1.109375-.300781-.0625-.589844-.179688-.851563-.34375 4.847657-1.878907 9.179688-4.894531 12.628907-8.789063 43.40625-48.574218 67.722656-111.242187 68.4375-176.382812 1.023437-74.921875-48.726563-239.277344-241.496094-247.125 3.671875-.257813 7.339844-.34375 11.09375-.34375 204.800781 0 257.023437 170.667968 256 247.46875zm0 0" fill="#fec108"/><path d="m366.953125 435.996094v50.429687c-.027344 9.414063-7.652344 17.039063-17.066406 17.066407h-25.601563c9.414063-.027344 17.039063-7.652344 17.066406-17.066407v-37.035156c8.808594-3.917969 17.359376-8.394531 25.601563-13.394531zm0 0" fill="#283593"/><path d="m172.902344 220.167969c-3.566406 0-6.761719-2.222657-8-5.570313-1.242188-3.347656-.265625-7.113281 2.441406-9.4375 10.824219-9.308594 14.710938-24.367187 9.746094-37.746094-4.964844-13.382812-17.730469-22.265624-32.003906-22.265624-14.273438 0-27.039063 8.882812-32 22.265624-4.964844 13.378907-1.078126 28.4375 9.742187 37.746094 3.539063 3.078125 3.929687 8.4375.875 11.996094-3.054687 3.5625-8.410156 3.984375-11.992187.953125-16.238282-13.957031-22.074219-36.546875-14.632813-56.625 7.445313-20.078125 26.597656-33.402344 48.007813-33.402344 21.414062 0 40.566406 13.324219 48.007812 33.402344 7.445312 20.078125 1.605469 42.667969-14.632812 56.625-1.542969 1.332031-3.515626 2.0625-5.558594 2.058594zm0 0"/><path d="m92.046875 118.425781c6.257813-19.335937 21.539063-34.414062 40.960937-40.402343 9.910157-3.117188 20.511719-3.320313 30.535157-.585938 4.84375 1.191406 9.515625 2.996094 13.90625 5.363281 4.1875 2.429688 8.160156 5.21875 11.867187 8.332031 1.144532.90625 1.519532 2.480469.910156 3.804688-.609374 1.328125-2.042968 2.066406-3.480468 1.792969l-.566406-.109375c-4.515626-.867188-8.59375-2.398438-12.777344-3.273438-4.058594-.898437-8.175782-1.515625-12.320313-1.851562-7.847656-.820313-15.78125-.039063-23.320312 2.304687-15.75 5.824219-30.082031 14.933594-42.042969 26.726563l-.152344.136718c-.726562.640626-1.785156.722657-2.601562.203126-.816406-.515626-1.191406-1.511719-.917969-2.441407zm0 0"/><path d="m330.980469 120.527344c-11.957031-11.792969-26.289063-20.902344-42.039063-26.726563-7.539062-2.34375-15.472656-3.125-23.324218-2.300781-4.144532.335938-8.257813.953125-12.316407 1.847656-4.183593.875-8.261719 2.40625-12.78125 3.273438l-.5625.109375c-1.433593.277343-2.871093-.460938-3.480469-1.789063-.609374-1.328125-.234374-2.898437.90625-3.808594 3.710938-3.113281 7.679688-5.898437 11.867188-8.332031 4.390625-2.367187 9.066406-4.171875 13.910156-5.363281 10.023438-2.734375 20.621094-2.53125 30.535156.582031 19.417969 5.992188 34.703126 21.066407 40.957032 40.40625.273437.925781-.097656 1.917969-.910156 2.4375s-1.871094.441407-2.597657-.191406zm0 0"/><path d="m309.503906 220.152344c-3.722656-.011719-7.011718-2.429688-8.132812-5.976563s.175781-7.414062 3.214844-9.566406c.410156-.324219.792968-.683594 1.140624-1.074219 6.410157-6.441406 10.015626-15.15625 10.027344-24.242187 0-18.851563-15.285156-34.132813-34.136718-34.132813-18.851563 0-34.132813 15.28125-34.132813 34.132813.003906 9.054687 3.585937 17.742187 9.960937 24.175781.371094.414062.773438.792969 1.207032 1.140625 3.816406 2.738281 4.734375 8.027344 2.066406 11.890625-2.660156 3.828125-7.910156 4.792969-11.757812 2.160156-1.261719-.910156-2.441407-1.933594-3.515626-3.058594-9.605468-9.648437-15.003906-22.699218-15.027343-36.308593 0-28.277344 22.925781-51.199219 51.199219-51.199219 28.277343 0 51.203124 22.921875 51.203124 51.199219-.019531 13.578125-5.394531 26.605469-14.960937 36.242187-1.097656 1.148438-2.296875 2.195313-3.582031 3.125-1.402344.972656-3.070313 1.492188-4.773438 1.492188zm0 0"/><path d="m349.886719 512.007812h-145.066407c-14.132812-.015624-25.585937-11.464843-25.601562-25.597656v-8.621094c-.007812-6.207031.96875-12.375 2.902344-18.273437.574218-1.902344 1.253906-3.769531 2.03125-5.601563 9.503906-21.800781 31.015625-35.910156 54.800781-35.9375h8.53125c26.035156.019532 49.460937 15.816407 59.234375 39.949219 1.03125 2.871094.449219 6.070313-1.519531 8.398438-1.972657 2.328125-5.03125 3.425781-8.035157 2.882812-3-.542969-5.480468-2.644531-6.511718-5.515625-7.359375-17.328125-24.339844-28.597656-43.167969-28.648437h-8.53125c-16.96875.011719-32.320313 10.0625-39.117187 25.609375-.546876 1.292968-1.027344 2.613281-1.433594 3.957031-1.402344 4.253906-2.117188 8.703125-2.117188 13.183594v8.617187c.003906 4.714844 3.820313 8.53125 8.535156 8.535156h145.066407c4.710937-.003906 8.53125-3.820312 8.53125-8.535156v-50.429687c0-4.714844 3.820312-8.535157 8.535156-8.535157 4.710937 0 8.53125 3.820313 8.53125 8.535157v50.429687c-.015625 14.132813-11.46875 25.582032-25.597656 25.597656zm0 0"/><path d="m247.484375 512.007812h-145.066406c-14.140625-.023437-25.59375-11.492187-25.597657-25.632812v-8.546875c.011719-33 26.730469-59.765625 59.730469-59.828125h8.535157c23.753906-.027344 45.265624 14.042969 54.757812 35.816406 1.21875 2.796875.851562 6.03125-.960938 8.484375-1.8125 2.449219-4.796874 3.75-7.824218 3.40625-3.03125-.34375-5.648438-2.277343-6.863282-5.074219-6.785156-15.546874-22.144531-25.589843-39.109374-25.566406h-8.535157c-23.578125.054688-42.664062 19.183594-42.664062 42.761719v8.546875c-.007813 4.722656 3.8125 8.554688 8.53125 8.566406h145.066406c4.714844 0 8.535156 3.820313 8.535156 8.535156 0 4.710938-3.820312 8.53125-8.535156 8.53125zm0 0"/><path d="m42.6875 426.675781c-16.835938.007813-32.097656-9.882812-38.96875-25.246093-6.871094-15.367188-4.066406-33.335938 7.160156-45.878907 7.230469-8.09375 13.769532-16.785156 19.539063-25.980469 2.550781-3.867187 7.722656-4.996093 11.648437-2.539062 3.925782 2.457031 5.179688 7.597656 2.820313 11.582031-6.28125 10.007813-13.390625 19.46875-21.257813 28.285157-9.398437 10.554687-8.515625 26.71875 1.972656 36.191406 10.6875 8.996094 26.535157 8.121094 36.167969-1.996094 3.265625-3.683594 6.484375-7.476562 9.542969-11.359375 1.863281-2.464844 4.914062-3.730469 7.972656-3.308594 3.0625.421875 5.65625 2.46875 6.78125 5.347657 1.125 2.878906.605469 6.140624-1.359375 8.527343-3.257812 4.132813-6.691406 8.191407-10.207031 12.160157-8.109375 9.035156-19.671875 14.203124-31.8125 14.214843zm0 0"/><path d="m409.617188 452.277344c-16.832032.007812-32.09375-9.882813-38.964844-25.25-6.871094-15.363282-4.066406-33.335938 7.160156-45.875 28.703125-32.089844 45.507812-73.070313 47.597656-116.078125.226563-4.707031 4.226563-8.339844 8.933594-8.113281 4.707031.222656 8.34375 4.222656 8.117188 8.933593-2.28125 46.910157-20.609376 91.613281-51.917969 126.625-9.382813 10.558594-8.492188 26.707031 1.992187 36.175781 10.691406 8.996094 26.535156 8.117188 36.167969-2.003906 42.003906-47.050781 65.539063-107.726562 66.25-170.796875-1.121094-63.945312-26.054687-125.171875-69.925781-171.710937-43.941406-44.523438-103.675782-67.109375-177.542969-67.109375-97.453125-.011719-183.503906 63.578125-212.097656 156.742187-28.597657 93.160156 6.953125 194.078125 87.632812 248.742188 3.261719 1.980468 4.808594 5.886718 3.789063 9.566406-1.019532 3.675781-4.359375 6.226562-8.175782 6.242188h-.085937c-1.699219 0-3.363281-.507813-4.773437-1.457032-87.039063-58.769531-125.492188-167.488281-94.757813-267.914062 30.734375-100.421875 123.449219-169.00000025 228.46875-168.9882815 78.601563 0 142.421875 24.2929685 189.695313 72.1953125 47.371093 49.597656 74.121093 115.34375 74.839843 183.921875-.765625 67.195312-25.847656 131.839844-70.609375 181.960938-8.105468 9.023437-19.660156 14.183593-31.792968 14.191406zm0 0"/><path d="m299.277344 471.984375c-4.335938-.011719-7.976563-3.269531-8.460938-7.582031-.484375-4.308594 2.34375-8.296875 6.570313-9.265625 22.988281-5.265625 44.980469-14.199219 65.132812-26.457031 4.308594-2.683594 8.691407-5.574219 12.914063-8.554688 2.492187-1.757812 5.734375-2.050781 8.5-.773438 2.765625 1.28125 4.640625 3.9375 4.917968 6.976563.273438 3.035156-1.089843 5.988281-3.582031 7.746094-4.492187 3.164062-9.140625 6.242187-13.808593 9.140625-21.738282 13.234375-45.46875 22.875-70.273438 28.550781-.628906.144531-1.269531.21875-1.910156.21875zm0 0"/><path d="m187.753906 230.410156c-2.265625.003906-4.4375-.898437-6.035156-2.5-10.101562-9.035156-23.082031-14.199218-36.632812-14.566406-13.566407.289062-26.574219 5.460938-36.632813 14.566406-3.347656 3.246094-8.679687 3.207032-11.976563-.089844-3.296874-3.296874-3.335937-8.632812-.089843-11.976562 13.285156-12.269531 30.617187-19.234375 48.699219-19.566406 18.082031.332031 35.414062 7.296875 48.699218 19.566406 2.441406 2.441406 3.167969 6.109375 1.847656 9.296875-1.320312 3.1875-4.429687 5.269531-7.878906 5.269531zm0 0"/><path d="m324.285156 230.410156c-2.261718.003906-4.433594-.898437-6.03125-2.5-10.105468-9.035156-23.085937-14.199218-36.636718-14.566406-13.5625.289062-26.570313 5.460938-36.632813 14.566406-3.34375 3.246094-8.679687 3.207032-11.972656-.089844-3.296875-3.296874-3.339844-8.632812-.09375-11.976562 27.226562-26.089844 70.175781-26.089844 97.402343 0 2.4375 2.441406 3.167969 6.109375 1.847657 9.296875-1.320313 3.1875-4.429688 5.269531-7.882813 5.269531zm0 0"/><path d="m281.617188 366.941406h-136.53125c-9.421876-.011718-17.054688-7.644531-17.066407-17.066406v-8.53125c0-47.128906 38.203125-85.335938 85.332031-85.335938 47.128907 0 85.335938 38.207032 85.335938 85.335938v8.53125c-.015625 9.421875-7.648438 17.054688-17.070312 17.066406zm-68.265626-93.867187c-37.683593.046875-68.222656 30.582031-68.265624 68.269531v8.53125h136.53125v-8.53125c-.042969-37.6875-30.582032-68.222656-68.265626-68.269531zm0 0"/><path d="m196.285156 366.941406c-2.261718.003906-4.433594-.894531-6.035156-2.496094-1.601562-1.601562-2.5-3.773437-2.496094-6.035156v-8.535156c.027344-23.550781 19.113282-42.636719 42.664063-42.664062h55.296875c4.710937 0 8.535156 3.820312 8.535156 8.53125 0 4.714843-3.824219 8.535156-8.535156 8.535156h-55.296875c-14.132813.015625-25.582031 11.464844-25.597657 25.597656v8.535156c0 2.261719-.898437 4.433594-2.5 6.035156-1.601562 1.601563-3.769531 2.5-6.035156 2.496094zm0 0"/></svg>