<svg height="511pt" viewBox="0 0 511 511.99159" width="511pt" xmlns="http://www.w3.org/2000/svg"><path d="m77.449219 250.445312-34.21875 14.675782 19.199219 48.640625-29.097657 19.199219-21.847656-55.292969c-6.863281-17.15625 1.25-36.648438 18.261719-43.863281l44.542968-19.113282c1.421876-.597656 2.914063-1 4.4375-1.195312zm0 0" fill="#ff5722"/><path d="m472.457031 93.089844 30.378907 111.871094c2.578124 10.210937.300781 21.035156-6.167969 29.34375-6.472657 8.304687-16.414063 13.160156-26.941407 13.152343h-34.304687l-1.367187-34.132812h35.671874l-29.269531-108.03125zm0 0" fill="#ff5722"/><path d="m435.59375 238.925781c.929688 65.34375-29.976562 127.0625-82.859375 165.460938l-97.28125 72.53125-12.714844-9.640625-82.6875-62.890625c-16.207031-11.371094-30.496093-25.253907-42.324219-41.132813l-22.613281-38.65625c-10.3125-23.449218-16.296875-48.570312-17.664062-74.152344-.171875-3.839843-.257813-7.679687-.257813-11.519531-.007812-8.5.503906-16.992187 1.535156-25.429687 10.839844-91.820313 79.617188-163.753906 164.867188-170.242188 4.265625-.425781 8.53125-.59375 12.796875-.59375 98.988281 0 179.203125 87.890625 179.203125 196.265625zm0 0" fill="#fec108"/><path d="m409.992188 238.925781c.929687 65.34375-29.976563 127.0625-82.859376 165.460938l-84.394531 62.890625-82.6875-62.890625c-16.207031-11.371094-30.496093-25.253907-42.324219-41.132813l-22.613281-38.65625c-10.3125-23.449218-16.296875-48.570312-17.664062-74.152344-.171875-3.839843-.257813-7.679687-.257813-11.519531-.007812-8.5.503906-16.992187 1.535156-25.429687 10.839844-91.820313 79.617188-163.753906 164.867188-170.242188 93.011719 7.085938 166.398438 91.992188 166.398438 195.671875zm0 0" fill="#ffdc00"/><path d="m256.390625 460.792969v25.597656c-.027344 9.414063-7.652344 17.039063-17.066406 17.066406h-102.398438c-9.414062-.027343-17.039062-7.652343-17.066406-17.066406v-25.597656c-.070313-31.34375 24.195313-57.363281 55.464844-59.480469 1.417969-.167969 2.839843-.253906 4.269531-.253906h17.066406c15.84375-.011719 31.042969 6.277344 42.25 17.480468 11.203125 11.207032 17.492188 26.40625 17.480469 42.253907zm0 0" fill="#283593"/><path d="m230.792969 460.792969v25.597656c-.027344 9.414063-7.652344 17.039063-17.066407 17.066406h-76.800781c-9.414062-.027343-17.039062-7.652343-17.066406-17.066406v-25.597656c-.070313-31.34375 24.195313-57.363281 55.464844-59.480469 31.273437 2.117188 55.535156 28.136719 55.46875 59.480469zm0 0" fill="#3f51b5"/><path d="m392.925781 460.792969v25.597656c-.027343 9.414063-7.652343 17.039063-17.066406 17.066406h-102.402344c-9.414062-.027343-17.039062-7.652343-17.066406-17.066406v-25.597656c-.066406-31.34375 24.195313-57.363281 55.46875-59.480469 1.414063-.167969 2.839844-.253906 4.265625-.253906h17.066406c15.847656-.011719 31.046875 6.277344 42.25 17.480468 11.207032 11.207032 17.496094 26.40625 17.484375 42.253907zm0 0" fill="#283593"/><path d="m367.324219 460.792969v25.597656c-.027344 9.414063-7.652344 17.039063-17.066407 17.066406h-76.800781c-9.414062-.027343-17.039062-7.652343-17.066406-17.066406v-25.597656c-.066406-31.34375 24.195313-57.363281 55.46875-59.480469 31.269531 2.117188 55.535156 28.136719 55.464844 59.480469zm0 0" fill="#3f51b5"/><path d="m106.246094 335.78125c-16.804688-22.019531-45.03125-28.722656-63.046875-14.972656s-18.996094 42.746094-2.191407 64.765625c16.804688 22.015625 45.03125 28.71875 63.046876 14.972656 18.015624-13.75 18.996093-42.746094 2.191406-64.765625zm0 0" fill="#ff9801"/><path d="m460.59375 102.390625c-8.882812 4.046875-19.003906 4.414063-28.160156 1.023437-13.570313-5.097656-24.558594-15.382812-30.546875-28.585937-11.949219-25-5.035157-53.246094 15.445312-62.976563.765625-.339843 1.621094-.679687 2.472657-1.023437 20.054687-7.679687 44.628906 4.609375 56.148437 28.671875 11.949219 25.003906 5.121094 53.164062-15.359375 62.890625zm0 0" fill="#f57c00"/><path d="m434.996094 102.390625c-.824219.414063-1.679688.757813-2.5625 1.023437-13.570313-5.097656-24.558594-15.382812-30.546875-28.585937-11.949219-25-5.035157-53.246094 15.445312-62.976563.765625-.339843 1.621094-.679687 2.472657-1.023437 13.546874 5.1875 24.515624 15.484375 30.550781 28.671875 11.945312 25.003906 5.117187 53.164062-15.359375 62.890625zm0 0" fill="#ff9801"/><path d="m137.863281 153.589844h-60.671875c-9.414062.03125-17.039062 7.652344-17.066406 17.070312.066406 9.394532 7.667969 16.996094 17.066406 17.066406h43.351563zm0 0" fill="#3f51b5"/><path d="m374.921875 153.589844h60.671875c9.414062.03125 17.039062 7.652344 17.066406 17.070312-.070312 9.394532-7.671875 16.996094-17.066406 17.066406h-43.351562zm0 0" fill="#3f51b5"/><path d="m281.992188 22.136719 48.855468-13.292969c2.511719-.753906 5.230469-.296875 7.359375 1.234375 2.128907 1.527344 3.429688 3.960937 3.519531 6.578125v43.46875c-.089843 2.621094-1.390624 5.050781-3.519531 6.582031-2.128906 1.527344-4.847656 1.984375-7.359375 1.234375l-48.855468-13.296875h-51.199219l-48.855469 13.296875c-2.511719.75-5.230469.292969-7.359375-1.234375-2.128906-1.53125-3.429687-3.960937-3.519531-6.582031v-43.46875c.089844-2.617188 1.390625-5.050781 3.519531-6.578125 2.128906-1.53125 4.847656-1.988281 7.359375-1.234375l48.855469 13.292969zm0 0" fill="#6a1b9a"/><path d="m239.324219 17.058594h34.132812c4.714844 0 8.535157 3.820312 8.535157 8.53125v25.601562c0 4.714844-3.820313 8.535156-8.535157 8.535156h-34.132812c-4.710938 0-8.53125-3.820312-8.53125-8.535156v-25.601562c0-4.710938 3.820312-8.53125 8.53125-8.53125zm0 0" fill="#9d27b0"/><path d="m239.324219 196.257812c0 32.992188-26.742188 59.734376-59.730469 59.734376-32.992188 0-59.734375-26.742188-59.734375-59.734376 0-32.988281 26.742187-59.734374 59.734375-59.734374 32.988281 0 59.730469 26.746093 59.730469 59.734374zm0 0" fill="#02a9f4"/><path d="m392.925781 196.257812c0 32.992188-26.742187 59.734376-59.734375 59.734376-32.988281 0-59.734375-26.742188-59.734375-59.734376 0-32.988281 26.746094-59.734374 59.734375-59.734374 32.992188 0 59.734375 26.746093 59.734375 59.734374zm0 0" fill="#02a9f4"/><path d="m160.042969 412.917969c-1.742188 0-3.445313-.535157-4.871094-1.535157-16.957031-11.878906-31.90625-26.398437-44.273437-43.007812-1.90625-2.433594-2.347657-5.710938-1.152344-8.5625 1.195312-2.851562 3.839844-4.835938 6.914062-5.183594 3.074219-.34375 6.09375 1 7.894532 3.511719 11.28125 15.152344 24.914062 28.398437 40.378906 39.242187 3.054687 2.132813 4.375 6.003907 3.253906 9.558594-1.117188 3.554688-4.414062 5.972656-8.140625 5.972656zm0 0"/><path d="m352.742188 412.917969c-3.726563.003906-7.019532-2.414063-8.140626-5.964844-1.121093-3.554687.191407-7.421875 3.246094-9.558594 50.65625-36.75 80.21875-95.890625 79.210938-158.46875.019531-16.566406-1.960938-33.070312-5.898438-49.160156-1.128906-4.574219 1.667969-9.199219 6.242188-10.328125 4.578125-1.128906 9.203125 1.667969 10.332031 6.246094 4.261719 17.425781 6.410156 35.300781 6.390625 53.242187 1.011719 68.148438-31.273438 132.511719-86.503906 172.449219-1.429688 1.003906-3.132813 1.542969-4.878906 1.542969zm0 0"/><path d="m95.117188 333.132812c-3.378907 0-6.441407-1.992187-7.8125-5.082031-10.742188-24.390625-16.96875-50.527343-18.378907-77.140625-.183593-4.050781-.265625-8.019531-.265625-11.984375-.011718-8.851562.523438-17.699219 1.601563-26.484375 1.078125-8.972656 2.667969-17.875 4.769531-26.667968.695312-2.964844 2.921875-5.335938 5.839844-6.21875 2.921875-.878907 6.085937-.136719 8.308594 1.949218 2.222656 2.089844 3.164062 5.203125 2.464843 8.171875-1.957031 8.171875-3.4375 16.453125-4.441406 24.800781-.992187 8.109376-1.484375 16.277344-1.476563 24.449219 0 3.714844.082032 7.425781.246094 11.132813 1.300782 24.527344 7.042969 48.613281 16.949219 71.089844 1.164063 2.640624.917969 5.691406-.65625 8.109374-1.574219 2.417969-4.261719 3.875-7.148437 3.875zm0 0"/><path d="m95.023438 162.125c-2.886719-.003906-5.574219-1.464844-7.144532-3.878906-1.574218-2.417969-1.820312-5.464844-.65625-8.105469 16.761719-38.589844 45.308594-70.890625 81.546875-92.265625 2.644531-1.519531 5.898438-1.511719 8.535157.019531 2.636718 1.53125 4.257812 4.351563 4.25 7.398438-.007813 3.050781-1.640626 5.863281-4.285157 7.382812-33.09375 19.5625-59.148437 49.09375-74.441406 84.367188-1.363281 3.089843-4.425781 5.082031-7.804687 5.082031zm0 0"/><path d="m417.84375 162.125c-3.378906 0-6.441406-1.992188-7.808594-5.082031-15.289062-35.273438-41.347656-64.804688-74.441406-84.367188-2.644531-1.519531-4.277344-4.332031-4.285156-7.382812-.007813-3.046875 1.613281-5.867188 4.25-7.398438 2.636718-1.53125 5.890625-1.539062 8.535156-.019531 36.238281 21.375 64.785156 53.675781 81.550781 92.265625 1.164063 2.640625.914063 5.6875-.65625 8.105469-1.574219 2.414062-4.261719 3.875-7.144531 3.878906zm0 0"/><path d="m239.324219 511.992188h-102.398438c-14.132812-.015626-25.585937-11.46875-25.601562-25.601563v-25.597656c.042969-37.6875 30.582031-68.226563 68.269531-68.269531h17.066406c37.683594.042968 68.222656 30.582031 68.265625 68.269531v25.597656c-.015625 14.132813-11.46875 25.585937-25.601562 25.601563zm-59.730469-102.402344c-28.265625.03125-51.171875 22.9375-51.203125 51.203125v25.597656c.003906 4.710937 3.824219 8.53125 8.535156 8.535156h102.398438c4.710937-.003906 8.53125-3.824219 8.535156-8.535156v-25.597656c-.03125-28.265625-22.9375-51.171875-51.199219-51.203125zm0 0"/><path d="m256.390625 477.859375h-136.53125c-4.714844 0-8.535156-3.820313-8.535156-8.535156 0-4.710938 3.820312-8.53125 8.535156-8.53125h136.53125c4.714844 0 8.535156 3.820312 8.535156 8.53125 0 4.714843-3.820312 8.535156-8.535156 8.535156zm0 0"/><path d="m375.859375 511.992188h-102.402344c-14.128906-.015626-25.582031-11.46875-25.597656-25.601563v-25.597656c.042969-37.6875 30.582031-68.226563 68.265625-68.269531h17.066406c37.683594.042968 68.222656 30.582031 68.265625 68.269531v25.597656c-.015625 14.132813-11.464843 25.585937-25.597656 25.601563zm-59.734375-102.402344c-28.265625.03125-51.167969 22.9375-51.199219 51.203125v25.597656c.003907 4.710937 3.820313 8.53125 8.53125 8.535156h102.402344c4.710937-.003906 8.527344-3.824219 8.53125-8.535156v-25.597656c-.03125-28.265625-22.933594-51.171875-51.199219-51.203125zm0 0"/><path d="m392.925781 477.859375h-136.535156c-4.710937 0-8.53125-3.820313-8.53125-8.535156 0-4.710938 3.820313-8.53125 8.53125-8.53125h136.535156c4.710938 0 8.53125 3.820312 8.53125 8.53125 0 4.714843-3.820312 8.535156-8.53125 8.535156zm0 0"/><path d="m82.289062 416.234375c-4.101562-.015625-8.191406-.503906-12.179687-1.460937-14.367187-3.644532-27.039063-12.128907-35.882813-24.023438-19.628906-25.726562-17.921874-60.148438 3.792969-76.726562 21.738281-16.582032 55.371094-9.140626 75.011719 16.585937 9.136719 11.664063 13.980469 26.125 13.707031 40.941406-.074219 13.972657-6.519531 27.144531-17.507812 35.773438-7.746094 5.875-17.222657 9.007812-26.941407 8.910156zm-17.183593-94.058594c-6.023438-.097656-11.90625 1.808594-16.726563 5.414063-14.246094 10.875-14.507812 34.5625-.585937 52.808594 6.453125 8.761718 15.722656 15.035156 26.257812 17.769531 8.515625 2.378906 17.648438.757812 24.824219-4.410157 6.878906-5.554687 10.855469-13.941406 10.804688-22.785156.140624-10.878906-3.464844-21.480468-10.214844-30.015625-7.984375-11.179687-20.640625-18.097656-34.359375-18.78125zm0 0"/><path d="m445.648438 114.300781c-7.355469-.0625-14.609376-1.753906-21.234376-4.949219-13.339843-6.503906-24.027343-17.414062-30.25-30.886718-13.925781-29.207032-5.183593-62.539063 19.480469-74.304688 24.679688-11.785156 56.082031 2.429688 70.003907 31.640625 6.546874 13.289063 8.335937 28.421875 5.0625 42.867188-2.898438 13.667969-11.902344 25.25-24.425782 31.433593-5.820312 2.777344-12.1875 4.210938-18.636718 4.199219zm-13.332032-97.257812c-3.914062-.019531-7.785156.839843-11.324218 2.515625-16.175782 7.714844-21.300782 30.851562-11.421876 51.558594 4.523438 9.914062 12.328126 17.964843 22.097657 22.792968 7.863281 4.089844 17.164062 4.382813 25.269531.789063 7.859375-4.015625 13.453125-11.402344 15.191406-20.058594 2.339844-10.632813.96875-21.746094-3.886718-31.488281-6.125-14.757813-20-24.839844-35.925782-26.109375zm0 0"/><path d="m25.394531 336.089844-21.84375-55.289063c-8.59375-21.445312 1.554688-45.824219 22.828125-54.835937l44.550782-19.113282c2.167968-.914062 4.449218-1.527343 6.78125-1.832031l2.039062 16.945313c-.753906.105468-1.492188.3125-2.195312.609375l-44.441407 19.074219c-12.753906 5.402343-18.84375 20.019531-13.691406 32.875l21.847656 55.296874zm0 0"/><path d="m54.492188 316.890625-19.199219-48.632813c-1.695313-4.292968.332031-9.152343 4.570312-10.972656l34.21875-14.683594 6.734375 15.683594-26.609375 11.414063 16.160157 40.925781zm0 0"/><path d="m469.726562 221.859375h-35.671874c-4.710938 0-8.53125-3.820313-8.53125-8.535156 0-4.710938 3.820312-8.53125 8.53125-8.53125h24.519531l-26.355469-97.269531c-1.234375-4.546876 1.453125-9.234376 6.003906-10.46875 4.546875-1.234376 9.234375 1.453124 10.46875 6.003906l29.269532 108.03125c.695312 2.566406.15625 5.308594-1.457032 7.417968-1.613281 2.113282-4.121094 3.351563-6.777344 3.351563zm0 0"/><path d="m469.726562 255.992188h-34.304687c-4.714844 0-8.535156-3.820313-8.535156-8.535157 0-4.710937 3.820312-8.53125 8.535156-8.53125h34.304687c7.917969.003907 15.394532-3.65625 20.246094-9.914062 4.855469-6.257813 6.539063-14.410157 4.5625-22.078125l-30.3125-111.609375c-.855468-2.960938-.046875-6.152344 2.113282-8.347657 2.160156-2.199218 5.335937-3.058593 8.3125-2.253906 2.972656.800782 5.285156 3.148438 6.042968 6.136719l30.378906 111.867187c3.253907 12.902344.355469 26.582032-7.851562 37.058594-8.085938 10.253906-20.433594 16.230469-33.492188 16.207032zm0 0"/><path d="m179.59375 264.523438c-37.703125 0-68.269531-30.5625-68.269531-68.265626 0-37.703124 30.566406-68.265624 68.269531-68.265624 37.699219 0 68.265625 30.5625 68.265625 68.265624-.042969 37.683594-30.582031 68.222657-68.265625 68.265626zm0-119.464844c-28.277344 0-51.203125 22.921875-51.203125 51.199218 0 28.277344 22.925781 51.199219 51.203125 51.199219 28.273438 0 51.199219-22.921875 51.199219-51.199219-.03125-28.261718-22.9375-51.167968-51.199219-51.199218zm0 0"/><path d="m333.191406 264.523438c-37.703125 0-68.265625-30.5625-68.265625-68.265626 0-37.703124 30.5625-68.265624 68.265625-68.265624s68.265625 30.5625 68.265625 68.265624c-.042969 37.683594-30.582031 68.222657-68.265625 68.265626zm0-119.464844c-28.277344 0-51.199218 22.921875-51.199218 51.199218 0 28.277344 22.921874 51.199219 51.199218 51.199219s51.199219-22.921875 51.199219-51.199219c-.03125-28.261718-22.933594-51.167968-51.199219-51.199218zm0 0"/><path d="m285.242188 169.292969c-2.78125.003906-5.390626-1.347657-6.992188-3.625-4.726562-7.515625-12.980469-12.074219-21.859375-12.074219-8.875 0-17.128906 4.558594-21.855469 12.074219-2.710937 3.855469-8.035156 4.785156-11.890625 2.078125-3.855469-2.710938-4.785156-8.035156-2.078125-11.890625 7.929688-12.0625 21.390625-19.324219 35.824219-19.324219s27.898437 7.261719 35.824219 19.324219c1.832031 2.605469 2.0625 6.011719.597656 8.835937-1.46875 2.828125-4.386719 4.601563-7.570312 4.605469zm0 0"/><path d="m120.542969 196.257812h-43.351563c-14.109375-.070312-25.53125-11.488281-25.597656-25.597656.015625-14.132812 11.464844-25.585937 25.597656-25.601562h60.671875c4.714844 0 8.535157 3.820312 8.535157 8.53125 0 4.714844-3.820313 8.535156-8.535157 8.535156h-60.671875c-4.710937.003906-8.527344 3.820312-8.53125 8.535156-.019531 2.226563.867188 4.363282 2.457032 5.921875 1.578124 1.671875 3.777343 2.617188 6.074218 2.609375h43.351563c4.710937 0 8.53125 3.820313 8.53125 8.535156 0 4.710938-3.820313 8.53125-8.53125 8.53125zm0 0"/><path d="m435.59375 196.257812h-43.351562c-4.710938 0-8.53125-3.820312-8.53125-8.53125 0-4.714843 3.820312-8.535156 8.53125-8.535156h43.351562c2.222656.019532 4.359375-.863281 5.917969-2.449218 1.671875-1.582032 2.617187-3.78125 2.613281-6.082032-.003906-4.714844-3.820312-8.53125-8.53125-8.535156h-60.671875c-4.714844 0-8.535156-3.820312-8.535156-8.535156 0-4.710938 3.820312-8.53125 8.535156-8.53125h60.671875c14.128906.015625 25.582031 11.46875 25.597656 25.601562-.066406 14.109375-11.488281 25.53125-25.597656 25.597656zm0 0"/><path d="m153.992188 196.257812c-3.449219 0-6.5625-2.078124-7.882813-5.265624-1.320313-3.191407-.589844-6.859376 1.847656-9.300782l17.070313-17.066406c3.347656-3.234375 8.667968-3.1875 11.960937.105469 3.292969 3.289062 3.335938 8.613281.101563 11.960937l-17.066406 17.066406c-1.597657 1.601563-3.769532 2.503907-6.03125 2.5zm0 0"/><path d="m171.058594 221.859375c-3.449219 0-6.5625-2.082031-7.882813-5.269531-1.320312-3.1875-.589843-6.859375 1.851563-9.296875l34.132812-34.132813c3.347656-3.234375 8.667969-3.1875 11.960938.101563 3.292968 3.292969 3.335937 8.613281.105468 11.964843l-34.136718 34.132813c-1.597656 1.601563-3.769532 2.5-6.03125 2.5zm0 0"/><path d="m307.59375 196.257812c-3.453125 0-6.5625-2.078124-7.882812-5.265624-1.320313-3.191407-.59375-6.859376 1.847656-9.300782l17.066406-17.066406c3.347656-3.234375 8.671875-3.1875 11.960938.105469 3.292968 3.289062 3.339843 8.613281.105468 11.960937l-17.066406 17.066406c-1.597656 1.601563-3.769531 2.503907-6.03125 2.5zm0 0"/><path d="m324.660156 221.859375c-3.453125 0-6.5625-2.082031-7.882812-5.269531-1.320313-3.1875-.589844-6.859375 1.847656-9.296875l34.132812-34.132813c3.347657-3.234375 8.671876-3.1875 11.964844.101563 3.289063 3.292969 3.335938 8.613281.101563 11.964843l-34.132813 34.132813c-1.597656 1.601563-3.769531 2.5-6.03125 2.5zm0 0"/><path d="m229.136719 103.679688c-9.644531-3.75-20.175781-4.605469-30.300781-2.457032-4.835938 1.550782-9.347657 3.976563-13.3125 7.148438-2.179688 1.539062-3.980469 3.640625-6.203126 5.359375-1.953124 2.019531-3.78125 4.179687-5.945312 6.203125l-.253906.234375c-.9375.871093-2.351563.976562-3.40625.253906-1.050782-.726563-1.457032-2.085937-.976563-3.269531 1.167969-2.871094 2.613281-5.640625 4.035157-8.472656 1.703124-2.730469 3.621093-5.320313 5.730468-7.75 4.539063-5.070313 10.28125-8.917969 16.695313-11.191407 6.59375-2.296875 13.726562-2.546875 20.460937-.710937 6.476563 1.695312 12.3125 5.253906 16.78125 10.242187.820313.941407.921875 2.3125.242188 3.363281-.675782 1.050782-1.96875 1.523438-3.164063 1.164063zm0 0"/><path d="m280.339844 99.269531c4.464844-4.984375 10.300781-8.546875 16.78125-10.238281 6.734375-1.835938 13.867187-1.589844 20.460937.707031 6.414063 2.273438 12.152344 6.121094 16.691407 11.195313 2.113281 2.425781 4.03125 5.015625 5.734374 7.746094 1.421876 2.832031 2.867188 5.601562 4.035157 8.472656.480469 1.183594.074219 2.542968-.976563 3.269531-1.054687.722656-2.46875.621094-3.402344-.25l-.257812-.238281c-2.164062-2.019532-3.992188-4.183594-5.941406-6.203125-2.21875-1.71875-4.027344-3.820313-6.207032-5.355469-3.964843-3.175781-8.476562-5.601562-13.3125-7.152344-10.125-2.148437-20.65625-1.292968-30.300781 2.457032l-.378906.117187c-1.195313.359375-2.488281-.113281-3.167969-1.160156-.679687-1.050781-.582031-2.421875.238282-3.363281zm0 0"/><path d="m256.390625 349.859375c-33.988281.011719-62.914063-24.75-68.148437-58.335937-.722657-4.617188 2.402343-8.957032 7.011718-9.734376 4.613282-.773437 8.988282 2.300782 9.816406 6.902344.3125 1.800782 8.15625 44.101563 51.320313 44.101563 43.472656 0 51.019531-42.269531 51.316406-44.070313.457031-3.046875 2.519531-5.613281 5.402344-6.710937 2.878906-1.101563 6.128906-.558594 8.5 1.414062 2.367187 1.96875 3.488281 5.066407 2.933594 8.097657-5.234375 33.585937-34.160157 58.347656-68.152344 58.335937zm0 0"/><path d="m256.390625 383.992188c-27.730469 0-38.324219-9.191407-40.164063-11.035157-3.234374-3.304687-3.246093-8.585937-.027343-11.90625 3.21875-3.320312 8.496093-3.472656 11.902343-.34375.484376.394531 8.035157 6.21875 28.289063 6.21875 20.863281 0 28.246094-6.175781 28.316406-6.242187 3.488281-3.035156 8.746094-2.800782 11.949219.535156 3.164062 3.289062 3.121094 8.5-.097656 11.738281-1.839844 1.84375-12.433594 11.035157-40.167969 11.035157zm0 0"/><path d="m273.457031 68.257812h-34.132812c-9.421875-.011718-17.054688-7.644531-17.066407-17.066406v-25.601562c.011719-9.417969 7.644532-17.054688 17.066407-17.066406h34.132812c9.421875.011718 17.058594 7.648437 17.066407 17.066406v25.601562c-.007813 9.421875-7.644532 17.054688-17.066407 17.066406zm-34.132812-42.667968v25.601562h34.148437l-.015625-25.601562zm0 0"/><path d="m179.617188 76.78125c-3.808594.007812-7.515626-1.234375-10.550782-3.539062-4.121094-3.101563-6.542968-7.960938-6.542968-13.117188v-43.46875c0-5.15625 2.421874-10.011719 6.542968-13.113281 4.308594-3.265625 9.886719-4.347657 15.105469-2.933594l48.863281 13.292969c4.546875 1.238281 7.230469 5.925781 5.992188 10.476562-1.238282 4.546875-5.929688 7.230469-10.476563 5.992188l-48.855469-13.296875-.101562 43.050781 48.957031-13.710938c4.546875-1.238281 9.238281 1.445313 10.476563 5.992188 1.238281 4.546875-1.445313 9.238281-5.992188 10.476562l-48.855468 13.292969c-1.488282.402344-3.023438.609375-4.5625.605469zm0 0"/><path d="m333.167969 76.78125c-1.539063.003906-3.074219-.203125-4.558594-.605469l-48.859375-13.292969c-4.546875-1.238281-7.230469-5.929687-5.992188-10.476562 1.238282-4.546875 5.929688-7.230469 10.476563-5.992188l48.851563 13.292969.105468-43.050781-48.957031 13.714844c-4.546875 1.238281-9.238281-1.445313-10.476563-5.992188-1.238281-4.550781 1.445313-9.238281 5.992188-10.476562l48.855469-13.292969c5.21875-1.410156 10.796875-.328125 15.113281 2.933594 4.117188 3.101562 6.542969 7.957031 6.539062 13.113281v43.46875c.003907 5.15625-2.421874 10.015625-6.539062 13.117188-3.035156 2.300781-6.742188 3.546874-10.550781 3.539062zm0 0"/></svg>