<svg height="512pt" viewBox="0 0 512 512" width="512pt" xmlns="http://www.w3.org/2000/svg"><path d="m76.953125 250.453125-34.21875 14.675781 19.199219 48.640625-29.097656 19.199219-21.847657-55.292969c-6.863281-17.15625 1.253907-36.648437 18.261719-43.863281l44.542969-19.113281c1.421875-.597657 2.914062-.996094 4.4375-1.195313zm0 0" fill="#ff5722"/><path d="m434.972656 250.453125 34.214844 14.675781-19.199219 48.640625 29.101563 19.199219 21.84375-55.292969c6.863281-17.15625-1.25-36.648437-18.261719-43.863281l-44.542969-19.113281c-1.417968-.597657-2.914062-.996094-4.4375-1.195313zm0 0" fill="#ff5722"/><path d="m435.097656 238.933594c.929688 65.347656-29.976562 127.0625-82.859375 165.460937l-97.28125 72.535157-12.714843-9.644532-82.6875-62.890625c-16.207032-11.371093-30.496094-25.253906-42.324219-41.128906l-22.613281-38.65625c-10.3125-23.453125-16.296876-48.574219-17.664063-74.15625-.171875-3.839844-.257813-7.679687-.257813-11.519531-.007812-8.5.503907-16.992188 1.535157-25.429688 10.839843-91.820312 79.617187-163.753906 164.867187-170.238281 4.265625-.429687 8.53125-.597656 12.796875-.597656 98.988281 0 179.203125 87.890625 179.203125 196.265625zm0 0" fill="#fec108"/><path d="m409.496094 238.933594c.929687 65.347656-29.976563 127.0625-82.859375 165.460937l-84.394531 62.890625-82.6875-62.890625c-16.207032-11.371093-30.496094-25.253906-42.324219-41.128906l-22.613281-38.65625c-10.3125-23.453125-16.296876-48.574219-17.664063-74.15625-.171875-3.839844-.257813-7.679687-.257813-11.519531-.007812-8.5.503907-16.992188 1.535157-25.429688 10.839843-91.820312 79.617187-163.753906 164.867187-170.238281 93.011719 7.082031 166.398438 91.988281 166.398438 195.667969zm0 0" fill="#ffdc00"/><path d="m255.894531 460.800781v25.597657c-.027343 9.414062-7.652343 17.039062-17.066406 17.066406h-102.398437c-9.414063-.027344-17.039063-7.652344-17.066407-17.066406v-25.597657c-.070312-31.34375 24.195313-57.363281 55.464844-59.476562 1.417969-.171875 2.84375-.257813 4.269531-.257813h17.066406c15.84375-.011718 31.042969 6.277344 42.25 17.484375 11.203126 11.203125 17.492188 26.402344 17.480469 42.25zm0 0" fill="#283593"/><path d="m230.296875 460.800781v25.597657c-.027344 9.414062-7.652344 17.039062-17.066406 17.066406h-76.800781c-9.414063-.027344-17.039063-7.652344-17.066407-17.066406v-25.597657c-.070312-31.34375 24.195313-57.363281 55.464844-59.476562 31.273437 2.113281 55.535156 28.132812 55.46875 59.476562zm0 0" fill="#3f51b5"/><path d="m392.429688 460.800781v25.597657c-.027344 9.414062-7.652344 17.039062-17.066407 17.066406h-102.402343c-9.414063-.027344-17.039063-7.652344-17.066407-17.066406v-25.597657c-.066406-31.34375 24.195313-57.363281 55.46875-59.476562 1.414063-.171875 2.839844-.257813 4.265625-.257813h17.066406c15.847657-.011718 31.046876 6.277344 42.25 17.484375 11.207032 11.203125 17.496094 26.402344 17.484376 42.25zm0 0" fill="#283593"/><path d="m366.828125 460.800781v25.597657c-.027344 9.414062-7.652344 17.039062-17.066406 17.066406h-76.800781c-9.414063-.027344-17.039063-7.652344-17.066407-17.066406v-25.597657c-.066406-31.34375 24.195313-57.363281 55.46875-59.476562 31.269531 2.113281 55.535157 28.132812 55.464844 59.476562zm0 0" fill="#3f51b5"/><path d="m105.75 335.789062c-16.804688-22.015624-45.03125-28.722656-63.046875-14.972656s-18.996094 42.746094-2.191406 64.765625c16.804687 22.015625 45.03125 28.722657 63.046875 14.972657s18.996094-42.746094 2.191406-64.765626zm0 0" fill="#ff9801"/><path d="m471.449219 385.621094c-11.785157 17.347656-33.222657 25.382812-53.503907 20.054687-3.453124-1.15625-6.683593-2.890625-9.558593-5.121093-18.003907-13.738282-19.027344-42.753907-2.21875-64.769532 7.015625-9.398437 16.757812-16.402344 27.902343-20.050781 11.851563-4.179687 24.996094-2.265625 35.160157 5.117187 18.003906 13.742188 18.941406 42.667969 2.21875 64.769532zm0 0" fill="#f57c00"/><path d="m445.847656 385.621094c-7.03125 9.382812-16.769531 16.378906-27.902344 20.054687-3.453124-1.15625-6.683593-2.890625-9.558593-5.121093-18.003907-13.738282-19.027344-42.753907-2.21875-64.769532 7.015625-9.398437 16.757812-16.402344 27.902343-20.050781 3.453126 1.15625 6.683594 2.886719 9.558594 5.117187 18.007813 13.742188 18.945313 42.667969 2.21875 64.769532zm0 0" fill="#ff9801"/><path d="m281.496094 22.144531 48.855468-13.292969c2.511719-.75 5.230469-.296874 7.359376 1.234376 2.128906 1.53125 3.429687 3.960937 3.519531 6.578124v43.46875c-.089844 2.621094-1.390625 5.050782-3.519531 6.582032-2.128907 1.527344-4.847657 1.984375-7.359376 1.234375l-48.855468-13.296875h-51.199219l-48.855469 13.296875c-2.511718.75-5.230468.292969-7.359375-1.234375-2.128906-1.53125-3.429687-3.960938-3.519531-6.582032v-43.46875c.089844-2.617187 1.390625-5.046874 3.519531-6.578124 2.128907-1.53125 4.847657-1.984376 7.359375-1.234376l48.855469 13.292969zm0 0" fill="#6a1b9a"/><path d="m238.828125 17.066406h34.132813c4.714843 0 8.535156 3.820313 8.535156 8.535156v25.597657c0 4.714843-3.820313 8.535156-8.535156 8.535156h-34.132813c-4.710937 0-8.53125-3.820313-8.53125-8.535156v-25.597657c0-4.714843 3.820313-8.535156 8.53125-8.535156zm0 0" fill="#9d27b0"/><path d="m221.761719 183.464844c0-21.207032-7.640625-38.398438-17.066407-38.398438-9.425781 0-17.066406 17.191406-17.066406 38.398438 0 21.210937 7.640625 38.402344 17.066406 38.402344 9.425782 0 17.066407-17.191407 17.066407-38.402344zm0 0" fill="#3f51b5"/><path d="m214.175781 166.398438c0-11.78125-4.242187-21.332032-9.480469-21.332032-5.234374 0-9.480468 9.550782-9.480468 21.332032 0 11.785156 4.246094 21.335937 9.480468 21.335937 5.238282 0 9.480469-9.550781 9.480469-21.335937zm0 0" fill="#f5f5f5"/><path d="m324.164062 183.464844c0-21.207032-7.640624-38.398438-17.066406-38.398438-9.425781 0-17.066406 17.191406-17.066406 38.398438 0 21.210937 7.640625 38.402344 17.066406 38.402344 9.425782 0 17.066406-17.191407 17.066406-38.402344zm0 0" fill="#3f51b5"/><path d="m316.578125 166.398438c0-11.78125-4.246094-21.332032-9.480469-21.332032-5.238281 0-9.484375 9.550782-9.484375 21.332032 0 11.785156 4.246094 21.335937 9.484375 21.335937 5.234375 0 9.480469-9.550781 9.480469-21.335937zm0 0" fill="#f5f5f5"/><path d="m159.546875 412.929688c-1.742187-.003907-3.441406-.539063-4.871094-1.539063-16.957031-11.878906-31.90625-26.398437-44.269531-43.007813-1.910156-2.433593-2.351562-5.710937-1.15625-8.5625 1.195312-2.851562 3.839844-4.835937 6.914062-5.183593 3.074219-.34375 6.09375 1 7.894532 3.515625 11.28125 15.148437 24.914062 28.394531 40.378906 39.238281 3.054688 2.136719 4.375 6.003906 3.253906 9.558594-1.117187 3.558593-4.414062 5.976562-8.140625 5.972656zm0 0"/><path d="m352.246094 412.929688c-3.726563 0-7.027344-2.414063-8.144532-5.972657-1.121093-3.554687.195313-7.425781 3.253907-9.558593 15.570312-10.875 29.257812-24.230469 40.507812-39.535157 2.796875-3.792969 8.140625-4.601562 11.933594-1.800781 3.796875 2.796875 4.601563 8.140625 1.804687 11.933594-12.359374 16.800781-27.386718 31.460937-44.484374 43.402344-1.429688.996093-3.128907 1.527343-4.871094 1.53125zm0 0"/><path d="m94.621094 333.140625c-3.378906 0-6.441406-1.992187-7.8125-5.082031-10.742188-24.390625-16.96875-50.527344-18.378906-77.140625-.179688-4.046875-.265626-8.019531-.265626-11.984375-.007812-8.851563.523438-17.695313 1.597657-26.484375 6.683593-64.128907 43.140625-121.382813 98.425781-154.566407 4.085938-2.347656 9.304688-.941406 11.65625 3.144532 2.347656 4.089844.941406 9.304687-3.148438 11.65625-50.625 30.492187-83.957031 83.023437-89.988281 141.816406-.992187 8.105469-1.484375 16.265625-1.476562 24.433594 0 3.714844.082031 7.425781.246093 11.132812 1.300782 24.527344 7.042969 48.613282 16.949219 71.089844 1.164063 2.640625.917969 5.691406-.65625 8.109375s-4.261719 3.875-7.148437 3.875zm0 0"/><path d="m417.089844 333.3125c-1.195313 0-2.375-.25-3.464844-.742188-4.304688-1.917968-6.242188-6.960937-4.324219-11.265624 9.984375-22.53125 15.753907-46.703126 17.023438-71.316407.160156-3.621093.238281-7.339843.238281-11.054687.007812-8.148438-.484375-16.292969-1.472656-24.382813-6.019532-58.808593-39.355469-111.363281-89.992188-141.867187-4.089844-2.351563-5.496094-7.566406-3.148437-11.65625 2.351562-4.085938 7.566406-5.492188 11.65625-3.144532 55.296875 33.195313 91.753906 90.46875 98.429687 154.617188 1.070313 8.769531 1.601563 17.597656 1.59375 26.433594 0 3.964844-.085937 7.933594-.261718 11.898437-1.378907 26.71875-7.640626 52.957031-18.480469 77.417969-1.371094 3.078125-4.425781 5.0625-7.796875 5.0625zm0 0"/><path d="m238.828125 512h-102.398437c-14.132813-.015625-25.585938-11.46875-25.601563-25.601562v-25.597657c.042969-37.683593 30.582031-68.222656 68.269531-68.265625h17.066406c37.683594.042969 68.222657 30.582032 68.265626 68.265625v25.597657c-.015626 14.132812-11.46875 25.585937-25.601563 25.601562zm-59.730469-102.398438c-28.265625.03125-51.171875 22.933594-51.203125 51.199219v25.597657c.003907 4.710937 3.824219 8.53125 8.535157 8.535156h102.398437c4.710937-.003906 8.53125-3.824219 8.535156-8.535156v-25.597657c-.03125-28.265625-22.9375-51.167969-51.199219-51.199219zm0 0"/><path d="m255.894531 477.867188h-136.53125c-4.714843 0-8.535156-3.820313-8.535156-8.535157 0-4.710937 3.820313-8.53125 8.535156-8.53125h136.53125c4.714844 0 8.535157 3.820313 8.535157 8.53125 0 4.714844-3.820313 8.535157-8.535157 8.535157zm0 0"/><path d="m375.363281 512h-102.402343c-14.128907-.015625-25.582032-11.46875-25.597657-25.601562v-25.597657c.042969-37.683593 30.582031-68.222656 68.265625-68.265625h17.066406c37.683594.042969 68.222657 30.582032 68.265626 68.265625v25.597657c-.011719 14.132812-11.464844 25.585937-25.597657 25.601562zm-59.734375-102.398438c-28.261718.03125-51.167968 22.933594-51.199218 51.199219v25.597657c.003906 4.710937 3.820312 8.53125 8.53125 8.535156h102.402343c4.710938-.003906 8.527344-3.824219 8.53125-8.535156v-25.597657c-.03125-28.265625-22.933593-51.167969-51.199219-51.199219zm0 0"/><path d="m392.429688 477.867188h-136.535157c-4.710937 0-8.53125-3.820313-8.53125-8.535157 0-4.710937 3.820313-8.53125 8.53125-8.53125h136.535157c4.710937 0 8.53125 3.820313 8.53125 8.53125 0 4.714844-3.820313 8.535157-8.53125 8.535157zm0 0"/><path d="m81.792969 416.242188c-4.101563-.011719-8.191407-.503907-12.179688-1.460938-14.367187-3.644531-27.039062-12.128906-35.882812-24.023438-19.628907-25.726562-17.921875-60.148437 3.796875-76.722656 21.714844-16.578125 55.371094-9.144531 75.007812 16.582032 9.136719 11.664062 13.980469 26.125 13.707032 40.941406-.074219 13.972656-6.519532 27.144531-17.507813 35.773437-7.746094 5.875-17.222656 9.007813-26.941406 8.910157zm-17.183594-94.058594c-6.023437-.097656-11.90625 1.808594-16.726563 5.417968-14.246093 10.875-14.507812 34.558594-.585937 52.808594 6.453125 8.757813 15.722656 15.03125 26.257813 17.765625 8.515624 2.382813 17.652343.757813 24.824218-4.410156 6.882813-5.554687 10.859375-13.941406 10.804688-22.785156.140625-10.878907-3.464844-21.476563-10.214844-30.015625-7.980469-11.179688-20.640625-18.097656-34.359375-18.78125zm0 0"/><path d="m24.898438 336.101562-21.84375-55.292968c-8.59375-21.445313 1.554687-45.824219 22.828124-54.832032l44.550782-19.117187c2.167968-.910156 4.449218-1.527344 6.78125-1.832031l2.042968 16.949218c-.757812.101563-1.496093.308594-2.199218.605469l-44.441406 19.074219c-12.753907 5.402344-18.84375 20.019531-13.691407 32.878906l21.847657 55.292969zm0 0"/><path d="m53.996094 316.898438-19.199219-48.632813c-1.695313-4.292969.332031-9.152344 4.570313-10.972656l34.21875-14.683594 6.734374 15.683594-26.609374 11.414062 16.160156 40.925781zm0 0"/><path d="m430.136719 416.175781c-9.714844.113281-19.195313-2.996093-26.957031-8.84375-10.984376-8.628906-17.429688-21.804687-17.5-35.773437-.175782-30.414063 20.203124-57.113282 49.585937-64.96875 13.496094-3.621094 27.90625-.878906 39.128906 7.445312 21.722657 16.574219 23.425781 50.996094 3.796875 76.722656-11.242187 15.425782-28.972656 24.804688-48.054687 25.417969zm17.238281-93.96875c-2.75.011719-5.488281.34375-8.160156.984375-21.480469 5.972656-36.378906 25.496094-36.472656 47.792969-.054688 8.839844 3.921874 17.226563 10.796874 22.78125 14.253907 10.875 37.164063 4.886719 51.089844-13.355469 13.925782-18.242187 13.65625-41.933594-.582031-52.808594-4.808594-3.597656-10.671875-5.492187-16.675781-5.394531zm0 0"/><path d="m487.023438 336.101562-15.871094-6.269531 21.847656-55.289062c5.15625-12.863281-.933594-27.488281-13.699219-32.886719l-44.535156-19.113281c-.671875-.277344-1.375-.46875-2.09375-.566407l2.042969-16.949218c2.292968.296875 4.535156.898437 6.671875 1.78125l44.652343 19.167968c21.277344 9.011719 31.429688 33.394532 22.828126 54.839844zm0 0"/><path d="m457.925781 316.898438-15.871093-6.265626 16.15625-40.925781-26.601563-11.414062 6.730469-15.683594 34.21875 14.683594c4.242187 1.820312 6.265625 6.679687 4.574218 10.972656zm0 0"/><path d="m204.695312 230.398438c-16.808593 0-25.597656-23.605469-25.597656-46.933594 0-23.324219 8.789063-46.929688 25.597656-46.929688 16.8125 0 25.601563 23.605469 25.601563 46.929688 0 23.328125-8.789063 46.933594-25.601563 46.933594zm-.167968-76.824219c-2.050782.785156-8.363282 11.152343-8.363282 29.890625 0 18.742187 6.3125 29.109375 8.703126 29.894531 2.046874-.785156 8.363281-11.152344 8.363281-29.894531 0-18.738282-6.316407-29.105469-8.703125-29.890625zm0 0"/><path d="m307.097656 230.398438c-16.8125 0-25.601562-23.605469-25.601562-46.933594 0-23.324219 8.789062-46.929688 25.601562-46.929688 16.808594 0 25.597656 23.605469 25.597656 46.929688 0 23.328125-8.789062 46.933594-25.597656 46.933594zm-.171875-76.824219c-2.046875.785156-8.363281 11.152343-8.363281 29.890625 0 18.742187 6.316406 29.109375 8.703125 29.894531 2.050781-.785156 8.363281-11.152344 8.363281-29.894531 0-18.738282-6.3125-29.105469-8.703125-29.890625zm0 0"/><path d="m172.554688 118.472656c4.644531 3.832032 9.664062 7.191406 14.980468 10.023438 4.996094 2.597656 10.21875 4.734375 15.605469 6.375 5.460937 1.28125 10.902344 2.488281 16.703125 3.472656 2.871094.707031 5.871094.855469 8.917969 1.65625 3.242187.417969 6.441406 1.113281 9.566406 2.070312l.316406.101563c1.207031.402344 2.070313 1.464844 2.21875 2.730469.144531 1.261718-.453125 2.496094-1.539062 3.160156-6.140625 3.640625-13.058594 5.757812-20.183594 6.183594-14.828125.867187-29.328125-4.59375-39.898437-15.027344-5.292969-5.09375-9-11.605469-10.675782-18.757812-.199218-.945313.21875-1.914063 1.042969-2.417969.824219-.503907 1.875-.433594 2.628906.171875zm0 0"/><path d="m343.21875 120.460938c-1.671875 7.152343-5.378906 13.664062-10.671875 18.757812-10.570313 10.433594-25.070313 15.894531-39.898437 15.027344-7.125-.425782-14.042969-2.542969-20.1875-6.183594-1.078126-.664062-1.675782-1.898438-1.527344-3.160156.144531-1.261719 1.007812-2.324219 2.210937-2.726563l.316407-.101562c3.128906-.957031 6.328124-1.652344 9.570312-2.070313 3.046875-.800781 6.046875-.949218 8.917969-1.65625 5.804687-.984375 11.242187-2.1875 16.703125-3.472656 5.382812-1.644531 10.609375-3.777344 15.601562-6.375 5.320313-2.832031 10.335938-6.191406 14.984375-10.027344l.308594-.246094c.75-.605468 1.800781-.675781 2.625-.171874.820313.5 1.242187 1.46875 1.046875 2.410156zm0 0"/><path d="m315.628906 315.734375c-4.710937 0-8.53125-3.820313-8.53125-8.535156-.019531-18.84375-15.292968-34.113281-34.136718-34.132813h-34.132813c-18.839844.019532-34.113281 15.289063-34.132813 34.132813 0 4.714843-3.820312 8.535156-8.53125 8.535156-4.714843 0-8.535156-3.820313-8.535156-8.535156.03125-28.261719 22.9375-51.167969 51.199219-51.199219h34.132813c28.265624.03125 51.171874 22.9375 51.203124 51.199219 0 4.714843-3.820312 8.535156-8.535156 8.535156zm0 0"/><path d="m264.429688 307.199219h-17.066407c-4.714843 0-8.535156-3.820313-8.535156-8.53125 0-4.714844 3.820313-8.535157 8.535156-8.535157h17.066407c4.710937 0 8.53125 3.820313 8.53125 8.535157 0 4.710937-3.820313 8.53125-8.53125 8.53125zm0 0"/><path d="m418.03125 51.199219h-17.070312c-4.710938 0-8.53125-3.820313-8.53125-8.53125 0-4.714844 3.820312-8.535157 8.53125-8.535157h17.070312c4.710938-.003906 8.527344-3.820312 8.53125-8.53125v-17.066406c0-4.714844 3.820312-8.535156 8.535156-8.535156 4.710938 0 8.53125 3.820312 8.53125 8.535156v17.066406c-.015625 14.128907-11.46875 25.582032-25.597656 25.597657zm0 0"/><path d="m503.363281 51.199219h-17.066406c-14.132813-.015625-25.585937-11.46875-25.601563-25.597657v-17.066406c0-4.714844 3.820313-8.535156 8.535157-8.535156 4.710937 0 8.53125 3.820312 8.53125 8.535156v17.066406c.003906 4.710938 3.824219 8.527344 8.535156 8.53125h17.066406c4.710938 0 8.53125 3.820313 8.53125 8.535157 0 4.710937-3.820312 8.53125-8.53125 8.53125zm0 0"/><path d="m435.097656 119.464844c-4.714844 0-8.535156-3.820313-8.535156-8.53125v-17.066406c-.003906-4.710938-3.820312-8.53125-8.53125-8.535157h-17.070312c-4.710938 0-8.53125-3.820312-8.53125-8.53125 0-4.714843 3.820312-8.535156 8.53125-8.535156h17.070312c14.128906.015625 25.582031 11.46875 25.597656 25.601563v17.066406c0 2.261718-.898437 4.433594-2.5 6.035156-1.597656 1.597656-3.769531 2.496094-6.03125 2.496094zm0 0"/><path d="m469.230469 119.464844c-4.714844 0-8.535157-3.820313-8.535157-8.53125v-17.066406c.015626-14.132813 11.46875-25.585938 25.601563-25.601563h17.066406c4.710938 0 8.53125 3.820313 8.53125 8.535156 0 4.710938-3.820312 8.53125-8.53125 8.53125h-17.066406c-4.710937.003907-8.53125 3.824219-8.535156 8.535157v17.066406c0 4.710937-3.820313 8.53125-8.53125 8.53125zm0 0"/><path d="m272.960938 68.265625h-34.132813c-9.417969-.011719-17.054687-7.644531-17.066406-17.066406v-25.597657c.011719-9.421874 7.648437-17.058593 17.066406-17.066406h34.132813c9.421874.007813 17.058593 7.644532 17.070312 17.066406v25.597657c-.011719 9.421875-7.648438 17.054687-17.070312 17.066406zm-34.132813-42.664063v25.597657h34.148437l-.015624-25.597657zm0 0"/><path d="m179.121094 76.792969c-3.808594.003906-7.515625-1.238281-10.550782-3.542969-4.121093-3.101562-6.542968-7.960938-6.539062-13.117188v-43.464843c-.003906-5.160157 2.417969-10.015625 6.539062-13.117188 4.308594-3.265625 9.886719-4.347656 15.105469-2.933593l48.863281 13.292968c4.546876 1.238282 7.230469 5.925782 5.992188 10.476563-1.238281 4.546875-5.929688 7.230469-10.476562 5.992187l-48.855469-13.296875-.101563 43.050781 48.957032-13.710937c4.546874-1.238281 9.238281 1.445313 10.476562 5.992187 1.238281 4.546876-1.445312 9.238282-5.992188 10.476563l-48.855468 13.292969c-1.488282.402344-3.023438.609375-4.5625.609375zm0 0"/><path d="m332.671875 76.792969c-1.539063 0-3.074219-.203125-4.558594-.609375l-48.859375-13.292969c-4.546875-1.238281-7.230468-5.929687-5.992187-10.476563 1.238281-4.546874 5.929687-7.230468 10.476562-5.992187l48.855469 13.292969.101562-43.046875-48.957031 13.710937c-4.546875 1.238282-9.238281-1.445312-10.476562-5.992187-1.238281-4.550781 1.445312-9.238281 5.992187-10.476563l48.855469-13.292968c5.21875-1.410157 10.796875-.328126 15.113281 2.933593 4.117188 3.101563 6.542969 7.957031 6.539063 13.117188v43.464843c.003906 5.15625-2.421875 10.015626-6.539063 13.117188-3.035156 2.304688-6.742187 3.546875-10.550781 3.542969zm0 0"/><path d="m163.453125 160.726562c2.375 1.253907 5.105469 1.679688 7.75 1.207032 2.046875-.6875 3.890625-1.878906 5.355469-3.464844 1.675781-1.800781 3.6875-3.601562 5.546875-5.910156 2.070312-2.367188 4.332031-4.558594 6.757812-6.554688l-2.527343 5.820313c.027343-.953125.214843-1.898438.554687-2.789063 1.265625-3.359375 4.484375-5.582031 8.078125-5.574218 4.714844 0 8.535156 3.820312 8.535156 8.53125 0 4.714843-3.820312 8.535156-8.535156 8.535156.96875.003906 1.929688-.164063 2.84375-.488282 2.339844-.835937 4.199219-2.65625 5.078125-4.984374.332031-.871094.515625-1.789063.539063-2.722657l-2.527344 5.824219c-2.152344 2.664062-4.621094 5.058594-7.359375 7.121094-3.113281 2.402344-6.566407 4.328125-10.246094 5.71875-4.292969 1.738281-9.054687 1.964844-13.496094.644531-3.992187-1.40625-7.28125-4.296875-9.191406-8.070313-.425781-.789062-.300781-1.761718.3125-2.417968.609375-.660156 1.570313-.855469 2.390625-.488282zm0 0"/><path d="m350.890625 163.273438c-1.9375 3.601562-5.136719 6.363281-8.984375 7.746093-4.332031 1.339844-8.984375 1.214844-13.238281-.347656-3.75-1.199219-7.273438-3.023437-10.421875-5.390625-2.761719-2.035156-5.234375-4.429688-7.355469-7.125l-2.53125-5.824219c.023437.933594.207031 1.855469.542969 2.722657.878906 2.328124 2.738281 4.148437 5.078125 4.984374.914062.324219 1.875.492188 2.84375.488282-3.394531-.015625-6.460938-2.039063-7.804688-5.160156-1.339843-3.121094-.707031-6.738282 1.617188-9.214844 2.324219-2.476563 5.898437-3.335938 9.09375-2.191406 2.386719.847656 4.277343 2.707031 5.175781 5.074218.339844.890625.527344 1.835938.554688 2.789063l-2.53125-5.824219c4.421874 3.890625 8.480468 8.171875 12.128906 12.792969 1.472656 1.769531 3.421875 3.074219 5.621094 3.761719 2.746093.398437 5.550781-.140626 7.957031-1.53125l.085937-.042969c.390625-.195313.84375-.226563 1.257813-.085938.414062.140625.757812.441407.953125.832031.238281.492188.222656 1.070313-.042969 1.546876zm0 0"/></svg>