<svg height="511pt" viewBox="0 0 511 511.99135" width="511pt" xmlns="http://www.w3.org/2000/svg"><path d="m77.449219 250.445312-34.21875 14.675782 19.199219 48.640625-29.097657 19.199219-21.847656-55.292969c-6.863281-17.15625 1.25-36.648438 18.261719-43.863281l44.542968-19.113282c1.421876-.597656 2.914063-1 4.4375-1.195312zm0 0" fill="#ff5722"/><path d="m472.457031 93.089844 30.378907 111.871094c2.578124 10.210937.300781 21.035156-6.167969 29.34375-6.472657 8.304687-16.414063 13.160156-26.941407 13.152343h-34.304687l-1.367187-34.132812h35.671874l-29.269531-108.03125zm0 0" fill="#ff5722"/><path d="m435.59375 238.925781c.925781 65.34375-29.976562 127.0625-82.859375 165.460938l-97.28125 72.53125-12.714844-9.640625-82.6875-62.890625c-16.207031-11.371094-30.496093-25.253907-42.324219-41.132813l-22.613281-38.65625c-10.3125-23.449218-16.296875-48.570312-17.664062-74.152344-.171875-3.839843-.257813-7.679687-.257813-11.519531-.007812-8.5.503906-16.992187 1.535156-25.429687 10.839844-91.820313 79.617188-163.753906 164.867188-170.242188 4.265625-.425781 8.53125-.597656 12.796875-.597656 98.988281 0 179.203125 87.894531 179.203125 196.269531zm0 0" fill="#fec108"/><path d="m409.992188 238.925781c.929687 65.34375-29.976563 127.0625-82.859376 165.460938l-84.394531 62.890625-82.6875-62.890625c-16.207031-11.371094-30.496093-25.253907-42.324219-41.132813l-22.613281-38.65625c-10.3125-23.449218-16.296875-48.570312-17.664062-74.152344-.171875-3.839843-.257813-7.679687-.257813-11.519531-.007812-8.5.503906-16.992187 1.535156-25.429687 10.839844-91.820313 79.617188-163.753906 164.867188-170.242188 93.011719 7.085938 166.398438 91.992188 166.398438 195.671875zm0 0" fill="#ffdc00"/><path d="m256.390625 460.792969v25.597656c-.027344 9.414063-7.652344 17.039063-17.066406 17.066406h-102.398438c-9.414062-.027343-17.039062-7.652343-17.066406-17.066406v-25.597656c-.070313-31.34375 24.195313-57.363281 55.464844-59.480469 1.417969-.167969 2.839843-.253906 4.269531-.253906h17.066406c15.84375-.011719 31.042969 6.277344 42.25 17.480468 11.203125 11.207032 17.492188 26.40625 17.480469 42.253907zm0 0" fill="#283593"/><path d="m230.792969 460.792969v25.597656c-.027344 9.414063-7.652344 17.039063-17.066407 17.066406h-76.800781c-9.414062-.027343-17.039062-7.652343-17.066406-17.066406v-25.597656c-.070313-31.34375 24.195313-57.363281 55.464844-59.480469 31.273437 2.117188 55.535156 28.136719 55.46875 59.480469zm0 0" fill="#3f51b5"/><path d="m392.925781 460.792969v25.597656c-.027343 9.414063-7.652343 17.039063-17.066406 17.066406h-102.402344c-9.414062-.027343-17.039062-7.652343-17.066406-17.066406v-25.597656c-.066406-31.34375 24.195313-57.363281 55.46875-59.480469 1.414063-.167969 2.839844-.253906 4.265625-.253906h17.066406c15.847656-.011719 31.046875 6.277344 42.25 17.480468 11.207032 11.207032 17.496094 26.40625 17.484375 42.253907zm0 0" fill="#283593"/><path d="m367.324219 460.792969v25.597656c-.027344 9.414063-7.652344 17.039063-17.066407 17.066406h-76.800781c-9.414062-.027343-17.039062-7.652343-17.066406-17.066406v-25.597656c-.066406-31.34375 24.195313-57.363281 55.46875-59.480469 31.269531 2.117188 55.535156 28.136719 55.464844 59.480469zm0 0" fill="#3f51b5"/><path d="m106.246094 335.78125c-16.804688-22.019531-45.03125-28.722656-63.046875-14.972656s-18.996094 42.746094-2.191407 64.765625c16.804688 22.015625 45.03125 28.71875 63.046876 14.972656 18.015624-13.75 18.996093-42.746094 2.191406-64.765625zm0 0" fill="#ff9801"/><path d="m460.59375 102.390625c-8.882812 4.046875-19.003906 4.414063-28.160156 1.023437-13.570313-5.097656-24.558594-15.382812-30.546875-28.585937-11.949219-25.003906-5.035157-53.246094 15.445312-62.976563.765625-.339843 1.621094-.679687 2.472657-1.023437 20.054687-7.679687 44.628906 4.609375 56.148437 28.671875 11.949219 25.003906 5.121094 53.164062-15.359375 62.890625zm0 0" fill="#f57c00"/><path d="m434.996094 102.390625c-.824219.414063-1.679688.757813-2.5625 1.023437-13.570313-5.097656-24.558594-15.382812-30.546875-28.585937-11.949219-25.003906-5.035157-53.246094 15.445312-62.976563.765625-.339843 1.621094-.679687 2.472657-1.023437 13.546874 5.1875 24.515624 15.484375 30.550781 28.671875 11.945312 25.003906 5.117187 53.164062-15.359375 62.890625zm0 0" fill="#ff9801"/><path d="m281.992188 22.136719 48.855468-13.292969c2.511719-.753906 5.230469-.296875 7.359375 1.234375 2.128907 1.527344 3.429688 3.957031 3.519531 6.578125v43.46875c-.089843 2.621094-1.390624 5.050781-3.519531 6.582031-2.128906 1.527344-4.847656 1.984375-7.359375 1.234375l-48.855468-13.296875h-51.199219l-48.855469 13.296875c-2.511719.75-5.230469.292969-7.359375-1.234375-2.128906-1.53125-3.429687-3.960937-3.519531-6.582031v-43.46875c.089844-2.621094 1.390625-5.050781 3.519531-6.578125 2.128906-1.53125 4.847656-1.988281 7.359375-1.234375l48.855469 13.292969zm0 0" fill="#6a1b9a"/><path d="m239.324219 17.058594h34.132812c4.714844 0 8.535157 3.820312 8.535157 8.53125v25.601562c0 4.710938-3.820313 8.535156-8.535157 8.535156h-34.132812c-4.710938 0-8.53125-3.824218-8.53125-8.535156v-25.601562c0-4.710938 3.820312-8.53125 8.53125-8.53125zm0 0" fill="#9d27b0"/><path d="m222.257812 166.390625c0-21.207031-7.640624-38.398437-17.066406-38.398437-9.425781 0-17.066406 17.191406-17.066406 38.398437s7.640625 38.402344 17.066406 38.402344c9.425782 0 17.066406-17.195313 17.066406-38.402344zm0 0" fill="#3f51b5"/><path d="m214.671875 149.324219c0-11.78125-4.242187-21.332031-9.480469-21.332031-5.234375 0-9.480468 9.550781-9.480468 21.332031s4.246093 21.332031 9.480468 21.332031c5.238282 0 9.480469-9.550781 9.480469-21.332031zm0 0" fill="#f5f5f5"/><path d="m324.660156 166.390625c0-21.207031-7.644531-38.398437-17.066406-38.398437-9.425781 0-17.070312 17.191406-17.070312 38.398437s7.644531 38.402344 17.070312 38.402344c9.421875 0 17.066406-17.195313 17.066406-38.402344zm0 0" fill="#3f51b5"/><path d="m317.074219 149.324219c0-11.78125-4.246094-21.332031-9.480469-21.332031-5.238281 0-9.484375 9.550781-9.484375 21.332031s4.246094 21.332031 9.484375 21.332031c5.234375 0 9.480469-9.550781 9.480469-21.332031zm0 0" fill="#f5f5f5"/><path d="m160.042969 412.917969c-1.742188 0-3.445313-.535157-4.871094-1.535157-16.960937-11.878906-31.90625-26.398437-44.273437-43.007812-1.90625-2.433594-2.347657-5.710938-1.152344-8.5625 1.191406-2.851562 3.839844-4.835938 6.914062-5.183594 3.070313-.347656 6.09375 1 7.894532 3.511719 11.28125 15.152344 24.914062 28.398437 40.378906 39.242187 3.054687 2.132813 4.375 6.003907 3.253906 9.558594-1.117188 3.554688-4.414062 5.972656-8.140625 5.972656zm0 0"/><path d="m352.742188 412.917969c-3.726563.003906-7.019532-2.414063-8.140626-5.964844-1.121093-3.554687.191407-7.421875 3.246094-9.558594 50.65625-36.753906 80.21875-95.890625 79.210938-158.46875 0-69.992187-35.054688-133.691406-91.476563-166.257812-4.082031-2.359375-5.480469-7.578125-3.125-11.660157 2.355469-4.082031 7.574219-5.480468 11.65625-3.125 61.6875 35.601563 100.011719 104.976563 100.011719 181.042969 1.007812 68.148438-31.273438 132.507813-86.503906 172.449219-1.429688 1.003906-3.132813 1.542969-4.878906 1.542969zm0 0"/><path d="m95.117188 333.132812c-3.378907 0-6.441407-1.992187-7.8125-5.082031-10.742188-24.390625-16.96875-50.527343-18.378907-77.144531-.183593-4.046875-.265625-8.015625-.265625-11.980469-.011718-8.851562.523438-17.699219 1.597656-26.484375 6.683594-64.128906 43.140626-121.382812 98.425782-154.566406 4.085937-2.351562 9.304687-.941406 11.65625 3.144531 2.347656 4.089844.9375 9.304688-3.148438 11.65625-50.625 30.492188-83.957031 83.023438-89.988281 141.816407-.992187 8.105468-1.484375 16.265624-1.476563 24.433593 0 3.714844.082032 7.425781.246094 11.132813 1.300782 24.527344 7.042969 48.613281 16.949219 71.089844 1.164063 2.640624.917969 5.691406-.65625 8.109374-1.574219 2.417969-4.261719 3.875-7.148437 3.875zm0 0"/><path d="m239.324219 511.992188h-102.398438c-14.132812-.015626-25.585937-11.46875-25.601562-25.601563v-25.597656c.042969-37.6875 30.582031-68.226563 68.269531-68.269531h17.066406c37.683594.042968 68.222656 30.582031 68.265625 68.269531v25.597656c-.015625 14.132813-11.46875 25.585937-25.601562 25.601563zm-59.730469-102.402344c-28.265625.03125-51.171875 22.9375-51.203125 51.203125v25.597656c.003906 4.710937 3.824219 8.53125 8.535156 8.535156h102.398438c4.710937-.003906 8.53125-3.824219 8.535156-8.535156v-25.597656c-.03125-28.265625-22.9375-51.171875-51.199219-51.203125zm0 0"/><path d="m256.390625 477.859375h-136.53125c-4.714844 0-8.535156-3.820313-8.535156-8.535156 0-4.710938 3.820312-8.53125 8.535156-8.53125h136.53125c4.714844 0 8.535156 3.820312 8.535156 8.53125 0 4.714843-3.820312 8.535156-8.535156 8.535156zm0 0"/><path d="m375.859375 511.992188h-102.402344c-14.128906-.015626-25.582031-11.46875-25.597656-25.601563v-25.597656c.042969-37.6875 30.582031-68.226563 68.265625-68.269531h17.066406c37.683594.042968 68.222656 30.582031 68.265625 68.269531v25.597656c-.015625 14.132813-11.464843 25.585937-25.597656 25.601563zm-59.734375-102.402344c-28.265625.03125-51.167969 22.9375-51.199219 51.203125v25.597656c.003907 4.710937 3.820313 8.53125 8.53125 8.535156h102.402344c4.710937-.003906 8.527344-3.824219 8.53125-8.535156v-25.597656c-.03125-28.265625-22.933594-51.171875-51.199219-51.203125zm0 0"/><path d="m392.925781 477.859375h-136.535156c-4.710937 0-8.53125-3.820313-8.53125-8.535156 0-4.710938 3.820313-8.53125 8.53125-8.53125h136.535156c4.710938 0 8.53125 3.820312 8.53125 8.53125 0 4.714843-3.820312 8.535156-8.53125 8.535156zm0 0"/><path d="m205.191406 213.324219c-16.808594 0-25.597656-23.609375-25.597656-46.933594s8.789062-46.933594 25.597656-46.933594c16.8125 0 25.601563 23.609375 25.601563 46.933594s-8.789063 46.933594-25.601563 46.933594zm-.171875-76.824219c-2.046875.785156-8.359375 11.148438-8.359375 29.890625s6.3125 29.109375 8.703125 29.890625c2.046875-.78125 8.363281-11.148438 8.363281-29.890625s-6.316406-29.105469-8.707031-29.890625zm0 0"/><path d="m307.59375 213.324219c-16.8125 0-25.601562-23.609375-25.601562-46.933594s8.789062-46.933594 25.601562-46.933594c16.808594 0 25.597656 23.609375 25.597656 46.933594s-8.789062 46.933594-25.597656 46.933594zm-.171875-76.824219c-2.046875.785156-8.363281 11.148438-8.363281 29.890625s6.316406 29.109375 8.703125 29.890625c2.046875-.78125 8.363281-11.148438 8.363281-29.890625s-6.316406-29.105469-8.703125-29.890625zm0 0"/><path d="m229.136719 103.679688c-9.644531-3.75-20.175781-4.605469-30.300781-2.460938-4.835938 1.554688-9.347657 3.980469-13.3125 7.152344-2.179688 1.539062-3.980469 3.640625-6.203126 5.359375-1.953124 2.019531-3.78125 4.179687-5.945312 6.199219l-.253906.238281c-.9375.871093-2.351563.976562-3.40625.253906-1.050782-.726563-1.457032-2.085937-.976563-3.269531 1.167969-2.871094 2.613281-5.640625 4.035157-8.472656 1.703124-2.730469 3.621093-5.320313 5.730468-7.75 4.539063-5.070313 10.28125-8.917969 16.695313-11.191407 6.59375-2.300781 13.726562-2.546875 20.460937-.710937 6.476563 1.695312 12.3125 5.253906 16.78125 10.242187.820313.941407.917969 2.3125.242188 3.363281-.675782 1.046876-1.96875 1.523438-3.164063 1.164063zm0 0"/><path d="m280.339844 99.269531c4.464844-4.984375 10.300781-8.546875 16.78125-10.238281 6.734375-1.835938 13.867187-1.589844 20.460937.707031 6.414063 2.273438 12.152344 6.121094 16.691407 11.195313 2.113281 2.425781 4.03125 5.015625 5.734374 7.746094 1.421876 2.832031 2.867188 5.601562 4.035157 8.472656.480469 1.183594.074219 2.542968-.976563 3.269531-1.054687.722656-2.46875.621094-3.402344-.25l-.257812-.238281c-2.164062-2.019532-3.992188-4.183594-5.941406-6.203125-2.21875-1.71875-4.027344-3.820313-6.207032-5.355469-3.964843-3.175781-8.476562-5.601562-13.3125-7.152344-10.125-2.148437-20.65625-1.292968-30.300781 2.457032l-.378906.117187c-1.199219.359375-2.488281-.113281-3.167969-1.160156-.679687-1.050781-.582031-2.421875.238282-3.363281zm0 0"/><path d="m82.289062 416.234375c-4.105468-.015625-8.191406-.503906-12.179687-1.460937-14.367187-3.644532-27.039063-12.128907-35.882813-24.023438-19.628906-25.726562-17.921874-60.148438 3.792969-76.726562 21.71875-16.574219 55.375-9.140626 75.007813 16.585937 9.140625 11.664063 13.984375 26.121094 13.710937 40.941406-.074219 13.96875-6.519531 27.144531-17.507812 35.773438-7.746094 5.875-17.222657 9.007812-26.941407 8.910156zm-17.183593-94.058594c-6.023438-.097656-11.90625 1.804688-16.726563 5.414063-14.246094 10.875-14.507812 34.5625-.585937 52.808594 6.453125 8.761718 15.722656 15.035156 26.257812 17.769531 8.515625 2.382812 17.652344.757812 24.824219-4.410157 6.878906-5.554687 10.855469-13.941406 10.804688-22.785156.140624-10.878906-3.464844-21.480468-10.214844-30.015625-7.984375-11.179687-20.640625-18.101562-34.359375-18.78125zm0 0"/><path d="m445.648438 114.300781c-7.355469-.0625-14.609376-1.753906-21.234376-4.949219-13.339843-6.503906-24.027343-17.414062-30.25-30.886718-13.925781-29.207032-5.183593-62.539063 19.480469-74.308594 24.667969-11.78125 56.082031 2.433594 70.003907 31.644531 6.546874 13.289063 8.335937 28.421875 5.0625 42.867188-2.898438 13.667969-11.902344 25.25-24.425782 31.433593-5.820312 2.777344-12.1875 4.210938-18.636718 4.199219zm-13.332032-97.261719c-3.914062-.015624-7.785156.84375-11.324218 2.519532-16.175782 7.714844-21.300782 30.847656-11.421876 51.558594 4.523438 9.914062 12.328126 17.960937 22.097657 22.792968 7.863281 4.089844 17.164062 4.382813 25.269531.789063 7.859375-4.015625 13.453125-11.402344 15.191406-20.058594 2.339844-10.632813.96875-21.746094-3.886718-31.488281-6.125-14.757813-20-24.839844-35.925782-26.113282zm0 0"/><path d="m25.394531 336.089844-21.84375-55.289063c-8.59375-21.445312 1.554688-45.824219 22.828125-54.835937l44.550782-19.113282c2.167968-.914062 4.449218-1.527343 6.78125-1.832031l2.039062 16.945313c-.753906.105468-1.492188.308594-2.195312.609375l-44.441407 19.074219c-12.753906 5.402343-18.84375 20.015624-13.691406 32.875l21.847656 55.296874zm0 0"/><path d="m54.492188 316.890625-19.199219-48.632813c-1.695313-4.292968.332031-9.152343 4.570312-10.972656l34.21875-14.683594 6.734375 15.683594-26.609375 11.414063 16.15625 40.925781zm0 0"/><path d="m469.726562 221.859375h-35.671874c-4.710938 0-8.53125-3.820313-8.53125-8.535156 0-4.710938 3.820312-8.53125 8.53125-8.53125h24.519531l-26.355469-97.269531c-1.234375-4.546876 1.453125-9.234376 6.003906-10.46875 4.546875-1.234376 9.234375 1.453124 10.46875 6.003906l29.269532 108.03125c.695312 2.566406.15625 5.308594-1.457032 7.417968-1.613281 2.113282-4.121094 3.351563-6.777344 3.351563zm0 0"/><path d="m469.726562 255.992188h-34.304687c-4.714844 0-8.535156-3.820313-8.535156-8.535157 0-4.710937 3.820312-8.53125 8.535156-8.53125h34.304687c7.917969.003907 15.394532-3.65625 20.246094-9.914062 4.855469-6.257813 6.539063-14.410157 4.5625-22.078125l-30.3125-111.609375c-.855468-2.960938-.046875-6.152344 2.113282-8.347657 2.160156-2.199218 5.335937-3.058593 8.3125-2.257812 2.972656.804688 5.285156 3.152344 6.042968 6.140625l30.378906 111.863281c3.253907 12.902344.355469 26.585938-7.851562 37.058594-8.085938 10.257812-20.433594 16.234375-33.492188 16.210938zm0 0"/><path d="m256.390625 307.191406c-33.988281.011719-62.914063-24.75-68.148437-58.332031-.722657-4.621094 2.402343-8.960937 7.011718-9.734375 4.609375-.777344 8.988282 2.300781 9.816406 6.898438.3125 1.800781 8.15625 44.101562 51.320313 44.101562 43.472656 0 51.019531-42.265625 51.316406-44.066406.457031-3.050782 2.519531-5.617188 5.402344-6.714844 2.878906-1.097656 6.128906-.558594 8.496094 1.414062 2.371093 1.972657 3.492187 5.070313 2.9375 8.101563-5.234375 33.582031-34.160157 58.34375-68.152344 58.332031zm0 0"/><path d="m256.390625 341.324219c-27.730469 0-38.324219-9.191407-40.164063-11.03125-3.234374-3.308594-3.246093-8.589844-.027343-11.910157 3.21875-3.320312 8.496093-3.472656 11.902343-.339843.484376.390625 8.035157 6.214843 28.289063 6.214843 20.863281 0 28.246094-6.175781 28.316406-6.242187 3.488281-3.035156 8.746094-2.800781 11.949219.535156 3.164062 3.289063 3.121094 8.503907-.097656 11.742188-1.84375 1.839843-12.433594 11.03125-40.167969 11.03125zm0 0"/><path d="m273.457031 68.257812h-34.132812c-9.421875-.011718-17.054688-7.644531-17.066407-17.066406v-25.601562c.011719-9.417969 7.644532-17.054688 17.066407-17.066406h34.132812c9.421875.011718 17.058594 7.648437 17.066407 17.066406v25.601562c-.007813 9.421875-7.644532 17.054688-17.066407 17.066406zm-34.132812-42.667968v25.601562h34.148437l-.015625-25.601562zm0 0"/><path d="m179.617188 76.78125c-3.808594.007812-7.515626-1.238281-10.550782-3.539062-4.121094-3.101563-6.542968-7.960938-6.542968-13.117188v-43.46875c0-5.15625 2.421874-10.011719 6.542968-13.113281 4.308594-3.265625 9.886719-4.347657 15.105469-2.933594l48.863281 13.292969c4.546875 1.238281 7.230469 5.925781 5.992188 10.476562-1.238282 4.546875-5.929688 7.230469-10.476563 5.992188l-48.855469-13.296875-.101562 43.050781 48.957031-13.710938c4.546875-1.238281 9.238281 1.445313 10.476563 5.992188 1.238281 4.546875-1.445313 9.238281-5.992188 10.476562l-48.855468 13.292969c-1.488282.402344-3.023438.609375-4.5625.605469zm0 0"/><path d="m333.167969 76.78125c-1.539063.003906-3.074219-.203125-4.558594-.605469l-48.859375-13.292969c-4.546875-1.238281-7.230469-5.929687-5.992188-10.476562 1.238282-4.546875 5.929688-7.230469 10.476563-5.992188l48.851563 13.292969.105468-43.050781-48.957031 13.714844c-4.546875 1.238281-9.238281-1.445313-10.476563-5.992188-1.238281-4.550781 1.445313-9.238281 5.992188-10.476562l48.855469-13.292969c5.21875-1.410156 10.796875-.328125 15.113281 2.933594 4.117188 3.101562 6.542969 7.957031 6.539062 13.113281v43.46875c.003907 5.15625-2.421874 10.015625-6.539062 13.117188-3.035156 2.300781-6.742188 3.546874-10.550781 3.539062zm0 0"/><path d="m163.949219 143.636719c2.375 1.253906 5.105469 1.679687 7.75 1.207031 2.046875-.6875 3.890625-1.878906 5.355469-3.464844 1.675781-1.800781 3.683593-3.601562 5.546874-5.910156 2.070313-2.367188 4.332032-4.558594 6.757813-6.554688l-2.527344 5.820313c.023438-.953125.210938-1.898437.554688-2.789063.894531-2.371093 2.785156-4.226562 5.167969-5.074218 3.203124-1.160156 6.789062-.304688 9.125 2.175781 2.335937 2.480469 2.972656 6.109375 1.621093 9.238281-1.351562 3.125-4.429687 5.152344-7.835937 5.152344.96875 0 1.929687-.164062 2.839844-.488281 2.34375-.835938 4.199218-2.660157 5.082031-4.984375.332031-.871094.515625-1.792969.539062-2.722656l-2.53125 5.820312c-2.148437 2.667969-4.621093 5.0625-7.355469 7.125-3.113281 2.398438-6.566406 4.328125-10.246093 5.714844-4.296875 1.742187-9.054688 1.96875-13.5.648437-3.988281-1.40625-7.28125-4.296875-9.191407-8.070312-.421874-.792969-.296874-1.765625.3125-2.421875.613282-.65625 1.574219-.851563 2.394532-.488282zm0 0"/><path d="m351.386719 146.183594c-1.9375 3.601562-5.136719 6.363281-8.988281 7.746094-4.328126 1.339843-8.980469 1.214843-13.234376-.347657-3.753906-1.199219-7.273437-3.023437-10.421874-5.394531-2.761719-2.03125-5.234376-4.425781-7.355469-7.121094l-2.53125-5.820312c.023437.929687.207031 1.851562.542969 2.722656.878906 2.324219 2.734374 4.148438 5.078124 4.984375.914063.324219 1.875.492187 2.84375.488281-3.394531-.015625-6.460937-2.042968-7.800781-5.160156-1.34375-3.121094-.707031-6.738281 1.617188-9.214844 2.324219-2.476562 5.894531-3.335937 9.089843-2.195312 2.386719.851562 4.277344 2.707031 5.171876 5.078125.34375.890625.53125 1.835937.558593 2.789062l-2.53125-5.824219c4.421875 3.890626 8.480469 8.167969 12.128907 12.789063 1.46875 1.773437 3.421874 3.078125 5.621093 3.761719 2.746094.402344 5.550781-.140625 7.957031-1.53125l.085938-.039063c.390625-.195312.84375-.226562 1.257812-.085937.414063.140625.757813.441406.949219.832031.242188.492187.226563 1.066406-.039062 1.542969zm0 0"/></svg>