<svg height="512pt" viewBox="0 0 512.01942 512" width="512pt" xmlns="http://www.w3.org/2000/svg"><path d="m472.09375 93.128906 30.378906 111.871094c2.582032 10.207031.304688 21.035156-6.167968 29.339844-6.46875 8.304687-16.410157 13.160156-26.941407 13.15625h-34.304687l-1.363282-34.132813h35.667969l-29.269531-108.03125zm0 0" fill="#ff5722"/><path d="m39.953125 93.128906-30.378906 111.871094c-2.582031 10.207031-.304688 21.035156 6.167969 29.339844 6.46875 8.304687 16.410156 13.160156 26.941406 13.15625h34.304687l1.363281-34.132813h-35.667968l29.269531-108.03125zm0 0" fill="#ff5722"/><path d="m435.230469 238.960938c.929687 65.347656-29.976563 127.0625-82.859375 165.460937l-97.277344 72.535156-12.714844-9.644531-82.6875-62.890625c-16.210937-11.367187-30.496094-25.253906-42.328125-41.128906l-22.613281-38.65625c-10.308594-23.449219-16.292969-48.574219-17.664062-74.15625-.167969-3.839844-.253907-7.679688-.253907-11.519531-.011719-8.5.503907-16.992188 1.535157-25.429688 10.835937-91.816406 79.617187-163.753906 164.863281-170.238281 4.265625-.425781 8.535156-.597657 12.800781-.597657 98.988281 0 179.199219 87.894532 179.199219 196.265626zm0 0" fill="#fec108"/><path d="m409.632812 238.960938c.929688 65.347656-29.976562 127.0625-82.859374 165.460937l-84.394532 62.890625-82.6875-62.890625c-16.210937-11.367187-30.496094-25.253906-42.328125-41.128906l-22.613281-38.65625c-10.308594-23.449219-16.292969-48.574219-17.664062-74.15625-.167969-3.839844-.253907-7.679688-.253907-11.519531-.011719-8.5.503907-16.992188 1.535157-25.429688 10.835937-91.816406 79.617187-163.753906 164.863281-170.238281 93.015625 7.082031 166.402343 91.988281 166.402343 195.667969zm0 0" fill="#ffdc00"/><path d="m256.03125 460.828125v25.601563c-.027344 9.414062-7.652344 17.039062-17.066406 17.066406h-102.402344c-9.414062-.027344-17.039062-7.652344-17.066406-17.066406v-25.601563c-.066406-31.34375 24.195312-57.359375 55.46875-59.476563 1.414062-.171874 2.839844-.257812 4.265625-.257812h17.066406c15.847656-.011719 31.046875 6.28125 42.25 17.484375 11.207031 11.203125 17.496094 26.40625 17.484375 42.25zm0 0" fill="#283593"/><path d="m230.429688 460.828125v25.601563c-.027344 9.414062-7.652344 17.039062-17.066407 17.066406h-76.800781c-9.414062-.027344-17.039062-7.652344-17.066406-17.066406v-25.601563c-.066406-31.34375 24.195312-57.359375 55.46875-59.476563 31.269531 2.117188 55.535156 28.132813 55.464844 59.476563zm0 0" fill="#3f51b5"/><path d="m392.5625 460.828125v25.601563c-.027344 9.414062-7.652344 17.039062-17.066406 17.066406h-102.398438c-9.414062-.027344-17.039062-7.652344-17.066406-17.066406v-25.601563c-.070312-31.34375 24.195312-57.359375 55.464844-59.476563 1.417968-.171874 2.84375-.257812 4.269531-.257812h17.066406c15.84375-.011719 31.046875 6.28125 42.25 17.484375s17.492188 26.40625 17.480469 42.25zm0 0" fill="#283593"/><path d="m366.964844 460.828125v25.601563c-.027344 9.414062-7.652344 17.039062-17.066406 17.066406h-76.800782c-9.414062-.027344-17.039062-7.652344-17.066406-17.066406v-25.601563c-.070312-31.34375 24.195312-57.359375 55.464844-59.476563 31.273437 2.117188 55.535156 28.132813 55.46875 59.476563zm0 0" fill="#3f51b5"/><path d="m460.234375 102.429688c-8.882813 4.046874-19.007813 4.414062-28.160156 1.023437-13.574219-5.101563-24.5625-15.382813-30.550781-28.585937-11.945313-25.003907-5.035157-53.25 15.445312-62.976563.769531-.34375 1.621094-.683594 2.476562-1.023437 20.050782-7.679688 44.628907 4.605468 56.148438 28.671874 11.945312 25 5.121094 53.160157-15.359375 62.890626zm0 0" fill="#f57c00"/><path d="m434.632812 102.429688c-.820312.414062-1.679687.757812-2.558593 1.023437-13.574219-5.101563-24.5625-15.382813-30.550781-28.585937-11.945313-25.003907-5.035157-53.25 15.445312-62.976563.769531-.34375 1.621094-.683594 2.476562-1.023437 13.542969 5.1875 24.515626 15.480468 30.546876 28.671874 11.949218 25 5.121093 53.160157-15.359376 62.890626zm0 0" fill="#ff9801"/><path d="m36.460938 39.507812c-11.917969 25.003907-5.125 53.179688 15.332031 62.929688 20.457031 9.753906 46.828125-2.609375 58.75-27.609375 11.917969-25.003906 4.996093-53.175781-15.457031-62.929687-20.457032-9.753907-46.703126 2.609374-58.625 27.609374zm0 0" fill="#ff9801"/><path d="m352.382812 412.957031c-3.726562 0-7.019531-2.417969-8.140624-5.96875-1.117188-3.554687.195312-7.421875 3.246093-9.554687 50.660157-36.753906 80.21875-95.894532 79.210938-158.472656 0-103.515626-76.558594-187.730469-170.667969-187.730469s-170.667969 84.214843-170.667969 187.730469c-1.007812 62.578124 28.554688 121.714843 79.210938 158.464843 2.496093 1.746094 3.875 4.691407 3.613281 7.726563s-2.125 5.699218-4.882812 6.992187c-2.761719 1.289063-6 1.011719-8.5-.734375-55.226563-39.9375-87.515626-104.296875-86.507813-172.449218 0-112.921876 84.21875-204.796876 187.734375-204.796876s187.734375 91.875 187.734375 204.796876c1.007813 68.152343-31.277344 132.511718-86.507813 172.453124-1.429687 1.003907-3.132812 1.542969-4.875 1.542969zm0 0"/><path d="m238.964844 512.027344h-102.402344c-14.128906-.015625-25.582031-11.464844-25.597656-25.597656v-25.601563c.042968-37.683594 30.582031-68.222656 68.265625-68.265625h17.066406c37.683594.042969 68.222656 30.582031 68.265625 68.265625v25.601563c-.011719 14.132812-11.464844 25.582031-25.597656 25.597656zm-59.734375-102.398438c-28.261719.03125-51.167969 22.9375-51.199219 51.199219v25.601563c.003906 4.710937 3.820312 8.53125 8.53125 8.53125h102.402344c4.710937 0 8.53125-3.820313 8.53125-8.53125v-25.601563c-.03125-28.261719-22.933594-51.167969-51.199219-51.199219zm0 0"/><path d="m256.03125 477.894531h-136.535156c-4.710938 0-8.53125-3.820312-8.53125-8.53125 0-4.714843 3.820312-8.535156 8.53125-8.535156h136.535156c4.710938 0 8.53125 3.820313 8.53125 8.535156 0 4.710938-3.820312 8.53125-8.53125 8.53125zm0 0"/><path d="m375.496094 512.027344h-102.398438c-14.132812-.015625-25.585937-11.464844-25.601562-25.597656v-25.601563c.042968-37.683594 30.582031-68.222656 68.269531-68.265625h17.066406c37.683594.042969 68.222657 30.582031 68.265625 68.265625v25.601563c-.015625 14.132812-11.46875 25.582031-25.601562 25.597656zm-59.730469-102.398438c-28.265625.03125-51.171875 22.9375-51.203125 51.199219v25.601563c.003906 4.710937 3.824219 8.53125 8.535156 8.53125h102.398438c4.714844 0 8.53125-3.820313 8.535156-8.53125v-25.601563c-.03125-28.261719-22.9375-51.167969-51.199219-51.199219zm0 0"/><path d="m392.5625 477.894531h-136.53125c-4.714844 0-8.535156-3.820312-8.535156-8.53125 0-4.714843 3.820312-8.535156 8.535156-8.535156h136.53125c4.714844 0 8.535156 3.820313 8.535156 8.535156 0 4.710938-3.820312 8.53125-8.535156 8.53125zm0 0"/><path d="m279.976562 107.839844c4.46875-4.984375 10.304688-8.546875 16.78125-10.238282 6.738282-1.835937 13.871094-1.589843 20.464844.707032 6.414063 2.273437 12.152344 6.125 16.691406 11.195312 2.113282 2.425782 4.027344 5.015625 5.730469 7.746094 1.421875 2.832031 2.871094 5.601562 4.035157 8.472656.484374 1.183594.078124 2.542969-.976563 3.269532-1.050781.726562-2.464844.621093-3.402344-.25l-.253906-.238282c-2.164063-2.019531-3.992187-4.183594-5.945313-6.203125-2.21875-1.71875-4.023437-3.816406-6.207031-5.355469-3.964843-3.175781-8.476562-5.601562-13.308593-7.152343-10.125-2.148438-20.65625-1.292969-30.304688 2.457031l-.378906.117188c-1.195313.359374-2.484375-.113282-3.164063-1.160157-.679687-1.050781-.582031-2.421875.238281-3.363281zm0 0"/><path d="m228.777344 112.25c-9.644532-3.75-20.175782-4.605469-30.300782-2.457031-4.835937 1.550781-9.347656 3.976562-13.3125 7.148437-2.183593 1.539063-3.984374 3.640625-6.207031 5.359375-1.953125 2.019531-3.78125 4.179688-5.941406 6.203125l-.257813.234375c-.933593.871094-2.347656.976563-3.402343.253907-1.054688-.726563-1.460938-2.085938-.976563-3.269532 1.164063-2.871094 2.613282-5.640625 4.035156-8.472656 1.703126-2.730469 3.617188-5.320312 5.730469-7.746094 4.539063-5.074218 10.277344-8.921875 16.691407-11.195312 6.59375-2.296875 13.726562-2.546875 20.464843-.707032 6.476563 1.691407 12.3125 5.253907 16.78125 10.238282.820313.941406.917969 2.3125.242188 3.363281-.679688 1.050781-1.96875 1.523437-3.164063 1.164063zm0 0"/><path d="m445.289062 114.335938c-7.359374-.0625-14.609374-1.75-21.242187-4.941407-13.335937-6.507812-24.015625-17.417969-30.242187-30.890625-13.921876-29.207031-5.183594-62.539062 19.484374-74.308594 12.691407-5.832031 27.351563-5.554687 39.816407.75 13.308593 6.523438 23.964843 17.433594 30.175781 30.890626 6.550781 13.289062 8.339844 28.421874 5.066406 42.871093-2.898437 13.664063-11.894531 25.246094-24.417968 31.433594-5.820313 2.777344-12.191407 4.210937-18.640626 4.195313zm-13.386718-97.242188c-3.894532-.015625-7.742188.835938-11.261719 2.503906-16.175781 7.714844-21.308594 30.847656-11.4375 51.554688 4.527344 9.914062 12.332031 17.964844 22.101563 22.792968 7.867187 4.089844 17.167968 4.378907 25.277343.792969 7.855469-4.019531 13.449219-11.40625 15.183594-20.058593 2.34375-10.632813.972656-21.746094-3.882813-31.488282v-.007812c-4.519531-9.902344-12.300781-17.945313-22.042968-22.792969-4.347656-2.113281-9.105469-3.238281-13.9375-3.296875zm0 0"/><path d="m469.363281 221.894531h-35.667969c-4.714843 0-8.535156-3.820312-8.535156-8.53125 0-4.714843 3.820313-8.535156 8.535156-8.535156h24.515626l-26.347657-97.265625c-1.144531-4.515625 1.542969-9.117188 6.039063-10.335938s9.140625 1.390626 10.429687 5.867188l29.269531 108.035156c.699219 2.5625.160157 5.308594-1.457031 7.417969-1.613281 2.113281-4.121093 3.351563-6.78125 3.347656zm0 0"/><path d="m469.363281 256.027344h-34.304687c-4.710938 0-8.53125-3.820313-8.53125-8.53125 0-4.714844 3.820312-8.535156 8.53125-8.535156h34.304687c7.917969.003906 15.394531-3.65625 20.246094-9.914063s6.535156-14.40625 4.5625-22.078125l-30.308594-111.605469c-.851562-2.960937-.046875-6.152343 2.113281-8.351562 2.164063-2.195313 5.339844-3.058594 8.3125-2.253907 2.976563.804688 5.285157 3.152344 6.042969 6.136719l30.378907 111.867188c3.257812 12.90625.355468 26.59375-7.855469 37.066406-8.085938 10.257813-20.433594 16.230469-33.492188 16.199219zm0 0"/><path d="m66.753906 114.335938c-6.449218.015624-12.820312-1.421876-18.640625-4.199219-12.519531-6.1875-21.519531-17.769531-24.414062-31.429688-3.273438-14.449219-1.484375-29.582031 5.066406-42.867187 6.207031-13.460938 16.863281-24.371094 30.171875-30.894532 12.464844-6.308593 27.125-6.582031 39.816406-.75 12.527344 6.191407 21.542969 17.757813 24.484375 31.417969 3.320313 14.445313 1.550781 29.59375-5 42.890625-6.222656 13.472656-16.90625 24.382813-30.242187 30.890625-6.628906 3.191407-13.882813 4.878907-21.242188 4.941407zm13.386719-97.242188c-4.832031.0625-9.589844 1.183594-13.933594 3.292969-9.742187 4.847656-17.523437 12.890625-22.042969 22.792969v.007812c-4.855468 9.742188-6.226562 20.855469-3.882812 31.488281 1.734375 8.652344 7.324219 16.039063 15.183594 20.058594 8.109375 3.585937 17.40625 3.296875 25.273437-.792969 9.769531-4.828125 17.578125-12.875 22.101563-22.789062 4.855468-9.742188 6.203125-20.855469 3.824218-31.476563-1.765624-8.664062-7.382812-16.054687-15.257812-20.078125-3.523438-1.664062-7.371094-2.519531-11.265625-2.503906zm0 0"/><path d="m78.347656 221.894531h-35.667968c-2.65625 0-5.160157-1.238281-6.773438-3.347656-1.613281-2.113281-2.152344-4.855469-1.457031-7.417969l29.269531-108.03125c1.289062-4.476562 5.933594-7.089844 10.429688-5.871094 4.496093 1.222657 7.183593 5.820313 6.039062 10.335938l-26.355469 97.265625h24.515625c4.710938 0 8.53125 3.820313 8.53125 8.535156 0 4.710938-3.820312 8.53125-8.53125 8.53125zm0 0"/><path d="m76.988281 256.027344h-34.308593c-13.140626.003906-25.546876-6.042969-33.636719-16.398438-8.089844-10.355468-10.957031-23.859375-7.769531-36.609375l30.441406-112.125c.757812-2.988281 3.066406-5.335937 6.042968-6.140625 2.972657-.804687 6.152344.058594 8.3125 2.257813 2.160157 2.195312 2.96875 5.386719 2.113282 8.347656l-30.378906 111.867187c-1.882813 7.644532-.144532 15.730469 4.710937 21.925782 4.855469 6.195312 12.292969 9.8125 20.164063 9.808594h34.308593c4.714844 0 8.535157 3.820312 8.535157 8.535156 0 4.710937-3.820313 8.53125-8.535157 8.53125zm0 0"/><path d="m333.507812 264.5625c-7.230468-.050781-14.402343-1.292969-21.226562-3.683594-30.175781-10.707031-46.273438-43.558594-36.25-73.964844 3.925781-12.3125 12.664062-22.515624 24.226562-28.292968 11.199219-5.648438 24.203126-6.535156 36.066407-2.449219 20.894531 7.402344 32.054687 30.140625 25.125 51.199219-2.769531 8.664062-8.921875 15.84375-17.058594 19.90625-7.902344 3.992187-17.078125 4.609375-25.441406 1.71875-7.261719-2.464844-12.628907-8.648438-14.050781-16.183594-1.851563-8.796875 1.027343-17.921875 7.59375-24.058594 2.230468-2.113281 5.421874-2.867187 8.363281-1.972656 2.9375.898438 5.167969 3.304688 5.835937 6.300781.671875 3-.320312 6.125-2.597656 8.1875-2.132812 2.070313-3.070312 5.078125-2.492188 7.992188.207032 1.636719 1.3125 3.019531 2.867188 3.585937 4.042969 1.390625 8.480469 1.089844 12.296875-.835937 4.042969-2.03125 7.089844-5.613281 8.449219-9.925781 4.089844-12.1875-2.3125-25.410157-14.410156-29.769532-7.535157-2.585937-15.796876-2.023437-22.914063 1.558594-7.464844 3.75-13.097656 10.355469-15.625 18.316406-7.183594 21.539063 4.160156 44.871094 25.53125 52.535156 10.605469 4.140626 22.453125 3.707032 32.726563-1.199218 12.5-7.152344 21.640624-18.992188 25.390624-32.894532 1.457032-4.484374 6.277344-6.9375 10.757813-5.476562 4.484375 1.457031 6.933594 6.273438 5.476563 10.757812-5.136719 18.265626-17.378907 33.714844-33.992188 42.882813-7.652344 3.824219-16.09375 5.800781-24.648438 5.765625zm0 0"/><path d="m179.90625 264.5625c-7.230469-.050781-14.402344-1.292969-21.226562-3.683594-30.171876-10.707031-46.273438-43.558594-36.25-73.964844 3.929687-12.3125 12.664062-22.515624 24.226562-28.292968 11.199219-5.648438 24.207031-6.535156 36.066406-2.449219 20.898438 7.402344 32.054688 30.140625 25.125 51.199219-2.769531 8.664062-8.921875 15.84375-17.058594 19.90625-7.898437 3.992187-17.078124 4.609375-25.441406 1.71875-7.261718-2.464844-12.628906-8.648438-14.050781-16.183594-1.851563-8.796875 1.03125-17.921875 7.597656-24.058594 3.464844-3.136718 8.808594-2.902344 11.984375.523438 3.179688 3.429687 3.003906 8.777344-.386718 11.992187-2.132813 2.070313-3.070313 5.078125-2.492188 7.992188.210938 1.636719 1.316406 3.019531 2.867188 3.585937 4.046874 1.390625 8.480468 1.089844 12.300781-.835937 4.039062-2.03125 7.085937-5.613281 8.449219-9.925781 4.085937-12.1875-2.3125-25.410157-14.410157-29.769532-7.539062-2.585937-15.800781-2.027344-22.917969 1.558594-7.460937 3.75-13.097656 10.355469-15.625 18.316406-7.179687 21.539063 4.160157 44.871094 25.535157 52.535156 10.601562 4.140626 22.449219 3.707032 32.722656-1.199218 12.503906-7.152344 21.640625-18.992188 25.390625-32.894532 1.460938-4.484374 6.277344-6.9375 10.761719-5.476562 4.480469 1.457031 6.933593 6.273438 5.472656 10.757812-5.136719 18.265626-17.378906 33.714844-33.992187 42.882813-7.652344 3.824219-16.09375 5.800781-24.648438 5.765625zm0 0"/><path d="m349.890625 349.894531c-1.324219 0-2.628906-.308593-3.808594-.898437-13.480469-6.59375-24.605469-17.167969-31.875-30.292969-5.558593-8.90625-7.519531-11.472656-15.507812-11.472656-8.097657.152343-15.511719 4.5625-19.519531 11.597656-4.980469 8.15625-13.613282 13.375-23.148438 14-9.535156-.625-18.167969-5.84375-23.148438-14-4.007812-7.035156-11.421874-11.445313-19.519531-11.597656-7.992187 0-9.949219 2.566406-15.507812 11.472656-7.269531 13.125-18.394531 23.699219-31.875 30.292969-2.726563 1.363281-5.972657 1.167968-8.519531-.511719-2.542969-1.679687-3.996094-4.589844-3.816407-7.632813.183594-3.042968 1.976563-5.757812 4.703125-7.121093 10.652344-5.210938 19.40625-13.625 25.03125-24.0625 5.710938-9.148438 12.175782-19.503907 29.984375-19.503907 13.230469.046876 25.539063 6.765626 32.734375 17.863282 4.582032 5.617187 6.625 7.734375 9.933594 7.734375s5.351562-2.117188 9.933594-7.734375c7.195312-11.097656 19.503906-17.816406 32.734375-17.863282 17.808593 0 24.273437 10.355469 29.980469 19.5 5.628906 10.4375 14.382812 18.851563 25.035156 24.0625 3.542968 1.769532 5.40625 5.746094 4.492187 9.601563-.910156 3.855469-4.355469 6.574219-8.316406 6.566406zm0 0"/></svg>