<svg height="512pt" viewBox="0 0 512.01942 512" width="512pt" xmlns="http://www.w3.org/2000/svg"><path d="m472.09375 93.128906 30.378906 111.871094c2.582032 10.207031.304688 21.035156-6.167968 29.339844-6.46875 8.304687-16.410157 13.160156-26.941407 13.15625h-34.304687l-1.363282-34.132813h35.667969l-29.269531-108.03125zm0 0" fill="#ff5722"/><path d="m39.953125 93.128906-30.378906 111.871094c-2.582031 10.207031-.304688 21.035156 6.167969 29.339844 6.46875 8.304687 16.410156 13.160156 26.941406 13.15625h34.304687l1.363281-34.132813h-35.667968l29.269531-108.03125zm0 0" fill="#ff5722"/><path d="m435.230469 238.960938c.929687 65.347656-29.976563 127.0625-82.859375 165.460937l-97.277344 72.535156-12.714844-9.644531-82.6875-62.890625c-16.210937-11.367187-30.496094-25.253906-42.328125-41.128906l-22.613281-38.65625c-10.3125-23.449219-16.296875-48.574219-17.664062-74.15625-.167969-3.839844-.253907-7.679688-.253907-11.519531-.007812-8.5.503907-16.992188 1.535157-25.429688 10.835937-91.816406 79.617187-163.753906 164.863281-170.238281 4.265625-.425781 8.535156-.597657 12.800781-.597657 98.988281 0 179.199219 87.894532 179.199219 196.265626zm0 0" fill="#fec108"/><path d="m409.632812 238.960938c.929688 65.347656-29.976562 127.0625-82.859374 165.460937l-84.394532 62.890625-82.6875-62.890625c-16.210937-11.367187-30.496094-25.253906-42.328125-41.128906l-22.613281-38.65625c-10.3125-23.449219-16.296875-48.574219-17.664062-74.15625-.167969-3.839844-.253907-7.679688-.253907-11.519531-.007812-8.5.503907-16.992188 1.535157-25.429688 10.835937-91.816406 79.617187-163.753906 164.863281-170.238281 93.015625 7.082031 166.402343 91.988281 166.402343 195.667969zm0 0" fill="#ffdc00"/><path d="m256.03125 460.828125v25.601563c-.027344 9.414062-7.652344 17.039062-17.066406 17.066406h-102.402344c-9.414062-.027344-17.039062-7.652344-17.066406-17.066406v-25.601563c-.066406-31.34375 24.195312-57.359375 55.46875-59.476563 1.414062-.171874 2.839844-.257812 4.265625-.257812h17.066406c15.847656-.011719 31.046875 6.28125 42.25 17.484375 11.207031 11.203125 17.496094 26.40625 17.484375 42.25zm0 0" fill="#283593"/><path d="m230.429688 460.828125v25.601563c-.027344 9.414062-7.652344 17.039062-17.066407 17.066406h-76.800781c-9.414062-.027344-17.039062-7.652344-17.066406-17.066406v-25.601563c-.066406-31.34375 24.195312-57.359375 55.46875-59.476563 31.269531 2.117188 55.535156 28.132813 55.464844 59.476563zm0 0" fill="#3f51b5"/><path d="m392.5625 460.828125v25.601563c-.027344 9.414062-7.652344 17.039062-17.066406 17.066406h-102.398438c-9.414062-.027344-17.039062-7.652344-17.066406-17.066406v-25.601563c-.070312-31.34375 24.195312-57.359375 55.464844-59.476563 1.417968-.171874 2.84375-.257812 4.269531-.257812h17.066406c15.84375-.011719 31.046875 6.28125 42.25 17.484375s17.492188 26.40625 17.480469 42.25zm0 0" fill="#283593"/><path d="m366.964844 460.828125v25.601563c-.027344 9.414062-7.652344 17.039062-17.066406 17.066406h-76.800782c-9.414062-.027344-17.039062-7.652344-17.066406-17.066406v-25.601563c-.070312-31.34375 24.195312-57.359375 55.464844-59.476563 31.273437 2.117188 55.535156 28.132813 55.46875 59.476563zm0 0" fill="#3f51b5"/><path d="m418.335938 325.0625c1.167968 14.089844-9.292969 26.464844-23.382813 27.648438l-13.480469 1.109374-258.648437 21.589844c-14.085938 1.171875-26.460938-9.292968-27.648438-23.382812l-5.714843-68.007813c-.773438-9.285156 3.578124-18.25 11.347656-23.382812 3.558594-2.46875 7.714844-3.941407 12.03125-4.265625l272.128906-22.699219c6.773438-.589844 13.5 1.546875 18.691406 5.9375 5.191406 4.386719 8.414063 10.667969 8.957032 17.445313zm0 0" fill="#c81e1e"/><path d="m381.472656 353.820312-258.648437 21.589844c-14.085938 1.171875-26.460938-9.292968-27.648438-23.382812l-5.714843-68.007813c-.773438-9.285156 3.578124-18.25 11.347656-23.382812l258.5625-21.589844c6.769531-.589844 13.5 1.546875 18.6875 5.9375 5.191406 4.390625 8.417968 10.667969 8.960937 17.445313l5.714844 68.011718c.808594 9.265625-3.511719 18.234375-11.261719 23.378906zm0 0" fill="#f44335"/><path d="m460.234375 102.429688c-8.882813 4.046874-19.007813 4.414062-28.160156 1.023437-13.574219-5.101563-24.5625-15.382813-30.550781-28.585937-11.945313-25.003907-5.035157-53.25 15.445312-62.976563.769531-.34375 1.621094-.683594 2.476562-1.023437 20.050782-7.679688 44.628907 4.605468 56.148438 28.671874 11.945312 25 5.121094 53.160157-15.359375 62.890626zm0 0" fill="#f57c00"/><path d="m434.632812 102.429688c-.820312.414062-1.679687.757812-2.558593 1.023437-13.574219-5.101563-24.5625-15.382813-30.550781-28.585937-11.945313-25.003907-5.035157-53.25 15.445312-62.976563.769531-.34375 1.621094-.683594 2.476562-1.023437 13.542969 5.1875 24.511719 15.480468 30.546876 28.671874 11.949218 25 5.121093 53.160157-15.359376 62.890626zm0 0" fill="#ff9801"/><path d="m36.460938 39.507812c-11.917969 25.003907-5.125 53.179688 15.332031 62.929688 20.457031 9.753906 46.828125-2.609375 58.75-27.609375 11.917969-25.003906 4.996093-53.175781-15.457031-62.929687-20.457032-9.753907-46.703126 2.609374-58.625 27.609374zm0 0" fill="#ff9801"/><path d="m221.898438 166.429688c0-21.207032-7.640626-38.402344-17.066407-38.402344s-17.066406 17.195312-17.066406 38.402344c0 21.207031 7.640625 38.398437 17.066406 38.398437s17.066407-17.191406 17.066407-38.398437zm0 0" fill="#3f51b5"/><path d="m214.3125 149.363281c0-11.785156-4.246094-21.335937-9.480469-21.335937-5.238281 0-9.480469 9.550781-9.480469 21.335937 0 11.78125 4.242188 21.332031 9.480469 21.332031 5.234375 0 9.480469-9.550781 9.480469-21.332031zm0 0" fill="#f5f5f5"/><path d="m324.296875 166.429688c0-21.207032-7.640625-38.402344-17.066406-38.402344s-17.066407 17.195312-17.066407 38.402344c0 21.207031 7.640626 38.398437 17.066407 38.398437s17.066406-17.191406 17.066406-38.398437zm0 0" fill="#3f51b5"/><path d="m316.710938 149.363281c0-11.785156-4.242188-21.335937-9.480469-21.335937-5.234375 0-9.480469 9.550781-9.480469 21.335937 0 11.78125 4.246094 21.332031 9.480469 21.332031 5.238281 0 9.480469-9.550781 9.480469-21.332031zm0 0" fill="#f5f5f5"/><path d="m120.621094 384.027344c-17.730469-.027344-32.484375-13.628906-33.957032-31.296875l-5.667968-68.035157c-1.546875-18.777343 12.402344-35.261718 31.175781-36.839843l272.128906-22.675781c9.023438-.769532 17.984375 2.085937 24.898438 7.9375 6.914062 5.847656 11.214843 14.210937 11.953125 23.238281l5.664062 68.023437c1.550782 18.78125-12.402344 35.269532-31.179687 36.851563l-272.128907 22.671875c-.960937.085937-1.925781.125-2.886718.125zm266.527344-141.90625c-.476563 0-.949219.023437-1.433594.058594l-272.128906 22.671874c-9.390626.789063-16.367188 9.035157-15.589844 18.425782l5.664062 68.035156c.863282 9.355469 9.066406 16.292969 18.433594 15.589844l272.128906-22.675782c9.386719-.796874 16.359375-9.039062 15.589844-18.429687l-5.664062-68.027344c-.75-8.835937-8.132813-15.632812-17-15.648437zm0 0"/><path d="m136.980469 348.503906c-1.085938.003906-2.160157-.203125-3.167969-.609375-2.101562-.839843-3.785156-2.480469-4.675781-4.558593-.890625-2.082032-.921875-4.433594-.082031-6.535157l21.257812-53.148437c1.132812-2.832032 3.6875-4.84375 6.707031-5.28125 3.015625-.433594 6.039063.773437 7.925781 3.167968 1.886719 2.394532 2.351563 5.613282 1.21875 8.445313l-21.257812 53.152344c-1.296875 3.242187-4.433594 5.367187-7.925781 5.367187zm0 0"/><path d="m170.988281 345.671875c-2.828125 0-5.476562-1.40625-7.066406-3.75-1.585937-2.34375-1.90625-5.320313-.855469-7.953125l21.265625-53.148438c1.128907-2.832031 3.6875-4.84375 6.703125-5.28125 3.019532-.433593 6.039063.773438 7.925782 3.167969 1.886718 2.394531 2.351562 5.617188 1.21875 8.445313l-21.265626 53.152344c-1.296874 3.242187-4.433593 5.367187-7.925781 5.367187zm0 0"/><path d="m126.339844 323.703125c-4.558594-.027344-8.289063-3.628906-8.476563-8.179687-.1875-4.554688 3.238281-8.453126 7.777344-8.851563l76.53125-6.375c4.609375-.246094 8.574219 3.214844 8.957031 7.8125.382813 4.597656-2.957031 8.664063-7.539062 9.1875l-76.535156 6.375c-.238282.023437-.476563.035156-.714844.03125zm0 0"/><path d="m315.554688 333.621094c-2.828126 0-5.476563-1.402344-7.066407-3.75-1.585937-2.34375-1.90625-5.320313-.855469-7.949219l21.257813-53.144531c1.746094-4.375 6.714844-6.507813 11.089844-4.757813 4.378906 1.75 6.507812 6.714844 4.757812 11.09375l-21.257812 53.140625c-1.292969 3.242188-4.433594 5.367188-7.925781 5.367188zm0 0"/><path d="m349.574219 330.785156c-2.832031 0-5.480469-1.402344-7.066407-3.746094-1.589843-2.34375-1.910156-5.324218-.859374-7.953124l21.257812-53.148438c1.75-4.378906 6.714844-6.507812 11.089844-4.757812 4.378906 1.746093 6.507812 6.714843 4.757812 11.089843l-21.257812 53.152344c-1.292969 3.238281-4.433594 5.367187-7.921875 5.363281zm0 0"/><path d="m304.925781 308.820312c-4.554687-.027343-8.285156-3.628906-8.472656-8.183593-.1875-4.550781 3.234375-8.449219 7.773437-8.851563l76.535157-6.371094c2.261719-.238281 4.527343.460938 6.265625 1.929688 1.738281 1.472656 2.800781 3.585938 2.941406 5.859375.191406 2.253906-.523438 4.492187-1.984375 6.222656-1.460937 1.726563-3.550781 2.800781-5.808594 2.984375l-76.53125 6.375c-.238281.023438-.476562.035156-.71875.035156zm0 0"/><path d="m253.898438 313.070312c-4.433594-.003906-8.128907-3.40625-8.492188-7.824218l-2.125-25.507813c-.191406-2.257812.523438-4.496093 1.984375-6.222656s3.550781-2.800781 5.808594-2.988281c2.261719-.234375 4.523437.464844 6.261719 1.933594 1.738281 1.472656 2.800781 3.585937 2.945312 5.859374l2.125 25.507813c.191406 2.257813-.523438 4.496094-1.984375 6.222656-1.460937 1.726563-3.550781 2.800781-5.808594 2.988281-.238281.023438-.476562.03125-.714843.03125zm0 0"/><path d="m264.5625 330.050781c0 4.714844-3.820312 8.535157-8.53125 8.535157-4.714844 0-8.535156-3.820313-8.535156-8.535157 0-4.710937 3.820312-8.53125 8.535156-8.53125 4.710938 0 8.53125 3.820313 8.53125 8.53125zm0 0"/><path d="m418.164062 331.207031c-2.867187-.003906-5.542968-1.449219-7.121093-3.84375-1.578125-2.398437-1.84375-5.425781-.710938-8.0625 10.894531-25.378906 16.464844-52.722656 16.367188-80.339843 0-103.515626-76.558594-187.730469-170.667969-187.730469s-170.667969 84.214843-170.667969 187.730469c-.09375 26.183593 4.929688 52.132812 14.792969 76.386718.539062 1.144532.820312 2.390625.824219 3.65625.003906 4-2.769531 7.464844-6.671875 8.335938s-7.886719-1.082032-9.585938-4.703125c-.089844-.183594-.175781-.375-.25-.558594-10.777344-26.378906-16.273437-54.617187-16.175781-83.117187 0-112.921876 84.21875-204.796876 187.734375-204.796876s187.734375 91.875 187.734375 204.796876c.101563 29.9375-5.945313 59.578124-17.769531 87.085937-1.34375 3.132813-4.421875 5.160156-7.832032 5.160156zm0 0"/><path d="m159.679688 412.957031c-1.746094 0-3.453126-.539062-4.882813-1.542969-12.589844-8.832031-24.078125-19.144531-34.207031-30.71875-2.027344-2.289062-2.675782-5.488281-1.699219-8.386718.980469-2.898438 3.4375-5.050782 6.4375-5.644532 3-.589843 6.089844.46875 8.09375 2.78125 9.226563 10.542969 19.6875 19.9375 31.160156 27.980469 3.058594 2.136719 4.375 6.007813 3.253907 9.566407-1.125 3.554687-4.425782 5.972656-8.15625 5.964843zm0 0"/><path d="m352.382812 412.957031c-3.726562.003907-7.023437-2.410156-8.148437-5.964843-1.121094-3.554688.195313-7.421876 3.246094-9.558594 19.53125-13.699219 36.09375-31.203125 48.683593-51.46875 2.503907-3.992188 7.773438-5.203125 11.765626-2.699219 3.996093 2.503906 5.207031 7.773437 2.703124 11.765625-13.808593 22.203125-31.960937 41.378906-53.367187 56.382812-1.433594 1.003907-3.136719 1.542969-4.882813 1.542969zm0 0"/><path d="m238.964844 512.027344h-102.402344c-14.128906-.015625-25.582031-11.464844-25.597656-25.597656v-25.601563c.042968-37.683594 30.582031-68.222656 68.265625-68.265625h17.066406c37.683594.042969 68.222656 30.582031 68.265625 68.265625v25.601563c-.011719 14.132812-11.464844 25.582031-25.597656 25.597656zm-59.734375-102.398438c-28.261719.03125-51.167969 22.9375-51.199219 51.199219v25.601563c.003906 4.710937 3.820312 8.53125 8.53125 8.53125h102.402344c4.710937 0 8.53125-3.820313 8.53125-8.53125v-25.601563c-.03125-28.261719-22.933594-51.167969-51.199219-51.199219zm0 0"/><path d="m256.03125 477.894531h-136.535156c-4.710938 0-8.53125-3.820312-8.53125-8.53125 0-4.714843 3.820312-8.535156 8.53125-8.535156h136.535156c4.710938 0 8.53125 3.820313 8.53125 8.535156 0 4.710938-3.820312 8.53125-8.53125 8.53125zm0 0"/><path d="m375.496094 512.027344h-102.398438c-14.132812-.015625-25.585937-11.464844-25.601562-25.597656v-25.601563c.042968-37.683594 30.582031-68.222656 68.269531-68.265625h17.066406c37.683594.042969 68.222657 30.582031 68.265625 68.265625v25.601563c-.015625 14.132812-11.46875 25.582031-25.601562 25.597656zm-59.730469-102.398438c-28.265625.03125-51.171875 22.9375-51.203125 51.199219v25.601563c.003906 4.710937 3.824219 8.53125 8.535156 8.53125h102.398438c4.714844 0 8.53125-3.820313 8.535156-8.53125v-25.601563c-.03125-28.261719-22.9375-51.167969-51.199219-51.199219zm0 0"/><path d="m392.5625 477.894531h-136.53125c-4.714844 0-8.535156-3.820312-8.535156-8.53125 0-4.714843 3.820312-8.535156 8.535156-8.535156h136.53125c4.714844 0 8.535156 3.820313 8.535156 8.535156 0 4.710938-3.820312 8.53125-8.535156 8.53125zm0 0"/><path d="m445.289062 114.335938c-7.359374-.0625-14.609374-1.75-21.242187-4.941407-13.335937-6.507812-24.015625-17.417969-30.242187-30.890625-13.921876-29.207031-5.183594-62.539062 19.484374-74.308594 12.691407-5.832031 27.351563-5.554687 39.816407.75 13.308593 6.523438 23.964843 17.433594 30.175781 30.890626 6.550781 13.289062 8.339844 28.421874 5.066406 42.871093-2.898437 13.664063-11.894531 25.246094-24.417968 31.433594-5.820313 2.777344-12.191407 4.210937-18.640626 4.195313zm-13.386718-97.242188c-3.894532-.015625-7.742188.835938-11.261719 2.503906-16.175781 7.714844-21.308594 30.847656-11.4375 51.554688 4.527344 9.914062 12.332031 17.964844 22.101563 22.792968 7.867187 4.089844 17.167968 4.378907 25.277343.792969 7.855469-4.019531 13.449219-11.40625 15.183594-20.058593 2.34375-10.632813.972656-21.746094-3.882813-31.488282v-.007812c-4.519531-9.902344-12.300781-17.945313-22.042968-22.792969-4.347656-2.113281-9.105469-3.238281-13.9375-3.296875zm0 0"/><path d="m469.363281 221.894531h-35.667969c-4.714843 0-8.535156-3.820312-8.535156-8.53125 0-4.714843 3.820313-8.535156 8.535156-8.535156h24.515626l-26.347657-97.265625c-1.144531-4.515625 1.542969-9.117188 6.039063-10.335938s9.140625 1.390626 10.429687 5.867188l29.269531 108.035156c.699219 2.5625.160157 5.308594-1.457031 7.417969-1.613281 2.113281-4.121093 3.351563-6.78125 3.347656zm0 0"/><path d="m469.363281 256.027344h-34.304687c-4.710938 0-8.53125-3.820313-8.53125-8.53125 0-4.714844 3.820312-8.535156 8.53125-8.535156h34.304687c7.917969.003906 15.394531-3.65625 20.246094-9.914063s6.535156-14.40625 4.5625-22.078125l-30.308594-111.605469c-.851562-2.960937-.046875-6.152343 2.113281-8.351562 2.164063-2.195313 5.339844-3.058594 8.3125-2.253907 2.976563.804688 5.285157 3.152344 6.042969 6.136719l30.378907 111.867188c3.257812 12.90625.355468 26.59375-7.855469 37.066406-8.085938 10.257813-20.433594 16.230469-33.492188 16.199219zm0 0"/><path d="m66.753906 114.335938c-6.449218.015624-12.820312-1.421876-18.640625-4.199219-12.519531-6.1875-21.519531-17.769531-24.414062-31.429688-3.273438-14.449219-1.484375-29.582031 5.066406-42.867187 6.207031-13.460938 16.863281-24.371094 30.171875-30.894532 12.464844-6.308593 27.125-6.582031 39.816406-.75 12.527344 6.191407 21.542969 17.757813 24.484375 31.417969 3.320313 14.445313 1.550781 29.59375-5 42.890625-6.222656 13.472656-16.90625 24.382813-30.242187 30.890625-6.628906 3.191407-13.882813 4.878907-21.242188 4.941407zm13.386719-97.242188c-4.832031.0625-9.589844 1.183594-13.933594 3.292969-9.742187 4.847656-17.523437 12.890625-22.042969 22.792969v.007812c-4.855468 9.742188-6.226562 20.855469-3.882812 31.488281 1.734375 8.652344 7.324219 16.039063 15.183594 20.058594 8.109375 3.585937 17.40625 3.296875 25.273437-.792969 9.769531-4.828125 17.578125-12.875 22.101563-22.789062 4.855468-9.742188 6.203125-20.855469 3.824218-31.476563-1.765624-8.664062-7.382812-16.054687-15.257812-20.078125-3.523438-1.664062-7.371094-2.519531-11.265625-2.503906zm0 0"/><path d="m78.347656 221.894531h-35.667968c-2.65625 0-5.160157-1.238281-6.773438-3.347656-1.613281-2.113281-2.152344-4.855469-1.457031-7.417969l29.269531-108.03125c1.289062-4.476562 5.933594-7.089844 10.429688-5.871094 4.496093 1.222657 7.183593 5.820313 6.039062 10.335938l-26.355469 97.265625h24.515625c4.710938 0 8.53125 3.820313 8.53125 8.535156 0 4.710938-3.820312 8.53125-8.53125 8.53125zm0 0"/><path d="m76.988281 256.027344h-34.308593c-13.140626.003906-25.546876-6.042969-33.636719-16.398438-8.089844-10.355468-10.957031-23.859375-7.769531-36.609375l30.441406-112.125c.757812-2.988281 3.066406-5.335937 6.042968-6.140625 2.972657-.804687 6.152344.058594 8.3125 2.257813 2.160157 2.195312 2.96875 5.386719 2.113282 8.347656l-30.378906 111.867187c-1.882813 7.644532-.144532 15.730469 4.710937 21.925782 4.855469 6.195312 12.292969 9.8125 20.164063 9.808594h34.308593c4.714844 0 8.535157 3.820312 8.535157 8.535156 0 4.710937-3.820313 8.53125-8.535157 8.53125zm0 0"/><path d="m204.832031 213.363281c-16.8125 0-25.601562-23.609375-25.601562-46.933593 0-23.324219 8.789062-46.933594 25.601562-46.933594 16.808594 0 25.597657 23.609375 25.597657 46.933594 0 23.324218-8.789063 46.933593-25.597657 46.933593zm-.171875-76.824219c-2.046875.78125-8.363281 11.148438-8.363281 29.890626 0 18.742187 6.308594 29.105468 8.703125 29.890624 2.050781-.785156 8.363281-11.148437 8.363281-29.890624 0-18.742188-6.308593-29.109376-8.703125-29.890626zm0 0"/><path d="m307.230469 213.363281c-16.808594 0-25.597657-23.609375-25.597657-46.933593 0-23.324219 8.789063-46.933594 25.597657-46.933594 16.8125 0 25.601562 23.609375 25.601562 46.933594 0 23.324218-8.789062 46.933593-25.601562 46.933593zm-.171875-76.824219c-2.046875.78125-8.359375 11.148438-8.359375 29.890626 0 18.742187 6.308593 29.105468 8.703125 29.890624 2.046875-.785156 8.363281-11.148437 8.363281-29.890624 0-18.742188-6.308594-29.109376-8.707031-29.890626zm0 0"/><path d="m172.6875 101.433594c4.648438 3.832031 9.667969 7.191406 14.984375 10.027344 4.996094 2.597656 10.21875 4.730468 15.605469 6.375 5.460937 1.277343 10.898437 2.488281 16.699218 3.472656 2.875.703125 5.871094.851562 8.917969 1.652344 3.242188.421874 6.445313 1.113281 9.570313 2.070312l.3125.101562c1.207031.402344 2.074218 1.464844 2.21875 2.730469.148437 1.261719-.453125 2.496094-1.535156 3.164063-6.140626 3.636718-13.0625 5.757812-20.1875 6.183594-14.828126.867187-29.328126-4.597657-39.898438-15.03125-5.292969-5.089844-9-11.605469-10.671875-18.753907-.199219-.945312.21875-1.914062 1.042969-2.417969.824218-.503906 1.875-.4375 2.625.167969zm0 0"/><path d="m343.355469 103.425781c-1.671875 7.148438-5.378907 13.664063-10.671875 18.753907-10.570313 10.433593-25.070313 15.898437-39.898438 15.03125-7.125-.425782-14.046875-2.546876-20.1875-6.183594-1.082031-.667969-1.679687-1.898438-1.53125-3.160156.144532-1.261719 1.007813-2.328126 2.214844-2.730469l.316406-.101563c3.125-.957031 6.324219-1.648437 9.566406-2.070312 3.046876-.800782 6.046876-.949219 8.921876-1.65625 5.800781-.980469 11.242187-2.1875 16.699218-3.472656 5.386719-1.640626 10.609375-3.777344 15.605469-6.371094 5.316406-2.835938 10.335937-6.195313 14.980469-10.027344l.308594-.25c.753906-.605469 1.800781-.671875 2.625-.171875.820312.503906 1.242187 1.46875 1.046874 2.414063zm0 0"/></svg>