<svg height="511pt" viewBox="0 -17 511.92655 511" width="511pt" xmlns="http://www.w3.org/2000/svg"><path d="m76.953125 216.785156-34.21875 14.675782 19.199219 48.640624-29.097656 19.199219-21.84375-55.296875c-6.867188-17.152344 1.25-36.648437 18.261718-43.859375l44.542969-19.117187c1.417969-.59375 2.910156-.996094 4.4375-1.195313zm0 0" fill="#ff5722"/><path d="m434.972656 216.785156 34.21875 14.675782-19.199218 48.640624 29.097656 19.199219 21.84375-55.296875c6.867187-17.152344-1.25-36.648437-18.261719-43.859375l-44.542969-19.117187c-1.417968-.59375-2.910156-.996094-4.4375-1.195313zm0 0" fill="#ff5722"/><path d="m435.097656 205.261719c.929688 65.347656-29.976562 127.0625-82.859375 165.460937l-97.28125 72.535156-12.714843-9.640624-82.6875-62.894532c-16.207032-11.367187-30.496094-25.253906-42.324219-41.128906l-22.613281-38.65625c-10.3125-23.449219-16.296876-48.574219-17.664063-74.152344-.171875-3.84375-.253906-7.683594-.253906-11.523437-.011719-8.5.503906-16.992188 1.535156-25.429688 10.835937-91.816406 79.613281-163.753906 164.863281-170.238281 4.265625-.425781 8.53125-.597656 12.800782-.597656 98.984374 0 179.199218 87.894531 179.199218 196.265625zm0 0" fill="#fec108"/><path d="m409.496094 205.261719c.929687 65.347656-29.976563 127.0625-82.859375 165.460937l-84.394531 62.894532-82.6875-62.894532c-16.207032-11.367187-30.496094-25.253906-42.324219-41.128906l-22.613281-38.65625c-10.3125-23.449219-16.296876-48.574219-17.664063-74.152344-.171875-3.84375-.253906-7.683594-.253906-11.523437-.011719-8.5.503906-16.992188 1.535156-25.429688 10.835937-91.816406 79.613281-163.753906 164.863281-170.238281 93.011719 7.082031 166.398438 91.988281 166.398438 195.667969zm0 0" fill="#ffdc00"/><path d="m255.898438 427.128906v25.601563c-.027344 9.414062-7.652344 17.039062-17.066407 17.066406h-102.402343c-9.414063-.027344-17.039063-7.652344-17.066407-17.066406v-25.601563c-.066406-31.34375 24.195313-57.359375 55.46875-59.476562 1.414063-.171875 2.839844-.253906 4.265625-.253906h17.066406c15.84375-.011719 31.046876 6.277343 42.25 17.480468 11.207032 11.207032 17.496094 26.40625 17.484376 42.25zm0 0" fill="#283593"/><path d="m230.296875 427.128906v25.601563c-.027344 9.414062-7.652344 17.039062-17.066406 17.066406h-76.800781c-9.414063-.027344-17.039063-7.652344-17.066407-17.066406v-25.601563c-.066406-31.34375 24.195313-57.359375 55.46875-59.476562 31.269531 2.117187 55.535157 28.132812 55.464844 59.476562zm0 0" fill="#3f51b5"/><path d="m392.429688 427.128906v25.601563c-.027344 9.414062-7.652344 17.039062-17.066407 17.066406h-102.398437c-9.414063-.027344-17.039063-7.652344-17.066406-17.066406v-25.601563c-.070313-31.34375 24.195312-57.359375 55.464843-59.476562 1.417969-.171875 2.839844-.253906 4.265625-.253906h17.070313c15.84375-.011719 31.042969 6.277343 42.25 17.480468 11.203125 11.207032 17.492187 26.40625 17.480469 42.25zm0 0" fill="#283593"/><path d="m366.832031 427.128906v25.601563c-.027343 9.414062-7.652343 17.039062-17.066406 17.066406h-76.800781c-9.414063-.027344-17.039063-7.652344-17.066406-17.066406v-25.601563c-.070313-31.34375 24.195312-57.359375 55.464843-59.476562 31.273438 2.117187 55.535157 28.132812 55.46875 59.476562zm0 0" fill="#3f51b5"/><path d="m105.753906 302.121094c-16.804687-22.019532-45.035156-28.722656-63.050781-14.972656-18.011719 13.75-18.996094 42.742187-2.191406 64.761718 16.804687 22.019532 45.035156 28.722656 63.046875 14.972656 18.015625-13.75 19-42.746093 2.195312-64.761718zm0 0" fill="#ff9801"/><path d="m471.449219 351.953125c-11.785157 17.34375-33.222657 25.378906-53.503907 20.050781-3.449218-1.15625-6.683593-2.886718-9.558593-5.121094-18.003907-13.738281-19.027344-42.75-2.21875-64.765624 7.015625-9.398438 16.761719-16.402344 27.90625-20.054688 11.847656-4.179688 24.992187-2.265625 35.15625 5.121094 18.003906 13.738281 18.945312 42.667968 2.21875 64.769531zm0 0" fill="#f57c00"/><path d="m445.847656 351.953125c-7.03125 9.378906-16.769531 16.378906-27.902344 20.050781-3.449218-1.15625-6.683593-2.886718-9.558593-5.121094-18.003907-13.738281-19.027344-42.75-2.21875-64.765624 7.015625-9.398438 16.761719-16.402344 27.90625-20.054688 3.449219 1.15625 6.679687 2.890625 9.554687 5.121094 18.007813 13.738281 18.945313 42.667968 2.21875 64.769531zm0 0" fill="#ff9801"/><path d="m221.765625 132.730469c0-21.207031-7.644531-38.402344-17.066406-38.402344-9.425781 0-17.070313 17.195313-17.070313 38.402344s7.644532 38.398437 17.070313 38.398437c9.421875 0 17.066406-17.191406 17.066406-38.398437zm0 0" fill="#3f51b5"/><path d="m214.179688 115.664062c0-11.78125-4.246094-21.335937-9.480469-21.335937-5.238281 0-9.484375 9.554687-9.484375 21.335937s4.246094 21.332032 9.484375 21.332032c5.234375 0 9.480469-9.550782 9.480469-21.332032zm0 0" fill="#f5f5f5"/><path d="m324.164062 132.730469c0-21.207031-7.640624-38.402344-17.066406-38.402344-9.425781 0-17.066406 17.195313-17.066406 38.402344s7.640625 38.398437 17.066406 38.398437c9.425782 0 17.066406-17.191406 17.066406-38.398437zm0 0" fill="#3f51b5"/><path d="m316.578125 115.664062c0-11.78125-4.246094-21.335937-9.480469-21.335937-5.238281 0-9.480468 9.554687-9.480468 21.335937s4.242187 21.332032 9.480468 21.332032c5.234375 0 9.480469-9.550782 9.480469-21.332032zm0 0" fill="#f5f5f5"/><path d="m302.097656 252.929688c6.664063-6.664063 17.472656-6.664063 24.136719 0l18.101563 18.101562c3.332031 3.332031 3.332031 8.734375 0 12.066406l-12.066407 12.070313c-3.332031 3.332031-8.738281 3.332031-12.070312 0l-18.101563-18.101563c-6.664062-6.667968-6.664062-17.472656 0-24.136718zm0 0" fill="#9e9e9e"/><path d="m159.546875 379.257812c-1.738281 0-3.4375-.539062-4.863281-1.535156-16.960938-11.882812-31.910156-26.402344-44.28125-43.007812-2.699219-3.773438-1.890625-9.011719 1.824218-11.796875 3.710938-2.78125 8.96875-2.089844 11.832032 1.5625 11.28125 15.148437 24.910156 28.394531 40.375 39.242187 3.054687 2.132813 4.371094 6 3.253906 9.554688-1.117188 3.554687-4.410156 5.976562-8.136719 5.976562zm0 0"/><path d="m352.246094 379.257812c-3.726563.003907-7.027344-2.414062-8.144532-5.96875-1.121093-3.558593.199219-7.429687 3.253907-9.5625 15.566406-10.878906 29.25-24.226562 40.507812-39.523437 2.792969-3.792969 8.132813-4.601563 11.925781-1.808594 3.792969 2.792969 4.601563 8.132813 1.808594 11.925781-12.351562 16.804688-27.375 31.46875-44.476562 43.40625-1.429688 1-3.128906 1.53125-4.875 1.53125zm0 0"/><path d="m417.082031 299.640625c-1.195312.003906-2.378906-.25-3.46875-.738281-2.066406-.921875-3.683593-2.628906-4.492187-4.738282-.808594-2.113281-.746094-4.460937.175781-6.527343 9.984375-22.53125 15.753906-46.703125 17.027344-71.316407.15625-3.632812.238281-7.347656.238281-11.058593.011719-8.148438-.476562-16.292969-1.464844-24.382813-10.976562-93.148437-83.71875-163.347656-169.199218-163.347656-85.484376 0-158.226563 70.199219-169.191407 163.296875-.992187 8.109375-1.488281 16.269531-1.476562 24.433594 0 3.710937.085937 7.425781.25 11.125 1.296875 24.53125 7.039062 48.621093 16.941406 71.101562 1.90625 4.3125-.046875 9.351563-4.359375 11.257813s-9.351562-.046875-11.257812-4.359375c-10.742188-24.386719-16.96875-50.527344-18.367188-77.140625-.1875-4.039063-.273438-8.007813-.273438-11.984375-.007812-8.851563.527344-17.695313 1.601563-26.480469 11.972656-101.636719 92-178.316406 186.132813-178.316406 94.132812 0 174.15625 76.679687 186.140624 178.363281 1.066407 8.773437 1.597657 17.601563 1.589844 26.433594 0 3.976562-.085937 7.945312-.265625 11.910156-1.367187 26.714844-7.632812 52.953125-18.484375 77.40625-1.371094 3.082031-4.425781 5.066406-7.796875 5.0625zm0 0"/><path d="m238.832031 478.328125h-102.402343c-14.132813-.015625-25.582032-11.464844-25.597657-25.597656v-25.601563c.042969-37.683594 30.582031-68.222656 68.265625-68.265625h17.066406c37.683594.042969 68.222657 30.582031 68.265626 68.265625v25.601563c-.015626 14.132812-11.46875 25.582031-25.597657 25.597656zm-59.734375-102.398437c-28.265625.03125-51.167968 22.9375-51.199218 51.199218v25.601563c0 4.710937 3.820312 8.53125 8.53125 8.53125h102.402343c4.710938 0 8.527344-3.820313 8.53125-8.53125v-25.601563c-.03125-28.261718-22.933593-51.167968-51.199219-51.199218zm0 0"/><path d="m255.898438 444.195312h-136.535157c-4.710937 0-8.53125-3.820312-8.53125-8.53125 0-4.714843 3.820313-8.535156 8.53125-8.535156h136.535157c4.710937 0 8.53125 3.820313 8.53125 8.535156 0 4.710938-3.820313 8.53125-8.53125 8.53125zm0 0"/><path d="m375.363281 478.328125h-102.398437c-14.132813-.015625-25.585938-11.464844-25.601563-25.597656v-25.601563c.042969-37.683594 30.582031-68.222656 68.265625-68.265625h17.070313c37.683593.042969 68.222656 30.582031 68.265625 68.265625v25.601563c-.015625 14.132812-11.46875 25.582031-25.601563 25.597656zm-59.734375-102.398437c-28.261718.03125-51.167968 22.9375-51.199218 51.199218v25.601563c.003906 4.710937 3.824218 8.53125 8.535156 8.53125h102.398437c4.710938 0 8.53125-3.820313 8.535157-8.53125v-25.601563c-.03125-28.261718-22.9375-51.167968-51.199219-51.199218zm0 0"/><path d="m392.429688 444.195312h-136.53125c-4.714844 0-8.535157-3.820312-8.535157-8.53125 0-4.714843 3.820313-8.535156 8.535157-8.535156h136.53125c4.714843 0 8.535156 3.820313 8.535156 8.535156 0 4.710938-3.820313 8.53125-8.535156 8.53125zm0 0"/><path d="m81.789062 382.503906c-19.082031-.609375-36.8125-9.988281-48.058593-25.414062-19.632813-25.726563-17.921875-60.144532 3.800781-76.726563 21.707031-16.59375 55.359375-9.148437 75.007812 16.582031 19.632813 25.726563 17.925782 60.144532-3.800781 76.714844-7.757812 5.847656-17.234375 8.957032-26.949219 8.84375zm-17.175781-93.992187c-6.023437-.097657-11.910156 1.808593-16.734375 5.417969-14.238281 10.875-14.503906 34.558593-.582031 52.808593 13.910156 18.226563 36.824219 24.234375 51.09375 13.359375 14.238281-10.867187 14.5-34.5625.582031-52.800781-7.980468-11.183594-20.636718-18.101563-34.359375-18.785156zm0 0"/><path d="m24.90625 302.429688-21.851562-55.292969c-8.59375-21.445313 1.558593-45.824219 22.832031-54.832031l44.546875-19.113282c2.164062-.914062 4.445312-1.53125 6.773437-1.835937l2.046875 16.953125c-.753906.101562-1.488281.308594-2.191406.605468l-44.441406 19.074219c-12.753906 5.402344-18.84375 20.015625-13.695313 32.875l21.851563 55.296875zm0 0"/><path d="m54 283.230469-19.203125-48.632813c-1.699219-4.292968.328125-9.15625 4.570313-10.976562l34.222656-14.683594 6.734375 15.683594-26.609375 11.417968 16.148437 40.925782zm0 0"/><path d="m430.136719 382.503906c-9.710938.117188-19.191407-2.992187-26.949219-8.839844-10.988281-8.625-17.4375-21.796874-17.507812-35.765624-.273438-14.820313 4.566406-29.285157 13.710937-40.953126 19.632813-25.722656 53.289063-33.164062 75.007813-16.582031 21.714843 16.582031 23.421874 51 3.796874 76.726563-11.246093 15.425781-28.976562 24.800781-48.058593 25.414062zm17.183593-93.992187c-13.722656.683593-26.378906 7.601562-34.363281 18.785156-6.75 8.535156-10.359375 19.132813-10.21875 30.015625-.054687 8.84375 3.921875 17.230469 10.800781 22.785156 14.257813 10.890625 37.175782 4.875 51.089844-13.359375 13.917969-18.25 13.65625-41.933593-.582031-52.808593-4.820313-3.605469-10.703125-5.511719-16.726563-5.417969zm0 0"/><path d="m487.023438 302.429688-15.867188-6.265626 21.84375-55.292968c5.160156-12.859375-.929688-27.484375-13.691406-32.882813l-44.542969-19.113281c-.671875-.277344-1.378906-.46875-2.101563-.566406l2.050782-16.953125c2.296875.296875 4.542968.902343 6.683594 1.792969l44.644531 19.15625c21.277343 9.007812 31.429687 33.394531 22.824219 54.84375zm0 0"/><path d="m457.921875 283.230469-15.867187-6.265625 16.152343-40.925782-26.601562-11.417968 6.734375-15.683594 34.21875 14.683594c4.242187 1.820312 6.265625 6.683594 4.566406 10.976562zm0 0"/><path d="m204.699219 179.664062c-16.8125 0-25.601563-23.609374-25.601563-46.933593s8.789063-46.933594 25.601563-46.933594c16.808593 0 25.597656 23.609375 25.597656 46.933594s-8.789063 46.933593-25.597656 46.933593zm-.171875-76.824218c-2.046875.78125-8.363282 11.148437-8.363282 29.890625 0 18.742187 6.308594 29.109375 8.703126 29.890625 2.046874-.78125 8.363281-11.148438 8.363281-29.890625 0-18.742188-6.308594-29.109375-8.703125-29.890625zm0 0"/><path d="m307.097656 179.664062c-16.8125 0-25.601562-23.609374-25.601562-46.933593s8.789062-46.933594 25.601562-46.933594c16.808594 0 25.601563 23.609375 25.601563 46.933594s-8.792969 46.933593-25.601563 46.933593zm-.171875-76.824218c-2.046875.78125-8.363281 11.148437-8.363281 29.890625 0 18.742187 6.308594 29.109375 8.707031 29.890625 2.046875-.78125 8.359375-11.148438 8.359375-29.890625 0-18.742188-6.308594-29.109375-8.703125-29.890625zm0 0"/><path d="m230.296875 188.195312c-2.261719.003907-4.433594-.894531-6.03125-2.5-5.601563-4.265624-12.539063-6.402343-19.566406-6.03125-7.082031-.382812-14.0625 1.796876-19.667969 6.132813-3.410156 3.195313-8.742188 3.082031-12.015625-.25-3.25-3.316406-3.226563-8.628906.046875-11.917969 8.746094-7.585937 20.066406-11.535156 31.636719-11.03125 11.566406-.503906 22.886719 3.445313 31.632812 11.03125 2.4375 2.441406 3.167969 6.113282 1.847657 9.300782-1.320313 3.1875-4.429688 5.265624-7.882813 5.265624zm0 0"/><path d="m332.699219 188.195312c-2.265625.003907-4.4375-.894531-6.035157-2.5-5.601562-4.265624-12.535156-6.402343-19.566406-6.03125-7.078125-.382812-14.058594 1.796876-19.667968 6.132813-3.40625 3.195313-8.742188 3.082031-12.015626-.25-3.25-3.316406-3.226562-8.628906.050782-11.917969 8.746094-7.585937 20.066406-11.535156 31.632812-11.03125 11.566406-.503906 22.886719 3.445313 31.632813 11.03125 2.441406 2.441406 3.167969 6.113282 1.847656 9.300782s-4.429687 5.265624-7.878906 5.265624zm0 0"/><path d="m163.683594 83.589844c9.644531 3.753906 20.175781 4.605468 30.300781 2.460937 4.835937-1.554687 9.347656-3.976562 13.3125-7.152343 2.183594-1.535157 3.984375-3.636719 6.207031-5.355469 1.949219-2.019531 3.777344-4.183594 5.941406-6.203125l.257813-.238282c.933594-.871093 2.347656-.976562 3.402344-.25 1.054687.726563 1.460937 2.085938.976562 3.269532-1.167969 2.871094-2.613281 5.636718-4.035156 8.472656-1.703125 2.730469-3.621094 5.320312-5.734375 7.746094-4.535156 5.070312-10.277344 8.921875-16.691406 11.195312-6.589844 2.296875-13.726563 2.542969-20.460938.707032-6.476562-1.691407-12.3125-5.253907-16.78125-10.238282-.816406-.945312-.914062-2.3125-.234375-3.359375.675781-1.046875 1.960938-1.523437 3.15625-1.164062zm0 0"/><path d="m351.417969 88c-4.46875 4.988281-10.304688 8.546875-16.78125 10.242188-6.734375 1.835937-13.871094 1.589843-20.460938-.707032-6.417969-2.273437-12.15625-6.125-16.695312-11.195312-2.109375-2.429688-4.027344-5.019532-5.730469-7.746094-1.421875-2.835938-2.871094-5.601562-4.035156-8.472656-.484375-1.183594-.078125-2.542969.976562-3.269532 1.050782-.726562 2.464844-.621093 3.402344.25l.253906.238282c2.164063 2.015625 3.992188 4.179687 5.945313 6.199218 2.21875 1.71875 4.023437 3.820313 6.207031 5.359376 3.964844 3.175781 8.476562 5.597656 13.3125 7.152343 10.121094 2.144531 20.652344 1.289063 30.296875-2.460937l.382813-.113282c1.195312-.363281 2.484374.109376 3.164062 1.160157.675781 1.046875.582031 2.417969-.238281 3.363281zm0 0"/><path d="m298.5625 265.171875h-17.066406c-9.515625-.011719-17.226563-7.726563-17.234375-17.242187v-17.066407l-16.898438.171875.171875 16.894532c-.011718 9.515624-7.722656 17.226562-17.238281 17.238281h-17.066406c-9.515625-.011719-17.226563-7.722657-17.238281-17.238281v-17.066407l-16.894532.171875.171875 16.894532c-.011719 9.515624-7.722656 17.226562-17.238281 17.238281h-17.066406c-4.808594 0-8.710938-3.898438-8.710938-8.707031 0-4.8125 3.902344-8.710938 8.710938-8.710938h17.066406l-.171875-16.886719c.011719-9.515625 7.722656-17.226562 17.238281-17.238281h17.066406c9.515626.011719 17.226563 7.722656 17.238282 17.238281v17.066407l16.894531-.171876-.171875-16.894531c.011719-9.515625 7.722656-17.226562 17.238281-17.238281h17.066407c9.515624.011719 17.226562 7.722656 17.238281 17.238281v17.066407l16.894531-.171876c4.8125 0 8.710938 3.898438 8.710938 8.710938 0 4.808594-3.898438 8.707031-8.710938 8.707031zm0 0"/><path d="m326.230469 309.90625c-2.308594 0-4.527344-.917969-6.160157-2.550781l-24.132812-24.132813c-10.050781-10.074218-10.050781-26.378906 0-36.449218 10.203125-9.734376 26.25-9.734376 36.453125 0l24.140625 24.132812c3.398438 3.402344 3.398438 8.914062 0 12.316406l-24.140625 24.132813c-1.632813 1.632812-3.851563 2.550781-6.160156 2.550781zm-12.066407-53.269531c-3.378906.007812-6.421874 2.042969-7.710937 5.164062-1.292969 3.121094-.582031 6.710938 1.800781 9.105469l17.976563 17.972656 11.824219-11.816406-17.984376-17.972656c-1.558593-1.578125-3.6875-2.460938-5.90625-2.453125zm0 0"/></svg>