<svg height="512pt" viewBox="0 0 512.01888 512" width="512pt" xmlns="http://www.w3.org/2000/svg"><path d="m78.011719 395.035156c-3.15625 4.011719-6.484375 7.933594-9.898438 11.773438-12.605469 13.949218-34.113281 15.082031-48.113281 2.539062-14-12.546875-15.226562-34.050781-2.742188-48.105468 7.546876-8.453126 14.371094-17.53125 20.394532-27.136719zm0 0" fill="#008a00"/><path d="m247.484375 8.558594c-101.269531-.015625-190.675781 66.109375-220.3125 162.949218-29.640625 96.835938 7.441406 201.675782 91.375 258.34375h.085937l69.121094 48.042969v8.53125c.027344 9.414063 7.652344 17.039063 17.066406 17.066407h145.066407c9.414062-.027344 17.039062-7.652344 17.066406-17.066407v-50.429687c.765625-.511719 1.535156-.941406 2.304687-1.453125 3.753907-2.386719 7.507813-4.863281 11.089844-7.421875.011719.089844.042969.175781.085938.253906 1.058594 2.222656 2.570312 4.199219 4.4375 5.804688.597656.597656 1.28125 1.277343 1.964844 1.875 1.257812 1.097656 2.597656 2.097656 4.007812 2.988281.6875.5625 1.429688 1.046875 2.21875 1.449219.800781.449218 1.628906.847656 2.476562 1.195312.6875.335938 1.402344.621094 2.132813.855469 1.109375.425781 2.21875.765625 3.328125 1.109375 2.8125.75 5.710938 1.121094 8.617188 1.109375 9.707031.011719 18.960937-4.117188 25.429687-11.351563 43.410156-48.574218 67.726563-111.242187 68.4375-176.382812 1.023437-76.800782-51.199219-247.46875-256-247.46875zm0 0" fill="#4fba6f"/><path d="m503.484375 256.027344c-.710937 65.140625-25.027344 127.808594-68.4375 176.382812-6.46875 7.234375-15.722656 11.363282-25.429687 11.351563-2.90625.011719-5.804688-.359375-8.617188-1.109375-1.109375-.34375-2.21875-.683594-3.328125-1.109375-.730469-.234375-1.445313-.519531-2.132813-.855469-.847656-.347656-1.675781-.746094-2.476562-1.195312-.789062-.402344-1.53125-.886719-2.21875-1.449219-1.410156-.890625-2.75-1.890625-4.007812-2.988281-.683594-.597657-1.367188-1.277344-1.964844-1.875-1.867188-1.605469-3.378906-3.582032-4.4375-5.804688-.042969-.078125-.074219-.164062-.085938-.253906-3.582031 2.558594-7.335937 5.035156-11.089844 7.421875-.769531.511719-1.539062.941406-2.304687 1.453125-20.9375 12.726562-43.785156 22.003906-67.671875 27.476562h-.253906l-.339844-2.644531c-8.617188-20.695313-28.789062-34.210937-51.203125-34.304687h-8.53125c-20.351563.027343-38.765625 12.078124-46.933594 30.71875-.6875 1.617187-1.285156 3.269531-1.792969 4.949218-1.648437 5.042969-2.484374 10.3125-2.472656 15.617188v.085937l-69.121094-48.042969h-.085937c-83.933594-56.667968-121.015625-161.507812-91.375-258.34375 29.636719-96.839843 119.042969-162.964843 220.3125-162.949218 204.800781 0 257.023437 170.667968 256 247.46875zm0 0" fill="#60a917"/><path d="m192.019531 457.242188c-8.152343-18.652344-26.578125-30.703126-46.933593-30.695313h-8.535157c-28.292969.046875-51.207031 23.003906-51.199219 51.296875v8.550781c.019532 9.421875 7.644532 17.0625 17.066407 17.097657h145.066406zm0 0" fill="#3f51b5"/><path d="m366.953125 435.996094v50.429687c-.027344 9.414063-7.652344 17.039063-17.066406 17.066407h-145.066407c-9.414062-.027344-17.039062-7.652344-17.066406-17.066407v-8.617187c-.011718-5.304688.824219-10.574219 2.472656-15.617188.507813-1.679687 1.105469-3.332031 1.792969-4.949218 8.167969-18.640626 26.582031-30.691407 46.933594-30.71875h8.53125c22.414063.09375 42.585937 13.609374 51.203125 34.304687l.59375 2.644531c23.886719-5.472656 46.734375-14.75 67.671875-27.476562zm0 0" fill="#3f51b5"/><path d="m366.953125 435.996094v17.066406c-15.945313 9.6875-33.011719 17.390625-50.824219 22.933594-3.960937 1.199218-8.253906.449218-11.578125-2.019532-3.320312-2.46875-5.273437-6.367187-5.269531-10.503906 23.886719-5.472656 46.734375-14.75 67.671875-27.476562zm0 0" fill="#283593"/><path d="m380.347656 427.121094c-3.582031 2.558594-7.335937 5.035156-11.089844 7.421875-13.527343-12.691407-14.472656-33.851563-2.136718-47.699219 26.3125-29.355469 43.144531-65.972656 48.292968-105.054688 1.207032-9.3125 9.132813-16.285156 18.523438-16.289062-2.128906 44.964844-19.699219 87.820312-49.746094 121.34375-9.945312 11.144531-11.5 27.453125-3.84375 40.277344zm0 0" fill="#549414"/><path d="m380.433594 427.375c1.300781 2.066406 2.785156 4.007812 4.4375 5.804688-1.867188-1.605469-3.378906-3.582032-4.4375-5.804688zm0 0" fill="#f0c419"/><path d="m238.953125 324.277344h42.664063c4.707031-.015625 8.519531-3.828125 8.535156-8.535156v-8.53125c0-42.417969-34.382813-76.800782-76.800782-76.800782-42.414062 0-76.800781 34.382813-76.800781 76.800782v8.53125c.015625 4.707031 3.828125 8.519531 8.535157 8.535156zm0 0" fill="#bb193b"/><path d="m174.441406 201.738281c12.671875-12.015625 16.746094-30.542969 10.277344-46.765625s-22.167969-26.863281-39.632812-26.863281c-17.464844 0-33.164063 10.640625-39.632813 26.863281s-2.394531 34.75 10.277344 46.765625zm0 0" fill="#f5f5f5"/><path d="m162.039062 170.757812c0-14.101562-11.410156-25.535156-25.488281-25.535156-14.074219 0-25.484375 11.433594-25.484375 25.535156 0 14.101563 11.410156 25.535157 25.484375 25.535157 14.078125 0 25.488281-11.433594 25.488281-25.535157zm0 0" fill="#3f51b5"/><path d="m310.972656 201.738281c.257813-.257812.597656-.511719.855469-.769531 16.628906-16.671875 16.605469-43.667969-.050781-60.3125-16.660156-16.644531-43.65625-16.644531-60.316406 0-16.660157 16.644531-16.679688 43.640625-.050782 60.3125.257813.257812.597656.511719.855469.769531zm0 0" fill="#f5f5f5"/><path d="m298.570312 170.757812c-.007812 12.171876-8.613281 22.640626-20.554687 25.007813-11.9375 2.363281-23.886719-4.035156-28.539063-15.28125-4.648437-11.246094-.707031-24.214844 9.417969-30.972656 10.125-6.753907 23.609375-5.417969 32.210938 3.191406 4.789062 4.785156 7.476562 11.285156 7.464843 18.054687zm0 0" fill="#3f51b5"/><path d="m281.617188 324.292969h-42.664063s0 34.476562 12.117187 55.125c4.023438-2.570313 8.703126-3.933594 13.480469-3.925781 12.476563-.027344 23.144531 8.960937 25.238281 21.257812 2.089844 12.296875-5.007812 24.308594-16.789062 28.40625.070312.507812.101562 1.023438.085938 1.535156.007812 6.792969-2.683594 13.3125-7.488282 18.113282-4.804687 4.804687-11.320312 7.496093-18.113281 7.488281-7.105469.023437-13.886719-2.953125-18.6875-8.191407-3.699219 10.046876-13.269531 16.726563-23.976563 16.726563-10.710937 0-20.28125-6.679687-23.980468-16.726563-4.796875 5.238282-11.582032 8.214844-18.6875 8.191407-6.792969.007812-13.308594-2.683594-18.113282-7.488281-4.800781-4.800782-7.496093-11.320313-7.488281-18.113282-.011719-.511718.015625-1.027344.085938-1.535156-11.78125-4.097656-18.878907-16.109375-16.785157-28.40625 2.089844-12.296875 12.761719-21.285156 25.234376-21.257812 4.777343-.007813 9.457031 1.355468 13.480468 3.925781 12.121094-20.648438 12.121094-55.125 12.121094-55.125v-8.53125c.007812-23.5625 19.105469-42.660157 42.664062-42.667969h68.78125c5.28125 10.601562 8.027344 22.289062 8.019532 34.132812v8.535157c-.015625 4.707031-3.828125 8.519531-8.535156 8.53125zm0 0" fill="#009688"/><path d="m162.152344 162.160156c0 4.710938-3.820313 8.53125-8.535156 8.53125-4.710938 0-8.53125-3.820312-8.53125-8.53125 0-4.714844 3.820312-8.535156 8.53125-8.535156 4.714843 0 8.535156 3.820312 8.535156 8.535156zm0 0" fill="#f5f5f5"/><path d="m298.6875 162.160156c0 4.710938-3.824219 8.53125-8.535156 8.53125-4.714844 0-8.535156-3.820312-8.535156-8.53125 0-4.714844 3.820312-8.535156 8.535156-8.535156 4.710937 0 8.535156 3.820312 8.535156 8.535156zm0 0" fill="#f5f5f5"/><path d="m503.484375 256.027344c-.710937 65.140625-25.027344 127.808594-68.4375 176.382812-6.46875 7.234375-15.722656 11.363282-25.429687 11.351563-2.90625.011719-5.804688-.359375-8.617188-1.109375-1.109375-.34375-2.21875-.683594-3.328125-1.109375-.300781-.0625-.589844-.179688-.851563-.34375 4.847657-1.878907 9.179688-4.894531 12.628907-8.789063 43.40625-48.574218 67.722656-111.242187 68.4375-176.382812 1.023437-74.921875-48.726563-239.277344-241.496094-247.125 3.671875-.257813 7.339844-.34375 11.09375-.34375 204.800781 0 257.023437 170.667968 256 247.46875zm0 0" fill="#549414"/><path d="m366.953125 435.996094v50.429687c-.027344 9.414063-7.652344 17.039063-17.066406 17.066407h-25.601563c9.414063-.027344 17.039063-7.652344 17.066406-17.066407v-37.035156c8.808594-3.917969 17.359376-8.394531 25.601563-13.394531zm0 0" fill="#283593"/><path d="m298.6875 469.34375c-3.59375-.003906-6.800781-2.253906-8.023438-5.632812-4.121093-10.34375-12.007812-18.746094-22.074218-23.507813-4.214844-2.109375-5.925782-7.234375-3.816406-11.449219 2.105468-4.21875 7.234374-5.925781 11.449218-3.820312 13.96875 6.738281 24.863282 18.519531 30.484375 32.976562 1.601563 4.429688-.695312 9.320313-5.125 10.921875-.929687.339844-1.910156.511719-2.894531.511719zm0 0"/><path d="m349.886719 512.007812h-145.066407c-14.132812-.015624-25.585937-11.464843-25.601562-25.597656v-8.621094c-.007812-6.207031.96875-12.375 2.902344-18.273437.550781-1.785156 1.191406-3.539063 1.925781-5.257813 1.445313-3.851562 5.4375-6.117187 9.488281-5.390624 4.046875.726562 7 4.242187 7.019532 8.355468v.085938c0 1.136718-.226563 2.261718-.667969 3.308594-.5625 1.304687-1.058594 2.636718-1.484375 3.992187-1.402344 4.253906-2.117188 8.703125-2.117188 13.183594v8.617187c.003906 4.714844 3.820313 8.53125 8.535156 8.535156h145.066407c4.710937-.003906 8.53125-3.820312 8.53125-8.535156v-50.429687c0-4.714844 3.820312-8.535157 8.535156-8.535157 4.710937 0 8.53125 3.820313 8.53125 8.535157v50.429687c-.015625 14.132813-11.46875 25.582032-25.597656 25.597656zm0 0"/><path d="m247.484375 512.007812h-145.066406c-14.132813-.015624-25.582031-11.464843-25.597657-25.597656v-8.621094c.058594-24.875 15.46875-47.132812 38.730469-55.949218.203125-.074219.394531-.140625.59375-.199219 6.519531-2.464844 13.4375-3.707031 20.40625-3.664063 4.714844 0 8.535157 3.820313 8.535157 8.53125 0 4.714844-3.820313 8.535157-8.535157 8.535157-5.042969-.042969-10.050781.878906-14.75 2.71875-.265625.105469-.550781.199219-.832031.28125-16.316406 6.457031-27.046875 22.203125-27.082031 39.75v8.617187c0 4.714844 3.820312 8.53125 8.53125 8.535156h145.066406c4.714844 0 8.535156 3.820313 8.535156 8.535157 0 4.710937-3.820312 8.53125-8.535156 8.53125zm0 0"/><path d="m42.6875 426.675781c-16.835938.007813-32.097656-9.882812-38.96875-25.246093-6.871094-15.367188-4.066406-33.335938 7.160156-45.878907 7.230469-8.09375 13.769532-16.785156 19.539063-25.980469 2.550781-3.867187 7.722656-4.996093 11.648437-2.539062 3.925782 2.457031 5.179688 7.597656 2.820313 11.582031-6.28125 10.007813-13.390625 19.46875-21.257813 28.285157-9.398437 10.554687-8.515625 26.71875 1.972656 36.191406 10.6875 8.996094 26.535157 8.121094 36.167969-1.996094 3.265625-3.683594 6.484375-7.476562 9.542969-11.359375 1.863281-2.464844 4.914062-3.730469 7.972656-3.308594 3.0625.421875 5.65625 2.46875 6.78125 5.347657 1.125 2.878906.605469 6.140624-1.359375 8.527343-3.257812 4.132813-6.691406 8.191407-10.207031 12.160157-8.109375 9.035156-19.671875 14.203124-31.8125 14.214843zm0 0"/><path d="m409.617188 452.277344c-16.832032.007812-32.09375-9.882813-38.964844-25.25-6.871094-15.363282-4.066406-33.335938 7.160156-45.875 28.703125-32.089844 45.507812-73.070313 47.597656-116.078125.300782-4.671875 4.253906-8.265625 8.933594-8.113281 2.261719.105468 4.386719 1.109374 5.910156 2.785156 1.519532 1.675781 2.316406 3.886718 2.207032 6.148437-2.28125 46.910157-20.609376 91.613281-51.917969 126.625-9.382813 10.558594-8.492188 26.707031 1.992187 36.175781 10.691406 8.996094 26.535156 8.117188 36.167969-2.003906 42.003906-47.050781 65.539063-107.726562 66.25-170.796875-1.121094-63.945312-26.054687-125.171875-69.925781-171.710937-43.941406-44.523438-103.675782-67.109375-177.542969-67.109375-97.453125-.011719-183.503906 63.578125-212.097656 156.742187-28.597657 93.160156 6.953125 194.078125 87.632812 248.742188 3.261719 1.980468 4.808594 5.886718 3.789063 9.566406-1.019532 3.675781-4.359375 6.226562-8.175782 6.242188h-.085937c-1.699219 0-3.363281-.507813-4.773437-1.457032-87.039063-58.769531-125.492188-167.488281-94.757813-267.914062 30.734375-100.421875 123.449219-169.00000025 228.46875-168.9882815 78.601563 0 142.421875 24.2929685 189.695313 72.1953125 47.371093 49.597656 74.121093 115.34375 74.839843 183.921875-.765625 67.195312-25.847656 131.839844-70.609375 181.960938-8.105468 9.023437-19.660156 14.183593-31.792968 14.191406zm0 0"/><path d="m299.277344 471.984375c-4.335938-.011719-7.976563-3.269531-8.460938-7.582031-.484375-4.308594 2.34375-8.296875 6.570313-9.265625 22.988281-5.265625 44.980469-14.199219 65.132812-26.457031 4.308594-2.683594 8.691407-5.574219 12.914063-8.554688 2.492187-1.757812 5.734375-2.050781 8.5-.773438 2.765625 1.28125 4.640625 3.9375 4.917968 6.976563.273438 3.035156-1.089843 5.988281-3.582031 7.746094-4.492187 3.164062-9.140625 6.242187-13.808593 9.140625-21.738282 13.234375-45.46875 22.875-70.273438 28.550781-.628906.144531-1.269531.21875-1.910156.21875zm0 0"/><path d="m170.6875 332.808594c-2.265625.003906-4.4375-.894532-6.039062-2.496094-1.597657-1.601562-2.496094-3.773438-2.496094-6.035156v-8.535156c.03125-28.261719 22.9375-51.167969 51.199218-51.199219h68.78125c4.710938 0 8.53125 3.820312 8.53125 8.53125 0 4.714843-3.820312 8.535156-8.53125 8.535156h-68.78125c-18.84375.019531-34.113281 15.289063-34.132812 34.132813v8.535156c0 2.261718-.898438 4.433594-2.496094 6.035156-1.601562 1.601562-3.773437 2.5-6.035156 2.496094zm0 0"/><path d="m281.617188 332.808594h-42.664063c-4.714844 0-8.535156-3.820313-8.535156-8.53125 0-4.714844 3.820312-8.535156 8.535156-8.535156h42.664063v-8.53125c0-37.703126-30.5625-68.269532-68.265626-68.269532-37.703124 0-68.265624 30.566406-68.265624 68.269532v8.53125h25.601562c4.710938 0 8.53125 3.820312 8.53125 8.535156 0 4.710937-3.820312 8.53125-8.53125 8.53125h-25.601562c-9.421876-.011719-17.054688-7.644532-17.066407-17.066406v-8.53125c0-47.128907 38.203125-85.335938 85.332031-85.335938 47.128907 0 85.335938 38.207031 85.335938 85.335938v8.53125c-.015625 9.421874-7.648438 17.054687-17.070312 17.066406zm0 0"/><path d="m145.09375 401.074219c-4.03125.007812-7.519531-2.8125-8.359375-6.753907-.839844-3.945312 1.199219-7.941406 4.886719-9.578124 16.707031-7.421876 20.515625-47.140626 20.53125-60.472657.003906-4.710937 3.824218-8.527343 8.535156-8.527343h.007812c4.707032.007812 8.519532 3.824218 8.523438 8.535156 0 6.390625-.859375 62.816406-30.667969 76.066406-1.085937.484375-2.265625.734375-3.457031.730469zm0 0"/><path d="m264.542969 401.074219c-1.191407.003906-2.367188-.246094-3.457031-.730469-29.808594-13.25-30.667969-69.675781-30.667969-76.066406.003906-4.710938 3.816406-8.527344 8.527343-8.535156h.007813c4.707031 0 8.527344 3.816406 8.53125 8.527343.019531 13.332031 3.824219 53.050781 20.535156 60.472657 3.683594 1.636718 5.722657 5.632812 4.882813 9.578124-.839844 3.941407-4.324219 6.761719-8.359375 6.753907zm0 0"/><path d="m174.441406 210.269531c-3.492187-.003906-6.632812-2.132812-7.921875-5.375-1.292969-3.246093-.480469-6.949219 2.054688-9.351562 6.828125-6.429688 10.683593-15.402344 10.644531-24.785157 0-18.847656-15.28125-34.132812-34.132812-34.132812-18.851563 0-34.132813 15.285156-34.132813 34.132812-.042969 9.382813 3.8125 18.355469 10.640625 24.785157 2.316406 2.070312 3.324219 5.238281 2.632812 8.269531-.695312 3.027344-2.980468 5.441406-5.96875 6.296875-2.988281.855469-6.203124.019531-8.398437-2.183594-15.207031-14.417969-20.09375-36.648437-12.332031-56.117187 7.757812-19.46875 26.601562-32.238282 47.558594-32.238282 20.957031 0 39.796874 12.769532 47.558593 32.238282s2.875 41.699218-12.335937 56.117187c-1.582032 1.507813-3.683594 2.347657-5.867188 2.34375zm0 0"/><path d="m252.265625 210.269531c-2.265625 0-4.4375-.898437-6.035156-2.5-.300781-.242187-.582031-.496093-.851563-.769531-9.566406-9.636719-14.941406-22.660156-14.960937-36.242188 0-28.273437 22.925781-51.199218 51.199219-51.199218 28.277343 0 51.203124 22.925781 51.203124 51.199218-.019531 13.582032-5.394531 26.605469-14.960937 36.242188-.148437.152344-.738281.691406-.898437.828125-3.507813 3.039063-8.777344 2.832031-12.03125-.476563-3.175782-3.238281-3.167969-8.421874.015624-11.648437.152344-.152344.726563-.675781.882813-.816406 13.265625-13.359375 13.203125-34.933594-.128906-48.222657-13.335938-13.285156-34.914063-13.261718-48.222657.050782-13.308593 13.3125-13.320312 34.886718-.03125 48.21875.273438.226562.582032.5.851563.769531 2.441406 2.441406 3.171875 6.109375 1.851563 9.296875-1.320313 3.1875-4.433594 5.269531-7.882813 5.269531zm0 0"/><path d="m181.402344 60.429688c-1.128906 9.382812-4.996094 18.222656-11.125 25.414062-6.089844 7.441406-13.914063 13.277344-22.78125 16.996094-8.753906 3.617187-18.160156 5.382812-27.628906 5.1875-4.582032-.117188-9.144532-.605469-13.648438-1.460938-4.375-1.082031-8.679688-2.441406-12.882812-4.074218-1.363282-.53125-2.195313-1.910157-2.023438-3.363282.167969-1.449218 1.292969-2.605468 2.738281-2.808594l.390625-.054687c4.316406-.597656 8.460938-.703125 12.542969-.972656 4.054687-.636719 8.085937-.757813 11.953125-1.511719 7.570312-1.199219 14.980469-3.242188 22.09375-6.097656 6.902344-3.054688 13.382812-6.984375 19.285156-11.6875 6.253906-5.054688 11.980469-10.734375 17.089844-16.945313l.191406-.230469c.609375-.722656 1.625-.96875 2.496094-.597656.875.371094 1.40625 1.265625 1.308594 2.207032zm0 0"/><path d="m249.488281 59.054688c5.109375 6.210937 10.835938 11.886718 17.089844 16.941406 5.902344 4.703125 12.382813 8.632812 19.28125 11.691406 7.113281 2.855469 14.523437 4.898438 22.09375 6.097656 3.867187.753906 7.898437.871094 11.953125 1.511719 4.082031.265625 8.226562.371094 12.542969.972656l.386719.054688c1.445312.199219 2.574218 1.355469 2.746093 2.804687.167969 1.453125-.664062 2.835938-2.027343 3.367188-4.203126 1.632812-8.507813 2.992187-12.882813 4.070312-4.503906.859375-9.066406 1.347656-13.648437 1.460938-9.46875.199218-18.875-1.566406-27.625-5.183594-8.871094-3.722656-16.691407-9.558594-22.785157-17-6.125-7.191406-9.996093-16.03125-11.121093-25.410156-.097657-.941406.429687-1.835938 1.300781-2.207032.871093-.371093 1.882812-.132812 2.496093.585938zm0 0"/><path d="m179.21875 213.34375c-2.261719.003906-4.433594-.898438-6.03125-2.5-8.519531-4.863281-18.335938-6.972656-28.101562-6.035156-20.859376 0-28.246094 6.175781-28.316407 6.242187-3.492187 3.027344-8.738281 2.792969-11.949219-.53125-3.160156-3.292969-3.113281-8.503906.101563-11.742187 1.84375-1.84375 12.433594-11.035156 40.167969-11.035156s38.324218 9.191406 40.164062 11.035156c2.441406 2.441406 3.171875 6.109375 1.851563 9.300781-1.324219 3.1875-4.433594 5.265625-7.886719 5.265625zm0 0"/><path d="m315.753906 213.34375c-2.265625.003906-4.4375-.898438-6.035156-2.5-8.519531-4.863281-18.335938-6.972656-28.101562-6.035156-20.855469 0-28.242188 6.175781-28.316407 6.242187-3.492187 3.027344-8.738281 2.792969-11.945312-.53125-3.160157-3.292969-3.117188-8.503906.101562-11.742187 1.839844-1.84375 12.433594-11.035156 40.164063-11.035156 27.734375 0 38.324218 9.191406 40.167968 11.035156 2.441407 2.441406 3.167969 6.109375 1.847657 9.300781-1.320313 3.1875-4.433594 5.265625-7.882813 5.265625zm0 0"/><path d="m204.820312 469.34375c-10.277343-.015625-20.003906-4.652344-26.484374-12.628906-9.945313 5.371094-21.902344 5.46875-31.929688.257812-10.03125-5.207031-16.828125-15.046875-18.15625-26.269531-10.761719-6.089844-17.382812-17.535156-17.296875-29.90625.085937-12.367187 6.867187-23.71875 17.714844-29.660156 10.851562-5.941407 24.066406-5.539063 34.535156 1.050781 2.652344 1.589844 4.234375 4.496094 4.136719 7.585938-.097656 3.09375-1.859375 5.890624-4.609375 7.3125-2.746094 1.417968-6.046875 1.242187-8.628907-.464844-2.691406-1.71875-5.824218-2.625-9.015624-2.613282-9.421876.015626-17.054688 7.648438-17.066407 17.066407-.015625 7.21875 4.558594 13.644531 11.382813 15.996093 3.9375 1.351563 6.328125 5.347657 5.660156 9.457032-.035156 9.472656 7.617188 17.179687 17.089844 17.214844 4.714844.035156 9.222656-1.933594 12.398437-5.414063 2.015625-2.199219 5.027344-3.1875 7.953125-2.609375 2.921875.578125 5.332032 2.640625 6.355469 5.441406 2.46875 6.679688 8.839844 11.113282 15.957031 11.113282 7.121094 0 13.488282-4.433594 15.957032-11.113282 1.023437-2.800781 3.4375-4.863281 6.359374-5.441406 2.925782-.601562 5.949219.390625 7.953126 2.609375 3.175781 3.480469 7.683593 5.449219 12.398437 5.414063 9.421875-.011719 17.054687-7.644532 17.066406-17.066407-.660156-4.152343 1.726563-8.1875 5.683594-9.605469 6.824219-2.351562 11.398437-8.777343 11.382813-15.996093-.011719-9.417969-7.644532-17.050781-17.066407-17.066407-3.191406-.011718-6.320312.894532-9.015625 2.609376-2.578125 1.707031-5.882812 1.886718-8.628906.464843s-4.511719-4.21875-4.609375-7.3125c-.097656-3.089843 1.484375-5.992187 4.140625-7.585937 10.464844-6.566406 23.667969-6.957032 34.503906-1.015625 10.835938 5.941406 17.609375 17.28125 17.703125 29.636719.089844 12.359374-6.511719 23.796874-17.257812 29.898437-1.324219 11.222656-8.125 21.0625-18.152344 26.269531-10.03125 5.210938-21.988281 5.113282-31.933594-.261718-6.476562 7.980468-16.203125 12.617187-26.480469 12.632812zm0 0"/><path d="m204.820312 418.144531c-2.265624 0-4.4375-.898437-6.035156-2.5-1.601562-1.601562-2.5-3.773437-2.5-6.035156v-17.066406c0-4.714844 3.820313-8.535157 8.535156-8.535157 4.710938 0 8.53125 3.820313 8.53125 8.535157v17.066406c.003907 2.261719-.898437 4.433594-2.496093 6.035156-1.601563 1.601563-3.773438 2.5-6.035157 2.5zm0 0"/></svg>