<svg height="512pt" viewBox="0 0 512.01888 512" width="512pt" xmlns="http://www.w3.org/2000/svg"><path d="m78.011719 395.035156c-3.15625 4.011719-6.484375 7.933594-9.898438 11.773438-12.605469 13.949218-34.113281 15.082031-48.113281 2.539062-14-12.546875-15.226562-34.050781-2.742188-48.105468 7.546876-8.453126 14.371094-17.53125 20.394532-27.136719zm0 0" fill="#ff9801"/><path d="m247.484375 8.558594c-101.269531-.015625-190.675781 66.109375-220.3125 162.949218-29.640625 96.835938 7.441406 201.675782 91.375 258.34375h.085937l69.121094 48.042969v8.53125c.027344 9.414063 7.652344 17.039063 17.066406 17.066407h145.066407c9.414062-.027344 17.039062-7.652344 17.066406-17.066407v-50.429687c.765625-.511719 1.535156-.941406 2.304687-1.453125 3.753907-2.386719 7.507813-4.863281 11.089844-7.421875.011719.089844.042969.175781.085938.253906 1.058594 2.222656 2.570312 4.199219 4.4375 5.804688.597656.597656 1.28125 1.277343 1.964844 1.875 1.257812 1.097656 2.597656 2.097656 4.007812 2.988281.6875.5625 1.429688 1.046875 2.21875 1.449219.800781.449218 1.628906.847656 2.476562 1.195312.6875.335938 1.402344.621094 2.132813.855469 1.109375.425781 2.21875.765625 3.328125 1.109375 2.8125.75 5.710938 1.121094 8.617188 1.109375 9.707031.011719 18.960937-4.117188 25.429687-11.351563 43.410156-48.574218 67.726563-111.242187 68.4375-176.382812 1.023437-76.800782-51.199219-247.46875-256-247.46875zm0 0" fill="#f0c419"/><path d="m503.484375 256.027344c-.710937 65.140625-25.027344 127.808594-68.4375 176.382812-6.46875 7.234375-15.722656 11.363282-25.429687 11.351563-2.90625.011719-5.804688-.359375-8.617188-1.109375-1.109375-.34375-2.21875-.683594-3.328125-1.109375-.730469-.234375-1.445313-.519531-2.132813-.855469-.847656-.347656-1.675781-.746094-2.476562-1.195312-.789062-.402344-1.53125-.886719-2.21875-1.449219-1.410156-.890625-2.75-1.890625-4.007812-2.988281-.683594-.597657-1.367188-1.277344-1.964844-1.875-1.867188-1.605469-3.378906-3.582032-4.4375-5.804688-.042969-.078125-.074219-.164062-.085938-.253906-3.582031 2.558594-7.335937 5.035156-11.089844 7.421875-.769531.511719-1.539062.941406-2.304687 1.453125-20.9375 12.726562-43.785156 22.003906-67.671875 27.476562h-.253906l-.339844-2.644531c-8.617188-20.695313-28.789062-34.210937-51.203125-34.304687h-8.53125c-20.351563.027343-38.765625 12.078124-46.933594 30.71875-.6875 1.617187-1.285156 3.269531-1.792969 4.949218-1.648437 5.042969-2.484374 10.3125-2.472656 15.617188v.085937l-69.121094-48.042969h-.085937c-83.933594-56.667968-121.015625-161.507812-91.375-258.34375 29.636719-96.839843 119.042969-162.964843 220.3125-162.949218 204.800781 0 257.023437 170.667968 256 247.46875zm0 0" fill="#ffdc00"/><path d="m380.347656 427.121094c-3.582031 2.558594-7.335937 5.035156-11.089844 7.421875-13.527343-12.691407-14.472656-33.851563-2.136718-47.699219 26.3125-29.355469 43.144531-65.972656 48.292968-105.054688 1.207032-9.3125 9.132813-16.285156 18.523438-16.289062-2.128906 44.964844-19.699219 87.820312-49.746094 121.34375-9.945312 11.144531-11.5 27.453125-3.84375 40.277344zm0 0" fill="#fec108"/><path d="m192.019531 457.242188c-8.152343-18.652344-26.578125-30.703126-46.933593-30.695313h-8.535157c-28.292969.046875-51.207031 23.003906-51.199219 51.296875v8.550781c.019532 9.421875 7.644532 17.0625 17.066407 17.097657h145.066406zm0 0" fill="#3f51b5"/><path d="m366.953125 435.996094v50.429687c-.027344 9.414063-7.652344 17.039063-17.066406 17.066407h-145.066407c-9.414062-.027344-17.039062-7.652344-17.066406-17.066407v-8.617187c-.011718-5.304688.824219-10.574219 2.472656-15.617188.507813-1.679687 1.105469-3.332031 1.792969-4.949218 8.167969-18.640626 26.582031-30.691407 46.933594-30.71875h8.53125c22.414063.09375 42.585937 13.609374 51.203125 34.304687l.59375 2.644531c23.886719-5.472656 46.734375-14.75 67.671875-27.476562zm0 0" fill="#3f51b5"/><path d="m380.433594 427.375c1.300781 2.066406 2.785156 4.007812 4.4375 5.804688-1.867188-1.605469-3.378906-3.582032-4.4375-5.804688zm0 0" fill="#f0c419"/><path d="m366.953125 435.996094v17.066406c-15.945313 9.6875-33.011719 17.390625-50.824219 22.933594-3.960937 1.199218-8.253906.449218-11.578125-2.019532-3.320312-2.46875-5.273437-6.367187-5.269531-10.503906 23.886719-5.472656 46.734375-14.75 67.671875-27.476562zm0 0" fill="#283593"/><path d="m213.351562 298.675781s-.085937-16-27.304687-21.332031c-20.832031-4.082031-116.539063-5.035156-157.132813-5.265625-10.003906 1.019531-19.015624-6.085937-20.363281-16.050781v-.035156c1.347657-9.964844 10.359375-17.070313 20.363281-16.050782 40.59375-.226562 136.300782-1.183594 157.132813-5.265625 27.21875-5.332031 27.304687-21.332031 27.304687-21.332031" fill="#ffdc00"/><path d="m174.441406 201.738281c12.671875-12.015625 16.746094-30.542969 10.277344-46.765625s-22.167969-26.863281-39.632812-26.863281c-17.464844 0-33.164063 10.640625-39.632813 26.863281s-2.394531 34.75 10.277344 46.765625zm0 0" fill="#f5f5f5"/><path d="m162.039062 170.757812c0-14.101562-11.410156-25.535156-25.488281-25.535156-14.074219 0-25.484375 11.433594-25.484375 25.535156 0 14.101563 11.410156 25.535157 25.484375 25.535157 14.078125 0 25.488281-11.433594 25.488281-25.535157zm0 0" fill="#3f51b5"/><path d="m310.972656 201.738281c.257813-.257812.597656-.511719.855469-.769531 16.628906-16.671875 16.605469-43.667969-.050781-60.3125-16.660156-16.644531-43.65625-16.644531-60.316406 0-16.660157 16.644531-16.679688 43.640625-.050782 60.3125.257813.257812.597656.511719.855469.769531zm0 0" fill="#f5f5f5"/><path d="m298.570312 170.757812c-.007812 12.171876-8.613281 22.640626-20.554687 25.007813-11.9375 2.363281-23.886719-4.035156-28.539063-15.28125-4.648437-11.246094-.707031-24.214844 9.417969-30.972656 10.125-6.753907 23.609375-5.417969 32.210938 3.191406 4.789062 4.785156 7.476562 11.285156 7.464843 18.054687zm0 0" fill="#3f51b5"/><path d="m162.152344 162.160156c0 4.710938-3.820313 8.53125-8.535156 8.53125-4.710938 0-8.53125-3.820312-8.53125-8.53125 0-4.714844 3.820312-8.535156 8.53125-8.535156 4.714843 0 8.535156 3.820312 8.535156 8.535156zm0 0" fill="#f5f5f5"/><path d="m298.6875 162.160156c0 4.710938-3.824219 8.53125-8.535156 8.53125-4.714844 0-8.535156-3.820312-8.535156-8.53125 0-4.714844 3.820312-8.535156 8.535156-8.535156 4.710937 0 8.535156 3.820312 8.535156 8.535156zm0 0" fill="#f5f5f5"/><path d="m503.484375 256.027344c-.710937 65.140625-25.027344 127.808594-68.4375 176.382812-6.46875 7.234375-15.722656 11.363282-25.429687 11.351563-2.90625.011719-5.804688-.359375-8.617188-1.109375-1.109375-.34375-2.21875-.683594-3.328125-1.109375-.300781-.0625-.589844-.179688-.851563-.34375 4.847657-1.878907 9.179688-4.894531 12.628907-8.789063 43.40625-48.574218 67.722656-111.242187 68.4375-176.382812 1.023437-74.921875-48.726563-239.277344-241.496094-247.125 3.671875-.257813 7.339844-.34375 11.09375-.34375 204.800781 0 257.023437 170.667968 256 247.46875zm0 0" fill="#fec108"/><path d="m366.953125 435.996094v50.429687c-.027344 9.414063-7.652344 17.039063-17.066406 17.066407h-25.601563c9.414063-.027344 17.039063-7.652344 17.066406-17.066407v-37.035156c8.808594-3.917969 17.359376-8.394531 25.601563-13.394531zm0 0" fill="#283593"/><path d="m349.886719 512.007812h-145.066407c-14.132812-.015624-25.585937-11.464843-25.601562-25.597656v-8.621094c-.007812-6.207031.96875-12.375 2.902344-18.273437.574218-1.902344 1.253906-3.769531 2.03125-5.601563 9.503906-21.800781 31.015625-35.910156 54.800781-35.9375h8.53125c26.035156.019532 49.460937 15.816407 59.234375 39.949219 1.03125 2.871094.449219 6.070313-1.519531 8.398438-1.972657 2.328125-5.03125 3.425781-8.035157 2.882812-3-.542969-5.480468-2.644531-6.511718-5.515625-7.359375-17.328125-24.339844-28.597656-43.167969-28.648437h-8.53125c-16.96875.011719-32.320313 10.0625-39.117187 25.609375-.546876 1.292968-1.027344 2.613281-1.433594 3.957031-1.402344 4.253906-2.117188 8.703125-2.117188 13.183594v8.617187c.003906 4.714844 3.820313 8.53125 8.535156 8.535156h145.066407c4.710937-.003906 8.53125-3.820312 8.53125-8.535156v-50.429687c0-4.714844 3.820312-8.535157 8.535156-8.535157 4.710937 0 8.53125 3.820313 8.53125 8.535157v50.429687c-.015625 14.132813-11.46875 25.582032-25.597656 25.597656zm0 0"/><path d="m247.484375 512.007812h-145.066406c-14.140625-.023437-25.59375-11.492187-25.597657-25.632812v-8.546875c.011719-33 26.730469-59.765625 59.730469-59.828125h8.535157c23.753906-.027344 45.265624 14.042969 54.757812 35.816406 1.21875 2.796875.851562 6.03125-.960938 8.484375-1.8125 2.449219-4.796874 3.75-7.824218 3.40625-3.03125-.34375-5.648438-2.277343-6.863282-5.074219-6.785156-15.546874-22.144531-25.589843-39.109374-25.566406h-8.535157c-23.578125.054688-42.664062 19.183594-42.664062 42.761719v8.546875c-.007813 4.722656 3.8125 8.554688 8.53125 8.566406h145.066406c4.714844 0 8.535156 3.820313 8.535156 8.535156 0 4.710938-3.820312 8.53125-8.535156 8.53125zm0 0"/><path d="m42.6875 426.675781c-16.835938.007813-32.097656-9.882812-38.96875-25.246093-6.871094-15.367188-4.066406-33.335938 7.160156-45.878907 7.230469-8.09375 13.769532-16.785156 19.539063-25.980469 2.550781-3.867187 7.722656-4.996093 11.648437-2.539062 3.925782 2.457031 5.179688 7.597656 2.820313 11.582031-6.28125 10.007813-13.390625 19.46875-21.257813 28.285157-9.398437 10.554687-8.515625 26.71875 1.972656 36.191406 10.6875 8.996094 26.535157 8.121094 36.167969-1.996094 3.265625-3.683594 6.484375-7.476562 9.542969-11.359375 1.863281-2.464844 4.914062-3.730469 7.972656-3.308594 3.0625.421875 5.65625 2.46875 6.78125 5.347657 1.125 2.878906.605469 6.140624-1.359375 8.527343-3.257812 4.132813-6.691406 8.191407-10.207031 12.160157-8.109375 9.035156-19.671875 14.203124-31.8125 14.214843zm0 0"/><path d="m409.617188 452.277344c-16.832032.007812-32.09375-9.882813-38.964844-25.25-6.871094-15.363282-4.066406-33.335938 7.160156-45.875 28.703125-32.089844 45.507812-73.070313 47.597656-116.078125.273438-4.683594 4.246094-8.289063 8.933594-8.113281 2.261719.105468 4.386719 1.109374 5.910156 2.785156 1.519532 1.675781 2.316406 3.886718 2.207032 6.148437-2.28125 46.910157-20.609376 91.613281-51.917969 126.625-9.382813 10.558594-8.492188 26.707031 1.992187 36.175781 10.691406 8.992188 26.535156 8.117188 36.167969-2.003906 42.011719-47.042968 65.546875-107.71875 66.25-170.789062-1.121094-63.949219-26.054687-125.179688-69.925781-171.71875-43.941406-44.523438-103.675782-67.109375-177.542969-67.109375-122.476563.136719-221.730469 99.390625-221.867187 221.867187 0 1.195313-.007813 2.304688.066406 3.492188.140625 2.261718-.625 4.484375-2.125 6.175781-1.503906 1.695313-3.617188 2.722656-5.875 2.859375-4.675782.203125-8.671875-3.335938-9.035156-8-.085938-1.542969-.097657-2.984375-.097657-4.527344.148438-131.894531 107.035157-238.785156 238.933594-238.9335935 78.601563 0 142.421875 24.2929685 189.695313 72.1953125 47.371093 49.597656 74.121093 115.34375 74.839843 183.921875-.757812 67.195312-25.84375 131.839844-70.609375 181.960938-8.105468 9.023437-19.660156 14.183593-31.792968 14.191406zm0 0"/><path d="m118.632812 438.367188c-1.730468.003906-3.421874-.507813-4.863281-1.464844-56.410156-38.035156-93.890625-98.347656-103.007812-165.765625-.625-4.671875 2.652343-8.96875 7.324219-9.59375 4.671874-.625 8.964843 2.652343 9.589843 7.324219 8.453125 62.46875 43.136719 118.371093 95.351563 153.691406 3.257812 1.984375 4.800781 5.890625 3.78125 9.566406-1.023438 3.675781-4.363282 6.226562-8.175782 6.242188zm0 0"/><path d="m299.277344 471.984375c-4.335938-.011719-7.976563-3.269531-8.460938-7.582031-.484375-4.308594 2.34375-8.296875 6.570313-9.265625 22.988281-5.265625 44.980469-14.199219 65.132812-26.457031 4.308594-2.683594 8.691407-5.574219 12.914063-8.554688 2.492187-1.757812 5.734375-2.050781 8.5-.773438 2.765625 1.28125 4.640625 3.9375 4.917968 6.976563.273438 3.035156-1.089843 5.988281-3.582031 7.746094-4.492187 3.164062-9.140625 6.242187-13.808593 9.140625-21.738282 13.234375-45.46875 22.875-70.273438 28.550781-.628906.144531-1.269531.21875-1.910156.21875zm0 0"/><path d="m213.351562 307.210938c-4.582031-.003907-8.34375-3.621094-8.523437-8.203126-.09375-.773437-1.566406-9.597656-20.425781-13.289062-13.949219-2.730469-72.089844-4.648438-155.53125-5.109375-7.089844.570313-14.109375-1.703125-19.519532-6.3125-5.410156-4.613281-8.769531-11.183594-9.3320308-18.269531.5546878-7.09375 3.9101568-13.675782 9.3242188-18.292969s12.441406-6.894531 19.53125-6.324219c83.4375-.457031 141.578125-2.375 155.527344-5.109375 19.316406-3.78125 20.394531-12.949219 20.425781-13.332031.53125-4.53125 4.371094-7.945312 8.933594-7.941406 4.523437.128906 8.125 3.835937 8.125 8.363281-.007813.9375-.511719 23.066406-34.199219 29.664063-20.761719 4.066406-108.351562 5.140624-158.722656 5.425781-7.003906.027343-11.878906 3.988281-11.878906 7.511719 0 3.558593 4.875 7.519531 11.875 7.550781 50.375.285156 137.964843 1.359375 158.726562 5.425781 33.6875 6.597656 34.191406 28.722656 34.199219 29.667969.023437 4.710937-3.78125 8.550781-8.492188 8.574219zm0 0"/><path d="m174.441406 210.269531c-3.492187-.003906-6.632812-2.132812-7.921875-5.375-1.292969-3.246093-.480469-6.949219 2.054688-9.351562 6.828125-6.429688 10.683593-15.402344 10.644531-24.785157 0-18.847656-15.28125-34.132812-34.132812-34.132812-18.851563 0-34.132813 15.285156-34.132813 34.132812-.042969 9.382813 3.8125 18.355469 10.640625 24.785157 2.316406 2.070312 3.324219 5.238281 2.632812 8.269531-.695312 3.027344-2.980468 5.441406-5.96875 6.296875-2.988281.855469-6.203124.019531-8.398437-2.183594-15.207031-14.417969-20.09375-36.648437-12.332031-56.117187 7.757812-19.46875 26.601562-32.238282 47.558594-32.238282 20.957031 0 39.796874 12.769532 47.558593 32.238282s2.875 41.699218-12.335937 56.117187c-1.582032 1.507813-3.683594 2.347657-5.867188 2.34375zm0 0"/><path d="m252.265625 210.269531c-2.265625 0-4.4375-.898437-6.035156-2.5-.300781-.242187-.582031-.496093-.851563-.769531-9.566406-9.636719-14.941406-22.660156-14.960937-36.242188 0-28.273437 22.925781-51.199218 51.199219-51.199218 28.277343 0 51.203124 22.925781 51.203124 51.199218-.019531 13.582032-5.394531 26.605469-14.960937 36.242188-.148437.152344-.738281.691406-.898437.828125-3.507813 3.039063-8.777344 2.832031-12.03125-.476563-3.175782-3.238281-3.167969-8.421874.015624-11.648437.152344-.152344.726563-.675781.882813-.816406 13.265625-13.359375 13.203125-34.933594-.128906-48.222657-13.335938-13.285156-34.914063-13.261718-48.222657.050782-13.308593 13.3125-13.320312 34.886718-.03125 48.21875.273438.226562.582032.5.851563.769531 2.441406 2.441406 3.171875 6.109375 1.851563 9.296875-1.320313 3.1875-4.433594 5.269531-7.882813 5.269531zm0 0"/><path d="m181.402344 60.429688c-1.128906 9.382812-4.996094 18.222656-11.125 25.414062-6.089844 7.441406-13.914063 13.277344-22.78125 16.996094-8.753906 3.617187-18.160156 5.382812-27.628906 5.1875-4.582032-.117188-9.144532-.605469-13.648438-1.460938-4.375-1.082031-8.679688-2.441406-12.882812-4.074218-1.363282-.53125-2.195313-1.910157-2.023438-3.363282.167969-1.449218 1.292969-2.605468 2.738281-2.808594l.390625-.054687c4.316406-.597656 8.460938-.703125 12.542969-.972656 4.054687-.636719 8.085937-.757813 11.953125-1.511719 7.570312-1.199219 14.980469-3.242188 22.09375-6.097656 6.902344-3.054688 13.382812-6.984375 19.285156-11.6875 6.253906-5.054688 11.980469-10.734375 17.089844-16.945313l.191406-.230469c.609375-.722656 1.625-.96875 2.496094-.597656.875.371094 1.40625 1.265625 1.308594 2.207032zm0 0"/><path d="m249.488281 59.054688c5.109375 6.210937 10.835938 11.886718 17.089844 16.941406 5.902344 4.703125 12.382813 8.632812 19.28125 11.691406 7.113281 2.855469 14.523437 4.898438 22.09375 6.097656 3.867187.753906 7.898437.871094 11.953125 1.511719 4.082031.265625 8.226562.371094 12.542969.972656l.386719.054688c1.445312.199219 2.574218 1.355469 2.746093 2.804687.167969 1.453125-.664062 2.835938-2.027343 3.367188-4.203126 1.632812-8.507813 2.992187-12.882813 4.070312-4.503906.859375-9.066406 1.347656-13.648437 1.460938-9.46875.199218-18.875-1.566406-27.625-5.183594-8.871094-3.722656-16.691407-9.558594-22.785157-17-6.125-7.191406-9.996093-16.03125-11.121093-25.410156-.097657-.941406.429687-1.835938 1.300781-2.207032.871093-.371093 1.882812-.132812 2.496093.585938zm0 0"/><path d="m179.21875 213.34375c-2.261719.003906-4.433594-.898438-6.03125-2.5-8.519531-4.863281-18.335938-6.972656-28.101562-6.035156-20.859376 0-28.246094 6.175781-28.316407 6.242187-3.492187 3.027344-8.738281 2.792969-11.949219-.53125-3.160156-3.292969-3.113281-8.503906.101563-11.742187 1.84375-1.84375 12.433594-11.035156 40.167969-11.035156s38.324218 9.191406 40.164062 11.035156c2.441406 2.441406 3.171875 6.109375 1.851563 9.300781-1.324219 3.1875-4.433594 5.265625-7.886719 5.265625zm0 0"/><path d="m315.753906 213.34375c-2.265625.003906-4.4375-.898438-6.035156-2.5-8.519531-4.863281-18.335938-6.972656-28.101562-6.035156-20.855469 0-28.242188 6.175781-28.316407 6.242187-3.492187 3.027344-8.738281 2.792969-11.945312-.53125-3.160157-3.292969-3.117188-8.503906.101562-11.742187 1.839844-1.84375 12.433594-11.035156 40.164063-11.035156 27.734375 0 38.324218 9.191406 40.167968 11.035156 2.441407 2.441406 3.167969 6.109375 1.847657 9.300781-1.320313 3.1875-4.433594 5.265625-7.882813 5.265625zm0 0"/><path d="m281.617188 332.808594c-2.261719.003906-4.433594-.894532-6.035157-2.496094-1.597656-1.601562-2.496093-3.773438-2.496093-6.035156v-8.535156c-.003907-4.710938-3.820313-8.53125-8.535157-8.53125h-85.332031c-4.710938 0-8.53125-3.820313-8.53125-8.535157 0-4.710937 3.820312-8.53125 8.53125-8.53125h85.332031c14.132813.015625 25.585938 11.464844 25.601563 25.597657v8.535156c0 2.261718-.898438 4.433594-2.496094 6.035156-1.601562 1.601562-3.773438 2.5-6.039062 2.496094zm0 0"/><path d="m213.351562 341.34375h-8.53125c-4.714843 0-8.535156-3.820312-8.535156-8.535156 0-4.710938 3.820313-8.53125 8.535156-8.53125h8.53125c4.714844 0 8.535157 3.820312 8.535157 8.53125 0 4.714844-3.820313 8.535156-8.535157 8.535156zm0 0"/></svg>