<svg height="512pt" viewBox="0 0 512.01888 512" width="512pt" xmlns="http://www.w3.org/2000/svg"><path d="m78.011719 395.035156c-3.15625 4.011719-6.484375 7.933594-9.898438 11.773438-12.605469 13.949218-34.113281 15.082031-48.113281 2.539062-14-12.546875-15.226562-34.050781-2.742188-48.105468 7.546876-8.453126 14.371094-17.53125 20.394532-27.136719zm0 0" fill="#ff9801"/><path d="m247.484375 8.558594c-101.269531-.015625-190.675781 66.109375-220.3125 162.949218-29.640625 96.835938 7.441406 201.675782 91.375 258.34375h.085937l69.121094 48.042969v8.53125c.027344 9.414063 7.652344 17.039063 17.066406 17.066407h145.066407c9.414062-.027344 17.039062-7.652344 17.066406-17.066407v-50.429687c.765625-.511719 1.535156-.941406 2.304687-1.453125 3.753907-2.386719 7.507813-4.863281 11.089844-7.421875.011719.089844.042969.175781.085938.253906 1.058594 2.222656 2.570312 4.199219 4.4375 5.804688.597656.597656 1.28125 1.277343 1.964844 1.875 1.257812 1.097656 2.597656 2.097656 4.007812 2.988281.6875.5625 1.429688 1.046875 2.21875 1.449219.800781.449218 1.628906.847656 2.476562 1.195312.6875.335938 1.402344.621094 2.132813.855469 1.109375.425781 2.21875.765625 3.328125 1.109375 2.8125.75 5.710938 1.121094 8.617188 1.109375 9.707031.011719 18.960937-4.117188 25.429687-11.351563 43.410156-48.574218 67.726563-111.242187 68.4375-176.382812 1.023437-76.800782-51.199219-247.46875-256-247.46875zm0 0" fill="#f0c419"/><path d="m503.484375 256.027344c-.710937 65.140625-25.027344 127.808594-68.4375 176.382812-6.46875 7.234375-15.722656 11.363282-25.429687 11.351563-2.90625.011719-5.804688-.359375-8.617188-1.109375-1.109375-.34375-2.21875-.683594-3.328125-1.109375-.730469-.234375-1.445313-.519531-2.132813-.855469-.847656-.347656-1.675781-.746094-2.476562-1.195312-.789062-.402344-1.53125-.886719-2.21875-1.449219-1.410156-.890625-2.75-1.890625-4.007812-2.988281-.683594-.597657-1.367188-1.277344-1.964844-1.875-1.867188-1.605469-3.378906-3.582032-4.4375-5.804688-.042969-.078125-.074219-.164062-.085938-.253906-3.582031 2.558594-7.335937 5.035156-11.089844 7.421875-.769531.511719-1.539062.941406-2.304687 1.453125-20.9375 12.726562-43.785156 22.003906-67.671875 27.476562h-.253906l-.339844-2.644531c-8.617188-20.695313-28.789062-34.210937-51.203125-34.304687h-8.53125c-20.351563.027343-38.765625 12.078124-46.933594 30.71875-.6875 1.617187-1.285156 3.269531-1.792969 4.949218-1.648437 5.042969-2.484374 10.3125-2.472656 15.617188v.085937l-69.121094-48.042969h-.085937c-83.933594-56.667968-121.015625-161.507812-91.375-258.34375 29.636719-96.839843 119.042969-162.964843 220.3125-162.949218 204.800781 0 257.023437 170.667968 256 247.46875zm0 0" fill="#ffdc00"/><path d="m362.941406 325.285156c-3.15625 0-6.054687-1.734375-7.542968-4.515625l-28.105469-52.710937c-1.433594-2.691406-1.324219-5.945313.289062-8.53125 1.613281-2.589844 4.484375-4.121094 7.535157-4.019532 3.046874.105469 5.808593 1.824219 7.242187 4.515626l28.109375 52.710937c1.410156 2.644531 1.332031 5.832031-.210938 8.402344-1.539062 2.570312-4.316406 4.144531-7.3125 4.144531zm0 0" fill="#ecf0f1"/><path d="m375.484375 196.277344c0 42.414062-34.382813 76.800781-76.796875 76.800781-42.417969 0-76.800781-34.386719-76.800781-76.800781 0-42.414063 34.382812-76.800782 76.800781-76.800782 42.414062 0 76.796875 34.386719 76.796875 76.800782zm0 0" fill="#3f51b5"/><path d="m349.886719 196.378906c.003906 28.292969-22.910157 51.242188-51.199219 51.285156-10.859375.027344-21.433594-3.476562-30.125-9.984374-2.171875-1.484376-4.199219-3.171876-6.058594-5.035157-12.957031-12.925781-18.03125-31.78125-13.316406-49.464843 4.714844-17.6875 18.507812-31.511719 36.179688-36.269532 17.675781-4.757812 36.542968.273438 49.5 13.203125 5.222656 5.207031 9.242187 11.5 11.777343 18.429688 2.171875 5.695312 3.269531 11.742187 3.242188 17.835937zm0 0" fill="#02a9f4"/><path d="m349.886719 196.378906c.003906 28.292969-22.910157 51.242188-51.199219 51.285156-10.859375.027344-21.433594-3.476562-30.125-9.984374 3.378906-5.527344 7.109375-10.832032 11.179688-15.871094 7.835937-9.925782 17.09375-18.640625 27.476562-25.855469 11.941406-8.210937 25.3125-14.113281 39.425781-17.410156 2.171875 5.695312 3.269531 11.742187 3.242188 17.835937zm0 0" fill="#0377bc"/><path d="m433.9375 265.5c-1.074219 22.308594-5.953125 44.269531-14.421875 64.9375-4.1875 10.296875-9.269531 20.203125-15.1875 29.609375-5.957031 9.476563-12.695313 18.4375-20.136719 26.796875-.683594.765625-1.367187 1.621094-2.050781 2.472656v.085938c-8.128906 11.066406-8.835937 25.929687-1.792969 37.71875-3.582031 2.558594-7.335937 5.035156-11.089844 7.421875-13.527343-12.691407-14.472656-33.851563-2.136718-47.699219 2.988281-3.328125 5.804687-6.65625 8.449218-10.15625 7.976563-10.101562 14.894532-20.996094 20.652344-32.511719 9.824219-19.578125 16.3125-40.664062 19.199219-62.378906 1.199219-9.3125 9.125-16.289063 18.515625-16.296875zm0 0" fill="#fec108"/><path d="m192.019531 457.242188c-8.152343-18.652344-26.578125-30.703126-46.933593-30.695313h-8.535157c-28.292969.046875-51.207031 23.003906-51.199219 51.296875v8.550781c.019532 9.421875 7.644532 17.0625 17.066407 17.097657h145.066406zm0 0" fill="#3f51b5"/><path d="m366.953125 435.996094v50.429687c-.027344 9.414063-7.652344 17.039063-17.066406 17.066407h-145.066407c-9.414062-.027344-17.039062-7.652344-17.066406-17.066407v-8.617187c-.011718-5.304688.824219-10.574219 2.472656-15.617188.507813-1.679687 1.105469-3.332031 1.792969-4.949218 8.167969-18.640626 26.582031-30.691407 46.933594-30.71875h8.53125c22.414063.09375 42.585937 13.609374 51.203125 34.304687l.59375 2.644531c23.886719-5.472656 46.734375-14.75 67.671875-27.476562zm0 0" fill="#3f51b5"/><path d="m380.433594 427.375c1.300781 2.066406 2.785156 4.007812 4.4375 5.804688-1.867188-1.605469-3.378906-3.582032-4.4375-5.804688zm0 0" fill="#f0c419"/><path d="m366.953125 435.996094v17.066406c-15.945313 9.6875-33.011719 17.390625-50.824219 22.933594-3.960937 1.199218-8.253906.449218-11.578125-2.019532-3.320312-2.46875-5.273437-6.367187-5.269531-10.503906 23.886719-5.472656 46.734375-14.75 67.671875-27.476562zm0 0" fill="#283593"/><path d="m187.753906 196.359375c0-23.609375-19.105468-42.75-42.667968-42.75-23.566407 0-42.667969 19.140625-42.667969 42.75s19.101562 42.746094 42.667969 42.746094c23.5625 0 42.667968-19.136719 42.667968-42.746094zm0 0" fill="#f5f5f5"/><path d="m162.136719 196.261719c0-14.15625-11.453125-25.632813-25.585938-25.632813-14.128906 0-25.582031 11.476563-25.582031 25.632813s11.453125 25.632812 25.582031 25.632812c14.132813 0 25.585938-11.476562 25.585938-25.632812zm0 0" fill="#3f51b5"/><path d="m404.328125 360.046875c-5.957031 9.476563-12.695313 18.4375-20.136719 26.796875-.683594.765625-1.367187 1.621094-2.050781 2.472656-1.195313-2.386718-1.960937-4.011718-2.132813-4.265625l-4.4375-8.363281-23.636718-44.371094c-1.074219-1.992187-1.3125-4.328125-.652344-6.492187.65625-2.164063 2.152344-3.972657 4.152344-5.03125l15.015625-8.019531c1.992187-1.074219 4.328125-1.308594 6.492187-.652344 2.160156.65625 3.972656 2.152344 5.03125 4.152344l14.25 27.902343zm0 0" fill="#02a9f4"/><path d="m307.21875 195.953125c-10.382812 7.214844-19.640625 15.929687-27.476562 25.855469-6.132813-.402344-11.90625-3.042969-16.214844-7.425782-6.527344-6.453124-9.101563-15.90625-6.75-24.777343 2.355468-8.871094 9.273437-15.804688 18.140625-18.179688 8.863281-2.371093 18.324219.179688 24.792969 6.691407.425781.425781.9375.9375 1.363281 1.449218-.773438-.242187-1.578125-.359375-2.386719-.339844-4.296875.003907-7.921875 3.203126-8.460938 7.464844-.539062 4.261719 2.175782 8.257813 6.335938 9.332032 4.160156 1.070312 8.46875-1.113282 10.058594-5.105469.371094 1.652343.574218 3.339843.597656 5.035156zm0 0" fill="#3f51b5"/><path d="m307.21875 195.953125v.339844c0 6.789062-2.703125 13.296875-7.507812 18.089843-4.773438 4.84375-11.296876 7.550782-18.09375 7.511719-.625.011719-1.253907-.015625-1.875-.085937 7.835937-9.925782 17.09375-18.640625 27.476562-25.855469zm0 0" fill="#283593"/><path d="m162.152344 187.761719c0 4.710937-3.820313 8.53125-8.535156 8.53125-4.710938 0-8.53125-3.820313-8.53125-8.53125 0-4.714844 3.820312-8.535157 8.53125-8.535157 4.714843 0 8.535156 3.820313 8.535156 8.535157zm0 0" fill="#f5f5f5"/><path d="m503.484375 256.027344c-.710937 65.140625-25.027344 127.808594-68.4375 176.382812-6.46875 7.234375-15.722656 11.363282-25.429687 11.351563-2.90625.011719-5.804688-.359375-8.617188-1.109375-1.109375-.34375-2.21875-.683594-3.328125-1.109375-.300781-.0625-.589844-.179688-.851563-.34375 4.847657-1.878907 9.179688-4.894531 12.628907-8.789063 43.40625-48.574218 67.722656-111.242187 68.4375-176.382812 1.023437-74.921875-48.726563-239.277344-241.496094-247.125 3.671875-.257813 7.339844-.34375 11.09375-.34375 204.800781 0 257.023437 170.667968 256 247.46875zm0 0" fill="#fec108"/><path d="m366.953125 435.996094v50.429687c-.027344 9.414063-7.652344 17.039063-17.066406 17.066407h-25.601563c9.414063-.027344 17.039063-7.652344 17.066406-17.066407v-37.035156c8.808594-3.917969 17.359376-8.394531 25.601563-13.394531zm0 0" fill="#283593"/><path d="m349.886719 512.007812h-145.066407c-14.132812-.015624-25.585937-11.464843-25.601562-25.597656v-8.621094c-.007812-6.207031.96875-12.375 2.902344-18.273437.574218-1.902344 1.253906-3.769531 2.03125-5.601563 9.503906-21.800781 31.015625-35.910156 54.800781-35.9375h8.53125c26.035156.019532 49.460937 15.816407 59.234375 39.949219 1.03125 2.871094.449219 6.070313-1.519531 8.398438-1.972657 2.328125-5.03125 3.425781-8.035157 2.882812-3-.542969-5.480468-2.644531-6.511718-5.515625-7.359375-17.328125-24.339844-28.597656-43.167969-28.648437h-8.53125c-16.96875.011719-32.320313 10.0625-39.117187 25.609375-.546876 1.292968-1.027344 2.613281-1.433594 3.957031-1.402344 4.253906-2.117188 8.703125-2.117188 13.183594v8.617187c.003906 4.714844 3.820313 8.53125 8.535156 8.535156h145.066407c4.710937-.003906 8.53125-3.820312 8.53125-8.535156v-50.429687c0-4.714844 3.820312-8.535157 8.535156-8.535157 4.710937 0 8.53125 3.820313 8.53125 8.535157v50.429687c-.015625 14.132813-11.46875 25.582032-25.597656 25.597656zm0 0"/><path d="m247.484375 512.007812h-145.066406c-14.140625-.023437-25.59375-11.492187-25.597657-25.632812v-8.546875c.011719-33 26.730469-59.765625 59.730469-59.828125h8.535157c23.753906-.027344 45.265624 14.042969 54.757812 35.816406 1.21875 2.796875.851562 6.03125-.960938 8.484375-1.8125 2.449219-4.796874 3.75-7.824218 3.40625-3.03125-.34375-5.648438-2.277343-6.863282-5.074219-6.785156-15.546874-22.144531-25.589843-39.109374-25.566406h-8.535157c-23.578125.054688-42.664062 19.183594-42.664062 42.761719v8.546875c-.007813 4.722656 3.8125 8.554688 8.53125 8.566406h145.066406c4.714844 0 8.535156 3.820313 8.535156 8.535156 0 4.710938-3.820312 8.53125-8.535156 8.53125zm0 0"/><path d="m42.6875 426.675781c-16.835938.007813-32.097656-9.882812-38.96875-25.246093-6.871094-15.367188-4.066406-33.335938 7.160156-45.878907 7.230469-8.09375 13.769532-16.785156 19.539063-25.980469 2.550781-3.867187 7.722656-4.996093 11.648437-2.539062 3.925782 2.457031 5.179688 7.597656 2.820313 11.582031-6.28125 10.007813-13.390625 19.46875-21.257813 28.285157-9.398437 10.554687-8.515625 26.71875 1.972656 36.191406 10.6875 8.996094 26.535157 8.121094 36.167969-1.996094 3.265625-3.683594 6.484375-7.476562 9.542969-11.359375 1.863281-2.464844 4.914062-3.730469 7.972656-3.308594 3.0625.421875 5.65625 2.46875 6.78125 5.347657 1.125 2.878906.605469 6.140624-1.359375 8.527343-3.257812 4.132813-6.691406 8.191407-10.207031 12.160157-8.109375 9.035156-19.671875 14.203124-31.8125 14.214843zm0 0"/><path d="m409.617188 452.277344c-16.832032.007812-32.09375-9.882813-38.964844-25.25-6.871094-15.363282-4.066406-33.335938 7.160156-45.875 28.703125-32.089844 45.507812-73.070313 47.597656-116.078125.316406-4.664063 4.257813-8.25 8.933594-8.113281 2.261719.105468 4.386719 1.109374 5.910156 2.785156 1.519532 1.675781 2.316406 3.886718 2.207032 6.148437-2.28125 46.910157-20.609376 91.613281-51.917969 126.625-9.382813 10.558594-8.492188 26.707031 1.992187 36.175781 10.691406 8.996094 26.535156 8.117188 36.167969-2.003906 42.003906-47.050781 65.539063-107.726562 66.25-170.796875-1.121094-63.945312-26.054687-125.171875-69.925781-171.710937-43.941406-44.523438-103.675782-67.109375-177.542969-67.109375-97.453125-.011719-183.503906 63.578125-212.097656 156.742187-28.597657 93.160156 6.953125 194.078125 87.632812 248.742188 3.261719 1.980468 4.808594 5.886718 3.789063 9.566406-1.019532 3.675781-4.359375 6.226562-8.175782 6.242188h-.085937c-1.699219 0-3.363281-.507813-4.773437-1.457032-87.039063-58.769531-125.492188-167.488281-94.757813-267.914062 30.734375-100.421875 123.449219-169.00000025 228.46875-168.9882815 78.601563 0 142.421875 24.2929685 189.695313 72.1953125 47.371093 49.597656 74.121093 115.34375 74.839843 183.921875-.765625 67.195312-25.847656 131.839844-70.609375 181.960938-8.105468 9.023437-19.660156 14.183593-31.792968 14.191406zm0 0"/><path d="m299.277344 471.984375c-4.335938-.011719-7.976563-3.269531-8.460938-7.582031-.484375-4.308594 2.34375-8.296875 6.570313-9.265625 22.988281-5.265625 44.980469-14.199219 65.132812-26.457031 4.308594-2.683594 8.691407-5.574219 12.914063-8.554688 2.492187-1.757812 5.734375-2.050781 8.5-.773438 2.765625 1.28125 4.640625 3.9375 4.917968 6.976563.273438 3.035156-1.089843 5.988281-3.582031 7.746094-4.492187 3.164062-9.140625 6.242187-13.808593 9.140625-21.738282 13.234375-45.46875 22.875-70.273438 28.550781-.628906.144531-1.269531.21875-1.910156.21875zm0 0"/><path d="m145.085938 247.644531c-20.75.035157-39.476563-12.441406-47.441407-31.601562-7.964843-19.160157-3.597656-41.234375 11.0625-55.917969 14.660157-14.6875 36.726563-19.089844 55.898438-11.15625 19.175781 7.933594 31.679687 26.636719 31.679687 47.390625-.007812 28.285156-22.914062 51.226563-51.199218 51.285156zm0-85.503906c-13.847657-.035156-26.351563 8.28125-31.675782 21.0625-5.324218 12.785156-2.417968 27.515625 7.363282 37.320313 9.78125 9.804687 24.503906 12.746093 37.300781 7.457031 12.796875-5.292969 21.144531-17.773438 21.144531-31.621094.003906-18.867187-15.269531-34.171875-34.132812-34.214844zm0 0"/><path d="m94.449219 110.425781c15.140625 1.746094 30.429687 1.78125 45.582031.109375 7.457031-.953125 14.882812-2.296875 22.425781-3.941406l11.394531-2.652344c3.832032-.964844 7.652344-2.070312 11.757813-2.765625l.28125-.046875c1.4375-.242187 2.863281.507813 3.476563 1.832032.613281 1.320312.265624 2.890624-.847657 3.832031-3.253906 2.734375-6.679687 5.257812-10.253906 7.550781-3.660156 2.1875-7.460937 4.132812-11.378906 5.820312-7.949219 3.414063-16.34375 5.679688-24.929688 6.734376-8.695312 1.085937-17.511719.671874-26.066406-1.21875-8.707031-1.734376-16.804687-5.71875-23.496094-11.550782-.6875-.636718-.886719-1.644531-.496093-2.496094.390624-.847656 1.285156-1.351562 2.214843-1.246093zm0 0"/><path d="m331.167969 103.734375c-6.902344-4.128906-14.207031-7.546875-21.796875-10.203125-7.144532-2.4375-14.566406-3.957031-22.09375-4.511719-7.65625-.292969-15.324219.277344-22.855469 1.695313-3.894531.59375-7.730469 1.839844-11.765625 2.601562-3.929688 1.121094-7.871094 2.417969-12.136719 3.304688l-.378906.082031c-1.429687.296875-2.882813-.410156-3.53125-1.71875-.648437-1.3125-.332031-2.894531.773437-3.851563 3.410157-2.953124 7.003907-5.683593 10.765626-8.175781 3.949218-2.324219 8.082031-4.320312 12.355468-5.972656 8.851563-3.371094 18.300782-4.875 27.761719-4.417969 9.601563.519532 18.933594 3.378906 27.175781 8.335938 8.191406 4.707031 14.8125 11.730468 19.03125 20.183594.40625.851562.210938 1.871093-.484375 2.515624-.695312.640626-1.726562.757813-2.546875.289063zm0 0"/><path d="m298.6875 247.644531c-24.457031.027344-45.527344-17.230469-50.320312-41.210937-4.792969-23.984375 8.023437-48.011719 30.613281-57.386719 22.585937-9.375 48.652343-1.488281 62.25 18.839844 13.601562 20.328125 10.941406 47.429687-6.34375 64.730469-9.574219 9.648437-22.609375 15.058593-36.199219 15.027343zm0-85.503906c-13.824219.039063-26.261719 8.382813-31.539062 21.15625-5.277344 12.773437-2.359376 27.46875 7.402343 37.25 13.488281 12.929687 34.765625 12.933594 48.257813.011719 9.777344-9.777344 12.710937-24.480469 7.433594-37.257813-5.28125-12.78125-17.730469-21.128906-31.554688-21.15625zm0 0"/><path d="m256.019531 324.277344c-2.265625 0-4.433593-.898438-6.035156-2.5-1.601563-1.601563-2.5-3.769532-2.5-6.035156v-8.53125c-.003906-4.714844-3.820313-8.53125-8.53125-8.535157h-85.335937c-4.710938 0-8.53125-3.820312-8.53125-8.53125 0-4.714843 3.820312-8.535156 8.53125-8.535156h85.335937c14.132813.015625 25.582031 11.46875 25.597656 25.601563v8.53125c.003907 2.265624-.894531 4.433593-2.496093 6.035156-1.601563 1.601562-3.773438 2.5-6.035157 2.5zm0 0"/><path d="m196.285156 332.808594h-8.53125c-4.714844 0-8.535156-3.820313-8.535156-8.53125 0-4.714844 3.820312-8.535156 8.535156-8.535156h8.53125c4.714844 0 8.535156 3.820312 8.535156 8.535156 0 4.710937-3.820312 8.53125-8.535156 8.53125zm0 0"/><path d="m298.6875 281.609375c-47.128906 0-85.335938-38.203125-85.335938-85.332031s38.207032-85.335938 85.335938-85.335938c47.125 0 85.332031 38.207032 85.332031 85.335938-.054687 47.105468-38.226562 85.277344-85.332031 85.332031zm0-153.601563c-37.703125 0-68.269531 30.566407-68.269531 68.269532s30.566406 68.265625 68.269531 68.265625c37.699219 0 68.265625-30.5625 68.265625-68.265625-.042969-37.6875-30.582031-68.226563-68.265625-68.269532zm0 0"/><path d="m382.652344 397.234375c-2.378906.003906-4.652344-.988281-6.265625-2.742187-1.476563-1.601563-2.757813-3.375-3.816407-5.28125l-28.167968-52.902344c-2.136719-3.988282-2.597656-8.667969-1.273438-13 1.320313-4.332032 4.3125-7.957032 8.316406-10.074219l14.992188-8c3.984375-2.144531 8.664062-2.613281 12.996094-1.296875 4.328125 1.320312 7.957031 4.3125 10.070312 8.3125l22.871094 42.828125c1.535156 2.695313 1.488281 6.015625-.128906 8.667969-1.617188 2.652344-4.546875 4.214844-7.648438 4.082031-3.101562-.132813-5.890625-1.9375-7.273437-4.71875l-22.875-42.835937-14.992188 8.03125 28.089844 52.726562c.382813.679688.84375 1.3125 1.375 1.882812 2.300781 2.488282 2.910156 6.105469 1.554687 9.210938-1.359374 3.109375-4.429687 5.113281-7.820312 5.113281zm0 0"/><path d="m362.941406 325.285156c-3.15625 0-6.054687-1.734375-7.542968-4.515625l-28.105469-52.710937c-1.433594-2.691406-1.324219-5.945313.289062-8.53125 1.613281-2.589844 4.484375-4.121094 7.535157-4.019532 3.046874.105469 5.808593 1.824219 7.242187 4.515626l28.109375 52.710937c1.410156 2.644531 1.332031 5.832031-.210938 8.402344-1.539062 2.570312-4.316406 4.144531-7.3125 4.144531zm0 0"/></svg>