<svg height="512pt" viewBox="0 0 512.01888 512" width="512pt" xmlns="http://www.w3.org/2000/svg"><path d="m78.011719 395.035156c-3.15625 4.011719-6.484375 7.933594-9.898438 11.773438-12.605469 13.949218-34.113281 15.082031-48.113281 2.539062-14-12.546875-15.226562-34.050781-2.742188-48.105468 7.546876-8.453126 14.371094-17.53125 20.394532-27.136719zm0 0" fill="#ff9801"/><path d="m247.484375 8.558594c-101.269531-.015625-190.675781 66.109375-220.3125 162.949218-29.640625 96.835938 7.441406 201.675782 91.375 258.34375h.085937l69.121094 48.042969v8.53125c.027344 9.414063 7.652344 17.039063 17.066406 17.066407h145.066407c9.414062-.027344 17.039062-7.652344 17.066406-17.066407v-50.429687c.765625-.511719 1.535156-.941406 2.304687-1.453125 3.753907-2.386719 7.507813-4.863281 11.089844-7.421875.011719.089844.042969.175781.085938.253906 1.058594 2.222656 2.570312 4.199219 4.4375 5.804688.597656.597656 1.28125 1.277343 1.964844 1.875 1.257812 1.097656 2.597656 2.097656 4.007812 2.988281.6875.5625 1.429688 1.046875 2.21875 1.449219.800781.449218 1.628906.847656 2.476562 1.195312.6875.335938 1.402344.621094 2.132813.855469 1.109375.425781 2.21875.765625 3.328125 1.109375 2.8125.75 5.710938 1.121094 8.617188 1.109375 9.707031.011719 18.960937-4.117188 25.429687-11.351563 43.410156-48.574218 67.726563-111.242187 68.4375-176.382812 1.023437-76.800782-51.199219-247.46875-256-247.46875zm0 0" fill="#f0c419"/><path d="m503.484375 256.027344c-.710937 65.140625-25.027344 127.808594-68.4375 176.382812-6.46875 7.234375-15.722656 11.363282-25.429687 11.351563-2.90625.011719-5.804688-.359375-8.617188-1.109375-1.109375-.34375-2.21875-.683594-3.328125-1.109375-.730469-.234375-1.445313-.519531-2.132813-.855469-.847656-.347656-1.675781-.746094-2.476562-1.195312-.789062-.402344-1.53125-.886719-2.21875-1.449219-1.410156-.890625-2.75-1.890625-4.007812-2.988281-.683594-.597657-1.367188-1.277344-1.964844-1.875-1.867188-1.605469-3.378906-3.582032-4.4375-5.804688-.042969-.078125-.074219-.164062-.085938-.253906-3.582031 2.558594-7.335937 5.035156-11.089844 7.421875-.769531.511719-1.539062.941406-2.304687 1.453125-20.9375 12.726562-43.785156 22.003906-67.671875 27.476562h-.253906l-.339844-2.644531c-8.617188-20.695313-28.789062-34.210937-51.203125-34.304687h-8.53125c-20.351563.027343-38.765625 12.078124-46.933594 30.71875-.6875 1.617187-1.285156 3.269531-1.792969 4.949218-1.648437 5.042969-2.484374 10.3125-2.472656 15.617188v.085937l-69.121094-48.042969h-.085937c-83.933594-56.667968-121.015625-161.507812-91.375-258.34375 29.636719-96.839843 119.042969-162.964843 220.3125-162.949218 204.800781 0 257.023437 170.667968 256 247.46875zm0 0" fill="#ffdc00"/><path d="m433.9375 265.5c-1.074219 22.308594-5.953125 44.269531-14.421875 64.9375-4.1875 10.296875-9.269531 20.203125-15.1875 29.609375-5.957031 9.476563-12.695313 18.4375-20.136719 26.796875-.683594.765625-1.367187 1.621094-2.050781 2.472656v.085938c-8.128906 11.066406-8.835937 25.929687-1.792969 37.71875-3.582031 2.558594-7.335937 5.035156-11.089844 7.421875-13.527343-12.691407-14.472656-33.851563-2.136718-47.699219 2.988281-3.328125 5.804687-6.65625 8.449218-10.15625 7.976563-10.101562 14.894532-20.996094 20.652344-32.511719 9.824219-19.578125 16.3125-40.664062 19.199219-62.378906 1.199219-9.3125 9.125-16.289063 18.515625-16.296875zm0 0" fill="#fec108"/><path d="m192.019531 457.242188c-8.152343-18.652344-26.578125-30.703126-46.933593-30.695313h-8.535157c-28.292969.046875-51.207031 23.003906-51.199219 51.296875v8.550781c.019532 9.421875 7.644532 17.0625 17.066407 17.097657h145.066406zm0 0" fill="#3f51b5"/><path d="m366.953125 435.996094v50.429687c-.027344 9.414063-7.652344 17.039063-17.066406 17.066407h-145.066407c-9.414062-.027344-17.039062-7.652344-17.066406-17.066407v-8.617187c-.011718-5.304688.824219-10.574219 2.472656-15.617188.507813-1.679687 1.105469-3.332031 1.792969-4.949218 8.167969-18.640626 26.582031-30.691407 46.933594-30.71875h8.53125c22.414063.09375 42.585937 13.609374 51.203125 34.304687l.59375 2.644531c23.886719-5.472656 46.734375-14.75 67.671875-27.476562zm0 0" fill="#3f51b5"/><path d="m380.433594 427.375c1.300781 2.066406 2.785156 4.007812 4.4375 5.804688-1.867188-1.605469-3.378906-3.582032-4.4375-5.804688zm0 0" fill="#f0c419"/><path d="m366.953125 435.996094v17.066406c-15.945313 9.6875-33.011719 17.390625-50.824219 22.933594-3.960937 1.199218-8.253906.449218-11.578125-2.019532-3.320312-2.46875-5.273437-6.367187-5.269531-10.503906 23.886719-5.472656 46.734375-14.75 67.671875-27.476562zm0 0" fill="#283593"/><path d="m187.753906 178.59375c0-23.609375-19.105468-42.746094-42.667968-42.746094-23.566407 0-42.667969 19.136719-42.667969 42.746094s19.101562 42.75 42.667969 42.75c23.5625 0 42.667968-19.140625 42.667968-42.75zm0 0" fill="#f5f5f5"/><path d="m162.152344 178.59375c0-14.164062-11.460938-25.648438-25.601563-25.648438-14.136719 0-25.597656 11.484376-25.597656 25.648438s11.460937 25.648438 25.597656 25.648438c14.140625 0 25.601563-11.484376 25.601563-25.648438zm0 0" fill="#3f51b5"/><path d="m324.285156 178.59375c-.019531 20.371094-14.425781 37.894531-34.410156 41.851562-19.980469 3.960938-39.980469-6.75-47.761719-25.574218-7.785156-18.828125-1.1875-40.53125 15.757813-51.839844 16.945312-11.308594 39.519531-9.074219 53.917968 5.335938 8.015626 8.015624 12.511719 18.890624 12.496094 30.226562zm0 0" fill="#f5f5f5"/><path d="m298.6875 178.59375c-.015625 12.222656-8.65625 22.738281-20.648438 25.109375-11.988281 2.375-23.988281-4.046875-28.65625-15.34375-4.671874-11.296875-.710937-24.316406 9.453126-31.101563 10.167968-6.785156 23.710937-5.445312 32.351562 3.199219 4.808594 4.808594 7.507812 11.335938 7.5 18.136719zm0 0" fill="#3f51b5"/><path d="m290.152344 264.542969v119.46875c-.027344 9.414062-7.652344 17.039062-17.066406 17.066406-9.398438-.070313-17-7.671875-17.066407-17.066406-.070312-9.398438-7.671875-17-17.066406-17.066407-9.398437-.070312-17-7.671874-17.066406-17.066406v-.515625c-2.832031.34375-5.683594.515625-8.535157.515625-42.414062-.003906-76.796874-34.386718-76.800781-76.800781v-8.535156c.015625-4.707031 3.828125-8.519531 8.535157-8.53125h136.53125c4.707031.011719 8.519531 3.824219 8.535156 8.53125zm0 0" fill="#bb193b"/><path d="m162.152344 170.691406c0 4.714844-3.820313 8.535156-8.535156 8.535156-4.710938 0-8.53125-3.820312-8.53125-8.535156 0-4.710937 3.820312-8.53125 8.53125-8.53125 4.714843 0 8.535156 3.820313 8.535156 8.53125zm0 0" fill="#f5f5f5"/><path d="m298.6875 170.691406c0 4.714844-3.824219 8.535156-8.535156 8.535156-4.714844 0-8.535156-3.820312-8.535156-8.535156 0-4.710937 3.820312-8.53125 8.535156-8.53125 4.710937 0 8.535156 3.820313 8.535156 8.53125zm0 0" fill="#f5f5f5"/><path d="m503.484375 256.027344c-.710937 65.140625-25.027344 127.808594-68.4375 176.382812-6.46875 7.234375-15.722656 11.363282-25.429687 11.351563-2.90625.011719-5.804688-.359375-8.617188-1.109375-1.109375-.34375-2.21875-.683594-3.328125-1.109375-.300781-.0625-.589844-.179688-.851563-.34375 4.847657-1.878907 9.179688-4.894531 12.628907-8.789063 43.40625-48.574218 67.722656-111.242187 68.4375-176.382812 1.023437-74.921875-48.726563-239.277344-241.496094-247.125 3.671875-.257813 7.339844-.34375 11.09375-.34375 204.800781 0 257.023437 170.667968 256 247.46875zm0 0" fill="#fec108"/><path d="m366.953125 435.996094v50.429687c-.027344 9.414063-7.652344 17.039063-17.066406 17.066407h-25.601563c9.414063-.027344 17.039063-7.652344 17.066406-17.066407v-37.035156c8.808594-3.917969 17.359376-8.394531 25.601563-13.394531zm0 0" fill="#283593"/><path d="m349.886719 512.007812h-145.066407c-14.132812-.015624-25.585937-11.464843-25.601562-25.597656v-8.621094c-.007812-6.207031.96875-12.375 2.902344-18.273437.574218-1.902344 1.253906-3.769531 2.03125-5.601563 9.503906-21.800781 31.015625-35.910156 54.800781-35.9375h8.53125c26.035156.019532 49.460937 15.816407 59.234375 39.949219 1.03125 2.871094.449219 6.070313-1.519531 8.398438-1.972657 2.328125-5.03125 3.425781-8.035157 2.882812-3-.542969-5.480468-2.644531-6.511718-5.515625-7.359375-17.328125-24.339844-28.597656-43.167969-28.648437h-8.53125c-16.96875.011719-32.320313 10.0625-39.117187 25.609375-.546876 1.292968-1.027344 2.613281-1.433594 3.957031-1.402344 4.253906-2.117188 8.703125-2.117188 13.183594v8.617187c.003906 4.714844 3.820313 8.53125 8.535156 8.535156h145.066407c4.710937-.003906 8.53125-3.820312 8.53125-8.535156v-50.429687c0-4.714844 3.820312-8.535157 8.535156-8.535157 4.710937 0 8.53125 3.820313 8.53125 8.535157v50.429687c-.015625 14.132813-11.46875 25.582032-25.597656 25.597656zm0 0"/><path d="m247.484375 512.007812h-145.066406c-14.140625-.023437-25.59375-11.492187-25.597657-25.632812v-8.546875c.011719-33 26.730469-59.765625 59.730469-59.828125h8.535157c23.753906-.027344 45.265624 14.042969 54.757812 35.816406 1.21875 2.796875.851562 6.03125-.960938 8.484375-1.8125 2.449219-4.796874 3.75-7.824218 3.40625-3.03125-.34375-5.648438-2.277343-6.863282-5.074219-6.785156-15.546874-22.144531-25.589843-39.109374-25.566406h-8.535157c-23.578125.054688-42.664062 19.183594-42.664062 42.761719v8.546875c-.007813 4.722656 3.8125 8.554688 8.53125 8.566406h145.066406c4.714844 0 8.535156 3.820313 8.535156 8.535156 0 4.710938-3.820312 8.53125-8.535156 8.53125zm0 0"/><path d="m42.6875 426.675781c-16.835938.007813-32.097656-9.882812-38.96875-25.246093-6.871094-15.367188-4.066406-33.335938 7.160156-45.878907 7.230469-8.09375 13.769532-16.785156 19.539063-25.980469 2.550781-3.867187 7.722656-4.996093 11.648437-2.539062 3.925782 2.457031 5.179688 7.597656 2.820313 11.582031-6.28125 10.007813-13.390625 19.46875-21.257813 28.285157-9.398437 10.554687-8.515625 26.71875 1.972656 36.191406 10.6875 8.996094 26.535157 8.121094 36.167969-1.996094 3.265625-3.683594 6.484375-7.476562 9.542969-11.359375 1.863281-2.464844 4.914062-3.730469 7.972656-3.308594 3.0625.421875 5.65625 2.46875 6.78125 5.347657 1.125 2.878906.605469 6.140624-1.359375 8.527343-3.257812 4.132813-6.691406 8.191407-10.207031 12.160157-8.109375 9.035156-19.671875 14.203124-31.8125 14.214843zm0 0"/><path d="m409.617188 452.277344c-16.832032.007812-32.09375-9.882813-38.964844-25.25-6.871094-15.363282-4.066406-33.335938 7.160156-45.875 28.703125-32.089844 45.507812-73.070313 47.597656-116.078125.285156-4.679688 4.25-8.277344 8.933594-8.113281 2.261719.105468 4.386719 1.109374 5.910156 2.785156 1.519532 1.675781 2.316406 3.886718 2.207032 6.148437-2.28125 46.910157-20.609376 91.613281-51.917969 126.625-9.382813 10.558594-8.492188 26.707031 1.992187 36.175781 10.691406 8.996094 26.535156 8.117188 36.167969-2.003906 42.003906-47.050781 65.539063-107.726562 66.25-170.796875-1.121094-63.945312-26.054687-125.171875-69.925781-171.710937-43.941406-44.523438-103.675782-67.109375-177.542969-67.109375-97.453125-.011719-183.503906 63.578125-212.097656 156.742187-28.597657 93.160156 6.953125 194.078125 87.632812 248.742188 3.261719 1.980468 4.808594 5.886718 3.789063 9.566406-1.019532 3.675781-4.359375 6.226562-8.175782 6.242188h-.085937c-1.699219 0-3.363281-.507813-4.773437-1.457032-87.039063-58.769531-125.492188-167.488281-94.757813-267.914062 30.734375-100.421875 123.449219-169.00000025 228.46875-168.9882815 78.601563 0 142.421875 24.2929685 189.695313 72.1953125 47.371093 49.597656 74.121093 115.34375 74.839843 183.921875-.765625 67.195312-25.847656 131.839844-70.609375 181.960938-8.105468 9.023437-19.660156 14.183593-31.792968 14.191406zm0 0"/><path d="m299.277344 471.984375c-4.335938-.011719-7.976563-3.269531-8.460938-7.582031-.484375-4.308594 2.34375-8.296875 6.570313-9.265625 22.988281-5.265625 44.980469-14.199219 65.132812-26.457031 4.308594-2.683594 8.691407-5.574219 12.914063-8.554688 2.492187-1.757812 5.734375-2.050781 8.5-.773438 2.765625 1.28125 4.640625 3.9375 4.917968 6.976563.273438 3.035156-1.089843 5.988281-3.582031 7.746094-4.492187 3.164062-9.140625 6.242187-13.808593 9.140625-21.738282 13.234375-45.46875 22.875-70.273438 28.550781-.628906.144531-1.269531.21875-1.910156.21875zm0 0"/><path d="m145.085938 229.875c-20.75.035156-39.476563-12.4375-47.441407-31.597656-7.964843-19.164063-3.597656-41.234375 11.0625-55.921875 14.660157-14.683594 36.726563-19.085938 55.898438-11.152344 19.175781 7.929687 31.679687 26.636719 31.679687 47.386719-.007812 28.289062-22.914062 51.230468-51.199218 51.285156zm0-85.5c-13.847657-.03125-26.351563 8.28125-31.675782 21.066406-5.324218 12.785156-2.417968 27.515625 7.363282 37.320313 9.78125 9.804687 24.503906 12.746093 37.300781 7.457031 12.796875-5.292969 21.144531-17.777344 21.144531-31.625.003906-18.867188-15.265625-34.175781-34.132812-34.21875zm0 0"/><path d="m86.796875 120.144531c3.03125-10.285156 8.691406-19.605469 16.421875-27.039062 8.003906-7.992188 18.234375-13.382813 29.347656-15.46875 2.792969-.632813 5.652344-.9375 8.511719-.90625 2.835937-.253907 5.695313-.125 8.496094.394531 2.777343.476562 5.578125.851562 8.289062 1.46875l7.742188 2.878906c2.558593.878906 4.992187 2.09375 7.234375 3.613282 2.285156 1.40625 4.585937 2.730468 6.789062 4.195312 4.070313 3.261719 7.9375 6.761719 11.585938 10.488281 1.046875 1.058594 1.214844 2.699219.414062 3.953125-.804687 1.25-2.367187 1.777344-3.765625 1.273438l-.425781-.160156c-4.703125-1.714844-8.996094-3.824219-13.308594-5.6875-4.519531-1.269532-8.703125-3.371094-13.101562-4.15625-8.265625-2.28125-16.9375-2.679688-25.378906-1.164063-8.4375 1.742187-16.4375 5.175781-23.511719 10.089844-7.742188 5.390625-14.96875 11.480469-21.589844 18.195312l-.148437.144531c-.695313.691407-1.769532.824219-2.613282.328126-.84375-.496094-1.25-1.496094-.988281-2.441407zm0 0"/><path d="m281.617188 229.875c-24.453126.027344-45.523438-17.226562-50.316407-41.210938-4.792969-23.980468 8.027344-48.007812 30.613281-57.382812 22.589844-9.375 48.652344-1.488281 62.253907 18.839844 13.597656 20.328125 10.9375 47.429687-6.347657 64.730468-9.570312 9.648438-22.609374 15.0625-36.203124 15.023438zm0-85.5c-13.820313.039062-26.261719 8.386719-31.539063 21.160156-5.277344 12.773438-2.355469 27.464844 7.40625 37.25 13.488281 12.925782 34.765625 12.929688 48.257813.007813 9.78125-9.777344 12.710937-24.480469 7.433593-37.257813-5.277343-12.78125-17.730469-21.128906-31.558593-21.160156zm0 0"/><path d="m237.519531 102.164062c6.292969-8.691406 14.761719-15.578124 24.554688-19.96875 20.957031-10.019531 45.925781-6.054687 62.753906 9.960938 7.820313 7.199219 13.929687 16.058594 17.882813 25.929688.660156 1.65625-.144532 3.535156-1.800782 4.199218-1.195312.464844-2.546875.191406-3.46875-.699218-6.597656-6.726563-13.796875-12.835938-21.503906-18.257813-7.035156-4.917969-15.074219-8.210937-23.539062-9.640625-8.550782-1.125-17.238282-.550781-25.5625 1.6875-9.113282 2.460938-17.96875 5.777344-26.453126 9.90625l-.1875.085938c-.886718.414062-1.941406.183593-2.570312-.566407-.628906-.753906-.675781-1.832031-.109375-2.632812zm0 0"/><path d="m273.085938 409.609375c-14.113282-.066406-25.535157-11.488281-25.601563-25.601563.023437-2.222656-.863281-4.355468-2.449219-5.914062-1.578125-1.675781-3.78125-2.621094-6.082031-2.617188-6.835937.039063-13.390625-2.710937-18.152344-7.617187-2.710937-2.644531-4.769531-5.882813-6.015625-9.457031-.476562.007812-.949218.007812-1.433594.007812-47.105468-.054687-85.277343-38.230468-85.332031-85.335937v-8.53125c.011719-9.421875 7.644531-17.054688 17.066407-17.066407h136.53125c9.421874.011719 17.054687 7.644532 17.070312 17.066407v119.464843c-.015625 14.132813-11.46875 25.585938-25.601562 25.601563zm-51.199219-68.773437c4.710937.003906 8.527343 3.820312 8.53125 8.53125-.117188 2.390624.769531 4.722656 2.449219 6.425781 1.582031 1.675781 3.78125 2.621093 6.085937 2.617187 14.109375.066406 25.535156 11.488282 25.597656 25.597656-.019531 2.226563.863281 4.359376 2.453125 5.917969 1.578125 1.675781 3.78125 2.621094 6.082032 2.617188 4.710937-.003907 8.53125-3.820313 8.53125-8.535157v-119.4375l-136.53125-.027343v8.53125c.042968 37.6875 30.582031 68.226562 68.265624 68.269531 2.511719.003906 5.019532-.144531 7.511719-.449219.339844-.042969.679688-.0625 1.023438-.058593zm0 0"/></svg>