<svg height="512pt" viewBox="0 0 512.01509 512" width="512pt" xmlns="http://www.w3.org/2000/svg"><path d="m472.09375 93.078125 30.378906 111.871094c2.582032 10.207031.304688 21.035156-6.167968 29.339843-6.46875 8.304688-16.410157 13.160157-26.941407 13.15625h-34.304687l-1.363282-34.132812h35.667969l-29.269531-108.03125zm0 0" fill="#ff5722"/><path d="m39.953125 93.078125-30.378906 111.871094c-2.582031 10.207031-.304688 21.035156 6.167969 29.339843 6.46875 8.304688 16.410156 13.160157 26.941406 13.15625h34.304687l1.363281-34.132812h-35.667968l29.269531-108.03125zm0 0" fill="#ff5722"/><path d="m435.230469 238.910156c.929687 65.347656-29.976563 127.0625-82.859375 165.460938l-97.277344 72.535156-12.714844-9.640625-82.6875-62.894531c-16.210937-11.367188-30.496094-25.253906-42.328125-41.128906l-22.613281-38.65625c-10.308594-23.449219-16.292969-48.574219-17.664062-74.152344-.167969-3.84375-.253907-7.683594-.253907-11.523438-.011719-8.5.503907-16.992187 1.535157-25.429687 10.835937-91.816407 79.617187-163.753907 164.863281-170.238281 4.265625-.425782 8.535156-.597657 12.800781-.597657 98.988281 0 179.199219 87.894531 179.199219 196.265625zm0 0" fill="#fec108"/><path d="m409.632812 238.910156c.929688 65.347656-29.976562 127.0625-82.859374 165.460938l-84.394532 62.894531-82.6875-62.894531c-16.210937-11.367188-30.496094-25.253906-42.328125-41.128906l-22.613281-38.65625c-10.308594-23.449219-16.292969-48.574219-17.664062-74.152344-.167969-3.84375-.253907-7.683594-.253907-11.523438-.011719-8.5.503907-16.992187 1.535157-25.429687 10.835937-91.816407 79.617187-163.753907 164.863281-170.238281 93.015625 7.082031 166.402343 91.988281 166.402343 195.667968zm0 0" fill="#ffdc00"/><path d="m256.03125 460.777344v25.601562c-.027344 9.414063-7.652344 17.039063-17.066406 17.066406h-102.402344c-9.414062-.027343-17.039062-7.652343-17.066406-17.066406v-25.601562c-.066406-31.34375 24.195312-57.359375 55.46875-59.476563 1.414062-.171875 2.839844-.253906 4.265625-.253906h17.066406c15.847656-.011719 31.046875 6.277344 42.25 17.480469 11.207031 11.203125 17.496094 26.40625 17.484375 42.25zm0 0" fill="#283593"/><path d="m230.429688 460.777344v25.601562c-.027344 9.414063-7.652344 17.039063-17.066407 17.066406h-76.800781c-9.414062-.027343-17.039062-7.652343-17.066406-17.066406v-25.601562c-.066406-31.34375 24.195312-57.359375 55.46875-59.476563 31.269531 2.117188 55.535156 28.132813 55.464844 59.476563zm0 0" fill="#3f51b5"/><path d="m392.5625 460.777344v25.601562c-.027344 9.414063-7.652344 17.039063-17.066406 17.066406h-102.398438c-9.414062-.027343-17.039062-7.652343-17.066406-17.066406v-25.601562c-.070312-31.34375 24.195312-57.359375 55.464844-59.476563 1.417968-.171875 2.84375-.253906 4.269531-.253906h17.066406c15.84375-.011719 31.046875 6.277344 42.25 17.480469s17.492188 26.40625 17.480469 42.25zm0 0" fill="#283593"/><path d="m366.964844 460.777344v25.601562c-.027344 9.414063-7.652344 17.039063-17.066406 17.066406h-76.800782c-9.414062-.027343-17.039062-7.652343-17.066406-17.066406v-25.601562c-.070312-31.34375 24.195312-57.359375 55.464844-59.476563 31.273437 2.117188 55.535156 28.132813 55.46875 59.476563zm0 0" fill="#3f51b5"/><path d="m460.234375 102.378906c-8.882813 4.046875-19.007813 4.414063-28.160156 1.023438-13.574219-5.097656-24.5625-15.382813-30.550781-28.585938-11.945313-25.003906-5.035157-53.25 15.445312-62.976562.769531-.339844 1.621094-.683594 2.476562-1.023438 20.050782-7.679687 44.628907 4.605469 56.148438 28.671875 11.945312 25.003907 5.121094 53.160157-15.359375 62.890625zm0 0" fill="#f57c00"/><path d="m434.632812 102.378906c-.820312.414063-1.679687.757813-2.558593 1.023438-13.574219-5.097656-24.5625-15.382813-30.550781-28.585938-11.945313-25.003906-5.035157-53.25 15.445312-62.976562.769531-.339844 1.621094-.683594 2.476562-1.023438 13.542969 5.1875 24.515626 15.480469 30.546876 28.671875 11.949218 25.003907 5.121093 53.160157-15.359376 62.890625zm0 0" fill="#ff9801"/><path d="m36.460938 39.457031c-11.917969 25.003907-5.125 53.179688 15.332031 62.929688 20.457031 9.753906 46.828125-2.609375 58.75-27.609375 11.917969-25.003906 4.996093-53.175782-15.457031-62.929688-20.457032-9.753906-46.703126 2.609375-58.625 27.609375zm0 0" fill="#ff9801"/><path d="m413.726562 349.84375c-5.738281 8.574219-16.078124 12.851562-26.195312 10.839844 8 6.144531 11.640625 16.421875 9.292969 26.234375-2.347657 9.8125-10.25 17.324219-20.167969 19.179687-9.917969 1.851563-20-2.296875-25.734375-10.597656-1.535156-2.136719-2.664063-4.539062-3.328125-7.085938-1.703125 10.121094-9.242188 18.265626-19.199219 20.738282-8.152343 2.046875-16.792969-.09375-23.039062-5.71875-4.265625-3.804688-7.171875-8.898438-8.277344-14.507813-1.8125-9.9375 2.359375-20.015625 10.664063-25.769531.769531-.511719 1.535156-.9375 2.390624-1.449219l-15.445312-52.820312c-2.875-9.773438.828125-20.289063 9.195312-26.101563 8.367188-5.808594 19.515626-5.609375 27.667969.5l44.117188 33.023438c.683593-.597656 1.367187-1.195313 2.132812-1.792969 8.308594-5.816406 19.289063-6.117187 27.90625-.765625 5.152344 3.125 9.046875 7.953125 11.007813 13.652344 2.6875 7.523437 1.574218 15.882812-2.988282 22.441406zm0 0" fill="#cfd8dc"/><path d="m401.695312 332.4375c-5.761718 8.546875-16.082031 12.816406-26.199218 10.835938 3.960937 3 6.957031 7.09375 8.621094 11.777343.695312 1.898438 1.152343 3.875 1.363281 5.886719.894531 9.726562-3.757813 19.128906-12.03125 24.320312-11.582031 7.246094-26.816407 4.085938-34.558594-7.167968-1.558594-2.132813-2.714844-4.535156-3.414063-7.082032-1.671874 10.132813-9.226562 18.289063-19.199218 20.734376-6.523438 1.574218-13.40625.566406-19.199219-2.816407-1.8125-9.9375 2.359375-20.015625 10.664063-25.769531.769531-.511719 1.535156-.9375 2.390624-1.449219l-15.445312-52.820312c-2.875-9.773438.828125-20.289063 9.195312-26.101563 8.367188-5.808594 19.515626-5.609375 27.667969.5l44.117188 33.023438c.683593-.597656 1.367187-1.195313 2.132812-1.792969 8.308594-5.816406 19.289063-6.117187 27.90625-.765625 1.175781 6.511719-.265625 13.230469-4.011719 18.6875zm0 0" fill="#f5f5f5"/><path d="m217.289062 308.886719-15.445312 52.820312c.769531.511719 1.621094.9375 2.390625 1.449219 8.289063 5.800781 12.425781 15.910156 10.582031 25.855469-1.097656 5.570312-3.972656 10.628906-8.191406 14.421875-6.25 5.625-14.890625 7.765625-23.042969 5.71875-9.957031-2.472656-17.496093-10.617188-19.199219-20.738282-.703124 2.53125-1.828124 4.929688-3.328124 7.085938-5.695313 8.425781-15.835938 12.6875-25.839844 10.851562-10.007813-1.832031-17.976563-9.414062-20.3125-19.316406-2.332032-9.898437 1.414062-20.242187 9.542968-26.351562-10.140624 1.996094-20.496093-2.273438-26.28125-10.839844-4.480468-6.589844-5.585937-14.910156-2.988281-22.441406 2-5.75 5.957031-10.613282 11.179688-13.738282 8.597656-5.238281 19.476562-4.90625 27.734375.851563.769531.597656 1.535156 1.195313 2.21875 1.792969l44.117187-33.023438c8.152344-6.109375 19.300781-6.308594 27.667969-.5 8.367188 5.8125 12.070312 16.328125 9.195312 26.101563zm0 0" fill="#cfd8dc"/><path d="m217.289062 308.886719-15.445312 52.820312c.769531.511719 1.621094.9375 2.390625 1.449219 8.289063 5.800781 12.425781 15.910156 10.582031 25.855469-5.761718 3.316406-12.570312 4.292969-19.03125 2.730469-9.972656-2.445313-17.527344-10.601563-19.199218-20.734376-.699219 2.546876-1.855469 4.949219-3.414063 7.082032-7.742187 11.253906-22.976563 14.414062-34.558594 7.167968-8.277343-5.191406-12.925781-14.59375-12.03125-24.320312.207031-2.011719.667969-3.988281 1.363281-5.886719 1.664063-4.683593 4.660157-8.777343 8.617188-11.777343-10.113281 1.980468-20.433594-2.289063-26.195312-10.835938-3.746094-5.488281-5.1875-12.230469-4.011719-18.773438 8.597656-5.238281 19.476562-4.90625 27.734375.851563.769531.597656 1.535156 1.195313 2.21875 1.792969l44.117187-33.023438c8.152344-6.109375 19.300781-6.308594 27.667969-.5 8.367188 5.8125 12.070312 16.328125 9.195312 26.101563zm0 0" fill="#f5f5f5"/><path d="m322.675781 418.335938c-14.9375.039062-28.164062-9.648438-32.636719-23.902344-4.472656-14.253906.851563-29.761719 13.132813-38.265625.894531-.621094 1.886719-1.207031 2.890625-1.773438 4.113281-2.332031 9.335938-.925781 11.71875 3.15625 1.128906 1.949219 1.4375 4.265625.851562 6.441407-.582031 2.175781-2.011718 4.027343-3.96875 5.144531-.699218.398437-1.230468.679687-1.726562 1.03125-6.390625 4.402343-9.011719 12.558593-6.375 19.855469 2.636719 7.300781 9.863281 11.902343 17.59375 11.199218 7.726562-.699218 14.011719-6.523437 15.289062-14.179687.648438-3.964844 3.976563-6.945313 7.992188-7.148438 4-.144531 7.578125 2.460938 8.671875 6.308594.457031 1.597656 1.179687 3.109375 2.140625 4.464844 5.375 7.746093 16.007812 9.667969 23.75 4.296875 7.746094-5.375 9.667969-16.007813 4.296875-23.75-.929687-1.378906-2.089844-2.585938-3.425781-3.574219-3.269532-2.339844-4.460938-6.644531-2.863282-10.335937 1.597657-3.6875 5.554688-5.761719 9.496094-4.976563 7.609375 1.476563 15.253906-2.363281 18.617188-9.34375 3.363281-6.984375 1.597656-15.355469-4.296875-20.382813-5.894531-5.03125-14.4375-5.457031-20.804688-1.039062-.546875.394531-1.070312.8125-1.574219 1.257812-3.605468 3.042969-8.988281 2.585938-12.027343-1.019531-3.042969-3.605469-2.585938-8.988281 1.019531-12.027343.921875-.777344 1.847656-1.527344 2.832031-2.21875 10.945313-7.625 25.328125-8.179688 36.824219-1.414063s18 19.605469 16.648438 32.875c-1.351563 13.269531-10.304688 24.535156-22.929688 28.847656 6.128906 14.839844 1.101562 31.949219-12.082031 41.113281-13.195313 9.175782-31.003907 7.894532-42.753907-3.070312-6.464843 7.871094-16.113281 12.433594-26.296874 12.433594zm0 0"/><path d="m310.445312 370.253906c-3.789062 0-7.121093-2.5-8.183593-6.132812l-20.285157-69.226563c-.914062-2.941406-.171874-6.148437 1.945313-8.390625 2.113281-2.238281 5.273437-3.164062 8.265625-2.421875 2.988281.742188 5.34375 3.042969 6.164062 6.011719l20.285157 69.222656c.757812 2.582032.257812 5.367188-1.355469 7.519532-1.613281 2.15625-4.148438 3.417968-6.839844 3.414062zm0 0"/><path d="m375.929688 324.828125c-1.839844 0-3.632813-.597656-5.105469-1.699219l-57.730469-43.25c-3.773438-2.828125-4.542969-8.175781-1.71875-11.949218 2.828125-3.773438 8.175781-4.542969 11.953125-1.71875l57.726563 43.25c2.945312 2.203124 4.148437 6.046874 2.984374 9.535156-1.164062 3.488281-4.429687 5.839844-8.109374 5.832031zm0 0"/><path d="m189.582031 418.335938c-10.1875 0-19.835937-4.5625-26.300781-12.433594-11.75 10.964844-29.554688 12.242187-42.75 3.074218-13.183594-9.171874-18.210938-26.277343-12.082031-41.117187-12.613281-4.3125-21.5625-15.574219-22.914063-28.835937-1.351562-13.265626 5.140625-26.097657 16.625-32.867188s25.859375-6.234375 36.804688 1.371094c1.027344.726562 1.949218 1.476562 2.859375 2.242187 3.605469 3.039063 4.0625 8.425781 1.023437 12.027344-3.042968 3.605469-8.425781 4.0625-12.03125 1.023437-.527344-.449218-1.054687-.902343-1.621094-1.292968-6.375-4.402344-14.914062-3.957032-20.796874 1.082031-5.882813 5.039063-7.632813 13.410156-4.265626 20.386719 3.367188 6.972656 11.011719 10.804687 18.617188 9.332031 3.941406-.785156 7.898438 1.285156 9.5 4.976563 1.597656 3.6875.402344 7.992187-2.867188 10.332031-1.332031.988281-2.492187 2.191406-3.425781 3.566406-5.371093 7.742187-3.449219 18.378906 4.296875 23.75 7.742188 5.371094 18.378906 3.449219 23.75-4.292969.964844-1.355468 1.6875-2.863281 2.140625-4.460937 1.082031-3.855469 4.671875-6.46875 8.675781-6.308594 4.015626.210937 7.34375 3.191406 7.992188 7.160156 1.28125 7.648438 7.554688 13.46875 15.277344 14.175781 7.722656.707032 14.949218-3.878906 17.597656-11.167968 2.644531-7.289063.046875-15.445313-6.328125-19.859375-.542969-.382813-1.09375-.683594-1.632813-.992188l8.296876-14.90625c1.140624.640625 2.132812 1.222657 3.085937 1.890625 12.261719 8.511719 17.566406 24.011719 13.089844 38.253906-4.476563 14.242188-17.691407 23.921876-32.621094 23.886719zm0 0"/><path d="m201.816406 370.253906c-2.691406.003906-5.226562-1.261718-6.839844-3.414062-1.613281-2.152344-2.113281-4.9375-1.355468-7.519532l20.285156-69.226562c.8125-2.976562 3.171875-5.285156 6.164062-6.03125 2.996094-.75 6.160157.179688 8.277344 2.425781 2.117188 2.246094 2.855469 5.460938 1.933594 8.40625l-20.285156 69.226563c-1.0625 3.632812-4.394532 6.132812-8.179688 6.132812zm0 0"/><path d="m136.328125 324.828125c-3.679687.007813-6.945313-2.34375-8.109375-5.832031-1.164062-3.488282.039062-7.332032 2.984375-9.535156l57.726563-43.25c2.441406-1.828126 5.671874-2.214844 8.476562-1.015626 2.804688 1.203126 4.753906 3.808594 5.117188 6.835938.363281 3.027344-.917969 6.019531-3.359376 7.847656l-57.730468 43.25c-1.472656 1.101563-3.265625 1.699219-5.105469 1.699219zm0 0"/><path d="m172.6875 118.449219c4.648438 3.835937 9.667969 7.191406 14.984375 10.027343 4.996094 2.597657 10.21875 4.730469 15.605469 6.375 5.460937 1.277344 10.898437 2.488282 16.699218 3.472657 2.875.703125 5.871094.851562 8.917969 1.652343 3.242188.421876 6.445313 1.113282 9.570313 2.070313l.3125.105469c1.207031.398437 2.074218 1.464844 2.21875 2.726562.148437 1.265625-.453125 2.496094-1.535156 3.164063-6.140626 3.636719-13.0625 5.757812-20.1875 6.183593-14.828126.867188-29.328126-4.597656-39.898438-15.03125-5.292969-5.089843-9-11.605468-10.671875-18.753906-.199219-.945312.21875-1.914062 1.042969-2.417968.820312-.507813 1.875-.4375 2.625.167968zm0 0"/><path d="m343.355469 120.441406c-1.671875 7.148438-5.378907 13.664063-10.671875 18.753906-10.570313 10.433594-25.070313 15.898438-39.898438 15.03125-7.125-.425781-14.046875-2.546874-20.1875-6.183593-1.082031-.667969-1.675781-1.898438-1.53125-3.160157.148438-1.261718 1.007813-2.324218 2.214844-2.726562l.316406-.105469c3.125-.957031 6.328125-1.648437 9.570313-2.070312 3.046875-.800781 6.042969-.949219 8.917969-1.652344 5.800781-.984375 11.242187-2.191406 16.699218-3.472656 5.386719-1.644531 10.609375-3.777344 15.605469-6.375 5.316406-2.835938 10.335937-6.195313 14.984375-10.027344l.304688-.25c.753906-.605469 1.804687-.675781 2.628906-.175781.824218.503906 1.242187 1.472656 1.046875 2.417968zm0 0"/><path d="m95.691406 335.082031c-3.335937.003907-6.367187-1.9375-7.757812-4.964843-13.085938-28.617188-19.785156-59.738282-19.636719-91.207032 0-112.921875 84.21875-204.796875 187.734375-204.796875s187.734375 91.875 187.734375 204.796875c.121094 31.351563-6.515625 62.363282-19.457031 90.917969-2.011719 4.183594-7 5.988281-11.222656 4.066406-4.226563-1.921875-6.140626-6.867187-4.308594-11.132812 11.929687-26.335938 18.042968-54.9375 17.921875-83.851563 0-103.515625-76.5625-187.730468-170.667969-187.730468s-170.667969 84.214843-170.667969 187.730468c-.144531 29.003906 6.023438 57.691406 18.082031 84.070313 1.210938 2.640625.996094 5.71875-.574218 8.167969-1.566406 2.449218-4.273438 3.929687-7.179688 3.933593zm0 0"/><path d="m238.964844 511.976562h-102.402344c-14.128906-.015624-25.582031-11.464843-25.597656-25.597656v-25.601562c-.042969-29.109375 18.429687-55.023438 45.960937-64.480469 4.238281-1.523437 8.636719-2.546875 13.109375-3.050781 4.652344-.449219 8.800782 2.929687 9.304688 7.574218.5 4.648438-2.828125 8.835938-7.472656 9.390626-3.179688.367187-6.308594 1.105468-9.316407 2.199218-20.671875 7.074219-34.546875 26.519532-34.519531 48.367188v25.601562c.003906 4.710938 3.820312 8.527344 8.53125 8.53125h102.402344c4.710937-.003906 8.527344-3.820312 8.53125-8.53125v-25.601562c-.019532-24.460938-17.320313-45.5-41.316406-50.25-4.625-.902344-7.640626-5.386719-6.734376-10.011719.902344-4.625 5.386719-7.640625 10.011719-6.738281 32 6.332031 55.070313 34.382812 55.105469 67v25.601562c-.011719 14.132813-11.464844 25.582032-25.597656 25.597656zm0 0"/><path d="m256.03125 477.84375h-136.535156c-4.710938 0-8.53125-3.820312-8.53125-8.53125 0-4.714844 3.820312-8.535156 8.53125-8.535156h136.535156c4.710938 0 8.53125 3.820312 8.53125 8.535156 0 4.710938-3.820312 8.53125-8.53125 8.53125zm0 0"/><path d="m375.496094 511.976562h-102.398438c-14.132812-.015624-25.585937-11.464843-25.601562-25.597656v-25.601562c.019531-32.695313 23.210937-60.789063 55.308594-67.007813 4.628906-.886719 9.105468 2.144531 9.992187 6.777344.890625 4.628906-2.144531 9.101563-6.773437 9.988281-24.066407 4.664063-41.449219 25.730469-41.460938 50.242188v25.601562c.007812 4.710938 3.824219 8.527344 8.535156 8.53125h102.398438c4.710937-.003906 8.53125-3.820312 8.535156-8.53125v-25.601562c-.039062-25.433594-18.742188-46.984375-43.917969-50.601563-3.101562-.320312-5.78125-2.304687-6.992187-5.183593-1.207032-2.875-.75-6.179688 1.191406-8.621094 1.941406-2.4375 5.0625-3.625 8.136719-3.089844 33.601562 4.804688 58.578125 33.550781 58.648437 67.496094v25.601562c-.015625 14.132813-11.46875 25.582032-25.601562 25.597656zm0 0"/><path d="m392.5625 477.84375h-136.53125c-4.714844 0-8.535156-3.820312-8.535156-8.53125 0-4.714844 3.820312-8.535156 8.535156-8.535156h136.53125c4.714844 0 8.535156 3.820312 8.535156 8.535156 0 4.710938-3.820312 8.53125-8.535156 8.53125zm0 0"/><path d="m445.289062 114.285156c-7.359374-.0625-14.609374-1.75-21.238281-4.949218-13.339843-6.503907-24.023437-17.410157-30.25-30.882813-13.921875-29.207031-5.183593-62.542969 19.484375-74.308594 24.667969-11.765625 56.078125 2.425781 70.003906 31.640625 6.546876 13.289063 8.332032 28.421875 5.0625 42.871094-2.898437 13.664062-11.902343 25.25-24.429687 31.433594-5.816406 2.777344-12.183594 4.210937-18.632813 4.195312zm-13.332031-97.257812c-3.917969-.019532-7.785156.84375-11.324219 2.519531-16.175781 7.714844-21.300781 30.847656-11.421874 51.558594 4.523437 9.910156 12.328124 17.960937 22.09375 22.789062 7.867187 4.09375 17.167968 4.382813 25.273437.792969 7.859375-4.019531 13.453125-11.40625 15.1875-20.058594 2.34375-10.632812.972656-21.746094-3.886719-31.488281-6.121094-14.757813-19.996094-24.84375-35.921875-26.113281zm0 0"/><path d="m469.363281 221.84375h-35.667969c-4.714843 0-8.535156-3.820312-8.535156-8.53125 0-4.714844 3.820313-8.535156 8.535156-8.535156h24.515626l-26.355469-97.265625c-1.234375-4.550781 1.457031-9.238281 6.003906-10.472657 4.550781-1.230468 9.238281 1.457032 10.472656 6.003907l29.269531 108.035156c.695313 2.5625.15625 5.308594-1.457031 7.417969-1.617187 2.109375-4.121093 3.347656-6.78125 3.347656zm0 0"/><path d="m469.363281 255.976562h-34.304687c-4.710938 0-8.53125-3.820312-8.53125-8.53125 0-4.714843 3.820312-8.535156 8.53125-8.535156h34.304687c7.921875.007813 15.398438-3.652344 20.25-9.910156 4.851563-6.257812 6.535157-14.410156 4.558594-22.078125l-30.3125-111.609375c-.855469-2.960938-.046875-6.152344 2.113281-8.351562 2.160156-2.195313 5.339844-3.058594 8.3125-2.253907 2.976563.804688 5.285156 3.152344 6.042969 6.136719l30.378906 111.867188c3.253907 12.902343.355469 26.585937-7.847656 37.058593-8.085937 10.257813-20.433594 16.234375-33.496094 16.207031zm0 0"/><path d="m66.753906 114.285156c-6.445312.015625-12.816406-1.421875-18.636718-4.199218-12.523438-6.183594-21.523438-17.765626-24.425782-31.429688-3.265625-14.449219-1.476562-29.578125 5.066406-42.867188 13.925782-29.210937 45.34375-43.410156 69.996094-31.644531 24.671875 11.765625 33.414063 45.101563 19.488282 74.308594-6.226563 13.472656-16.910157 24.382813-30.25 30.890625-6.628907 3.191406-13.878907 4.878906-21.238282 4.941406zm-30.292968-74.824218 7.703124 3.675781c-4.859374 9.742187-6.230468 20.855469-3.886718 31.488281 1.738281 8.652344 7.332031 16.039062 15.1875 20.058594 8.109375 3.597656 17.410156 3.304687 25.277344-.792969 9.765624-4.824219 17.570312-12.875 22.09375-22.785156 9.878906-20.710938 4.753906-43.84375-11.425782-51.558594-16.171875-7.695313-37.371094 2.875-47.246094 23.589844zm0 0"/><path d="m78.351562 221.84375h-35.671874c-2.65625 0-5.164063-1.234375-6.777344-3.347656-1.613282-2.109375-2.15625-4.851563-1.457032-7.417969l29.265626-108.03125c1.234374-4.550781 5.921874-7.238281 10.472656-6.003906 4.550781 1.234375 7.238281 5.921875 6.003906 10.472656l-26.351562 97.261719h24.515624c4.714844 0 8.535157 3.820312 8.535157 8.535156 0 4.710938-3.820313 8.53125-8.535157 8.53125zm0 0"/><path d="m76.984375 255.976562h-34.304687c-13.140626.007813-25.546876-6.042968-33.636719-16.398437-8.089844-10.355469-10.957031-23.859375-7.769531-36.609375l30.445312-112.125c.757812-2.988281 3.066406-5.335938 6.042969-6.140625 2.976562-.800781 6.152343.058594 8.3125 2.257813 2.160156 2.195312 2.96875 5.386718 2.113281 8.347656l-30.382812 111.871094c-1.882813 7.640624-.144532 15.726562 4.710937 21.921874 4.855469 6.195313 12.292969 9.8125 20.164063 9.808594h34.304687c4.714844 0 8.535156 3.820313 8.535156 8.535156 0 4.710938-3.820312 8.53125-8.535156 8.53125zm0 0"/><path d="m221.90625 221.84375c-2.828125.007812-5.476562-1.390625-7.066406-3.730469-.703125-1-15.085938-20.644531-51-13.5-4.597656.875-9.046875-2.117187-9.964844-6.707031-.917969-4.59375 2.03125-9.066406 6.613281-10.027344 47.746094-9.527344 67.6875 19.457032 68.507813 20.699219 1.746094 2.617187 1.910156 5.980469.425781 8.757813-1.480469 2.773437-4.371094 4.503906-7.515625 4.507812zm0 0"/><path d="m290.15625 221.84375c-3.144531-.003906-6.035156-1.734375-7.515625-4.507812-1.484375-2.777344-1.320313-6.140626.425781-8.757813.824219-1.234375 20.738282-30.226563 68.507813-20.699219 3.011719.574219 5.484375 2.722656 6.476562 5.625.992188 2.902344.347657 6.113282-1.683593 8.410156-2.03125 2.296876-5.140626 3.328126-8.144532 2.699219-36.636718-7.351562-50.820312 13.226563-50.957031 13.433594-1.585937 2.375-4.253906 3.800781-7.109375 3.796875zm0 0"/><path d="m296.992188 324.246094h-81.664063c-4.714844 0-8.535156-3.820313-8.535156-8.535156 0-4.710938 3.820312-8.53125 8.535156-8.53125h81.664063c4.710937 0 8.53125 3.820312 8.53125 8.53125 0 4.714843-3.820313 8.535156-8.53125 8.535156zm0 0"/></svg>