<svg height="511pt" viewBox="0 -17 511.92518 511" width="511pt" xmlns="http://www.w3.org/2000/svg"><path d="m434.972656 216.78125 34.214844 14.679688-19.199219 48.640624 29.101563 19.199219 21.84375-55.296875c6.863281-17.152344-1.25-36.648437-18.261719-43.859375l-44.542969-19.117187c-1.417968-.59375-2.914062-.996094-4.4375-1.195313zm0 0" fill="#ff5722"/><path d="m76.953125 216.78125-34.21875 14.679688 19.199219 48.640624-29.097656 19.199219-21.847657-55.296875c-6.863281-17.152344 1.253907-36.648437 18.261719-43.859375l44.542969-19.117187c1.421875-.59375 2.914062-.996094 4.4375-1.195313zm0 0" fill="#ff5722"/><path d="m435.097656 205.261719c.929688 65.347656-29.976562 127.0625-82.859375 165.460937l-97.28125 72.535156-12.714843-9.644531-82.6875-62.890625c-16.207032-11.367187-30.496094-25.253906-42.324219-41.128906l-22.613281-38.65625c-10.3125-23.449219-16.296876-48.574219-17.664063-74.15625-.171875-3.839844-.257813-7.679688-.257813-11.519531-.007812-8.5.503907-16.992188 1.535157-25.429688 10.839843-91.816406 79.617187-163.753906 164.867187-170.238281 4.265625-.425781 8.53125-.597656 12.796875-.597656 98.988281 0 179.203125 87.894531 179.203125 196.265625zm0 0" fill="#fec108"/><path d="m409.496094 205.261719c.929687 65.347656-29.976563 127.0625-82.859375 165.460937l-84.394531 62.890625-82.6875-62.890625c-16.207032-11.367187-30.496094-25.253906-42.324219-41.128906l-22.613281-38.65625c-10.3125-23.449219-16.296876-48.574219-17.664063-74.15625-.171875-3.839844-.257813-7.679688-.257813-11.519531-.007812-8.5.503907-16.992188 1.535157-25.429688 10.839843-91.816406 79.617187-163.753906 164.867187-170.238281 93.011719 7.082031 166.398438 91.988281 166.398438 195.667969zm0 0" fill="#ffdc00"/><path d="m255.894531 427.128906v25.601563c-.027343 9.414062-7.652343 17.039062-17.066406 17.066406h-102.398437c-9.414063-.027344-17.039063-7.652344-17.066407-17.066406v-25.601563c-.070312-31.34375 24.195313-57.359375 55.464844-59.476562 1.417969-.171875 2.84375-.257813 4.269531-.257813h17.066406c15.84375-.011719 31.042969 6.28125 42.25 17.484375 11.203126 11.203125 17.492188 26.40625 17.480469 42.25zm0 0" fill="#283593"/><path d="m230.296875 427.128906v25.601563c-.027344 9.414062-7.652344 17.039062-17.066406 17.066406h-76.800781c-9.414063-.027344-17.039063-7.652344-17.066407-17.066406v-25.601563c-.070312-31.34375 24.195313-57.359375 55.464844-59.476562 31.273437 2.117187 55.535156 28.132812 55.46875 59.476562zm0 0" fill="#3f51b5"/><path d="m392.429688 427.128906v25.601563c-.027344 9.414062-7.652344 17.039062-17.066407 17.066406h-102.402343c-9.414063-.027344-17.039063-7.652344-17.066407-17.066406v-25.601563c-.066406-31.34375 24.195313-57.359375 55.46875-59.476562 1.414063-.171875 2.839844-.257813 4.265625-.257813h17.066406c15.847657-.011719 31.046876 6.28125 42.25 17.484375 11.207032 11.203125 17.496094 26.40625 17.484376 42.25zm0 0" fill="#283593"/><path d="m366.828125 427.128906v25.601563c-.027344 9.414062-7.652344 17.039062-17.066406 17.066406h-76.800781c-9.414063-.027344-17.039063-7.652344-17.066407-17.066406v-25.601563c-.066406-31.34375 24.195313-57.359375 55.46875-59.476562 31.269531 2.117187 55.535157 28.132812 55.464844 59.476562zm0 0" fill="#3f51b5"/><path d="m221.761719 132.730469c0-21.207031-7.640625-38.402344-17.066407-38.402344-9.425781 0-17.066406 17.195313-17.066406 38.402344s7.640625 38.398437 17.066406 38.398437c9.425782 0 17.066407-17.191406 17.066407-38.398437zm0 0" fill="#3f51b5"/><path d="m214.175781 115.664062c0-11.785156-4.242187-21.335937-9.480469-21.335937-5.234374 0-9.480468 9.550781-9.480468 21.335937 0 11.78125 4.246094 21.332032 9.480468 21.332032 5.238282 0 9.480469-9.550782 9.480469-21.332032zm0 0" fill="#f5f5f5"/><path d="m324.164062 132.730469c0-21.207031-7.640624-38.402344-17.066406-38.402344-9.425781 0-17.066406 17.195313-17.066406 38.402344s7.640625 38.398437 17.066406 38.398437c9.425782 0 17.066406-17.191406 17.066406-38.398437zm0 0" fill="#3f51b5"/><path d="m316.578125 115.664062c0-11.785156-4.246094-21.335937-9.480469-21.335937-5.238281 0-9.484375 9.550781-9.484375 21.335937 0 11.78125 4.246094 21.332032 9.484375 21.332032 5.234375 0 9.480469-9.550782 9.480469-21.332032zm0 0" fill="#f5f5f5"/><path d="m105.75 302.121094c-16.804688-22.019532-45.03125-28.722656-63.046875-14.972656-18.015625 13.746093-18.996094 42.742187-2.191406 64.761718 16.804687 22.019532 45.03125 28.722656 63.046875 14.972656s18.996094-42.746093 2.191406-64.761718zm0 0" fill="#ff9801"/><path d="m471.449219 351.949219c-11.785157 17.347656-33.222657 25.382812-53.503907 20.054687-3.453124-1.15625-6.683593-2.886718-9.558593-5.121094-18.003907-13.738281-19.027344-42.75-2.21875-64.765624 7.015625-9.398438 16.757812-16.402344 27.902343-20.054688 11.851563-4.179688 24.996094-2.265625 35.160157 5.121094 18.003906 13.738281 18.941406 42.664062 2.21875 64.765625zm0 0" fill="#f57c00"/><path d="m445.847656 351.949219c-7.03125 9.382812-16.769531 16.382812-27.902344 20.054687-3.453124-1.15625-6.683593-2.886718-9.558593-5.121094-18.003907-13.738281-19.027344-42.75-2.21875-64.765624 7.015625-9.398438 16.757812-16.402344 27.902343-20.054688 3.453126 1.15625 6.683594 2.886719 9.558594 5.121094 18.007813 13.738281 18.945313 42.664062 2.21875 64.765625zm0 0" fill="#ff9801"/><path d="m177.921875 229.554688c.0625-3.023438 1.726563-5.785157 4.371094-7.253907 2.640625-1.464843 5.867187-1.417969 8.464843.125 19.730469 11.558594 42.277344 17.429688 65.136719 16.96875 22.863281.460938 45.410157-5.410156 65.140625-16.96875 2.597656-1.542969 5.824219-1.589843 8.464844-.125 2.644531 1.46875 4.308594 4.230469 4.367188 7.253907.683593 30.617187-6.367188 95.175781-77.972657 95.175781s-78.65625-64.558594-77.972656-95.175781zm0 0" fill="#cfd8dc"/><path d="m330.648438 264.398438c-23.292969 11.375-48.832032 17.410156-74.753907 17.664062-25.917969-.253906-51.457031-6.289062-74.75-17.664062-2.429687-11.390626-3.503906-23.03125-3.207031-34.675782.019531-3.042968 1.660156-5.847656 4.308594-7.351562 2.648437-1.503906 5.894531-1.480469 8.519531.0625 19.730469 11.550781 42.273437 17.421875 65.128906 16.960937 22.859375.460938 45.402344-5.410156 65.132813-16.960937 2.625-1.542969 5.871094-1.566406 8.519531-.0625s4.289063 4.304687 4.308594 7.351562c.296875 11.644532-.777344 23.28125-3.207031 34.675782zm0 0" fill="#f5f5f5"/><path d="m159.546875 379.257812c-1.742187-.003906-3.441406-.539062-4.871094-1.535156-16.957031-11.882812-31.90625-26.402344-44.269531-43.007812-1.910156-2.433594-2.351562-5.710938-1.15625-8.566406 1.195312-2.851563 3.839844-4.835938 6.914062-5.179688 3.074219-.347656 6.09375.996094 7.894532 3.511719 11.28125 15.148437 24.914062 28.394531 40.378906 39.242187 3.054688 2.132813 4.375 6.003906 3.253906 9.558594-1.117187 3.554688-4.414062 5.972656-8.140625 5.972656zm0 0"/><path d="m352.246094 379.257812c-3.726563.003907-7.027344-2.414062-8.144532-5.96875-1.121093-3.558593.195313-7.429687 3.253907-9.5625 15.570312-10.875 29.257812-24.230468 40.507812-39.53125 2.796875-3.796874 8.140625-4.601562 11.933594-1.804687 3.796875 2.796875 4.601563 8.140625 1.804687 11.9375-12.359374 16.796875-27.386718 31.457031-44.484374 43.398437-1.429688.996094-3.128907 1.53125-4.871094 1.53125zm0 0"/><path d="m417.089844 299.640625c-1.195313.003906-2.375-.25-3.464844-.742187-4.304688-1.914063-6.242188-6.957032-4.324219-11.261719 9.984375-22.535157 15.753907-46.703125 17.023438-71.316407.160156-3.625.238281-7.339843.238281-11.058593.007812-8.148438-.484375-16.292969-1.476562-24.382813-10.964844-93.148437-83.703126-163.351562-169.191407-163.351562-85.484375 0-158.222656 70.203125-169.1875 163.300781-.992187 8.109375-1.484375 16.265625-1.476562 24.433594 0 3.71875.082031 7.429687.246093 11.132812 1.300782 24.527344 7.042969 48.617188 16.949219 71.09375 1.230469 2.789063.882813 6.023438-.917969 8.484375-1.796874 2.464844-4.773437 3.777344-7.808593 3.453125-3.03125-.328125-5.65625-2.25-6.890625-5.039062-10.742188-24.390625-16.96875-50.527344-18.378906-77.140625-.179688-4.046875-.265626-8.015625-.265626-11.984375-.011718-8.851563.527344-17.695313 1.601563-26.480469 11.964844-101.636719 91.992187-178.320312 186.128906-178.320312 94.140625 0 174.167969 76.683593 186.140625 178.367187 1.070313 8.769531 1.601563 17.597656 1.59375 26.433594 0 3.96875-.085937 7.933593-.261718 11.902343-1.378907 26.714844-7.640626 52.957032-18.480469 77.414063-1.371094 3.082031-4.425781 5.0625-7.796875 5.0625zm0 0"/><path d="m238.828125 478.328125h-102.398437c-14.132813-.015625-25.585938-11.46875-25.601563-25.597656v-25.601563c.042969-37.683594 30.582031-68.222656 68.269531-68.265625h17.066406c37.683594.042969 68.222657 30.582031 68.265626 68.265625v25.601563c-.015626 14.128906-11.46875 25.582031-25.601563 25.597656zm-59.730469-102.398437c-28.265625.03125-51.171875 22.933593-51.203125 51.199218v25.601563c.003907 4.710937 3.824219 8.527343 8.535157 8.53125h102.398437c4.710937-.003907 8.53125-3.820313 8.535156-8.53125v-25.601563c-.03125-28.265625-22.9375-51.167968-51.199219-51.199218zm0 0"/><path d="m255.894531 444.195312h-136.53125c-4.714843 0-8.535156-3.820312-8.535156-8.53125 0-4.714843 3.820313-8.535156 8.535156-8.535156h136.53125c4.714844 0 8.535157 3.820313 8.535157 8.535156 0 4.710938-3.820313 8.53125-8.535157 8.53125zm0 0"/><path d="m375.363281 478.328125h-102.402343c-14.128907-.015625-25.582032-11.46875-25.597657-25.597656v-25.601563c.042969-37.683594 30.582031-68.222656 68.265625-68.265625h17.066406c37.683594.042969 68.222657 30.582031 68.265626 68.265625v25.601563c-.011719 14.128906-11.464844 25.582031-25.597657 25.597656zm-59.734375-102.398437c-28.261718.03125-51.167968 22.933593-51.199218 51.199218v25.601563c.003906 4.710937 3.820312 8.527343 8.53125 8.53125h102.402343c4.710938-.003907 8.527344-3.820313 8.53125-8.53125v-25.601563c-.03125-28.265625-22.933593-51.167968-51.199219-51.199218zm0 0"/><path d="m392.429688 444.195312h-136.535157c-4.710937 0-8.53125-3.820312-8.53125-8.53125 0-4.714843 3.820313-8.535156 8.53125-8.535156h136.535157c4.710937 0 8.53125 3.820313 8.53125 8.535156 0 4.710938-3.820313 8.53125-8.53125 8.53125zm0 0"/><path d="m204.695312 179.664062c-16.808593 0-25.597656-23.609374-25.597656-46.933593 0-23.328125 8.789063-46.933594 25.597656-46.933594 16.8125 0 25.601563 23.605469 25.601563 46.933594 0 23.324219-8.789063 46.933593-25.601563 46.933593zm-.167968-76.828124c-2.050782.785156-8.363282 11.152343-8.363282 29.894531 0 18.742187 6.3125 29.105469 8.703126 29.890625 2.046874-.785156 8.363281-11.148438 8.363281-29.890625 0-18.742188-6.316407-29.109375-8.703125-29.894531zm0 0"/><path d="m307.097656 179.664062c-16.8125 0-25.601562-23.609374-25.601562-46.933593 0-23.328125 8.789062-46.933594 25.601562-46.933594 16.808594 0 25.597656 23.605469 25.597656 46.933594 0 23.324219-8.789062 46.933593-25.597656 46.933593zm-.171875-76.828124c-2.046875.785156-8.363281 11.152343-8.363281 29.894531 0 18.742187 6.316406 29.105469 8.703125 29.890625 2.050781-.785156 8.363281-11.148438 8.363281-29.890625 0-18.742188-6.3125-29.109375-8.703125-29.894531zm0 0"/><path d="m81.792969 382.570312c-4.101563-.011718-8.191407-.5-12.179688-1.457031-14.367187-3.648437-27.039062-12.132812-35.882812-24.027343-19.628907-25.722657-17.921875-60.148438 3.796875-76.722657 21.730468-16.59375 55.371094-9.152343 75.007812 16.582031 9.136719 11.664063 13.980469 26.125 13.707032 40.941407-.074219 13.972656-6.519532 27.148437-17.507813 35.777343-7.746094 5.871094-17.222656 9.003907-26.941406 8.90625zm-17.183594-94.058593c-6.023437-.097657-11.90625 1.808593-16.726563 5.417969-14.246093 10.875-14.507812 34.558593-.585937 52.808593 6.453125 8.761719 15.722656 15.035157 26.257813 17.765625 8.515624 2.382813 17.652343.761719 24.824218-4.410156 6.882813-5.554688 10.859375-13.9375 10.804688-22.78125.140625-10.882812-3.464844-21.480469-10.214844-30.015625-7.980469-11.183594-20.640625-18.101563-34.359375-18.785156zm0 0"/><path d="m24.898438 302.429688-21.84375-55.292969c-8.59375-21.445313 1.554687-45.820313 22.828124-54.832031l44.550782-19.117188c2.167968-.910156 4.449218-1.527344 6.78125-1.832031l2.042968 16.949219c-.757812.105468-1.496093.308593-2.199218.609374l-44.441406 19.074219c-12.753907 5.398438-18.84375 20.015625-13.691407 32.875l21.847657 55.296875zm0 0"/><path d="m53.996094 283.230469-19.199219-48.632813c-1.695313-4.292968.332031-9.15625 4.570313-10.976562l34.21875-14.683594 6.734374 15.683594-26.609374 11.417968 16.160156 40.921876zm0 0"/><path d="m430.136719 382.503906c-9.714844.113282-19.195313-2.996094-26.957031-8.839844-10.984376-8.632812-17.429688-21.804687-17.5-35.777343-.175782-30.414063 20.203124-57.113281 49.585937-64.964844 13.496094-3.621094 27.90625-.882813 39.128906 7.441406 21.722657 16.574219 23.425781 51 3.796875 76.722657-11.242187 15.429687-28.972656 24.804687-48.054687 25.417968zm17.238281-93.964844c-2.75.007813-5.488281.339844-8.160156.980469-21.480469 5.976563-36.378906 25.496094-36.472656 47.792969-.054688 8.84375 3.921874 17.226562 10.796874 22.785156 14.253907 10.875 37.164063 4.875 51.089844-13.359375 13.921875-18.25 13.65625-41.933593-.582031-52.808593-4.808594-3.59375-10.671875-5.492188-16.675781-5.390626zm0 0"/><path d="m487.023438 302.429688-15.871094-6.265626 21.847656-55.292968c5.15625-12.863282-.933594-27.484375-13.699219-32.882813l-44.535156-19.117187c-.671875-.277344-1.375-.46875-2.09375-.566406l2.042969-16.949219c2.292968.300781 4.535156.898437 6.671875 1.785156l44.652343 19.164063c21.277344 9.011718 31.429688 33.394531 22.828126 54.84375zm0 0"/><path d="m457.925781 283.230469-15.871093-6.269531 16.15625-40.921876-26.601563-11.417968 6.730469-15.683594 34.21875 14.683594c4.242187 1.820312 6.265625 6.683594 4.574218 10.976562zm0 0"/><path d="m255.894531 333.261719c-24.15625 1.378906-47.636719-8.261719-63.851562-26.222657-30.117188-35.101562-21.75-92.125-21.378907-94.542968.488282-3.171875 2.714844-5.800782 5.761719-6.804688s6.398438-.214844 8.679688 2.046875c.449219.433594 24.355469 23.125 70.789062 23.125 46.652344 0 70.5625-22.902343 70.796875-23.132812 2.285156-2.246094 5.632813-3.023438 8.671875-2.019531 3.042969 1.003906 5.269531 3.621093 5.765625 6.785156.371094 2.417968 8.738282 59.441406-21.378906 94.542968-16.214844 17.960938-39.695312 27.601563-63.855469 26.222657zm-69.417969-103.441407c-.371093 17.5 1.882813 46.757813 18.558594 66.152344 13.039063 14.058594 31.726563 21.488282 50.859375 20.222656 19.15625 1.265626 37.863281-6.179687 50.90625-20.265624 16.699219-19.464844 18.933594-48.660157 18.535157-66.125-21.03125 12.324218-45.066407 18.597656-69.441407 18.125-24.363281.46875-48.386719-5.796876-69.417969-18.109376zm0 0"/><path d="m255.894531 290.597656c-27.203125-.183594-54.019531-6.511718-78.4375-18.507812-2.832031-1.269532-4.753906-3.972656-5.019531-7.0625-.265625-3.09375 1.167969-6.085938 3.746094-7.816406 2.578125-1.730469 5.890625-1.921876 8.648437-.507813 44.746094 22.335937 97.382813 22.335937 142.125 0 2.761719-1.414063 6.074219-1.222656 8.652344.507813 2.578125 1.730468 4.011719 4.722656 3.746094 7.816406-.265625 3.089844-2.1875 5.792968-5.023438 7.0625-24.417969 11.996094-51.230469 18.324218-78.4375 18.507812zm0 0"/><path d="m230.296875 188.195312c-2.265625.003907-4.4375-.898437-6.035156-2.5-5.601563-4.265624-12.535157-6.402343-19.566407-6.03125-7.078124-.382812-14.054687 1.792969-19.660156 6.132813-3.410156 3.191406-8.746094 3.082031-12.019531-.25-3.25-3.316406-3.230469-8.628906.046875-11.917969 8.746094-7.585937 20.066406-11.53125 31.632812-11.03125 11.566407-.5 22.886719 3.445313 31.632813 11.03125 2.441406 2.441406 3.171875 6.109375 1.851563 9.300782-1.320313 3.1875-4.433594 5.265624-7.882813 5.265624zm0 0"/><path d="m332.695312 188.195312c-2.261718.003907-4.433593-.898437-6.03125-2.5-5.601562-4.265624-12.535156-6.402343-19.566406-6.03125-7.078125-.382812-14.058594 1.792969-19.664062 6.132813-3.410156 3.191406-8.742188 3.082031-12.015625-.25-3.253907-3.316406-3.234375-8.628906.046875-11.917969 8.746094-7.585937 20.0625-11.53125 31.632812-11.03125 11.566406-.5 22.886719 3.445313 31.632813 11.03125 2.4375 2.441406 3.167969 6.109375 1.847656 9.300782-1.320313 3.1875-4.429687 5.265624-7.882813 5.265624zm0 0"/><path d="m172.554688 67.734375c4.644531 3.832031 9.664062 7.191406 14.980468 10.027344 4.996094 2.597656 10.21875 4.730469 15.605469 6.371093 5.460937 1.28125 10.902344 2.492188 16.703125 3.476563 2.871094.703125 5.871094.851563 8.917969 1.652344 3.242187.421875 6.441406 1.113281 9.566406 2.070312l.316406.101563c1.207031.402344 2.070313 1.464844 2.21875 2.730468.144531 1.261719-.453125 2.496094-1.539062 3.164063-6.140625 3.636719-13.058594 5.757813-20.183594 6.183594-14.828125.867187-29.328125-4.597657-39.898437-15.03125-5.292969-5.089844-9-11.605469-10.675782-18.753907-.199218-.945312.21875-1.914062 1.042969-2.421874.824219-.503907 1.875-.433594 2.628906.171874zm0 0"/><path d="m343.21875 69.726562c-1.671875 7.148438-5.378906 13.664063-10.671875 18.753907-10.570313 10.433593-25.070313 15.898437-39.898437 15.03125-7.125-.425781-14.042969-2.546875-20.1875-6.183594-1.078126-.667969-1.675782-1.902344-1.527344-3.164063.144531-1.257812 1.007812-2.324218 2.210937-2.726562l.316407-.101562c3.128906-.957032 6.328124-1.652344 9.570312-2.070313 3.046875-.800781 6.046875-.949219 8.917969-1.65625 5.804687-.980469 11.242187-2.1875 16.703125-3.472656 5.382812-1.640625 10.609375-3.777344 15.601562-6.375 5.320313-2.832031 10.335938-6.191407 14.984375-10.023438l.308594-.25c.75-.605469 1.800781-.675781 2.625-.171875.820313.503906 1.242187 1.46875 1.046875 2.410156zm0 0"/></svg>