<svg height="511pt" viewBox="0 -17 511.92518 511" width="511pt" xmlns="http://www.w3.org/2000/svg"><path d="m76.953125 216.78125-34.21875 14.679688 19.199219 48.640624-29.097656 19.199219-21.847657-55.296875c-6.863281-17.152344 1.253907-36.648437 18.261719-43.859375l44.542969-19.117187c1.421875-.59375 2.914062-.996094 4.4375-1.195313zm0 0" fill="#ff5722"/><path d="m434.972656 216.78125 34.214844 14.679688-19.199219 48.640624 29.101563 19.199219 21.84375-55.296875c6.863281-17.152344-1.25-36.648437-18.261719-43.859375l-44.542969-19.117187c-1.417968-.59375-2.914062-.996094-4.4375-1.195313zm0 0" fill="#ff5722"/><path d="m435.097656 205.261719c.929688 65.347656-29.976562 127.0625-82.859375 165.460937l-97.28125 72.535156-12.714843-9.644531-82.6875-62.890625c-16.207032-11.367187-30.496094-25.253906-42.324219-41.128906l-22.613281-38.65625c-10.3125-23.449219-16.296876-48.574219-17.664063-74.15625-.171875-3.839844-.257813-7.679688-.257813-11.519531-.007812-8.5.503907-16.992188 1.535157-25.429688 10.839843-91.816406 79.617187-163.753906 164.867187-170.238281 4.265625-.425781 8.53125-.597656 12.796875-.597656 98.988281 0 179.203125 87.894531 179.203125 196.265625zm0 0" fill="#fec108"/><path d="m409.496094 205.261719c.929687 65.347656-29.976563 127.0625-82.859375 165.460937l-84.394531 62.890625-82.6875-62.890625c-16.207032-11.367187-30.496094-25.253906-42.324219-41.128906l-22.613281-38.65625c-10.3125-23.449219-16.296876-48.574219-17.664063-74.15625-.171875-3.839844-.257813-7.679688-.257813-11.519531-.007812-8.5.503907-16.992188 1.535157-25.429688 10.839843-91.816406 79.617187-163.753906 164.867187-170.238281 93.011719 7.082031 166.398438 91.988281 166.398438 195.667969zm0 0" fill="#ffdc00"/><path d="m255.894531 427.128906v25.601563c-.027343 9.414062-7.652343 17.039062-17.066406 17.066406h-102.398437c-9.414063-.027344-17.039063-7.652344-17.066407-17.066406v-25.601563c-.070312-31.34375 24.195313-57.359375 55.464844-59.476562 1.417969-.171875 2.84375-.257813 4.269531-.257813h17.066406c15.84375-.011719 31.042969 6.28125 42.25 17.484375 11.203126 11.203125 17.492188 26.40625 17.480469 42.25zm0 0" fill="#283593"/><path d="m230.296875 427.128906v25.601563c-.027344 9.414062-7.652344 17.039062-17.066406 17.066406h-76.800781c-9.414063-.027344-17.039063-7.652344-17.066407-17.066406v-25.601563c-.070312-31.34375 24.195313-57.359375 55.464844-59.476562 31.273437 2.117187 55.535156 28.132812 55.46875 59.476562zm0 0" fill="#3f51b5"/><path d="m392.429688 427.128906v25.601563c-.027344 9.414062-7.652344 17.039062-17.066407 17.066406h-102.402343c-9.414063-.027344-17.039063-7.652344-17.066407-17.066406v-25.601563c-.066406-31.34375 24.195313-57.359375 55.46875-59.476562 1.414063-.171875 2.839844-.257813 4.265625-.257813h17.066406c15.847657-.011719 31.046876 6.28125 42.25 17.484375 11.207032 11.203125 17.496094 26.40625 17.484376 42.25zm0 0" fill="#283593"/><path d="m366.828125 427.128906v25.601563c-.027344 9.414062-7.652344 17.039062-17.066406 17.066406h-76.800781c-9.414063-.027344-17.039063-7.652344-17.066407-17.066406v-25.601563c-.066406-31.34375 24.195313-57.359375 55.46875-59.476562 31.269531 2.117187 55.535157 28.132812 55.464844 59.476562zm0 0" fill="#3f51b5"/><path d="m105.75 302.121094c-16.804688-22.019532-45.03125-28.722656-63.046875-14.972656-18.015625 13.746093-18.996094 42.742187-2.191406 64.761718 16.804687 22.019532 45.03125 28.722656 63.046875 14.972656s18.996094-42.746093 2.191406-64.761718zm0 0" fill="#ff9801"/><path d="m471.449219 351.949219c-11.785157 17.347656-33.222657 25.382812-53.503907 20.054687-3.453124-1.15625-6.683593-2.886718-9.558593-5.121094-18.003907-13.738281-19.027344-42.75-2.21875-64.765624 7.015625-9.398438 16.757812-16.402344 27.902343-20.054688 11.851563-4.179688 24.996094-2.265625 35.160157 5.121094 18.003906 13.738281 18.941406 42.664062 2.21875 64.765625zm0 0" fill="#f57c00"/><path d="m445.847656 351.949219c-7.03125 9.382812-16.769531 16.382812-27.902344 20.054687-3.453124-1.15625-6.683593-2.886718-9.558593-5.121094-18.003907-13.738281-19.027344-42.75-2.21875-64.765624 7.015625-9.398438 16.757812-16.402344 27.902343-20.054688 3.453126 1.15625 6.683594 2.886719 9.558594 5.121094 18.007813 13.738281 18.945313 42.664062 2.21875 64.765625zm0 0" fill="#ff9801"/><path d="m281.496094 290.597656h25.601562c4.707032-.015625 8.519532-3.828125 8.53125-8.535156v-17.066406c-.007812-23.5625-19.105468-42.660156-42.667968-42.667969h-34.132813c-23.558594.007813-42.65625 19.105469-42.664063 42.667969v17.066406c.011719 4.707031 3.824219 8.519531 8.53125 8.535156zm0 0" fill="#bb193b"/><path d="m281.496094 282.0625v42.667969c0 14.136719-11.460938 25.597656-25.601563 25.597656-14.136719 0-25.597656-11.460937-25.597656-25.597656v-42.667969c.027344-9.414062 7.652344-17.039062 17.066406-17.066406h17.066407c9.414062.027344 17.039062 7.652344 17.066406 17.066406zm0 0" fill="#ad1457"/><path d="m281.496094 282.0625v25.601562c0 14.136719-11.460938 25.597657-25.601563 25.597657-14.136719 0-25.597656-11.460938-25.597656-25.597657v-25.601562c.027344-9.414062 7.652344-17.039062 17.066406-17.066406h17.066407c9.414062.027344 17.039062 7.652344 17.066406 17.066406zm0 0" fill="#e91e63"/><path d="m159.546875 379.257812c-1.742187-.003906-3.441406-.539062-4.871094-1.535156-16.957031-11.882812-31.90625-26.402344-44.269531-43.007812-1.910156-2.433594-2.351562-5.710938-1.15625-8.566406 1.195312-2.851563 3.839844-4.835938 6.914062-5.179688 3.074219-.347656 6.09375.996094 7.894532 3.511719 11.28125 15.148437 24.914062 28.394531 40.378906 39.242187 3.054688 2.132813 4.375 6.003906 3.253906 9.558594-1.117187 3.554688-4.414062 5.972656-8.140625 5.972656zm0 0"/><path d="m352.246094 379.257812c-3.726563.003907-7.027344-2.414062-8.144532-5.96875-1.121093-3.558593.195313-7.429687 3.253907-9.5625 15.570312-10.875 29.257812-24.230468 40.507812-39.53125 2.796875-3.796874 8.140625-4.601562 11.933594-1.804687 3.796875 2.796875 4.601563 8.140625 1.804687 11.9375-12.359374 16.796875-27.386718 31.457031-44.484374 43.398437-1.429688.996094-3.128907 1.53125-4.871094 1.53125zm0 0"/><path d="m417.089844 299.640625c-1.195313.003906-2.375-.25-3.464844-.742187-4.304688-1.914063-6.242188-6.957032-4.324219-11.261719 9.984375-22.535157 15.753907-46.703125 17.023438-71.316407.160156-3.625.238281-7.339843.238281-11.058593.007812-8.148438-.484375-16.292969-1.476562-24.382813-10.964844-93.148437-83.703126-163.351562-169.191407-163.351562-85.484375 0-158.222656 70.203125-169.1875 163.300781-.992187 8.109375-1.484375 16.265625-1.476562 24.433594 0 3.71875.082031 7.429687.246093 11.132812 1.300782 24.527344 7.042969 48.617188 16.949219 71.09375 1.230469 2.789063.882813 6.023438-.917969 8.484375-1.796874 2.464844-4.773437 3.777344-7.808593 3.453125-3.03125-.328125-5.65625-2.25-6.890625-5.039062-10.742188-24.390625-16.96875-50.527344-18.378906-77.140625-.179688-4.046875-.265626-8.015625-.265626-11.984375-.011718-8.851563.527344-17.695313 1.601563-26.480469 11.964844-101.636719 91.992187-178.320312 186.128906-178.320312 94.140625 0 174.167969 76.683593 186.140625 178.367187 1.070313 8.769531 1.601563 17.597656 1.59375 26.433594 0 3.96875-.085937 7.933593-.261718 11.902343-1.378907 26.714844-7.640626 52.957032-18.480469 77.414063-1.371094 3.082031-4.425781 5.0625-7.796875 5.0625zm0 0"/><path d="m238.828125 478.328125h-102.398437c-14.132813-.015625-25.585938-11.46875-25.601563-25.597656v-25.601563c.042969-37.683594 30.582031-68.222656 68.269531-68.265625h17.066406c37.683594.042969 68.222657 30.582031 68.265626 68.265625v25.601563c-.015626 14.128906-11.46875 25.582031-25.601563 25.597656zm-59.730469-102.398437c-28.265625.03125-51.171875 22.933593-51.203125 51.199218v25.601563c.003907 4.710937 3.824219 8.527343 8.535157 8.53125h102.398437c4.710937-.003907 8.53125-3.820313 8.535156-8.53125v-25.601563c-.03125-28.265625-22.9375-51.167968-51.199219-51.199218zm0 0"/><path d="m255.894531 444.195312h-136.53125c-4.714843 0-8.535156-3.820312-8.535156-8.53125 0-4.714843 3.820313-8.535156 8.535156-8.535156h136.53125c4.714844 0 8.535157 3.820313 8.535157 8.535156 0 4.710938-3.820313 8.53125-8.535157 8.53125zm0 0"/><path d="m375.363281 478.328125h-102.402343c-14.128907-.015625-25.582032-11.46875-25.597657-25.597656v-25.601563c.042969-37.683594 30.582031-68.222656 68.265625-68.265625h17.066406c37.683594.042969 68.222657 30.582031 68.265626 68.265625v25.601563c-.011719 14.128906-11.464844 25.582031-25.597657 25.597656zm-59.734375-102.398437c-28.261718.03125-51.167968 22.933593-51.199218 51.199218v25.601563c.003906 4.710937 3.820312 8.527343 8.53125 8.53125h102.402343c4.710938-.003907 8.527344-3.820313 8.53125-8.53125v-25.601563c-.03125-28.265625-22.933593-51.167968-51.199219-51.199218zm0 0"/><path d="m392.429688 444.195312h-136.535157c-4.710937 0-8.53125-3.820312-8.53125-8.53125 0-4.714843 3.820313-8.535156 8.53125-8.535156h136.535157c4.710937 0 8.53125 3.820313 8.53125 8.535156 0 4.710938-3.820313 8.53125-8.53125 8.53125zm0 0"/><path d="m81.792969 382.570312c-4.101563-.011718-8.191407-.5-12.179688-1.457031-14.367187-3.648437-27.039062-12.132812-35.882812-24.027343-19.628907-25.722657-17.921875-60.148438 3.796875-76.722657 21.722656-16.59375 55.378906-9.152343 75.007812 16.582031 9.136719 11.664063 13.980469 26.125 13.707032 40.941407-.074219 13.972656-6.519532 27.148437-17.507813 35.777343-7.746094 5.871094-17.222656 9.003907-26.941406 8.90625zm-17.183594-94.058593c-6.023437-.097657-11.90625 1.808593-16.726563 5.417969-14.246093 10.875-14.507812 34.558593-.585937 52.808593 6.453125 8.761719 15.722656 15.035157 26.257813 17.765625 8.515624 2.382813 17.652343.761719 24.824218-4.410156 6.882813-5.554688 10.859375-13.9375 10.804688-22.78125.140625-10.882812-3.464844-21.480469-10.214844-30.015625-7.980469-11.183594-20.640625-18.101563-34.359375-18.785156zm0 0"/><path d="m24.898438 302.429688-21.84375-55.292969c-8.59375-21.445313 1.554687-45.820313 22.828124-54.832031l44.550782-19.117188c2.167968-.910156 4.449218-1.527344 6.78125-1.832031l2.042968 16.949219c-.757812.105468-1.496093.308593-2.199218.609374l-44.441406 19.074219c-12.753907 5.398438-18.84375 20.015625-13.691407 32.875l21.847657 55.296875zm0 0"/><path d="m53.996094 283.230469-19.199219-48.632813c-1.695313-4.292968.332031-9.15625 4.570313-10.976562l34.21875-14.683594 6.734374 15.683594-26.609374 11.417968 16.160156 40.921876zm0 0"/><path d="m430.136719 382.503906c-9.714844.113282-19.195313-2.996094-26.957031-8.839844-10.984376-8.632812-17.429688-21.804687-17.5-35.777343-.175782-30.414063 20.203124-57.113281 49.585937-64.964844 13.496094-3.621094 27.90625-.882813 39.128906 7.441406 21.722657 16.574219 23.425781 51 3.796875 76.722657-11.242187 15.429687-28.972656 24.804687-48.054687 25.417968zm17.238281-93.964844c-2.75.007813-5.488281.339844-8.160156.980469-21.480469 5.976563-36.378906 25.496094-36.472656 47.792969-.054688 8.84375 3.921874 17.226562 10.796874 22.785156 14.25 10.875 37.167969 4.875 51.089844-13.359375 13.921875-18.25 13.65625-41.933593-.582031-52.808593-4.808594-3.59375-10.671875-5.492188-16.675781-5.390626zm0 0"/><path d="m487.023438 302.429688-15.871094-6.265626 21.847656-55.292968c5.15625-12.863282-.933594-27.484375-13.699219-32.882813l-44.535156-19.117187c-.671875-.277344-1.375-.46875-2.09375-.566406l2.042969-16.949219c2.292968.300781 4.535156.898437 6.671875 1.785156l44.652343 19.164063c21.277344 9.011718 31.429688 33.394531 22.828126 54.84375zm0 0"/><path d="m457.925781 283.230469-15.871093-6.269531 16.15625-40.921876-26.601563-11.417968 6.730469-15.683594 34.21875 14.683594c4.242187 1.820312 6.265625 6.683594 4.574218 10.976562zm0 0"/><path d="m228.640625 70.019531c-9.644531-3.753906-20.175781-4.605469-30.300781-2.460937-4.835938 1.554687-9.34375 3.976562-13.308594 7.152344-2.183594 1.535156-3.984375 3.636718-6.207031 5.355468-1.953125 2.019532-3.78125 4.183594-5.945313 6.203125l-.253906.234375c-.9375.875-2.351562.980469-3.40625.253906-1.050781-.726562-1.457031-2.085937-.976562-3.269531 1.167968-2.871093 2.613281-5.636719 4.035156-8.472656 1.703125-2.730469 3.621094-5.320313 5.734375-7.746094 4.535156-5.070312 10.277343-8.921875 16.691406-11.195312 6.59375-2.296875 13.726563-2.542969 20.460937-.707031 6.476563 1.691406 12.316407 5.253906 16.78125 10.238281.820313.945312.921876 2.316406.242188 3.363281-.675781 1.050781-1.96875 1.523438-3.164062 1.164062zm0 0"/><path d="m279.84375 65.609375c4.464844-4.988281 10.304688-8.550781 16.78125-10.242187 6.734375-1.835938 13.867188-1.589844 20.460938.707031 6.414062 2.273437 12.152343 6.125 16.691406 11.195312 2.113281 2.425781 4.03125 5.019531 5.734375 7.746094 1.421875 2.835937 2.867187 5.601563 4.035156 8.472656.480469 1.183594.074219 2.542969-.976563 3.269531-1.054687.726563-2.46875.621094-3.402343-.25l-.257813-.238281c-2.164062-2.015625-3.988281-4.179687-5.941406-6.203125-2.21875-1.714844-4.027344-3.816406-6.207031-5.355468-3.964844-3.175782-8.476563-5.597657-13.3125-7.152344-10.125-2.144532-20.65625-1.289063-30.300781 2.460937l-.378907.113281c-1.195312.363282-2.488281-.109374-3.167969-1.160156-.679687-1.046875-.582031-2.417968.238282-3.363281zm0 0"/><path d="m179.097656 196.730469c-3.332031-.003907-6.355468-1.945313-7.746094-4.96875-1.390624-3.023438-.894531-6.582031 1.269532-9.113281l51.199218-59.734376c3.113282-3.375 8.335938-3.683593 11.824219-.695312 3.488281 2.984375 3.988281 8.195312 1.132813 11.789062l-51.203125 59.734376c-1.617188 1.898437-3.984375 2.988281-6.476563 2.988281zm0 0"/><path d="m230.300781 196.730469c-2.496093.003906-4.867187-1.089844-6.484375-2.988281l-51.203125-59.734376c-2.898437-3.589843-2.417969-8.839843 1.089844-11.84375 3.511719-3.003906 8.769531-2.667968 11.871094.75l51.203125 59.734376c2.164062 2.53125 2.65625 6.089843 1.265625 9.113281-1.390625 3.023437-4.414063 4.964843-7.742188 4.96875zm0 0"/><path d="m281.496094 196.730469c-3.328125-.003907-6.351563-1.945313-7.742188-4.96875-1.390625-3.023438-.898437-6.582031 1.265625-9.113281l51.203125-59.734376c3.109375-3.375 8.335938-3.683593 11.824219-.695312 3.484375 2.984375 3.984375 8.195312 1.128906 11.789062l-51.199219 59.734376c-1.617187 1.898437-3.988281 2.988281-6.480468 2.988281zm0 0"/><path d="m332.699219 196.730469c-2.492188.003906-4.867188-1.089844-6.484375-2.988281l-51.199219-59.734376c-2.902344-3.589843-2.417969-8.839843 1.089844-11.84375 3.507812-3.003906 8.769531-2.667968 11.871093.75l51.199219 59.734376c2.164063 2.53125 2.660157 6.089843 1.269531 9.113281-1.394531 3.023437-4.414062 4.964843-7.746093 4.96875zm0 0"/><path d="m307.097656 299.128906h-25.601562c-4.710938 0-8.535156-3.820312-8.535156-8.53125 0-4.714844 3.824218-8.535156 8.535156-8.535156h25.601562v-17.066406c-.019531-18.84375-15.292968-34.113282-34.136718-34.132813h-34.132813c-18.839844.019531-34.113281 15.289063-34.132813 34.132813v17.066406h25.601563c4.710937 0 8.53125 3.820312 8.53125 8.535156 0 4.710938-3.820313 8.53125-8.53125 8.53125h-25.601563c-9.421874-.011718-17.054687-7.644531-17.066406-17.066406v-17.066406c.03125-28.265625 22.9375-51.167969 51.199219-51.199219h34.132813c28.265624.03125 51.171874 22.933594 51.203124 51.199219v17.066406c-.011718 9.421875-7.648437 17.054688-17.066406 17.066406zm0 0"/><path d="m255.894531 358.863281c-18.839843-.019531-34.113281-15.289062-34.132812-34.132812v-42.667969c.015625-14.132812 11.46875-25.585938 25.601562-25.601562h17.066407c14.132812.015624 25.585937 11.46875 25.601562 25.601562v42.667969c-.023438 18.84375-15.292969 34.113281-34.136719 34.132812zm-8.53125-85.335937c-4.710937.007812-8.53125 3.824218-8.535156 8.535156v42.667969c0 9.425781 7.640625 17.066406 17.066406 17.066406s17.066407-7.640625 17.066407-17.066406v-42.667969c-.003907-4.710938-3.820313-8.527344-8.53125-8.535156zm0 0"/></svg>