<svg height="511pt" viewBox="0 -17 511.92518 511" width="511pt" xmlns="http://www.w3.org/2000/svg"><path d="m76.953125 216.78125-34.21875 14.679688 19.199219 48.640624-29.097656 19.199219-21.847657-55.296875c-6.863281-17.152344 1.253907-36.648437 18.261719-43.859375l44.542969-19.117187c1.421875-.59375 2.914062-.996094 4.4375-1.195313zm0 0" fill="#ff5722"/><path d="m434.972656 216.78125 34.214844 14.679688-19.199219 48.640624 29.101563 19.199219 21.84375-55.296875c6.863281-17.152344-1.25-36.648437-18.261719-43.859375l-44.542969-19.117187c-1.417968-.59375-2.914062-.996094-4.4375-1.195313zm0 0" fill="#ff5722"/><path d="m435.097656 205.261719c0 3.074219-.085937 6.058593-.171875 9.046875-1.441406 38.34375-13.496093 75.53125-34.816406 107.433594-3.226563 4.839843-6.703125 9.511718-10.410156 13.996093-10.792969 13.351563-23.402344 25.128907-37.460938 34.984375l-97.28125 72.535156-12.714843-9.644531-82.6875-62.890625c-14.105469-9.863281-26.746094-21.667968-37.546876-35.070312-1.621093-1.964844-3.242187-4.011719-4.777343-6.058594l-4.863281-8.363281-17.75-30.292969c-10.3125-23.449219-16.296876-48.574219-17.664063-74.15625 0-.851562-.085937-1.621094-.085937-2.472656-.085938-2.988282-.171876-6.058594-.171876-9.046875 0-2.816407.085938-5.714844.171876-8.53125.253906-5.71875.683593-11.351563 1.363281-16.898438 10.839843-91.816406 79.617187-163.839843 164.949219-170.238281 4.226562-.414062 8.472656-.613281 12.714843-.597656 96.34375 0 174.933594 83.285156 178.945313 187.734375.171875 2.816406.257812 5.628906.257812 8.53125zm0 0" fill="#fec108"/><path d="m409.496094 205.261719c0 3.074219-.085938 6.058593-.171875 9.046875-1.441407 38.34375-13.492188 75.53125-34.816407 107.433594-3.226562 4.839843-6.703124 9.511718-10.410156 13.996093-10.792968 13.351563-23.402344 25.128907-37.460937 34.984375l-84.394531 62.890625-82.6875-62.890625c-14.105469-9.863281-26.746094-21.667968-37.546876-35.070312-1.621093-1.964844-3.242187-4.011719-4.777343-6.058594l-4.863281-8.363281-17.75-30.292969c-10.3125-23.449219-16.296876-48.574219-17.664063-74.15625 0-.851562-.085937-1.621094-.085937-2.472656-.085938-2.988282-.171876-6.058594-.171876-9.046875 0-2.816407.085938-5.714844.171876-8.53125.253906-5.71875.683593-11.351563 1.363281-16.898438 10.839843-91.816406 79.617187-163.839843 164.949219-170.238281 90.371093 6.910156 162.21875 87.378906 166.058593 187.136719.171875 2.816406.257813 5.628906.257813 8.53125zm0 0" fill="#ffdc00"/><path d="m255.894531 427.128906v25.601563c-.027343 9.414062-7.652343 17.039062-17.066406 17.066406h-102.398437c-9.414063-.027344-17.039063-7.652344-17.066407-17.066406v-25.601563c-.070312-31.34375 24.195313-57.359375 55.464844-59.476562 1.417969-.171875 2.84375-.257813 4.269531-.257813h17.066406c15.84375-.011719 31.042969 6.28125 42.25 17.484375 11.203126 11.203125 17.492188 26.40625 17.480469 42.25zm0 0" fill="#283593"/><path d="m230.296875 427.128906v25.601563c-.027344 9.414062-7.652344 17.039062-17.066406 17.066406h-76.800781c-9.414063-.027344-17.039063-7.652344-17.066407-17.066406v-25.601563c-.070312-31.34375 24.195313-57.359375 55.464844-59.476562 31.273437 2.117187 55.535156 28.132812 55.46875 59.476562zm0 0" fill="#3f51b5"/><path d="m392.429688 427.128906v25.601563c-.027344 9.414062-7.652344 17.039062-17.066407 17.066406h-102.402343c-9.414063-.027344-17.039063-7.652344-17.066407-17.066406v-25.601563c-.066406-31.34375 24.195313-57.359375 55.46875-59.476562 1.414063-.171875 2.839844-.257813 4.265625-.257813h17.066406c15.847657-.011719 31.046876 6.28125 42.25 17.484375 11.207032 11.203125 17.496094 26.40625 17.484376 42.25zm0 0" fill="#283593"/><path d="m366.828125 427.128906v25.601563c-.027344 9.414062-7.652344 17.039062-17.066406 17.066406h-76.800781c-9.414063-.027344-17.039063-7.652344-17.066407-17.066406v-25.601563c-.066406-31.34375 24.195313-57.359375 55.46875-59.476562 31.269531 2.117187 55.535157 28.132812 55.464844 59.476562zm0 0" fill="#3f51b5"/><path d="m221.761719 132.730469c0-21.207031-7.640625-38.402344-17.066407-38.402344-9.425781 0-17.066406 17.195313-17.066406 38.402344s7.640625 38.398437 17.066406 38.398437c9.425782 0 17.066407-17.191406 17.066407-38.398437zm0 0" fill="#3f51b5"/><path d="m213.230469 111.394531c0-9.425781-3.820313-17.066406-8.535157-17.066406-4.710937 0-8.53125 7.640625-8.53125 17.066406s3.820313 17.066407 8.53125 17.066407c4.714844 0 8.535157-7.640626 8.535157-17.066407zm0 0" fill="#f5f5f5"/><path d="m324.164062 132.730469c0-21.207031-7.640624-38.402344-17.066406-38.402344-9.425781 0-17.066406 17.195313-17.066406 38.402344s7.640625 38.398437 17.066406 38.398437c9.425782 0 17.066406-17.191406 17.066406-38.398437zm0 0" fill="#3f51b5"/><path d="m315.628906 111.394531c0-9.425781-3.820312-17.066406-8.53125-17.066406-4.714844 0-8.535156 7.640625-8.535156 17.066406s3.820312 17.066407 8.535156 17.066407c4.710938 0 8.53125-7.640626 8.53125-17.066407zm0 0" fill="#f5f5f5"/><path d="m187.628906 222.328125h136.535156c4.710938 0 8.53125 3.820313 8.53125 8.535156v85.332031c0 4.714844-3.820312 8.535157-8.53125 8.535157h-136.535156c-4.710937 0-8.53125-3.820313-8.53125-8.535157v-85.332031c0-4.714843 3.820313-8.535156 8.53125-8.535156zm0 0" fill="#f5f5f5"/><path d="m105.75 302.121094c-16.804688-22.019532-45.03125-28.722656-63.046875-14.972656-18.015625 13.746093-18.996094 42.742187-2.191406 64.761718 16.804687 22.019532 45.03125 28.722656 63.046875 14.972656s18.996094-42.746093 2.191406-64.761718zm0 0" fill="#ff9801"/><path d="m471.449219 351.949219c-11.785157 17.347656-33.222657 25.382812-53.503907 20.054687-3.453124-1.15625-6.683593-2.886718-9.558593-5.121094-18.003907-13.738281-19.027344-42.75-2.21875-64.765624 7.015625-9.398438 16.757812-16.402344 27.902343-20.054688 11.851563-4.179688 24.996094-2.265625 35.160157 5.121094 18.003906 13.738281 18.941406 42.664062 2.21875 64.765625zm0 0" fill="#f57c00"/><path d="m445.847656 351.949219c-7.03125 9.382812-16.769531 16.382812-27.902344 20.054687-3.453124-1.15625-6.683593-2.886718-9.558593-5.121094-18.003907-13.738281-19.027344-42.75-2.21875-64.765624 7.015625-9.398438 16.757812-16.402344 27.902343-20.054688 3.453126 1.15625 6.683594 2.886719 9.558594 5.121094 18.007813 13.738281 18.945313 42.664062 2.21875 64.765625zm0 0" fill="#ff9801"/><path d="m159.546875 379.257812c-1.742187-.003906-3.441406-.539062-4.871094-1.535156-16.957031-11.882812-31.90625-26.402344-44.269531-43.007812-1.910156-2.433594-2.351562-5.710938-1.15625-8.566406 1.195312-2.851563 3.839844-4.835938 6.914062-5.179688 3.074219-.347656 6.09375.996094 7.894532 3.511719 11.28125 15.148437 24.914062 28.394531 40.378906 39.242187 3.054688 2.132813 4.375 6.003906 3.253906 9.558594-1.117187 3.554688-4.414062 5.972656-8.140625 5.972656zm0 0"/><path d="m352.246094 379.257812c-3.726563.003907-7.027344-2.414062-8.144532-5.96875-1.121093-3.558593.195313-7.429687 3.253907-9.5625 15.570312-10.875 29.257812-24.230468 40.507812-39.53125 2.796875-3.796874 8.140625-4.601562 11.933594-1.804687 3.796875 2.796875 4.601563 8.140625 1.804687 11.9375-12.359374 16.796875-27.386718 31.457031-44.484374 43.398437-1.429688.996094-3.128907 1.53125-4.871094 1.53125zm0 0"/><path d="m417.089844 299.640625c-1.195313.003906-2.375-.25-3.464844-.742187-4.304688-1.914063-6.242188-6.957032-4.324219-11.261719 9.984375-22.535157 15.753907-46.703125 17.023438-71.316407.160156-3.625.238281-7.339843.238281-11.058593.007812-8.148438-.484375-16.292969-1.476562-24.382813-10.964844-93.148437-83.703126-163.351562-169.191407-163.351562-85.484375 0-158.222656 70.203125-169.1875 163.300781-.992187 8.109375-1.484375 16.265625-1.476562 24.433594 0 3.71875.082031 7.429687.246093 11.132812 1.300782 24.527344 7.042969 48.617188 16.949219 71.09375 1.230469 2.789063.882813 6.023438-.917969 8.484375-1.796874 2.464844-4.773437 3.777344-7.808593 3.453125-3.03125-.328125-5.65625-2.25-6.890625-5.039062-10.742188-24.390625-16.96875-50.527344-18.378906-77.140625-.179688-4.046875-.265626-8.015625-.265626-11.984375-.011718-8.851563.527344-17.695313 1.601563-26.480469 11.964844-101.636719 91.992187-178.320312 186.128906-178.320312 94.140625 0 174.167969 76.683593 186.140625 178.367187 1.070313 8.769531 1.601563 17.597656 1.59375 26.433594 0 3.96875-.085937 7.933593-.261718 11.902343-1.378907 26.714844-7.640626 52.957032-18.480469 77.414063-1.371094 3.082031-4.425781 5.0625-7.796875 5.0625zm0 0"/><path d="m238.828125 478.328125h-102.398437c-14.132813-.015625-25.585938-11.46875-25.601563-25.597656v-25.601563c.042969-37.683594 30.582031-68.222656 68.269531-68.265625h17.066406c37.683594.042969 68.222657 30.582031 68.265626 68.265625v25.601563c-.015626 14.128906-11.46875 25.582031-25.601563 25.597656zm-59.730469-102.398437c-28.265625.03125-51.171875 22.933593-51.203125 51.199218v25.601563c.003907 4.710937 3.824219 8.527343 8.535157 8.53125h102.398437c4.710937-.003907 8.53125-3.820313 8.535156-8.53125v-25.601563c-.03125-28.265625-22.9375-51.167968-51.199219-51.199218zm0 0"/><path d="m255.894531 444.195312h-136.53125c-4.714843 0-8.535156-3.820312-8.535156-8.53125 0-4.714843 3.820313-8.535156 8.535156-8.535156h136.53125c4.714844 0 8.535157 3.820313 8.535157 8.535156 0 4.710938-3.820313 8.53125-8.535157 8.53125zm0 0"/><path d="m375.363281 478.328125h-102.402343c-14.128907-.015625-25.582032-11.46875-25.597657-25.597656v-25.601563c.042969-37.683594 30.582031-68.222656 68.265625-68.265625h17.066406c37.683594.042969 68.222657 30.582031 68.265626 68.265625v25.601563c-.011719 14.128906-11.464844 25.582031-25.597657 25.597656zm-59.734375-102.398437c-28.261718.03125-51.167968 22.933593-51.199218 51.199218v25.601563c.003906 4.710937 3.820312 8.527343 8.53125 8.53125h102.402343c4.710938-.003907 8.527344-3.820313 8.53125-8.53125v-25.601563c-.03125-28.265625-22.933593-51.167968-51.199219-51.199218zm0 0"/><path d="m392.429688 444.195312h-136.535157c-4.710937 0-8.53125-3.820312-8.53125-8.53125 0-4.714843 3.820313-8.535156 8.53125-8.535156h136.535157c4.710937 0 8.53125 3.820313 8.53125 8.535156 0 4.710938-3.820313 8.53125-8.53125 8.53125zm0 0"/><path d="m81.792969 382.570312c-4.101563-.011718-8.191407-.5-12.179688-1.457031-14.367187-3.648437-27.039062-12.132812-35.882812-24.027343-19.628907-25.722657-17.921875-60.148438 3.796875-76.722657 21.726562-16.59375 55.371094-9.152343 75.007812 16.582031 9.136719 11.664063 13.980469 26.125 13.707032 40.941407-.074219 13.972656-6.519532 27.148437-17.507813 35.777343-7.746094 5.871094-17.222656 9.003907-26.941406 8.90625zm-17.183594-94.058593c-6.023437-.097657-11.90625 1.808593-16.726563 5.417969-14.246093 10.875-14.507812 34.558593-.585937 52.808593 6.453125 8.761719 15.722656 15.035157 26.257813 17.765625 8.515624 2.382813 17.652343.761719 24.824218-4.410156 6.882813-5.554688 10.859375-13.9375 10.804688-22.78125.140625-10.882812-3.464844-21.480469-10.214844-30.015625-7.980469-11.183594-20.640625-18.101563-34.359375-18.785156zm0 0"/><path d="m24.898438 302.429688-21.84375-55.292969c-8.59375-21.445313 1.554687-45.820313 22.828124-54.832031l44.550782-19.117188c2.167968-.910156 4.449218-1.527344 6.78125-1.832031l2.042968 16.949219c-.757812.105468-1.496093.308593-2.199218.609374l-44.441406 19.074219c-12.753907 5.398438-18.84375 20.015625-13.691407 32.875l21.847657 55.296875zm0 0"/><path d="m53.996094 283.230469-19.199219-48.632813c-1.695313-4.292968.332031-9.15625 4.570313-10.976562l34.21875-14.683594 6.734374 15.683594-26.609374 11.417968 16.160156 40.921876zm0 0"/><path d="m430.136719 382.503906c-9.714844.113282-19.195313-2.996094-26.957031-8.839844-10.984376-8.632812-17.429688-21.804687-17.5-35.777343-.175782-30.414063 20.203124-57.113281 49.585937-64.964844 13.496094-3.621094 27.90625-.882813 39.128906 7.441406 21.722657 16.574219 23.425781 51 3.796875 76.722657-11.242187 15.429687-28.972656 24.804687-48.054687 25.417968zm17.238281-93.964844c-2.75.007813-5.488281.339844-8.160156.980469-21.480469 5.976563-36.378906 25.496094-36.472656 47.792969-.054688 8.84375 3.921874 17.226562 10.796874 22.785156 14.253907 10.875 37.167969 4.875 51.089844-13.359375 13.921875-18.25 13.65625-41.933593-.582031-52.808593-4.808594-3.59375-10.671875-5.492188-16.675781-5.390626zm0 0"/><path d="m487.023438 302.429688-15.871094-6.265626 21.847656-55.292968c5.15625-12.863282-.933594-27.484375-13.699219-32.882813l-44.535156-19.117187c-.671875-.277344-1.375-.46875-2.09375-.566406l2.042969-16.949219c2.292968.300781 4.535156.898437 6.671875 1.785156l44.652343 19.164063c21.277344 9.011718 31.429688 33.394531 22.828126 54.84375zm0 0"/><path d="m457.925781 283.230469-15.871093-6.269531 16.15625-40.921876-26.601563-11.417968 6.730469-15.683594 34.21875 14.683594c4.242187 1.820312 6.265625 6.683594 4.574218 10.976562zm0 0"/><path d="m204.695312 179.664062c-16.808593 0-25.597656-23.609374-25.597656-46.933593 0-23.328125 8.789063-46.933594 25.597656-46.933594 16.8125 0 25.601563 23.605469 25.601563 46.933594 0 23.324219-8.789063 46.933593-25.601563 46.933593zm-.167968-76.828124c-2.050782.785156-8.363282 11.152343-8.363282 29.894531 0 18.742187 6.3125 29.105469 8.703126 29.890625 2.046874-.785156 8.363281-11.148438 8.363281-29.890625 0-18.742188-6.316407-29.109375-8.703125-29.894531zm0 0"/><path d="m307.097656 179.664062c-16.8125 0-25.601562-23.609374-25.601562-46.933593 0-23.328125 8.789062-46.933594 25.601562-46.933594 16.808594 0 25.597656 23.605469 25.597656 46.933594 0 23.324219-8.789062 46.933593-25.597656 46.933593zm-.171875-76.828124c-2.046875.785156-8.363281 11.152343-8.363281 29.894531 0 18.742187 6.316406 29.105469 8.703125 29.890625 2.050781-.785156 8.363281-11.148438 8.363281-29.890625 0-18.742188-6.3125-29.109375-8.703125-29.894531zm0 0"/><path d="m230.296875 188.195312c-2.265625.003907-4.4375-.898437-6.035156-2.5-5.601563-4.265624-12.535157-6.402343-19.566407-6.03125-7.078124-.382812-14.054687 1.792969-19.660156 6.132813-3.410156 3.191406-8.746094 3.082031-12.019531-.25-3.25-3.316406-3.230469-8.628906.046875-11.917969 8.746094-7.585937 20.066406-11.53125 31.632812-11.03125 11.566407-.5 22.886719 3.445313 31.632813 11.03125 2.441406 2.441406 3.171875 6.109375 1.851563 9.300782-1.320313 3.1875-4.433594 5.265624-7.882813 5.265624zm0 0"/><path d="m332.695312 188.195312c-2.261718.003907-4.433593-.898437-6.03125-2.5-5.601562-4.265624-12.535156-6.402343-19.566406-6.03125-7.078125-.382812-14.058594 1.792969-19.664062 6.132813-3.410156 3.191406-8.742188 3.082031-12.015625-.25-3.253907-3.316406-3.234375-8.628906.046875-11.917969 8.746094-7.585937 20.0625-11.53125 31.632812-11.03125 11.566406-.5 22.886719 3.445313 31.632813 11.03125 2.4375 2.441406 3.167969 6.109375 1.847656 9.300782-1.320313 3.1875-4.429687 5.265624-7.882813 5.265624zm0 0"/><path d="m163.683594 83.589844c9.644531 3.75 20.175781 4.605468 30.300781 2.460937 4.835937-1.554687 9.347656-3.976562 13.3125-7.152343 2.179687-1.535157 3.984375-3.636719 6.207031-5.359376 1.949219-2.015624 3.777344-4.179687 5.941406-6.199218l.257813-.238282c.933594-.871093 2.347656-.976562 3.402344-.25 1.050781.726563 1.457031 2.085938.976562 3.269532-1.164062 2.871094-2.613281 5.636718-4.035156 8.472656-1.703125 2.726562-3.617187 5.316406-5.730469 7.746094-4.539062 5.070312-10.277344 8.921875-16.695312 11.195312-6.589844 2.296875-13.726563 2.542969-20.460938.707032-6.476562-1.691407-12.3125-5.253907-16.78125-10.242188-.816406-.941406-.914062-2.308594-.234375-3.355469.675781-1.046875 1.960938-1.523437 3.15625-1.164062zm0 0"/><path d="m351.417969 88c-4.46875 4.988281-10.304688 8.546875-16.78125 10.242188-6.738281 1.835937-13.871094 1.585937-20.464844-.707032-6.414063-2.277344-12.152344-6.125-16.691406-11.199218-2.113281-2.425782-4.027344-5.015626-5.730469-7.746094-1.425781-2.832032-2.871094-5.601563-4.039062-8.46875-.480469-1.1875-.074219-2.546875.976562-3.269532 1.054688-.726562 2.46875-.625 3.40625.246094l.253906.238282c2.164063 2.019531 3.992188 4.183593 5.945313 6.203124 2.21875 1.71875 4.023437 3.820313 6.203125 5.359376 3.964844 3.171874 8.476562 5.597656 13.3125 7.152343 10.125 2.144531 20.65625 1.289063 30.300781-2.460937l.382813-.113282c1.195312-.363281 2.484374.109376 3.164062 1.15625.679688 1.050782.582031 2.421876-.238281 3.363282zm0 0"/><path d="m324.164062 333.261719h-136.535156c-9.421875-.011719-17.054687-7.644531-17.066406-17.066407v-85.332031c.011719-9.421875 7.644531-17.054687 17.066406-17.066406h136.535156c9.421876.011719 17.054688 7.644531 17.066407 17.066406v85.332031c-.011719 9.421876-7.644531 17.054688-17.066407 17.066407zm-136.535156-102.398438v85.332031h136.546875l-.011719-85.332031zm0 0"/><path d="m179.097656 247.929688c-.917968 0-1.832031-.148438-2.703125-.441407l-102.398437-34.132812c-2.972656-.902344-5.222656-3.34375-5.875-6.382813-.648438-3.039062.402344-6.1875 2.746094-8.226562 2.34375-2.039063 5.609374-2.640625 8.527343-1.574219l102.402344 34.132813c3.964844 1.328124 6.382813 5.332031 5.710937 9.460937-.667968 4.125-4.230468 7.160156-8.410156 7.164063zm0 0"/><path d="m117.058594 336.847656c-4.191406.003906-7.761719-3.035156-8.433594-7.167968-.671875-4.136719 1.761719-8.148438 5.738281-9.464844l62.039063-20.652344c4.472656-1.488281 9.304687.929688 10.792968 5.40625 1.488282 4.472656-.929687 9.304688-5.402343 10.792969l-62.039063 20.652343c-.871094.285157-1.78125.429688-2.695312.433594zm0 0"/><path d="m332.695312 247.929688c-4.179687-.003907-7.742187-3.039063-8.410156-7.164063-.671875-4.128906 1.746094-8.132813 5.710938-9.460937l102.398437-34.132813c2.917969-1.066406 6.1875-.464844 8.53125 1.574219 2.34375 2.039062 3.394531 5.1875 2.746094 8.226562-.652344 3.039063-2.902344 5.480469-5.875 6.382813l-102.402344 34.132812c-.867187.292969-1.78125.441407-2.699219.441407zm0 0"/><path d="m394.820312 336.933594c-.917968 0-1.832031-.152344-2.703124-.445313l-62.121094-20.734375c-2.972656-.898437-5.222656-3.34375-5.875-6.378906-.648438-3.039062.402344-6.191406 2.746094-8.230469 2.34375-2.035156 5.609374-2.640625 8.527343-1.574219l62.125 20.738282c3.964844 1.328125 6.382813 5.332031 5.710938 9.457031-.667969 4.128906-4.230469 7.160156-8.410157 7.167969zm0 0"/><path d="m264.429688 299.128906h-17.066407c-4.714843 0-8.535156-3.820312-8.535156-8.53125 0-4.714844 3.820313-8.535156 8.535156-8.535156h17.066407c4.710937 0 8.53125 3.820312 8.53125 8.535156 0 4.710938-3.820313 8.53125-8.53125 8.53125zm0 0"/></svg>