<svg height="512pt" viewBox="0 0 512 512.02135" width="512pt" xmlns="http://www.w3.org/2000/svg"><path d="m76.964844 250.476562-34.21875 14.675782 19.199218 48.640625-29.097656 19.199219-21.847656-55.296876c-6.863281-17.152343 1.253906-36.648437 18.261719-43.859374l44.542969-19.117188c1.421874-.59375 2.914062-.996094 4.4375-1.195312zm0 0" fill="#e57e25"/><path d="m471.972656 93.121094 30.378906 111.871094c2.578126 10.207031.304688 21.035156-6.167968 29.339843-6.472656 8.304688-16.414063 13.160157-26.941406 13.15625h-34.304688l-1.367188-34.132812h35.671876l-29.269532-108.03125zm0 0" fill="#e57e25"/><path d="m435.109375 238.953125c0 3.074219-.085937 6.058594-.171875 9.046875-1.441406 38.34375-13.496094 75.535156-34.816406 107.433594-3.226563 4.839844-6.703125 9.511718-10.410156 13.996094-10.792969 13.351562-23.402344 25.128906-37.460938 34.984374l-97.28125 72.535157-12.714844-9.640625-82.6875-62.894532c-14.105468-9.863281-26.746094-21.667968-37.546875-35.070312-1.621093-1.960938-3.242187-4.011719-4.777343-6.058594l-4.863282-8.363281-17.75-30.292969c-10.3125-23.449218-16.296875-48.574218-17.664062-74.152344 0-.855468-.085938-1.625-.085938-2.476562-.085937-2.988281-.171875-6.058594-.171875-9.046875 0-2.8125.085938-5.714844.171875-8.53125.253906-5.71875.683594-11.351563 1.363282-16.898437 10.839843-91.816407 79.617187-163.839844 164.949218-170.238282 4.226563-.414062 8.472656-.613281 12.714844-.597656 96.34375 0 174.933594 83.285156 178.945312 187.734375.171876 2.816406.257813 5.632813.257813 8.53125zm0 0" fill="#fec108"/><path d="m409.507812 238.953125c0 3.074219-.085937 6.058594-.171874 9.046875-1.441407 38.34375-13.492188 75.535156-34.816407 107.433594-3.226562 4.839844-6.703125 9.511718-10.410156 13.996094-10.792969 13.351562-23.402344 25.128906-37.460937 34.984374l-84.394532 62.894532-82.6875-62.894532c-14.105468-9.863281-26.746094-21.667968-37.546875-35.070312-1.621093-1.960938-3.242187-4.011719-4.777343-6.058594l-4.863282-8.363281-17.75-30.292969c-10.3125-23.449218-16.296875-48.574218-17.664062-74.152344 0-.855468-.085938-1.625-.085938-2.476562-.085937-2.988281-.171875-6.058594-.171875-9.046875 0-2.8125.085938-5.714844.171875-8.53125.253906-5.71875.683594-11.351563 1.363282-16.898437 10.839843-91.816407 79.617187-163.839844 164.949218-170.238282 90.371094 6.914063 162.21875 87.382813 166.0625 187.136719.167969 2.816406.253906 5.632813.253906 8.53125zm0 0" fill="#ffdc00"/><path d="m255.90625 460.820312v25.601563c-.027344 9.414063-7.652344 17.039063-17.066406 17.066406h-102.398438c-9.414062-.027343-17.039062-7.652343-17.066406-17.066406v-25.601563c-.070312-31.34375 24.195312-57.359374 55.464844-59.476562 1.417968-.171875 2.84375-.253906 4.269531-.253906h17.066406c15.84375-.011719 31.042969 6.277344 42.25 17.480468 11.203125 11.207032 17.492188 26.40625 17.480469 42.25zm0 0" fill="#283593"/><path d="m230.308594 460.820312v25.601563c-.027344 9.414063-7.652344 17.039063-17.066406 17.066406h-76.800782c-9.414062-.027343-17.039062-7.652343-17.066406-17.066406v-25.601563c-.070312-31.34375 24.195312-57.359374 55.464844-59.476562 31.273437 2.117188 55.535156 28.132812 55.46875 59.476562zm0 0" fill="#3f51b5"/><path d="m392.441406 460.820312v25.601563c-.027344 9.414063-7.652344 17.039063-17.066406 17.066406h-102.398438c-9.417968-.027343-17.039062-7.652343-17.070312-17.066406v-25.601563c-.066406-31.34375 24.195312-57.359374 55.46875-59.476562 1.414062-.171875 2.839844-.253906 4.265625-.253906h17.066406c15.847657-.011719 31.046875 6.277344 42.25 17.480468 11.207031 11.207032 17.496094 26.40625 17.484375 42.25zm0 0" fill="#283593"/><path d="m366.839844 460.820312v25.601563c-.027344 9.414063-7.652344 17.039063-17.066406 17.066406h-76.796876c-9.417968-.027343-17.039062-7.652343-17.070312-17.066406v-25.601563c-.066406-31.34375 24.195312-57.359374 55.46875-59.476562 31.269531 2.117188 55.535156 28.132812 55.464844 59.476562zm0 0" fill="#3f51b5"/><path d="m105.761719 335.8125c-16.804688-22.019531-45.03125-28.722656-63.046875-14.972656s-18.996094 42.742187-2.191406 64.761718c16.804687 22.019532 45.03125 28.722657 63.046874 14.972657 18.015626-13.75 18.996094-42.746094 2.191407-64.761719zm0 0" fill="#ff9801"/><path d="m460.109375 102.421875c-8.882813 4.046875-19.003906 4.414063-28.160156 1.023437-13.570313-5.097656-24.558594-15.382812-30.546875-28.585937-11.949219-25.003906-5.035156-53.25 15.445312-62.976563.765625-.339843 1.621094-.683593 2.472656-1.023437 20.054688-7.679687 44.628907 4.605469 56.148438 28.671875 11.949219 25.003906 5.121094 53.160156-15.359375 62.890625zm0 0" fill="#f57c00"/><path d="m434.511719 102.421875c-.824219.414063-1.679688.757813-2.5625 1.023437-13.570313-5.097656-24.558594-15.382812-30.546875-28.585937-11.949219-25.003906-5.035156-53.25 15.445312-62.976563.765625-.339843 1.621094-.683593 2.472656-1.023437 13.546876 5.1875 24.515626 15.480469 30.550782 28.671875 11.945312 25.003906 5.121094 53.160156-15.359375 62.890625zm0 0" fill="#ff9801"/><path d="m221.773438 166.421875c0-21.207031-7.640626-38.402344-17.066407-38.402344s-17.066406 17.195313-17.066406 38.402344 7.640625 38.398437 17.066406 38.398437 17.066407-17.191406 17.066407-38.398437zm0 0" fill="#3f51b5"/><path d="m214.1875 149.355469c0-11.78125-4.242188-21.335938-9.480469-21.335938-5.234375 0-9.480469 9.554688-9.480469 21.335938s4.246094 21.332031 9.480469 21.332031c5.238281 0 9.480469-9.550781 9.480469-21.332031zm0 0" fill="#f5f5f5"/><path d="m324.175781 166.421875c0-21.207031-7.640625-38.402344-17.066406-38.402344s-17.066406 17.195313-17.066406 38.402344 7.640625 38.398437 17.066406 38.398437 17.066406-17.191406 17.066406-38.398437zm0 0" fill="#3f51b5"/><path d="m316.589844 149.355469c0-11.78125-4.246094-21.335938-9.480469-21.335938-5.238281 0-9.484375 9.554688-9.484375 21.335938s4.246094 21.332031 9.484375 21.332031c5.234375 0 9.480469-9.550781 9.480469-21.332031zm0 0" fill="#f5f5f5"/><path d="m159.558594 412.949219c-1.742188 0-3.4375-.539063-4.863282-1.535157-16.960937-11.882812-31.910156-26.402343-44.28125-43.007812-2.699218-3.773438-1.890624-9.011719 1.820313-11.796875 3.714844-2.78125 8.96875-2.089844 11.832031 1.5625 11.285156 15.148437 24.914063 28.394531 40.375 39.242187 3.058594 2.132813 4.375 6 3.257813 9.554688-1.117188 3.554688-4.414063 5.976562-8.140625 5.976562zm0 0"/><path d="m352.257812 412.949219c-3.722656 0-7.019531-2.417969-8.136718-5.96875-1.121094-3.550781.195312-7.421875 3.246094-9.554688 50.65625-36.753906 80.214843-95.894531 79.207031-158.472656 0-103.515625-76.558594-187.730469-170.667969-187.730469-85.480469 0-158.222656 70.199219-169.191406 163.296875-.992188 8.109375-1.484375 16.269531-1.472656 24.433594 0 3.710937.085937 7.425781.25 11.125 1.296874 24.53125 7.039062 48.621094 16.941406 71.101563 1.90625 4.3125-.046875 9.351562-4.359375 11.257812s-9.351563-.046875-11.257813-4.359375c-10.746094-24.386719-16.96875-50.527344-18.367187-77.140625-.1875-4.039062-.273438-8.007812-.273438-11.984375-.007812-8.851563.527344-17.695313 1.597657-26.480469 11.976562-101.636718 92-178.316406 186.132812-178.316406 103.519531 0 187.734375 91.875 187.734375 204.796875 1.007813 68.152344-31.277344 132.511719-86.507813 172.453125-1.425781 1.003906-3.128906 1.542969-4.875 1.542969zm0 0"/><path d="m238.839844 512.019531h-102.398438c-14.132812-.015625-25.585937-11.464843-25.601562-25.597656v-25.601563c.042968-37.683593 30.582031-68.222656 68.269531-68.265624h17.066406c37.683594.042968 68.222657 30.582031 68.265625 68.265624v25.601563c-.015625 14.132813-11.46875 25.582031-25.601562 25.597656zm-59.730469-102.398437c-28.265625.03125-51.171875 22.9375-51.203125 51.199218v25.601563c.003906 4.710937 3.824219 8.53125 8.535156 8.53125h102.398438c4.714844 0 8.53125-3.820313 8.535156-8.53125v-25.601563c-.03125-28.261718-22.9375-51.167968-51.199219-51.199218zm0 0"/><path d="m255.90625 477.886719h-136.53125c-4.714844 0-8.535156-3.820313-8.535156-8.53125 0-4.714844 3.820312-8.535157 8.535156-8.535157h136.53125c4.714844 0 8.535156 3.820313 8.535156 8.535157 0 4.710937-3.820312 8.53125-8.535156 8.53125zm0 0"/><path d="m375.375 512.019531h-102.398438c-14.132812-.015625-25.585937-11.464843-25.601562-25.597656v-25.601563c.042969-37.683593 30.582031-68.222656 68.265625-68.265624h17.066406c37.6875.042968 68.222657 30.582031 68.269531 68.265624v25.601563c-.015624 14.132813-11.46875 25.582031-25.601562 25.597656zm-59.734375-102.398437c-28.261719.03125-51.167969 22.9375-51.199219 51.199218v25.601563c.003906 4.710937 3.820313 8.53125 8.535156 8.53125h102.398438c4.710938 0 8.53125-3.820313 8.53125-8.53125v-25.601563c-.03125-28.261718-22.933594-51.167968-51.199219-51.199218zm0 0"/><path d="m392.441406 477.886719h-136.535156c-4.710938 0-8.53125-3.820313-8.53125-8.53125 0-4.714844 3.820312-8.535157 8.53125-8.535157h136.535156c4.710938 0 8.535156 3.820313 8.535156 8.535157 0 4.710937-3.824218 8.53125-8.535156 8.53125zm0 0"/><path d="m81.800781 416.195312c-19.082031-.609374-36.8125-9.988281-48.058593-25.414062-19.632813-25.726562-17.921876-60.144531 3.800781-76.726562 21.71875-16.582032 55.355469-9.148438 75.007812 16.582031 19.632813 25.726562 17.925781 60.144531-3.800781 76.714843-7.757812 5.847657-17.234375 8.957032-26.949219 8.84375zm-17.175781-93.992187c-6.023438-.097656-11.910156 1.808594-16.734375 5.417969-14.242187 10.875-14.507813 34.558594-.582031 52.808594 13.914062 18.234374 36.824218 24.234374 51.089844 13.359374 14.242187-10.867187 14.5-34.5625.585937-52.800781-7.984375-11.183593-20.636719-18.101562-34.359375-18.785156zm0 0"/><path d="m445.167969 114.328125c-7.359375-.0625-14.613281-1.75-21.242188-4.941406-13.335937-6.507813-24.019531-17.417969-30.242187-30.890625-13.925782-29.207032-5.183594-62.539063 19.484375-74.308594 12.691406-5.835938 27.351562-5.558594 39.816406.75 13.308594 6.523438 23.964844 17.433594 30.175781 30.890625 6.550782 13.289063 8.335938 28.421875 5.0625 42.871094-2.894531 13.664062-11.890625 25.246093-24.414062 31.433593-5.820313 2.777344-12.191406 4.210938-18.640625 4.195313zm-13.386719-97.238281c-3.894531-.019532-7.746094.835937-11.265625 2.5-16.175781 7.714844-21.308594 30.847656-11.433594 51.558594 4.523438 9.910156 12.332031 17.960937 22.101563 22.789062 7.867187 4.085938 17.164062 4.375 25.273437.792969 7.859375-4.019531 13.449219-11.40625 15.183594-20.058594 2.34375-10.632813.972656-21.746094-3.882813-31.488281v-.007813c-4.515624-9.898437-12.300781-17.945312-22.042968-22.792969-4.34375-2.109374-9.101563-3.234374-13.933594-3.292968zm0 0"/><path d="m24.917969 336.121094-21.851563-55.292969c-8.597656-21.445313 1.554688-45.824219 22.832032-54.832031l44.542968-19.113282c2.167969-.914062 4.445313-1.53125 6.777344-1.835937l2.046875 16.953125c-.753906.101562-1.492187.308594-2.191406.605469l-44.441407 19.074219c-12.753906 5.402343-18.84375 20.015624-13.695312 32.875l21.847656 55.296874zm0 0"/><path d="m54.007812 316.921875-19.199218-48.632813c-1.699219-4.292968.324218-9.15625 4.566406-10.976562l34.226562-14.683594 6.734376 15.683594-26.613282 11.417969 16.152344 40.925781zm0 0"/><path d="m469.242188 221.886719h-35.671876c-4.710937 0-8.53125-3.820313-8.53125-8.53125 0-4.714844 3.820313-8.535157 8.53125-8.535157h24.519532l-26.347656-97.265624c-1.148438-4.515626 1.539062-9.117188 6.035156-10.335938s9.140625 1.394531 10.433594 5.867188l29.269531 108.035156c.695312 2.5625.15625 5.308594-1.457031 7.417968-1.617188 2.113282-4.125 3.351563-6.78125 3.347657zm0 0"/><path d="m469.242188 256.019531h-34.304688c-4.714844 0-8.535156-3.820312-8.535156-8.53125 0-4.714843 3.820312-8.535156 8.535156-8.535156h34.304688c7.917968.003906 15.390624-3.65625 20.242187-9.914063 4.851563-6.257812 6.539063-14.40625 4.566406-22.074218l-30.308593-111.609375c-.855469-2.960938-.046876-6.152344 2.113281-8.351563 2.160156-2.195312 5.335937-3.058594 8.3125-2.253906 2.972656.804688 5.285156 3.152344 6.042969 6.136719l30.378906 111.867187c3.253906 12.90625.351562 26.59375-7.859375 37.066406-8.082031 10.257813-20.429688 16.230469-33.488281 16.199219zm0 0"/><path d="m204.707031 213.355469c-16.808593 0-25.597656-23.609375-25.597656-46.933594s8.789063-46.933594 25.597656-46.933594c16.8125 0 25.601563 23.609375 25.601563 46.933594s-8.789063 46.933594-25.601563 46.933594zm-.167969-76.824219c-2.050781.78125-8.363281 11.148438-8.363281 29.890625s6.308594 29.109375 8.703125 29.890625c2.046875-.78125 8.363282-11.148438 8.363282-29.890625s-6.308594-29.109375-8.703126-29.890625zm0 0"/><path d="m307.109375 213.355469c-16.8125 0-25.601563-23.609375-25.601563-46.933594s8.789063-46.933594 25.601563-46.933594c16.808594 0 25.597656 23.609375 25.597656 46.933594s-8.789062 46.933594-25.597656 46.933594zm-.171875-76.824219c-2.046875.78125-8.363281 11.148438-8.363281 29.890625s6.308593 29.109375 8.703125 29.890625c2.050781-.78125 8.363281-11.148438 8.363281-29.890625s-6.308594-29.109375-8.703125-29.890625zm0 0"/><path d="m230.308594 221.886719c-2.265625.003906-4.433594-.894531-6.035156-2.5-5.601563-4.265625-12.535157-6.402344-19.566407-6.03125-7.078125-.382813-14.058593 1.796875-19.664062 6.132812-3.410157 3.195313-8.746094 3.082031-12.019531-.25-3.246094-3.316406-3.226563-8.628906.050781-11.917969 8.746093-7.585937 20.066406-11.535156 31.632812-11.03125 11.566407-.503906 22.886719 3.445313 31.632813 11.03125 2.441406 2.441407 3.171875 6.113282 1.851562 9.300782-1.320312 3.1875-4.433594 5.265625-7.882812 5.265625zm0 0"/><path d="m332.707031 221.886719c-2.261719.003906-4.433593-.894531-6.03125-2.5-5.601562-4.265625-12.535156-6.402344-19.566406-6.03125-7.082031-.382813-14.0625 1.796875-19.667969 6.132812-3.410156 3.195313-8.742187 3.082031-12.015625-.25-3.25-3.316406-3.226562-8.628906.050781-11.917969 8.746094-7.585937 20.0625-11.535156 31.632813-11.03125 11.566406-.503906 22.886719 3.445313 31.632813 11.03125 2.4375 2.441407 3.167968 6.113282 1.847656 9.300782-1.320313 3.1875-4.429688 5.265625-7.882813 5.265625zm0 0"/><path d="m163.695312 117.28125c9.644532 3.753906 20.175782 4.605469 30.300782 2.460938 4.835937-1.554688 9.347656-3.976563 13.3125-7.152344 2.179687-1.535156 3.984375-3.636719 6.207031-5.355469 1.949219-2.019531 3.777344-4.183594 5.941406-6.203125l.257813-.238281c.933594-.871094 2.347656-.972657 3.402344-.25 1.050781.726562 1.457031 2.085937.976562 3.269531-1.164062 2.871094-2.613281 5.636719-4.035156 8.472656-1.703125 2.726563-3.617188 5.320313-5.730469 7.746094-4.539063 5.070312-10.277344 8.921875-16.695313 11.195312-6.589843 2.296876-13.722656 2.542969-20.460937.707032-6.476563-1.691406-12.3125-5.253906-16.78125-10.238282-.816406-.945312-.914063-2.3125-.234375-3.359374.675781-1.046876 1.960938-1.523438 3.15625-1.164063zm0 0"/><path d="m351.429688 121.691406c-4.46875 4.988282-10.304688 8.546875-16.78125 10.242188-6.738282 1.835937-13.871094 1.589844-20.464844-.707032-6.414063-2.277343-12.152344-6.125-16.691406-11.195312-2.113282-2.429688-4.027344-5.019531-5.730469-7.746094-1.425781-2.835937-2.871094-5.601562-4.039063-8.472656-.480468-1.183594-.074218-2.542969.976563-3.269531 1.054687-.726563 2.46875-.621094 3.40625.25l.253906.238281c2.164063 2.015625 3.992187 4.179688 5.945313 6.199219 2.21875 1.71875 4.023437 3.820312 6.203124 5.359375 3.964844 3.175781 8.476563 5.597656 13.3125 7.152344 10.125 2.144531 20.65625 1.289062 30.300782-2.460938l.382812-.113281c1.195313-.363281 2.484375.109375 3.164063 1.160156.679687 1.046875.582031 2.417969-.238281 3.363281zm0 0"/><path d="m255.90625 307.222656c-4.019531-.003906-7.496094-2.8125-8.339844-6.742187-3.730468-3.339844-8.335937-5.546875-13.273437-6.367188-9.417969-2.609375-51.21875-4.507812-109.09375-4.957031-12.914063-.917969-22.917969-11.660156-22.917969-24.605469.003906-12.945312 10.015625-23.683593 22.925781-24.597656 57.867188-.449219 99.671875-2.347656 109.085938-4.957031 4.941406-.8125 9.546875-3.023438 13.273437-6.375.949219-3.890625 4.402344-6.65625 8.40625-6.734375 2.265625.019531 4.429688.933593 6.015625 2.546875 1.589844 1.613281 2.472657 3.792968 2.453125 6.054687-.023437 3.265625-1.949218 14.417969-25.601562 20.957031-14.40625 3.984376-69.671875 5.234376-113.507813 5.574219-3.492187.828125-5.957031 3.945313-5.957031 7.53125-.003906 3.589844 2.460938 6.707031 5.949219 7.539063 43.84375.339844 99.109375 1.589844 113.515625 5.574218 23.652344 6.539063 25.578125 17.691407 25.601562 20.957032.019532 2.261718-.863281 4.441406-2.453125 6.054687-1.585937 1.613281-3.75 2.527344-6.015625 2.546875zm0 0"/><path d="m315.640625 341.355469c-4.710937 0-8.53125-3.820313-8.53125-8.535157-.015625-9.417968-7.648437-17.054687-17.066406-17.066406h-59.734375c-4.714844 0-8.535156-3.820312-8.535156-8.53125 0-4.714844 3.820312-8.535156 8.535156-8.535156h59.734375c18.84375.019531 34.113281 15.289062 34.132812 34.132812 0 4.714844-3.820312 8.535157-8.535156 8.535157zm0 0"/></svg>