<svg height="511pt" viewBox="0 -16 511.92655 511" width="511pt" xmlns="http://www.w3.org/2000/svg"><path d="m76.953125 217.296875-34.21875 14.675781 19.199219 48.640625-29.097656 19.199219-21.84375-55.296875c-6.867188-17.152344 1.25-36.648437 18.261718-43.859375l44.542969-19.117188c1.417969-.59375 2.910156-.996093 4.4375-1.191406zm0 0" fill="#ff5722"/><path d="m434.972656 217.296875 34.21875 14.675781-19.199218 48.640625 29.097656 19.199219 21.84375-55.296875c6.867187-17.152344-1.25-36.648437-18.261719-43.859375l-44.542969-19.117188c-1.417968-.59375-2.910156-.996093-4.4375-1.191406zm0 0" fill="#ff5722"/><path d="m435.097656 205.773438c0 3.074218-.085937 6.058593-.171875 9.046874-1.441406 38.34375-13.492187 75.535157-34.816406 107.433594-3.226563 4.839844-6.703125 9.511719-10.410156 13.996094-10.792969 13.351562-23.402344 25.128906-37.460938 34.988281l-97.28125 72.53125-12.714843-9.640625-82.6875-62.890625c-14.105469-9.863281-26.746094-21.671875-37.546876-35.074219-1.621093-1.960937-3.242187-4.011718-4.777343-6.058593l-4.863281-8.363281-17.75-30.292969c-10.3125-23.449219-16.296876-48.574219-17.664063-74.152344 0-.855469-.085937-1.621094-.085937-2.476563-.085938-2.988281-.167969-6.058593-.167969-9.046874 0-2.8125.082031-5.714844.167969-8.53125.257812-5.71875.683593-11.347657 1.367187-16.894532 10.835937-91.820312 79.613281-163.839844 164.949219-170.242187 4.222656-.414063 8.46875-.613281 12.714844-.597657 96.339843 0 174.933593 83.285157 178.941406 187.734376.171875 2.816406.257812 5.632812.257812 8.53125zm0 0" fill="#fec108"/><path d="m409.496094 205.773438c0 3.074218-.085938 6.058593-.167969 9.046874-1.445313 38.34375-13.496094 75.535157-34.816406 107.433594-3.230469 4.839844-6.703125 9.511719-10.410157 13.996094-10.796874 13.351562-23.40625 25.128906-37.464843 34.988281l-84.394531 62.890625-82.6875-62.890625c-14.105469-9.863281-26.746094-21.671875-37.546876-35.074219-1.621093-1.960937-3.242187-4.011718-4.777343-6.058593l-4.863281-8.363281-17.75-30.292969c-10.3125-23.449219-16.296876-48.574219-17.664063-74.152344 0-.855469-.085937-1.621094-.085937-2.476563-.085938-2.988281-.167969-6.058593-.167969-9.046874 0-2.8125.082031-5.714844.167969-8.53125.257812-5.71875.683593-11.347657 1.367187-16.894532 10.835937-91.820312 79.613281-163.839844 164.949219-170.242187 90.367187 6.914062 162.21875 87.382812 166.058594 187.136719.167968 2.816406.253906 5.632812.253906 8.53125zm0 0" fill="#ffdc00"/><path d="m255.898438 427.640625v25.601563c-.027344 9.414062-7.652344 17.039062-17.066407 17.066406h-102.402343c-9.414063-.027344-17.039063-7.652344-17.066407-17.066406v-25.601563c-.066406-31.339844 24.195313-57.359375 55.46875-59.476563 1.414063-.167968 2.839844-.253906 4.265625-.253906h17.066406c15.84375-.011718 31.046876 6.277344 42.25 17.480469 11.207032 11.207031 17.496094 26.40625 17.484376 42.25zm0 0" fill="#283593"/><path d="m230.296875 427.640625v25.601563c-.027344 9.414062-7.652344 17.039062-17.066406 17.066406h-76.800781c-9.414063-.027344-17.039063-7.652344-17.066407-17.066406v-25.601563c-.066406-31.339844 24.195313-57.359375 55.46875-59.476563 31.269531 2.117188 55.535157 28.136719 55.464844 59.476563zm0 0" fill="#3f51b5"/><path d="m392.429688 427.640625v25.601563c-.027344 9.414062-7.652344 17.039062-17.066407 17.066406h-102.398437c-9.414063-.027344-17.039063-7.652344-17.066406-17.066406v-25.601563c-.070313-31.339844 24.195312-57.359375 55.464843-59.476563 1.417969-.167968 2.839844-.253906 4.265625-.253906h17.070313c15.84375-.011718 31.042969 6.277344 42.25 17.480469 11.203125 11.207031 17.492187 26.40625 17.480469 42.25zm0 0" fill="#283593"/><path d="m366.832031 427.640625v25.601563c-.027343 9.414062-7.652343 17.039062-17.066406 17.066406h-76.800781c-9.414063-.027344-17.039063-7.652344-17.066406-17.066406v-25.601563c-.070313-31.339844 24.195312-57.359375 55.464843-59.476563 31.273438 2.117188 55.535157 28.136719 55.46875 59.476563zm0 0" fill="#3f51b5"/><path d="m105.753906 302.632812c-16.804687-22.019531-45.035156-28.722656-63.050781-14.972656-18.011719 13.75-18.996094 42.746094-2.191406 64.761719 16.804687 22.019531 45.035156 28.722656 63.046875 14.972656 18.015625-13.75 19-42.742187 2.195312-64.761719zm0 0" fill="#ff9801"/><path d="m220.738281 154.574219c.703125 4.230469 1.042969 8.511719 1.027344 12.800781 0 21.25-7.683594 38.398438-17.066406 38.398438-9.386719 0-17.070313-17.148438-17.070313-38.398438-.015625-4.289062.324219-8.570312 1.027344-12.800781zm0 0" fill="#3f51b5"/><path d="m212.71875 154.574219c.351562 2.117187.519531 4.257812.511719 6.402343 0 10.621094-3.839844 19.199219-8.53125 19.199219-4.695313 0-8.535157-8.578125-8.535157-19.199219-.007812-2.144531.160157-4.285156.511719-6.402343zm0 0" fill="#f5f5f5"/><path d="m411.628906 296.398438-8.191406-11.203126c-2.78125-3.804687-8.117188-4.632812-11.921875-1.855468l-13.773437 10.070312c-1.832032 1.335938-3.054688 3.34375-3.398438 5.582032-.347656 2.238281.207031 4.523437 1.546875 6.351562l18.332031 25.019531.339844.511719zm0 0" fill="#02a9f4"/><path d="m471.449219 352.464844c-11.785157 17.34375-33.222657 25.378906-53.503907 20.050781-3.449218-1.15625-6.683593-2.886719-9.558593-5.117187-18.003907-13.742188-19.027344-42.753907-2.21875-64.769532 7.015625-9.398437 16.761719-16.402344 27.90625-20.054687 11.847656-4.179688 24.992187-2.265625 35.15625 5.121093 18.003906 13.738282 18.945312 42.667969 2.21875 64.769532zm0 0" fill="#f57c00"/><path d="m445.847656 352.464844c-7.03125 9.378906-16.769531 16.378906-27.902344 20.050781-3.449218-1.15625-6.683593-2.886719-9.558593-5.117187-18.003907-13.742188-19.027344-42.753907-2.21875-64.769532 7.015625-9.398437 16.761719-16.402344 27.90625-20.054687 3.449219 1.15625 6.679687 2.890625 9.554687 5.121093 18.007813 13.738282 18.945313 42.667969 2.21875 64.769532zm0 0" fill="#ff9801"/><path d="m392.429688 205.773438c.003906 18.109374-7.183594 35.476562-19.988282 48.277343-12.804687 12.804688-30.171875 19.996094-48.277344 19.992188-4.292968-.003907-8.578124-.40625-12.800781-1.195313-32.1875-6.152344-55.464843-34.300781-55.464843-67.074218 0-32.769532 23.277343-60.917969 55.464843-67.070313 4.222657-.789063 8.507813-1.191406 12.800781-1.195313 18.105469-.003906 35.472657 7.1875 48.277344 19.988282 12.804688 12.804687 19.996094 30.171875 19.988282 48.277344zm0 0" fill="#0377bc"/><path d="m366.832031 205.773438c0-37.039063-24.835937-67.070313-55.46875-67.070313-30.632812 0-55.464843 30.03125-55.464843 67.070313 0 37.042968 24.832031 67.074218 55.464843 67.074218 30.632813 0 55.46875-30.03125 55.46875-67.074218zm0 0" fill="#02a9f4"/><path d="m159.546875 379.769531c-1.738281 0-3.4375-.539062-4.863281-1.535156-16.960938-11.878906-31.910156-26.402344-44.28125-43.007813-2.699219-3.773437-1.890625-9.011718 1.824218-11.796874 3.710938-2.78125 8.96875-2.089844 11.832032 1.5625 11.28125 15.148437 24.910156 28.394531 40.375 39.242187 3.054687 2.132813 4.371094 6 3.253906 9.554687-1.117188 3.554688-4.410156 5.976563-8.136719 5.976563zm0 0"/><path d="m352.246094 379.769531c-3.726563.003907-7.027344-2.414062-8.144532-5.96875-1.121093-3.554687.199219-7.429687 3.253907-9.5625 15.566406-10.878906 29.25-24.226562 40.507812-39.523437 2.792969-3.792969 8.132813-4.601563 11.925781-1.808594 3.792969 2.792969 4.601563 8.132812 1.808594 11.925781-12.351562 16.804688-27.375 31.46875-44.476562 43.40625-1.429688 1-3.128906 1.53125-4.875 1.53125zm0 0"/><path d="m417.082031 299.640625c-1.195312.003906-2.378906-.25-3.46875-.738281-2.066406-.921875-3.683593-2.625-4.492187-4.738282-.808594-2.113281-.746094-4.460937.175781-6.527343 9.984375-22.535157 15.753906-46.703125 17.027344-71.316407.15625-3.632812.238281-7.355468.238281-11.058593.011719-8.148438-.476562-16.292969-1.464844-24.382813-10.976562-93.144531-83.707031-163.347656-169.199218-163.347656-85.492188 0-158.226563 70.203125-169.191407 163.300781-.996093 8.105469-1.488281 16.265625-1.476562 24.429688 0 3.703125.085937 7.417969.25 11.125 1.296875 24.53125 7.039062 48.621093 16.941406 71.101562 1.234375 2.789063.882813 6.023438-.917969 8.488281-1.796875 2.460938-4.773437 3.777344-7.804687 3.449219-3.035157-.328125-5.660157-2.246093-6.894531-5.035156-10.738282-24.390625-16.960938-50.53125-18.367188-77.144531-.1875-4.046875-.273438-8.011719-.273438-11.984375-.007812-8.851563.527344-17.695313 1.601563-26.480469 11.972656-101.628906 91.988281-178.316406 186.132813-178.316406 94.140624 0 174.15625 76.683594 186.140624 178.367187 1.066407 8.769531 1.597657 17.597657 1.589844 26.429688 0 3.96875-.085937 7.9375-.265625 11.910156-1.371093 26.714844-7.636719 52.953125-18.484375 77.40625-1.367187 3.082031-4.425781 5.066406-7.796875 5.0625zm0 0"/><path d="m238.832031 478.84375h-102.402343c-14.132813-.015625-25.582032-11.46875-25.597657-25.601562v-25.601563c.042969-37.683594 30.582031-68.222656 68.265625-68.265625h17.066406c37.683594.042969 68.222657 30.582031 68.265626 68.265625v25.601563c-.015626 14.132812-11.46875 25.585937-25.597657 25.601562zm-59.734375-102.402344c-28.265625.03125-51.167968 22.9375-51.199218 51.199219v25.601563c0 4.710937 3.820312 8.53125 8.53125 8.53125h102.402343c4.710938 0 8.527344-3.820313 8.53125-8.53125v-25.601563c-.03125-28.261719-22.933593-51.167969-51.199219-51.199219zm0 0"/><path d="m255.898438 444.707031h-136.535157c-4.710937 0-8.53125-3.820312-8.53125-8.53125 0-4.714843 3.820313-8.535156 8.53125-8.535156h136.535157c4.710937 0 8.53125 3.820313 8.53125 8.535156 0 4.710938-3.820313 8.53125-8.53125 8.53125zm0 0"/><path d="m375.363281 478.84375h-102.398437c-14.132813-.015625-25.585938-11.46875-25.601563-25.601562v-25.601563c.042969-37.683594 30.582031-68.222656 68.265625-68.265625h17.070313c37.683593.042969 68.222656 30.582031 68.265625 68.265625v25.601563c-.015625 14.132812-11.46875 25.585937-25.601563 25.601562zm-59.734375-102.402344c-28.261718.03125-51.167968 22.9375-51.199218 51.199219v25.601563c.003906 4.710937 3.824218 8.53125 8.535156 8.53125h102.398437c4.710938 0 8.53125-3.820313 8.535157-8.53125v-25.601563c-.03125-28.261719-22.9375-51.167969-51.199219-51.199219zm0 0"/><path d="m392.429688 444.707031h-136.53125c-4.714844 0-8.535157-3.820312-8.535157-8.53125 0-4.714843 3.820313-8.535156 8.535157-8.535156h136.53125c4.714843 0 8.535156 3.820313 8.535156 8.535156 0 4.710938-3.820313 8.53125-8.535156 8.53125zm0 0"/><path d="m81.789062 383.015625c-19.082031-.609375-36.8125-9.988281-48.058593-25.414063-19.632813-25.726562-17.921875-60.144531 3.800781-76.726562 21.71875-16.582031 55.359375-9.148438 75.007812 16.582031 19.632813 25.726563 17.925782 60.144531-3.800781 76.714844-7.757812 5.847656-17.234375 8.960937-26.949219 8.84375zm-17.175781-93.988281c-6.023437-.097656-11.910156 1.804687-16.734375 5.414062-14.238281 10.875-14.503906 34.558594-.582031 52.808594 13.917969 18.234375 36.832031 24.234375 51.09375 13.359375 14.238281-10.867187 14.5-34.5625.582031-52.800781-7.980468-11.183594-20.636718-18.101563-34.359375-18.78125zm0 0"/><path d="m24.90625 302.941406-21.851562-55.292968c-8.59375-21.445313 1.558593-45.824219 22.832031-54.832032l44.546875-19.113281c2.164062-.914063 4.445312-1.53125 6.773437-1.835937l2.046875 16.953124c-.753906.101563-1.488281.308594-2.191406.605469l-44.441406 19.074219c-12.753906 5.402344-18.84375 20.015625-13.695313 32.875l21.851563 55.296875zm0 0"/><path d="m54 283.742188-19.203125-48.632813c-1.699219-4.292969.328125-9.15625 4.570313-10.976563l34.222656-14.683593 6.734375 15.683593-26.609375 11.417969 16.148437 40.925781zm0 0"/><path d="m430.136719 383.015625c-9.710938.117187-19.191407-2.992187-26.949219-8.839844-10.988281-8.625-17.4375-21.796875-17.507812-35.765625-.273438-14.820312 4.566406-29.285156 13.710937-40.953125 19.632813-25.722656 53.308594-33.164062 75.007813-16.582031 21.714843 16.582031 23.421874 51 3.796874 76.726562-11.246093 15.425782-28.976562 24.804688-48.058593 25.414063zm17.183593-93.988281c-13.722656.679687-26.378906 7.597656-34.363281 18.78125-6.75 8.535156-10.359375 19.136718-10.21875 30.015625-.054687 8.84375 3.921875 17.230469 10.800781 22.785156 14.265626 10.890625 37.175782 4.875 51.089844-13.359375 13.917969-18.25 13.65625-41.933594-.582031-52.808594-4.820313-3.605468-10.703125-5.511718-16.726563-5.414062zm0 0"/><path d="m487.023438 302.941406-15.867188-6.265625 21.84375-55.292969c5.160156-12.859374-.929688-27.484374-13.691406-32.882812l-44.542969-19.113281c-.671875-.277344-1.378906-.46875-2.101563-.566407l2.050782-16.953124c2.296875.296874 4.542968.902343 6.683594 1.792968l44.644531 19.15625c21.277343 9.007813 31.429687 33.394532 22.824219 54.84375zm0 0"/><path d="m457.921875 283.742188-15.867187-6.265626 16.152343-40.925781-26.601562-11.417969 6.734375-15.683593 34.21875 14.683593c4.242187 1.820313 6.265625 6.683594 4.566406 10.976563zm0 0"/><path d="m204.699219 214.308594c-16.8125 0-25.601563-23.609375-25.601563-46.933594-.019531-4.769531.363282-9.53125 1.148438-14.234375.433594-3.078125 2.503906-5.675781 5.410156-6.785156 2.902344-1.109375 6.179688-.550781 8.554688 1.457031 2.371093 2.007812 3.464843 5.148438 2.851562 8.195312-.617188 3.757813-.917969 7.558594-.898438 11.367188 0 18.71875 6.316407 29.097656 8.726563 29.890625 2.023437-.792969 8.339844-11.171875 8.339844-29.890625.019531-3.808594-.28125-7.609375-.898438-11.367188-.613281-3.046874.480469-6.1875 2.851563-8.195312 2.375-2.007812 5.652344-2.566406 8.554687-1.457031 2.90625 1.109375 4.976563 3.707031 5.410157 6.785156.785156 4.703125 1.167968 9.464844 1.148437 14.234375 0 23.324219-8.789063 46.933594-25.597656 46.933594zm0 0"/><path d="m238.832031 163.109375h-68.269531c-4.710938 0-8.53125-3.820313-8.53125-8.535156 0-4.710938 3.820312-8.53125 8.53125-8.53125h68.269531c4.710938 0 8.53125 3.820312 8.53125 8.53125 0 4.714843-3.820312 8.535156-8.53125 8.535156zm0 0"/><path d="m231.949219 121.730469c-4.464844 4.984375-10.300781 8.546875-16.78125 10.238281-6.734375 1.835938-13.867188 1.589844-20.460938-.707031-6.414062-2.273438-12.152343-6.121094-16.691406-11.195313-2.113281-2.425781-4.03125-5.015625-5.734375-7.746094-1.421875-2.835937-2.867188-5.601562-4.035156-8.472656-.480469-1.183594-.074219-2.542968.980468-3.265625 1.050782-.726562 2.464844-.625 3.398438.246094l.257812.238281c2.164063 2.019532 3.992188 4.183594 5.941407 6.203125 2.226562 1.71875 4.027343 3.816407 6.207031 5.355469 3.964844 3.175781 8.476562 5.601562 13.3125 7.152344 10.125 2.148437 20.65625 1.292968 30.300781-2.457032l.378907-.117187c1.195312-.359375 2.488281.113281 3.164062 1.160156.679688 1.050781.582031 2.417969-.234375 3.363281zm0 0"/><path d="m279.84375 74.652344c4.46875-4.984375 10.304688-8.546875 16.78125-10.238282 6.734375-1.835937 13.871094-1.589843 20.460938.707032 6.414062 2.273437 12.15625 6.125 16.695312 11.195312 2.109375 2.425782 4.027344 5.015625 5.730469 7.746094 1.421875 2.835938 2.871093 5.601562 4.035156 8.472656.480469 1.183594.074219 2.542969-.976563 3.269532-1.050781.726562-2.46875.621093-3.402343-.25l-.253907-.238282c-2.164062-2.019531-3.992187-4.179687-5.945312-6.203125-2.21875-1.71875-4.023438-3.816406-6.207031-5.355469-3.964844-3.175781-8.476563-5.597656-13.3125-7.152343-10.125-2.144531-20.652344-1.292969-30.300781 2.460937l-.378907.113282c-1.195312.363281-2.488281-.109376-3.167969-1.160157-.675781-1.046875-.578124-2.421875.242188-3.363281zm0 0"/><path d="m187.628906 299.640625c-4.710937 0-8.53125-3.820313-8.53125-8.53125.027344-23.554687 19.113282-42.640625 42.667969-42.667969h57.257813c4.710937 0 8.53125 3.820313 8.53125 8.535156 0 4.710938-3.820313 8.53125-8.53125 8.53125h-57.257813c-14.132813.015626-25.585937 11.46875-25.601563 25.601563 0 4.710937-3.820312 8.53125-8.535156 8.53125zm0 0"/><path d="m264.429688 299.640625h-8.53125c-4.714844 0-8.535157-3.820313-8.535157-8.53125 0-4.714844 3.820313-8.535156 8.535157-8.535156h8.53125c4.714843 0 8.535156 3.820312 8.535156 8.535156 0 4.710937-3.820313 8.53125-8.535156 8.53125zm0 0"/><path d="m324.164062 282.574219c-42.414062 0-76.800781-34.382813-76.800781-76.800781 0-42.414063 34.386719-76.796876 76.800781-76.796876 42.414063 0 76.800782 34.382813 76.800782 76.796876-.046875 42.398437-34.40625 76.753906-76.800782 76.800781zm0-136.53125c-32.988281 0-59.734374 26.742187-59.734374 59.730469 0 32.992187 26.746093 59.734374 59.734374 59.734374 32.988282 0 59.734376-26.742187 59.734376-59.734374-.042969-32.972657-26.761719-59.691407-59.734376-59.730469zm0 0"/><path d="m394.574219 339.40625c-2.867188.003906-5.546875-1.433594-7.128907-3.824219l-23.488281-32.089843c-1.339843-1.828126-1.898437-4.113282-1.550781-6.351563s1.570312-4.246094 3.398438-5.585937l27.5625-20.136719c1.828124-1.339844 4.113281-1.894531 6.347656-1.546875 2.238281.347656 4.246094 1.574218 5.578125 3.40625l13.226562 18.089844c2.78125 3.804687 1.949219 9.144531-1.855469 11.925781-3.808593 2.78125-9.148437 1.949219-11.925781-1.855469l-8.195312-11.199219-13.773438 10.066407 18.332031 25.019531c.085938.105469.5.730469.578126.851562 1.730468 2.621094 1.886718 5.976563.402343 8.746094-1.488281 2.765625-4.371093 4.492187-7.511719 4.496094zm0 0"/><path d="m384.65625 296.933594c-2.722656.007812-5.285156-1.292969-6.894531-3.492188l-20.15625-27.542968c-1.863281-2.453126-2.253907-5.722657-1.027344-8.550782s3.882813-4.773437 6.949219-5.089844c3.066406-.316406 6.066406 1.042969 7.84375 3.558594l20.160156 27.542969c1.898438 2.589844 2.179688 6.03125.726562 8.894531-1.449218 2.867188-4.390624 4.675782-7.601562 4.679688zm0 0"/><path d="m290.03125 197.242188c-3.453125 0-6.5625-2.078126-7.882812-5.269532-1.320313-3.1875-.589844-6.855468 1.847656-9.296875l17.066406-17.066406c3.351562-3.234375 8.671875-3.1875 11.964844.101563 3.289062 3.292968 3.335937 8.617187.101562 11.964843l-17.066406 17.066407c-1.597656 1.601562-3.769531 2.503906-6.03125 2.5zm0 0"/><path d="m298.5625 239.910156c-3.449219-.003906-6.558594-2.082031-7.878906-5.269531-1.320313-3.1875-.59375-6.859375 1.847656-9.296875l51.199219-51.203125c3.347656-3.230469 8.671875-3.1875 11.960937.105469 3.292969 3.292968 3.339844 8.613281.105469 11.960937l-51.199219 51.203125c-1.597656 1.601563-3.769531 2.5-6.035156 2.5zm0 0"/></svg>