<svg height="512pt" viewBox="0 0 512 512.0223" width="512pt" xmlns="http://www.w3.org/2000/svg"><path d="m472.105469 93.121094 30.378906 111.871094c2.582031 10.207031.304687 21.035156-6.167969 29.339843-6.46875 8.308594-16.410156 13.160157-26.941406 13.15625h-34.304688l-1.363281-34.132812h35.667969l-29.269531-108.03125zm0 0" fill="#ff5722"/><path d="m39.960938 93.121094-30.375 111.871094c-2.582032 10.207031-.304688 21.035156 6.164062 29.339843 6.472656 8.308594 16.414062 13.160157 26.945312 13.15625h34.300782l1.367187-34.132812h-35.667969l29.265626-108.03125zm0 0" fill="#ff5722"/><path d="m435.242188 238.957031c0 3.070313-.085938 6.058594-.171876 9.042969-1.441406 38.34375-13.492187 75.535156-34.816406 107.4375-3.226562 4.839844-6.703125 9.507812-10.410156 13.992188-10.792969 13.351562-23.402344 25.128906-37.460938 34.988281l-97.277343 72.53125-12.714844-9.640625-82.691406-62.890625c-14.105469-9.863281-26.746094-21.671875-37.546875-35.074219-1.621094-1.960938-3.242188-4.007812-4.777344-6.058594l-4.863281-8.363281-17.75-30.292969c-10.3125-23.449218-16.296875-48.570312-17.664063-74.152344 0-.855468-.085937-1.621093-.085937-2.476562-.085938-2.984375-.167969-6.058594-.167969-9.042969 0-2.816406.082031-5.71875.167969-8.535156.257812-5.71875.683593-11.347656 1.367187-16.894531 10.835938-91.820313 79.617188-163.839844 164.949219-170.242188 4.226563-.414062 8.46875-.613281 12.714844-.597656 96.339843 0 174.933593 83.285156 178.941406 187.734375.171875 2.816406.257813 5.632813.257813 8.535156zm0 0" fill="#fec108"/><path d="m409.640625 238.957031c0 3.070313-.082031 6.058594-.167969 9.042969-1.445312 38.34375-13.496094 75.535156-34.816406 107.4375-3.230469 4.839844-6.703125 9.507812-10.410156 13.992188-10.796875 13.351562-23.40625 25.128906-37.460938 34.988281l-84.394531 62.890625-82.691406-62.890625c-14.105469-9.863281-26.746094-21.671875-37.546875-35.074219-1.621094-1.960938-3.242188-4.007812-4.777344-6.058594l-4.863281-8.363281-17.75-30.292969c-10.3125-23.449218-16.296875-48.570312-17.664063-74.152344 0-.855468-.085937-1.621093-.085937-2.476562-.085938-2.984375-.167969-6.058594-.167969-9.042969 0-2.816406.082031-5.71875.167969-8.535156.257812-5.71875.683593-11.347656 1.367187-16.894531 10.835938-91.820313 79.617188-163.839844 164.949219-170.242188 90.367187 6.914063 162.21875 87.382813 166.058594 187.136719.171875 2.816406.253906 5.632813.253906 8.535156zm0 0" fill="#ffdc00"/><path d="m256.042969 460.824219v25.597656c-.027344 9.414063-7.652344 17.039063-17.066407 17.066406h-102.402343c-9.414063-.027343-17.039063-7.652343-17.066407-17.066406v-25.597656c-.066406-31.34375 24.195313-57.363281 55.46875-59.480469 1.414063-.167969 2.839844-.253906 4.265626-.253906h17.066406c15.847656-.011719 31.046875 6.277344 42.25 17.480468 11.207031 11.207032 17.496094 26.40625 17.484375 42.253907zm0 0" fill="#283593"/><path d="m230.441406 460.824219v25.597656c-.027344 9.414063-7.652344 17.039063-17.066406 17.066406h-76.800781c-9.414063-.027343-17.039063-7.652343-17.066407-17.066406v-25.597656c-.066406-31.34375 24.195313-57.363281 55.46875-59.480469 31.269532 2.117188 55.535157 28.136719 55.464844 59.480469zm0 0" fill="#3f51b5"/><path d="m392.574219 460.824219v25.597656c-.027344 9.414063-7.652344 17.039063-17.066407 17.066406h-102.398437c-9.414063-.027343-17.039063-7.652343-17.066406-17.066406v-25.597656c-.070313-31.34375 24.195312-57.363281 55.464843-59.480469 1.417969-.167969 2.839844-.253906 4.269532-.253906h17.066406c15.84375-.011719 31.042969 6.277344 42.25 17.480468 11.203125 11.207032 17.492188 26.40625 17.480469 42.253907zm0 0" fill="#283593"/><path d="m366.976562 460.824219v25.597656c-.027343 9.414063-7.652343 17.039063-17.066406 17.066406h-76.800781c-9.414063-.027343-17.039063-7.652343-17.066406-17.066406v-25.597656c-.070313-31.34375 24.195312-57.363281 55.464843-59.480469 31.273438 2.117188 55.535157 28.136719 55.46875 59.480469zm0 0" fill="#3f51b5"/><path d="m460.246094 102.421875c-8.882813 4.046875-19.007813 4.414063-28.160156 1.023437-13.574219-5.097656-24.5625-15.382812-30.550782-28.585937-11.945312-25.003906-5.035156-53.246094 15.445313-62.976563.769531-.339843 1.621093-.683593 2.476562-1.023437 20.050781-7.679687 44.628907 4.609375 56.148438 28.671875 11.945312 25.003906 5.121093 53.164062-15.359375 62.890625zm0 0" fill="#f57c00"/><path d="m434.644531 102.421875c-.820312.414063-1.679687.757813-2.558593 1.023437-13.574219-5.097656-24.5625-15.382812-30.550782-28.585937-11.945312-25.003906-5.035156-53.246094 15.445313-62.976563.769531-.339843 1.621093-.683593 2.476562-1.023437 13.542969 5.1875 24.511719 15.484375 30.546875 28.671875 11.949219 25.003906 5.121094 53.164062-15.359375 62.890625zm0 0" fill="#ff9801"/><path d="m36.472656 39.503906c-11.921875 25-5.125 53.175782 15.332032 62.929688 20.457031 9.75 46.828124-2.609375 58.746093-27.613282 11.921875-25.003906 5-53.175781-15.453125-62.929687-20.457031-9.753906-46.703125 2.609375-58.625 27.613281zm0 0" fill="#ff9801"/><path d="m324.308594 183.488281c0-21.207031-7.640625-38.398437-17.066406-38.398437-9.425782 0-17.066407 17.191406-17.066407 38.398437s7.640625 38.402344 17.066407 38.402344c9.425781 0 17.066406-17.195313 17.066406-38.402344zm0 0" fill="#3f51b5"/><path d="m316.722656 166.421875c0-11.78125-4.242187-21.332031-9.480468-21.332031-5.238282 0-9.480469 9.550781-9.480469 21.332031s4.242187 21.332031 9.480469 21.332031c5.238281 0 9.480468-9.550781 9.480468-21.332031zm0 0" fill="#f5f5f5"/><path d="m221.910156 204.824219c0 9.421875-7.640625 17.066406-17.066406 17.066406s-17.066406-7.644531-17.066406-17.066406c0-9.425781 7.640625-17.070313 17.066406-17.070313s17.066406 7.644532 17.066406 17.070313zm0 0" fill="#3f51b5"/><path d="m213.375 196.289062c0 4.710938-3.820312 8.535157-8.53125 8.535157-4.714844 0-8.535156-3.824219-8.535156-8.535157 0-4.714843 3.820312-8.535156 8.535156-8.535156 4.710938 0 8.53125 3.820313 8.53125 8.535156zm0 0" fill="#f5f5f5"/><path d="m256.042969 366.957031c34.132812 0 17.066406-17.066406 68.265625-34.132812 41.28125-13.761719 34.132812-85.335938 34.132812-85.335938-51.199218 42.667969-68.265625 17.066407-102.398437 17.066407-34.132813 0-51.199219 25.601562-102.402344-17.066407 0 0-7.144531 71.574219 34.136719 85.335938 51.199218 17.066406 34.132812 34.132812 68.265625 34.132812zm0 0" fill="#bb193b"/><path d="m311.167969 337.773438c-35.242188 15.273437-24.320313 29.183593-55.125 29.183593-30.804688 0-19.882813-13.910156-55.125-29.183593 2.425781-4.628907 5.46875-8.90625 9.042969-12.714844 12.125-12.230469 28.882812-18.71875 46.082031-17.835938 17.195312-.882812 33.957031 5.605469 46.078125 17.835938 3.574218 3.808594 6.617187 8.085937 9.046875 12.714844zm0 0" fill="#ad1457"/><path d="m302.121094 325.058594c-24.488282 13.480468-18.261719 24.832031-46.078125 24.832031-27.820313 0-21.589844-11.351563-46.082031-24.832031 12.125-12.230469 28.882812-18.71875 46.082031-17.835938 17.195312-.882812 33.957031 5.605469 46.078125 17.835938zm0 0" fill="#e91e63"/><path d="m232.097656 154.910156c-4.46875 4.984375-10.304687 8.546875-16.785156 10.242188-6.734375 1.835937-13.867188 1.585937-20.460938-.707032-6.414062-2.277343-12.152343-6.125-16.691406-11.199218-2.113281-2.425782-4.03125-5.015625-5.734375-7.746094-1.421875-2.832031-2.867187-5.601562-4.035156-8.472656-.480469-1.183594-.074219-2.542969.980469-3.265625 1.050781-.726563 2.464844-.621094 3.398437.246093l.257813.238282c2.164062 2.019531 3.992187 4.183594 5.945312 6.203125 2.222656 1.71875 4.023438 3.820312 6.203125 5.355469 3.964844 3.175781 8.476563 5.601562 13.3125 7.152343 10.125 2.148438 20.65625 1.292969 30.300781-2.457031l.378907-.117188c1.199219-.359374 2.488281.113282 3.167969 1.160157.675781 1.050781.582031 2.421875-.238282 3.363281zm0 0"/><path d="m279.988281 107.835938c4.46875-4.988282 10.304688-8.550782 16.78125-10.242188 6.734375-1.835938 13.871094-1.589844 20.460938.707031 6.414062 2.273438 12.15625 6.125 16.695312 11.195313 2.109375 2.425781 4.027344 5.019531 5.730469 7.746094 1.421875 2.835937 2.871094 5.601562 4.035156 8.472656.484375 1.183594.078125 2.542968-.976562 3.269531-1.050782.726563-2.464844.621094-3.402344-.25l-.253906-.238281c-2.164063-2.015625-3.992188-4.179688-5.945313-6.203125-2.21875-1.71875-4.023437-3.816407-6.207031-5.355469-3.964844-3.175781-8.476562-5.597656-13.3125-7.152344-10.121094-2.144531-20.652344-1.289062-30.300781 2.460938l-.378907.113281c-1.195312.363281-2.488281-.109375-3.164062-1.160156-.679688-1.046875-.582031-2.417969.238281-3.363281zm0 0"/><path d="m352.390625 412.949219c-3.722656 0-7.015625-2.414063-8.136719-5.96875-1.117187-3.550781.195313-7.417969 3.246094-9.554688 50.65625-36.753906 80.21875-95.894531 79.207031-158.46875 0-103.519531-76.558593-187.734375-170.664062-187.734375-94.109375 0-170.667969 84.214844-170.667969 187.734375-1.007812 62.574219 28.554688 121.710938 79.207031 158.460938 2.5 1.746093 3.878907 4.691406 3.613281 7.726562-.261718 3.035157-2.121093 5.699219-4.882812 6.992188-2.757812 1.289062-5.996094 1.011719-8.496094-.734375-55.230468-39.9375-87.515625-104.296875-86.507812-172.445313 0-112.925781 84.214844-204.800781 187.734375-204.800781 103.515625 0 187.734375 91.875 187.734375 204.800781 1.007812 68.148438-31.28125 132.511719-86.511719 172.449219-1.425781 1.003906-3.128906 1.542969-4.875 1.542969zm0 0"/><path d="m238.976562 512.023438h-102.402343c-14.128907-.015626-25.582031-11.46875-25.597657-25.601563v-25.597656c.042969-37.6875 30.582032-68.226563 68.265626-68.269531h17.066406c37.683594.042968 68.222656 30.582031 68.265625 68.269531v25.597656c-.015625 14.132813-11.464844 25.585937-25.597657 25.601563zm-59.734374-102.402344c-28.265626.03125-51.167969 22.9375-51.199219 51.203125v25.597656c.003906 4.710937 3.820312 8.53125 8.53125 8.535156h102.402343c4.710938-.003906 8.53125-3.824219 8.53125-8.535156v-25.597656c-.03125-28.265625-22.933593-51.171875-51.199218-51.203125zm0 0"/><path d="m256.042969 477.890625h-136.535157c-4.710937 0-8.53125-3.820313-8.53125-8.535156 0-4.710938 3.820313-8.53125 8.53125-8.53125h136.535157c4.710937 0 8.53125 3.820312 8.53125 8.53125 0 4.714843-3.820313 8.535156-8.53125 8.535156zm0 0"/><path d="m375.507812 512.023438h-102.398437c-14.132813-.015626-25.585937-11.46875-25.601563-25.601563v-25.597656c.042969-37.6875 30.582032-68.226563 68.269532-68.269531h17.066406c37.683594.042968 68.222656 30.582031 68.265625 68.269531v25.597656c-.015625 14.132813-11.46875 25.585937-25.601563 25.601563zm-59.730468-102.402344c-28.265625.03125-51.171875 22.9375-51.203125 51.203125v25.597656c.003906 4.710937 3.824219 8.53125 8.535156 8.535156h102.398437c4.710938-.003906 8.53125-3.824219 8.535157-8.535156v-25.597656c-.03125-28.265625-22.9375-51.171875-51.199219-51.203125zm0 0"/><path d="m392.574219 477.890625h-136.53125c-4.714844 0-8.535157-3.820313-8.535157-8.535156 0-4.710938 3.820313-8.53125 8.535157-8.53125h136.53125c4.714843 0 8.535156 3.820312 8.535156 8.53125 0 4.714843-3.820313 8.535156-8.535156 8.535156zm0 0"/><path d="m445.300781 114.332031c-7.359375-.066406-14.609375-1.753906-21.242187-4.941406-13.335938-6.511719-24.015625-17.421875-30.242188-30.890625-13.925781-29.210938-5.183594-62.542969 19.484375-74.308594 12.691407-5.839844 27.355469-5.5625 39.816407.75 13.308593 6.523438 23.964843 17.429688 30.175781 30.890625 6.550781 13.285157 8.339843 28.417969 5.066406 42.867188-2.898437 13.664062-11.894531 25.246093-24.417969 31.433593-5.820312 2.777344-12.191406 4.210938-18.640625 4.199219zm-13.386719-97.242187c-3.894531-.019532-7.742187.835937-11.265624 2.5-16.171876 7.714844-21.304688 30.847656-11.433594 51.558594 4.527344 9.914062 12.332031 17.960937 22.101562 22.789062 7.871094 4.085938 17.167969 4.378906 25.277344.792969 7.855469-4.019531 13.449219-11.40625 15.179688-20.058594 2.347656-10.632813.976562-21.746094-3.882813-31.488281v-.007813c-4.515625-9.898437-12.296875-17.945312-22.039063-22.792969-4.347656-2.109374-9.105468-3.234374-13.9375-3.292968zm0 0"/><path d="m469.375 221.890625h-35.667969c-4.714843 0-8.535156-3.820313-8.535156-8.535156 0-4.710938 3.820313-8.53125 8.535156-8.53125h24.515625l-26.347656-97.269531c-1.144531-4.515626 1.542969-9.113282 6.039062-10.335938 4.496094-1.21875 9.140626 1.394531 10.429688 5.871094l29.269531 108.03125c.699219 2.566406.160157 5.308594-1.457031 7.417968-1.617188 2.113282-4.121094 3.351563-6.78125 3.351563zm0 0"/><path d="m469.375 256.023438h-34.304688c-4.710937 0-8.53125-3.820313-8.53125-8.535157 0-4.710937 3.820313-8.53125 8.53125-8.53125h34.304688c7.917969 0 15.390625-3.660156 20.246094-9.917969 4.851562-6.257812 6.535156-14.40625 4.5625-22.074218l-30.308594-111.609375c-.855469-2.960938-.046875-6.152344 2.113281-8.347657 2.160157-2.199218 5.339844-3.0625 8.3125-2.257812 2.976563.804688 5.285157 3.152344 6.042969 6.136719l30.378906 111.867187c3.257813 12.90625.355469 26.59375-7.855468 37.070313-8.085938 10.253906-20.433594 16.226562-33.492188 16.199219zm0 0"/><path d="m66.765625 114.332031c-6.449219.011719-12.820313-1.421875-18.640625-4.203125-12.519531-6.183594-21.519531-17.765625-24.417969-31.429687-3.269531-14.445313-1.480469-29.578125 5.070313-42.867188 6.207031-13.457031 16.863281-24.367187 30.171875-30.894531 12.464843-6.308594 27.125-6.585938 39.816406-.75 12.527344 6.191406 21.542969 17.761719 24.484375 31.417969 3.316406 14.449219 1.550781 29.597656-5 42.894531-6.226562 13.46875-16.90625 24.378906-30.242188 30.890625-6.628906 3.1875-13.882812 4.875-21.242187 4.941406zm13.386719-97.242187c-4.832032.058594-9.589844 1.183594-13.933594 3.289062-9.742188 4.847656-17.527344 12.894532-22.042969 22.792969v.007813c-4.855469 9.742187-6.226562 20.859374-3.882812 31.488281 1.734375 8.652343 7.324219 16.042969 15.183593 20.058593 8.105469 3.589844 17.40625 3.296876 25.273438-.789062 9.769531-4.828125 17.578125-12.878906 22.101562-22.792969 4.855469-9.742187 6.203126-20.855469 3.824219-31.476562-1.769531-8.664063-7.382812-16.054688-15.257812-20.078125-3.523438-1.664063-7.371094-2.519532-11.265625-2.5zm0 0"/><path d="m78.359375 221.890625h-35.667969c-2.65625-.003906-5.160156-1.242187-6.773437-3.351563-1.617188-2.109374-2.15625-4.851562-1.460938-7.417968l29.269531-108.03125c1.292969-4.476563 5.9375-7.085938 10.433594-5.867188s7.183594 5.820313 6.039063 10.335938l-26.355469 97.265625h24.515625c4.710937 0 8.53125 3.820312 8.53125 8.53125 0 4.714843-3.820313 8.535156-8.53125 8.535156zm0 0"/><path d="m77 256.023438h-34.308594c-13.140625.003906-25.546875-6.046876-33.636718-16.402344-8.089844-10.355469-10.957032-23.859375-7.769532-36.605469l30.441406-112.128906c.757813-2.988281 3.066407-5.332031 6.042969-6.136719 2.972657-.804688 6.152344.054688 8.3125 2.253906 2.160157 2.195313 2.96875 5.390625 2.113281 8.347656l-30.378906 111.871094c-1.882812 7.644532-.148437 15.726563 4.710938 21.925782 4.855468 6.195312 12.292968 9.8125 20.164062 9.808593h34.308594c4.714844 0 8.535156 3.820313 8.535156 8.53125 0 4.714844-3.820312 8.535157-8.535156 8.535157zm0 0"/><path d="m307.242188 230.421875c-16.8125 0-25.601563-23.609375-25.601563-46.933594s8.789063-46.933593 25.601563-46.933593 25.601562 23.609374 25.601562 46.933593-8.789062 46.933594-25.601562 46.933594zm-.171876-76.824219c-2.046874.785156-8.363281 11.148438-8.363281 29.890625 0 18.742188 6.308594 29.109375 8.707031 29.890625 2.046876-.78125 8.363282-11.148437 8.363282-29.890625 0-18.742187-6.308594-29.105469-8.707032-29.890625zm0 0"/><path d="m204.84375 230.421875c-14.140625 0-25.601562-11.460937-25.601562-25.597656 0-14.140625 11.460937-25.601563 25.601562-25.601563 14.136719 0 25.597656 11.460938 25.597656 25.601563-.015625 14.128906-11.46875 25.582031-25.597656 25.597656zm0-34.132813c-4.714844 0-8.535156 3.820313-8.535156 8.535157 0 4.710937 3.820312 8.53125 8.535156 8.53125 4.710938 0 8.53125-3.820313 8.53125-8.53125-.003906-4.714844-3.820312-8.53125-8.53125-8.535157zm0 0"/><path d="m256.042969 375.488281c-12.734375 1.417969-25.355469-3.503906-33.765625-13.167969-10.226563-10.382812-23.085938-17.785156-37.203125-21.40625-47.199219-15.734374-40.238281-91.074218-39.921875-94.277343.3125-3.144531 2.335937-5.859375 5.257812-7.054688 2.925782-1.195312 6.273438-.679687 8.699219 1.34375 33.550781 27.96875 49.265625 24.160157 69.140625 19.292969 9.054688-2.542969 18.390625-3.953125 27.792969-4.195312 9.402343.242187 18.738281 1.652343 27.789062 4.199218 19.882813 4.863282 35.578125 8.675782 69.144531-19.292968 2.425782-2.023438 5.773438-2.542969 8.695313-1.34375 2.925781 1.195312 4.949219 3.910156 5.261719 7.054687.316406 3.199219 7.277344 78.539063-39.925782 94.273437-14.113281 3.621094-26.976562 11.023438-37.199218 21.40625-8.414063 9.664063-21.03125 14.585938-33.765625 13.167969zm-94.257813-111.089843c.582032 20.015624 5.257813 52.515624 28.691406 60.328124 16.648438 4.421876 31.800782 13.238282 43.867188 25.53125 5.230469 6.433594 13.523438 9.554688 21.699219 8.164063 8.175781 1.390625 16.46875-1.730469 21.699219-8.164063 12.066406-12.292968 27.21875-21.109374 43.867187-25.527343 23.433594-7.816407 28.109375-40.316407 28.691406-60.332031-31.867187 21.835937-51.46875 17.0625-70.515625 12.410156-7.730468-2.222656-15.707031-3.472656-23.742187-3.71875-8.039063.242187-16.015625 1.492187-23.742188 3.714844-19.050781 4.652343-38.648437 9.433593-70.515625-12.40625zm0 0"/><path d="m311.175781 346.304688c-3.171875 0-6.082031-1.753907-7.558593-4.558594-9.296876-17.335938-27.964844-27.535156-47.574219-25.992188-19.613281-1.542968-38.28125 8.65625-47.574219 25.992188-2.195312 4.171875-7.359375 5.773437-11.527344 3.578125-4.171875-2.195313-5.773437-7.355469-3.578125-11.527344 12.222657-22.957031 36.714844-36.675781 62.679688-35.109375 25.960937-1.566406 50.449219 12.152344 62.675781 35.109375 1.390625 2.644531 1.296875 5.824219-.246094 8.382813-1.542968 2.558593-4.308594 4.121093-7.296875 4.125zm0 0"/></svg>