<svg height="512pt" viewBox="0 0 512 512.0222" width="512pt" xmlns="http://www.w3.org/2000/svg"><path d="m472.105469 93.121094 30.378906 111.871094c2.578125 10.207031.304687 21.035156-6.167969 29.339843-6.46875 8.308594-16.410156 13.160157-26.941406 13.15625h-34.304688l-1.363281-34.132812h35.667969l-29.269531-108.03125zm0 0" fill="#ff5722"/><path d="m39.960938 93.121094-30.375 111.871094c-2.582032 10.207031-.304688 21.035156 6.164062 29.339843 6.472656 8.308594 16.414062 13.160157 26.945312 13.15625h34.300782l1.367187-34.132812h-35.667969l29.265626-108.03125zm0 0" fill="#ff5722"/><path d="m435.242188 238.957031c0 3.070313-.085938 6.058594-.171876 9.042969-1.441406 38.34375-13.492187 75.535156-34.816406 107.433594-3.226562 4.84375-6.703125 9.511718-10.410156 13.996094-10.792969 13.351562-23.402344 25.128906-37.460938 34.988281l-97.28125 72.53125-12.710937-9.640625-82.691406-62.890625c-14.105469-9.863281-26.742188-21.671875-37.546875-35.074219-1.621094-1.960938-3.242188-4.007812-4.777344-6.058594l-4.863281-8.363281-17.75-30.292969c-10.3125-23.449218-16.296875-48.570312-17.664063-74.152344 0-.855468-.085937-1.621093-.085937-2.476562-.085938-2.984375-.167969-6.058594-.167969-9.042969 0-2.816406.082031-5.71875.167969-8.535156.257812-5.71875.683593-11.347656 1.367187-16.894531 10.835938-91.820313 79.617188-163.839844 164.949219-170.242188 4.226563-.414062 8.46875-.613281 12.714844-.597656 96.339843 0 174.933593 83.285156 178.941406 187.734375.171875 2.816406.257813 5.632813.257813 8.535156zm0 0" fill="#fec108"/><path d="m409.640625 238.957031c0 3.070313-.082031 6.058594-.167969 9.042969-1.445312 38.34375-13.496094 75.535156-34.816406 107.433594-3.230469 4.84375-6.703125 9.511718-10.410156 13.996094-10.796875 13.351562-23.40625 25.128906-37.460938 34.988281l-84.394531 62.890625-82.691406-62.890625c-14.105469-9.863281-26.742188-21.671875-37.546875-35.074219-1.621094-1.960938-3.242188-4.007812-4.777344-6.058594l-4.863281-8.363281-17.75-30.292969c-10.3125-23.449218-16.296875-48.570312-17.664063-74.152344 0-.855468-.085937-1.621093-.085937-2.476562-.085938-2.984375-.167969-6.058594-.167969-9.042969 0-2.816406.082031-5.71875.167969-8.535156.257812-5.71875.683593-11.347656 1.367187-16.894531 10.835938-91.820313 79.617188-163.839844 164.949219-170.242188 90.367187 6.914063 162.21875 87.382813 166.058594 187.136719.171875 2.816406.253906 5.632813.253906 8.535156zm0 0" fill="#ffdc00"/><path d="m256.042969 460.820312v25.601563c-.027344 9.414063-7.652344 17.039063-17.066407 17.066406h-102.402343c-9.414063-.027343-17.039063-7.652343-17.066407-17.066406v-25.601563c-.066406-31.339843 24.195313-57.359374 55.46875-59.476562 1.414063-.167969 2.839844-.253906 4.265626-.253906h17.066406c15.847656-.011719 31.046875 6.277344 42.25 17.480468 11.207031 11.207032 17.496094 26.40625 17.484375 42.25zm0 0" fill="#283593"/><path d="m230.441406 460.820312v25.601563c-.027344 9.414063-7.652344 17.039063-17.066406 17.066406h-76.800781c-9.414063-.027343-17.039063-7.652343-17.066407-17.066406v-25.601563c-.066406-31.339843 24.195313-57.359374 55.46875-59.476562 31.269532 2.117188 55.535157 28.136719 55.464844 59.476562zm0 0" fill="#3f51b5"/><path d="m392.574219 460.820312v25.601563c-.027344 9.414063-7.652344 17.039063-17.066407 17.066406h-102.398437c-9.414063-.027343-17.039063-7.652343-17.066406-17.066406v-25.601563c-.070313-31.339843 24.195312-57.359374 55.464843-59.476562 1.417969-.167969 2.839844-.253906 4.269532-.253906h17.066406c15.84375-.011719 31.042969 6.277344 42.25 17.480468 11.203125 11.207032 17.492188 26.40625 17.480469 42.25zm0 0" fill="#283593"/><path d="m366.976562 460.820312v25.601563c-.027343 9.414063-7.652343 17.039063-17.066406 17.066406h-76.800781c-9.414063-.027343-17.039063-7.652343-17.066406-17.066406v-25.601563c-.070313-31.339843 24.195312-57.359374 55.464843-59.476562 31.273438 2.117188 55.535157 28.136719 55.46875 59.476562zm0 0" fill="#3f51b5"/><path d="m460.246094 102.421875c-8.882813 4.046875-19.007813 4.414063-28.160156 1.023437-13.574219-5.097656-24.5625-15.382812-30.550782-28.585937-11.945312-25.003906-5.035156-53.246094 15.445313-62.976563.769531-.339843 1.621093-.683593 2.476562-1.023437 20.050781-7.679687 44.628907 4.609375 56.148438 28.671875 11.945312 25.003906 5.121093 53.164062-15.359375 62.890625zm0 0" fill="#f57c00"/><path d="m434.644531 102.421875c-.820312.414063-1.679687.757813-2.558593 1.023437-13.574219-5.097656-24.5625-15.382812-30.550782-28.585937-11.945312-25.003906-5.035156-53.246094 15.445313-62.976563.769531-.339843 1.621093-.683593 2.476562-1.023437 13.542969 5.1875 24.511719 15.484375 30.546875 28.671875 11.949219 25.003906 5.121094 53.164062-15.359375 62.890625zm0 0" fill="#ff9801"/><path d="m36.472656 39.503906c-11.921875 25-5.125 53.175782 15.332032 62.929688 20.457031 9.75 46.828124-2.609375 58.746093-27.613282 11.921875-25.003906 5-53.175781-15.453125-62.929687-20.457031-9.753906-46.703125 2.609375-58.625 27.613281zm0 0" fill="#ff9801"/><path d="m225.578125 184.597656-28.929687 39.253906-13.054688-9.300781-26.625-19.03125c-5.433594-3.816406-9.089844-9.675781-10.132812-16.234375-1.046876-6.558594.609374-13.261718 4.585937-18.582031 7.964844-10.710937 22.832031-13.5 34.136719-6.398437 2.394531-2.835938 5.359375-5.132813 8.703125-6.742188 8.355469-3.988281 18.21875-3.140625 25.769531 2.21875 5.414062 3.835938 9.054688 9.691406 10.097656 16.242188 1.046875 6.550781-.59375 13.246093-4.550781 18.574218zm0 0" fill="#ef314c"/><path d="m355.113281 195.519531-39.679687 28.332031-15.957032-21.589843-12.96875-17.664063c-3.957031-5.328125-5.597656-12.023437-4.554687-18.574218 1.042969-6.550782 4.683594-12.40625 10.101563-16.242188 10.917968-7.6875 25.90625-5.722656 34.472656 4.523438 4.179687-2.652344 9.046875-4.015626 13.996094-3.925782 7.945312.152344 15.375 3.964844 20.136718 10.324219 3.980469 5.320313 5.632813 12.023437 4.589844 18.582031-1.046875 6.558594-4.703125 12.417969-10.136719 16.234375zm0 0" fill="#ef314c"/><path d="m204.84375 256.023438h102.398438c4.710937 0 8.535156 3.820312 8.535156 8.53125v17.066406c0 32.992187-26.746094 59.734375-59.734375 59.734375-32.992188 0-59.734375-26.742188-59.734375-59.734375v-17.066406c0-4.710938 3.820312-8.53125 8.535156-8.53125zm0 0" fill="#bb193b"/><path d="m281.640625 22.167969 48.855469-13.296875c2.515625-.75 5.230468-.292969 7.359375 1.238281 2.128906 1.527344 3.429687 3.957031 3.519531 6.578125v43.46875c-.089844 2.621094-1.390625 5.050781-3.519531 6.582031-2.128907 1.527344-4.84375 1.984375-7.359375 1.234375l-48.855469-13.296875h-51.199219l-48.855468 13.296875c-2.511719.75-5.230469.292969-7.359376-1.234375-2.128906-1.53125-3.425781-3.960937-3.519531-6.582031v-43.46875c.09375-2.621094 1.390625-5.050781 3.519531-6.578125 2.128907-1.53125 4.847657-1.988281 7.359376-1.238281l48.855468 13.296875zm0 0" fill="#6a1b9a"/><path d="m238.976562 17.089844h34.132813c4.710937 0 8.53125 3.820312 8.53125 8.53125v25.601562c0 4.710938-3.820313 8.53125-8.53125 8.53125h-34.132813c-4.714843 0-8.535156-3.820312-8.535156-8.53125v-25.601562c0-4.710938 3.820313-8.53125 8.535156-8.53125zm0 0" fill="#9d27b0"/><path d="m225.578125 184.597656-28.929687 39.253906-13.054688-9.300781c10.214844-9.585937 17.570312-21.8125 21.25-35.328125 3.515625-11.730468-.71875-24.402344-10.582031-31.660156 8.355469-3.988281 18.21875-3.140625 25.769531 2.21875 5.414062 3.835938 9.054688 9.691406 10.097656 16.242188 1.046875 6.550781-.59375 13.246093-4.550781 18.574218zm0 0" fill="#bb193b"/><path d="m355.113281 195.519531-39.679687 28.332031-15.957032-21.589843c11.886719-2.839844 23.183594-7.75 33.367188-14.507813 15.015625-10.066406 12.371094-25.941406 7.679688-37.375 7.945312.152344 15.375 3.964844 20.136718 10.324219 3.980469 5.320313 5.632813 12.023437 4.589844 18.582031-1.046875 6.558594-4.703125 12.417969-10.136719 16.234375zm0 0" fill="#bb193b"/><path d="m170.707031 170.6875c0 4.714844-3.820312 8.535156-8.53125 8.535156-4.714843 0-8.535156-3.820312-8.535156-8.535156 0-4.710938 3.820313-8.53125 8.535156-8.53125 4.710938 0 8.53125 3.820312 8.53125 8.53125zm0 0" fill="#fb7b76"/><path d="m307.242188 162.15625c0 4.710938-3.820313 8.53125-8.535157 8.53125-4.710937 0-8.53125-3.820312-8.53125-8.53125 0-4.714844 3.820313-8.535156 8.53125-8.535156 4.714844 0 8.535157 3.820312 8.535157 8.535156zm0 0" fill="#fb7b76"/><path d="m302.292969 319.339844c-11.316407 13.929687-28.304688 22.019531-46.25 22.019531-17.945313 0-34.9375-8.089844-46.25-22.019531 1.792969-3.660156 3.96875-7.121094 6.484375-10.324219 9.449218-12.320313 24.246094-19.335937 39.765625-18.859375 15.515625-.476562 30.316406 6.539062 39.765625 18.859375 2.515625 3.203125 4.6875 6.664063 6.484375 10.324219zm0 0" fill="#ad1457"/><path d="m295.808594 309.015625c-22.597656 20.367187-56.933594 20.367187-79.53125 0 9.449218-12.320313 24.246094-19.335937 39.765625-18.859375 15.515625-.476562 30.316406 6.539062 39.765625 18.859375zm0 0" fill="#e91e63"/><path d="m159.691406 412.949219c-1.746094.003906-3.445312-.535157-4.875-1.539063-55.230468-39.941406-87.515625-104.304687-86.507812-172.453125 0-76.070312 38.324218-145.433593 100.011718-181.042969 4.082032-2.355468 9.300782-.957031 11.65625 3.125 2.359376 4.082032.957032 9.300782-3.125 11.65625-56.425781 32.570313-91.476562 96.277344-91.476562 166.261719-1.007812 62.574219 28.554688 121.710938 79.207031 158.460938 3.058594 2.136719 4.375 6.007812 3.257813 9.5625-1.121094 3.554687-4.417969 5.972656-8.148438 5.96875zm0 0"/><path d="m352.390625 412.949219c-3.722656 0-7.015625-2.414063-8.136719-5.96875-1.117187-3.550781.195313-7.417969 3.246094-9.554688 50.65625-36.753906 80.21875-95.894531 79.207031-158.46875 0-69.984375-35.046875-133.691406-91.476562-166.261719-4.082031-2.355468-5.480469-7.574218-3.125-11.65625 2.359375-4.082031 7.578125-5.480468 11.660156-3.125 61.683594 35.609376 100.011719 104.972657 100.011719 181.042969 1.007812 68.148438-31.28125 132.511719-86.511719 172.449219-1.425781 1.003906-3.128906 1.542969-4.875 1.542969zm0 0"/><path d="m238.976562 512.023438h-102.402343c-14.128907-.015626-25.582031-11.46875-25.597657-25.601563v-25.601563c.042969-37.683593 30.582032-68.222656 68.265626-68.265624h17.066406c37.683594.042968 68.222656 30.582031 68.265625 68.265624v25.601563c-.015625 14.132813-11.464844 25.585937-25.597657 25.601563zm-59.734374-102.402344c-28.265626.03125-51.167969 22.9375-51.199219 51.199218v25.601563c.003906 4.710937 3.820312 8.53125 8.53125 8.535156h102.402343c4.710938-.003906 8.53125-3.824219 8.53125-8.535156v-25.601563c-.03125-28.261718-22.933593-51.167968-51.199218-51.199218zm0 0"/><path d="m256.042969 477.890625h-136.535157c-4.710937 0-8.53125-3.820313-8.53125-8.535156 0-4.710938 3.820313-8.535157 8.53125-8.535157h136.535157c4.710937 0 8.53125 3.824219 8.53125 8.535157 0 4.714843-3.820313 8.535156-8.53125 8.535156zm0 0"/><path d="m375.507812 512.023438h-102.398437c-14.132813-.015626-25.585937-11.46875-25.601563-25.601563v-25.601563c.042969-37.683593 30.582032-68.222656 68.269532-68.265624h17.066406c37.683594.042968 68.222656 30.582031 68.265625 68.265624v25.601563c-.015625 14.132813-11.46875 25.585937-25.601563 25.601563zm-59.730468-102.402344c-28.265625.03125-51.171875 22.9375-51.203125 51.199218v25.601563c.003906 4.710937 3.824219 8.53125 8.535156 8.535156h102.398437c4.710938-.003906 8.53125-3.824219 8.535157-8.535156v-25.601563c-.03125-28.261718-22.9375-51.167968-51.199219-51.199218zm0 0"/><path d="m392.574219 477.890625h-136.53125c-4.714844 0-8.535157-3.820313-8.535157-8.535156 0-4.710938 3.820313-8.535157 8.535157-8.535157h136.53125c4.714843 0 8.535156 3.824219 8.535156 8.535157 0 4.714843-3.820313 8.535156-8.535156 8.535156zm0 0"/><path d="m445.300781 114.332031c-7.359375-.066406-14.609375-1.753906-21.242187-4.941406-13.335938-6.511719-24.015625-17.421875-30.242188-30.890625-13.925781-29.210938-5.183594-62.542969 19.484375-74.308594 12.691407-5.839844 27.351563-5.5625 39.816407.75 13.308593 6.523438 23.964843 17.429688 30.175781 30.890625 6.550781 13.285157 8.339843 28.417969 5.066406 42.867188-2.898437 13.664062-11.894531 25.246093-24.417969 31.433593-5.820312 2.777344-12.191406 4.210938-18.640625 4.199219zm-13.386719-97.242187c-3.894531-.019532-7.742187.835937-11.265624 2.5-16.171876 7.714844-21.304688 30.847656-11.433594 51.558594 4.527344 9.914062 12.332031 17.960937 22.101562 22.789062 7.871094 4.085938 17.167969 4.378906 25.277344.792969 7.855469-4.019531 13.449219-11.40625 15.179688-20.058594 2.347656-10.632813.976562-21.746094-3.882813-31.488281v-.007813c-4.515625-9.898437-12.296875-17.945312-22.039063-22.792969-4.347656-2.109374-9.105468-3.234374-13.9375-3.292968zm0 0"/><path d="m469.375 221.890625h-35.667969c-4.714843 0-8.535156-3.820313-8.535156-8.535156 0-4.710938 3.820313-8.535157 8.535156-8.535157h24.515625l-26.347656-97.265624c-1.144531-4.515626 1.542969-9.117188 6.039062-10.335938 4.496094-1.21875 9.140626 1.394531 10.429688 5.871094l29.269531 108.03125c.699219 2.566406.15625 5.308594-1.457031 7.417968-1.617188 2.113282-4.121094 3.351563-6.78125 3.351563zm0 0"/><path d="m469.375 256.023438h-34.304688c-4.710937 0-8.53125-3.820313-8.53125-8.535157 0-4.710937 3.820313-8.53125 8.53125-8.53125h34.304688c7.917969 0 15.390625-3.660156 20.246094-9.917969 4.851562-6.257812 6.535156-14.40625 4.5625-22.074218l-30.308594-111.609375c-.855469-2.960938-.046875-6.152344 2.113281-8.347657 2.160157-2.199218 5.339844-3.0625 8.3125-2.257812 2.976563.804688 5.285157 3.152344 6.042969 6.136719l30.378906 111.867187c3.257813 12.90625.355469 26.59375-7.855468 37.070313-8.085938 10.253906-20.433594 16.226562-33.492188 16.199219zm0 0"/><path d="m66.765625 114.332031c-6.449219.011719-12.820313-1.421875-18.640625-4.203125-12.519531-6.183594-21.519531-17.765625-24.417969-31.429687-3.269531-14.445313-1.480469-29.578125 5.070313-42.867188 6.207031-13.457031 16.863281-24.367187 30.171875-30.894531 12.464843-6.308594 27.125-6.585938 39.816406-.75 12.527344 6.191406 21.542969 17.761719 24.484375 31.417969 3.316406 14.449219 1.550781 29.597656-5 42.894531-6.226562 13.46875-16.90625 24.378906-30.242188 30.890625-6.628906 3.1875-13.882812 4.875-21.242187 4.941406zm13.386719-97.242187c-4.832032.058594-9.589844 1.183594-13.933594 3.289062-9.746094 4.847656-17.527344 12.894532-22.042969 22.792969v.007813c-4.855469 9.742187-6.226562 20.859374-3.882812 31.488281 1.734375 8.652343 7.324219 16.042969 15.183593 20.058593 8.105469 3.589844 17.40625 3.296876 25.273438-.789062 9.769531-4.828125 17.578125-12.878906 22.101562-22.792969 4.855469-9.742187 6.203126-20.855469 3.824219-31.476562-1.769531-8.664063-7.382812-16.054688-15.257812-20.078125-3.523438-1.664063-7.371094-2.519532-11.265625-2.5zm0 0"/><path d="m78.359375 221.890625h-35.667969c-2.65625-.003906-5.160156-1.242187-6.773437-3.351563-1.617188-2.109374-2.15625-4.851562-1.460938-7.417968l29.269531-108.03125c1.292969-4.476563 5.9375-7.089844 10.433594-5.867188 4.496094 1.21875 7.183594 5.820313 6.039063 10.335938l-26.355469 97.261718h24.515625c4.710937 0 8.53125 3.824219 8.53125 8.535157 0 4.714843-3.820313 8.535156-8.53125 8.535156zm0 0"/><path d="m77 256.023438h-34.308594c-13.140625.003906-25.546875-6.046876-33.636718-16.402344-8.089844-10.355469-10.957032-23.859375-7.769532-36.605469l30.441406-112.128906c.757813-2.988281 3.066407-5.332031 6.042969-6.136719 2.972657-.804688 6.152344.054688 8.3125 2.253906 2.160157 2.195313 2.96875 5.386719 2.113281 8.347656l-30.378906 111.871094c-1.882812 7.644532-.148437 15.726563 4.710938 21.925782 4.855468 6.195312 12.292968 9.8125 20.164062 9.808593h34.308594c4.714844 0 8.535156 3.820313 8.535156 8.53125 0 4.714844-3.820312 8.535157-8.535156 8.535157zm0 0"/><path d="m196.632812 232.386719c-1.773437 0-3.503906-.558594-4.949218-1.59375l-39.699219-28.324219c-7.269531-5.160156-12.15625-13.03125-13.558594-21.835938-1.398437-8.804687.800781-17.800781 6.109375-24.964843 9.082032-12.214844 25.136719-16.960938 39.398438-11.644531 11.902344-9.492188 28.648437-9.964844 41.070312-1.167969 7.273438 5.15625 12.160156 13.027343 13.5625 21.832031 1.402344 8.808594-.800781 17.808594-6.113281 24.96875l-28.941406 39.257812c-1.609375 2.1875-4.164063 3.476563-6.878907 3.472657zm-24.660156-73.46875c-5.402344-.011719-10.492187 2.542969-13.707031 6.882812-2.597656 3.480469-3.675781 7.863281-2.992187 12.148438.683593 4.289062 3.070312 8.117187 6.617187 10.617187l32.867187 23.460938 23.957032-32.5c2.59375-3.480469 3.675781-7.863282 2.992187-12.148438-.683593-4.289062-3.070312-8.117187-6.617187-10.617187-7.253906-5.144531-17.246094-3.839844-22.933594 3-2.746094 3.300781-7.515625 4.0625-11.148438 1.773437-2.703124-1.714844-5.835937-2.625-9.03125-2.621094zm0 0"/><path d="m315.449219 232.386719c-2.710938.003906-5.265625-1.28125-6.875-3.46875l-28.941407-39.253907c-5.308593-7.160156-7.515624-16.160156-6.113281-24.964843 1.398438-8.804688 6.285157-16.675781 13.554688-21.835938 12.425781-8.792969 29.167969-8.316406 41.078125 1.167969 14.257812-5.3125 30.316406-.570312 39.398437 11.640625 5.308594 7.164063 7.507813 16.164063 6.105469 24.96875s-6.292969 16.671875-13.5625 21.832031l-39.691406 28.316406c-1.445313 1.039063-3.175782 1.597657-4.953125 1.597657zm-8.625-78.773438c-3.527344-.003906-6.96875 1.09375-9.839844 3.140625-3.546875 2.503906-5.929687 6.335938-6.609375 10.621094-.683594 4.289062.398438 8.667969 2.992188 12.148438l23.957031 32.5 32.859375-23.453126c3.550781-2.5 5.9375-6.328124 6.625-10.617187.683594-4.289063-.394532-8.671875-2.992188-12.15625-5.304687-7.140625-15.207031-8.996094-22.742187-4.265625-3.632813 2.289062-8.402344 1.527344-11.148438-1.773438-3.230469-3.902343-8.035156-6.152343-13.101562-6.144531zm0 0"/><path d="m228.789062 103.710938c-9.644531-3.75-20.175781-4.605469-30.300781-2.460938-4.835937 1.554688-9.347656 3.976562-13.3125 7.152344-2.179687 1.535156-3.984375 3.640625-6.207031 5.359375-1.949219 2.019531-3.777344 4.179687-5.941406 6.199219l-.257813.238281c-.933593.871093-2.347656.976562-3.402343.25-1.050782-.722657-1.457032-2.082031-.976563-3.269531 1.167969-2.867188 2.613281-5.636719 4.035156-8.472657 1.703125-2.726562 3.621094-5.316406 5.734375-7.746093 4.535156-5.070313 10.277344-8.917969 16.691406-11.195313 6.589844-2.296875 13.726563-2.542969 20.460938-.707031 6.476562 1.695312 12.3125 5.253906 16.78125 10.242187.820312.941407.917969 2.3125.242188 3.363281-.679688 1.046876-1.96875 1.523438-3.164063 1.164063zm0 0"/><path d="m279.988281 99.300781c4.46875-4.984375 10.304688-8.546875 16.78125-10.238281 6.734375-1.839844 13.871094-1.589844 20.460938.707031 6.414062 2.273438 12.15625 6.121094 16.695312 11.195313 2.109375 2.425781 4.027344 5.015625 5.730469 7.746094 1.421875 2.832031 2.871094 5.601562 4.035156 8.472656.484375 1.183594.078125 2.542968-.976562 3.269531-1.050782.722656-2.464844.621094-3.402344-.25l-.253906-.238281c-2.164063-2.019532-3.992188-4.183594-5.945313-6.203125-2.21875-1.71875-4.023437-3.820313-6.207031-5.359375-3.964844-3.171875-8.476562-5.597656-13.3125-7.148438-10.121094-2.148437-20.652344-1.292968-30.296875 2.457032l-.382813.113281c-1.195312.363281-2.484374-.109375-3.164062-1.15625-.679688-1.050781-.582031-2.421875.238281-3.363281zm0 0"/><path d="m256.140625 384.023438c-12.789063.011718-25.46875-2.394532-37.367187-7.101563-2.917969-1.058594-5.035157-3.621094-5.519532-6.6875-.488281-3.070313.734375-6.160156 3.183594-8.070313 2.453125-1.90625 5.75-2.332031 8.605469-1.109374 19.898437 7.792968 42 7.828124 61.925781.101562 4.347656-1.578125 9.164062.597656 10.851562 4.90625 1.691407 4.308594-.363281 9.175781-4.625 10.976562-11.804687 4.628907-24.375 7-37.054687 6.984376zm0 0"/><path d="m256.042969 349.890625c-37.683594-.046875-68.222657-30.582031-68.265625-68.269531v-17.066406c.011718-9.417969 7.644531-17.054688 17.066406-17.066407h102.398438c9.421874.011719 17.054687 7.648438 17.066406 17.066407v17.066406c-.042969 37.6875-30.582032 68.222656-68.265625 68.269531zm-51.199219-85.335937v17.066406c0 28.277344 22.921875 51.199218 51.199219 51.199218 28.277343 0 51.199219-22.921874 51.199219-51.199218v-17.066406zm0 0"/><path d="m302.300781 327.871094c-3.246093.007812-6.210937-1.832032-7.652343-4.738282-7.0625-14.925781-22.09375-24.441406-38.605469-24.441406s-31.546875 9.515625-38.609375 24.441406c-2.160156 4.09375-7.191406 5.714844-11.339844 3.660157-4.144531-2.058594-5.894531-7.046875-3.941406-11.246094 9.941406-20.734375 30.894531-33.925781 53.890625-33.925781 22.992187 0 43.949219 13.191406 53.890625 33.925781 1.007812 2.027344 1.167968 4.371094.449218 6.515625-.722656 2.148438-2.269531 3.917969-4.296874 4.921875-1.175782.585937-2.472657.890625-3.785157.886719zm0 0"/><path d="m273.109375 68.289062h-34.132813c-9.421874-.011718-17.054687-7.644531-17.066406-17.066406v-25.601562c.011719-9.417969 7.644532-17.054688 17.066406-17.066406h34.132813c9.417969.011718 17.054687 7.648437 17.066406 17.066406v25.601562c-.011719 9.421875-7.648437 17.054688-17.066406 17.066406zm-34.132813-42.667968v25.601562h34.148438l-.015625-25.601562zm0 0"/><path d="m179.265625 76.8125c-3.808594.007812-7.515625-1.238281-10.546875-3.539062-4.121094-3.101563-6.542969-7.960938-6.542969-13.117188v-43.46875c0-5.15625 2.421875-10.015625 6.542969-13.117188 4.308594-3.261718 9.886719-4.34375 15.101562-2.929687l48.863282 13.289063c4.546875 1.238281 7.230468 5.929687 5.992187 10.476562-1.238281 4.550781-5.925781 7.234375-10.476562 5.996094l-48.855469-13.296875-.101562 43.050781 48.957031-13.710938c4.550781-1.238281 9.238281 1.441407 10.476562 5.992188 1.238281 4.546875-1.445312 9.238281-5.992187 10.476562l-48.859375 13.292969c-1.484375.402344-3.015625.605469-4.558594.605469zm0 0"/><path d="m332.816406 76.8125c-1.539062 0-3.070312-.203125-4.558594-.605469l-48.855468-13.292969c-4.550782-1.238281-7.234375-5.929687-5.996094-10.476562 1.238281-4.550781 5.929688-7.230469 10.476562-5.992188l48.859376 13.292969.101562-43.050781-48.960938 13.714844c-4.546874 1.238281-9.238281-1.445313-10.476562-5.996094-1.238281-4.546875 1.445312-9.238281 5.996094-10.476562l48.855468-13.289063c5.21875-1.414063 10.796876-.332031 15.109376 2.929687 4.121093 3.101563 6.542968 7.960938 6.542968 13.117188v43.46875c0 5.15625-2.421875 10.015625-6.542968 13.117188-3.035157 2.300781-6.742188 3.546874-10.550782 3.539062zm0 0"/></svg>