<svg height="512pt" viewBox="0 -17 512.10142 512" width="512pt" xmlns="http://www.w3.org/2000/svg"><path d="m53.359375 298.375 28.441406-47.53125-4.523437-59.050781v.085937l-48.949219 81.90625c9.199219 7.28125 17.589844 15.523438 25.03125 24.589844zm0 0" fill="#ff5722"/><path d="m434.65625 189.832031c3.15625 1.652344 5.722656 4.246094 7.335938 7.425781l32.855468 65.789063c7.855469 15.582031 11.167969 33.058594 9.554688 50.433594l-4.007813 44.289062-34.050781-2.21875 4.097656-45.144531c.960938-11.074219-1.132812-22.203125-6.058594-32.167969l-13.996093-27.992187zm0 0" fill="#ff5722"/><path d="m435.25 204.851562c.929688 65.34375-29.972656 127.0625-82.855469 165.460938l-97.28125 72.53125-12.714843-9.640625-82.6875-62.890625c-16.207032-11.371094-30.496094-25.253906-42.324219-41.132812l-22.613281-38.65625c-10.3125-23.449219-16.296876-48.570313-17.664063-74.152344-.171875-3.839844-.257813-7.679688-.257813-11.519532-.007812-8.5.503907-16.992187 1.535157-25.429687 10.839843-91.820313 79.617187-163.753906 164.863281-170.242187 4.269531-.425782 8.535156-.59375 12.800781-.59375 98.988281 0 179.199219 87.890624 179.199219 196.265624zm0 0" fill="#fec108"/><path d="m409.652344 204.851562c.929687 65.34375-29.976563 127.0625-82.859375 165.460938l-84.394531 62.890625-82.6875-62.890625c-16.207032-11.371094-30.496094-25.253906-42.324219-41.132812l-22.613281-38.65625c-10.3125-23.449219-16.296876-48.570313-17.664063-74.152344-.171875-3.839844-.257813-7.679688-.257813-11.519532-.007812-8.5.503907-16.992187 1.535157-25.429687 10.839843-91.820313 79.617187-163.753906 164.863281-170.242187 93.015625 7.085937 166.402344 91.992187 166.402344 195.671874zm0 0" fill="#ffdc00"/><path d="m256.050781 426.71875v25.597656c-.027343 9.414063-7.652343 17.039063-17.066406 17.066406h-102.398437c-9.414063-.027343-17.039063-7.652343-17.066407-17.066406v-25.597656c-.070312-31.34375 24.195313-57.363281 55.464844-59.480469 1.417969-.167969 2.839844-.253906 4.265625-.253906h17.070312c15.84375-.011719 31.042969 6.277344 42.25 17.480469 11.203126 11.207031 17.492188 26.40625 17.480469 42.253906zm0 0" fill="#283593"/><path d="m230.453125 426.71875v25.597656c-.027344 9.414063-7.652344 17.039063-17.066406 17.066406h-76.800781c-9.414063-.027343-17.039063-7.652343-17.066407-17.066406v-25.597656c-.070312-31.34375 24.195313-57.363281 55.464844-59.480469 31.273437 2.117188 55.535156 28.136719 55.46875 59.480469zm0 0" fill="#3f51b5"/><path d="m392.585938 426.71875v25.597656c-.027344 9.414063-7.652344 17.039063-17.066407 17.066406h-102.402343c-9.414063-.027343-17.039063-7.652343-17.066407-17.066406v-25.597656c-.066406-31.34375 24.195313-57.363281 55.46875-59.480469 1.414063-.167969 2.839844-.253906 4.265625-.253906h17.066406c15.847657-.011719 31.046876 6.277344 42.25 17.480469 11.207032 11.207031 17.496094 26.40625 17.484376 42.253906zm0 0" fill="#283593"/><path d="m366.984375 426.71875v25.597656c-.027344 9.414063-7.652344 17.039063-17.066406 17.066406h-76.800781c-9.414063-.027343-17.039063-7.652343-17.066407-17.066406v-25.597656c-.066406-31.34375 24.195313-57.363281 55.46875-59.480469 31.269531 2.117188 55.535157 28.136719 55.464844 59.480469zm0 0" fill="#3f51b5"/><path d="m221.917969 132.316406c0-21.207031-7.640625-38.398437-17.066407-38.398437-9.425781 0-17.066406 17.191406-17.066406 38.398437 0 21.207032 7.640625 38.402344 17.066406 38.402344 9.425782 0 17.066407-17.195312 17.066407-38.402344zm0 0" fill="#3f51b5"/><path d="m214.332031 115.25c0-11.78125-4.242187-21.332031-9.480469-21.332031-5.234374 0-9.480468 9.550781-9.480468 21.332031s4.246094 21.335938 9.480468 21.335938c5.238282 0 9.480469-9.554688 9.480469-21.335938zm0 0" fill="#f5f5f5"/><path d="m324.320312 132.316406c0-21.207031-7.644531-38.398437-17.070312-38.398437-9.421875 0-17.066406 17.191406-17.066406 38.398437 0 21.207032 7.644531 38.402344 17.066406 38.402344 9.425781 0 17.070312-17.195312 17.070312-38.402344zm0 0" fill="#3f51b5"/><path d="m316.734375 115.25c0-11.78125-4.246094-21.332031-9.484375-21.332031-5.234375 0-9.480469 9.550781-9.480469 21.332031s4.246094 21.335938 9.480469 21.335938c5.238281 0 9.484375-9.554688 9.484375-21.335938zm0 0" fill="#f5f5f5"/><path d="m169.695312 268.425781-72.535156 27.304688-52.90625 19.96875c-.417968.105469-.851562.132812-1.28125.085937l13.367188-22.351562c-7.929688-8.441406-16.726563-16.019532-26.25-22.609375l-17.492188 29.257812c-.308594.457031-.566406.941407-.769531 1.453125-5.84375 12.125-3.714844 26.589844 5.375 36.519532 6.679687 7.542968 16.292969 11.835937 26.367187 11.777343 4.097657-.019531 8.160157-.714843 12.035157-2.046875l59.21875-22.273437 70.570312-26.625zm0 0" fill="#ff5722"/><path d="m466.3125 452.230469c-5.273438.433593-10.570312-.414063-15.445312-2.472657-17.402344-8.121093-28.753907-25.347656-29.355469-44.542968-1.707031-23.296875 9.816406-43.777344 27.050781-50.605469 3.222656-1.390625 6.65625-2.226563 10.15625-2.472656 22.613281-1.707031 42.582031 19.371093 44.628906 46.933593 2.046875 27.648438-14.507812 51.453126-37.035156 53.160157zm0 0" fill="#f57c00"/><path d="m450.867188 449.757812c-17.402344-8.121093-28.753907-25.347656-29.355469-44.542968-1.707031-23.296875 9.816406-43.777344 27.050781-50.605469 17.296875 8.175781 28.566406 25.339844 29.183594 44.460937 1.707031 23.296876-9.726563 43.859376-26.878906 50.6875zm0 0" fill="#ff9801"/><path d="m219.613281 303.324219c10.410157 8.113281 23.242188 12.5 36.4375 12.460937 27.484375.046875 51.457031-18.664062 58.078125-45.339844 6.625-26.675781-5.808594-54.429687-30.125-67.242187s-54.238281-7.375-72.496094 13.167969zm0 0" fill="#bb193b"/><path d="m304.007812 291.550781c-9.511718 12.914063-23.828124 21.445313-39.714843 23.660157-15.886719 2.21875-31.996094-2.066407-44.679688-11.886719l-1.960937-20.734375 1.535156-1.28125c9.214844-8.875 20.96875-14.660156 33.621094-16.554688h7.339844c13.613281 2.195313 26.171874 8.683594 35.839843 18.519532 2.984375 2.816406 5.632813 5.628906 8.019531 8.277343zm0 0" fill="#ad1457"/><path d="m295.988281 283.273438c-21.355469 19.402343-53.566406 20.664062-76.375 2.984374l-.425781-4.949218c9.214844-8.875 20.96875-14.660156 33.621094-16.554688h7.339844c13.613281 2.195313 26.171874 8.683594 35.839843 18.519532zm0 0" fill="#e91e63"/><path d="m243.21875 290.425781c-20.753906 18.34375-49.710938 19.570313-64.71875 2.589844-15.011719-16.980469-10.390625-45.738281 10.363281-64.078125 20.753907-18.34375 49.742188-19.457031 64.753907-2.476562 15.007812 16.980468 10.355468 45.617187-10.398438 63.964843zm0 0" fill="#ff9801"/><path d="m159.703125 378.84375c-1.746094.003906-3.449219-.53125-4.875-1.535156-18.246094-12.789063-34.136719-28.644532-46.964844-46.863282-1.789062-2.484374-2.105469-5.738281-.832031-8.527343 1.269531-2.785157 3.9375-4.675781 6.988281-4.953125s6.015625 1.101562 7.769531 3.613281c11.695313 16.609375 26.175782 31.070313 42.804688 42.738281 3.054688 2.132813 4.375 6.003906 3.253906 9.558594-1.117187 3.554688-4.417968 5.972656-8.144531 5.96875zm0 0"/><path d="m352.402344 378.84375c-3.730469.007812-7.03125-2.410156-8.152344-5.964844-1.121094-3.558594.199219-7.429687 3.257812-9.5625 50.65625-36.75 80.21875-95.890625 79.210938-158.464844 0-103.519531-76.5625-187.734374-170.667969-187.734374-89.570312 0-164.351562 76.953124-170.257812 175.191406-.238281 4.09375-.40625 8.277344-.40625 12.542968-.085938 30.167969 6.574219 59.972657 19.492187 87.234376 2.011719 4.261718.1875 9.347656-4.074218 11.359374-4.261719 2.015626-9.347657.191407-11.359376-4.070312-13.988281-29.542969-21.207031-61.835938-21.125-94.523438 0-4.609374.171876-9.132812.441407-13.5625 6.441406-107.238281 88.707031-191.2382808 187.289062-191.2382808 103.519531 0 187.734375 91.8710938 187.734375 204.8007808 1.007813 68.152344-31.273437 132.515626-86.503906 172.457032-1.429688 1-3.132812 1.539062-4.878906 1.535156zm0 0"/><path d="m238.984375 477.917969h-102.398437c-14.132813-.015625-25.585938-11.46875-25.601563-25.601563v-25.597656c.042969-37.6875 30.582031-68.226562 68.265625-68.269531h17.070312c37.683594.042969 68.222657 30.582031 68.265626 68.269531v25.597656c-.015626 14.132813-11.46875 25.585938-25.601563 25.601563zm-59.734375-102.402344c-28.261719.03125-51.167969 22.9375-51.199219 51.203125v25.597656c.007813 4.710938 3.824219 8.527344 8.535157 8.535156h102.398437c4.710937-.007812 8.527344-3.824218 8.535156-8.535156v-25.597656c-.03125-28.265625-22.9375-51.171875-51.199219-51.203125zm0 0"/><path d="m256.050781 443.785156h-136.53125c-4.714843 0-8.535156-3.820312-8.535156-8.535156 0-4.710938 3.820313-8.53125 8.535156-8.53125h136.53125c4.714844 0 8.535157 3.820312 8.535157 8.53125 0 4.714844-3.820313 8.535156-8.535157 8.535156zm0 0"/><path d="m375.519531 477.917969h-102.402343c-14.128907-.015625-25.582032-11.46875-25.597657-25.601563v-25.597656c.042969-37.6875 30.582031-68.226562 68.265625-68.269531h17.066406c37.683594.042969 68.222657 30.582031 68.265626 68.269531v25.597656c-.015626 14.132813-11.464844 25.585938-25.597657 25.601563zm-59.734375-102.402344c-28.265625.03125-51.167968 22.9375-51.199218 51.203125v25.597656c.003906 4.710938 3.824218 8.527344 8.53125 8.535156h102.402343c4.710938-.007812 8.527344-3.824218 8.53125-8.535156v-25.597656c-.03125-28.265625-22.933593-51.171875-51.199219-51.203125zm0 0"/><path d="m392.585938 443.785156h-136.535157c-4.710937 0-8.53125-3.820312-8.53125-8.535156 0-4.710938 3.820313-8.53125 8.53125-8.53125h136.535157c4.710937 0 8.53125 3.820312 8.53125 8.53125 0 4.714844-3.820313 8.535156-8.53125 8.535156zm0 0"/><path d="m204.851562 179.25c-16.808593 0-25.601562-23.613281-25.601562-46.933594 0-23.320312 8.792969-46.933594 25.601562-46.933594 16.8125 0 25.601563 23.613282 25.601563 46.933594 0 23.320313-8.789063 46.933594-25.601563 46.933594zm-.171874-76.820312c-2.046876.773437-8.359376 11.140624-8.359376 29.886718s6.3125 29.113282 8.703126 29.886719c2.046874-.773437 8.363281-11.140625 8.363281-29.886719s-6.316407-29.113281-8.707031-29.886718zm0 0"/><path d="m307.25 179.25c-16.808594 0-25.597656-23.613281-25.597656-46.933594 0-23.320312 8.789062-46.933594 25.597656-46.933594 16.8125 0 25.601562 23.613282 25.601562 46.933594 0 23.320313-8.789062 46.933594-25.601562 46.933594zm-.167969-76.820312c-2.046875.773437-8.363281 11.140624-8.363281 29.886718s6.316406 29.113282 8.703125 29.886719c2.046875-.773437 8.363281-11.140625 8.363281-29.886719s-6.316406-29.113281-8.703125-29.886718zm0 0"/><path d="m228.796875 61.988281c-9.644531-3.75-20.175781-4.605469-30.300781-2.457031-4.835938 1.550781-9.347656 3.976562-13.3125 7.152344-2.179688 1.535156-3.980469 3.636718-6.203125 5.355468-1.953125 2.019532-3.78125 4.179688-5.945313 6.203126l-.253906.234374c-.9375.875-2.351562.980469-3.40625.253907-1.050781-.726563-1.457031-2.085938-.976562-3.269531 1.167968-2.871094 2.613281-5.640626 4.035156-8.472657 1.703125-2.730469 3.621094-5.320312 5.730468-7.746093 4.539063-5.074219 10.28125-8.921876 16.695313-11.195313 6.59375-2.296875 13.726563-2.542969 20.460937-.707031 6.476563 1.691406 12.3125 5.253906 16.78125 10.238281.820313.941406.917969 2.3125.242188 3.363281-.675781 1.050782-1.96875 1.523438-3.164062 1.164063zm0 0"/><path d="m280 57.578125c4.464844-4.984375 10.300781-8.546875 16.78125-10.238281 6.734375-1.835938 13.867188-1.589844 20.460938.707031 6.414062 2.273437 12.152343 6.125 16.691406 11.195313 2.113281 2.425781 4.03125 5.015624 5.734375 7.746093 1.421875 2.835938 2.867187 5.601563 4.035156 8.472657.480469 1.183593.074219 2.542968-.980469 3.269531-1.050781.722656-2.464844.621093-3.398437-.25l-.257813-.238281c-2.164062-2.019532-3.992187-4.183594-5.941406-6.203126-2.21875-1.71875-4.027344-3.816406-6.207031-5.355468-3.964844-3.175782-8.476563-5.597656-13.3125-7.152344-10.125-2.148438-20.65625-1.292969-30.300781 2.457031l-.378907.117188c-1.195312.359375-2.488281-.113281-3.164062-1.160157-.679688-1.050781-.582031-2.417968.234375-3.363281zm0 0"/><path d="m206.828125 313.464844c-13.171875.324218-25.832031-5.070313-34.722656-14.792969-18.144531-20.527344-13.160157-54.679687 11.109375-76.128906 24.234375-21.4375 58.695312-22.199219 76.796875-1.734375 18.097656 20.480468 13.101562 54.574218-11.140625 76.007812v.003906c-11.535156 10.457032-26.476563 16.371094-42.042969 16.644532zm18.34375-90.546875c-11.378906.308593-22.269531 4.714843-30.660156 12.40625-17.21875 15.222656-21.535157 38.570312-9.625 52.042969 11.832031 13.378906 35.453125 11.875 52.679687-3.335938v.003906c17.195313-15.203125 21.527344-38.492187 9.660156-51.921875-5.667968-6.117187-13.714843-9.472656-22.050781-9.195312zm0 0"/><path d="m43.300781 324.335938c-.289062 0-.511719-.019532-.660156-.027344-3-.183594-5.691406-1.898438-7.121094-4.542969-1.417969-2.617187-1.371093-5.785156.128907-8.359375l38.824218-64.941406c1.566406-2.617188 4.40625-4.199219 7.457032-4.152344 3.046874.046875 5.839843 1.714844 7.324218 4.378906 1.484375 2.664063 1.433594 5.914063-.128906 8.53125l-26.59375 44.480469 104.152344-39.265625c4.414062-1.660156 9.335937.570312 10.996094 4.980469 1.664062 4.410156-.566407 9.332031-4.976563 10.996093l-125.433594 47.273438c-1.285156.402344-2.621093.621094-3.96875.648438zm0 0"/><path d="m43.570312 358.367188c-12.523437.09375-24.472656-5.253907-32.753906-14.652344-11.300781-12.363282-14.015625-30.332032-6.871094-45.480469.351563-.855469.777344-1.675781 1.273438-2.453125l64.566406-107.996094c1.847656-3.433594 5.789063-5.171875 9.570313-4.226562 3.78125.945312 6.441406 4.339844 6.453125 8.234375.003906 1.570312-.414063 3.109375-1.207032 4.464843l-64.683593 108.203126c-4.707031 9.144531-3.265625 20.25 3.625 27.886718 7.347656 8.210938 18.949219 11.125 29.300781 7.359375l129.535156-48.804687c2.863282-1.117188 6.105469-.613282 8.488282 1.328125 2.386718 1.9375 3.542968 5.007812 3.035156 8.035156-.511719 3.03125-2.609375 5.550781-5.496094 6.605469l-129.800781 48.898437c-4.832031 1.695313-9.914063 2.574219-15.035157 2.597657zm0 0"/><path d="m463.683594 460.851562c-12.851563-.199218-25.046875-5.722656-33.671875-15.253906-20.394531-22.601562-22.917969-56.132812-6.144531-81.535156 7.546874-11.808594 20.214843-19.375 34.191406-20.421875 13.980468-1.042969 27.632812 4.558594 36.847656 15.117187 10.046875 10.898438 16.03125 24.925782 16.949219 39.722657v-.007813c1.292969 14.757813-2.519531 29.511719-10.796875 41.796875-7.652344 11.6875-20.234375 19.226563-34.148438 20.460938-1.078125.082031-2.152344.121093-3.226562.121093zm-2.460938-100.261718c-.628906 0-1.261718.023437-1.894531.070312-8.796875.902344-16.703125 5.757813-21.488281 13.195313-12.113282 18.742187-10.261719 43.253906 4.523437 59.964843 5.867188 6.640626 14.417969 10.273438 23.269531 9.894532 8.78125-.902344 16.667969-5.761719 21.417969-13.203125 6.03125-9.0625 8.777344-19.917969 7.777344-30.761719-.621094-10.863281-4.960937-21.183594-12.292969-29.226562-5.421875-6.117188-13.140625-9.714844-21.3125-9.933594zm0 0"/><path d="m446.351562 364.082031c-.253906 0-.515624-.011719-.777343-.035156-2.253907-.203125-4.335938-1.292969-5.785157-3.03125-1.449218-1.738281-2.148437-3.984375-1.945312-6.238281l4.097656-45.140625c.820313-9.503907-.980468-19.054688-5.207031-27.609375l-13.980469-27.964844c-2.105468-4.214844-.398437-9.34375 3.816406-11.449219 4.21875-2.109375 9.34375-.402343 11.453126 3.816407l13.992187 27.988281c5.621094 11.375 8.015625 24.070312 6.929687 36.707031l-4.097656 45.191406c-.394531 4.398438-4.082031 7.765625-8.496094 7.765625zm0 0"/><path d="m480.402344 366.300781c-.257813 0-.511719-.011719-.78125-.03125-2.253906-.207031-4.335938-1.296875-5.785156-3.035156-1.449219-1.738281-2.148438-3.984375-1.941407-6.238281l4.007813-44.285156c1.46875-15.789063-1.539063-31.671876-8.675782-45.832032l-32.863281-65.8125c-.820312-1.578125-2.109375-2.867187-3.6875-3.6875-2.742187-1.394531-4.519531-4.164062-4.648437-7.238281-.132813-3.074219 1.402344-5.980469 4.015625-7.605469 2.613281-1.628906 5.898437-1.722656 8.597656-.246094 4.703125 2.472657 8.527344 6.335938 10.949219 11.066407l32.894531 65.875c8.566406 17.007812 12.175781 36.082031 10.417969 55.042969l-4.007813 44.261718c-.402343 4.394532-4.082031 7.761719-8.492187 7.765625zm0 0"/><path d="m256.050781 324.316406c-15.101562.066406-29.785156-4.957031-41.683593-14.261718-2.460938-1.855469-3.730469-4.894532-3.320313-7.949219.40625-3.054688 2.433594-5.648438 5.296875-6.792969 2.859375-1.140625 6.117188-.652344 8.515625 1.285156 8.90625 6.957032 19.894531 10.710938 31.191406 10.652344 23.558594.050781 44.109375-15.980469 49.792969-38.839844 5.6875-22.863281-4.960938-46.652344-25.792969-57.644531-20.835937-10.992187-46.484375-6.347656-62.144531 11.25-2.015625 2.289063-5.097656 3.324219-8.085938 2.722656-2.992187-.605469-5.429687-2.757812-6.402343-5.648437-.972657-2.886719-.328125-6.078125 1.691406-8.363282 20.859375-23.445312 55.019531-29.640624 82.78125-15.011718s41.96875 46.304687 34.429687 76.765625c-7.542968 30.460937-34.886718 51.851562-66.269531 51.835937zm0 0"/><path d="m304.015625 300.082031c-2.445313.003907-4.773437-1.042969-6.394531-2.875-8.90625-10.054687-22.789063-22.371093-38.34375-23.964843-4.617188-.5625-7.933594-4.71875-7.457032-9.34375.472657-4.625 4.5625-8.019532 9.199219-7.632813 19.570313 3.386719 37.179688 13.949219 49.378907 29.625 2.226562 2.511719 2.773437 6.097656 1.394531 9.160156-1.378907 3.0625-4.421875 5.03125-7.777344 5.03125zm0 0"/></svg>