<svg height="512pt" viewBox="0 0 512.01888 512" width="512pt" xmlns="http://www.w3.org/2000/svg"><path d="m78.011719 395.035156c-3.15625 4.011719-6.484375 7.933594-9.898438 11.773438-12.605469 13.949218-34.113281 15.082031-48.113281 2.539062-14-12.546875-15.226562-34.050781-2.742188-48.105468 7.546876-8.453126 14.371094-17.53125 20.394532-27.136719zm0 0" fill="#ff9801"/><path d="m247.484375 8.558594c-101.269531-.015625-190.675781 66.109375-220.3125 162.949218-29.640625 96.835938 7.441406 201.675782 91.375 258.34375h.085937l69.121094 48.042969v8.53125c.027344 9.414063 7.652344 17.039063 17.066406 17.066407h145.066407c9.414062-.027344 17.039062-7.652344 17.066406-17.066407v-50.429687c.765625-.511719 1.535156-.941406 2.304687-1.453125 3.753907-2.386719 7.507813-4.863281 11.089844-7.421875.011719.089844.042969.175781.085938.253906 1.058594 2.222656 2.570312 4.199219 4.4375 5.804688.597656.597656 1.28125 1.277343 1.964844 1.875 1.257812 1.097656 2.597656 2.097656 4.007812 2.988281.6875.5625 1.429688 1.046875 2.21875 1.449219.800781.449218 1.628906.847656 2.476562 1.195312.6875.335938 1.402344.621094 2.132813.855469 1.109375.425781 2.21875.765625 3.328125 1.109375 2.8125.75 5.710938 1.121094 8.617188 1.109375 9.707031.011719 18.960937-4.117188 25.429687-11.351563 43.410156-48.574218 67.726563-111.242187 68.4375-176.382812 1.023437-76.800782-51.199219-247.46875-256-247.46875zm0 0" fill="#f0c419"/><path d="m503.484375 256.027344c-.710937 65.140625-25.027344 127.808594-68.4375 176.382812-6.46875 7.234375-15.722656 11.363282-25.429687 11.351563-2.90625.011719-5.804688-.359375-8.617188-1.109375-1.109375-.34375-2.21875-.683594-3.328125-1.109375-.730469-.234375-1.445313-.519531-2.132813-.855469-.847656-.347656-1.675781-.746094-2.476562-1.195312-.789062-.402344-1.53125-.886719-2.21875-1.449219-1.410156-.890625-2.75-1.890625-4.007812-2.988281-.683594-.597657-1.367188-1.277344-1.964844-1.875-1.867188-1.605469-3.378906-3.582032-4.4375-5.804688-.042969-.078125-.074219-.164062-.085938-.253906-3.582031 2.558594-7.335937 5.035156-11.089844 7.421875-.769531.511719-1.539062.941406-2.304687 1.453125-20.9375 12.726562-43.785156 22.003906-67.671875 27.476562h-.253906l-.339844-2.644531c-8.617188-20.695313-28.789062-34.210937-51.203125-34.304687h-8.53125c-20.351563.027343-38.765625 12.078124-46.933594 30.71875-.6875 1.617187-1.285156 3.269531-1.792969 4.949218-1.648437 5.042969-2.484374 10.3125-2.472656 15.617188v.085937l-69.121094-48.042969h-.085937c-83.933594-56.667968-121.015625-161.507812-91.375-258.34375 29.636719-96.839843 119.042969-162.964843 220.3125-162.949218 204.800781 0 257.023437 170.667968 256 247.46875zm0 0" fill="#ffdc00"/><path d="m380.347656 427.121094c-3.582031 2.558594-7.335937 5.035156-11.089844 7.421875-13.527343-12.691407-14.472656-33.851563-2.136718-47.699219 26.3125-29.355469 43.144531-65.972656 48.292968-105.054688 1.207032-9.3125 9.132813-16.285156 18.523438-16.289062-2.128906 44.964844-19.699219 87.820312-49.746094 121.34375-9.945312 11.144531-11.5 27.453125-3.84375 40.277344zm0 0" fill="#fec108"/><path d="m192.019531 457.242188c-8.152343-18.652344-26.578125-30.703126-46.933593-30.695313h-8.535157c-28.292969.046875-51.207031 23.003906-51.199219 51.296875v8.550781c.019532 9.421875 7.644532 17.0625 17.066407 17.097657h145.066406zm0 0" fill="#3f51b5"/><path d="m366.953125 435.996094v50.429687c-.027344 9.414063-7.652344 17.039063-17.066406 17.066407h-145.066407c-9.414062-.027344-17.039062-7.652344-17.066406-17.066407v-8.617187c-.011718-5.304688.824219-10.574219 2.472656-15.617188.507813-1.679687 1.105469-3.332031 1.792969-4.949218 8.167969-18.640626 26.582031-30.691407 46.933594-30.71875h8.53125c22.414063.09375 42.585937 13.609374 51.203125 34.304687l.59375 2.644531c23.886719-5.472656 46.734375-14.75 67.671875-27.476562zm0 0" fill="#3f51b5"/><path d="m380.433594 427.375c1.300781 2.066406 2.785156 4.007812 4.4375 5.804688-1.867188-1.605469-3.378906-3.582032-4.4375-5.804688zm0 0" fill="#f0c419"/><path d="m366.953125 435.996094v17.066406c-15.945313 9.6875-33.011719 17.390625-50.824219 22.933594-3.960937 1.199218-8.253906.449218-11.578125-2.019532-3.320312-2.46875-5.273437-6.367187-5.269531-10.503906 23.886719-5.472656 46.734375-14.75 67.671875-27.476562zm0 0" fill="#283593"/><path d="m238.953125 349.878906h42.664063c4.707031-.015625 8.519531-3.828125 8.535156-8.535156v-8.535156c0-42.414063-34.382813-76.796875-76.800782-76.796875-42.414062 0-76.800781 34.382812-76.800781 76.796875v8.535156c.015625 4.707031 3.828125 8.519531 8.535157 8.535156zm0 0" fill="#bb193b"/><path d="m290.152344 332.828125v8.53125c-.015625 4.707031-3.828125 8.519531-8.535156 8.535156h-42.664063v8.53125c0 9.054688-3.59375 17.738281-9.996094 24.140625-6.402343 6.402344-15.085937 9.996094-24.136719 9.992188-2.882812.027344-5.753906-.347656-8.535156-1.109375-5.890625-1.539063-11.277344-4.601563-15.617187-8.875-6.378907-6.417969-9.964844-15.097657-9.980469-24.148438v-17.066406c.007812-23.558594 19.105469-42.65625 42.664062-42.667969h68.78125c5.28125 10.605469 8.027344 22.289063 8.019532 34.136719zm0 0" fill="#ad1457"/><path d="m273.085938 332.828125v8.53125c-.015626 4.707031-3.828126 8.519531-8.535157 8.535156h-42.664062v8.53125c.011719 15.566407-10.523438 29.15625-25.601563 33.023438-5.890625-1.539063-11.277344-4.601563-15.617187-8.875-6.378907-6.417969-9.964844-15.097657-9.980469-24.148438v-17.066406c.007812-23.558594 19.105469-42.65625 42.664062-42.667969h51.710938c5.285156 10.605469 8.03125 22.289063 8.023438 34.136719zm0 0" fill="#e91e63"/><path d="m174.441406 210.273438c12.671875-12.015626 16.746094-30.542969 10.277344-46.765626-6.46875-16.222656-22.167969-26.867187-39.632812-26.867187-17.464844 0-33.164063 10.644531-39.632813 26.867187-6.46875 16.222657-2.394531 34.75 10.277344 46.765626zm0 0" fill="#f5f5f5"/><path d="m162.039062 179.292969c0-14.105469-11.410156-25.535157-25.488281-25.535157-14.074219 0-25.484375 11.429688-25.484375 25.535157 0 14.101562 11.410156 25.535156 25.484375 25.535156 14.078125 0 25.488281-11.433594 25.488281-25.535156zm0 0" fill="#3f51b5"/><path d="m310.972656 210.273438c.257813-.257813.597656-.515626.855469-.769532 16.628906-16.671875 16.605469-43.667968-.050781-60.316406-16.660156-16.644531-43.65625-16.644531-60.316406 0-16.660157 16.648438-16.679688 43.644531-.050782 60.316406.257813.253906.597656.511719.855469.769532zm0 0" fill="#f5f5f5"/><path d="m298.570312 179.292969c-.007812 12.167969-8.613281 22.640625-20.554687 25.003906-11.9375 2.367187-23.886719-4.03125-28.539063-15.277344-4.648437-11.25-.707031-24.214843 9.417969-30.972656s23.609375-5.421875 32.210938 3.1875c4.789062 4.789063 7.476562 11.285156 7.464843 18.058594zm0 0" fill="#3f51b5"/><path d="m366.953125 273.078125c0 14.136719-11.460937 25.597656-25.601563 25.597656-14.136718 0-25.597656-11.460937-25.597656-25.597656 0-14.140625 25.597656-42.667969 25.597656-42.667969s25.601563 28.527344 25.601563 42.667969zm0 0" fill="#0377bc"/><path d="m360.558594 262.421875c0 10.605469-8.597656 19.203125-19.207032 19.203125-10.605468 0-19.207031-8.597656-19.207031-19.203125 0-10.609375 19.207031-32.011719 19.207031-32.011719s19.207032 21.402344 19.207032 32.011719zm0 0" fill="#02a9f4"/><path d="m110.953125 290.144531c0 14.136719-11.460937 25.597657-25.601563 25.597657-14.136718 0-25.597656-11.460938-25.597656-25.597657 0-14.140625 25.597656-42.667969 25.597656-42.667969s25.601563 28.527344 25.601563 42.667969zm0 0" fill="#0377bc"/><path d="m104.558594 279.488281c0 6.859375-3.660156 13.199219-9.601563 16.632813-5.945312 3.429687-13.265625 3.429687-19.207031 0-5.941406-3.433594-9.605469-9.773438-9.605469-16.632813 0-10.609375 19.207031-32.011719 19.207031-32.011719s19.207032 21.402344 19.207032 32.011719zm0 0" fill="#02a9f4"/><path d="m162.152344 170.691406c0 4.714844-3.820313 8.535156-8.535156 8.535156-4.710938 0-8.53125-3.820312-8.53125-8.535156 0-4.710937 3.820312-8.53125 8.53125-8.53125 4.714843 0 8.535156 3.820313 8.535156 8.53125zm0 0" fill="#f5f5f5"/><path d="m298.6875 170.691406c0 4.714844-3.824219 8.535156-8.535156 8.535156-4.714844 0-8.535156-3.820312-8.535156-8.535156 0-4.710937 3.820312-8.53125 8.535156-8.53125 4.710937 0 8.535156 3.820313 8.535156 8.53125zm0 0" fill="#f5f5f5"/><path d="m503.484375 256.027344c-.710937 65.140625-25.027344 127.808594-68.4375 176.382812-6.46875 7.234375-15.722656 11.363282-25.429687 11.351563-2.90625.011719-5.804688-.359375-8.617188-1.109375-1.109375-.34375-2.21875-.683594-3.328125-1.109375-.300781-.0625-.589844-.179688-.851563-.34375 4.847657-1.878907 9.179688-4.894531 12.628907-8.789063 43.40625-48.574218 67.722656-111.242187 68.4375-176.382812 1.023437-74.921875-48.726563-239.277344-241.496094-247.125 3.671875-.257813 7.339844-.34375 11.09375-.34375 204.800781 0 257.023437 170.667968 256 247.46875zm0 0" fill="#fec108"/><path d="m366.953125 435.996094v50.429687c-.027344 9.414063-7.652344 17.039063-17.066406 17.066407h-25.601563c9.414063-.027344 17.039063-7.652344 17.066406-17.066407v-37.035156c8.808594-3.917969 17.359376-8.394531 25.601563-13.394531zm0 0" fill="#283593"/><path d="m349.886719 512.007812h-145.066407c-14.132812-.015624-25.585937-11.464843-25.601562-25.597656v-8.621094c-.007812-6.207031.96875-12.375 2.902344-18.273437.574218-1.902344 1.253906-3.769531 2.03125-5.601563 9.503906-21.800781 31.015625-35.910156 54.800781-35.9375h8.53125c26.035156.019532 49.460937 15.816407 59.234375 39.949219 1.03125 2.871094.449219 6.070313-1.519531 8.398438-1.972657 2.328125-5.03125 3.425781-8.035157 2.882812-3-.542969-5.480468-2.644531-6.511718-5.515625-7.359375-17.328125-24.339844-28.597656-43.167969-28.648437h-8.53125c-16.96875.011719-32.320313 10.0625-39.117187 25.609375-.546876 1.292968-1.027344 2.613281-1.433594 3.957031-1.402344 4.253906-2.117188 8.703125-2.117188 13.183594v8.617187c.003906 4.714844 3.820313 8.53125 8.535156 8.535156h145.066407c4.710937-.003906 8.53125-3.820312 8.53125-8.535156v-50.429687c0-4.714844 3.820312-8.535157 8.535156-8.535157 4.710937 0 8.53125 3.820313 8.53125 8.535157v50.429687c-.015625 14.132813-11.46875 25.582032-25.597656 25.597656zm0 0"/><path d="m247.484375 512.007812h-145.066406c-14.140625-.023437-25.59375-11.492187-25.597657-25.632812v-8.546875c.011719-33 26.730469-59.765625 59.730469-59.828125h8.535157c23.753906-.027344 45.265624 14.042969 54.757812 35.816406 1.21875 2.796875.851562 6.03125-.960938 8.484375-1.8125 2.449219-4.796874 3.75-7.824218 3.40625-3.03125-.34375-5.648438-2.277343-6.863282-5.074219-6.785156-15.546874-22.144531-25.589843-39.109374-25.566406h-8.535157c-23.578125.054688-42.664062 19.183594-42.664062 42.761719v8.546875c-.007813 4.722656 3.8125 8.554688 8.53125 8.566406h145.066406c4.714844 0 8.535156 3.820313 8.535156 8.535156 0 4.710938-3.820312 8.53125-8.535156 8.53125zm0 0"/><path d="m42.6875 426.675781c-16.835938.007813-32.097656-9.882812-38.96875-25.246093-6.871094-15.367188-4.066406-33.335938 7.160156-45.878907 7.230469-8.09375 13.769532-16.785156 19.539063-25.980469 2.550781-3.867187 7.722656-4.996093 11.648437-2.539062 3.925782 2.457031 5.179688 7.597656 2.820313 11.582031-6.28125 10.007813-13.390625 19.46875-21.257813 28.285157-9.398437 10.554687-8.515625 26.71875 1.972656 36.191406 10.6875 8.996094 26.535157 8.121094 36.167969-1.996094 3.265625-3.683594 6.484375-7.476562 9.542969-11.359375 1.863281-2.464844 4.914062-3.730469 7.972656-3.308594 3.0625.421875 5.65625 2.46875 6.78125 5.347657 1.125 2.878906.605469 6.140624-1.359375 8.527343-3.257812 4.132813-6.691406 8.191407-10.207031 12.160157-8.109375 9.035156-19.671875 14.203124-31.8125 14.214843zm0 0"/><path d="m409.617188 452.277344c-16.832032.007812-32.09375-9.882813-38.964844-25.25-6.871094-15.363282-4.066406-33.335938 7.160156-45.875 28.703125-32.089844 45.507812-73.070313 47.597656-116.078125.226563-4.707031 4.226563-8.339844 8.933594-8.113281 4.707031.222656 8.34375 4.222656 8.117188 8.933593-2.28125 46.910157-20.609376 91.613281-51.917969 126.625-9.382813 10.558594-8.492188 26.707031 1.992187 36.175781 10.691406 8.996094 26.535156 8.117188 36.167969-2.003906 42.003906-47.050781 65.539063-107.726562 66.25-170.796875-1.121094-63.945312-26.054687-125.171875-69.925781-171.710937-43.941406-44.523438-103.675782-67.109375-177.542969-67.109375-97.453125-.011719-183.503906 63.578125-212.097656 156.742187-28.597657 93.160156 6.953125 194.078125 87.632812 248.742188 3.261719 1.980468 4.808594 5.886718 3.789063 9.566406-1.019532 3.675781-4.359375 6.226562-8.175782 6.242188h-.085937c-1.699219 0-3.363281-.507813-4.773437-1.457032-87.039063-58.769531-125.492188-167.488281-94.757813-267.914062 30.734375-100.421875 123.449219-169.00000025 228.46875-168.9882815 78.601563 0 142.421875 24.2929685 189.695313 72.1953125 47.371093 49.597656 74.121093 115.34375 74.839843 183.921875-.765625 67.195312-25.847656 131.839844-70.609375 181.960938-8.105468 9.023437-19.660156 14.183593-31.792968 14.191406zm0 0"/><path d="m299.277344 471.984375c-4.335938-.011719-7.976563-3.269531-8.460938-7.582031-.484375-4.308594 2.34375-8.296875 6.570313-9.265625 22.988281-5.265625 44.980469-14.199219 65.132812-26.457031 4.308594-2.683594 8.691407-5.574219 12.914063-8.554688 2.492187-1.757812 5.734375-2.050781 8.5-.773438 2.765625 1.28125 4.640625 3.9375 4.917968 6.976563.273438 3.035156-1.089843 5.988281-3.582031 7.746094-4.492187 3.164062-9.140625 6.242187-13.808593 9.140625-21.738282 13.234375-45.46875 22.875-70.273438 28.550781-.628906.144531-1.269531.21875-1.910156.21875zm0 0"/><path d="m204.820312 401.074219c-11.320312.015625-22.179687-4.476563-30.183593-12.480469-8.003907-8.003906-12.496094-18.863281-12.484375-30.183594v-17.066406c.03125-28.265625 22.9375-51.171875 51.199218-51.199219h68.78125c4.710938 0 8.53125 3.820313 8.53125 8.53125 0 4.714844-3.820312 8.535157-8.53125 8.535157h-68.78125c-18.84375.015624-34.113281 15.289062-34.132812 34.132812v17.066406c0 14.136719 11.460938 25.597656 25.601562 25.597656 14.136719 0 25.597657-11.460937 25.597657-25.597656v-25.601562c0-4.710938 3.820312-8.53125 8.535156-8.53125 4.710937 0 8.53125 3.820312 8.53125 8.53125v25.601562c-.027344 23.550782-19.113281 42.636719-42.664063 42.664063zm0 0"/><path d="m281.617188 358.410156h-42.664063c-4.714844 0-8.535156-3.820312-8.535156-8.535156 0-4.710938 3.820312-8.53125 8.535156-8.53125h42.664063v-8.535156c0-37.703125-30.5625-68.265625-68.265626-68.265625-37.703124 0-68.265624 30.5625-68.265624 68.265625v8.535156h25.601562c4.710938 0 8.53125 3.820312 8.53125 8.53125 0 4.714844-3.820312 8.535156-8.53125 8.535156h-25.601562c-9.421876-.011718-17.054688-7.648437-17.066407-17.066406v-8.535156c0-47.128906 38.203125-85.332032 85.332031-85.332032 47.128907 0 85.335938 38.203126 85.335938 85.332032v8.535156c-.015625 9.417969-7.648438 17.054688-17.070312 17.066406zm0 0"/><path d="m174.441406 218.800781c-3.492187 0-6.632812-2.128906-7.921875-5.375-1.292969-3.242187-.480469-6.945312 2.054688-9.347656 6.828125-6.429687 10.683593-15.40625 10.644531-24.785156 0-18.851563-15.28125-34.132813-34.132812-34.132813-18.851563 0-34.132813 15.28125-34.132813 34.132813-.042969 9.378906 3.8125 18.355469 10.640625 24.785156 2.316406 2.070313 3.324219 5.238281 2.632812 8.265625-.695312 3.03125-2.980468 5.441406-5.96875 6.296875-2.988281.859375-6.203124.023437-8.398437-2.179687-15.207031-14.417969-20.09375-36.652344-12.332031-56.117188 7.757812-19.46875 26.601562-32.242188 47.558594-32.242188 20.957031 0 39.796874 12.773438 47.558593 32.242188 7.761719 19.464844 2.875 41.699219-12.335937 56.117188-1.582032 1.507812-3.683594 2.34375-5.867188 2.339843zm0 0"/><path d="m252.265625 218.800781c-2.265625.003907-4.4375-.898437-6.035156-2.5-.300781-.238281-.582031-.496093-.851563-.765625-9.566406-9.640625-14.941406-22.664062-14.960937-36.242187 0-28.277344 22.925781-51.199219 51.199219-51.199219 28.277343 0 51.203124 22.921875 51.203124 51.199219-.019531 13.578125-5.394531 26.605469-14.960937 36.242187-.148437.148438-.738281.691406-.898437.824219-3.507813 3.042969-8.777344 2.835937-12.03125-.472656-3.175782-3.238281-3.167969-8.425781.015624-11.652344.152344-.148437.726563-.675781.882813-.816406 13.265625-13.359375 13.203125-34.933594-.128906-48.21875-13.335938-13.285157-34.914063-13.265625-48.222657.050781-13.308593 13.3125-13.320312 34.886719-.03125 48.21875.273438.222656.582032.5.851563.765625 2.441406 2.441406 3.171875 6.113281 1.851563 9.300781-1.320313 3.1875-4.433594 5.265625-7.882813 5.265625zm0 0"/><path d="m181.402344 68.964844c-1.128906 9.378906-4.996094 18.21875-11.125 25.410156-6.089844 7.441406-13.914063 13.277344-22.78125 17-8.753906 3.617188-18.160156 5.382812-27.628906 5.183594-4.582032-.113282-9.144532-.601563-13.648438-1.460938-4.375-1.078125-8.679688-2.441406-12.882812-4.070312-1.363282-.53125-2.195313-1.914063-2.023438-3.363282.167969-1.453124 1.292969-2.605468 2.738281-2.8125l.390625-.050781c4.316406-.597656 8.460938-.707031 12.542969-.972656 4.054687-.640625 8.085937-.761719 11.953125-1.511719 7.570312-1.199218 14.980469-3.246094 22.09375-6.097656 6.902344-3.058594 13.382812-6.988281 19.285156-11.691406 6.253906-5.054688 11.980469-10.730469 17.089844-16.941406l.191406-.230469c.609375-.726563 1.621094-.96875 2.496094-.597657.871094.367188 1.402344 1.261719 1.308594 2.207032zm0 0"/><path d="m249.488281 67.589844c5.109375 6.210937 10.835938 11.886718 17.089844 16.941406 5.902344 4.703125 12.382813 8.632812 19.28125 11.691406 7.113281 2.851563 14.523437 4.898438 22.097656 6.09375 3.863281.753906 7.894531.875 11.949219 1.511719 4.082031.269531 8.226562.375 12.542969.976563l.386719.050781c1.445312.203125 2.578124 1.355469 2.746093 2.808593.167969 1.453126-.664062 2.835938-2.023437 3.363282-4.207032 1.632812-8.507813 2.992187-12.886719 4.074218-4.5.855469-9.066406 1.34375-13.648437 1.460938-9.464844.195312-18.875-1.570312-27.625-5.183594-8.871094-3.722656-16.691407-9.558594-22.785157-17-6.125-7.191406-9.996093-16.03125-11.121093-25.410156-.097657-.941406.429687-1.835938 1.300781-2.207031.871093-.375 1.882812-.136719 2.496093.585937zm0 0"/><path d="m179.21875 221.875c-2.261719.003906-4.433594-.894531-6.03125-2.5-8.519531-4.859375-18.335938-6.96875-28.101562-6.03125-20.859376 0-28.246094 6.175781-28.316407 6.242188-3.492187 3.027343-8.742187 2.792968-11.949219-.535157-3.160156-3.292969-3.113281-8.503906.101563-11.742187 1.84375-1.839844 12.433594-11.03125 40.167969-11.03125s38.324218 9.191406 40.164062 11.03125c2.441406 2.441406 3.171875 6.113281 1.851563 9.300781-1.324219 3.1875-4.433594 5.265625-7.886719 5.265625zm0 0"/><path d="m315.753906 221.875c-2.265625.003906-4.4375-.894531-6.035156-2.5-8.519531-4.859375-18.335938-6.96875-28.101562-6.03125-20.855469 0-28.242188 6.175781-28.316407 6.242188-3.488281 3.027343-8.738281 2.792968-11.945312-.535157-3.160157-3.292969-3.117188-8.503906.101562-11.742187 1.839844-1.839844 12.433594-11.03125 40.164063-11.03125 27.734375 0 38.324218 9.191406 40.167968 11.03125 2.441407 2.441406 3.167969 6.113281 1.847657 9.300781-1.320313 3.1875-4.433594 5.265625-7.882813 5.265625zm0 0"/><path d="m341.351562 307.210938c-18.84375-.019532-34.113281-15.292969-34.132812-34.136719 0-16.566407 23.140625-43.199219 27.785156-48.363281 1.660156-1.726563 3.953125-2.699219 6.347656-2.699219 2.394532 0 4.6875.972656 6.351563 2.699219 4.640625 5.164062 27.78125 31.796874 27.78125 48.363281-.015625 18.84375-15.289063 34.117187-34.132813 34.136719zm0-63.585938c-9.042968 11.308594-17.066406 24.011719-17.066406 29.449219 0 9.425781 7.640625 17.070312 17.066406 17.070312 9.425782 0 17.066407-7.644531 17.066407-17.070312 0-5.28125-8-18.082031-17.066407-29.449219zm0 0"/><path d="m85.351562 324.277344c-18.84375-.019532-34.113281-15.289063-34.132812-34.132813 0-16.570312 23.140625-43.203125 27.785156-48.367187 1.660156-1.726563 3.953125-2.699219 6.347656-2.699219 2.394532 0 4.6875.972656 6.351563 2.699219 4.640625 5.164062 27.78125 31.796875 27.78125 48.367187-.015625 18.84375-15.289063 34.113281-34.132813 34.132813zm0-63.582032c-9.042968 11.304688-17.066406 24.003907-17.066406 29.449219 0 9.425781 7.640625 17.066407 17.066406 17.066407 9.425782 0 17.066407-7.640626 17.066407-17.066407 0-5.285156-8-18.085937-17.066407-29.449219zm0 0"/></svg>