<svg height="512pt" viewBox="0 0 512.04329 512" width="512pt" xmlns="http://www.w3.org/2000/svg"><path d="m78.011719 395.058594c-3.15625 4.011718-6.484375 7.9375-9.898438 11.777344-12.605469 13.945312-34.113281 15.082031-48.113281 2.535156-14-12.542969-15.226562-34.046875-2.742188-48.101563 7.546876-8.457031 14.371094-17.535156 20.394532-27.136719zm0 0" fill="#ff9801"/><path d="m247.484375 8.585938c-101.269531-.015626-190.675781 66.109374-220.3125 162.949218-29.640625 96.835938 7.441406 201.671875 91.375 258.339844h.085937l69.121094 48.042969v8.535156c.027344 9.414063 7.652344 17.039063 17.066406 17.066406h145.066407c9.414062-.027343 17.039062-7.652343 17.066406-17.066406v-50.433594c.765625-.511719 1.535156-.9375 2.304687-1.449219 3.753907-2.390624 7.507813-4.863281 11.089844-7.425781.011719.089844.042969.179688.085938.257813 1.058594 2.222656 2.570312 4.199218 4.4375 5.800781.597656.597656 1.28125 1.28125 1.964844 1.878906 1.257812 1.097657 2.597656 2.09375 4.007812 2.984375.6875.5625 1.429688 1.050782 2.21875 1.453125.800781.449219 1.628906.847657 2.476562 1.195313.6875.335937 1.402344.621094 2.132813.851562 1.109375.425782 2.21875.769532 3.328125 1.109375 2.8125.75 5.710938 1.125 8.617188 1.109375 9.707031.015625 18.960937-4.113281 25.429687-11.347656 43.410156-48.574219 67.726563-111.246094 68.4375-176.386719 1.023437-76.796875-51.199219-247.464843-256-247.464843zm0 0" fill="#f0c419"/><path d="m503.484375 256.050781c-.710937 65.140625-25.027344 127.8125-68.4375 176.386719-6.46875 7.234375-15.722656 11.363281-25.429687 11.347656-2.90625.015625-5.804688-.359375-8.617188-1.109375-1.109375-.339843-2.21875-.683593-3.328125-1.109375-.730469-.230468-1.445313-.515625-2.132813-.851562-.847656-.347656-1.675781-.746094-2.476562-1.195313-.789062-.402343-1.53125-.890625-2.21875-1.453125-1.410156-.890625-2.75-1.886718-4.007812-2.984375-.683594-.597656-1.367188-1.28125-1.964844-1.878906-1.867188-1.601563-3.378906-3.578125-4.4375-5.800781-.042969-.078125-.074219-.167969-.085938-.257813-3.582031 2.5625-7.335937 5.035157-11.089844 7.425781-.769531.511719-1.539062.9375-2.304687 1.449219-20.9375 12.730469-43.785156 22.007813-67.671875 27.476563h-.253906l-.339844-2.644532c-8.617188-20.691406-28.789062-34.207031-51.203125-34.304687h-8.53125c-20.351563.03125-38.765625 12.082031-46.933594 30.722656-.6875 1.613281-1.285156 3.265625-1.792969 4.949219-1.648437 5.039062-2.484374 10.3125-2.472656 15.613281v.085938l-69.121094-48.042969h-.085937c-83.933594-56.667969-121.015625-161.503906-91.375-258.339844 29.636719-96.839844 119.042969-162.964844 220.3125-162.949218 204.800781 0 257.023437 170.667968 256 247.464843zm0 0" fill="#ffdc00"/><path d="m380.347656 427.144531c-3.582031 2.5625-7.335937 5.035157-11.089844 7.425781-13.527343-12.695312-14.472656-33.851562-2.136718-47.703124 26.3125-29.351563 43.144531-65.96875 48.292968-105.050782 1.207032-9.316406 9.132813-16.289062 18.523438-16.292968-2.128906 44.96875-19.699219 87.824218-49.746094 121.34375-9.945312 11.144531-11.5 27.457031-3.84375 40.277343zm0 0" fill="#fec108"/><path d="m192.019531 457.269531c-8.152343-18.652343-26.578125-30.703125-46.933593-30.695312h-8.535157c-28.292969.046875-51.207031 23-51.199219 51.296875v8.546875c.019532 9.425781 7.644532 17.0625 17.066407 17.101562h145.066406zm0 0" fill="#3f51b5"/><path d="m366.953125 436.019531v50.433594c-.027344 9.414063-7.652344 17.039063-17.066406 17.066406h-145.066407c-9.414062-.027343-17.039062-7.652343-17.066406-17.066406v-8.621094c-.011718-5.300781.824219-10.574219 2.472656-15.613281.507813-1.683594 1.105469-3.335938 1.792969-4.949219 8.167969-18.640625 26.582031-30.691406 46.933594-30.722656h8.53125c22.414063.097656 42.585937 13.613281 51.203125 34.304687l.59375 2.644532c23.886719-5.46875 46.734375-14.746094 67.671875-27.476563zm0 0" fill="#3f51b5"/><path d="m380.433594 427.402344c1.300781 2.0625 2.785156 4.007812 4.4375 5.800781-1.867188-1.601563-3.378906-3.578125-4.4375-5.800781zm0 0" fill="#f0c419"/><path d="m366.953125 436.019531v17.066407c-15.945313 9.691406-33.011719 17.390624-50.824219 22.9375-3.960937 1.195312-8.253906.449218-11.578125-2.023438-3.320312-2.46875-5.273437-6.363281-5.269531-10.503906 23.886719-5.46875 46.734375-14.746094 67.671875-27.476563zm0 0" fill="#283593"/><g fill="#3f51b5"><path d="m59.753906 136.570312h-34.136718c-4.527344-.023437-8.867188 1.792969-12.03125 5.035157-3.242188 3.160156-5.058594 7.503906-5.035157 12.03125.027344 9.414062 7.652344 17.039062 17.066407 17.066406h25.601562zm0 0"/><path d="m187.753906 145.101562c7.171875-5.933593 16.300782-8.976562 25.597656-8.53125 9.300782-.445312 18.425782 2.597657 25.601563 8.53125v34.132813c-7.175781-5.933594-16.300781-8.972656-25.601563-8.53125-9.296874-.441406-18.425781 2.597656-25.597656 8.53125zm0 0"/><path d="m247.484375 136.570312h119.46875c4.710937 0 8.53125 3.820313 8.53125 8.53125v59.734376c0 28.277343-22.921875 51.199218-51.199219 51.199218h-34.132812c-28.277344 0-51.199219-22.921875-51.199219-51.199218v-59.734376c0-4.710937 3.820313-8.53125 8.53125-8.53125zm0 0"/><path d="m59.753906 136.570312h119.464844c4.714844 0 8.535156 3.820313 8.535156 8.53125v59.734376c0 28.277343-22.925781 51.199218-51.203125 51.199218h-34.132812c-28.277344 0-51.199219-22.921875-51.199219-51.199218v-59.734376c0-4.710937 3.820312-8.53125 8.535156-8.53125zm0 0"/></g><path d="m503.484375 256.050781c-.710937 65.140625-25.027344 127.8125-68.4375 176.386719-6.46875 7.234375-15.722656 11.363281-25.429687 11.347656-2.90625.015625-5.804688-.359375-8.617188-1.109375-1.109375-.339843-2.21875-.683593-3.328125-1.109375-.300781-.0625-.589844-.175781-.851563-.339844 4.847657-1.882812 9.179688-4.894531 12.628907-8.789062 43.40625-48.574219 67.722656-111.246094 68.4375-176.386719 1.023437-74.921875-48.726563-239.273437-241.496094-247.125 3.671875-.253906 7.339844-.339843 11.09375-.339843 204.800781 0 257.023437 170.667968 256 247.464843zm0 0" fill="#fec108"/><path d="m366.953125 436.019531v50.433594c-.027344 9.414063-7.652344 17.039063-17.066406 17.066406h-25.601563c9.414063-.027343 17.039063-7.652343 17.066406-17.066406v-37.035156c8.808594-3.917969 17.359376-8.394531 25.601563-13.398438zm0 0" fill="#283593"/><path d="m433 99.191406 30.292969 37.378906h19.117187l20.476563-45.738281c1.007812-2.511719.628906-5.363281-.992188-7.523437-1.621093-2.160156-4.253906-3.320313-6.941406-3.058594l-56.066406 5.714844-54.5-26.082032-32.101563-47.824218c-1.421875-2.285156-3.964844-3.621094-6.652344-3.492188s-5.09375 1.707032-6.285156 4.117188l-22.4375 50.121094c-.972656 2.390624-.6875 5.109374.761719 7.242187 1.449219 2.136719 3.867187 3.40625 6.449219 3.386719l54.34375-.324219zm0 0" fill="#6a1b9a"/><path d="m375.484375 170.703125h110.933594c9.398437-.070313 17-7.667969 17.066406-17.066406-.027344-9.414063-7.652344-17.039063-17.066406-17.066407h-119.464844zm0 0" fill="#3f51b5"/><path d="m412.476562 107.992188-27.25-13.03125c-7.589843-3.773438-10.824218-12.878907-7.324218-20.59375l6.308594-14.082032c1.582031-3.695312 4.597656-6.585937 8.355468-8.015625 3.757813-1.425781 7.9375-1.261719 11.574219.449219l27.25 13.03125c7.589844 3.773438 10.824219 12.878906 7.320313 20.597656l-6.304688 14.078125c-1.582031 3.695313-4.597656 6.589844-8.359375 8.015625-3.757813 1.425782-7.933594 1.265625-11.570313-.449218zm0 0" fill="#9d27b0"/><path d="m349.886719 512.035156h-145.066407c-14.132812-.015625-25.585937-11.46875-25.601562-25.601562v-8.617188c-.007812-6.207031.96875-12.375 2.902344-18.273437.574218-1.902344 1.253906-3.773438 2.03125-5.601563 9.503906-21.804687 31.015625-35.914062 54.800781-35.941406h8.53125c26.035156.019531 49.460937 15.820312 59.234375 39.949219 1.03125 2.871093.449219 6.074219-1.519531 8.398437-1.972657 2.328125-5.03125 3.425782-8.035157 2.882813-3-.542969-5.480468-2.644531-6.511718-5.515625-7.359375-17.328125-24.339844-28.597656-43.167969-28.644532h-8.53125c-16.96875.011719-32.320313 10.0625-39.117187 25.605469-.546876 1.292969-1.027344 2.617188-1.433594 3.960938-1.402344 4.253906-2.117188 8.703125-2.117188 13.183593v8.617188c.003906 4.710938 3.820313 8.53125 8.535156 8.535156h145.066407c4.710937-.003906 8.53125-3.824218 8.53125-8.535156v-50.433594c0-4.710937 3.820312-8.53125 8.535156-8.53125 4.710937 0 8.53125 3.820313 8.53125 8.53125v50.433594c-.015625 14.132812-11.46875 25.582031-25.597656 25.597656zm0 0"/><path d="m247.484375 512.035156h-145.066406c-14.140625-.023437-25.59375-11.492187-25.597657-25.632812v-8.550782c.011719-33 26.730469-59.761718 59.730469-59.824218h8.535157c23.753906-.027344 45.265624 14.039062 54.757812 35.816406 1.21875 2.796875.851562 6.027344-.960938 8.480469s-4.796874 3.75-7.824218 3.410156c-3.03125-.34375-5.648438-2.277344-6.863282-5.074219-6.785156-15.546875-22.144531-25.589844-39.109374-25.566406h-8.535157c-23.578125.054688-42.664062 19.179688-42.664062 42.757812v8.550782c-.007813 4.71875 3.8125 8.554687 8.53125 8.566406h145.066406c4.714844 0 8.535156 3.820312 8.535156 8.53125 0 4.714844-3.820312 8.535156-8.535156 8.535156zm0 0"/><path d="m42.6875 426.703125c-16.835938.003906-32.097656-9.882813-38.96875-25.25-6.871094-15.363281-4.066406-33.335937 7.160156-45.875 7.230469-8.097656 13.769532-16.789063 19.539063-25.984375 2.550781-3.867188 7.722656-4.992188 11.648437-2.535156 3.925782 2.453125 5.179688 7.59375 2.820313 11.582031-6.28125 10.007813-13.390625 19.46875-21.257813 28.28125-9.398437 10.558594-8.515625 26.71875 1.972656 36.191406 10.6875 9 26.535157 8.125 36.167969-1.996093 3.265625-3.679688 6.484375-7.472657 9.542969-11.355469 1.863281-2.46875 4.914062-3.734375 7.972656-3.308594 3.0625.421875 5.65625 2.46875 6.78125 5.347656 1.125 2.878907.605469 6.140625-1.359375 8.527344-3.257812 4.132813-6.691406 8.191406-10.207031 12.15625-8.109375 9.039063-19.671875 14.207031-31.8125 14.21875zm0 0"/><path d="m409.617188 452.300781c-16.832032.007813-32.09375-9.882812-38.964844-25.246093-6.871094-15.367188-4.066406-33.335938 7.160156-45.878907 28.703125-32.089843 45.507812-73.070312 47.597656-116.074219.226563-4.707031 4.226563-8.34375 8.933594-8.117187s8.34375 4.226563 8.117188 8.933594c-2.28125 46.910156-20.609376 91.617187-51.917969 126.625-9.382813 10.558593-8.492188 26.710937 1.992187 36.175781 10.691406 8.996094 26.535156 8.121094 36.167969-2 42.011719-47.042969 65.546875-107.722656 66.25-170.792969-.289063-28.125-5.34375-56.003906-14.953125-82.441406-1.582031-4.441406.734375-9.324219 5.175781-10.90625 4.441407-1.585937 9.328125.730469 10.910157 5.171875 10.269531 28.351562 15.660156 58.238281 15.933593 88.386719-.753906 67.203125-25.839843 131.851562-70.609375 181.972656-8.105468 9.027344-19.660156 14.183594-31.792968 14.191406zm0 0"/><path d="m398.953125 59.851562c-4.730469.011719-8.582031-3.800781-8.621094-8.53125-.019531-2.257812.863281-4.425781 2.449219-6.027343 1.585938-1.601563 3.746094-2.503907 6-2.507813h.171875c4.710937 0 8.53125 3.820313 8.53125 8.535156 0 4.710938-3.820313 8.53125-8.53125 8.53125zm0 0"/><path d="m118.632812 438.394531h-.085937c-1.699219 0-3.363281-.507812-4.773437-1.457031-87.21875-59.023438-125.617188-168.113281-94.605469-268.753906 1.390625-4.503906 6.171875-7.03125 10.675781-5.640625 4.507812 1.390625 7.03125 6.171875 5.640625 10.675781-28.773437 93.328125 6.742187 194.5 87.535156 249.367188 3.261719 1.980468 4.808594 5.886718 3.789063 9.5625-1.019532 3.679687-4.359375 6.230468-8.175782 6.246093zm0 0"/><path d="m41.050781 145.101562c-2.953125-.003906-5.691406-1.53125-7.246093-4.042968-1.554688-2.511719-1.699219-5.644532-.386719-8.289063 40.132812-81.511719 123.210937-133.027343 214.066406-132.7343748 30.699219-.2851562 61.265625 4.0429688 90.675781 12.8398438 2.96875.855469 5.246094 3.25 5.949219 6.257812.707031 3.007813-.269531 6.164063-2.554687 8.246094-2.28125 2.085938-5.511719 2.769532-8.445313 1.796875-27.777344-8.285156-56.640625-12.355469-85.625-12.074219-84.371094-.269531-161.515625 47.570313-198.78125 123.265626-1.445313 2.90625-4.410156 4.738281-7.652344 4.734374zm0 0"/><path d="m299.277344 472.011719c-4.335938-.011719-7.976563-3.273438-8.460938-7.582031-.484375-4.3125 2.34375-8.296876 6.570313-9.269532 22.988281-5.265625 44.980469-14.199218 65.132812-26.453125 4.308594-2.683593 8.691407-5.574219 12.914063-8.558593 2.492187-1.757813 5.734375-2.050782 8.5-.769532 2.765625 1.277344 4.640625 3.9375 4.917968 6.972656.273438 3.039063-1.089843 5.988282-3.582031 7.746094-4.492187 3.167969-9.140625 6.242188-13.808593 9.140625-21.738282 13.238281-45.46875 22.878907-70.273438 28.550781-.628906.148438-1.269531.222657-1.910156.222657zm0 0"/><path d="m418.769531 117.976562c-3.453125-.003906-6.863281-.785156-9.976562-2.28125l-27.25-13.035156c-11.734375-5.796875-16.785157-19.835937-11.433594-31.78125l6.308594-14.082031c2.585937-5.859375 7.445312-10.417969 13.460937-12.628906 5.84375-2.171875 12.324219-1.863281 17.941406.855469l27.257813 13.03125c11.734375 5.800781 16.777344 19.84375 11.414063 31.785156l-6.289063 14.074218c-2.585937 5.863282-7.445313 10.425782-13.460937 12.632813-2.550782.945313-5.25 1.429687-7.972657 1.429687zm-20.933593-58.15625c-.710938 0-1.414063.125-2.082032.367188-1.691406.632812-3.046875 1.929688-3.757812 3.589844l-6.304688 14.078125c-1.628906 3.488281-.210937 7.640625 3.214844 9.402343l27.25 13.03125c1.472656.699219 3.164062.785157 4.699219.234376 1.691406-.636719 3.050781-1.933594 3.765625-3.589844l6.292968-14.078125c1.640626-3.484375.226563-7.640625-3.199218-9.40625l-27.261719-13.03125c-.816406-.394531-1.710937-.597657-2.617187-.597657zm0 0"/><path d="m324.070312 81.972656c-5.527343-.003906-10.671874-2.808594-13.667968-7.449218-3-4.515626-3.480469-10.25-1.28125-15.203126l22.445312-50.113281c2.285156-5.183593 7.238282-8.683593 12.882813-9.1093748 5.914062-.4843752 11.625 2.2734378 14.917969 7.2070318l32.101562 47.824218c1.640625 2.445313 1.902344 5.5625.699219 8.25-1.203125 2.683594-3.707031 4.5625-6.625 4.964844 1.757812 2.609375 1.9375 5.972656.46875 8.75-1.46875 2.78125-4.347657 4.53125-7.492188 4.550781l-54.351562.328125zm22.125-63.675781-21 46.890625 52.074219-.589844zm0 0"/><path d="m324.070312 81.972656c-5.527343-.003906-10.671874-2.808594-13.667968-7.449218-3-4.515626-3.480469-10.25-1.28125-15.203126l22.445312-50.113281c2.285156-5.183593 7.238282-8.683593 12.882813-9.1093748 5.914062-.4843752 11.625 2.2734378 14.917969 7.2070318l32.101562 47.824218c1.640625 2.445313 1.902344 5.5625.699219 8.25-1.203125 2.683594-3.707031 4.5625-6.625 4.964844 1.757812 2.609375 1.9375 5.972656.46875 8.75-1.46875 2.78125-4.347657 4.53125-7.492188 4.550781l-54.351562.328125zm22.125-63.675781-21 46.890625 52.074219-.589844zm0 0"/><path d="m463.300781 145.101562c-2.574219.003907-5.015625-1.15625-6.640625-3.15625l-30.292968-37.378906c-2.96875-3.660156-2.40625-9.039062 1.257812-12.007812s9.039062-2.40625 12.007812 1.257812l30.292969 37.375c2.074219 2.554688 2.492188 6.074219 1.078125 9.046875-1.414062 2.96875-4.410156 4.863281-7.703125 4.863281zm0 0"/><path d="m482.402344 145.101562c-2.890625-.003906-5.585938-1.46875-7.15625-3.894531-1.570313-2.425781-1.808594-5.484375-.628906-8.121093l19.941406-44.542969-54.808594 5.914062c-4.6875.480469-8.875-2.933593-9.355469-7.625-.480469-4.6875 2.933594-8.875 7.625-9.355469l56.0625-5.71875c5.796875-.519531 11.441407 2.039063 14.867188 6.742188 3.394531 4.582031 4.046875 10.636719 1.707031 15.832031l-20.457031 45.71875c-1.375 3.074219-4.429688 5.054688-7.796875 5.050781zm0 0"/><path d="m92.046875 120.457031c6.253906-19.335937 21.539063-34.414062 40.960937-40.402343 9.910157-3.117188 20.511719-3.320313 30.535157-.589844 4.84375 1.195312 9.515625 2.996094 13.90625 5.367187 4.1875 2.429688 8.160156 5.21875 11.867187 8.328125 1.144532.910156 1.519532 2.480469.910156 3.808594-.609374 1.328125-2.042968 2.066406-3.480468 1.792969l-.566406-.109375c-4.515626-.867188-8.59375-2.398438-12.777344-3.273438-4.058594-.898437-8.175782-1.515625-12.320313-1.851562-7.847656-.820313-15.78125-.039063-23.320312 2.304687-15.75 5.824219-30.082031 14.933594-42.042969 26.722657l-.152344.136718c-.726562.640625-1.785156.726563-2.601562.207032-.816406-.519532-1.191406-1.515626-.917969-2.441407zm0 0"/><path d="m330.980469 122.554688c-11.957031-11.792969-26.289063-20.902344-42.039063-26.722657-7.539062-2.34375-15.472656-3.128906-23.324218-2.304687-4.144532.332031-8.257813.953125-12.316407 1.847656-4.183593.875-8.261719 2.40625-12.78125 3.277344l-.5625.105468c-1.433593.277344-2.871093-.460937-3.480469-1.789062-.609374-1.328125-.234374-2.898438.90625-3.808594 3.710938-3.113281 7.679688-5.898437 11.867188-8.332031 4.390625-2.367187 9.066406-4.171875 13.910156-5.363281 10.023438-2.734375 20.621094-2.53125 30.535156.585937 19.417969 5.992188 34.703126 21.066407 40.957032 40.402344.273437.925781-.097656 1.921875-.910156 2.441406s-1.871094.441407-2.597657-.191406zm0 0"/><path d="m324.285156 264.566406h-34.132812c-32.972656-.039062-59.695313-26.757812-59.734375-59.730468v-59.734376c.011719-9.421874 7.648437-17.054687 17.066406-17.066406h119.46875c9.417969.011719 17.054687 7.644532 17.066406 17.066406v59.734376c-.039062 32.972656-26.761719 59.691406-59.734375 59.730468zm-76.800781-119.464844v59.734376c.027344 23.550781 19.113281 42.636718 42.667969 42.664062h34.132812c23.554688-.027344 42.640625-19.113281 42.667969-42.664062v-59.734376zm0 0"/><path d="m136.550781 264.566406h-34.132812c-32.972657-.039062-59.691407-26.757812-59.730469-59.730468v-59.734376c.011719-9.421874 7.644531-17.054687 17.066406-17.066406h119.464844c9.421875.011719 17.054688 7.644532 17.066406 17.066406v59.734376c-.039062 32.972656-26.757812 59.691406-59.734375 59.730468zm-76.796875-119.464844v59.734376c.027344 23.550781 19.113282 42.636718 42.664063 42.664062h34.132812c23.554688-.027344 42.640625-19.113281 42.667969-42.664062v-59.734376zm0 0"/><path d="m51.21875 179.234375h-25.601562c-14.128907-.015625-25.5820318-11.46875-25.5976568-25.597656-.0390624-6.835938 2.7109378-13.390625 7.6171878-18.152344 4.738281-4.816406 11.226562-7.503906 17.980469-7.449219h34.136718c4.710938 0 8.53125 3.820313 8.53125 8.53125 0 4.714844-3.820312 8.535156-8.53125 8.535156h-34.136718c-2.222657-.019531-4.359376.863282-5.914063 2.449219-1.675781 1.582031-2.621094 3.78125-2.617187 6.085938.003906 4.710937 3.820312 8.527343 8.53125 8.53125h25.601562c4.714844 0 8.535156 3.820312 8.535156 8.535156 0 4.710937-3.820312 8.53125-8.535156 8.53125zm0 0"/><path d="m238.953125 187.769531c-2.265625 0-4.433594-.902343-6.035156-2.5-5.597657-4.269531-12.535157-6.40625-19.566407-6.035156-7.078124-.378906-14.058593 1.796875-19.667968 6.132813-2.492188 2.332031-6.128906 2.976562-9.273438 1.644531-3.125-1.324219-5.167968-4.382813-5.191406-7.777344v-34.132813c0-2.261718.898438-4.433593 2.5-6.03125 8.746094-7.589843 20.066406-11.535156 31.632812-11.035156 11.566407-.5 22.886719 3.445313 31.632813 11.035156 1.601563 1.597657 2.5 3.769532 2.5 6.03125v34.132813c0 4.714844-3.820313 8.535156-8.53125 8.535156zm-25.601563-25.601562c5.796876-.042969 11.5625.867187 17.066407 2.683593v-15.492187c-10.667969-5.683594-23.46875-5.675781-34.132813.015625v15.476562c5.503906-1.816406 11.269532-2.726562 17.066406-2.683593zm0 0"/><path d="m486.417969 179.234375h-110.933594c-4.710937 0-8.53125-3.820313-8.53125-8.53125 0-4.714844 3.820313-8.535156 8.53125-8.535156h110.933594c2.222656.019531 4.359375-.863281 5.917969-2.449219 1.675781-1.582031 2.621093-3.78125 2.617187-6.082031-.003906-4.714844-3.824219-8.53125-8.535156-8.535157h-119.464844c-4.714844 0-8.535156-3.820312-8.535156-8.535156 0-4.710937 3.820312-8.53125 8.535156-8.53125h119.464844c14.132812.015625 25.585937 11.46875 25.601562 25.601563-.066406 14.109375-11.488281 25.53125-25.601562 25.597656zm0 0"/><path d="m85.351562 187.769531c-3.449218 0-6.5625-2.082031-7.882812-5.269531s-.589844-6.859375 1.851562-9.296875l8.53125-8.535156c2.144532-2.210938 5.3125-3.09375 8.292969-2.3125 2.976563.785156 5.304688 3.109375 6.085938 6.089843.78125 2.976563-.101563 6.144532-2.3125 8.289063l-8.53125 8.535156c-1.601563 1.601563-3.769531 2.5-6.035157 2.5zm0 0"/><path d="m93.886719 221.902344c-3.453125 0-6.5625-2.082032-7.882813-5.269532-1.320312-3.1875-.589844-6.855468 1.847656-9.296874l42.667969-42.667969c2.144531-2.210938 5.3125-3.09375 8.292969-2.3125 2.976562.785156 5.304688 3.109375 6.085938 6.089843.78125 2.976563-.101563 6.144532-2.3125 8.289063l-42.667969 42.667969c-1.597657 1.601562-3.769531 2.503906-6.03125 2.5zm0 0"/><path d="m273.085938 187.769531c-3.453126 0-6.5625-2.082031-7.882813-5.269531s-.589844-6.859375 1.847656-9.296875l8.535157-8.535156c2.144531-2.210938 5.3125-3.09375 8.292968-2.3125 2.976563.785156 5.304688 3.109375 6.085938 6.089843.78125 2.976563-.101563 6.144532-2.3125 8.289063l-8.535156 8.535156c-1.597657 1.601563-3.769532 2.5-6.03125 2.5zm0 0"/><path d="m281.617188 221.902344c-3.449219 0-6.558594-2.082032-7.878907-5.269532-1.320312-3.1875-.59375-6.855468 1.847657-9.296874l42.667968-42.667969c2.144532-2.210938 5.3125-3.09375 8.289063-2.3125 2.980469.785156 5.304687 3.109375 6.089843 6.089843.78125 2.976563-.105468 6.144532-2.3125 8.289063l-42.667968 42.667969c-1.597656 1.601562-3.769532 2.503906-6.035156 2.5zm0 0"/><path d="m256.019531 324.300781h-102.402343c-4.710938 0-8.53125-3.820312-8.53125-8.53125 0-4.714843 3.820312-8.535156 8.53125-8.535156h102.402343c4.710938-.003906 8.53125-3.820313 8.53125-8.53125v-8.535156c0-4.710938 3.820313-8.53125 8.535157-8.53125 4.710937 0 8.53125 3.820312 8.53125 8.53125v8.535156c-.015626 14.128906-11.464844 25.582031-25.597657 25.597656zm0 0"/><path d="m196.285156 358.433594h-8.53125c-4.714844 0-8.535156-3.820313-8.535156-8.53125 0-4.714844 3.820312-8.535156 8.535156-8.535156h8.53125c4.714844 0 8.535156 3.820312 8.535156 8.535156 0 4.710937-3.820312 8.53125-8.535156 8.53125zm0 0"/></svg>