<svg height="512pt" viewBox="0 0 512 512.01789" width="512pt" xmlns="http://www.w3.org/2000/svg"><path d="m471.972656 93.117188 30.378906 111.871093c2.578126 10.207031.300782 21.035157-6.167968 29.339844-6.472656 8.308594-16.414063 13.160156-26.941406 13.15625h-34.304688l-1.367188-34.132813h35.671876l-29.269532-108.03125zm0 0" fill="#ff5722"/><path d="m76.964844 250.472656-34.21875 14.675782 19.199218 48.640624-29.097656 19.199219-21.847656-55.296875c-6.863281-17.152344 1.253906-36.648437 18.261719-43.859375l44.542969-19.117187c1.421874-.59375 2.914062-.996094 4.4375-1.191406zm0 0" fill="#ff5722"/><path d="m435.109375 238.953125c.929687 65.34375-29.976563 127.0625-82.859375 165.460937l-97.28125 72.53125-12.714844-9.640624-82.6875-62.890626c-16.207031-11.371093-30.496094-25.257812-42.324218-41.132812l-22.613282-38.65625c-10.3125-23.449219-16.296875-48.574219-17.664062-74.152344-.171875-3.839844-.257813-7.679687-.257813-11.519531-.007812-8.5.503907-16.996094 1.535157-25.429687 10.839843-91.820313 79.617187-163.757813 164.867187-170.242188 4.265625-.425781 8.53125-.597656 12.796875-.597656 98.988281 0 179.203125 87.894531 179.203125 196.269531zm0 0" fill="#fec108"/><path d="m409.507812 238.953125c.929688 65.34375-29.976562 127.0625-82.859374 165.460937l-84.394532 62.890626-82.6875-62.890626c-16.207031-11.371093-30.496094-25.257812-42.324218-41.132812l-22.613282-38.65625c-10.3125-23.449219-16.296875-48.574219-17.664062-74.152344-.171875-3.839844-.257813-7.679687-.257813-11.519531-.007812-8.5.503907-16.996094 1.535157-25.429687 10.839843-91.820313 79.617187-163.757813 164.867187-170.242188 93.011719 7.082031 166.398437 91.988281 166.398437 195.671875zm0 0" fill="#ffdc00"/><path d="m255.90625 460.816406v25.601563c-.027344 9.414062-7.652344 17.039062-17.066406 17.066406h-102.398438c-9.414062-.027344-17.039062-7.652344-17.066406-17.066406v-25.601563c-.070312-31.339844 24.195312-57.359375 55.464844-59.476562 1.417968-.167969 2.84375-.253906 4.269531-.253906h17.066406c15.84375-.011719 31.042969 6.277343 42.25 17.480468 11.203125 11.207032 17.492188 26.40625 17.480469 42.25zm0 0" fill="#283593"/><path d="m230.308594 460.816406v25.601563c-.027344 9.414062-7.652344 17.039062-17.066406 17.066406h-76.800782c-9.414062-.027344-17.039062-7.652344-17.066406-17.066406v-25.601563c-.070312-31.339844 24.195312-57.359375 55.464844-59.476562 31.273437 2.117187 55.535156 28.136718 55.46875 59.476562zm0 0" fill="#3f51b5"/><path d="m392.441406 460.816406v25.601563c-.027344 9.414062-7.652344 17.039062-17.066406 17.066406h-102.402344c-9.414062-.027344-17.039062-7.652344-17.066406-17.066406v-25.601563c-.066406-31.339844 24.195312-57.359375 55.46875-59.476562 1.414062-.167969 2.839844-.253906 4.265625-.253906h17.066406c15.847657-.011719 31.046875 6.277343 42.25 17.480468 11.207031 11.207032 17.496094 26.40625 17.484375 42.25zm0 0" fill="#283593"/><path d="m366.839844 460.816406v25.601563c-.027344 9.414062-7.652344 17.039062-17.066406 17.066406h-76.800782c-9.414062-.027344-17.039062-7.652344-17.066406-17.066406v-25.601563c-.066406-31.339844 24.195312-57.359375 55.46875-59.476562 31.269531 2.117187 55.535156 28.136718 55.464844 59.476562zm0 0" fill="#3f51b5"/><path d="m204.707031 238.953125h102.402344c4.710937 0 8.53125 3.820313 8.53125 8.53125v17.066406c0 32.992188-26.742187 59.734375-59.734375 59.734375-32.988281 0-59.730469-26.742187-59.730469-59.734375v-17.066406c0-4.710937 3.820313-8.53125 8.53125-8.53125zm0 0" fill="#bb193b"/><path d="m105.761719 335.808594c-16.804688-22.019532-45.03125-28.722656-63.046875-14.972656s-18.996094 42.746093-2.191406 64.761718c16.804687 22.019532 45.03125 28.722656 63.046874 14.972656 18.015626-13.75 18.996094-42.742187 2.191407-64.761718zm0 0" fill="#ff9801"/><path d="m460.109375 102.417969c-8.882813 4.046875-19.003906 4.414062-28.160156 1.023437-13.570313-5.097656-24.558594-15.382812-30.546875-28.585937-11.949219-25.003907-5.035156-53.25 15.445312-62.976563.765625-.339844 1.621094-.683594 2.472656-1.023437 20.054688-7.679688 44.628907 4.609375 56.148438 28.671875 11.949219 25.003906 5.121094 53.164062-15.359375 62.890625zm0 0" fill="#f57c00"/><path d="m434.511719 102.417969c-.824219.414062-1.679688.757812-2.5625 1.023437-13.570313-5.097656-24.558594-15.382812-30.546875-28.585937-11.949219-25.003907-5.035156-53.25 15.445312-62.976563.765625-.339844 1.621094-.683594 2.472656-1.023437 13.546876 5.1875 24.515626 15.480469 30.550782 28.671875 11.945312 25.003906 5.121094 53.164062-15.359375 62.890625zm0 0" fill="#ff9801"/><path d="m302.160156 302.269531c-11.316406 13.929688-28.308594 22.015625-46.253906 22.015625s-34.933594-8.085937-46.25-22.015625c1.796875-3.660156 3.96875-7.121093 6.484375-10.328125 9.449219-12.316406 24.25-19.335937 39.765625-18.855468 15.519531-.480469 30.316406 6.539062 39.765625 18.855468 2.519531 3.207032 4.691406 6.667969 6.488281 10.328125zm0 0" fill="#ad1457"/><path d="m295.671875 291.941406c-22.597656 20.371094-56.929687 20.371094-79.53125 0 9.449219-12.316406 24.25-19.335937 39.765625-18.855468 15.519531-.480469 30.316406 6.539062 39.765625 18.855468zm0 0" fill="#e91e63"/><path d="m386.832031 205.074219c5.757813 7.136719 7.257813 16.8125 3.933594 25.359375s-10.96875 14.664062-20.039063 16.03125c-9.070312 1.367187-18.175781-2.222656-23.875-9.40625-8.832031-11.039063-6.664062-49.308594-6.664062-49.308594s37.8125 6.285156 46.644531 17.324219zm0 0" fill="#0377bc"/><path d="m373.289062 195.929688c5.246094 8.777343 2.566407 20.132812-6.050781 25.636718-7.261719 7.195313-18.925781 7.320313-26.335937.273438-5.605469-7.003906-.714844-34.089844-.714844-34.089844s27.496094 1.179688 33.101562 8.179688zm0 0" fill="#02a9f4"/><path d="m124.984375 205.074219c-5.757813 7.136719-7.261719 16.8125-3.933594 25.359375 3.324219 8.546875 10.96875 14.664062 20.039063 16.03125 9.066406 1.367187 18.175781-2.222656 23.875-9.40625 8.832031-11.042969 6.664062-49.308594 6.664062-49.308594s-37.8125 6.285156-46.644531 17.324219zm0 0" fill="#02a9f4"/><path d="m159.558594 412.945312c-1.742188 0-3.441406-.535156-4.863282-1.535156-16.960937-11.882812-31.910156-26.402344-44.28125-43.007812-1.828124-2.4375-2.21875-5.667969-1.019531-8.472656 1.195313-2.804688 3.800781-4.753907 6.824219-5.121094 3.027344-.363282 6.019531.914062 7.847656 3.351562 11.28125 15.152344 24.914063 28.40625 40.375 39.253906 3.054688 2.132813 4.375 6.003907 3.257813 9.558594-1.117188 3.554688-4.414063 5.972656-8.140625 5.972656zm0 0"/><path d="m352.257812 412.945312c-3.726562.003907-7.027343-2.414062-8.148437-5.96875-1.117187-3.554687.199219-7.425781 3.257813-9.5625 50.65625-36.75 80.21875-95.886718 79.207031-158.460937 0-103.519531-76.558594-187.734375-170.667969-187.734375-85.480469 0-158.222656 70.203125-169.191406 163.304688-.992188 8.105468-1.484375 16.261718-1.472656 24.429687 0 3.710937.082031 7.421875.25 11.132813 1.296874 24.527343 7.039062 48.617187 16.941406 71.09375 1.230468 2.789062.878906 6.023437-.921875 8.484374-1.800781 2.460938-4.777344 3.773438-7.808594 3.445313s-5.65625-2.25-6.886719-5.039063c-10.742187-24.386718-16.964844-50.519531-18.367187-77.132812-.191407-4.050781-.273438-8.015625-.273438-11.984375-.007812-8.851563.523438-17.695313 1.597657-26.480469 11.976562-101.636718 91.992187-178.320312 186.132812-178.320312 103.519531 0 187.734375 91.871094 187.734375 204.800781 1.007813 68.152344-31.277344 132.515625-86.507813 172.457031-1.429687 1-3.132812 1.535156-4.875 1.535156zm0 0"/><path d="m238.839844 512.019531h-102.398438c-14.132812-.015625-25.585937-11.46875-25.601562-25.601562v-25.601563c.042968-37.683594 30.582031-68.222656 68.269531-68.265625h17.066406c37.683594.042969 68.222657 30.582031 68.265625 68.265625v25.601563c-.015625 14.132812-11.46875 25.585937-25.601562 25.601562zm-59.730469-102.402343c-28.265625.03125-51.171875 22.9375-51.203125 51.199218v25.601563c.003906 4.710937 3.824219 8.527343 8.535156 8.535156h102.398438c4.710937-.007813 8.53125-3.824219 8.535156-8.535156v-25.601563c-.03125-28.261718-22.9375-51.167968-51.199219-51.199218zm0 0"/><path d="m255.90625 477.882812h-136.53125c-4.714844 0-8.535156-3.820312-8.535156-8.53125 0-4.714843 3.820312-8.535156 8.535156-8.535156h136.53125c4.714844 0 8.535156 3.820313 8.535156 8.535156 0 4.710938-3.820312 8.53125-8.535156 8.53125zm0 0"/><path d="m375.375 512.019531h-102.402344c-14.128906-.015625-25.582031-11.46875-25.597656-25.601562v-25.601563c.042969-37.683594 30.582031-68.222656 68.265625-68.265625h17.066406c37.683594.042969 68.222657 30.582031 68.265625 68.265625v25.601563c-.015625 14.132812-11.464844 25.585937-25.597656 25.601562zm-59.734375-102.402343c-28.265625.03125-51.167969 22.9375-51.199219 51.199218v25.601563c.003906 4.710937 3.820313 8.527343 8.53125 8.535156h102.402344c4.710938-.007813 8.527344-3.824219 8.53125-8.535156v-25.601563c-.03125-28.261718-22.933594-51.167968-51.199219-51.199218zm0 0"/><path d="m392.441406 477.882812h-136.535156c-4.710938 0-8.53125-3.820312-8.53125-8.53125 0-4.714843 3.820312-8.535156 8.53125-8.535156h136.535156c4.710938 0 8.53125 3.820313 8.53125 8.535156 0 4.710938-3.820312 8.53125-8.53125 8.53125zm0 0"/><path d="m256.007812 366.953125c-12.796874.015625-25.480468-2.390625-37.375-7.101563-4.339843-1.765624-6.441406-6.695312-4.71875-11.046874 1.722657-4.351563 6.632813-6.503907 11-4.820313 19.898438 7.796875 41.996094 7.832031 61.917969.101563 2.839844-1.113282 6.054688-.628907 8.4375 1.273437 2.382813 1.902344 3.570313 4.929687 3.117188 7.945313-.457031 3.015624-2.488281 5.558593-5.324219 6.671874-11.804688 4.625-24.375 6.992188-37.054688 6.976563zm0 0"/><path d="m255.90625 332.816406c-37.683594-.042968-68.222656-30.582031-68.265625-68.265625v-17.066406c.011719-9.421875 7.644531-17.054687 17.066406-17.066406h102.402344c9.417969.011719 17.054687 7.644531 17.066406 17.066406v17.066406c-.042969 37.683594-30.582031 68.222657-68.269531 68.265625zm-51.199219-85.332031v17.066406c0 28.277344 22.921875 51.199219 51.199219 51.199219s51.203125-22.921875 51.203125-51.199219v-17.066406zm0 0"/><path d="m302.167969 310.800781c-3.246094.003907-6.210938-1.832031-7.652344-4.738281-7.0625-14.925781-22.09375-24.445312-38.609375-24.445312-16.511719 0-31.542969 9.519531-38.605469 24.445312-2.117187 4.183594-7.214843 5.875-11.414062 3.789062-4.195313-2.085937-5.925781-7.167968-3.871094-11.382812 9.945313-20.730469 30.898437-33.921875 53.890625-33.921875 22.996094 0 43.949219 13.191406 53.894531 33.921875 1.007813 2.027344 1.167969 4.371094.445313 6.515625s-2.269532 3.914063-4.296875 4.917969c-1.171875.59375-2.46875.898437-3.78125.898437zm0 0"/><path d="m81.808594 416.191406c-19.085938-.605468-36.820313-9.984375-48.066406-25.414062-9.140626-11.667969-13.984376-26.132813-13.710938-40.949219.074219-13.972656 6.519531-27.148437 17.507812-35.777344 21.726563-16.578125 55.375-9.136719 75.007813 16.578125 19.628906 25.722656 17.925781 60.140625-3.800781 76.722656-7.753906 5.84375-17.226563 8.953126-26.9375 8.839844zm-17.183594-93.992187c-6.023438-.097657-11.910156 1.808593-16.734375 5.417969-6.878906 5.558593-10.851563 13.941406-10.800781 22.785156-.140625 10.878906 3.464844 21.476562 10.21875 30.011718 13.925781 18.25 36.839844 24.234376 51.089844 13.371094 14.25-10.863281 14.5-34.558594.585937-52.804687v.003906c-7.980469-11.183594-20.636719-18.105469-34.359375-18.785156zm0 0"/><path d="m445.164062 114.320312c-7.355468-.0625-14.609374-1.75-21.238281-4.941406-13.335937-6.507812-24.019531-17.417968-30.242187-30.890625-13.925782-29.210937-5.183594-62.546875 19.480468-74.308593 12.695313-5.828126 27.355469-5.550782 39.820313.761718 13.308594 6.519532 23.964844 17.429688 30.171875 30.890625 6.550781 13.285157 8.339844 28.417969 5.066406 42.863281-2.898437 13.664063-11.894531 25.246094-24.414062 31.433594-5.824219 2.773438-12.191406 4.207032-18.644532 4.191406zm-13.382812-97.234374c-3.898438-.023438-7.746094.832031-11.265625 2.503906-16.175781 7.710937-21.300781 30.839844-11.433594 51.558594 4.527344 9.910156 12.332031 17.957031 22.101563 22.78125 7.867187 4.089843 17.167968 4.378906 25.273437.792968 7.859375-4.015625 13.453125-11.402344 15.183594-20.054687 2.34375-10.632813.976563-21.75-3.882813-31.496094-4.515624-9.898437-12.300781-17.941406-22.042968-22.785156-4.34375-2.113281-9.101563-3.242188-13.933594-3.300781zm0 0"/><path d="m24.917969 336.125-21.851563-55.292969c-8.601562-21.449219 1.554688-45.832031 22.832032-54.839843l44.542968-19.113282c2.175782-.917968 4.460938-1.53125 6.800782-1.828125l2 16.949219c-.746094.105469-1.472657.308594-2.164063.601562l-44.445313 19.070313c-12.753906 5.402344-18.84375 20.019531-13.695312 32.878906l21.847656 55.296875zm0 0"/><path d="m54.007812 316.921875-19.199218-48.640625c-1.699219-4.289062.324218-9.15625 4.566406-10.972656l34.226562-14.679688 6.734376 15.683594-26.613282 11.410156 16.152344 40.933594zm0 0"/><path d="m469.242188 221.882812h-35.671876c-4.710937 0-8.53125-3.820312-8.53125-8.53125 0-4.714843 3.820313-8.535156 8.53125-8.535156h24.519532l-26.347656-97.265625c-.855469-2.960937-.046876-6.152343 2.113281-8.347656 2.160156-2.199219 5.335937-3.058594 8.3125-2.257813 2.972656.804688 5.285156 3.152344 6.042969 6.140626l29.269531 108.03125c.695312 2.566406.15625 5.308593-1.457031 7.417968-1.617188 2.113282-4.125 3.351563-6.78125 3.347656zm0 0"/><path d="m469.242188 256.019531h-34.304688c-4.714844 0-8.535156-3.820312-8.535156-8.535156 0-4.710937 3.820312-8.53125 8.535156-8.53125h34.304688c7.917968 0 15.390624-3.660156 20.242187-9.914063 4.851563-6.257812 6.539063-14.40625 4.566406-22.074218l-30.308593-111.609375c-1.238282-4.546875 1.449218-9.238281 5.996093-10.472657 4.546875-1.234374 9.238281 1.449219 10.472657 5.996094l30.378906 111.875c3.253906 12.902344.355468 26.589844-7.859375 37.0625-8.082031 10.253906-20.429688 16.230469-33.488281 16.203125zm0 0"/><path d="m339.949219 196.96875c-2.460938 0-4.804688-1.0625-6.425781-2.914062-24.023438-27.460938-46.808594-8.5-47.757813-7.675782-3.589844 2.945313-8.875 2.480469-11.894531-1.042968-3.019532-3.527344-2.667969-8.820313.792968-11.914063 12.546876-10.757813 43.667969-22.632813 71.710938 9.390625 2.203125 2.523438 2.726562 6.097656 1.34375 9.144531-1.386719 3.050781-4.421875 5.007813-7.769531 5.011719zm0 0"/><path d="m366.875 255.183594c-10.382812.023437-20.207031-4.691406-26.691406-12.800782-10.351563-12.925781-8.910156-48.183593-8.519532-55.117187.136719-2.421875 1.292969-4.671875 3.1875-6.183594 1.890626-1.515625 4.339844-2.152343 6.730469-1.753906 6.851563 1.136719 41.566407 7.472656 51.917969 20.414063 8.195312 10.234374 9.800781 24.265624 4.121094 36.089843-5.675782 11.824219-17.628906 19.34375-30.746094 19.34375zm-18.433594-57.117188c0 14.488282 1.675782 29.414063 5.066406 33.660156 3.808594 4.761719 9.867188 7.128907 15.898438 6.210938 6.027344-.914062 11.109375-4.980469 13.328125-10.660156 2.21875-5.675782 1.242187-12.109375-2.566406-16.871094-3.394531-4.246094-17.59375-9.15625-31.726563-12.339844zm0 0"/><path d="m171.867188 196.96875c-3.347657-.003906-6.386719-1.960938-7.769532-5.011719-1.382812-3.046875-.859375-6.621093 1.34375-9.144531 28.050782-32.03125 59.167969-20.144531 71.707032-9.390625 3.476562 3.082031 3.847656 8.382813.835937 11.917969-3.015625 3.539062-8.304687 4.011718-11.902344 1.070312-2.464843-2.058594-24.449219-19.03125-47.789062 7.644532-1.621094 1.851562-3.964844 2.914062-6.425781 2.914062zm0 0"/><path d="m144.941406 255.183594c-13.113281-.007813-25.0625-7.527344-30.738281-19.347656-5.675781-11.820313-4.078125-25.847657 4.113281-36.089844 10.351563-12.9375 45.066406-19.273438 51.917969-20.410156 2.390625-.402344 4.839844.238281 6.730469 1.75 1.894531 1.515624 3.050781 3.765624 3.1875 6.183593.390625 6.9375 1.832031 42.191407-8.527344 55.125-6.480469 8.105469-16.304688 12.8125-26.683594 12.789063zm18.433594-57.117188c-14.136719 3.183594-28.332031 8.09375-31.726562 12.339844-3.886719 4.753906-4.921876 11.230469-2.710938 16.957031 2.214844 5.730469 7.335938 9.824219 13.410156 10.730469 6.074219.902344 12.164063-1.527344 15.949219-6.363281 3.3125-4.128907 5.050781-19.117188 5.078125-33.664063zm0 0"/><path d="m228.652344 96.089844c-9.644532-3.75-20.175782-4.605469-30.296875-2.457032-4.835938 1.550782-9.347657 3.976563-13.3125 7.148438-2.183594 1.539062-3.984375 3.640625-6.207031 5.359375-1.953126 2.019531-3.78125 4.179687-5.945313 6.199219l-.253906.238281c-.933594.871094-2.351563.976563-3.402344.25-1.054687-.722656-1.460937-2.082031-.976563-3.265625 1.164063-2.871094 2.609376-5.640625 4.035157-8.472656 1.703125-2.730469 3.617187-5.320313 5.730469-7.746094 4.539062-5.074219 10.277343-8.921875 16.691406-11.199219 6.59375-2.296875 13.726562-2.542969 20.464844-.707031 6.476562 1.695312 12.3125 5.253906 16.78125 10.242188.820312.941406.917968 2.3125.242187 3.363281-.679687 1.046875-1.96875 1.523437-3.167969 1.164062zm0 0"/><path d="m279.855469 91.679688c4.464843-4.984376 10.300781-8.546876 16.78125-10.238282 6.734375-1.835937 13.867187-1.589844 20.460937.707032 6.414063 2.273437 12.152344 6.121093 16.691406 11.195312 2.113282 2.425781 4.03125 5.015625 5.734376 7.746094 1.421874 2.832031 2.867187 5.601562 4.035156 8.472656.480468 1.183594.074218 2.542969-.976563 3.265625-1.054687.726563-2.46875.625-3.402343-.246094l-.257813-.238281c-2.164063-2.019531-3.992187-4.183594-5.941406-6.203125-2.21875-1.71875-4.027344-3.820313-6.207031-5.355469-3.964844-3.175781-8.476563-5.601562-13.3125-7.152344-10.125-2.148437-20.65625-1.292968-30.300782 2.457032l-.378906.117187c-1.195312.359375-2.484375-.113281-3.164062-1.160156-.679688-1.050781-.582032-2.421875.234374-3.363281zm0 0"/></svg>