<svg height="512pt" viewBox="0 0 512.02129 512" width="512pt" xmlns="http://www.w3.org/2000/svg"><path d="m247.476562 8.574219c-101.269531-.015625-190.675781 66.109375-220.3125 162.949219-29.640624 96.835937 7.441407 201.671874 91.375 258.339843h.085938l69.121094 48.042969v8.535156c.027344 9.414063 7.652344 17.039063 17.066406 17.066406h145.066406c9.414063-.027343 17.039063-7.652343 17.066406-17.066406v-50.433594c.765626-.511718 1.535157-.9375 2.304688-1.449218 3.753906-2.390625 7.507812-4.863282 11.09375-7.425782.007812.089844.039062.179688.082031.257813 1.058594 2.222656 2.570313 4.199219 4.4375 5.800781.597657.597656 1.28125 1.28125 1.964844 1.878906 1.257813 1.097657 2.597656 2.09375 4.007813 2.988282.6875.558594 1.429687 1.046875 2.21875 1.449218.800781.449219 1.628906.847657 2.476562 1.195313.691406.335937 1.402344.621094 2.132812.851563 1.109376.425781 2.21875.769531 3.328126 1.109374 2.8125.753907 5.710937 1.125 8.617187 1.109376 9.707031.015624 18.960937-4.113282 25.429687-11.347657 43.410157-48.574219 67.726563-111.246093 68.4375-176.386719 1.023438-76.796874-51.199218-247.464843-256-247.464843zm0 0" fill="#f0c419"/><path d="m503.476562 256.039062c-.710937 65.140626-25.027343 127.8125-68.4375 176.386719-6.46875 7.234375-15.722656 11.363281-25.429687 11.347657-2.90625.015624-5.804687-.355469-8.617187-1.109376-1.109376-.339843-2.21875-.683593-3.328126-1.109374-.730468-.230469-1.441406-.515626-2.132812-.851563-.847656-.347656-1.675781-.746094-2.476562-1.195313-.789063-.402343-1.53125-.890624-2.21875-1.449218-1.410157-.894532-2.75-1.890625-4.007813-2.988282-.683594-.597656-1.367187-1.28125-1.964844-1.878906-1.867187-1.601562-3.378906-3.578125-4.4375-5.800781-.042969-.078125-.074219-.167969-.082031-.257813-3.585938 2.5625-7.339844 5.035157-11.09375 7.425782-.769531.511718-1.539062.9375-2.304688 1.449218-20.9375 12.730469-43.785156 22.007813-67.671874 27.476563h-.253907l-.339843-2.644531c-8.617188-20.691406-28.789063-34.207032-51.203126-34.304688h-8.53125c-20.351562.03125-38.765624 12.082032-46.933593 30.722656-.6875 1.617188-1.285157 3.265626-1.792969 4.949219-1.648438 5.039063-2.484375 10.3125-2.472656 15.613281v.085938l-69.121094-48.042969h-.085938c-83.933593-56.667969-121.015624-161.503906-91.375-258.339843 29.636719-96.839844 119.042969-162.964844 220.3125-162.949219 204.800782 0 257.023438 170.667969 256 247.464843zm0 0" fill="#ffdc00"/><path d="m192.011719 457.257812c-8.152344-18.652343-26.578125-30.703124-46.933594-30.695312h-8.535156c-28.292969.046875-51.203125 23-51.199219 51.296875v8.550781c.019531 9.421875 7.644531 17.0625 17.066406 17.097656h145.066406zm0 0" fill="#3f51b5"/><path d="m366.945312 436.007812v50.433594c-.027343 9.414063-7.652343 17.039063-17.066406 17.066406h-145.066406c-9.414062-.027343-17.039062-7.652343-17.066406-17.066406v-8.621094c-.011719-5.300781.824218-10.574218 2.472656-15.613281.507812-1.683593 1.105469-3.332031 1.792969-4.949219 8.167969-18.640624 26.582031-30.691406 46.933593-30.722656h8.53125c22.414063.097656 42.585938 13.613282 51.203126 34.304688l.59375 2.644531c23.886718-5.46875 46.734374-14.746094 67.671874-27.476563zm0 0" fill="#3f51b5"/><path d="m503.476562 256.039062c-.710937 65.140626-25.027343 127.8125-68.4375 176.386719-6.46875 7.234375-15.722656 11.363281-25.429687 11.347657-2.90625.015624-5.804687-.355469-8.617187-1.109376-1.109376-.339843-2.21875-.683593-3.328126-1.109374-.300781-.058594-.589843-.175782-.851562-.339844 4.847656-1.878906 9.179688-4.894532 12.628906-8.789063 43.40625-48.574219 67.722656-111.246093 68.4375-176.386719 1.023438-74.921874-48.726562-239.273437-241.496094-247.125 3.671876-.253906 7.339844-.339843 11.09375-.339843 204.800782 0 257.023438 170.667969 256 247.464843zm0 0" fill="#fec108"/><path d="m366.945312 436.007812v50.433594c-.027343 9.414063-7.652343 17.039063-17.066406 17.066406h-25.601562c9.414062-.027343 17.039062-7.652343 17.066406-17.066406v-37.035156c8.808594-3.917969 17.359375-8.394531 25.601562-13.398438zm0 0" fill="#283593"/><path d="m78.007812 395.050781c-3.160156 4.007813-6.488281 7.933594-9.902343 11.773438-12.605469 13.949219-34.113281 15.082031-48.113281 2.535156-14-12.542969-15.226563-34.046875-2.742188-48.101563 7.546875-8.457031 14.371094-17.535156 20.394531-27.136718zm0 0" fill="#ff9801"/><path d="m380.34375 427.132812c-3.585938 2.5625-7.339844 5.035157-11.09375 7.425782-13.527344-12.695313-14.472656-33.851563-2.136719-47.703125 26.3125-29.351563 43.144531-65.96875 48.292969-105.050781 1.207031-9.3125 9.132812-16.285157 18.523438-16.292969-2.128907 44.96875-19.699219 87.824219-49.746094 121.34375-9.945313 11.144531-11.5 27.457031-3.839844 40.277343zm0 0" fill="#fec108"/><path d="m380.425781 427.390625c1.300781 2.0625 2.785157 4.007813 4.4375 5.800781-1.867187-1.601562-3.378906-3.578125-4.4375-5.800781zm0 0" fill="#f0c419"/><path d="m366.945312 436.007812v17.066407c-15.941406 9.691406-33.011718 17.394531-50.824218 22.9375-3.960938 1.199219-8.253906.449219-11.578125-2.019531-3.320313-2.472657-5.273438-6.367188-5.269531-10.507813 23.886718-5.46875 46.734374-14.746094 67.671874-27.476563zm0 0" fill="#283593"/><path d="m438.878906 85.933594 56.054688-5.671875c2.691406-.261719 5.324218.898437 6.945312 3.066406 1.617188 2.167969 1.984375 5.023437.96875 7.527344l-22.445312 50.121093c-1.125 2.300782-3.367188 3.855469-5.917969 4.097657-2.550781.246093-5.046875-.851563-6.589844-2.898438l-34.941406-43.015625-54.5-26.0625-54.347656.324219c-2.578125.019531-5-1.25-6.449219-3.386719-1.449219-2.132812-1.734375-4.851562-.761719-7.242187l22.445313-50.121094c1.191406-2.410156 3.59375-3.988281 6.28125-4.117187 2.6875-.128907 5.234375 1.207031 6.652344 3.496093l32.105468 47.820313zm0 0" fill="#6a1b9a"/><path d="m187.746094 179.304688c0-23.609376-19.105469-42.746094-42.667969-42.746094s-42.667969 19.136718-42.667969 42.746094c0 23.609374 19.105469 42.75 42.667969 42.75s42.667969-19.140626 42.667969-42.75zm0 0" fill="#f5f5f5"/><path d="m162.03125 179.304688c0-14.101563-11.410156-25.535157-25.488281-25.535157-14.074219 0-25.484375 11.433594-25.484375 25.535157 0 14.105468 11.410156 25.535156 25.484375 25.535156 14.078125 0 25.488281-11.429688 25.488281-25.535156zm0 0" fill="#3f51b5"/><path d="m324.277344 179.304688c-.019532 20.371093-14.425782 37.894531-34.410156 41.851562-19.980469 3.960938-39.980469-6.75-47.761719-25.574219-7.785157-18.828125-1.1875-40.53125 15.757812-51.839843 16.945313-11.308594 39.519531-9.074219 53.917969 5.335937 8.015625 8.015625 12.511719 18.890625 12.496094 30.226563zm0 0" fill="#f5f5f5"/><path d="m298.679688 179.304688c-.011719 12.222656-8.65625 22.738281-20.648438 25.113281-11.988281 2.375-23.988281-4.050781-28.65625-15.347657-4.671875-11.296874-.710938-24.316406 9.453125-31.101562 10.167969-6.785156 23.710937-5.445312 32.351563 3.199219 4.808593 4.808593 7.507812 11.335937 7.5 18.136719zm0 0" fill="#3f51b5"/><path d="m412.46875 107.980469-27.25-13.03125c-7.589844-3.773438-10.824219-12.878907-7.324219-20.59375l6.308594-14.082031c1.582031-3.695313 4.597656-6.585938 8.355469-8.015626 3.757812-1.425781 7.9375-1.261718 11.574218.449219l27.25 13.03125c7.589844 3.773438 10.824219 12.878907 7.320313 20.597657l-6.304687 14.078124c-1.582032 3.695313-4.597657 6.589844-8.359376 8.015626-3.757812 1.425781-7.933593 1.265624-11.570312-.449219zm0 0" fill="#9d27b0"/><path d="m162.144531 162.175781c0 4.710938-3.820312 8.53125-8.535156 8.53125-4.710937 0-8.53125-3.820312-8.53125-8.53125 0-4.714843 3.820313-8.535156 8.53125-8.535156 4.714844 0 8.535156 3.820313 8.535156 8.535156zm0 0" fill="#f5f5f5"/><path d="m299.714844 162.175781c0 4.710938-3.824219 8.53125-8.535156 8.53125-4.714844 0-8.535157-3.820312-8.535157-8.53125 0-4.714843 3.820313-8.535156 8.535157-8.535156 4.710937 0 8.535156 3.820313 8.535156 8.535156zm0 0" fill="#f5f5f5"/><path d="m349.878906 512.023438h-145.066406c-14.132812-.015626-25.585938-11.46875-25.601562-25.601563v-8.617187c-.007813-6.203126.972656-12.371094 2.902343-18.269532.578125-1.90625 1.257813-3.78125 2.035157-5.613281 9.507812-21.796875 31.015624-35.902344 54.796874-35.933594h8.53125c26.035157.015625 49.460938 15.816407 59.230469 39.953125 1.085938 2.878906.535157 6.121094-1.441406 8.484375-1.976563 2.359375-5.074219 3.472657-8.101563 2.910157-3.027343-.558594-5.515624-2.707032-6.515624-5.621094-7.355469-17.332032-24.339844-28.609375-43.171876-28.660156h-8.53125c-16.96875.019531-32.320312 10.070312-39.121093 25.617187-.546875 1.296875-1.023438 2.621094-1.429688 3.96875-1.402343 4.25-2.117187 8.695313-2.117187 13.167969v8.617187c.007812 4.710938 3.824218 8.527344 8.535156 8.535157h145.066406c4.710938-.007813 8.527344-3.824219 8.53125-8.535157v-50.429687c0-4.714844 3.820313-8.535156 8.535156-8.535156 4.710938 0 8.53125 3.820312 8.53125 8.535156v50.429687c-.015624 14.132813-11.46875 25.582031-25.597656 25.597657zm0 0"/><path d="m247.476562 512.023438h-145.066406c-14.140625-.023438-25.59375-11.492188-25.597656-25.632813v-8.550781c.007812-33 26.730469-59.765625 59.730469-59.828125h8.535156c23.757813-.027344 45.265625 14.042969 54.757813 35.820312 1.878906 4.320313-.097657 9.351563-4.421876 11.230469-4.320312 1.878906-9.347656-.101562-11.226562-4.421875-6.785156-15.546875-22.148438-25.585937-39.109375-25.5625h-8.535156c-23.578125.054687-42.664063 19.183594-42.664063 42.761719v8.550781c-.003906 4.71875 3.8125 8.550781 8.53125 8.566406h145.066406c4.714844 0 8.535157 3.820313 8.535157 8.535157 0 4.710937-3.820313 8.53125-8.535157 8.53125zm0 0"/><path d="m42.679688 426.691406c-16.832032.003906-32.09375-9.886718-38.964844-25.253906-6.867188-15.363281-4.0625-33.332031 7.164062-45.871094 7.226563-8.097656 13.761719-16.792968 19.527344-25.988281 1.617188-2.585937 4.488281-4.113281 7.535156-4.007813 3.046875.109376 5.808594 1.832032 7.238282 4.523438 1.433593 2.691406 1.316406 5.945312-.296876 8.53125-6.28125 10.007812-13.394531 19.46875-21.257812 28.285156-9.40625 10.550782-8.53125 26.714844 1.960938 36.183594 10.679687 9.019531 26.542968 8.148438 36.171874-1.984375 3.269532-3.679687 6.492188-7.476563 9.546876-11.355469 2.921874-3.675781 8.265624-4.296875 11.953124-1.390625 3.691407 2.902344 4.339844 8.242188 1.453126 11.949219-3.261719 4.144531-6.699219 8.199219-10.226563 12.164062-8.105469 9.035157-19.667969 14.203126-31.804687 14.214844zm0 0"/><path d="m409.609375 452.289062c-16.828125.003907-32.089844-9.886718-38.960937-25.25-6.867188-15.363281-4.0625-33.332031 7.164062-45.875 28.699219-32.089843 45.5-73.070312 47.59375-116.074218.347656-4.648438 4.269531-8.214844 8.929688-8.121094 2.261718.109375 4.386718 1.109375 5.910156 2.785156 1.523437 1.671875 2.316406 3.882813 2.210937 6.144532-2.28125 46.914062-20.613281 91.621093-51.921875 126.636718-9.386718 10.550782-8.5 26.703125 1.988282 36.160156 10.679687 9.019532 26.539062 8.144532 36.167968-1.988281 42.011719-47.046875 65.550782-107.722656 66.253906-170.796875-.546874-37.394531-9.257812-74.222656-25.53125-107.902344-2.035156-4.25-.242187-9.34375 4.011719-11.382812 4.25-2.035156 9.34375-.242188 11.382813 4.007812 17.375 36.054688 26.660156 75.472657 27.203125 115.492188-.753907 67.203125-25.84375 131.855469-70.617188 181.980469-8.105469 9.019531-19.65625 14.175781-31.785156 14.183593zm0 0"/><path d="m398.945312 59.84375c-4.730468.007812-8.578124-3.800781-8.621093-8.53125-.019531-2.253906.863281-4.425781 2.449219-6.027344 1.585937-1.601562 3.746093-2.503906 6-2.507812h.171874c4.710938 0 8.53125 3.820312 8.53125 8.535156 0 4.710938-3.820312 8.53125-8.53125 8.53125zm0 0"/><path d="m118.625 438.382812c-1.726562 0-3.417969-.507812-4.859375-1.460937-87.039063-58.769531-125.496094-167.488281-94.761719-267.914063 30.734375-100.421874 123.453125-168.9999995 228.472656-168.9843745 30.699219-.2851565 61.265626 4.0468745 90.675782 12.8437505 2.96875.851562 5.246094 3.246093 5.949218 6.253906.707032 3.007812-.269531 6.164062-2.554687 8.246094-2.28125 2.085937-5.511719 2.773437-8.445313 1.796874-27.773437-8.289062-56.636718-12.359374-85.625-12.074218-97.457031-.015625-183.507812 63.578125-212.101562 156.746094-28.59375 93.167968 6.96875 194.085937 87.652344 248.746093 3.257812 1.984375 4.796875 5.890625 3.773437 9.566407-1.023437 3.671874-4.363281 6.21875-8.175781 6.234374zm0 0"/><path d="m299.265625 472.003906c-4.339844-.007812-7.980469-3.269531-8.464844-7.582031-.484375-4.308594 2.339844-8.296875 6.570313-9.269531 22.992187-5.261719 44.992187-14.191406 65.144531-26.453125 4.304687-2.679688 8.6875-5.574219 12.902344-8.550781 3.851562-2.644532 9.113281-1.707032 11.808593 2.109374 2.695313 3.820313 1.820313 9.09375-1.964843 11.832032-4.484375 3.167968-9.152344 6.246094-13.808594 9.148437-21.738281 13.234375-45.46875 22.875-70.273437 28.550781-.628907.144532-1.269532.214844-1.914063.214844zm0 0"/><path d="m418.757812 117.960938c-3.453124-.003907-6.859374-.78125-9.96875-2.277344l-27.253906-13.035156c-11.730468-5.796876-16.78125-19.839844-11.425781-31.78125l6.308594-14.078126c2.574219-5.863281 7.429687-10.421874 13.441406-12.632812 5.851563-2.167969 12.335937-1.859375 17.957031.855469l27.246094 13.023437c11.734375 5.800782 16.785156 19.839844 11.429688 31.785156l-6.304688 14.078126c-2.578125 5.863281-7.433594 10.417968-13.441406 12.625-2.558594.949218-5.261719 1.433593-7.988282 1.4375zm-2.605468-17.679688c1.476562.710938 3.175781.792969 4.710937.226562 1.683594-.632812 3.035157-1.925781 3.746094-3.578124l6.304687-14.082032c1.628907-3.492187.210938-7.648437-3.214843-9.410156l-27.246094-13.03125c-1.472656-.714844-3.175781-.796875-4.710937-.226562-1.683594.632812-3.039063 1.925781-3.75 3.578124l-6.304688 14.078126c-1.632812 3.492187-.214844 7.644531 3.210938 9.410156zm0 0"/><path d="m324.074219 81.960938c-5.535157 0-10.691407-2.808594-13.691407-7.460938-2.992187-4.519531-3.46875-10.25-1.269531-15.199219l22.4375-50.109375c2.285157-5.179687 7.238281-8.679687 12.882813-9.1093748 5.914062-.4843752 11.628906 2.2734378 14.925781 7.2109378l32.105469 47.820312c1.640625 2.449219 1.90625 5.566407.699218 8.253907-1.207031 2.691406-3.714843 4.566406-6.632812 4.964843 1.757812 2.609375 1.941406 5.972657.472656 8.753907s-4.351562 4.53125-7.496094 4.550781l-54.347656.324219zm22.109375-63.679688-20.992188 46.894531 52.078125-.59375zm0 0"/><path d="m324.074219 81.960938c-5.535157 0-10.691407-2.808594-13.691407-7.460938-2.992187-4.519531-3.46875-10.25-1.269531-15.199219l22.4375-50.109375c2.285157-5.179687 7.238281-8.679687 12.882813-9.1093748 5.914062-.4843752 11.628906 2.2734378 14.925781 7.2109378l32.105469 47.820312c1.640625 2.449219 1.90625 5.566407.699218 8.253907-1.207031 2.691406-3.714843 4.566406-6.632812 4.964843 1.757812 2.609375 1.941406 5.972657.472656 8.753907s-4.351562 4.53125-7.496094 4.550781l-54.347656.324219zm22.109375-63.679688-20.992188 46.894531 52.078125-.59375zm0 0"/><path d="m473.898438 153.628906c-4.90625-.007812-9.546876-2.238281-12.617188-6.066406l-34.945312-43.023438c-1.941407-2.390624-2.445313-5.648437-1.308594-8.515624 1.132812-2.867188 3.726562-4.898438 6.78125-5.316407-1.683594-2.488281-1.933594-5.679687-.65625-8.398437 1.273437-2.722656 3.886718-4.570313 6.875-4.871094l56.054687-5.667969c5.789063-.558593 11.445313 2 14.839844 6.726563 3.394531 4.582031 4.050781 10.640625 1.71875 15.84375l-22.4375 50.121094c-2.195313 4.929687-6.808594 8.351562-12.164063 9.027343-.707031.09375-1.425781.140625-2.140624.140625zm-33.824219-59.242187 33.421875 41.144531 21.035156-46.976562zm0 0"/><path d="m145.078125 230.585938c-20.75.035156-39.480469-12.4375-47.441406-31.601563-7.964844-19.160156-3.597657-41.234375 11.0625-55.917969 14.664062-14.6875 36.730469-19.085937 55.902343-11.152344 19.175782 7.933594 31.679688 26.640626 31.675782 47.394532-.007813 28.285156-22.914063 51.222656-51.199219 51.277344zm0-85.496094c-13.847656-.035156-26.351563 8.28125-31.675781 21.066406-5.324219 12.78125-2.414063 27.515625 7.363281 37.320312 9.78125 9.800782 24.503906 12.746094 37.300781 7.453126 12.796875-5.289063 21.144532-17.773438 21.144532-31.621094 0-18.863282-15.269532-34.171875-34.132813-34.21875zm0 0"/><path d="m92.226562 118.167969c4.21875-8.453125 10.839844-15.472657 19.027344-20.183594 8.242188-4.953125 17.574219-7.816406 27.179688-8.332031 9.457031-.460938 18.910156 1.042968 27.757812 4.417968 4.277344 1.652344 8.410156 3.648438 12.359375 5.972657 3.757813 2.492187 7.355469 5.222656 10.765625 8.171875 1.101563.957031 1.421875 2.539062.773438 3.851562-.648438 1.308594-2.097656 2.015625-3.527344 1.722656l-.382812-.082031c-4.269532-.886719-8.207032-2.183593-12.140626-3.304687-4.03125-.761719-7.867187-2.007813-11.761718-2.601563-7.53125-1.421875-15.199219-1.988281-22.855469-1.695312-7.527344.554687-14.949219 2.070312-22.09375 4.511719-7.589844 2.652343-14.894531 6.070312-21.796875 10.199218l-.261719.152344c-.820312.476562-1.855469.367188-2.550781-.277344-.699219-.640625-.898438-1.660156-.492188-2.519531zm0 0"/><path d="m331.160156 120.8125c-6.902344-4.128906-14.207031-7.542969-21.800781-10.199219-7.140625-2.441406-14.5625-3.957031-22.089844-4.511719-7.65625-.292968-15.324219.273438-22.855469 1.695313-3.894531.59375-7.730468 1.839844-11.765624 2.601563-3.929688 1.121093-7.871094 2.417968-12.136719 3.304687l-.378907.078125c-1.429687.296875-2.882812-.40625-3.53125-1.71875-.648437-1.308594-.328124-2.890625.773438-3.851562 3.410156-2.949219 7.007812-5.679688 10.765625-8.171876 3.949219-2.324218 8.082031-4.320312 12.355469-5.972656 8.851562-3.371094 18.304687-4.878906 27.761718-4.417968 9.605469.515624 18.933594 3.378906 27.179688 8.332031 8.1875 4.710937 14.808594 11.734375 19.027344 20.1875.40625.851562.210937 1.871093-.484375 2.515625-.695313.640625-1.726563.757812-2.546875.285156zm0 0"/><path d="m281.609375 230.585938c-24.445313.019531-45.503906-17.234376-50.289063-41.207032-4.789062-23.976562 8.027344-47.992187 30.609376-57.363281 22.582031-9.371094 48.636718-1.484375 62.230468 18.835937 13.59375 20.320313 10.9375 47.414063-6.339844 64.710938-9.574218 9.648438-22.617187 15.058594-36.210937 15.023438zm0-85.496094c-16.308594-.019532-30.359375 11.484375-33.558594 27.476562-3.199219 15.992188 5.347657 32.015625 20.410157 38.269532 15.0625 6.253906 32.445312.996093 41.511718-12.5625 9.070313-13.554688 7.296875-31.628907-4.234375-43.164063-6.375-6.433594-15.066406-10.042969-24.128906-10.019531zm0 0"/><path d="m213.34375 324.289062c-73.203125 0-92.46875-46.070312-93.257812-48.027343-1.132813-2.832031-.667969-6.050781 1.21875-8.449219 1.882812-2.394531 4.90625-3.605469 7.921874-3.171875 3.019532.4375 5.578126 2.449219 6.710938 5.28125.605469 1.464844 16.308594 37.300781 77.40625 37.300781s76.800781-35.835937 77.433594-37.359375c1.769531-4.367187 6.742187-6.476562 11.113281-4.710937s6.480469 6.742187 4.710937 11.113281c-.785156 1.953125-20.054687 48.023437-93.257812 48.023437zm0 0"/><path d="m145.078125 145.089844c-5.496094.253906-10.945313 1.089844-16.261719 2.496094-5.359375 1.421874-10.496094 3.566406-15.277344 6.371093-2.378906 1.464844-4.640624 3.113281-6.765624 4.925781-3.121094 2.820313-6.847657 4.886719-10.894532 6.03125-4.300781 1.15625-8.871094.757813-12.902344-1.128906-3.582031-1.769531-6.550781-4.574218-8.515624-8.050781-.671876-1.195313-.503907-2.691406.414062-3.710937.921875-1.019532 2.390625-1.339844 3.652344-.792969l.640625.28125c3.964843 2.273437 8.695312 2.789062 13.054687 1.425781 1.957032-.914062 3.6875-2.246094 5.078125-3.898438 2.414063-2.605468 5.019531-5.023437 7.800781-7.234374 5.730469-4.292969 12.109376-7.636719 18.894532-9.90625 6.792968-2.347657 13.898437-3.652344 21.082031-3.875 4.609375 0 8.390625 3.660156 8.53125 8.269531.144531 4.609375-3.398437 8.496093-8 8.78125h-.007813zm0 0"/><path d="m281.609375 128.023438c7.207031.035156 14.359375 1.242187 21.179687 3.574218 6.851563 2.199219 13.273438 5.566406 18.980469 9.949219 2.785157 2.230469 5.402344 4.667969 7.816407 7.292969 1.394531 1.605468 3.058593 2.957031 4.917968 3.992187 4.398438 1.847657 9.414063 1.539063 13.550782-.84375l.433593-.195312c.976563-.4375 2.125-.203125 2.851563.582031.726562.785156.871094 1.945312.359375 2.886719-1.835938 3.460937-4.65625 6.300781-8.109375 8.15625-3.945313 2.03125-8.484375 2.601562-12.808594 1.605469-4.121094-1.027344-7.921875-3.070313-11.054688-5.941407-2.121093-1.792969-4.378906-3.421875-6.75-4.871093-4.792968-2.707032-9.894531-4.828126-15.191406-6.324219-5.296875-1.414063-10.710937-2.351563-16.175781-2.796875l-.628906-.039063c-4.601563-.304687-8.128907-4.210937-7.957031-8.820312.171874-4.609375 3.976562-8.246094 8.585937-8.207031zm0 0"/></svg>