<svg height="512pt" viewBox="0 0 512.0112 512" width="512pt" xmlns="http://www.w3.org/2000/svg"><path d="m78.007812 395.03125c-3.160156 4.011719-6.488281 7.933594-9.902343 11.777344-12.605469 13.945312-34.113281 15.078125-48.113281 2.535156-14-12.546875-15.226563-34.050781-2.742188-48.105469 7.546875-8.453125 14.371094-17.53125 20.394531-27.136719zm0 0" fill="#ff9801"/><path d="m247.476562 8.554688c-101.269531-.015626-190.675781 66.109374-220.3125 162.949218-29.640624 96.839844 7.441407 201.675782 91.375 258.34375h.085938l69.121094 48.042969v8.53125c.027344 9.414063 7.652344 17.039063 17.066406 17.066406h145.066406c9.414063-.027343 17.039063-7.652343 17.066406-17.066406v-50.429687c.765626-.511719 1.535157-.941407 2.304688-1.453126 3.753906-2.386718 7.507812-4.863281 11.09375-7.421874.007812.089843.039062.175781.082031.253906 1.058594 2.222656 2.570313 4.199218 4.4375 5.804687.597657.597657 1.28125 1.277344 1.964844 1.875 1.257813 1.097657 2.597656 2.097657 4.007813 2.988281.6875.5625 1.429687 1.046876 2.21875 1.449219.800781.449219 1.628906.847657 2.476562 1.195313.691406.335937 1.402344.621094 2.132812.855468 1.109376.425782 2.21875.765626 3.328126 1.109376 2.8125.75 5.710937 1.121093 8.617187 1.109374 9.707031.011719 18.960937-4.117187 25.429687-11.351562 43.410157-48.574219 67.726563-111.242188 68.4375-176.382812 1.023438-76.800782-51.199218-247.46875-256-247.46875zm0 0" fill="#f0c419"/><path d="m503.476562 256.023438c-.710937 65.140624-25.027343 127.808593-68.4375 176.382812-6.46875 7.234375-15.722656 11.363281-25.429687 11.351562-2.90625.011719-5.804687-.359374-8.617187-1.109374-1.109376-.34375-2.21875-.683594-3.328126-1.109376-.730468-.234374-1.441406-.519531-2.132812-.855468-.847656-.347656-1.675781-.746094-2.476562-1.195313-.789063-.402343-1.53125-.886719-2.21875-1.449219-1.410157-.890624-2.75-1.890624-4.007813-2.988281-.683594-.597656-1.367187-1.277343-1.964844-1.875-1.867187-1.605469-3.378906-3.582031-4.4375-5.804687-.042969-.078125-.074219-.164063-.082031-.253906-3.585938 2.558593-7.339844 5.035156-11.09375 7.421874-.769531.511719-1.539062.941407-2.304688 1.453126-20.9375 12.726562-43.785156 22.003906-67.671874 27.476562h-.253907l-.339843-2.644531c-8.617188-20.695313-28.789063-34.210938-51.203126-34.304688h-8.53125c-20.351562.027344-38.765624 12.078125-46.933593 30.71875-.6875 1.617188-1.285157 3.269531-1.792969 4.949219-1.648438 5.042969-2.484375 10.3125-2.472656 15.617188v.085937l-69.121094-48.042969h-.085938c-83.933593-56.667968-121.015624-161.503906-91.375-258.34375 29.636719-96.839844 119.042969-162.964844 220.3125-162.949218 204.800782 0 257.023438 170.667968 256 247.46875zm0 0" fill="#ffdc00"/><path d="m380.34375 427.117188c-3.585938 2.558593-7.339844 5.035156-11.09375 7.421874-13.527344-12.691406-14.472656-33.851562-2.136719-47.699218 26.3125-29.355469 43.144531-65.972656 48.292969-105.054688 1.207031-9.3125 9.132812-16.285156 18.523438-16.289062-2.128907 44.964844-19.699219 87.820312-49.746094 121.34375-9.945313 11.144531-11.5 27.453125-3.839844 40.277344zm0 0" fill="#fec108"/><path d="m192.011719 457.238281c-8.152344-18.652343-26.578125-30.703125-46.933594-30.695312h-8.535156c-28.292969.046875-51.203125 23.003906-51.199219 51.296875v8.550781c.019531 9.421875 7.644531 17.0625 17.066406 17.097656h145.066406zm0 0" fill="#3f51b5"/><path d="m366.945312 435.992188v50.429687c-.027343 9.414063-7.652343 17.039063-17.066406 17.066406h-145.066406c-9.414062-.027343-17.039062-7.652343-17.066406-17.066406v-8.617187c-.011719-5.304688.824218-10.574219 2.472656-15.617188.507812-1.679688 1.105469-3.332031 1.792969-4.949219 8.167969-18.640625 26.582031-30.691406 46.933593-30.71875h8.53125c22.414063.09375 42.585938 13.609375 51.203126 34.304688l.59375 2.644531c23.886718-5.472656 46.734374-14.75 67.671874-27.476562zm0 0" fill="#3f51b5"/><path d="m380.425781 427.371094c1.300781 2.066406 2.785157 4.007812 4.4375 5.804687-1.867187-1.605469-3.378906-3.582031-4.4375-5.804687zm0 0" fill="#f0c419"/><path d="m366.945312 435.992188v17.066406c-15.941406 9.6875-33.011718 17.390625-50.824218 22.933594-3.960938 1.199218-8.253906.449218-11.578125-2.019532-3.320313-2.46875-5.273438-6.367187-5.269531-10.503906 23.886718-5.472656 46.734374-14.75 67.671874-27.476562zm0 0" fill="#283593"/><path d="m171.191406 213c14.429688-11.167969 20.160156-30.277344 14.261719-47.542969-5.902344-17.265625-22.128906-28.867187-40.375-28.867187s-34.472656 11.601562-40.375 28.867187c-5.898437 17.265625-.167969 36.375 14.261719 47.542969l27.535156-8.535156zm0 0" fill="#f5f5f5"/><path d="m179.179688 170.671875c0-14.144531-11.449219-25.613281-25.570313-25.613281-14.117187 0-25.566406 11.46875-25.566406 25.613281 0 14.148437 11.449219 25.617187 25.566406 25.617187 14.121094 0 25.570313-11.46875 25.570313-25.617187zm0 0" fill="#3f51b5"/><path d="m307.722656 213c1.460938-1.050781 2.832032-2.21875 4.097656-3.5 16.628907-16.671875 16.609376-43.667969-.050781-60.316406-16.660156-16.644532-43.65625-16.644532-60.316406 0-16.660156 16.648437-16.679687 43.644531-.050781 60.316406 1.265625 1.28125 2.636718 2.449219 4.097656 3.5l28.007812-8.535156zm0 0" fill="#f5f5f5"/><path d="m315.726562 170.65625c-.011718 12.214844-8.648437 22.722656-20.628906 25.097656-11.984375 2.371094-23.976562-4.050781-28.640625-15.339844-4.667969-11.285156-.710937-24.300781 9.449219-31.082031s23.695312-5.441406 32.328125 3.199219c4.808594 4.808594 7.503906 11.328125 7.492187 18.125zm0 0" fill="#3f51b5"/><path d="m145.078125 179.222656c0 4.710938-3.820313 8.535156-8.535156 8.535156-4.710938 0-8.53125-3.824218-8.53125-8.535156 0-4.710937 3.820312-8.535156 8.53125-8.535156 4.714843 0 8.535156 3.824219 8.535156 8.535156zm0 0" fill="#f5f5f5"/><path d="m281.609375 179.222656c0 4.710938-3.820313 8.535156-8.53125 8.535156-4.714844 0-8.535156-3.824218-8.535156-8.535156 0-4.710937 3.820312-8.535156 8.535156-8.535156 4.710937 0 8.53125 3.824219 8.53125 8.535156zm0 0" fill="#f5f5f5"/><path d="m503.476562 256.023438c-.710937 65.140624-25.027343 127.808593-68.4375 176.382812-6.46875 7.234375-15.722656 11.363281-25.429687 11.351562-2.90625.011719-5.804687-.359374-8.617187-1.109374-1.109376-.34375-2.21875-.683594-3.328126-1.109376-.300781-.0625-.589843-.179687-.851562-.34375 4.847656-1.878906 9.179688-4.894531 12.628906-8.789062 43.40625-48.574219 67.722656-111.242188 68.4375-176.382812 1.023438-74.921876-48.726562-239.277344-241.496094-247.125 3.671876-.257813 7.339844-.34375 11.09375-.34375 204.800782 0 257.023438 170.667968 256 247.46875zm0 0" fill="#fec108"/><path d="m366.945312 435.992188v50.429687c-.027343 9.414063-7.652343 17.039063-17.066406 17.066406h-25.601562c9.414062-.027343 17.039062-7.652343 17.066406-17.066406v-37.035156c8.808594-3.917969 17.359375-8.394531 25.601562-13.394531zm0 0" fill="#283593"/><path d="m349.878906 512.003906h-145.066406c-14.132812-.015625-25.585938-11.464844-25.601562-25.597656v-8.621094c-.007813-6.203125.972656-12.371094 2.902343-18.269531.578125-1.90625 1.257813-3.78125 2.035157-5.613281 9.507812-21.796875 31.015624-35.902344 54.796874-35.933594h8.53125c26.035157.015625 49.460938 15.820312 59.230469 39.953125 1.085938 2.882813.535157 6.125-1.441406 8.484375-1.976563 2.363281-5.074219 3.476562-8.101563 2.914062-3.027343-.5625-5.515624-2.710937-6.515624-5.625-7.355469-17.332031-24.339844-28.609374-43.171876-28.660156h-8.53125c-16.96875.019532-32.320312 10.070313-39.121093 25.617188-.546875 1.296875-1.023438 2.621094-1.429688 3.96875-1.402343 4.25-2.117187 8.695312-2.117187 13.167968v8.617188c.007812 4.710938 3.824218 8.527344 8.535156 8.535156h145.066406c4.710938-.007812 8.527344-3.824218 8.53125-8.535156v-50.429688c0-4.714843 3.820313-8.535156 8.535156-8.535156 4.710938 0 8.53125 3.820313 8.53125 8.535156v50.429688c-.015624 14.132812-11.46875 25.582031-25.597656 25.597656zm0 0"/><path d="m247.476562 512.003906h-145.066406c-14.140625-.023437-25.59375-11.492187-25.597656-25.632812v-8.546875c.007812-33.003907 26.730469-59.769531 59.730469-59.832031h8.535156c23.757813-.023438 45.265625 14.046874 54.757813 35.820312 1.878906 4.324219-.097657 9.351562-4.421876 11.230469-4.320312 1.882812-9.347656-.097657-11.226562-4.421875-6.785156-15.542969-22.148438-25.585938-39.109375-25.5625h-8.535156c-23.578125.054687-42.664063 19.183594-42.664063 42.765625v8.546875c-.003906 4.722656 3.8125 8.554687 8.53125 8.566406h145.066406c4.714844 0 8.535157 3.820312 8.535157 8.535156 0 4.710938-3.820313 8.53125-8.535157 8.53125zm0 0"/><path d="m42.679688 426.671875c-16.832032.003906-32.09375-9.886719-38.964844-25.25-6.867188-15.367187-4.0625-33.332031 7.164062-45.875 7.226563-8.097656 13.761719-16.789063 19.527344-25.988281 1.617188-2.582032 4.488281-4.109375 7.535156-4.003906 3.046875.105468 5.808594 1.828124 7.238282 4.523437 1.433593 2.691406 1.316406 5.941406-.296876 8.527344-6.28125 10.007812-13.394531 19.46875-21.257812 28.289062-9.40625 10.546875-8.53125 26.710938 1.960938 36.179688 10.679687 9.023437 26.542968 8.152343 36.171874-1.984375 3.269532-3.679688 6.492188-7.476563 9.546876-11.355469 2.921874-3.675781 8.265624-4.296875 11.953124-1.390625 3.691407 2.90625 4.339844 8.246094 1.453126 11.949219-3.261719 4.148437-6.699219 8.199219-10.226563 12.167969-8.105469 9.035156-19.667969 14.199218-31.804687 14.210937zm0 0"/><path d="m409.609375 452.273438c-16.828125.003906-32.089844-9.886719-38.960937-25.253907-6.867188-15.363281-4.0625-33.332031 7.164062-45.871093 28.699219-32.09375 45.5-73.074219 47.59375-116.074219.320312-4.664063 4.257812-8.246094 8.929688-8.121094 2.261718.105469 4.386718 1.105469 5.910156 2.78125 1.523437 1.675781 2.316406 3.886719 2.210937 6.148437-2.28125 46.914063-20.613281 91.621094-51.921875 126.632813-9.386718 10.550781-8.5 26.703125 1.988282 36.164063 10.679687 9.015624 26.539062 8.144531 36.167968-1.992188 42.003906-47.050781 65.539063-107.722656 66.253906-170.792969-1.121093-63.945312-26.054687-125.171875-69.925781-171.710937-43.9375-44.53125-103.675781-67.109375-177.542969-67.109375-97.457031-.015625-183.507812 63.578125-212.101562 156.746093-28.59375 93.167969 6.96875 194.085938 87.65625 248.742188 3.257812 1.988281 4.796875 5.894531 3.773438 9.570312-1.027344 3.671876-4.367188 6.21875-8.179688 6.230469h-.085938c-1.703124.003907-3.363281-.507812-4.773437-1.460937-87.042969-58.765625-125.496094-167.488282-94.761719-267.910156 30.734375-100.425782 123.449219-169.0000005 228.472656-168.98828175 78.605469 0 142.421876 24.28906275 189.699219 72.19531275 47.363281 49.597656 74.113281 115.339843 74.835938 183.917969-.769531 67.199218-25.855469 131.84375-70.617188 181.96875-8.101562 9.019531-19.65625 14.179687-31.785156 14.1875zm0 0"/><path d="m299.265625 471.984375c-4.339844-.007813-7.980469-3.269531-8.464844-7.578125-.484375-4.3125 2.339844-8.300781 6.570313-9.269531 22.992187-5.265625 44.992187-14.195313 65.144531-26.453125 4.304687-2.679688 8.6875-5.578125 12.902344-8.550782 3.851562-2.648437 9.113281-1.707031 11.808593 2.109376 2.695313 3.816406 1.820313 9.089843-1.964843 11.832031-4.484375 3.164062-9.152344 6.246093-13.808594 9.144531-21.738281 13.234375-45.46875 22.875-70.273437 28.550781-.628907.144531-1.269532.21875-1.914063.214844zm0 0"/><path d="m171.199219 221.53125c-3.664063.003906-6.921875-2.328125-8.09375-5.800781-1.175781-3.46875-.003907-7.300781 2.910156-9.519531 11.519531-8.949219 16.082031-24.226563 11.351563-38.023438-4.730469-13.800781-17.703126-23.066406-32.289063-23.066406s-27.5625 9.265625-32.289063 23.066406c-4.730468 13.796875-.167968 29.074219 11.351563 38.023438 2.425781 1.847656 3.679687 4.851562 3.289063 7.875-.386719 3.023437-2.359376 5.613281-5.171876 6.785156-2.816406 1.175781-6.042968.761718-8.46875-1.085938-17.339843-13.386718-24.242187-36.324218-17.167968-57.058594 7.070312-20.730468 26.550781-34.667968 48.457031-34.667968s41.386719 13.9375 48.457031 34.667968c7.074219 20.734376.171875 43.671876-17.167968 57.058594-1.488282 1.132813-3.300782 1.746094-5.167969 1.746094zm0 0"/><path d="m307.730469 221.53125c-3.714844.003906-7.007813-2.402344-8.136719-5.945312-1.125-3.542969.167969-7.40625 3.203125-9.554688 1.066406-.769531 2.066406-1.625 2.988281-2.558594 13.277344-13.382812 13.277344-34.96875 0-48.351562-13.511718-12.957032-34.839844-12.957032-48.351562 0-13.277344 13.378906-13.277344 34.96875 0 48.351562.925781.933594 1.921875 1.789063 2.988281 2.558594 3.742187 2.757812 4.589844 8 1.90625 11.796875-2.683594 3.792969-7.910156 4.742187-11.757813 2.136719-1.855468-1.328125-3.597656-2.808594-5.203124-4.429688-19.960938-20.007812-19.9375-52.402344.054687-72.378906 19.988281-19.980469 52.386719-19.980469 72.378906 0 19.992188 19.976562 20.015625 52.371094.054688 72.378906-1.609375 1.621094-3.347657 3.101563-5.207031 4.429688-1.4375 1.019531-3.15625 1.566406-4.917969 1.566406zm0 0"/><path d="m256.011719 298.671875h-102.402344c-4.710937 0-8.53125-3.820313-8.53125-8.53125 0-4.714844 3.820313-8.535156 8.53125-8.535156h102.402344c4.710937-.007813 8.527343-3.824219 8.53125-8.53125v-8.535157c0-4.714843 3.820312-8.535156 8.535156-8.535156 4.710937 0 8.53125 3.820313 8.53125 8.535156v8.535157c-.015625 14.128906-11.464844 25.582031-25.597656 25.597656zm0 0"/><path d="m196.277344 332.804688h-8.53125c-4.714844 0-8.535156-3.820313-8.535156-8.53125 0-4.714844 3.820312-8.535157 8.535156-8.535157h8.53125c4.714844 0 8.535156 3.820313 8.535156 8.535157 0 4.710937-3.820312 8.53125-8.535156 8.53125zm0 0"/><path d="m179.21875 230.40625c-3.234375.003906-6.195312-1.820312-7.640625-4.71875-5.960937-8.589844-16.085937-13.308594-26.5-12.347656-10.457031-.96875-20.617187 3.796875-26.558594 12.457031-2.222656 4.109375-7.3125 5.699219-11.476562 3.585937-4.140625-2.113281-5.804688-7.167968-3.730469-11.328124 8.765625-14.488282 24.871094-22.886719 41.765625-21.78125 16.894531-1.101563 33 7.296874 41.765625 21.78125 1.324219 2.644531 1.183594 5.785156-.371094 8.300781-1.554687 2.515625-4.296875 4.046875-7.253906 4.050781zm0 0"/><path d="m315.753906 230.40625c-3.238281.003906-6.199218-1.820312-7.640625-4.71875-5.964843-8.589844-16.089843-13.308594-26.503906-12.347656-10.453125-.96875-20.617187 3.796875-26.554687 12.457031-2.222657 4.109375-7.3125 5.699219-11.476563 3.585937-4.140625-2.113281-5.804687-7.167968-3.734375-11.328124 8.769531-14.488282 24.871094-22.886719 41.765625-21.78125 16.898437-1.101563 33.003906 7.296874 41.769531 21.78125 1.320313 2.644531 1.179688 5.785156-.371094 8.300781-1.554687 2.515625-4.296874 4.046875-7.253906 4.050781zm0 0"/><path d="m92.039062 118.421875c6.253907-19.335937 21.539063-34.414063 40.960938-40.402344 9.910156-3.117187 20.511719-3.320312 30.535156-.585937 4.84375 1.191406 9.515625 2.996094 13.90625 5.363281 4.1875 2.429687 8.160156 5.21875 11.867188 8.332031 1.144531.90625 1.519531 2.480469.910156 3.804688-.609375 1.328125-2.046875 2.070312-3.480469 1.792968l-.566406-.109374c-4.515625-.867188-8.59375-2.398438-12.777344-3.273438-4.058593-.898438-8.175781-1.515625-12.320312-1.851562-7.847657-.820313-15.78125-.039063-23.320313 2.304687-15.75 5.824219-30.082031 14.933594-42.042968 26.726563l-.152344.136718c-.429688.378906-.996094.574219-1.570313.539063-.574219-.035157-1.113281-.296875-1.492187-.726563-.492188-.5625-.660156-1.332031-.457032-2.050781zm0 0"/><path d="m330.972656 120.523438c-11.957031-11.792969-26.289062-20.902344-42.039062-26.722657-7.539063-2.34375-15.472656-3.128906-23.324219-2.304687-4.140625.335937-8.257813.953125-12.316406 1.847656-4.183594.875-8.261719 2.40625-12.78125 3.277344l-.5625.105468c-1.433594.277344-2.871094-.460937-3.480469-1.789062s-.234375-2.898438.90625-3.808594c3.710938-3.113281 7.679688-5.898437 11.867188-8.332031 4.394531-2.367187 9.066406-4.171875 13.910156-5.363281 10.023437-2.734375 20.621094-2.53125 30.535156.582031 19.417969 5.992187 34.703125 21.066406 40.957031 40.40625.273438.925781-.097656 1.917969-.910156 2.4375s-1.871094.441406-2.597656-.191406zm0 0"/></svg>