<svg height="511pt" viewBox="0 -17 511.92742 511" width="511pt" xmlns="http://www.w3.org/2000/svg"><path d="m434.972656 216.785156 34.21875 14.675782-19.199218 48.640624 29.097656 19.199219 21.84375-55.296875c6.867187-17.152344-1.25-36.648437-18.261719-43.859375l-44.542969-19.117187c-1.417968-.59375-2.910156-.996094-4.4375-1.191406zm0 0" fill="#ff5722"/><path d="m76.953125 216.785156-34.21875 14.675782 19.199219 48.640624-29.097656 19.199219-21.84375-55.296875c-6.867188-17.152344 1.25-36.648437 18.257812-43.859375l44.546875-19.117187c1.417969-.59375 2.910156-.996094 4.4375-1.191406zm0 0" fill="#ff5722"/><path d="m435.097656 205.265625c.929688 65.34375-29.976562 127.0625-82.859375 165.460937l-97.28125 72.53125-12.714843-9.640624-82.6875-62.890626c-16.207032-11.371093-30.496094-25.257812-42.324219-41.132812l-22.613281-38.65625c-10.3125-23.449219-16.296876-48.574219-17.664063-74.152344-.171875-3.839844-.257813-7.679687-.257813-11.519531-.007812-8.5.503907-16.996094 1.539063-25.429687 10.835937-91.820313 79.613281-163.757813 164.863281-170.242188 4.265625-.425781 8.53125-.597656 12.800782-.597656 98.984374 0 179.199218 87.894531 179.199218 196.269531zm0 0" fill="#fec108"/><path d="m409.496094 205.265625c.929687 65.34375-29.976563 127.0625-82.859375 165.460937l-84.394531 62.890626-82.6875-62.890626c-16.207032-11.371093-30.496094-25.257812-42.324219-41.132812l-22.613281-38.65625c-10.3125-23.449219-16.296876-48.574219-17.664063-74.152344-.171875-3.839844-.257813-7.679687-.257813-11.519531-.007812-8.5.503907-16.996094 1.539063-25.429687 10.835937-91.820313 79.613281-163.757813 164.863281-170.242188 93.011719 7.082031 166.398438 91.988281 166.398438 195.671875zm0 0" fill="#ffdc00"/><path d="m255.898438 427.128906v25.601563c-.027344 9.414062-7.652344 17.039062-17.066407 17.066406h-102.402343c-9.414063-.027344-17.039063-7.652344-17.066407-17.066406v-25.601563c-.066406-31.339844 24.195313-57.359375 55.46875-59.476562 1.414063-.167969 2.839844-.253906 4.265625-.253906h17.066406c15.84375-.011719 31.046876 6.277343 42.25 17.480468 11.203126 11.207032 17.496094 26.40625 17.484376 42.25zm0 0" fill="#283593"/><path d="m230.296875 427.128906v25.601563c-.027344 9.414062-7.652344 17.039062-17.066406 17.066406h-76.800781c-9.414063-.027344-17.039063-7.652344-17.066407-17.066406v-25.601563c-.066406-31.339844 24.195313-57.359375 55.46875-59.476562 31.269531 2.117187 55.535157 28.136718 55.464844 59.476562zm0 0" fill="#3f51b5"/><path d="m392.429688 427.128906v25.601563c-.027344 9.414062-7.652344 17.039062-17.066407 17.066406h-102.398437c-9.414063-.027344-17.039063-7.652344-17.066406-17.066406v-25.601563c-.070313-31.339844 24.195312-57.359375 55.464843-59.476562 1.417969-.167969 2.839844-.253906 4.265625-.253906h17.066406c15.847657-.011719 31.046876 6.277343 42.253907 17.480468 11.203125 11.207032 17.492187 26.40625 17.480469 42.25zm0 0" fill="#283593"/><path d="m366.832031 427.128906v25.601563c-.027343 9.414062-7.652343 17.039062-17.066406 17.066406h-76.800781c-9.414063-.027344-17.039063-7.652344-17.066406-17.066406v-25.601563c-.070313-31.339844 24.195312-57.359375 55.464843-59.476562 31.273438 2.117187 55.535157 28.136718 55.46875 59.476562zm0 0" fill="#3f51b5"/><path d="m105.75 302.121094c-16.804688-22.019532-45.03125-28.722656-63.046875-14.972656-18.011719 13.75-18.996094 42.746093-2.191406 64.761718 16.804687 22.019532 45.035156 28.722656 63.046875 14.972656 18.015625-13.75 19-42.742187 2.191406-64.761718zm0 0" fill="#ff9801"/><path d="m471.449219 351.953125c-11.785157 17.34375-33.222657 25.378906-53.503907 20.050781-3.453124-1.15625-6.683593-2.886718-9.558593-5.117187-18.003907-13.742188-19.027344-42.753907-2.21875-64.769531 7.015625-9.398438 16.761719-16.402344 27.90625-20.054688 11.847656-4.179688 24.992187-2.265625 35.15625 5.121094 18.003906 13.738281 18.945312 42.667968 2.21875 64.769531zm0 0" fill="#f57c00"/><path d="m445.847656 351.953125c-7.03125 9.378906-16.769531 16.378906-27.902344 20.050781-3.453124-1.15625-6.683593-2.886718-9.558593-5.117187-18.003907-13.742188-19.027344-42.753907-2.21875-64.769531 7.015625-9.398438 16.761719-16.402344 27.90625-20.054688 3.449219 1.15625 6.679687 2.890625 9.554687 5.121094 18.007813 13.738281 18.945313 42.667968 2.21875 64.769531zm0 0" fill="#ff9801"/><path d="m159.546875 379.257812c-1.742187 0-3.441406-.535156-4.871094-1.535156-16.957031-11.882812-31.902343-26.402344-44.273437-43.007812-2.828125-3.769532-2.0625-9.121094 1.707031-11.945313 3.769531-2.828125 9.121094-2.066406 11.949219 1.703125 11.28125 15.15625 24.910156 28.40625 40.378906 39.253906 3.054688 2.132813 4.371094 6.003907 3.253906 9.558594-1.117187 3.554688-4.414062 5.972656-8.140625 5.972656zm0 0"/><path d="m352.246094 379.257812c-3.726563.003907-7.027344-2.410156-8.148438-5.96875-1.121094-3.554687.195313-7.425781 3.253906-9.5625 15.570313-10.878906 29.257813-24.238281 40.511719-39.539062 2.804688-3.765625 8.125-4.554688 11.90625-1.769531 3.777344 2.785156 4.597657 8.097656 1.832031 11.894531-12.359374 16.796875-27.382812 31.460938-44.480468 43.40625-1.425782 1-3.128906 1.539062-4.875 1.539062zm0 0"/><path d="m417.089844 299.648438c-2.886719-.007813-5.578125-1.472657-7.148438-3.894532-1.570312-2.421875-1.8125-5.476562-.640625-8.117187 9.980469-22.53125 15.753907-46.707031 17.023438-71.320313.160156-3.628906.238281-7.335937.238281-11.050781.007812-8.152344-.480469-16.292969-1.46875-24.378906-10.972656-93.152344-83.707031-163.355469-169.195312-163.355469-85.488282 0-158.226563 70.203125-169.1875 163.304688-.996094 8.105468-1.488282 16.261718-1.480469 24.429687 0 3.714844.082031 7.429687.246093 11.140625 1.304688 24.523438 7.046876 48.609375 16.949219 71.085938 1.230469 2.789062.878907 6.023437-.917969 8.484374-1.800781 2.460938-4.777343 3.773438-7.808593 3.445313s-5.660157-2.25-6.890625-5.039063c-10.742188-24.386718-16.96875-50.519531-18.378906-77.132812-.179688-4.050781-.265626-8.019531-.265626-11.984375-.007812-8.851563.527344-17.695313 1.605469-26.480469 11.960938-101.636718 91.984375-178.320312 186.128907-178.320312 94.140624 0 174.164062 76.683594 186.136718 178.371094 1.070313 8.765624 1.605469 17.59375 1.59375 26.429687 0 3.964844-.085937 7.929687-.261718 11.898437-1.375 26.71875-7.640626 52.957032-18.476563 77.417969-1.371094 3.078125-4.425781 5.066407-7.800781 5.066407zm0 0"/><path d="m238.832031 478.332031h-102.402343c-14.132813-.015625-25.582032-11.46875-25.597657-25.601562v-25.601563c.042969-37.683594 30.582031-68.222656 68.265625-68.265625h17.066406c37.683594.042969 68.222657 30.582031 68.265626 68.265625v25.601563c-.015626 14.132812-11.46875 25.585937-25.597657 25.601562zm-59.734375-102.402343c-28.265625.03125-51.167968 22.9375-51.199218 51.199218v25.601563c.003906 4.710937 3.820312 8.527343 8.53125 8.535156h102.402343c4.707031-.007813 8.527344-3.824219 8.53125-8.535156v-25.601563c-.03125-28.261718-22.933593-51.167968-51.199219-51.199218zm0 0"/><path d="m255.898438 444.195312h-136.535157c-4.710937 0-8.53125-3.820312-8.53125-8.53125 0-4.714843 3.820313-8.535156 8.53125-8.535156h136.535157c4.710937 0 8.53125 3.820313 8.53125 8.535156 0 4.710938-3.820313 8.53125-8.53125 8.53125zm0 0"/><path d="m375.363281 478.332031h-102.398437c-14.132813-.015625-25.585938-11.46875-25.601563-25.601562v-25.601563c.042969-37.683594 30.582031-68.222656 68.265625-68.265625h17.066406c37.6875.042969 68.226563 30.582031 68.269532 68.265625v25.601563c-.015625 14.132812-11.46875 25.585937-25.601563 25.601562zm-59.734375-102.402343c-28.261718.03125-51.167968 22.9375-51.199218 51.199218v25.601563c.007812 4.710937 3.824218 8.527343 8.535156 8.535156h102.398437c4.710938-.007813 8.527344-3.824219 8.535157-8.535156v-25.601563c-.03125-28.261718-22.9375-51.167968-51.203126-51.199218zm0 0"/><path d="m392.429688 444.195312h-136.53125c-4.714844 0-8.535157-3.820312-8.535157-8.53125 0-4.714843 3.820313-8.535156 8.535157-8.535156h136.53125c4.714843 0 8.535156 3.820313 8.535156 8.535156 0 4.710938-3.820313 8.53125-8.535156 8.53125zm0 0"/><path d="m81.796875 382.574219c-4.105469-.011719-8.195313-.5-12.1875-1.460938-14.367187-3.648437-27.039063-12.132812-35.878906-24.027343-9.140625-11.667969-13.980469-26.128907-13.707031-40.945313.074218-13.972656 6.519531-27.144531 17.503906-35.777344 11.230468-8.308593 25.632812-11.050781 39.128906-7.445312 14.367188 3.648437 27.039062 12.132812 35.878906 24.027343 9.144532 11.667969 13.984375 26.128907 13.710938 40.949219-.074219 13.96875-6.523438 27.140625-17.507813 35.773438-7.746093 5.871093-17.222656 9.003906-26.941406 8.90625zm-17.242187-94.035157c-6-.097656-11.863282 1.800782-16.671876 5.394532-6.878906 5.554687-10.855468 13.941406-10.800781 22.785156-.144531 10.878906 3.464844 21.476562 10.214844 30.011719 6.453125 8.765625 15.722656 15.042969 26.257813 17.78125 8.515624 2.375 17.648437.753906 24.824218-4.410157 6.882813-5.554687 10.859375-13.941406 10.804688-22.785156.144531-10.878906-3.460938-21.480468-10.214844-30.015625v-.003906c-6.453125-8.761719-15.726562-15.039063-26.257812-17.773437-2.671876-.644532-5.410157-.976563-8.15625-.988282zm0 0"/><path d="m24.898438 302.4375-21.84375-55.292969c-8.59375-21.449219 1.554687-45.828125 22.828124-54.839843l44.550782-19.113282c2.175781-.917968 4.464844-1.53125 6.808594-1.828125l1.992187 16.949219c-.746094.105469-1.476563.308594-2.171875.601562l-44.441406 19.070313c-12.753906 5.402344-18.84375 20.019531-13.695313 32.878906l21.851563 55.296875zm0 0"/><path d="m54 283.234375-19.203125-48.640625c-1.691406-4.292969.335937-9.15625 4.578125-10.972656l34.21875-14.679688 6.722656 15.683594-26.601562 11.410156 16.15625 40.933594zm0 0"/><path d="m430.128906 382.574219c-9.71875.097656-19.199218-3.035157-26.945312-8.90625-10.984375-8.632813-17.429688-21.804688-17.503906-35.773438-.277344-14.820312 4.566406-29.28125 13.707031-40.953125 8.84375-11.894531 21.515625-20.378906 35.882812-24.023437 13.484375-3.816407 27.984375-1.058594 39.125 7.445312 11.144531 8.503907 17.628907 21.757813 17.507813 35.777344.175781 30.414063-20.203125 57.117187-49.589844 64.972656-3.988281.960938-8.078125 1.449219-12.183594 1.460938zm17.238282-94.035157c-2.746094.011719-5.484376.34375-8.15625.988282-10.535157 2.734375-19.804688 9.011718-26.257813 17.773437v.003907c-6.753906 8.535156-10.359375 19.132812-10.21875 30.011718-.296875 8.898438 3.726563 17.386719 10.800781 22.785156 7.074219 5.402344 16.328125 7.046876 24.828125 4.410157 21.484375-5.972657 36.378907-25.492188 36.476563-47.789063.050781-8.84375-3.921875-17.226562-10.800782-22.785156-4.804687-3.59375-10.667968-5.496094-16.667968-5.402344zm0 0"/><path d="m487.027344 302.4375-15.875-6.273438 21.847656-55.296874c5.152344-12.863282-.9375-27.484376-13.695312-32.886719l-44.539063-19.109375c-.664063-.273438-1.359375-.464844-2.070313-.5625l2-16.949219c2.300782.289063 4.550782.890625 6.691407 1.78125l44.65625 19.160156c21.277343 9.011719 31.425781 33.398438 22.828125 54.847657zm0 0"/><path d="m457.925781 283.234375-15.871093-6.265625 16.160156-40.933594-26.601563-11.410156 6.726563-15.683594 34.21875 14.679688c4.238281 1.820312 6.265625 6.679687 4.574218 10.972656zm0 0"/><path d="m162.023438 171.128906c-3.148438 0-6.035157-1.734375-7.519532-4.507812-1.480468-2.777344-1.316406-6.140625.425782-8.757813.855468-1.28125 21.480468-31.121093 70.003906-11.722656 4.378906 1.75 6.507812 6.71875 4.753906 11.09375-1.75 4.378906-6.71875 6.503906-11.09375 4.753906-35.820312-14.335937-49.332031 5.140625-49.464844 5.34375-1.582031 2.375-4.25 3.804688-7.105468 3.796875zm0 0"/><path d="m349.773438 171.128906c-2.824219.007813-5.464844-1.386718-7.054688-3.71875-.710938-.996094-14.535156-19.425781-49.515625-5.421875-4.378906 1.75-9.347656-.375-11.097656-4.753906-1.75-4.375.378906-9.34375 4.753906-11.09375 48.542969-19.417969 69.148437 10.445313 70.003906 11.722656 1.746094 2.617188 1.910157 5.980469.425781 8.757813-1.484374 2.773437-4.371093 4.507812-7.515624 4.507812zm0 0"/><path d="m228.644531 70.019531c-9.648437-3.75-20.179687-4.605469-30.300781-2.460937-4.835938 1.554687-9.347656 3.976562-13.3125 7.152344-2.183594 1.539062-3.984375 3.640624-6.207031 5.359374-1.953125 2.019532-3.78125 4.179688-5.945313 6.199219l-.253906.238281c-.933594.871094-2.351562.976563-3.402344.25-1.054687-.726562-1.460937-2.085937-.980468-3.269531 1.167968-2.871093 2.613281-5.636719 4.035156-8.472656 1.703125-2.726563 3.621094-5.316406 5.734375-7.746094 4.539062-5.070312 10.277343-8.921875 16.691406-11.195312 6.59375-2.296875 13.726563-2.542969 20.460937-.707031 6.480469 1.695312 12.316407 5.253906 16.785157 10.242187.820312.941406.917969 2.3125.238281 3.363281-.675781 1.046875-1.964844 1.523438-3.164062 1.164063zm0 0"/><path d="m279.84375 65.609375c4.46875-4.988281 10.304688-8.546875 16.78125-10.242187 6.734375-1.835938 13.867188-1.585938 20.460938.710937 6.414062 2.273437 12.15625 6.121094 16.695312 11.191406 2.109375 2.429688 4.027344 5.019531 5.730469 7.75 1.421875 2.832031 2.867187 5.601563 4.035156 8.472657.480469 1.183593.074219 2.539062-.976563 3.265624-1.050781.726563-2.46875.621094-3.402343-.25l-.257813-.234374c-2.160156-2.019532-3.988281-4.183594-5.941406-6.203126-2.21875-1.71875-4.023438-3.820312-6.207031-5.355468-3.964844-3.175782-8.476563-5.601563-13.3125-7.15625-10.125-2.144532-20.65625-1.289063-30.300781 2.460937l-.378907.117188c-1.195312.359375-2.484375-.113281-3.164062-1.164063-.679688-1.046875-.582031-2.417968.234375-3.359375zm0 0"/><path d="m255.898438 273.53125c-33.988282.011719-62.917969-24.746094-68.152344-58.328125-.722656-4.621094 2.40625-8.960937 7.015625-9.738281 4.609375-.773438 8.984375 2.300781 9.8125 6.902344.316406 1.800781 8.15625 44.097656 51.324219 44.097656 43.46875 0 51.015624-42.273438 51.316406-44.074219.472656-3.03125 2.539062-5.578125 5.410156-6.667969 2.871094-1.085937 6.105469-.546875 8.46875 1.414063 2.363281 1.960937 3.492188 5.042969 2.953125 8.066406-5.234375 33.582031-34.160156 58.339844-68.148437 58.328125zm0 0"/><path d="m255.898438 307.664062c-27.734376 0-38.328126-9.191406-40.167969-11.035156-3.28125-3.296875-3.316407-8.613281-.078125-11.953125 3.238281-3.34375 8.554687-3.476562 11.953125-.300781.488281.398438 8.039062 6.222656 28.292969 6.222656 20.859374 0 28.242187-6.179687 28.316406-6.242187 3.484375-3.039063 8.746094-2.804688 11.945312.535156 3.164063 3.289063 3.121094 8.503906-.097656 11.738281-1.839844 1.84375-12.433594 11.035156-40.164062 11.035156zm0 0"/></svg>