<svg height="512pt" viewBox="0 0 512 512.01704" width="512pt" xmlns="http://www.w3.org/2000/svg"><path d="m76.964844 250.46875-34.21875 14.679688 19.199218 48.640624-29.097656 19.199219-21.847656-55.296875c-6.863281-17.152344 1.25-36.648437 18.261719-43.859375l44.542969-19.117187c1.421874-.59375 2.914062-.996094 4.4375-1.195313zm0 0" fill="#ff5722"/><path d="m471.972656 93.117188 30.378906 111.871093c2.578126 10.207031.300782 21.035157-6.167968 29.339844-6.472656 8.304687-16.414063 13.160156-26.941406 13.15625h-34.304688l-1.367188-34.132813h35.671876l-29.269532-108.03125zm0 0" fill="#ff5722"/><path d="m435.105469 238.949219c.929687 65.347656-29.972657 127.0625-82.855469 165.460937l-97.28125 72.535156-12.714844-9.644531-82.6875-62.890625c-16.207031-11.367187-30.496094-25.253906-42.324218-41.128906l-22.613282-38.65625c-10.3125-23.449219-16.296875-48.574219-17.664062-74.15625-.171875-3.839844-.257813-7.679688-.257813-11.519531-.007812-8.5.503907-16.992188 1.535157-25.429688 10.839843-91.816406 79.617187-163.753906 164.863281-170.238281 4.269531-.425781 8.535156-.597656 12.800781-.597656 98.988281 0 179.199219 87.894531 179.199219 196.265625zm0 0" fill="#fec108"/><path d="m409.507812 238.949219c.929688 65.347656-29.976562 127.0625-82.859374 165.460937l-84.394532 62.890625-82.6875-62.890625c-16.207031-11.367187-30.496094-25.253906-42.324218-41.128906l-22.613282-38.65625c-10.3125-23.449219-16.296875-48.574219-17.664062-74.15625-.171875-3.839844-.257813-7.679688-.257813-11.519531-.007812-8.5.503907-16.992188 1.535157-25.429688 10.839843-91.816406 79.617187-163.753906 164.863281-170.238281 93.015625 7.082031 166.402343 91.988281 166.402343 195.667969zm0 0" fill="#ffdc00"/><path d="m255.90625 460.816406v25.601563c-.027344 9.414062-7.652344 17.039062-17.066406 17.066406h-102.398438c-9.414062-.027344-17.039062-7.652344-17.066406-17.066406v-25.601563c-.070312-31.34375 24.195312-57.359375 55.464844-59.476562 1.417968-.171875 2.839844-.257813 4.265625-.257813h17.070312c15.84375-.011719 31.042969 6.28125 42.25 17.484375 11.203125 11.203125 17.492188 26.40625 17.480469 42.25zm0 0" fill="#283593"/><path d="m230.308594 460.816406v25.601563c-.027344 9.414062-7.652344 17.039062-17.066406 17.066406h-76.800782c-9.414062-.027344-17.039062-7.652344-17.066406-17.066406v-25.601563c-.070312-31.34375 24.195312-57.359375 55.464844-59.476562 31.273437 2.117187 55.535156 28.132812 55.46875 59.476562zm0 0" fill="#3f51b5"/><path d="m264.441406 469.351562c-.015625 4.707032-3.828125 8.519532-8.535156 8.53125h-136.53125v-17.066406h136.53125c4.707031.015625 8.519531 3.828125 8.535156 8.535156zm0 0" fill="#35495e"/><path d="m392.441406 460.816406v25.601563c-.027344 9.414062-7.652344 17.039062-17.066406 17.066406h-102.402344c-9.414062-.027344-17.039062-7.652344-17.066406-17.066406v-25.601563c-.066406-31.34375 24.195312-57.359375 55.46875-59.476562 1.414062-.171875 2.839844-.257813 4.265625-.257813h17.066406c15.847657-.011719 31.046875 6.28125 42.25 17.484375 11.207031 11.203125 17.496094 26.40625 17.484375 42.25zm0 0" fill="#283593"/><path d="m366.839844 460.816406v25.601563c-.027344 9.414062-7.652344 17.039062-17.066406 17.066406h-76.800782c-9.414062-.027344-17.039062-7.652344-17.066406-17.066406v-25.601563c-.066406-31.34375 24.195312-57.359375 55.46875-59.476562 31.269531 2.117187 55.535156 28.132812 55.464844 59.476562zm0 0" fill="#3f51b5"/><path d="m255.90625 460.816406h136.535156v17.066406h-136.535156zm0 0" fill="#2c3e50"/><path d="m221.773438 166.417969c0-21.207031-7.640626-38.402344-17.066407-38.402344s-17.066406 17.195313-17.066406 38.402344 7.640625 38.398437 17.066406 38.398437 17.066407-17.191406 17.066407-38.398437zm0 0" fill="#3f51b5"/><path d="m214.1875 149.351562c0-11.785156-4.242188-21.335937-9.480469-21.335937-5.234375 0-9.480469 9.550781-9.480469 21.335937 0 11.78125 4.246094 21.332032 9.480469 21.332032 5.238281 0 9.480469-9.550782 9.480469-21.332032zm0 0" fill="#f5f5f5"/><path d="m324.175781 166.417969c0-21.207031-7.644531-38.402344-17.070312-38.402344s-17.066407 17.195313-17.066407 38.402344 7.640626 38.398437 17.066407 38.398437 17.070312-17.191406 17.070312-38.398437zm0 0" fill="#3f51b5"/><path d="m316.589844 149.351562c0-11.785156-4.246094-21.335937-9.484375-21.335937-5.234375 0-9.480469 9.550781-9.480469 21.335937 0 11.78125 4.246094 21.332032 9.480469 21.332032 5.238281 0 9.484375-9.550782 9.484375-21.332032zm0 0" fill="#f5f5f5"/><path d="m105.761719 335.808594c-16.804688-22.019532-45.03125-28.722656-63.046875-14.972656-18.015625 13.746093-18.996094 42.742187-2.191406 64.761718 16.804687 22.019532 45.03125 28.722656 63.046874 14.972656 18.015626-13.75 18.996094-42.746093 2.191407-64.761718zm0 0" fill="#ff9801"/><path d="m460.109375 102.417969c-8.882813 4.046875-19.003906 4.414062-28.160156 1.023437-13.570313-5.097656-24.5625-15.382812-30.546875-28.585937-11.949219-25.003907-5.035156-53.25 15.445312-62.976563.765625-.34375 1.621094-.683594 2.472656-1.023437 20.054688-7.679688 44.628907 4.605469 56.148438 28.671875 11.949219 25 5.121094 53.160156-15.359375 62.890625zm0 0" fill="#f57c00"/><path d="m434.511719 102.417969c-.824219.414062-1.679688.757812-2.5625 1.023437-13.570313-5.097656-24.5625-15.382812-30.546875-28.585937-11.949219-25.003907-5.035156-53.25 15.445312-62.976563.765625-.34375 1.621094-.683594 2.472656-1.023437 13.546876 5.1875 24.515626 15.480469 30.550782 28.671875 11.945312 25 5.117187 53.160156-15.359375 62.890625zm0 0" fill="#ff9801"/><path d="m177.933594 263.242188c.0625-3.023438 1.726562-5.785157 4.367187-7.253907 2.644531-1.464843 5.867188-1.417969 8.46875.125 19.730469 11.558594 42.273438 17.429688 65.136719 16.96875 22.863281.460938 45.40625-5.410156 65.140625-16.96875 2.597656-1.542969 5.820313-1.589843 8.464844-.125 2.644531 1.46875 4.304687 4.230469 4.367187 7.253907.683594 30.621093-6.367187 95.175781-77.972656 95.175781s-78.65625-64.554688-77.972656-95.175781zm0 0" fill="#cfd8dc"/><path d="m330.660156 298.085938c-23.292968 11.375-48.832031 17.410156-74.753906 17.664062-25.917969-.253906-51.457031-6.289062-74.75-17.664062-2.429688-11.390626-3.507812-23.03125-3.210938-34.675782.019532-3.046875 1.664063-5.847656 4.3125-7.351562 2.644532-1.503906 5.894532-1.480469 8.519532.0625 19.730468 11.550781 42.269531 17.421875 65.128906 16.960937 22.859375.460938 45.398438-5.410156 65.128906-16.960937 2.625-1.542969 5.875-1.566406 8.523438-.0625 2.644531 1.503906 4.289062 4.304687 4.308594 7.351562.296874 11.644532-.78125 23.285156-3.207032 34.675782zm0 0" fill="#f5f5f5"/><path d="m159.558594 412.945312c-1.742188 0-3.441406-.535156-4.863282-1.535156-16.960937-11.882812-31.910156-26.402344-44.28125-43.007812-1.828124-2.441406-2.21875-5.667969-1.019531-8.472656 1.195313-2.804688 3.796875-4.757813 6.824219-5.121094 3.027344-.363282 6.019531.914062 7.847656 3.351562 11.28125 15.152344 24.914063 28.402344 40.375 39.253906 3.054688 2.132813 4.375 6.003907 3.257813 9.558594-1.117188 3.554688-4.414063 5.972656-8.140625 5.972656zm0 0"/><path d="m352.257812 412.945312c-3.730468.003907-7.027343-2.414062-8.148437-5.96875-1.117187-3.558593.199219-7.429687 3.257813-9.5625 50.65625-36.75 80.21875-95.886718 79.207031-158.464843 0-103.515625-76.558594-187.730469-170.667969-187.730469-85.484375 0-158.222656 70.203125-169.191406 163.300781-.992188 8.105469-1.484375 16.265625-1.472656 24.429688 0 3.714843.082031 7.425781.25 11.132812 1.296874 24.53125 7.035156 48.621094 16.941406 71.097657 1.230468 2.789062.878906 6.023437-.921875 8.484374-1.800781 2.460938-4.777344 3.773438-7.808594 3.445313s-5.65625-2.25-6.886719-5.039063c-10.742187-24.386718-16.964844-50.519531-18.367187-77.132812-.191407-4.050781-.273438-8.015625-.273438-11.988281-.007812-8.847657.523438-17.691407 1.597657-26.476563 11.976562-101.640625 91.992187-178.324218 186.132812-178.324218 103.519531 0 187.734375 91.871093 187.734375 204.800781 1.007813 68.152343-31.277344 132.515625-86.507813 172.460937-1.429687 1-3.132812 1.535156-4.875 1.535156zm0 0"/><path d="m238.839844 512.015625h-102.398438c-14.132812-.015625-25.585937-11.464844-25.601562-25.597656v-25.601563c.042968-37.683594 30.582031-68.222656 68.265625-68.265625h17.070312c37.683594.042969 68.222657 30.582031 68.265625 68.265625v25.601563c-.015625 14.132812-11.46875 25.582031-25.601562 25.597656zm-59.734375-102.398437c-28.261719.03125-51.167969 22.9375-51.199219 51.199218v25.601563c.003906 4.710937 3.824219 8.527343 8.535156 8.53125h102.398438c4.710937-.003907 8.53125-3.820313 8.535156-8.53125v-25.601563c-.03125-28.261718-22.9375-51.167968-51.199219-51.199218zm0 0"/><path d="m255.90625 477.882812h-136.53125c-4.714844 0-8.535156-3.820312-8.535156-8.53125 0-4.714843 3.820312-8.535156 8.535156-8.535156h136.53125c4.714844 0 8.535156 3.820313 8.535156 8.535156 0 4.710938-3.820312 8.53125-8.535156 8.53125zm0 0"/><path d="m375.375 512.015625h-102.402344c-14.128906-.015625-25.582031-11.464844-25.597656-25.597656v-25.601563c.042969-37.683594 30.582031-68.222656 68.265625-68.265625h17.066406c37.683594.042969 68.222657 30.582031 68.265625 68.265625v25.601563c-.015625 14.132812-11.464844 25.582031-25.597656 25.597656zm-59.734375-102.398437c-28.265625.03125-51.167969 22.9375-51.199219 51.199218v25.601563c.003906 4.710937 3.820313 8.527343 8.53125 8.53125h102.402344c4.710938-.003907 8.527344-3.820313 8.53125-8.53125v-25.601563c-.03125-28.261718-22.933594-51.167968-51.199219-51.199218zm0 0"/><path d="m392.441406 477.882812h-136.535156c-4.710938 0-8.53125-3.820312-8.53125-8.53125 0-4.714843 3.820312-8.535156 8.53125-8.535156h136.535156c4.710938 0 8.53125 3.820313 8.53125 8.535156 0 4.710938-3.820312 8.53125-8.53125 8.53125zm0 0"/><path d="m204.707031 213.351562c-16.808593 0-25.601562-23.613281-25.601562-46.933593 0-23.320313 8.792969-46.933594 25.601562-46.933594 16.8125 0 25.601563 23.613281 25.601563 46.933594 0 23.320312-8.789063 46.933593-25.601563 46.933593zm-.171875-76.820312c-2.046875.773438-8.359375 11.140625-8.359375 29.886719 0 18.746093 6.308594 29.113281 8.703125 29.886719 2.046875-.773438 8.363282-11.140626 8.363282-29.886719 0-18.746094-6.308594-29.113281-8.707032-29.886719zm0 0"/><path d="m307.105469 213.351562c-16.808594 0-25.597657-23.613281-25.597657-46.933593 0-23.320313 8.789063-46.933594 25.597657-46.933594 16.8125 0 25.601562 23.613281 25.601562 46.933594 0 23.320312-8.789062 46.933593-25.601562 46.933593zm-.167969-76.820312c-2.050781.773438-8.363281 11.140625-8.363281 29.886719 0 18.746093 6.308593 29.113281 8.703125 29.886719 2.046875-.773438 8.363281-11.140626 8.363281-29.886719 0-18.746094-6.308594-29.113281-8.703125-29.886719zm0 0"/><path d="m228.652344 103.707031c-9.644532-3.753906-20.175782-4.609375-30.300782-2.460937-4.835937 1.554687-9.347656 3.976562-13.3125 7.152344-2.179687 1.535156-3.980468 3.636718-6.203124 5.355468-1.953126 2.019532-3.78125 4.183594-5.945313 6.203125l-.257813.238281c-.933593.871094-2.347656.972657-3.402343.25-1.050781-.726562-1.457031-2.085937-.976563-3.269531 1.167969-2.871093 2.613282-5.636719 4.035156-8.472656 1.703126-2.730469 3.621094-5.320313 5.730469-7.746094 4.539063-5.070312 10.28125-8.921875 16.695313-11.195312 6.59375-2.296875 13.726562-2.542969 20.460937-.707031 6.476563 1.691406 12.3125 5.253906 16.78125 10.238281.820313.945312.917969 2.316406.242188 3.363281-.675781 1.050781-1.96875 1.527344-3.164063 1.164062zm0 0"/><path d="m279.855469 99.296875c4.464843-4.988281 10.300781-8.546875 16.78125-10.242187 6.734375-1.835938 13.867187-1.589844 20.460937.707031 6.414063 2.277343 12.152344 6.125 16.691406 11.195312 2.113282 2.429688 4.03125 5.019531 5.734376 7.746094 1.421874 2.835937 2.867187 5.601563 4.035156 8.472656.480468 1.183594.074218 2.542969-.980469 3.269531-1.050781.726563-2.464844.621094-3.398437-.25l-.257813-.238281c-2.164063-2.015625-3.992187-4.179687-5.941406-6.199219-2.21875-1.71875-4.027344-3.820312-6.207031-5.359374-3.964844-3.175782-8.476563-5.597657-13.3125-7.152344-10.125-2.144532-20.65625-1.289063-30.300782 2.460937l-.378906.113281c-1.199219.363282-2.488281-.109374-3.167969-1.15625-.679687-1.050781-.582031-2.421874.238281-3.363281zm0 0"/><path d="m81.808594 416.191406c-19.085938-.609375-36.820313-9.984375-48.066406-25.414062-9.140626-11.671875-13.984376-26.132813-13.710938-40.953125.070312-13.96875 6.519531-27.144531 17.507812-35.773438 21.726563-16.589843 55.382813-9.136719 75.007813 16.578125 19.628906 25.722656 17.925781 60.140625-3.800781 76.722656-7.753906 5.84375-17.226563 8.953126-26.9375 8.839844zm-17.183594-93.996094c-6.023438-.09375-11.910156 1.8125-16.734375 5.421876-6.878906 5.554687-10.851563 13.941406-10.800781 22.785156-.140625 10.878906 3.464844 21.476562 10.21875 30.011718 13.921875 18.246094 36.847656 24.246094 51.089844 13.371094 14.242187-10.875 14.5-34.5625.585937-52.804687v.003906c-7.980469-11.183594-20.636719-18.105469-34.359375-18.789063zm0 0"/><path d="m445.164062 114.320312c-7.355468-.0625-14.609374-1.75-21.238281-4.941406-13.335937-6.507812-24.019531-17.417968-30.242187-30.890625-13.925782-29.210937-5.183594-62.550781 19.480468-74.308593 12.695313-5.828126 27.355469-5.550782 39.816407.757812 13.3125 6.523438 23.96875 17.433594 30.175781 30.890625 6.550781 13.289063 8.339844 28.417969 5.066406 42.867187-2.898437 13.660157-11.894531 25.242188-24.414062 31.433594-5.824219 2.773438-12.195313 4.207032-18.644532 4.191406zm-13.386718-97.238281c-3.894532-.019531-7.742188.835938-11.261719 2.507813-16.175781 7.710937-21.300781 30.839844-11.433594 51.554687 4.527344 9.910157 12.332031 17.957031 22.101563 22.785157 7.867187 4.082031 17.164062 4.371093 25.273437.792968 7.859375-4.015625 13.449219-11.402344 15.183594-20.054687 2.34375-10.632813.972656-21.75-3.882813-31.496094-4.515624-9.898437-12.300781-17.941406-22.042968-22.785156-4.34375-2.113281-9.101563-3.242188-13.9375-3.304688zm0 0"/><path d="m24.914062 336.125-21.847656-55.296875c-8.601562-21.445313 1.550782-45.828125 22.832032-54.835937l44.542968-19.113282c2.175782-.917968 4.460938-1.53125 6.800782-1.832031l2 16.953125c-.746094.105469-1.472657.308594-2.167969.601562l-44.441407 19.070313c-12.753906 5.402344-18.84375 20.019531-13.695312 32.878906l21.847656 55.296875zm0 0"/><path d="m54.007812 316.921875-19.199218-48.640625c-1.699219-4.292969.324218-9.15625 4.566406-10.976562l34.226562-14.675782 6.730469 15.683594-26.609375 11.410156 16.152344 40.929688zm0 0"/><path d="m469.242188 221.882812h-35.671876c-4.710937 0-8.53125-3.820312-8.53125-8.53125 0-4.714843 3.820313-8.535156 8.53125-8.535156h24.519532l-26.347656-97.265625c-.855469-2.960937-.046876-6.152343 2.113281-8.351562 2.160156-2.195313 5.335937-3.058594 8.3125-2.253907 2.972656.804688 5.285156 3.152344 6.042969 6.136719l29.269531 108.035157c.695312 2.5625.15625 5.308593-1.460938 7.417968-1.613281 2.113282-4.121093 3.351563-6.777343 3.347656zm0 0"/><path d="m469.242188 256.015625h-34.304688c-4.714844 0-8.535156-3.820313-8.535156-8.53125 0-4.714844 3.820312-8.535156 8.535156-8.535156h34.304688c7.914062.003906 15.390624-3.65625 20.242187-9.914063 4.851563-6.253906 6.535156-14.402344 4.5625-22.070312l-30.304687-111.609375c-1.238282-4.546875 1.449218-9.238281 5.996093-10.472657 4.546875-1.238281 9.234375 1.449219 10.472657 5.996094l30.378906 111.871094c3.253906 12.90625.355468 26.589844-7.859375 37.0625-8.082031 10.257812-20.429688 16.230469-33.488281 16.203125zm0 0"/><path d="m255.90625 366.949219c-24.15625 1.378906-47.640625-8.265625-63.855469-26.222657-30.109375-35.101562-21.75-92.128906-21.378906-94.539062.488281-3.171875 2.714844-5.800781 5.761719-6.804688 3.050781-1.007812 6.402344-.21875 8.683594 2.042969.449218.433594 24.355468 23.125 70.789062 23.125 46.652344 0 70.558594-22.902343 70.800781-23.125 2.285157-2.246093 5.628907-3.027343 8.671875-2.023437 3.039063 1.003906 5.265625 3.625 5.761719 6.789062.375 2.410156 8.734375 59.4375-21.375 94.539063-16.21875 17.957031-39.699219 27.597656-63.859375 26.21875zm-69.414062-103.441407c-.375 17.503907 1.882812 46.757813 18.554687 66.15625 13.042969 14.054688 31.726563 21.480469 50.859375 20.21875 19.15625 1.269532 37.859375-6.179687 50.902344-20.269531 16.699218-19.464843 18.933594-48.660156 18.539062-66.117187-21.035156 12.320312-45.066406 18.589844-69.441406 18.121094-24.363281.472656-48.386719-5.796876-69.414062-18.109376zm0 0"/><path d="m255.90625 324.285156c-27.203125-.1875-54.011719-6.511718-78.433594-18.5-2.808594-1.28125-4.703125-3.980468-4.960937-7.054687-.257813-3.078125 1.164062-6.050781 3.722656-7.78125 2.554687-1.726563 5.847656-1.941407 8.605469-.558594 44.75 22.324219 97.386718 22.324219 142.132812 0 2.761719-1.382813 6.050782-1.167969 8.609375.558594 2.554688 1.730469 3.980469 4.703125 3.722657 7.78125-.257813 3.074219-2.15625 5.773437-4.964844 7.054687-24.417969 11.988282-51.230469 18.3125-78.433594 18.5zm0 0"/><path d="m230.308594 221.882812c-2.265625.003907-4.4375-.894531-6.035156-2.5-5.597657-4.269531-12.535157-6.40625-19.566407-6.03125-7.078125-.382812-14.058593 1.792969-19.667969 6.128907-3.410156 3.1875-8.738281 3.078125-12.015624-.25-3.25-3.316407-3.226563-8.625.050781-11.914063 8.746093-7.582031 20.066406-11.53125 31.632812-11.03125 11.566407-.5 22.886719 3.449219 31.632813 11.03125 2.441406 2.441406 3.171875 6.109375 1.847656 9.300782-1.320312 3.1875-4.429688 5.265624-7.878906 5.265624zm0 0"/><path d="m332.707031 221.882812c-2.261719.003907-4.433593-.894531-6.03125-2.5-5.601562-4.269531-12.535156-6.40625-19.570312-6.03125-7.078125-.382812-14.054688 1.792969-19.664063 6.128907-3.410156 3.1875-8.742187 3.078125-12.015625-.25-3.25-3.316407-3.226562-8.625.046875-11.914063 8.75-7.582031 20.066406-11.53125 31.632813-11.03125 11.570312-.5 22.886719 3.449219 31.636719 11.03125 2.4375 2.441406 3.167968 6.109375 1.847656 9.300782-1.320313 3.1875-4.433594 5.265624-7.882813 5.265624zm0 0"/></svg>