<svg height="512pt" viewBox="0 0 512.0237 512" width="512pt" xmlns="http://www.w3.org/2000/svg"><path d="m247.480469 8.558594c-101.273438-.015625-190.679688 66.109375-220.316407 162.949218-29.636718 96.835938 7.441407 201.671876 91.375 258.339844h.085938l69.121094 48.042969v8.535156c.027344 9.414063 7.652344 17.039063 17.066406 17.066407h145.066406c9.414063-.027344 17.039063-7.652344 17.066406-17.066407v-50.433593c.769532-.511719 1.535157-.9375 2.304688-1.449219 3.753906-2.390625 7.507812-4.863281 11.09375-7.425781.007812.089843.039062.179687.085938.257812 1.054687 2.222656 2.566406 4.199219 4.4375 5.800781.59375.597657 1.277343 1.28125 1.960937 1.878907 1.257813 1.097656 2.597656 2.09375 4.011719 2.988281.683594.558593 1.429687 1.046875 2.21875 1.449219.796875.449218 1.625.847656 2.472656 1.195312.691406.335938 1.402344.621094 2.132812.851562 1.109376.425782 2.21875.769532 3.328126 1.109376 2.8125.753906 5.710937 1.125 8.621093 1.109374 9.707031.015626 18.957031-4.113281 25.429688-11.347656 43.40625-48.574218 67.722656-111.246094 68.4375-176.386718 1.023437-76.796876-51.203125-247.464844-256-247.464844zm0 0" fill="#f0c419"/><path d="m503.480469 256.023438c-.714844 65.140624-25.03125 127.8125-68.4375 176.386718-6.472657 7.234375-15.722657 11.363282-25.429688 11.347656-2.910156.015626-5.808593-.355468-8.621093-1.109374-1.109376-.339844-2.21875-.683594-3.328126-1.109376-.730468-.230468-1.441406-.515624-2.132812-.851562-.847656-.347656-1.675781-.746094-2.472656-1.195312-.789063-.402344-1.535156-.890626-2.21875-1.449219-1.414063-.894531-2.753906-1.890625-4.011719-2.988281-.683594-.597657-1.367187-1.28125-1.960937-1.878907-1.871094-1.601562-3.382813-3.578125-4.4375-5.800781-.046876-.078125-.078126-.167969-.085938-.257812-3.585938 2.5625-7.339844 5.035156-11.09375 7.425781-.769531.511719-1.535156.9375-2.304688 1.449219-20.9375 12.730468-43.785156 22.007812-67.667968 27.476562h-.257813l-.339843-2.644531c-8.613282-20.691407-28.789063-34.207031-51.199219-34.304688h-8.535157c-20.351562.03125-38.761718 12.082031-46.933593 30.722657-.6875 1.617187-1.285157 3.265624-1.792969 4.949218-1.648438 5.039063-2.484375 10.3125-2.472656 15.613282v.085937l-69.121094-48.042969h-.085938c-83.933593-56.667968-121.011718-161.503906-91.375-258.339844 29.636719-96.839843 119.042969-162.964843 220.316407-162.949218 204.796875 0 257.023437 170.667968 256 247.464844zm0 0" fill="#ffdc00"/><path d="m192.011719 457.242188c-8.152344-18.652344-26.578125-30.703126-46.933594-30.695313h-8.53125c-28.296875.046875-51.207031 23-51.203125 51.296875v8.550781c.019531 9.421875 7.644531 17.0625 17.066406 17.097657h145.070313zm0 0" fill="#3f51b5"/><path d="m366.945312 435.992188v50.433593c-.027343 9.414063-7.652343 17.039063-17.066406 17.066407h-145.066406c-9.414062-.027344-17.039062-7.652344-17.066406-17.066407v-8.621093c-.011719-5.300782.824218-10.574219 2.472656-15.613282.507812-1.683594 1.105469-3.332031 1.792969-4.949218 8.171875-18.640626 26.582031-30.691407 46.933593-30.722657h8.535157c22.410156.097657 42.585937 13.613281 51.199219 34.304688l.597656 2.644531c23.882812-5.46875 46.730468-14.746094 67.667968-27.476562zm0 0" fill="#3f51b5"/><path d="m503.480469 256.023438c-.714844 65.140624-25.03125 127.8125-68.4375 176.386718-6.472657 7.234375-15.722657 11.363282-25.429688 11.347656-2.910156.015626-5.808593-.355468-8.621093-1.109374-1.109376-.339844-2.21875-.683594-3.328126-1.109376-.300781-.0625-.589843-.175781-.851562-.339843 4.851562-1.878907 9.179688-4.894531 12.628906-8.789063 43.410156-48.574218 67.722656-111.246094 68.4375-176.386718 1.023438-74.921876-48.726562-239.273438-241.492187-247.125 3.667969-.253907 7.335937-.339844 11.09375-.339844 204.796875 0 257.023437 170.667968 256 247.464844zm0 0" fill="#fec108"/><path d="m366.945312 435.992188v50.433593c-.027343 9.414063-7.652343 17.039063-17.066406 17.066407h-25.601562c9.414062-.027344 17.039062-7.652344 17.066406-17.066407v-37.035156c8.808594-3.917969 17.359375-8.394531 25.601562-13.398437zm0 0" fill="#283593"/><path d="m78.007812 395.03125c-3.160156 4.011719-6.488281 7.9375-9.898437 11.777344-12.605469 13.949218-34.113281 15.082031-48.117187 2.535156-14-12.542969-15.226563-34.046875-2.742188-48.101562 7.550781-8.457032 14.371094-17.535157 20.394531-27.136719zm0 0" fill="#ff9801"/><path d="m380.34375 427.117188c-3.585938 2.5625-7.339844 5.035156-11.09375 7.425781-13.523438-12.695313-14.472656-33.851563-2.132812-47.703125 26.308593-29.351563 43.140624-65.96875 48.289062-105.050782 1.207031-9.3125 9.136719-16.285156 18.527344-16.292968-2.132813 44.96875-19.703125 87.824218-49.75 121.34375-9.945313 11.144531-11.5 27.457031-3.839844 40.277344zm0 0" fill="#fec108"/><path d="m380.429688 427.375c1.296874 2.0625 2.785156 4.007812 4.4375 5.800781-1.871094-1.601562-3.382813-3.578125-4.4375-5.800781zm0 0" fill="#f0c419"/><path d="m366.945312 435.992188v17.066406c-15.941406 9.691406-33.011718 17.390625-50.824218 22.9375-3.960938 1.199218-8.253906.449218-11.574219-2.019532-3.324219-2.472656-5.277344-6.367187-5.269531-10.507812 23.882812-5.46875 46.730468-14.746094 67.667968-27.476562zm0 0" fill="#283593"/><path d="m438.882812 85.933594 56.050782-5.667969c2.691406-.265625 5.328125.894531 6.945312 3.0625 1.617188 2.167969 1.984375 5.023437.96875 7.527344l-22.441406 50.121093c-1.128906 2.300782-3.367188 3.855469-5.917969 4.097657-2.554687.246093-5.046875-.851563-6.59375-2.898438l-34.941406-43.015625-54.5-26.0625-54.347656.324219c-2.578125.023437-5-1.25-6.449219-3.382813-1.449219-2.136718-1.734375-4.855468-.761719-7.246093l22.445313-50.117188c1.191406-2.414062 3.597656-3.988281 6.28125-4.121093 2.6875-.128907 5.234375 1.210937 6.652344 3.496093l32.105468 47.820313zm0 0" fill="#6a1b9a"/><path d="m146.71875 232.742188 35.136719-47.921876c4.800781-6.511718 6.785156-14.675781 5.515625-22.660156-1.273438-7.988281-5.695313-15.132812-12.277344-19.832031-13.238281-9.453125-31.535156-7.054687-41.894531 5.488281-13.738281-8.714844-31.878907-5.308594-41.523438 7.792969-4.800781 6.511719-6.785156 14.675781-5.511719 22.660156 1.269532 7.988281 5.691407 15.132813 12.277344 19.832031zm0 0" fill="#ff5364"/><path d="m181.855469 184.855469-35.15625 47.875-16.382813-11.777344-31.914062-22.871094c-6.566406-4.710937-10.976563-11.855469-12.242188-19.839843-1.265625-7.980469.714844-16.140626 5.5-22.65625 9.660156-13.101563 27.816406-16.492188 41.558594-7.761719 7.46875-9.078125 19.433594-13.144531 30.890625-10.496094 3.960937.945313 7.699219 2.65625 11.007813 5.03125 6.582031 4.703125 11.003906 11.847656 12.269531 19.839844 1.269531 7.988281-.722657 16.152343-5.53125 22.65625zm0 0" fill="#bb193b"/><path d="m164.789062 173.933594-34.472656 47.019531-31.914062-22.871094c-6.566406-4.710937-10.976563-11.855469-12.242188-19.839843-1.265625-7.980469.714844-16.140626 5.5-22.65625 9.660156-13.101563 27.816406-16.492188 41.558594-7.761719 7.46875-9.078125 19.433594-13.144531 30.890625-10.496094 8.527344 10.625 8.808594 25.667969.679687 36.605469zm0 0" fill="#ef314c"/><path d="m328.289062 198.082031-48.296874 34.648438-13.910157-19.03125-21.25-28.84375c-4.804687-6.503907-6.796875-14.667969-5.527343-22.65625 1.265624-7.992188 5.6875-15.136719 12.269531-19.839844 13.230469-9.480469 31.542969-7.09375 41.898437 5.464844 13.765625-8.605469 31.828125-5.230469 41.558594 7.761719 4.785156 6.515624 6.765625 14.675781 5.496094 22.65625-1.265625 7.984374-5.671875 15.128906-12.238282 19.839843zm0 0" fill="#bb193b"/><path d="m311.648438 181.015625-45.566407 32.683594-21.25-28.84375c-4.804687-6.503907-6.796875-14.667969-5.527343-22.65625 1.265624-7.992188 5.6875-15.136719 12.269531-19.839844 13.230469-9.480469 31.542969-7.09375 41.898437 5.464844 8.585938-5.476563 19.324219-6.339844 28.671875-2.304688 5.082031 12.835938.753907 27.488281-10.496093 35.496094zm0 0" fill="#ef314c"/><path d="m145.078125 264.558594h136.535156c4.710938 0 8.53125 3.820312 8.53125 8.535156v8.53125c0 42.414062-34.382812 76.800781-76.800781 76.800781-42.414062 0-76.796875-34.386719-76.796875-76.800781v-8.53125c0-4.714844 3.820313-8.535156 8.53125-8.535156zm0 0" fill="#bb193b"/><path d="m412.46875 107.980469-27.25-13.03125c-7.589844-3.773438-10.824219-12.878907-7.320312-20.59375l6.304687-14.082031c1.582031-3.695313 4.597656-6.585938 8.355469-8.011719 3.761718-1.429688 7.9375-1.265625 11.574218.449219l27.25 13.027343c7.589844 3.777344 10.824219 12.878907 7.320313 20.597657l-6.304687 14.078124c-1.582032 3.695313-4.597657 6.589844-8.355469 8.015626-3.761719 1.425781-7.9375 1.265624-11.574219-.449219zm0 0" fill="#9d27b0"/><path d="m128.011719 170.691406c0 9.425782-7.640625 17.066406-17.066407 17.066406-9.425781 0-17.066406-7.640624-17.066406-17.066406 0-9.425781 7.640625-17.066406 17.066406-17.066406 9.425782 0 17.066407 7.640625 17.066407 17.066406zm0 0" fill="#f5f5f5"/><path d="m281.613281 162.160156c0 9.425782-7.640625 17.066406-17.066406 17.066406s-17.066406-7.640624-17.066406-17.066406c0-9.425781 7.640625-17.066406 17.066406-17.066406s17.066406 7.640625 17.066406 17.066406zm0 0" fill="#f5f5f5"/><path d="m288.269531 298.691406c-7.992187 34.945313-39.078125 59.730469-74.925781 59.734375-2.507812.03125-5.015625-.113281-7.507812-.425781-3.214844-.261719-6.410157-.746094-9.558594-1.453125v-15.1875c.007812-23.5625 19.105468-42.660156 42.667968-42.667969zm0 0" fill="#ad1457"/><path d="m273.078125 298.691406c-7.367187 32.148438-34.425781 56.015625-67.242187 59.308594-3.214844-.261719-6.410157-.746094-9.558594-1.453125v-15.1875c.007812-23.5625 19.105468-42.660156 42.667968-42.667969zm0 0" fill="#e91e63"/><path d="m349.878906 512.023438h-145.066406c-14.132812-.015626-25.585938-11.464844-25.601562-25.597657v-8.621093c-.003907-6.203126.972656-12.371094 2.902343-18.269532.578125-1.90625 1.257813-3.777344 2.039063-5.613281 9.503906-21.796875 31.011718-35.902344 54.792968-35.933594h8.535157c26.03125.015625 49.457031 15.816407 59.226562 39.949219 1.519531 4.414062-.789062 9.226562-5.179687 10.804688-4.390625 1.582031-9.238282-.660157-10.878906-5.03125-7.355469-17.332032-24.339844-28.605469-43.167969-28.65625h-8.535157c-16.96875.019531-32.320312 10.070312-39.121093 25.617187-.546875 1.296875-1.023438 2.621094-1.429688 3.96875-1.402343 4.25-2.113281 8.691406-2.117187 13.164063v8.621093c.007812 4.710938 3.824218 8.527344 8.535156 8.53125h145.066406c4.710938-.003906 8.527344-3.820312 8.53125-8.53125v-50.433593c0-4.710938 3.824219-8.53125 8.535156-8.53125 4.710938 0 8.535157 3.820312 8.535157 8.53125v50.433593c-.015625 14.132813-11.46875 25.582031-25.601563 25.597657zm0 0"/><path d="m247.480469 512.023438h-145.070313c-14.140625-.023438-25.589844-11.492188-25.597656-25.632813v-8.550781c.007812-33 26.730469-59.765625 59.734375-59.828125h8.53125c23.757813-.023438 45.265625 14.046875 54.757813 35.820312 1.21875 2.796875.847656 6.03125-.964844 8.480469s-4.792969 3.75-7.824219 3.402344c-3.027344-.34375-5.644531-2.277344-6.859375-5.074219-6.785156-15.546875-22.144531-25.585937-39.109375-25.5625h-8.53125c-23.582031.054687-42.667969 19.183594-42.667969 42.761719v8.550781c-.003906 4.722656 3.8125 8.554687 8.53125 8.566406h145.070313c4.710937 0 8.53125 3.820313 8.53125 8.535157 0 4.710937-3.820313 8.53125-8.53125 8.53125zm0 0"/><path d="m42.679688 426.691406c-16.832032.003906-32.09375-9.886718-38.964844-25.25-6.867188-15.367187-4.0625-33.335937 7.164062-45.875 7.226563-8.097656 13.761719-16.789062 19.527344-25.984375 2.5-3.996093 7.765625-5.210937 11.761719-2.714843 3.996093 2.5 5.210937 7.761718 2.714843 11.761718-6.28125 10.007813-13.394531 19.46875-21.257812 28.285156-9.402344 10.550782-8.527344 26.710938 1.960938 36.183594 10.683593 9.015625 26.539062 8.140625 36.167968-1.992187 3.273438-3.683594 6.492188-7.480469 9.546875-11.359375 2.917969-3.703125 8.285157-4.339844 11.984375-1.421875 3.703125 2.917969 4.339844 8.285156 1.421875 11.988281-3.261719 4.136719-6.703125 8.199219-10.226562 12.164062-8.105469 9.03125-19.664063 14.199219-31.800781 14.214844zm0 0"/><path d="m409.613281 452.292969c-16.832031.003906-32.09375-9.886719-38.964843-25.253907-6.867188-15.363281-4.0625-33.332031 7.164062-45.871093 28.699219-32.09375 45.503906-73.074219 47.59375-116.074219.300781-4.671875 4.25-8.265625 8.929688-8.125 2.261718.109375 4.386718 1.109375 5.910156 2.785156 1.523437 1.675782 2.320312 3.886719 2.210937 6.144532-2.28125 46.914062-20.613281 91.621093-51.921875 126.636718-9.386718 10.550782-8.496094 26.703125 1.988282 36.160156 10.683593 9.019532 26.542968 8.148438 36.167968-1.988281 42.011719-47.046875 65.550782-107.722656 66.253906-170.792969-.546874-37.398437-9.257812-74.226562-25.527343-107.902343-1.320313-2.75-1.070313-5.992188.652343-8.507813 1.722657-2.515625 4.65625-3.921875 7.695313-3.6875s5.722656 2.070313 7.042969 4.820313c17.375 36.054687 26.660156 75.46875 27.203125 115.488281-.753907 67.203125-25.84375 131.855469-70.617188 181.980469-8.105469 9.019531-19.65625 14.175781-31.78125 14.1875zm0 0"/><path d="m398.945312 59.84375c-4.730468.007812-8.578124-3.804688-8.617187-8.535156-.019531-2.253906.859375-4.421875 2.445313-6.023438 1.585937-1.601562 3.746093-2.503906 6-2.507812h.171874c4.710938 0 8.535157 3.820312 8.535157 8.53125 0 4.714844-3.824219 8.535156-8.535157 8.535156zm0 0"/><path d="m118.625 438.382812c-1.726562 0-3.417969-.507812-4.859375-1.464843-87.039063-58.765625-125.496094-167.484375-94.757813-267.90625 30.734376-100.425781 123.449219-169.0000002 228.472657-168.9882815 30.699219-.2851565 61.265625 4.0429685 90.675781 12.8437505 2.945312.878906 5.1875 3.269531 5.878906 6.261718.6875 2.992188-.285156 6.125-2.546875 8.203125-2.261719 2.074219-5.464843 2.777344-8.390625 1.832031-27.773437-8.289062-56.636718-12.359374-85.617187-12.070312-97.457031-.015625-183.511719 63.578125-212.105469 156.746094-28.59375 93.167968 6.96875 194.085937 87.652344 248.742187 3.257812 1.988281 4.796875 5.894531 3.773437 9.566407-1.023437 3.671874-4.363281 6.21875-8.175781 6.234374zm0 0"/><path d="m299.265625 472.003906c-4.339844-.007812-7.984375-3.269531-8.46875-7.578125-.484375-4.3125 2.34375-8.304687 6.574219-9.273437 22.996094-5.261719 44.992187-14.191406 65.144531-26.453125 4.300781-2.679688 8.683594-5.570313 12.902344-8.550781 3.84375-2.605469 9.070312-1.65625 11.753906 2.140624 2.683594 3.792969 1.835937 9.035157-1.90625 11.792969-4.484375 3.171875-9.148437 6.246094-13.808594 9.152344-21.738281 13.234375-45.46875 22.875-70.277343 28.554687-.628907.144532-1.269532.214844-1.914063.214844zm0 0"/><path d="m418.757812 117.960938c-3.449218-.003907-6.855468-.78125-9.964843-2.277344l-27.253907-13.03125c-11.738281-5.800782-16.785156-19.84375-11.425781-31.785156l6.304688-14.078126c2.574219-5.863281 7.429687-10.421874 13.441406-12.625 5.851563-2.167968 12.335937-1.859374 17.957031.851563l27.246094 13.023437c11.734375 5.796876 16.785156 19.839844 11.429688 31.785157l-6.304688 14.078125c-2.578125 5.859375-7.433594 10.417968-13.441406 12.625-2.558594.945312-5.261719 1.433594-7.988282 1.433594zm-2.605468-17.675782c1.472656.710938 3.175781.792969 4.710937.222656 1.683594-.632812 3.035157-1.925781 3.75-3.578124l6.304688-14.078126c1.628906-3.496093.207031-7.648437-3.21875-9.414062l-27.246094-13.027344c-1.472656-.71875-3.175781-.800781-4.710937-.230468-1.6875.632812-3.039063 1.929687-3.75 3.582031l-6.304688 14.082031c-1.632812 3.488281-.214844 7.644531 3.210938 9.410156zm0 0"/><path d="m324.0625 81.953125c-5.53125 0-10.683594-2.804687-13.679688-7.453125-2.988281-4.519531-3.46875-10.25-1.265624-15.199219l22.4375-50.113281c2.285156-5.175781 7.234374-8.675781 12.878906-9.1054688 5.914062-.4882812 11.632812 2.2734378 14.929687 7.2109378l32.101563 47.820312c1.644531 2.445313 1.90625 5.566407.699218 8.253907-1.207031 2.6875-3.710937 4.5625-6.632812 4.960937 1.761719 2.609375 1.941406 5.972656.472656 8.757813-1.46875 2.78125-4.351562 4.527343-7.496094 4.546874l-54.347656.320313zm22.121094-63.671875-20.992188 46.894531 52.078125-.597656zm0 0"/><path d="m324.0625 81.953125c-5.53125 0-10.683594-2.804687-13.679688-7.453125-2.988281-4.519531-3.46875-10.25-1.265624-15.199219l22.4375-50.113281c2.285156-5.175781 7.234374-8.675781 12.878906-9.1054688 5.914062-.4882812 11.632812 2.2734378 14.929687 7.2109378l32.101563 47.820312c1.644531 2.445313 1.90625 5.566407.699218 8.253907-1.207031 2.6875-3.710937 4.5625-6.632812 4.960937 1.761719 2.609375 1.941406 5.972656.472656 8.757813-1.46875 2.78125-4.351562 4.527343-7.496094 4.546874l-54.347656.320313zm22.121094-63.671875-20.992188 46.894531 52.078125-.597656zm0 0"/><path d="m473.898438 153.628906c-4.90625-.007812-9.542969-2.238281-12.617188-6.066406l-34.945312-43.019531c-1.941407-2.394531-2.441407-5.652344-1.308594-8.519531 1.132812-2.863282 3.726562-4.898438 6.78125-5.316407-1.683594-2.488281-1.929688-5.675781-.65625-8.398437 1.277344-2.71875 3.886718-4.566406 6.875-4.867188l56.054687-5.671875c5.792969-.546875 11.441407 2.015625 14.847657 6.730469 3.390624 4.582031 4.046874 10.640625 1.710937 15.839844l-22.4375 50.125c-2.195313 4.925781-6.808594 8.347656-12.160156 9.023437-.710938.09375-1.425781.140625-2.144531.140625zm-33.824219-59.242187 33.425781 41.148437 21.03125-46.980468zm0 0"/><path d="m146.710938 241.273438c-1.78125 0-3.519532-.558594-4.964844-1.597657l-48.285156-34.644531c-8.433594-6.027344-14.097657-15.1875-15.726563-25.421875-1.628906-10.238281.914063-20.703125 7.058594-29.050781 10.730469-14.574219 29.988281-20.003906 46.75-13.179688 13.816406-11.671875 33.789062-12.492187 48.519531-1.992187 8.433594 6.027343 14.101562 15.1875 15.734375 25.425781 1.628906 10.238281-.914063 20.703125-7.058594 29.050781l-35.136719 47.925781c-1.605468 2.195313-4.167968 3.492188-6.890624 3.484376zm-30.070313-89.753907c-7.140625-.011719-13.859375 3.378907-18.089844 9.132813-3.449219 4.671875-4.875 10.535156-3.960937 16.273437.910156 5.734375 4.089844 10.867188 8.820312 14.238281l41.417969 29.714844 30.144531-41.105468c3.449219-4.671876 4.878906-10.539063 3.964844-16.273438-.914062-5.738281-4.09375-10.871094-8.824219-14.238281-9.582031-6.84375-22.824219-5.109375-30.320312 3.96875-2.746094 3.332031-7.542969 4.09375-11.183594 1.78125-3.574219-2.285157-7.726563-3.496094-11.96875-3.492188zm0 0"/><path d="m279.980469 241.273438c-2.722657.007812-5.285157-1.289063-6.894531-3.484376l-35.136719-47.921874c-6.144531-8.347657-8.683594-18.8125-7.054688-29.050782 1.632813-10.234375 7.296875-19.394531 15.730469-25.421875 14.726562-10.507812 34.707031-9.691406 48.523438 1.988281 16.761718-6.824218 36.019531-1.394531 46.75 13.179688 6.144531 8.347656 8.6875 18.8125 7.058593 29.046875-1.628906 10.238281-7.292969 19.398437-15.726562 25.425781l-48.285157 34.644532c-1.445312 1.039062-3.183593 1.597656-4.964843 1.59375zm-10.390625-96.179688c-4.671875-.007812-9.226563 1.457031-13.019532 4.179688-4.730468 3.371093-7.910156 8.5-8.820312 14.234374-.914062 5.738282.511719 11.601563 3.960938 16.273438l30.148437 41.109375 41.417969-29.71875c4.730468-3.371094 7.90625-8.5 8.820312-14.238281.914063-5.734375-.511718-11.597656-3.960937-16.273438-6.984375-9.480468-20.113281-11.945312-30.058594-5.640625-3.640625 2.320313-8.441406 1.554688-11.183594-1.78125-4.253906-5.171875-10.605469-8.164062-17.304687-8.144531zm0 0"/><path d="m86.789062 120.160156c3.035157-10.285156 8.695313-19.601562 16.421876-27.035156 8.003906-7.992188 18.234374-13.386719 29.347656-15.472656 2.792968-.636719 5.652344-.9375 8.515625-.90625 2.835937-.253906 5.691406-.125 8.492187.390625 2.777344.480469 5.582032.859375 8.289063 1.472656l7.742187 2.878906c2.5625.878907 4.992188 2.09375 7.234375 3.613281 2.285157 1.40625 4.589844 2.730469 6.789063 4.195313 4.070312 3.261719 7.9375 6.761719 11.589844 10.488281 1.042968 1.058594 1.214843 2.699219.410156 3.953125-.804688 1.25-2.367188 1.777344-3.765625 1.269531l-.425781-.15625c-4.699219-1.714843-8.992188-3.824218-13.3125-5.6875-4.515626-1.269531-8.703126-3.371093-13.097657-4.15625-8.265625-2.28125-16.9375-2.679687-25.378906-1.167968-8.4375 1.746094-16.4375 5.179687-23.515625 10.09375-7.738281 5.390625-14.964844 11.480468-21.589844 18.195312l-.148437.144532c-.695313.691406-1.769531.824218-2.613281.328124-.84375-.496093-1.246094-1.5-.984376-2.441406zm0 0"/><path d="m237.511719 102.179688c6.296875-8.691407 14.765625-15.578126 24.558593-19.96875 20.957032-10.019532 45.925782-6.054688 62.75 9.960937 7.820313 7.199219 13.929688 16.058594 17.882813 25.929687.660156 1.65625-.144531 3.535157-1.800781 4.199219-1.191406.464844-2.546875.191407-3.464844-.699219-6.601562-6.726562-13.800781-12.835937-21.503906-18.257812-7.039063-4.917969-15.078125-8.210938-23.542969-9.640625-8.546875-1.128906-17.234375-.554687-25.5625 1.6875-9.109375 2.460937-17.96875 5.777344-26.453125 9.90625l-.183594.085937c-.886718.414063-1.941406.179688-2.574218-.570312-.628907-.75-.671876-1.828125-.109376-2.628906zm0 0"/><path d="m213.34375 366.957031c-47.105469-.050781-85.28125-38.226562-85.332031-85.332031v-8.53125c.007812-9.421875 7.644531-17.058594 17.066406-17.070312h136.535156c9.421875.011718 17.054688 7.648437 17.066407 17.070312v8.53125c-.054688 47.105469-38.226563 85.28125-85.335938 85.332031zm-68.265625-93.863281v8.53125c0 37.703125 30.566406 68.265625 68.265625 68.265625 37.703125 0 68.269531-30.5625 68.269531-68.265625v-8.53125zm0 0"/><path d="m196.277344 365.082031c-4.710938 0-8.53125-3.820312-8.53125-8.535156v-15.1875c.03125-28.265625 22.933594-51.167969 51.199218-51.199219h49.324219c4.710938 0 8.53125 3.820313 8.53125 8.53125 0 4.714844-3.820312 8.535156-8.53125 8.535156h-49.324219c-18.84375.019532-34.113281 15.289063-34.132812 34.132813v15.1875c0 4.714844-3.820312 8.535156-8.535156 8.535156zm0 0"/></svg>