<svg height="512pt" viewBox="0 0 512.01196 512" width="512pt" xmlns="http://www.w3.org/2000/svg"><path d="m247.480469 8.539062c-101.273438-.015624-190.679688 66.109376-220.316407 162.949219-29.636718 96.835938 7.441407 201.675781 91.375 258.339844h.085938l69.121094 48.042969v8.535156c.027344 9.414062 7.652344 17.039062 17.066406 17.066406h145.066406c9.414063-.027344 17.039063-7.652344 17.066406-17.066406v-50.433594c.769532-.511718 1.535157-.9375 2.304688-1.449218 3.753906-2.390626 7.507812-4.863282 11.09375-7.425782.007812.09375.039062.179688.085938.257813 1.054687 2.222656 2.566406 4.199219 4.4375 5.800781.59375.597656 1.277343 1.28125 1.960937 1.878906 1.257813 1.097656 2.597656 2.09375 4.011719 2.988282.683594.558593 1.429687 1.046874 2.21875 1.449218.796875.449219 1.625.847656 2.472656 1.195313.691406.335937 1.402344.621093 2.132812.851562 1.109376.429688 2.21875.769531 3.328126 1.109375 2.8125.753906 5.710937 1.125 8.621093 1.109375 9.707031.015625 18.957031-4.113281 25.429688-11.347656 43.40625-48.574219 67.722656-111.246094 68.4375-176.382813 1.023437-76.800781-51.203125-247.46875-256-247.46875zm0 0" fill="#f0c419"/><path d="m78.007812 395.015625c-3.160156 4.007813-6.488281 7.933594-9.898437 11.773437-12.605469 13.949219-34.113281 15.082032-48.117187 2.535157-14-12.542969-15.226563-34.046875-2.742188-48.101563 7.550781-8.457031 14.371094-17.535156 20.394531-27.136718zm0 0" fill="#ff9801"/><path d="m503.480469 256.007812c-.714844 65.136719-25.03125 127.808594-68.4375 176.382813-6.472657 7.234375-15.722657 11.363281-25.429688 11.347656-2.910156.015625-5.808593-.355469-8.621093-1.109375-1.109376-.339844-2.21875-.679687-3.328126-1.109375-.730468-.230469-1.441406-.515625-2.132812-.851562-.847656-.347657-1.675781-.746094-2.472656-1.195313-.789063-.402344-1.535156-.890625-2.21875-1.449218-1.414063-.894532-2.753906-1.890626-4.011719-2.988282-.683594-.597656-1.367187-1.28125-1.960937-1.878906-1.871094-1.601562-3.382813-3.578125-4.4375-5.800781-.046876-.078125-.078126-.164063-.085938-.257813-3.585938 2.5625-7.339844 5.035156-11.09375 7.425782-.769531.511718-1.535156.9375-2.304688 1.449218-20.9375 12.730469-43.785156 22.007813-67.667968 27.480469h-.257813l-.339843-2.648437c-8.613282-20.691407-28.789063-34.207032-51.199219-34.300782h-8.535157c-20.351562.027344-38.761718 12.078125-46.933593 30.71875-.6875 1.617188-1.285157 3.269532-1.792969 4.949219-1.648438 5.039063-2.484375 10.3125-2.472656 15.617187v.082032l-69.121094-48.042969h-.085938c-83.933593-56.664063-121.011718-161.503906-91.375-258.339844 29.636719-96.839843 119.042969-162.964843 220.316407-162.949219 204.796875 0 257.023437 170.667969 256 247.46875zm0 0" fill="#ffdc00"/><path d="m380.34375 427.097656c-3.585938 2.5625-7.339844 5.035156-11.09375 7.425782-13.523438-12.691407-14.472656-33.851563-2.132812-47.703126 26.308593-29.351562 43.140624-65.96875 48.289062-105.050781 1.207031-9.3125 9.136719-16.285156 18.527344-16.292969-2.132813 44.96875-19.703125 87.824219-49.75 121.34375-9.945313 11.144532-11.5 27.457032-3.839844 40.277344zm0 0" fill="#fec108"/><path d="m192.011719 457.222656c-8.152344-18.652344-26.578125-30.703125-46.933594-30.695312h-8.53125c-28.296875.046875-51.207031 23-51.203125 51.296875v8.550781c.019531 9.421875 7.644531 17.0625 17.066406 17.097656h145.070313zm0 0" fill="#3f51b5"/><path d="m366.945312 435.972656v50.433594c-.027343 9.414062-7.652343 17.039062-17.066406 17.066406h-145.066406c-9.414062-.027344-17.039062-7.652344-17.066406-17.066406v-8.617188c-.011719-5.304687.824218-10.578124 2.472656-15.617187.507812-1.679687 1.105469-3.332031 1.792969-4.949219 8.171875-18.640625 26.582031-30.691406 46.933593-30.71875h8.535157c22.410156.09375 42.585937 13.609375 51.199219 34.300782l.597656 2.648437c23.882812-5.472656 46.730468-14.75 67.667968-27.480469zm0 0" fill="#3f51b5"/><path d="m380.429688 427.355469c1.296874 2.066406 2.785156 4.007812 4.4375 5.800781-1.871094-1.601562-3.382813-3.578125-4.4375-5.800781zm0 0" fill="#f0c419"/><path d="m366.945312 435.972656v17.066406c-15.941406 9.691407-33.011718 17.394532-50.824218 22.9375-3.960938 1.199219-8.253906.449219-11.574219-2.019531-3.324219-2.46875-5.277344-6.367187-5.269531-10.503906 23.882812-5.472656 46.730468-14.75 67.667968-27.480469zm0 0" fill="#283593"/><path d="m204.8125 256.007812h17.066406c28.277344 0 51.199219 22.921876 51.199219 51.199219v8.710938c0 18.851562-15.28125 34.132812-34.132813 34.132812h-51.199218c-18.851563 0-34.132813-15.28125-34.132813-34.132812v-8.710938c0-28.277343 22.921875-51.199219 51.199219-51.199219zm0 0" fill="#bb193b"/><path d="m273.078125 307.207031v8.703125c.003906 9.054688-3.59375 17.738282-9.996094 24.136719-6.398437 6.402344-15.082031 10-24.136719 9.996094h-25.601562v-17.066407c-.019531-9.066406 3.566406-17.769531 9.972656-24.1875 6.402344-6.421874 15.09375-10.027343 24.164063-10.03125h24.832031c.515625 2.785157.773438 5.613282.765625 8.449219zm0 0" fill="#ad1457"/><path d="m256.011719 307.207031v8.703125c.003906 9.054688-3.59375 17.738282-9.996094 24.136719-6.398437 6.402344-15.082031 10-24.136719 9.996094h-8.535156v-17.066407c-.019531-9.066406 3.566406-17.769531 9.972656-24.1875 6.402344-6.421874 15.09375-10.027343 24.164063-10.03125h7.761719c.519531 2.785157.777343 5.613282.769531 8.449219zm0 0" fill="#e91e63"/><path d="m503.480469 256.007812c-.714844 65.136719-25.03125 127.808594-68.4375 176.382813-6.472657 7.234375-15.722657 11.363281-25.429688 11.347656-2.910156.015625-5.808593-.355469-8.621093-1.109375-1.109376-.339844-2.21875-.679687-3.328126-1.109375-.300781-.058593-.589843-.175781-.851562-.339843 4.851562-1.878907 9.179688-4.894532 12.628906-8.789063 43.410156-48.574219 67.722656-111.246094 68.4375-176.382813 1.023438-74.925781-48.726562-239.277343-241.492187-247.128906 3.667969-.253906 7.335937-.339844 11.09375-.339844 204.796875 0 257.023437 170.667969 256 247.46875zm0 0" fill="#fec108"/><path d="m366.945312 435.972656v50.433594c-.027343 9.414062-7.652343 17.039062-17.066406 17.066406h-25.601562c9.414062-.027344 17.039062-7.652344 17.066406-17.066406v-37.035156c8.808594-3.917969 17.359375-8.394532 25.601562-13.398438zm0 0" fill="#283593"/><path d="m349.878906 512.007812h-145.066406c-14.132812-.015624-25.585938-11.46875-25.601562-25.601562v-8.617188c-.003907-6.207031.972656-12.375 2.902343-18.273437.578125-1.90625 1.257813-3.777344 2.039063-5.613281 9.503906-21.796875 31.011718-35.902344 54.792968-35.933594h8.535157c26.03125.015625 49.457031 15.816406 59.226562 39.949219 1.519531 4.414062-.789062 9.226562-5.179687 10.804687-4.390625 1.582032-9.238282-.660156-10.878906-5.027344-7.355469-17.332031-24.339844-28.609374-43.167969-28.660156h-8.535157c-16.96875.019532-32.320312 10.070313-39.121093 25.617188-.546875 1.296875-1.023438 2.621094-1.429688 3.96875-1.402343 4.25-2.113281 8.695312-2.117187 13.167968v8.617188c.007812 4.710938 3.824218 8.527344 8.535156 8.53125h145.066406c4.710938-.003906 8.527344-3.820312 8.53125-8.53125v-50.433594c0-4.710937 3.824219-8.53125 8.535156-8.53125 4.710938 0 8.535157 3.820313 8.535157 8.53125v50.433594c-.015625 14.132812-11.46875 25.585938-25.601563 25.601562zm0 0"/><path d="m247.480469 512.007812h-145.070313c-14.140625-.027343-25.589844-11.496093-25.597656-25.636718v-8.546875c.007812-33.003907 26.730469-59.769531 59.734375-59.832031h8.53125c23.757813-.023438 45.265625 14.046874 54.757813 35.824218 1.21875 2.792969.847656 6.027344-.964844 8.476563-1.8125 2.453125-4.792969 3.75-7.824219 3.402343-3.027344-.34375-5.644531-2.277343-6.859375-5.074218-6.785156-15.546875-22.144531-25.585938-39.109375-25.5625h-8.53125c-23.582031.054687-42.667969 19.183594-42.667969 42.765625v8.546875c-.003906 4.722656 3.8125 8.554687 8.53125 8.566406h145.070313c4.710937 0 8.53125 3.824219 8.53125 8.535156 0 4.710938-3.820313 8.535156-8.53125 8.535156zm0 0"/><path d="m42.679688 426.671875c-16.832032.003906-32.09375-9.886719-38.964844-25.25-6.867188-15.367187-4.0625-33.335937 7.164062-45.875 7.226563-8.097656 13.761719-16.789063 19.527344-25.984375 2.5-3.996094 7.765625-5.210938 11.761719-2.714844 3.996093 2.5 5.210937 7.765625 2.714843 11.761719-6.28125 10.007813-13.394531 19.46875-21.257812 28.285156-9.402344 10.550781-8.527344 26.710938 1.960938 36.183594 10.683593 9.015625 26.539062 8.140625 36.167968-1.992187 3.273438-3.683594 6.492188-7.480469 9.546875-11.359376 2.917969-3.703124 8.285157-4.339843 11.984375-1.421874 3.703125 2.917968 4.339844 8.285156 1.421875 11.988281-3.261719 4.136719-6.703125 8.199219-10.226562 12.164062-8.105469 9.035157-19.664063 14.199219-31.800781 14.214844zm0 0"/><path d="m409.613281 452.273438c-16.832031.003906-32.09375-9.886719-38.964843-25.253907-6.867188-15.363281-4.0625-33.332031 7.164062-45.871093 28.699219-32.09375 45.503906-73.074219 47.59375-116.074219.320312-4.664063 4.257812-8.246094 8.929688-8.121094 2.261718.105469 4.386718 1.105469 5.910156 2.78125 1.523437 1.675781 2.320312 3.886719 2.210937 6.144531-2.28125 46.917969-20.613281 91.621094-51.921875 126.636719-9.386718 10.550781-8.496094 26.703125 1.988282 36.164063 10.683593 9.015624 26.542968 8.144531 36.167968-1.992188 42.003906-47.050781 65.542969-107.726562 66.253906-170.792969-1.121093-63.945312-26.054687-125.171875-69.925781-171.710937-43.9375-44.53125-103.675781-67.109375-177.539062-67.109375-97.460938-.015625-183.511719 63.578125-212.105469 156.746093-28.59375 93.167969 6.96875 194.085938 87.65625 248.746094 3.253906 1.984375 4.792969 5.890625 3.769531 9.5625-1.023437 3.671875-4.363281 6.21875-8.175781 6.234375h-.085938c-1.699218 0-3.363281-.507812-4.773437-1.460937-87.042969-58.769532-125.496094-167.488282-94.761719-267.914063 30.734375-100.421875 123.453125-168.9960935 228.476563-168.9804685 78.601562 0 142.417969 24.2851565 189.695312 72.1914065 47.363281 49.597656 74.117188 115.339843 74.835938 183.917969-.769531 67.199218-25.855469 131.84375-70.617188 181.96875-8.105469 9.019531-19.65625 14.175781-31.78125 14.1875zm0 0"/><path d="m299.265625 471.984375c-4.339844-.003906-7.984375-3.265625-8.46875-7.578125s2.34375-8.300781 6.574219-9.273438c22.996094-5.261718 44.992187-14.191406 65.144531-26.453124 4.300781-2.679688 8.683594-5.570313 12.902344-8.550782 3.84375-2.605468 9.070312-1.65625 11.753906 2.140625 2.683594 3.792969 1.835937 9.035157-1.90625 11.792969-4.484375 3.171875-9.148437 6.246094-13.808594 9.152344-21.738281 13.234375-45.46875 22.875-70.277343 28.554687-.628907.144531-1.269532.214844-1.914063.214844zm0 0"/><path d="m238.945312 358.585938h-51.199218c-23.554688-.027344-42.640625-19.113282-42.667969-42.667969v-8.710938c.039063-32.976562 26.757813-59.699219 59.734375-59.734375h17.066406c32.972656.035156 59.695313 26.757813 59.734375 59.734375v8.710938c-.027343 23.554687-19.117187 42.640625-42.667969 42.667969zm-34.132812-94.046876c-23.554688.027344-42.640625 19.113282-42.667969 42.667969v8.710938c.015625 14.132812 11.46875 25.585937 25.601563 25.601562h51.199218c14.132813-.015625 25.585938-11.46875 25.601563-25.601562v-8.710938c-.03125-23.554687-19.117187-42.640625-42.667969-42.667969zm0 0"/><path d="m213.34375 358.578125c-4.710938 0-8.53125-3.820313-8.53125-8.535156v-17.066407c.003906-23.574218 19.089844-42.699218 42.667969-42.75h24.832031c4.710938 0 8.53125 3.820313 8.53125 8.53125 0 4.714844-3.820312 8.535157-8.53125 8.535157h-24.832031c-14.15625.039062-25.609375 11.527343-25.601563 25.683593v17.066407c0 4.714843-3.820312 8.535156-8.535156 8.535156zm0 0"/><path d="m92.042969 126.957031c6.253906-19.339843 21.539062-34.414062 40.957031-40.402343 9.914062-3.121094 20.511719-3.324219 30.535156-.589844 4.84375 1.195312 9.515625 2.996094 13.910156 5.363281 4.183594 2.433594 8.15625 5.222656 11.867188 8.332031 1.140625.910156 1.515625 2.480469.90625 3.808594-.609375 1.324219-2.042969 2.066406-3.480469 1.792969l-.5625-.109375c-4.519531-.871094-8.597656-2.398438-12.78125-3.277344-4.058593-.894531-8.175781-1.511719-12.316406-1.847656-7.851563-.824219-15.785156-.039063-23.324219 2.304687-15.75 5.820313-30.082031 14.933594-42.039062 26.722657l-.15625.136718c-.898438.792969-2.269532.710938-3.0625-.1875-.488282-.5625-.660156-1.332031-.453125-2.046875zm0 0"/><path d="m330.976562 129.054688c-11.960937-11.789063-26.292968-20.898438-42.042968-26.722657-7.539063-2.34375-15.472656-3.128906-23.324219-2.304687-4.140625.335937-8.257813.953125-12.316406 1.847656-4.183594.878906-8.261719 2.40625-12.777344 3.277344l-.5625.109375c-1.4375.273437-2.875-.464844-3.484375-1.792969-.609375-1.324219-.234375-2.898438.90625-3.808594 3.710938-3.109375 7.683594-5.898437 11.871094-8.332031 4.390625-2.367187 9.0625-4.167969 13.90625-5.363281 10.023437-2.734375 20.625-2.527344 30.535156.589844 19.421875 5.988281 34.707031 21.066406 40.960938 40.402343.269531.925781-.101563 1.917969-.914063 2.441407-.8125.519531-1.871094.441406-2.597656-.195313zm0 0"/><path d="m145.078125 213.339844c-18.082031-.332032-35.414063-7.296875-48.699219-19.566406-3.335937-3.328126-3.347656-8.730469-.019531-12.070313 3.328125-3.335937 8.730469-3.34375 12.070313-.019531 10.101562 9.050781 23.089843 14.222656 36.648437 14.589844 13.566406-.289063 26.574219-5.460938 36.632813-14.566407 3.347656-3.234375 8.671874-3.1875 11.964843.101563 3.289063 3.292968 3.335938 8.617187.101563 11.964844-13.285156 12.269531-30.617188 19.234374-48.699219 19.566406zm0 0"/><path d="m281.613281 213.339844c-18.085937-.332032-35.414062-7.296875-48.699219-19.566406-3.339843-3.328126-3.347656-8.730469-.019531-12.070313 3.328125-3.335937 8.730469-3.34375 12.066407-.019531 10.105468 9.050781 23.09375 14.222656 36.652343 14.589844 13.566407-.289063 26.570313-5.460938 36.632813-14.566407 3.347656-3.234375 8.671875-3.1875 11.960937.101563 3.292969 3.292968 3.339844 8.617187.105469 11.964844-13.285156 12.269531-30.617188 19.234374-48.699219 19.566406zm0 0"/></svg>