<svg height="512pt" viewBox="0 0 512.01331 512" width="512pt" xmlns="http://www.w3.org/2000/svg"><path d="m247.480469 8.539062c-101.273438-.015624-190.675781 66.109376-220.316407 162.949219-29.636718 96.835938 7.445313 201.675781 91.378907 258.34375h.082031l69.121094 48.042969v8.53125c.027344 9.414062 7.652344 17.039062 17.066406 17.066406h145.066406c9.414063-.027344 17.039063-7.652344 17.066406-17.066406v-50.429688c.769532-.515624 1.539063-.941406 2.304688-1.453124 3.753906-2.390626 7.511719-4.863282 11.09375-7.421876.011719.089844.039062.175782.085938.253907 1.058593 2.222656 2.566406 4.199219 4.4375 5.804687.597656.597656 1.28125 1.277344 1.960937 1.875 1.257813 1.097656 2.601563 2.097656 4.011719 2.988282.6875.5625 1.429687 1.046874 2.21875 1.449218.800781.449219 1.625.847656 2.476562 1.195313.6875.335937 1.402344.621093 2.132813.851562 1.109375.429688 2.21875.769531 3.328125 1.109375 2.808594.753906 5.707031 1.125 8.617187 1.109375 9.707031.015625 18.957031-4.113281 25.429688-11.347656 43.40625-48.574219 67.722656-111.242187 68.4375-176.382813 1.023437-76.800781-51.199219-247.46875-256-247.46875zm0 0" fill="#f0c419"/><path d="m503.480469 256.007812c-.714844 65.140626-25.03125 127.808594-68.4375 176.382813-6.472657 7.234375-15.722657 11.363281-25.429688 11.347656-2.910156.015625-5.808593-.355469-8.617187-1.109375-1.109375-.339844-2.21875-.679687-3.328125-1.109375-.730469-.230469-1.445313-.515625-2.132813-.851562-.851562-.347657-1.675781-.746094-2.476562-1.195313-.789063-.402344-1.53125-.886718-2.21875-1.449218-1.410156-.890626-2.753906-1.890626-4.011719-2.988282-.679687-.597656-1.363281-1.277344-1.960937-1.875-1.871094-1.605468-3.378907-3.582031-4.4375-5.804687-.046876-.078125-.074219-.164063-.085938-.253907-3.582031 2.558594-7.339844 5.03125-11.09375 7.421876-.765625.511718-1.535156.9375-2.304688 1.453124-20.9375 12.726563-43.785156 22.003907-67.667968 27.476563h-.257813l-.339843-2.644531c-8.613282-20.695313-28.785157-34.210938-51.199219-34.304688h-8.535157c-20.351562.027344-38.761718 12.078125-46.933593 30.71875-.683594 1.617188-1.28125 3.269532-1.789063 4.949219-1.652344 5.039063-2.488281 10.3125-2.476562 15.617187v.085938l-69.121094-48.042969h-.082031c-83.933594-56.667969-121.015625-161.507812-91.378907-258.34375 29.640626-96.839843 119.042969-162.964843 220.316407-162.949219 204.800781 0 257.023437 170.667969 256 247.46875zm0 0" fill="#ffdc00"/><path d="m78.007812 395.015625c-3.15625 4.007813-6.484374 7.933594-9.898437 11.773437-12.605469 13.949219-34.113281 15.082032-48.113281 2.535157-14.003906-12.542969-15.230469-34.046875-2.746094-48.101563 7.550781-8.453125 14.375-17.53125 20.394531-27.136718zm0 0" fill="#ff9801"/><path d="m380.34375 427.101562c-3.582031 2.558594-7.339844 5.03125-11.09375 7.421876-13.523438-12.691407-14.46875-33.851563-2.132812-47.699219 26.3125-29.355469 43.144531-65.972657 48.292968-105.054688 1.203125-9.3125 9.132813-16.285156 18.523438-16.289062-2.132813 44.964843-19.703125 87.820312-49.75 121.34375-9.945313 11.140625-11.5 27.453125-3.839844 40.277343zm0 0" fill="#fec108"/><path d="m192.011719 457.222656c-8.148438-18.652344-26.578125-30.703125-46.933594-30.695312h-8.53125c-28.296875.046875-51.207031 23-51.199219 51.296875v8.550781c.019532 9.421875 7.640625 17.0625 17.066406 17.097656h145.066407zm0 0" fill="#3f51b5"/><path d="m366.945312 435.976562v50.429688c-.027343 9.414062-7.652343 17.039062-17.066406 17.066406h-145.066406c-9.414062-.027344-17.039062-7.652344-17.066406-17.066406v-8.617188c-.011719-5.304687.824218-10.578124 2.476562-15.617187.507813-1.679687 1.105469-3.332031 1.789063-4.949219 8.171875-18.640625 26.582031-30.691406 46.933593-30.71875h8.535157c22.414062.09375 42.585937 13.609375 51.199219 34.304688l.597656 2.644531c23.882812-5.472656 46.730468-14.75 67.667968-27.476563zm0 0" fill="#3f51b5"/><path d="m380.429688 427.355469c1.300781 2.066406 2.785156 4.007812 4.4375 5.804687-1.871094-1.605468-3.378907-3.582031-4.4375-5.804687zm0 0" fill="#f0c419"/><path d="m366.945312 435.976562v17.066407c-15.941406 9.6875-33.007812 17.390625-50.820312 22.933593-3.960938 1.199219-8.257812.449219-11.578125-2.019531s-5.277344-6.367187-5.269531-10.503906c23.882812-5.472656 46.730468-14.75 67.667968-27.476563zm0 0" fill="#283593"/><path d="m67.339844 128.007812h-41.726563c-9.414062.027344-17.039062 7.652344-17.066406 17.066407-.023437 4.527343 1.792969 8.871093 5.035156 12.03125 3.160157 3.242187 7.503907 5.058593 12.03125 5.035156h8.019531zm0 0" fill="#3f51b5"/><path d="m136.546875 298.671875h136.53125c4.714844 0 8.535156 3.820313 8.535156 8.535156v8.53125c0 42.417969-34.382812 76.800781-76.800781 76.800781-42.414062 0-76.800781-34.382812-76.800781-76.800781v-8.53125c0-4.714843 3.820312-8.535156 8.535156-8.535156zm0 0" fill="#bb193b"/><path d="m279.734375 332.808594c-7.988281 34.945312-39.074219 59.726562-74.921875 59.730468-2.507812.03125-5.019531-.109374-7.507812-.425781-3.214844-.261719-6.410157-.746093-9.558594-1.449219v-15.191406c.007812-23.558594 19.105468-42.65625 42.667968-42.664062zm0 0" fill="#ad1457"/><path d="m264.546875 332.808594c-7.367187 32.148437-34.425781 56.011718-67.242187 59.304687-3.214844-.261719-6.410157-.746093-9.558594-1.449219v-15.191406c.007812-23.558594 19.105468-42.65625 42.667968-42.664062zm0 0" fill="#e91e63"/><path d="m179.214844 196.273438c.015625 34.179687-22.570313 64.253906-55.398438 73.765624-32.832031 9.515626-67.996094-3.824218-86.257812-32.71875-7.835938-12.253906-11.984375-26.503906-11.945313-41.046874.035157-40.832032 32.007813-74.496094 72.785157-76.632813 40.773437-2.136719 76.089843 28.007813 80.386718 68.613281.257813 2.644532.429688 5.289063.429688 8.019532zm0 0" fill="#02a9f4"/><path d="m366.945312 196.273438c.023438 6.953124-.925781 13.875-2.816406 20.566406-10.277344 37.003906-46.3125 60.722656-84.367187 55.53125-38.050781-5.191406-66.417969-37.691406-66.414063-76.097656-.019531-3.082032.179688-6.164063.597656-9.214844 4.863282-40.324219 40.296876-69.882813 80.839844-67.441406 40.542969 2.441406 72.171875 36.039062 72.160156 76.65625zm0 0" fill="#02a9f4"/><path d="m178.785156 188.253906c.257813 2.644532.429688 5.289063.429688 8.019532.015625 34.179687-22.570313 64.253906-55.398438 73.765624-32.832031 9.515626-67.996094-3.824218-86.257812-32.71875 41.980468-28.417968 90.671875-45.335937 141.226562-49.066406zm0 0" fill="#0377bc"/><path d="m364.128906 216.839844c-10.277344 37.003906-46.3125 60.722656-84.367187 55.53125-38.050781-5.191406-66.417969-37.691406-66.414063-76.097656-.019531-3.082032.179688-6.164063.597656-9.214844 51.363282 1.554687 102.113282 11.617187 150.183594 29.78125zm0 0" fill="#0377bc"/><path d="m503.480469 256.007812c-.714844 65.140626-25.03125 127.808594-68.4375 176.382813-6.472657 7.234375-15.722657 11.363281-25.429688 11.347656-2.910156.015625-5.808593-.355469-8.617187-1.109375-1.109375-.339844-2.21875-.679687-3.328125-1.109375-.304688-.058593-.59375-.175781-.855469-.339843 4.851562-1.878907 9.183594-4.894532 12.628906-8.789063 43.410156-48.574219 67.726563-111.242187 68.4375-176.382813 1.023438-74.921874-48.722656-239.277343-241.492187-247.125 3.667969-.257812 7.339843-.34375 11.09375-.34375 204.800781 0 257.023437 170.667969 256 247.46875zm0 0" fill="#fec108"/><path d="m366.945312 435.976562v50.429688c-.027343 9.414062-7.652343 17.039062-17.066406 17.066406h-25.597656c9.414062-.027344 17.039062-7.652344 17.066406-17.066406v-37.035156c8.808594-3.917969 17.359375-8.394532 25.597656-13.394532zm0 0" fill="#283593"/><path d="m325.21875 128.007812h161.195312c9.414063.027344 17.039063 7.652344 17.066407 17.066407-.066407 9.398437-7.667969 16.996093-17.066407 17.066406h-127.488281zm0 0" fill="#3f51b5"/><path d="m349.878906 512.007812h-145.066406c-14.132812-.015624-25.582031-11.46875-25.597656-25.601562v-8.617188c-.011719-6.210937.96875-12.378906 2.898437-18.28125.578125-1.902343 1.257813-3.773437 2.035157-5.601562 9.503906-21.800781 31.015624-35.910156 54.796874-35.9375h8.535157c26.035156.019531 49.457031 15.820312 59.234375 39.949219 1.59375 4.4375-.710938 9.328125-5.148438 10.921875-4.433594 1.59375-9.324218-.707032-10.917968-5.144532-7.355469-17.332031-24.339844-28.609374-43.167969-28.660156h-8.535157c-16.964843.019532-32.316406 10.070313-39.117187 25.613282-.546875 1.292968-1.023437 2.613281-1.433594 3.957031-1.398437 4.253906-2.113281 8.703125-2.113281 13.183593v8.617188c.003906 4.710938 3.820312 8.53125 8.53125 8.535156h145.066406c4.710938-.003906 8.53125-3.824218 8.535156-8.535156v-50.429688c0-4.714843 3.820313-8.535156 8.53125-8.535156 4.714844 0 8.535157 3.820313 8.535157 8.535156v50.429688c-.015625 14.132812-11.46875 25.585938-25.601563 25.601562zm0 0"/><path d="m247.480469 512.007812h-145.066407c-14.140624-.027343-25.59375-11.492187-25.601562-25.632812v-8.550781c.011719-33 26.734375-59.765625 59.734375-59.832031h8.53125c23.757813-.023438 45.265625 14.046874 54.761719 35.824218 1.878906 4.320313-.101563 9.347656-4.421875 11.226563-4.324219 1.882812-9.351563-.097657-11.230469-4.417969-6.785156-15.546875-22.144531-25.589844-39.109375-25.5625h-8.53125c-23.578125.050781-42.664063 19.179688-42.667969 42.761719v8.550781c-.003906 4.71875 3.8125 8.550781 8.535156 8.566406h145.066407c4.710937 0 8.53125 3.820313 8.53125 8.53125 0 4.714844-3.820313 8.535156-8.53125 8.535156zm0 0"/><path d="m42.679688 426.671875c-16.832032.003906-32.089844-9.886719-38.960938-25.25s-4.070312-33.332031 7.152344-45.875c7.234375-8.09375 13.773437-16.789063 19.542968-25.984375 1.585938-2.652344 4.480469-4.238281 7.566407-4.148438 3.085937.089844 5.886719 1.839844 7.316406 4.578126 1.429687 2.734374 1.269531 6.03125-.417969 8.617187-6.277344 10.007813-13.390625 19.472656-21.257812 28.285156-9.398438 10.554688-8.515625 26.714844 1.976562 36.183594 10.679688 9.015625 26.539063 8.140625 36.164063-1.992187 3.269531-3.679688 6.488281-7.480469 9.542969-11.359376 1.863281-2.464843 4.914062-3.730468 7.976562-3.308593 3.0625.425781 5.65625 2.46875 6.78125 5.347656s.605469 6.140625-1.359375 8.527344c-3.257813 4.136719-6.691406 8.191406-10.210937 12.160156-8.105469 9.035156-19.671876 14.207031-31.8125 14.21875zm0 0"/><path d="m409.613281 452.273438c-16.832031.007812-32.097656-9.882813-38.96875-25.25-6.871093-15.363282-4.066406-33.335938 7.160157-45.875 28.707031-32.089844 45.511718-73.070313 47.601562-116.074219.296875-4.675781 4.25-8.269531 8.933594-8.121094 4.707031.222656 8.339844 4.222656 8.113281 8.929687-2.28125 46.914063-20.609375 91.617188-51.914063 126.632813-9.386718 10.554687-8.5 26.703125 1.992188 36.164063 10.679688 9.011718 26.535156 8.136718 36.164062-1.992188 42.011719-47.046875 65.546876-107.722656 66.25-170.792969-.3125-31.070312-6.417968-61.804687-18.003906-90.632812-1.144531-2.84375-.671875-6.082031 1.230469-8.484375s4.949219-3.597656 7.976563-3.132813c3.03125.460938 5.578124 2.515625 6.675781 5.375 12.382812 30.890625 18.890625 63.824219 19.1875 97.105469-.757813 67.195312-25.84375 131.839844-70.605469 181.960938-8.109375 9.019531-19.664062 14.175781-31.792969 14.1875zm0 0"/><path d="m118.625 438.363281h-.082031c-1.703125 0-3.367188-.507812-4.777344-1.460937-90.160156-60.90625-127.808594-175.023438-91.585937-277.625 1.582031-4.441406 6.464843-6.757813 10.902343-5.179688 4.441407 1.582032 6.761719 6.464844 5.179688 10.90625-33.574219 95.136719 1.246093 200.949219 84.757812 257.558594 3.257813 1.980469 4.800781 5.886719 3.78125 9.5625-1.023437 3.671875-4.359375 6.222656-8.175781 6.238281zm0 0"/><path d="m45.488281 136.539062c-3.015625-.003906-5.804687-1.597656-7.335937-4.195312-1.535156-2.59375-1.582032-5.808594-.128906-8.449219 41.992187-76.410156 122.265624-123.89062475 209.457031-123.8867185 130.691406 0 196.40625 67.3124995 228.515625 123.7812495 2.210937 4.085938.75 9.183594-3.289063 11.480469-4.035156 2.292969-9.164062.941407-11.542969-3.046875-29.875-52.527344-91.191406-115.148437-213.683593-115.148437-80.96875 0-155.507813 44.089843-194.507813 115.042969-1.5 2.734374-4.367187 4.429687-7.484375 4.421874zm0 0"/><path d="m299.269531 471.984375c-4.335937-.007813-7.976562-3.269531-8.460937-7.582031-.484375-4.308594 2.34375-8.296875 6.570312-9.269532 22.992188-5.261718 44.984375-14.191406 65.132813-26.453124 4.308593-2.683594 8.691406-5.574219 12.917969-8.554688 2.488281-1.851562 5.785156-2.207031 8.609374-.929688 2.828126 1.273438 4.738282 3.984376 4.992188 7.074219.253906 3.09375-1.1875 6.078125-3.769531 7.796875-4.488281 3.171875-9.140625 6.246094-13.808594 9.152344-21.734375 13.230469-45.464844 22.871094-70.273437 28.550781-.625.144531-1.265626.21875-1.910157.214844zm0 0"/><path d="m102.414062 281.605469c-47.128906 0-85.335937-38.203125-85.335937-85.332031 0-47.128907 38.207031-85.332032 85.335937-85.332032 47.128907 0 85.332032 38.203125 85.332032 85.332032-.054688 47.105468-38.226563 85.28125-85.332032 85.332031zm0-153.597657c-37.703124 0-68.265624 30.5625-68.265624 68.265626 0 37.703124 30.5625 68.265624 68.265624 68.265624 37.703126 0 68.265626-30.5625 68.265626-68.265624-.042969-37.683594-30.582032-68.222657-68.265626-68.265626zm0 0"/><path d="m290.148438 281.605469c-47.128907 0-85.335938-38.203125-85.335938-85.332031 0-47.128907 38.207031-85.332032 85.335938-85.332032 47.125 0 85.332031 38.203125 85.332031 85.332032-.054688 47.105468-38.226563 85.28125-85.332031 85.332031zm0-153.597657c-37.703126 0-68.269532 30.5625-68.269532 68.265626 0 37.703124 30.566406 68.265624 68.269532 68.265624 37.699218 0 68.265624-30.5625 68.265624-68.265624-.042968-37.683594-30.582031-68.222657-68.265624-68.265626zm0 0"/><path d="m228.886719 158.554688c-3.277344.007812-6.269531-1.871094-7.691407-4.824219-3.925781-10.351563-13.84375-17.195313-24.917968-17.195313-11.070313 0-20.988282 6.84375-24.914063 17.195313-1.285156 2.8125-3.992187 4.710937-7.074219 4.960937-3.082031.25-6.054687-1.1875-7.777343-3.753906-1.722657-2.570312-1.917969-5.867188-.515625-8.625 6.78125-16.253906 22.667968-26.839844 40.28125-26.839844 17.613281 0 33.503906 10.585938 40.285156 26.839844 1.277344 2.644531 1.105469 5.757812-.453125 8.246094-1.558594 2.484375-4.289063 3.996094-7.222656 3.996094zm0 0"/><path d="m33.632812 170.671875h-8.019531c-6.828125.035156-13.378906-2.710937-18.140625-7.605469-4.820312-4.742187-7.5117185-11.234375-7.4609372-17.992187.015625-14.132813 11.4687502-25.585938 25.6015622-25.601563h41.726563c3.050781 0 5.867187 1.628906 7.390625 4.265625 1.523437 2.640625 1.523437 5.894531 0 8.535157-1.523438 2.640624-4.339844 4.265624-7.390625 4.265624h-41.726563c-4.710937.003907-8.527343 3.824219-8.535156 8.535157-.019531 2.222656.867187 4.359375 2.453125 5.917969 1.578125 1.671874 3.78125 2.617187 6.082031 2.613281h8.019531c4.714844 0 8.535157 3.820312 8.535157 8.535156 0 4.710937-3.820313 8.53125-8.535157 8.53125zm0 0"/><path d="m486.414062 170.671875h-127.488281c-4.714843 0-8.535156-3.820313-8.535156-8.53125 0-4.714844 3.820313-8.535156 8.535156-8.535156h127.488281c2.226563.019531 4.367188-.867188 5.925782-2.457031 1.667968-1.578126 2.613281-3.777344 2.605468-6.074219-.003906-4.710938-3.820312-8.53125-8.53125-8.535157h-161.195312c-4.714844 0-8.535156-3.820312-8.535156-8.53125 0-4.714843 3.820312-8.535156 8.535156-8.535156h161.195312c14.132813.015625 25.582032 11.46875 25.597657 25.601563-.070313 14.109375-11.488281 25.527343-25.597657 25.597656zm0 0"/><path d="m68.28125 179.207031c-3.453125 0-6.5625-2.082031-7.882812-5.269531-1.320313-3.1875-.589844-6.855469 1.847656-9.296875l8.535156-8.535156c3.347656-3.234375 8.667969-3.1875 11.960938.105469 3.292968 3.292968 3.339843 8.613281.105468 11.960937l-8.535156 8.535156c-1.597656 1.601563-3.769531 2.503907-6.03125 2.5zm0 0"/><path d="m68.28125 221.875c-3.453125-.003906-6.5625-2.082031-7.882812-5.269531-1.320313-3.1875-.589844-6.859375 1.847656-9.296875l51.199218-51.203125c3.351563-3.234375 8.671876-3.1875 11.964844.105469 3.289063 3.292968 3.335938 8.613281.101563 11.960937l-51.199219 51.203125c-1.597656 1.601562-3.769531 2.5-6.03125 2.5zm0 0"/><path d="m256.011719 179.207031c-3.449219 0-6.558594-2.082031-7.878907-5.269531-1.320312-3.1875-.59375-6.855469 1.847657-9.296875l8.53125-8.535156c3.351562-3.234375 8.671875-3.1875 11.964843.105469 3.289063 3.292968 3.335938 8.613281.101563 11.960937l-8.53125 8.535156c-1.597656 1.601563-3.769531 2.503907-6.035156 2.5zm0 0"/><path d="m256.011719 221.875c-3.449219-.003906-6.558594-2.082031-7.878907-5.269531-1.320312-3.1875-.59375-6.859375 1.847657-9.296875l51.199219-51.203125c3.347656-3.234375 8.671874-3.1875 11.960937.105469 3.292969 3.292968 3.339844 8.613281.105469 11.960937l-51.199219 51.203125c-1.597656 1.601562-3.769531 2.5-6.035156 2.5zm0 0"/><path d="m92.042969 118.421875c6.253906-19.335937 21.539062-34.414063 40.960937-40.402344 9.910156-3.117187 20.507813-3.320312 30.53125-.585937 4.84375 1.191406 9.519532 2.996094 13.910156 5.363281 4.1875 2.433594 8.15625 5.21875 11.867188 8.332031 1.140625.910156 1.515625 2.480469.90625 3.804688-.609375 1.328125-2.042969 2.070312-3.476562 1.796875l-.566407-.113281c-4.519531-.867188-8.597656-2.398438-12.777343-3.273438-4.0625-.894531-8.175782-1.515625-12.320313-1.847656-7.851563-.824219-15.785156-.042969-23.324219 2.300781-15.75 5.824219-30.082031 14.933594-42.039062 26.726563l-.15625.136718c-.894532.792969-2.269532.710938-3.0625-.1875-.488282-.5625-.660156-1.332031-.453125-2.050781zm0 0"/><path d="m330.976562 120.523438c-11.957031-11.792969-26.289062-20.902344-42.042968-26.722657-7.535156-2.34375-15.472656-3.128906-23.320313-2.304687-4.144531.335937-8.261719.953125-12.320312 1.847656-4.179688.875-8.257813 2.40625-12.777344 3.277344l-.5625.105468c-1.433594.277344-2.871094-.460937-3.484375-1.789062-.609375-1.328125-.234375-2.898438.910156-3.808594 3.710938-3.113281 7.679688-5.898437 11.867188-8.332031 4.390625-2.367187 9.0625-4.171875 13.910156-5.363281 10.023438-2.734375 20.621094-2.53125 30.53125.585937 19.421875 5.992188 34.707031 21.066407 40.960938 40.40625.273437.925781-.101563 1.917969-.914063 2.4375-.808594.519531-1.867187.441407-2.59375-.191406zm0 0"/><path d="m204.8125 401.074219c-47.105469-.054688-85.277344-38.226563-85.332031-85.335938v-8.53125c.011719-9.421875 7.644531-17.054687 17.066406-17.066406h136.53125c9.421875.011719 17.058594 7.644531 17.070313 17.066406v8.53125c-.054688 47.109375-38.230469 85.28125-85.335938 85.335938zm-68.265625-93.867188v8.53125c0 37.703125 30.5625 68.269531 68.265625 68.269531s68.265625-30.566406 68.265625-68.269531v-8.53125zm0 0"/><path d="m187.746094 399.195312c-4.710938 0-8.53125-3.820312-8.53125-8.53125v-15.191406c.03125-28.261718 22.933594-51.167968 51.199218-51.199218h49.320313c4.714844 0 8.535156 3.820312 8.535156 8.535156 0 4.710937-3.820312 8.53125-8.535156 8.53125h-49.320313c-18.84375.019531-34.113281 15.289062-34.132812 34.132812v15.191406c0 4.710938-3.820312 8.53125-8.535156 8.53125zm0 0"/></svg>