<svg height="512pt" viewBox="0 0 512 512.07384" width="512pt" xmlns="http://www.w3.org/2000/svg"><path d="m247.515625 8.605469c-101.269531-.015625-190.675781 66.113281-220.3125 162.949219-29.640625 96.839843 7.441406 201.675781 91.375 258.34375h.085937l69.121094 48.042968v8.53125c.027344 9.414063 7.652344 17.039063 17.066406 17.066406h145.066407c9.414062-.027343 17.039062-7.652343 17.066406-17.066406v-50.429687c.765625-.511719 1.535156-.941407 2.304687-1.453125 3.753907-2.386719 7.507813-4.863282 11.09375-7.421875.007813.089843.039063.175781.082032.253906 1.058594 2.222656 2.570312 4.203125 4.4375 5.804687.597656.597657 1.28125 1.277344 1.964844 1.875 1.257812 1.097657 2.597656 2.097657 4.007812 2.988282.6875.5625 1.429688 1.046875 2.21875 1.449218.800781.449219 1.628906.847657 2.476562 1.195313.691407.335937 1.402344.621094 2.132813.855469 1.109375.425781 2.21875.765625 3.328125 1.109375 2.8125.75 5.710938 1.121093 8.617188 1.109375 9.707031.011718 18.960937-4.117188 25.429687-11.351563 43.410156-48.574219 67.726563-111.242187 68.4375-176.382812 1.023437-76.800781-51.199219-247.46875-256-247.46875zm0 0" fill="#f0c419"/><path d="m503.515625 256.074219c-.710937 65.140625-25.027344 127.808593-68.4375 176.382812-6.46875 7.234375-15.722656 11.363281-25.429687 11.351563-2.90625.011718-5.804688-.359375-8.617188-1.109375-1.109375-.34375-2.21875-.683594-3.328125-1.109375-.730469-.234375-1.441406-.519532-2.132813-.855469-.847656-.347656-1.675781-.746094-2.476562-1.195313-.789062-.402343-1.53125-.886718-2.21875-1.449218-1.410156-.890625-2.75-1.890625-4.007812-2.988282-.683594-.597656-1.367188-1.277343-1.964844-1.875-1.867188-1.601562-3.378906-3.582031-4.4375-5.804687-.042969-.078125-.074219-.164063-.082032-.253906-3.585937 2.558593-7.339843 5.035156-11.09375 7.421875-.769531.511718-1.539062.941406-2.304687 1.453125-20.9375 12.726562-43.785156 22.003906-67.671875 27.476562h-.253906l-.339844-2.644531c-8.617188-20.691406-28.789062-34.210938-51.203125-34.304688h-8.53125c-20.351563.027344-38.765625 12.078126-46.933594 30.71875-.6875 1.617188-1.285156 3.269532-1.792969 4.949219-1.648437 5.042969-2.484374 10.3125-2.472656 15.617188v.085937l-69.121094-48.042968h-.085937c-83.933594-56.667969-121.015625-161.503907-91.375-258.34375 29.636719-96.835938 119.042969-162.964844 220.3125-162.949219 204.800781 0 257.023437 170.667969 256 247.46875zm0 0" fill="#ffdc00"/><path d="m192.050781 457.289062c-8.152343-18.652343-26.578125-30.703124-46.933593-30.695312h-8.535157c-28.292969.046875-51.207031 23.003906-51.199219 51.296875v8.550781c.019532 9.421875 7.644532 17.0625 17.066407 17.097656h145.066406zm0 0" fill="#3f51b5"/><path d="m366.984375 436.042969v50.429687c-.027344 9.414063-7.652344 17.039063-17.066406 17.066406h-145.066407c-9.414062-.027343-17.039062-7.652343-17.066406-17.066406v-8.617187c-.011718-5.304688.824219-10.574219 2.472656-15.617188.507813-1.679687 1.105469-3.332031 1.792969-4.949219 8.167969-18.640624 26.582031-30.691406 46.933594-30.71875h8.53125c22.414063.09375 42.585937 13.613282 51.203125 34.304688l.59375 2.644531c23.886719-5.472656 46.734375-14.75 67.671875-27.476562zm0 0" fill="#3f51b5"/><path d="m503.515625 256.074219c-.710937 65.140625-25.027344 127.808593-68.4375 176.382812-6.46875 7.234375-15.722656 11.363281-25.429687 11.351563-2.90625.011718-5.804688-.359375-8.617188-1.109375-1.109375-.34375-2.21875-.683594-3.328125-1.109375-.300781-.0625-.589844-.179688-.851563-.34375 4.847657-1.878906 9.179688-4.894532 12.628907-8.789063 43.40625-48.574219 67.722656-111.242187 68.4375-176.382812 1.023437-74.921875-48.726563-239.273438-241.496094-247.125 3.671875-.257813 7.339844-.34375 11.09375-.34375 204.800781 0 257.023437 170.667969 256 247.46875zm0 0" fill="#fec108"/><path d="m366.984375 436.042969v50.429687c-.027344 9.414063-7.652344 17.039063-17.066406 17.066406h-25.601563c9.414063-.027343 17.039063-7.652343 17.066406-17.066406v-37.035156c8.808594-3.917969 17.359376-8.390625 25.601563-13.394531zm0 0" fill="#283593"/><path d="m78.042969 395.082031c-3.15625 4.011719-6.484375 7.9375-9.898438 11.777344-12.605469 13.945313-34.113281 15.078125-48.113281 2.535156-14-12.546875-15.226562-34.050781-2.742188-48.105469 7.546876-8.453124 14.371094-17.53125 20.394532-27.136718zm0 0" fill="#ff9801"/><path d="m380.382812 427.167969c-3.585937 2.558593-7.339843 5.035156-11.09375 7.421875-13.527343-12.691406-14.472656-33.851563-2.136718-47.699219 26.3125-29.355469 43.144531-65.972656 48.292968-105.054687 1.207032-9.3125 9.132813-16.285157 18.523438-16.289063-2.128906 44.964844-19.699219 87.820313-49.746094 121.34375-9.945312 11.144531-11.5 27.453125-3.839844 40.277344zm0 0" fill="#fec108"/><path d="m380.464844 427.421875c1.300781 2.066406 2.785156 4.007813 4.4375 5.804687-1.867188-1.601562-3.378906-3.582031-4.4375-5.804687zm0 0" fill="#f0c419"/><path d="m366.984375 436.042969v17.066406c-15.941406 9.6875-33.011719 17.390625-50.824219 22.933594-3.960937 1.199219-8.253906.449219-11.578125-2.019531-3.320312-2.46875-5.273437-6.367188-5.269531-10.503907 23.886719-5.472656 46.734375-14.75 67.671875-27.476562zm0 0" fill="#283593"/><path d="m172.9375 211.699219c13.527344-11.632813 18.386719-30.453125 12.183594-47.183594s-22.160156-27.832031-40.003906-27.832031-33.800782 11.101562-40.003907 27.832031-1.34375 35.550781 12.183594 47.183594zm0 0" fill="#f5f5f5"/><path d="m162.152344 179.257812c0-14.148437-11.449219-25.617187-25.570313-25.617187-14.117187 0-25.566406 11.46875-25.566406 25.617187 0 14.148438 11.449219 25.617188 25.566406 25.617188 14.121094 0 25.570313-11.46875 25.570313-25.617188zm0 0" fill="#3f51b5"/><path d="m309.46875 211.699219c.855469-.640625 1.65625-1.355469 2.390625-2.132813 16.628906-16.671875 16.609375-43.667968-.050781-60.3125-16.660156-16.648437-43.65625-16.648437-60.316406 0-16.660157 16.644532-16.679688 43.640625-.050782 60.3125.734375.777344 1.535156 1.492188 2.390625 2.132813zm0 0" fill="#f5f5f5"/><path d="m298.683594 179.257812c-.011719 12.207032-8.644532 22.707032-20.617188 25.078126-11.976562 2.371093-23.960937-4.042969-28.625-15.324219-4.664062-11.28125-.710937-24.289063 9.445313-31.066407 10.152343-6.773437 23.679687-5.4375 32.308593 3.199219 4.804688 4.800781 7.5 11.320313 7.488282 18.113281zm0 0" fill="#3f51b5"/><path d="m145.117188 264.605469h136.53125c4.714843 0 8.535156 3.820312 8.535156 8.535156v8.535156c0 42.414063-34.382813 76.796875-76.800782 76.796875-42.414062 0-76.800781-34.382812-76.800781-76.796875v-8.535156c0-4.714844 3.820313-8.535156 8.535157-8.535156zm0 0" fill="#bb193b"/><path d="m470.40625 117.492188-61.011719 44.714843-44.117187-61.441406c-1.359375-1.871094-2.53125-3.871094-3.5-5.972656-8.089844-17.070313-2.976563-37.480469 12.203125-48.722657 16.609375-12.25 39.925781-9.199218 52.820312 6.910157 15.257813-10.046875 35.488281-7.902344 48.300781 5.121093v.085938c1.492188 1.394531 2.835938 2.9375 4.011719 4.605469 12.519531 17.550781 8.644531 41.902343-8.707031 54.699219zm0 0" fill="#bb193b"/><path d="m461.875 104.523438-61.015625 44.796874-39.082031-54.527343c-8.089844-17.070313-2.976563-37.480469 12.203125-48.722657 16.609375-12.25 39.925781-9.199218 52.820312 6.910157 15.257813-10.046875 35.488281-7.902344 48.300781 5.121093v.085938c6.691407 16.652344 1.25 35.722656-13.226562 46.335938zm0 0" fill="#ef314c"/><path d="m96.476562 68-27.050781 47.1875-14.761719-8.703125-32.171874-18.859375c-13.3125-7.910156-17.832032-25.035156-10.152344-38.484375 7.316406-12.902344 23.539062-17.695313 36.691406-10.835937 6.234375-9.644532 17.796875-14.40625 29.011719-11.949219 2.921875.570312 5.722656 1.636719 8.277343 3.160156 13.351563 7.882813 17.878907 25.039063 10.15625 38.484375zm0 0" fill="#bb193b"/><path d="m81.628906 59.464844-26.964844 47.019531-32.171874-18.859375c-13.3125-7.910156-17.832032-25.035156-10.152344-38.484375 7.316406-12.902344 23.539062-17.695313 36.691406-10.835937 6.234375-9.644532 17.796875-14.40625 29.011719-11.949219 8.230469 9.101562 9.675781 22.460937 3.585937 33.109375zm0 0" fill="#ef314c"/><path d="m288.304688 298.742188c-7.988282 34.945312-39.074219 59.726562-74.921876 59.730468-2.507812.03125-5.019531-.109375-7.507812-.425781-3.214844-.261719-6.410156-.746094-9.558594-1.449219v-15.191406c.007813-23.558594 19.105469-42.65625 42.667969-42.664062zm0 0" fill="#ad1457"/><path d="m273.117188 298.742188c-7.367188 32.148437-34.425782 56.011718-67.242188 59.304687-3.214844-.261719-6.410156-.746094-9.558594-1.449219v-15.191406c.007813-23.558594 19.105469-42.65625 42.667969-42.664062zm0 0" fill="#e91e63"/><g fill="#f5f5f5"><path d="m162.183594 170.742188c0 4.710937-3.820313 8.53125-8.535156 8.53125-4.710938 0-8.53125-3.820313-8.53125-8.53125 0-4.714844 3.820312-8.535157 8.53125-8.535157 4.714843 0 8.535156 3.820313 8.535156 8.535157zm0 0"/><path d="m298.71875 170.742188c0 4.710937-3.824219 8.53125-8.535156 8.53125-4.710938 0-8.535156-3.820313-8.535156-8.53125 0-4.714844 3.824218-8.535157 8.535156-8.535157 4.710937 0 8.535156 3.820313 8.535156 8.535157zm0 0"/><path d="m51.25 59.808594c0 9.425781-7.640625 17.066406-17.066406 17.066406-9.425782 0-17.066406-7.640625-17.066406-17.066406 0-9.425782 7.640624-17.066406 17.066406-17.066406 9.425781 0 17.066406 7.640624 17.066406 17.066406zm0 0"/><path d="m418.183594 64.074219c0 11.78125-9.550782 21.332031-21.332032 21.332031-11.785156 0-21.335937-9.550781-21.335937-21.332031s9.550781-21.332031 21.335937-21.332031c11.78125 0 21.332032 9.550781 21.332032 21.332031zm0 0"/></g><path d="m349.917969 512.074219h-145.066407c-14.132812-.015625-25.585937-11.46875-25.601562-25.601563v-8.617187c-.007812-6.207031.972656-12.378907 2.902344-18.28125.578125-1.902344 1.253906-3.773438 2.03125-5.601563 9.507812-21.800781 31.015625-35.90625 54.800781-35.9375h8.53125c26.035156.023438 49.460937 15.820313 59.234375 39.949219 1.59375 4.4375-.707031 9.328125-5.144531 10.921875s-9.328125-.707031-10.921875-5.144531c-7.355469-17.332031-24.339844-28.609375-43.167969-28.660157h-8.53125c-16.96875.019532-32.316406 10.070313-39.117187 25.613282-.546876 1.292968-1.027344 2.613281-1.433594 3.957031-1.402344 4.253906-2.117188 8.703125-2.117188 13.183594v8.617187c.003906 4.710938 3.824219 8.53125 8.535156 8.535156h145.066407c4.710937-.003906 8.527343-3.824218 8.53125-8.535156v-50.429687c0-4.714844 3.820312-8.535157 8.535156-8.535157 4.710937 0 8.53125 3.820313 8.53125 8.535157v50.429687c-.015625 14.132813-11.464844 25.585938-25.597656 25.601563zm0 0"/><path d="m247.515625 512.074219h-145.066406c-14.140625-.027344-25.59375-11.492188-25.597657-25.632813v-8.550781c.011719-33 26.730469-59.765625 59.730469-59.828125h8.535157c23.757812-.027344 45.265624 14.042969 54.757812 35.820312 1.878906 4.320313-.097656 9.347657-4.421875 11.230469-4.320313 1.878907-9.347656-.101562-11.226563-4.421875-6.785156-15.546875-22.148437-25.589844-39.109374-25.5625h-8.535157c-23.578125.054688-42.664062 19.183594-42.664062 42.761719v8.550781c-.007813 4.71875 3.8125 8.554688 8.53125 8.566406h145.066406c4.714844 0 8.535156 3.820313 8.535156 8.53125 0 4.714844-3.820312 8.535157-8.535156 8.535157zm0 0"/><path d="m42.71875 426.742188c-16.832031 0-32.09375-9.890626-38.964844-25.253907s-4.066406-33.332031 7.15625-45.875c7.234375-8.09375 13.769532-16.789062 19.539063-25.984375 1.585937-2.652344 4.480469-4.234375 7.570312-4.148437 3.085938.089843 5.882813 1.839843 7.3125 4.578125 1.433594 2.734375 1.273438 6.03125-.414062 8.617187-6.28125 10.011719-13.390625 19.472657-21.257813 28.289063-9.402344 10.550781-8.519531 26.714844 1.972656 36.179687 10.683594 9.015625 26.539063 8.144531 36.167969-1.992187 3.265625-3.679688 6.484375-7.476563 9.542969-11.359375 1.863281-2.464844 4.914062-3.730469 7.972656-3.304688 3.0625.421875 5.65625 2.464844 6.78125 5.34375 1.125 2.878907.605469 6.144531-1.359375 8.53125-3.257812 4.136719-6.691406 8.191407-10.207031 12.15625-8.109375 9.039063-19.671875 14.207031-31.8125 14.222657zm0 0"/><path d="m409.648438 452.339844c-16.828126.003906-32.089844-9.886719-38.960938-25.25-6.871094-15.363282-4.066406-33.332032 7.15625-45.875 28.703125-32.089844 45.511719-73.070313 47.597656-116.074219.339844-4.65625 4.269532-8.226563 8.933594-8.121094 4.707031.226563 8.339844 4.222657 8.117188 8.929688-2.28125 46.914062-20.613282 91.621093-51.917969 126.632812-9.386719 10.554688-8.496094 26.707031 1.992187 36.164063 10.683594 9.011718 26.539063 8.136718 36.167969-1.992188 42.007813-47.046875 65.546875-107.722656 66.25-170.792968-.765625-45.859376-13.675781-90.699219-37.417969-129.945313-1.695312-2.609375-1.835937-5.933594-.367187-8.675781 1.46875-2.742188 4.3125-4.46875 7.425781-4.503906 3.109375-.039063 5.992188 1.621093 7.523438 4.328124 25.363281 41.996094 39.132812 89.964844 39.902343 139.019532-.757812 67.199218-25.84375 131.847656-70.609375 181.96875-8.105468 9.019531-19.664062 14.179687-31.792968 14.1875zm0 0"/><path d="m98.609375 71.925781c-3.574219 0-6.769531-2.230469-8.007813-5.585937-1.234374-3.355469-.246093-7.125 2.476563-9.445313 43.105469-36.664062 97.847656-56.8046872 154.4375-56.8203122 48.632813-1.1210938 96.714844 10.5000002 139.46875 33.7070312 2.652344 1.503906 4.300781 4.3125 4.320313 7.363281.023437 3.050781-1.585938 5.878907-4.214844 7.421875-2.632813 1.546875-5.886719 1.570313-8.539063.0625-40.1875-21.738281-85.359375-32.59375-131.035156-31.488281-52.535156.011719-103.355469 18.707031-143.375 52.746094-1.539063 1.316406-3.503906 2.039062-5.53125 2.039062zm0 0"/><path d="m118.664062 438.429688c-1.730468 0-3.421874-.507813-4.863281-1.460938-52.84375-35.652344-89.234375-90.953125-101.066406-153.589844-11.835937-62.632812 1.871094-127.398437 38.066406-179.871094 1.710938-2.566406 4.671875-4.011718 7.746094-3.78125 3.078125.234376 5.789063 2.109376 7.089844 4.90625 1.304687 2.796876.996093 6.078126-.804688 8.582032-33.5625 48.671875-46.292969 108.734375-35.359375 166.835937 10.933594 58.101563 44.621094 109.429688 93.578125 142.574219 3.261719 1.980469 4.808594 5.886719 3.785157 9.5625-1.019532 3.675781-4.355469 6.226562-8.171876 6.242188zm0 0"/><path d="m299.308594 472.050781c-4.339844-.007812-7.980469-3.269531-8.464844-7.578125-.484375-4.3125 2.34375-8.300781 6.574219-9.269531 22.988281-5.265625 44.984375-14.195313 65.132812-26.453125 4.308594-2.683594 8.691407-5.578125 12.914063-8.554688 2.488281-1.855468 5.785156-2.210937 8.613281-.933593 2.824219 1.277343 4.734375 3.984375 4.988281 7.074219.257813 3.09375-1.1875 6.078124-3.765625 7.800781-4.492187 3.167969-9.140625 6.246093-13.808593 9.148437-21.738282 13.234375-45.46875 22.875-70.273438 28.550782-.628906.144531-1.269531.21875-1.910156.214843zm0 0"/><path d="m172.9375 220.234375c-3.570312 0-6.765625-2.222656-8.003906-5.570313-1.242188-3.347656-.265625-7.113281 2.441406-9.4375 10.824219-9.308593 14.710938-24.367187 9.746094-37.75-4.964844-13.382812-17.730469-22.261718-32.003906-22.261718-14.273438 0-27.039063 8.878906-32 22.261718-4.964844 13.382813-1.078126 28.441407 9.742187 37.75 3.578125 3.070313 3.988281 8.457032.917969 12.035157-3.066406 3.578125-8.457032 3.988281-12.035156.917969-16.238282-13.957032-22.074219-36.546876-14.632813-56.625 7.445313-20.078126 26.597656-33.402344 48.007813-33.402344 21.414062 0 40.566406 13.324218 48.007812 33.402344 7.445312 20.078124 1.605469 42.667968-14.632812 56.625-1.546876 1.328124-3.519532 2.058593-5.554688 2.054687zm0 0"/><path d="m92.078125 118.492188c6.257813-19.339844 21.539063-34.414063 40.960937-40.40625 9.910157-3.117188 20.511719-3.320313 30.535157-.585938 4.84375 1.191406 9.515625 2.996094 13.90625 5.363281 4.1875 2.433594 8.160156 5.21875 11.867187 8.332031 1.144532.910157 1.519532 2.480469.910156 3.808594-.609374 1.324219-2.042968 2.066406-3.480468 1.792969l-.566406-.109375c-4.515626-.871094-8.59375-2.402344-12.777344-3.277344-4.058594-.894531-8.175782-1.511718-12.320313-1.847656-7.847656-.824219-15.78125-.039062-23.320312 2.304688-15.75 5.820312-30.082031 14.929687-42.042969 26.722656l-.152344.136718c-.726562.640626-1.785156.722657-2.601562.207032-.816406-.519532-1.191406-1.515625-.917969-2.445313zm0 0"/><path d="m331.011719 120.589844c-11.957031-11.789063-26.289063-20.898438-42.039063-26.722656-7.539062-2.34375-15.472656-3.128907-23.324218-2.304688-4.144532.335938-8.257813.953125-12.316407 1.847656-4.183593.878906-8.261719 2.40625-12.78125 3.277344l-.5625.105469c-1.433593.277343-2.871093-.460938-3.480469-1.789063-.609374-1.324218-.234374-2.898437.90625-3.808594 3.710938-3.109374 7.679688-5.898437 11.867188-8.332031 4.390625-2.367187 9.066406-4.167969 13.910156-5.363281 10.023438-2.734375 20.621094-2.527344 30.535156.589844 19.417969 5.988281 34.703126 21.066406 40.957032 40.402344.273437.925781-.097656 1.917968-.910156 2.4375-.8125.523437-1.871094.441406-2.597657-.191407zm0 0"/><path d="m309.476562 220.234375c-3.734374.003906-7.035156-2.417969-8.148437-5.980469-1.117187-3.558594.207031-7.433594 3.273437-9.5625.433594-.347656.835938-.726562 1.207032-1.140625 13.292968-13.375 13.300781-34.972656.015625-48.359375-13.507813-12.960937-34.835938-12.964844-48.347657-.003906-13.277343 13.378906-13.277343 34.964844 0 48.34375.375.421875.78125.808594 1.222657 1.160156 3.757812 2.730469 4.644531 7.960938 1.996093 11.773438-2.648437 3.8125-7.859374 4.808594-11.726562 2.242187-1.285156-.929687-2.480469-1.976562-3.574219-3.125-19.953125-20.011719-19.917969-52.40625.082031-72.375 19.996094-19.96875 52.390626-19.960937 72.375.019531 19.984376 19.980469 20.003907 52.375.042969 72.375-1.09375 1.140626-2.28125 2.179688-3.558593 3.105469-1.425782.996094-3.125 1.527344-4.859376 1.527344zm0 0"/><path d="m187.785156 230.472656c-2.265625.003906-4.4375-.894531-6.035156-2.5-10.101562-9.035156-23.082031-14.199218-36.632812-14.566406-13.566407.289062-26.574219 5.460938-36.632813 14.566406-3.347656 3.234375-8.671875 3.1875-11.964844-.101562-3.289062-3.292969-3.335937-8.617188-.101562-11.964844 13.285156-12.269531 30.617187-19.234375 48.699219-19.566406 18.082031.332031 35.414062 7.296875 48.699218 19.566406 2.441406 2.441406 3.167969 6.113281 1.847656 9.300781-1.320312 3.1875-4.429687 5.265625-7.878906 5.265625zm0 0"/><path d="m324.316406 230.472656c-2.261718.003906-4.433594-.894531-6.03125-2.5-10.105468-9.035156-23.085937-14.199218-36.636718-14.566406-13.5625.289062-26.570313 5.460938-36.632813 14.566406-3.347656 3.234375-8.667969 3.1875-11.960937-.101562-3.292969-3.292969-3.339844-8.617188-.105469-11.964844 27.226562-26.089844 70.175781-26.089844 97.402343 0 2.4375 2.441406 3.167969 6.113281 1.847657 9.300781-1.320313 3.1875-4.429688 5.265625-7.882813 5.265625zm0 0"/><path d="m213.382812 367.007812c-47.105468-.054687-85.277343-38.226562-85.332031-85.332031v-8.535156c.011719-9.421875 7.644531-17.054687 17.066407-17.066406h136.53125c9.421874.011719 17.058593 7.644531 17.070312 17.066406v8.535156c-.054688 47.105469-38.230469 85.277344-85.335938 85.332031zm-68.265624-93.867187v8.535156c0 37.699219 30.5625 68.265625 68.265624 68.265625 37.703126 0 68.265626-30.566406 68.265626-68.265625v-8.535156zm0 0"/><path d="m196.316406 365.128906c-4.710937 0-8.53125-3.820312-8.53125-8.53125v-15.191406c.03125-28.261719 22.933594-51.167969 51.199219-51.199219h49.320313c4.714843 0 8.535156 3.820313 8.535156 8.535157 0 4.710937-3.820313 8.53125-8.535156 8.53125h-49.320313c-18.84375.019531-34.113281 15.289062-34.132813 34.132812v15.191406c0 4.710938-3.820312 8.53125-8.535156 8.53125zm0 0"/><path d="m409.398438 170.742188c-2.75.003906-5.332032-1.324219-6.929688-3.558594l-44.085938-61.472656c-15.214843-21.347657-10.5-50.949219 10.59375-66.515626 18.042969-13.289062 42.960938-11.980468 59.515626 3.125 20.421874-9.234374 44.527343-2.734374 57.542968 15.511719 15.210938 21.347657 10.503906 50.945313-10.582031 66.515625l-61 44.738282c-1.464844 1.074218-3.234375 1.65625-5.054687 1.65625zm-12.566407-123.621094c-6.394531 0-12.625 2.046875-17.773437 5.839844-13.566406 10.019531-16.59375 29.066406-6.808594 42.800781l39.058594 54.460937 54.042968-39.636718c13.578126-10.011719 16.609376-29.066407 6.816407-42.804688-9.3125-13.0625-27.273438-16.449219-40.703125-7.679688-3.675782 2.402344-8.570313 1.625-11.316406-1.800781-5.667969-7.074219-14.25-11.191406-23.316407-11.179687zm0 0"/><path d="m69.433594 123.730469c-1.519532 0-3.015625-.40625-4.324219-1.175781l-46.910156-27.582032c-17.347657-10.273437-23.253907-32.5625-13.273438-50.082031 8.269531-14.484375 25.371094-21.4375 41.398438-16.828125 11.640625-11.949219 29.941406-14.382812 44.300781-5.894531 17.355469 10.273437 23.269531 32.566406 13.285156 50.089843l-27.078125 47.191407c-1.132812 1.976562-3.011719 3.417969-5.214843 4.003906-.714844.183594-1.445313.277344-2.183594.277344zm-33.082032-80.003907c-6.875.003907-13.21875 3.691407-16.625 9.660157-5.359374 9.402343-2.1875 21.363281 7.125 26.875l39.472657 23.210937 22.785156-39.707031c5.355469-9.40625 2.179687-21.367187-7.132813-26.882813-8.824218-5.226562-20.207031-2.558593-25.785156 6.050782-2.390625 3.675781-7.175781 4.945312-11.074218 2.9375-2.707032-1.40625-5.714844-2.140625-8.765626-2.144532zm0 0"/></svg>