<svg height="512pt" viewBox="0 0 512.01196 512" width="512pt" xmlns="http://www.w3.org/2000/svg"><path d="m78.007812 395.015625c-3.160156 4.007813-6.488281 7.933594-9.898437 11.773437-12.605469 13.949219-34.113281 15.082032-48.117187 2.535157-14-12.542969-15.226563-34.046875-2.742188-48.101563 7.550781-8.457031 14.371094-17.535156 20.394531-27.136718zm0 0" fill="#ff9801"/><path d="m247.480469 8.539062c-101.273438-.015624-190.679688 66.109376-220.316407 162.949219-29.636718 96.835938 7.441407 201.675781 91.375 258.339844h.085938l69.121094 48.042969v8.535156c.027344 9.414062 7.652344 17.039062 17.066406 17.066406h145.066406c9.414063-.027344 17.039063-7.652344 17.066406-17.066406v-50.433594c.769532-.511718 1.535157-.9375 2.304688-1.449218 3.753906-2.390626 7.507812-4.863282 11.09375-7.425782.007812.09375.039062.179688.085938.257813 1.054687 2.222656 2.566406 4.199219 4.4375 5.800781.59375.597656 1.277343 1.28125 1.960937 1.878906 1.257813 1.097656 2.597656 2.09375 4.011719 2.988282.683594.558593 1.429687 1.046874 2.21875 1.449218.796875.449219 1.625.847656 2.472656 1.195313.691406.335937 1.402344.621093 2.132812.851562 1.109376.429688 2.21875.769531 3.328126 1.109375 2.8125.753906 5.710937 1.125 8.621093 1.109375 9.707031.015625 18.957031-4.113281 25.429688-11.347656 43.40625-48.574219 67.722656-111.246094 68.4375-176.382813 1.023437-76.800781-51.203125-247.46875-256-247.46875zm0 0" fill="#f0c419"/><path d="m503.480469 256.007812c-.714844 65.136719-25.03125 127.808594-68.4375 176.382813-6.472657 7.234375-15.722657 11.363281-25.429688 11.347656-2.910156.015625-5.808593-.355469-8.621093-1.109375-1.109376-.339844-2.21875-.679687-3.328126-1.109375-.730468-.230469-1.441406-.515625-2.132812-.851562-.847656-.347657-1.675781-.746094-2.472656-1.195313-.789063-.402344-1.535156-.890625-2.21875-1.449218-1.414063-.894532-2.753906-1.890626-4.011719-2.988282-.683594-.597656-1.367187-1.28125-1.960937-1.878906-1.871094-1.601562-3.382813-3.578125-4.4375-5.800781-.046876-.078125-.078126-.164063-.085938-.257813-3.585938 2.5625-7.339844 5.035156-11.09375 7.425782-.769531.511718-1.535156.9375-2.304688 1.449218-20.9375 12.730469-43.785156 22.007813-67.667968 27.480469h-.257813l-.339843-2.648437c-8.613282-20.691407-28.789063-34.207032-51.199219-34.300782h-8.535157c-20.351562.027344-38.761718 12.078125-46.933593 30.71875-.6875 1.617188-1.285157 3.269532-1.792969 4.949219-1.648438 5.039063-2.484375 10.3125-2.472656 15.617187v.082032l-69.121094-48.042969h-.085938c-83.933593-56.664063-121.011718-161.503906-91.375-258.339844 29.636719-96.839843 119.042969-162.964843 220.316407-162.949219 204.796875 0 257.023437 170.667969 256 247.46875zm0 0" fill="#ffdc00"/><path d="m380.34375 427.097656c-3.585938 2.5625-7.339844 5.035156-11.09375 7.425782-13.523438-12.691407-14.472656-33.851563-2.132812-47.703126 26.308593-29.351562 43.140624-65.96875 48.289062-105.050781 1.207031-9.3125 9.136719-16.285156 18.527344-16.292969-2.132813 44.96875-19.703125 87.824219-49.75 121.34375-9.945313 11.144532-11.5 27.457032-3.839844 40.277344zm0 0" fill="#fec108"/><path d="m192.011719 457.222656c-8.152344-18.652344-26.578125-30.703125-46.933594-30.695312h-8.53125c-28.296875.046875-51.207031 23-51.203125 51.296875v8.550781c.019531 9.421875 7.644531 17.0625 17.066406 17.097656h145.070313zm0 0" fill="#3f51b5"/><path d="m366.945312 435.972656v50.433594c-.027343 9.414062-7.652343 17.039062-17.066406 17.066406h-145.066406c-9.414062-.027344-17.039062-7.652344-17.066406-17.066406v-8.617188c-.011719-5.304687.824218-10.578124 2.472656-15.617187.507812-1.679687 1.105469-3.332031 1.792969-4.949219 8.171875-18.640625 26.582031-30.691406 46.933593-30.71875h8.535157c22.410156.09375 42.585937 13.609375 51.199219 34.300782l.597656 2.648437c23.882812-5.472656 46.730468-14.75 67.667968-27.480469zm0 0" fill="#3f51b5"/><path d="m380.429688 427.355469c1.296874 2.066406 2.785156 4.007812 4.4375 5.800781-1.871094-1.601562-3.382813-3.578125-4.4375-5.800781zm0 0" fill="#f0c419"/><path d="m366.945312 435.972656v17.066406c-15.941406 9.691407-33.011718 17.394532-50.824218 22.9375-3.960938 1.199219-8.253906.449219-11.574219-2.019531-3.324219-2.46875-5.277344-6.367187-5.269531-10.503906 23.882812-5.472656 46.730468-14.75 67.667968-27.480469zm0 0" fill="#283593"/><path d="m187.746094 179.285156c0-23.605468-19.101563-42.746094-42.667969-42.746094-23.5625 0-42.667969 19.140626-42.667969 42.746094 0 23.609375 19.105469 42.75 42.667969 42.75 23.566406 0 42.667969-19.140625 42.667969-42.75zm0 0" fill="#f5f5f5"/><path d="m179.164062 170.671875c0-14.136719-11.441406-25.597656-25.550781-25.597656-14.113281 0-25.550781 11.460937-25.550781 25.597656 0 14.140625 11.4375 25.601563 25.550781 25.601563 14.109375 0 25.550781-11.460938 25.550781-25.601563zm0 0" fill="#3f51b5"/><path d="m324.277344 179.292969c-.019532 20.371093-14.425782 37.890625-34.40625 41.851562-19.984375 3.957031-39.984375-6.75-47.765625-25.578125-7.785157-18.824218-1.1875-40.527344 15.757812-51.835937 16.945313-11.3125 39.519531-9.078125 53.917969 5.332031 8.015625 8.015625 12.515625 18.894531 12.496094 30.230469zm0 0" fill="#f5f5f5"/><path d="m315.710938 170.65625c-.007813 12.207031-8.640626 22.707031-20.617188 25.078125-11.976562 2.375-23.957031-4.042969-28.621094-15.324219-4.664062-11.28125-.710937-24.289062 9.441406-31.0625 10.152344-6.777344 23.679688-5.441406 32.308594 3.195313 4.804688 4.800781 7.5 11.320312 7.488282 18.113281zm0 0" fill="#3f51b5"/><path d="m145.078125 179.207031c0 4.710938-3.820313 8.53125-8.53125 8.53125-4.714844 0-8.535156-3.820312-8.535156-8.53125 0-4.714843 3.820312-8.535156 8.535156-8.535156 4.710937 0 8.53125 3.820313 8.53125 8.535156zm0 0" fill="#f5f5f5"/><path d="m281.613281 179.207031c0 4.710938-3.820312 8.53125-8.535156 8.53125-4.710937 0-8.53125-3.820312-8.53125-8.53125 0-4.714843 3.820313-8.535156 8.53125-8.535156 4.714844 0 8.535156 3.820313 8.535156 8.535156zm0 0" fill="#f5f5f5"/><path d="m366.945312 435.972656v50.433594c-.027343 9.414062-7.652343 17.039062-17.066406 17.066406h-25.601562c9.414062-.027344 17.039062-7.652344 17.066406-17.066406v-37.035156c8.808594-3.917969 17.359375-8.394532 25.601562-13.398438zm0 0" fill="#283593"/><path d="m503.480469 256.007812c-.714844 65.136719-25.03125 127.808594-68.4375 176.382813-6.472657 7.234375-15.722657 11.363281-25.429688 11.347656-2.910156.015625-5.808593-.355469-8.621093-1.109375-1.109376-.339844-2.21875-.679687-3.328126-1.109375-.300781-.058593-.589843-.175781-.851562-.339843 4.851562-1.878907 9.179688-4.894532 12.628906-8.789063 43.410156-48.574219 67.722656-111.246094 68.4375-176.382813 1.023438-74.925781-48.726562-239.277343-241.492187-247.128906 3.667969-.253906 7.335937-.339844 11.09375-.339844 204.796875 0 257.023437 170.667969 256 247.46875zm0 0" fill="#fec108"/><path d="m349.878906 512.007812h-145.066406c-14.132812-.015624-25.585938-11.46875-25.601562-25.601562v-8.617188c-.003907-6.207031.972656-12.375 2.902343-18.273437.578125-1.90625 1.257813-3.777344 2.039063-5.613281 9.503906-21.796875 31.011718-35.902344 54.792968-35.933594h8.535157c26.03125.015625 49.457031 15.816406 59.226562 39.949219 1.519531 4.414062-.789062 9.226562-5.179687 10.804687-4.390625 1.582032-9.238282-.660156-10.878906-5.027344-7.355469-17.332031-24.339844-28.609374-43.167969-28.660156h-8.535157c-16.96875.019532-32.320312 10.070313-39.121093 25.617188-.546875 1.296875-1.023438 2.621094-1.429688 3.96875-1.402343 4.25-2.113281 8.695312-2.117187 13.167968v8.617188c.007812 4.710938 3.824218 8.527344 8.535156 8.53125h145.066406c4.710938-.003906 8.527344-3.820312 8.53125-8.53125v-50.433594c0-4.710937 3.824219-8.53125 8.535156-8.53125 4.710938 0 8.535157 3.820313 8.535157 8.53125v50.433594c-.015625 14.132812-11.46875 25.585938-25.601563 25.601562zm0 0"/><path d="m247.480469 512.007812h-145.070313c-14.140625-.027343-25.589844-11.496093-25.597656-25.636718v-8.546875c.007812-33.003907 26.730469-59.769531 59.734375-59.832031h8.53125c23.757813-.023438 45.265625 14.046874 54.757813 35.824218 1.21875 2.792969.847656 6.027344-.964844 8.476563-1.8125 2.453125-4.792969 3.75-7.824219 3.402343-3.027344-.34375-5.644531-2.277343-6.859375-5.074218-6.785156-15.546875-22.144531-25.585938-39.109375-25.5625h-8.53125c-23.582031.054687-42.667969 19.183594-42.667969 42.765625v8.546875c-.003906 4.722656 3.8125 8.554687 8.53125 8.566406h145.070313c4.710937 0 8.53125 3.824219 8.53125 8.535156 0 4.710938-3.820313 8.535156-8.53125 8.535156zm0 0"/><path d="m42.679688 426.671875c-16.832032.003906-32.09375-9.886719-38.964844-25.25-6.867188-15.367187-4.0625-33.335937 7.164062-45.875 7.226563-8.097656 13.761719-16.789063 19.527344-25.984375 2.5-3.996094 7.765625-5.210938 11.761719-2.714844 3.996093 2.5 5.210937 7.765625 2.714843 11.761719-6.28125 10.007813-13.394531 19.46875-21.257812 28.285156-9.402344 10.550781-8.527344 26.710938 1.960938 36.183594 10.683593 9.015625 26.539062 8.140625 36.167968-1.992187 3.273438-3.683594 6.492188-7.480469 9.546875-11.359376 2.917969-3.703124 8.285157-4.339843 11.984375-1.421874 3.703125 2.917968 4.339844 8.285156 1.421875 11.988281-3.261719 4.136719-6.703125 8.199219-10.226562 12.164062-8.105469 9.035157-19.664063 14.199219-31.800781 14.214844zm0 0"/><path d="m409.613281 452.273438c-16.832031.003906-32.09375-9.886719-38.964843-25.253907-6.867188-15.363281-4.0625-33.332031 7.164062-45.871093 28.699219-32.09375 45.503906-73.074219 47.59375-116.074219.3125-4.667969 4.257812-8.253907 8.929688-8.121094 2.261718.105469 4.386718 1.105469 5.910156 2.78125 1.523437 1.675781 2.320312 3.886719 2.210937 6.144531-2.28125 46.917969-20.613281 91.621094-51.921875 126.636719-9.386718 10.550781-8.496094 26.703125 1.988282 36.164063 10.683593 9.011718 26.539062 8.140624 36.167968-1.992188 42.003906-47.050781 65.542969-107.726562 66.253906-170.792969-1.121093-63.945312-26.054687-125.171875-69.925781-171.710937-43.9375-44.53125-103.675781-67.109375-177.539062-67.109375-97.460938-.015625-183.511719 63.578125-212.105469 156.746093-28.59375 93.167969 6.96875 194.085938 87.65625 248.746094 3.253906 1.984375 4.792969 5.890625 3.769531 9.5625-1.023437 3.671875-4.363281 6.21875-8.175781 6.234375h-.085938c-1.699218 0-3.363281-.507812-4.773437-1.460937-87.042969-58.769532-125.496094-167.488282-94.761719-267.914063 30.734375-100.421875 123.453125-168.9960935 228.476563-168.9804685 78.601562 0 142.417969 24.2851565 189.695312 72.1914065 47.363281 49.597656 74.117188 115.339843 74.835938 183.917969-.769531 67.199218-25.855469 131.84375-70.617188 181.96875-8.105469 9.019531-19.65625 14.175781-31.78125 14.1875zm0 0"/><path d="m299.265625 471.984375c-4.339844-.003906-7.984375-3.265625-8.46875-7.578125s2.34375-8.300781 6.574219-9.273438c22.996094-5.261718 44.992187-14.191406 65.144531-26.453124 4.300781-2.679688 8.683594-5.570313 12.902344-8.550782 3.84375-2.605468 9.070312-1.65625 11.753906 2.140625 2.683594 3.792969 1.835937 9.035157-1.90625 11.792969-4.484375 3.171875-9.148437 6.246094-13.808594 9.152344-21.738281 13.234375-45.46875 22.875-70.277343 28.554687-.628907.144531-1.269532.214844-1.914063.214844zm0 0"/><path d="m145.078125 230.566406c-20.75.035156-39.476563-12.4375-47.441406-31.597656-7.964844-19.160156-3.597657-41.234375 11.0625-55.917969 14.660156-14.6875 36.726562-19.089843 55.898437-11.15625 19.175782 7.933594 31.679688 26.636719 31.679688 47.386719-.003906 28.289062-22.910156 51.234375-51.199219 51.285156zm0-85.492187c-13.847656-.035157-26.351563 8.28125-31.675781 21.0625-5.320313 12.785156-2.414063 27.519531 7.367187 37.324219 9.78125 9.800781 24.507813 12.742187 37.304688 7.449218 12.796875-5.292968 21.140625-17.777344 21.136719-31.625.003906-18.863281-15.265626-34.171875-34.132813-34.210937zm0 0"/><path d="m94.441406 93.355469c15.140625 1.742187 30.433594 1.78125 45.582032.105469 7.457031-.949219 14.882812-2.292969 22.425781-3.9375l11.398437-2.652344c3.828125-.964844 7.648438-2.070313 11.757813-2.765625l.28125-.046875c1.4375-.242188 2.859375.507812 3.472656 1.828125.613281 1.324219.265625 2.894531-.847656 3.835937-3.25 2.734375-6.675781 5.257813-10.253907 7.550782-3.660156 2.1875-7.460937 4.132812-11.378906 5.820312-7.949218 3.414062-16.34375 5.679688-24.929687 6.734375-8.695313 1.082031-17.511719.671875-26.066407-1.21875-8.703124-1.734375-16.804687-5.71875-23.492187-11.550781-.691406-.636719-.890625-1.644532-.5-2.496094s1.285156-1.355469 2.214844-1.246094zm0 0"/><path d="m331.160156 103.726562c-6.902344-4.125-14.207031-7.542968-21.796875-10.195312-7.144531-2.441406-14.566406-3.957031-22.09375-4.511719-7.65625-.292969-15.324219.273438-22.855469 1.695313-3.894531.59375-7.730468 1.835937-11.761718 2.601562-3.933594 1.121094-7.871094 2.417969-12.136719 3.304688l-.382813.078125c-1.429687.296875-2.882812-.410157-3.53125-1.71875-.648437-1.308594-.328124-2.894531.773438-3.851563 3.410156-2.949218 7.007812-5.679687 10.765625-8.171875 3.949219-2.324219 8.082031-4.320312 12.359375-5.972656 8.847656-3.375 18.300781-4.878906 27.757812-4.417969 9.605469.515625 18.9375 3.378906 27.179688 8.332032 8.1875 4.710937 14.808594 11.730468 19.027344 20.183593.40625.855469.210937 1.875-.484375 2.515625-.695313.644532-1.726563.761719-2.546875.289063zm0 0"/><path d="m281.613281 230.566406c-24.445312.015625-45.492187-17.234375-50.277343-41.207031-4.785157-23.96875 8.03125-47.980469 30.609374-57.347656 22.578126-9.367188 48.625-1.480469 62.214844 18.835937 13.59375 20.316406 10.9375 47.402344-6.335937 64.695313-9.574219 9.648437-22.617188 15.0625-36.210938 15.023437zm0-85.492187c-16.308593-.023438-30.363281 11.480469-33.558593 27.472656-3.199219 15.992187 5.347656 32.015625 20.410156 38.269531s32.441406.992188 41.511718-12.5625c9.066407-13.554687 7.292969-31.628906-4.234374-43.164062-6.378907-6.433594-15.070313-10.042969-24.128907-10.015625zm0 0"/><path d="m273.078125 307.207031c-4.710937 0-8.53125-3.820312-8.53125-8.535156v-8.53125c-.007813-4.710937-3.824219-8.527344-8.535156-8.535156h-102.398438c-4.714843 0-8.535156-3.820313-8.535156-8.53125 0-4.714844 3.820313-8.535157 8.535156-8.535157h102.398438c14.132812.015626 25.585937 11.46875 25.601562 25.601563v8.53125c0 4.714844-3.820312 8.535156-8.535156 8.535156zm0 0"/><path d="m196.277344 315.738281h-8.53125c-4.714844 0-8.535156-3.820312-8.535156-8.53125 0-4.714843 3.820312-8.535156 8.535156-8.535156h8.53125c4.714844 0 8.535156 3.820313 8.535156 8.535156 0 4.710938-3.820312 8.53125-8.535156 8.53125zm0 0"/></svg>