<svg height="512pt" viewBox="0 0 512.01808 512" width="512pt" xmlns="http://www.w3.org/2000/svg"><path d="m39.949219 93.078125-30.378907 111.871094c-2.578124 10.207031-.300781 21.035156 6.167969 29.339843 6.472657 8.308594 16.414063 13.160157 26.941407 13.15625h34.304687l1.367187-34.132812h-35.671874l29.269531-108.03125zm0 0" fill="#ff5722"/><path d="m472.09375 93.078125 30.378906 111.871094c2.578125 10.207031.304688 21.035156-6.167968 29.339843-6.46875 8.308594-16.414063 13.160157-26.941407 13.15625h-34.304687l-1.363282-34.132812h35.667969l-29.269531-108.03125zm0 0" fill="#ff5722"/><path d="m435.230469 238.914062c.929687 65.34375-29.976563 127.0625-82.859375 165.460938l-97.28125 72.53125-12.714844-9.640625-82.6875-62.890625c-16.207031-11.371094-30.496094-25.257812-42.324219-41.132812l-22.613281-38.65625c-10.3125-23.449219-16.296875-48.574219-17.664062-74.152344-.171876-3.839844-.257813-7.679688-.257813-11.519532-.007813-8.5.507813-16.996093 1.539063-25.429687 10.835937-91.820313 79.613281-163.757813 164.863281-170.242187 4.265625-.425782 8.53125-.597657 12.800781-.597657 98.984375 0 179.199219 87.894531 179.199219 196.269531zm0 0" fill="#fec108"/><path d="m409.628906 238.914062c.929688 65.34375-29.976562 127.0625-82.859375 165.460938l-84.394531 62.890625-82.6875-62.890625c-16.207031-11.371094-30.496094-25.257812-42.324219-41.132812l-22.613281-38.65625c-10.3125-23.449219-16.296875-48.574219-17.664062-74.152344-.171876-3.839844-.257813-7.679688-.257813-11.519532-.007813-8.5.507813-16.996093 1.539063-25.429687 10.835937-91.820313 79.613281-163.757813 164.863281-170.242187 93.011719 7.082031 166.398437 91.988281 166.398437 195.671874zm0 0" fill="#ffdc00"/><path d="m256.03125 460.777344v25.601562c-.027344 9.414063-7.652344 17.039063-17.066406 17.066406h-102.402344c-9.414062-.027343-17.039062-7.652343-17.066406-17.066406v-25.601562c-.066406-31.339844 24.195312-57.359375 55.46875-59.476563 1.414062-.167969 2.839844-.253906 4.265625-.253906h17.066406c15.84375-.011719 31.046875 6.277344 42.25 17.480469 11.203125 11.207031 17.496094 26.40625 17.484375 42.25zm0 0" fill="#283593"/><path d="m230.429688 460.777344v25.601562c-.027344 9.414063-7.652344 17.039063-17.066407 17.066406h-76.800781c-9.414062-.027343-17.039062-7.652343-17.066406-17.066406v-25.601562c-.066406-31.339844 24.195312-57.359375 55.46875-59.476563 31.269531 2.117188 55.535156 28.136719 55.464844 59.476563zm0 0" fill="#3f51b5"/><path d="m392.5625 460.777344v25.601562c-.027344 9.414063-7.652344 17.039063-17.066406 17.066406h-102.398438c-9.414062-.027343-17.039062-7.652343-17.066406-17.066406v-25.601562c-.070312-31.339844 24.195312-57.359375 55.464844-59.476563 1.417968-.167969 2.839844-.253906 4.265625-.253906h17.066406c15.847656-.011719 31.046875 6.277344 42.253906 17.480469 11.203125 11.207031 17.492188 26.40625 17.480469 42.25zm0 0" fill="#283593"/><path d="m366.964844 460.777344v25.601562c-.027344 9.414063-7.652344 17.039063-17.066406 17.066406h-76.800782c-9.414062-.027343-17.039062-7.652343-17.066406-17.066406v-25.601562c-.070312-31.339844 24.195312-57.359375 55.464844-59.476563 31.273437 2.117188 55.535156 28.136719 55.46875 59.476563zm0 0" fill="#3f51b5"/><path d="m460.234375 102.378906c-8.886719 4.046875-19.007813 4.414063-28.160156 1.023438-13.574219-5.097656-24.5625-15.382813-30.550781-28.585938-11.945313-25.003906-5.035157-53.25 15.445312-62.976562.769531-.339844 1.621094-.683594 2.472656-1.023438 20.054688-7.679687 44.632813 4.609375 56.152344 28.671875 11.945312 25.003907 5.117188 53.164063-15.359375 62.890625zm0 0" fill="#f57c00"/><path d="m434.632812 102.378906c-.824218.414063-1.679687.757813-2.558593 1.023438-13.574219-5.097656-24.5625-15.382813-30.550781-28.585938-11.945313-25.003906-5.035157-53.25 15.445312-62.976562.769531-.339844 1.621094-.683594 2.472656-1.023438 13.546875 5.1875 24.515625 15.480469 30.550782 28.671875 11.945312 25.003907 5.121093 53.164063-15.359376 62.890625zm0 0" fill="#ff9801"/><path d="m36.460938 39.460938c-11.921876 25-5.125 53.175781 15.332031 62.929687 20.457031 9.75 46.828125-2.609375 58.746093-27.613281 11.921876-25.003906 5-53.175782-15.457031-62.929688-20.453125-9.753906-46.703125 2.609375-58.621093 27.613282zm0 0" fill="#ff9801"/><path d="m230.429688 238.914062h51.199218c18.851563 0 34.132813 15.28125 34.132813 34.132813v51.199219c0 9.425781-7.640625 17.066406-17.066407 17.066406h-85.332031c-9.425781 0-17.066406-7.640625-17.066406-17.066406v-51.199219c0-18.851563 15.28125-34.132813 34.132813-34.132813zm0 0" fill="#bb193b"/><path d="m281.628906 324.246094v17.066406h-51.199218v-17.066406c0-14.140625 11.460937-25.601563 25.601562-25.601563 14.136719 0 25.597656 11.460938 25.597656 25.601563zm0 0" fill="#ad1457"/><path d="m281.628906 324.246094h-51.199218c0-14.140625 11.460937-25.601563 25.601562-25.601563 14.136719 0 25.597656 11.460938 25.597656 25.601563zm0 0" fill="#e91e63"/><path d="m396.777344 188.785156c8.832031 11.039063 7.042968 27.152344-4 35.984375-11.039063 8.832031-27.148438 7.042969-35.980469-4-8.832031-11.039062-6.664063-49.308593-6.664063-49.308593s37.8125 6.285156 46.644532 17.324218zm0 0" fill="#0377bc"/><path d="m382.246094 179.273438c5.054687 8.542968 2.414062 19.554687-5.960938 24.875-7.03125 7.007812-18.355468 7.164062-25.578125.359374-5.417969-6.769531-.574219-33.046874-.574219-33.046874s26.699219 1.042968 32.113282 7.8125zm0 0" fill="#02a9f4"/><path d="m115.285156 187.96875c-8.832031 11.039062-7.042968 27.148438 3.996094 35.980469 11.042969 8.832031 27.152344 7.042969 35.984375-3.996094 8.832031-11.042969 6.664063-49.308594 6.664063-49.308594s-37.8125 6.285157-46.644532 17.324219zm0 0" fill="#0377bc"/><path d="m127.296875 181.226562c-6.035156 8.714844-3.914063 20.664063 4.753906 26.773438 7.859375 7.109375 19.980469 6.558594 27.160157-1.242188 6.1875-7.734374 2.71875-36.109374 2.71875-36.109374s-28.445313 2.839843-34.632813 10.578124zm0 0" fill="#02a9f4"/><path d="m352.378906 412.90625c-3.726562.003906-7.027344-2.410156-8.148437-5.96875-1.121094-3.554688.195312-7.425781 3.253906-9.5625 50.660156-36.746094 80.222656-95.886719 79.210937-158.460938 0-103.519531-76.5625-187.734374-170.664062-187.734374-94.105469 0-170.667969 84.214843-170.667969 187.734374-1.007812 62.574219 28.554688 121.714844 79.210938 158.460938 3.867187 2.699219 4.8125 8.019531 2.113281 11.886719-2.703125 3.863281-8.023438 4.808593-11.886719 2.109375-55.230469-39.945313-87.511719-104.308594-86.503906-172.457032 0-112.929687 84.214844-204.800781 187.734375-204.800781 103.515625 0 187.730469 91.871094 187.730469 204.800781 1.011719 68.148438-31.273438 132.511719-86.503907 172.457032-1.429687 1-3.132812 1.535156-4.878906 1.535156zm0 0"/><path d="m238.964844 511.980469h-102.402344c-14.132812-.015625-25.582031-11.46875-25.597656-25.601563v-25.601562c.042968-37.683594 30.582031-68.222656 68.265625-68.265625h17.066406c37.683594.042969 68.222656 30.582031 68.265625 68.265625v25.601562c-.015625 14.132813-11.46875 25.585938-25.597656 25.601563zm-59.734375-102.402344c-28.265625.03125-51.167969 22.9375-51.199219 51.199219v25.601562c.003906 4.710938 3.820312 8.527344 8.53125 8.535156h102.402344c4.707031-.007812 8.527344-3.824218 8.53125-8.535156v-25.601562c-.03125-28.261719-22.933594-51.167969-51.199219-51.199219zm0 0"/><path d="m256.03125 477.84375h-136.535156c-4.710938 0-8.53125-3.820312-8.53125-8.53125 0-4.714844 3.820312-8.535156 8.53125-8.535156h136.535156c4.710938 0 8.53125 3.820312 8.53125 8.535156 0 4.710938-3.820312 8.53125-8.53125 8.53125zm0 0"/><path d="m375.496094 511.980469h-102.398438c-14.132812-.015625-25.585937-11.46875-25.601562-25.601563v-25.601562c.042968-37.683594 30.582031-68.222656 68.265625-68.265625h17.066406c37.6875.042969 68.226563 30.582031 68.269531 68.265625v25.601562c-.015625 14.132813-11.46875 25.585938-25.601562 25.601563zm-59.734375-102.402344c-28.261719.03125-51.167969 22.9375-51.199219 51.199219v25.601562c.007812 4.710938 3.824219 8.527344 8.535156 8.535156h102.398438c4.710937-.007812 8.527344-3.824218 8.535156-8.535156v-25.601562c-.03125-28.261719-22.9375-51.167969-51.203125-51.199219zm0 0"/><path d="m392.5625 477.84375h-136.53125c-4.714844 0-8.535156-3.820312-8.535156-8.53125 0-4.714844 3.820312-8.535156 8.535156-8.535156h136.53125c4.714844 0 8.535156 3.820312 8.535156 8.535156 0 4.710938-3.820312 8.53125-8.535156 8.53125zm0 0"/><path d="m343.015625 113.117188c-4.464844 4.984374-10.304687 8.546874-16.78125 10.238281-6.734375 1.835937-13.867187 1.589843-20.460937-.707031-6.414063-2.273438-12.152344-6.121094-16.691407-11.195313-2.113281-2.425781-4.03125-5.015625-5.734375-7.746094-1.421875-2.832031-2.867187-5.601562-4.035156-8.472656-.480469-1.183594-.074219-2.542969.976562-3.265625 1.054688-.726562 2.46875-.625 3.402344.246094l.257813.238281c2.164062 2.019531 3.992187 4.183594 5.941406 6.203125 2.21875 1.71875 4.027344 3.820312 6.207031 5.355469 3.964844 3.175781 8.476563 5.601562 13.3125 7.152343 10.125 2.148438 20.65625 1.292969 30.300782-2.457031l.378906-.117187c1.195312-.359375 2.488281.113281 3.164062 1.160156.679688 1.050781.582032 2.421875-.234375 3.363281zm0 0"/><path d="m172.351562 108.707031c9.644532 3.75 20.175782 4.605469 30.300782 2.457031 4.835937-1.550781 9.347656-3.976562 13.3125-7.148437 2.179687-1.539063 3.980468-3.640625 6.203125-5.359375 1.953125-2.019531 3.78125-4.179688 5.945312-6.199219l.257813-.238281c.933594-.871094 2.347656-.976562 3.402344-.253906 1.050781.726562 1.460937 2.085937.976562 3.269531-1.167969 2.871094-2.613281 5.640625-4.035156 8.472656-1.703125 2.730469-3.621094 5.320313-5.730469 7.75-4.539063 5.070313-10.28125 8.917969-16.695313 11.195313-6.59375 2.292968-13.726562 2.542968-20.460937.707031-6.476563-1.695313-12.3125-5.253906-16.78125-10.242187-.816406-.941407-.914063-2.308594-.238281-3.355469.679687-1.050781 1.964844-1.523438 3.160156-1.167969zm0 0"/><path d="m445.289062 114.28125c-7.359374-.0625-14.609374-1.75-21.238281-4.941406-13.339843-6.503906-24.023437-17.417969-30.25-30.890625-13.925781-29.207031-5.183593-62.539063 19.484375-74.308594 24.675782-11.757813 56.078125 2.433594 70.003906 31.648437 6.542969 13.285157 8.332032 28.417969 5.0625 42.867188-2.902343 13.664062-11.902343 25.246094-24.429687 31.433594-5.820313 2.773437-12.1875 4.207031-18.632813 4.191406zm-13.335937-97.253906c-3.914063-.019532-7.785156.84375-11.324219 2.523437-16.171875 7.710938-21.296875 30.839844-11.417968 51.558594 4.523437 9.90625 12.328124 17.953125 22.09375 22.78125 7.863281 4.097656 17.167968 4.390625 25.269531.792969 7.863281-4.015625 13.457031-11.402344 15.191406-20.054688 2.34375-10.636718.972656-21.753906-3.886719-31.5-6.128906-14.75-20-24.832031-35.925781-26.101562zm0 0"/><path d="m469.363281 221.84375h-35.667969c-4.714843 0-8.535156-3.820312-8.535156-8.53125 0-4.714844 3.820313-8.535156 8.535156-8.535156h24.515626l-26.355469-97.265625c-.796875-2.941407.035156-6.085938 2.183593-8.25 2.148438-2.164063 5.289063-3.015625 8.238282-2.234375 2.949218.78125 5.253906 3.074218 6.054687 6.019531l29.269531 108.03125c.695313 2.5625.15625 5.308594-1.460937 7.417969-1.613281 2.113281-4.121094 3.351562-6.777344 3.347656zm0 0"/><path d="m469.363281 255.980469h-34.304687c-4.710938 0-8.53125-3.820313-8.53125-8.535157 0-4.710937 3.820312-8.53125 8.53125-8.53125h34.304687c7.917969.003907 15.390625-3.65625 20.246094-9.910156 4.851563-6.257812 6.535156-14.40625 4.5625-22.074218l-30.3125-111.617188c-1.234375-4.546875 1.449219-9.234375 5.996094-10.472656 4.546875-1.234375 9.238281 1.449218 10.472656 5.996094l30.378906 111.875c3.261719 12.902343.363281 26.585937-7.851562 37.058593-8.082031 10.257813-20.429688 16.234375-33.492188 16.210938zm0 0"/><path d="m66.753906 114.28125c-6.445312.015625-12.816406-1.417969-18.636718-4.191406-12.523438-6.1875-21.523438-17.769532-24.425782-31.433594-3.265625-14.449219-1.480468-29.582031 5.0625-42.871094 13.933594-29.210937 45.351563-43.390625 70-31.644531 24.671875 11.765625 33.414063 45.101563 19.488282 74.308594-6.222657 13.472656-16.910157 24.386719-30.25 30.890625-6.628907 3.191406-13.878907 4.878906-21.238282 4.941406zm-22.589844-71.152344c-4.859374 9.746094-6.230468 20.863282-3.886718 31.5 1.734375 8.652344 7.328125 16.035156 15.1875 20.054688 8.109375 3.589844 17.40625 3.296875 25.273437-.792969 9.769531-4.824219 17.574219-12.871094 22.097657-22.785156 9.878906-20.714844 4.753906-43.84375-11.425782-51.554688-16.175781-7.734375-37.363281 2.867188-47.246094 23.578125zm0 0"/><path d="m78.351562 221.84375h-35.671874c-2.65625.003906-5.164063-1.234375-6.777344-3.347656-1.617188-2.109375-2.15625-4.851563-1.460938-7.417969l29.269532-108.03125c1.234374-4.550781 5.921874-7.238281 10.472656-6.003906 4.550781 1.234375 7.238281 5.921875 6.003906 10.472656l-26.351562 97.261719h24.515624c4.710938 0 8.53125 3.820312 8.53125 8.535156 0 4.710938-3.820312 8.53125-8.53125 8.53125zm0 0"/><path d="m76.984375 255.980469h-34.304687c-13.140626.003906-25.546876-6.046875-33.636719-16.402344-8.085938-10.351563-10.953125-23.855469-7.769531-36.601563l30.445312-112.136718c1.234375-4.546875 5.921875-7.230469 10.472656-5.996094 4.546875 1.234375 7.230469 5.925781 5.996094 10.472656l-30.378906 111.871094c-1.878906 7.644531-.140625 15.722656 4.714844 21.917969 4.851562 6.191406 12.285156 9.808593 20.15625 9.808593h34.304687c4.710937 0 8.53125 3.820313 8.53125 8.53125 0 4.714844-3.820313 8.535157-8.53125 8.535157zm0 0"/><path d="m298.695312 349.84375h-85.332031c-14.132812-.015625-25.585937-11.464844-25.601562-25.597656v-51.199219c.03125-23.554687 19.117187-42.640625 42.667969-42.667969h51.199218c23.554688.027344 42.640625 19.113282 42.667969 42.667969v51.199219c-.015625 14.132812-11.46875 25.582031-25.601563 25.597656zm-68.265624-102.398438c-14.132813.015626-25.585938 11.46875-25.601563 25.601563v51.199219c.007813 4.710937 3.824219 8.527344 8.535156 8.53125h85.332031c4.710938-.003906 8.527344-3.820313 8.535157-8.53125v-51.199219c-.015625-14.132813-11.46875-25.585937-25.601563-25.601563zm0 0"/><path d="m281.628906 349.84375c-4.710937 0-8.53125-3.820312-8.53125-8.53125v-17.066406c0-9.425782-7.640625-17.066406-17.066406-17.066406s-17.066406 7.640624-17.066406 17.066406v17.066406c0 4.710938-3.820313 8.53125-8.535156 8.53125-4.710938 0-8.53125-3.820312-8.53125-8.53125v-17.066406c0-18.851563 15.28125-34.132813 34.132812-34.132813s34.132812 15.28125 34.132812 34.132813v17.066406c0 4.710938-3.820312 8.53125-8.535156 8.53125zm0 0"/><path d="m194.394531 196.3125c-15.292969.636719-29.949219-6.171875-39.332031-18.265625-2.566406-3.90625-1.519531-9.152344 2.355469-11.765625s9.132812-1.625 11.792969 2.21875c.710937.992188 14.535156 19.4375 49.515624 5.421875 4.375-1.753906 9.34375.375 11.09375 4.753906 1.753907 4.375-.375 9.34375-4.753906 11.09375-9.710937 4.117188-20.121094 6.339844-30.671875 6.542969zm0 0"/><path d="m317.664062 196.3125c-10.546874-.203125-20.960937-2.425781-30.671874-6.542969-4.375-1.75-6.503907-6.71875-4.753907-11.09375 1.75-4.378906 6.71875-6.507812 11.097657-4.753906 35.828124 14.339844 49.332031-5.144531 49.460937-5.34375 1.679687-2.566406 4.605469-4.035156 7.667969-3.847656 3.058594.1875 5.785156 2.003906 7.136718 4.757812 1.351563 2.753907 1.121094 6.019531-.605468 8.558594-9.382813 12.09375-24.039063 18.902344-39.332032 18.265625zm0 0"/><path d="m376.851562 238.917969c-1.28125-.003907-2.5625-.074219-3.832031-.214844-9.007812-.976563-17.25-5.515625-22.890625-12.605469-10.34375-12.9375-8.910156-48.179687-8.519531-55.117187.136719-2.421875 1.296875-4.667969 3.1875-6.183594 1.894531-1.515625 4.34375-2.152344 6.734375-1.753906 6.847656 1.136719 41.554688 7.476562 51.90625 20.410156 8.1875 10.234375 9.789062 24.257813 4.121094 36.078125-5.664063 11.820312-17.597656 19.351562-30.707032 19.382812zm-18.46875-57.136719c.003907 14.484375 1.679688 29.410156 5.078126 33.660156 5.914062 7.261719 16.578124 8.402344 23.890624 2.550782 7.316407-5.851563 8.546876-16.503907 2.761719-23.871094v-.003906c-3.304687-4.125-17.542969-9.117188-31.730469-12.335938zm0 0"/><path d="m135.210938 238.101562c-13.113282-.027343-25.046876-7.558593-30.714844-19.378906-5.667969-11.820312-4.066406-25.84375 4.125-36.082031 10.351562-12.9375 45.058594-19.273437 51.910156-20.410156 2.390625-.398438 4.835938.238281 6.730469 1.753906 1.894531 1.511719 3.050781 3.761719 3.1875 6.179687.394531 6.9375 1.828125 42.191407-8.523438 55.125-5.640625 7.089844-13.878906 11.625-22.882812 12.597657-1.273438.140625-2.554688.210937-3.832031.214843zm18.460937-57.140624c-14.132813 3.183593-28.324219 8.09375-31.726563 12.339843-3.871093 4.753907-4.898437 11.222657-2.683593 16.941407 2.214843 5.71875 7.328125 9.8125 13.394531 10.71875s12.152344-1.515626 15.941406-6.335938c3.304688-4.128906 5.050782-19.117188 5.074219-33.664062zm0 0"/></svg>