<svg height="511pt" viewBox="0 0 511 511.96974" width="511pt" xmlns="http://www.w3.org/2000/svg"><path d="m77.4375 250.421875-34.21875 14.679687 19.199219 48.640626-29.097657 19.199218-21.84375-55.296875c-6.867187-17.152343 1.25-36.648437 18.261719-43.863281l44.542969-19.113281c1.417969-.59375 2.910156-.996094 4.4375-1.195313zm0 0" fill="#ff5722"/><path d="m472.445312 93.070312 30.378907 111.871094c2.578125 10.207032.304687 21.035156-6.167969 29.339844-6.46875 8.304688-16.410156 13.160156-26.941406 13.15625h-34.304688l-1.363281-34.132812h35.667969l-29.269532-108.035157zm0 0" fill="#ff5722"/><path d="m435.582031 238.902344c.929688 65.347656-29.976562 127.0625-82.859375 165.460937l-97.28125 72.535157-12.710937-9.644532-82.691407-62.890625c-16.207031-11.367187-30.496093-25.253906-42.324218-41.128906l-22.613282-38.65625c-10.3125-23.453125-16.296874-48.574219-17.664062-74.15625-.171875-3.839844-.253906-7.679687-.253906-11.519531-.011719-8.5.503906-16.992188 1.535156-25.429688 10.835938-91.816406 79.613281-163.753906 164.863281-170.238281 4.265625-.425781 8.535157-.597656 12.800781-.597656 98.984376 0 179.199219 87.894531 179.199219 196.265625zm0 0" fill="#fec108"/><path d="m409.980469 238.902344c.929687 65.347656-29.976563 127.0625-82.855469 165.460937l-84.394531 62.890625-82.691407-62.890625c-16.207031-11.367187-30.496093-25.253906-42.324218-41.128906l-22.613282-38.65625c-10.3125-23.453125-16.296874-48.574219-17.664062-74.15625-.171875-3.839844-.253906-7.679687-.253906-11.519531-.011719-8.5.503906-16.992188 1.535156-25.429688 10.835938-91.816406 79.613281-163.753906 164.863281-170.238281 93.011719 7.082031 166.398438 91.988281 166.398438 195.667969zm0 0" fill="#ffdc00"/><path d="m256.382812 460.769531v25.601563c-.027343 9.414062-7.652343 17.039062-17.066406 17.066406h-102.402344c-9.414062-.027344-17.039062-7.652344-17.066406-17.066406v-25.601563c-.066406-31.34375 24.195313-57.359375 55.46875-59.476562 1.414063-.171875 2.839844-.257813 4.265625-.257813h17.066407c15.847656-.011718 31.046874 6.28125 42.25 17.484375 11.207031 11.203125 17.496093 26.40625 17.484374 42.25zm0 0" fill="#283593"/><path d="m230.78125 460.769531v25.601563c-.027344 9.414062-7.652344 17.039062-17.066406 17.066406h-76.800782c-9.414062-.027344-17.039062-7.652344-17.066406-17.066406v-25.601563c-.066406-31.34375 24.195313-57.359375 55.46875-59.476562 31.269532 2.117187 55.535156 28.132812 55.464844 59.476562zm0 0" fill="#3f51b5"/><path d="m392.914062 460.769531v25.601563c-.027343 9.414062-7.652343 17.039062-17.066406 17.066406h-102.398437c-9.414063-.027344-17.039063-7.652344-17.066407-17.066406v-25.601563c-.070312-31.34375 24.195313-57.359375 55.464844-59.476562 1.417969-.171875 2.839844-.257813 4.269532-.257813h17.066406c15.84375-.011718 31.042968 6.28125 42.25 17.484375 11.203125 11.203125 17.492187 26.40625 17.480468 42.25zm0 0" fill="#283593"/><path d="m367.316406 460.769531v25.601563c-.027344 9.414062-7.652344 17.039062-17.066406 17.066406h-76.800781c-9.414063-.027344-17.039063-7.652344-17.066407-17.066406v-25.601563c-.070312-31.34375 24.195313-57.359375 55.464844-59.476562 31.273438 2.117187 55.535156 28.132812 55.46875 59.476562zm0 0" fill="#3f51b5"/><path d="m205.183594 238.902344h102.398437c4.710938 0 8.535157 3.820312 8.535157 8.535156v17.066406c0 32.988282-26.746094 59.734375-59.734376 59.734375-32.992187 0-59.734374-26.746093-59.734374-59.734375v-17.066406c0-4.714844 3.820312-8.535156 8.535156-8.535156zm0 0" fill="#bb193b"/><path d="m106.238281 335.761719c-16.804687-22.019531-45.035156-28.722657-63.046875-14.972657-18.015625 13.746094-19 42.742188-2.195312 64.761719 16.808594 22.019531 45.035156 28.722657 63.050781 14.972657 18.011719-13.75 18.996094-42.746094 2.191406-64.761719zm0 0" fill="#ff9801"/><path d="m460.585938 102.371094c-8.882813 4.042968-19.007813 4.414062-28.160157 1.023437-13.574219-5.101562-24.5625-15.382812-30.550781-28.585937-11.945312-25.003906-5.035156-53.25 15.445312-62.976563.769532-.34375 1.621094-.683593 2.476563-1.023437 20.050781-7.679688 44.628906 4.605468 56.148437 28.671875 11.945313 25 5.121094 53.160156-15.359374 62.890625zm0 0" fill="#f57c00"/><path d="m434.984375 102.371094c-.820313.414062-1.679687.753906-2.558594 1.023437-13.574219-5.101562-24.5625-15.382812-30.550781-28.585937-11.945312-25.003906-5.035156-53.25 15.445312-62.976563.769532-.34375 1.621094-.683593 2.476563-1.023437 13.542969 5.183594 24.511719 15.480468 30.546875 28.671875 11.949219 25 5.121094 53.160156-15.359375 62.890625zm0 0" fill="#ff9801"/><path d="m153.980469 153.570312c0 23.5625-19.101563 42.667969-42.664063 42.667969-23.566406 0-42.667968-19.105469-42.667968-42.667969 0-17.578124 23.753906-51.6875 35.816406-67.867187 1.605468-2.167969 4.148437-3.449219 6.851562-3.449219 2.699219 0 5.242188 1.28125 6.851563 3.449219 12.058593 16.179687 35.8125 50.289063 35.8125 67.867187zm0 0" fill="#0377bc"/><path d="m144.398438 137.550781c0 18.273438-14.8125 33.085938-33.082032 33.085938-18.273437 0-33.085937-14.8125-33.085937-33.085938 0-13.632812 18.421875-40.074219 27.773437-52.621093 1.246094-1.683594 3.214844-2.675782 5.3125-2.675782 2.09375 0 4.066406.992188 5.3125 2.675782 9.351563 12.546874 27.769532 38.988281 27.769532 52.621093zm0 0" fill="#02a9f4"/><path d="m302.632812 302.21875c-11.316406 13.929688-28.304687 22.019531-46.25 22.019531-17.945312 0-34.9375-8.089843-46.25-22.019531 1.792969-3.65625 3.96875-7.117188 6.484376-10.324219 9.449218-12.316406 24.246093-19.335937 39.765624-18.859375 15.515626-.476562 30.316407 6.542969 39.765626 18.859375 2.515624 3.207031 4.6875 6.667969 6.484374 10.324219zm0 0" fill="#ad1457"/><path d="m296.148438 291.894531c-22.601563 20.367188-56.933594 20.367188-79.53125 0 9.449218-12.316406 24.246093-19.335937 39.765624-18.859375 15.515626-.476562 30.316407 6.542969 39.765626 18.859375zm0 0" fill="#e91e63"/><path d="m160.03125 412.898438c-1.742188 0-3.441406-.535157-4.871094-1.535157-16.957031-11.886719-31.902344-26.402343-44.273437-43.007812-2.824219-3.773438-2.0625-9.121094 1.707031-11.949219 3.773438-2.828125 9.121094-2.0625 11.949219 1.707031 11.28125 15.152344 24.914062 28.40625 40.378906 39.253907 3.054687 2.132812 4.375 6.003906 3.253906 9.558593-1.117187 3.554688-4.414062 5.972657-8.140625 5.972657zm0 0"/><path d="m352.730469 412.898438c-3.726563.003906-7.027344-2.414063-8.148438-5.96875-1.121093-3.554688.195313-7.429688 3.253907-9.5625 50.660156-36.75 80.222656-95.886719 79.210937-158.464844 0-103.515625-76.5625-187.734375-170.664063-187.734375-46.4375.300781-90.519531 20.496093-121.070312 55.46875-2.03125 2.316406-5.148438 3.363281-8.164062 2.734375-3.015626-.628906-5.457032-2.832032-6.390626-5.769532-.933593-2.933593-.210937-6.144531 1.886719-8.398437 33.769531-38.582031 82.464844-60.828125 133.738281-61.101563 103.515626 0 187.734376 91.871094 187.734376 204.800782 1.007812 68.152344-31.277344 132.515625-86.507813 172.460937-1.429687 1-3.132813 1.535157-4.878906 1.535157zm0 0"/><path d="m95.105469 333.117188c-3.382813-.003907-6.445313-2-7.8125-5.09375-10.742188-24.386719-16.96875-50.519532-18.378907-77.132813-.179687-4.050781-.265624-8.019531-.265624-11.988281-.007813-8.851563.527343-17.691406 1.605468-26.476563 1.140625-9.546875 2.882813-19.007812 5.21875-28.332031.707032-2.996094 2.96875-5.378906 5.921875-6.238281 2.957031-.859375 6.144531-.0625 8.347657 2.085937 2.199218 2.152344 3.074218 5.320313 2.285156 8.292969-2.164063 8.640625-3.777344 17.40625-4.835938 26.246094-.992187 8.105469-1.484375 16.257812-1.476562 24.421875 0 3.714844.082031 7.429687.246094 11.144531 1.304687 24.523437 7.046874 48.609375 16.949218 71.085937 1.164063 2.636719.917969 5.6875-.65625 8.101563-1.574218 2.417969-4.261718 3.878906-7.148437 3.882813zm0 0"/><path d="m239.316406 511.96875h-102.402344c-14.128906-.015625-25.582031-11.46875-25.597656-25.597656v-25.601563c.042969-37.683593 30.582032-68.222656 68.265625-68.265625h17.066407c37.683593.042969 68.222656 30.582032 68.265624 68.265625v25.601563c-.015624 14.128906-11.464843 25.582031-25.597656 25.597656zm-59.734375-102.398438c-28.265625.03125-51.167969 22.933594-51.199219 51.199219v25.601563c.003907 4.707031 3.820313 8.527344 8.53125 8.53125h102.402344c4.710938-.003906 8.527344-3.824219 8.53125-8.53125v-25.601563c-.03125-28.265625-22.933594-51.167969-51.199218-51.199219zm0 0"/><path d="m256.382812 477.835938h-136.535156c-4.710937 0-8.53125-3.820313-8.53125-8.53125 0-4.714844 3.820313-8.535157 8.53125-8.535157h136.535156c4.710938 0 8.53125 3.820313 8.53125 8.535157 0 4.710937-3.820312 8.53125-8.53125 8.53125zm0 0"/><path d="m375.847656 511.96875h-102.398437c-14.132813-.015625-25.585938-11.46875-25.601563-25.597656v-25.601563c.042969-37.683593 30.582032-68.222656 68.269532-68.265625h17.066406c37.683594.042969 68.222656 30.582032 68.265625 68.265625v25.601563c-.015625 14.128906-11.46875 25.582031-25.601563 25.597656zm-59.730468-102.398438c-28.265626.03125-51.171876 22.933594-51.203126 51.199219v25.601563c.007813 4.707031 3.824219 8.527344 8.535157 8.53125h102.398437c4.710938-.003906 8.527344-3.824219 8.535156-8.53125v-25.601563c-.03125-28.265625-22.9375-51.167969-51.199218-51.199219zm0 0"/><path d="m392.914062 477.835938h-136.53125c-4.714843 0-8.535156-3.820313-8.535156-8.53125 0-4.714844 3.820313-8.535157 8.535156-8.535157h136.53125c4.714844 0 8.535157 3.820313 8.535157 8.535157 0 4.710937-3.820313 8.53125-8.535157 8.53125zm0 0"/><path d="m256.480469 366.902344c-12.792969.019531-25.472657-2.390625-37.371094-7.097656-2.898437-1.078126-4.988281-3.636719-5.460937-6.691407-.476563-3.054687.738281-6.128906 3.175781-8.035156 2.4375-1.902344 5.710937-2.339844 8.5625-1.140625 19.898437 7.792969 42.003906 7.828125 61.929687.097656 4.386719-1.71875 9.339844.445313 11.058594 4.832032 1.722656 4.386718-.441406 9.339843-4.832031 11.0625-11.804688 4.625-24.378907 6.992187-37.0625 6.972656zm0 0"/><path d="m256.382812 332.769531c-37.683593-.042969-68.222656-30.582031-68.265624-68.265625v-17.066406c.007812-9.421875 7.644531-17.058594 17.066406-17.066406h102.398437c9.421875.007812 17.058594 7.644531 17.066407 17.066406v17.066406c-.042969 37.683594-30.582032 68.222656-68.265626 68.265625zm-51.199218-85.332031v17.066406c0 28.277344 22.921875 51.199219 51.199218 51.199219 28.277344 0 51.199219-22.921875 51.199219-51.199219v-17.066406zm0 0"/><path d="m302.640625 310.753906c-3.242187.003906-6.207031-1.832031-7.652344-4.738281-7.058593-14.925781-22.09375-24.445313-38.605469-24.445313-16.515624 0-31.546874 9.519532-38.609374 24.445313-2.117188 4.183594-7.210938 5.875-11.410157 3.789063-4.199219-2.085938-5.929687-7.167969-3.871093-11.382813 9.941406-20.730469 30.898437-33.921875 53.890624-33.921875 22.992188 0 43.945313 13.191406 53.890626 33.921875 1.3125 2.644531 1.167968 5.777344-.386719 8.285156-1.554688 2.511719-4.292969 4.039063-7.246094 4.042969zm0 0"/><path d="m82.28125 416.214844c-4.105469-.011719-8.195312-.5-12.1875-1.460938-14.367188-3.648437-27.035156-12.132812-35.878906-24.03125-9.140625-11.664062-13.980469-26.125-13.707032-40.945312.074219-13.96875 6.519532-27.140625 17.507813-35.773438 11.226563-8.3125 25.628906-11.050781 39.128906-7.445312 14.363281 3.644531 27.035157 12.132812 35.878907 24.027344 9.140624 11.667968 13.980468 26.128906 13.707031 40.945312-.074219 13.972656-6.523438 27.144531-17.507813 35.777344-7.746094 5.871094-17.222656 9.003906-26.941406 8.90625zm-17.242188-94.035156c-6-.097657-11.863281 1.800781-16.667968 5.394531-6.882813 5.554687-10.859375 13.941406-10.804688 22.785156-.144531 10.878906 3.464844 21.476563 10.214844 30.011719 6.453125 8.765625 15.722656 15.042968 26.257812 17.777344 8.515626 2.386718 17.652344.765624 24.824219-4.40625 6.882813-5.554688 10.859375-13.941407 10.804688-22.785157.144531-10.882812-3.460938-21.480469-10.214844-30.015625v-.003906c-6.453125-8.765625-15.722656-15.039062-26.257813-17.777344-2.671874-.644531-5.40625-.972656-8.15625-.984375zm0 0"/><path d="m445.640625 114.273438c-7.355469-.0625-14.609375-1.75-21.238281-4.941407-13.339844-6.507812-24.023438-17.417969-30.25-30.890625-13.925782-29.207031-5.183594-62.542968 19.484375-74.308594 24.675781-11.757812 56.078125 2.433594 70.003906 31.644532 6.542969 13.289062 8.332031 28.421875 5.0625 42.871094-2.902344 13.664062-11.902344 25.246093-24.429687 31.433593-5.820313 2.773438-12.1875 4.207031-18.632813 4.191407zm-13.332031-97.253907c-3.917969-.019531-7.789063.84375-11.328125 2.519531-16.171875 7.714844-21.296875 30.84375-11.417969 51.558594 4.523438 9.910156 12.328125 17.957032 22.09375 22.785156 7.863281 4.097657 17.167969 4.386719 25.273438.789063 7.859374-4.011719 13.453124-11.398437 15.1875-20.050781 2.34375-10.636719.972656-21.753906-3.886719-31.5-6.128907-14.753906-20-24.832032-35.921875-26.101563zm0 0"/><path d="m25.382812 336.078125-21.84375-55.296875c-8.59375-21.445312 1.554688-45.824219 22.828126-54.835938l44.550781-19.117187c2.175781-.914063 4.46875-1.53125 6.808593-1.828125l1.992188 16.949219c-.746094.109375-1.476562.3125-2.171875.605469l-44.441406 19.070312c-12.753907 5.402344-18.84375 20.019531-13.695313 32.878906l21.851563 55.296875zm0 0"/><path d="m54.484375 316.875-19.199219-48.640625c-1.695312-4.292969.332032-9.15625 4.574219-10.976563l34.21875-14.675781 6.722656 15.683594-26.601562 11.410156 16.15625 40.929688zm0 0"/><path d="m469.714844 221.835938h-35.667969c-4.714844 0-8.535156-3.820313-8.535156-8.53125 0-4.714844 3.820312-8.535157 8.535156-8.535157h24.515625l-26.355469-97.265625c-.796875-2.945312.035157-6.089844 2.183594-8.25 2.152344-2.164062 5.289063-3.015625 8.238281-2.234375 2.949219.78125 5.253906 3.074219 6.054688 6.015625l29.269531 108.03125c.695313 2.566406.15625 5.308594-1.457031 7.421875-1.617188 2.109375-4.121094 3.347657-6.78125 3.347657zm0 0"/><path d="m469.714844 255.96875h-34.304688c-4.710937 0-8.53125-3.820312-8.53125-8.53125 0-4.714844 3.820313-8.535156 8.53125-8.535156h34.304688c7.917968.007812 15.390625-3.652344 20.246094-9.910156 4.851562-6.253907 6.535156-14.40625 4.5625-22.070313l-30.3125-111.617187c-1.234376-4.546876 1.449218-9.238282 5.996093-10.472657 4.550781-1.238281 9.238281 1.449219 10.472657 5.996094l30.378906 111.871094c3.261718 12.902343.363281 26.589843-7.851563 37.058593-8.082031 10.261719-20.429687 16.238282-33.492187 16.210938zm0 0"/><path d="m340.425781 196.917969c-2.460937.003906-4.800781-1.058594-6.421875-2.910157-24.023437-27.464843-46.796875-8.496093-47.757812-7.675781-3.582032 3.066407-8.96875 2.652344-12.035156-.925781-3.066407-3.578125-2.652344-8.964844.925781-12.035156 12.554687-10.757813 43.691406-22.625 71.707031 9.394531 2.207031 2.519531 2.734375 6.09375 1.351562 9.144531-1.382812 3.046875-4.417968 5.007813-7.769531 5.007813zm0 0"/><path d="m172.335938 196.917969c-3.347657 0-6.386719-1.960938-7.769532-5.007813-1.382812-3.050781-.851562-6.625 1.351563-9.144531 28.011719-32.023437 59.15625-20.15625 71.710937-9.394531 3.519532 3.074218 3.914063 8.410156.882813 11.96875-3.03125 3.554687-8.363281 4.011718-11.953125 1.019531-2.464844-2.050781-24.453125-19.027344-47.796875 7.648437-1.621094 1.851563-3.964844 2.914063-6.425781 2.910157zm0 0"/><path d="m229.128906 96.042969c-9.648437-3.753907-20.175781-4.605469-30.300781-2.460938-4.835937 1.554688-9.347656 3.976563-13.3125 7.152344-2.183594 1.535156-3.984375 3.640625-6.207031 5.355469-1.953125 2.019531-3.78125 4.183594-5.941406 6.203125l-.257813.238281c-.933594.871094-2.351563.976562-3.402344.25-1.054687-.722656-1.460937-2.085938-.980469-3.269531 1.167969-2.871094 2.613282-5.636719 4.039063-8.472657 1.703125-2.730468 3.617187-5.320312 5.730469-7.746093 4.539062-5.070313 10.277344-8.921875 16.691406-11.195313 6.59375-2.296875 13.726562-2.542968 20.464844-.707031 6.476562 1.691406 12.3125 5.253906 16.78125 10.238281.820312.945313.917968 2.316406.242187 3.363282-.679687 1.050781-1.96875 1.527343-3.167969 1.164062zm0 0"/><path d="m280.328125 91.632812c4.46875-4.988281 10.304687-8.546874 16.78125-10.242187 6.734375-1.835937 13.871094-1.589844 20.460937.707031 6.414063 2.273438 12.15625 6.125 16.695313 11.195313 2.113281 2.429687 4.027344 5.019531 5.730469 7.75 1.425781 2.832031 2.871094 5.601562 4.035156 8.472656.480469 1.183594.074219 2.539063-.976562 3.265625-1.050782.726562-2.464844.621094-3.402344-.25l-.253906-.238281c-2.164063-2.015625-3.992188-4.179688-5.945313-6.199219-2.21875-1.71875-4.023437-3.820312-6.207031-5.359375-3.964844-3.171875-8.476563-5.597656-13.3125-7.152344-10.121094-2.144531-20.652344-1.289062-30.300782 2.460938l-.378906.113281c-1.195312.363281-2.484375-.109375-3.164062-1.160156-.679688-1.046875-.582032-2.417969.238281-3.359375zm0 0"/><path d="m111.316406 204.769531c-28.265625-.03125-51.171875-22.9375-51.199218-51.199219 0-25.816406 39.980468-76.449218 44.542968-82.136718 1.675782-1.925782 4.105469-3.03125 6.65625-3.03125 2.554688 0 4.984375 1.105468 6.660156 3.03125 4.554688 5.6875 44.539063 56.320312 44.539063 82.136718-.03125 28.261719-22.9375 51.167969-51.199219 51.199219zm0-114.050781c-15.289062 20.425781-34.132812 49.867188-34.132812 62.851562 0 18.851563 15.28125 34.132813 34.132812 34.132813 18.851563 0 34.132813-15.28125 34.132813-34.132813 0-12.984374-18.847657-42.425781-34.132813-62.851562zm0 0"/></svg>