<svg height="512pt" viewBox="0 0 512.01808 512" width="512pt" xmlns="http://www.w3.org/2000/svg"><path d="m472.09375 93.078125 30.378906 111.871094c2.578125 10.207031.304688 21.035156-6.167968 29.339843-6.46875 8.308594-16.414063 13.160157-26.941407 13.15625h-34.304687l-1.363282-34.132812h35.667969l-29.269531-108.03125zm0 0" fill="#ff5722"/><path d="m39.949219 93.078125-30.378907 111.871094c-2.578124 10.207031-.300781 21.035156 6.167969 29.339843 6.472657 8.308594 16.414063 13.160157 26.941407 13.15625h34.304687l1.367187-34.132812h-35.671874l29.269531-108.03125zm0 0" fill="#ff5722"/><path d="m435.230469 238.914062c.929687 65.34375-29.976563 127.0625-82.859375 165.460938l-97.28125 72.53125-12.714844-9.640625-82.6875-62.890625c-16.207031-11.371094-30.496094-25.257812-42.324219-41.132812l-22.613281-38.65625c-10.3125-23.449219-16.296875-48.574219-17.664062-74.152344-.171876-3.839844-.257813-7.679688-.257813-11.519532-.007813-8.5.507813-16.996093 1.539063-25.429687 10.835937-91.820313 79.613281-163.757813 164.863281-170.242187 4.265625-.425782 8.53125-.597657 12.800781-.597657 98.984375 0 179.199219 87.894531 179.199219 196.269531zm0 0" fill="#fec108"/><path d="m409.628906 238.914062c.929688 65.34375-29.976562 127.0625-82.859375 165.460938l-84.394531 62.890625-82.6875-62.890625c-16.207031-11.371094-30.496094-25.257812-42.324219-41.132812l-22.613281-38.65625c-10.3125-23.449219-16.296875-48.574219-17.664062-74.152344-.171876-3.839844-.257813-7.679688-.257813-11.519532-.007813-8.5.507813-16.996093 1.539063-25.429687 10.835937-91.820313 79.613281-163.757813 164.863281-170.242187 93.011719 7.082031 166.398437 91.988281 166.398437 195.671874zm0 0" fill="#ffdc00"/><path d="m256.03125 460.777344v25.601562c-.027344 9.414063-7.652344 17.039063-17.066406 17.066406h-102.402344c-9.414062-.027343-17.039062-7.652343-17.066406-17.066406v-25.601562c-.066406-31.339844 24.195312-57.359375 55.46875-59.476563 1.414062-.167969 2.839844-.253906 4.265625-.253906h17.066406c15.84375-.011719 31.046875 6.277344 42.25 17.480469 11.203125 11.207031 17.496094 26.40625 17.484375 42.25zm0 0" fill="#283593"/><path d="m230.429688 460.777344v25.601562c-.027344 9.414063-7.652344 17.039063-17.066407 17.066406h-76.800781c-9.414062-.027343-17.039062-7.652343-17.066406-17.066406v-25.601562c-.066406-31.339844 24.195312-57.359375 55.46875-59.476563 31.269531 2.117188 55.535156 28.136719 55.464844 59.476563zm0 0" fill="#3f51b5"/><path d="m392.5625 460.777344v25.601562c-.027344 9.414063-7.652344 17.039063-17.066406 17.066406h-102.398438c-9.414062-.027343-17.039062-7.652343-17.066406-17.066406v-25.601562c-.070312-31.339844 24.195312-57.359375 55.464844-59.476563 1.417968-.167969 2.839844-.253906 4.265625-.253906h17.066406c15.847656-.011719 31.046875 6.277344 42.253906 17.480469 11.203125 11.207031 17.492188 26.40625 17.480469 42.25zm0 0" fill="#283593"/><path d="m366.964844 460.777344v25.601562c-.027344 9.414063-7.652344 17.039063-17.066406 17.066406h-76.800782c-9.414062-.027343-17.039062-7.652343-17.066406-17.066406v-25.601562c-.070312-31.339844 24.195312-57.359375 55.464844-59.476563 31.273437 2.117188 55.535156 28.136719 55.46875 59.476563zm0 0" fill="#3f51b5"/><path d="m460.234375 102.378906c-8.886719 4.046875-19.007813 4.414063-28.160156 1.023438-13.574219-5.097656-24.5625-15.382813-30.550781-28.585938-11.945313-25.003906-5.035157-53.25 15.445312-62.976562.769531-.339844 1.621094-.683594 2.472656-1.023438 20.054688-7.679687 44.632813 4.609375 56.152344 28.671875 11.945312 25.003907 5.117188 53.164063-15.359375 62.890625zm0 0" fill="#f57c00"/><path d="m434.632812 102.378906c-.824218.414063-1.679687.757813-2.558593 1.023438-13.574219-5.097656-24.5625-15.382813-30.550781-28.585938-11.945313-25.003906-5.035157-53.25 15.445312-62.976562.769531-.339844 1.621094-.683594 2.472656-1.023438 13.546875 5.1875 24.515625 15.480469 30.550782 28.671875 11.945312 25.003907 5.121093 53.164063-15.359376 62.890625zm0 0" fill="#ff9801"/><path d="m36.460938 39.460938c-11.921876 25-5.125 53.175781 15.332031 62.929687 20.457031 9.75 46.828125-2.609375 58.746093-27.613281 11.921876-25.003906 5-53.175782-15.457031-62.929688-20.453125-9.753906-46.703125 2.609375-58.621093 27.613282zm0 0" fill="#ff9801"/><path d="m225.566406 184.554688-28.929687 39.253906-15.273438-10.921875-24.40625-17.410157c-5.433593-3.816406-9.089843-9.675781-10.132812-16.234374-1.046875-6.558594.609375-13.261719 4.585937-18.582032 7.964844-10.714844 22.828125-13.5 34.132813-6.398437 5.347656-6.429688 13.519531-9.816407 21.847656-9.046875 4.550781.285156 8.929687 1.855468 12.628906 4.523437 5.414063 3.835938 9.054688 9.691407 10.097657 16.242188 1.042968 6.550781-.597657 13.246093-4.550782 18.574219zm0 0" fill="#bb193b"/><path d="m208.5 176.019531-27.136719 36.867188-24.40625-17.410157c-5.433593-3.816406-9.089843-9.675781-10.132812-16.234374-1.046875-6.558594.609375-13.261719 4.585937-18.582032 7.964844-10.714844 22.828125-13.5 34.132813-6.398437 5.347656-6.429688 13.519531-9.816407 21.847656-9.046875 7.542969 8.742187 8.003906 21.546875 1.109375 30.804687zm0 0" fill="#ef314c"/><path d="m355.101562 195.476562-39.679687 28.332032-8.019531-10.835938-20.910156-28.417968c-3.953126-5.328126-5.59375-12.023438-4.550782-18.574219 1.042969-6.550781 4.683594-12.40625 10.097656-16.242188 10.921876-7.6875 25.910157-5.722656 34.476563 4.523438 8.707031-5.429688 19.808594-5.160157 28.246094.683593 2.265625 1.566407 4.253906 3.496094 5.886719 5.714844 3.976562 5.320313 5.632812 12.023438 4.589843 18.582032-1.046875 6.558593-4.703125 12.417968-10.136719 16.234374zm0 0" fill="#bb193b"/><path d="m346.570312 184.980469-39.167968 27.992187-20.910156-28.417968c-3.953126-5.328126-5.59375-12.023438-4.550782-18.574219 1.042969-6.550781 4.683594-12.40625 10.097656-16.242188 10.921876-7.6875 25.910157-5.722656 34.476563 4.523438 8.707031-5.429688 19.808594-5.160157 28.246094.683593 4.871093 10.675782 1.425781 23.3125-8.191407 30.035157zm0 0" fill="#ef314c"/><path d="m204.828125 255.980469h102.402344c4.710937 0 8.53125 3.820312 8.53125 8.53125v17.066406c0 32.992187-26.742188 59.734375-59.730469 59.734375-32.992188 0-59.734375-26.742188-59.734375-59.734375v-17.066406c0-4.710938 3.820313-8.53125 8.53125-8.53125zm0 0" fill="#bb193b"/><path d="m302.28125 319.296875c-11.316406 13.929687-28.304688 22.015625-46.25 22.015625s-34.9375-8.085938-46.25-22.015625c1.792969-3.660156 3.96875-7.121094 6.484375-10.324219 9.449219-12.320312 24.246094-19.335937 39.765625-18.859375 15.515625-.476562 30.316406 6.539063 39.765625 18.859375 2.515625 3.203125 4.6875 6.664063 6.484375 10.324219zm0 0" fill="#ad1457"/><path d="m295.796875 308.972656c-22.601563 20.363282-56.933594 20.363282-79.53125 0 9.449219-12.320312 24.246094-19.335937 39.765625-18.859375 15.515625-.476562 30.316406 6.539063 39.765625 18.859375zm0 0" fill="#e91e63"/><path d="m179.230469 174.914062c0 7.066407-5.730469 12.796876-12.800781 12.796876-7.070313 0-12.800782-5.730469-12.800782-12.796876 0-7.070312 5.730469-12.800781 12.800782-12.800781 7.070312 0 12.800781 5.730469 12.800781 12.800781zm0 0" fill="#f5f5f5"/><path d="m315.761719 166.378906c0 7.070313-5.730469 12.800782-12.796875 12.800782-7.070313 0-12.800782-5.730469-12.800782-12.800782 0-7.070312 5.730469-12.800781 12.800782-12.800781 7.066406 0 12.796875 5.730469 12.796875 12.800781zm0 0" fill="#f5f5f5"/><path d="m352.378906 412.90625c-3.726562.003906-7.027344-2.410156-8.148437-5.96875-1.121094-3.554688.195312-7.425781 3.253906-9.5625 50.660156-36.746094 80.222656-95.886719 79.210937-158.460938 0-103.519531-76.5625-187.734374-170.664062-187.734374-94.105469 0-170.667969 84.214843-170.667969 187.734374-1.007812 62.574219 28.554688 121.714844 79.210938 158.460938 3.867187 2.699219 4.8125 8.019531 2.113281 11.886719-2.703125 3.863281-8.023438 4.808593-11.886719 2.109375-55.230469-39.945313-87.511719-104.308594-86.503906-172.457032 0-112.929687 84.214844-204.800781 187.734375-204.800781 103.515625 0 187.730469 91.871094 187.730469 204.800781 1.011719 68.148438-31.273438 132.511719-86.503907 172.457032-1.429687 1-3.132812 1.535156-4.878906 1.535156zm0 0"/><path d="m238.964844 511.980469h-102.402344c-14.132812-.015625-25.582031-11.46875-25.597656-25.601563v-25.601562c.042968-37.683594 30.582031-68.222656 68.265625-68.265625h17.066406c37.683594.042969 68.222656 30.582031 68.265625 68.265625v25.601562c-.015625 14.132813-11.46875 25.585938-25.597656 25.601563zm-59.734375-102.402344c-28.265625.03125-51.167969 22.9375-51.199219 51.199219v25.601562c.003906 4.710938 3.820312 8.527344 8.53125 8.535156h102.402344c4.707031-.007812 8.527344-3.824218 8.53125-8.535156v-25.601562c-.03125-28.261719-22.933594-51.167969-51.199219-51.199219zm0 0"/><path d="m256.03125 477.84375h-136.535156c-4.710938 0-8.53125-3.820312-8.53125-8.53125 0-4.714844 3.820312-8.535156 8.53125-8.535156h136.535156c4.710938 0 8.53125 3.820312 8.53125 8.535156 0 4.710938-3.820312 8.53125-8.53125 8.53125zm0 0"/><path d="m375.496094 511.980469h-102.398438c-14.132812-.015625-25.585937-11.46875-25.601562-25.601563v-25.601562c.042968-37.683594 30.582031-68.222656 68.265625-68.265625h17.066406c37.6875.042969 68.226563 30.582031 68.269531 68.265625v25.601562c-.015625 14.132813-11.46875 25.585938-25.601562 25.601563zm-59.734375-102.402344c-28.261719.03125-51.167969 22.9375-51.199219 51.199219v25.601562c.007812 4.710938 3.824219 8.527344 8.535156 8.535156h102.398438c4.710937-.007812 8.527344-3.824218 8.535156-8.535156v-25.601562c-.03125-28.261719-22.9375-51.167969-51.203125-51.199219zm0 0"/><path d="m392.5625 477.84375h-136.53125c-4.714844 0-8.535156-3.820312-8.535156-8.53125 0-4.714844 3.820312-8.535156 8.535156-8.535156h136.53125c4.714844 0 8.535156 3.820312 8.535156 8.535156 0 4.710938-3.820312 8.53125-8.535156 8.53125zm0 0"/><path d="m445.289062 114.28125c-7.359374-.0625-14.609374-1.75-21.238281-4.941406-13.339843-6.503906-24.023437-17.417969-30.25-30.890625-13.925781-29.207031-5.183593-62.539063 19.484375-74.308594 24.664063-11.757813 56.078125 2.433594 70.003906 31.648437 6.542969 13.285157 8.332032 28.417969 5.0625 42.867188-2.902343 13.664062-11.902343 25.246094-24.429687 31.433594-5.820313 2.773437-12.1875 4.207031-18.632813 4.191406zm-13.335937-97.253906c-3.914063-.019532-7.785156.84375-11.324219 2.523437-16.171875 7.710938-21.296875 30.839844-11.417968 51.558594 4.523437 9.90625 12.328124 17.953125 22.09375 22.78125 7.863281 4.097656 17.167968 4.390625 25.269531.792969 7.863281-4.015625 13.457031-11.402344 15.191406-20.054688 2.34375-10.636718.972656-21.753906-3.886719-31.5-6.128906-14.75-20-24.832031-35.925781-26.101562zm0 0"/><path d="m469.363281 221.84375h-35.667969c-4.714843 0-8.535156-3.820312-8.535156-8.53125 0-4.714844 3.820313-8.535156 8.535156-8.535156h24.515626l-26.355469-97.265625c-.796875-2.941407.035156-6.085938 2.183593-8.25 2.148438-2.164063 5.289063-3.015625 8.238282-2.234375 2.949218.78125 5.253906 3.074218 6.054687 6.019531l29.269531 108.03125c.695313 2.5625.15625 5.308594-1.460937 7.417969-1.613281 2.113281-4.121094 3.351562-6.777344 3.347656zm0 0"/><path d="m469.363281 255.980469h-34.304687c-4.710938 0-8.53125-3.820313-8.53125-8.535157 0-4.710937 3.820312-8.53125 8.53125-8.53125h34.304687c7.917969.003907 15.390625-3.65625 20.246094-9.910156 4.851563-6.257812 6.535156-14.40625 4.5625-22.074218l-30.3125-111.617188c-1.234375-4.546875 1.449219-9.234375 5.996094-10.472656 4.546875-1.234375 9.238281 1.449218 10.472656 5.996094l30.378906 111.875c3.261719 12.902343.363281 26.585937-7.851562 37.058593-8.082031 10.257813-20.429688 16.234375-33.492188 16.210938zm0 0"/><path d="m66.753906 114.28125c-6.445312.015625-12.816406-1.417969-18.636718-4.191406-12.523438-6.1875-21.523438-17.769532-24.425782-31.433594-3.265625-14.449219-1.480468-29.582031 5.0625-42.871094 13.929688-29.210937 45.34375-43.390625 70-31.644531 24.671875 11.765625 33.414063 45.101563 19.488282 74.308594-6.222657 13.472656-16.910157 24.386719-30.25 30.890625-6.628907 3.191406-13.878907 4.878906-21.238282 4.941406zm-22.589844-71.152344c-4.859374 9.746094-6.230468 20.863282-3.886718 31.5 1.734375 8.652344 7.328125 16.035156 15.1875 20.054688 8.109375 3.589844 17.40625 3.296875 25.273437-.792969 9.769531-4.824219 17.574219-12.871094 22.097657-22.785156 9.878906-20.714844 4.753906-43.84375-11.425782-51.554688-16.160156-7.734375-37.371094 2.863281-47.246094 23.578125zm0 0"/><path d="m78.351562 221.84375h-35.671874c-2.65625.003906-5.164063-1.234375-6.777344-3.347656-1.617188-2.109375-2.15625-4.851563-1.460938-7.417969l29.269532-108.03125c1.234374-4.550781 5.921874-7.238281 10.472656-6.003906 4.550781 1.234375 7.238281 5.921875 6.003906 10.472656l-26.351562 97.261719h24.515624c4.710938 0 8.53125 3.820312 8.53125 8.535156 0 4.710938-3.820312 8.53125-8.53125 8.53125zm0 0"/><path d="m76.984375 255.980469h-34.304687c-13.140626.003906-25.546876-6.046875-33.636719-16.402344-8.085938-10.351563-10.953125-23.855469-7.769531-36.601563l30.445312-112.136718c1.234375-4.546875 5.921875-7.230469 10.472656-5.996094 4.546875 1.234375 7.230469 5.925781 5.996094 10.472656l-30.378906 111.871094c-1.878906 7.644531-.140625 15.722656 4.714844 21.917969 4.851562 6.191406 12.285156 9.808593 20.15625 9.808593h34.304687c4.710937 0 8.53125 3.820313 8.53125 8.53125 0 4.714844-3.820313 8.535157-8.53125 8.535157zm0 0"/><path d="m196.621094 232.332031c-1.773438 0-3.503906-.554687-4.949219-1.585937l-39.703125-28.332032c-7.269531-5.160156-12.15625-13.027343-13.554688-21.832031-1.402343-8.804687.800782-17.800781 6.109376-24.960937 9.074218-12.222656 25.136718-16.96875 39.398437-11.648438 11.90625-9.476562 28.640625-9.953125 41.0625-1.164062 7.273437 5.160156 12.160156 13.027344 13.5625 21.832031 1.402344 8.808594-.800781 17.804687-6.109375 24.96875l-28.941406 39.253906c-1.609375 2.183594-4.160156 3.472657-6.875 3.46875zm-24.660156-73.464843c-5.402344-.011719-10.488282 2.546874-13.703126 6.886718-2.59375 3.480469-3.671874 7.863282-2.988281 12.148438.683594 4.289062 3.066407 8.117187 6.613281 10.621094l32.867188 23.453124 23.957031-32.496093c2.59375-3.484375 3.675781-7.863281 2.992188-12.152344-.683594-4.289063-3.070313-8.121094-6.617188-10.625-7.257812-5.140625-17.25-3.828125-22.9375 3.007813-2.738281 3.316406-7.519531 4.078124-11.152343 1.773437-2.699219-1.714844-5.835938-2.621094-9.035157-2.613281zm0 0"/><path d="m315.4375 232.332031c-2.710938.003907-5.265625-1.285156-6.875-3.46875l-28.941406-39.257812c-5.308594-7.160157-7.511719-16.160157-6.113282-24.964844 1.402344-8.804687 6.292969-16.671875 13.5625-21.828125 12.421876-8.796875 29.160157-8.324219 41.0625 1.160156 14.265626-5.324218 30.328126-.574218 39.40625 11.648438 5.308594 7.160156 7.511719 16.160156 6.109376 24.964844-1.402344 8.800781-6.289063 16.671874-13.558594 21.828124l-39.703125 28.332032c-1.441407 1.03125-3.171875 1.585937-4.949219 1.585937zm-8.628906-78.761719c-3.523438-.007812-6.960938 1.089844-9.828125 3.136719-3.546875 2.503907-5.933594 6.332031-6.617188 10.621094-.683593 4.285156.394531 8.667969 2.992188 12.148437l23.957031 32.5 32.863281-23.453124c3.546875-2.5 5.933594-6.332032 6.617188-10.617188.683593-4.289062-.394531-8.671875-2.988281-12.152344-5.300782-7.144531-15.207032-9.003906-22.738282-4.265625-3.632812 2.296875-8.40625 1.539063-11.148437-1.769531-3.234375-3.90625-8.039063-6.160156-13.109375-6.148438zm0 0"/><path d="m228.777344 103.667969c-9.648438-3.753907-20.179688-4.605469-30.300782-2.460938-4.835937 1.554688-9.347656 3.976563-13.3125 7.152344-2.183593 1.539063-3.984374 3.640625-6.207031 5.359375-1.953125 2.015625-3.78125 4.179688-5.945312 6.199219l-.253907.238281c-.933593.871094-2.351562.976562-3.402343.25-1.054688-.726562-1.460938-2.085938-.980469-3.269531 1.167969-2.871094 2.613281-5.636719 4.035156-8.46875 1.703125-2.730469 3.621094-5.320313 5.734375-7.75 4.539063-5.070313 10.277344-8.917969 16.691407-11.195313 6.59375-2.296875 13.726562-2.542968 20.460937-.707031 6.480469 1.695313 12.316406 5.253906 16.785156 10.242187.820313.941407.917969 2.3125.238281 3.363282-.675781 1.046875-1.964843 1.523437-3.164062 1.164062zm0 0"/><path d="m279.976562 99.257812c4.46875-4.988281 10.304688-8.546874 16.78125-10.242187 6.734376-1.835937 13.871094-1.589844 20.460938.710937 6.414062 2.273438 12.15625 6.121094 16.695312 11.191407 2.109376 2.429687 4.027344 5.019531 5.730469 7.75 1.421875 2.832031 2.867188 5.601562 4.035157 8.472656.480468 1.183594.074218 2.539063-.976563 3.265625s-2.46875.621094-3.402344-.25l-.257812-.238281c-2.160157-2.015625-3.988281-4.179688-5.941407-6.199219-2.21875-1.71875-4.023437-3.820312-6.207031-5.355469-3.964843-3.175781-8.476562-5.601562-13.3125-7.15625-10.125-2.144531-20.652343-1.289062-30.300781 2.460938l-.378906.117187c-1.195313.359375-2.488282-.113281-3.167969-1.160156-.675781-1.050781-.578125-2.421875.238281-3.363281zm0 0"/><path d="m256.128906 383.980469c-12.792968.015625-25.472656-2.390625-37.371094-7.101563-2.898437-1.074218-4.988281-3.636718-5.460937-6.691406-.476563-3.054688.738281-6.128906 3.175781-8.03125 2.4375-1.90625 5.710938-2.34375 8.5625-1.144531 19.898438 7.792969 42.003906 7.828125 61.929688.101562 4.386718-1.722656 9.339844.441407 11.058594 4.828125 1.71875 4.390625-.441407 9.34375-4.832032 11.0625-11.804687 4.628906-24.378906 6.992188-37.0625 6.976563zm0 0"/><path d="m256.03125 349.84375c-37.6875-.042969-68.226562-30.582031-68.269531-68.265625v-17.066406c.011719-9.421875 7.648437-17.058594 17.066406-17.066407h102.402344c9.421875.007813 17.058593 7.644532 17.066406 17.066407v17.066406c-.042969 37.683594-30.582031 68.222656-68.265625 68.265625zm-51.203125-85.332031v17.066406c0 28.277344 22.925781 51.199219 51.203125 51.199219s51.199219-22.921875 51.199219-51.199219v-17.066406zm0 0"/><path d="m302.289062 327.828125c-3.242187.003906-6.207031-1.832031-7.652343-4.738281-7.058594-14.925782-22.09375-24.445313-38.605469-24.445313-16.515625 0-31.546875 9.519531-38.609375 24.445313-2.117187 4.183594-7.210937 5.875-11.410156 3.789062-4.199219-2.085937-5.929688-7.167968-3.875-11.382812 9.945312-20.730469 30.898437-33.921875 53.894531-33.921875 22.992188 0 43.945312 13.191406 53.890625 33.921875 1.3125 2.644531 1.164063 5.777344-.386719 8.289062-1.554687 2.507813-4.296875 4.039063-7.246094 4.039063zm0 0"/></svg>