<svg height="512pt" viewBox="0 0 512 512.02071" width="512pt" xmlns="http://www.w3.org/2000/svg"><path d="m39.960938 93.121094-30.378907 111.871094c-2.582031 10.207031-.304687 21.035156 6.167969 29.339843 6.46875 8.304688 16.410156 13.160157 26.941406 13.15625h34.304688l1.363281-34.132812h-35.667969l29.269532-108.035157zm0 0" fill="#ff5722"/><path d="m472.101562 93.121094 30.378907 111.871094c2.582031 10.207031.304687 21.035156-6.164063 29.339843-6.472656 8.304688-16.414062 13.160157-26.945312 13.15625h-34.300782l-1.367187-34.132812h35.667969l-29.269532-108.035157zm0 0" fill="#ff5722"/><path d="m435.238281 238.953125c.929688 65.347656-29.976562 127.0625-82.859375 165.460937l-97.277344 72.535157-12.714843-9.644531-82.6875-62.890626c-16.210938-11.367187-30.496094-25.253906-42.328125-41.128906l-22.613282-38.65625c-10.308593-23.449218-16.292968-48.574218-17.664062-74.15625-.167969-3.839844-.253906-7.679687-.253906-11.519531-.007813-8.5.503906-16.992187 1.535156-25.429687 10.835938-91.816407 79.617188-163.753907 164.863281-170.238282 4.265625-.425781 8.535157-.597656 12.800781-.597656 98.988282 0 179.199219 87.894531 179.199219 196.265625zm0 0" fill="#fec108"/><path d="m409.640625 238.953125c.929687 65.347656-29.976563 127.0625-82.859375 165.460937l-84.394531 62.890626-82.6875-62.890626c-16.210938-11.367187-30.496094-25.253906-42.328125-41.128906l-22.613282-38.65625c-10.308593-23.449218-16.292968-48.574218-17.664062-74.15625-.167969-3.839844-.253906-7.679687-.253906-11.519531-.007813-8.5.503906-16.992187 1.535156-25.429687 10.835938-91.816407 79.617188-163.753907 164.863281-170.238282 93.015625 7.082032 166.402344 91.988282 166.402344 195.667969zm0 0" fill="#ffdc00"/><path d="m256.039062 460.820312v25.601563c-.027343 9.414063-7.652343 17.039063-17.066406 17.066406h-102.398437c-9.414063-.027343-17.039063-7.652343-17.070313-17.066406v-25.601563c-.066406-31.34375 24.195313-57.359374 55.46875-59.476562 1.414063-.171875 2.839844-.257812 4.265625-.257812h17.066407c15.847656-.011719 31.046874 6.28125 42.25 17.484374 11.207031 11.203126 17.496093 26.40625 17.484374 42.25zm0 0" fill="#283593"/><path d="m230.4375 460.820312v25.601563c-.027344 9.414063-7.652344 17.039063-17.066406 17.066406h-76.796875c-9.414063-.027343-17.039063-7.652343-17.070313-17.066406v-25.601563c-.066406-31.34375 24.195313-57.359374 55.46875-59.476562 31.269532 2.117188 55.535156 28.132812 55.464844 59.476562zm0 0" fill="#3f51b5"/><path d="m392.574219 460.820312v25.601563c-.03125 9.414063-7.652344 17.039063-17.070313 17.066406h-102.398437c-9.414063-.027343-17.039063-7.652343-17.066407-17.066406v-25.601563c-.070312-31.34375 24.195313-57.359374 55.464844-59.476562 1.417969-.171875 2.84375-.257812 4.269532-.257812h17.066406c15.84375-.011719 31.046875 6.28125 42.25 17.484374 11.203125 11.203126 17.496094 26.40625 17.484375 42.25zm0 0" fill="#283593"/><path d="m366.972656 460.820312v25.601563c-.027344 9.414063-7.652344 17.039063-17.066406 17.066406h-76.800781c-9.414063-.027343-17.039063-7.652343-17.066407-17.066406v-25.601563c-.070312-31.34375 24.195313-57.359374 55.464844-59.476562 31.273438 2.117188 55.539063 28.132812 55.46875 59.476562zm0 0" fill="#3f51b5"/><path d="m460.242188 102.421875c-8.882813 4.046875-19.007813 4.414063-28.160157 1.023437-13.574219-5.101562-24.5625-15.382812-30.550781-28.585937-11.945312-25.003906-5.035156-53.25 15.445312-62.976563.769532-.34375 1.621094-.683593 2.476563-1.023437 20.050781-7.679687 44.628906 4.605469 56.148437 28.671875 11.945313 25 5.121094 53.160156-15.359374 62.890625zm0 0" fill="#f57c00"/><path d="m434.640625 102.421875c-.820313.414063-1.675781.753906-2.558594 1.023437-13.574219-5.101562-24.5625-15.382812-30.550781-28.585937-11.945312-25.003906-5.035156-53.25 15.445312-62.976563.769532-.34375 1.621094-.683593 2.476563-1.023437 13.542969 5.1875 24.515625 15.480469 30.546875 28.671875 11.949219 25 5.121094 53.160156-15.359375 62.890625zm0 0" fill="#ff9801"/><path d="m36.46875 39.5c-11.917969 25.003906-5.125 53.179688 15.332031 62.929688 20.457031 9.753906 46.828125-2.609376 58.75-27.609376 11.917969-25.003906 5-53.179687-15.457031-62.929687-20.457031-9.753906-46.703125 2.609375-58.625 27.609375zm0 0" fill="#ff9801"/><path d="m230.4375 238.953125h51.203125c18.851563 0 34.132813 15.28125 34.132813 34.132813v51.203124c0 9.425782-7.640626 17.066407-17.066407 17.066407h-85.335937c-9.425782 0-17.066406-7.640625-17.066406-17.066407v-51.203124c0-18.851563 15.28125-34.132813 34.132812-34.132813zm0 0" fill="#bb193b"/><path d="m281.640625 324.289062v17.066407h-51.203125v-17.066407c0-14.140624 11.464844-25.601562 25.601562-25.601562 14.136719 0 25.601563 11.460938 25.601563 25.601562zm0 0" fill="#ad1457"/><path d="m281.640625 324.289062h-51.203125c0-14.140624 11.464844-25.601562 25.601562-25.601562 14.136719 0 25.601563 11.460938 25.601563 25.601562zm0 0" fill="#e91e63"/><path d="m352.390625 412.949219c-3.730469.003906-7.027344-2.414063-8.148437-5.96875-1.121094-3.558594.199218-7.429688 3.253906-9.5625 50.660156-36.75 80.21875-95.886719 79.210937-158.464844 0-103.515625-76.558593-187.730469-170.667969-187.730469-94.109374 0-170.667968 84.214844-170.667968 187.730469-1.007813 62.578125 28.550781 121.714844 79.210937 158.464844 3.800781 2.71875 4.707031 7.992187 2.035157 11.824219-2.675782 3.835937-7.9375 4.800781-11.804688 2.171874-55.226562-39.945312-87.515625-104.308593-86.507812-172.460937 0-112.929687 84.21875-204.800781 187.734374-204.800781 103.515626 0 187.734376 91.871094 187.734376 204.800781 1.007812 68.152344-31.277344 132.515625-86.507813 172.460937-1.429687 1-3.132813 1.535157-4.875 1.535157zm0 0"/><path d="m238.972656 512.019531h-102.398437c-14.132813-.015625-25.585938-11.464843-25.601563-25.597656v-25.601563c.042969-37.683593 30.582032-68.222656 68.265625-68.265624h17.066407c37.6875.042968 68.222656 30.582031 68.269531 68.265624v25.601563c-.015625 14.132813-11.46875 25.582031-25.601563 25.597656zm-59.734375-102.398437c-28.261719.03125-51.167969 22.933594-51.199219 51.199218v25.601563c.003907 4.710937 3.824219 8.527344 8.535157 8.53125h102.398437c4.710938-.003906 8.527344-3.820313 8.53125-8.53125v-25.601563c-.027344-28.265624-22.933594-51.167968-51.199218-51.199218zm0 0"/><path d="m256.039062 477.886719h-136.535156c-4.710937 0-8.53125-3.820313-8.53125-8.53125 0-4.714844 3.820313-8.535157 8.53125-8.535157h136.535156c4.714844 0 8.535157 3.820313 8.535157 8.535157 0 4.710937-3.820313 8.53125-8.535157 8.53125zm0 0"/><path d="m375.503906 512.019531h-102.398437c-14.132813-.015625-25.585938-11.464843-25.601563-25.597656v-25.601563c.046875-37.683593 30.582032-68.222656 68.269532-68.265624h17.066406c37.683594.042968 68.222656 30.582031 68.265625 68.265624v25.601563c-.015625 14.132813-11.46875 25.582031-25.601563 25.597656zm-59.730468-102.398437c-28.265626.03125-51.171876 22.933594-51.199219 51.199218v25.601563c.003906 4.710937 3.820312 8.527344 8.53125 8.53125h102.398437c4.714844-.003906 8.53125-3.820313 8.535156-8.53125v-25.601563c-.03125-28.265624-22.9375-51.167968-51.199218-51.199218zm0 0"/><path d="m392.574219 477.886719h-136.535157c-4.710937 0-8.535156-3.820313-8.535156-8.53125 0-4.714844 3.824219-8.535157 8.535156-8.535157h136.535157c4.710937 0 8.53125 3.820313 8.53125 8.535157 0 4.710937-3.820313 8.53125-8.53125 8.53125zm0 0"/><path d="m279.984375 99.300781c4.46875-4.988281 10.304687-8.550781 16.78125-10.242187 6.738281-1.835938 13.871094-1.589844 20.464844.707031 6.414062 2.273437 12.152343 6.125 16.691406 11.195313 2.113281 2.425781 4.027344 5.019531 5.730469 7.746093 1.425781 2.835938 2.871094 5.601563 4.035156 8.472657.484375 1.183593.078125 2.542968-.976562 3.269531-1.050782.726562-2.464844.621093-3.402344-.25l-.253906-.238281c-2.164063-2.015626-3.992188-4.179688-5.945313-6.199219-2.21875-1.71875-4.023437-3.820313-6.207031-5.359375-3.960938-3.175782-8.472656-5.597656-13.308594-7.152344-10.125-2.144531-20.65625-1.292969-30.300781 2.460938l-.382813.113281c-1.195312.363281-2.484375-.109375-3.164062-1.160157-.679688-1.046874-.582032-2.417968.238281-3.363281zm0 0"/><path d="m228.785156 103.707031c-9.644531-3.75-20.175781-4.605469-30.300781-2.457031-4.835937 1.554688-9.347656 3.976562-13.3125 7.152344-2.179687 1.535156-3.984375 3.636718-6.207031 5.355468-1.953125 2.019532-3.777344 4.183594-5.941406 6.203126l-.257813.238281c-.933594.871093-2.347656.972656-3.402344.25-1.050781-.726563-1.457031-2.085938-.976562-3.269531 1.164062-2.871094 2.613281-5.636719 4.035156-8.472657 1.703125-2.730469 3.617187-5.320312 5.730469-7.746093 4.539062-5.070313 10.277344-8.921876 16.695312-11.195313 6.589844-2.296875 13.722656-2.542969 20.460938-.707031 6.476562 1.691406 12.3125 5.253906 16.78125 10.238281.820312.945313.917968 2.316406.242187 3.363281-.679687 1.050782-1.96875 1.523438-3.164062 1.164063zm0 0"/><path d="m445.296875 114.324219c-7.355469-.0625-14.609375-1.75-21.242187-4.941407-13.335938-6.507812-24.015626-17.417968-30.242188-30.890624-13.921875-29.210938-5.179688-62.550782 19.484375-74.308594 12.695313-5.828125 27.355469-5.550782 39.816406.757812 13.3125 6.523438 23.96875 17.433594 30.175781 30.890625 6.550782 13.289063 8.339844 28.417969 5.066407 42.867188-2.898438 13.660156-11.894531 25.242187-24.417969 31.433593-5.820312 2.773438-12.191406 4.207032-18.640625 4.191407zm-13.386719-97.238281c-3.894531-.019532-7.742187.835937-11.261718 2.507812-16.175782 7.710938-21.300782 30.839844-11.4375 51.554688 4.527343 9.910156 12.335937 17.957031 22.101562 22.785156 7.867188 4.09375 17.167969 4.382812 25.277344.789062 7.859375-4.011718 13.449218-11.398437 15.183594-20.050781 2.34375-10.632813.972656-21.75-3.882813-31.496094-4.519531-9.898437-12.300781-17.941406-22.042969-22.785156-4.34375-2.113281-9.105468-3.242187-13.9375-3.304687zm0 0"/><path d="m469.371094 221.886719h-35.667969c-4.710937 0-8.535156-3.820313-8.535156-8.53125 0-4.714844 3.824219-8.535157 8.535156-8.535157h24.515625l-26.347656-97.265624c-.851563-2.960938-.046875-6.152344 2.117187-8.351563 2.160157-2.195313 5.335938-3.058594 8.3125-2.253906 2.972657.804687 5.28125 3.152343 6.042969 6.136719l29.269531 108.035156c.695313 2.5625.15625 5.308594-1.460937 7.417968-1.613282 2.113282-4.121094 3.347657-6.78125 3.347657zm0 0"/><path d="m469.371094 256.019531h-34.300782c-4.714843 0-8.535156-3.820312-8.535156-8.53125 0-4.714843 3.820313-8.535156 8.535156-8.535156h34.300782c7.917968.003906 15.390625-3.65625 20.246094-9.914063 4.851562-6.253906 6.535156-14.40625 4.5625-22.070312l-30.308594-111.609375c-1.234375-4.546875 1.449218-9.238281 6-10.472656 4.546875-1.238281 9.234375 1.449219 10.472656 5.996093l30.378906 111.871094c3.253906 12.90625.351563 26.589844-7.859375 37.0625-8.085937 10.257813-20.433593 16.230469-33.492187 16.203125zm0 0"/><path d="m66.765625 114.324219c-6.449219.015625-12.820313-1.417969-18.644531-4.191407-12.519532-6.1875-21.515625-17.773437-24.414063-31.433593-3.273437-14.449219-1.484375-29.585938 5.066407-42.871094 6.207031-13.457031 16.863281-24.367187 30.175781-30.886719 12.460937-6.3125 27.121093-6.589844 39.816406-.757812 12.523437 6.191406 21.539063 17.757812 24.480469 31.414062 3.320312 14.449219 1.554687 29.601563-5 42.898438-6.222656 13.46875-16.90625 24.382812-30.238282 30.890625-6.632812 3.1875-13.886718 4.875-21.242187 4.9375zm13.382813-97.238281c-4.832032.058593-9.589844 1.183593-13.933594 3.296874-9.742188 4.84375-17.527344 12.886719-22.042969 22.785157-4.859375 9.746093-6.230469 20.867187-3.882813 31.503906 1.734376 8.652344 7.324219 16.039063 15.183594 20.050781 8.105469 3.601563 17.410156 3.3125 25.273438-.789062 9.769531-4.828125 17.574218-12.875 22.101562-22.785156 4.855469-9.742188 6.203125-20.859376 3.824219-31.476563-1.761719-8.667969-7.378906-16.058594-15.257813-20.082031-3.519531-1.667969-7.371093-2.523438-11.265624-2.503906zm0 0"/><path d="m78.355469 221.886719h-35.667969c-2.65625 0-5.160156-1.238281-6.773438-3.347657-1.613281-2.113281-2.152343-4.855468-1.457031-7.417968l29.269531-108.03125c.757813-2.988282 3.066407-5.332032 6.042969-6.136719 2.972657-.804687 6.152344.054687 8.3125 2.253906 2.160157 2.195313 2.96875 5.386719 2.113281 8.347657l-26.355468 97.265624h24.515625c4.710937 0 8.535156 3.820313 8.535156 8.535157 0 4.710937-3.824219 8.53125-8.535156 8.53125zm0 0"/><path d="m76.996094 256.019531h-34.308594c-13.136719.003907-25.542969-6.046875-33.632812-16.398437-8.085938-10.355469-10.957032-23.855469-7.773438-36.605469l30.441406-112.132813c1.234375-4.546874 5.925782-7.234374 10.472656-5.996093 4.546876 1.234375 7.234376 5.925781 5.996094 10.472656l-30.378906 111.871094c-1.878906 7.640625-.136719 15.722656 4.71875 21.914062 4.855469 6.195313 12.289062 9.8125 20.15625 9.808594h34.308594c4.714844 0 8.535156 3.820313 8.535156 8.535156 0 4.710938-3.820312 8.53125-8.535156 8.53125zm0 0"/><path d="m298.707031 349.886719h-85.335937c-14.128906-.015625-25.582032-11.46875-25.597656-25.597657v-51.203124c.027343-23.550782 19.113281-42.636719 42.664062-42.664063h51.203125c23.550781.027344 42.636719 19.113281 42.664063 42.664063v51.203124c-.015626 14.128907-11.46875 25.582032-25.597657 25.597657zm-68.269531-102.398438c-14.128906.015625-25.582031 11.46875-25.597656 25.597657v51.203124c.003906 4.710938 3.820312 8.527344 8.53125 8.53125h85.335937c4.710938-.003906 8.527344-3.820312 8.53125-8.53125v-51.203124c-.015625-14.128907-11.46875-25.582032-25.597656-25.597657zm0 0"/><path d="m281.640625 349.886719c-4.714844 0-8.535156-3.820313-8.535156-8.53125v-17.066407c0-9.425781-7.640625-17.066406-17.066407-17.066406-9.425781 0-17.066406 7.640625-17.066406 17.066406v17.066407c0 4.710937-3.820312 8.53125-8.535156 8.53125-4.710938 0-8.53125-3.820313-8.53125-8.53125v-17.066407c0-18.851562 15.28125-34.136718 34.132812-34.136718 18.851563 0 34.132813 15.285156 34.132813 34.136718v17.066407c0 4.710937-3.820313 8.53125-8.53125 8.53125zm0 0"/><path d="m194.40625 196.355469c-15.296875.636719-29.953125-6.171875-39.332031-18.269531-2.636719-3.90625-1.605469-9.210938 2.300781-11.847657s9.210938-1.605469 11.847656 2.304688c.699219.988281 14.53125 19.417969 49.515625 5.417969 2.832031-1.128907 6.050781-.664063 8.449219 1.222656 2.394531 1.886718 3.601562 4.90625 3.164062 7.921875-.433593 3.019531-2.449218 5.574219-5.277343 6.707031-9.710938 4.117188-20.121094 6.339844-30.667969 6.542969zm0 0"/><path d="m317.671875 196.355469c-10.546875-.203125-20.953125-2.425781-30.667969-6.542969-2.828125-1.132812-4.84375-3.6875-5.277344-6.707031-.4375-3.015625.769532-6.035157 3.167969-7.921875 2.394531-1.886719 5.613281-2.351563 8.445313-1.222656 35.847656 14.34375 49.332031-5.140626 49.464844-5.339844 1.679687-2.566406 4.605468-4.039063 7.667968-3.847656 3.0625.1875 5.785156 2.003906 7.136719 4.757812s1.121094 6.019531-.605469 8.554688c-9.378906 12.097656-24.035156 18.90625-39.332031 18.269531zm0 0"/></svg>