<svg height="512pt" viewBox="0 0 512 512.01826" width="512pt" xmlns="http://www.w3.org/2000/svg"><path d="m435.109375 238.953125c.929687 65.34375-29.976563 127.0625-82.859375 165.460937l-97.28125 72.53125-12.714844-9.640624-82.6875-62.890626c-16.207031-11.371093-30.496094-25.253906-42.324218-41.132812l-22.613282-38.65625c-10.3125-23.449219-16.296875-48.570312-17.664062-74.152344-.171875-3.839844-.257813-7.679687-.257813-11.519531-.007812-8.5.503907-16.992187 1.535157-25.429687 10.839843-91.820313 79.617187-163.753907 164.867187-170.242188 4.265625-.425781 8.53125-.597656 12.796875-.597656 98.988281 0 179.203125 87.894531 179.203125 196.269531zm0 0" fill="#fec108"/><path d="m409.507812 238.953125c.929688 65.34375-29.976562 127.0625-82.859374 165.460937l-84.394532 62.890626-82.6875-62.890626c-16.207031-11.371093-30.496094-25.253906-42.324218-41.132812l-22.613282-38.65625c-10.3125-23.449219-16.296875-48.570312-17.664062-74.152344-.171875-3.839844-.257813-7.679687-.257813-11.519531-.007812-8.5.503907-16.992187 1.535157-25.429687 10.839843-91.820313 79.617187-163.753907 164.867187-170.242188 93.011719 7.082031 166.398437 91.992188 166.398437 195.671875zm0 0" fill="#ffdc00"/><path d="m137.378906 153.617188h-60.671875c-9.414062.027343-17.039062 7.652343-17.066406 17.066406.070313 9.398437 7.667969 17 17.066406 17.066406h43.351563zm0 0" fill="#3f51b5"/><path d="m374.4375 153.617188h60.671875c9.414063.027343 17.039063 7.652343 17.066406 17.066406-.070312 9.398437-7.671875 17-17.066406 17.066406h-43.351563zm0 0" fill="#3f51b5"/><path d="m471.972656 93.117188 30.378906 111.871093c2.578126 10.207031.304688 21.035157-6.167968 29.339844-6.472656 8.308594-16.414063 13.160156-26.941406 13.15625h-34.304688l-1.367188-34.132813h35.671876l-29.269532-108.03125zm0 0" fill="#ff5722"/><path d="m76.964844 250.472656-34.21875 14.675782 19.199218 48.640624-29.097656 19.199219-21.847656-55.296875c-6.863281-17.152344 1.253906-36.644531 18.261719-43.859375l44.542969-19.113281c1.421874-.597656 2.914062-1 4.4375-1.195312zm0 0" fill="#ff5722"/><path d="m255.90625 460.816406v25.601563c-.027344 9.414062-7.652344 17.039062-17.066406 17.066406h-102.398438c-9.414062-.027344-17.039062-7.652344-17.066406-17.066406v-25.601563c-.070312-31.339844 24.195312-57.359375 55.464844-59.476562 1.417968-.167969 2.84375-.253906 4.269531-.253906h17.066406c15.84375-.011719 31.042969 6.277343 42.25 17.480468 11.203125 11.207032 17.492188 26.40625 17.480469 42.25zm0 0" fill="#283593"/><path d="m230.308594 460.816406v25.601563c-.027344 9.414062-7.652344 17.039062-17.066406 17.066406h-76.800782c-9.414062-.027344-17.039062-7.652344-17.066406-17.066406v-25.601563c-.070312-31.339844 24.195312-57.359375 55.464844-59.476562 31.273437 2.117187 55.535156 28.136718 55.46875 59.476562zm0 0" fill="#3f51b5"/><path d="m392.441406 460.816406v25.601563c-.027344 9.414062-7.652344 17.039062-17.066406 17.066406h-102.402344c-9.414062-.027344-17.039062-7.652344-17.066406-17.066406v-25.601563c-.066406-31.339844 24.195312-57.359375 55.46875-59.476562 1.414062-.167969 2.839844-.253906 4.265625-.253906h17.066406c15.847657-.011719 31.046875 6.277343 42.25 17.480468 11.207031 11.207032 17.496094 26.40625 17.484375 42.25zm0 0" fill="#283593"/><path d="m366.839844 460.816406v25.601563c-.027344 9.414062-7.652344 17.039062-17.066406 17.066406h-76.800782c-9.414062-.027344-17.039062-7.652344-17.066406-17.066406v-25.601563c-.066406-31.339844 24.195312-57.359375 55.46875-59.476562 31.269531 2.117187 55.535156 28.136718 55.464844 59.476562zm0 0" fill="#3f51b5"/><path d="m105.761719 335.808594c-16.804688-22.019532-45.03125-28.722656-63.046875-14.972656s-18.996094 42.746093-2.191406 64.761718c16.804687 22.019532 45.03125 28.722656 63.046874 14.972656 18.015626-13.746093 18.996094-42.742187 2.191407-64.761718zm0 0" fill="#ff9801"/><path d="m460.109375 102.417969c-8.882813 4.046875-19.003906 4.414062-28.160156 1.023437-13.570313-5.097656-24.558594-15.382812-30.546875-28.585937-11.949219-25.003907-5.035156-53.246094 15.445312-62.976563.765625-.339844 1.621094-.683594 2.472656-1.023437 20.054688-7.679688 44.628907 4.609375 56.148438 28.671875 11.949219 25.003906 5.121094 53.164062-15.359375 62.890625zm0 0" fill="#f57c00"/><path d="m434.511719 102.417969c-.824219.414062-1.679688.757812-2.5625 1.023437-13.570313-5.097656-24.558594-15.382812-30.546875-28.585937-11.949219-25.003907-5.035156-53.246094 15.445312-62.976563.765625-.339844 1.621094-.683594 2.472656-1.023437 13.546876 5.1875 24.515626 15.480469 30.550782 28.671875 11.945312 25.003906 5.121094 53.164062-15.359375 62.890625zm0 0" fill="#ff9801"/><path d="m238.839844 196.285156c0 32.988282-26.742188 59.734375-59.730469 59.734375-32.992187 0-59.734375-26.746093-59.734375-59.734375 0-32.988281 26.742188-59.734375 59.734375-59.734375 32.988281 0 59.730469 26.746094 59.730469 59.734375zm0 0" fill="#02a9f4"/><path d="m392.441406 196.285156c0 32.988282-26.742187 59.734375-59.734375 59.734375-32.988281 0-59.734375-26.746093-59.734375-59.734375 0-32.988281 26.746094-59.734375 59.734375-59.734375 32.992188 0 59.734375 26.746094 59.734375 59.734375zm0 0" fill="#02a9f4"/><path d="m159.558594 412.945312c-1.742188 0-3.441406-.535156-4.863282-1.535156-16.960937-11.878906-31.910156-26.398437-44.28125-43.007812-1.828124-2.4375-2.21875-5.667969-1.019531-8.472656 1.195313-2.804688 3.800781-4.753907 6.824219-5.121094 3.027344-.363282 6.019531.914062 7.847656 3.355468 11.28125 15.148438 24.914063 28.402344 40.375 39.25 3.058594 2.132813 4.375 6.003907 3.257813 9.558594-1.117188 3.554688-4.414063 5.972656-8.140625 5.972656zm0 0"/><path d="m352.257812 412.945312c-3.726562.003907-7.027343-2.414062-8.144531-5.96875-1.121093-3.554687.195313-7.425781 3.253907-9.5625 50.65625-36.746093 80.21875-95.886718 79.207031-158.460937.019531-16.566406-1.957031-33.074219-5.886719-49.164063-.824219-2.992187.046875-6.195312 2.265625-8.363281s5.441406-2.960937 8.414063-2.070312c2.972656.890625 5.226562 3.328125 5.886718 6.359375 4.261719 17.421875 6.40625 35.296875 6.386719 53.238281 1.007813 68.152344-31.277344 132.515625-86.507813 172.457031-1.429687 1-3.132812 1.535156-4.875 1.535156zm0 0"/><path d="m94.632812 333.164062c-3.382812.003907-6.453124-1.996093-7.816406-5.09375-10.742187-24.386718-16.964844-50.519531-18.367187-77.132812-.1875-4.050781-.273438-8.015625-.273438-11.984375-.007812-8.851563.527344-17.695313 1.597657-26.480469 1.078124-8.972656 2.667968-17.875 4.769531-26.667968 1.089843-4.566407 5.667969-7.394532 10.242187-6.324219 4.574219 1.070312 7.421875 5.636719 6.375 10.214843-1.957031 8.179688-3.4375 16.464844-4.445312 24.8125-.992188 8.109376-1.484375 16.273438-1.472656 24.445313 0 3.710937.082031 7.421875.25 11.132813 1.296874 24.527343 7.039062 48.617187 16.941406 71.09375 1.164062 2.640624.917968 5.6875-.652344 8.105468-1.574219 2.417969-4.261719 3.875-7.148438 3.878906zm0 0"/><path d="m417.367188 162.15625c-3.382813-.003906-6.445313-1.996094-7.816407-5.089844-28.867187-65.289062-87.742187-105.847656-153.644531-105.847656-65.847656 0-124.691406 40.558594-153.554688 105.847656-1.234374 2.792969-3.863281 4.710938-6.894531 5.039063s-6.007812-.988281-7.808593-3.449219c-1.796876-2.464844-2.148438-5.699219-.914063-8.488281 31.648437-71.558594 96.46875-116.015625 169.171875-116.015625 71.660156 0 138.09375 45.535156 169.261719 116.015625 1.160156 2.640625.914062 5.6875-.660157 8.101562-1.574218 2.417969-4.257812 3.878907-7.140624 3.886719zm0 0"/><path d="m238.839844 512.019531h-102.398438c-14.132812-.015625-25.585937-11.46875-25.601562-25.601562v-25.601563c.042968-37.683594 30.582031-68.222656 68.269531-68.265625h17.066406c37.683594.042969 68.222657 30.582031 68.265625 68.265625v25.601563c-.015625 14.132812-11.46875 25.585937-25.601562 25.601562zm-59.730469-102.402343c-28.265625.03125-51.171875 22.9375-51.203125 51.199218v25.601563c.007812 4.710937 3.824219 8.53125 8.535156 8.535156h102.398438c4.710937-.003906 8.53125-3.824219 8.535156-8.535156v-25.601563c-.03125-28.261718-22.9375-51.167968-51.199219-51.199218zm0 0"/><path d="m255.90625 477.886719h-136.53125c-4.714844 0-8.535156-3.824219-8.535156-8.535157 0-4.710937 3.820312-8.535156 8.535156-8.535156h136.53125c4.714844 0 8.535156 3.824219 8.535156 8.535156 0 4.710938-3.820312 8.535157-8.535156 8.535157zm0 0"/><path d="m375.375 512.019531h-102.402344c-14.128906-.015625-25.582031-11.46875-25.597656-25.601562v-25.601563c.042969-37.683594 30.582031-68.222656 68.265625-68.265625h17.066406c37.6875.042969 68.222657 30.582031 68.265625 68.265625v25.601563c-.011718 14.132812-11.464844 25.585937-25.597656 25.601562zm-59.734375-102.402343c-28.261719.03125-51.167969 22.9375-51.199219 51.199218v25.601563c.003906 4.710937 3.820313 8.53125 8.53125 8.535156h102.402344c4.710938-.003906 8.527344-3.824219 8.53125-8.535156v-25.601563c-.03125-28.261718-22.933594-51.167968-51.199219-51.199218zm0 0"/><path d="m392.441406 477.886719h-136.535156c-4.710938 0-8.53125-3.824219-8.53125-8.535157 0-4.710937 3.820312-8.535156 8.53125-8.535156h136.535156c4.710938 0 8.53125 3.824219 8.53125 8.535156 0 4.710938-3.820312 8.535157-8.53125 8.535157zm0 0"/><path d="m81.808594 416.191406c-19.085938-.605468-36.820313-9.984375-48.066406-25.414062-9.140626-11.667969-13.980469-26.128906-13.710938-40.949219.074219-13.972656 6.519531-27.148437 17.507812-35.777344 21.726563-16.582031 55.382813-9.140625 75.007813 16.582031 19.628906 25.71875 17.925781 60.136719-3.800781 76.71875-7.753906 5.84375-17.226563 8.953126-26.9375 8.839844zm-17.183594-93.992187c-6.023438-.097657-11.910156 1.808593-16.734375 5.417969-6.878906 5.558593-10.851563 13.941406-10.800781 22.785156-.140625 10.878906 3.464844 21.476562 10.21875 30.011718 13.925781 18.25 36.847656 24.234376 51.089844 13.371094 14.242187-10.863281 14.5-34.558594.585937-52.804687v.003906c-7.980469-11.183594-20.636719-18.101563-34.359375-18.785156zm0 0"/><path d="m445.167969 114.320312c-7.359375-.0625-14.613281-1.75-21.242188-4.941406-13.335937-6.507812-24.019531-17.417968-30.242187-30.890625-13.925782-29.210937-5.183594-62.546875 19.484375-74.304687 12.691406-5.832032 27.351562-5.554688 39.816406.757812 13.308594 6.519532 23.964844 17.429688 30.175781 30.890625 6.546875 13.285157 8.335938 28.417969 5.0625 42.863281-2.898437 13.664063-11.894531 25.246094-24.414062 31.433594-5.824219 2.773438-12.191406 4.207032-18.640625 4.191406zm-13.386719-97.234374c-3.894531-.023438-7.746094.835937-11.265625 2.503906-16.175781 7.710937-21.300781 30.839844-11.433594 51.558594 4.527344 9.910156 12.332031 17.957031 22.101563 22.78125 7.867187 4.09375 17.167968 4.386718 25.273437.792968 7.859375-4.015625 13.453125-11.402344 15.183594-20.054687 2.34375-10.632813.976563-21.75-3.882813-31.496094-4.515624-9.894531-12.300781-17.941406-22.042968-22.78125-4.34375-2.117187-9.101563-3.246094-13.933594-3.304687zm0 0"/><path d="m24.917969 336.125-21.851563-55.292969c-8.597656-21.449219 1.554688-45.832031 22.832032-54.839843l44.542968-19.113282c2.175782-.914062 4.460938-1.53125 6.800782-1.828125l2 16.949219c-.742188.109375-1.472657.3125-2.164063.601562l-44.445313 19.070313c-12.753906 5.402344-18.84375 20.019531-13.695312 32.878906l21.847656 55.296875zm0 0"/><path d="m54.007812 316.921875-19.199218-48.640625c-1.699219-4.289062.324218-9.15625 4.566406-10.972656l34.226562-14.679688 6.734376 15.683594-26.613282 11.410156 16.152344 40.933594zm0 0"/><path d="m469.242188 221.886719h-35.671876c-4.710937 0-8.53125-3.824219-8.53125-8.535157 0-4.710937 3.820313-8.535156 8.53125-8.535156h24.519532l-26.347656-97.265625c-.855469-2.960937-.046876-6.152343 2.113281-8.347656 2.160156-2.199219 5.335937-3.058594 8.3125-2.253906 2.972656.804687 5.285156 3.148437 6.042969 6.136719l29.269531 108.03125c.695312 2.566406.15625 5.308593-1.457031 7.417968-1.617188 2.113282-4.125 3.351563-6.78125 3.351563zm0 0"/><path d="m469.242188 256.019531h-34.304688c-4.714844 0-8.535156-3.820312-8.535156-8.535156 0-4.710937 3.820312-8.53125 8.535156-8.53125h34.304688c7.917968 0 15.390624-3.660156 20.242187-9.914063 4.851563-6.257812 6.539063-14.40625 4.566406-22.074218l-30.308593-111.609375c-1.238282-4.546875 1.449218-9.234375 5.996093-10.472657 4.546875-1.234374 9.238281 1.449219 10.472657 5.996094l30.378906 111.875c3.257812 12.902344.355468 26.589844-7.859375 37.0625-8.082031 10.253906-20.429688 16.230469-33.488281 16.203125zm0 0"/><path d="m179.109375 264.550781c-37.703125 0-68.269531-30.5625-68.269531-68.265625s30.566406-68.265625 68.269531-68.265625c37.699219 0 68.265625 30.5625 68.265625 68.265625-.042969 37.683594-30.582031 68.222656-68.265625 68.265625zm0-119.464843c-28.277344 0-51.203125 22.921874-51.203125 51.199218s22.925781 51.199219 51.203125 51.199219 51.199219-22.921875 51.199219-51.199219c-.03125-28.265625-22.9375-51.167968-51.199219-51.199218zm0 0"/><path d="m332.707031 264.550781c-37.703125 0-68.265625-30.5625-68.265625-68.265625s30.5625-68.265625 68.265625-68.265625 68.265625 30.5625 68.265625 68.265625c-.042968 37.683594-30.578125 68.222656-68.265625 68.265625zm0-119.464843c-28.277343 0-51.199219 22.921874-51.199219 51.199218s22.921876 51.199219 51.199219 51.199219c28.277344 0 51.199219-22.921875 51.199219-51.199219-.03125-28.265625-22.933594-51.167968-51.199219-51.199218zm0 0"/><path d="m284.757812 169.320312c-2.78125.003907-5.394531-1.351562-6.992187-3.628906-4.726563-7.511718-12.980469-12.070312-21.859375-12.070312-8.875 0-17.128906 4.558594-21.855469 12.070312-2.710937 3.855469-8.03125 4.789063-11.890625 2.078125-3.855468-2.707031-4.785156-8.03125-2.078125-11.886719 7.925781-12.066406 21.390625-19.328124 35.824219-19.328124 14.4375 0 27.902344 7.261718 35.828125 19.328124 1.828125 2.605469 2.054687 6.007813.589844 8.835938-1.46875 2.824219-4.382813 4.597656-7.566407 4.601562zm0 0"/><path d="m120.058594 196.285156h-43.351563c-14.109375-.066406-25.535156-11.488281-25.597656-25.601562.015625-14.128906 11.464844-25.582032 25.597656-25.597656h60.671875c4.714844 0 8.535156 3.820312 8.535156 8.53125 0 4.714843-3.820312 8.535156-8.535156 8.535156h-60.671875c-4.710937.003906-8.527343 3.820312-8.53125 8.53125-.019531 2.226562.863281 4.363281 2.449219 5.921875 1.582031 1.671875 3.78125 2.617187 6.082031 2.613281h43.351563c4.710937 0 8.53125 3.820312 8.53125 8.53125 0 4.714844-3.820313 8.535156-8.53125 8.535156zm0 0"/><path d="m435.109375 196.285156h-43.351563c-4.710937 0-8.53125-3.820312-8.53125-8.535156 0-4.710938 3.820313-8.53125 8.53125-8.53125h43.351563c2.226563.019531 4.363281-.867188 5.921875-2.457031 1.671875-1.582031 2.617188-3.777344 2.609375-6.078125-.003906-4.710938-3.820313-8.527344-8.53125-8.53125h-60.671875c-4.714844 0-8.535156-3.820313-8.535156-8.535156 0-4.710938 3.820312-8.53125 8.535156-8.53125h60.671875c14.128906.015624 25.582031 11.46875 25.597656 25.597656-.070312 14.109375-11.488281 25.53125-25.597656 25.601562zm0 0"/><path d="m153.507812 196.285156c-3.449218 0-6.5625-2.078125-7.882812-5.269531-1.320312-3.1875-.589844-6.855469 1.851562-9.296875l17.066407-17.066406c3.347656-3.234375 8.667969-3.1875 11.960937.101562 3.292969 3.292969 3.335938 8.617188.105469 11.964844l-17.070313 17.066406c-1.597656 1.601563-3.765624 2.503906-6.03125 2.5zm0 0"/><path d="m170.574219 221.886719c-3.449219-.003907-6.5625-2.082031-7.882813-5.269531-1.320312-3.1875-.589844-6.859376 1.851563-9.296876l34.132812-34.136718c3.347657-3.230469 8.667969-3.1875 11.960938.105468 3.292969 3.292969 3.339843 8.613282.105469 11.960938l-34.132813 34.132812c-1.601563 1.605469-3.769531 2.503907-6.035156 2.503907zm0 0"/><path d="m307.109375 196.285156c-3.453125 0-6.5625-2.078125-7.882813-5.269531-1.320312-3.1875-.589843-6.855469 1.847657-9.296875l17.066406-17.066406c3.347656-3.234375 8.671875-3.1875 11.964844.101562 3.289062 3.292969 3.335937 8.617188.101562 11.964844l-17.066406 17.066406c-1.597656 1.601563-3.769531 2.503906-6.03125 2.5zm0 0"/><path d="m324.175781 221.886719c-3.453125-.003907-6.5625-2.082031-7.882812-5.269531-1.320313-3.1875-.589844-6.859376 1.847656-9.296876l34.132813-34.136718c3.351562-3.230469 8.671874-3.1875 11.964843.105468 3.289063 3.292969 3.335938 8.613282.101563 11.960938l-34.132813 34.132812c-1.597656 1.605469-3.769531 2.503907-6.03125 2.503907zm0 0"/><path d="m228.652344 103.707031c-9.644532-3.75-20.175782-4.605469-30.300782-2.460937-4.835937 1.554687-9.347656 3.980468-13.308593 7.152344-2.183594 1.539062-3.984375 3.640624-6.207031 5.359374-1.953126 2.019532-3.78125 4.179688-5.945313 6.199219l-.253906.238281c-.9375.871094-2.351563.976563-3.402344.25-1.054687-.722656-1.460937-2.082031-.980469-3.269531 1.167969-2.867187 2.613282-5.636719 4.035156-8.46875 1.703126-2.730469 3.621094-5.320312 5.734376-7.75 4.535156-5.070312 10.277343-8.917969 16.691406-11.195312 6.59375-2.296875 13.726562-2.542969 20.460937-.707031 6.476563 1.695312 12.316407 5.253906 16.78125 10.242187.820313.941406.921875 2.3125.242188 3.363281-.675781 1.046875-1.96875 1.523438-3.164063 1.164063zm0 0"/><path d="m279.855469 99.296875c4.464843-4.984375 10.304687-8.546875 16.78125-10.238281 6.734375-1.839844 13.867187-1.589844 20.460937.707031 6.414063 2.273437 12.15625 6.121094 16.691406 11.195313 2.113282 2.425781 4.03125 5.015624 5.734376 7.746093 1.421874 2.832031 2.867187 5.601563 4.035156 8.472657.480468 1.183593.074218 2.542968-.976563 3.265624-1.054687.726563-2.46875.621094-3.402343-.246093l-.257813-.238281c-2.164063-2.019532-3.988281-4.183594-5.941406-6.203126-2.21875-1.71875-4.027344-3.820312-6.207031-5.355468-3.964844-3.175782-8.476563-5.601563-13.3125-7.152344-10.125-2.148438-20.65625-1.292969-30.300782 2.457031l-.378906.117188c-1.195312.359375-2.488281-.113281-3.167969-1.160157-.679687-1.050781-.582031-2.421874.238281-3.363281zm0 0"/><path d="m255.90625 349.886719c-33.988281.015625-62.917969-24.746094-68.148438-58.332031-.664062-4.585938 2.457032-8.867188 7.027344-9.636719 4.574219-.769531 8.921875 2.25 9.796875 6.804687h.007813c.308594 1.800782 8.152344 44.09375 51.316406 44.09375 43.476562 0 51.019531-42.269531 51.320312-44.070312.816407-4.601563 5.191407-7.6875 9.804688-6.917969s7.746094 5.105469 7.027344 9.726563c-5.230469 33.585937-34.160156 58.347656-68.152344 58.332031zm0 0"/><path d="m255.90625 384.019531c-27.730469 0-38.324219-9.191406-40.164062-11.035156-3.28125-3.296875-3.316407-8.617187-.078126-11.957031 3.238282-3.339844 8.554688-3.472656 11.953126-.296875.480468.394531 8.03125 6.222656 28.289062 6.222656 20.859375 0 28.246094-6.179687 28.320312-6.242187 3.488282-3.035157 8.742188-2.800782 11.945313.535156 3.160156 3.292968 3.113281 8.503906-.101563 11.738281-1.835937 1.84375-12.429687 11.035156-40.164062 11.035156zm0 0"/></svg>