<svg height="512pt" viewBox="0 0 512 512.00175" width="512pt" xmlns="http://www.w3.org/2000/svg"><path d="m76.957031 250.457031-34.21875 14.675781 19.199219 48.640626-29.097656 19.199218-21.847656-55.296875c-6.863282-17.152343 1.25-36.648437 18.261718-43.859375l44.542969-19.117187c1.421875-.59375 2.914063-.996094 4.4375-1.195313zm0 0" fill="#ff5722"/><path d="m471.964844 93.101562 30.378906 111.871094c2.578125 10.207032.300781 21.035156-6.167969 29.339844-6.472656 8.304688-16.414062 13.160156-26.941406 13.15625h-34.304687l-1.367188-34.132812h35.671875l-29.269531-108.03125zm0 0" fill="#ff5722"/><path d="m435.101562 238.933594c.925782 65.347656-29.976562 127.0625-82.859374 165.460937l-97.28125 72.535157-12.714844-9.644532-82.6875-62.890625c-16.207032-11.367187-30.496094-25.253906-42.324219-41.128906l-22.613281-38.65625c-10.3125-23.449219-16.296875-48.574219-17.664063-74.152344-.171875-3.84375-.257812-7.683593-.257812-11.523437-.007813-8.5.503906-16.992188 1.535156-25.429688 10.839844-91.816406 79.617187-163.753906 164.867187-170.238281 4.265626-.425781 8.53125-.597656 12.796876-.597656 98.988281 0 179.203124 87.894531 179.203124 196.265625zm0 0" fill="#fec108"/><path d="m409.5 238.933594c.929688 65.347656-29.976562 127.0625-82.859375 165.460937l-84.394531 62.890625-82.6875-62.890625c-16.207032-11.367187-30.496094-25.253906-42.324219-41.128906l-22.613281-38.65625c-10.3125-23.449219-16.296875-48.574219-17.664063-74.152344-.171875-3.84375-.257812-7.683593-.257812-11.523437-.007813-8.5.503906-16.992188 1.535156-25.429688 10.839844-91.816406 79.617187-163.753906 164.867187-170.238281 93.011719 7.082031 166.398438 91.988281 166.398438 195.667969zm0 0" fill="#ffdc00"/><path d="m255.898438 460.800781v25.601563c-.027344 9.414062-7.652344 17.039062-17.066407 17.066406h-102.398437c-9.414063-.027344-17.039063-7.652344-17.066406-17.066406v-25.601563c-.070313-31.34375 24.195312-57.359375 55.464843-59.476562 1.417969-.171875 2.839844-.253907 4.269531-.253907h17.066407c15.84375-.011718 31.042969 6.277344 42.25 17.480469 11.203125 11.203125 17.492187 26.40625 17.480469 42.25zm0 0" fill="#283593"/><path d="m230.300781 460.800781v25.601563c-.027343 9.414062-7.652343 17.039062-17.066406 17.066406h-76.800781c-9.414063-.027344-17.039063-7.652344-17.066406-17.066406v-25.601563c-.070313-31.34375 24.195312-57.359375 55.464843-59.476562 31.273438 2.117187 55.535157 28.132812 55.46875 59.476562zm0 0" fill="#3f51b5"/><path d="m392.433594 460.800781v25.601563c-.027344 9.414062-7.652344 17.039062-17.066406 17.066406h-102.402344c-9.414063-.027344-17.039063-7.652344-17.066406-17.066406v-25.601563c-.066407-31.34375 24.195312-57.359375 55.46875-59.476562 1.414062-.171875 2.839843-.253907 4.265624-.253907h17.066407c15.847656-.011718 31.046875 6.277344 42.25 17.480469 11.207031 11.203125 17.496093 26.40625 17.484375 42.25zm0 0" fill="#283593"/><path d="m366.832031 460.800781v25.601563c-.027343 9.414062-7.652343 17.039062-17.066406 17.066406h-76.800781c-9.414063-.027344-17.039063-7.652344-17.066406-17.066406v-25.601563c-.066407-31.34375 24.195312-57.359375 55.46875-59.476562 31.269531 2.117187 55.535156 28.132812 55.464843 59.476562zm0 0" fill="#3f51b5"/><path d="m105.753906 335.792969c-16.804687-22.019531-45.03125-28.722657-63.046875-14.972657s-18.996093 42.742188-2.191406 64.761719 45.03125 28.722657 63.046875 14.972657 18.996094-42.746094 2.191406-64.761719zm0 0" fill="#ff9801"/><path d="m471.964844 93.101562c-3.214844 3.941407-7.265625 7.117188-11.863282 9.300782-6.273437 2.953125-13.285156 3.960937-20.136718 2.902344-2.707032-.34375-5.367188-.972657-7.9375-1.878907-1.960938-.621093-3.875-1.390625-5.71875-2.304687l-30.207032-43.433594c-3.890624-18.171875 4.519532-36.753906 20.738282-45.824219.765625-.339843 1.621094-.683593 2.472656-1.023437 20.054688-7.679688 44.628906 4.605468 56.148438 28.671875 9.113281 17.074219 7.757812 37.84375-3.496094 53.589843zm0 0" fill="#f57c00"/><path d="m446.363281 93.101562c-3.214843 3.941407-7.265625 7.117188-11.859375 9.300782-.804687.390625-1.628906.734375-2.476562 1.023437-1.960938-.621093-3.875-1.390625-5.71875-2.304687l-30.207032-43.433594c-3.890624-18.171875 4.519532-36.753906 20.738282-45.824219.765625-.339843 1.621094-.683593 2.472656-1.023437 13.546875 5.1875 24.515625 15.480468 30.550781 28.671875 9.113281 17.074219 7.757813 37.84375-3.5 53.589843zm0 0" fill="#ff9801"/><path d="m221.765625 166.402344c0-21.207032-7.640625-38.402344-17.066406-38.402344s-17.066407 17.195312-17.066407 38.402344c0 21.207031 7.640626 38.398437 17.066407 38.398437s17.066406-17.191406 17.066406-38.398437zm0 0" fill="#35495e"/><path d="m214.179688 149.335938c0-11.78125-4.242188-21.335938-9.480469-21.335938-5.234375 0-9.480469 9.554688-9.480469 21.335938s4.246094 21.332031 9.480469 21.332031c5.238281 0 9.480469-9.550781 9.480469-21.332031zm0 0" fill="#f5f5f5"/><path d="m324.167969 166.402344c0-21.207032-7.644531-38.402344-17.066407-38.402344-9.425781 0-17.070312 17.195312-17.070312 38.402344 0 21.207031 7.644531 38.398437 17.070312 38.398437 9.421876 0 17.066407-17.191406 17.066407-38.398437zm0 0" fill="#35495e"/><path d="m316.582031 149.335938c0-11.78125-4.246093-21.335938-9.480469-21.335938-5.238281 0-9.484374 9.554688-9.484374 21.335938s4.246093 21.332031 9.484374 21.332031c5.234376 0 9.480469-9.550781 9.480469-21.332031zm0 0" fill="#f5f5f5"/><path d="m204.699219 256h102.402343c4.710938 0 8.53125 3.820312 8.53125 8.535156v17.066406c0 32.988282-26.742187 59.734376-59.734374 59.734376-32.988282 0-59.730469-26.746094-59.730469-59.734376v-17.066406c0-4.714844 3.820312-8.535156 8.53125-8.535156zm0 0" fill="#bb193b"/><path d="m155.804688 62.125-36.609376 61.183594-14.421874-9.128906-45.824219-29.101563c-16.164063-10.414063-21.210938-31.738281-11.433594-48.296875 4.648437-7.835938 12.285156-13.441406 21.152344-15.535156 8.867187-2.089844 18.203125-.488282 25.867187 4.441406l1.792969 1.109375 1.023437-1.792969c7.710938-13.035156 23.199219-19.292968 37.800782-15.273437 3.265625.878906 6.375 2.261719 9.214844 4.09375 16.164062 10.417969 21.214843 31.742187 11.4375 48.300781zm0 0" fill="#bb193b"/><path d="m141.039062 53.589844-36.265624 60.589844-45.824219-29.101563c-16.164063-10.414063-21.210938-31.738281-11.433594-48.296875 4.648437-7.835938 12.285156-13.441406 21.152344-15.535156 8.867187-2.089844 18.203125-.488282 25.867187 4.441406l1.792969 1.109375 1.023437-1.792969c7.710938-13.035156 23.199219-19.292968 37.800782-15.273437 11.867187 11.5 14.304687 29.636719 5.886718 43.859375zm0 0" fill="#ef314c"/><path d="m427.675781 100.097656-38.398437 27.902344-7.851563-11.433594-19.03125-27.648437c-7.167969-10.617188-4.683593-25 5.632813-32.597657 6.242187-4.582031 14.425781-5.585937 21.589844-2.644531 4.09375 1.628907 7.605468 4.453125 10.070312 8.105469l.765625 1.109375 1.109375-.765625c6.261719-4.628906 14.488281-5.632812 21.675781-2.644531 4.0625 1.683593 7.554688 4.496093 10.070313 8.105469 7.164062 10.589843 4.675781 24.949218-5.632813 32.511718zm0 0" fill="#bb193b"/><path d="m416.839844 90.710938-35.414063 25.855468-19.03125-27.648437c-7.167969-10.617188-4.683593-25 5.632813-32.597657 6.242187-4.582031 14.425781-5.585937 21.589844-2.644531 4.09375 1.628907 7.605468 4.453125 10.070312 8.105469l.765625 1.109375 1.109375-.765625c6.261719-4.628906 14.488281-5.632812 21.675781-2.644531 6.234375 10.503906 3.464844 24.027343-6.398437 31.230469zm0 0" fill="#ef314c"/><path d="m85.234375 51.203125c0 9.425781-7.640625 17.066406-17.066406 17.066406s-17.066407-7.640625-17.066407-17.066406 7.640626-17.066406 17.066407-17.066406 17.066406 7.640625 17.066406 17.066406zm0 0" fill="#f5f5f5"/><path d="m383.898438 68.269531c0 4.710938-3.820313 8.53125-8.53125 8.53125-4.714844 0-8.535157-3.820312-8.535157-8.53125 0-4.714843 3.820313-8.535156 8.535157-8.535156 4.710937 0 8.53125 3.820313 8.53125 8.535156zm0 0" fill="#f5f5f5"/><path d="m302.148438 319.320312c-11.3125 13.929688-28.304688 22.015626-46.25 22.015626-17.945313 0-34.933594-8.085938-46.25-22.015626 8.503906-17.832031 26.496093-29.1875 46.25-29.1875 19.753906 0 37.75 11.355469 46.25 29.1875zm0 0" fill="#e91e63"/><path d="m159.550781 412.929688c-1.742187 0-3.441406-.535157-4.863281-1.535157-16.960938-11.882812-31.910156-26.402343-44.28125-43.007812-1.828125-2.441407-2.21875-5.667969-1.019531-8.472657 1.195312-2.804687 3.796875-4.753906 6.824219-5.121093 3.027343-.363281 6.019531.914062 7.847656 3.351562 11.28125 15.152344 24.914062 28.40625 40.375 39.253907 3.054687 2.132812 4.375 6.003906 3.257812 9.558593-1.117187 3.554688-4.414062 5.972657-8.140625 5.972657zm0 0"/><path d="m352.25 412.929688c-3.726562.003906-7.027344-2.414063-8.148438-5.96875-1.117187-3.558594.199219-7.429688 3.257813-9.5625 48.269531-35.082032 77.484375-90.613282 79.046875-150.265626.074219-2.652343.160156-5.382812.160156-8.199218.007813-8.207032-.480468-16.410156-1.46875-24.5625-3.683594-31.773438-15.019531-62.179688-33.03125-88.609375-2.574218-3.878907-1.5625-9.105469 2.269532-11.746094 3.832031-2.640625 9.070312-1.722656 11.78125 2.0625 19.582031 28.703125 31.910156 61.730469 35.925781 96.25 1.066406 8.828125 1.601562 17.714844 1.589843 26.605469 0 2.988281-.085937 5.890625-.171874 8.789062-1.765626 65.015625-33.675782 125.503906-86.335938 163.671875-1.429688 1-3.132812 1.535157-4.875 1.535157zm0 0"/><path d="m94.625 333.148438c-3.386719.003906-6.453125-1.996094-7.816406-5.09375-10.742188-24.386719-16.964844-50.519532-18.367188-77.132813-.191406-4.050781-.273437-8.015625-.273437-11.988281-.007813-8.847656.523437-17.691406 1.597656-26.476563 4.035156-35.078125 16.679687-68.613281 36.808594-97.621093 1.734375-2.53125 4.695312-3.9375 7.75-3.683594 3.058593.257812 5.742187 2.132812 7.03125 4.917968 1.292969 2.785157.988281 6.046876-.792969 8.542969-23.023438 33.679688-35.335938 73.527344-35.328125 114.320313 0 3.714844.082031 7.425781.25 11.136718 1.296875 24.527344 7.039063 48.617188 16.941406 71.09375 1.164063 2.636719.917969 5.6875-.65625 8.105469-1.570312 2.417969-4.261719 3.875-7.144531 3.878907zm0 0"/><path d="m138.933594 98.839844c-3.441406.003906-6.546875-2.058594-7.871094-5.230469-1.324219-3.175781-.609375-6.835937 1.8125-9.277344l.085938-.085937c33.027343-31.867188 77.046874-49.808594 122.9375-50.109375 39.066406.039062 77 13.128906 107.777343 37.1875 3.652344 2.898437 4.300781 8.195312 1.453125 11.890625-2.847656 3.695312-8.132812 4.417968-11.871094 1.625-27.796874-21.746094-62.0625-33.585938-97.359374-33.636719-41.449219.292969-81.203126 16.503906-111.039063 45.28125-1.601563 1.511719-3.722656 2.355469-5.925781 2.355469zm0 0"/><path d="m238.832031 512h-102.398437c-14.132813-.015625-25.585938-11.464844-25.601563-25.597656v-25.601563c.042969-37.683593 30.582031-68.222656 68.269531-68.265625h17.066407c37.683593.042969 68.222656 30.582032 68.265625 68.265625v25.601563c-.015625 14.132812-11.46875 25.582031-25.601563 25.597656zm-59.730469-102.398438c-28.265624.03125-51.171874 22.9375-51.203124 51.199219v25.601563c.003906 4.710937 3.824218 8.527344 8.535156 8.53125h102.398437c4.710938-.003906 8.53125-3.820313 8.535157-8.53125v-25.601563c-.03125-28.261719-22.9375-51.167969-51.199219-51.199219zm0 0"/><path d="m255.898438 477.867188h-136.53125c-4.714844 0-8.535157-3.820313-8.535157-8.53125 0-4.714844 3.820313-8.535157 8.535157-8.535157h136.53125c4.714843 0 8.535156 3.820313 8.535156 8.535157 0 4.710937-3.820313 8.53125-8.535156 8.53125zm0 0"/><path d="m375.367188 512h-102.402344c-14.128906-.015625-25.582032-11.464844-25.597656-25.597656v-25.601563c.042968-37.683593 30.582031-68.222656 68.265624-68.265625h17.066407c37.683593.042969 68.222656 30.582032 68.265625 68.265625v25.601563c-.015625 14.132812-11.464844 25.582031-25.597656 25.597656zm-59.734376-102.398438c-28.265624.03125-51.167968 22.9375-51.199218 51.199219v25.601563c.003906 4.710937 3.820312 8.527344 8.53125 8.53125h102.402344c4.710937-.003906 8.527343-3.820313 8.53125-8.53125v-25.601563c-.03125-28.261719-22.933594-51.167969-51.199219-51.199219zm0 0"/><path d="m392.433594 477.867188h-136.535156c-4.710938 0-8.53125-3.820313-8.53125-8.53125 0-4.714844 3.820312-8.535157 8.53125-8.535157h136.535156c4.710937 0 8.53125 3.820313 8.53125 8.535157 0 4.710937-3.820313 8.53125-8.53125 8.53125zm0 0"/><path d="m81.800781 416.175781c-19.085937-.609375-36.820312-9.984375-48.066406-25.414062-9.140625-11.671875-13.984375-26.132813-13.710937-40.953125.070312-13.96875 6.519531-27.144532 17.507812-35.773438 21.726562-16.582031 55.375-9.140625 75.007812 16.578125 19.628907 25.722657 17.925782 60.140625-3.800781 76.722657-7.753906 5.84375-17.226562 8.953124-26.9375 8.839843zm-17.183593-93.996093c-6.023438-.09375-11.910157 1.8125-16.734376 5.421874-6.878906 5.554688-10.851562 13.941407-10.800781 22.785157-.140625 10.878906 3.464844 21.476562 10.21875 30.011719 13.921875 18.25 36.839844 24.234374 51.089844 13.371093s14.5-34.558593.585937-52.804687v.003906c-7.980468-11.183594-20.636718-18.105469-34.359374-18.789062zm0 0"/><path d="m445.316406 114.230469c-2.207031 0-4.414062-.164063-6.601562-.488281-5.59375-.777344-11.027344-2.441407-16.097656-4.925782-2.808594-1.285156-4.703126-3.984375-4.953126-7.058594-.253906-3.078124 1.171876-6.050781 3.730469-7.777343 2.558594-1.726563 5.847657-1.9375 8.605469-.550781 3.480469 1.71875 7.214844 2.867187 11.058594 3.410156 5.230468.839844 10.589844.089844 15.390625-2.152344 3.46875-1.636719 6.523437-4.035156 8.933593-7.019531 9.074219-13.207031 9.996094-30.382813 2.382813-44.484375-9.898437-20.6875-31.074219-31.316406-47.265625-23.609375-12.777344 7.519531-19.226562 22.4375-15.949219 36.898437.667969 4.664063-2.570312 8.992188-7.234375 9.660156-4.667968.671876-8.992187-2.570312-9.660156-7.234374-4.414062-21.875 5.941406-44.070313 25.535156-54.746094 24.640625-11.722656 56.023438 2.503906 69.976563 31.679687 10.605469 20.042969 8.820312 44.386719-4.59375 62.675781-8.148438 9.984376-20.367188 15.761719-33.257813 15.722657zm0 0"/><path d="m24.910156 336.109375-21.851562-55.296875c-8.601563-21.445312 1.554687-45.828125 22.832031-54.835938l44.542969-19.113281c2.175781-.917969 4.460937-1.53125 6.800781-1.832031l2 16.953125c-.746094.105469-1.472656.308594-2.167969.601563l-44.441406 19.070312c-12.753906 5.402344-18.84375 20.019531-13.695312 32.878906l21.847656 55.296875zm0 0"/><path d="m54 316.90625-19.199219-48.640625c-1.699219-4.292969.324219-9.15625 4.566407-10.972656l34.226562-14.679688 6.734375 15.683594-26.613281 11.410156 16.152344 40.933594zm0 0"/><path d="m469.234375 221.867188h-35.671875c-4.710938 0-8.53125-3.820313-8.53125-8.53125 0-4.714844 3.820312-8.535157 8.53125-8.535157h24.519531l-26.347656-97.265625c-.855469-2.960937-.046875-6.152344 2.113281-8.347656 2.160156-2.199219 5.335938-3.0625 8.3125-2.257812 2.972656.804687 5.285156 3.152343 6.042969 6.136718l29.269531 108.035156c.695313 2.5625.15625 5.308594-1.460937 7.417969-1.613281 2.113281-4.121094 3.351563-6.777344 3.347657zm0 0"/><path d="m469.234375 256h-34.304687c-4.714844 0-8.535157-3.820312-8.535157-8.53125 0-4.714844 3.820313-8.535156 8.535157-8.535156h34.304687c7.917969.003906 15.390625-3.65625 20.242187-9.914063 4.851563-6.253906 6.535157-14.402343 4.566407-22.070312l-30.308594-111.609375c-1.238281-4.546875 1.449219-9.238282 5.996094-10.472656 4.546875-1.234376 9.234375 1.449218 10.472656 5.996093l30.378906 111.871094c3.253907 12.90625.355469 26.589844-7.859375 37.0625-8.082031 10.257813-20.429687 16.230469-33.488281 16.203125zm0 0"/><path d="m204.699219 213.335938c-16.808594 0-25.597657-23.613282-25.597657-46.933594 0-23.320313 8.789063-46.933594 25.597657-46.933594 16.8125 0 25.601562 23.613281 25.601562 46.933594 0 23.320312-8.789062 46.933594-25.601562 46.933594zm-.171875-76.820313c-2.046875.773437-8.359375 11.140625-8.359375 29.886719s6.308593 29.113281 8.703125 29.886718c2.046875-.773437 8.363281-11.140624 8.363281-29.886718s-6.308594-29.113282-8.707031-29.886719zm0 0"/><path d="m307.101562 213.335938c-16.8125 0-25.601562-23.613282-25.601562-46.933594 0-23.320313 8.789062-46.933594 25.601562-46.933594 16.808594 0 25.597657 23.613281 25.597657 46.933594 0 23.320312-8.789063 46.933594-25.597657 46.933594zm-.171874-76.820313c-2.046876.773437-8.363282 11.140625-8.363282 29.886719s6.308594 29.113281 8.703125 29.886718c2.046875-.773437 8.363281-11.140624 8.363281-29.886718s-6.308593-29.113282-8.703124-29.886719zm0 0"/><path d="m228.644531 96.074219c-9.644531-3.75-20.175781-4.605469-30.296875-2.460938-4.839844 1.554688-9.347656 3.976563-13.3125 7.152344-2.183594 1.539063-3.984375 3.640625-6.207031 5.359375-1.953125 2.019531-3.78125 4.179688-5.945313 6.199219l-.253906.238281c-.933594.871094-2.351562.976562-3.402344.25-1.054687-.722656-1.460937-2.082031-.980468-3.265625 1.167968-2.871094 2.613281-5.640625 4.039062-8.476563 1.699219-2.726562 3.617188-5.320312 5.730469-7.746093 4.539063-5.070313 10.277344-8.917969 16.691406-11.195313 6.59375-2.296875 13.726563-2.542968 20.464844-.707031 6.476563 1.695313 12.3125 5.253906 16.78125 10.242187.820313.941407.917969 2.3125.238281 3.363282-.675781 1.046875-1.964844 1.523437-3.164062 1.164062zm0 0"/><path d="m279.847656 91.664062c4.464844-4.988281 10.300782-8.546874 16.78125-10.242187 6.734375-1.835937 13.867188-1.585937 20.460938.707031 6.414062 2.277344 12.152344 6.125 16.691406 11.195313 2.113281 2.429687 4.03125 5.019531 5.734375 7.75 1.421875 2.832031 2.867187 5.601562 4.035156 8.472656.480469 1.183594.074219 2.542969-.976562 3.265625-1.054688.726562-2.46875.621094-3.402344-.246094l-.257813-.242187c-2.164062-2.015625-3.992187-4.179688-5.941406-6.199219-2.21875-1.71875-4.027344-3.820312-6.207031-5.355469-3.964844-3.175781-8.476563-5.601562-13.3125-7.152343-10.125-2.148438-20.65625-1.292969-30.300781 2.457031l-.378906.117187c-1.195313.359375-2.484376-.113281-3.164063-1.164062-.679687-1.046875-.582031-2.417969.234375-3.359375zm0 0"/><path d="m230.300781 221.867188c-2.265625.003906-4.4375-.894532-6.035156-2.5-5.597656-4.269532-12.535156-6.40625-19.566406-6.03125-7.078125-.382813-14.058594 1.792968-19.667969 6.128906-3.40625 3.191406-8.742188 3.082031-12.015625-.25-3.25-3.316406-3.226563-8.625.050781-11.914063 8.746094-7.582031 20.066406-11.53125 31.632813-11.03125 11.566406-.5 22.886719 3.449219 31.632812 11.03125 2.441407 2.441407 3.171875 6.113281 1.851563 9.300781-1.324219 3.1875-4.433594 5.265626-7.882813 5.265626zm0 0"/><path d="m332.699219 221.867188c-2.261719.003906-4.433594-.894532-6.03125-2.5-5.601563-4.269532-12.535157-6.40625-19.566407-6.03125-7.082031-.382813-14.058593 1.792968-19.667968 6.128906-3.410156 3.191406-8.742188 3.082031-12.015625-.25-3.25-3.316406-3.226563-8.625.046875-11.914063 8.75-7.582031 20.066406-11.53125 31.636718-11.03125 11.566407-.5 22.882813 3.449219 31.632813 11.03125 2.4375 2.441407 3.167969 6.113281 1.847656 9.300781-1.320312 3.1875-4.429687 5.265626-7.882812 5.265626zm0 0"/><path d="m256 384c-12.796875.019531-25.480469-2.386719-37.375-7.097656-4.339844-1.765625-6.445312-6.695313-4.71875-11.046875 1.722656-4.351563 6.632812-6.503907 11-4.820313 19.898438 7.800782 41.996094 7.835938 61.917969.101563 2.839843-1.113281 6.054687-.628907 8.4375 1.273437 2.382812 1.902344 3.570312 4.929688 3.113281 7.945313-.453125 3.015625-2.484375 5.558593-5.320312 6.671875-11.808594 4.625-24.375 6.992187-37.054688 6.972656zm0 0"/><path d="m255.898438 349.867188c-37.683594-.042969-68.222657-30.582032-68.265626-68.265626v-17.066406c.011719-9.421875 7.644532-17.054687 17.066407-17.066406h102.402343c9.417969.011719 17.054688 7.644531 17.066407 17.066406v17.066406c-.046875 37.683594-30.582031 68.222657-68.269531 68.265626zm-51.199219-85.332032v17.066406c0 28.277344 22.921875 51.199219 51.199219 51.199219 28.277343 0 51.203124-22.921875 51.203124-51.199219v-17.066406zm0 0"/><path d="m302.15625 327.851562c-3.242188.003907-6.207031-1.832031-7.648438-4.738281-7.0625-14.925781-22.09375-24.445312-38.609374-24.445312-16.511719 0-31.546876 9.519531-38.605469 24.445312-2.117188 4.183594-7.214844 5.875-11.414063 3.789063-4.195312-2.085938-5.925781-7.167969-3.871094-11.382813 9.945313-20.730469 30.898438-33.921875 53.890626-33.921875 22.996093 0 43.949218 13.191406 53.894531 33.921875 1.007812 2.027344 1.167969 4.371094.445312 6.515625-.722656 2.144532-2.269531 3.914063-4.296875 4.917969-1.171875.589844-2.46875.898437-3.785156.898437zm0 0"/><path d="m119.167969 131.820312c-1.621094 0-3.207031-.460937-4.578125-1.332031l-60.171875-38.238281c-20.027344-12.894531-26.292969-39.304688-14.191407-59.820312 10.894532-18.410157 33.882813-25.695313 53.390626-16.917969 13.496093-16.597657 37.308593-20.40625 55.308593-8.847657 20.015625 12.902344 26.273438 39.308594 14.175781 59.820313l-36.609374 61.183594c-1.542969 2.574219-4.324219 4.148437-7.324219 4.148437zm-42.785157-102.945312c-8.84375.007812-17.019531 4.691406-21.503906 12.316406-7.421875 12.566406-3.585937 28.75 8.6875 36.652344l52.773438 33.535156 32.109375-53.660156c7.417969-12.566406 3.582031-28.75-8.683594-36.652344-5.710937-3.695312-12.6875-4.898437-19.304687-3.328125-6.621094 1.566407-12.316407 5.773438-15.761719 11.636719l-1.101563 1.824219c-1.183594 1.964843-3.109375 3.371093-5.339844 3.898437-2.234374.527344-4.585937.136719-6.523437-1.089844l-1.777344-1.121093c-4.046875-2.605469-8.757812-3.996094-13.574219-4.011719zm0 0"/><path d="m389.300781 136.535156c-.484375 0-.964843-.042968-1.441406-.121094-2.269531-.394531-4.285156-1.683593-5.59375-3.578124l-26.878906-39.121094c-9.765625-14.402344-6.410157-33.945313 7.597656-44.265625 11.992187-8.800781 28.554687-7.78125 39.378906 2.417969 13.605469-6.007813 29.566407-1.445313 37.9375 10.855468 9.765625 14.398438 6.410157 33.941406-7.601562 44.261719l-38.382813 27.921875c-1.457031 1.058594-3.214844 1.632812-5.015625 1.628906zm-8.085937-75.996094c-2.949219.007813-5.816406.957032-8.191406 2.707032-6.585938 4.847656-8.164063 14.03125-3.574219 20.800781l21.917969 31.894531 31.296874-22.765625c6.582032-4.847656 8.15625-14.03125 3.566407-20.796875-2.097657-3.117187-5.382813-5.242187-9.085938-5.875-3.707031-.636718-7.511719.269532-10.527343 2.511719l-1.117188.8125c-1.855469 1.355469-4.179688 1.90625-6.445312 1.527344-2.269532-.382813-4.285157-1.660157-5.597657-3.546875l-.800781-1.148438c-2.554688-3.820312-6.84375-6.117187-11.441406-6.121094zm0 0"/></svg>