<svg height="512pt" viewBox="0 0 512.0112 512" width="512pt" xmlns="http://www.w3.org/2000/svg"><path d="m247.476562 8.554688c-101.269531-.015626-190.675781 66.109374-220.3125 162.949218-29.640624 96.839844 7.441407 201.675782 91.375 258.34375h.085938l69.121094 48.042969v8.53125c.027344 9.414063 7.652344 17.039063 17.066406 17.066406h145.066406c9.414063-.027343 17.039063-7.652343 17.066406-17.066406v-50.429687c.765626-.511719 1.535157-.941407 2.304688-1.453126 3.753906-2.386718 7.507812-4.863281 11.09375-7.421874.007812.089843.039062.175781.082031.253906 1.058594 2.222656 2.570313 4.199218 4.4375 5.804687.597657.597657 1.28125 1.277344 1.964844 1.875 1.257813 1.097657 2.597656 2.097657 4.007813 2.988281.6875.5625 1.429687 1.046876 2.21875 1.449219.800781.449219 1.628906.847657 2.476562 1.195313.691406.335937 1.402344.621094 2.132812.855468 1.109376.425782 2.21875.765626 3.328126 1.109376 2.8125.75 5.710937 1.121093 8.617187 1.109374 9.707031.011719 18.960937-4.117187 25.429687-11.351562 43.410157-48.574219 67.726563-111.242188 68.4375-176.382812 1.023438-76.800782-51.199218-247.46875-256-247.46875zm0 0" fill="#f0c419"/><path d="m78.007812 395.03125c-3.160156 4.011719-6.488281 7.933594-9.902343 11.777344-12.605469 13.945312-34.113281 15.078125-48.113281 2.535156-14-12.546875-15.226563-34.050781-2.742188-48.105469 7.546875-8.453125 14.371094-17.53125 20.394531-27.136719zm0 0" fill="#ff9801"/><path d="m503.476562 256.023438c-.710937 65.140624-25.027343 127.808593-68.4375 176.382812-6.46875 7.234375-15.722656 11.363281-25.429687 11.351562-2.90625.011719-5.804687-.359374-8.617187-1.109374-1.109376-.34375-2.21875-.683594-3.328126-1.109376-.730468-.234374-1.441406-.519531-2.132812-.855468-.847656-.347656-1.675781-.746094-2.476562-1.195313-.789063-.402343-1.53125-.886719-2.21875-1.449219-1.410157-.890624-2.75-1.890624-4.007813-2.988281-.683594-.597656-1.367187-1.277343-1.964844-1.875-1.867187-1.605469-3.378906-3.582031-4.4375-5.804687-.042969-.078125-.074219-.164063-.082031-.253906-3.585938 2.558593-7.339844 5.035156-11.09375 7.421874-.769531.511719-1.539062.941407-2.304688 1.453126-20.9375 12.726562-43.785156 22.003906-67.671874 27.476562h-.253907l-.339843-2.644531c-8.617188-20.695313-28.789063-34.210938-51.203126-34.304688h-8.53125c-20.351562.027344-38.765624 12.078125-46.933593 30.71875-.6875 1.617188-1.285157 3.269531-1.792969 4.949219-1.648438 5.042969-2.484375 10.3125-2.472656 15.617188v.085937l-69.121094-48.042969h-.085938c-83.933593-56.667968-121.015624-161.503906-91.375-258.34375 29.636719-96.839844 119.042969-162.964844 220.3125-162.949218 204.800782 0 257.023438 170.667968 256 247.46875zm0 0" fill="#ffdc00"/><path d="m380.34375 427.117188c-3.585938 2.558593-7.339844 5.035156-11.09375 7.421874-13.527344-12.691406-14.472656-33.851562-2.136719-47.699218 26.3125-29.355469 43.144531-65.972656 48.292969-105.054688 1.207031-9.3125 9.132812-16.285156 18.523438-16.289062-2.128907 44.964844-19.699219 87.820312-49.746094 121.34375-9.945313 11.144531-11.5 27.453125-3.839844 40.277344zm0 0" fill="#fec108"/><path d="m192.011719 457.238281c-8.152344-18.652343-26.578125-30.703125-46.933594-30.695312h-8.535156c-28.292969.046875-51.203125 23.003906-51.199219 51.296875v8.550781c.019531 9.421875 7.644531 17.0625 17.066406 17.097656h145.066406zm0 0" fill="#3f51b5"/><path d="m366.945312 435.992188v50.429687c-.027343 9.414063-7.652343 17.039063-17.066406 17.066406h-145.066406c-9.414062-.027343-17.039062-7.652343-17.066406-17.066406v-8.617187c-.011719-5.304688.824218-10.574219 2.472656-15.617188.507812-1.679688 1.105469-3.332031 1.792969-4.949219 8.167969-18.640625 26.582031-30.691406 46.933593-30.71875h8.53125c22.414063.09375 42.585938 13.609375 51.203126 34.304688l.59375 2.644531c23.886718-5.472656 46.734374-14.75 67.671874-27.476562zm0 0" fill="#3f51b5"/><path d="m380.425781 427.371094c1.300781 2.066406 2.785157 4.007812 4.4375 5.804687-1.867187-1.605469-3.378906-3.582031-4.4375-5.804687zm0 0" fill="#f0c419"/><path d="m366.945312 435.992188v17.066406c-15.941406 9.6875-33.011718 17.390625-50.824218 22.933594-3.960938 1.199218-8.253906.449218-11.578125-2.019532-3.320313-2.46875-5.273438-6.367187-5.269531-10.503906 23.886718-5.472656 46.734374-14.75 67.671874-27.476562zm0 0" fill="#283593"/><path d="m181.855469 184.769531-35.15625 47.957031-15.273438-10.921874-33.023437-23.722657c-6.566406-4.714843-10.976563-11.859375-12.242188-19.839843-1.265625-7.984376.714844-16.144532 5.5-22.65625 9.660156-13.101563 27.816406-16.496094 41.554688-7.765626 6.917968-8.351562 17.6875-12.488281 28.417968-10.921874 4.851563.722656 9.464844 2.5625 13.480469 5.375 6.578125 4.703124 10.996094 11.851562 12.261719 19.835937 1.269531 7.988281-.71875 16.152344-5.519531 22.660156zm0 0" fill="#bb193b"/><path d="m164.789062 176.320312-33.363281 45.484376-33.023437-23.722657c-6.566406-4.714843-10.976563-11.859375-12.242188-19.839843-1.265625-7.984376.714844-16.144532 5.5-22.65625 9.660156-13.101563 27.816406-16.496094 41.554688-7.765626 6.917968-8.351562 17.6875-12.488281 28.417968-10.921874 10.738282 10.511718 12.085938 27.335937 3.15625 39.421874zm0 0" fill="#ef314c"/><path d="m328.289062 198.082031-48.300781 34.644531-10.921875-14.933593-24.234375-33.023438c-4.796875-6.507812-6.785156-14.671875-5.519531-22.660156 1.265625-7.984375 5.683594-15.132813 12.261719-19.835937 13.265625-9.390626 31.53125-6.976563 41.898437 5.546874 7.222656-4.601562 16.03125-5.992187 24.320313-3.839843 11.472656 2.851562 20.25 12.097656 22.5 23.703125 2.253906 11.605468-2.429688 23.464844-12.003907 30.398437zm0 0" fill="#bb193b"/><path d="m311.648438 187.242188-42.582032 30.550781-24.234375-33.023438c-4.796875-6.507812-6.785156-14.671875-5.519531-22.660156 1.265625-7.984375 5.683594-15.132813 12.261719-19.835937 13.265625-9.390626 31.53125-6.976563 41.898437 5.546874 7.222656-4.601562 16.03125-5.992187 24.320313-3.839843.171875.253906.425781.511719.597656.765625 4.804687 6.507812 6.796875 14.671875 5.527344 22.660156-1.265625 7.992188-5.6875 15.136719-12.269531 19.835938zm0 0" fill="#ef314c"/><path d="m128.011719 170.6875c0 9.425781-7.640625 17.070312-17.066407 17.070312-9.425781 0-17.066406-7.644531-17.066406-17.070312 0-9.421875 7.640625-17.066406 17.066406-17.066406 9.425782 0 17.066407 7.644531 17.066407 17.066406zm0 0" fill="#f5f5f5"/><path d="m281.609375 162.15625c0 9.425781-7.640625 17.066406-17.066406 17.066406s-17.066407-7.640625-17.066407-17.066406 7.640626-17.066406 17.066407-17.066406 17.066406 7.640625 17.066406 17.066406zm0 0" fill="#f5f5f5"/><path d="m503.476562 256.023438c-.710937 65.140624-25.027343 127.808593-68.4375 176.382812-6.46875 7.234375-15.722656 11.363281-25.429687 11.351562-2.90625.011719-5.804687-.359374-8.617187-1.109374-1.109376-.34375-2.21875-.683594-3.328126-1.109376-.300781-.0625-.589843-.179687-.851562-.34375 4.847656-1.878906 9.179688-4.894531 12.628906-8.789062 43.40625-48.574219 67.722656-111.242188 68.4375-176.382812 1.023438-74.921876-48.726562-239.277344-241.496094-247.125 3.671876-.257813 7.339844-.34375 11.09375-.34375 204.800782 0 257.023438 170.667968 256 247.46875zm0 0" fill="#fec108"/><path d="m366.945312 435.992188v50.429687c-.027343 9.414063-7.652343 17.039063-17.066406 17.066406h-25.601562c9.414062-.027343 17.039062-7.652343 17.066406-17.066406v-37.035156c8.808594-3.917969 17.359375-8.394531 25.601562-13.394531zm0 0" fill="#283593"/><path d="m349.878906 512.003906h-145.066406c-14.132812-.015625-25.585938-11.464844-25.601562-25.597656v-8.621094c-.007813-6.203125.972656-12.371094 2.902343-18.269531.578125-1.90625 1.257813-3.78125 2.035157-5.613281 9.507812-21.796875 31.015624-35.902344 54.796874-35.933594h8.53125c26.035157.015625 49.460938 15.820312 59.230469 39.953125 1.085938 2.882813.535157 6.125-1.441406 8.484375-1.976563 2.363281-5.074219 3.476562-8.101563 2.914062-3.027343-.5625-5.515624-2.710937-6.515624-5.625-7.355469-17.332031-24.339844-28.609374-43.171876-28.660156h-8.53125c-16.96875.019532-32.320312 10.070313-39.121093 25.617188-.546875 1.296875-1.023438 2.621094-1.429688 3.96875-1.402343 4.25-2.117187 8.695312-2.117187 13.167968v8.617188c.007812 4.710938 3.824218 8.527344 8.535156 8.535156h145.066406c4.710938-.007812 8.527344-3.824218 8.53125-8.535156v-50.429688c0-4.714843 3.820313-8.535156 8.535156-8.535156 4.710938 0 8.53125 3.820313 8.53125 8.535156v50.429688c-.015624 14.132812-11.46875 25.582031-25.597656 25.597656zm0 0"/><path d="m247.476562 512.003906h-145.066406c-14.140625-.023437-25.59375-11.492187-25.597656-25.632812v-8.546875c.007812-33.003907 26.730469-59.769531 59.730469-59.832031h8.535156c23.757813-.023438 45.265625 14.046874 54.757813 35.820312 1.878906 4.324219-.097657 9.351562-4.421876 11.230469-4.320312 1.882812-9.347656-.097657-11.226562-4.421875-6.785156-15.542969-22.148438-25.585938-39.109375-25.5625h-8.535156c-23.578125.054687-42.664063 19.183594-42.664063 42.765625v8.546875c-.003906 4.722656 3.8125 8.554687 8.53125 8.566406h145.066406c4.714844 0 8.535157 3.820312 8.535157 8.535156 0 4.710938-3.820313 8.53125-8.535157 8.53125zm0 0"/><path d="m42.679688 426.671875c-16.832032.003906-32.09375-9.886719-38.964844-25.25-6.867188-15.367187-4.0625-33.332031 7.164062-45.875 7.226563-8.097656 13.761719-16.789063 19.527344-25.988281 1.617188-2.582032 4.488281-4.109375 7.535156-4.003906 3.046875.105468 5.808594 1.828124 7.238282 4.523437 1.433593 2.691406 1.316406 5.941406-.296876 8.527344-6.28125 10.007812-13.394531 19.46875-21.257812 28.289062-9.40625 10.546875-8.53125 26.710938 1.960938 36.179688 10.679687 9.023437 26.542968 8.152343 36.171874-1.984375 3.269532-3.679688 6.492188-7.476563 9.546876-11.355469 2.921874-3.675781 8.265624-4.296875 11.953124-1.390625 3.691407 2.90625 4.339844 8.246094 1.453126 11.949219-3.261719 4.148437-6.699219 8.199219-10.226563 12.167969-8.105469 9.035156-19.667969 14.199218-31.804687 14.210937zm0 0"/><path d="m409.609375 452.273438c-16.828125.003906-32.089844-9.886719-38.960937-25.253907-6.867188-15.363281-4.0625-33.332031 7.164062-45.871093 28.699219-32.09375 45.5-73.074219 47.59375-116.074219.308594-4.671875 4.253906-8.257813 8.929688-8.121094 2.261718.105469 4.386718 1.105469 5.910156 2.78125 1.523437 1.675781 2.316406 3.886719 2.210937 6.148437-2.28125 46.914063-20.613281 91.621094-51.921875 126.632813-9.386718 10.550781-8.5 26.703125 1.988282 36.164063 10.679687 9.019531 26.539062 8.144531 36.167968-1.992188 42.003906-47.050781 65.539063-107.722656 66.253906-170.792969-1.121093-63.945312-26.054687-125.171875-69.925781-171.710937-43.9375-44.53125-103.675781-67.109375-177.542969-67.109375-97.457031-.015625-183.507812 63.578125-212.101562 156.746093-28.59375 93.167969 6.96875 194.085938 87.65625 248.742188 3.257812 1.988281 4.796875 5.894531 3.773438 9.570312-1.027344 3.671876-4.367188 6.21875-8.179688 6.230469h-.085938c-1.703124.003907-3.363281-.507812-4.773437-1.460937-87.042969-58.765625-125.496094-167.488282-94.761719-267.910156 30.734375-100.425782 123.449219-169.0000005 228.472656-168.98828175 78.605469 0 142.421876 24.28906275 189.699219 72.19531275 47.363281 49.597656 74.113281 115.339843 74.835938 183.917969-.769531 67.199218-25.855469 131.84375-70.617188 181.96875-8.101562 9.019531-19.65625 14.179687-31.785156 14.1875zm0 0"/><path d="m299.265625 471.984375c-4.339844-.007813-7.980469-3.269531-8.464844-7.578125-.484375-4.3125 2.339844-8.300781 6.570313-9.269531 22.992187-5.265625 44.992187-14.195313 65.144531-26.453125 4.304687-2.679688 8.6875-5.578125 12.902344-8.550782 3.851562-2.648437 9.113281-1.707031 11.808593 2.109376 2.695313 3.816406 1.820313 9.089843-1.964843 11.832031-4.484375 3.164062-9.152344 6.246093-13.808594 9.144531-21.738281 13.234375-45.46875 22.875-70.273437 28.550781-.628907.144531-1.269532.21875-1.914063.214844zm0 0"/><path d="m146.710938 241.261719c-1.78125 0-3.519532-.5625-4.964844-1.601563l-48.285156-34.640625c-8.433594-6.027343-14.097657-15.183593-15.726563-25.421875-1.628906-10.238281.914063-20.703125 7.058594-29.050781 10.730469-14.574219 29.984375-20.003906 46.746093-13.179687 13.820313-11.671876 33.792969-12.492188 48.523438-1.992188 8.433594 6.027344 14.101562 15.1875 15.730469 25.425781 1.632812 10.238281-.910157 20.703125-7.058594 29.050781l-35.132813 47.917969c-1.605468 2.195313-4.167968 3.496094-6.890624 3.492188zm-30.070313-89.753907c-7.140625-.015624-13.859375 3.378907-18.089844 9.128907-3.449219 4.675781-4.875 10.539062-3.964843 16.273437.914062 5.738282 4.09375 10.867188 8.820312 14.238282l41.421875 29.71875 30.140625-41.109376c3.453125-4.671874 4.882812-10.539062 3.96875-16.273437-.914062-5.738281-4.09375-10.867187-8.824219-14.238281-9.582031-6.847656-22.828125-5.113282-30.320312 3.96875-2.746094 3.332031-7.542969 4.097656-11.183594 1.78125-3.574219-2.285156-7.726563-3.496094-11.96875-3.488282zm0 0"/><path d="m279.976562 241.261719c-2.722656.003906-5.28125-1.292969-6.890624-3.488281l-35.136719-47.921876c-6.144531-8.347656-8.6875-18.8125-7.058594-29.050781 1.632813-10.238281 7.300781-19.398437 15.734375-25.425781 14.726562-10.507812 34.707031-9.691406 48.523438 1.988281 16.761718-6.824219 36.019531-1.394531 46.746093 13.179688 6.148438 8.347656 8.691407 18.8125 7.0625 29.050781-1.628906 10.238281-7.292969 19.394531-15.730469 25.421875l-48.28125 34.644531c-1.445312 1.042969-3.183593 1.601563-4.96875 1.601563zm-10.386718-96.191407c-4.671875-.007812-9.226563 1.457032-13.019532 4.179688-4.730468 3.371094-7.910156 8.5-8.824218 14.238281-.910156 5.734375.515625 11.597657 3.964844 16.269531l30.144531 41.109376 41.421875-29.71875c4.730468-3.371094 7.90625-8.503907 8.820312-14.238282.914063-5.738281-.515625-11.597656-3.960937-16.273437-6.980469-9.484375-20.113281-11.953125-30.058594-5.644531-3.640625 2.320312-8.441406 1.558593-11.183594-1.777344-4.253906-5.171875-10.605469-8.160156-17.304687-8.144532zm0 0"/><path d="m86.789062 120.140625c3.03125-10.285156 8.691407-19.605469 16.421876-27.039063 8.003906-7.992187 18.230468-13.382812 29.347656-15.46875 2.792968-.632812 5.652344-.9375 8.515625-.90625 2.832031-.253906 5.691406-.125 8.492187.390626 2.777344.480468 5.582032.855468 8.289063 1.472656l7.742187 2.878906c2.558594.878906 4.992188 2.09375 7.234375 3.613281 2.285157 1.40625 4.585938 2.730469 6.789063 4.195313 4.066406 3.261718 7.9375 6.761718 11.589844 10.488281 1.042968 1.058594 1.210937 2.699219.410156 3.953125-.804688 1.25-2.367188 1.777344-3.765625 1.269531l-.429688-.15625c-4.699219-1.714843-8.992187-3.824219-13.3125-5.6875-4.515625-1.265625-8.703125-3.371093-13.101562-4.15625-8.265625-2.28125-16.9375-2.679687-25.375-1.164062-8.441407 1.742187-16.4375 5.175781-23.515625 10.089843-7.738282 5.390626-14.964844 11.480469-21.589844 18.195313l-.148438.144531c-.695312.691406-1.769531.824219-2.613281.328125-.84375-.496093-1.25-1.496093-.984375-2.441406zm0 0"/><path d="m237.511719 102.160156c6.292969-8.691406 14.761719-15.578125 24.554687-19.96875 20.960938-10.019531 45.925782-6.054687 62.753906 9.960938 7.820313 7.199218 13.929688 16.058594 17.882813 25.929687.660156 1.65625-.144531 3.535157-1.800781 4.199219-1.191406.464844-2.546875.191406-3.46875-.699219-6.597656-6.726562-13.796875-12.835937-21.503906-18.257812-7.035157-4.917969-15.074219-8.210938-23.539063-9.640625-8.546875-1.128906-17.234375-.554688-25.5625 1.6875-9.109375 2.460937-17.96875 5.777344-26.453125 9.90625l-.183594.085937c-.890625.414063-1.945312.179688-2.574218-.570312-.628907-.75-.675782-1.832031-.109376-2.632813zm0 0"/><path d="m213.269531 366.941406c-13.046875-.023437-24.941406-7.488281-30.636719-19.226562-5.695312-11.738282-4.199218-25.699219 3.855469-35.960938-.609375-.367187-1.214843-.761718-1.8125-1.167968-12.726562-8.753907-17.984375-24.964844-12.824219-39.527344 5.160157-14.558594 19.453126-23.839844 34.855469-22.625 15.398438 1.214844 28.0625 12.621094 30.878907 27.808594.554687 3-.53125 6.066406-2.851563 8.046874-2.320313 1.980469-5.515625 2.570313-8.390625 1.554688-2.875-1.019531-4.988281-3.492188-5.542969-6.492188-1.257812-6.789062-6.476562-12.148437-13.230469-13.585937-6.75-1.4375-13.703124 1.335937-17.613281 7.023437-3.910156 5.6875-4.011719 13.171876-.253906 18.960938s10.636719 8.746094 17.421875 7.488281c2.226562-.417969 4.527344.070313 6.394531 1.351563 1.867188 1.285156 3.144531 3.257812 3.550781 5.488281.097657.515625.144532 1.035156.144532 1.5625-.007813 4.109375-2.9375 7.632813-6.980469 8.382813-6.789063 1.253906-12.148437 6.476562-13.585937 13.230468-1.4375 6.75 1.335937 13.703125 7.023437 17.613282 5.691406 3.910156 13.175781 4.011718 18.964844.25 5.789062-3.757813 8.742187-10.636719 7.484375-17.421876-.859375-4.636718 2.203125-9.089843 6.839844-9.949218 4.632812-.855469 9.085937 2.203125 9.945312 6.839844 3.40625 18.53125-8.824219 36.324218-27.347656 39.777343-2.074219.386719-4.179688.578125-6.289063.578125zm0 0"/></svg>