<svg height="512pt" viewBox="0 0 512.05047 512" width="512pt" xmlns="http://www.w3.org/2000/svg"><path d="m247.484375 8.589844c-101.269531-.015625-190.675781 66.109375-220.3125 162.945312-29.640625 96.839844 7.441406 201.675782 91.375 258.34375h.085937l69.121094 48.042969v8.535156c.027344 9.414063 7.652344 17.039063 17.066406 17.066407h145.066407c9.414062-.027344 17.039062-7.652344 17.066406-17.066407v-50.433593c.765625-.511719 1.535156-.9375 2.304687-1.449219 3.753907-2.390625 7.507813-4.867188 11.089844-7.425781.011719.089843.042969.179687.085938.257812 1.058594 2.222656 2.570312 4.199219 4.4375 5.800781.597656.597657 1.28125 1.28125 1.964844 1.878907 1.257812 1.097656 2.597656 2.09375 4.007812 2.984374.6875.5625 1.429688 1.050782 2.21875 1.453126.800781.449218 1.628906.847656 2.476562 1.195312.6875.332031 1.402344.617188 2.132813.851562 1.109375.425782 2.21875.769532 3.328125 1.109376 2.8125.75 5.710938 1.125 8.617188 1.109374 9.707031.015626 18.960937-4.113281 25.429687-11.347656 43.410156-48.574218 67.726563-111.246094 68.4375-176.386718 1.023437-76.800782-51.199219-247.464844-256-247.464844zm0 0" fill="#f0c419"/><path d="m503.484375 256.054688c-.710937 65.140624-25.027344 127.8125-68.4375 176.386718-6.46875 7.234375-15.722656 11.363282-25.429687 11.347656-2.90625.015626-5.804688-.359374-8.617188-1.109374-1.109375-.339844-2.21875-.683594-3.328125-1.109376-.730469-.234374-1.445313-.519531-2.132813-.851562-.847656-.347656-1.675781-.746094-2.476562-1.195312-.789062-.402344-1.53125-.890626-2.21875-1.453126-1.410156-.890624-2.75-1.886718-4.007812-2.984374-.683594-.597657-1.367188-1.28125-1.964844-1.878907-1.867188-1.601562-3.378906-3.578125-4.4375-5.800781-.042969-.078125-.074219-.167969-.085938-.257812-3.582031 2.558593-7.335937 5.035156-11.089844 7.425781-.769531.511719-1.539062.9375-2.304687 1.449219-20.9375 12.726562-43.785156 22.003906-67.671875 27.476562h-.253906l-.339844-2.644531c-8.617188-20.691407-28.789062-34.207031-51.203125-34.304688h-8.53125c-20.351563.03125-38.765625 12.082031-46.933594 30.71875-.6875 1.617188-1.285156 3.269531-1.792969 4.953125-1.648437 5.039063-2.484374 10.308594-2.472656 15.613282v.085937l-69.121094-48.042969h-.085937c-83.933594-56.667968-121.015625-161.503906-91.375-258.34375 29.636719-96.835937 119.042969-162.960937 220.3125-162.945312 204.800781 0 257.023437 170.664062 256 247.464844zm0 0" fill="#ffdc00"/><path d="m192.019531 457.269531c-8.152343-18.648437-26.578125-30.699219-46.933593-30.691406h-8.535157c-28.292969.046875-51.207031 23-51.199219 51.296875v8.546875c.019532 9.425781 7.644532 17.0625 17.066407 17.101563h145.066406zm0 0" fill="#3f51b5"/><path d="m366.953125 436.023438v50.433593c-.027344 9.414063-7.652344 17.039063-17.066406 17.066407h-145.066407c-9.414062-.027344-17.039062-7.652344-17.066406-17.066407v-8.621093c-.011718-5.304688.824219-10.574219 2.472656-15.613282.507813-1.683594 1.105469-3.335937 1.792969-4.953125 8.167969-18.636719 26.582031-30.6875 46.933594-30.71875h8.53125c22.414063.097657 42.585937 13.613281 51.203125 34.304688l.59375 2.644531c23.886719-5.472656 46.734375-14.75 67.671875-27.476562zm0 0" fill="#3f51b5"/><path d="m503.484375 256.054688c-.710937 65.140624-25.027344 127.8125-68.4375 176.386718-6.46875 7.234375-15.722656 11.363282-25.429687 11.347656-2.90625.015626-5.804688-.359374-8.617188-1.109374-1.109375-.339844-2.21875-.683594-3.328125-1.109376-.300781-.0625-.589844-.175781-.851563-.339843 4.847657-1.882813 9.179688-4.894531 12.628907-8.789063 43.40625-48.574218 67.722656-111.246094 68.4375-176.386718 1.023437-74.921876-48.726563-239.273438-241.496094-247.125 3.671875-.253907 7.339844-.339844 11.09375-.339844 204.800781 0 257.023437 170.664062 256 247.464844zm0 0" fill="#fec108"/><path d="m366.953125 436.023438v50.433593c-.027344 9.414063-7.652344 17.039063-17.066406 17.066407h-25.601563c9.414063-.027344 17.039063-7.652344 17.066406-17.066407v-37.035156c8.808594-3.921875 17.359376-8.394531 25.601563-13.398437zm0 0" fill="#283593"/><path d="m78.011719 395.0625c-3.15625 4.011719-6.484375 7.9375-9.898438 11.777344-12.605469 13.945312-34.113281 15.078125-48.113281 2.535156-14-12.546875-15.226562-34.046875-2.742188-48.105469 7.546876-8.453125 14.371094-17.53125 20.394532-27.132812zm0 0" fill="#ff9801"/><path d="m380.347656 427.148438c-3.582031 2.558593-7.335937 5.035156-11.089844 7.425781-13.527343-12.695313-14.472656-33.851563-2.136718-47.703125 26.3125-29.355469 43.144531-65.96875 48.292968-105.050782 1.207032-9.316406 9.132813-16.289062 18.523438-16.292968-2.128906 44.964844-19.699219 87.824218-49.746094 121.34375-9.945312 11.144531-11.5 27.457031-3.84375 40.277344zm0 0" fill="#fec108"/><path d="m380.433594 427.40625c1.300781 2.0625 2.785156 4.003906 4.4375 5.800781-1.867188-1.601562-3.378906-3.578125-4.4375-5.800781zm0 0" fill="#f0c419"/><path d="m366.953125 436.023438v17.066406c-15.945313 9.6875-33.011719 17.390625-50.824219 22.9375-3.960937 1.195312-8.253906.445312-11.578125-2.023438-3.320312-2.46875-5.273437-6.363281-5.269531-10.503906 23.886719-5.472656 46.734375-14.75 67.671875-27.476562zm0 0" fill="#283593"/><path d="m433 99.195312 23.382812 28.84375h29.867188l16.636719-37.207031c1.007812-2.507812.628906-5.359375-.992188-7.519531-1.621093-2.164062-4.253906-3.320312-6.941406-3.058594l-56.066406 5.714844-54.5-26.082031-32.101563-47.824219c-1.421875-2.285156-3.964844-3.621094-6.652344-3.492188-2.6875.128907-5.09375 1.707032-6.285156 4.117188l-22.4375 50.121094c-.972656 2.386718-.6875 5.105468.761719 7.242187s3.867187 3.40625 6.449219 3.386719l54.34375-.324219zm0 0" fill="#6a1b9a"/><path d="m67.347656 128.039062h-41.730468c-9.414063.027344-17.039063 7.652344-17.066407 17.066407-.023437 4.527343 1.792969 8.871093 5.035157 12.03125 3.164062 3.242187 7.503906 5.058593 12.03125 5.035156h8.023437zm0 0" fill="#3f51b5"/><path d="m325.222656 128.039062h161.195313c9.414062.027344 17.039062 7.652344 17.066406 17.066407-.066406 9.398437-7.667969 17-17.066406 17.066406h-127.488281zm0 0" fill="#3f51b5"/><path d="m136.550781 298.707031h136.535157c4.710937 0 8.53125 3.820313 8.53125 8.53125v8.535157c0 42.414062-34.382813 76.800781-76.796876 76.800781-42.417968 0-76.800781-34.386719-76.800781-76.800781v-8.535157c0-4.710937 3.820313-8.53125 8.53125-8.53125zm0 0" fill="#bb193b"/><path d="m412.476562 107.996094-27.25-13.03125c-7.589843-3.773438-10.824218-12.878906-7.324218-20.597656l6.308594-14.078126c1.582031-3.695312 4.597656-6.589843 8.355468-8.015624 3.757813-1.425782 7.9375-1.265626 11.574219.449218l27.25 13.03125c7.589844 3.773438 10.824219 12.878906 7.320313 20.597656l-6.304688 14.078126c-1.582031 3.695312-4.597656 6.589843-8.359375 8.015624-3.757813 1.425782-7.933594 1.265626-11.570313-.449218zm0 0" fill="#9d27b0"/><path d="m179.21875 196.304688c0 42.417968-34.382812 76.800781-76.800781 76.800781-42.414063 0-76.800781-34.382813-76.800781-76.800781 0-42.414063 34.386718-76.796876 76.800781-76.796876 42.417969 0 76.800781 34.382813 76.800781 76.796876zm0 0" fill="#02a9f4"/><path d="m366.953125 196.304688c0 42.417968-34.386719 76.800781-76.800781 76.800781-42.414063 0-76.800782-34.382813-76.800782-76.800781 0-42.414063 34.386719-76.796876 76.800782-76.796876 42.414062 0 76.800781 34.382813 76.800781 76.796876zm0 0" fill="#02a9f4"/><path d="m279.742188 332.855469c-7.992188 34.945312-39.074219 59.726562-74.921876 59.734375-2.511718.03125-5.019531-.113282-7.511718-.425782-3.214844-.265624-6.40625-.75-9.554688-1.453124v-15.1875c.007813-23.5625 19.105469-42.660157 42.664063-42.667969zm0 0" fill="#ad1457"/><path d="m264.550781 332.855469c-7.363281 32.148437-34.421875 56.015625-67.242187 59.308593-3.214844-.265624-6.40625-.75-9.554688-1.453124v-15.1875c.007813-23.5625 19.105469-42.660157 42.664063-42.667969zm0 0" fill="#e91e63"/><path d="m349.886719 512.039062h-145.066407c-14.132812-.015624-25.585937-11.46875-25.601562-25.601562v-8.617188c-.007812-6.210937.96875-12.378906 2.902344-18.28125.574218-1.902343 1.253906-3.773437 2.03125-5.601562 9.507812-21.800781 31.015625-35.90625 54.800781-35.9375h8.53125c26.035156.023438 49.460937 15.824219 59.234375 39.953125 1.59375 4.4375-.710938 9.328125-5.144531 10.921875-4.4375 1.59375-9.328125-.710938-10.921875-5.144531-7.355469-17.335938-24.339844-28.613281-43.167969-28.664063h-8.53125c-16.96875.019532-32.320313 10.074219-39.117187 25.617188-.546876 1.292968-1.027344 2.617187-1.433594 3.960937-1.402344 4.25-2.117188 8.699219-2.117188 13.179688v8.617187c.003906 4.710938 3.824219 8.527344 8.535156 8.53125h145.066407c4.710937-.003906 8.527343-3.820312 8.53125-8.53125v-50.433594c0-4.710937 3.820312-8.53125 8.535156-8.53125 4.710937 0 8.53125 3.820313 8.53125 8.53125v50.433594c-.015625 14.128906-11.46875 25.582032-25.597656 25.597656zm0 0"/><path d="m247.484375 512.039062h-145.066406c-14.140625-.027343-25.59375-11.492187-25.597657-25.632812v-8.550781c.011719-33 26.730469-59.765625 59.730469-59.828125h8.535157c23.757812-.027344 45.265624 14.042968 54.757812 35.820312 1.878906 4.320313-.097656 9.347656-4.421875 11.230469-4.320313 1.878906-9.347656-.101563-11.226563-4.421875-6.785156-15.546875-22.148437-25.585938-39.109374-25.5625h-8.535157c-23.578125.054688-42.664062 19.183594-42.664062 42.761719v8.550781c-.007813 4.71875 3.8125 8.554688 8.53125 8.566406h145.066406c4.714844 0 8.535156 3.820313 8.535156 8.53125 0 4.714844-3.820312 8.535156-8.535156 8.535156zm0 0"/><path d="m42.6875 426.703125c-16.835938.007813-32.097656-9.878906-38.96875-25.246094-6.871094-15.367187-4.066406-33.335937 7.160156-45.875 7.234375-8.097656 13.769532-16.792969 19.539063-25.988281 1.578125-2.667969 4.476562-4.269531 7.574219-4.183594 3.097656.082032 5.90625 1.839844 7.335937 4.585938 1.433594 2.75 1.261719 6.054687-.441406 8.640625-6.28125 10.011719-13.390625 19.472656-21.257813 28.289062-9.398437 10.550781-8.519531 26.710938 1.964844 36.183594 10.683594 9.015625 26.542969 8.144531 36.175781-1.988281 3.265625-3.679688 6.484375-7.46875 9.53125-11.351563 2.917969-3.707031 8.285157-4.347656 11.988281-1.429687 3.707032 2.914062 4.34375 8.28125 1.429688 11.984375-3.265625 4.144531-6.699219 8.203125-10.214844 12.164062-8.109375 9.035157-19.675781 14.203125-31.816406 14.214844zm0 0"/><path d="m409.617188 452.304688c-10.480469-.019532-20.59375-3.875-28.429688-10.835938-17.480469-15.757812-18.992188-42.660156-3.386719-60.273438 28.710938-32.09375 45.519531-73.078124 47.609375-116.085937.324219-4.664063 4.261719-8.242187 8.933594-8.121094 4.707031.226563 8.339844 4.222657 8.117188 8.929688-2.28125 46.914062-20.613282 91.621093-51.917969 126.636719-7.492188 8.328124-8.664063 20.578124-2.882813 30.175781 1.304688 2.242187 2.953125 4.265625 4.882813 5.996093 10.691406 8.992188 26.53125 8.113282 36.160156-2.003906 42.011719-47.046875 65.546875-107.726562 66.25-170.796875-.335937-30.808593-6.347656-61.289062-17.734375-89.921875-1.328125-2.636718-1.195312-5.773437.347656-8.289062 1.542969-2.519532 4.277344-4.0625 7.230469-4.078125 3.527344 0 6.707031 2.136719 8.035156 5.40625 12.347657 30.894531 18.855469 63.816406 19.1875 97.085937-.753906 67.207032-25.839843 131.859375-70.609375 181.988282-8.105468 9.019531-19.664062 14.179687-31.792968 14.1875zm0 0"/><path d="m398.953125 59.859375c-4.730469.007813-8.582031-3.804687-8.621094-8.53125-.019531-2.257813.863281-4.425781 2.449219-6.027344 1.585938-1.601562 3.746094-2.503906 6-2.507812h.171875c4.710937 0 8.53125 3.820312 8.53125 8.535156 0 4.710937-3.820313 8.53125-8.53125 8.53125zm0 0"/><path d="m118.632812 438.398438h-.085937c-1.707031 0-3.378906-.515626-4.792969-1.472657-15.3125-10.40625-29.402344-22.507812-42-36.074219-17.238281-18.707031-31.375-40.046874-41.875-63.21875-25.480468-56.222656-28.234375-120.117187-7.691406-178.324218 1.578125-4.441406 6.460938-6.757813 10.902344-5.179688 4.441406 1.582032 6.761718 6.464844 5.179687 10.90625-27.367187 77.5-9.65625 163.78125 46.023438 224.238282 11.625 12.523437 24.621093 23.703124 38.742187 33.324218 3.253906 1.984375 4.796875 5.890625 3.773438 9.5625-1.023438 3.675782-4.363282 6.222656-8.175782 6.238282zm0 0"/><path d="m45.492188 136.570312c-3.011719-.003906-5.804688-1.597656-7.335938-4.191406-1.53125-2.597656-1.582031-5.8125-.128906-8.453125 41.992187-76.410156 122.265625-123.8906248 209.457031-123.8867185 30.699219-.2851565 61.265625 4.0429685 90.675781 12.8398435 2.96875.855469 5.246094 3.25 5.949219 6.257813.707031 3.007812-.269531 6.164062-2.554687 8.246093-2.28125 2.085938-5.511719 2.769532-8.445313 1.796876-27.773437-8.289063-56.636719-12.359376-85.625-12.074219-80.964844 0-155.507813 44.089843-194.507813 115.046875-1.496093 2.730468-4.367187 4.425781-7.484374 4.417968zm0 0"/><path d="m299.277344 472.019531c-4.335938-.011719-7.976563-3.273437-8.460938-7.582031-.484375-4.3125 2.34375-8.296875 6.570313-9.269531 22.988281-5.261719 44.984375-14.195313 65.132812-26.453125 4.316407-2.683594 8.691407-5.578125 12.914063-8.554688 2.492187-1.757812 5.734375-2.050781 8.5-.769531 2.765625 1.277344 4.640625 3.9375 4.917968 6.972656.273438 3.039063-1.089843 5.992188-3.582031 7.746094-4.492187 3.167969-9.152343 6.246094-13.808593 9.144531-21.738282 13.230469-45.46875 22.871094-70.273438 28.546875-.628906.148438-1.269531.21875-1.910156.21875zm0 0"/><path d="m418.769531 117.976562c-3.453125-.003906-6.863281-.785156-9.976562-2.277343l-27.25-13.035157c-11.734375-5.800781-16.785157-19.835937-11.433594-31.78125l6.316406-14.082031c2.574219-5.859375 7.429688-10.421875 13.4375-12.628906 5.851563-2.167969 12.335938-1.855469 17.953125.859375l27.257813 13.023438c11.730469 5.804687 16.777343 19.84375 11.417969 31.785156l-6.292969 14.078125c-2.582031 5.863281-7.4375 10.421875-13.449219 12.632812-2.554688.941407-5.257812 1.421875-7.980469 1.425781zm-2.609375-17.679687c1.472656.710937 3.175782.792969 4.710938.226563 1.683594-.636719 3.035156-1.929688 3.753906-3.582032l6.289062-14.078125c1.636719-3.492187.222657-7.652343-3.207031-9.417969l-27.253906-13.023437c-1.46875-.71875-3.167969-.800781-4.699219-.230469-1.691406.632813-3.046875 1.929688-3.757812 3.585938l-6.3125 14.078125c-1.625 3.492187-.207032 7.644531 3.214844 9.410156zm0 0"/><path d="m324.085938 81.976562c-5.535157 0-10.691407-2.808593-13.691407-7.460937-2.992187-4.511719-3.472656-10.238281-1.273437-15.1875l22.441406-50.121094c2.289062-5.175781 7.238281-8.675781 12.882812-9.105469 5.910157-.464843 11.613282 2.289063 14.921876 7.207032l32.101562 47.820312c1.640625 2.445313 1.902344 5.5625.699219 8.25-1.203125 2.683594-3.707031 4.5625-6.625 4.964844 1.761719 2.605469 1.941406 5.972656.472656 8.753906s-4.351563 4.53125-7.496094 4.550782l-54.351562.328124zm22.109374-63.675781-21 46.890625 52.074219-.597656zm0 0"/><path d="m324.085938 81.976562c-5.535157 0-10.691407-2.808593-13.691407-7.460937-2.992187-4.511719-3.472656-10.238281-1.273437-15.1875l22.441406-50.121094c2.289062-5.175781 7.238281-8.675781 12.882812-9.105469 5.910157-.464843 11.613282 2.289063 14.921876 7.207032l32.101562 47.820312c1.640625 2.445313 1.902344 5.5625.699219 8.25-1.203125 2.683594-3.707031 4.5625-6.625 4.964844 1.761719 2.605469 1.941406 5.972656.472656 8.753906s-4.351563 4.53125-7.496094 4.550782l-54.351562.328124zm22.109374-63.675781-21 46.890625 52.074219-.597656zm0 0"/><path d="m456.394531 136.570312c-2.574219.007813-5.015625-1.152343-6.632812-3.15625l-23.382813-28.84375c-1.992187-2.359374-2.554687-5.609374-1.46875-8.5 1.085938-2.894531 3.648438-4.972656 6.699219-5.4375 3.054687-.46875 6.121094.75 8.019531 3.1875l23.382813 28.84375c2.070312 2.550782 2.492187 6.070313 1.078125 9.039063-1.414063 2.972656-4.40625 4.863281-7.695313 4.867187zm0 0"/><path d="m486.25 136.574219c-2.890625-.003907-5.585938-1.46875-7.15625-3.898438-1.570312-2.425781-1.808594-5.480469-.628906-8.121093l16.101562-36.011719-54.808594 5.910156c-3.066406.371094-6.09375-.941406-7.914062-3.433594-1.824219-2.492187-2.160156-5.773437-.878906-8.582031s3.980468-4.703125 7.058594-4.960938l56.0625-5.714843c5.804687-.578125 11.476562 1.996093 14.867187 6.738281 3.394531 4.585938 4.050781 10.640625 1.71875 15.84375l-16.625 37.179688c-1.375 3.074218-4.429687 5.054687-7.796875 5.050781zm0 0"/><path d="m102.417969 281.636719c-47.128907 0-85.332031-38.203125-85.332031-85.332031 0-47.128907 38.203124-85.332032 85.332031-85.332032 47.128906 0 85.335937 38.203125 85.335937 85.332032-.054687 47.105468-38.230468 85.28125-85.335937 85.332031zm0-153.597657c-37.703125 0-68.265625 30.5625-68.265625 68.265626 0 37.703124 30.5625 68.265624 68.265625 68.265624s68.269531-30.5625 68.269531-68.265624c-.046875-37.683594-30.582031-68.222657-68.269531-68.265626zm0 0"/><path d="m290.152344 281.636719c-47.128906 0-85.332032-38.203125-85.332032-85.332031 0-47.128907 38.203126-85.332032 85.332032-85.332032s85.332031 38.203125 85.332031 85.332032c-.050781 47.105468-38.226563 85.28125-85.332031 85.332031zm0-153.597657c-37.703125 0-68.265625 30.5625-68.265625 68.265626 0 37.703124 30.5625 68.265624 68.265625 68.265624s68.265625-30.5625 68.265625-68.265624c-.042969-37.683594-30.582031-68.222657-68.265625-68.265626zm0 0"/><path d="m228.894531 158.589844c-3.277343.003906-6.269531-1.871094-7.691406-4.824219-3.929687-10.351563-13.847656-17.195313-24.917969-17.195313-11.070312 0-20.988281 6.84375-24.917968 17.195313-1.285157 2.808594-3.988282 4.707031-7.070313 4.957031s-6.058594-1.183594-7.78125-3.753906c-1.71875-2.566406-1.917969-5.867188-.515625-8.621094 6.78125-16.253906 22.671875-26.84375 40.285156-26.84375 17.613282 0 33.5 10.589844 40.28125 26.84375 1.277344 2.640625 1.109375 5.757813-.453125 8.242188-1.558593 2.488281-4.285156 3.996094-7.222656 4zm0 0"/><path d="m33.640625 170.703125h-8.023437c-6.832032.039063-13.386719-2.710937-18.148438-7.609375-4.816406-4.742188-7.5039062-11.230469-7.4492188-17.988281.015625-14.132813 11.4687498-25.585938 25.5976568-25.601563h41.730468c4.710938 0 8.53125 3.820313 8.53125 8.535156 0 4.710938-3.820312 8.53125-8.53125 8.53125h-41.730468c-4.710938.007813-8.527344 3.824219-8.53125 8.535157-.023438 2.222656.859374 4.359375 2.449218 5.917969 1.578125 1.675781 3.78125 2.621093 6.082032 2.613281h8.023437c4.710937 0 8.53125 3.820312 8.53125 8.535156 0 4.710937-3.820313 8.53125-8.53125 8.53125zm0 0"/><path d="m486.417969 170.703125h-127.488281c-4.710938 0-8.53125-3.820313-8.53125-8.53125 0-4.714844 3.820312-8.535156 8.53125-8.535156h127.488281c2.226562.023437 4.363281-.863281 5.917969-2.453125 1.679687-1.574219 2.625-3.777344 2.617187-6.078125-.003906-4.710938-3.824219-8.527344-8.535156-8.535157h-161.195313c-4.710937 0-8.53125-3.820312-8.53125-8.53125 0-4.714843 3.820313-8.535156 8.53125-8.535156h161.195313c14.132812.015625 25.585937 11.46875 25.601562 25.601563-.066406 14.109375-11.488281 25.535156-25.601562 25.597656zm0 0"/><path d="m68.285156 179.238281c-3.449218 0-6.5625-2.078125-7.882812-5.269531-1.320313-3.1875-.589844-6.855469 1.851562-9.296875l8.53125-8.535156c2.144532-2.207031 5.3125-3.09375 8.292969-2.308594 2.976563.78125 5.304687 3.105469 6.085937 6.085937.78125 2.980469-.101562 6.148438-2.3125 8.292969l-8.53125 8.53125c-1.601562 1.605469-3.769531 2.503907-6.035156 2.5zm0 0"/><path d="m68.285156 221.90625c-3.449218 0-6.5625-2.082031-7.882812-5.269531-1.320313-3.1875-.589844-6.859375 1.851562-9.296875l51.199219-51.203125c2.144531-2.207031 5.3125-3.09375 8.292969-2.308594 2.976562.78125 5.304687 3.105469 6.085937 6.085937.78125 2.980469-.101562 6.148438-2.3125 8.292969l-51.199219 51.199219c-1.601562 1.601562-3.769531 2.5-6.035156 2.5zm0 0"/><path d="m256.019531 179.238281c-3.453125 0-6.5625-2.078125-7.882812-5.269531-1.320313-3.1875-.589844-6.855469 1.847656-9.296875l8.535156-8.535156c2.144531-2.207031 5.3125-3.09375 8.292969-2.308594 2.976562.78125 5.304688 3.105469 6.085938 6.085937.78125 2.980469-.101563 6.148438-2.3125 8.292969l-8.535157 8.53125c-1.597656 1.605469-3.769531 2.503907-6.03125 2.5zm0 0"/><path d="m256.019531 221.90625c-3.453125 0-6.5625-2.082031-7.882812-5.269531-1.320313-3.1875-.589844-6.859375 1.847656-9.296875l51.203125-51.203125c2.144531-2.207031 5.3125-3.09375 8.289062-2.308594 2.980469.78125 5.304688 3.105469 6.085938 6.085937.785156 2.980469-.101562 6.148438-2.3125 8.292969l-51.199219 51.199219c-1.597656 1.601562-3.769531 2.5-6.03125 2.5zm0 0"/><path d="m92.046875 118.457031c6.253906-19.339843 21.539063-34.414062 40.960937-40.40625 9.910157-3.117187 20.511719-3.320312 30.535157-.585937 4.84375 1.195312 9.515625 2.996094 13.90625 5.363281 4.1875 2.433594 8.160156 5.21875 11.867187 8.332031 1.144532.910156 1.519532 2.480469.910156 3.808594-.609374 1.324219-2.046874 2.066406-3.480468 1.792969l-.566406-.109375c-4.515626-.871094-8.59375-2.398438-12.777344-3.277344-4.058594-.894531-8.175782-1.511719-12.320313-1.847656-7.847656-.824219-15.785156-.039063-23.320312 2.304687-15.753907 5.820313-30.082031 14.933594-42.042969 26.722657l-.152344.136718c-.433594.382813-.996094.578125-1.570312.542969-.574219-.035156-1.113282-.300781-1.492188-.730469-.492187-.5625-.660156-1.332031-.457031-2.046875zm0 0"/><path d="m330.980469 120.554688c-11.957031-11.789063-26.289063-20.898438-42.039063-26.722657-7.539062-2.34375-15.472656-3.128906-23.324218-2.304687-4.144532.335937-8.257813.953125-12.316407 1.847656-4.183593.878906-8.261719 2.40625-12.78125 3.277344l-.5625.109375c-1.433593.273437-2.871093-.464844-3.480469-1.792969-.609374-1.324219-.234374-2.898438.90625-3.808594 3.710938-3.109375 7.679688-5.898437 11.867188-8.332031 4.390625-2.367187 9.066406-4.167969 13.910156-5.363281 10.023438-2.734375 20.621094-2.53125 30.535156.585937 19.417969 5.988281 34.703126 21.066407 40.957032 40.402344.273437.925781-.097656 1.921875-.910156 2.441406s-1.871094.441407-2.597657-.195312zm0 0"/><path d="m204.820312 401.105469c-47.109374-.054688-85.28125-38.226563-85.335937-85.332031v-8.535157c.011719-9.421875 7.648437-17.054687 17.066406-17.066406h136.535157c9.421874.011719 17.054687 7.644531 17.066406 17.066406v8.535157c-.054688 47.105468-38.226563 85.277343-85.332032 85.332031zm-68.269531-93.867188v8.535157c0 37.699218 30.566407 68.265624 68.269531 68.265624 37.703126 0 68.265626-30.566406 68.265626-68.265624v-8.535157zm0 0"/><path d="m187.753906 399.230469c-4.714844 0-8.535156-3.820313-8.535156-8.535157v-15.1875c.03125-28.265624 22.9375-51.167968 51.199219-51.199218h49.324219c4.710937 0 8.53125 3.820312 8.53125 8.53125 0 4.714844-3.820313 8.535156-8.53125 8.535156h-49.324219c-18.84375.019531-34.113281 15.289062-34.132813 34.132812v15.1875c0 4.714844-3.820312 8.535157-8.53125 8.535157zm0 0"/></svg>