<svg height="512pt" viewBox="0 0 512.01888 512" width="512pt" xmlns="http://www.w3.org/2000/svg"><path d="m247.484375 8.558594c-101.269531-.015625-190.675781 66.109375-220.3125 162.949218-29.640625 96.835938 7.441406 201.675782 91.375 258.34375h.085937l69.121094 48.042969v8.53125c.027344 9.414063 7.652344 17.039063 17.066406 17.066407h145.066407c9.414062-.027344 17.039062-7.652344 17.066406-17.066407v-50.429687c.765625-.511719 1.535156-.941406 2.304687-1.453125 3.753907-2.386719 7.507813-4.863281 11.089844-7.421875.011719.089844.042969.175781.085938.253906 1.058594 2.222656 2.570312 4.199219 4.4375 5.804688.597656.597656 1.28125 1.277343 1.964844 1.875 1.257812 1.097656 2.597656 2.097656 4.007812 2.988281.6875.5625 1.429688 1.046875 2.21875 1.449219.800781.449218 1.628906.847656 2.476562 1.195312.6875.335938 1.402344.621094 2.132813.855469 1.109375.425781 2.21875.765625 3.328125 1.109375 2.8125.75 5.710938 1.121094 8.617188 1.109375 9.707031.011719 18.960937-4.117188 25.429687-11.351563 43.410156-48.574218 67.726563-111.242187 68.4375-176.382812 1.023437-76.800782-51.199219-247.46875-256-247.46875zm0 0" fill="#f0c419"/><path d="m78.011719 395.035156c-3.15625 4.011719-6.484375 7.933594-9.898438 11.773438-12.605469 13.949218-34.113281 15.082031-48.113281 2.539062-14-12.546875-15.226562-34.050781-2.742188-48.105468 7.546876-8.453126 14.371094-17.53125 20.394532-27.136719zm0 0" fill="#ff9801"/><path d="m503.484375 256.027344c-.710937 65.140625-25.027344 127.808594-68.4375 176.382812-6.46875 7.234375-15.722656 11.363282-25.429687 11.351563-2.90625.011719-5.804688-.359375-8.617188-1.109375-1.109375-.34375-2.21875-.683594-3.328125-1.109375-.730469-.234375-1.445313-.519531-2.132813-.855469-.847656-.347656-1.675781-.746094-2.476562-1.195312-.789062-.402344-1.53125-.886719-2.21875-1.449219-1.410156-.890625-2.75-1.890625-4.007812-2.988281-.683594-.597657-1.367188-1.277344-1.964844-1.875-1.867188-1.605469-3.378906-3.582032-4.4375-5.804688-.042969-.078125-.074219-.164062-.085938-.253906-3.582031 2.558594-7.335937 5.035156-11.089844 7.421875-.769531.511719-1.539062.941406-2.304687 1.453125-20.9375 12.726562-43.785156 22.003906-67.671875 27.476562h-.253906l-.339844-2.644531c-8.617188-20.695313-28.789062-34.210937-51.203125-34.304687h-8.53125c-20.351563.027343-38.765625 12.078124-46.933594 30.71875-.6875 1.617187-1.285156 3.269531-1.792969 4.949218-1.648437 5.042969-2.484374 10.3125-2.472656 15.617188v.085937l-69.121094-48.042969h-.085937c-83.933594-56.667968-121.015625-161.507812-91.375-258.34375 29.636719-96.839843 119.042969-162.964843 220.3125-162.949218 204.800781 0 257.023437 170.667968 256 247.46875zm0 0" fill="#ffdc00"/><path d="m380.347656 427.121094c-3.582031 2.558594-7.335937 5.035156-11.089844 7.421875-13.527343-12.691407-14.472656-33.851563-2.136718-47.699219 26.3125-29.355469 43.144531-65.972656 48.292968-105.054688 1.207032-9.3125 9.132813-16.285156 18.523438-16.289062-2.128906 44.964844-19.699219 87.820312-49.746094 121.34375-9.945312 11.144531-11.5 27.453125-3.84375 40.277344zm0 0" fill="#fec108"/><path d="m192.019531 457.242188c-8.152343-18.652344-26.578125-30.703126-46.933593-30.695313h-8.535157c-28.292969.046875-51.207031 23.003906-51.199219 51.296875v8.550781c.019532 9.421875 7.644532 17.0625 17.066407 17.097657h145.066406zm0 0" fill="#3f51b5"/><path d="m366.953125 435.996094v50.429687c-.027344 9.414063-7.652344 17.039063-17.066406 17.066407h-145.066407c-9.414062-.027344-17.039062-7.652344-17.066406-17.066407v-8.617187c-.011718-5.304688.824219-10.574219 2.472656-15.617188.507813-1.679687 1.105469-3.332031 1.792969-4.949218 8.167969-18.640626 26.582031-30.691407 46.933594-30.71875h8.53125c22.414063.09375 42.585937 13.609374 51.203125 34.304687l.59375 2.644531c23.886719-5.472656 46.734375-14.75 67.671875-27.476562zm0 0" fill="#3f51b5"/><path d="m366.953125 435.996094v17.066406c-15.945313 9.6875-33.011719 17.390625-50.824219 22.933594-3.960937 1.199218-8.253906.449218-11.578125-2.019532-3.320312-2.46875-5.273437-6.367187-5.269531-10.503906 23.886719-5.472656 46.734375-14.75 67.671875-27.476562zm0 0" fill="#283593"/><path d="m174.441406 210.273438c12.671875-12.015626 16.746094-30.542969 10.277344-46.765626-6.46875-16.222656-22.167969-26.867187-39.632812-26.867187-17.464844 0-33.164063 10.644531-39.632813 26.867187-6.46875 16.222657-2.394531 34.75 10.277344 46.765626zm0 0" fill="#f5f5f5"/><path d="m162.039062 179.292969c0-14.105469-11.410156-25.535157-25.488281-25.535157-14.074219 0-25.484375 11.429688-25.484375 25.535157 0 14.101562 11.410156 25.535156 25.484375 25.535156 14.078125 0 25.488281-11.433594 25.488281-25.535156zm0 0" fill="#3f51b5"/><path d="m310.972656 210.273438c.257813-.257813.597656-.515626.855469-.769532 16.628906-16.671875 16.605469-43.667968-.050781-60.316406-16.660156-16.644531-43.65625-16.644531-60.316406 0-16.660157 16.648438-16.679688 43.644531-.050782 60.316406.257813.253906.597656.511719.855469.769532zm0 0" fill="#f5f5f5"/><path d="m298.570312 179.292969c-.007812 12.167969-8.613281 22.640625-20.554687 25.003906-11.9375 2.367187-23.886719-4.03125-28.539063-15.277344-4.648437-11.25-.707031-24.214843 9.417969-30.972656s23.609375-5.421875 32.210938 3.1875c4.789062 4.789063 7.476562 11.285156 7.464843 18.058594zm0 0" fill="#3f51b5"/><path d="m273.085938 273.078125v51.199219c0 9.425781-7.640626 17.066406-17.066407 17.066406s-17.066406-7.640625-17.066406-17.066406c0-9.425782-7.640625-17.066406-17.066406-17.066406s-17.066407-7.640626-17.066407-17.066407v-17.066406zm0 0" fill="#02a9f4"/><path d="m162.152344 170.691406c0 4.714844-3.820313 8.535156-8.535156 8.535156-4.710938 0-8.53125-3.820312-8.53125-8.535156 0-4.710937 3.820312-8.53125 8.53125-8.53125 4.714843 0 8.535156 3.820313 8.535156 8.53125zm0 0" fill="#f5f5f5"/><path d="m298.6875 170.691406c0 4.714844-3.824219 8.535156-8.535156 8.535156-4.714844 0-8.535156-3.820312-8.535156-8.535156 0-4.710937 3.820312-8.53125 8.535156-8.53125 4.710937 0 8.535156 3.820313 8.535156 8.53125zm0 0" fill="#f5f5f5"/><path d="m503.484375 256.027344c-.710937 65.140625-25.027344 127.808594-68.4375 176.382812-6.46875 7.234375-15.722656 11.363282-25.429687 11.351563-2.90625.011719-5.804688-.359375-8.617188-1.109375-1.109375-.34375-2.21875-.683594-3.328125-1.109375-.300781-.0625-.589844-.179688-.851563-.34375 4.847657-1.878907 9.179688-4.894531 12.628907-8.789063 43.40625-48.574218 67.722656-111.242187 68.4375-176.382812 1.023437-74.921875-48.726563-239.277344-241.496094-247.125 3.671875-.257813 7.339844-.34375 11.09375-.34375 204.800781 0 257.023437 170.667968 256 247.46875zm0 0" fill="#fec108"/><path d="m366.953125 435.996094v50.429687c-.027344 9.414063-7.652344 17.039063-17.066406 17.066407h-25.601563c9.414063-.027344 17.039063-7.652344 17.066406-17.066407v-37.035156c8.808594-3.917969 17.359376-8.394531 25.601563-13.394531zm0 0" fill="#283593"/><path d="m349.886719 512.007812h-145.066407c-14.132812-.015624-25.585937-11.464843-25.601562-25.597656v-8.621094c-.007812-6.207031.96875-12.378906 2.902344-18.277343.574218-1.902344 1.253906-3.773438 2.03125-5.605469 9.507812-21.800781 31.015625-35.90625 54.800781-35.933594h8.53125c26.035156.019532 49.460937 15.820313 59.234375 39.953125 1.59375 4.4375-.710938 9.324219-5.144531 10.921875-4.4375 1.59375-9.328125-.710937-10.921875-5.148437-7.355469-17.332031-24.339844-28.609375-43.167969-28.660157h-8.53125c-16.96875.019532-32.320313 10.070313-39.117187 25.617188-.546876 1.292969-1.027344 2.613281-1.433594 3.957031-1.402344 4.253907-2.117188 8.703125-2.117188 13.179688v8.617187c.003906 4.714844 3.824219 8.53125 8.535156 8.535156h145.066407c4.710937-.003906 8.527343-3.820312 8.53125-8.535156v-50.429687c0-4.714844 3.820312-8.535157 8.535156-8.535157 4.710937 0 8.53125 3.820313 8.53125 8.535157v50.429687c-.015625 14.132813-11.46875 25.582032-25.597656 25.597656zm0 0"/><path d="m247.484375 512.007812h-145.066406c-14.140625-.023437-25.59375-11.492187-25.597657-25.632812v-8.546875c.011719-33.003906 26.730469-59.765625 59.730469-59.832031h8.535157c23.757812-.023438 45.265624 14.046875 54.757812 35.820312 1.878906 4.324219-.097656 9.351563-4.421875 11.230469-4.320313 1.878906-9.347656-.097656-11.226563-4.421875-6.785156-15.546875-22.148437-25.585938-39.109374-25.5625h-8.535157c-23.578125.054688-42.664062 19.183594-42.664062 42.765625v8.546875c-.007813 4.722656 3.8125 8.554688 8.53125 8.566406h145.066406c4.714844 0 8.535156 3.820313 8.535156 8.535156 0 4.710938-3.820312 8.53125-8.535156 8.53125zm0 0"/><path d="m42.6875 426.675781c-16.835938.007813-32.097656-9.882812-38.96875-25.246093-6.871094-15.367188-4.066406-33.335938 7.160156-45.878907 7.234375-8.097656 13.769532-16.789062 19.539063-25.988281 1.578125-2.664062 4.476562-4.265625 7.574219-4.179688 3.097656.082032 5.90625 1.839844 7.335937 4.585938 1.433594 2.746094 1.261719 6.054688-.441406 8.640625-6.28125 10.007813-13.390625 19.472656-21.257813 28.289063-9.398437 10.550781-8.519531 26.710937 1.964844 36.179687 10.683594 9.019531 26.542969 8.148437 36.175781-1.984375 3.265625-3.679688 6.484375-7.472656 9.53125-11.355469 2.917969-3.703125 8.285157-4.34375 11.988281-1.429687 3.707032 2.917968 4.34375 8.285156 1.429688 11.988281-3.265625 4.140625-6.699219 8.199219-10.214844 12.164063-8.109375 9.035156-19.675781 14.203124-31.816406 14.214843zm0 0"/><path d="m409.617188 452.277344c-16.832032.007812-32.09375-9.882813-38.964844-25.25-6.871094-15.363282-4.066406-33.335938 7.160156-45.875 28.703125-32.089844 45.511719-73.070313 47.597656-116.078125.269532-4.6875 4.242188-8.296875 8.933594-8.117188 4.707031.222657 8.339844 4.222657 8.117188 8.929688-2.28125 46.910156-20.613282 91.617187-51.917969 126.632812-9.386719 10.550781-8.5 26.699219 1.984375 36.164063 10.683594 9.011718 26.542968 8.140625 36.175781-1.992188 42.003906-47.050781 65.539063-107.726562 66.25-170.792968-1.121094-63.945313-26.054687-125.171876-69.925781-171.710938-43.941406-44.53125-103.675782-67.113281-177.542969-67.113281-97.453125-.011719-183.503906 63.578125-212.101563 156.746093-28.59375 93.164063 6.960938 194.082032 87.644532 248.742188 3.257812 1.984375 4.800781 5.890625 3.777344 9.566406-1.019532 3.675782-4.359376 6.222656-8.171876 6.238282h-.085937c-1.703125 0-3.363281-.507813-4.773437-1.460938-87.039063-58.769531-125.492188-167.488281-94.757813-267.910156 30.734375-100.425782 123.449219-169.00000025 228.46875-168.9882815 78.601563 0 142.421875 24.2890625 189.695313 72.1953125 47.367187 49.597656 74.121093 115.339844 74.839843 183.917969-.765625 67.199218-25.851562 131.839844-70.609375 181.96875-8.105468 9.019531-19.664062 14.175781-31.792968 14.1875zm0 0"/><path d="m299.277344 471.988281c-4.335938-.007812-7.976563-3.269531-8.460938-7.582031-.484375-4.308594 2.34375-8.296875 6.570313-9.265625 22.988281-5.265625 44.984375-14.195313 65.132812-26.453125 4.316407-2.683594 8.691407-5.582031 12.914063-8.554688 2.492187-1.757812 5.734375-2.050781 8.5-.773437 2.765625 1.28125 4.640625 3.941406 4.917968 6.976563.273438 3.035156-1.089843 5.988281-3.582031 7.746093-4.492187 3.167969-9.152343 6.246094-13.808593 9.140625-21.738282 13.234375-45.46875 22.875-70.273438 28.550782-.628906.144531-1.269531.21875-1.910156.214843zm0 0"/><path d="m174.441406 218.804688c-3.496094.003906-6.636718-2.125-7.929687-5.371094-1.292969-3.242188-.480469-6.949219 2.054687-9.351563 6.832032-6.429687 10.691406-15.402343 10.652344-24.785156 0-18.851563-15.28125-34.132813-34.132812-34.132813-18.851563 0-34.132813 15.28125-34.132813 34.132813-.039063 9.378906 3.816406 18.355469 10.648437 24.785156 2.210938 2.097657 3.136719 5.21875 2.425782 8.183594-.710938 2.964844-2.953125 5.324219-5.875 6.191406-2.925782.867188-6.089844.105469-8.300782-1.992187-15.203124-14.421875-20.085937-36.652344-12.324218-56.117188 7.761718-19.464844 26.601562-32.234375 47.558594-32.234375 20.953124 0 39.796874 12.769531 47.558593 32.234375s2.878907 41.695313-12.324219 56.117188c-1.585937 1.507812-3.691406 2.34375-5.878906 2.339844zm0 0"/><path d="m310.945312 218.90625c-3.449218-.003906-6.558593-2.078125-7.886718-5.257812-1.332032-3.179688-.628906-6.847657 1.785156-9.308594.183594-.191406.832031-.789063 1.042969-.960938 13.191406-13.394531 13.148437-34.910156-.09375-48.25-13.507813-12.964844-34.839844-12.964844-48.347657 0-13.277343 13.378906-13.277343 34.964844 0 48.347656.335938.269532.652344.558594.949219.867188 3.277344 3.386719 3.1875 8.789062-.199219 12.066406-3.390624 3.277344-8.792968 3.1875-12.066406-.199218l-.703125-.617188c-19.996093-19.984375-20.011719-52.394531-.03125-72.398438 19.980469-20.003906 52.390625-20.027343 72.398438-.050781 20.007812 19.976563 20.039062 52.386719.066406 72.398438-.15625.160156-.707031.660156-.882813.804687-1.578124 1.640625-3.757812 2.566406-6.03125 2.558594zm0 0"/><path d="m181.402344 68.964844c-1.128906 9.378906-4.996094 18.21875-11.125 25.414062-6.09375 7.4375-13.914063 13.273438-22.78125 16.996094-8.753906 3.617188-18.160156 5.382812-27.628906 5.183594-4.582032-.113282-9.144532-.601563-13.648438-1.460938-4.375-1.078125-8.679688-2.441406-12.882812-4.070312-1.363282-.53125-2.195313-1.914063-2.027344-3.363282.167968-1.453124 1.296875-2.609374 2.742187-2.8125l.390625-.050781c4.316406-.597656 8.460938-.707031 12.542969-.976562 4.054687-.636719 8.085937-.753907 11.953125-1.507813 7.570312-1.199218 14.980469-3.246094 22.09375-6.097656 6.902344-3.058594 13.382812-6.988281 19.285156-11.691406 6.253906-5.054688 11.980469-10.730469 17.089844-16.941406l.191406-.230469c.609375-.726563 1.625-.96875 2.496094-.597657.875.367188 1.40625 1.261719 1.308594 2.207032zm0 0"/><path d="m249.488281 67.589844c5.109375 6.210937 10.835938 11.886718 17.089844 16.941406 5.902344 4.703125 12.382813 8.632812 19.28125 11.691406 7.113281 2.851563 14.523437 4.898438 22.09375 6.097656 3.867187.753907 7.898437.871094 11.953125 1.507813 4.082031.269531 8.226562.375 12.542969.976563l.386719.050781c1.445312.203125 2.574218 1.355469 2.746093 2.808593.167969 1.453126-.664062 2.835938-2.027343 3.367188-4.203126 1.628906-8.507813 2.992188-12.882813 4.070312-4.503906.859376-9.066406 1.347657-13.648437 1.460938-9.46875.195312-18.875-1.570312-27.625-5.183594-8.871094-3.722656-16.691407-9.558594-22.785157-17-6.125-7.191406-9.996093-16.03125-11.121093-25.410156-.097657-.941406.429687-1.835938 1.300781-2.207031.871093-.371094 1.882812-.132813 2.496093.585937zm0 0"/><path d="m179.21875 221.875c-2.261719.003906-4.433594-.894531-6.03125-2.5-8.519531-4.863281-18.335938-6.972656-28.101562-6.03125-20.859376 0-28.246094 6.179688-28.316407 6.242188-3.492187 3.027343-8.742187 2.789062-11.949219-.539063-3.160156-3.289063-3.113281-8.5.101563-11.738281 1.84375-1.839844 12.433594-11.03125 40.167969-11.03125s38.324218 9.191406 40.164062 11.03125c2.441406 2.441406 3.171875 6.113281 1.851563 9.300781-1.324219 3.1875-4.433594 5.265625-7.886719 5.265625zm0 0"/><path d="m315.753906 221.875c-2.265625.003906-4.4375-.894531-6.035156-2.5-8.519531-4.863281-18.335938-6.972656-28.101562-6.03125-20.855469 0-28.242188 6.179688-28.316407 6.242188-3.488281 3.027343-8.742187 2.789062-11.945312-.539063-3.160157-3.289063-3.117188-8.5.101562-11.738281 1.839844-1.839844 12.433594-11.03125 40.164063-11.03125 27.734375 0 38.324218 9.191406 40.167968 11.03125 2.441407 2.441406 3.167969 6.113281 1.847657 9.300781-1.320313 3.1875-4.433594 5.265625-7.882813 5.265625zm0 0"/><path d="m307.21875 307.210938c-4.710938 0-8.53125-3.820313-8.53125-8.535157-.011719-9.421875-7.648438-17.054687-17.070312-17.066406h-153.597657c-4.714843 0-8.535156-3.820313-8.535156-8.535156 0-4.710938 3.820313-8.53125 8.535156-8.53125h153.597657c18.84375.019531 34.113281 15.289062 34.136718 34.132812 0 4.714844-3.820312 8.535157-8.535156 8.535157zm0 0"/><path d="m256.019531 349.875c-14.132812-.015625-25.585937-11.46875-25.601562-25.597656-.003907-4.710938-3.820313-8.53125-8.53125-8.535156-14.132813-.015626-25.585938-11.46875-25.601563-25.597657v-17.070312c0-4.710938 3.820313-8.53125 8.535156-8.53125h68.265626c4.710937 0 8.53125 3.820312 8.53125 8.53125v51.203125c-.015626 14.128906-11.464844 25.582031-25.597657 25.597656zm-42.667969-68.265625v8.535156c.003907 4.710938 3.824219 8.527344 8.535157 8.53125 14.132812.015625 25.582031 11.46875 25.597656 25.601563 0 4.710937 3.820313 8.53125 8.535156 8.53125 4.710938 0 8.53125-3.820313 8.53125-8.53125v-42.667969zm0 0"/><path d="m179.21875 315.742188h-8.53125c-4.714844 0-8.535156-3.820313-8.535156-8.53125 0-4.714844 3.820312-8.535157 8.535156-8.535157h8.53125c4.714844 0 8.535156 3.820313 8.535156 8.535157 0 4.710937-3.820312 8.53125-8.535156 8.53125zm0 0"/></svg>