<svg height="511pt" viewBox="0 0 511 511.96691" width="511pt" xmlns="http://www.w3.org/2000/svg"><path d="m77.4375 250.421875-34.21875 14.675781 19.199219 48.640625-29.097657 19.199219-21.847656-55.296875c-6.863281-17.152344 1.253906-36.648437 18.261719-43.859375l44.542969-19.117188c1.421875-.59375 2.914062-.996093 4.4375-1.191406zm0 0" fill="#ff5722"/><path d="m472.445312 93.066406 30.378907 111.871094c2.578125 10.207031.304687 21.035156-6.167969 29.339844-6.472656 8.308594-16.414062 13.160156-26.941406 13.15625h-34.304688l-1.367187-34.132813h35.671875l-29.269532-108.03125zm0 0" fill="#ff5722"/><path d="m435.582031 238.898438c.929688 65.347656-29.976562 127.066406-82.859375 165.464843l-97.28125 72.53125-12.714844-9.640625-82.6875-62.890625c-16.207031-11.371093-30.496093-25.257812-42.324218-41.132812l-22.613282-38.65625c-10.3125-23.449219-16.296874-48.574219-17.664062-74.152344-.171875-3.839844-.257812-7.679687-.257812-11.523437-.007813-8.5.503906-16.992188 1.535156-25.425782 10.839844-91.820312 79.617187-163.757812 164.867187-170.242187 4.265625-.425781 8.53125-.597657 12.796875-.597657 98.988282 0 179.203125 87.894532 179.203125 196.265626zm0 0" fill="#fec108"/><path d="m409.980469 238.898438c.929687 65.347656-29.976563 127.066406-82.859375 165.464843l-84.394532 62.890625-82.6875-62.890625c-16.207031-11.371093-30.496093-25.257812-42.324218-41.132812l-22.613282-38.65625c-10.3125-23.449219-16.296874-48.574219-17.664062-74.152344-.171875-3.839844-.257812-7.679687-.257812-11.523437-.007813-8.5.503906-16.992188 1.535156-25.425782 10.839844-91.820312 79.617187-163.757812 164.867187-170.242187 93.011719 7.082031 166.398438 91.988281 166.398438 195.667969zm0 0" fill="#ffdc00"/><path d="m256.378906 460.765625v25.601563c-.027344 9.414062-7.652344 17.039062-17.066406 17.066406h-102.398438c-9.414062-.027344-17.039062-7.652344-17.066406-17.066406v-25.601563c-.070312-31.339844 24.195313-57.359375 55.464844-59.476563 1.417969-.167968 2.84375-.253906 4.269531-.253906h17.066407c15.84375-.011718 31.042968 6.277344 42.25 17.480469 11.203124 11.207031 17.492187 26.40625 17.480468 42.25zm0 0" fill="#283593"/><path d="m230.78125 460.765625v25.601563c-.027344 9.414062-7.652344 17.039062-17.066406 17.066406h-76.800782c-9.414062-.027344-17.039062-7.652344-17.066406-17.066406v-25.601563c-.070312-31.339844 24.195313-57.359375 55.464844-59.476563 31.273438 2.117188 55.535156 28.136719 55.46875 59.476563zm0 0" fill="#3f51b5"/><path d="m392.914062 460.765625v25.601563c-.027343 9.414062-7.652343 17.039062-17.066406 17.066406h-102.402344c-9.414062-.027344-17.035156-7.652344-17.066406-17.066406v-25.601563c-.066406-31.339844 24.195313-57.359375 55.46875-59.476563 1.414063-.167968 2.839844-.253906 4.265625-.253906h17.066407c15.847656-.011718 31.046874 6.277344 42.25 17.480469 11.207031 11.207031 17.496093 26.40625 17.484374 42.25zm0 0" fill="#283593"/><path d="m367.3125 460.765625v25.601563c-.027344 9.414062-7.652344 17.039062-17.066406 17.066406h-76.800782c-9.414062-.027344-17.035156-7.652344-17.066406-17.066406v-25.601563c-.066406-31.339844 24.195313-57.359375 55.46875-59.476563 31.269532 2.117188 55.535156 28.136719 55.464844 59.476563zm0 0" fill="#3f51b5"/><path d="m222.246094 166.367188c0-21.207032-7.640625-38.398438-17.066406-38.398438-9.425782 0-17.066407 17.191406-17.066407 38.398438 0 21.207031 7.640625 38.398437 17.066407 38.398437 9.425781 0 17.066406-17.191406 17.066406-38.398437zm0 0" fill="#3f51b5"/><path d="m214.660156 149.300781c0-11.78125-4.242187-21.332031-9.480468-21.332031-5.234376 0-9.480469 9.550781-9.480469 21.332031s4.246093 21.332031 9.480469 21.332031c5.238281 0 9.480468-9.550781 9.480468-21.332031zm0 0" fill="#f5f5f5"/><path d="m106.234375 335.757812c-16.804687-22.019531-45.03125-28.722656-63.046875-14.972656s-18.996094 42.746094-2.191406 64.761719c16.804687 22.019531 45.03125 28.722656 63.046875 14.972656s18.996093-42.742187 2.191406-64.761719zm0 0" fill="#ff9801"/><path d="m460.582031 102.367188c-8.882812 4.046874-19.003906 4.414062-28.160156 1.023437-13.570313-5.097656-24.558594-15.382813-30.546875-28.585937-11.949219-25.003907-5.035156-53.25 15.445312-62.976563.765626-.339844 1.621094-.683594 2.472657-1.023437 20.054687-7.679688 44.628906 4.609374 56.148437 28.671874 11.949219 25.003907 5.121094 53.164063-15.359375 62.890626zm0 0" fill="#f57c00"/><path d="m434.984375 102.367188c-.824219.414062-1.679687.757812-2.5625 1.023437-13.570313-5.097656-24.558594-15.382813-30.546875-28.585937-11.949219-25.003907-5.035156-53.25 15.445312-62.976563.765626-.339844 1.621094-.683594 2.472657-1.023437 13.546875 5.1875 24.515625 15.480468 30.550781 28.671874 11.945312 25.003907 5.121094 53.164063-15.359375 62.890626zm0 0" fill="#ff9801"/><path d="m185.554688 263.050781-21.847657 35.582031-14.761719-9.554687-20.222656-13.144531c-8.054687-5.246094-10.472656-15.945313-5.460937-24.148438 2.539062-4.203125 6.828125-7.050781 11.691406-7.765625.386719-.105469.789063-.160156 1.191406-.171875 3.726563-.347656 7.460938.585938 10.582031 2.648438l6.058594 3.925781 3.753906-6.144531c2.300782-3.800782 6.015626-6.535156 10.328126-7.597656 4.527343-1.09375 9.304687-.292969 13.226562 2.21875 7.96875 5.304687 10.371094 15.933593 5.460938 24.152343zm0 0" fill="#bb193b"/><path d="m168.488281 257.246094-19.542969 31.832031-20.222656-13.144531c-8.054687-5.246094-10.472656-15.945313-5.460937-24.148438 2.539062-4.203125 6.828125-7.050781 11.691406-7.765625l.765625.511719.425781-.683594c3.726563-.347656 7.460938.585938 10.582031 2.648438l6.058594 3.925781 3.753906-6.144531c2.300782-3.800782 6.015626-6.535156 10.328126-7.597656 4.890624 5.800781 5.542968 14.074218 1.621093 20.566406zm0 0" fill="#ef314c"/><path d="m145.445312 255.96875c0 4.710938-3.820312 8.53125-8.53125 8.53125-4.714843 0-8.535156-3.820312-8.535156-8.53125 0-4.714844 3.820313-8.535156 8.535156-8.535156 4.710938 0 8.53125 3.820312 8.53125 8.535156zm0 0" fill="#f5f5f5"/><path d="m160.03125 412.894531c-1.742188 0-3.445312-.535156-4.871094-1.535156-16.957031-11.882813-31.902344-26.402344-44.273437-43.007813-2.828125-3.769531-2.0625-9.121093 1.707031-11.949218 3.769531-2.824219 9.117188-2.0625 11.945312 1.707031 11.285157 15.152344 24.914063 28.40625 40.378907 39.253906 3.058593 2.132813 4.375 6.003907 3.257812 9.558594-1.121093 3.554687-4.417969 5.972656-8.144531 5.972656zm0 0"/><path d="m352.730469 412.894531c-3.730469.003907-7.027344-2.410156-8.148438-5.96875-1.121093-3.554687.195313-7.425781 3.253907-9.5625 50.65625-36.746093 80.21875-95.886719 79.210937-158.464843 0-103.515626-76.5625-187.730469-170.667969-187.730469-85.484375 0-158.222656 70.203125-169.1875 163.304687-.992187 8.101563-1.484375 16.261719-1.476562 24.425782 0 3.71875.082031 7.433593.246094 11.144531 1.304687 24.523437 7.046874 48.609375 16.949218 71.085937 1.230469 2.789063.878906 6.023438-.921875 8.484375-1.800781 2.460938-4.777343 3.773438-7.808593 3.445313s-5.65625-2.25-6.886719-5.039063c-10.742188-24.386719-16.972657-50.519531-18.378907-77.132812-.179687-4.050781-.265624-8.019531-.265624-11.988281-.011719-8.847657.527343-17.691407 1.601562-26.476563 11.964844-101.636719 91.988281-178.320313 186.128906-178.320313 103.519532 0 187.734375 91.871094 187.734375 204.796876 1.007813 68.152343-31.273437 132.515624-86.503906 172.460937-1.429687 1-3.132813 1.535156-4.878906 1.535156zm0 0"/><path d="m239.3125 511.96875h-102.398438c-14.132812-.015625-25.585937-11.46875-25.601562-25.601562v-25.601563c.042969-37.683594 30.582031-68.222656 68.269531-68.265625h17.066407c37.683593.042969 68.222656 30.582031 68.265624 68.265625v25.601563c-.015624 14.132812-11.46875 25.585937-25.601562 25.601562zm-59.730469-102.402344c-28.265625.03125-51.171875 22.9375-51.203125 51.199219v25.601563c.007813 4.710937 3.824219 8.527343 8.535156 8.53125h102.398438c4.710938-.003907 8.527344-3.820313 8.535156-8.53125v-25.601563c-.03125-28.261719-22.9375-51.167969-51.199218-51.199219zm0 0"/><path d="m256.378906 477.832031h-136.53125c-4.714844 0-8.535156-3.820312-8.535156-8.53125 0-4.714843 3.820312-8.535156 8.535156-8.535156h136.53125c4.714844 0 8.535156 3.820313 8.535156 8.535156 0 4.710938-3.820312 8.53125-8.535156 8.53125zm0 0"/><path d="m375.847656 511.96875h-102.402344c-14.128906-.015625-25.582031-11.46875-25.597656-25.601562v-25.601563c.042969-37.683594 30.582032-68.222656 68.265625-68.265625h17.066407c37.6875.042969 68.222656 30.582031 68.265624 68.265625v25.601563c-.011718 14.132812-11.464843 25.585937-25.597656 25.601562zm-59.734375-102.402344c-28.261719.03125-51.167969 22.9375-51.199219 51.199219v25.601563c.007813 4.710937 3.824219 8.527343 8.53125 8.53125h102.402344c4.710938-.003907 8.527344-3.820313 8.53125-8.53125v-25.601563c-.03125-28.261719-22.933594-51.167969-51.199218-51.199219zm0 0"/><path d="m392.914062 477.832031h-136.535156c-4.710937 0-8.53125-3.820312-8.53125-8.53125 0-4.714843 3.820313-8.535156 8.53125-8.535156h136.535156c4.710938 0 8.53125 3.820313 8.53125 8.535156 0 4.710938-3.820312 8.53125-8.53125 8.53125zm0 0"/><path d="m205.179688 213.300781c-16.808594 0-25.597657-23.613281-25.597657-46.933593 0-23.320313 8.789063-46.933594 25.597657-46.933594 16.8125 0 25.601562 23.613281 25.601562 46.933594 0 23.320312-8.789062 46.933593-25.601562 46.933593zm-.167969-76.820312c-2.050781.773437-8.363281 11.140625-8.363281 29.886719 0 18.746093 6.3125 29.113281 8.703124 29.886718 2.046876-.773437 8.363282-11.140625 8.363282-29.886718 0-18.746094-6.316406-29.113282-8.703125-29.886719zm0 0"/><path d="m229.125 96.039062c-9.644531-3.75-20.175781-4.605468-30.300781-2.457031-4.835938 1.550781-9.347657 3.976563-13.308594 7.148438-2.183594 1.539062-3.984375 3.640625-6.207031 5.359375-1.953125 2.019531-3.78125 4.179687-5.945313 6.199218l-.253906.238282c-.9375.871094-2.351563.976562-3.40625.253906-1.050781-.726562-1.457031-2.085938-.976563-3.269531 1.167969-2.871094 2.613282-5.640625 4.035157-8.472657 1.703125-2.730468 3.621093-5.320312 5.734375-7.75 4.535156-5.070312 10.277344-8.917968 16.691406-11.195312 6.59375-2.296875 13.726562-2.542969 20.460938-.707031 6.476562 1.695312 12.3125 5.253906 16.78125 10.242187.820312.941406.917968 2.3125.242187 3.363282-.675781 1.046874-1.96875 1.523437-3.164063 1.164062zm0 0"/><path d="m280.328125 91.628906c4.464844-4.984375 10.304687-8.546875 16.78125-10.242187 6.734375-1.832031 13.867187-1.585938 20.460937.710937 6.414063 2.273438 12.152344 6.121094 16.691407 11.191406 2.113281 2.429688 4.03125 5.019532 5.734375 7.75 1.421875 2.832032 2.867187 5.601563 4.035156 8.472657.480469 1.183593.074219 2.542969-.976562 3.265625-1.054688.726562-2.46875.625-3.402344-.246094l-.257813-.238281c-2.164062-2.019531-3.988281-4.183594-5.941406-6.203125-2.21875-1.71875-4.027344-3.820313-6.207031-5.355469-3.964844-3.175781-8.476563-5.601563-13.3125-7.152344-10.125-2.148437-20.65625-1.292969-30.300782 2.457031l-.378906.117188c-1.195312.359375-2.488281-.113281-3.164062-1.164062-.679688-1.046876-.582032-2.417969.234375-3.359376zm0 0"/><path d="m82.28125 416.210938c-4.105469-.011719-8.195312-.5-12.1875-1.460938-14.367188-3.648438-27.039062-12.132812-35.878906-24.027344-9.140625-11.667968-13.984375-26.128906-13.710938-40.945312.078125-13.972656 6.523438-27.144532 17.507813-35.777344 11.226562-8.316406 25.632812-11.054688 39.128906-7.445312 14.367187 3.648437 27.039063 12.132812 35.878906 24.027343 9.140625 11.667969 13.984375 26.128907 13.710938 40.949219-.078125 13.96875-6.523438 27.140625-17.511719 35.773438-7.742188 5.871093-17.21875 9.003906-26.9375 8.90625zm-17.242188-94.035157c-6-.097656-11.863281 1.800781-16.671874 5.394531-6.878907 5.554688-10.855469 13.941407-10.804688 22.785157-.140625 10.878906 3.464844 21.476562 10.21875 30.011719 6.449219 8.765624 15.722656 15.042968 26.257812 17.78125 8.515626 2.382812 17.652344.757812 24.824219-4.410157 6.878907-5.554687 10.855469-13.941406 10.804688-22.785156.144531-10.878906-3.464844-21.480469-10.214844-30.015625v-.003906c-6.453125-8.761719-15.726563-15.039063-26.257813-17.773438-2.671874-.644531-5.410156-.976562-8.15625-.988281zm0 0"/><path d="m445.640625 114.269531c-7.359375-.0625-14.609375-1.75-21.238281-4.941406-13.339844-6.503906-24.027344-17.417969-30.25-30.890625-13.925782-29.207031-5.183594-62.539062 19.480468-74.308594 24.679688-11.75 56.082032 2.433594 70.003907 31.644532 6.546875 13.289062 8.335937 28.421874 5.066406 42.871093-2.902344 13.664063-11.90625 25.246094-24.429687 31.433594-5.820313 2.773437-12.1875 4.207031-18.632813 4.191406zm-13.335937-97.253906c-3.914063-.019531-7.785157.84375-11.324219 2.523437-16.175781 7.710938-21.300781 30.839844-11.421875 51.554688 4.527344 9.910156 12.332031 17.957031 22.097656 22.785156 7.863281 4.09375 17.164062 4.382813 25.269531.792969 7.859375-4.015625 13.457031-11.402344 15.191407-20.054687 2.34375-10.636719.96875-21.753907-3.886719-31.5-6.128907-14.75-20-24.832032-35.925781-26.101563zm0 0"/><path d="m25.382812 336.074219-21.84375-55.296875c-8.59375-21.445313 1.554688-45.824219 22.828126-54.835938l44.550781-19.113281c2.175781-.917969 4.464843-1.53125 6.808593-1.828125l1.992188 16.949219c-.746094.105469-1.476562.308593-2.171875.601562l-44.441406 19.070313c-12.757813 5.402344-18.84375 20.019531-13.695313 32.878906l21.847656 55.296875zm0 0"/><path d="m54.480469 316.871094-19.199219-48.640625c-1.691406-4.292969.332031-9.15625 4.578125-10.972657l34.214844-14.679687 6.726562 15.683594-26.605469 11.410156 16.160157 40.933594zm0 0"/><path d="m469.714844 221.832031h-35.671875c-4.710938 0-8.53125-3.820312-8.53125-8.53125 0-4.714843 3.820312-8.535156 8.53125-8.535156h24.519531l-26.355469-97.265625c-.800781-2.941406.035157-6.085938 2.183594-8.25s5.289063-3.015625 8.238281-2.234375c2.945313.78125 5.253906 3.074219 6.050782 6.019531l29.269531 108.03125c.695312 2.5625.160156 5.308594-1.457031 7.417969-1.613282 2.109375-4.121094 3.347656-6.777344 3.347656zm0 0"/><path d="m469.714844 255.96875h-34.304688c-4.714844 0-8.535156-3.824219-8.535156-8.535156 0-4.710938 3.820312-8.535156 8.535156-8.535156h34.304688c7.917968.007812 15.390625-3.652344 20.242187-9.90625 4.855469-6.257813 6.539063-14.40625 4.566407-22.074219l-30.3125-111.617188c-1.238282-4.546875 1.449218-9.234375 5.996093-10.472656 4.546875-1.234375 9.234375 1.449219 10.472657 5.996094l30.378906 111.875c3.261718 12.902343.359375 26.585937-7.851563 37.058593-8.082031 10.257813-20.433593 16.234376-33.492187 16.210938zm0 0"/><path d="m239.160156 298.640625c-11.507812.003906-21.601562-7.667969-24.679687-18.757813-3.074219-11.085937 1.628906-22.863281 11.492187-28.789062 9.867188-5.921875 22.472656-4.535156 30.8125 3.390625 3.3125 3.265625 3.402344 8.582031.199219 11.953125-3.203125 3.375-8.519531 3.558594-11.949219.417969-3-2.855469-7.621094-3.148438-10.953125-.6875-3.335937 2.460937-4.421875 6.960937-2.570312 10.671875 1.847656 3.710937 6.089843 5.554687 10.0625 4.375 2.933593-.894532 6.117187-.148438 8.347656 1.953125 2.226563 2.101562 3.160156 5.234375 2.441406 8.210937-.71875 2.980469-2.980469 5.34375-5.921875 6.195313-2.363281.703125-4.816406 1.066406-7.28125 1.066406zm0 0"/><path d="m248.886719 331.359375c-12.722657.011719-23.523438-9.320313-25.359375-21.90625-1.835938-12.589844 5.851562-24.617187 18.046875-28.234375 2.933593-.894531 6.117187-.152344 8.347656 1.949219 2.226563 2.101562 3.160156 5.238281 2.441406 8.214843-.71875 2.976563-2.980469 5.339844-5.921875 6.191407-3.949218 1.171875-6.496094 4.996093-6.054687 9.09375.4375 4.09375 3.738281 7.289062 7.84375 7.597656 4.109375.308594 7.847656-2.363281 8.894531-6.34375 1.207031-4.558594 5.878906-7.269531 10.4375-6.0625 4.554688 1.207031 7.269531 5.878906 6.0625 10.4375-2.976562 11.226563-13.128906 19.046875-24.742188 19.0625zm0 0"/><path d="m163.730469 307.167969c-1.644531 0-3.257813-.476563-4.636719-1.371094l-35.027344-22.679687c-11.878906-7.792969-15.460937-23.589844-8.109375-35.746094 7.105469-11.703125 22.234375-15.621094 34.132813-8.84375 7.804687-11.25 23.148437-14.242188 34.609375-6.753906 11.878906 7.796874 15.460937 23.589843 8.109375 35.742187l-21.800782 35.578125c-1.554687 2.527344-4.308593 4.070312-7.277343 4.074219zm-26.160157-54.894531c-.613281 0-1.222656.070312-1.820312.207031-2.191406.5-4.085938 1.875-5.242188 3.804687-2.574218 4.25-1.320312 9.777344 2.835938 12.507813l27.683594 17.921875 17.226562-28.113282c2.574219-4.253906 1.320313-9.777343-2.835937-12.503906-1.875-1.246094-4.179688-1.671875-6.375-1.175781-2.195313.5-4.089844 1.875-5.246094 3.808594l-3.746094 6.109375c-1.203125 1.957031-3.144531 3.351562-5.386719 3.859375-2.242187.511719-4.59375.09375-6.527343-1.15625l-6.007813-3.894531c-1.355468-.890626-2.9375-1.367188-4.558594-1.375zm0 0"/><path d="m304.113281 188.382812c-10.5-.355468-20.511719-4.519531-28.164062-11.714843-3.324219-3.328125-3.332031-8.714844-.019531-12.050781 3.316406-3.332032 8.703124-3.359376 12.050781-.054688 4.785156 4.390625 11.070312 6.785156 17.566406 6.695312 8.664063-1.546874 16.246094-6.75 20.808594-14.277343 2.824219-3.769531 8.175781-4.535157 11.945312-1.707031 3.769531 2.828124 4.535157 8.175781 1.707031 11.945312-7.4375 11.648438-19.679687 19.371094-33.390624 21.070312-.84375.066407-1.683594.09375-2.503907.09375zm0 0"/></svg>