<svg height="512pt" viewBox="0 0 512 512.00357" width="512pt" xmlns="http://www.w3.org/2000/svg"><g fill="#6a1b9a"><path d="m76.953125 250.457031-34.21875 14.675781 19.203125 48.640626-29.101562 19.199218-21.84375-55.292968c-6.863282-17.15625 1.25-36.648438 18.261718-43.863282l44.542969-19.113281c1.417969-.597656 2.910156-1 4.4375-1.195313zm0 0"/><path d="m434.972656 250.457031 34.21875 14.675781-19.199218 48.640626 29.097656 19.199218 21.847656-55.292968c6.863281-17.15625-1.253906-36.648438-18.261719-43.863282l-44.546875-19.113281c-1.417968-.597656-2.910156-1-4.433594-1.195313zm0 0"/><path d="m435.097656 239.875c.929688 65.347656-29.976562 127.0625-82.859375 165.460938l-97.277343 72.535156-12.714844-9.644532-82.6875-62.890624c-16.210938-11.367188-30.496094-25.253907-42.328125-41.128907l-22.613281-38.65625c-10.308594-23.453125-16.292969-48.574219-17.664063-74.15625-.167969-3.839843-.253906-7.679687-.253906-11.519531-.007813-8.5.503906-16.992188 1.535156-25.429688 10.835937-91.816406 79.617187-163.753906 164.863281-170.238281 4.269532-.425781 8.535156-.597656 12.800782-.597656 98.988281 0 179.199218 87.894531 179.199218 196.265625zm0 0"/></g><path d="m409.5 239.875c.929688 65.347656-29.976562 127.0625-82.859375 165.460938l-84.394531 62.890624-82.6875-62.890624c-16.210938-11.367188-30.496094-25.253907-42.328125-41.128907l-22.613281-38.65625c-10.308594-23.453125-16.292969-48.574219-17.664063-74.15625-.167969-3.839843-.253906-7.679687-.253906-11.519531-.007813-8.5.503906-16.992188 1.535156-25.429688 10.835937-91.816406 79.617187-163.753906 164.863281-170.238281 93.015625 7.082031 166.402344 91.988281 166.402344 195.667969zm0 0" fill="#9d27b0"/><path d="m255.898438 460.804688v25.597656c-.027344 9.414062-7.652344 17.039062-17.066407 17.066406h-102.398437c-9.414063-.027344-17.039063-7.652344-17.066406-17.066406v-25.597656c-.070313-31.34375 24.195312-57.363282 55.464843-59.476563 1.417969-.171875 2.839844-.257813 4.265625-.257813h17.066406c15.847657-.011718 31.046876 6.277344 42.253907 17.484376 11.203125 11.203124 17.492187 26.402343 17.480469 42.25zm0 0" fill="#283593"/><path d="m230.300781 460.804688v25.597656c-.03125 9.414062-7.65625 17.039062-17.070312 17.066406h-76.796875c-9.414063-.027344-17.039063-7.652344-17.066406-17.066406v-25.597656c-.070313-31.34375 24.195312-57.363282 55.464843-59.476563 31.273438 2.113281 55.535157 28.132813 55.46875 59.476563zm0 0" fill="#3f51b5"/><path d="m392.433594 460.804688v25.597656c-.027344 9.414062-7.652344 17.039062-17.066406 17.066406h-102.402344c-9.414063-.027344-17.039063-7.652344-17.066406-17.066406v-25.597656c-.066407-31.34375 24.195312-57.363282 55.46875-59.476563 1.414062-.171875 2.839843-.257813 4.265624-.257813h17.066407c15.84375-.011718 31.046875 6.277344 42.25 17.484376 11.203125 11.203124 17.496093 26.402343 17.484375 42.25zm0 0" fill="#283593"/><path d="m366.832031 460.804688v25.597656c-.027343 9.414062-7.652343 17.039062-17.066406 17.066406h-76.800781c-9.414063-.027344-17.039063-7.652344-17.066406-17.066406v-25.597656c-.066407-31.34375 24.195312-57.363282 55.46875-59.476563 31.269531 2.113281 55.535156 28.132813 55.464843 59.476563zm0 0" fill="#3f51b5"/><path d="m105.753906 335.792969c-16.804687-22.019531-45.03125-28.722657-63.046875-14.972657s-18.996093 42.746094-2.191406 64.765626c16.804687 22.015624 45.03125 28.722656 63.046875 14.972656s18.996094-42.746094 2.191406-64.765625zm0 0" fill="#673ab7"/><path d="m471.449219 385.625c-11.78125 17.347656-33.21875 25.382812-53.503907 20.054688-3.449218-1.160157-6.679687-2.890626-9.554687-5.121094-18.007813-13.738282-19.03125-42.753906-2.21875-64.769532 7.011719-9.398437 16.757813-16.402343 27.902344-20.050781 11.847656-4.179687 24.996093-2.265625 35.15625 5.117188 18.007812 13.738281 18.945312 42.667969 2.21875 64.769531zm0 0" fill="#4527a0"/><path d="m445.851562 385.625c-7.03125 9.378906-16.769531 16.378906-27.90625 20.054688-3.449218-1.160157-6.679687-2.890626-9.554687-5.121094-18.007813-13.738282-19.03125-42.753906-2.21875-64.769532 7.011719-9.398437 16.757813-16.402343 27.902344-20.050781 3.453125 1.15625 6.683593 2.886719 9.558593 5.117188 18.003907 13.738281 18.945313 42.667969 2.21875 64.769531zm0 0" fill="#673ab7"/><path d="m170.566406 85.335938s-59.734375-8.53125-59.734375-76.800782c0 0-76.800781 68.269532 0 153.601563" fill="#9d27b0"/><path d="m400.964844 162.136719-12.628906-16.296875-47.105469-60.503906c25.996093-4.808594 47.3125-23.378907 55.640625-48.46875 2.820312-9.175782 4.203125-18.730469 4.09375-28.332032 0 0 76.800781 68.269532 0 153.601563zm0 0" fill="#6a1b9a"/><path d="m375.367188 162.136719-34.136719-76.800781c25.996093-4.808594 47.3125-23.378907 55.640625-48.46875 13.480468 24.746093 10.066406 80.128906-21.503906 125.269531zm0 0" fill="#9d27b0"/><path d="m221.765625 183.46875c0-21.207031-7.640625-38.398438-17.066406-38.398438s-17.066407 17.191407-17.066407 38.398438c0 21.210938 7.640626 38.402344 17.066407 38.402344s17.066406-17.191406 17.066406-38.402344zm0 0" fill="#3f51b5"/><path d="m214.179688 166.402344c0-11.78125-4.246094-21.332032-9.480469-21.332032-5.238281 0-9.480469 9.550782-9.480469 21.332032 0 11.785156 4.242188 21.335937 9.480469 21.335937 5.234375 0 9.480469-9.550781 9.480469-21.335937zm0 0" fill="#f5f5f5"/><path d="m324.164062 183.46875c0-21.207031-7.640624-38.398438-17.066406-38.398438-9.425781 0-17.066406 17.191407-17.066406 38.398438 0 21.210938 7.640625 38.402344 17.066406 38.402344 9.425782 0 17.066406-17.191406 17.066406-38.402344zm0 0" fill="#3f51b5"/><path d="m316.582031 166.402344c0-11.78125-4.246093-21.332032-9.484375-21.332032-5.234375 0-9.480468 9.550782-9.480468 21.332032 0 11.785156 4.246093 21.335937 9.480468 21.335937 5.238282 0 9.484375-9.550781 9.484375-21.335937zm0 0" fill="#f5f5f5"/><path d="m159.550781 412.929688c-1.746093.003906-3.445312-.535157-4.871093-1.535157-16.957032-11.882812-31.90625-26.402343-44.273438-43.007812-2.828125-3.769531-2.0625-9.117188 1.707031-11.945313s9.117188-2.0625 11.945313 1.707032c11.28125 15.152343 24.914062 28.402343 40.378906 39.253906 3.054688 2.132812 4.375 6 3.257812 9.558594-1.121093 3.554687-4.417968 5.972656-8.144531 5.96875zm0 0"/><path d="m352.25 412.929688c-3.730469.007812-7.03125-2.410157-8.152344-5.964844-1.121094-3.558594.199219-7.429688 3.253906-9.5625 15.574219-10.882813 29.257813-24.238282 40.511719-39.542969 2.808594-3.765625 8.125-4.554687 11.90625-1.769531s4.597657 8.101562 1.835938 11.894531c-12.359375 16.800781-27.386719 31.464844-44.480469 43.410156-1.429688 1-3.132812 1.535157-4.875 1.535157zm0 0"/><path d="m94.625 333.148438c-3.382812 0-6.445312-1.996094-7.8125-5.089844-10.746094-24.386719-16.972656-50.523438-18.378906-77.132813-.183594-4.054687-.269532-8.023437-.269532-11.988281.023438-33.472656 7.621094-66.503906 22.21875-96.621094 2.117188-4.167968 7.195313-5.855468 11.386719-3.785156 4.191407 2.070312 5.9375 7.128906 3.914063 11.34375-9.984375 20.292969-16.402344 42.152344-18.972656 64.625-.992188 8.105469-1.484376 16.269531-1.480469 24.4375 0 3.714844.082031 7.429688.246093 11.140625 1.308594 24.527344 7.050782 48.613281 16.953126 71.085937 1.160156 2.640626.914062 5.6875-.660157 8.105469s-4.261719 3.875-7.144531 3.878907zm0 0"/><path d="m417.09375 333.320312c-2.886719-.003906-5.578125-1.46875-7.152344-3.894531-1.570312-2.421875-1.8125-5.472656-.640625-8.113281 9.984375-22.535156 15.753907-46.707031 17.027344-71.320312.15625-3.632813.238281-7.339844.238281-11.054688.007813-8.148438-.484375-16.289062-1.472656-24.378906-2.570312-22.492188-8.988281-44.371094-18.976562-64.683594-2.023438-4.214844-.28125-9.273438 3.910156-11.34375s9.269531-.382812 11.386718 3.785156c14.601563 30.117188 22.195313 63.148438 22.21875 96.621094 0 3.964844-.089843 7.933594-.261718 11.898438-1.378906 26.71875-7.640625 52.957031-18.480469 77.417968-1.371094 3.082032-4.425781 5.066406-7.796875 5.066406zm0 0"/><path d="m359.921875 87.640625c-1.90625.003906-3.757813-.636719-5.257813-1.8125-57.746093-46.167969-139.773437-46.167969-197.523437 0-3.710937 2.90625-9.074219 2.25-11.980469-1.460937-2.902344-3.710938-2.25-9.078126 1.464844-11.980469 63.925781-51 154.628906-51 218.558594 0 2.867187 2.242187 3.996094 6.0625 2.808594 9.503906s-4.429688 5.753906-8.070313 5.75zm0 0"/><path d="m238.832031 512.003906h-102.398437c-14.132813-.015625-25.585938-11.46875-25.601563-25.601562v-25.597656c.042969-37.6875 30.582031-68.222657 68.265625-68.269532h17.066406c37.6875.046875 68.226563 30.582032 68.269532 68.269532v25.597656c-.015625 14.132812-11.46875 25.585937-25.601563 25.601562zm-59.734375-102.398437c-28.261718.027343-51.167968 22.933593-51.199218 51.199219v25.597656c.007812 4.710937 3.824218 8.527344 8.535156 8.535156h102.398437c4.710938-.007812 8.527344-3.824219 8.535157-8.535156v-25.597656c-.03125-28.265626-22.9375-51.171876-51.203126-51.199219zm0 0"/><path d="m255.898438 477.871094h-136.53125c-4.714844 0-8.535157-3.820313-8.535157-8.535156 0-4.710938 3.820313-8.53125 8.535157-8.53125h136.53125c4.714843 0 8.535156 3.820312 8.535156 8.53125 0 4.714843-3.820313 8.535156-8.535156 8.535156zm0 0"/><path d="m375.367188 512.003906h-102.402344c-14.132813-.015625-25.582032-11.46875-25.597656-25.601562v-25.597656c.042968-37.6875 30.582031-68.222657 68.265624-68.269532h17.066407c37.683593.046875 68.222656 30.582032 68.265625 68.269532v25.597656c-.015625 14.132812-11.46875 25.585937-25.597656 25.601562zm-59.734376-102.398437c-28.265624.027343-51.167968 22.933593-51.199218 51.199219v25.597656c.003906 4.710937 3.820312 8.527344 8.53125 8.535156h102.402344c4.707031-.007812 8.527343-3.824219 8.53125-8.535156v-25.597656c-.03125-28.265626-22.933594-51.171876-51.199219-51.199219zm0 0"/><path d="m392.433594 477.871094h-136.535156c-4.710938 0-8.53125-3.820313-8.53125-8.535156 0-4.710938 3.820312-8.53125 8.53125-8.53125h136.535156c4.710937 0 8.53125 3.820312 8.53125 8.53125 0 4.714843-3.820313 8.535156-8.53125 8.535156zm0 0"/><path d="m81.800781 416.25c-4.105469-.011719-8.199219-.503906-12.191406-1.464844-14.363281-3.644531-27.035156-12.132812-35.878906-24.027344-9.140625-11.667968-13.980469-26.128906-13.707031-40.945312.078124-13.972656 6.523437-27.144531 17.507812-35.777344 11.226562-8.3125 25.632812-11.054687 39.128906-7.445312 14.367188 3.648437 27.035156 12.132812 35.878906 24.03125 9.140626 11.664062 13.980469 26.125 13.707032 40.945312-.074219 13.972656-6.519532 27.144532-17.507813 35.773438-7.746093 5.875-17.21875 9.007812-26.9375 8.910156zm-17.242187-94.039062c-6.003906-.097657-11.867188 1.800781-16.671875 5.398437-6.878907 5.554687-10.855469 13.9375-10.804688 22.78125-.140625 10.882813 3.464844 21.480469 10.21875 30.011719 6.449219 8.769531 15.722657 15.046875 26.257813 17.78125 8.511718 2.382812 17.648437.761718 24.824218-4.410156 6.878907-5.554688 10.855469-13.9375 10.804688-22.78125.144531-10.882813-3.464844-21.484376-10.214844-30.019532v-.003906c-6.457031-8.761719-15.726562-15.039062-26.261718-17.773438-2.667969-.644531-5.40625-.976562-8.152344-.988281zm0 0"/><path d="m24.902344 336.113281-21.847656-55.296875c-8.59375-21.445312 1.554687-45.828125 22.832031-54.839844l44.546875-19.113281c2.179687-.914062 4.46875-1.53125 6.8125-1.828125l1.988281 16.949219c-.746094.105469-1.476563.308594-2.167969.605469l-44.441406 19.070312c-12.757812 5.402344-18.847656 20.015625-13.695312 32.878906l21.847656 55.292969zm0 0"/><path d="m54 316.90625-19.199219-48.636719c-1.695312-4.296875.332031-9.15625 4.574219-10.976562l34.21875-14.675781 6.726562 15.679687-26.605468 11.410156 16.15625 40.933594zm0 0"/><path d="m430.132812 416.25c-9.722656.097656-19.199218-3.039062-26.949218-8.910156-10.984375-8.632813-17.429688-21.804688-17.503906-35.773438-.273438-14.820312 4.566406-29.28125 13.707031-40.949218 8.84375-11.894532 21.515625-20.378907 35.882812-24.027344 13.488281-3.816406 27.984375-1.058594 39.128907 7.445312 11.140624 8.503906 17.628906 21.761719 17.503906 35.777344.179687 30.417969-20.199219 57.121094-49.585938 64.972656-3.992187.960938-8.078125 1.453125-12.183594 1.464844zm17.238282-94.039062c-2.75.011718-5.488282.34375-8.160156.988281-10.535157 2.734375-19.804688 9.011719-26.257813 17.773437v.003906c-6.75 8.535157-10.359375 19.132813-10.21875 30.015626-.296875 8.894531 3.730469 17.382812 10.804687 22.785156 7.074219 5.398437 16.324219 7.042968 24.828126 4.410156 21.480468-5.976562 36.378906-25.496094 36.472656-47.792969.054687-8.839843-3.921875-17.226562-10.800782-22.785156-4.804687-3.59375-10.664062-5.496094-16.664062-5.402344zm0 0"/><path d="m487.027344 336.113281-15.871094-6.277343 21.84375-55.296876c5.15625-12.863281-.933594-27.484374-13.695312-32.886718l-44.539063-19.109375c-.660156-.273438-1.359375-.460938-2.070313-.5625l2-16.949219c2.300782.289062 4.550782.890625 6.691407 1.785156l44.65625 19.160156c21.277343 9.011719 31.429687 33.394532 22.828125 54.84375zm0 0"/><path d="m457.929688 316.90625-15.875-6.265625 16.160156-40.933594-26.601563-11.40625 6.726563-15.683593 34.21875 14.675781c4.242187 1.820312 6.269531 6.683593 4.574218 10.976562zm0 0"/><path d="m110.835938 170.671875c-2.421876.003906-4.726563-1.027344-6.34375-2.828125-25.703126-28.550781-37.871094-58.5-36.171876-89 2.496094-29.207031 15.601563-56.488281 36.839844-76.6875 2.511719-2.234375 6.101563-2.785156 9.167969-1.40625 3.066406 1.375 5.039063 4.425781 5.039063 7.785156 0 59.765625 50.296874 68.035156 52.4375 68.359375 4.585937.753907 7.726562 5.042969 7.0625 9.644531-.667969 4.601563-4.894532 7.824219-9.511719 7.242188-32.894531-6.089844-58.730469-31.660156-65.160157-64.492188-10.9375 14.78125-17.472656 32.355469-18.847656 50.691407-1.375 25.730469 9.335938 51.453125 31.832032 76.449219 2.253906 2.503906 2.820312 6.101562 1.449218 9.179687s-4.421875 5.058594-7.792968 5.0625zm0 0"/><path d="m400.964844 170.671875c-3.367188-.003906-6.421875-1.988281-7.789063-5.066406-1.371093-3.078125-.800781-6.671875 1.453125-9.175781 22.542969-25.054688 33.25-50.839844 31.8125-76.636719-1.378906-18.292969-7.90625-35.824219-18.820312-50.5625-6.410156 32.859375-32.257813 58.460937-65.179688 64.554687-4.609375.570313-8.828125-2.652344-9.492187-7.25-.664063-4.59375 2.46875-8.878906 7.050781-9.636718 2.214844-.339844 52.433594-8.644532 52.433594-68.363282-.003906-3.359375 1.96875-6.410156 5.035156-7.785156 3.066406-1.378906 6.65625-.828125 9.167969 1.40625 21.238281 20.199219 34.34375 47.480469 36.839843 76.683594 1.703126 30.503906-10.46875 60.453125-36.167968 89.003906-1.617188 1.800781-3.921875 2.828125-6.34375 2.828125zm0 0"/><path d="m204.699219 230.402344c-16.8125 0-25.601563-23.613282-25.601563-46.933594s8.789063-46.933594 25.601563-46.933594c16.808593 0 25.601562 23.613282 25.601562 46.933594s-8.792969 46.933594-25.601562 46.933594zm-.171875-76.820313c-2.046875.777344-8.363282 11.140625-8.363282 29.886719s6.316407 29.113281 8.707032 29.886719c2.046875-.773438 8.359375-11.140625 8.359375-29.886719s-6.3125-29.109375-8.703125-29.886719zm0 0"/><path d="m307.097656 230.402344c-16.808594 0-25.597656-23.613282-25.597656-46.933594s8.789062-46.933594 25.597656-46.933594c16.8125 0 25.601563 23.613282 25.601563 46.933594s-8.789063 46.933594-25.601563 46.933594zm-.167968-76.820313c-2.050782.777344-8.363282 11.140625-8.363282 29.886719s6.3125 29.113281 8.703125 29.886719c2.046875-.773438 8.363281-11.140625 8.363281-29.886719s-6.316406-29.109375-8.703124-29.886719zm0 0"/><path d="m172.554688 118.476562c4.648437 3.832032 9.667968 7.191407 14.984374 10.023438 4.996094 2.597656 10.21875 4.730469 15.605469 6.375 5.460938 1.28125 10.902344 2.488281 16.699219 3.472656 2.875.707032 5.871094.851563 8.921875 1.65625 3.238281.417969 6.441406 1.113282 9.566406 2.066406l.3125.105469c1.207031.402344 2.074219 1.464844 2.222657 2.730469.144531 1.261719-.453126 2.496094-1.539063 3.164062-6.140625 3.636719-13.0625 5.753907-20.183594 6.179688-14.828125.867188-29.332031-4.59375-39.902343-15.03125-5.292969-5.089844-8.996094-11.601562-10.671876-18.753906-.195312-.945313.21875-1.910156 1.042969-2.414063.824219-.507812 1.875-.4375 2.628907.167969zm0 0"/><path d="m343.222656 120.464844c-1.671875 7.152344-5.378906 13.664062-10.671875 18.753906-10.570312 10.4375-25.070312 15.898438-39.898437 15.03125-7.125-.425781-14.046875-2.542969-20.1875-6.179688-1.082032-.667968-1.679688-1.902343-1.535156-3.164062.148437-1.265625 1.011718-2.328125 2.21875-2.730469l.316406-.105469c3.128906-.953124 6.328125-1.648437 9.570312-2.066406 3.046875-.800781 6.042969-.949218 8.917969-1.65625 5.804687-.984375 11.242187-2.1875 16.703125-3.472656 5.382812-1.644531 10.605469-3.777344 15.601562-6.375 5.316407-2.832031 10.335938-6.191406 14.984376-10.023438l.308593-.25c.75-.605468 1.800781-.675781 2.625-.171874.820313.5 1.238281 1.464843 1.042969 2.410156zm0 0"/><path d="m272.964844 307.203125h-68.265625c-4.714844 0-8.535157-3.820313-8.535157-8.53125 0-4.714844 3.820313-8.535156 8.535157-8.535156h68.265625c14.132812-.015625 25.585937-11.46875 25.601562-25.601563 0-4.710937 3.820313-8.53125 8.53125-8.53125 4.714844 0 8.535156 3.820313 8.535156 8.53125-.027343 23.554688-19.113281 42.640625-42.667968 42.667969zm0 0"/><path d="m238.832031 341.335938h-8.53125c-4.714843 0-8.535156-3.820313-8.535156-8.53125 0-4.714844 3.820313-8.535157 8.535156-8.535157h8.53125c4.714844 0 8.535157 3.820313 8.535157 8.535157 0 4.710937-3.820313 8.53125-8.535157 8.53125zm0 0"/></svg>