<svg height="512pt" viewBox="0 -17 512.08851 512" width="512pt" xmlns="http://www.w3.org/2000/svg"><path d="m56.726562 292.714844 25.066407-41.875-4.523438-59.050782v.085938l-46.003906 77.042969c8.234375 8.328125 21.203125 12.484375 25.460937 23.796875zm0 0" fill="#ff5722"/><path d="m434.644531 189.824219c3.160157 1.652343 5.726563 4.246093 7.339844 7.425781l32.855469 65.792969c7.855468 15.578125 11.167968 33.054687 9.554687 50.429687l-4.007812 44.289063-34.050781-2.21875 4.097656-45.140625c.960937-11.078125-1.132813-22.203125-6.058594-32.171875l-13.996094-27.988281zm0 0" fill="#ff5722"/><path d="m435.242188 204.84375c.929687 65.347656-29.976563 127.0625-82.855469 165.460938l-97.28125 72.535156-12.714844-9.644532-82.6875-62.890624c-16.207031-11.367188-30.496094-25.253907-42.324219-41.128907l-22.613281-38.65625c-10.3125-23.453125-16.296875-48.574219-17.664063-74.15625-.171874-3.839843-.257812-7.679687-.257812-11.519531-.007812-8.5.503906-16.992188 1.535156-25.429688 10.839844-91.816406 79.617188-163.753906 164.863282-170.238281 4.269531-.425781 8.535156-.597656 12.800781-.597656 98.988281 0 179.199219 87.894531 179.199219 196.265625zm0 0" fill="#fec108"/><path d="m409.644531 204.84375c.929688 65.347656-29.976562 127.0625-82.859375 165.460938l-84.394531 62.890624-82.6875-62.890624c-16.207031-11.367188-30.496094-25.253907-42.324219-41.128907l-22.613281-38.65625c-10.3125-23.453125-16.296875-48.574219-17.664063-74.15625-.171874-3.839843-.257812-7.679687-.257812-11.519531-.007812-8.5.503906-16.992188 1.535156-25.429688 10.839844-91.816406 79.617188-163.753906 164.863282-170.238281 93.015624 7.082031 166.402343 91.988281 166.402343 195.667969zm0 0" fill="#ffdc00"/><path d="m256.042969 426.710938v25.601562c-.027344 9.414062-7.652344 17.039062-17.066407 17.066406h-102.398437c-9.414063-.027344-17.039063-7.652344-17.066406-17.066406v-25.601562c-.070313-31.34375 24.195312-57.363282 55.464843-59.476563 1.417969-.171875 2.839844-.257813 4.265626-.257813h17.066406c15.847656-.011718 31.046875 6.277344 42.253906 17.484376 11.203125 11.203124 17.492188 26.402343 17.480469 42.25zm0 0" fill="#283593"/><path d="m230.445312 426.710938v25.601562c-.027343 9.414062-7.652343 17.039062-17.066406 17.066406h-76.800781c-9.414063-.027344-17.039063-7.652344-17.066406-17.066406v-25.601562c-.070313-31.34375 24.195312-57.363282 55.464843-59.476563 31.273438 2.113281 55.535157 28.132813 55.46875 59.476563zm0 0" fill="#3f51b5"/><path d="m392.578125 426.710938v25.601562c-.027344 9.414062-7.652344 17.039062-17.066406 17.066406h-102.402344c-9.414063-.027344-17.039063-7.652344-17.066406-17.066406v-25.601562c-.066407-31.34375 24.195312-57.363282 55.46875-59.476563 1.414062-.171875 2.839843-.257813 4.265625-.257813h17.066406c15.847656-.011718 31.046875 6.277344 42.25 17.484376 11.207031 11.203124 17.496094 26.402343 17.484375 42.25zm0 0" fill="#283593"/><path d="m366.976562 426.710938v25.601562c-.027343 9.414062-7.652343 17.039062-17.066406 17.066406h-76.800781c-9.414063-.027344-17.039063-7.652344-17.066406-17.066406v-25.601562c-.066407-31.34375 24.195312-57.363282 55.46875-59.476563 31.269531 2.113281 55.535156 28.132813 55.464843 59.476563zm0 0" fill="#3f51b5"/><path d="m169.6875 268.417969-72.535156 27.304687-52.90625 19.96875c-.417969.105469-.851563.136719-1.28125.085938l15.320312-25.621094c-4.257812-11.308594-16.699218-16.484375-24.933594-24.816406l-20.765624 34.738281c-.304688.453125-.5625.941406-.765626 1.449219-5.84375 12.128906-3.714843 26.59375 5.375 36.523437 6.679688 7.542969 16.292969 11.835938 26.367188 11.773438 4.097656-.019531 8.160156-.710938 12.035156-2.046875l59.21875-22.273438 70.570313-26.621094zm0 0" fill="#ff5722"/><path d="m466.304688 452.226562c-5.273438.433594-10.570313-.417968-15.445313-2.476562-17.402344-8.121094-28.753906-25.347656-29.355469-44.542969-1.707031-23.296875 9.816406-43.777343 27.050782-50.601562 3.222656-1.394531 6.65625-2.230469 10.15625-2.476563 22.613281-1.707031 42.582031 19.371094 44.628906 46.933594 2.046875 27.648438-14.507813 51.457031-37.035156 53.164062zm0 0" fill="#f57c00"/><path d="m450.859375 449.75c-17.402344-8.121094-28.753906-25.347656-29.355469-44.542969-1.707031-23.296875 9.816406-43.777343 27.050782-50.601562 17.296874 8.171875 28.566406 25.335937 29.183593 44.457031 1.707031 23.296875-9.726562 43.863281-26.878906 50.6875zm0 0" fill="#ff9801"/><path d="m221.910156 132.3125c0-21.210938-7.640625-38.402344-17.066406-38.402344s-17.066406 17.191406-17.066406 38.402344c0 21.207031 7.640625 38.398438 17.066406 38.398438s17.066406-17.191407 17.066406-38.398438zm0 0" fill="#3f51b5"/><path d="m214.324219 115.246094c0-11.785156-4.242188-21.335938-9.480469-21.335938s-9.480469 9.550782-9.480469 21.335938c0 11.78125 4.242188 21.332031 9.480469 21.332031s9.480469-9.550781 9.480469-21.332031zm0 0" fill="#f5f5f5"/><path d="m324.308594 132.3125c0-21.210938-7.640625-38.402344-17.066406-38.402344-9.425782 0-17.066407 17.191406-17.066407 38.402344 0 21.207031 7.640625 38.398438 17.066407 38.398438 9.425781 0 17.066406-17.191407 17.066406-38.398438zm0 0" fill="#3f51b5"/><path d="m316.726562 115.246094c0-11.785156-4.246093-21.335938-9.484374-21.335938-5.234376 0-9.480469 9.550782-9.480469 21.335938 0 11.78125 4.246093 21.332031 9.480469 21.332031 5.238281 0 9.484374-9.550781 9.484374-21.332031zm0 0" fill="#f5f5f5"/><path d="m243.210938 290.417969c-20.753907 18.347656-49.710938 19.570312-64.71875 2.59375-15.011719-16.980469-10.390626-45.742188 10.363281-64.082031 20.753906-18.339844 49.742187-19.457032 64.753906-2.476563 15.007813 16.984375 10.351563 45.621094-10.398437 63.964844zm0 0" fill="#ff9801"/><path d="m159.695312 378.839844c-1.746093 0-3.449218-.535156-4.875-1.535156-18.242187-12.792969-34.132812-28.648438-46.960937-46.863282-1.871094-2.484375-2.246094-5.785156-.976563-8.625 1.269532-2.835937 3.984376-4.757812 7.082032-5.019531 3.097656-.257813 6.089844 1.1875 7.8125 3.777344 11.699218 16.605469 26.179687 31.066406 42.808594 42.734375 3.054687 2.132812 4.375 6.003906 3.253906 9.558594-1.121094 3.558593-4.417969 5.976562-8.144532 5.972656zm0 0"/><path d="m352.394531 378.839844c-3.730469.003906-7.027343-2.414063-8.148437-5.972656-1.117188-3.554688.199218-7.425782 3.257812-9.558594 50.65625-36.75 80.214844-95.886719 79.207032-158.464844 0-103.515625-76.558594-187.734375-170.667969-187.734375-89.574219 0-164.355469 76.957031-170.257813 175.191406-.25 4.09375-.40625 8.277344-.40625 12.542969-.089844 30.167969 6.570313 59.96875 19.488282 87.230469 1.304687 2.757812 1.039062 6-.695313 8.507812-1.734375 2.507813-4.679687 3.898438-7.71875 3.648438s-5.714844-2.101563-7.019531-4.855469c-13.992188-29.546875-21.207032-61.839844-21.125-94.53125 0-4.613281.175781-9.128906.445312-13.566406 6.433594-107.234375 88.707032-191.2343752 187.289063-191.2343752 103.519531 0 187.734375 91.8710932 187.734375 204.8007812 1.007812 68.152344-31.277344 132.515625-86.507813 172.460938-1.429687 1-3.132812 1.535156-4.875 1.535156zm0 0"/><path d="m238.976562 477.910156h-102.398437c-14.132813-.015625-25.585937-11.46875-25.601563-25.597656v-25.601562c.042969-37.683594 30.582032-68.222657 68.265626-68.265626h17.066406c37.6875.042969 68.226562 30.582032 68.269531 68.265626v25.601562c-.015625 14.128906-11.46875 25.582031-25.601563 25.597656zm-59.734374-102.398437c-28.261719.03125-51.167969 22.933593-51.199219 51.199219v25.601562c.003906 4.710938 3.824219 8.527344 8.535156 8.53125h102.398437c4.710938-.003906 8.53125-3.820312 8.535157-8.53125v-25.601562c-.03125-28.265626-22.9375-51.167969-51.203125-51.199219zm0 0"/><path d="m256.042969 443.777344h-136.53125c-4.714844 0-8.535157-3.820313-8.535157-8.53125 0-4.714844 3.820313-8.535156 8.535157-8.535156h136.53125c4.714843 0 8.535156 3.820312 8.535156 8.535156 0 4.710937-3.820313 8.53125-8.535156 8.53125zm0 0"/><path d="m375.511719 477.910156h-102.402344c-14.132813-.015625-25.582031-11.46875-25.597656-25.597656v-25.601562c.042969-37.683594 30.582031-68.222657 68.265625-68.265626h17.066406c37.683594.042969 68.222656 30.582032 68.265625 68.265626v25.601562c-.015625 14.128906-11.46875 25.582031-25.597656 25.597656zm-59.734375-102.398437c-28.265625.03125-51.167969 22.933593-51.199219 51.199219v25.601562c.003906 4.710938 3.820313 8.527344 8.53125 8.53125h102.402344c4.710937-.003906 8.527343-3.820312 8.53125-8.53125v-25.601562c-.03125-28.265626-22.933594-51.167969-51.199219-51.199219zm0 0"/><path d="m392.578125 443.777344h-136.535156c-4.710938 0-8.53125-3.820313-8.53125-8.53125 0-4.714844 3.820312-8.535156 8.53125-8.535156h136.535156c4.710937 0 8.53125 3.820312 8.53125 8.535156 0 4.710937-3.820313 8.53125-8.53125 8.53125zm0 0"/><path d="m206.75 313.53125c-13.164062.328125-25.816406-5.101562-34.648438-14.871094-18.140624-20.523437-13.167968-54.675781 11.101563-76.125 24.25-21.441406 58.714844-22.199218 76.800781-1.726562 18.097656 20.472656 13.097656 54.570312-11.144531 76.003906-10.96875 9.953125-25.027344 15.839844-39.816406 16.671875-.765625.035156-1.53125.046875-2.292969.046875zm18.417969-90.625c-11.382813.3125-22.273438 4.71875-30.664063 12.414062-17.210937 15.214844-21.527344 38.5625-9.617187 52.035157 6.03125 6.441406 14.667969 9.78125 23.464843 9.078125 10.867188-.675782 21.175782-5.058594 29.207032-12.410156 17.191406-15.203126 21.527344-38.492188 9.660156-51.921876-5.667969-6.113281-13.714844-9.46875-22.050781-9.191406zm0 0"/><path d="m43.34375 324.328125c-.265625 0-.511719-.011719-.71875-.027344-2.996094-.179687-5.6875-1.898437-7.113281-4.539062-1.414063-2.621094-1.363281-5.789063.132812-8.363281l38.824219-64.9375c2.421875-4.046876 7.660156-5.367188 11.707031-2.949219 4.042969 2.421875 5.363281 7.660156 2.945313 11.707031l-26.59375 44.476562 104.148437-39.261718c2.855469-1.078125 6.066407-.546875 8.421875 1.386718 2.359375 1.933594 3.503906 4.980469 3.007813 7.988282-.496094 3.007812-2.558594 5.523437-5.410157 6.597656l-125.433593 47.273438c-1.269531.40625-2.589844.625-3.917969.648437zm0 0"/><path d="m43.5625 358.359375c-12.523438.09375-24.472656-5.25-32.75-14.652344-11.304688-12.371093-14.011719-30.34375-6.855469-45.496093.328125-.800782.726563-1.570313 1.183594-2.304688l64.636719-108.128906c1.847656-3.429688 5.789062-5.171875 9.570312-4.226563 3.78125.949219 6.441406 4.339844 6.453125 8.238281 0 1.566407-.414062 3.109376-1.207031 4.460938l-64.683594 108.203125c-4.707031 9.148437-3.257812 20.253906 3.632813 27.886719 7.347656 8.207031 18.949219 11.121094 29.300781 7.359375l129.535156-48.804688c2.871094-1.148437 6.140625-.660156 8.542969 1.285157 2.40625 1.941406 3.570313 5.035156 3.046875 8.082031s-2.65625 5.574219-5.570312 6.601562l-129.800782 48.894531c-4.832031 1.699219-9.914062 2.578126-15.035156 2.601563zm0 0"/><path d="m463.726562 460.84375c-25.984374 0-48.414062-23.949219-50.742187-54.996094-2.40625-32.269531 17.808594-60.179687 45.066406-62.210937 13.945313-.851563 27.511719 4.714843 36.839844 15.117187 10.050781 10.894532 16.039063 24.921875 16.953125 39.71875 1.289062 14.757813-2.523438 29.507813-10.800781 41.792969-7.652344 11.6875-20.234375 19.226563-34.152344 20.457031-1.054687.078125-2.113281.121094-3.164063.121094zm-2.507812-100.261719c-.632812 0-1.265625.023438-1.898438.070313-17.867187 1.335937-31.019531 21.039062-29.320312 43.925781 1.71875 22.910156 17.636719 40.40625 35.625 39.128906 8.78125-.902343 16.667969-5.761719 21.421875-13.199219 6.03125-9.066406 8.78125-19.925781 7.78125-30.765624-.621094-10.867188-4.964844-21.1875-12.300781-29.226563-5.421875-6.117187-13.136719-9.714844-21.308594-9.933594zm0 0"/><path d="m446.34375 364.078125c-.257812 0-.515625-.015625-.785156-.035156-4.691406-.429688-8.148438-4.578125-7.722656-9.269531l4.09375-45.144532c.820312-9.503906-.980469-19.050781-5.199219-27.609375l-13.992188-27.964843c-1.367187-2.726563-1.171875-5.972657.507813-8.519532 1.679687-2.542968 4.589844-3.996094 7.632812-3.816406 3.046875.183594 5.761719 1.976562 7.125 4.703125l14 27.988281c5.617188 11.375 8.011719 24.066406 6.925782 36.707032l-4.097657 45.195312c-.398437 4.390625-4.078125 7.757812-8.488281 7.765625zm0 0"/><path d="m480.394531 366.292969c-.257812 0-.511719-.011719-.777343-.03125-2.253907-.203125-4.335938-1.292969-5.785157-3.03125-1.453125-1.742188-2.152343-3.984375-1.945312-6.238281l4.007812-44.289063c1.46875-15.789063-1.542969-31.671875-8.683593-45.828125l-32.855469-65.8125c-.820313-1.578125-2.105469-2.867188-3.683594-3.683594-2.699219-1.421875-4.433594-4.171875-4.554687-7.21875-.117188-3.046875 1.398437-5.925781 3.976562-7.550781 2.578125-1.628906 5.828125-1.753906 8.527344-.335937 4.707031 2.472656 8.535156 6.34375 10.957031 11.074218l32.894531 65.878906c8.570313 17.003907 12.183594 36.078126 10.425782 55.039063l-4.011719 44.265625c-.398438 4.394531-4.082031 7.761719-8.492188 7.761719zm0 0"/><path d="m204.84375 179.246094c-16.8125 0-25.601562-23.613282-25.601562-46.933594 0-23.324219 8.789062-46.933594 25.601562-46.933594s25.601562 23.609375 25.601562 46.933594c0 23.320312-8.789062 46.933594-25.601562 46.933594zm-.171875-76.824219c-2.046875.777344-8.363281 11.144531-8.363281 29.890625s6.308594 29.109375 8.707031 29.886719c2.046875-.777344 8.363281-11.140625 8.363281-29.886719s-6.3125-29.113281-8.707031-29.890625zm0 0"/><path d="m307.242188 179.246094c-16.808594 0-25.597657-23.613282-25.597657-46.933594 0-23.324219 8.789063-46.933594 25.597657-46.933594 16.8125 0 25.601562 23.609375 25.601562 46.933594 0 23.320312-8.789062 46.933594-25.601562 46.933594zm-.167969-76.824219c-2.050781.777344-8.363281 11.144531-8.363281 29.890625s6.308593 29.109375 8.703124 29.886719c2.046876-.777344 8.363282-11.140625 8.363282-29.886719s-6.308594-29.113281-8.703125-29.890625zm0 0"/><path d="m230.445312 187.777344c-2.265624.003906-4.4375-.898438-6.035156-2.5-5.597656-4.269532-12.535156-6.40625-19.566406-6.03125-7.078125-.382813-14.058594 1.792968-19.667969 6.128906-3.410156 3.183594-8.738281 3.070312-12.015625-.25-3.25-3.316406-3.226562-8.625.050782-11.914062 8.746093-7.585938 20.066406-11.53125 31.632812-11.035157 11.566406-.496093 22.886719 3.449219 31.632812 11.035157 2.441407 2.441406 3.167969 6.109374 1.847657 9.296874-1.320313 3.191407-4.429688 5.269532-7.878907 5.269532zm0 0"/><path d="m332.84375 187.777344c-2.261719.003906-4.433594-.898438-6.03125-2.5-5.601562-4.269532-12.539062-6.40625-19.570312-6.03125-7.078126-.382813-14.058594 1.792968-19.664063 6.128906-3.414063 3.1875-8.742187 3.074219-12.019531-.25-3.246094-3.316406-3.222656-8.625.050781-11.914062 8.75-7.585938 20.066406-11.53125 31.632813-11.035157 11.570312-.496093 22.886718 3.449219 31.632812 11.035157 2.441406 2.441406 3.171875 6.109374 1.851562 9.296874-1.320312 3.191407-4.433593 5.269532-7.882812 5.269532zm0 0"/><path d="m163.832031 83.171875c9.644531 3.75 20.175781 4.605469 30.300781 2.460937 4.835938-1.554687 9.347657-3.980468 13.3125-7.152343 2.179688-1.539063 3.980469-3.640625 6.203126-5.359375 1.953124-2.019532 3.78125-4.179688 5.945312-6.199219l.253906-.238281c.9375-.871094 2.351563-.976563 3.40625-.253906 1.050782.726562 1.457032 2.085937.976563 3.269531-1.167969 2.871093-2.613281 5.640625-4.035157 8.472656-1.703124 2.730469-3.621093 5.320313-5.730468 7.75-4.539063 5.070313-10.28125 8.917969-16.695313 11.195313-6.59375 2.296874-13.726562 2.542968-20.460937.707031-6.476563-1.695313-12.3125-5.253907-16.78125-10.242188-.820313-.941406-.917969-2.3125-.242188-3.359375.679688-1.050781 1.96875-1.527344 3.164063-1.167968zm0 0"/><path d="m351.5625 87.582031c-4.464844 4.988281-10.300781 8.546875-16.78125 10.242188-6.734375 1.835937-13.867188 1.585937-20.460938-.710938-6.414062-2.273437-12.152343-6.121093-16.691406-11.191406-2.113281-2.429687-4.03125-5.019531-5.734375-7.75-1.421875-2.832031-2.867187-5.601563-4.035156-8.472656-.480469-1.183594-.074219-2.542969.976563-3.265625 1.054687-.726563 2.46875-.621094 3.402343.246094l.257813.242187c2.164062 2.015625 3.992187 4.179687 5.941406 6.199219 2.21875 1.71875 4.027344 3.820312 6.207031 5.355468 3.964844 3.175782 8.476563 5.601563 13.3125 7.152344 10.125 2.148438 20.65625 1.292969 30.300781-2.457031l.378907-.117187c1.195312-.359376 2.488281.113281 3.167969 1.160156.679687 1.050781.582031 2.421875-.238282 3.363281zm0 0"/><path d="m298.710938 264.578125c-.914063 0-1.820313-.144531-2.683594-.433594-11.296875-3.675781-22.90625-6.316406-34.683594-7.886719-4.6875-.464843-8.113281-4.640624-7.648438-9.332031.183594-2.265625 1.28125-4.363281 3.042969-5.804687 1.757813-1.441406 4.027344-2.109375 6.289063-1.847656 13.035156 1.683593 25.882812 4.585937 38.375 8.671874 3.976562 1.316407 6.40625 5.328126 5.738281 9.460938-.667969 4.136719-4.242187 7.175781-8.429687 7.171875zm0 0"/><path d="m301.261719 282.070312c-2.960938.003907-5.714844-1.527343-7.269531-4.050781-4.871094-7.894531-5.089844-17.8125-.566407-25.914062 4.519531-8.105469 13.070313-13.125 22.351563-13.128907 4.710937 0 8.53125 3.820313 8.53125 8.535157 0 4.710937-3.820313 8.53125-8.53125 8.53125-3.09375.003906-5.941406 1.675781-7.449219 4.375-1.507813 2.703125-1.4375 6.003906.183594 8.640625 1.625 2.628906 1.695312 5.933594.191406 8.636718-1.503906 2.699219-4.355469 4.375-7.445313 4.378907zm0 0"/></svg>