<svg height="512pt" viewBox="0 0 512 512.01347" width="512pt" xmlns="http://www.w3.org/2000/svg"><path d="m435.105469 238.945312c.929687 65.347657-29.976563 127.0625-82.859375 165.460938l-97.277344 72.535156-12.714844-9.644531-82.691406-62.890625c-16.207031-11.367188-30.496094-25.253906-42.324219-41.128906l-22.613281-38.65625c-10.3125-23.449219-16.296875-48.574219-17.664062-74.152344-.171876-3.84375-.253907-7.683594-.253907-11.523438-.011719-8.5.503907-16.992187 1.535157-25.429687 10.835937-91.816406 79.617187-163.753906 164.863281-170.238281 4.265625-.425782 8.535156-.597656 12.800781-.597656 98.984375 0 179.199219 87.894531 179.199219 196.265624zm0 0" fill="#fec108"/><path d="m409.503906 238.945312c.929688 65.347657-29.976562 127.0625-82.855468 165.460938l-84.394532 62.890625-82.691406-62.890625c-16.207031-11.367188-30.496094-25.253906-42.324219-41.128906l-22.613281-38.65625c-10.3125-23.449219-16.296875-48.574219-17.664062-74.152344-.171876-3.84375-.253907-7.683594-.253907-11.523438-.011719-8.5.503907-16.992187 1.535157-25.429687 10.835937-91.816406 79.617187-163.753906 164.863281-170.238281 93.011719 7.082031 166.398437 91.988281 166.398437 195.667968zm0 0" fill="#ffdc00"/><path d="m471.96875 93.113281 30.378906 111.871094c2.582032 10.207031.304688 21.035156-6.167968 29.339844-6.46875 8.304687-16.410157 13.160156-26.941407 13.15625h-34.304687l-1.363282-34.132813h35.667969l-29.269531-108.03125zm0 0" fill="#ff5722"/><path d="m76.960938 250.46875-34.21875 14.675781 19.199218 48.640625-29.097656 19.199219-21.84375-55.296875c-6.867188-17.152344 1.25-36.648438 18.261719-43.859375l44.542969-19.117187c1.417968-.59375 2.910156-.996094 4.4375-1.195313zm0 0" fill="#ff5722"/><path d="m255.90625 460.8125v25.601562c-.027344 9.414063-7.652344 17.039063-17.066406 17.066407h-102.402344c-9.414062-.027344-17.039062-7.652344-17.066406-17.066407v-25.601562c-.066406-31.34375 24.195312-57.359375 55.46875-59.476562 1.414062-.171876 2.839844-.253907 4.265625-.253907h17.066406c15.847656-.011719 31.046875 6.277344 42.25 17.480469 11.207031 11.203125 17.496094 26.40625 17.484375 42.25zm0 0" fill="#283593"/><path d="m230.304688 460.8125v25.601562c-.027344 9.414063-7.652344 17.039063-17.066407 17.066407h-76.800781c-9.414062-.027344-17.039062-7.652344-17.066406-17.066407v-25.601562c-.066406-31.34375 24.195312-57.359375 55.46875-59.476562 31.269531 2.117187 55.535156 28.132812 55.464844 59.476562zm0 0" fill="#3f51b5"/><path d="m392.4375 460.8125v25.601562c-.027344 9.414063-7.652344 17.039063-17.066406 17.066407h-102.398438c-9.414062-.027344-17.039062-7.652344-17.066406-17.066407v-25.601562c-.070312-31.34375 24.195312-57.359375 55.464844-59.476562 1.417968-.171876 2.839844-.253907 4.269531-.253907h17.066406c15.84375-.011719 31.042969 6.277344 42.25 17.480469 11.203125 11.203125 17.492188 26.40625 17.480469 42.25zm0 0" fill="#283593"/><path d="m366.839844 460.8125v25.601562c-.027344 9.414063-7.652344 17.039063-17.066406 17.066407h-76.800782c-9.414062-.027344-17.039062-7.652344-17.066406-17.066407v-25.601562c-.070312-31.34375 24.195312-57.359375 55.464844-59.476562 31.273437 2.117187 55.535156 28.132812 55.46875 59.476562zm0 0" fill="#3f51b5"/><path d="m221.773438 166.414062c0-21.207031-7.640626-38.402343-17.066407-38.402343s-17.066406 17.195312-17.066406 38.402343c0 21.207032 7.640625 38.398438 17.066406 38.398438s17.066407-17.191406 17.066407-38.398438zm0 0" fill="#3f51b5"/><path d="m214.1875 149.347656c0-11.78125-4.246094-21.335937-9.480469-21.335937-5.238281 0-9.484375 9.554687-9.484375 21.335937s4.246094 21.332032 9.484375 21.332032c5.234375 0 9.480469-9.550782 9.480469-21.332032zm0 0" fill="#f5f5f5"/><path d="m324.171875 166.414062c0-21.207031-7.640625-38.402343-17.066406-38.402343s-17.066407 17.195312-17.066407 38.402343c0 21.207032 7.640626 38.398438 17.066407 38.398438s17.066406-17.191406 17.066406-38.398438zm0 0" fill="#3f51b5"/><path d="m316.585938 149.347656c0-11.78125-4.242188-21.335937-9.480469-21.335937s-9.480469 9.554687-9.480469 21.335937 4.242188 21.332032 9.480469 21.332032 9.480469-9.550782 9.480469-21.332032zm0 0" fill="#f5f5f5"/><path d="m105.761719 335.804688c-16.804688-22.019532-45.035157-28.722657-63.046875-14.972657-18.015625 13.75-19 42.742188-2.195313 64.761719 16.808594 22.019531 45.035157 28.722656 63.050781 14.972656 18.011719-13.75 18.996094-42.746094 2.191407-64.761718zm0 0" fill="#ff9801"/><path d="m460.109375 102.414062c-8.882813 4.046876-19.007813 4.414063-28.160156 1.023438-13.574219-5.097656-24.5625-15.382812-30.550781-28.585938-11.945313-25.003906-5.035157-53.25 15.445312-62.976562.769531-.339844 1.621094-.683594 2.476562-1.023438 20.050782-7.679687 44.628907 4.605469 56.148438 28.671876 11.945312 25.003906 5.121094 53.160156-15.359375 62.890624zm0 0" fill="#f57c00"/><path d="m434.507812 102.414062c-.820312.414063-1.679687.757813-2.558593 1.023438-13.574219-5.097656-24.5625-15.382812-30.550781-28.585938-11.945313-25.003906-5.035157-53.25 15.445312-62.976562.769531-.339844 1.621094-.683594 2.476562-1.023438 13.542969 5.1875 24.511719 15.480469 30.546876 28.671876 11.949218 25.003906 5.121093 53.160156-15.359376 62.890624zm0 0" fill="#ff9801"/><path d="m281.503906 22.160156 48.859375-13.296875c2.511719-.75 5.226563-.292969 7.355469 1.234375 2.128906 1.53125 3.429688 3.960938 3.519531 6.582032v43.46875c-.089843 2.621093-1.390625 5.050781-3.519531 6.578124-2.128906 1.53125-4.84375 1.988282-7.355469 1.234376l-48.859375-13.292969h-51.199218l-48.855469 13.292969c-2.511719.753906-5.230469.296874-7.359375-1.234376-2.128906-1.527343-3.425782-3.957031-3.519532-6.578124v-43.46875c.09375-2.621094 1.390626-5.050782 3.519532-6.582032 2.128906-1.527344 4.847656-1.984375 7.359375-1.234375l48.855469 13.296875zm0 0" fill="#6a1b9a"/><path d="m185.078125 263.097656-21.84375 35.582032-34.988281-22.699219c-.710938-.4375-1.367188-.949219-1.960938-1.535157l-.257812-.171874c-6.339844-5.726563-7.699219-15.15625-3.242188-22.441407 4.289063-7.074219 13.132813-9.914062 20.738282-6.65625.980468.296875 1.902343.761719 2.730468 1.367188l6.058594 3.925781 3.753906-6.144531c3.925782-6.503907 11.734375-9.546875 19.027344-7.425781h.085938c1.554687.507812 3.042968 1.195312 4.4375 2.046874 7.96875 5.304688 10.375 15.933594 5.460937 24.152344zm0 0" fill="#bb193b"/><path d="m176.546875 257.292969-21.847656 35.585937-28.414063-18.433594-.257812-.171874c-6.339844-5.726563-7.699219-15.15625-3.242188-22.441407 4.289063-7.074219 13.132813-9.914062 20.738282-6.65625.980468.296875 1.902343.761719 2.730468 1.367188l6.058594 3.925781 3.753906-6.144531c3.925782-6.503907 11.734375-9.546875 19.027344-7.425781h.085938c4.648437 5.855468 5.191406 13.972656 1.367187 20.394531zm0 0" fill="#ef314c"/><path d="m238.839844 17.082031h34.132812c4.710938 0 8.53125 3.820313 8.53125 8.53125v25.601563c0 4.710937-3.820312 8.53125-8.53125 8.53125h-34.132812c-4.714844 0-8.535156-3.820313-8.535156-8.53125v-25.601563c0-4.710937 3.820312-8.53125 8.535156-8.53125zm0 0" fill="#9d27b0"/><path d="m144.972656 256.011719c0 4.714843-3.820312 8.535156-8.535156 8.535156-4.710938 0-8.53125-3.820313-8.53125-8.535156 0-4.710938 3.820312-8.53125 8.53125-8.53125 4.714844 0 8.535156 3.820312 8.535156 8.53125zm0 0" fill="#f5f5f5"/><path d="m159.554688 412.941406c-1.738282 0-3.4375-.535156-4.863282-1.535156-16.960937-11.882812-31.910156-26.402344-44.277344-43.007812-1.832031-2.441407-2.21875-5.667969-1.023437-8.472657 1.199219-2.804687 3.800781-4.753906 6.828125-5.121093 3.027344-.363282 6.015625.914062 7.847656 3.351562 11.28125 15.152344 24.910156 28.40625 40.375 39.253906 3.054688 2.132813 4.371094 6.003906 3.253906 9.558594-1.117187 3.554688-4.410156 5.972656-8.136718 5.972656zm0 0"/><path d="m352.253906 412.941406c-3.726562.003906-7.023437-2.414062-8.144531-5.96875-1.121094-3.558594.199219-7.429687 3.253906-9.5625 50.660157-36.75 80.21875-95.886718 79.207031-158.464844 0-69.988281-35.046874-133.695312-91.476562-166.261718-4.082031-2.355469-5.480469-7.574219-3.125-11.65625 2.359375-4.082032 7.578125-5.484375 11.660156-3.125 61.683594 35.605468 100.011719 104.980468 100.011719 181.042968 1.003906 68.152344-31.28125 132.515626-86.511719 172.460938-1.425781 1-3.128906 1.535156-4.875 1.535156zm0 0"/><path d="m94.628906 333.160156c-3.382812.003906-6.449218-1.996094-7.816406-5.09375-10.742188-24.386718-16.964844-50.519531-18.367188-77.132812-.1875-4.050782-.273437-8.015625-.273437-11.988282-.007813-8.847656.527344-17.691406 1.601563-26.476562 6.683593-64.128906 43.136718-121.382812 98.414062-154.570312 2.644531-1.523438 5.898438-1.519532 8.535156.007812 2.640625 1.527344 4.261719 4.347656 4.257813 7.394531-.003907 3.050781-1.632813 5.867188-4.273438 7.386719-50.625 30.503906-83.957031 83.035156-89.992187 141.832031-.992188 8.101563-1.488282 16.261719-1.476563 24.425781 0 3.714844.082031 7.425782.25 11.136719 1.300781 24.527344 7.039063 48.617188 16.941407 71.09375 1.167968 2.636719.921874 5.6875-.652344 8.105469-1.574219 2.417969-4.261719 3.875-7.148438 3.878906zm0 0"/><path d="m238.839844 512.011719h-102.402344c-14.128906-.015625-25.582031-11.464844-25.597656-25.597657v-25.601562c.042968-37.683594 30.582031-68.222656 68.265625-68.265625h17.066406c37.683594.042969 68.222656 30.582031 68.265625 68.265625v25.601562c-.015625 14.132813-11.464844 25.582032-25.597656 25.597657zm-59.734375-102.398438c-28.265625.03125-51.167969 22.9375-51.199219 51.199219v25.601562c.003906 4.710938 3.820312 8.527344 8.53125 8.53125h102.402344c4.710937-.003906 8.527344-3.820312 8.53125-8.53125v-25.601562c-.03125-28.261719-22.933594-51.167969-51.199219-51.199219zm0 0"/><path d="m255.90625 477.878906h-136.535156c-4.710938 0-8.53125-3.820312-8.53125-8.53125 0-4.714844 3.820312-8.535156 8.53125-8.535156h136.535156c4.710938 0 8.53125 3.820312 8.53125 8.535156 0 4.710938-3.820312 8.53125-8.53125 8.53125zm0 0"/><path d="m375.371094 512.011719h-102.398438c-14.132812-.015625-25.585937-11.464844-25.601562-25.597657v-25.601562c.042968-37.683594 30.582031-68.222656 68.269531-68.265625h17.066406c37.683594.042969 68.222657 30.582031 68.265625 68.265625v25.601562c-.015625 14.132813-11.46875 25.582032-25.601562 25.597657zm-59.730469-102.398438c-28.265625.03125-51.171875 22.9375-51.203125 51.199219v25.601562c.003906 4.710938 3.824219 8.527344 8.535156 8.53125h102.398438c4.710937-.003906 8.53125-3.820312 8.535156-8.53125v-25.601562c-.03125-28.261719-22.9375-51.167969-51.199219-51.199219zm0 0"/><path d="m392.4375 477.878906h-136.53125c-4.714844 0-8.535156-3.820312-8.535156-8.53125 0-4.714844 3.820312-8.535156 8.535156-8.535156h136.53125c4.714844 0 8.535156 3.820312 8.535156 8.535156 0 4.710938-3.820312 8.53125-8.535156 8.53125zm0 0"/><path d="m204.707031 213.347656c-16.8125 0-25.601562-23.613281-25.601562-46.933594 0-23.320312 8.789062-46.933593 25.601562-46.933593 16.808594 0 25.597657 23.613281 25.597657 46.933593 0 23.320313-8.789063 46.933594-25.597657 46.933594zm-.171875-76.820312c-2.046875.773437-8.363281 11.140625-8.363281 29.886718 0 18.746094 6.308594 29.113282 8.703125 29.886719 2.050781-.773437 8.363281-11.140625 8.363281-29.886719 0-18.746093-6.308593-29.113281-8.703125-29.886718zm0 0"/><path d="m307.105469 213.347656c-16.8125 0-25.601563-23.613281-25.601563-46.933594 0-23.320312 8.789063-46.933593 25.601563-46.933593s25.601562 23.613281 25.601562 46.933593c0 23.320313-8.789062 46.933594-25.601562 46.933594zm-.171875-76.820312c-2.046875.773437-8.363282 11.140625-8.363282 29.886718 0 18.746094 6.308594 29.113282 8.707032 29.886719 2.046875-.773437 8.363281-11.140625 8.363281-29.886719 0-18.746093-6.308594-29.113281-8.707031-29.886718zm0 0"/><path d="m228.652344 96.085938c-9.644532-3.75-20.175782-4.605469-30.300782-2.460938-4.835937 1.554688-9.347656 3.980469-13.3125 7.152344-2.183593 1.539062-3.984374 3.640625-6.207031 5.359375-1.953125 2.019531-3.78125 4.179687-5.941406 6.199219l-.257813.238281c-.933593.871093-2.351562.976562-3.402343.253906-1.054688-.726563-1.460938-2.085937-.980469-3.269531 1.167969-2.871094 2.613281-5.640625 4.039062-8.476563 1.703126-2.726562 3.617188-5.316406 5.730469-7.746093 4.539063-5.070313 10.277344-8.921876 16.691407-11.195313 6.59375-2.296875 13.726562-2.542969 20.464843-.707031 6.476563 1.695312 12.3125 5.253906 16.78125 10.242187.820313.941407.917969 2.3125.238281 3.359375-.675781 1.050782-1.964843 1.527344-3.164062 1.167969zm0 0"/><path d="m279.851562 91.675781c4.46875-4.988281 10.304688-8.546875 16.78125-10.242187 6.734376-1.835938 13.871094-1.585938 20.460938.707031 6.414062 2.277344 12.15625 6.125 16.695312 11.195313 2.113282 2.429687 4.027344 5.019531 5.730469 7.75 1.421875 2.832031 2.871094 5.601562 4.035157 8.472656.480468 1.183594.074218 2.542968-.976563 3.265625-1.050781.726562-2.464844.621093-3.402344-.246094l-.253906-.242187c-2.164063-2.015626-3.992187-4.179688-5.945313-6.199219-2.21875-1.71875-4.023437-3.820313-6.207031-5.355469-3.964843-3.175781-8.476562-5.601562-13.3125-7.152344-10.121093-2.148437-20.652343-1.292968-30.300781 2.457032l-.378906.117187c-1.195313.359375-2.488282-.113281-3.164063-1.160156-.679687-1.050781-.582031-2.421875.238281-3.363281zm0 0"/><path d="m81.804688 416.1875c-19.082032-.609375-36.820313-9.984375-48.066407-25.414062-9.140625-11.671876-13.980469-26.132813-13.707031-40.953126.070312-13.96875 6.515625-27.144531 17.507812-35.773437 21.722657-16.582031 55.378907-9.136719 75.007813 16.578125 19.625 25.722656 17.921875 60.140625-3.800781 76.722656-7.757813 5.84375-17.230469 8.953125-26.941406 8.839844zm-17.183594-93.996094c-6.023438-.09375-11.910156 1.8125-16.734375 5.421875-6.875 5.554688-10.851563 13.941407-10.796875 22.785157-.144532 10.878906 3.464844 21.476562 10.214844 30.011718 13.925781 18.253906 36.851562 24.246094 51.09375 13.371094 14.242187-10.875 14.5-34.558594.582031-52.804688v.003907c-7.980469-11.183594-20.636719-18.105469-34.359375-18.789063zm0 0"/><path d="m445.164062 114.316406c-7.359374-.0625-14.609374-1.75-21.242187-4.941406-13.335937-6.507812-24.019531-17.417969-30.242187-30.890625-13.925782-29.210937-5.183594-62.546875 19.484374-74.308594 12.695313-5.824219 27.351563-5.542969 39.816407.757813 13.3125 6.523437 23.96875 17.433594 30.175781 30.890625 6.546875 13.289062 8.335938 28.417969 5.066406 42.867187-2.898437 13.660156-11.898437 25.242188-24.417968 31.433594-5.820313 2.773438-12.191407 4.207031-18.640626 4.191406zm-13.386718-97.234375c-3.894532-.023437-7.746094.832031-11.265625 2.503907-16.171875 7.710937-21.296875 30.839843-11.433594 51.554687 4.527344 9.914063 12.332031 17.957031 22.101563 22.785156 7.867187 4.089844 17.167968 4.378907 25.277343.792969 7.855469-4.015625 13.449219-11.402344 15.179688-20.054688 2.347656-10.632812.976562-21.75-3.882813-31.496093-4.515625-9.898438-12.296875-17.941407-22.039062-22.785157-4.347656-2.113281-9.105469-3.242187-13.9375-3.300781zm0 0"/><path d="m24.914062 336.121094-21.851562-55.296875c-8.597656-21.445313 1.554688-45.828125 22.832031-54.835938l44.546875-19.113281c2.171875-.917969 4.460938-1.53125 6.800782-1.832031l2 16.953125c-.746094.105468-1.472657.308594-2.167969.601562l-44.445313 19.070313c-12.753906 5.402343-18.839844 20.019531-13.695312 32.878906l21.851562 55.296875zm0 0"/><path d="m54.007812 316.917969-19.199218-48.640625c-1.703125-4.292969.320312-9.15625 4.566406-10.972656l34.222656-14.679688 6.734375 15.683594-26.609375 11.410156 16.148438 40.933594zm0 0"/><path d="m469.238281 221.878906h-35.667969c-4.714843 0-8.535156-3.820312-8.535156-8.53125 0-4.714844 3.820313-8.535156 8.535156-8.535156h24.515626l-26.347657-97.265625c-.855469-2.960937-.046875-6.152344 2.113281-8.347656 2.160157-2.199219 5.339844-3.0625 8.3125-2.257813 2.976563.804688 5.285157 3.152344 6.042969 6.136719l29.269531 108.035156c.699219 2.5625.160157 5.308594-1.457031 7.417969-1.617187 2.113281-4.121093 3.351562-6.78125 3.347656zm0 0"/><path d="m469.238281 256.011719h-34.304687c-4.710938 0-8.53125-3.820313-8.53125-8.53125 0-4.714844 3.820312-8.535157 8.53125-8.535157h34.304687c7.917969.003907 15.390625-3.65625 20.242188-9.914062 4.855469-6.253906 6.539062-14.402344 4.566406-22.070312l-30.308594-111.609376c-1.234375-4.546874 1.449219-9.238281 5.996094-10.472656 4.550781-1.234375 9.238281 1.449219 10.472656 5.996094l30.378907 111.871094c3.257812 12.90625.355468 26.589844-7.855469 37.0625-8.085938 10.257812-20.433594 16.230468-33.492188 16.203125zm0 0"/><path d="m272.972656 68.28125h-34.132812c-9.421875-.011719-17.058594-7.648438-17.066406-17.066406v-25.601563c.007812-9.421875 7.644531-17.054687 17.066406-17.066406h34.132812c9.421875.011719 17.054688 7.644531 17.066406 17.066406v25.601563c-.011718 9.417968-7.644531 17.054687-17.066406 17.066406zm-34.132812-42.667969v25.601563h34.140625l-.007813-25.601563zm0 0"/><path d="m179.128906 76.804688c-3.808594.007812-7.511718-1.234376-10.546875-3.535157-4.121093-3.105469-6.542969-7.964843-6.542969-13.121093v-43.46875c0-5.15625 2.421876-10.015626 6.542969-13.121094 4.308594-3.261719 9.886719-4.34375 15.101563-2.929688l48.863281 13.292969c4.546875 1.238281 7.230469 5.929687 5.992187 10.476563-1.238281 4.546874-5.925781 7.230468-10.476562 5.992187l-48.855469-13.292969-.101562 43.050782 48.957031-13.714844c4.550781-1.238282 9.238281 1.445312 10.476562 5.996094 1.238282 4.546874-1.445312 9.238281-5.992187 10.472656l-48.859375 13.292968c-1.484375.40625-3.015625.609376-4.558594.609376zm0 0"/><path d="m332.679688 76.804688c-1.539063 0-3.070313-.203126-4.558594-.609376l-48.855469-13.292968c-4.550781-1.234375-7.234375-5.925782-5.996094-10.472656 1.238281-4.550782 5.929688-7.234376 10.476563-5.996094l48.859375 13.296875.101562-43.050781-48.960937 13.710937c-4.546875 1.238281-9.238282-1.445313-10.476563-5.992187-1.238281-4.546876 1.445313-9.238282 5.996094-10.476563l48.855469-13.292969c5.21875-1.414062 10.796875-.332031 15.109375 2.929688 4.121093 3.105468 6.542969 7.964844 6.542969 13.121094v43.46875c0 5.15625-2.421876 10.015624-6.542969 13.121093-3.035157 2.296875-6.742188 3.539063-10.550781 3.535157zm0 0"/><path d="m163.460938 143.65625c2.378906 1.257812 5.105468 1.683594 7.753906 1.207031 2.046875-.683593 3.886718-1.875 5.351562-3.460937 1.679688-1.804688 3.6875-3.605469 5.546875-5.910156 2.070313-2.367188 4.332031-4.558594 6.761719-6.558594l-2.53125 5.824218c.027344-.957031.214844-1.898437.554688-2.789062 1.269531-3.363281 4.488281-5.582031 8.078124-5.578125 4.714844 0 8.535157 3.820313 8.535157 8.535156 0 4.710938-3.820313 8.53125-8.535157 8.53125.96875.003907 1.929688-.160156 2.84375-.488281 2.34375-.832031 4.199219-2.65625 5.078126-4.980469.335937-.871093.515624-1.792969.542968-2.726562l-2.53125 5.824219c-2.152344 2.667968-4.621094 5.0625-7.355468 7.125-3.117188 2.402343-6.570313 4.328124-10.246094 5.714843-4.296875 1.742188-9.058594 1.96875-13.5.648438-3.988282-1.40625-7.28125-4.296875-9.191406-8.070313-.425782-.792968-.300782-1.765625.3125-2.421875.609374-.65625 1.570312-.851562 2.390624-.488281zm0 0"/><path d="m350.898438 146.207031c-1.9375 3.601563-5.136719 6.359375-8.984376 7.746094-4.332031 1.335937-8.980468 1.214844-13.238281-.347656-3.75-1.203125-7.273437-3.023438-10.417969-5.394531-2.761718-2.03125-5.238281-4.429688-7.359374-7.121094l-2.53125-5.824219c.027343.933594.210937 1.855469.542968 2.726563.882813 2.324218 2.738282 4.144531 5.082032 4.980468.910156.328125 1.871093.492188 2.839843.488282-3.394531-.011719-6.460937-2.039063-7.804687-5.15625-1.34375-3.121094-.707032-6.742188 1.617187-9.21875 2.328125-2.476563 5.898438-3.335938 9.097657-2.191407 2.386718.851563 4.277343 2.707031 5.171874 5.074219.339844.894531.527344 1.835938.554688 2.792969l-2.527344-5.824219c4.417969 3.886719 8.480469 8.167969 12.128906 12.789062 1.46875 1.769532 3.421876 3.078126 5.617188 3.761719 2.75.398438 5.554688-.140625 7.957031-1.53125l.085938-.042969c.394531-.191406.847656-.222656 1.261719-.082031.414062.140625.753906.4375.949218.832031.238282.488282.222656 1.066407-.042968 1.542969zm0 0"/><path d="m238.628906 298.695312c-11.503906-.015624-21.582031-7.707031-24.640625-18.796874-3.058593-11.089844 1.652344-22.855469 11.519531-28.773438 9.867188-5.914062 22.46875-4.519531 30.804688 3.40625 2.277344 2.082031 3.253906 5.234375 2.550781 8.238281-.703125 3.003907-2.976562 5.398438-5.941406 6.253907-2.964844.855468-6.160156.046874-8.359375-2.121094-1.925781-1.828125-4.59375-2.660156-7.21875-2.246094s-4.90625 2.023438-6.175781 4.359375c-1.644531 3.035156-1.300781 6.761719.875 9.441406 2.171875 2.679688 5.746093 3.789063 9.054687 2.804688 4.503906-1.304688 9.21875 1.269531 10.554688 5.765625 1.335937 4.492187-1.203125 9.222656-5.6875 10.59375-2.382813.710937-4.851563 1.070312-7.335938 1.074218zm0 0"/><path d="m248.363281 331.414062c-12.710937-.015624-23.484375-9.355468-25.308593-21.933593-1.824219-12.582031 5.859374-24.59375 18.042968-28.21875 4.503906-1.300781 9.214844 1.273437 10.550782 5.765625 1.335937 4.496094-1.203126 9.226562-5.6875 10.59375-3.945313 1.175781-6.488282 4.996094-6.046876 9.089844.4375 4.089843 3.734376 7.285156 7.835938 7.597656 4.105469.3125 7.84375-2.347656 8.898438-6.328125.734374-2.992188 3.027343-5.355469 6-6.179688 2.96875-.828125 6.152343.011719 8.328124 2.195313 2.175782 2.183594 3.003907 5.371094 2.171876 8.335937-2.246094 8.660157-8.882813 15.5-17.46875 18.007813-2.375.707031-4.839844 1.070312-7.316407 1.074218zm0 0"/><path d="m163.253906 307.214844c-1.644531 0-3.257812-.476563-4.640625-1.371094l-35.023437-22.679688c-11.871094-7.800781-15.453125-23.589843-8.109375-35.746093 7.109375-11.699219 22.238281-15.621094 34.132812-8.847657 7.808594-11.25 23.152344-14.242187 34.613281-6.75 11.871094 7.796876 15.453126 23.585938 8.105469 35.742188l-21.800781 35.578125c-1.550781 2.53125-4.304688 4.074219-7.277344 4.074219zm-26.164062-54.894532c-.609375 0-1.214844.070313-1.808594.207032-2.195312.5-4.089844 1.875-5.25 3.800781-2.570312 4.257813-1.316406 9.78125 2.839844 12.511719l27.675781 17.921875 17.238281-28.113281c2.570313-4.253907 1.3125-9.78125-2.84375-12.503907-1.871094-1.246093-4.171875-1.667969-6.363281-1.171875-2.195313.496094-4.085937 1.871094-5.242187 3.800782l-3.75 6.109374c-1.199219 1.964844-3.140626 3.355469-5.382813 3.863282-2.242187.5-4.589844.085937-6.523437-1.152344l-6.019532-3.894531c-1.355468-.890625-2.945312-1.371094-4.570312-1.378907zm0 0"/></svg>