<svg height="511pt" viewBox="0 0 511 511.99977" width="511pt" xmlns="http://www.w3.org/2000/svg"><g fill="#6a1b9a"><path d="m77.453125 250.453125-34.21875 14.675781 19.203125 48.640625-29.101562 19.199219-21.84375-55.292969c-6.867188-17.15625 1.25-36.648437 18.261718-43.863281l44.542969-19.113281c1.417969-.597657 2.910156-.996094 4.4375-1.195313zm0 0"/><path d="m435.472656 250.453125 34.21875 14.675781-19.199218 48.640625 29.097656 19.199219 21.847656-55.292969c6.863281-17.15625-1.253906-36.648437-18.261719-43.863281l-44.546875-19.113281c-1.417968-.597657-2.910156-.996094-4.4375-1.195313zm0 0"/><path d="m435.597656 239.871094c.929688 65.347656-29.976562 127.0625-82.859375 165.460937l-97.277343 72.535157-12.714844-9.644532-82.6875-62.890625c-16.210938-11.367187-30.496094-25.253906-42.328125-41.128906l-22.613281-38.65625c-10.308594-23.449219-16.292969-48.574219-17.664063-74.15625-.167969-3.839844-.253906-7.679687-.253906-11.519531-.007813-8.5.503906-16.992188 1.535156-25.429688 10.835937-91.816406 79.617187-163.753906 164.863281-170.238281 4.269532-.425781 8.535156-.597656 12.800782-.597656 98.988281 0 179.199218 87.894531 179.199218 196.265625zm0 0"/></g><path d="m410 239.871094c.929688 65.347656-29.976562 127.0625-82.859375 165.460937l-84.394531 62.890625-82.6875-62.890625c-16.210938-11.367187-30.496094-25.253906-42.328125-41.128906l-22.613281-38.65625c-10.308594-23.449219-16.292969-48.574219-17.664063-74.15625-.167969-3.839844-.253906-7.679687-.253906-11.519531-.007813-8.5.503906-16.992188 1.535156-25.429688 10.835937-91.816406 79.617187-163.753906 164.863281-170.238281 93.015625 7.082031 166.402344 91.988281 166.402344 195.667969zm0 0" fill="#9d27b0"/><path d="m256.398438 460.800781v25.597657c-.027344 9.414062-7.652344 17.039062-17.066407 17.066406h-102.398437c-9.414063-.027344-17.039063-7.652344-17.066406-17.066406v-25.597657c-.070313-31.34375 24.195312-57.363281 55.464843-59.476562 1.414063-.171875 2.839844-.257813 4.265625-.257813h17.066406c15.847657-.011718 31.046876 6.277344 42.25 17.484375 11.207032 11.203125 17.496094 26.402344 17.484376 42.25zm0 0" fill="#283593"/><path d="m230.796875 460.800781v25.597657c-.027344 9.414062-7.652344 17.039062-17.066406 17.066406h-76.796875c-9.414063-.027344-17.039063-7.652344-17.066406-17.066406v-25.597657c-.070313-31.34375 24.195312-57.363281 55.464843-59.476562 31.269531 2.113281 55.535157 28.132812 55.464844 59.476562zm0 0" fill="#3f51b5"/><path d="m392.933594 460.800781v25.597657c-.027344 9.414062-7.652344 17.039062-17.066406 17.066406h-102.402344c-9.414063-.027344-17.039063-7.652344-17.066406-17.066406v-25.597657c-.070313-31.34375 24.195312-57.363281 55.46875-59.476562 1.414062-.171875 2.839843-.257813 4.265624-.257813h17.066407c15.84375-.011718 31.046875 6.277344 42.25 17.484375 11.203125 11.203125 17.496093 26.402344 17.484375 42.25zm0 0" fill="#283593"/><path d="m367.332031 460.800781v25.597657c-.027343 9.414062-7.652343 17.039062-17.066406 17.066406h-76.800781c-9.414063-.027344-17.039063-7.652344-17.066406-17.066406v-25.597657c-.070313-31.34375 24.195312-57.363281 55.46875-59.476562 31.269531 2.113281 55.535156 28.132812 55.464843 59.476562zm0 0" fill="#3f51b5"/><path d="m106.253906 335.789062c-16.804687-22.019531-45.03125-28.722656-63.046875-14.972656s-18.996093 42.746094-2.191406 64.765625c16.804687 22.015625 45.03125 28.722657 63.046875 14.972657s18.996094-42.746094 2.191406-64.765626zm0 0" fill="#673ab7"/><path d="m471.949219 385.621094c-11.78125 17.347656-33.21875 25.382812-53.503907 20.054687-3.449218-1.160156-6.679687-2.890625-9.554687-5.121093-18.007813-13.738282-19.03125-42.753907-2.21875-64.769532 7.011719-9.398437 16.757813-16.402344 27.902344-20.050781 11.847656-4.179687 24.996093-2.265625 35.15625 5.117187 18.007812 13.738282 18.945312 42.667969 2.21875 64.769532zm0 0" fill="#673ab7"/><path d="m446.351562 385.621094c-7.03125 9.382812-16.773437 16.378906-27.90625 20.054687-3.449218-1.160156-6.679687-2.890625-9.554687-5.121093-18.007813-13.738282-19.03125-42.753907-2.21875-64.769532 7.011719-9.398437 16.757813-16.402344 27.902344-20.050781 3.453125 1.15625 6.683593 2.886719 9.558593 5.117187 18.003907 13.738282 18.941407 42.667969 2.21875 64.769532zm0 0" fill="#673ab7"/><path d="m171.066406 85.332031s-59.734375-8.53125-59.734375-76.800781c0 0-76.800781 68.269531 0 153.601562" fill="#9d27b0"/><path d="m401.464844 162.132812-12.628906-16.296874-47.105469-60.503907c25.996093-4.808593 47.3125-23.378906 55.640625-48.46875 2.820312-9.175781 4.203125-18.730469 4.09375-28.332031 0 0 76.800781 68.269531 0 153.601562zm0 0" fill="#6a1b9a"/><path d="m375.867188 170.667969-34.136719-85.335938c25.996093-4.808593 47.3125-23.378906 55.640625-48.46875 13.480468 24.746094 10.066406 88.660157-21.503906 133.804688zm0 0" fill="#9d27b0"/><path d="m222.265625 183.464844c0-21.207032-7.640625-38.398438-17.066406-38.398438s-17.066407 17.191406-17.066407 38.398438c0 21.210937 7.640626 38.402344 17.066407 38.402344s17.066406-17.191407 17.066406-38.402344zm0 0" fill="#3f51b5"/><path d="m214.679688 166.398438c0-11.78125-4.246094-21.332032-9.480469-21.332032-5.238281 0-9.480469 9.550782-9.480469 21.332032 0 11.785156 4.242188 21.335937 9.480469 21.335937 5.234375 0 9.480469-9.550781 9.480469-21.335937zm0 0" fill="#f5f5f5"/><path d="m324.664062 183.464844c0-21.207032-7.640624-38.398438-17.066406-38.398438-9.425781 0-17.066406 17.191406-17.066406 38.398438 0 21.210937 7.640625 38.402344 17.066406 38.402344 9.425782 0 17.066406-17.191407 17.066406-38.402344zm0 0" fill="#3f51b5"/><path d="m317.078125 166.398438c0-11.78125-4.242187-21.332032-9.480469-21.332032-5.234375 0-9.480468 9.550782-9.480468 21.332032 0 11.785156 4.246093 21.335937 9.480468 21.335937 5.238282 0 9.480469-9.550781 9.480469-21.335937zm0 0" fill="#f5f5f5"/><path d="m230.796875 256h51.203125c18.851562 0 34.132812 15.28125 34.132812 34.132812v34.132813c0 9.425781-7.640624 17.066406-17.066406 17.066406h-85.335937c-9.425781 0-17.066407-7.640625-17.066407-17.066406v-34.132813c0-18.851562 15.285157-34.132812 34.132813-34.132812zm0 0" fill="#bb193b"/><path d="m230.796875 341.332031v-17.066406c0-14.136719 11.464844-25.597656 25.601563-25.597656 14.140624 0 25.601562 11.460937 25.601562 25.597656v17.066406zm0 0" fill="#e91e63"/><path d="m160.046875 412.929688c-1.738281 0-3.4375-.539063-4.863281-1.539063-16.960938-11.878906-31.910156-26.398437-44.277344-43.007813-1.832031-2.4375-2.21875-5.667968-1.023438-8.472656 1.199219-2.800781 3.800782-4.753906 6.828126-5.117187 3.027343-.367188 6.019531.910156 7.847656 3.351562 11.28125 15.152344 24.910156 28.402344 40.375 39.253907 3.054687 2.132812 4.375 6 3.257812 9.554687-1.121094 3.554687-4.414062 5.972656-8.140625 5.976563zm0 0"/><path d="m352.75 412.929688c-3.730469 0-7.027344-2.417969-8.148438-5.972657-1.121093-3.554687.199219-7.425781 3.253907-9.558593 15.570312-10.882813 29.25-24.238282 40.5-39.539063 2.796875-3.796875 8.136719-4.609375 11.933593-1.816406 3.796876 2.792969 4.613282 8.136719 1.816407 11.933593-12.355469 16.804688-27.382813 31.46875-44.480469 43.414063-1.429688 1-3.132812 1.539063-4.875 1.539063zm0 0"/><path d="m95.125 333.144531c-3.386719.003907-6.453125-1.992187-7.816406-5.089843-10.742188-24.386719-16.964844-50.523438-18.367188-77.132813-.191406-4.054687-.277344-8.019531-.277344-11.988281-.007812-8.851563.527344-17.695313 1.601563-26.480469 2.796875-24.390625 9.769531-48.117187 20.617187-70.144531 1.328126-2.765625 4.042969-4.609375 7.109376-4.820313 3.0625-.207031 6.003906 1.246094 7.699218 3.804688 1.695313 2.5625 1.882813 5.835937.492188 8.574219-13.449219 27.769531-20.4375 58.214843-20.453125 89.066406 0 3.710937.085937 7.421875.25 11.132812 1.300781 24.527344 7.039062 48.617188 16.941406 71.09375 1.167969 2.640625.921875 5.6875-.652344 8.105469s-4.261719 3.878906-7.144531 3.878906zm0 0"/><path d="m417.582031 333.316406c-2.890625-.003906-5.582031-1.46875-7.152343-3.894531-1.570313-2.425781-1.808594-5.480469-.628907-8.117187 9.980469-22.535157 15.75-46.703126 17.023438-71.316407.15625-3.632812.242187-7.34375.242187-11.054687-.011718-30.851563-7.003906-61.296875-20.453125-89.0625-1.390625-2.738282-1.203125-6.011719.492188-8.574219 1.695312-2.5625 4.636719-4.015625 7.703125-3.804687 3.0625.210937 5.777344 2.050781 7.105468 4.820312 10.851563 22.042969 17.832032 45.789062 20.625 70.199219 1.070313 8.765625 1.601563 17.589843 1.59375 26.421875 0 3.96875-.089843 7.9375-.265624 11.90625-1.371094 26.71875-7.636719 52.960937-18.484376 77.414062-1.371093 3.082032-4.429687 5.0625-7.800781 5.0625zm0 0"/><path d="m360.421875 87.636719c-1.90625 0-3.753906-.636719-5.253906-1.8125-57.75-46.164063-139.78125-46.164063-197.53125 0-2.402344 1.878906-5.621094 2.332031-8.449219 1.195312-2.828125-1.140625-4.832031-3.703125-5.257812-6.722656-.425782-3.019531.789062-6.035156 3.191406-7.914063 63.929687-51 154.632812-51 218.566406 0 2.867188 2.246094 3.996094 6.0625 2.804688 9.503907-1.1875 3.445312-4.429688 5.753906-8.070313 5.75zm0 0"/><path d="m239.332031 512h-102.398437c-14.132813-.015625-25.585938-11.46875-25.601563-25.601562v-25.597657c.042969-37.6875 30.582031-68.222656 68.265625-68.269531h17.066406c37.6875.046875 68.226563 30.582031 68.269532 68.269531v25.597657c-.015625 14.132812-11.46875 25.585937-25.601563 25.601562zm-59.734375-102.398438c-28.261718.027344-51.167968 22.933594-51.199218 51.199219v25.597657c.003906 4.710937 3.824218 8.53125 8.535156 8.535156h102.398437c4.710938-.003906 8.527344-3.824219 8.535157-8.535156v-25.597657c-.03125-28.265625-22.9375-51.171875-51.203126-51.199219zm0 0"/><path d="m256.398438 477.867188h-136.53125c-4.714844 0-8.535157-3.820313-8.535157-8.535157 0-4.710937 3.820313-8.53125 8.535157-8.53125h136.53125c4.714843 0 8.535156 3.820313 8.535156 8.53125 0 4.714844-3.820313 8.535157-8.535156 8.535157zm0 0"/><path d="m375.867188 512h-102.402344c-14.132813-.015625-25.585938-11.46875-25.597656-25.601562v-25.597657c.042968-37.6875 30.582031-68.222656 68.265624-68.269531h17.066407c37.683593.046875 68.222656 30.582031 68.265625 68.269531v25.597657c-.015625 14.132812-11.46875 25.585937-25.597656 25.601562zm-59.734376-102.398438c-28.265624.027344-51.167968 22.933594-51.199218 51.199219v25.597657c.003906 4.710937 3.820312 8.53125 8.53125 8.535156h102.402344c4.710937-.003906 8.527343-3.824219 8.53125-8.535156v-25.597657c-.03125-28.265625-22.9375-51.171875-51.199219-51.199219zm0 0"/><path d="m392.933594 477.867188h-136.535156c-4.710938 0-8.53125-3.820313-8.53125-8.535157 0-4.710937 3.820312-8.53125 8.53125-8.53125h136.535156c4.710937 0 8.53125 3.820313 8.53125 8.53125 0 4.714844-3.820313 8.535157-8.53125 8.535157zm0 0"/><path d="m82.300781 416.175781c-19.085937-.609375-36.820312-9.988281-48.070312-25.417969-9.140625-11.667968-13.980469-26.128906-13.707031-40.949218.070312-13.972656 6.519531-27.148438 17.507812-35.773438 21.722656-16.585937 55.375-9.140625 75.007812 16.578125 19.625 25.71875 17.925782 60.136719-3.800781 76.722657-7.753906 5.839843-17.230469 8.949218-26.9375 8.839843zm-17.183593-93.996093c-6.027344-.097657-11.910157 1.808593-16.734376 5.417968-6.878906 5.558594-10.855468 13.945313-10.800781 22.785156-.140625 10.882813 3.464844 21.480469 10.214844 30.011719 13.925781 18.257813 36.84375 24.246094 51.09375 13.371094s14.5-34.558594.582031-52.804687v.007812c-7.980468-11.183594-20.636718-18.105469-34.355468-18.789062zm0 0"/><path d="m25.40625 336.109375-21.851562-55.296875c-8.597657-21.449219 1.554687-45.832031 22.835937-54.839844l44.542969-19.113281c2.171875-.914063 4.460937-1.53125 6.800781-1.828125l2 16.949219c-.746094.109375-1.472656.3125-2.167969.605469l-44.441406 19.066406c-12.757812 5.40625-18.84375 20.019531-13.695312 32.882812l21.847656 55.292969zm0 0"/><path d="m54.5 316.902344-19.199219-48.636719c-1.703125-4.292969.324219-9.160156 4.566407-10.976563l34.222656-14.675781 6.734375 15.679688-26.609375 11.410156 16.148437 40.933594zm0 0"/><path d="m430.632812 416.175781c-9.710937.113281-19.1875-2.996093-26.941406-8.839843-10.992187-8.628907-17.4375-21.800782-17.507812-35.773438-.273438-14.820312 4.566406-29.28125 13.707031-40.949219 19.617187-25.71875 53.273437-33.167969 75.007813-16.578125 21.730468 16.585938 23.425781 50.996094 3.800781 76.71875-11.246094 15.429688-28.984375 24.808594-48.066407 25.421875zm17.183594-93.996093c-13.722656.683593-26.382812 7.605468-34.359375 18.789062-6.75 8.535156-10.359375 19.132812-10.214843 30.015625-.054688 8.839844 3.917968 17.226563 10.796874 22.78125 14.242188 10.863281 37.167969 4.886719 51.09375-13.371094 13.914063-18.234375 13.65625-41.921875-.585937-52.796875-4.820313-3.609375-10.707031-5.515625-16.730469-5.417968zm0 0"/><path d="m487.523438 336.105469-15.867188-6.269531 21.847656-55.296876c5.152344-12.859374-.933594-27.484374-13.691406-32.890624l-44.546875-19.109376c-.664063-.273437-1.359375-.460937-2.074219-.5625l2-16.949218c2.308594.292968 4.5625.890625 6.710938 1.789062l44.640625 19.15625c21.28125 9.007813 31.433593 33.398438 22.824219 54.847656zm0 0"/><path d="m458.421875 316.902344-15.863281-6.265625 16.148437-40.933594-26.601562-11.40625 6.734375-15.683594 34.21875 14.675781c4.242187 1.820313 6.265625 6.683594 4.566406 10.976563zm0 0"/><path d="m111.332031 170.667969c-2.417969 0-4.726562-1.027344-6.34375-2.828125-25.699219-28.550782-37.863281-58.5-36.164062-89 2.492187-29.207032 15.597656-56.488282 36.839843-76.6875 2.511719-2.230469 6.101563-2.78125 9.164063-1.402344 3.066406 1.375 5.035156 4.421875 5.039063 7.78125 0 59.765625 50.296874 68.035156 52.441406 68.359375 4.59375.746094 7.746094 5.039063 7.078125 9.648437-.671875 4.609376-4.910157 7.832032-9.53125 7.238282-32.894531-6.085938-58.730469-31.660156-65.15625-64.492188-10.941407 14.78125-17.476563 32.351563-18.851563 50.691406-1.375 25.730469 9.335938 51.453126 31.832032 76.449219 2.253906 2.503907 2.820312 6.101563 1.449218 9.179688s-4.425781 5.0625-7.796875 5.0625zm0 0"/><path d="m401.464844 170.667969c-3.367188-.003907-6.421875-1.984375-7.792969-5.0625s-.800781-6.675781 1.453125-9.179688c22.546875-25.054687 33.25-50.839843 31.816406-76.636719-1.386718-18.292968-7.910156-35.820312-18.824218-50.5625-6.410157 32.855469-32.257813 58.457032-65.175782 64.554688-4.609375.570312-8.828125-2.652344-9.492187-7.25-.664063-4.59375 2.46875-8.878906 7.050781-9.636719 2.214844-.339843 52.433594-8.644531 52.433594-68.363281 0-3.359375 1.96875-6.40625 5.035156-7.78125 3.0625-1.378906 6.652344-.828125 9.164062 1.402344 21.242188 20.199218 34.347657 47.480468 36.839844 76.683594 1.703125 30.503906-10.464844 60.453124-36.164062 89.003906-1.617188 1.800781-3.921875 2.828125-6.34375 2.828125zm0 0"/><path d="m205.199219 230.398438c-16.8125 0-25.601563-23.609376-25.601563-46.933594 0-23.320313 8.789063-46.933594 25.601563-46.933594 16.808593 0 25.597656 23.613281 25.597656 46.933594 0 23.324218-8.789063 46.933594-25.597656 46.933594zm-.171875-76.820313c-2.046875.777344-8.363282 11.140625-8.363282 29.886719s6.308594 29.113281 8.707032 29.890625c2.046875-.777344 8.359375-11.144531 8.359375-29.890625s-6.308594-29.109375-8.703125-29.886719zm0 0"/><path d="m307.597656 230.398438c-16.808594 0-25.597656-23.609376-25.597656-46.933594 0-23.320313 8.789062-46.933594 25.597656-46.933594 16.8125 0 25.601563 23.613281 25.601563 46.933594 0 23.324218-8.789063 46.933594-25.601563 46.933594zm-.167968-76.820313c-2.050782.777344-8.363282 11.140625-8.363282 29.886719s6.308594 29.113281 8.703125 29.890625c2.046875-.777344 8.363281-11.144531 8.363281-29.890625s-6.308593-29.109375-8.703124-29.886719zm0 0"/><path d="m173.054688 118.472656c4.648437 3.832032 9.667968 7.191406 14.984374 10.027344 4.996094 2.59375 10.21875 4.726562 15.605469 6.371094 5.460938 1.28125 10.898438 2.488281 16.699219 3.472656 2.875.707031 5.871094.851562 8.917969 1.65625 3.242187.417969 6.445312 1.113281 9.570312 2.066406l.3125.105469c1.207031.402344 2.074219 1.464844 2.222657 2.730469.144531 1.261718-.457032 2.496094-1.539063 3.164062-6.140625 3.636719-13.0625 5.753906-20.1875 6.179688-14.828125.867187-29.328125-4.59375-39.898437-15.03125-5.292969-5.089844-9-11.601563-10.671876-18.753906-.199218-.945313.21875-1.910157 1.042969-2.414063.824219-.507813 1.875-.4375 2.625.167969zm0 0"/><path d="m343.722656 120.460938c-1.671875 7.152343-5.378906 13.664062-10.671875 18.753906-10.570312 10.4375-25.070312 15.898437-39.898437 15.03125-7.125-.425782-14.046875-2.542969-20.1875-6.179688-1.082032-.667968-1.679688-1.902344-1.535156-3.164062.148437-1.265625 1.011718-2.328125 2.21875-2.730469l.316406-.105469c3.125-.953125 6.328125-1.648437 9.566406-2.066406 3.050781-.800781 6.046875-.949219 8.921875-1.65625 5.800781-.984375 11.242187-2.1875 16.699219-3.472656 5.386718-1.644532 10.609375-3.777344 15.605468-6.371094 5.316407-2.835938 10.335938-6.195312 14.984376-10.027344l.308593-.25c.75-.605468 1.796875-.671875 2.621094-.171875.820313.503907 1.242187 1.46875 1.046875 2.410157zm0 0"/><path d="m299.066406 349.867188h-85.335937c-14.128907-.015626-25.582031-11.46875-25.597657-25.601563v-34.132813c.027344-23.550781 19.113282-42.636718 42.664063-42.667968h51.203125c23.550781.03125 42.636719 19.117187 42.664062 42.667968v34.132813c-.015624 14.132813-11.464843 25.585937-25.597656 25.601563zm-68.269531-85.335938c-14.128906.015625-25.582031 11.46875-25.597656 25.601562v34.132813c.003906 4.710937 3.820312 8.53125 8.53125 8.535156h85.335937c4.710938-.003906 8.527344-3.824219 8.53125-8.535156v-34.132813c-.015625-14.132812-11.46875-25.585937-25.597656-25.601562zm0 0"/><path d="m282 349.867188c-4.714844 0-8.535156-3.820313-8.535156-8.535157v-17.066406c0-9.425781-7.640625-17.066406-17.066406-17.066406-9.425782 0-17.066407 7.640625-17.066407 17.066406v17.066406c0 4.714844-3.820312 8.535157-8.535156 8.535157-4.710937 0-8.53125-3.820313-8.53125-8.535157v-17.066406c0-18.851563 15.28125-34.132813 34.132813-34.132813 18.851562 0 34.132812 15.28125 34.132812 34.132813v17.066406c0 4.714844-3.820312 8.535157-8.53125 8.535157zm0 0"/></svg>