<svg height="512pt" viewBox="0 0 512.01888 512" width="512pt" xmlns="http://www.w3.org/2000/svg"><path d="m247.484375 8.558594c-101.269531-.015625-190.675781 66.109375-220.3125 162.949218-29.640625 96.835938 7.441406 201.675782 91.375 258.34375h.085937l69.121094 48.042969v8.53125c.027344 9.414063 7.652344 17.039063 17.066406 17.066407h145.066407c9.414062-.027344 17.039062-7.652344 17.066406-17.066407v-50.429687c.765625-.511719 1.535156-.941406 2.304687-1.453125 3.753907-2.386719 7.507813-4.863281 11.089844-7.421875.011719.089844.042969.175781.085938.253906 1.058594 2.222656 2.570312 4.199219 4.4375 5.804688.597656.597656 1.28125 1.277343 1.964844 1.875 1.257812 1.097656 2.597656 2.097656 4.007812 2.988281.6875.5625 1.429688 1.046875 2.21875 1.449219.800781.449218 1.628906.847656 2.476562 1.195312.6875.335938 1.402344.621094 2.132813.855469 1.109375.425781 2.21875.765625 3.328125 1.109375 2.8125.75 5.710938 1.121094 8.617188 1.109375 9.707031.011719 18.960937-4.117188 25.429687-11.351563 43.410156-48.574218 67.726563-111.242187 68.4375-176.382812 1.023437-76.800782-51.199219-247.46875-256-247.46875zm0 0" fill="#f0c419"/><path d="m78.011719 395.035156c-3.15625 4.011719-6.484375 7.933594-9.898438 11.773438-12.605469 13.949218-34.113281 15.082031-48.113281 2.539062-14-12.546875-15.226562-34.050781-2.742188-48.105468 7.546876-8.453126 14.371094-17.53125 20.394532-27.136719zm0 0" fill="#ff9801"/><path d="m503.484375 256.027344c-.710937 65.140625-25.027344 127.808594-68.4375 176.382812-6.46875 7.234375-15.722656 11.363282-25.429687 11.351563-2.90625.011719-5.804688-.359375-8.617188-1.109375-1.109375-.34375-2.21875-.683594-3.328125-1.109375-.730469-.234375-1.445313-.519531-2.132813-.855469-.847656-.347656-1.675781-.746094-2.476562-1.195312-.789062-.402344-1.53125-.886719-2.21875-1.449219-1.410156-.890625-2.75-1.890625-4.007812-2.988281-.683594-.597657-1.367188-1.277344-1.964844-1.875-1.867188-1.605469-3.378906-3.582032-4.4375-5.804688-.042969-.078125-.074219-.164062-.085938-.253906-3.582031 2.558594-7.335937 5.035156-11.089844 7.421875-.769531.511719-1.539062.941406-2.304687 1.453125-20.9375 12.726562-43.785156 22.003906-67.671875 27.476562h-.253906l-.339844-2.644531c-8.617188-20.695313-28.789062-34.210937-51.203125-34.304687h-8.53125c-20.351563.027343-38.765625 12.078124-46.933594 30.71875-.6875 1.617187-1.285156 3.269531-1.792969 4.949218-1.648437 5.042969-2.484374 10.3125-2.472656 15.617188v.085937l-69.121094-48.042969h-.085937c-83.933594-56.667968-121.015625-161.507812-91.375-258.34375 29.636719-96.839843 119.042969-162.964843 220.3125-162.949218 204.800781 0 257.023437 170.667968 256 247.46875zm0 0" fill="#ffdc00"/><path d="m380.347656 427.121094c-3.582031 2.558594-7.335937 5.035156-11.089844 7.421875-13.527343-12.691407-14.472656-33.851563-2.136718-47.699219 26.3125-29.355469 43.144531-65.972656 48.292968-105.054688 1.207032-9.3125 9.132813-16.285156 18.523438-16.289062-2.128906 44.964844-19.699219 87.820312-49.746094 121.34375-9.945312 11.144531-11.5 27.453125-3.84375 40.277344zm0 0" fill="#fec108"/><path d="m192.019531 457.242188c-8.152343-18.652344-26.578125-30.703126-46.933593-30.695313h-8.535157c-28.292969.046875-51.207031 23.003906-51.199219 51.296875v8.550781c.019532 9.421875 7.644532 17.0625 17.066407 17.097657h145.066406zm0 0" fill="#3f51b5"/><path d="m366.953125 435.996094v50.429687c-.027344 9.414063-7.652344 17.039063-17.066406 17.066407h-145.066407c-9.414062-.027344-17.039062-7.652344-17.066406-17.066407v-8.617187c-.011718-5.304688.824219-10.574219 2.472656-15.617188.507813-1.679687 1.105469-3.332031 1.792969-4.949218 8.167969-18.640626 26.582031-30.691407 46.933594-30.71875h8.53125c22.414063.09375 42.585937 13.609374 51.203125 34.304687l.59375 2.644531c23.886719-5.472656 46.734375-14.75 67.671875-27.476562zm0 0" fill="#3f51b5"/><path d="m380.433594 427.375c1.300781 2.066406 2.785156 4.007812 4.4375 5.804688-1.867188-1.605469-3.378906-3.582032-4.4375-5.804688zm0 0" fill="#f0c419"/><path d="m366.953125 435.996094v17.066406c-15.945313 9.6875-33.011719 17.390625-50.824219 22.933594-3.960937 1.199218-8.253906.449218-11.578125-2.019532-3.320312-2.46875-5.273437-6.367187-5.269531-10.503906 23.886719-5.472656 46.734375-14.75 67.671875-27.476562zm0 0" fill="#283593"/><path d="m503.484375 256.027344c-.710937 65.140625-25.027344 127.808594-68.4375 176.382812-6.46875 7.234375-15.722656 11.363282-25.429687 11.351563-2.90625.011719-5.804688-.359375-8.617188-1.109375-1.109375-.34375-2.21875-.683594-3.328125-1.109375-.300781-.0625-.589844-.179688-.851563-.34375 4.847657-1.878907 9.179688-4.894531 12.628907-8.789063 43.40625-48.574218 67.722656-111.242187 68.4375-176.382812 1.023437-74.921875-48.726563-239.277344-241.496094-247.125 3.671875-.257813 7.339844-.34375 11.09375-.34375 204.800781 0 257.023437 170.667968 256 247.46875zm0 0" fill="#fec108"/><path d="m366.953125 435.996094v50.429687c-.027344 9.414063-7.652344 17.039063-17.066406 17.066407h-25.601563c9.414063-.027344 17.039063-7.652344 17.066406-17.066407v-37.035156c8.808594-3.917969 17.359376-8.394531 25.601563-13.394531zm0 0" fill="#283593"/><path d="m349.886719 512.007812h-145.066407c-14.132812-.015624-25.585937-11.464843-25.601562-25.597656v-8.621094c-.007812-6.207031.96875-12.375 2.902344-18.273437.574218-1.902344 1.253906-3.769531 2.03125-5.601563 9.503906-21.800781 31.015625-35.910156 54.800781-35.9375h8.53125c26.035156.019532 49.460937 15.816407 59.234375 39.949219 1.03125 2.871094.449219 6.070313-1.519531 8.398438-1.972657 2.328125-5.03125 3.425781-8.035157 2.882812-3-.542969-5.480468-2.644531-6.511718-5.515625-7.359375-17.328125-24.339844-28.597656-43.167969-28.648437h-8.53125c-16.96875.011719-32.320313 10.0625-39.117187 25.609375-.546876 1.292968-1.027344 2.613281-1.433594 3.957031-1.402344 4.253906-2.117188 8.703125-2.117188 13.183594v8.617187c.003906 4.714844 3.820313 8.53125 8.535156 8.535156h145.066407c4.710937-.003906 8.53125-3.820312 8.53125-8.535156v-50.429687c0-4.714844 3.820312-8.535157 8.535156-8.535157 4.710937 0 8.53125 3.820313 8.53125 8.535157v50.429687c-.015625 14.132813-11.46875 25.582032-25.597656 25.597656zm0 0"/><path d="m247.484375 512.007812h-145.066406c-14.140625-.023437-25.59375-11.492187-25.597657-25.632812v-8.546875c.011719-33 26.730469-59.765625 59.730469-59.828125h8.535157c23.753906-.027344 45.265624 14.042969 54.757812 35.816406 1.21875 2.796875.851562 6.03125-.960938 8.484375-1.8125 2.449219-4.796874 3.75-7.824218 3.40625-3.03125-.34375-5.648438-2.277343-6.863282-5.074219-6.785156-15.546874-22.144531-25.589843-39.109374-25.566406h-8.535157c-23.578125.054688-42.664062 19.183594-42.664062 42.761719v8.546875c-.007813 4.722656 3.8125 8.554688 8.53125 8.566406h145.066406c4.714844 0 8.535156 3.820313 8.535156 8.535156 0 4.710938-3.820312 8.53125-8.535156 8.53125zm0 0"/><path d="m42.6875 426.675781c-16.835938.007813-32.097656-9.882812-38.96875-25.246093-6.871094-15.367188-4.066406-33.335938 7.160156-45.878907 7.230469-8.09375 13.769532-16.785156 19.539063-25.980469 2.550781-3.867187 7.722656-4.996093 11.648437-2.539062 3.925782 2.457031 5.179688 7.597656 2.820313 11.582031-6.28125 10.007813-13.390625 19.46875-21.257813 28.285157-9.398437 10.554687-8.515625 26.71875 1.972656 36.191406 10.691407 8.984375 26.527344 8.113281 36.167969-1.996094 3.265625-3.683594 6.484375-7.476562 9.542969-11.359375 1.863281-2.464844 4.914062-3.730469 7.972656-3.308594 3.0625.421875 5.65625 2.46875 6.78125 5.347657 1.125 2.878906.605469 6.140624-1.359375 8.527343-3.257812 4.132813-6.691406 8.191407-10.207031 12.160157-8.109375 9.035156-19.671875 14.203124-31.8125 14.214843zm0 0"/><path d="m409.617188 452.277344c-16.832032.007812-32.09375-9.882813-38.964844-25.25-6.871094-15.363282-4.066406-33.335938 7.160156-45.875 28.703125-32.089844 45.507812-73.070313 47.597656-116.078125.28125-4.679688 4.246094-8.285157 8.933594-8.113281 2.261719.105468 4.386719 1.109374 5.910156 2.785156 1.519532 1.675781 2.316406 3.886718 2.207032 6.148437-2.28125 46.910157-20.609376 91.613281-51.917969 126.625-9.382813 10.558594-8.492188 26.707031 1.992187 36.175781 10.691406 8.992188 26.53125 8.113282 36.167969-2.003906 42.003906-47.050781 65.539063-107.726562 66.25-170.796875-1.121094-63.945312-26.054687-125.171875-69.925781-171.710937-43.941406-44.523438-103.675782-67.109375-177.542969-67.109375-97.453125-.011719-183.503906 63.578125-212.097656 156.742187-28.597657 93.160156 6.953125 194.078125 87.632812 248.742188 3.261719 1.980468 4.808594 5.886718 3.789063 9.566406-1.019532 3.675781-4.359375 6.226562-8.175782 6.242188h-.085937c-1.699219 0-3.363281-.507813-4.773437-1.457032-87.039063-58.769531-125.492188-167.488281-94.757813-267.914062 30.734375-100.421875 123.449219-169.00000025 228.46875-168.9882815 78.601563 0 142.421875 24.2929685 189.695313 72.1953125 47.371093 49.597656 74.121093 115.34375 74.839843 183.921875-.765625 67.195312-25.847656 131.839844-70.609375 181.960938-8.105468 9.023437-19.660156 14.183593-31.792968 14.191406zm0 0"/><path d="m299.277344 471.984375c-4.335938-.011719-7.976563-3.269531-8.460938-7.582031-.484375-4.308594 2.34375-8.296875 6.570313-9.265625 22.988281-5.265625 44.980469-14.199219 65.132812-26.457031 4.308594-2.683594 8.691407-5.574219 12.914063-8.554688 2.492187-1.757812 5.734375-2.050781 8.5-.773438 2.765625 1.28125 4.640625 3.9375 4.917968 6.976563.273438 3.035156-1.089843 5.988281-3.582031 7.746094-4.492187 3.164062-9.140625 6.242187-13.808593 9.140625-21.738282 13.234375-45.46875 22.875-70.273438 28.550781-.628906.144531-1.269531.21875-1.910156.21875zm0 0"/><path d="m288.035156 256.035156c-11.105468-.140625-22.023437-2.878906-31.882812-7.992187-30.574219-15.339844-42.96875-52.523438-27.714844-83.140625 12.667969-25.332032 43.472656-35.601563 68.808594-22.933594 21.101562 10.558594 29.65625 36.222656 19.101562 57.332031-8.886718 17.707031-30.421875 24.882813-48.15625 16.050781-15.007812-7.53125-21.089844-25.789062-13.597656-40.820312 2.109375-4.214844 7.234375-5.921875 11.449219-3.816406 4.214843 2.109375 5.925781 7.234375 3.816406 11.453125-3.289063 6.59375-.621094 14.609375 5.96875 17.917969 9.300781 4.640624 20.597656.875 25.257813-8.417969 6.335937-12.675781 1.199218-28.089844-11.476563-34.429688-16.902344-8.453125-37.453125-1.605469-45.90625 15.296875-11.054687 22.1875-2.074219 49.132813 20.082031 60.246094 12.195313 6.773438 26.71875 7.972656 39.859375 3.292969 13.265625-5.691407 23.894531-16.171875 29.773438-29.355469 2.105469-4.214844 7.230469-5.925781 11.449219-3.816406 4.214843 2.105468 5.921874 7.234375 3.816406 11.449218-7.757813 17.015626-21.667969 30.46875-38.933594 37.648438-6.925781 2.671875-14.289062 4.042969-21.714844 4.035156zm0 0"/><path d="m142.96875 256.035156c-11.105469-.140625-22.023438-2.878906-31.882812-7.992187-30.574219-15.339844-42.96875-52.523438-27.71875-83.140625 12.671874-25.332032 43.476562-35.601563 68.808593-22.933594 21.105469 10.558594 29.660157 36.222656 19.105469 57.332031-8.886719 17.707031-30.421875 24.882813-48.15625 16.050781-15.007812-7.53125-21.089844-25.789062-13.597656-40.820312 1.363281-2.726562 4.078125-4.519531 7.121094-4.699219 3.042968-.183593 5.953124 1.269531 7.632812 3.816407 1.679688 2.542968 1.875 5.789062.511719 8.519531-3.289063 6.59375-.621094 14.609375 5.96875 17.917969 9.300781 4.640624 20.597656.875 25.257812-8.417969 6.335938-12.675781 1.199219-28.089844-11.476562-34.429688-16.902344-8.453125-37.453125-1.605469-45.90625 15.296875-11.054688 22.1875-2.074219 49.132813 20.082031 60.246094 12.195312 6.773438 26.71875 7.972656 39.859375 3.292969 13.261719-5.691407 23.894531-16.171875 29.769531-29.355469 1.367188-2.726562 4.082032-4.519531 7.125-4.703125 3.042969-.183594 5.953125 1.273437 7.632813 3.816406 1.679687 2.542969 1.875 5.792969.511719 8.519531-7.757813 17.015626-21.667969 30.46875-38.933594 37.648438-6.925782 2.671875-14.289063 4.042969-21.714844 4.035156zm0 0"/><path d="m290.160156 332.808594c-2.535156.007812-4.945312-1.117188-6.570312-3.066406l-21.359375-25.640626c-3.757813-4.1875-9.121094-6.578124-14.75-6.578124-5.628907.003906-10.992188 2.398437-14.75 6.585937-6.878907 8.296875-17.09375 13.105469-27.875 13.117187-10.777344.011719-21.003907-4.769531-27.90625-13.050781-3.742188-4.230469-9.113281-6.65625-14.761719-6.671875-5.644531-.011718-11.027344 2.394532-14.789062 6.605469l-21.359376 25.632813c-3.023437 3.597656-8.386718 4.070312-12 1.0625-3.609374-3.007813-4.109374-8.371094-1.117187-11.996094l21.359375-25.625c6.890625-8.273438 17.097656-13.058594 27.867188-13.058594 10.765624-.003906 20.976562 4.78125 27.867187 13.050781 3.742187 4.230469 9.113281 6.660157 14.757813 6.671875 5.648437.011719 11.03125-2.390625 14.792968-6.605468 6.878906-8.296876 17.09375-13.101563 27.875-13.117188 10.78125-.011719 21.007813 4.769531 27.90625 13.050781l21.359375 25.632813c2.121094 2.542968 2.582031 6.085937 1.175781 9.082031-1.402343 3-4.414062 4.917969-7.726562 4.917969zm0 0"/><path d="m187.753906 358.410156h-8.535156c-14.132812-.015625-25.585938-11.46875-25.601562-25.601562 0-4.710938 3.820312-8.53125 8.535156-8.53125 4.710937 0 8.535156 3.820312 8.535156 8.53125 0 4.710937 3.820312 8.53125 8.53125 8.535156h8.535156c4.710938 0 8.53125 3.820312 8.53125 8.53125 0 4.714844-3.820312 8.535156-8.53125 8.535156zm0 0"/><path d="m181.402344 68.964844c-1.128906 9.378906-4.996094 18.21875-11.125 25.410156-6.089844 7.441406-13.914063 13.277344-22.78125 17-8.753906 3.617188-18.160156 5.382812-27.628906 5.183594-4.582032-.113282-9.144532-.601563-13.648438-1.460938-4.375-1.078125-8.679688-2.441406-12.882812-4.070312-1.363282-.53125-2.195313-1.914063-2.023438-3.363282.167969-1.453124 1.292969-2.605468 2.738281-2.8125l.390625-.050781c4.316406-.597656 8.460938-.707031 12.542969-.972656 4.054687-.640625 8.085937-.757813 11.953125-1.511719 7.570312-1.199218 14.980469-3.246094 22.09375-6.097656 6.902344-3.058594 13.382812-6.988281 19.285156-11.691406 6.257813-5.054688 11.980469-10.730469 17.089844-16.941406l.191406-.230469c.609375-.726563 1.621094-.96875 2.496094-.597657.871094.367188 1.402344 1.261719 1.308594 2.207032zm0 0"/><path d="m249.488281 67.589844c5.109375 6.210937 10.835938 11.886718 17.089844 16.941406 5.902344 4.703125 12.382813 8.632812 19.28125 11.691406 7.113281 2.851563 14.523437 4.898438 22.097656 6.097656 3.863281.753907 7.894531.871094 11.949219 1.511719 4.082031.265625 8.226562.371094 12.542969.972657l.386719.050781c1.445312.203125 2.578124 1.355469 2.746093 2.808593.167969 1.453126-.664062 2.835938-2.023437 3.367188-4.207032 1.628906-8.507813 2.992188-12.886719 4.070312-4.5.859376-9.066406 1.347657-13.648437 1.460938-9.464844.195312-18.875-1.566406-27.625-5.183594-8.871094-3.722656-16.691407-9.558594-22.785157-17-6.125-7.191406-9.996093-16.03125-11.121093-25.410156-.097657-.941406.429687-1.835938 1.300781-2.207031.871093-.371094 1.882812-.132813 2.496093.585937zm0 0"/></svg>