<svg height="512pt" viewBox="0 0 512.01888 512" width="512pt" xmlns="http://www.w3.org/2000/svg"><path d="m78.011719 395.035156c-3.15625 4.011719-6.484375 7.933594-9.898438 11.773438-12.605469 13.949218-34.113281 15.082031-48.113281 2.539062-14-12.546875-15.226562-34.050781-2.742188-48.105468 7.546876-8.453126 14.371094-17.53125 20.394532-27.136719zm0 0" fill="#ff9801"/><path d="m247.484375 8.558594c-101.269531-.015625-190.675781 66.109375-220.3125 162.949218-29.640625 96.835938 7.441406 201.675782 91.375 258.34375h.085937l69.121094 48.042969v8.53125c.027344 9.414063 7.652344 17.039063 17.066406 17.066407h145.066407c9.414062-.027344 17.039062-7.652344 17.066406-17.066407v-50.429687c.765625-.511719 1.535156-.941406 2.304687-1.453125 3.753907-2.386719 7.507813-4.863281 11.089844-7.421875.011719.089844.042969.175781.085938.253906 1.058594 2.222656 2.570312 4.199219 4.4375 5.804688.597656.597656 1.28125 1.277343 1.964844 1.875 1.257812 1.097656 2.597656 2.097656 4.007812 2.988281.6875.5625 1.429688 1.046875 2.21875 1.449219.800781.449218 1.628906.847656 2.476562 1.195312.6875.335938 1.402344.621094 2.132813.855469 1.109375.425781 2.21875.765625 3.328125 1.109375 2.8125.75 5.710938 1.121094 8.617188 1.109375 9.707031.011719 18.960937-4.117188 25.429687-11.351563 43.410156-48.574218 67.726563-111.242187 68.4375-176.382812 1.023437-76.800782-51.199219-247.46875-256-247.46875zm0 0" fill="#f0c419"/><path d="m503.484375 256.027344c-.710937 65.140625-25.027344 127.808594-68.4375 176.382812-6.46875 7.234375-15.722656 11.363282-25.429687 11.351563-2.90625.011719-5.804688-.359375-8.617188-1.109375-1.109375-.34375-2.21875-.683594-3.328125-1.109375-.730469-.234375-1.445313-.519531-2.132813-.855469-.847656-.347656-1.675781-.746094-2.476562-1.195312-.789062-.402344-1.53125-.886719-2.21875-1.449219-1.410156-.890625-2.75-1.890625-4.007812-2.988281-.683594-.597657-1.367188-1.277344-1.964844-1.875-1.867188-1.605469-3.378906-3.582032-4.4375-5.804688-.042969-.078125-.074219-.164062-.085938-.253906-3.582031 2.558594-7.335937 5.035156-11.089844 7.421875-.769531.511719-1.539062.941406-2.304687 1.453125-20.9375 12.726562-43.785156 22.003906-67.671875 27.476562h-.253906l-.339844-2.644531c-8.617188-20.695313-28.789062-34.210937-51.203125-34.304687h-8.53125c-20.351563.027343-38.765625 12.078124-46.933594 30.71875-.6875 1.617187-1.285156 3.269531-1.792969 4.949218-1.648437 5.042969-2.484374 10.3125-2.472656 15.617188v.085937l-69.121094-48.042969h-.085937c-83.933594-56.667968-121.015625-161.507812-91.375-258.34375 29.636719-96.839843 119.042969-162.964843 220.3125-162.949218 204.800781 0 257.023437 170.667968 256 247.46875zm0 0" fill="#ffdc00"/><path d="m130.664062 138.421875h.085938l57.003906 40.191406c-.019531 21.667969-16.273437 39.878907-37.800781 42.351563-21.523437 2.472656-41.484375-11.582032-46.414063-32.679688-4.929687-21.097656 6.734376-42.539062 27.125-49.863281zm0 0" fill="#f5f5f5"/><path d="m324.285156 178.628906c0 23.5625-19.101562 42.667969-42.667968 42.667969-23.5625 0-42.664063-19.105469-42.664063-42.667969l9.726563-6.828125 25.601562-18.089843 21.671875-15.273438h.085937c16.972657 6.070312 28.285157 22.167969 28.246094 40.191406zm0 0" fill="#f5f5f5"/><path d="m380.347656 427.121094c-3.582031 2.558594-7.335937 5.035156-11.089844 7.421875-13.527343-12.691407-14.472656-33.851563-2.136718-47.699219 26.3125-29.355469 43.144531-65.972656 48.292968-105.054688 1.207032-9.3125 9.132813-16.285156 18.523438-16.289062-2.128906 44.964844-19.699219 87.820312-49.746094 121.34375-9.945312 11.144531-11.5 27.453125-3.84375 40.277344zm0 0" fill="#fec108"/><path d="m192.019531 457.242188c-8.152343-18.652344-26.578125-30.703126-46.933593-30.695313h-8.535157c-28.292969.046875-51.207031 23.003906-51.199219 51.296875v8.550781c.019532 9.421875 7.644532 17.0625 17.066407 17.097657h145.066406zm0 0" fill="#3f51b5"/><path d="m366.953125 435.996094v50.429687c-.027344 9.414063-7.652344 17.039063-17.066406 17.066407h-145.066407c-9.414062-.027344-17.039062-7.652344-17.066406-17.066407v-8.617187c-.011718-5.304688.824219-10.574219 2.472656-15.617188.507813-1.679687 1.105469-3.332031 1.792969-4.949218 8.167969-18.640626 26.582031-30.691407 46.933594-30.71875h8.53125c22.414063.09375 42.585937 13.609374 51.203125 34.304687l.59375 2.644531c23.886719-5.472656 46.734375-14.75 67.671875-27.476562zm0 0" fill="#3f51b5"/><path d="m380.433594 427.375c1.300781 2.066406 2.785156 4.007812 4.4375 5.804688-1.867188-1.605469-3.378906-3.582032-4.4375-5.804688zm0 0" fill="#f0c419"/><path d="m366.953125 435.996094v17.066406c-15.945313 9.6875-33.011719 17.390625-50.824219 22.933594-3.960937 1.199218-8.253906.449218-11.578125-2.019532-3.320312-2.46875-5.273437-6.367187-5.269531-10.503906 23.886719-5.472656 46.734375-14.75 67.671875-27.476562zm0 0" fill="#283593"/><path d="m74.695312 270.242188 272.121094-22.675782c14.089844-1.171875 26.464844 9.296875 27.640625 23.386719l5.667969 68.03125c1.171875 14.089844-9.296875 26.460937-23.386719 27.636719l-272.125 22.675781c-14.085937 1.175781-26.460937-9.296875-27.636719-23.386719l-5.667968-68.027344c-1.175782-14.089843 9.296875-26.464843 23.386718-27.640624zm0 0" fill="#9d27b0"/><path d="m162.105469 179.226562c0-14.136718-11.441407-25.601562-25.554688-25.601562-14.109375 0-25.550781 11.464844-25.550781 25.601562 0 14.136719 11.441406 25.601563 25.550781 25.601563 14.113281 0 25.554688-11.464844 25.554688-25.601563zm0 0" fill="#3f51b5"/><path d="m298.601562 179.226562c0 14.089844-11.425781 25.515626-25.515624 25.515626-14.089844 0-25.515626-11.425782-25.515626-25.515626-.027343-2.519531.347657-5.023437 1.109376-7.425781l25.601562-18.089843c13.632812.617187 24.359375 11.867187 24.320312 25.515624zm0 0" fill="#3f51b5"/><path d="m162.152344 170.691406c0 4.714844-3.820313 8.535156-8.535156 8.535156-4.710938 0-8.53125-3.820312-8.53125-8.535156 0-4.710937 3.820312-8.53125 8.53125-8.53125 4.714843 0 8.535156 3.820313 8.535156 8.53125zm0 0" fill="#f5f5f5"/><path d="m298.6875 170.691406c0 4.714844-3.824219 8.535156-8.535156 8.535156-4.714844 0-8.535156-3.820312-8.535156-8.535156 0-4.710937 3.820312-8.53125 8.535156-8.53125 4.710937 0 8.535156 3.820313 8.535156 8.53125zm0 0" fill="#f5f5f5"/><path d="m503.484375 256.027344c-.710937 65.140625-25.027344 127.808594-68.4375 176.382812-6.46875 7.234375-15.722656 11.363282-25.429687 11.351563-2.90625.011719-5.804688-.359375-8.617188-1.109375-1.109375-.34375-2.21875-.683594-3.328125-1.109375-.300781-.0625-.589844-.179688-.851563-.34375 4.847657-1.878907 9.179688-4.894531 12.628907-8.789063 43.40625-48.574218 67.722656-111.242187 68.4375-176.382812 1.023437-74.921875-48.726563-239.277344-241.496094-247.125 3.671875-.257813 7.339844-.34375 11.09375-.34375 204.800781 0 257.023437 170.667968 256 247.46875zm0 0" fill="#fec108"/><path d="m366.953125 435.996094v50.429687c-.027344 9.414063-7.652344 17.039063-17.066406 17.066407h-25.601563c9.414063-.027344 17.039063-7.652344 17.066406-17.066407v-37.035156c8.808594-3.917969 17.359376-8.394531 25.601563-13.394531zm0 0" fill="#283593"/><path d="m349.886719 512.007812h-145.066407c-14.132812-.015624-25.585937-11.464843-25.601562-25.597656v-8.621094c-.007812-6.207031.96875-12.375 2.902344-18.273437.574218-1.902344 1.253906-3.769531 2.03125-5.601563 9.503906-21.800781 31.015625-35.910156 54.800781-35.9375h8.53125c26.035156.019532 49.460937 15.816407 59.234375 39.949219 1.03125 2.871094.449219 6.070313-1.519531 8.398438-1.972657 2.328125-5.03125 3.425781-8.035157 2.882812-3-.542969-5.480468-2.644531-6.511718-5.515625-7.359375-17.328125-24.339844-28.597656-43.167969-28.648437h-8.53125c-16.96875.011719-32.320313 10.0625-39.117187 25.609375-.546876 1.292968-1.027344 2.613281-1.433594 3.957031-1.402344 4.253906-2.117188 8.703125-2.117188 13.183594v8.617187c.003906 4.714844 3.820313 8.53125 8.535156 8.535156h145.066407c4.710937-.003906 8.53125-3.820312 8.53125-8.535156v-50.429687c0-4.714844 3.820312-8.535157 8.535156-8.535157 4.710937 0 8.53125 3.820313 8.53125 8.535157v50.429687c-.015625 14.132813-11.46875 25.582032-25.597656 25.597656zm0 0"/><path d="m247.484375 512.007812h-145.066406c-14.140625-.023437-25.59375-11.492187-25.597657-25.632812v-8.546875c.011719-33 26.730469-59.765625 59.730469-59.828125h8.535157c23.753906-.027344 45.265624 14.042969 54.757812 35.816406 1.21875 2.796875.851562 6.03125-.960938 8.484375-1.8125 2.449219-4.796874 3.75-7.824218 3.40625-3.03125-.34375-5.648438-2.277343-6.863282-5.074219-6.785156-15.546874-22.144531-25.589843-39.109374-25.566406h-8.535157c-23.578125.054688-42.664062 19.183594-42.664062 42.761719v8.546875c-.007813 4.722656 3.8125 8.554688 8.53125 8.566406h145.066406c4.714844 0 8.535156 3.820313 8.535156 8.535156 0 4.710938-3.820312 8.53125-8.535156 8.53125zm0 0"/><path d="m42.6875 426.675781c-16.835938.007813-32.097656-9.882812-38.96875-25.246093-6.871094-15.367188-4.066406-33.335938 7.160156-45.878907 7.230469-8.09375 13.769532-16.785156 19.539063-25.980469 2.550781-3.867187 7.722656-4.996093 11.648437-2.539062 3.925782 2.457031 5.179688 7.597656 2.820313 11.582031-6.28125 10.007813-13.390625 19.46875-21.257813 28.285157-9.398437 10.554687-8.515625 26.71875 1.972656 36.191406 10.691407 8.984375 26.527344 8.113281 36.167969-1.996094 3.265625-3.683594 6.484375-7.476562 9.542969-11.359375 1.863281-2.464844 4.914062-3.730469 7.972656-3.308594 3.0625.421875 5.65625 2.46875 6.78125 5.347657 1.125 2.878906.605469 6.140624-1.359375 8.527343-3.257812 4.132813-6.691406 8.191407-10.207031 12.160157-8.109375 9.035156-19.671875 14.203124-31.8125 14.214843zm0 0"/><path d="m409.617188 452.277344c-16.832032.007812-32.09375-9.882813-38.964844-25.25-6.871094-15.363282-4.066406-33.335938 7.160156-45.875 28.710938-32.082032 45.515625-73.0625 47.597656-116.066406.066406-2.277344 1.050782-4.429688 2.734375-5.960938 1.683594-1.53125 3.917969-2.316406 6.191407-2.164062 4.707031.222656 8.34375 4.21875 8.125 8.925781-2.265626 46.914062-20.597657 91.628906-51.917969 126.632812-9.382813 10.558594-8.492188 26.710938 1.992187 36.175781 10.691406 8.992188 26.53125 8.113282 36.167969-2.003906 42.011719-47.042968 65.546875-107.71875 66.25-170.789062-1.121094-63.949219-26.054687-125.179688-69.925781-171.71875-43.941406-44.523438-103.675782-67.109375-177.542969-67.109375-122.476563.136719-221.730469 99.390625-221.867187 221.867187.019531 44.789063 13.570312 88.53125 38.878906 125.484375 1.722656 2.515625 1.972656 5.757813.65625 8.511719-1.316406 2.75-4 4.589844-7.039063 4.824219-3.039062.234375-5.976562-1.171875-7.699219-3.683594-27.246093-39.800781-41.835937-86.902344-41.863281-135.136719.148438-131.894531 107.035157-238.785156 238.933594-238.9335935 78.601563 0 142.421875 24.2929685 189.695313 72.1953125 47.371093 49.597656 74.121093 115.34375 74.839843 183.921875-.757812 67.195312-25.84375 131.839844-70.609375 181.960938-8.105468 9.023437-19.660156 14.183593-31.792968 14.191406zm0 0"/><path d="m118.632812 438.367188c-1.726562 0-3.414062-.503907-4.859374-1.449219-15.371094-10.359375-29.480469-22.480469-42.042969-36.117188-2.691407-2.964843-5.257813-5.882812-7.730469-8.882812-1.941406-2.351563-2.480469-5.5625-1.414062-8.417969 1.066406-2.855469 3.574218-4.929688 6.582031-5.433594 3.007812-.503906 6.054687.632813 7.996093 2.984375 2.308594 2.800781 4.695313 5.519531 7.160157 8.234375 11.5625 12.546875 24.546875 23.710938 38.683593 33.265625 3.269532 1.976563 4.828126 5.886719 3.808594 9.566407-1.019531 3.683593-4.363281 6.238281-8.183594 6.25zm0 0"/><path d="m299.277344 471.984375c-4.335938-.011719-7.976563-3.269531-8.460938-7.582031-.484375-4.308594 2.34375-8.296875 6.570313-9.265625 22.988281-5.265625 44.980469-14.199219 65.132812-26.457031 4.308594-2.683594 8.691407-5.574219 12.914063-8.554688 2.492187-1.757812 5.734375-2.050781 8.5-.773438 2.765625 1.28125 4.640625 3.9375 4.917968 6.976563.273438 3.035156-1.089843 5.988281-3.582031 7.746094-4.492187 3.164062-9.140625 6.242187-13.808593 9.140625-21.738282 13.234375-45.46875 22.875-70.273438 28.550781-.628906.144531-1.269531.21875-1.910156.21875zm0 0"/><path d="m82.484375 397.925781c-17.738281-.03125-32.507813-13.628906-34.007813-31.308593l-5.667968-68.023438c-1.546875-18.78125 12.402344-35.269531 31.175781-36.851562l272.128906-22.671876c9.023438-.769531 17.980469 2.085938 24.894531 7.9375 6.910157 5.847657 11.210938 14.210938 11.945313 23.234376l5.671875 68.035156c1.546875 18.777344-12.40625 35.261718-31.179688 36.839844l-272.117187 22.683593c-.953125.082031-1.902344.125-2.84375.125zm266.476563-141.917969c-.476563 0-.949219.027344-1.433594.058594l-272.125 22.675782c-9.390625.792968-16.367188 9.039062-15.59375 18.433593l5.667968 68.023438c.347657 4.527343 2.492188 8.722656 5.957032 11.65625 3.46875 2.929687 7.964844 4.347656 12.484375 3.9375l272.113281-22.675781c9.394531-.78125 16.378906-9.027344 15.597656-18.425782l-5.675781-68.03125c-.746094-8.835937-8.125-15.632812-16.992187-15.652344zm0 0"/><path d="m98.785156 362.402344c-1.085937 0-2.160156-.203125-3.167968-.609375-2.101563-.839844-3.785157-2.480469-4.675782-4.5625-.890625-2.078125-.921875-4.429688-.082031-6.53125l21.269531-53.148438c1.746094-4.378906 6.714844-6.507812 11.089844-4.757812 4.375 1.746093 6.507812 6.714843 4.757812 11.089843l-21.265624 53.148438c-1.296876 3.242188-4.433594 5.371094-7.925782 5.371094zm0 0"/><path d="m132.800781 359.558594c-1.082031.003906-2.160156-.203125-3.164062-.605469-2.101563-.839844-3.785157-2.480469-4.679688-4.5625-.890625-2.082031-.921875-4.429687-.082031-6.53125l21.261719-53.144531c1.746093-4.375 6.714843-6.503906 11.089843-4.757813 4.378907 1.75 6.507813 6.714844 4.757813 11.09375l-21.257813 53.140625c-1.292968 3.242188-4.433593 5.367188-7.925781 5.367188zm0 0"/><path d="m88.152344 337.59375c-4.558594-.027344-8.289063-3.628906-8.476563-8.183594-.183593-4.550781 3.238281-8.449218 7.777344-8.851562l76.53125-6.375c2.265625-.234375 4.527344.460937 6.265625 1.933594 1.738281 1.46875 2.800781 3.585937 2.945312 5.859374.1875 2.253907-.523437 4.492188-1.988281 6.222657-1.460937 1.726562-3.550781 2.800781-5.804687 2.984375l-76.535156 6.375c-.238282.023437-.476563.035156-.714844.035156zm0 0"/><path d="m277.371094 347.519531c-2.832032 0-5.480469-1.40625-7.070313-3.75-1.585937-2.34375-1.90625-5.320312-.855469-7.953125l21.257813-53.148437c1.128906-2.832031 3.6875-4.84375 6.703125-5.28125 3.019531-.433594 6.039062.773437 7.925781 3.167969 1.886719 2.394531 2.351563 5.617187 1.21875 8.445312l-21.257812 53.152344c-1.292969 3.242187-4.433594 5.367187-7.921875 5.367187zm0 0"/><path d="m311.386719 344.6875c-2.832031 0-5.480469-1.402344-7.066407-3.746094-1.589843-2.34375-1.910156-5.324218-.859374-7.953125l21.257812-53.152343c1.75-4.378907 6.714844-6.507813 11.09375-4.757813 4.375 1.746094 6.503906 6.714844 4.757812 11.089844l-21.257812 53.148437c-1.296875 3.242188-4.433594 5.371094-7.925781 5.371094zm0 0"/><path d="m266.734375 322.710938c-4.554687-.027344-8.285156-3.628907-8.472656-8.183594-.1875-4.550782 3.234375-8.449219 7.773437-8.851563l76.535156-6.375c2.261719-.226562 4.519532.472657 6.257813 1.941407 1.734375 1.46875 2.800781 3.582031 2.949219 5.851562.191406 2.253906-.523438 4.492188-1.984375 6.222656-1.460938 1.726563-3.550781 2.800782-5.808594 2.984375l-76.53125 6.375c-.238281.023438-.476563.035157-.71875.035157zm0 0"/><path d="m215.710938 326.96875c-4.433594-.003906-8.128907-3.40625-8.492188-7.824219l-2.125-25.515625c-.191406-2.253906.523438-4.492187 1.984375-6.222656 1.460937-1.726562 3.550781-2.800781 5.808594-2.984375 2.261719-.226563 4.519531.472656 6.253906 1.941406 1.738281 1.46875 2.800781 3.578125 2.953125 5.847657l2.125 25.515624c.191406 2.257813-.523438 4.496094-1.984375 6.222657-1.464844 1.730469-3.554687 2.804687-5.808594 2.988281-.238281.023438-.476562.03125-.714843.03125zm0 0"/><path d="m226.375 343.945312c0 4.710938-3.820312 8.53125-8.53125 8.53125-4.714844 0-8.535156-3.820312-8.535156-8.53125 0-4.714843 3.820312-8.535156 8.535156-8.535156 4.710938 0 8.53125 3.820313 8.53125 8.535156zm0 0"/><path d="m145.085938 229.902344c-24.902344-.039063-46.175782-17.960938-50.441407-42.492188-4.265625-24.535156 9.710938-48.585937 33.140625-57.023437 2.617188-.855469 5.484375-.429688 7.734375 1.152343 2.253907 1.578126 3.628907 4.128907 3.714844 6.878907.015625 3.847656-2.546875 7.222656-6.257813 8.242187-16.1875 6.101563-25.265624 23.335938-21.144531 40.136719 4.125 16.800781 20.152344 27.875 37.324219 25.789063 17.175781-2.085938 30.082031-16.675782 30.0625-33.976563 0-4.710937 3.820312-8.53125 8.535156-8.53125 4.710938 0 8.53125 3.820313 8.53125 8.53125-.003906 28.289063-22.910156 51.234375-51.199218 51.292969zm0 0"/><path d="m106.707031 85.433594c7.527344-6.097656 16.683594-9.847656 26.324219-10.78125 9.863281-1.140625 19.851562.289062 29 4.144531 8.988281 3.847656 17.023438 9.613281 23.542969 16.898437 3.125 3.527344 5.953125 7.308594 8.457031 11.300782 2.226562 4.058594 4.199219 8.25 5.902344 12.554687.539062 1.367188.082031 2.921875-1.105469 3.777344-1.191406.859375-2.8125.800781-3.933594-.140625l-.308593-.257812c-3.417969-2.871094-6.363282-5.945313-9.371094-8.875-3.296875-2.617188-6.175782-5.59375-9.429688-7.972657-6.144531-4.851562-12.882812-8.902343-20.050781-12.058593-7.164063-2.859376-14.707031-4.667969-22.386719-5.363282-8.234375-.6875-16.519531-.507812-24.714844.539063l-.296874.035156c-.570313.0625-1.140626-.101563-1.589844-.457031-.449219-.359375-.734375-.878906-.800782-1.449219-.074218-.71875.210938-1.429687.761719-1.894531zm0 0"/><path d="m187.742188 187.144531c-1.757813 0-3.472657-.546875-4.90625-1.558593l-56.695313-39.976563c-3.203125-2.019531-4.6875-5.914063-3.644531-9.558594 1.046875-3.640625 4.375-6.152343 8.164062-6.164062 1.785156-.003907 3.535156.539062 5.007813 1.554687l57 40.195313c3.042969 2.140625 4.34375 6.007812 3.21875 9.554687-1.128907 3.546875-4.421875 5.957032-8.144531 5.953125zm0 0"/><path d="m281.617188 229.902344c-28.289063-.058594-51.191407-23.003906-51.199219-51.292969 0-4.710937 3.820312-8.53125 8.535156-8.53125 4.710937 0 8.53125 3.820313 8.53125 8.53125.023437 17.300781 12.984375 31.851563 30.167969 33.859375 17.1875 2.011719 33.15625-9.152344 37.167968-25.984375 4.015626-16.828125-5.199218-34-21.441406-39.960937-3.515625-1.144532-5.898437-4.410157-5.910156-8.105469.085938-2.75 1.464844-5.300781 3.714844-6.878907 2.253906-1.582031 5.121094-2.007812 7.734375-1.15625 23.429687 8.4375 37.410156 32.492188 33.144531 57.027344-4.265625 24.53125-25.539062 42.457032-50.445312 42.492188zm0 0"/><path d="m318.136719 89.578125c-8.1875-1.113281-16.46875-1.359375-24.710938-.734375-7.6875.632812-15.242187 2.378906-22.425781 5.183594-7.195312 3.097656-13.964844 7.09375-20.148438 11.898437-3.273437 2.351563-6.175781 5.304688-9.492187 7.898438-3.03125 2.898437-6 5.949219-9.441406 8.796875l-.304688.25c-1.132812.933594-2.75.980468-3.933593.113281-1.183594-.863281-1.628907-2.421875-1.082032-3.78125 1.738282-4.292969 3.746094-8.46875 6.003906-12.511719 2.535157-3.972656 5.390626-7.730468 8.546876-11.230468 6.574218-7.234376 14.660156-12.9375 23.675781-16.710938 9.179687-3.785156 19.179687-5.132812 29.03125-3.910156 9.636719 1.007812 18.761719 4.832031 26.238281 10.988281.722656.617187.957031 1.632813.578125 2.503906-.378906.871094-1.28125 1.394531-2.226563 1.285157zm0 0"/><path d="m238.960938 187.144531c-3.722657.003907-7.015626-2.40625-8.140626-5.953125-1.128906-3.546875.175782-7.414062 3.214844-9.554687l57.003906-40.195313c2.578126-1.820312 5.953126-2.074218 8.777344-.65625 2.824219 1.417969 4.636719 4.273438 4.714844 7.433594.074219 3.160156-1.59375 6.101562-4.34375 7.65625l-56.320312 39.710938c-1.433594 1.011718-3.148438 1.558593-4.90625 1.558593zm0 0"/></svg>