<svg height="512pt" viewBox="0 0 512.19995 512" width="512pt" xmlns="http://www.w3.org/2000/svg"><path d="m435.246094 239.03125c.929687 65.347656-29.976563 127.0625-82.855469 165.460938l-97.28125 72.535156-12.714844-9.644532-82.6875-62.890624c-16.207031-11.371094-30.496093-25.253907-42.324219-41.128907l-22.613281-38.65625c-10.3125-23.453125-16.296875-48.574219-17.664062-74.15625-.171875-3.839843-.257813-7.679687-.257813-11.519531-.007812-8.5.503906-16.992188 1.535156-25.429688 10.839844-91.820312 79.617188-163.753906 164.863282-170.238281 4.269531-.429687 8.535156-.597656 12.800781-.597656 98.988281 0 179.199219 87.890625 179.199219 196.265625zm0 0" fill="#fec108"/><path d="m409.648438 239.03125c.929687 65.347656-29.976563 127.0625-82.859376 165.460938l-84.394531 62.890624-82.6875-62.890624c-16.207031-11.371094-30.496093-25.253907-42.324219-41.128907l-22.613281-38.65625c-10.3125-23.453125-16.296875-48.574219-17.664062-74.15625-.171875-3.839843-.257813-7.679687-.257813-11.519531-.007812-8.5.503906-16.992188 1.535156-25.429688 10.839844-91.820312 79.617188-163.753906 164.863282-170.238281 93.015625 7.082031 166.402344 91.988281 166.402344 195.667969zm0 0" fill="#ffdc00"/><path d="m256.046875 460.898438v25.597656c-.027344 9.414062-7.652344 17.039062-17.066406 17.066406h-102.398438c-9.414062-.027344-17.039062-7.652344-17.066406-17.066406v-25.597656c-.070313-31.34375 24.195313-57.363282 55.464844-59.476563 1.417969-.171875 2.839843-.257813 4.265625-.257813h17.066406c15.847656-.011718 31.046875 6.277344 42.253906 17.484376 11.203125 11.203124 17.492188 26.402343 17.480469 42.25zm0 0" fill="#283593"/><path d="m230.449219 460.898438v25.597656c-.027344 9.414062-7.652344 17.039062-17.066407 17.066406h-76.800781c-9.414062-.027344-17.039062-7.652344-17.066406-17.066406v-25.597656c-.070313-31.34375 24.195313-57.363282 55.464844-59.476563 31.273437 2.113281 55.535156 28.132813 55.46875 59.476563zm0 0" fill="#3f51b5"/><path d="m392.582031 460.898438v25.597656c-.027343 9.414062-7.652343 17.039062-17.066406 17.066406h-102.402344c-9.414062-.027344-17.039062-7.652344-17.066406-17.066406v-25.597656c-.066406-31.34375 24.195313-57.363282 55.46875-59.476563 1.414063-.171875 2.839844-.257813 4.265625-.257813h17.066406c15.847656-.011718 31.046875 6.277344 42.25 17.484376 11.207032 11.203124 17.496094 26.402343 17.484375 42.25zm0 0" fill="#283593"/><path d="m366.980469 460.898438v25.597656c-.027344 9.414062-7.652344 17.039062-17.066407 17.066406h-76.800781c-9.414062-.027344-17.039062-7.652344-17.066406-17.066406v-25.597656c-.066406-31.34375 24.195313-57.363282 55.46875-59.476563 31.269531 2.113281 55.535156 28.132813 55.464844 59.476563zm0 0" fill="#3f51b5"/><path d="m221.914062 166.496094c0-21.207032-7.640624-38.398438-17.066406-38.398438-9.425781 0-17.066406 17.191406-17.066406 38.398438 0 21.210937 7.640625 38.402344 17.066406 38.402344 9.425782 0 17.066406-17.191407 17.066406-38.402344zm0 0" fill="#3f51b5"/><path d="m214.328125 149.429688c0-11.78125-4.242187-21.332032-9.480469-21.332032-5.238281 0-9.480468 9.550782-9.480468 21.332032 0 11.785156 4.242187 21.335937 9.480468 21.335937 5.238282 0 9.480469-9.550781 9.480469-21.335937zm0 0" fill="#f5f5f5"/><path d="m324.3125 166.496094c0-21.207032-7.640625-38.398438-17.066406-38.398438-9.425782 0-17.066406 17.191406-17.066406 38.398438 0 21.210937 7.640624 38.402344 17.066406 38.402344 9.425781 0 17.066406-17.191407 17.066406-38.402344zm0 0" fill="#3f51b5"/><path d="m316.730469 149.429688c0-11.78125-4.246094-21.332032-9.484375-21.332032-5.234375 0-9.480469 9.550782-9.480469 21.332032 0 11.785156 4.246094 21.335937 9.480469 21.335937 5.238281 0 9.484375-9.550781 9.484375-21.335937zm0 0" fill="#f5f5f5"/><path d="m112.054688 138.265625c-11.039063-8.832031-12.828126-24.941406-3.996094-35.984375 8.832031-11.039062 24.941406-12.828125 35.980468-3.996094 11.042969 8.832032 17.324219 46.644532 17.324219 46.644532s-38.265625 2.167968-49.308593-6.664063zm0 0" fill="#0377bc"/><path d="m122.464844 139.671875c-8.710938-6.96875-10.121094-19.675781-3.152344-28.386719 6.964844-8.710937 19.675781-10.121094 28.386719-3.152344 8.707031 6.964844 13.667969 36.796876 13.667969 36.796876s-30.191407 1.710937-38.902344-5.257813zm0 0" fill="#02a9f4"/><path d="m33.953125 128.097656c-14.136719-.125-25.496094-11.691406-25.371094-25.828125.128907-14.140625 11.691407-25.5 25.832031-25.371093 14.136719.128906 42.433594 25.980468 42.433594 25.980468s-28.757812 25.34375-42.894531 25.21875zm0 0" fill="#0377bc"/><path d="m44.675781 121.792969c-10.601562-.09375-19.121093-8.765625-19.027343-19.371094.09375-10.601563 8.765624-19.121094 19.371093-19.027344s31.828125 19.484375 31.828125 19.484375-21.566406 19.007813-32.171875 18.914063zm0 0" fill="#02a9f4"/><path d="m54.539062 44.234375c-3.675781-8.441406-2.535156-18.203125 2.980469-25.570313 5.519531-7.367187 14.570313-11.203124 23.699219-10.046874 9.132812 1.152343 16.941406 7.121093 20.453125 15.628906 5.519531 13.015625-6.910156 49.277344-6.910156 49.277344s-34.703125-16.273438-40.222657-29.289063zm0 0" fill="#0377bc"/><path d="m62.734375 50.203125c-2.839844-6.703125-1.890625-14.417969 2.492187-20.230469 4.382813-5.8125 11.539063-8.847656 18.765626-7.957031 7.226562.890625 13.429687 5.566406 16.273437 12.269531 4.394531 10.363282-5.496094 39.234375-5.496094 39.234375s-27.636719-12.953125-32.035156-23.316406zm0 0" fill="#02a9f4"/><path d="m399.222656 138.265625c7.144532-5.714844 10.695313-14.804687 9.316406-23.84375-1.378906-9.042969-7.472656-16.664063-15.992187-19.992187-8.519531-3.328126-18.167969-1.859376-25.308594 3.855468-11.039062 8.832032-17.324219 46.644532-17.324219 46.644532s38.269532 2.167968 49.308594-6.664063zm0 0" fill="#0377bc"/><path d="m383.421875 144.292969c6.910156-7.304688 6.769531-18.78125-.320313-25.914063-5.402343-8.480468-16.566406-11.140625-25.210937-6-6.875 5.5-7.976563 32.550782-7.976563 32.550782s26.632813 4.863281 33.507813-.636719zm0 0" fill="#02a9f4"/><path d="m478.144531 128.097656c9.144531-.082031 17.554688-5.035156 22.054688-13 4.503906-7.960937 4.414062-17.71875-.230469-25.597656s-13.136719-12.683594-22.285156-12.601562c-14.136719.128906-42.4375 25.980468-42.4375 25.980468s28.757812 25.34375 42.898437 25.21875zm0 0" fill="#0377bc"/><path d="m462.085938 121.839844c9.671874-1.046875 16.714843-9.65625 15.828124-19.34375.714844-9.699219-6.484374-18.179688-16.171874-19.054688-8.835938.078125-26.496094 19.4375-26.496094 19.4375s18.007812 19.039063 26.839844 18.960938zm0 0" fill="#02a9f4"/><path d="m457.558594 44.234375c3.675781-8.441406 2.535156-18.203125-2.984375-25.570313-5.515625-7.367187-14.566407-11.203124-23.699219-10.046874-9.128906 1.152343-16.9375 7.121093-20.449219 15.628906-5.523437 13.015625 6.910157 49.277344 6.910157 49.277344s34.703124-16.273438 40.222656-29.289063zm0 0" fill="#0377bc"/><path d="m446.628906 56.640625c2.734375-9.734375-2.785156-19.871094-12.441406-22.859375-8.863281-4.867188-19.988281-1.785156-25.085938 6.945312-3.488281 8.226563 8.230469 32.792969 8.230469 32.792969s25.808594-8.648437 29.296875-16.878906zm0 0" fill="#02a9f4"/><g fill="#ff5722"><path d="m56.730469 326.902344 25.066406-41.875-4.523437-59.050782v.082032l-46.003907 77.046875c8.234375 8.328125 21.203125 12.484375 25.460938 23.796875zm0 0"/><path d="m434.648438 224.011719c3.160156 1.652343 5.726562 4.246093 7.339843 7.425781l32.855469 65.789062c7.855469 15.582032 11.167969 33.058594 9.554688 50.433594l-4.007813 44.289063-34.050781-2.21875 4.097656-45.140625c.960938-11.078125-1.132812-22.203125-6.058594-32.171875l-13.996094-27.988281zm0 0"/><path d="m169.691406 302.605469-72.535156 27.304687-52.90625 19.96875c-.417969.105469-.851562.132813-1.28125.085938l15.320312-25.621094c-4.257812-11.3125-16.699218-16.484375-24.933593-24.816406l-20.765625 34.734375c-.304688.457031-.5625.941406-.765625 1.453125-5.84375 12.128906-3.714844 26.59375 5.375 36.523437 6.679687 7.542969 16.292969 11.832031 26.367187 11.773438 4.097656-.019531 8.160156-.710938 12.035156-2.046875l59.21875-22.273438 70.570313-26.621094zm0 0"/></g><path d="m466.308594 486.414062c-5.273438.433594-10.570313-.417968-15.445313-2.476562-17.402343-8.121094-28.753906-25.347656-29.355469-44.542969-1.707031-23.296875 9.816407-43.777343 27.050782-50.601562 3.222656-1.394531 6.65625-2.230469 10.15625-2.476563 22.613281-1.707031 42.582031 19.371094 44.628906 46.933594 2.046875 27.648438-14.507812 51.457031-37.035156 53.164062zm0 0" fill="#f57c00"/><path d="m450.863281 483.9375c-17.402343-8.121094-28.753906-25.347656-29.355469-44.542969-1.707031-23.296875 9.816407-43.777343 27.050782-50.601562 17.296875 8.171875 28.566406 25.335937 29.183594 44.457031 1.707031 23.296875-9.726563 43.859375-26.878907 50.6875zm0 0" fill="#ff9801"/><path d="m243.214844 324.605469c-20.753906 18.34375-49.710938 19.570312-64.71875 2.589843-15.011719-16.976562-10.390625-45.738281 10.363281-64.078124 20.753906-18.34375 49.742187-19.457032 64.753906-2.476563 15.007813 16.984375 10.351563 45.617187-10.398437 63.964844zm0 0" fill="#ff9801"/><path d="m159.699219 413.027344c-1.746094-.003906-3.445313-.539063-4.875-1.539063-18.25-12.785156-34.136719-28.644531-46.964844-46.867187-1.789063-2.484375-2.105469-5.738282-.832031-8.527344 1.269531-2.785156 3.9375-4.675781 6.988281-4.953125s6.015625 1.105469 7.769531 3.617187c11.6875 16.613282 26.171875 31.070313 42.804688 42.730469 3.054687 2.132813 4.375 6.003907 3.253906 9.5625-1.121094 3.554688-4.417969 5.972657-8.144531 5.96875zm0 0"/><path d="m135.558594 102.332031c-3.453125 0-6.566406-2.082031-7.886719-5.273437s-.585937-6.863282 1.859375-9.300782c33.167969-34.183593 78.753906-53.488281 126.382812-53.523437 47.625-.039063 93.242188 19.199219 126.460938 53.328125 2.207031 2.140625 3.09375 5.300781 2.324219 8.273438-.773438 2.976562-3.082031 5.304687-6.050781 6.101562s-6.136719-.066406-8.289063-2.253906c-30.019531-30.957032-71.304687-48.414063-114.425781-48.386719-43.117188.03125-84.378906 17.546875-114.355469 48.542969-1.597656 1.597656-3.761719 2.492187-6.019531 2.492187zm0 0"/><path d="m352.398438 413.027344c-3.726563 0-7.023438-2.414063-8.140626-5.96875-1.121093-3.550782.191407-7.421875 3.246094-9.558594 50.65625-36.75 80.21875-95.890625 79.210938-158.46875 0-5.191406-.183594-9.859375-.5625-14.285156-2.039063-31.628906-11.605469-62.3125-27.90625-89.5-1.640625-2.609375-1.746094-5.902344-.273438-8.613282 1.472656-2.707031 4.289063-4.414062 7.371094-4.460937 3.085938-.042969 5.953125 1.578125 7.503906 4.242187 17.683594 29.46875 28.074219 62.730469 30.3125 97.023438.417969 4.761719.621094 9.910156.621094 15.59375 1.007812 68.148438-31.273438 132.511719-86.503906 172.449219-1.429688 1.007812-3.132813 1.546875-4.878906 1.546875zm0 0"/><path d="m97.15625 338.445312c-3.304688.003907-6.3125-1.902343-7.71875-4.894531-13.988281-29.542969-21.203125-61.832031-21.125-94.519531 0-4.609375.175781-9.128906.445312-13.566406 2.007813-34.734375 12.308594-68.476563 30.035157-98.410156 1.527343-2.6875 4.386719-4.335938 7.476562-4.3125 3.089844.019531 5.925781 1.710937 7.417969 4.417968 1.488281 2.707032 1.398438 6.007813-.234375 8.628906-16.328125 27.585938-25.8125 58.679688-27.660156 90.683594-.242188 4.109375-.410157 8.300782-.410157 12.558594-.085937 30.167969 6.574219 59.976562 19.488282 87.242188 1.246094 2.640624 1.054687 5.738281-.507813 8.207031-1.566406 2.46875-4.285156 3.964843-7.207031 3.964843zm0 0"/><path d="m238.980469 512.097656h-102.398438c-14.132812-.015625-25.585937-11.46875-25.601562-25.601562v-25.597656c.042969-37.683594 30.582031-68.222657 68.265625-68.265626h17.066406c37.6875.042969 68.226562 30.582032 68.269531 68.265626v25.597656c-.015625 14.132812-11.46875 25.585937-25.601562 25.601562zm-59.734375-102.398437c-28.261719.03125-51.167969 22.933593-51.199219 51.199219v25.597656c.003906 4.710937 3.824219 8.53125 8.535156 8.535156h102.398438c4.710937-.003906 8.53125-3.824219 8.535156-8.535156v-25.597656c-.03125-28.265626-22.9375-51.167969-51.203125-51.199219zm0 0"/><path d="m256.046875 477.964844h-136.53125c-4.714844 0-8.535156-3.820313-8.535156-8.535156 0-4.710938 3.820312-8.53125 8.535156-8.53125h136.53125c4.714844 0 8.535156 3.820312 8.535156 8.53125 0 4.714843-3.820312 8.535156-8.535156 8.535156zm0 0"/><path d="m375.515625 512.097656h-102.402344c-14.132812-.015625-25.582031-11.46875-25.597656-25.601562v-25.597656c.042969-37.683594 30.582031-68.222657 68.265625-68.265626h17.066406c37.683594.042969 68.222656 30.582032 68.265625 68.265626v25.597656c-.015625 14.132812-11.46875 25.585937-25.597656 25.601562zm-59.734375-102.398437c-28.265625.03125-51.167969 22.933593-51.199219 51.199219v25.597656c.003907 4.710937 3.820313 8.53125 8.53125 8.535156h102.402344c4.710937-.003906 8.527344-3.824219 8.53125-8.535156v-25.597656c-.03125-28.265626-22.933594-51.167969-51.199219-51.199219zm0 0"/><path d="m392.582031 477.964844h-136.535156c-4.710937 0-8.53125-3.820313-8.53125-8.535156 0-4.710938 3.820313-8.53125 8.53125-8.53125h136.535156c4.710938 0 8.53125 3.820312 8.53125 8.53125 0 4.714843-3.820312 8.535156-8.53125 8.535156zm0 0"/><path d="m206.828125 347.640625c-13.171875.328125-25.839844-5.066406-34.726563-14.792969-18.140624-20.523437-13.15625-54.675781 11.105469-76.125 24.253907-21.425781 58.699219-22.199218 76.800781-1.726562 18.097657 20.476562 13.105469 54.566406-11.140624 76-11.53125 10.460937-26.472657 16.375-42.039063 16.644531zm18.339844-90.539063c-11.378907.304688-22.265625 4.710938-30.65625 12.40625-17.214844 15.226563-21.53125 38.570313-9.621094 52.042969 11.824219 13.375 35.457031 11.875 52.675781-3.332031 17.183594-15.210938 21.519532-38.492188 9.65625-51.917969-5.671875-6.121093-13.714844-9.476562-22.054687-9.203125zm0 0"/><path d="m43.296875 358.515625c-.289063 0-.511719-.019531-.660156-.027344-3-.183593-5.691407-1.898437-7.121094-4.539062-1.421875-2.621094-1.371094-5.789063.128906-8.363281l38.824219-64.941407c1.535156-2.675781 4.394531-4.316406 7.480469-4.292969 3.085937.027344 5.917969 1.71875 7.40625 4.421876 1.484375 2.707031 1.394531 6.003906-.234375 8.621093l-26.597656 44.496094 104.15625-39.269531c2.871093-1.152344 6.136718-.660156 8.542968 1.285156 2.40625 1.941406 3.570313 5.035156 3.046875 8.082031-.523437 3.046875-2.65625 5.574219-5.570312 6.601563l-125.433594 47.273437c-1.285156.40625-2.621094.625-3.96875.652344zm0 0"/><path d="m43.566406 392.546875c-12.519531.09375-24.46875-5.246094-32.75-14.644531-11.296875-12.363282-14.015625-30.328125-6.875-45.480469.347656-.855469.773438-1.675781 1.273438-2.449219l64.558594-107.992187c1.84375-3.4375 5.785156-5.183594 9.570312-4.242188 3.785156.945313 6.449219 4.335938 6.464844 8.238281 0 1.570313-.417969 3.109376-1.210938 4.464844l-64.679687 108.203125c-4.710938 9.152344-3.265625 20.261719 3.625 27.90625 7.347656 8.203125 18.949219 11.113281 29.296875 7.347657l129.539062-48.808594c4.390625-1.601563 9.25.632812 10.902344 5.003906 1.648438 4.375-.527344 9.261719-4.878906 10.960938l-129.804688 48.894531c-4.828125 1.699219-9.910156 2.574219-15.03125 2.597656zm0 0"/><path d="m463.75 495.03125c-26.003906 0-48.441406-23.949219-50.753906-55-1.292969-14.765625 2.546875-29.527344 10.867187-41.792969 7.6875-11.664062 20.277344-19.183593 34.195313-20.414062 27.3125-2.144531 51.386718 22.566406 53.792968 54.832031 2.410157 32.292969-17.75 60.222656-44.945312 62.257812-1.058594.082032-2.113281.117188-3.15625.117188zm-2.515625-100.257812c-.636719 0-1.269531.015624-1.910156.066406-8.792969.902344-16.703125 5.757812-21.488281 13.191406-6.058594 9.042969-8.820313 19.894531-7.824219 30.734375 1.707031 22.914063 17.738281 40.515625 35.625 39.132813 17.808593-1.335938 30.902343-21.058594 29.195312-43.976563-1.644531-22.058594-16.515625-39.148437-33.601562-39.148437zm0 0"/><path d="m446.347656 398.261719c-.253906 0-.515625-.007813-.777344-.03125-2.257812-.207031-4.339843-1.296875-5.789062-3.039063-1.449219-1.738281-2.148438-3.980468-1.941406-6.238281l4.09375-45.140625c.824218-9.503906-.976563-19.054688-5.203125-27.609375l-13.980469-27.957031c-2.105469-4.214844-.398438-9.34375 3.816406-11.449219 4.214844-2.109375 9.34375-.402344 11.453125 3.816406l13.992188 27.980469c5.625 11.378906 8.019531 24.078125 6.929687 36.71875l-4.097656 45.191406c-.402344 4.394532-4.085938 7.757813-8.496094 7.757813zm0 0"/><path d="m480.398438 400.480469c-.257813 0-.511719-.007813-.78125-.03125-4.691407-.425781-8.152344-4.574219-7.726563-9.265625l4.007813-44.289063c1.46875-15.789062-1.539063-31.667969-8.679688-45.824219l-32.863281-65.820312c-.816407-1.578125-2.101563-2.863281-3.679688-3.679688-4.167969-2.195312-5.769531-7.359374-3.574219-11.527343 2.195313-4.171875 7.355469-5.773438 11.523438-3.578125 4.710938 2.472656 8.539062 6.34375 10.957031 11.082031l32.894531 65.878906c8.566407 17.003907 12.175782 36.074219 10.414063 55.03125l-4 44.257813c-.402344 4.394531-4.082031 7.761718-8.492187 7.765625zm0 0"/><path d="m204.847656 213.429688c-16.8125 0-25.601562-23.605469-25.601562-46.933594 0-23.324219 8.789062-46.933594 25.601562-46.933594s25.601563 23.609375 25.601563 46.933594c0 23.328125-8.789063 46.933594-25.601563 46.933594zm-.171875-76.824219c-2.046875.785156-8.363281 11.152343-8.363281 29.890625 0 18.742187 6.316406 29.109375 8.707031 29.894531 2.046875-.785156 8.363281-11.152344 8.363281-29.894531 0-18.738282-6.316406-29.105469-8.707031-29.890625zm0 0"/><path d="m307.246094 213.429688c-16.808594 0-25.597656-23.605469-25.597656-46.933594 0-23.324219 8.789062-46.933594 25.597656-46.933594 16.8125 0 25.601562 23.609375 25.601562 46.933594 0 23.328125-8.789062 46.933594-25.601562 46.933594zm-.167969-76.824219c-2.050781.785156-8.363281 11.152343-8.363281 29.890625 0 18.742187 6.3125 29.109375 8.703125 29.894531 2.046875-.785156 8.363281-11.152344 8.363281-29.894531 0-18.738282-6.316406-29.105469-8.703125-29.890625zm0 0"/><path d="m230.449219 221.964844c-2.265625.003906-4.4375-.898438-6.035157-2.5-5.601562-4.265625-12.535156-6.402344-19.566406-6.035156-7.078125-.378907-14.058594 1.796874-19.664062 6.136718-3.410156 3.1875-8.738282 3.078125-12.015625-.25-3.25-3.316406-3.230469-8.628906.046875-11.917968 8.746094-7.585938 20.066406-11.535157 31.632812-11.035157 11.566406-.5 22.886719 3.449219 31.632813 11.035157 2.441406 2.441406 3.167969 6.109374 1.847656 9.296874s-4.429687 5.269532-7.878906 5.269532zm0 0"/><path d="m332.847656 221.964844c-2.261718.003906-4.433594-.898438-6.03125-2.5-5.601562-4.265625-12.539062-6.402344-19.570312-6.035156-7.078125-.378907-14.054688 1.796874-19.660156 6.136718-3.410157 3.1875-8.742188 3.078125-12.015626-.25-3.253906-3.316406-3.234374-8.628906.042969-11.917968 8.75-7.585938 20.066407-11.535157 31.632813-11.035157 11.570312-.5 22.886718 3.449219 31.632812 11.035157 2.441406 2.441406 3.171875 6.109374 1.851563 9.296874-1.320313 3.1875-4.433594 5.269532-7.882813 5.269532zm0 0"/><path d="m220.261719 96.167969c-9.648438-3.75-20.179688-4.605469-30.300781-2.457031-4.835938 1.554687-9.347657 3.976562-13.3125 7.152343-2.183594 1.535157-3.984376 3.636719-6.207032 5.355469-1.953125 2.019531-3.78125 4.183594-5.945312 6.203125l-.253906.234375c-.933594.875-2.351563.980469-3.402344.253906-1.054688-.726562-1.460938-2.085937-.980469-3.269531 1.167969-2.871094 2.613281-5.636719 4.035156-8.472656 1.703125-2.730469 3.621094-5.320313 5.734375-7.746094 4.539063-5.074219 10.277344-8.921875 16.691406-11.195313 6.59375-2.296874 13.726563-2.542968 20.460938-.707031 6.480469 1.691407 12.316406 5.253907 16.785156 10.238281.816406.941407.917969 2.3125.238282 3.363282-.675782 1.050781-1.964844 1.523437-3.164063 1.164062zm0 0"/><path d="m288.527344 91.757812c4.46875-4.984374 10.304687-8.546874 16.78125-10.238281 6.734375-1.835937 13.867187-1.589843 20.460937.707031 6.414063 2.273438 12.15625 6.125 16.695313 11.195313 2.109375 2.425781 4.027344 5.015625 5.730468 7.746094 1.421876 2.835937 2.871094 5.601562 4.035157 8.472656.480469 1.183594.074219 2.542969-.976563 3.269531-1.050781.726563-2.464844.621094-3.402344-.25l-.253906-.238281c-2.164062-2.019531-3.992187-4.179687-5.945312-6.203125-2.21875-1.71875-4.023438-3.816406-6.207032-5.355469-3.964843-3.175781-8.476562-5.597656-13.3125-7.152343-10.121093-2.144532-20.652343-1.292969-30.300781 2.460937l-.378906.113281c-1.195313.359375-2.484375-.113281-3.164063-1.160156-.679687-1.046875-.582031-2.417969.238282-3.363281zm0 0"/><path d="m307.246094 298.765625h-45.226563c-4.710937 0-8.53125-3.820313-8.53125-8.535156 0-4.710938 3.820313-8.53125 8.53125-8.53125h45.226563c4.710937-.003907 8.53125-3.824219 8.535156-8.535157v-8.53125c0-4.714843 3.820312-8.535156 8.53125-8.535156 4.714844 0 8.535156 3.820313 8.535156 8.535156v8.53125c-.015625 14.132813-11.46875 25.585938-25.601562 25.601563zm0 0"/><path d="m273.113281 332.898438h-25.597656c-4.714844 0-8.535156-3.820313-8.535156-8.535157 0-4.710937 3.820312-8.53125 8.535156-8.53125h25.597656c4.714844 0 8.535157 3.820313 8.535157 8.53125 0 4.714844-3.820313 8.535157-8.535157 8.535157zm0 0"/><path d="m150.800781 153.75c-13.535156 0-34.683593-1.3125-44.074219-8.820312-14.722656-11.773438-17.113281-33.253907-5.335937-47.976563 11.773437-14.722656 33.253906-17.113281 47.976563-5.339844 12.9375 10.351563 19.277343 45.066407 20.414062 51.917969.398438 2.390625-.238281 4.839844-1.753906 6.730469-1.511719 1.894531-3.761719 3.050781-6.183594 3.1875-1.894531.105469-5.925781.300781-11.042969.300781zm-22.734375-52.53125c-7.25-.007812-13.710937 4.5625-16.113281 11.402344-2.402344 6.835937-.226563 14.445312 5.433594 18.976562 4.25 3.398438 19.175781 5.074219 33.660156 5.074219-3.183594-14.132813-8.089844-28.332031-12.335937-31.726563-3.019532-2.417968-6.777344-3.734374-10.644532-3.726562zm0 0"/><path d="m34.035156 136.632812h-.15625c-13.808594-.125-26.179687-8.554687-31.347656-21.355468-5.167969-12.800782-2.117188-27.457032 7.734375-37.128906 6.414063-6.40625 15.15625-9.9375 24.21875-9.785157 16.570313.152344 42.992187 23.535157 48.121094 28.21875 1.789062 1.632813 2.796875 3.953125 2.773437 6.375-.019531 2.421875-1.070312 4.722657-2.890625 6.324219-5.191406 4.582031-31.871093 27.351562-48.453125 27.351562zm-.007812-17.070312h.046875c5.316406 0 18.140625-7.863281 29.558593-16.808594-11.230468-9.140625-23.859374-17.273437-29.296874-17.324218-4.542969-.117188-8.929688 1.652343-12.113282 4.894531-4.925781 4.835937-6.449218 12.160156-3.867187 18.5625 2.582031 6.402343 8.769531 10.613281 15.671875 10.675781zm0 0"/><path d="m94.769531 82.046875c-1.253906.003906-2.492187-.273437-3.621093-.808594-6.296876-2.949219-38-18.421875-44.46875-33.675781-4.761719-11.226562-3.171876-24.140625 4.171874-33.878906 7.339844-9.734375 19.320313-14.816406 31.421876-13.328125 12.105468 1.488281 22.496093 9.324219 27.257812 20.550781 6.46875 15.25-4.4375 48.8125-6.691406 55.375-1.179688 3.453125-4.425782 5.769531-8.070313 5.765625zm-32.375-41.148437c2.125 5.007812 14.464844 13.574218 27.210938 20.449218 3.914062-13.941406 6.332031-28.765625 4.214843-33.773437-3.699218-8.648438-13.695312-12.671875-22.355468-9-8.65625 3.671875-12.714844 13.652343-9.070313 22.324219zm0 0"/><path d="m360.476562 153.75c-5.121093 0-9.140624-.195312-11.046874-.300781-2.417969-.136719-4.667969-1.292969-6.183594-3.1875-1.511719-1.890625-2.152344-4.339844-1.75-6.730469 1.136718-6.851562 7.472656-41.566406 20.410156-51.917969 9.527344-7.617187 22.390625-9.574219 33.75-5.132812 11.359375 4.4375 19.484375 14.601562 21.320312 26.65625 1.832032 12.058593-2.902343 24.175781-12.425781 31.792969-9.386719 7.507812-30.535156 8.820312-44.074219 8.820312zm22.738282-52.53125c-3.871094-.007812-7.628906 1.308594-10.644532 3.730469-4.246093 3.394531-9.15625 17.59375-12.339843 31.726562 14.488281 0 29.414062-1.675781 33.660156-5.066406v-.007813c5.660156-4.527343 7.839844-12.140624 5.4375-18.976562-2.402344-6.839844-8.863281-11.414062-16.113281-11.40625zm0 0"/><path d="m478.058594 136.632812c-16.574219 0-43.257813-22.769531-48.453125-27.351562-1.816407-1.601562-2.871094-3.902344-2.890625-6.324219-.023438-2.425781.988281-4.742187 2.777344-6.375 5.125-4.683593 31.550781-28.066406 48.117187-28.21875h.304687c18.851563-.082031 34.203126 15.132813 34.285157 33.984375.085937 18.847656-15.128907 34.199219-33.980469 34.285156zm-29.597656-33.867187c8.503906 7.71875 18.617187 13.457031 29.609374 16.796875 9.425782-.039062 17.03125-7.714844 16.988282-17.140625-.042969-9.425781-7.71875-17.035156-17.144532-16.992187h-.152343c-5.4375.050781-18.070313 8.183593-29.300781 17.335937zm0 0"/><path d="m417.335938 82.046875c-3.648438.003906-6.894532-2.3125-8.070313-5.765625-2.253906-6.566406-13.167969-40.125-6.695313-55.375 7.386719-17.308594 27.394532-25.371094 44.71875-18.019531 17.328126 7.347656 25.433594 27.335937 18.125 44.675781-6.464843 15.25-38.167968 30.726562-44.457031 33.675781-1.132812.535157-2.371093.8125-3.621093.808594zm16.648437-64.882813c-6.847656.011719-13.027344 4.109376-15.707031 10.410157-2.121094 5.007812.304687 19.835937 4.214844 33.777343 12.746093-6.875 25.089843-15.441406 27.214843-20.453124 2.222657-5.273438 1.660157-11.308594-1.5-16.082032-3.160156-4.769531-8.496093-7.644531-14.222656-7.652344zm0 0"/></svg>