<svg height="512pt" viewBox="0 0 512.01509 512" width="512pt" xmlns="http://www.w3.org/2000/svg"><path d="m39.953125 93.078125-30.378906 111.871094c-2.582031 10.207031-.304688 21.035156 6.167969 29.339843 6.46875 8.304688 16.410156 13.160157 26.941406 13.15625h34.304687l1.363281-34.132812h-35.667968l29.269531-108.03125zm0 0" fill="#ff5722"/><path d="m472.09375 93.078125 30.378906 111.871094c2.582032 10.207031.304688 21.035156-6.167968 29.339843-6.46875 8.304688-16.410157 13.160157-26.941407 13.15625h-34.304687l-1.363282-34.132812h35.667969l-29.269531-108.03125zm0 0" fill="#ff5722"/><path d="m435.230469 238.910156c.929687 65.347656-29.976563 127.0625-82.859375 165.460938l-97.277344 72.535156-12.714844-9.640625-82.6875-62.894531c-16.210937-11.367188-30.5-25.253906-42.328125-41.128906l-22.613281-38.65625c-10.308594-23.449219-16.292969-48.574219-17.664062-74.152344-.167969-3.84375-.253907-7.683594-.253907-11.523438-.011719-8.5.503907-16.992187 1.535157-25.429687 10.835937-91.816407 79.617187-163.753907 164.863281-170.238281 4.265625-.425782 8.535156-.597657 12.800781-.597657 98.988281 0 179.199219 87.894531 179.199219 196.265625zm0 0" fill="#fec108"/><path d="m409.632812 238.910156c.929688 65.347656-29.976562 127.0625-82.859374 165.460938l-84.394532 62.894531-82.6875-62.894531c-16.210937-11.367188-30.5-25.253906-42.328125-41.128906l-22.613281-38.65625c-10.308594-23.449219-16.292969-48.574219-17.664062-74.152344-.167969-3.84375-.253907-7.683594-.253907-11.523438-.011719-8.5.503907-16.992187 1.535157-25.429687 10.835937-91.816407 79.617187-163.753907 164.863281-170.238281 93.015625 7.082031 166.402343 91.988281 166.402343 195.667968zm0 0" fill="#ffdc00"/><path d="m256.03125 460.777344v25.601562c-.027344 9.414063-7.652344 17.039063-17.066406 17.066406h-102.402344c-9.414062-.027343-17.039062-7.652343-17.066406-17.066406v-25.601562c-.066406-31.34375 24.195312-57.359375 55.46875-59.476563 1.414062-.171875 2.839844-.253906 4.265625-.253906h17.066406c15.847656-.011719 31.046875 6.277344 42.25 17.480469 11.207031 11.203125 17.496094 26.40625 17.484375 42.25zm0 0" fill="#283593"/><path d="m230.429688 460.777344v25.601562c-.027344 9.414063-7.652344 17.039063-17.066407 17.066406h-76.800781c-9.414062-.027343-17.039062-7.652343-17.066406-17.066406v-25.601562c-.066406-31.34375 24.195312-57.359375 55.46875-59.476563 31.269531 2.117188 55.535156 28.132813 55.464844 59.476563zm0 0" fill="#3f51b5"/><path d="m392.5625 460.777344v25.601562c-.027344 9.414063-7.652344 17.039063-17.066406 17.066406h-102.398438c-9.414062-.027343-17.039062-7.652343-17.066406-17.066406v-25.601562c-.070312-31.34375 24.195312-57.359375 55.464844-59.476563 1.417968-.171875 2.84375-.253906 4.269531-.253906h17.066406c15.84375-.011719 31.046875 6.277344 42.25 17.480469s17.492188 26.40625 17.480469 42.25zm0 0" fill="#283593"/><path d="m366.964844 460.777344v25.601562c-.027344 9.414063-7.652344 17.039063-17.066406 17.066406h-76.800782c-9.414062-.027343-17.039062-7.652343-17.066406-17.066406v-25.601562c-.070312-31.34375 24.195312-57.359375 55.464844-59.476563 31.273437 2.117188 55.535156 28.132813 55.46875 59.476563zm0 0" fill="#3f51b5"/><path d="m460.234375 102.378906c-8.882813 4.046875-19.007813 4.414063-28.160156 1.023438-13.574219-5.097656-24.5625-15.382813-30.550781-28.585938-11.945313-25.003906-5.035157-53.25 15.445312-62.976562.769531-.339844 1.621094-.683594 2.476562-1.023438 20.050782-7.679687 44.628907 4.605469 56.148438 28.671875 11.945312 25.003907 5.121094 53.160157-15.359375 62.890625zm0 0" fill="#f57c00"/><path d="m434.632812 102.378906c-.820312.414063-1.679687.757813-2.558593 1.023438-13.574219-5.097656-24.5625-15.382813-30.550781-28.585938-11.945313-25.003906-5.035157-53.25 15.445312-62.976562.769531-.339844 1.621094-.683594 2.476562-1.023438 13.542969 5.1875 24.515626 15.480469 30.546876 28.671875 11.949218 25.003907 5.121093 53.160157-15.359376 62.890625zm0 0" fill="#ff9801"/><path d="m36.460938 39.457031c-11.917969 25.003907-5.125 53.179688 15.332031 62.929688 20.457031 9.753906 46.828125-2.609375 58.75-27.609375 11.917969-25.003906 4.996093-53.175782-15.457031-62.929688-20.457032-9.753906-46.703126 2.609375-58.625 27.609375zm0 0" fill="#ff9801"/><path d="m230.429688 273.046875h51.203124c18.847657 0 34.132813 15.28125 34.132813 34.132813v34.132812c0 9.425781-7.640625 17.066406-17.066406 17.066406h-85.335938c-9.425781 0-17.066406-7.640625-17.066406-17.066406v-34.132812c0-18.851563 15.28125-34.132813 34.132813-34.132813zm0 0" fill="#bb193b"/><path d="m230.429688 358.378906v-17.066406c0-14.140625 11.460937-25.601562 25.601562-25.601562 14.136719 0 25.601562 11.460937 25.601562 25.601562v17.066406zm0 0" fill="#e91e63"/><path d="m197.171875 142.535156 7.511719 16.113282c1.460937 3.152343 4.402344 5.367187 7.835937 5.902343l17.613281 2.710938c3.863282.625 7.058594 3.339843 8.292969 7.054687 1.230469 3.710938.296875 7.800782-2.421875 10.609375l-13.390625 13.832031c-2.308593 2.386719-3.351562 5.722657-2.816406 9l3.070313 18.96875c.664062 3.9375-.980469 7.90625-4.238282 10.21875-3.257812 2.3125-7.546875 2.558594-11.046875.632813l-14.78125-8.234375c-3.125-1.742188-6.929687-1.742188-10.054687 0l-14.78125 8.234375c-3.5 1.925781-7.792969 1.679687-11.046875-.632813-3.257813-2.3125-4.902344-6.28125-4.238281-10.21875l3.070312-18.96875c.535156-3.277343-.511719-6.613281-2.816406-9l-13.402344-13.828124c-2.722656-2.808594-3.65625-6.898438-2.421875-10.609376 1.234375-3.714843 4.429687-6.433593 8.289063-7.054687l17.613281-2.710937c3.433593-.535157 6.375-2.75 7.839843-5.902344l7.507813-16.113282c1.691406-3.671874 5.363281-6.019531 9.40625-6.023437 4.039063 0 7.714844 2.351563 9.40625 6.019531zm0 0" fill="#02a9f4"/><path d="m333.707031 142.535156 7.507813 16.113282c1.464844 3.152343 4.40625 5.367187 7.839844 5.902343l17.613281 2.710938c3.859375.625 7.054687 3.339843 8.289062 7.054687 1.234375 3.710938.300781 7.800782-2.421875 10.609375l-13.390625 13.832031c-2.304687 2.386719-3.347656 5.722657-2.816406 9l3.074219 18.96875c.664062 3.9375-.984375 7.90625-4.238282 10.21875-3.257812 2.3125-7.550781 2.558594-11.046874.632813l-14.78125-8.234375c-3.128907-1.742188-6.933594-1.742188-10.058594 0l-14.78125 8.234375c-3.496094 1.925781-7.789063 1.679687-11.046875-.632813-3.253907-2.3125-4.902344-6.28125-4.238281-10.21875l3.074218-18.96875c.53125-3.277343-.511718-6.613281-2.816406-9l-13.40625-13.828124c-2.71875-2.808594-3.652344-6.898438-2.421875-10.609376 1.234375-3.714843 4.429687-6.433593 8.292969-7.054687l17.613281-2.710937c3.433594-.535157 6.375-2.75 7.835937-5.902344l7.511719-16.113282c1.691407-3.671874 5.363281-6.019531 9.402344-6.023437 4.042969 0 7.714844 2.351563 9.410156 6.019531zm0 0" fill="#02a9f4"/><path d="m352.382812 412.90625c-3.726562 0-7.023437-2.414062-8.144531-5.96875-1.117187-3.550781.195313-7.417969 3.246094-9.554688 50.660156-36.753906 80.222656-95.894531 79.214844-158.472656 0-103.515625-76.5625-187.730468-170.667969-187.730468s-170.667969 84.214843-170.667969 187.730468c-1.003906 62.578125 28.558594 121.714844 79.214844 158.464844 2.582031 1.710938 4.035156 4.691406 3.792969 7.78125-.242188 3.089844-2.140625 5.804688-4.960938 7.09375-2.816406 1.289062-6.113281.949219-8.609375-.890625-55.226562-39.9375-87.511719-104.300781-86.503906-172.449219 0-112.921875 84.21875-204.796875 187.734375-204.796875s187.734375 91.875 187.734375 204.796875c1.007813 68.152344-31.277344 132.511719-86.503906 172.453125-1.429688 1.003907-3.132813 1.542969-4.878907 1.542969zm0 0"/><path d="m238.964844 511.976562h-102.402344c-14.128906-.015624-25.582031-11.464843-25.597656-25.597656v-25.601562c.042968-37.683594 30.582031-68.222656 68.265625-68.265625h17.066406c37.683594.042969 68.222656 30.582031 68.265625 68.265625v25.601562c-.011719 14.132813-11.464844 25.582032-25.597656 25.597656zm-59.734375-102.398437c-28.261719.03125-51.167969 22.9375-51.199219 51.199219v25.601562c.003906 4.710938 3.820312 8.527344 8.53125 8.53125h102.402344c4.710937-.003906 8.527344-3.820312 8.53125-8.53125v-25.601562c-.03125-28.261719-22.933594-51.167969-51.199219-51.199219zm0 0"/><path d="m256.03125 477.84375h-136.535156c-4.710938 0-8.53125-3.820312-8.53125-8.53125 0-4.714844 3.820312-8.535156 8.53125-8.535156h136.535156c4.710938 0 8.53125 3.820312 8.53125 8.535156 0 4.710938-3.820312 8.53125-8.53125 8.53125zm0 0"/><path d="m375.496094 511.976562h-102.398438c-14.132812-.015624-25.585937-11.464843-25.601562-25.597656v-25.601562c.042968-37.683594 30.582031-68.222656 68.269531-68.265625h17.066406c37.683594.042969 68.222657 30.582031 68.265625 68.265625v25.601562c-.015625 14.132813-11.46875 25.582032-25.601562 25.597656zm-59.730469-102.398437c-28.265625.03125-51.171875 22.9375-51.203125 51.199219v25.601562c.007812 4.710938 3.824219 8.527344 8.535156 8.53125h102.398438c4.710937-.003906 8.53125-3.820312 8.535156-8.53125v-25.601562c-.03125-28.261719-22.9375-51.167969-51.199219-51.199219zm0 0"/><path d="m392.5625 477.84375h-136.53125c-4.714844 0-8.535156-3.820312-8.535156-8.53125 0-4.714844 3.820312-8.535156 8.535156-8.535156h136.53125c4.714844 0 8.535156 3.820312 8.535156 8.535156 0 4.710938-3.820312 8.53125-8.535156 8.53125zm0 0"/><path d="m228.777344 96.050781c-9.644532-3.75-20.175782-4.605469-30.300782-2.460937-4.835937 1.554687-9.347656 3.980468-13.3125 7.152344-2.183593 1.539062-3.984374 3.640624-6.207031 5.359374-1.953125 2.019532-3.78125 4.179688-5.941406 6.199219l-.257813.238281c-.933593.871094-2.347656.976563-3.402343.253907-1.054688-.726563-1.460938-2.085938-.976563-3.269531 1.164063-2.871094 2.609375-5.640626 4.035156-8.472657 1.703126-2.730469 3.617188-5.320312 5.730469-7.75 4.539063-5.070312 10.28125-8.921875 16.695313-11.195312 6.589844-2.296875 13.722656-2.542969 20.460937-.707031 6.476563 1.695312 12.3125 5.253906 16.78125 10.242187.820313.941406.917969 2.3125.238281 3.359375-.675781 1.050781-1.964843 1.527344-3.160156 1.167969zm0 0"/><path d="m279.976562 91.640625c4.46875-4.988281 10.304688-8.546875 16.78125-10.242187 6.738282-1.835938 13.871094-1.585938 20.460938.707031 6.414062 2.277343 12.15625 6.125 16.695312 11.195312 2.113282 2.429688 4.027344 5.019531 5.730469 7.75 1.425781 2.832031 2.871094 5.601563 4.035157 8.472657.480468 1.183593.074218 2.542968-.976563 3.265624-1.050781.726563-2.464844.621094-3.402344-.246093l-.253906-.242188c-2.164063-2.015625-3.992187-4.179687-5.945313-6.199219-2.21875-1.71875-4.023437-3.820312-6.207031-5.355468-3.964843-3.175782-8.472656-5.601563-13.308593-7.152344-10.125-2.148438-20.65625-1.292969-30.304688 2.457031l-.378906.117188c-1.195313.359375-2.484375-.113281-3.164063-1.164063-.679687-1.046875-.582031-2.417968.238281-3.359375zm0 0"/><path d="m445.289062 114.285156c-7.359374-.0625-14.609374-1.75-21.238281-4.949218-13.339843-6.503907-24.023437-17.410157-30.25-30.882813-13.921875-29.207031-5.183593-62.542969 19.484375-74.308594 24.675782-11.765625 56.078125 2.425781 70.003906 31.640625 6.546876 13.289063 8.332032 28.421875 5.0625 42.871094-2.898437 13.664062-11.902343 25.25-24.429687 31.433594-5.816406 2.777344-12.183594 4.210937-18.632813 4.195312zm-13.332031-97.257812c-3.917969-.019532-7.785156.84375-11.324219 2.519531-16.175781 7.714844-21.300781 30.847656-11.421874 51.558594 4.523437 9.910156 12.328124 17.960937 22.09375 22.789062 7.867187 4.09375 17.167968 4.382813 25.273437.792969 7.859375-4.019531 13.453125-11.40625 15.1875-20.058594 2.34375-10.632812.972656-21.746094-3.886719-31.488281-6.121094-14.757813-19.996094-24.84375-35.921875-26.113281zm0 0"/><path d="m469.363281 221.84375h-35.667969c-4.714843 0-8.535156-3.820312-8.535156-8.53125 0-4.714844 3.820313-8.535156 8.535156-8.535156h24.515626l-26.355469-97.265625c-1.234375-4.550781 1.457031-9.238281 6.003906-10.472657 4.550781-1.230468 9.238281 1.457032 10.472656 6.003907l29.269531 108.035156c.695313 2.5625.15625 5.308594-1.457031 7.417969-1.617187 2.109375-4.121093 3.347656-6.78125 3.347656zm0 0"/><path d="m469.363281 255.976562h-34.304687c-4.710938 0-8.53125-3.820312-8.53125-8.53125 0-4.714843 3.820312-8.535156 8.53125-8.535156h34.304687c7.921875.007813 15.398438-3.652344 20.25-9.910156 4.851563-6.257812 6.535157-14.410156 4.558594-22.078125l-30.3125-111.609375c-.855469-2.960938-.046875-6.152344 2.113281-8.351562 2.160156-2.195313 5.339844-3.058594 8.3125-2.253907 2.976563.804688 5.285156 3.152344 6.042969 6.136719l30.378906 111.867188c3.253907 12.902343.355469 26.585937-7.847656 37.058593-8.085937 10.257813-20.433594 16.234375-33.496094 16.207031zm0 0"/><path d="m66.753906 114.285156c-6.445312.015625-12.816406-1.421875-18.636718-4.199218-12.523438-6.183594-21.523438-17.765626-24.425782-31.429688-3.265625-14.449219-1.476562-29.578125 5.066406-42.867188 13.925782-29.210937 45.347657-43.40625 69.996094-31.644531 24.671875 11.765625 33.414063 45.101563 19.488282 74.308594-6.226563 13.472656-16.910157 24.382813-30.25 30.890625-6.628907 3.191406-13.878907 4.878906-21.238282 4.941406zm-30.292968-74.824218 7.703124 3.675781c-4.859374 9.742187-6.230468 20.855469-3.886718 31.488281 1.738281 8.652344 7.332031 16.039062 15.1875 20.058594 8.109375 3.59375 17.410156 3.300781 25.277344-.792969 9.765624-4.824219 17.570312-12.875 22.09375-22.785156 9.878906-20.710938 4.753906-43.84375-11.425782-51.558594-16.160156-7.703125-37.375 2.875-47.246094 23.589844zm0 0"/><path d="m78.351562 221.84375h-35.671874c-2.65625 0-5.164063-1.234375-6.777344-3.347656-1.613282-2.109375-2.15625-4.851563-1.457032-7.417969l29.265626-108.03125c1.234374-4.550781 5.921874-7.238281 10.472656-6.003906 4.550781 1.234375 7.238281 5.921875 6.003906 10.472656l-26.351562 97.261719h24.515624c4.714844 0 8.535157 3.820312 8.535157 8.535156 0 4.710938-3.820313 8.53125-8.535157 8.53125zm0 0"/><path d="m76.984375 255.976562h-34.304687c-13.140626.007813-25.546876-6.042968-33.636719-16.398437-8.089844-10.355469-10.957031-23.859375-7.769531-36.609375l30.445312-112.125c.757812-2.988281 3.066406-5.335938 6.042969-6.140625 2.976562-.800781 6.152343.058594 8.3125 2.257813 2.160156 2.195312 2.96875 5.386718 2.113281 8.347656l-30.382812 111.871094c-1.882813 7.640624-.144532 15.726562 4.710937 21.921874 4.855469 6.195313 12.292969 9.8125 20.164063 9.808594h34.304687c4.714844 0 8.535156 3.820313 8.535156 8.535156 0 4.710938-3.820312 8.53125-8.535156 8.53125zm0 0"/><path d="m298.699219 366.910156h-85.335938c-14.132812-.015625-25.582031-11.464844-25.597656-25.597656v-34.132812c.027344-23.554688 19.113281-42.640626 42.664063-42.667969h51.203124c23.550782.027343 42.636719 19.113281 42.664063 42.667969v34.132812c-.015625 14.132812-11.46875 25.582031-25.597656 25.597656zm-68.269531-85.332031c-14.128907.015625-25.582032 11.46875-25.597657 25.601563v34.132812c.003907 4.710938 3.820313 8.527344 8.53125 8.53125h85.335938c4.710937-.003906 8.527343-3.820312 8.53125-8.53125v-34.132812c-.015625-14.132813-11.46875-25.585938-25.597657-25.601563zm0 0"/><path d="m281.632812 366.910156c-4.714843 0-8.535156-3.820312-8.535156-8.53125v-17.066406c0-9.425781-7.640625-17.066406-17.066406-17.066406s-17.066406 7.640625-17.066406 17.066406v17.066406c0 4.710938-3.820313 8.53125-8.535156 8.53125-4.710938 0-8.53125-3.820312-8.53125-8.53125v-17.066406c0-18.851562 15.28125-34.132812 34.132812-34.132812s34.132812 15.28125 34.132812 34.132812v17.066406c0 4.710938-3.820312 8.53125-8.53125 8.53125zm0 0"/><path d="m162.914062 247.445312c-5.5625-.027343-10.832031-2.488281-14.425781-6.738281-3.589843-4.246093-5.140625-9.855469-4.242187-15.34375l3.070312-18.96875c.105469-.613281-.085937-1.242187-.515625-1.691406l-13.398437-13.839844c-4.945313-5.101562-6.636719-12.53125-4.386719-19.265625 2.25-6.738281 8.0625-11.660156 15.078125-12.769531l17.621094-2.707031c.617187-.105469 1.140625-.507813 1.402344-1.074219l7.503906-16.109375c3.089844-6.683594 9.78125-10.960938 17.144531-10.960938 7.359375 0 14.050781 4.277344 17.140625 10.960938l7.503906 16.109375c.265625.570313.796875.972656 1.421875 1.074219l17.59375 2.707031c7.019531 1.105469 12.835938 6.027344 15.085938 12.765625s.558593 14.167969-4.386719 19.269531l-13.390625 13.828125c-.429687.453125-.625 1.085938-.523437 1.703125l3.070312 18.964844c1.191406 7.167969-1.824219 14.386719-7.761719 18.578125s-13.75 4.613281-20.105469 1.089844l-14.777343-8.226563c-.542969-.316406-1.214844-.316406-1.753907 0l-14.777343 8.234375c-2.808594 1.574219-5.972657 2.402344-9.191407 2.410156zm24.851563-102.398437c-.734375-.027344-1.402344.410156-1.671875 1.089844l-7.507812 16.109375c-2.660157 5.738281-8.015626 9.769531-14.265626 10.742187l-17.628906 2.707031c-.703125.089844-1.285156.589844-1.476562 1.273438-.269532.703125-.09375 1.5.445312 2.027344l13.390625 13.835937c4.171875 4.328125 6.066407 10.363281 5.109375 16.296875l-3.066406 18.96875c-.15625.746094.160156 1.511719.800781 1.933594.550781.429688 1.3125.46875 1.90625.097656l14.78125-8.242187c5.703125-3.199219 12.660157-3.199219 18.363281 0l14.78125 8.234375c.59375.371094 1.355469.335937 1.910157-.089844.636719-.421875.953125-1.1875.796875-1.933594l-3.070313-18.96875c-.953125-5.9375.945313-11.976562 5.121094-16.308594l13.386719-13.824218c.539062-.523438.710937-1.320313.445312-2.023438-.191406-.6875-.78125-1.1875-1.488281-1.273437l-17.601563-2.710938c-6.257812-.964843-11.617187-4.996093-14.28125-10.742187l-7.503906-16.105469h-.003906c-.269531-.683594-.941406-1.121094-1.671875-1.09375zm0 0"/><path d="m299.449219 247.445312c-5.5625-.027343-10.835938-2.488281-14.425781-6.738281-3.59375-4.246093-5.144532-9.855469-4.246094-15.34375l3.074218-18.96875c.101563-.613281-.089843-1.242187-.519531-1.691406l-13.398437-13.839844c-4.941406-5.101562-6.632813-12.53125-4.386719-19.265625 2.25-6.738281 8.0625-11.660156 15.078125-12.769531l17.621094-2.707031c.617187-.105469 1.144531-.507813 1.40625-1.074219l7.503906-16.109375c3.089844-6.683594 9.78125-10.960938 17.140625-10.960938 7.363281 0 14.054687 4.277344 17.144531 10.960938l7.503906 16.109375c.261719.570313.796876.972656 1.417969 1.074219l17.597657 2.707031c7.015624 1.105469 12.832031 6.027344 15.085937 12.765625 2.25 6.738281.558594 14.167969-4.386719 19.269531l-13.390625 13.828125c-.433593.453125-.628906 1.085938-.527343 1.703125l3.074218 18.964844c1.191406 7.167969-1.824218 14.386719-7.761718 18.578125s-13.75 4.613281-20.105469 1.089844l-14.78125-8.226563c-.539063-.316406-1.210938-.316406-1.753907 0l-14.773437 8.234375c-2.808594 1.574219-5.972656 2.402344-9.191406 2.410156zm24.847656-102.398437c-.730469-.027344-1.398437.410156-1.671875 1.089844l-7.507812 16.109375c-2.660157 5.738281-8.011719 9.769531-14.261719 10.742187l-17.628907 2.707031c-.703124.089844-1.289062.589844-1.480468 1.273438-.265625.703125-.089844 1.5.445312 2.027344l13.394532 13.835937c4.171874 4.328125 6.0625 10.363281 5.109374 16.296875l-3.070312 18.96875c-.152344.746094.164062 1.511719.800781 1.933594.554688.429688 1.316407.46875 1.910157.097656l14.777343-8.242187c5.703125-3.199219 12.660157-3.199219 18.363281 0l14.785157 8.234375c.589843.371094 1.351562.335937 1.90625-.089844.636719-.421875.957031-1.1875.800781-1.933594l-3.070312-18.96875c-.953126-5.9375.941406-11.976562 5.117187-16.308594l13.390625-13.824218c.535156-.523438.710938-1.320313.445312-2.023438-.195312-.6875-.78125-1.1875-1.488281-1.273437l-17.605469-2.710938c-6.257812-.964843-11.613281-4.996093-14.277343-10.742187l-7.503907-16.105469h-.003906c-.269531-.683594-.941406-1.121094-1.675781-1.09375zm0 0"/></svg>