<svg height="512pt" viewBox="0 0 512.01509 512" width="512pt" xmlns="http://www.w3.org/2000/svg"><path d="m472.09375 93.078125 30.378906 111.871094c2.582032 10.207031.304688 21.035156-6.167968 29.339843-6.46875 8.304688-16.410157 13.160157-26.941407 13.15625h-34.304687l-1.363282-34.132812h35.667969l-29.269531-108.03125zm0 0" fill="#ff5722"/><path d="m39.953125 93.078125-30.378906 111.871094c-2.582031 10.207031-.304688 21.035156 6.167969 29.339843 6.46875 8.304688 16.410156 13.160157 26.941406 13.15625h34.304687l1.363281-34.132812h-35.667968l29.269531-108.03125zm0 0" fill="#ff5722"/><path d="m435.230469 238.910156c.929687 65.347656-29.976563 127.0625-82.859375 165.460938l-97.277344 72.535156-12.714844-9.640625-82.6875-62.894531c-16.210937-11.367188-30.5-25.253906-42.328125-41.128906l-22.613281-38.65625c-10.308594-23.449219-16.292969-48.574219-17.664062-74.152344-.167969-3.84375-.253907-7.683594-.253907-11.523438-.011719-8.5.503907-16.992187 1.535157-25.429687 10.835937-91.816407 79.617187-163.753907 164.863281-170.238281 4.265625-.425782 8.535156-.597657 12.800781-.597657 98.988281 0 179.199219 87.894531 179.199219 196.265625zm0 0" fill="#fec108"/><path d="m409.632812 238.910156c.929688 65.347656-29.976562 127.0625-82.859374 165.460938l-84.394532 62.894531-82.6875-62.894531c-16.210937-11.367188-30.5-25.253906-42.328125-41.128906l-22.613281-38.65625c-10.308594-23.449219-16.292969-48.574219-17.664062-74.152344-.167969-3.84375-.253907-7.683594-.253907-11.523438-.011719-8.5.503907-16.992187 1.535157-25.429687 10.835937-91.816407 79.617187-163.753907 164.863281-170.238281 93.015625 7.082031 166.402343 91.988281 166.402343 195.667968zm0 0" fill="#ffdc00"/><path d="m256.03125 460.777344v25.601562c-.027344 9.414063-7.652344 17.039063-17.066406 17.066406h-102.402344c-9.414062-.027343-17.039062-7.652343-17.066406-17.066406v-25.601562c-.066406-31.34375 24.195312-57.359375 55.46875-59.476563 1.414062-.171875 2.839844-.253906 4.265625-.253906h17.066406c15.847656-.011719 31.046875 6.277344 42.25 17.480469 11.207031 11.203125 17.496094 26.40625 17.484375 42.25zm0 0" fill="#283593"/><path d="m230.429688 460.777344v25.601562c-.027344 9.414063-7.652344 17.039063-17.066407 17.066406h-76.800781c-9.414062-.027343-17.039062-7.652343-17.066406-17.066406v-25.601562c-.066406-31.34375 24.195312-57.359375 55.46875-59.476563 31.269531 2.117188 55.535156 28.132813 55.464844 59.476563zm0 0" fill="#3f51b5"/><path d="m392.5625 460.777344v25.601562c-.027344 9.414063-7.652344 17.039063-17.066406 17.066406h-102.398438c-9.414062-.027343-17.039062-7.652343-17.066406-17.066406v-25.601562c-.070312-31.34375 24.195312-57.359375 55.464844-59.476563 1.417968-.171875 2.84375-.253906 4.269531-.253906h17.066406c15.84375-.011719 31.046875 6.277344 42.25 17.480469s17.492188 26.40625 17.480469 42.25zm0 0" fill="#283593"/><path d="m366.964844 460.777344v25.601562c-.027344 9.414063-7.652344 17.039063-17.066406 17.066406h-76.800782c-9.414062-.027343-17.039062-7.652343-17.066406-17.066406v-25.601562c-.070312-31.34375 24.195312-57.359375 55.464844-59.476563 31.273437 2.117188 55.535156 28.132813 55.46875 59.476563zm0 0" fill="#3f51b5"/><path d="m460.234375 102.378906c-8.882813 4.046875-19.007813 4.414063-28.160156 1.023438-13.574219-5.097656-24.5625-15.382813-30.550781-28.585938-11.945313-25.003906-5.035157-53.25 15.445312-62.976562.769531-.339844 1.621094-.683594 2.476562-1.023438 20.050782-7.679687 44.628907 4.605469 56.148438 28.671875 11.945312 25.003907 5.121094 53.160157-15.359375 62.890625zm0 0" fill="#f57c00"/><path d="m434.632812 102.378906c-.820312.414063-1.679687.757813-2.558593 1.023438-13.574219-5.097656-24.5625-15.382813-30.550781-28.585938-11.945313-25.003906-5.035157-53.25 15.445312-62.976562.769531-.339844 1.621094-.683594 2.476562-1.023438 13.542969 5.1875 24.515626 15.480469 30.546876 28.671875 11.949218 25.003907 5.121093 53.160157-15.359376 62.890625zm0 0" fill="#ff9801"/><path d="m36.460938 39.457031c-11.917969 25.003907-5.125 53.179688 15.332031 62.929688 20.457031 9.753906 46.828125-2.609375 58.75-27.609375 11.917969-25.003906 4.996093-53.175782-15.457031-62.929688-20.457032-9.753906-46.703126 2.609375-58.625 27.609375zm0 0" fill="#ff9801"/><path d="m230.429688 255.976562h51.203124c18.847657 0 34.132813 15.285157 34.132813 34.136719v51.199219c0 9.425781-7.640625 17.066406-17.066406 17.066406h-85.335938c-9.425781 0-17.066406-7.640625-17.066406-17.066406v-51.199219c0-18.851562 15.28125-34.136719 34.132813-34.136719zm0 0" fill="#bb193b"/><path d="m281.632812 341.3125v17.066406h-51.203124v-17.066406c0-14.140625 11.460937-25.601562 25.601562-25.601562 14.136719 0 25.601562 11.460937 25.601562 25.601562zm0 0" fill="#ad1457"/><path d="m281.632812 341.3125h-51.203124c0-14.140625 11.460937-25.601562 25.601562-25.601562 14.136719 0 25.601562 11.460937 25.601562 25.601562zm0 0" fill="#e91e63"/><path d="m352.382812 412.90625c-3.726562 0-7.023437-2.414062-8.144531-5.96875-1.117187-3.550781.195313-7.417969 3.246094-9.554688 50.660156-36.753906 80.222656-95.894531 79.214844-158.472656 0-103.515625-76.5625-187.730468-170.667969-187.730468s-170.667969 84.214843-170.667969 187.730468c-1.003906 62.578125 28.558594 121.714844 79.214844 158.464844 2.582031 1.710938 4.035156 4.691406 3.792969 7.78125-.242188 3.089844-2.140625 5.804688-4.960938 7.09375-2.816406 1.289062-6.113281.949219-8.609375-.890625-55.226562-39.9375-87.511719-104.300781-86.503906-172.449219 0-112.921875 84.21875-204.796875 187.734375-204.796875s187.734375 91.875 187.734375 204.796875c1.007813 68.152344-31.277344 132.511719-86.503906 172.453125-1.429688 1.003907-3.132813 1.542969-4.878907 1.542969zm0 0"/><path d="m238.964844 511.976562h-102.402344c-14.128906-.015624-25.582031-11.464843-25.597656-25.597656v-25.601562c.042968-37.683594 30.582031-68.222656 68.265625-68.265625h17.066406c37.683594.042969 68.222656 30.582031 68.265625 68.265625v25.601562c-.011719 14.132813-11.464844 25.582032-25.597656 25.597656zm-59.734375-102.398437c-28.261719.03125-51.167969 22.9375-51.199219 51.199219v25.601562c.003906 4.710938 3.820312 8.527344 8.53125 8.53125h102.402344c4.710937-.003906 8.527344-3.820312 8.53125-8.53125v-25.601562c-.03125-28.261719-22.933594-51.167969-51.199219-51.199219zm0 0"/><path d="m256.03125 477.84375h-136.535156c-4.710938 0-8.53125-3.820312-8.53125-8.53125 0-4.714844 3.820312-8.535156 8.53125-8.535156h136.535156c4.710938 0 8.53125 3.820312 8.53125 8.535156 0 4.710938-3.820312 8.53125-8.53125 8.53125zm0 0"/><path d="m375.496094 511.976562h-102.398438c-14.132812-.015624-25.585937-11.464843-25.601562-25.597656v-25.601562c.042968-37.683594 30.582031-68.222656 68.269531-68.265625h17.066406c37.683594.042969 68.222657 30.582031 68.265625 68.265625v25.601562c-.015625 14.132813-11.46875 25.582032-25.601562 25.597656zm-59.730469-102.398437c-28.265625.03125-51.171875 22.9375-51.203125 51.199219v25.601562c.007812 4.710938 3.824219 8.527344 8.535156 8.53125h102.398438c4.710937-.003906 8.53125-3.820312 8.535156-8.53125v-25.601562c-.03125-28.261719-22.9375-51.167969-51.199219-51.199219zm0 0"/><path d="m392.5625 477.84375h-136.53125c-4.714844 0-8.535156-3.820312-8.535156-8.53125 0-4.714844 3.820312-8.535156 8.535156-8.535156h136.53125c4.714844 0 8.535156 3.820312 8.535156 8.535156 0 4.710938-3.820312 8.53125-8.535156 8.53125zm0 0"/><path d="m445.289062 114.285156c-7.359374-.0625-14.609374-1.75-21.238281-4.949218-13.339843-6.503907-24.023437-17.410157-30.25-30.882813-13.921875-29.207031-5.183593-62.542969 19.484375-74.308594 24.667969-11.765625 56.078125 2.425781 70.003906 31.640625 6.546876 13.289063 8.332032 28.421875 5.0625 42.871094-2.898437 13.664062-11.902343 25.25-24.429687 31.433594-5.816406 2.777344-12.183594 4.210937-18.632813 4.195312zm-13.332031-97.257812c-3.917969-.019532-7.785156.84375-11.324219 2.519531-16.175781 7.714844-21.300781 30.847656-11.421874 51.558594 4.523437 9.910156 12.328124 17.960937 22.09375 22.789062 7.867187 4.09375 17.167968 4.382813 25.273437.792969 7.859375-4.019531 13.453125-11.40625 15.1875-20.058594 2.34375-10.632812.972656-21.746094-3.886719-31.488281-6.121094-14.757813-19.996094-24.84375-35.921875-26.113281zm0 0"/><path d="m469.363281 221.84375h-35.667969c-4.714843 0-8.535156-3.820312-8.535156-8.53125 0-4.714844 3.820313-8.535156 8.535156-8.535156h24.515626l-26.355469-97.265625c-1.234375-4.550781 1.457031-9.238281 6.003906-10.472657 4.550781-1.230468 9.238281 1.457032 10.472656 6.003907l29.269531 108.035156c.695313 2.5625.15625 5.308594-1.457031 7.417969-1.617187 2.109375-4.121093 3.347656-6.78125 3.347656zm0 0"/><path d="m469.363281 255.976562h-34.304687c-4.710938 0-8.53125-3.820312-8.53125-8.53125 0-4.714843 3.820312-8.535156 8.53125-8.535156h34.304687c7.921875.007813 15.398438-3.652344 20.25-9.910156 4.851563-6.257812 6.535157-14.410156 4.558594-22.078125l-30.3125-111.609375c-.855469-2.960938-.046875-6.152344 2.113281-8.351562 2.160156-2.195313 5.339844-3.058594 8.3125-2.253907 2.976563.804688 5.285156 3.152344 6.042969 6.136719l30.378906 111.867188c3.253907 12.902343.355469 26.585937-7.847656 37.058593-8.085937 10.257813-20.433594 16.234375-33.496094 16.207031zm0 0"/><path d="m66.753906 114.285156c-6.445312.015625-12.816406-1.421875-18.636718-4.199218-12.523438-6.183594-21.523438-17.765626-24.425782-31.429688-3.265625-14.449219-1.476562-29.578125 5.066406-42.867188 13.925782-29.210937 45.355469-43.40625 69.996094-31.644531 24.671875 11.765625 33.414063 45.101563 19.488282 74.308594-6.226563 13.472656-16.910157 24.382813-30.25 30.890625-6.628907 3.191406-13.878907 4.878906-21.238282 4.941406zm-30.292968-74.824218 7.703124 3.675781c-4.859374 9.742187-6.230468 20.855469-3.886718 31.488281 1.738281 8.652344 7.332031 16.039062 15.1875 20.058594 8.109375 3.59375 17.410156 3.300781 25.277344-.792969 9.765624-4.824219 17.570312-12.875 22.09375-22.785156 9.878906-20.710938 4.753906-43.84375-11.425782-51.558594-16.167968-7.703125-37.371094 2.875-47.246094 23.589844zm0 0"/><path d="m78.351562 221.84375h-35.671874c-2.65625 0-5.164063-1.234375-6.777344-3.347656-1.613282-2.109375-2.15625-4.851563-1.457032-7.417969l29.265626-108.03125c1.234374-4.550781 5.921874-7.238281 10.472656-6.003906 4.550781 1.234375 7.238281 5.921875 6.003906 10.472656l-26.351562 97.261719h24.515624c4.714844 0 8.535157 3.820312 8.535157 8.535156 0 4.710938-3.820313 8.53125-8.535157 8.53125zm0 0"/><path d="m76.984375 255.976562h-34.304687c-13.140626.007813-25.546876-6.042968-33.636719-16.398437-8.089844-10.355469-10.957031-23.859375-7.769531-36.609375l30.445312-112.125c.757812-2.988281 3.066406-5.335938 6.042969-6.140625 2.976562-.800781 6.152343.058594 8.3125 2.257813 2.160156 2.195312 2.96875 5.386718 2.113281 8.347656l-30.382812 111.871094c-1.882813 7.640624-.144532 15.726562 4.710937 21.921874 4.855469 6.195313 12.292969 9.8125 20.164063 9.808594h34.304687c4.714844 0 8.535156 3.820313 8.535156 8.535156 0 4.710938-3.820312 8.53125-8.535156 8.53125zm0 0"/><path d="m298.699219 366.910156h-85.335938c-14.132812-.015625-25.582031-11.464844-25.597656-25.597656v-51.199219c.027344-23.554687 19.113281-42.640625 42.664063-42.667969h51.203124c23.550782.027344 42.636719 19.113282 42.664063 42.667969v51.199219c-.015625 14.132812-11.46875 25.582031-25.597656 25.597656zm-68.269531-102.398437c-14.128907.015625-25.582032 11.46875-25.597657 25.601562v51.199219c.003907 4.710938 3.820313 8.527344 8.53125 8.53125h85.335938c4.710937-.003906 8.527343-3.820312 8.53125-8.53125v-51.199219c-.015625-14.132812-11.46875-25.585937-25.597657-25.601562zm0 0"/><path d="m281.632812 366.910156c-4.714843 0-8.535156-3.820312-8.535156-8.53125v-17.066406c0-9.425781-7.640625-17.066406-17.066406-17.066406s-17.066406 7.640625-17.066406 17.066406v17.066406c0 4.710938-3.820313 8.53125-8.535156 8.53125-4.710938 0-8.53125-3.820312-8.53125-8.53125v-17.066406c0-18.851562 15.28125-34.132812 34.132812-34.132812s34.132812 15.28125 34.132812 34.132812v17.066406c0 4.710938-3.820312 8.53125-8.53125 8.53125zm0 0"/><path d="m194.398438 210.710938c-15.296876.636718-29.953126-6.167969-39.332032-18.265626-2.640625-3.90625-1.609375-9.210937 2.296875-11.847656 3.90625-2.636718 9.210938-1.609375 11.847657 2.296875.710937 1 14.523437 19.417969 49.515624 5.425781 2.832032-1.132812 6.050782-.667968 8.449219 1.214844 2.394531 1.886719 3.605469 4.90625 3.171875 7.925782-.4375 3.019531-2.449218 5.574218-5.277344 6.707031-9.714843 4.117187-20.125 6.339843-30.671874 6.542969zm0 0"/><path d="m317.664062 210.710938c-10.546874-.199219-20.957031-2.421876-30.671874-6.542969-2.832032-1.132813-4.84375-3.6875-5.277344-6.707031-.433594-3.019532.773437-6.039063 3.171875-7.925782 2.398437-1.882812 5.617187-2.347656 8.449219-1.214844 35.824218 14.335938 49.332031-5.148437 49.460937-5.34375 1.679687-2.566406 4.605469-4.035156 7.667969-3.847656s5.785156 2.003906 7.136718 4.757813c1.351563 2.753906 1.121094 6.023437-.605468 8.558593-9.378906 12.09375-24.035156 18.902344-39.332032 18.265626zm0 0"/><path d="m172.6875 117.078125c4.648438 3.835937 9.667969 7.195313 14.984375 10.027344 4.996094 2.597656 10.21875 4.730469 15.605469 6.375 5.460937 1.28125 10.898437 2.488281 16.699218 3.472656 2.875.707031 5.871094.855469 8.917969 1.65625 3.242188.417969 6.445313 1.113281 9.570313 2.066406l.3125.105469c1.207031.398438 2.074218 1.464844 2.21875 2.730469.148437 1.261719-.453125 2.496093-1.535156 3.164062-6.140626 3.636719-13.0625 5.753907-20.183594 6.179688-14.832032.867187-29.332032-4.59375-39.902344-15.03125-5.292969-5.089844-9-11.601563-10.671875-18.753907-.199219-.945312.21875-1.910156 1.042969-2.414062.824218-.507812 1.875-.4375 2.625.167969zm0 0"/><path d="m343.355469 119.070312c-1.671875 7.152344-5.378907 13.664063-10.671875 18.753907-10.570313 10.4375-25.070313 15.898437-39.898438 15.03125-7.125-.425781-14.046875-2.542969-20.1875-6.179688-1.082031-.667969-1.679687-1.902343-1.535156-3.164062.148438-1.265625 1.011719-2.328125 2.21875-2.730469l.316406-.105469c3.125-.953125 6.328125-1.648437 9.570313-2.066406 3.046875-.804687 6.042969-.949219 8.917969-1.65625 5.804687-.984375 11.242187-2.1875 16.699218-3.472656 5.386719-1.644531 10.609375-3.777344 15.605469-6.375 5.316406-2.832031 10.335937-6.191407 14.984375-10.027344l.308594-.246094c.75-.605469 1.800781-.675781 2.625-.171875.820312.5 1.238281 1.46875 1.042968 2.410156zm0 0"/></svg>