<svg height="512pt" viewBox="0 0 512.01942 512" width="512pt" xmlns="http://www.w3.org/2000/svg"><path d="m39.953125 93.128906-30.378906 111.871094c-2.582031 10.207031-.304688 21.035156 6.167969 29.339844 6.46875 8.304687 16.410156 13.160156 26.941406 13.15625h34.304687l1.363281-34.132813h-35.667968l29.269531-108.03125zm0 0" fill="#ff5722"/><path d="m472.09375 93.128906 30.378906 111.871094c2.582032 10.207031.304688 21.035156-6.167968 29.339844-6.46875 8.304687-16.410157 13.160156-26.941407 13.15625h-34.304687l-1.363282-34.132813h35.667969l-29.269531-108.03125zm0 0" fill="#ff5722"/><path d="m435.230469 238.960938c.929687 65.347656-29.976563 127.0625-82.859375 165.460937l-97.277344 72.535156-12.714844-9.644531-82.6875-62.890625c-16.210937-11.367187-30.5-25.253906-42.328125-41.128906l-22.613281-38.65625c-10.308594-23.449219-16.292969-48.574219-17.664062-74.15625-.167969-3.839844-.253907-7.679688-.253907-11.519531-.011719-8.5.503907-16.992188 1.535157-25.429688 10.835937-91.816406 79.617187-163.753906 164.863281-170.238281 4.265625-.425781 8.535156-.597657 12.800781-.597657 98.988281 0 179.199219 87.894532 179.199219 196.265626zm0 0" fill="#fec108"/><path d="m409.632812 238.960938c.929688 65.347656-29.976562 127.0625-82.859374 165.460937l-84.394532 62.890625-82.6875-62.890625c-16.210937-11.367187-30.5-25.253906-42.328125-41.128906l-22.613281-38.65625c-10.308594-23.449219-16.292969-48.574219-17.664062-74.15625-.167969-3.839844-.253907-7.679688-.253907-11.519531-.011719-8.5.503907-16.992188 1.535157-25.429688 10.835937-91.816406 79.617187-163.753906 164.863281-170.238281 93.015625 7.082031 166.402343 91.988281 166.402343 195.667969zm0 0" fill="#ffdc00"/><path d="m256.03125 460.828125v25.601563c-.027344 9.414062-7.652344 17.039062-17.066406 17.066406h-102.402344c-9.414062-.027344-17.039062-7.652344-17.066406-17.066406v-25.601563c-.066406-31.34375 24.195312-57.359375 55.46875-59.476563 1.414062-.171874 2.839844-.257812 4.265625-.257812h17.066406c15.847656-.011719 31.046875 6.28125 42.25 17.484375 11.207031 11.203125 17.496094 26.40625 17.484375 42.25zm0 0" fill="#283593"/><path d="m230.429688 460.828125v25.601563c-.027344 9.414062-7.652344 17.039062-17.066407 17.066406h-76.800781c-9.414062-.027344-17.039062-7.652344-17.066406-17.066406v-25.601563c-.066406-31.34375 24.195312-57.359375 55.46875-59.476563 31.269531 2.117188 55.535156 28.132813 55.464844 59.476563zm0 0" fill="#3f51b5"/><path d="m392.5625 460.828125v25.601563c-.027344 9.414062-7.652344 17.039062-17.066406 17.066406h-102.398438c-9.414062-.027344-17.039062-7.652344-17.066406-17.066406v-25.601563c-.070312-31.34375 24.195312-57.359375 55.464844-59.476563 1.417968-.171874 2.84375-.257812 4.269531-.257812h17.066406c15.84375-.011719 31.046875 6.28125 42.25 17.484375s17.492188 26.40625 17.480469 42.25zm0 0" fill="#283593"/><path d="m366.964844 460.828125v25.601563c-.027344 9.414062-7.652344 17.039062-17.066406 17.066406h-76.800782c-9.414062-.027344-17.039062-7.652344-17.066406-17.066406v-25.601563c-.070312-31.34375 24.195312-57.359375 55.464844-59.476563 31.273437 2.117188 55.535156 28.132813 55.46875 59.476563zm0 0" fill="#3f51b5"/><path d="m460.234375 102.429688c-8.882813 4.046874-19.007813 4.414062-28.160156 1.023437-13.574219-5.097656-24.5625-15.382813-30.550781-28.585937-11.945313-25.003907-5.035157-53.25 15.445312-62.976563.769531-.34375 1.621094-.683594 2.476562-1.023437 20.050782-7.679688 44.628907 4.605468 56.148438 28.671874 11.945312 25 5.121094 53.160157-15.359375 62.890626zm0 0" fill="#f57c00"/><path d="m434.632812 102.429688c-.820312.414062-1.679687.757812-2.558593 1.023437-13.574219-5.097656-24.5625-15.382813-30.550781-28.585937-11.945313-25.003907-5.035157-53.25 15.445312-62.976563.769531-.34375 1.621094-.683594 2.476562-1.023437 13.542969 5.1875 24.515626 15.480468 30.546876 28.671874 11.949218 25 5.121093 53.160157-15.359376 62.890626zm0 0" fill="#ff9801"/><path d="m36.460938 39.507812c-11.917969 25.003907-5.125 53.179688 15.332031 62.929688 20.457031 9.753906 46.828125-2.609375 58.75-27.609375 11.917969-25.003906 4.996093-53.175781-15.457031-62.929687-20.457032-9.753907-46.703126 2.609374-58.625 27.609374zm0 0" fill="#ff9801"/><path d="m188.789062 204.828125c-.703124-4.230469-1.042968-8.511719-1.023437-12.800781 0-21.246094 7.679687-38.398438 17.066406-38.398438s17.066407 17.152344 17.066407 38.398438c.019531 4.289062-.324219 8.570312-1.023438 12.800781zm0 0" fill="#3f51b5"/><path d="m291.1875 204.828125c-.699219-4.230469-1.042969-8.511719-1.023438-12.800781 0-21.246094 7.679688-38.398438 17.066407-38.398438s17.066406 17.152344 17.066406 38.398438c.019531 4.289062-.324219 8.570312-1.023437 12.800781zm0 0" fill="#3f51b5"/><path d="m213.363281 170.695312c0-9.425781-3.820312-17.066406-8.53125-17.066406-4.714843 0-8.535156 7.640625-8.535156 17.066406 0 9.425782 3.820313 17.066407 8.535156 17.066407 4.710938 0 8.53125-7.640625 8.53125-17.066407zm0 0" fill="#f5f5f5"/><path d="m315.765625 170.695312c0-9.425781-3.820313-17.066406-8.535156-17.066406-4.710938 0-8.53125 7.640625-8.53125 17.066406 0 9.425782 3.820312 17.066407 8.53125 17.066407 4.714843 0 8.535156-7.640625 8.535156-17.066407zm0 0" fill="#f5f5f5"/><path d="m279.289062 133.878906c2.917969-6.027344 7.542969-11.058594 13.300782-14.476562 5.96875-3.625 12.890625-5.355469 19.863281-4.96875 6.792969.414062 13.371094 2.53125 19.132813 6.152344 2.703124 1.746093 5.257812 3.707031 7.648437 5.863281 2.152344 2.328125 4.304687 4.589843 6.21875 7.027343.789063 1.003907.773437 2.421876-.035156 3.410157-.8125.988281-2.199219 1.28125-3.339844.699219l-.3125-.15625c-2.632813-1.34375-4.988281-2.917969-7.421875-4.320313-2.609375-1.039063-4.921875-2.5625-7.445312-3.4375-4.6875-1.957031-9.691407-3.039063-14.769532-3.195313-10.324218.730469-20.207031 4.460938-28.441406 10.726563l-.335938.21875c-1.050781.675781-2.421874.578125-3.363281-.242187-.941406-.820313-1.226562-2.167969-.699219-3.300782zm0 0"/><path d="m228.382812 137.183594c-8.238281-6.261719-18.128906-9.984375-28.453124-10.707032-5.074219.160157-10.082032 1.25-14.765626 3.207032-2.519531.878906-4.832031 2.402344-7.441406 3.441406-2.433594 1.40625-4.785156 2.980469-7.425781 4.328125l-.304687.15625c-1.140626.582031-2.53125.292969-3.34375-.695313-.8125-.988281-.828126-2.40625-.039063-3.410156 1.914063-2.441406 4.0625-4.703125 6.214844-7.035156 2.386719-2.15625 4.941406-4.117188 7.640625-5.867188 5.761718-3.628906 12.339844-5.746093 19.132812-6.167968 6.96875-.390625 13.894532 1.335937 19.863282 4.957031 5.761718 3.410156 10.390624 8.441406 13.3125 14.464844.53125 1.132812.246093 2.476562-.695313 3.300781-.9375.820312-2.308594.921875-3.359375.246094zm0 0"/><path d="m352.382812 412.957031c-3.726562 0-7.019531-2.417969-8.140624-5.96875-1.117188-3.554687.195312-7.421875 3.246093-9.554687 50.660157-36.753906 80.21875-95.894532 79.210938-158.472656 0-103.515626-76.558594-187.730469-170.667969-187.730469s-170.667969 84.214843-170.667969 187.730469c-1.007812 62.578124 28.554688 121.714843 79.210938 158.464843 2.496093 1.746094 3.875 4.691407 3.613281 7.726563s-2.125 5.699218-4.882812 6.992187c-2.761719 1.289063-6 1.011719-8.5-.734375-55.226563-39.9375-87.515626-104.296875-86.507813-172.449218 0-112.921876 84.21875-204.796876 187.734375-204.796876s187.734375 91.875 187.734375 204.796876c1.007813 68.152343-31.277344 132.511718-86.507813 172.453124-1.429687 1.003907-3.132812 1.542969-4.875 1.542969zm0 0"/><path d="m238.964844 512.027344h-102.402344c-14.128906-.015625-25.582031-11.464844-25.597656-25.597656v-25.601563c.042968-37.683594 30.582031-68.222656 68.265625-68.265625h17.066406c37.683594.042969 68.222656 30.582031 68.265625 68.265625v25.601563c-.011719 14.132812-11.464844 25.582031-25.597656 25.597656zm-59.734375-102.398438c-28.261719.03125-51.167969 22.9375-51.199219 51.199219v25.601563c.003906 4.710937 3.820312 8.53125 8.53125 8.53125h102.402344c4.710937 0 8.53125-3.820313 8.53125-8.53125v-25.601563c-.03125-28.261719-22.933594-51.167969-51.199219-51.199219zm0 0"/><path d="m256.03125 477.894531h-136.535156c-4.710938 0-8.53125-3.820312-8.53125-8.53125 0-4.714843 3.820312-8.535156 8.53125-8.535156h136.535156c4.710938 0 8.53125 3.820313 8.53125 8.535156 0 4.710938-3.820312 8.53125-8.53125 8.53125zm0 0"/><path d="m375.496094 512.027344h-102.398438c-14.132812-.015625-25.585937-11.464844-25.601562-25.597656v-25.601563c.042968-37.683594 30.582031-68.222656 68.269531-68.265625h17.066406c37.683594.042969 68.222657 30.582031 68.265625 68.265625v25.601563c-.015625 14.132812-11.46875 25.582031-25.601562 25.597656zm-59.730469-102.398438c-28.265625.03125-51.171875 22.9375-51.203125 51.199219v25.601563c.003906 4.710937 3.824219 8.53125 8.535156 8.53125h102.398438c4.714844 0 8.53125-3.820313 8.535156-8.53125v-25.601563c-.03125-28.261719-22.9375-51.167969-51.199219-51.199219zm0 0"/><path d="m392.5625 477.894531h-136.53125c-4.714844 0-8.535156-3.820312-8.535156-8.53125 0-4.714843 3.820312-8.535156 8.535156-8.535156h136.53125c4.714844 0 8.535156 3.820313 8.535156 8.535156 0 4.710938-3.820312 8.53125-8.535156 8.53125zm0 0"/><path d="m445.289062 114.335938c-7.359374-.0625-14.609374-1.75-21.242187-4.941407-13.335937-6.507812-24.015625-17.417969-30.242187-30.890625-13.921876-29.207031-5.183594-62.539062 19.484374-74.308594 12.691407-5.832031 27.351563-5.554687 39.816407.75 13.308593 6.523438 23.964843 17.433594 30.175781 30.890626 6.550781 13.289062 8.339844 28.421874 5.066406 42.871093-2.898437 13.664063-11.894531 25.246094-24.417968 31.433594-5.820313 2.777344-12.191407 4.210937-18.640626 4.195313zm-13.386718-97.242188c-3.894532-.015625-7.742188.835938-11.261719 2.503906-16.175781 7.714844-21.308594 30.847656-11.4375 51.554688 4.527344 9.914062 12.332031 17.964844 22.101563 22.792968 7.867187 4.089844 17.167968 4.378907 25.277343.792969 7.855469-4.019531 13.449219-11.40625 15.183594-20.058593 2.34375-10.632813.972656-21.746094-3.882813-31.488282v-.007812c-4.519531-9.902344-12.300781-17.945313-22.042968-22.792969-4.347656-2.113281-9.105469-3.238281-13.9375-3.296875zm0 0"/><path d="m469.363281 221.894531h-35.667969c-4.714843 0-8.535156-3.820312-8.535156-8.53125 0-4.714843 3.820313-8.535156 8.535156-8.535156h24.515626l-26.347657-97.265625c-1.144531-4.515625 1.542969-9.117188 6.039063-10.335938s9.140625 1.390626 10.429687 5.867188l29.269531 108.035156c.699219 2.5625.160157 5.308594-1.457031 7.417969-1.613281 2.113281-4.121093 3.351563-6.78125 3.347656zm0 0"/><path d="m469.363281 256.027344h-34.304687c-4.710938 0-8.53125-3.820313-8.53125-8.53125 0-4.714844 3.820312-8.535156 8.53125-8.535156h34.304687c7.917969.003906 15.394531-3.65625 20.246094-9.914063s6.535156-14.40625 4.5625-22.078125l-30.308594-111.605469c-.851562-2.960937-.046875-6.152343 2.113281-8.351562 2.164063-2.195313 5.339844-3.058594 8.3125-2.253907 2.976563.804688 5.285157 3.152344 6.042969 6.136719l30.378907 111.867188c3.257812 12.90625.355468 26.59375-7.855469 37.066406-8.085938 10.257813-20.433594 16.230469-33.492188 16.199219zm0 0"/><path d="m66.753906 114.335938c-6.449218.015624-12.820312-1.421876-18.640625-4.199219-12.519531-6.1875-21.519531-17.769531-24.414062-31.429688-3.273438-14.449219-1.484375-29.582031 5.066406-42.867187 6.207031-13.460938 16.863281-24.371094 30.171875-30.894532 12.464844-6.308593 27.125-6.582031 39.816406-.75 12.527344 6.191407 21.542969 17.757813 24.484375 31.417969 3.320313 14.445313 1.550781 29.59375-5 42.890625-6.222656 13.472656-16.90625 24.382813-30.242187 30.890625-6.628906 3.191407-13.882813 4.878907-21.242188 4.941407zm13.386719-97.242188c-4.832031.0625-9.589844 1.183594-13.933594 3.292969-9.742187 4.847656-17.523437 12.890625-22.042969 22.792969v.007812c-4.855468 9.742188-6.226562 20.855469-3.882812 31.488281 1.734375 8.652344 7.324219 16.039063 15.183594 20.058594 8.105468 3.589844 17.40625 3.300781 25.273437-.792969 9.769531-4.828125 17.578125-12.875 22.101563-22.789062 4.855468-9.742188 6.203125-20.855469 3.824218-31.476563-1.765624-8.664062-7.382812-16.054687-15.257812-20.078125-3.523438-1.664062-7.371094-2.519531-11.265625-2.503906zm0 0"/><path d="m78.347656 221.894531h-35.667968c-2.65625 0-5.160157-1.238281-6.773438-3.347656-1.613281-2.113281-2.152344-4.855469-1.457031-7.417969l29.269531-108.03125c1.289062-4.476562 5.933594-7.089844 10.429688-5.871094 4.496093 1.222657 7.183593 5.820313 6.039062 10.335938l-26.355469 97.265625h24.515625c4.710938 0 8.53125 3.820313 8.53125 8.535156 0 4.710938-3.820312 8.53125-8.53125 8.53125zm0 0"/><path d="m76.988281 256.027344h-34.308593c-13.140626.003906-25.546876-6.042969-33.636719-16.398438-8.089844-10.355468-10.957031-23.859375-7.769531-36.609375l30.441406-112.125c.757812-2.988281 3.066406-5.335937 6.042968-6.140625 2.972657-.804687 6.152344.058594 8.3125 2.257813 2.160157 2.195312 2.96875 5.386719 2.113282 8.347656l-30.378906 111.867187c-1.882813 7.644532-.144532 15.730469 4.710937 21.925782 4.855469 6.195312 12.292969 9.8125 20.164063 9.808594h34.308593c4.714844 0 8.535157 3.820312 8.535157 8.535156 0 4.710937-3.820313 8.53125-8.535157 8.53125zm0 0"/><path d="m220.882812 213.363281c-2.515624-.003906-4.898437-1.113281-6.519531-3.035156-1.621093-1.917969-2.316406-4.453125-1.898437-6.933594.617187-3.757812.917968-7.558593.898437-11.367187 0-18.714844-6.3125-29.097656-8.722656-29.890625-2.027344.792969-8.34375 11.175781-8.34375 29.890625-.019531 3.808594.28125 7.609375.902344 11.367187.609375 3.046875-.484375 6.1875-2.855469 8.195313-2.371094 2.007812-5.648438 2.566406-8.554688 1.457031-2.902343-1.105469-4.976562-3.707031-5.40625-6.785156-.785156-4.703125-1.171874-9.464844-1.152343-14.234375 0-23.324219 8.789062-46.933594 25.601562-46.933594 16.808594 0 25.597657 23.609375 25.597657 46.933594.019531 4.769531-.363282 9.53125-1.148438 14.234375-.699219 4.097656-4.246094 7.09375-8.398438 7.101562zm0 0"/><path d="m323.28125 213.363281c-2.511719-.003906-4.898438-1.113281-6.519531-3.035156-1.621094-1.917969-2.316407-4.453125-1.898438-6.933594.617188-3.757812.921875-7.558593.902344-11.367187 0-18.714844-6.316406-29.097656-8.726563-29.890625-2.027343.792969-8.339843 11.175781-8.339843 29.890625-.019531 3.808594.28125 7.609375.898437 11.367187.613282 3.046875-.480468 6.1875-2.855468 8.195313-2.371094 2.007812-5.648438 2.566406-8.550782 1.457031-2.90625-1.105469-4.976562-3.707031-5.410156-6.785156-.785156-4.703125-1.167969-9.464844-1.148438-14.234375 0-23.324219 8.789063-46.933594 25.597657-46.933594 16.8125 0 25.601562 23.609375 25.601562 46.933594.019531 4.769531-.367187 9.53125-1.152343 14.234375-.695313 4.097656-4.242188 7.09375-8.398438 7.101562zm0 0"/><path d="m238.964844 213.363281h-68.265625c-4.714844 0-8.535157-3.820312-8.535157-8.535156 0-4.710937 3.820313-8.53125 8.535157-8.53125h68.265625c4.710937 0 8.53125 3.820313 8.53125 8.53125 0 4.714844-3.820313 8.535156-8.53125 8.535156zm0 0"/><path d="m341.363281 213.363281h-68.265625c-4.710937 0-8.535156-3.820312-8.535156-8.535156 0-4.710937 3.824219-8.53125 8.535156-8.53125h68.265625c4.714844 0 8.535157 3.820313 8.535157 8.53125 0 4.714844-3.820313 8.535156-8.535157 8.535156zm0 0"/><path d="m307.230469 307.230469c-4.710938 0-8.53125-3.820313-8.53125-8.535157-.015625-14.132812-11.46875-25.585937-25.601563-25.601562h-68.265625c-4.714843 0-8.535156-3.820312-8.535156-8.53125 0-4.714844 3.820313-8.535156 8.535156-8.535156h68.265625c23.550782.027344 42.640625 19.117187 42.667969 42.667968 0 4.714844-3.820313 8.535157-8.535156 8.535157zm0 0"/><path d="m238.964844 307.230469h-8.535156c-4.710938 0-8.53125-3.820313-8.53125-8.535157 0-4.710937 3.820312-8.53125 8.53125-8.53125h8.535156c4.710937 0 8.53125 3.820313 8.53125 8.53125 0 4.714844-3.820313 8.535157-8.53125 8.535157zm0 0"/></svg>