<svg height="512pt" viewBox="0 0 512 512.01815" width="512pt" xmlns="http://www.w3.org/2000/svg"><path d="m76.960938 250.472656-34.21875 14.675782 19.203124 48.640624-29.101562 19.199219-21.84375-55.296875c-6.867188-17.152344 1.25-36.648437 18.261719-43.859375l44.542969-19.113281c1.417968-.597656 2.910156-1 4.4375-1.195312zm0 0" fill="#ff5722"/><path d="m471.96875 93.117188 30.378906 111.871093c2.582032 10.207031.304688 21.035157-6.164062 29.339844-6.472656 8.308594-16.414063 13.160156-26.945313 13.15625h-34.300781l-1.367188-34.132813h35.667969l-29.269531-108.03125zm0 0" fill="#ff5722"/><path d="m435.105469 238.953125c.929687 65.34375-29.976563 127.0625-82.859375 165.460937l-97.277344 72.53125-12.714844-9.640624-82.6875-62.890626c-16.210937-11.371093-30.496094-25.257812-42.328125-41.132812l-22.613281-38.65625c-10.308594-23.449219-16.292969-48.574219-17.664062-74.152344-.167969-3.839844-.253907-7.679687-.253907-11.519531-.007812-8.5.503907-16.992187 1.535157-25.429687 10.835937-91.820313 79.617187-163.757813 164.863281-170.242188 4.265625-.425781 8.535156-.597656 12.800781-.597656 98.988281 0 179.199219 87.894531 179.199219 196.269531zm0 0" fill="#fec108"/><path d="m409.507812 238.953125c.929688 65.34375-29.976562 127.0625-82.859374 165.460937l-84.394532 62.890626-82.6875-62.890626c-16.210937-11.371093-30.496094-25.257812-42.328125-41.132812l-22.613281-38.65625c-10.308594-23.449219-16.292969-48.574219-17.664062-74.152344-.167969-3.839844-.253907-7.679687-.253907-11.519531-.007812-8.5.503907-16.992187 1.535157-25.429687 10.835937-91.820313 79.617187-163.757813 164.863281-170.242188 93.015625 7.082031 166.402343 91.988281 166.402343 195.671875zm0 0" fill="#ffdc00"/><path d="m255.90625 460.816406v25.601563c-.027344 9.414062-7.652344 17.039062-17.066406 17.066406h-102.398438c-9.414062-.027344-17.039062-7.652344-17.070312-17.066406v-25.601563c-.066406-31.339844 24.195312-57.359375 55.46875-59.476562 1.414062-.167969 2.839844-.253906 4.265625-.253906h17.066406c15.847656-.011719 31.046875 6.277343 42.25 17.480468 11.207031 11.207032 17.496094 26.40625 17.484375 42.25zm0 0" fill="#283593"/><path d="m230.304688 460.816406v25.601563c-.027344 9.414062-7.652344 17.039062-17.066407 17.066406h-76.796875c-9.414062-.027344-17.039062-7.652344-17.070312-17.066406v-25.601563c-.066406-31.339844 24.195312-57.359375 55.46875-59.476562 31.269531 2.117187 55.535156 28.136718 55.464844 59.476562zm0 0" fill="#3f51b5"/><path d="m392.441406 460.816406v25.601563c-.03125 9.414062-7.652344 17.039062-17.070312 17.066406h-102.398438c-9.414062-.027344-17.039062-7.652344-17.066406-17.066406v-25.601563c-.070312-31.339844 24.195312-57.359375 55.464844-59.476562 1.417968-.167969 2.84375-.253906 4.269531-.253906h17.066406c15.84375-.011719 31.046875 6.277343 42.25 17.480468 11.203125 11.207032 17.496094 26.40625 17.484375 42.25zm0 0" fill="#283593"/><path d="m366.839844 460.816406v25.601563c-.027344 9.414062-7.652344 17.039062-17.066406 17.066406h-76.800782c-9.414062-.027344-17.039062-7.652344-17.066406-17.066406v-25.601563c-.070312-31.339844 24.195312-57.359375 55.464844-59.476562 31.273437 2.117187 55.539062 28.136718 55.46875 59.476562zm0 0" fill="#3f51b5"/><path d="m255.90625 460.816406h136.535156v17.070313h-136.535156zm0 0" fill="#2c3e50"/><path d="m105.761719 335.808594c-16.804688-22.019532-45.03125-28.722656-63.046875-14.972656s-18.996094 42.746093-2.191406 64.761718c16.804687 22.019532 45.03125 28.722656 63.046874 14.972656 18.015626-13.746093 18.996094-42.742187 2.191407-64.761718zm0 0" fill="#ff9801"/><path d="m460.109375 102.417969c-8.882813 4.046875-19.007813 4.414062-28.160156 1.023437-13.570313-5.097656-24.5625-15.382812-30.550781-28.585937-11.945313-25.003907-5.035157-53.246094 15.445312-62.976563.769531-.339844 1.621094-.683594 2.476562-1.023437 20.050782-7.679688 44.628907 4.609375 56.148438 28.671875 11.945312 25.003906 5.121094 53.164062-15.359375 62.890625zm0 0" fill="#f57c00"/><path d="m434.507812 102.417969c-.820312.414062-1.675781.757812-2.558593 1.023437-13.570313-5.097656-24.5625-15.382812-30.550781-28.585937-11.945313-25.003907-5.035157-53.246094 15.445312-62.976563.769531-.339844 1.621094-.683594 2.476562-1.023437 13.542969 5.1875 24.515626 15.480469 30.546876 28.671875 11.949218 25.003906 5.121093 53.164062-15.359376 62.890625zm0 0" fill="#ff9801"/><path d="m281.507812 22.164062 48.855469-13.296874c2.511719-.75 5.230469-.292969 7.359375 1.238281 2.128906 1.527343 3.425782 3.957031 3.515625 6.578125v43.46875c-.089843 2.621094-1.386719 5.050781-3.515625 6.578125-2.128906 1.53125-4.847656 1.988281-7.359375 1.238281l-48.855469-13.296875h-51.203124l-48.855469 13.296875c-2.511719.75-5.226563.292969-7.355469-1.238281-2.132812-1.527344-3.429688-3.957031-3.519531-6.578125v-43.46875c.089843-2.621094 1.386719-5.050782 3.519531-6.578125 2.128906-1.53125 4.84375-1.988281 7.355469-1.238281l48.855469 13.296874zm0 0" fill="#6a1b9a"/><path d="m177.933594 263.242188c.0625-3.019532 1.726562-5.785157 4.367187-7.25 2.644531-1.46875 5.867188-1.421876 8.464844.125 19.734375 11.554687 42.277344 17.425781 65.140625 16.96875 22.863281.457031 45.40625-5.414063 65.140625-16.96875 2.597656-1.546876 5.820313-1.59375 8.464844-.125 2.640625 1.464843 4.304687 4.230468 4.367187 7.25.683594 30.621093-6.367187 95.175781-77.972656 95.175781s-78.65625-64.554688-77.972656-95.175781zm0 0" fill="#cfd8dc"/><path d="m238.839844 17.085938h34.132812c4.714844 0 8.535156 3.820312 8.535156 8.53125v25.601562c0 4.710938-3.820312 8.53125-8.535156 8.53125h-34.132812c-4.714844 0-8.535156-3.820312-8.535156-8.53125v-25.601562c0-4.710938 3.820312-8.53125 8.535156-8.53125zm0 0" fill="#9d27b0"/><path d="m330.660156 298.085938c-23.296875 11.375-48.832031 17.410156-74.753906 17.664062-25.921875-.253906-51.457031-6.289062-74.75-17.664062-2.429688-11.390626-3.507812-23.03125-3.210938-34.675782.019532-3.042968 1.664063-5.847656 4.3125-7.351562 2.644532-1.503906 5.894532-1.476563 8.519532.0625 19.730468 11.550781 42.269531 17.421875 65.128906 16.964844 22.859375.457031 45.398438-5.414063 65.128906-16.964844 2.625-1.539063 5.875-1.566406 8.519532-.0625 2.648437 1.503906 4.292968 4.308594 4.3125 7.351562.296874 11.644532-.78125 23.285156-3.207032 34.675782zm0 0" fill="#f5f5f5"/><path d="m221.773438 166.417969c0-21.207031-7.640626-38.398438-17.066407-38.398438s-17.066406 17.191407-17.066406 38.398438 7.640625 38.398437 17.066406 38.398437 17.066407-17.191406 17.066407-38.398437zm0 0" fill="#3f51b5"/><path d="m214.1875 149.351562c0-11.78125-4.246094-21.332031-9.480469-21.332031-5.238281 0-9.480469 9.550781-9.480469 21.332031s4.242188 21.332032 9.480469 21.332032c5.234375 0 9.480469-9.550782 9.480469-21.332032zm0 0" fill="#f5f5f5"/><path d="m324.171875 166.417969c0-21.207031-7.640625-38.398438-17.066406-38.398438s-17.066407 17.191407-17.066407 38.398438 7.640626 38.398437 17.066407 38.398437 17.066406-17.191406 17.066406-38.398437zm0 0" fill="#3f51b5"/><path d="m316.585938 149.351562c0-11.78125-4.242188-21.332031-9.480469-21.332031-5.234375 0-9.480469 9.550781-9.480469 21.332031s4.246094 21.332032 9.480469 21.332032c5.238281 0 9.480469-9.550782 9.480469-21.332032zm0 0" fill="#f5f5f5"/><path d="m159.554688 412.945312c-1.738282 0-3.4375-.535156-4.863282-1.535156-16.960937-11.878906-31.910156-26.398437-44.277344-43.007812-2.703124-3.773438-1.894531-9.011719 1.820313-11.796875 3.710937-2.78125 8.96875-2.085938 11.832031 1.5625 11.28125 15.148437 24.910156 28.394531 40.375 39.242187 3.054688 2.132813 4.375 6.003906 3.257813 9.558594-1.121094 3.554688-4.414063 5.972656-8.140625 5.972656zm0 0"/><path d="m352.257812 412.945312c-3.726562 0-7.019531-2.414062-8.140624-5.96875-1.117188-3.550781.195312-7.417968 3.246093-9.554687 50.660157-36.753906 80.21875-95.894531 79.210938-158.46875 0-69.984375-35.050781-133.695313-91.480469-166.261719-4.082031-2.355468-5.480469-7.574218-3.121094-11.65625 2.355469-4.082031 7.574219-5.480468 11.65625-3.125 61.6875 35.609375 100.011719 104.972656 100.011719 181.042969 1.007813 68.148437-31.277344 132.511719-86.507813 172.449219-1.429687 1.003906-3.132812 1.542968-4.875 1.542968zm0 0"/><path d="m94.632812 333.160156c-3.382812.003906-6.449218-1.992187-7.816406-5.082031-10.746094-24.390625-16.96875-50.527344-18.367187-77.144531-.191407-4.039063-.277344-8.007813-.277344-11.980469-.007813-8.855469.527344-17.699219 1.601563-26.484375 6.683593-64.128906 43.136718-121.378906 98.417968-154.566406 4.085938-2.351563 9.304688-.945313 11.65625 3.140625 2.351563 4.085937.945313 9.308593-3.140625 11.660156-50.625 30.492187-83.960937 83.023437-89.992187 141.816406-.992188 8.105469-1.484375 16.265625-1.476563 24.433594 0 3.707031.085938 7.421875.25 11.125 1.300781 24.527344 7.039063 48.617187 16.941407 71.097656 1.167968 2.636719.925781 5.6875-.648438 8.105469-1.574219 2.421875-4.265625 3.878906-7.148438 3.878906zm0 0"/><path d="m238.839844 512.019531h-102.398438c-14.132812-.015625-25.585937-11.46875-25.601562-25.601562v-25.601563c.042968-37.683594 30.582031-68.222656 68.265625-68.265625h17.066406c37.6875.042969 68.222656 30.582031 68.269531 68.265625v25.601563c-.015625 14.132812-11.46875 25.585937-25.601562 25.601562zm-59.734375-102.402343c-28.261719.03125-51.167969 22.9375-51.199219 51.199218v25.601563c.003906 4.710937 3.820312 8.53125 8.535156 8.535156h102.398438c4.710937-.003906 8.53125-3.824219 8.53125-8.535156v-25.601563c-.027344-28.261718-22.933594-51.167968-51.199219-51.199218zm0 0"/><path d="m255.90625 477.886719h-136.535156c-4.710938 0-8.53125-3.824219-8.53125-8.535157 0-4.714843 3.820312-8.535156 8.53125-8.535156h136.535156c4.714844 0 8.535156 3.820313 8.535156 8.535156 0 4.710938-3.820312 8.535157-8.535156 8.535157zm0 0"/><path d="m375.371094 512.019531h-102.398438c-14.132812-.015625-25.585937-11.46875-25.601562-25.601562v-25.601563c.046875-37.683594 30.582031-68.222656 68.269531-68.265625h17.066406c37.683594.042969 68.222657 30.582031 68.265625 68.265625v25.601563c-.015625 14.132812-11.46875 25.585937-25.601562 25.601562zm-59.730469-102.402343c-28.265625.03125-51.167969 22.9375-51.199219 51.199218v25.601563c0 4.710937 3.820313 8.53125 8.53125 8.535156h102.398438c4.714844-.003906 8.53125-3.824219 8.535156-8.535156v-25.601563c-.03125-28.261718-22.9375-51.167968-51.199219-51.199218zm0 0"/><path d="m392.441406 477.886719h-136.535156c-4.710938 0-8.535156-3.824219-8.535156-8.535157 0-4.714843 3.824218-8.535156 8.535156-8.535156h136.535156c4.710938 0 8.53125 3.820313 8.53125 8.535156 0 4.710938-3.820312 8.535157-8.53125 8.535157zm0 0"/><path d="m204.707031 213.351562c-16.8125 0-25.601562-23.609374-25.601562-46.933593s8.789062-46.933594 25.601562-46.933594c16.808594 0 25.597657 23.609375 25.597657 46.933594s-8.789063 46.933593-25.597657 46.933593zm-.171875-76.824218c-2.046875.78125-8.363281 11.148437-8.363281 29.890625 0 18.742187 6.308594 29.109375 8.707031 29.890625 2.046875-.78125 8.359375-11.148438 8.359375-29.890625 0-18.742188-6.308593-29.109375-8.703125-29.890625zm0 0"/><path d="m307.105469 213.351562c-16.808594 0-25.597657-23.609374-25.597657-46.933593s8.789063-46.933594 25.597657-46.933594c16.8125 0 25.601562 23.609375 25.601562 46.933594s-8.789062 46.933593-25.601562 46.933593zm-.167969-76.824218c-2.050781.78125-8.363281 11.148437-8.363281 29.890625 0 18.742187 6.308593 29.109375 8.703125 29.890625 2.046875-.78125 8.363281-11.148438 8.363281-29.890625 0-18.742188-6.308594-29.109375-8.703125-29.890625zm0 0"/><path d="m228.652344 96.089844c-9.644532-3.75-20.175782-4.605469-30.300782-2.457032-4.835937 1.550782-9.347656 3.976563-13.3125 7.148438-2.179687 1.539062-3.980468 3.640625-6.203124 5.359375-1.953126 2.019531-3.78125 4.179687-5.945313 6.199219l-.257813.238281c-.933593.871094-2.347656.976563-3.398437.25-1.054687-.722656-1.460937-2.082031-.980469-3.265625 1.167969-2.871094 2.613282-5.640625 4.035156-8.472656 1.703126-2.730469 3.621094-5.320313 5.734376-7.75 4.539062-5.070313 10.277343-8.917969 16.691406-11.195313 6.59375-2.292969 13.726562-2.542969 20.460937-.707031 6.476563 1.695312 12.316407 5.253906 16.78125 10.242188.820313.941406.917969 2.3125.242188 3.363281-.675781 1.046875-1.96875 1.523437-3.164063 1.164062zm0 0"/><path d="m279.851562 91.679688c4.46875-4.984376 10.304688-8.546876 16.78125-10.238282 6.738282-1.835937 13.871094-1.589844 20.464844.707032 6.414063 2.273437 12.152344 6.121093 16.691406 11.195312 2.113282 2.425781 4.027344 5.015625 5.730469 7.746094 1.425781 2.832031 2.871094 5.601562 4.035157 8.472656.484374 1.183594.078124 2.542969-.976563 3.269531-1.050781.722657-2.464844.621094-3.402344-.25l-.253906-.238281c-2.164063-2.019531-3.992187-4.183594-5.945313-6.203125-2.21875-1.71875-4.023437-3.820313-6.207031-5.355469-3.960937-3.175781-8.472656-5.601562-13.308593-7.152344-10.125-2.148437-20.65625-1.292968-30.300782 2.457032l-.378906.117187c-1.195312.359375-2.488281-.113281-3.164062-1.160156-.679688-1.050781-.585938-2.421875.234374-3.363281zm0 0"/><path d="m81.796875 416.191406c-19.078125-.609375-36.8125-9.988281-48.058594-25.414062-19.632812-25.726563-17.917969-60.144532 3.800781-76.726563 21.707032-16.589843 55.359376-9.148437 75.007813 16.582031 19.632813 25.726563 17.925781 60.144532-3.796875 76.714844-7.757812 5.847656-17.238281 8.960938-26.953125 8.84375zm-17.171875-93.988281c-6.027344-.097656-11.910156 1.804687-16.734375 5.414063-14.242187 10.875-14.507813 34.5625-.585937 52.808593 13.917968 18.234375 36.824218 24.226563 51.09375 13.359375 14.242187-10.867187 14.5-34.5625.582031-52.800781-7.980469-11.179687-20.636719-18.101563-34.355469-18.78125zm0 0"/><path d="m445.164062 114.328125c-7.355468-.066406-14.609374-1.753906-21.242187-4.945313-13.332031-6.507812-24.015625-17.417968-30.242187-30.890624-13.921876-29.207032-5.179688-62.539063 19.484374-74.304688 12.691407-5.835938 27.351563-5.558594 39.816407.75 13.308593 6.523438 23.964843 17.429688 30.175781 30.890625 6.550781 13.285156 8.339844 28.417969 5.066406 42.867187-2.898437 13.664063-11.894531 25.246094-24.417968 31.433594-5.820313 2.777344-12.191407 4.210938-18.640626 4.199219zm-13.386718-97.242187c-3.894532-.019532-7.742188.835937-11.261719 2.5-16.175781 7.714843-21.308594 30.847656-11.4375 51.558593 4.527344 9.914063 12.332031 17.960938 22.101563 22.789063 7.871093 4.089844 17.167968 4.378906 25.277343.792968 7.859375-4.019531 13.449219-11.40625 15.183594-20.058593 2.34375-10.632813.972656-21.746094-3.882813-31.488281v-.007813c-4.519531-9.898437-12.300781-17.945313-22.042968-22.792969-4.347656-2.109375-9.105469-3.234375-13.9375-3.292968zm0 0"/><path d="m24.914062 336.117188-21.851562-55.289063c-8.59375-21.449219 1.558594-45.828125 22.835938-54.835937l44.542968-19.113282c2.164063-.914062 4.445313-1.53125 6.773438-1.832031l2.050781 16.949219c-.753906.101562-1.492187.308594-2.191406.605468l-44.441407 19.074219c-12.757812 5.402344-18.84375 20.015625-13.695312 32.875l21.847656 55.296875zm0 0"/><path d="m54.007812 316.917969-19.199218-48.632813c-1.699219-4.292968.324218-9.15625 4.566406-10.976562l34.222656-14.683594 6.734375 15.683594-26.609375 11.417968 16.148438 40.925782zm0 0"/><path d="m469.238281 221.886719h-35.667969c-4.710937 0-8.535156-3.824219-8.535156-8.535157 0-4.714843 3.824219-8.535156 8.535156-8.535156h24.515626l-26.347657-97.265625c-1.144531-4.515625 1.542969-9.117187 6.039063-10.335937s9.140625 1.394531 10.433594 5.871094l29.269531 108.03125c.695312 2.566406.15625 5.308593-1.460938 7.417968-1.613281 2.113282-4.121093 3.351563-6.78125 3.351563zm0 0"/><path d="m469.238281 256.019531h-34.300781c-4.714844 0-8.535156-3.820312-8.535156-8.535156 0-4.710937 3.820312-8.53125 8.535156-8.53125h34.300781c7.917969 0 15.394531-3.660156 20.246094-9.917969 4.851563-6.257812 6.535156-14.40625 4.5625-22.074218l-30.308594-111.609376c-.851562-2.960937-.046875-6.152343 2.117188-8.347656 2.160156-2.199218 5.335937-3.0625 8.3125-2.257812 2.972656.804687 5.28125 3.152344 6.042969 6.136718l30.378906 111.867188c3.253906 12.90625.351562 26.59375-7.859375 37.070312-8.085938 10.253907-20.433594 16.226563-33.492188 16.199219zm0 0"/><path d="m272.972656 68.285156h-34.132812c-9.421875-.011718-17.054688-7.648437-17.066406-17.066406v-25.601562c.011718-9.417969 7.644531-17.054688 17.066406-17.066407h34.132812c9.421875.011719 17.054688 7.648438 17.066406 17.066407v25.601562c-.011718 9.417969-7.644531 17.054688-17.066406 17.066406zm-34.132812-42.667968v25.601562h34.148437l-.015625-25.601562zm0 0"/><path d="m179.132812 76.808594c-3.8125.007812-7.515624-1.238282-10.550781-3.539063-4.121093-3.101562-6.542969-7.960937-6.542969-13.117187v-43.46875c0-5.15625 2.421876-10.015625 6.542969-13.117188 4.308594-3.261718 9.886719-4.34375 15.101563-2.929687l48.863281 13.289062c4.550781 1.238281 7.230469 5.929688 5.996094 10.476563-1.238281 4.550781-5.929688 7.234375-10.476563 5.996094l-48.859375-13.296876-.101562 43.050782 48.960937-13.710938c4.546875-1.238281 9.238282 1.441406 10.476563 5.992188 1.234375 4.546875-1.445313 9.238281-5.996094 10.476562l-48.855469 13.292969c-1.488281.402344-3.019531.605469-4.558594.605469zm0 0"/><path d="m332.679688 76.808594c-1.539063 0-3.070313-.203125-4.554688-.605469l-48.859375-13.292969c-4.550781-1.238281-7.230469-5.929687-5.992187-10.476562 1.234374-4.550782 5.925781-7.230469 10.476562-5.992188l48.855469 13.292969.101562-43.050781-48.957031 13.714844c-4.550781 1.238281-9.242188-1.445313-10.476562-5.996094-1.238282-4.546875 1.441406-9.238282 5.992187-10.476563l48.859375-13.289062c5.214844-1.414063 10.796875-.332031 15.105469 2.929687 4.121093 3.101563 6.542969 7.960938 6.542969 13.117188v43.46875c0 5.15625-2.421876 10.015625-6.542969 13.117187-3.035157 2.300781-6.738281 3.546875-10.550781 3.539063zm0 0"/><path d="m163.460938 143.664062c2.378906 1.253907 5.105468 1.679688 7.753906 1.207032 2.046875-.6875 3.886718-1.878906 5.355468-3.464844 1.675782-1.800781 3.683594-3.605469 5.542969-5.910156 2.074219-2.367188 4.332031-4.558594 6.761719-6.554688l-2.527344 5.820313c.023438-.957031.210938-1.898438.554688-2.789063.894531-2.371094 2.785156-4.226562 5.167968-5.078125 3.203126-1.15625 6.789063-.296875 9.121094 2.179688 2.332032 2.480469 2.96875 6.109375 1.617188 9.234375-1.347656 3.128906-4.425782 5.152344-7.832032 5.15625.96875 0 1.933594-.164063 2.84375-.492188 2.34375-.832031 4.199219-2.65625 5.078126-4.980468.335937-.871094.519531-1.792969.542968-2.722657l-2.53125 5.824219c-2.148437 2.664062-4.621094 5.058594-7.355468 7.121094-3.113282 2.402344-6.566407 4.328125-10.246094 5.71875-4.296875 1.738281-9.058594 1.964844-13.5.644531-3.988282-1.40625-7.28125-4.296875-9.191406-8.070313-.421876-.789062-.296876-1.761718.3125-2.421874.609374-.65625 1.570312-.851563 2.390624-.484376zm0 0"/><path d="m350.898438 146.210938c-1.9375 3.601562-5.136719 6.363281-8.984376 7.746093-4.332031 1.335938-8.980468 1.214844-13.234374-.347656-3.753907-1.199219-7.277344-3.023437-10.421876-5.394531-2.761718-2.03125-5.238281-4.425782-7.359374-7.121094l-2.53125-5.824219c.027343.929688.210937 1.851563.542968 2.722657.882813 2.328124 2.738282 4.148437 5.082032 4.984374.914062.324219 1.875.488282 2.84375.488282-3.398438-.015625-6.464844-2.039063-7.808594-5.160156-1.339844-3.121094-.707032-6.738282 1.621094-9.214844 2.324218-2.476563 5.894531-3.339844 9.09375-2.195313 2.386718.851563 4.277343 2.707031 5.171874 5.078125.34375.890625.53125 1.832032.554688 2.789063l-2.527344-5.824219c4.421875 3.890625 8.480469 8.167969 12.128906 12.789062 1.46875 1.773438 3.421876 3.078126 5.617188 3.761719 2.75.398438 5.554688-.140625 7.960938-1.53125l.082031-.039062c.394531-.195313.847656-.226563 1.261719-.085938.414062.140625.757812.441407.949218.832031.242188.492188.226563 1.070313-.042968 1.546876zm0 0"/><path d="m255.90625 366.953125c-24.160156 1.375-47.640625-8.265625-63.859375-26.226563-30.105469-35.101562-21.75-92.125-21.375-94.542968.488281-3.167969 2.714844-5.796875 5.765625-6.800782 3.046875-1.003906 6.398438-.214843 8.675781 2.042969.449219.433594 24.359375 23.125 70.792969 23.125 46.648438 0 70.558594-22.898437 70.800781-23.132812 2.28125-2.246094 5.628907-3.023438 8.671875-2.019531 3.039063 1.003906 5.265625 3.625 5.761719 6.785156.375 2.417968 8.730469 59.441406-21.375 94.542968-16.21875 17.960938-39.699219 27.601563-63.859375 26.226563zm-69.417969-103.445313c-.375 17.5 1.882813 46.761719 18.558594 66.152344 13.042969 14.058594 31.726563 21.488282 50.859375 20.226563 19.15625 1.265625 37.859375-6.179688 50.898438-20.269531 16.703124-19.464844 18.933593-48.65625 18.542968-66.125-21.035156 12.328124-45.066406 18.597656-69.441406 18.125-24.363281.472656-48.386719-5.792969-69.417969-18.109376zm0 0"/><path d="m255.90625 324.285156c-27.203125-.183594-54.015625-6.507812-78.433594-18.507812-4.246094-2.035156-6.042968-7.128906-4.007812-11.375 2.035156-4.25 7.125-6.042969 11.375-4.007813 44.746094 22.332031 97.386718 22.332031 142.132812 0 4.25-2.035156 9.339844-.242187 11.375 4.007813 2.035156 4.246094.238282 9.339844-4.007812 11.375-24.417969 12-51.230469 18.324218-78.433594 18.507812zm0 0"/></svg>