<svg height="512" viewBox="0 0 61 60" width="512" xmlns="http://www.w3.org/2000/svg"><g id="Page-1" fill="none" fill-rule="evenodd"><g id="012---Annoyed" fill-rule="nonzero" transform="translate(-1)"><path id="Shape" d="m58.21 40.05c1.4610908 2.3952909 2.0608215 5.2175528 1.7 8 0 0-3-6-8-5 1.9186174 3.6879442 2.6188183 7.8891498 2 12 0 0-4-6-8-6 1.2022265 2.8795543 1.2022265 6.1204457 0 9 0 0-.61-1.06-1.47-2.3-8.4190339 4.4032064-18.4609661 4.4032064-26.88 0-.86 1.24-1.47 2.3-1.47 2.3-1.2022265-2.8795543-1.2022265-6.1204457 0-9-4 0-8 6-8 6-.61881833-4.1108502.08138261-8.3120558 2-12-5-1-8 5-8 5-.36082148-2.7824472.23890917-5.6047091 1.7-8-4.44196243-12.0495302-.43001193-25.5855524 9.8604788-33.26852117 10.2904907-7.68296875 24.4085517-7.68296875 34.6990424 0 10.2904907 7.68296877 14.3024412 21.21899097 9.8604788 33.26852117z" fill="#ffdc00"/><path id="Shape" d="m46 50.06c-.5084383-.3302505-1.1627507-.3337453-1.6746878-.0089449-.511937.3248004-.7875075.918263-.7053122 1.5189449.244713 1.5259059.1903712 3.0848377-.16 4.59l.95-.46c.86 1.24 1.47 2.3 1.47 2.3 1.0010773-2.452057 1.1628137-5.1664158.46-7.72z" fill="#fec108"/><path id="Shape" d="m60 30c0-16.0162577-12.9837423-29-29-29-.5 0-1 0-1.5 0 9.0970411.45201159 17.453199 5.15168922 22.5643769 12.6906767 5.1111779 7.5389874 6.3834758 17.041282 3.4356231 25.6593233-.1445779.419841-.1046116.8812699.11 1.27.5973221 1.1320587 1.0156182 2.3498399 1.24 3.61 1.2630764 1.0381705 2.3038212 2.3203954 3.06 3.77.3608215-2.7824472-.2389092-5.6047091-1.7-8 1.1828582-3.2013807 1.7888992-6.5870847 1.79-10z" fill="#fec108"/><path id="Shape" d="m49.9 45.21c.7457445 2.0883598 1.1509138 4.2830264 1.2 6.5 1.0415087 1.0026006 1.9826399 2.1044944 2.81 3.29.5840552-3.9995863-.0574608-8.0822782-1.84-11.71l-.21-.08c-.5657757-.1950216-1.1932772-.0469192-1.6121455.3804974s-.554265 1.0577818-.3478545 1.6195026z" fill="#fec108"/><path id="Shape" d="m29 17.13c.67 3.57-5.1 8.26-9.17 9s-7.92-1.5-8.59-5.07 2.08-7.09 6.15-7.86 10.94.36 11.61 3.93z" fill="#f5f5f5"/><path id="Shape" d="m29 17.13c-.61-3.23-6.28-4.43-10.37-4.06 3.44.29 6.9 1.58 7.37 4.06.67 3.57-5.1 8.26-9.17 9h-.07c1.0145169.18997 2.0554831.18997 3.07 0 4.07-.74 9.84-5.43 9.17-9z" fill="#cfd8dc"/><path id="Shape" d="m33.05 17.13c-.67 3.57 5.11 8.26 9.18 9s7.91-1.5 8.59-5.07-2.08-7.06-6.15-7.83-10.94.33-11.62 3.9z" fill="#f5f5f5"/><path id="Shape" d="m44.67 13.23c-1.4036464-.2382594-2.8324126-.2920483-4.25-.16.43 0 .86.09 1.25.16 4.07.77 6.82 4.29 6.15 7.86-.6078379 2.6745785-2.8042472 4.6959117-5.52 5.08 4 .73 7.85-1.53 8.52-5.08s-2.08-7.09-6.15-7.86z" fill="#cfd8dc"/><circle id="Oval" cx="22" cy="18" fill="#37474f" r="2"/><circle id="Oval" cx="40.05" cy="18" fill="#37474f" r="2"/><path id="Shape" d="m44.92 40.71c-.1048802.7934284-.4544185 1.5344496-1 2.12-.3423214.353824-.7590482.6270874-1.22.8l-3.22-3.9c-.3945524-.4613333-.9772777-.718502-1.5840082-.6990555s-1.1717915.3134032-1.5359918.7990555l-1.8 2.5c-1.13629-.4281469-2.3465709-.6253274-3.56-.58-1.2134291-.0453274-2.42371.1518531-3.56.58l-1.8-2.5c-.3642003-.4856523-.9292613-.779609-1.5359918-.7990555s-1.1894558.2377222-1.5840082.6990555l-3.22 3.9c-.4609518-.1729126-.8776786-.446176-1.22-.8-.5455815-.5855504-.8951198-1.3265716-1-2.12-.1973833-2.0875332.2604988-4.1847032 1.31-6 2.4299228-4.7246689 7.2970893-7.6946087 12.61-7.6946087s10.1800772 2.9699398 12.61 7.6946087c1.0495012 1.8152968 1.5073833 3.9124668 1.31 6z" fill="#37474f"/><path id="Shape" d="m27.44 42.33c-1.9994595 1.0189475-4.1973421 1.5888953-6.44 1.67-.5839824-.014445-1.1602909-.1364868-1.7-.36l3.22-3.9c.3945524-.4613333.9772777-.718502 1.5840082-.6990555s1.1717915.3134032 1.5359918.7990555z" fill="#f5f5f5"/><path id="Shape" d="m42.7 43.63c-.5390544.226944-1.1153866.352381-1.7.37-2.2268105-.0775439-4.4103201-.6370683-6.4-1.64l1.8-2.5c.3642003-.4856523.9292613-.779609 1.5359918-.7990555s1.1894558.2377222 1.5840082.6990555z" fill="#f5f5f5"/><g fill="#000"><path id="Shape" d="m31 0c-9.7400551-.00186001-18.8747898 4.72496792-24.49897263 12.6771529-5.6241828 7.9521849-7.03771265 18.1398349-3.79102737 27.3228471-1.39411396 2.4602601-1.9619519 5.3029549-1.62 8.11.03178195.4575662.37077122.8348471.82234103.9152312.45156982.0803842.89992968-.1567403 1.08765897-.5752312 0-.05 2.15-4.18 5.55-4.54-1.49354772 3.5423688-1.99479512 7.4244435-1.45 11.23.05732024.4103703.36178275.7428834.7655258.8360549.40374306.0931714.82312521-.0723006 1.0544742-.4160549.85-1.28 3.25-4.24 5.66-5.23-.6547305 2.6611411-.4517315 5.4611274.58 8 .1260447.3675678.4536076.6288382.84.67h.07c.3551111-.0021435.6824477-.1924555.86-.5.3-.52.62-1 .94-1.53 8.2732486 4.0395084 17.9467514 4.0395084 26.22 0 .32.49.64 1 .94 1.53.1775523.3075445.5048889.4978565.86.5h.11c.3840368-.0269507.7185014-.2719654.86-.63 1.0317315-2.5388726 1.2347305-5.3388589.58-8 2.41 1 4.81 4 5.66 5.23.231349.3437543.6507311.5092263 1.0544742.4160549.4037431-.0931715.7082056-.4256846.7655258-.8360549.5510965-3.8037435.0567711-7.6857535-1.43-11.23 3.4.36 5.53 4.49 5.55 4.54.1978796.3982133.6349369.6179264 1.0725804.5391968.4376434-.0787295.7707273-.4369865.8174196-.8791968.344688-2.8223683-.2304709-5.6806275-1.64-8.15 3.2466853-9.1830122 1.8331554-19.3706622-3.7910274-27.3228471-5.6241828-7.95218498-14.7589175-12.67901291-24.4989726-12.6771529zm26.85 37.89c-1.2479545-1.5288692-2.7707913-2.810901-4.49-3.78-.4835272-.2013504-1.0404963.0045141-1.2768341.4719378s-.0719586 1.0380149.3768341 1.3080622c.26.13 5.58 2.9 6.43 8.93-1.54-1.7-4-3.44-7.17-2.8-.3170679.0647372-.5832078.2789053-.7142693.5747867-.1310616.2958814-.1108406.636894.0542693.9152133 1.4125234 2.7325763 2.1205937 5.7745286 2.06 8.85-1.66-1.89-4.37-4.36-7.21-4.36-.3472767-.0041807-.6718537.1721223-.8573871.4657137-.1855335.2935914-.2054509.6624224-.0526129.9742863.8076512 1.9379478 1.0098485 4.0749642.58 6.13-1.75-2.66-4.16-5.45-6.13-4.46-.4940809.2459531-.6954836.8456857-.45 1.34.2457883.4883422.838193.6887799 1.33.45.47 0 1.48 1 2.58 2.42-7.5637403 3.5676841-16.3262597 3.5676841-23.89 0 1.11-1.46 2.13-2.46 2.59-2.43.240954.1348672.5269505.1640984.7902064.0807657.2632559-.0833328.480337-.2718116.5997936-.5207657.2454836-.4943143.0440809-1.0940469-.45-1.34-2-1-4.38 1.8-6.13 4.46-.4315798-2.051625-.2293048-4.1859752.58-6.12.1786328-.3094011.1786328-.6905989 0-1-.1831155-.2929855-.5044985-.4706914-.85-.47-2.84 0-5.55 2.47-7.2 4.36-.05905708-3.0741371.64530595-6.1149239 2.05-8.85.1659276-.2868877.1789407-.6373466.034746-.9357497-.1441948-.2984031-.4268638-.5059821-.754746-.5542503-3.19-.64-5.63 1.1-7.17 2.8.85-6 6.17-8.8 6.43-8.93.34603864-.1440974.5824323-.4696151.6123817-.8432591s-.1515756-.73266-.47024336-.9300368c-.3186678-.1973769-.72095757-.1999648-1.04213834-.0067041-1.71920874.969099-3.24204545 2.2511308-4.49 3.78-3.38898362-11.457148.8654029-23.8025306 10.593231-30.73944709 9.7278281-6.93691651 22.7857099-6.93691651 32.513538 0 9.7278281 6.93691649 13.9822146 19.28229909 10.593231 30.73944709z"/><path id="Shape" d="m31 26c-5.6807825.0274136-10.8787072 3.2000729-13.5 8.24-1.1639907 2.003478-1.6579719 4.3262404-1.41 6.63.1415373.9956218.5847674 1.923962 1.27 2.66.9740762.947671 2.2810023 1.4754681 3.64 1.47h.34c2.2554941-.147658 4.4602771-.7353737 6.49-1.73 1.0113544-.3832272 2.0892142-.5600371 3.17-.52 1.09415-.0454395 2.1861523.1314581 3.21.52 2.112275 1.0590852 4.4284662 1.6492193 6.79 1.73 1.3437573-.0022719 2.6342559-.5256408 3.6-1.46.6852326-.736038 1.1284627-1.6643782 1.27-2.66.2479719-2.3037596-.2460093-4.626522-1.41-6.63-2.6118883-5.0311531-7.7914453-8.2058444-13.46-8.25zm-9.88 17 2.17-2.62c.1846397-.242494.475391-.3804144.78-.37.3023276.0146053.5817713.1653578.76.41l1.06 1.48c-1.5005897.6815229-3.1224968 1.0555476-4.77 1.1zm15-1.1 1.06-1.47c.1761626-.248423.4559288-.4030307.76-.42.304609-.0104144.5953603.127506.78.37l2.16 2.62c-1.6488252-.0426705-3.2717348-.4203287-4.77-1.11zm7.82-1.33c-.0773924.5836182-.3282192 1.1305599-.72 1.57-.0854794.0787131-.1756442.1521807-.27.22l-2.69-3.26c-.584819-.7150792-1.4664652-1.1208578-2.39-1.1-.9247414.0365171-1.7808678.4977921-2.32 1.25l-1.37 1.9c-1.035531-.2841481-2.1063569-.4188431-3.18-.4-1.0736431-.0188431-2.144469.1158519-3.18.4l-1.37-1.91c-.545849-.7358322-1.3980191-1.1818996-2.3137407-1.2111247-.9157216-.0292252-1.7946009.3615959-2.3862593 1.0611247l-2.69 3.26c-.0943558-.0678193-.1845206-.1412869-.27-.22-.3917808-.4394401-.6426076-.9863818-.72-1.57-.169481-1.8840623.2497947-3.774297 1.2-5.41 2.2651099-4.3890192 6.7909503-7.1463152 11.73-7.1463152s9.4648901 2.757296 11.73 7.1463152c.9502053 1.635703 1.369481 3.5259377 1.2 5.41z"/><path id="Shape" d="m20 27.14c4.44-.83 10.8-5.84 10-10.2s-8.77-5.45-12.78-4.69c-2.149539.3831539-4.0864923 1.5346637-5.45 3.24-1.3229971 1.6135465-1.86805854 3.7279461-1.49 5.78.67 3.58 4.08 6 8 6 .5762037.0129681 1.1522912-.0305734 1.72-.13zm-7.78-6.24c-.2596329-1.4839297.1421936-3.0072173 1.1-4.17 1.0612237-1.3291984 2.5736196-2.2224016 4.25-2.51.8010103-.1515231 1.6148008-.2251996 2.43-.22 3.53 0 7.59 1.14 8 3.3.53 2.82-4.62 7.16-8.38 7.87-3.5.67-6.83-1.24-7.4-4.27z"/><path id="Shape" d="m17.16 9.15c.06 0 5.64-.89 9.24 1.81.1730962.1298221.3836298.2.6.2.3147573 0 .6111456-.1481942.8-.4.1591299-.2121732.2274568-.4788704.1899495-.7414214-.0375073-.26255089-.1777763-.49944871-.3899495-.6585786-4.29-3.22-10.5-2.23-10.76-2.19-.5522847.08836556-.9283656.60771525-.84 1.16s.6077153.92836556 1.16.84z"/><path id="Shape" d="m22 21c1.6568542 0 3-1.3431458 3-3s-1.3431458-3-3-3-3 1.3431458-3 3 1.3431458 3 3 3zm0-4c.5522847 0 1 .4477153 1 1s-.4477153 1-1 1-1-.4477153-1-1 .4477153-1 1-1z"/><path id="Shape" d="m44.85 12.25c-4-.76-11.93.19-12.78 4.69s5.54 9.37 10 10.2c.5794911.1154781 1.16912.1724309 1.76.17 3.91 0 7.32-2.46 8-6 .74-4.14-2.37-8.19-6.98-9.06zm5 8.65c-.57 3-3.9 4.94-7.42 4.28-3.76-.71-8.9-5.05-8.37-7.87s6.68-3.8 10.44-3.09c3.5.66 5.9 3.66 5.33 6.68z"/><path id="Shape" d="m35.06 11.16c.2129454-.002144.4196458-.0722119.59-.2 3.6-2.7 9.18-1.82 9.24-1.81.3572656.05894882.7188414-.07717914.9485254-.35710581.229684-.27992666.2925816-.66112451.165-1s-.4262598-.58394537-.7835254-.64289419c-.26 0-6.47-1-10.77 2.19-.4418278.33137085-.5313708.9581722-.2 1.4.1866758.2621956.4881426.4185117.81.42z"/><path id="Shape" d="m40.05 15c-1.6568542 0-3 1.3431458-3 3s1.3431458 3 3 3 3-1.3431458 3-3-1.3431458-3-3-3zm0 4c-.5522847 0-1-.4477153-1-1s.4477153-1 1-1 1 .4477153 1 1-.4477153 1-1 1z"/><path id="Shape" d="m36.4 46.2s-1.22.8-5.4.8-5.35-.77-5.36-.77c-.2750945-.22865-.6512756-.2931702-.9868396-.1692563-.335564.1239138-.5795306.4174362-.64.77-.0604695.3525639.0717451.7106063.3468396.9392563.25.23 1.73 1.23 6.64 1.23s6.39-1 6.64-1.23c.3976684-.3456577.4589101-.9405769.14-1.36-.3269805-.4325776-.9391461-.5257332-1.38-.21z"/></g></g></g></svg>