<svg height="512" viewBox="0 0 61 60" width="512" xmlns="http://www.w3.org/2000/svg"><g id="Page-1" fill="none" fill-rule="evenodd"><g id="013---Happy" fill-rule="nonzero"><path id="Shape" d="m21.57 2.58c-4.6313346-2.17461762-10.0064332-2.09345621-14.57.22 0 0 3 0 6 4.05 0 0-7-2-11 6.08 0 0 3 0 4.37 1.75-6.49599636 10.451189-5.68886939 23.8641132 2.01352087 33.4609098 7.70239023 9.5967966 20.62274893 13.2876393 32.23211813 9.2074594 11.6093692-4.0801798 19.379659-15.0428705 19.384361-27.3483692.0106529-5.4156823-1.5038008-10.7249341-4.37-15.32 1.42-1.75 4.37-1.75 4.37-1.75-4-8.1-11-6.08-11-6.08 3-4 6-4 6-4-4.5608327-2.31020993-9.9314513-2.39135939-14.56-.22-6.1101701-2.1067276-12.7498299-2.1067276-18.86 0" fill="#ff9801"/><path id="Shape" d="m60 12.93c-3.38-6.85-8.91-6.46-10.54-6.18 2.34.38 5.38 1.8 7.54 6.18-1.1943761.0261438-2.3645519.341851-3.41.92-.5852186.3834435-.7619995 1.1612797-.4 1.76 5.0166867 8.747639 5.1290351 19.4732933.2966873 28.3240982-4.8323477 8.850805-13.9155289 14.5558994-23.9866873 15.0659018 2.1918308.1147652 4.3895896-.0228044 6.55-.41 14.1477809-2.5979934 24.3046261-15.1000308 23.95-29.48-.1507245-5.1110861-1.6552763-10.0906004-4.36-14.43 1.41-1.75 4.36-1.75 4.36-1.75z" fill="#f57c00"/><path id="Shape" d="m29 16.2c0 5-4 10.8-9 10.8-4.9705627 0-9-4.0294373-9-9s4.0294373-9 9-9c5 0 9 3.6 9 7.2z" fill="#f5f5f5"/><path id="Shape" d="m20 9c-.4860987.00311866-.9710988.04660143-1.45.13 4.23.65 7.45 3.87 7.45 7.07 0 4.51-3.32 9.72-7.66 10.64.5472456.1041986 1.1029272.1577582 1.66.16 5 0 9-5.83 9-10.8 0-3.6-4-7.2-9-7.2z" fill="#cfd8dc"/><circle id="Oval" cx="22" cy="16" fill="#37474f" r="3"/><path id="Shape" d="m33 16.2c0 5 4 10.8 9 10.8 4.9705627 0 9-4.0294373 9-9s-4.0294373-9-9-9c-5 0-9 3.6-9 7.2z" fill="#f5f5f5"/><path id="Shape" d="m42 9c-.5192912.00228201-1.0375833.04575167-1.55.13 4.2903507.72544367 7.4472884 4.4163813 7.4988806 8.7673255.0515923 4.3509443-3.016938 8.1157017-7.2888806 8.9426745.4392284.1035555.8887377.1572283 1.34.16 4.9705627 0 9-4.0294373 9-9s-4.0294373-9-9-9z" fill="#cfd8dc"/><circle id="Oval" cx="40" cy="16" fill="#37474f" r="3"/><path id="Shape" d="m55.19 28c.08 5.35-1.11 16.51-11.53 21.5-1.35-4.88-6.5-8.5-12.66-8.5s-11.31 3.62-12.66 8.48c-10.42-4.99-11.61-16.15-11.53-21.48.00941037-.406202.26366425-.7663287.64328731-.911156.37962305-.1448273.80913707-.04556 1.08671269.251156 1.5742429 1.6424162 3.4750559 2.9368766 5.58 3.8-.37681 2.670825.0623917 5.3931785 1.26 7.81.3624274.7577936 1.1597539 1.2083631 1.9958921 1.1278792s1.5328811-.6748675 1.7441079-1.4878792c.4708661-1.9147342 1.3247007-3.7142501 2.51-5.29 3.0981037.4963064 6.2325427.7304694 9.37.7 3.138021.0238573 6.2724635-.2169964 9.37-.72 1.1852993 1.5757499 2.0391339 3.3752658 2.51 5.29.2112268.8130117.9079697 1.4073953 1.7441079 1.4878792s1.6334647-.3700856 1.9958921-1.1278792c1.1976083-2.4168215 1.63681-5.139175 1.26-7.81 2.1049441-.8631234 4.0057571-2.1575838 5.58-3.8.2800985-.2991826.7143962-.3971709 1.0958247-.2472453.3814286.1499257.6327651.5174119.6341753.9272453z" fill="#37474f"/><path id="Shape" d="m43.66 49.48c-3.975926 1.7840865-8.3039491 2.6455888-12.66 2.52-4.3560509.1255888-8.684074-.7359135-12.66-2.52 1.35-4.86 6.5-8.48 12.66-8.48s11.31 3.62 12.66 8.48z" fill="#ef314c"/><path id="Shape" d="m31 41c-.5010337.0011903-1.0016819.0278915-1.5.08 5.48.53 9.92 3.94 11.16 8.4-3.5055142 1.6032834-7.3056892 2.4613874-11.16 2.52h1.5c4.3560509.1255888 8.684074-.7359135 12.66-2.52-1.35-4.86-6.5-8.48-12.66-8.48z" fill="#bb193b"/><path id="Shape" d="m21.63 33.28c-1.1852993 1.5757499-2.0391339 3.3752658-2.51 5.29-.2112268.8130117-.9079697 1.4073953-1.7441079 1.4878792s-1.6334647-.3700856-1.9958921-1.1278792c-1.1976083-2.4168215-1.63681-5.139175-1.26-7.81 2.4021998 1.0338998 4.9255766 1.7596647 7.51 2.16z" fill="#f5f5f5"/><path id="Shape" d="m14.12 31.12c0 .31-.07.68-.09 1.08 1.5071023.4637713 3.0439752.8246024 4.6 1.08-1.1852993 1.5757499-2.0391339 3.3752658-2.51 5.29-.0856466.2840696-.2362948.5442801-.44.76.4803149.5578917 1.2282819.8068164 1.9471172.648004.7188352-.1588125 1.2923123-.6996842 1.4928828-1.408004.4708661-1.9147342 1.3247007-3.7142501 2.51-5.29-2.5844234-.4003353-5.1078002-1.1261002-7.51-2.16z" fill="#cfd8dc"/><path id="Shape" d="m46.62 38.93c-.3624274.7577936-1.1597539 1.2083631-1.9958921 1.1278792s-1.5328811-.6748675-1.7441079-1.4878792c-.4708661-1.9147342-1.3247007-3.7142501-2.51-5.29 2.5844234-.4003353 5.1078002-1.1261002 7.51-2.16.37681 2.670825-.0623917 5.3931785-1.26 7.81z" fill="#f5f5f5"/><path id="Shape" d="m47.88 31.12c-.9360862.420806-1.8980352.7815369-2.88 1.08.1655455 2.3240533-.3009438 4.6495889-1.35 6.73-.0802215.1470808-.1812645.2818047-.3.4.4352708.5059478 1.0942363.761432 1.7568025.6811209.6625663-.080311 1.2414099-.4858327 1.5431975-1.0811209 1.1873567-2.4199972 1.6160778-5.142202 1.23-7.81z" fill="#cfd8dc"/><g fill="#000"><path id="Shape" d="m20 28c5.63 0 10-6.34 10-11.8 0-4.37-4.67-8.2-10-8.2-5.5228475 0-10 4.4771525-10 10s4.4771525 10 10 10zm0-18c4.58 0 8 3.27 8 6.2 0 4.44-3.57 9.8-8 9.8-4.418278 0-8-3.581722-8-8s3.581722-8 8-8z"/><path id="Shape" d="m22 20c2.209139 0 4-1.790861 4-4s-1.790861-4-4-4-4 1.790861-4 4 1.790861 4 4 4zm0-6c1.1045695 0 2 .8954305 2 2s-.8954305 2-2 2-2-.8954305-2-2 .8954305-2 2-2z"/><path id="Shape" d="m42 28c5.5228475 0 10-4.4771525 10-10s-4.4771525-10-10-10c-5.33 0-10 3.83-10 8.2 0 5.46 4.37 11.8 10 11.8zm0-18c4.418278 0 8 3.581722 8 8s-3.581722 8-8 8c-4.43 0-8-5.36-8-9.8 0-2.93 3.42-6.2 8-6.2z"/><path id="Shape" d="m44 16c0-2.209139-1.790861-4-4-4s-4 1.790861-4 4 1.790861 4 4 4 4-1.790861 4-4zm-6 0c0-1.1045695.8954305-2 2-2s2 .8954305 2 2-.8954305 2-2 2-2-.8954305-2-2z"/><path id="Shape" d="m52.72 26.65c-2.17 2.35-7.88 6.35-21.72 6.35s-19.55-4-21.72-6.35c-.55769899-.6045337-1.42863838-.8059994-2.19516111-.5077845-.76652272.2982149-1.27232041 1.0352987-1.27483889 1.8577845-.06 4.37.7 12.59 6.47 18.43 4.32 4.35 10.62 6.57 18.72 6.57s14.4-2.22 18.72-6.6c5.77-5.84 6.53-14.06 6.47-18.43-.0146219-.817031-.5248182-1.5429899-1.2885853-1.8335296-.7637671-.2905396-1.627466-.0872152-2.1814147.5135296zm-7 11.81c-.1916764.3664454-.589143.5771028-1 .53-.3990237-.0369119-.7374782-.3084626-.86-.69-.4072757-1.5050277-1.0090125-2.9505407-1.79-4.3 1.6781843-.3426834 3.3266525-.8174958 4.93-1.42.0925774 2.035736-.3413961 4.0609457-1.26 5.88zm-30.72-5.88c1.6033475.6025042 3.2518157 1.0773166 4.93 1.42-.7748468 1.3536167-1.3698638 2.8024998-1.77 4.31-.1225218.3815374-.4609763.6530881-.86.69-.410857.0471028-.8083236-.1635546-1-.53-.9341212-1.818336-1.3819623-3.8474011-1.3-5.89zm4.57 16.34c1.6-4.12 6.16-6.92 11.43-6.92s9.83 2.8 11.42 6.92c-3.626506 1.4596247-7.511748 2.1672694-11.42 2.08-3.908252.0872694-7.793494-.6203753-11.42-2.08zm28.73-3.92c-1.2086302 1.1910308-2.5827878 2.2014407-4.08 3-1.94-4.75-7.22-8-13.22-8s-11.28 3.25-13.22 8c-1.4972122-.7985593-2.8713698-1.8089692-4.08-3-5.25-5.33-5.95-12.94-5.9-17 1.49369716 1.5772492 3.2758433 2.8536053 5.25 3.76-.2429127 2.6322638.2595596 5.2797731 1.45 7.64.5237133.9926561 1.5577066 1.6099655 2.68 1.6.1131279.0096508.2268721.0096508.34 0 1.2079056-.1292261 2.2186507-.9741459 2.56-2.14.4148792-1.590351 1.0907208-3.100857 2-4.47 2.9533395.4313243 5.9354369.635257 8.92.61 3.0117683.0227512 6.0207727-.1878791 9-.63.9092792 1.369143 1.5851208 2.879649 2 4.47.3232063 1.1493427 1.2971695 1.9976332 2.48 2.16.1131279.0096508.2268721.0096508.34 0 1.1222934.0099655 2.1562867-.6073439 2.68-1.6 1.2090001-2.3583587 1.728872-5.0097056 1.5-7.65 1.954665-.9052807 3.7167392-2.1784558 5.19-3.75.06 4.06-.64 11.67-5.89 17z"/><path id="Shape" d="m60 13.93c.3455015.0006914.6668845-.1770145.85-.47.1786328-.3094011.1786328-.6905989 0-1-2.68-5.46-6.78-6.68-9.45-6.8.9544618-1.01015924 2.2238506-1.66601012 3.6-1.86.4608398-.0027311.8601381-.32004622.96688-.76836191.1067418-.44831569-.1067173-.91152544-.51688-1.12163809-4.7062055-2.39820862-10.2432003-2.54517596-15.07-.4-6.0934395-1.99986937-12.6665605-1.99986937-18.76 0-4.8267997-2.14517596-10.3637945-1.99820862-15.07.4-.40959364.19627059-.6354741.64392459-.55 1.09.09647363.47312322.51723924.80973571 1 .8 1.37639419.19322113 2.64602349.84919627 3.6 1.86-2.67.12-6.77 1.34-9.5 6.83-.17863279.3094011-.17863279.6905989 0 1 .18311545.2929855.50449853.4706914.85.47 1.09682292.0251361 2.1670313.3427464 3.1.92-7.3672964 12.6040488-4.59157053 28.6816672 6.5753479 38.0858702 11.1669185 9.404203 27.4823857 9.404203 38.6493042 0 11.1669184-9.404203 13.9426443-25.4818214 6.5753479-38.0858702.9409693-.6039914 2.0319924-.9330302 3.15-.95zm-1 16.07c-.003337 11.8816786-7.5052441 22.4674408-18.7145639 26.407675s-23.6848598.3768268-31.12199192-8.8894218c-7.43713208-9.2662486-8.21617976-22.2173125-1.94344418-32.3082532.22679146-.3619368.19866927-.8279617-.07-1.16-.93313928-1.0253993-2.18304179-1.7084446-3.55-1.94 3.59-5.76 8.89-4.37 9.12-4.3.4123699.11963715.8550859-.03732579 1.1-.39.2519556-.34930665.2519556-.82069335 0-1.17-1.0325336-1.45835393-2.3745145-2.67057586-3.93-3.55 3.7098332-1.14771407 7.7144569-.86956567 11.23.78.1371327.06641966.2876302.10062363.44.1.1159548-.0001364.2310025-.02043893.34-.06 5.8951241-2.01981039 12.2948759-2.01981039 18.19 0 .0949801.03986496.1969934.06026762.3.06.12642-.00209016.2515536-.02576409.37-.07h.07c3.5260882-1.67231137 7.5511492-1.96134501 11.28-.81-1.5482414.88180596-2.8832106 2.09386241-3.91 3.55-.2519556.34930665-.2519556.82069335 0 1.17.2449141.35267421.6876301.50963715 1.1.39.24-.07 5.51-1.51 9.13 4.3-1.3707993.2286952-2.624759.9120328-3.56 1.94-.2686693.3320383-.2967915.7980632-.07 1.16 2.7575604 4.4393395 4.212822 9.5639393 4.2 14.79z"/></g></g></g></svg>