<svg height="512" viewBox="0 0 60 60" width="512" xmlns="http://www.w3.org/2000/svg"><g id="Page-1" fill="none" fill-rule="evenodd"><g id="014---Annoyed" fill-rule="nonzero"><circle id="Oval" cx="30" cy="30" fill="#02a9f4" r="29"/><path id="Shape" d="m30 1c-.5 0-1 0-1.5 0 16.0162576.00000024 28.9999996 12.9837424 28.9999996 29s-12.983742 28.9999998-28.9999996 29h1.5c16.0162576-.0000002 28.9999996-12.9837424 28.9999996-29s-12.983742-28.99999976-28.9999996-29z" fill="#0377bc"/><path id="Shape" d="m27 23c0 4.418278-3.581722 8-8 8s-8-3.581722-8-8c-.0032479-1.4057998.369642-2.7868738 1.08-4h11.92c.5817039.0035927 1.1564676-.1264134 1.68-.38.8661925 1.296051 1.3258123 2.8211531 1.32 4.38z" fill="#f5f5f5"/><path id="Shape" d="m25.68 18.62c-.5235324.2535866-1.0982961.3835927-1.68.38h-1.1c.7178106 1.2109578 1.0976752 2.5922836 1.1 4-.0038932 3.8368157-2.7312294 7.1305987-6.5 7.85.493673.1003847.9962245.1506399 1.5.15 4.418278 0 8-3.581722 8-8 .0058123-1.5588469-.4538075-3.083949-1.32-4.38z" fill="#cfd8dc"/><path id="Shape" d="m49 23c.0028992 3.4195972-2.1680371 6.4629344-5.4023438 7.5733008s-6.8167532.0422169-8.9148664-2.6580746c-2.0981132-2.7002914-2.2479191-6.4355858-.3727898-9.2952262.5288156.2485858 1.1056732.3782934 1.69.38h11.92c.710358 1.2131262 1.0832479 2.5942002 1.08 4z" fill="#f5f5f5"/><path id="Shape" d="m47.92 19h-3c.710358 1.2131262 1.0832479 2.5942002 1.08 4-.0038932 3.8368157-2.7312294 7.1305987-6.5 7.85.493673.1003847.9962245.1506399 1.5.15 4.418278 0 8-3.581722 8-8 .0032479-1.4057998-.369642-2.7868738-1.08-4z" fill="#cfd8dc"/><path id="Shape" d="m43.92 46.71c-.1048802.7934284-.4544185 1.5344496-1 2.12-.3423214.353824-.7590482.6270874-1.22.8l-3.22-3.9c-.3945524-.4613333-.9772777-.718502-1.5840082-.6990555s-1.1717915.3134032-1.5359918.7990555l-1.8 2.5c-1.13629-.4281469-2.3465709-.6253274-3.56-.58-1.2134291-.0453274-2.42371.1518531-3.56.58l-1.8-2.5c-.3642003-.4856523-.9292613-.779609-1.5359918-.7990555s-1.1894558.2377222-1.5840082.6990555l-3.22 3.9c-.4609518-.1729126-.8776786-.446176-1.22-.8-.5455815-.5855504-.8951198-1.3265716-1-2.12-.1973833-2.0875332.2604988-4.1847032 1.31-6 2.4299228-4.7246689 7.2970893-7.6946087 12.61-7.6946087s10.1800772 2.9699398 12.61 7.6946087c1.0495012 1.8152968 1.5073833 3.9124668 1.31 6z" fill="#283593"/><path id="Shape" d="m26.44 48.33c-1.9994595 1.0189475-4.1973421 1.5888953-6.44 1.67-.5839824-.014445-1.1602909-.1364868-1.7-.36l3.22-3.9c.3945524-.4613333.9772777-.718502 1.5840082-.6990555s1.1717915.3134032 1.5359918.7990555z" fill="#f5f5f5"/><path id="Shape" d="m41.7 49.63c-.5390544.226944-1.1153866.352381-1.7.37-2.2268105-.0775439-4.4103201-.6370683-6.4-1.64l1.8-2.5c.3642003-.4856523.9292613-.779609 1.5359918-.7990555s1.1894558.2377222 1.5840082.6990555z" fill="#f5f5f5"/><g fill="#000"><path id="Shape" d="m30 0c-16.5685425 0-30 13.4314575-30 30s13.4314575 30 30 30 30-13.4314575 30-30c0-7.9564947-3.1607052-15.5871121-8.7867966-21.21320344-5.6260913-5.62609135-13.2567087-8.78679656-21.2132034-8.78679656zm0 58c-15.463973 0-28-12.536027-28-28s12.536027-28 28-28 28 12.536027 28 28-12.536027 28-28 28z"/><path id="Shape" d="m13.74 32.66c-3.5377093-1.9261569-5.73968158-5.6319152-5.74-9.66 0-.5522847-.44771525-1-1-1s-1 .4477153-1 1c-.00001603 4.7552806 2.59634281 9.1311232 6.77 11.41.1484276.076951.3128222.1180497.48.12.3664539.0010002.7041028-.1985196.88-.52.2613549-.4809005.0875426-1.0825587-.39-1.35z"/><path id="Shape" d="m46.26 32.66c-.4717169.2671223-.6446955.8614592-.39 1.34.1758972.3214804.5135461.5210002.88.52.1671778-.0019503.3315724-.043049.48-.12 4.170513-2.2771582 6.7663601-6.648304 6.77-11.4 0-.5522847-.4477153-1-1-1s-1 .4477153-1 1c-.0003184 4.0280848-2.2022907 7.7338431-5.74 9.66z"/><path id="Shape" d="m9 20h1.54c-1.41887624 3.8654298-.0335113 8.2008234 3.3639441 10.5272056 3.3974553 2.3263822 7.9404386 2.0503808 11.0312749-.6701869 3.0908363-2.7205676 3.9411701-7.1917873 2.064781-10.8570187 1.2590292-.9442719 2-2.4262135 2-4v-5c0-.55228475-.4477153-1-1-1s-1 .44771525-1 1v5c0 1.6568542-1.3431458 3-3 3h-15c-.55228475 0-1 .4477153-1 1s.44771525 1 1 1zm16.22-.17c1.3337244 2.5836469.9314336 5.7227755-1.0106977 7.8866096s-5.0196916 2.9017967-7.731928 1.8540251c-2.7122365-1.0477716-4.4943779-3.6630992-4.4773743-6.5706347-.0010279-1.0405882.238544-2.0673247.7-3h11.3c.4121825-.0053347.8220607-.0624489 1.22-.17z"/><path id="Shape" d="m33 15v-5c0-.55228475-.4477153-1-1-1s-1 .44771525-1 1v5c0 1.5737865.7409708 3.0557281 2 4-1.8631287 3.6650322-1.0057094 8.1267283 2.0831816 10.8401141 3.0888909 2.7133858 7.6238854 2.9885675 11.0181994.66858 3.3943141-2.3199874 4.7849241-6.6452739 3.378619-10.5086941h1.52c.5522847 0 1-.4477153 1-1s-.4477153-1-1-1h-15c-1.6568542 0-3-1.3431458-3-3zm15 8c.0170036 2.9075355-1.7651378 5.5228631-4.4773743 6.5706347-2.7122364 1.0477716-5.7897967.309809-7.731928-1.8540251s-2.3444221-5.3029627-1.0106977-7.8866096c.3979393.1075511.8078175.1646653 1.22.17h11.3c.461456.9326753.7010279 1.9594118.7 3z"/><path id="Shape" d="m30 32c-5.6807825.0274136-10.8787072 3.2000729-13.5 8.24-1.1639907 2.003478-1.6579719 4.3262404-1.41 6.63.1415373.9956218.5847674 1.923962 1.27 2.66.9740762.947671 2.2810023 1.4754681 3.64 1.47h.34c2.2554941-.147658 4.4602771-.7353737 6.49-1.73 1.0113544-.3832272 2.0892142-.5600371 3.17-.52 1.09415-.0454395 2.1861523.1314581 3.21.52 2.112275 1.0590852 4.4284662 1.6492193 6.79 1.73 1.3437573-.0022719 2.6342559-.5256408 3.6-1.46.6852326-.736038 1.1284627-1.6643782 1.27-2.66.2479719-2.3037596-.2460093-4.626522-1.41-6.63-2.6118883-5.0311531-7.7914453-8.2058444-13.46-8.25zm-9.88 17 2.17-2.62c.1906301-.2349915.4774116-.3710289.78-.37.3023276.0146053.5817713.1653578.76.41l1.06 1.48c-1.498994.6862238-3.1218726 1.0604726-4.77 1.1zm15-1.1 1.06-1.47c.1761626-.248423.4559288-.4030307.76-.42.3025884-.0010289.5893699.1350085.78.37l2.16 2.62c-1.6488252-.0426705-3.2717348-.4203287-4.77-1.11zm7.82-1.33c-.0773924.5836182-.3282192 1.1305599-.72 1.57-.0854794.0787131-.1756442.1521807-.27.22l-2.69-3.26c-.584819-.7150792-1.4664652-1.1208578-2.39-1.1-.9247414.0365171-1.7808678.4977921-2.32 1.25l-1.37 1.9c-1.035531-.2841481-2.1063569-.4188431-3.18-.4-1.0736431-.0188431-2.144469.1158519-3.18.4l-1.37-1.91c-.545849-.7358322-1.3980191-1.1818996-2.3137407-1.2111247-.9157216-.0292252-1.7946009.3615959-2.3862593 1.0611247l-2.69 3.26c-.0943558-.0678193-.1845206-.1412869-.27-.22-.3917808-.4394401-.6426076-.9863818-.72-1.57-.169481-1.8840623.2497947-3.774297 1.2-5.41 2.2651099-4.3890192 6.7909503-7.1463152 11.73-7.1463152s9.4648901 2.757296 11.73 7.1463152c.9502053 1.635703 1.369481 3.5259377 1.2 5.41z"/></g></g></g></svg>