<svg height="512" viewBox="0 0 60 60" width="512" xmlns="http://www.w3.org/2000/svg"><g id="Page-1" fill="none" fill-rule="evenodd"><g id="016---Heart-Eyed" fill-rule="nonzero"><path id="Shape" d="m57.87 40.9c-3.46 10.46-14.63 18.1-27.87 18.1s-24.41-7.64-27.87-18.1c3.39998511-.5665476 5.8815269-3.5238797 5.8491283-6.970592-.0323986-3.4467122-2.56909398-6.3568736-5.9791283-6.859408 1.45551097-5.3795249 4.0053345-10.4008729 7.49-14.75.85-1 1.74-2 2.67-3 2.3601317-2.43516606 5.1073083-4.46260267 8.13-6 1.1002333 4.46849938 5.1080439 7.6092052 9.71 7.6092052s8.6097667-3.14070582 9.71-7.6092052c9 4.42 15.89 14.35 18.34 23.7-3.4126331.4894202-5.960808 3.390749-6.0056747 6.8380064s2.4269352 6.4139221 5.8256747 6.9919936z" fill="#ff9801"/><path id="Shape" d="m55.2 39.81c-2.91 10.61-13.67 18.56-26.7 19.19h1.5c13.24 0 24.41-7.64 27.87-18.1z" fill="#f57c00"/><path id="Shape" d="m58.05 27.07c-2.45-9.35-9.38-19.28-18.34-23.7-.1188912.49151748-.2760369.97298513-.47 1.44 8 5.08 14 14.47 16 23.18z" fill="#f57c00"/><path id="Shape" d="m8 34c-.00401007 3.4267459-2.48819523 6.3468273-5.87 6.9-.75045994-2.2229791-1.13216826-4.5537644-1.13-6.9.03864934-2.3430164.37467029-4.6716416 1-6.93 3.44468228.4971969 6.00089333 3.4496207 6 6.93z" fill="#ffdc00"/><path id="Shape" d="m39.71 3.37c-1.1002333 4.46849938-5.1080439 7.6092052-9.71 7.6092052s-8.6097667-3.14070582-9.71-7.6092052c3.0095677-1.53099506 6.3335112-2.34229744 9.71-2.37 3.3764888.02770256 6.7004323.83900494 9.71 2.37z" fill="#ffdc00"/><path id="Shape" d="m59 34c.0021683 2.3462356-.3795401 4.6770209-1.13 6.9-3.3987395-.5780715-5.8705414-3.5447362-5.8256747-6.9919936s2.5930416-6.3485862 6.0056747-6.8380064c.6084386 2.2605338.9276534 4.5891217.95 6.93z" fill="#ffdc00"/><path id="Shape" d="m58.05 27.07c-.9837985.1331361-1.9280252.4740122-2.77 1 .4585957 1.9439514.7000732 3.9327869.72 5.93-.0024616 1.9817542-.2783978 3.9536886-.82 5.86.8179804.5155364 1.733893.8560243 2.69 1 .7461669-2.2102622 1.1278177-4.5271865 1.13-6.86-.0223466-2.3408783-.3415614-4.6694662-.95-6.93z" fill="#fec108"/><path id="Shape" d="m49.47 39.52c-1.13 4-4.5 11.76-14 13.9l-4-4c-.7800749-.7754472-2.0399251-.7754472-2.82 0l-4 4c-9.55-2.14-12.92-9.85-14-13.9-.1575457-.580769-.0452211-1.2016063.305827-1.6903584.3510481-.488752.9035029-.793464 1.504173-.8296416h3.4l3.52 4.11c.396027.4601925.9796542.7155767 1.5864136.6941846.6067593-.0213922 1.1709519-.3172444 1.5335864-.8041846l3-4h9l3 4c.3642003.4856523.9292613.779609 1.5359918.7990555s1.1894558-.2377222 1.5840082-.6990555l3.52-4.1h3.4c.6219953.0003785 1.2084091.2901217 1.5866039.7839304.3781947.4938087.505115 1.1354655.3433961 1.7360696z" fill="#37474f"/><path id="Shape" d="m25.5 37-3 4c-.3642003.4856523-.9292613.779609-1.5359918.7990555s-1.1894558-.2377222-1.5840082-.6990555l-3.52-4.1z" fill="#f5f5f5"/><path id="Shape" d="m35.42 53.42c-3.5719409.7734718-7.2680591.7734718-10.84 0l4-4c.7800749-.7754472 2.0399251-.7754472 2.82 0z" fill="#f5f5f5"/><path id="Shape" d="m44.14 37-3.52 4.11c-.396027.4601925-.9796542.7155767-1.5864136.6941846-.6067593-.0213922-1.1709519-.3172444-1.5335864-.8041846l-3-4z" fill="#f5f5f5"/><path id="Shape" d="m19 19c1.1523018-1.2694098 2.7855966-1.9953187 4.5-2 2.66 0 4.5 2.59 4.5 5.58s-1.9 8.15-9 10.42c-7.1-2.27-9-7.43-9-10.42s1.84-5.58 4.5-5.58c1.7144034.0046813 3.3476982.7305902 4.5 2z" fill="#e91e63"/><path id="Shape" d="m23.5 17c-.5552464.0022986-1.1073785.0830984-1.64.24 1.91.76 3.14 2.89 3.14 5.34 0 2.77-1.63 7.38-7.5 9.86.47.2 1 .39 1.5.56 7.1-2.27 9-7.43 9-10.42s-1.84-5.58-4.5-5.58z" fill="#ad1457"/><path id="Shape" d="m41 19c1.1523018-1.2694098 2.7855966-1.9953187 4.5-2 2.66 0 4.5 2.59 4.5 5.58s-1.9 8.15-9 10.42c-7.1-2.27-9-7.43-9-10.42s1.84-5.58 4.5-5.58c1.7144034.0046813 3.3476982.7305902 4.5 2z" fill="#e91e63"/><path id="Shape" d="m45.5 17c-.5552464.0022986-1.1073785.0830984-1.64.24 1.91.76 3.14 2.89 3.14 5.34 0 2.77-1.63 7.38-7.5 9.86.47.2 1 .39 1.5.56 7.1-2.27 9-7.43 9-10.42s-1.84-5.58-4.5-5.58z" fill="#ad1457"/><g fill="#000"><path id="Shape" d="m40.42 2.69c-.112559-.13136825-.2572725-.2312895-.42-.29h-.12c-3.0670746-1.54336495-6.4466854-2.36432304-9.88-2.4-8.24 0-14.63 4.7-18.55 8.63-.9605752.9527799-1.87176656 1.9540891-2.73 3l-.07.09c-3.56642104 4.4616075-6.17102782 9.6129409-7.65 15.13-.00423982.0298502-.00423982.0601498 0 .09-.62500511 2.3027195-.96092134 4.6742881-1 7.06 0 14.34 13.46 26 30 26s30-11.66 30-26c0-11.58-8.43-25.54-19.58-31.31zm-1.9 1.19c-1.2589329 3.61757447-4.669627 6.04196011-8.5 6.04196011s-7.2410671-2.42438564-8.5-6.04196011c5.3886858-2.51015915 11.6113142-2.51015915 17 0zm-36.52 30.12c.01975889-1.9333712.25453608-3.8585441.7-5.74 2.54498112.7518813 4.29374877 3.0862827 4.3 5.74.01367634 2.6162723-1.68884397 4.9323501-4.19 5.7-.53743966-1.8522971-.81014147-3.7713098-.81-5.7zm28 24c-12.34 0-22.83-6.88-26.55-16.39 3.31726784-1.0470403 5.56674201-4.1314545 5.55-7.61-.00387034-3.563907-2.36477689-6.6954722-5.79-7.68 1.47823084-4.8513067 3.87503132-9.3733156 7.06-13.32l.06-.08c.84-1 1.7-2 2.54-2.83 2.018345-2.05281154 4.3139206-3.81320163 6.82-5.23 1.598402 4.31486586 5.7135919 7.178904 10.315 7.178904s8.716598-2.86403814 10.315-7.178904c8 4.39 14 13.28 16.45 21.55-3.362447.9902495-5.6886585 4.0540848-5.7391212 7.5589524-.0504628 3.5048677 2.1865772 6.6344042 5.5191212 7.7210476-3.72 9.43-14.21 16.31-26.55 16.31zm28-24c.0001415 1.9286902-.2725603 3.8477029-.81 5.7-2.501156-.7676499-4.2036763-3.0837277-4.19-5.7.0080175-2.6444984 1.7464749-4.9719191 4.28-5.73.4584388 1.8761621.7000197 3.7987436.72 5.73z"/><path id="Shape" d="m47.54 36h-35.08c-.9344114.0012814-1.814869.4378834-2.3814586 1.1809195-.5665895.7430361-.75460418 1.7076486-.5085414 2.6090805 1.27 4.58 5.81 15.21 20.43 15.21s19.16-10.63 20.43-15.21c.2460628-.9014319.0580481-1.8660444-.5085414-2.6090805-.5665896-.7430361-1.4470472-1.1796381-2.3814586-1.1809195zm-5.54 2-2.11 2.46c-.1972762.2306666-.4886389.359251-.7920041.3495277-.3033652-.0097232-.5858957-.1567016-.7679959-.3995277l-1.83-2.41zm-18.5 0-1.8 2.41c-.1821002.2428261-.4646307.3898045-.7679959.3995277-.3033652.0097233-.5947279-.1188611-.7920041-.3495277l-2.14-2.46zm3.15 14.76 2.65-2.64c.3888435-.3811429 1.0111565-.3811429 1.4 0l2.65 2.64c-2.2218704.3200029-4.4781296.3200029-6.7 0zm21.86-13.5c-1.19 4.27-4.39 10.93-12.78 13.05l-3.61-3.61c-1.1712702-1.1698135-3.0687298-1.1698135-4.24 0l-3.61 3.61c-8.39-2.12-11.59-8.78-12.78-13.05-.0787004-.2975529-.0159946-.6147705.17-.86.1888544-.2518058.4852427-.4.8-.4h2.94l3.22 3.76c.570008.6664133 1.4030645 1.0500577 2.28 1.05h.1c.9124725-.0277019 1.7626847-.4693706 2.31-1.2l2.69-3.61h8l2.7 3.61c.545147.7279424 1.391076 1.1692967 2.3 1.2h.09c.8769355.0000577 1.709992-.3835867 2.28-1.05l3.23-3.76h2.94c.3147573 0 .6111456.1481942.8.4.1859946.2452295.2487004.5624471.17.86z"/><path id="Shape" d="m18.7 34c.1943804.0670499.4056196.0670499.6 0 7.16-2.29 9.7-7.56 9.7-11.37s-2.42-6.63-5.5-6.63c-1.6427945 0-3.234164.572893-4.5 1.62-1.265836-1.047107-2.8572055-1.62-4.5-1.62-3.08 0-5.5 2.89-5.5 6.58s2.54 9.08 9.7 11.42zm-4.2-16c1.41517.0044949 2.7653649.5945265 3.73 1.63.18842.232277.4709167.3680222.77.37.2990833-.0019778.58158-.137723.77-.37.9646351-1.0354735 2.31483-1.6255051 3.73-1.63 2.19 0 3.5 2.33 3.5 4.58 0 3.09-2.1 7.36-8 9.37-5.9-2-8-6.28-8-9.37 0-2.25 1.31-4.58 3.5-4.58z"/><path id="Shape" d="m40.7 34c.1945074.0662879.4054926.0662879.6 0 7.16-2.29 9.7-7.56 9.7-11.37s-2.42-6.63-5.5-6.63c-1.6427945 0-3.234164.572893-4.5 1.62-1.265836-1.047107-2.8572055-1.62-4.5-1.62-3.08 0-5.5 2.89-5.5 6.58s2.54 9.08 9.7 11.42zm-4.2-16c1.41517.0044949 2.7653649.5945265 3.73 1.63.18842.232277.4709167.3680222.77.37.2990833-.0019778.58158-.137723.77-.37.9646351-1.0354735 2.31483-1.6255051 3.73-1.63 2.19 0 3.5 2.33 3.5 4.58 0 3.09-2.1 7.36-8 9.37-5.9-2-8-6.28-8-9.37 0-2.25 1.31-4.58 3.5-4.58z"/></g></g></g></svg>