<svg height="512" viewBox="0 0 60 61" width="512" xmlns="http://www.w3.org/2000/svg"><g id="Page-1" fill="none" fill-rule="evenodd"><g id="022---Angry" fill-rule="nonzero" transform="translate(-1 -1)"><path id="Shape" d="m54 33.19c-.1659614 4.1516572-1.3287033 8.2023891-3.39 11.81-1.79-1.88-4.27-2.43-5.67-1.23s-1.19 4 .62 6.08c.15.17.31.34.47.49-1.4588481 1.1645782-3.0790897 2.1111227-4.81 2.81-.0455231-.3486896-.1190949-.6931396-.22-1.03-.77-2.65-2.9-4.36-4.76-3.82s-2.73 3.13-2 5.78c.0700944.2489216.1569597.4928125.26.73-2.3532003.2533556-4.7267997.2533556-7.08 0 .1030403-.2371875.1899056-.4810784.26-.73.77-2.65-.1-5.24-2-5.78s-4 1.17-4.76 3.82c-.1019645.3433846-.1755453.6945658-.22 1.05-1.6923819-.7082784-3.2750076-1.6544865-4.7-2.81.16-.15.32-.32.47-.49 1.81-2.09 2.08-4.81.62-6.08s-3.88-.65-5.67 1.23c-2.07486956-3.610877-3.24805369-7.6689964-3.42-11.83 1.34316671-.799711 2.7595876-1.4694136 4.23-2 1.74 4 4.74 6.5 6.75 5.64 1.84-.78 2.21-4.15 1-7.81 2.3186218-.4460942 4.6634122-.7433682 7.02-.89 0 4.36 1.81 7.87 4 7.87s4-3.51 4-7.87c2.3492731.1428742 4.6872268.4334485 7 .87-1.14 3.57-.75 6.8 1.05 7.57 2 .84 4.9-1.57 6.65-5.42 1.4941138.5437006 2.9337855 1.2267076 4.3 2.04z" fill="#37474f"/><path id="Shape" d="m16.44 49.87c-.15.17-.31.34-.47.49-1.8382514-1.4949877-3.3900435-3.3110588-4.58-5.36 1.79-1.88 4.27-2.43 5.67-1.23s1.19 4.01-.62 6.1z" fill="#f5f5f5"/><path id="Shape" d="m17.06 43.79c-1.0057446-.7411269-2.3417044-.8569615-3.46-.3.1627934.084685.3168676.1851682.46.3 1.21 1.05 1.21 3.09.16 5 .5584237.56163 1.1530294 1.0860856 1.78 1.57.16-.15.32-.32.47-.49 1.78-2.09 2.05-4.81.59-6.08z" fill="#cfd8dc"/><path id="Shape" d="m19 36.83c-2 .86-5-1.66-6.75-5.64 2.4945236-.9529795 5.0676773-1.6857762 7.69-2.19 1.25 3.68.88 7.05-.94 7.83z" fill="#f5f5f5"/><path id="Shape" d="m19.94 29c-1 .19-1.93.41-2.8.63.89 3 .65 5.78-.65 6.86.7357858.4861716 1.6551941.6043285 2.49.32 1.84-.76 2.21-4.13.96-7.81z" fill="#cfd8dc"/><path id="Shape" d="m27.72 54.08c-.0700944.2489216-.1569597.4928125-.26.73-2.2935801-.2247366-4.5431149-.7770176-6.68-1.64.0444547-.3554342.1180355-.7066154.22-1.05.77-2.65 2.9-4.36 4.76-3.82s2.73 3.13 1.96 5.78z" fill="#f5f5f5"/><path id="Shape" d="m25.76 48.3c-.7717572-.2018731-1.5929086-.0674368-2.26.37 1.33.93 1.88 3.14 1.22 5.41l-.09.26c.9339997.2084501 1.8787608.3653539 2.83.47.1030403-.2371875.1899056-.4810784.26-.73.77-2.65-.1-5.24-1.96-5.78z" fill="#cfd8dc"/><path id="Shape" d="m35 28.13c0 4.36-1.81 7.87-4 7.87s-4-3.51-4-7.87c1.27-.08 2.6-.13 4-.13s2.73.05 4 .13z" fill="#f5f5f5"/><path id="Shape" d="m31 28c-.5133333 0-1.0133333 0-1.5 0 .86 0 1.69 0 2.5.1 0 3.3-1.05 6.11-2.5 7.28.4104969.3782561.9422338.5980407 1.5.62 2.19 0 4-3.51 4-7.87-1.27-.08-2.6-.13-4-.13z" fill="#cfd8dc"/><path id="Shape" d="m41.22 53.17c-2.1368851.8629824-4.3864199 1.4152634-6.68 1.64-.1030403-.2371875-.1899056-.4810784-.26-.73-.77-2.65.1-5.24 2-5.78s4 1.17 4.76 3.82c.0884538.3445227.1486535.6956875.18 1.05z" fill="#f5f5f5"/><path id="Shape" d="m41 52.12c-.77-2.65-2.9-4.36-4.76-3.82-.2650302.0825594-.5149344.2075115-.74.37 1.2401383.7919369 2.1336026 2.0249176 2.5 3.45.1019645.3433846.1755453.6945658.22 1.05-1.2459924.5036981-2.5344313.8952496-3.85 1.17.06.16.11.32.17.47 2.2935801-.2247366 4.5431149-.7770176 6.68-1.64-.0444547-.3554342-.1180355-.7066154-.22-1.05z" fill="#cfd8dc"/><path id="Shape" d="m50.61 45c-1.1988902 2.0514576-2.7609895 3.8676944-4.61 5.36-.16-.15-.32-.32-.47-.49-1.81-2.09-2.08-4.81-.62-6.08s3.91-.65 5.7 1.21z" fill="#f5f5f5"/><path id="Shape" d="m45.4 43.49c.8342893.3430019 1.5872155.8574447 2.21 1.51-.7989295 1.3434971-1.7483908 2.5915523-2.83 3.72.2218393.4016284.4831289.7801634.78 1.13.15.17.31.34.47.49 1.8363895-1.4890468 3.3880716-3.2982132 4.58-5.34-1.61-1.67-3.77-2.27-5.21-1.51z" fill="#cfd8dc"/><path id="Shape" d="m49.67 31.15c-1.75 3.85-4.67 6.26-6.67 5.42-1.8-.77-2.19-4-1.05-7.57 2.6316304.4879088 5.2150075 1.2073727 7.72 2.15z" fill="#f5f5f5"/><path id="Shape" d="m42 29c-.07.21-.13.42-.18.62 1.6551775.414164 3.2846415.925041 4.88 1.53-.8392064 2.0814563-2.2896446 3.8596378-4.16 5.1.1535807.1308366.3253801.2386323.51.32 2 .84 4.9-1.57 6.65-5.42-2.4985158-.9414978-5.0751519-1.6609481-7.7-2.15z" fill="#cfd8dc"/><path id="Shape" d="m48.92 8.2c-1.7943475 1.22246219-3.7632859 2.1664738-5.84 2.8.6707603-.0011038 1.3402158.0591472 2 .18 2.88.51 5.43 2.51 5.87 5.42.2866437 2.1483967-.556619 4.2924772-2.23 5.67-1.7793964 1.4102964-4.0659294 2.0154486-6.31 1.67-1.1210605-.1240885-2.1969472-.5112707-3.14-1.13-1.6578766-1.1523206-2.7851478-2.9206598-3.13-4.91-.2669449-1.3418188-.1348349-2.7324502.38-4 .3120758-.7152066.8265307-1.3235148 1.48-1.75-1.81.21-3.06 0-3.25-.56-.35-1.05 2.78-3 7-4.38 1.3906057-.4480411 2.8152832-.78247244 4.26-1-9.2294262-5.55184216-20.7705738-5.55184216-30 0 1.4447168.21752756 2.8693943.5519589 4.26 1 4.2 1.37 7.33 3.33 7 4.38-.19.59-1.44.77-3.25.56.6697865.4231878 1.1988151 1.0357472 1.52 1.76.5148349 1.2675498.6469449 2.6581812.38 4-.3448522 1.9893402-1.4721234 3.7576794-3.13 4.91-.9430528.6187293-2.0189395 1.0059115-3.14 1.13-2.2440706.3454486-4.5306036-.2597036-6.31-1.67-1.673381-1.3775228-2.5166437-3.5216033-2.23-5.67.44-2.91 3-4.91 5.87-5.42.6597842-.1208528 1.3292397-.1811038 2-.18-2.0981911-.6310008-4.0877711-1.5785804-5.9-2.81-9.71935273 7.6388234-13.52789782 20.5991096-9.4863986 32.2817345 4.04149922 11.6826248 15.0444635 19.5190023 27.4063986 19.5190023s23.3648994-7.8363775 27.4063986-19.5190023c4.0414992-11.6826249.2329541-24.6429111-9.4863986-32.2817345zm-17.92 46.8c-23 0-23-21.81-23-21.81s8-5.19 23-5.19 23 5.19 23 5.19 0 21.81-23 21.81z" fill="#ff5722"/><path id="Shape" d="m25.88 17.88c-.3448522 1.9893402-1.4721234 3.7576794-3.13 4.91-.9430528.6187293-2.0189395 1.0059115-3.14 1.13-2.2440706.3454486-4.5306036-.2597036-6.31-1.67-1.673381-1.3775228-2.5166437-3.5216033-2.23-5.67.44-2.91 3-4.91 5.87-5.42.6597842-.1208528 1.3292397-.1811038 2-.18l.06.02c1.6250266.5438421 3.299838.9256992 5 1.14.6697865.4231878 1.1988151 1.0357472 1.52 1.76.5041879 1.2635009.6292866 2.6465366.36 3.98z" fill="#f5f5f5"/><path id="Shape" d="m25.5 13.91c-.3158138-.7215541-.837624-1.3338114-1.5-1.76-1.7005045-.2175531-3.3753231-.6027614-5-1.15h-.08c-.6707603-.0011038-1.3402158.0591472-2 .18l-.24.06c1.3975914.4312723 2.8294605.7424028 4.28.93.6697865.4231878 1.1988151 1.0357472 1.52 1.76.5148349 1.2675498.6469449 2.6581812.38 4-.3448522 1.9893402-1.4721234 3.7576794-3.13 4.91-.8561755.5635911-1.8256782.9322752-2.84 1.08.8933466.1415676 1.8020245.1583949 2.7.05 1.1210605-.1240885 2.1969472-.5112707 3.14-1.13 1.6578766-1.1523206 2.7851478-2.9206598 3.13-4.91.2772927-1.3462819.1520873-2.7444088-.36-4.02z" fill="#cfd8dc"/><path id="Shape" d="m27.23 11.59c-.19.59-1.44.77-3.25.56-1.6937404-.2188464-3.3617978-.6040404-4.98-1.15h-.08c-2.0767141-.6335262-4.0456525-1.57753781-5.84-2.8-.79-.61-1.19-1.2-1.08-1.57.22-.67 1.79-.81 4-.46 1.4447168.21752756 2.8693943.5519589 4.26 1 4.19 1.41 7.32 3.37 6.97 4.42z" fill="#ffdc00"/><circle id="Oval" cx="20" cy="17.98" fill="#37474f" r="2"/><path id="Shape" d="m48.7 22.25c-1.7793964 1.4102964-4.0659294 2.0154486-6.31 1.67-1.1210605-.1240885-2.1969472-.5112707-3.14-1.13-1.6578766-1.1523206-2.7851478-2.9206598-3.13-4.91-.2669449-1.3418188-.1348349-2.7324502.38-4 .3207395-.7105125.8421041-1.3118196 1.5-1.73 1.7005045-.2175531 3.3753231-.6027614 5-1.15h.08c.6707603-.0011038 1.3402158.0591472 2 .18 2.88.51 5.43 2.51 5.87 5.42.2746961 2.1453482-.5757046 4.2807989-2.25 5.65z" fill="#f5f5f5"/><path id="Shape" d="m50.93 16.58c-.44-2.91-3-4.91-5.87-5.42-.6597842-.1208528-1.3292397-.1811038-2-.18l-.06.02-.69.21c2.8122172.4349001 5.057528 2.5725317 5.63 5.36.2866437 2.1483967-.556619 4.2924772-2.23 5.67-1.0371436.8525756-2.2836279 1.4119397-3.61 1.62l.3.05c2.2440706.3454486 4.5306036-.2597036 6.31-1.67 1.6664047-1.377692 2.5054024-3.5167582 2.22-5.66z" fill="#cfd8dc"/><path id="Shape" d="m48.92 8.2c-1.7943475 1.22246219-3.7632859 2.1664738-5.84 2.8h-.08c-1.6250266.5438421-3.299838.9256992-5 1.14-1.81.21-3.06 0-3.25-.56-.35-1.05 2.78-3 7-4.38 1.3906057-.4480411 2.8152832-.78247244 4.26-1 2.18-.34 3.74-.21 4 .46.1.34-.3.93-1.09 1.54z" fill="#ffdc00"/><circle id="Oval" cx="42" cy="17.98" fill="#37474f" r="2"/><g fill="#000"><path id="Shape" d="m7.46 32.35c-.28616014.1835955-.4594336.5000079-.46.84 0 .23.27 22.81 24 22.81s24-22.58 24-22.81c-.0005664-.3399921-.1738399-.6564045-.46-.84-.33-.22-8.42-5.35-23.54-5.35s-23.21 5.13-23.54 5.35zm11.13 3.56c-1.15.5-3.39-1.17-5-4.15 1.8359999-.6487904 3.7135739-1.1733084 5.62-1.57.79 2.95.4 5.29-.62 5.72zm-5.95 9.31c1.33-1.08 2.92-1.4 3.76-.68s.72 2.84-.53 4.44c-1.2408949-1.102338-2.3273645-2.3670828-3.23-3.76zm14.14 8.49c-1.6575958-.2128184-3.2871596-.6051208-4.86-1.17.0044243-.0465618.0044243-.0934382 0-.14.6-2.08 2.22-3.52 3.52-3.14.6413663.2515066 1.1242904.7938675 1.3 1.46.3034665.9716256.3173659 2.0106041.04 2.99zm8.44-3c.1757096-.6661325.6586337-1.2084934 1.3-1.46 1.31-.38 2.92 1.06 3.52 3.14-.0033222.0499448-.0033222.1000552 0 .15-1.5746438.5566873-3.2036793.9455106-4.86 1.16-.275383-.9762666-.2614876-2.0114766.04-2.98zm10.92-1.71c-1.26-1.61-1.53-3.59-.55-4.44s2.45-.41 3.78.68c-.9026355 1.3929172-1.9891051 2.657662-3.23 3.76zm4.24-5.5c-2.05-1.57-4.52-1.81-6.1-.45-1.83 1.59-1.67 4.68.3 7.18-.8338274.5915648-1.717097 1.1101511-2.64 1.55-1-3.19-3.57-5.13-6-4.43-1.2820172.4123697-2.2704764 1.4421712-2.63 2.74-.3940516 1.2446955-.4321532 2.5747882-.11 3.84-.71 0-1.45.08-2.22.08s-1.51 0-2.22-.08c.3168918-1.2657894.2788319-2.5944267-.11-3.84-.3604471-1.3063917-1.3578493-2.3414318-2.65-2.75-2.4-.7-5 1.24-6 4.42-.922903-.4398489-1.8061726-.9584352-2.64-1.55 2-2.49 2.12-5.58.28-7.18-1.57-1.34-4-1.11-6.08.45-1.5083907-3.0310931-2.37964487-6.3391362-2.56-9.72.87914087-.4790824 1.7838252-.9097254 2.71-1.29 1.74 3.4 4.29 5.53 6.43 5.53.4228136.0019764.8415061-.0831237 1.23-.25 2.16-.92 2.87-4.1 1.85-7.94 1.48-.25 3.09-.46 4.83-.6.31 4.51 2.35 7.79 4.95 7.79s4.64-3.28 5-7.79c1.71.14 3.3.34 4.76.59-.9 3.72-.17 6.8 1.92 7.69.3832623.1599904.7946876.2415954 1.21.24 2.13 0 4.59-2 6.3-5.31.9611834.3933261 1.8993486.8407074 2.81 1.34-.1968718 3.3886809-1.0886853 6.7006449-2.62 9.73zm-7.69-13.32c1.8867871.3932173 3.7470952.9042176 5.57 1.53-1.6 2.91-3.73 4.41-4.85 3.94-.97-.41-1.41-2.58-.72-5.47zm-8.69-1.1c-.29 3.53-1.72 5.92-3 5.92s-2.71-2.39-3-5.92c1-.08 2-.08 3-.08s2 0 3 .08z"/><path id="Shape" d="m50.43 8.16c.4809552-.48139262.6711741-1.18139835.5-1.84-.5-1.53-2.93-1.32-3.69-1.32l-1 .12c-9.3831431-5.51431859-21.0168569-5.51431859-30.4 0l-1-.12c-.79 0-3.19-.22-3.69 1.31-.1711741.65860165.0190448 1.35860738.5 1.84-10.62359617 8.9668062-13.69506377 24.0576106-7.4215105 36.4635341 6.2735533 12.4059235 20.2484291 18.87656 33.7671437 15.6348375 13.5187145-3.2417224 23.0393057-15.3464585 23.0043668-29.2483716.0276286-8.801822-3.8424335-17.1643781-10.57-22.84zm-1.66-1.16c-1.8141643 1.38882316-3.8832693 2.40808672-6.09 3-2.1269533.832332-4.3963393 1.2400061-6.68 1.2 1.8085416-1.39189914 3.8750225-2.41154431 6.08-3 2.1303577-.83261974 4.4030682-1.24028082 6.69-1.2zm-11.35 7.3c.2185335-.4885915.5638035-.9098208 1-1.22 1.6260681-.2142561 3.2293189-.5757406 4.79-1.08.5633321.0091443 1.1250691.062643 1.68.16 2.23.39 4.66 2 5 4.59.2296022 1.8031049-.4843926 3.5975364-1.89 4.75-1.5591554 1.235616-3.5662209 1.7582515-5.53 1.44-.9663587-.1153662-1.8916317-.4580598-2.7-1-1.4371391-1.0000075-2.4133057-2.5344982-2.71-4.26-.2084114-1.1312112-.083332-2.2986185.36-3.36zm-17.48-6.14c2.2049775.58845569 4.2714584 1.60810086 6.08 3-2.2863901.0617458-4.5626913-.3255652-6.7-1.14-2.2067307-.59191328-4.2758357-1.61117684-6.09-3 2.2896646-.06202018 4.5692901.32527833 6.71 1.14zm-1.15 3.84c1.559718.5144349 3.1629869.8859649 4.79 1.11.4361965.3101792.7814665.7314085 1 1.22.4324239 1.0754183.5401987 2.2539879.31 3.39-.2916746 1.7327974-1.2683705 3.2753283-2.71 4.28-.8083683.5419402-1.7336413.8846338-2.7 1-1.9573968.284232-3.944449-.2632952-5.48-1.51-1.4088567-1.1544585-2.123201-2.953548-1.89-4.76.39-2.61 2.82-4.19 5.06-4.58.5353025-.091863 1.0769311-.1420138 1.62-.15zm12.21 47c-11.7935653-.0081416-22.31771268-7.4052175-26.31948054-18.4990943-4.00176785-11.0938769-.62314577-23.5059404 8.44948054-31.0409057l.15.09c.6472265.37087349 1.3149653.7047429 2 1-2.6667414.8409909-4.6539035 3.0818333-5.17 5.83-.34990097 2.4968414.6097638 4.9980148 2.54 6.62 1.6198429 1.3256685 3.6571282 2.0342895 5.75 2 .447797-.0020339.8951418-.028741 1.34-.08 1.2760601-.1449196 2.4995485-.5904476 3.57-1.3 1.8769802-1.306206 3.1548769-3.3076442 3.55-5.56.301165-1.5278964.1446242-3.1106981-.45-4.55-.05-.11-.11-.22-.17-.33.8414365-.0102481 1.5995489-.5104459 1.94-1.28.5-1.53-1.53-2.81-2.2-3.23-1.7072223-1.01055319-3.5260858-1.81930984-5.42-2.41-.57-.19-1.13-.35-1.68-.5 7.6612788-3.6787322 16.5787212-3.6787322 24.24 0-.55.15-1.11.31-1.68.5-1.9008099.58924487-3.7264612 1.39803522-5.44 2.41-.67.42-2.7 1.7-2.2 3.23.3404511.7695541 1.0985635 1.2697519 1.94 1.28 0 .11-.12.21-.17.33-.5946242 1.4393019-.751165 3.0221036-.45 4.55.3951231 2.2523558 1.6730198 4.253794 3.55 5.56 1.0733908.7110325 2.3004775 1.1566226 3.58 1.3.4481384.0520225.8988539.0787316 1.35.08 2.0928718.0342895 4.1301571-.6743315 5.75-2 1.9299208-1.6063653 2.9003017-4.0908426 2.57-6.58-.5173797-2.745364-2.5047633-4.982612-5.17-5.82.6831865-.2992161 1.3507152-.63298044 2-1l.15-.09c9.0363822 7.5475371 12.3858802 19.94174 8.3813245 31.0135534-4.0045557 11.0718135-14.5075787 18.4557086-26.2813245 18.4764466z"/><path id="Shape" d="m20 21c1.6568542 0 3-1.3431458 3-3s-1.3431458-3-3-3-3 1.3431458-3 3 1.3431458 3 3 3zm0-4c.5522847 0 1 .4477153 1 1s-.4477153 1-1 1-1-.4477153-1-1 .4477153-1 1-1z"/><path id="Shape" d="m42 21c1.6568542 0 3-1.3431458 3-3s-1.3431458-3-3-3-3 1.3431458-3 3 1.3431458 3 3 3zm0-4c.5522847 0 1 .4477153 1 1s-.4477153 1-1 1-1-.4477153-1-1 .4477153-1 1-1z"/></g></g></g></svg>