<svg height="512" viewBox="0 0 60 60" width="512" xmlns="http://www.w3.org/2000/svg"><g id="Page-1" fill="none" fill-rule="evenodd"><g id="023---Scared" fill-rule="nonzero"><circle id="Oval" cx="30" cy="30" fill="#ffdc00" r="29"/><path id="Shape" d="m30 1c-.5 0-1 0-1.5 0 16.0162576.00000024 28.9999996 12.9837424 28.9999996 29s-12.983742 28.9999998-28.9999996 29h1.5c16.0162576-.0000002 28.9999996-12.9837424 28.9999996-29s-12.983742-28.99999976-28.9999996-29z" fill="#fec108"/><ellipse id="Oval" cx="30" cy="16" fill="#f5f5f5" rx="7" ry="10"/><path id="Shape" d="m30 6c-.5096923-.00168861-1.0162795.07936534-1.5.24 3.14 1 5.5 5 5.5 9.76s-2.36 8.78-5.5 9.76c.4837205.1606347.9903077.2416886 1.5.24 3.87 0 7-4.48 7-10s-3.13-10-7-10z" fill="#cfd8dc"/><ellipse id="Oval" cx="13" cy="24.5" fill="#f5f5f5" rx="6" ry="8.5"/><path id="Shape" d="m13 16c-.5127977.0020746-1.0209869.0969365-1.5.28 2.59.94 4.5 4.26 4.5 8.22s-1.91 7.28-4.5 8.22c.4790131.1830635.9872023.2779254 1.5.28 3.31 0 6-3.81 6-8.5s-2.69-8.5-6-8.5z" fill="#cfd8dc"/><circle id="Oval" cx="30" cy="16" fill="#37474f" r="2"/><circle id="Oval" cx="13" cy="24" fill="#37474f" r="2"/><ellipse id="Oval" cx="47" cy="24.5" fill="#f5f5f5" rx="6" ry="8.5"/><path id="Shape" d="m47 16c-.5127977.0020746-1.0209869.0969365-1.5.28 2.59.94 4.5 4.26 4.5 8.22s-1.91 7.28-4.5 8.22c.4790131.1830635.9872023.2779254 1.5.28 3.31 0 6-3.81 6-8.5s-2.69-8.5-6-8.5z" fill="#cfd8dc"/><circle id="Oval" cx="47" cy="24" fill="#37474f" r="2"/><path id="Shape" d="m43.92 48.71c-.1048802.7934284-.4544185 1.5344496-1 2.12-.3423214.353824-.7590482.6270874-1.22.8l-3.22-3.9c-.3945524-.4613333-.9772777-.718502-1.5840082-.6990555s-1.1717915.3134032-1.5359918.7990555l-1.8 2.5c-1.13629-.4281469-2.3465709-.6253274-3.56-.58-1.2134291-.0453274-2.42371.1518531-3.56.58l-1.8-2.5c-.3642003-.4856523-.9292613-.779609-1.5359918-.7990555s-1.1894558.2377222-1.5840082.6990555l-3.22 3.9c-.4609518-.1729126-.8776786-.446176-1.22-.8-.5455815-.5855504-.8951198-1.3265716-1-2.12-.1973833-2.0875332.2604988-4.1847032 1.31-6 2.4299228-4.7246689 7.2970893-7.6946087 12.61-7.6946087s10.1800772 2.9699398 12.61 7.6946087c1.0495012 1.8152968 1.5073833 3.9124668 1.31 6z" fill="#37474f"/><path id="Shape" d="m26.44 50.33c-1.9994595 1.0189475-4.1973421 1.5888953-6.44 1.67-.5839824-.014445-1.1602909-.1364868-1.7-.36l3.22-3.9c.3945524-.4613333.9772777-.718502 1.5840082-.6990555s1.1717915.3134032 1.5359918.7990555z" fill="#f5f5f5"/><path id="Shape" d="m41.7 51.63c-.5390544.226944-1.1153866.352381-1.7.37-2.2268105-.0775439-4.4103201-.6370683-6.4-1.64l1.8-2.5c.3642003-.4856523.9292613-.779609 1.5359918-.7990555s1.1894558.2377222 1.5840082.6990555z" fill="#f5f5f5"/><g fill="#000"><path id="Shape" d="m30 0c-16.5685425 0-30 13.4314575-30 30s13.4314575 30 30 30 30-13.4314575 30-30c0-7.9564947-3.1607052-15.5871121-8.7867966-21.21320344-5.6260913-5.62609135-13.2567087-8.78679656-21.2132034-8.78679656zm0 58c-15.463973 0-28-12.536027-28-28s12.536027-28 28-28 28 12.536027 28 28-12.536027 28-28 28z"/><path id="Shape" d="m36.17 26.29c-1.5869398 1.7267044-3.8248164 2.709418-6.17 2.709418s-4.5830602-.9827136-6.17-2.709418c-.3921222-.3921222-1.0278778-.3921222-1.42 0s-.3921222 1.0278778 0 1.42c1.9662415 2.0989876 4.7139168 3.2900141 7.59 3.2900141s5.6237585-1.1910265 7.59-3.2900141c.3921222-.3921222.3921222-1.0278778 0-1.42s-1.0278778-.3921222-1.42 0z"/><path id="Shape" d="m30 27c4.41 0 8-4.93 8-11s-3.59-11-8-11-8 4.93-8 11 3.59 11 8 11zm0-20c3.31 0 6 4 6 9s-2.69 9-6 9-6-4-6-9 2.69-9 6-9z"/><path id="Shape" d="m20.24 33.27c-.3900375-.3877236-1.0199625-.3877236-1.41 0-1.4699498 1.6933422-3.5880916 2.6851994-5.83 2.73-2.2341084-.0321172-4.3510025-1.0052349-5.83-2.68-.23534311-.2902307-.61286133-.4250424-.97881021-.3495329-.36594887.0755094-.65927176.3487417-.7605128.7084228-.10124103.3596812.00649132.7458002.27932301 1.0011101 1.8545335 2.0832191 4.5010747 3.2885026 7.29 3.32 2.7889253-.0314974 5.4354665-1.2367809 7.29-3.32.3742413-.4036568.3518935-1.0338657-.05-1.41z"/><path id="Shape" d="m13 34c3.86 0 7-4.26 7-9.5s-3.14-9.5-7-9.5-7 4.26-7 9.5 3.14 9.5 7 9.5zm0-17c2.76 0 5 3.36 5 7.5s-2.24 7.5-5 7.5-5-3.36-5-7.5 2.24-7.5 5-7.5z"/><path id="Shape" d="m30 19c1.6568542 0 3-1.3431458 3-3s-1.3431458-3-3-3-3 1.3431458-3 3 1.3431458 3 3 3zm0-4c.5522847 0 1 .4477153 1 1s-.4477153 1-1 1-1-.4477153-1-1 .4477153-1 1-1z"/><path id="Shape" d="m13 27c1.6568542 0 3-1.3431458 3-3s-1.3431458-3-3-3-3 1.3431458-3 3 1.3431458 3 3 3zm0-4c.5522847 0 1 .4477153 1 1s-.4477153 1-1 1-1-.4477153-1-1 .4477153-1 1-1z"/><path id="Shape" d="m52.83 33.32c-1.4590536 1.7014777-3.5886022 2.68065-5.83 2.68065s-4.3709464-.9791723-5.83-2.68065c-.3838307-.3591803-.9802259-.3598607-1.3648753-.0015573-.3846493.3583035-.4262149.9532489-.0951247 1.3615573 1.8346757 2.1102203 4.493741 3.3219009 7.29 3.3219009s5.4553243-1.2116806 7.29-3.3219009c.2728317-.2553099.380564-.6414289.279323-1.0011101-.101241-.3596811-.3945639-.6329134-.7605128-.7084228-.3659489-.0755095-.7434671.0593022-.9788102.3495329z"/><path id="Shape" d="m40 24.5c0 5.24 3.14 9.5 7 9.5s7-4.26 7-9.5-3.14-9.5-7-9.5-7 4.26-7 9.5zm12 0c0 4.14-2.24 7.5-5 7.5s-5-3.36-5-7.5 2.24-7.5 5-7.5 5 3.36 5 7.5z"/><path id="Shape" d="m44 24c0 1.6568542 1.3431458 3 3 3s3-1.3431458 3-3-1.3431458-3-3-3-3 1.3431458-3 3zm4 0c0 .5522847-.4477153 1-1 1s-1-.4477153-1-1 .4477153-1 1-1 1 .4477153 1 1z"/><path id="Shape" d="m30 34c-5.6807825.0274136-10.8787072 3.2000729-13.5 8.24-1.1639907 2.003478-1.6579719 4.3262404-1.41 6.63.1415373.9956218.5847674 1.923962 1.27 2.66.9740762.947671 2.2810023 1.4754681 3.64 1.47h.34c2.2554941-.147658 4.4602771-.7353737 6.49-1.73 1.0113544-.3832272 2.0892142-.5600371 3.17-.52 1.09415-.0454395 2.1861523.1314581 3.21.52 2.112275 1.0590852 4.4284662 1.6492193 6.79 1.73 1.3437573-.0022719 2.6342559-.5256408 3.6-1.46.6852326-.736038 1.1284627-1.6643782 1.27-2.66.2479719-2.3037596-.2460093-4.626522-1.41-6.63-2.6118883-5.0311531-7.7914453-8.2058444-13.46-8.25zm-9.88 17 2.17-2.62c.1906301-.2349915.4774116-.3710289.78-.37.3023276.0146053.5817713.1653578.76.41l1.06 1.48c-1.4997988.6838558-3.1221862 1.0579912-4.77 1.1zm15-1.1 1.06-1.47c.1761626-.248423.4559288-.4030307.76-.42.3049614-.0121264.5964632.1261502.78.37l2.16 2.62c-1.6488252-.0426705-3.2717348-.4203287-4.77-1.11zm7.82-1.33c-.0773924.5836182-.3282192 1.1305599-.72 1.57-.0854794.0787131-.1756442.1521807-.27.22l-2.69-3.26c-.584819-.7150792-1.4664652-1.1208578-2.39-1.1-.9247414.0365171-1.7808678.4977921-2.32 1.25l-1.37 1.9c-1.035531-.2841481-2.1063569-.4188431-3.18-.4-1.0736431-.0188431-2.144469.1158519-3.18.4l-1.37-1.91c-.545849-.7358322-1.3980191-1.1818996-2.3137407-1.2111247-.9157216-.0292252-1.7946009.3615959-2.3862593 1.0611247l-2.69 3.26c-.0943558-.0678193-.1845206-.1412869-.27-.22-.3917808-.4394401-.6426076-.9863818-.72-1.57-.169481-1.8840623.2497947-3.774297 1.2-5.41 2.2651099-4.3890192 6.7909503-7.1463152 11.73-7.1463152s9.4648901 2.757296 11.73 7.1463152c.9502053 1.635703 1.369481 3.5259377 1.2 5.41z"/></g></g></g></svg>