<svg height="512" viewBox="0 0 60 60" width="512" xmlns="http://www.w3.org/2000/svg"><g id="Page-1" fill="none" fill-rule="evenodd"><g id="024---Confused" fill-rule="nonzero"><circle id="Oval" cx="30" cy="30" fill="#673ab7" r="29"/><path id="Shape" d="m30 1c-.5 0-1 0-1.5 0 16.0162576.00000024 28.9999996 12.9837424 28.9999996 29s-12.983742 28.9999998-28.9999996 29h1.5c16.0162576-.0000002 28.9999996-12.9837424 28.9999996-29s-12.983742-28.99999976-28.9999996-29z" fill="#4527a0"/><path id="Shape" d="m23 40v2.39c-2.7200175.7253896-5.3919175 1.6204761-8 2.68v-5.07c0-1.1045695.8954305-2 2-2h4c1.1045695 0 2 .8954305 2 2z" fill="#f5f5f5"/><path id="Shape" d="m21 38h-3c1.1045695 0 2 .8954305 2 2v2.39c-1.9.51-3.56 1-5 1.54v1.14c2.6080825-1.0595239 5.2799825-1.9546104 8-2.68v-2.39c0-1.1045695-.8954305-2-2-2z" fill="#cfd8dc"/><path id="Shape" d="m27 25c0 4.418278-3.581722 8-8 8s-8-3.581722-8-8c-.0032479-1.4057998.369642-2.7868738 1.08-4h11.92c.5843268-.0017066 1.1611844-.1314142 1.69-.38.8577164 1.2994893 1.3133697 2.8229713 1.31 4.38z" fill="#f5f5f5"/><path id="Shape" d="m25.69 20.62c-.5288156.2485858-1.1056732.3782934-1.69.38h-1.1c.7169053 1.2113422 1.0967006 2.5924162 1.1 4-.0038932 3.8368157-2.7312294 7.1305987-6.5 7.85.493673.1003847.9962245.1506399 1.5.15 2.937184-.0016318 5.6372817-1.6126694 7.0336573-4.1966949 1.3963756-2.5840254 1.2644516-5.7254528-.3436573-8.1833051z" fill="#cfd8dc"/><path id="Shape" d="m49 25c.0028992 3.4195972-2.1680371 6.4629344-5.4023438 7.5733008s-6.8167532.0422169-8.9148664-2.6580746c-2.0981132-2.7002914-2.2479191-6.4355858-.3727898-9.2952262.5288156.2485858 1.1056732.3782934 1.69.38h11.92c.7117204 1.212555 1.0847127 2.594008 1.08 4z" fill="#f5f5f5"/><path id="Shape" d="m47.92 21h-3c.7117204 1.212555 1.0847127 2.594008 1.08 4-.0038932 3.8368157-2.7312294 7.1305987-6.5 7.85.493673.1003847.9962245.1506399 1.5.15 4.418278 0 8-3.581722 8-8 .0047127-1.405992-.3682796-2.787445-1.08-4z" fill="#cfd8dc"/><circle id="Oval" cx="21" cy="26" fill="#37474f" r="2"/><circle id="Oval" cx="39" cy="26" fill="#37474f" r="2"/><g fill="#000"><path id="Shape" d="m30 0c-16.5685425 0-30 13.4314575-30 30s13.4314575 30 30 30 30-13.4314575 30-30c0-7.9564947-3.1607052-15.5871121-8.7867966-21.21320344-5.6260913-5.62609135-13.2567087-8.78679656-21.2132034-8.78679656zm0 58c-15.463973 0-28-12.536027-28-28s12.536027-28 28-28 28 12.536027 28 28-12.536027 28-28 28z"/><path id="Shape" d="m51 38c-9.092795-.0949117-18.162188.939671-27 3.08v-1.08c0-1.6568542-1.3431458-3-3-3h-4c-1.6568542 0-3 1.3431458-3 3v4.4c-1.212883.5001471-2.3891143 1.0849212-3.52 1.75-.3787443.234702-.5565162.6916707-.4359473 1.1206176.1205688.4289469.5103878.7263766.9559473.7293824.1838257-.0012538.3637488-.0531546.52-.15.13-.08 13.14-7.85 39.48-7.85.5522847 0 1-.4477153 1-1s-.4477153-1-1-1zm-35 2c0-.5522847.4477153-1 1-1h4c.5522847 0 1 .4477153 1 1v1.61c-2.37.67-4.37 1.35-6 2z"/><path id="Shape" d="m19 34c3.1031598-.02143 5.9763767-1.6400137 7.6027736-4.2829086 1.6263968-2.6428948 1.7765154-5.9372314.3972264-8.7170914 1.2590292-.9442719 2-2.4262135 2-4v-5c0-.5522847-.4477153-1-1-1s-1 .4477153-1 1v5c0 1.6568542-1.3431458 3-3 3h-15c-.55228475 0-1 .4477153-1 1s.44771525 1 1 1h1.54c-1.00223236 2.7510206-.59386213 5.8184532 1.0931976 8.2114457 1.6870597 2.3929925 4.438971 3.8082287 7.3668024 3.7885543zm6.22-12.17c1.3337244 2.5836469.9314336 5.7227755-1.0106977 7.8866096s-5.0196916 2.9017967-7.731928 1.8540251c-2.7122365-1.0477716-4.4943779-3.6630992-4.4773743-6.5706347-.0010279-1.0405882.238544-2.0673247.7-3h11.3c.4121825-.0053347.8220607-.0624489 1.22-.17z"/><path id="Shape" d="m33 17v-5c0-.5522847-.4477153-1-1-1s-1 .4477153-1 1v5c0 1.5737865.7409708 3.0557281 2 4-1.8631287 3.6650322-1.0057094 8.1267283 2.0831816 10.8401141 3.0888909 2.7133858 7.6238854 2.9885675 11.0181994.66858 3.3943141-2.3199874 4.7849241-6.6452739 3.378619-10.5086941h1.52c.5522847 0 1-.4477153 1-1s-.4477153-1-1-1h-15c-1.6568542 0-3-1.3431458-3-3zm15 8c.0170036 2.9075355-1.7651378 5.5228631-4.4773743 6.5706347-2.7122364 1.0477716-5.7897967.309809-7.731928-1.8540251s-2.3444221-5.3029627-1.0106977-7.8866096c.3979393.1075511.8078175.1646653 1.22.17h11.3c.461456.9326753.7010279 1.9594118.7 3z"/><path id="Shape" d="m21 29c1.6568542 0 3-1.3431458 3-3s-1.3431458-3-3-3-3 1.3431458-3 3 1.3431458 3 3 3zm0-4c.5522847 0 1 .4477153 1 1s-.4477153 1-1 1-1-.4477153-1-1 .4477153-1 1-1z"/><path id="Shape" d="m39 29c1.6568542 0 3-1.3431458 3-3s-1.3431458-3-3-3-3 1.3431458-3 3 1.3431458 3 3 3zm0-4c.5522847 0 1 .4477153 1 1s-.4477153 1-1 1-1-.4477153-1-1 .4477153-1 1-1z"/></g></g></g></svg>