<svg height="512" viewBox="0 0 60 60" width="512" xmlns="http://www.w3.org/2000/svg"><g id="Page-1" fill="none" fill-rule="evenodd"><g id="025---Startled" fill-rule="nonzero"><circle id="Oval" cx="30" cy="30" fill="#02a9f4" r="29"/><path id="Shape" d="m30 1c-.5 0-1 0-1.5 0 16.0162576.00000024 28.9999996 12.9837424 28.9999996 29s-12.983742 28.9999998-28.9999996 29h1.5c16.0162576-.0000002 28.9999996-12.9837424 28.9999996-29s-12.983742-28.99999976-28.9999996-29z" fill="#0377bc"/><ellipse id="Oval" cx="30" cy="16" fill="#f5f5f5" rx="7" ry="10"/><path id="Shape" d="m30 6c-.5096923-.00168861-1.0162795.07936534-1.5.24 3.14 1 5.5 5 5.5 9.76s-2.36 8.78-5.5 9.76c.4837205.1606347.9903077.2416886 1.5.24 3.87 0 7-4.48 7-10s-3.13-10-7-10z" fill="#cfd8dc"/><ellipse id="Oval" cx="13" cy="24.5" fill="#f5f5f5" rx="6" ry="8.5"/><path id="Shape" d="m13 16c-.5127977.0020746-1.0209869.0969365-1.5.28 2.59.94 4.5 4.26 4.5 8.22s-1.91 7.28-4.5 8.22c.4790131.1830635.9872023.2779254 1.5.28 3.31 0 6-3.81 6-8.5s-2.69-8.5-6-8.5z" fill="#cfd8dc"/><circle id="Oval" cx="30" cy="16" fill="#37474f" r="2"/><circle id="Oval" cx="13" cy="24" fill="#37474f" r="2"/><ellipse id="Oval" cx="47" cy="24.5" fill="#f5f5f5" rx="6" ry="8.5"/><path id="Shape" d="m47 16c-.5127977.0020746-1.0209869.0969365-1.5.28 2.59.94 4.5 4.26 4.5 8.22s-1.91 7.28-4.5 8.22c.4790131.1830635.9872023.2779254 1.5.28 3.31 0 6-3.81 6-8.5s-2.69-8.5-6-8.5z" fill="#cfd8dc"/><circle id="Oval" cx="47" cy="24" fill="#37474f" r="2"/><path id="Shape" d="m49 45c-2.1949843.5070147-4.4145794.9008677-6.65 1.18l2.16-5c1.7910185.8801792 3.3342509 2.1931297 4.49 3.82z" fill="#37474f"/><path id="Shape" d="m44.51 41.14-2.16 5-1.9 4.43c-.1786528.4136401-.611867.6567198-1.0580034.5936534-.4461363-.0630664-.7949982-.4167013-.8519966-.8636534l-.46-3.69-1-8c2.5987217.429892 5.1089499 1.2846534 7.43 2.53z" fill="#f5f5f5"/><path id="Shape" d="m37.08 38.61.09.74c1.5062435.4405235 2.9611542 1.0405904 4.34 1.79l-2.16 5-1 2.4.22 1.76c.0569984.4469521.4058603.800587.8519966.8636534.4461364.0630664.8793506-.1800133 1.0580034-.5936534l1.9-4.43 2.16-5c-2.3303492-1.2484527-4.8509606-2.1032981-7.46-2.53z" fill="#cfd8dc"/><path id="Shape" d="m38.08 46.65c-1.79.15-3.76.27-5.85.32l2.42-8.72c.86.0933333 1.67.2133333 2.43.36z" fill="#37474f"/><path id="Shape" d="m34.65 38.25-2.42 8.75-1.23 4.53c-.1244444.4266667-.5155556.72-.96.72s-.8355556-.2933333-.96-.72l-1.31-4.53-2.42-8.72c3.0910394-.3333333 6.2089606-.3333333 9.3 0z" fill="#f5f5f5"/><path id="Shape" d="m30 38c-.52 0-1 0-1.5 0 1.11 0 2.17.1 3.15.21l-2.42 8.79-.73 2.62.5 1.91c.1244444.4266667.5155556.72.96.72s.8355556-.2933333.96-.72l1.31-4.53 2.42-8.72c-1.5435237-.180449-3.095976-.27393-4.65-.28z" fill="#cfd8dc"/><path id="Shape" d="m27.77 47c-2.09 0-4.06-.17-5.85-.32l1-8c.76-.1466667 1.57-.2666667 2.43-.36z" fill="#37474f"/><path id="Shape" d="m22.92 38.61-1 8-.46 3.69c-.0569984.4469521-.4058603.800587-.8519966.8636534-.4461364.0630664-.8793506-.1800133-1.0580034-.5936534l-1.9-4.43-2.16-5c2.3210501-1.2453466 4.8312783-2.100108 7.43-2.53z" fill="#f5f5f5"/><path id="Shape" d="m19.83 39.35-.91 7.3-.24 1.93.87 2c.1786528.4136401.611867.6567198 1.0580034.5936534.4461363-.0630664.7949982-.4167013.8519966-.8636534l.46-3.69 1-8c-1.043177.1837294-2.0748898.4274674-3.09.73z" fill="#cfd8dc"/><path id="Shape" d="m17.65 46.18c-2.2354206-.2791323-4.4550157-.6729853-6.65-1.18 1.1507501-1.6415125 2.6944073-2.9685764 4.49-3.86z" fill="#37474f"/><g fill="#000"><path id="Shape" d="m30 0c-16.5685425 0-30 13.4314575-30 30s13.4314575 30 30 30 30-13.4314575 30-30c0-7.9564947-3.1607052-15.5871121-8.7867966-21.21320344-5.6260913-5.62609135-13.2567087-8.78679656-21.2132034-8.78679656zm0 58c-15.463973 0-28-12.536027-28-28s12.536027-28 28-28 28 12.536027 28 28-12.536027 28-28 28z"/><path id="Shape" d="m36.17 26.29c-1.5869398 1.7267044-3.8248164 2.709418-6.17 2.709418s-4.5830602-.9827136-6.17-2.709418c-.3921222-.3921222-1.0278778-.3921222-1.42 0s-.3921222 1.0278778 0 1.42c1.9662415 2.0989876 4.7139168 3.2900141 7.59 3.2900141s5.6237585-1.1910265 7.59-3.2900141c.3921222-.3921222.3921222-1.0278778 0-1.42s-1.0278778-.3921222-1.42 0z"/><path id="Shape" d="m30 27c4.41 0 8-4.93 8-11s-3.59-11-8-11-8 4.93-8 11 3.59 11 8 11zm0-20c3.31 0 6 4 6 9s-2.69 9-6 9-6-4-6-9 2.69-9 6-9z"/><path id="Shape" d="m20.29 34.68c.3310902-.4083084.2895246-1.0032538-.0951247-1.3615573-.3846494-.3583034-.9810446-.357623-1.3648753.0015573-1.4789975 1.6747651-3.5958916 2.6478828-5.83 2.68-2.2341084-.0321172-4.3510025-1.0052349-5.83-2.68-.23534311-.2902307-.61286133-.4250424-.97881021-.3495329-.36594887.0755094-.65927176.3487417-.7605128.7084228-.10124103.3596812.00649132.7458002.27932301 1.0011101 1.8545335 2.0832191 4.5010747 3.2885026 7.29 3.32 2.7889253-.0314974 5.4354665-1.2367809 7.29-3.32z"/><path id="Shape" d="m13 34c3.86 0 7-4.26 7-9.5s-3.14-9.5-7-9.5-7 4.26-7 9.5 3.14 9.5 7 9.5zm0-17c2.76 0 5 3.36 5 7.5s-2.24 7.5-5 7.5-5-3.36-5-7.5 2.24-7.5 5-7.5z"/><path id="Shape" d="m30 19c1.6568542 0 3-1.3431458 3-3s-1.3431458-3-3-3-3 1.3431458-3 3 1.3431458 3 3 3zm0-4c.5522847 0 1 .4477153 1 1s-.4477153 1-1 1-1-.4477153-1-1 .4477153-1 1-1z"/><path id="Shape" d="m13 27c1.6568542 0 3-1.3431458 3-3s-1.3431458-3-3-3-3 1.3431458-3 3 1.3431458 3 3 3zm0-4c.5522847 0 1 .4477153 1 1s-.4477153 1-1 1-1-.4477153-1-1 .4477153-1 1-1z"/><path id="Shape" d="m52.83 33.32c-1.4590536 1.7014777-3.5886022 2.68065-5.83 2.68065s-4.3709464-.9791723-5.83-2.68065c-.3838307-.3591803-.9802259-.3598607-1.3648753-.0015573-.3846493.3583035-.4262149.9532489-.0951247 1.3615573 1.8346757 2.1102203 4.493741 3.3219009 7.29 3.3219009s5.4553243-1.2116806 7.29-3.3219009c.2728317-.2553099.380564-.6414289.279323-1.0011101-.101241-.3596811-.3945639-.6329134-.7605128-.7084228-.3659489-.0755095-.7434671.0593022-.9788102.3495329z"/><path id="Shape" d="m40 24.5c0 5.24 3.14 9.5 7 9.5s7-4.26 7-9.5-3.14-9.5-7-9.5-7 4.26-7 9.5zm12 0c0 4.14-2.24 7.5-5 7.5s-5-3.36-5-7.5 2.24-7.5 5-7.5 5 3.36 5 7.5z"/><path id="Shape" d="m44 24c0 1.6568542 1.3431458 3 3 3s3-1.3431458 3-3-1.3431458-3-3-3-3 1.3431458-3 3zm4 0c0 .5522847-.4477153 1-1 1s-1-.4477153-1-1 .4477153-1 1-1 1 .4477153 1 1z"/><path id="Shape" d="m45 40.27c-2.4101602-1.2996597-5.0187014-2.1916997-7.72-2.64-.78-.16-1.63-.28-2.51-.37-3.1608829-.3400068-6.3491171-.3400068-9.51 0-.8424484.0802883-1.6802182.2037842-2.51.37-2.7108564.4481354-5.3292952 1.3400939-7.75 2.64-1.952928.9784651-3.6278212 2.4332492-4.87 4.23-.15528278.2724195-.17379304.6019021-.05.89.1228531.289505.3747408.5043504.68.58.1 0 2.39.59 6.19 1.12l1.68 3.91c.311571.7356767 1.0310788 1.2153486 1.83 1.22h.28c.8987065-.1249576 1.6006898-.8392564 1.71-1.74l.34-2.75c1.43.11 2.84.19 4.22.23l1.07 3.86c.2488889.8533333 1.0311111 1.44 1.92 1.44s1.6711111-.5866667 1.92-1.44l1.08-3.88c1.37 0 2.78-.12 4.21-.23l.34 2.76c.1135072.8968594.8145211 1.6060723 1.71 1.73h.28c.7941442-.0012036 1.5123429-.4721536 1.83-1.2l1.68-3.91c3.8-.53 6.09-1.1 6.19-1.12.3052592-.0756496.5571469-.290495.68-.58.123793-.2880979.1052828-.6175805-.05-.89-1.2421788-1.7967508-2.917072-3.2515349-4.87-4.23zm-32.18 4.1c.6619704-.6684311 1.3926905-1.2650741 2.18-1.78l1 2.35c-1.29-.21-2.39-.41-3.19-.57zm7.66 5.85-3.69-8.6c1.5947732-.766588 3.2724796-1.3470745 5-1.73zm2.52-4.49.78-6.26.8-.12 1.82 6.57c-1.07-.05-2.21-.11-3.4-.19zm7 5.53-3.36-12.11c2.2363838-.1800036 4.4836162-.1800036 6.72 0zm3.56-5.34 1.82-6.57.8.12.82 6.26c-1.19.08-2.33.14-3.44.19zm6 4.3-1.31-10.33c1.7275204.3829255 3.4052268.963412 5 1.73zm4.44-5.28 1-2.35c.8005952.5135321 1.5447216 1.1101739 2.22 1.78-.82.16-1.92.36-3.22.57z"/></g></g></g></svg>