<svg id="Capa_1" enable-background="new 0 0 60 60" height="512" viewBox="0 0 60 60" width="512" xmlns="http://www.w3.org/2000/svg"><g id="Page-1"><g id="_x30_03---Angry"><path id="Shape" d="m59 34v.34c-.642-.227-1.319-.342-2-.34-3.026.009-5.571 2.271-5.937 5.274s1.562 5.81 4.497 6.546c-4.89 7.85-14.5 13.18-25.56 13.18s-20.67-5.33-25.56-13.18c2.153-.527 3.841-2.198 4.388-4.346s-.134-4.423-1.773-5.916-3.967-1.962-6.055-1.218c0-.11 0-.23 0-.34.153-5.198 1.523-10.287 4-14.86-2.41-3.72-2.27-8.58-1.52-12.49.192-.816.843-1.445 1.666-1.609.822-.163 1.664.168 2.154.849 1.166 1.611 2.676 2.943 4.42 3.9 4.98-5.19 11.35-8.79 18.28-8.79s13.3 3.6 18.28 8.79c1.744-.957 3.254-2.289 4.42-3.9.49-.681 1.332-1.012 2.154-.849.822.164 1.473.792 1.666 1.609.75 3.91.89 8.77-1.56 12.49 2.491 4.569 3.874 9.659 4.04 14.86z" fill="#a4c400"/><g fill="#90ac00"><path id="Shape_1_" d="m45.28 9.79c.622-.36 1.22-.761 1.79-1.2-4.78-4.53-10.69-7.59-17.07-7.59-.5 0-1 .02-1.5.06 6.35.48 12.16 3.94 16.78 8.73z"/><path id="Shape_2_" d="m55 19.14c2.45-3.72 2.31-8.58 1.56-12.49-.18-.745-.749-1.335-1.487-1.542-.738-.208-1.531 0-2.073.542.287.266.483.616.56 1 .75 3.91.89 8.77-1.56 12.49 2.477 4.573 3.847 9.662 4 14.86v.09c.331-.056.665-.086 1-.09.681-.002 1.358.113 2 .34 0-.11 0-.23 0-.34-.153-5.198-1.523-10.287-4-14.86z"/><path id="Shape_3_" d="m53.25 44.65c-4.44 8.12-13.79 13.82-24.75 14.35h1.5c11.06 0 20.67-5.33 25.56-13.18z"/><path id="Shape_4_" d="m1 34.09c-.005.083-.005.167 0 .25.17-.06.34-.09.52-.14z"/></g><path id="Shape_5_" d="m9 40c-.002 2.757-1.883 5.158-4.56 5.82-2.179-3.438-3.369-7.41-3.44-11.48.642-.227 1.319-.342 2-.34 1.591 0 3.117.632 4.243 1.757s1.757 2.652 1.757 4.243z" fill="#60a917"/><path id="Shape_6_" d="m59 34.34c-.068 4.069-1.255 8.041-3.43 11.48-2.162-.517-3.861-2.187-4.415-4.341s.128-4.436 1.772-5.932 3.981-1.961 6.073-1.207z" fill="#60a917"/><path id="Shape_7_" d="m57 34c-.516.005-1 .09-1 .09s.005.118-.01.25c-.057 3.61-1.001 7.151-2.75 10.31.677.557 1.47.957 2.32 1.17 2.179-3.438 3.369-7.41 3.44-11.48-.642-.227-1.319-.342-2-.34z" fill="#549414"/><path id="Shape_8_" d="m40 20c.06 3.347-.995 6.619-3 9.3-1.629 2.257-4.218 3.625-7 3.7-2.782-.075-5.371-1.443-7-3.7-2.005-2.681-3.06-5.953-3-9.3-.066-3.5 1.098-6.911 3.29-9.64 2.206.464 4.456.678 6.71.64 2.254.038 4.504-.176 6.71-.64 2.192 2.729 3.356 6.14 3.29 9.64z" fill="#f5f5f5"/><path id="Shape_9_" d="m36.71 10.36c-.894.199-1.799.346-2.71.44 1.985 2.653 3.039 5.887 3 9.2 0 6.52-3.69 11.89-8.5 12.84.494.099.996.152 1.5.16 5.52 0 10-5.82 10-13 .066-3.5-1.098-6.911-3.29-9.64z" fill="#cfd8dc"/><circle id="Oval" cx="11" cy="29" fill="#60a917" r="3"/><circle id="Oval_1_" cx="49" cy="29" fill="#60a917" r="3"/><circle id="Oval_2_" cx="30" cy="19" fill="#37474f" r="3"/><path id="Shape_10_" d="m30 49c-19 0-16.93-6.63-16.93-6.63s1.41-9.54 10-13.07c1.614 2.238 4.172 3.604 6.93 3.7 2.782-.075 5.371-1.443 7-3.7 8.54 3.53 10 13.07 10 13.07s2.05 6.63-17 6.63z" fill="#ffeb3a"/><path id="Shape_11_" d="m46.93 42.37s-1.41-9.54-9.93-13.07c-.309.375-.643.73-1 1.06 6.72 4.06 7.91 12 7.91 12s2 6.27-15.43 6.61l1.52.03c19.05 0 16.93-6.63 16.93-6.63z" fill="#fdd834"/><path id="Shape_12_" d="m57.51 6.46c-.228-1.209-1.172-2.157-2.38-2.39-1.236-.277-2.518.216-3.25 1.25-.93 1.285-2.102 2.375-3.45 3.21-5.51-5.53-12.03-8.53-18.43-8.53s-12.92 3-18.43 8.53c-1.348-.835-2.52-1.925-3.45-3.21-.732-1.034-2.014-1.527-3.25-1.25-1.208.233-2.152 1.181-2.38 2.39-.98 5.16-.49 9.54 1.42 12.73-2.416 4.574-3.754 9.64-3.91 14.81.012 4.346 1.246 8.601 3.56 12.28l.09.14c5.09 8.08 14.99 13.58 26.35 13.58s21.26-5.5 26.35-13.58l.09-.14c2.314-3.679 3.548-7.934 3.56-12.28-.156-5.17-1.493-10.236-3.91-14.81 1.91-3.19 2.4-7.57 1.42-12.73zm-55.51 28.64c.329-.065.664-.099 1-.1 2.383.006 4.431 1.693 4.893 4.031s-.791 4.677-2.993 5.589c-1.707-2.899-2.701-6.162-2.9-9.52zm53.1 9.52c-2.202-.911-3.455-3.251-2.993-5.589s2.51-4.025 4.893-4.031c.336.001.671.035 1 .1-.199 3.358-1.193 6.621-2.9 9.52zm2.9-11.54c-.331-.049-.665-.076-1-.08-3.27.004-6.101 2.272-6.819 5.462s.867 6.452 3.819 7.858c-4.88 6.99-13.81 11.68-24 11.68s-19.12-4.69-24-11.68c2.441-1.158 3.998-3.618 4-6.32 0-3.866-3.134-7-7-7-.335.004-.669.031-1 .08.269-4.2 1.367-8.306 3.23-12.08.22.24.44.47.67.69.188.189.443.296.71.296s.522-.106.71-.296c.388-.39.388-1.02 0-1.41-3.8-3.59-3.65-9.28-2.86-13.45.068-.427.403-.762.83-.83.45-.114.923.061 1.19.44 1.824 2.425 4.295 4.287 7.13 5.37.473.114.96-.13 1.152-.576s.036-.968-.372-1.234c-.35-.14-.68-.3-1-.46 5.03-4.87 10.89-7.54 16.61-7.54s11.58 2.67 16.62 7.54c-.33.16-.66.32-1 .46-.486.229-.705.801-.495 1.295.21.495.773.735 1.275.545 2.837-1.084 5.309-2.949 7.13-5.38.264-.378.73-.559 1.18-.46.418.064.75.385.83.8.79 4.16.94 9.86-2.82 13.45-.316.278-.424.725-.269 1.117s.538.645.959.633c.257-.001.505-.101.69-.28.23-.22.45-.45.67-.69 1.859 3.765 2.957 7.86 3.23 12.05z"/><path id="Shape_13_" d="m15 29c0-2.209-1.791-4-4-4s-4 1.791-4 4 1.791 4 4 4 4-1.791 4-4zm-4 2c-1.105 0-2-.895-2-2s.895-2 2-2 2 .895 2 2-.895 2-2 2z"/><path id="Shape_14_" d="m49 25c-2.209 0-4 1.791-4 4s1.791 4 4 4 4-1.791 4-4-1.791-4-4-4zm0 6c-1.105 0-2-.895-2-2s.895-2 2-2 2 .895 2 2-.895 2-2 2z"/><path id="Shape_15_" d="m30 23c2.209 0 4-1.791 4-4s-1.791-4-4-4-4 1.791-4 4 1.791 4 4 4zm0-6c1.105 0 2 .895 2 2s-.895 2-2 2-2-.895-2-2 .895-2 2-2z"/><path id="Shape_16_" d="m38.48 28.91c1.676-2.667 2.551-5.76 2.52-8.91.027-3.215-.887-6.368-2.63-9.07.857-.238 1.654-.653 2.34-1.22.375-.388.375-1.002 0-1.39-.376-.402-1.006-.424-1.41-.05 0 0-2.01 1.73-9.3 1.73s-9.29-1.71-9.29-1.71c-.392-.392-1.028-.392-1.42 0s-.392 1.028 0 1.42c.686.567 1.483.982 2.34 1.22-1.743 2.702-2.657 5.855-2.63 9.07-.031 3.15.844 6.243 2.52 8.91-7.71 3.89-9.29 12.36-9.43 13.25-.255 1.179.035 2.41.79 3.35 2.18 2.98 7.94 4.49 17.12 4.49s14.94-1.51 17.12-4.49c.755-.94 1.045-2.171.79-3.35-.14-.89-1.72-9.36-9.43-13.25zm6 9.09h-2.48v-3.79c.97 1.153 1.787 2.427 2.43 3.79zm-4.48-5.74v5.74h-5v-5.55c.825-.539 1.574-1.185 2.23-1.92.99.462 1.921 1.043 2.77 1.73zm0 7.74v7.09c-1.647.362-3.318.603-5 .72v-7.81zm-10-6c1.024-.007 2.038-.19 3-.54v4.54h-6v-4.54c.962.35 1.976.533 3 .54zm-6.3-22.53c2.078.376 4.188.554 6.3.53 2.112.024 4.222-.154 6.3-.53 1.793 2.479 2.74 5.47 2.7 8.53 0 6.62-4 12-9 12s-9-5.38-9-12c-.04-3.06.907-6.051 2.7-8.53zm1.3 21v5.53h-6v-4.86c1.101-1.076 2.375-1.959 3.77-2.61.656.735 1.405 1.381 2.23 1.92zm0 7.53v7.81c-2.028-.14-4.037-.474-6-1v-6.81zm-8-2h-1.44c.411-.878.892-1.721 1.44-2.52zm-2.45 6.4c-.425-.47-.626-1.101-.55-1.73.005-.05.005-.1 0-.15.174-.86.422-1.703.74-2.52h2.26v6.13c-.947-.366-1.789-.96-2.45-1.73zm12.45 3.53v-7.93h6v7.93c-.94 0-1.92.07-3 .07s-2.06 0-3-.07zm18.5-3.6c-.921 1.066-2.14 1.832-3.5 2.2v-6.53h3.26c.298.819.525 1.662.68 2.52-.005.05-.005.1 0 .15.089.59-.07 1.191-.44 1.66z"/><path id="Shape_17_" d="m33 52h-6c-.552 0-1 .448-1 1s.448 1 1 1h6c.552 0 1-.448 1-1s-.448-1-1-1z"/></g></g></svg>