<svg height="512" viewBox="0 0 60 61" width="512" xmlns="http://www.w3.org/2000/svg"><g id="Page-1" fill="none" fill-rule="evenodd"><g id="030---Amazed" fill-rule="nonzero" transform="translate(0 -1)"><path id="Shape" d="m57.7 39.63c1.6036066 2.4589775 1.7315976 5.5987397.3334575 8.1800821-1.3981402 2.5813423-4.0977933 4.1895592-7.0334575 4.1899179-.3343012.0024294-.6683876-.0176158-1-.06-11.2131836 10.7303104-28.8868164 10.7303104-40.1 0-.29851516.038135-.5990644.0581716-.9.06-2.93566421-.0003587-5.63531728-1.6085756-7.03345746-4.1899179-1.39814017-2.5813424-1.27014915-5.7211046.33345746-8.1800821-.8615841-2.7956706-1.2997739-5.7045767-1.3-8.63.01163432-3.5773379.68988082-7.1211759 2-10.45-1.29571734-1.9394161-1.99134251-4.2175885-2-6.55.01763645-4.39618454 2.43778154-8.43080812 6.30799034-10.51604993 3.87020876-2.08524181 8.57085656-1.88725233 12.25200966.51604993 6.7096694-2.58479988 14.1403306-2.58479988 20.85 0 4.7304141-2.98356342 10.8946855-2.30376333 14.8612693 1.63891101s4.68364 10.10272309 1.7287307 14.85108899c1.3202098 3.3468108 1.9986872 6.9122097 2 10.51-.0002261 2.9254233-.4384159 5.8343294-1.3 8.63z" fill="#60a917"/><path id="Shape" d="m59 31c-.0013128-3.5977903-.6797902-7.1631892-2-10.51 2.3709657-3.6874012 2.5424575-8.3742699.447314-12.22508537-2.0951435-3.85081545-6.1234509-6.25266635-10.507314-6.26491463-.5048919.00278234-1.0091505.03617696-1.51.1 4.0830065.52321883 7.612879 3.10273355 9.3516427 6.83387289 1.7387636 3.73113931 1.4437247 8.09311691-.7816427 11.55612711 1.3202098 3.3468108 1.9986872 6.9122097 2 10.51-.0002261 2.9254233-.4384159 5.8343294-1.3 8.63 1.6036066 2.4589775 1.7315976 5.5987397.3334575 8.1800821-1.3981402 2.5813423-4.0977933 4.1895592-7.0334575 4.1899179-.3343012.0024294-.6683876-.0176158-1-.06-4.9938308 4.828347-11.563515 7.6905986-18.5 8.06h1.5c7.4578471-.0006359 14.625697-2.8892794 20-8.06.3316124.0423842.6656988.0624294 1 .06 2.9356642-.0003587 5.6353173-1.6085756 7.0334575-4.1899179 1.3981401-2.5813424 1.2701491-5.7211046-.3334575-8.1800821.8615841-2.7956706 1.2997739-5.7045767 1.3-8.63z" fill="#549414"/><circle id="Oval" cx="13" cy="14" fill="#f5f5f5" r="8"/><path id="Shape" d="m13 6c-.5037755-.00063986-1.006327.04961529-1.5.15 3.7521084.73699745 6.4580856 4.0261952 6.4580856 7.85s-2.7059772 7.1130025-6.4580856 7.85c.493673.1003847.9962245.1506399 1.5.15 4.4182779-.0000001 7.9999998-3.5817221 7.9999998-8 0-4.41827793-3.5817219-7.99999991-7.9999998-8z" fill="#cfd8dc"/><circle id="Oval" cx="30" cy="27" fill="#f5f5f5" r="9"/><path id="Shape" d="m30 18c-.5026938.0026779-1.0043408.046154-1.5.13 4.3191604.7421807 7.4758281 4.4875373 7.4758281 8.87s-3.1566677 8.1278193-7.4758281 8.87c.4956592.083846.9973062.1273221 1.5.13 4.9705627 0 9-4.0294373 9-9s-4.0294373-9-9-9z" fill="#cfd8dc"/><circle id="Oval" cx="47" cy="14" fill="#f5f5f5" r="8"/><path id="Shape" d="m47 6c-.5037755-.00063986-1.006327.04961529-1.5.15 3.7521084.73699745 6.4580856 4.0261952 6.4580856 7.85s-2.7059772 7.1130025-6.4580856 7.85c.493673.1003847.9962245.1506399 1.5.15 4.4182779-.0000001 7.9999998-3.5817221 7.9999998-8 0-4.41827793-3.5817219-7.99999991-7.9999998-8z" fill="#cfd8dc"/><circle id="Oval" cx="13" cy="14" fill="#37474f" r="2"/><circle id="Oval" cx="30" cy="27" fill="#37474f" r="2"/><circle id="Oval" cx="47" cy="14" fill="#37474f" r="2"/><g fill="#000"><path id="Shape" d="m9 53h.6c11.4931992 10.7056043 29.3068008 10.7056043 40.8 0h.6c3.2190461-.0009468 6.1924812-1.7210818 7.7980132-4.5111581 1.605532-2.7900762 1.5986635-6.2252085-.0180132-9.0088419.8042723-2.7550463 1.2150034-5.6099636 1.22-8.48.0068451-3.546742-.6231489-7.0659023-1.86-10.39 3.0101598-5.1117841 2.1780284-11.61297358-2.0225801-15.80180243-4.2006084-4.18882884-10.7041091-5.00270038-15.8074199-1.97819757-6.6647481-2.45323886-13.9852519-2.45323886-20.65 0-5.1129968-3.03942073-11.63669552-2.22090795-15.84033116 1.98744823-4.20363565 4.20835618-5.01482615 10.73296947-1.96966884 15.84255177-1.22446243 3.3098239-1.85087161 6.8109433-1.85 10.34.00499663 2.8700364.41572766 5.7249537 1.22 8.48-1.61667668 2.7836334-1.62354524 6.2187657-.0180132 9.0088419 1.60553203 2.7900763 4.57896712 4.5102113 7.7980132 4.5111581zm-4.6-29.25c.18230424.1607777.4169276.2496502.66.25.28722715-.0003637.56043016-.1242157.75-.34.36397111-.4143967.32370438-1.0452422-.09-1.41-3.05837646-2.704432-4.36736776-6.8802612-3.40007299-10.8466146.96729477-3.96635346 4.05174716-7.07073125 8.01178989-8.06354565 3.9600427-.9928144 8.1442141.28926126 10.8682831 3.33016025.2393679.26616288.6025492.38440624.952737.31018895s.6341802-.32961985.745-.67000001c.1108199-.34038016.031631-.71402608-.207737-.98018894-.3319319-.3553132-.6859697-.68931113-1.06-1 5.435902-1.70636842 11.264098-1.70636842 16.7 0-.3795787.33281627-.7401476.68670792-1.08 1.06-.3700308.41421356-.3342135 1.04996921.08 1.41999998.4142136.37003078 1.0499692.33421357 1.42-.07999998 2.6764736-3.18934384 6.9242831-4.5942084 10.9745837-3.62958927 4.0503007.96461913 7.2088554 4.13338255 8.1603999 8.18677477.9515444 4.0533922-.4670198 8.2966463-3.6649836 10.9628145-.4137044.3647578-.4539711.9956033-.09 1.41.1895698.2157843.4627728.3396363.75.34.2430724-.0003498.4776958-.0892223.66-.25.413939-.3655605.8015682-.759873 1.16-1.18.8650295 2.726249 1.303538 5.5698082 1.3 8.43-.000839 2.1959652-.2592716 4.3842518-.77 6.52-.1469516-.1536037-.3039654-.2972546-.47-.43-.2691845-.2603225-.6612537-.3484353-1.0159371-.2283194-.3546833.1201158-.6125344.4283284-.6681484.7986461s.1003302.7406737.4040855.9596733c2.8663579 2.6040226 3.0790226 7.0386421.475 9.905s-7.0386421 3.0790226-9.905.475c-.3967603-.3397768-.9881942-.3169323-1.3575632.0524368-.3693691.369369-.3922136.9608029-.0524368 1.3575632.951708.9271578 2.1001724 1.6278578 3.36 2.05-10.385572 8.7202743-25.534428 8.7202743-35.92 0 1.2501647-.4421318 2.3848457-1.1598517 3.32-2.1.2451177-.3989344.1806106-.9145375-.155235-1.2407875s-.8531016-.3757882-1.244765-.1192125c-1.8542084 1.6934389-4.47100654 2.2690326-6.86467185 1.5099604-2.39366531-.7590721-4.2005431-2.7374889-4.74-5.19-.53945689-2.452511.27046344-5.0065215 2.12467185-6.6999604.30375525-.2189996.45969946-.5893556.40408546-.9596733-.05561399-.3703177-.31346506-.6785303-.66814838-.7986461-.35468333-.1201159-.74675262-.0320031-1.01593708.2283194-.16603465.1327454-.32304844.2763963-.47.43-.51072839-2.1357482-.76916101-4.3240348-.77-6.52-.00124473-2.8396045.43383161-5.6625416 1.29-8.37.34699613.3954501.71767786.7694713 1.11 1.12z"/><path id="Shape" d="m6.68 45c.26479337.0999692.55954805.0830461.81115985-.0465721s.43651126-.3597896.50884015-.6334279c0-.21 1.77-5.18 6.84-4.32 1.5534511.2459699 3.0690747.689567 4.51 1.32 2.15.86 4.18 1.68 10.65 1.68s8.5-.82 10.65-1.69c1.4413924-.627 2.9570013-1.0672323 4.51-1.31 5.07-.85 6.82 4.12 6.89 4.33.141.4033622.5227115.6725692.95.67.1062261.0137097.2137739.0137097.32 0 .2736383-.0723289.5038097-.2572283.6334279-.5088401s.1465413-.5463665.0465721-.8111599c-.79-2.35-3.71-6.57-9.11-5.67-1.699989.2733818-3.3593868.7570928-4.94 1.44-2 .8-3.82 1.55-9.9 1.55s-7.94-.75-9.9-1.55c-1.5960743-.6903209-3.2725248-1.1774658-4.99-1.45-5.4-.89-8.32 3.32-9.11 5.67-.10489232.2592077-.09646415.5504929.02324017.803202.11970432.2527092.33974879.4437551.60675983.526798z"/><path id="Shape" d="m33 46h-6c-.5522847 0-1 .4477153-1 1s.4477153 1 1 1h6c.5522847 0 1-.4477153 1-1s-.4477153-1-1-1z"/><path id="Shape" d="m13 23c4.9705627 0 9-4.0294373 9-9 0-4.97056275-4.0294373-9-9-9-4.97056275 0-9 4.02943725-9 9 0 4.9705627 4.02943725 9 9 9zm0-16c3.8659932 0 7 3.1340068 7 7s-3.1340068 7-7 7c-3.86599325 0-7-3.1340068-7-7s3.13400675-7 7-7z"/><path id="Shape" d="m13 17c1.6568542 0 3-1.3431458 3-3s-1.3431458-3-3-3-3 1.3431458-3 3 1.3431458 3 3 3zm0-4c.5522847 0 1 .4477153 1 1s-.4477153 1-1 1-1-.4477153-1-1 .4477153-1 1-1z"/><path id="Shape" d="m30 30c1.6568542 0 3-1.3431458 3-3s-1.3431458-3-3-3-3 1.3431458-3 3 1.3431458 3 3 3zm0-4c.5522847 0 1 .4477153 1 1s-.4477153 1-1 1-1-.4477153-1-1 .4477153-1 1-1z"/><path id="Shape" d="m47 17c1.6568542 0 3-1.3431458 3-3s-1.3431458-3-3-3-3 1.3431458-3 3 1.3431458 3 3 3zm0-4c.5522847 0 1 .4477153 1 1s-.4477153 1-1 1-1-.4477153-1-1 .4477153-1 1-1z"/><path id="Shape" d="m30 37c5.5228475 0 10-4.4771525 10-10s-4.4771525-10-10-10-10 4.4771525-10 10 4.4771525 10 10 10zm0-18c4.418278 0 8 3.581722 8 8s-3.581722 8-8 8-8-3.581722-8-8 3.581722-8 8-8z"/><path id="Shape" d="m47 23c4.9705627 0 9-4.0294373 9-9 0-4.97056275-4.0294373-9-9-9s-9 4.02943725-9 9c0 4.9705627 4.0294373 9 9 9zm0-16c3.8659932 0 7 3.1340068 7 7s-3.1340068 7-7 7-7-3.1340068-7-7 3.1340068-7 7-7z"/></g></g></g></svg>