<svg height="512" viewBox="0 0 60 60" width="512" xmlns="http://www.w3.org/2000/svg"><g id="Page-1" fill="none" fill-rule="evenodd"><g id="034---Heart-Eyed" fill-rule="nonzero"><path id="Shape" d="m59 34c0-13.81-13-33-29-33s-29 19.19-29 33 13 25 29 25 29-11.19 29-25z" fill="#02a9f4"/><path id="Shape" d="m30 1c-.5 0-1 .02-1.5.06 15.32 1.14 27.5 19.57 27.5 32.94s-12.18 24.29-27.5 25h1.5c16 0 29-11.19 29-25s-13-33-29-33z" fill="#0377bc"/><path id="Shape" d="m20.86 45.47-.94 2.39c-1.9543739-.4786695-3.8568811-1.1485664-5.68-2l1-2.63c.4039739-1.0264728 1.5627716-1.5320486 2.59-1.13l1.86.73c.5126125.1854156.9273316.572035 1.1481983 1.0704008.2208666.4983658.2287412 1.0652912.0218017 1.5695992z" fill="#f5f5f5"/><path id="Shape" d="m19.73 42.87-1.86-.73c-.6986979-.2703561-1.4899005-.1275537-2.05.37l.91.36c.4954277.1939301.8931685.5772657 1.1052347 1.0652057.2120663.48794.2209785 1.0402664.0247653 1.5347943l-.63 1.61c.82.27 1.7.54 2.69.78l.94-2.39c.1962132-.4945279.187301-1.0468543-.0247653-1.5347943-.2120662-.48794-.609807-.8712756-1.1052347-1.0652057z" fill="#cfd8dc"/><path id="Shape" d="m45.76 45.9c-1.8231189.8514336-3.7256261 1.5213305-5.68 2l-.94-2.38c-.1962132-.4945279-.187301-1.0468543.0247653-1.5347943.2120662-.48794.609807-.8712756 1.1052347-1.0652057l1.86-.73c1.0272284-.4020486 2.1860261.1035272 2.59 1.13z" fill="#f5f5f5"/><path id="Shape" d="m44.72 43.28c-.4039739-1.0264728-1.5627716-1.5320486-2.59-1.13l-1 .37c.2373573.2072563.4223841.4676643.54.76l1 2.62c-.9775082.4482761-1.9790341.8422096-3 1.18l.31.78c1.9543739-.4786695 3.8568811-1.1485664 5.68-2z" fill="#cfd8dc"/><path id="Shape" d="m19 23c1.1523018-1.2694098 2.7855966-1.9953187 4.5-2 2.66 0 4.5 2.59 4.5 5.58s-1.9 8.15-9 10.42c-7.1-2.27-9-7.43-9-10.42s1.84-5.58 4.5-5.58c1.7144034.0046813 3.3476982.7305902 4.5 2z" fill="#e91e63"/><path id="Shape" d="m16 23c.4341258-.4732774.9403814-.8749068 1.5-1.19-.9115189-.5287605-1.9462206-.80813-3-.81-.46366.002333-.9235478.0834896-1.36.24 1.0966672.3133527 2.0860626.9222114 2.86 1.76z" fill="#ad1457"/><path id="Shape" d="m23.5 21c-.5552464.0022986-1.1073785.0830984-1.64.24 1.91.76 3.14 2.89 3.14 5.34 0 2.77-1.63 7.38-7.5 9.86.47.2 1 .39 1.5.56 7.1-2.27 9-7.43 9-10.42s-1.84-5.58-4.5-5.58z" fill="#ad1457"/><path id="Shape" d="m41 23c1.1523018-1.2694098 2.7855966-1.9953187 4.5-2 2.66 0 4.5 2.59 4.5 5.58s-1.9 8.15-9 10.42c-7.1-2.27-9-7.43-9-10.42s1.84-5.58 4.5-5.58c1.7144034.0046813 3.3476982.7305902 4.5 2z" fill="#e91e63"/><path id="Shape" d="m45.5 21c-.5552464.0022986-1.1073785.0830984-1.64.24 1.91.76 3.14 2.89 3.14 5.34 0 2.77-1.63 7.38-7.5 9.86.47.2 1 .39 1.5.56 7.1-2.27 9-7.43 9-10.42s-1.84-5.58-4.5-5.58z" fill="#ad1457"/><g fill="#000"><path id="Shape" d="m53.13 14.25c-5.62-8.08-14.13-14.25-23.13-14.25s-17.51 6.17-23.13 14.25c-.13875901.1119791-.24280694.2611144-.3.43-4.07 6.01-6.57 13.02-6.57 19.32 0 14.34 13.46 26 30 26s30-11.66 30-26c0-6.3-2.5-13.31-6.57-19.32-.0571931-.1688856-.161241-.3180209-.3-.43zm-23.13-12.25c8.28 0 15.5 5.22 20.53 12h-3.53v-1c0-.5522847-.4477153-1-1-1s-1 .4477153-1 1v1h-2v-1c0-.5522847-.4477153-1-1-1s-1 .4477153-1 1v1h-2v-1c0-.5522847-.4477153-1-1-1s-1 .4477153-1 1v1h-2v-1c0-.5522847-.4477153-1-1-1s-1 .4477153-1 1v1h-2v-1c0-.5522847-.4477153-1-1-1s-1 .4477153-1 1v1h-2v-1c0-.5522847-.4477153-1-1-1s-1 .4477153-1 1v1h-2v-1c0-.5522847-.4477153-1-1-1s-1 .4477153-1 1v1h-2v-1c0-.5522847-.4477153-1-1-1s-1 .4477153-1 1v1h-2v-1c0-.5522847-.4477153-1-1-1s-1 .4477153-1 1v1h-3.53c5.03-6.78 12.25-12 20.53-12zm0 56c-15.44 0-28-10.77-28-24 0-5.43 2.24-12.13 6.07-18h4.93v1c0 .5522847.4477153 1 1 1s1-.4477153 1-1v-1h2v1c0 .5522847.4477153 1 1 1s1-.4477153 1-1v-1h2v1c0 .5522847.4477153 1 1 1s1-.4477153 1-1v-1h2v1c0 .5522847.4477153 1 1 1s1-.4477153 1-1v-1h2v1c0 .5522847.4477153 1 1 1s1-.4477153 1-1v-1h2v1c0 .5522847.4477153 1 1 1s1-.4477153 1-1v-1h2v1c0 .5522847.4477153 1 1 1s1-.4477153 1-1v-1h2v1c0 .5522847.4477153 1 1 1s1-.4477153 1-1v-1h2v1c0 .5522847.4477153 1 1 1s1-.4477153 1-1v-1h4.93c3.83 5.87 6.07 12.57 6.07 18 0 13.23-12.56 24-28 24z"/><path id="Shape" d="m18.7 38c.1943804.0670499.4056196.0670499.6 0 7.16-2.29 9.7-7.56 9.7-11.37s-2.42-6.63-5.5-6.63c-1.6427945 0-3.234164.572893-4.5 1.62-1.265836-1.047107-2.8572055-1.62-4.5-1.62-3.08 0-5.5 2.89-5.5 6.58s2.54 9.08 9.7 11.42zm-4.2-16c1.41517.0044949 2.7653649.5945265 3.73 1.63.18842.232277.4709167.3680222.77.37.2990833-.0019778.58158-.137723.77-.37.9646351-1.0354735 2.31483-1.6255051 3.73-1.63 2.19 0 3.5 2.33 3.5 4.58 0 3.09-2.1 7.36-8 9.37-5.9-2-8-6.28-8-9.37 0-2.25 1.31-4.58 3.5-4.58z"/><path id="Shape" d="m45.5 20c-1.6427945 0-3.234164.572893-4.5 1.62-1.265836-1.047107-2.8572055-1.62-4.5-1.62-3.08 0-5.5 2.89-5.5 6.58s2.54 9.08 9.7 11.42c.1945074.0662879.4054926.0662879.6 0 7.16-2.29 9.7-7.56 9.7-11.37s-2.42-6.63-5.5-6.63zm-4.5 16c-5.9-2-8-6.28-8-9.37 0-2.3 1.31-4.63 3.5-4.63 1.41517.0044949 2.7653649.5945265 3.73 1.63.18842.232277.4709167.3680222.77.37.2990833-.0019778.58158-.137723.77-.37.9646351-1.0354735 2.31483-1.6255051 3.73-1.63 2.19 0 3.5 2.33 3.5 4.58 0 3.09-2.1 7.36-8 9.42z"/><path id="Shape" d="m48.36 43.23c-.6516296.4909934-1.3480354.9195508-2.08 1.28l-.63-1.59c-.2900115-.7415978-.8629589-1.337473-1.5926128-1.6563449-.7296538-.3188719-1.556146-.3345769-2.2973872-.0436551l-1.86.78c-.7422351.2918671-1.3376995.8672761-1.6548146 1.5990803-.3171152.7318042-.3297762 1.5597614-.0351854 2.3009197l.51 1.28c-2.8705667.5736171-5.7928201.8484162-8.72.82-2.9289379.012465-5.8512605-.279097-8.72-.87l.51-1.29c.3055597-.736221.3055597-1.563779 0-2.3-.315792-.7312238-.9094078-1.3068514-1.65-1.6l-1.86-.73c-1.5408643-.6069257-3.2820643.1495339-3.89 1.69l-.64 1.61c-.7279733-.3619604-1.4209224-.7904506-2.07-1.28-.2750945-.22865-.6512756-.2931701-.9868396-.1692563-.3355639.1239139-.5795305.4174362-.64.77-.0604694.3525639.0717451.7106063.3468396.9392563.22.23 6.39 5.23 19.6 5.23s19.38-5 19.64-5.23c.4252593-.3534622.4834622-.9847407.13-1.41s-.9847407-.4834622-1.41-.13zm-32.15.4c.0969339-.2462388.2875189-.4440158.53-.55.2434614-.100018.5165386-.100018.76 0l1.86.73c.2510897.0958724.4530168.2887828.5602514.5352341.1072346.2464514.1107482.5256944.0097486.7747659l-.61 1.55c-1.2899469-.3514708-2.5559035-.7857039-3.79-1.3zm23.86 1.48c-.097839-.2478988-.0926765-.5245967.0143417-.7686732.1070182-.2440766.3070375-.4353373.5556583-.5313268l1.85-.73c.2478988-.097839.5245967-.0926765.7686732.0143417.2440766.1070182.4353373.3070375.5313268.5556583l.68 1.71c-1.2329517.5173079-2.4991082.9516096-3.79 1.3z"/></g></g></g></svg>