<svg height="512" viewBox="0 0 60 60" width="512" xmlns="http://www.w3.org/2000/svg"><g id="Page-1" fill="none" fill-rule="evenodd"><g id="037---Evil" fill-rule="nonzero"><path id="Shape" d="m58.91 27.76c.0239877.3809301-.1709582.7422929-.502484.9314326-.3315257.1891397-.7418044.1730653-1.057516-.0414326l-.57-.37c-.3971234-.2477922-.9129988-.1869518-1.2415811.1464273-.3285822.3333791-.3819402.850082-.1284189 1.2435727 1.5537346 2.5448208 2.2544199 5.5192299 2 8.49-.0313831.4012774-.3002902.7446271-.6823557.8712545-.3820654.1266274-.8028096.0118479-1.0676443-.2912545-.2405996-.2632678-.5013926-.5073432-.78-.73-.3087906-.2320913-.7236411-.2655771-1.0656592-.0860176s-.5500317.540049-.5343408.9260176c.215778 4.3960367-1.2950163 8.7023389-4.21 12-.2069277.2428286-.5173023.3723469-.8354572.3486335-.3181548-.0237134-.6058995-.197812-.7745428-.4686335-.2631459-.4565398-.601193-.8655768-1-1.21-.2649895-.2250526-.6278494-.2963245-.9582763-.1882218-.3304269.1081026-.5809945.3800637-.6617237.7182218-.58 2.44-3 8.15-12.79 8.84.95-2.89-2.05-4.89-2.05-4.89s-2.95 2-2 4.93c-9.79-.69-12.21-6.4-12.79-8.84-.0807292-.3381581-.3312968-.6101192-.6617237-.7182218-.3304269-.1081027-.6932868-.0368308-.9582763.1882218-.398807.3444232-.7368541.7534602-1 1.21-.1686433.2708215-.456388.4449201-.7745428.4686335-.3181549.0237134-.6285295-.1058049-.8354572-.3486335-2.9149837-3.2976611-4.42577804-7.6039633-4.21-12 .04070927-.3985689-.16039391-.7829618-.51102862-.9767909-.35063472-.1938291-.7831088-.1596746-1.09897138.0867909-.27860744.2226568-.53940035.4667322-.78.73-.26483468.3031024-.68557892.4178819-1.06764434.2912545s-.65097258-.4699771-.68235566-.8712545c-.25441987-2.9707701.44626543-5.9451792 2-8.49.25352126-.3934907.20016335-.9101936-.12841892-1.2435727-.32858226-.3333791-.84445772-.3942195-1.24158108-.1464273l-.57.37c-.31571158.2144979-.72599027.2305723-1.05751603.0414326s-.52647171-.5505025-.50248397-.9314326c.30304237-4.1638077 1.51115161-8.2113149 3.54-11.86-2.67-4.39-1.57-10.09-.67-13.2.09523425-.36954865.41093212-.64041966.79066075-.67839253.37972863-.03797286.74281288.16501994.90933925.50839253 1.11906868 2.36864606 2.91911193 4.34973816 5.17 5.69 10.9380582-9.58263821 27.2819418-9.58263821 38.22 0 2.2440018-1.33374872 4.0375908-3.30843798 5.15-5.67.1619814-.34619774.5249621-.5523223.9052612-.51406736s.6949542.31254405.7847388.68406736c.92 3.11 2 8.78-.63 13.17 2.05578 3.6491447 3.2879447 7.7040248 3.61 11.88z" fill="#ff9801"/><path id="Shape" d="m49 8.08c-5.2661878-4.58433659-12.0179899-7.10027124-19-7.08-.5 0-1 0-1.5 0 6.9277148.35664298 13.4951927 3.19663339 18.5 8z" fill="#f57c00"/><path id="Shape" d="m55.31 15.86c2.62-4.39 1.55-10.06.63-13.17-.0897846-.37152331-.4044397-.64581242-.7847388-.68406736s-.7432798.16786962-.9052612.51406736c-.2800428.55019215-.590524 1.08435336-.93 1.6.76 3.23 1.25 8-1 11.74 2.0550706 3.6559819 3.2838992 7.7179432 3.6 11.9.0100044.1574978-.0174094.3151274-.08.46.3200418-.1604458.7014387-.137562 1 .06l.57.37c.3157116.2144979.7259903.2305723 1.057516.0414326.3315258-.1891397.5264717-.5505025.502484-.9314326-.3345641-4.1866889-1.5839578-8.2489253-3.66-11.9z" fill="#f57c00"/><path id="Shape" d="m55.33 28.73c-.3235674.1545544-.7051194.1240302-1-.08l-.57-.37c-.3971234-.2477922-.9129988-.1869518-1.2415811.1464273-.3285822.3333791-.3819402.850082-.1284189 1.2435727 1.4903931 2.4457402 2.1889018 5.2921629 2 8.15.1677472.0203667.3267754.0860523.46.19.2786074.2226568.5394004.4667322.78.73.2648347.3031024.6855789.4178819 1.0676443.2912545.3820655-.1266274.6509726-.4699771.6823557-.8712545.2544199-2.9707701-.4462654-5.9451792-2-8.49-.17232-.285408-.1910708-.6379223-.05-.94z" fill="#f57c00"/><path id="Shape" d="m52.62 38.74c-.2405996-.2632678-.5013926-.5073432-.78-.73-.3087906-.2320913-.7236411-.2655771-1.0656592-.0860176s-.5500317.540049-.5343408.9260176c.2094308 3.9898187-1.0141767 7.9230962-3.45 11.09.236507.255508.4475076.5334929.63.83.1686433.2708215.456388.4449201.7745428.4686335.3181549.0237134.6285295-.1058049.8354572-.3486335 2.8750989-3.2542406 4.3863677-7.4908068 4.22-11.83-.2436253-.0206735-.469609-.1354589-.63-.32z" fill="#f57c00"/><path id="Shape" d="m44.42 50.77c-.2631459-.4565398-.601193-.8655768-1-1.21-.2649895-.2250526-.6278494-.2963245-.9582763-.1882218-.3304269.1081026-.5809945.3800637-.6617237.7182218-.51 2.16-2.47 6.86-9.69 8.4-.0190199.1495565-.0525102.2969139-.1.44 8.81-.62 11.65-5.3 12.55-8-.0519108-.0485068-.0988133-.1021097-.14-.16z" fill="#f57c00"/><path id="Shape" d="m46 27c.0128222 3.1855702-2.1268571 5.9780537-5.2060732 6.7944173-3.0792162.8163637-6.3213064-.549302-7.8883595-3.3228136-1.5670531-2.7735115-1.0638152-6.2553133 1.2244327-8.4716037 2.3999359.0280814 4.7664153-.5643996 6.87-1.72 2.9708167.8857216 5.0052227 3.6199633 5 6.72z" fill="#f5f5f5"/><path id="Shape" d="m41 20.28c-.4563516.2727298-.9346802.5068766-1.43.7 2.4739146 1.455224 3.8088177 4.2731898 3.3677467 7.1092763s-2.5687316 5.115551-5.3677467 5.7507237c.4702656.1001038.9492395.1536952 1.43.16 3.491247.0201497 6.4635768-2.5353556 6.9671907-5.9901471.5036139-3.4547916-1.6154796-6.7524868-4.9671907-7.7298529z" fill="#cfd8dc"/><path id="Shape" d="m28 27c-.0060732 3.6030161-2.7461628 6.6129059-6.3327797 6.9563306-3.586617.3434247-6.8480862-2.0918056-7.5377703-5.6282018-.689684-3.5363961 1.4177228-7.0186891 4.87055-8.0481288 2.1035847 1.1556004 4.4700641 1.7480814 6.87 1.72 1.3602048 1.3077976 2.1292524 3.1130736 2.13 5z" fill="#f5f5f5"/><path id="Shape" d="m25.87 22c-2.3999359.0280814-4.7664153-.5643996-6.87-1.72-.5511419.1651606-1.0787911.4004182-1.57.7 1.7326277.6285098 3.5572049.9663945 5.4 1 1.848609 1.7884849 2.5674436 4.4467371 1.8721298 6.9231401-.6953139 2.4764031-2.6927561 4.3719907-5.2021298 4.9368599.4931668.1047782.995828.1583954 1.5.16 2.8389667-.0117285 5.3896994-1.7370086 6.4572895-4.3676208 1.0675901-2.6306123.4405854-5.6455242-1.5872895-7.6323792z" fill="#cfd8dc"/><circle id="Oval" cx="39" cy="27" fill="#37474f" r="2"/><circle id="Oval" cx="21" cy="27" fill="#37474f" r="2"/><path id="Shape" d="m37.87 43.75c-1.467225.8814126-3.1596474 1.3158126-4.87 1.25h-.62l1-2.71c.2802294-.7436861.9741935-1.2508912 1.7678559-1.2920922.7936623-.0412011 1.5364152.3914204 1.8921441 1.1020922z" fill="#ffeb3a"/><path id="Shape" d="m27.62 45h-.62c-1.7103526.0658126-3.402775-.3685874-4.87-1.25l.87-1.65c.3557289-.7106718 1.0984818-1.1432933 1.8921441-1.1020922.7936624.041201 1.4876265.5484061 1.7678559 1.2920922z" fill="#ffeb3a"/><path id="Shape" d="m41 38c-.0787877 2.3028525-1.2387432 4.4337612-3.13 5.75l-.82-1.65c-.3557289-.7106718-1.0984818-1.1432933-1.8921441-1.1020922-.7936624.041201-1.4876265.5484061-1.7678559 1.2920922l-1 2.71h-4.77l-1-2.71c-.2911773-.7205467-.9734002-1.2071764-1.7494881-1.2479103-.776088-.0407339-1.5055047.3718043-1.8705119 1.0579103l-.82 1.65c-1.9102299-1.3054151-3.0896914-3.4380892-3.18-5.75z" fill="#37474f"/><g fill="#000"><path id="Shape" d="m42.85 20c.5237022-.4819279.9189599-1.086844 1.15-1.76.1210621-.5229319-.1923149-1.0481694-.71-1.19-.5238126-.1419329-1.0652242.1598375-1.22.68 0 0-1.07 3.27-9.07 3.27-.5522847 0-1 .4477153-1 1 .0008725.2526349.0973348.4955769.27.68-1.8438201 2.8690012-1.6661151 6.5914565.4426216 9.271768 2.1087368 2.6803115 5.6848097 3.7290987 8.9071638 2.6122843s5.3824177-4.1536512 5.3802146-7.5640523c-.0046179-2.9151773-1.5945988-5.5970728-4.15-7zm-3.85 13c-3.3137085 0-6-2.6862915-6-6 .0053773-1.4863727.5734782-2.9155573 1.59-4 2.230684-.0642817 4.4195752-.6208952 6.41-1.63 2.715498.9998702 4.3304535 3.7954667 3.8400207 6.6473337-.4904329 2.8518671-2.9465065 4.9473725-5.8400207 4.9826663z"/><path id="Shape" d="m39 24c-1.6568542 0-3 1.3431458-3 3s1.3431458 3 3 3 3-1.3431458 3-3-1.3431458-3-3-3zm0 4c-.5522847 0-1-.4477153-1-1s.4477153-1 1-1 1 .4477153 1 1-.4477153 1-1 1z"/><path id="Shape" d="m29 27c.0024063-1.5323818-.438666-3.0327224-1.27-4.32.1726652-.1844231.2691275-.4273651.27-.68 0-.5522847-.4477153-1-1-1-7.85 0-9-3.16-9-3.26-.1703867-.4929489-.6910249-.772161-1.1959219-.6413587-.5048971.1308024-.824474.6276868-.7340781 1.1413587.2109606.666019.5817517 1.2702711 1.08 1.76-3.4235979 1.879584-4.9895824 5.9565059-3.7046183 9.6446933 1.284964 3.6881873 5.0452329 5.9094432 8.8955934 5.2547809s6.6652063-3.9938602 6.6590249-7.8994742zm-14 0c.0113453-2.5328359 1.6119864-4.7857383 4-5.63 1.9904248 1.0091048 4.179316 1.5657183 6.41 1.63 1.0165218 1.0844427 1.5846227 2.5136273 1.59 4 0 3.3137085-2.6862915 6-6 6s-6-2.6862915-6-6z"/><path id="Shape" d="m24 27c0-1.6568542-1.3431458-3-3-3s-3 1.3431458-3 3 1.3431458 3 3 3 3-1.3431458 3-3zm-4 0c0-.5522847.4477153-1 1-1s1 .4477153 1 1-.4477153 1-1 1-1-.4477153-1-1z"/><path id="Shape" d="m33.32 48.27s-.88.73-3.32.73-3.26-.68-3.32-.73c-.397645-.3838379-1.0311621-.372645-1.415.025s-.372645 1.0311621.025 1.415c.22.21 1.46 1.29 4.71 1.29s4.49-1.08 4.71-1.29c.3682542-.3862983.3682542-.9937017 0-1.38-.3712071-.3918615-.9864067-.4184169-1.39-.06z"/><path id="Shape" d="m41 37h-22c-.5522847 0-1 .4477153-1 1 0 .08.1 8 9 8h6c8.9 0 9-7.92 9-8 0-.5522847-.4477153-1-1-1zm-17.55 6.33.39-.78c.1787459-.3562883.5520176-.572393.95-.55.3938848.0211045.7385631.2717796.88.64l.5 1.33c-.9370133-.0533438-1.8575102-.2699313-2.72-.64zm10.38.67.5-1.33c.1414369-.3682204.4861152-.6188955.88-.64.3979824-.022393.7712541.1937117.95.55l.39.78c-.8624898.3700687-1.7829867.5866562-2.72.64zm4.39-1.75-.28-.56c-.5326868-1.066331-1.6461371-1.7161431-2.8365701-1.6554289-1.190433.0607143-2.2319946.820436-2.6534299 1.9354289l-.77 2.03h-3.36l-.77-2.06c-.4214353-1.1149929-1.4629969-1.8747146-2.6534299-1.9354289-1.190433-.0607142-2.3038833.5890979-2.8365701 1.6554289l-.28.56c-.8755467-.8753309-1.4588775-2.0000764-1.67-3.22h19.78c-.2111225 1.2199236-.7944533 2.3446691-1.67 3.22z"/><path id="Shape" d="m32.24 12c2.1041201-.511994 4.3242086-.2045422 6.21.86.3108941.2049076.7098886.2201145 1.0354775.0394652.3255888-.1806493.5238468-.527235.5145225-.8994652 0-4.67-3.53-5.9-3.68-5.95-.5384776-.17673112-1.1182689.11652237-1.295.655s.1165224 1.11826888.655 1.295c1.0129667.43905891 1.7761234 1.30861727 2.08 2.37-1.9282844-.6829724-4.0148372-.78382245-6-.29-.3899991.0392297-.7211202.3026916-.8469704.6739059-.1258501.3712142-.0232219.7817271.2625114 1.0500455.2857333.2683185.7018811.3449632 1.064459.1960486z"/><path id="Shape" d="m20.53 12.88c.1444437.0779674.3058591.1191798.47.12.1960334-.0015308.3872933-.0606475.55-.17 1.8897766-1.0543718 4.109657-1.3510708 6.21-.83.5522847.1325483 1.1074517-.2077153 1.24-.76s-.2077153-1.1074517-.76-1.24c-1.9849284-.49620537-4.0721788-.3953216-6 .29.3220166-1.03253923 1.0830963-1.8704587 2.08-2.29.5246705-.17673112.8067311-.74532949.63-1.27s-.7453295-.80673112-1.27-.63c-.15 0-3.68 1.23-3.68 5.9.0009835.3685937.2046528.7067616.53.88z"/><path id="Shape" d="m56.77 29.47c.6333156.4426065 1.4649299.480826 2.1361729.0981748s1.0620339-1.1177197 1.0038271-1.8881748c-.3173703-4.1424737-1.4994486-8.1724408-3.47-11.83 2.5-4.76 1.28-10.66.46-13.45-.2066869-.76361133-.8648904-1.31925372-1.6523556-1.39488597s-1.5393942.34457368-1.8876444 1.05488597c-.9378993 1.98054451-2.3749755 3.68298017-4.17 4.94-11.113198-9.29323751-27.286802-9.29323751-38.4 0-1.80142992-1.25544784-3.24536183-2.95784012-4.19-4.94-.34825016-.71031229-1.10017918-1.13051822-1.88764442-1.05488597-.78746523.07563225-1.44566871.63127464-1.65235558 1.39488597-.83 2.79-2 8.71.48 13.49-1.96209749 3.6453866-3.1374218 7.6619297-3.45 11.79-.05570899.7667802.33303579 1.4976204 1 1.88.66375264.3812103 1.48686472.3501495 2.12-.08l.08-.06c.14-.09.29-.19.46-.28-1.65790066 2.7227271-2.40081011 5.9046223-2.12 9.08.04890425.817961.59181051 1.5233428 1.37 1.78.76780065.2765675 1.62662487.0588932 2.17-.55.20059233-.2225622.41430665-.4329372.64-.63-.23606111 4.6676839 1.36078049 9.2429042 4.45 12.75.4257505.4977809 1.0682681.7555351 1.72.69.6288246-.0494079 1.1932715-.4045235 1.51-.95.197684-.3775687.4619236-.7163374.78-1 .62 2.64 3.21 8.87 13.69 9.61.3320514.0243987.6544683-.1180646.86-.38.2020341-.2614075.2619165-.6057315.16-.92-.3194202-1.210598.0759745-2.4975691 1.02-3.32.9660306.8127692 1.3817799 2.106643 1.07 3.33-.0983996.3116604-.038293.6517384.1609758.9107878.1992688.2590495.5125511.4043769.8390242.3892122h.07c10.48-.74 13.07-7 13.7-9.6.3153069.283768.5762394.6226414.77 1 .3167285.5454765.8811754.9005921 1.51.95.6517319.0655351 1.2942495-.1922191 1.72-.69 3.0942186-3.5030447 4.6855541-8.0830735 4.43-12.75.2345418.1906196.4551078.397818.66.62.5410011.6124591 1.4001876.8341846 2.17.56.7489533-.2688016 1.26731-.9560169 1.32-1.75.2755905-3.1724281-.4594783-6.3507256-2.1-9.08l.44.28zm-2-1.75c-.6512585.6673157-.7549695 1.696129-.25 2.48 1.4216491 2.361247 2.0490057 5.1160085 1.79 7.86-.2765032-.2975274-.5739283-.5749015-.89-.83-.5991049-.4702678-1.4133078-.5594424-2.1-.23-.7013454.361758-1.1243992 1.1021022-1.08 1.89.1944789 4.1597094-1.2404618 8.2313539-4 11.35-.317434-.5548092-.7265544-1.0518397-1.21-1.47-.5313453-.4451321-1.2552889-.5834019-1.9132843-.3654282-.6579953.2179737-1.1562109.7611073-1.3167157 1.4354282-.5 2.11-2.53 6.94-10.63 8 0-2.81-2.53-4.56-2.65-4.64-.3383157-.2286765-.7816843-.2286765-1.12 0-.12.08-2.68 1.83-2.65 4.64-8.1-1-10.13-5.84-10.63-8-.1631398-.6725992-.662424-1.2130491-1.3200199-1.4288546-.6575958-.2158054-1.3800266-.0762899-1.9099801.3688546-.4781227.4129726-.8837294.9030808-1.2 1.45-2.76391955-3.1081166-4.199897-7.1755227-4-11.33.06173955-.7759117-.33229361-1.5171622-1.01-1.9-.69348917-.3520374-1.52817205-.2701293-2.14.21-.33243458.257946-.63738102.5494882-.91.87-.25474157-2.7545257.37582238-5.5184977 1.8-7.89.50214902-.7832638.39784779-1.8093524-.25163837-2.4755533-.64948617-.6662009-1.67259386-.7965354-2.46836163-.3144467-.19.11-.36.23-.53.34l-.09.08c.2613405-3.4749703 1.18100446-6.8685642 2.71-10 .64490387.7578921 1.38425683 1.4300311 2.2 2 .16999974.1186733.37268193.1815747.58.18.32185737-.0014883.62332417-.1578044.81-.42.15499054-.2170921.21682506-.4871088.17175539-.7500152s-.19330778-.4969107-.41175539-.6499848c-5.42-3.83-4.4-10.95-3.23-15 1.43 2.72 4.56 7.05 10 7.05.5522847 0 1-.44771525 1-1s-.4477153-1-1-1c-.7243834-.00189267-1.4448561-.10626022-2.14-.31 10.0965581-7.87322285 24.2534419-7.87322285 34.35 0-.6919849.20141671-1.4093019.30244728-2.13.3-.5522847 0-1 .44771525-1 1s.4477153 1 1 1c5.47 0 8.61-4.32 10-7 1.16 4 2.2 11.18-3.23 15-.3289013.2637659-.4570438.705478-.3203652 1.1043106.1366785.3988326.5088144.6691009.9303652.6756894.2073181.0015747.4100003-.0613267.58-.18.8290819-.5839424 1.5757865-1.2768305 2.22-2.06 1.5411832 3.1493182 2.4677287 6.5636213 2.73 10.06l-.09-.06-.51-.33c-.7951229-.500029-1.8310729-.3793762-2.49.29z"/></g></g></g></svg>