<svg height="512" viewBox="0 0 60 60" width="512" xmlns="http://www.w3.org/2000/svg"><g id="Page-1" fill="none" fill-rule="evenodd"><g id="004---Happy"><g fill-rule="nonzero"><path id="Shape" d="m59 34c0 13.81-13 25-29 25s-29-11.19-29-25c.20482431-5.6886841 1.83464825-11.2348993 4.74-16.13 1.78404451-3.1766985 3.99083754-6.0966625 6.56-8.68 4.9-4.87 11.04-8.19 17.7-8.19s12.8 3.32 17.7 8.19c2.5691625 2.5833375 4.7759555 5.5033015 6.56 8.68 2.9053517 4.8951007 4.5351757 10.4413159 4.74 16.13z" fill="#ff5722"/><path id="Shape" d="m54.26 17.87c-1.7840445-3.1766985-3.9908375-6.0966625-6.56-8.68-4.9-4.87-11.04-8.19-17.7-8.19-.5 0-1 0-1.5.06 6.08.46 11.67 3.63 16.2 8.13 2.5691625 2.5833375 4.7759555 5.5033015 6.56 8.68 2.9053517 4.8951007 4.5351757 10.4413159 4.74 16.13 0 13.38-12.18 24.29-27.5 25h1.5c16 0 29-11.19 29-25-.2048243-5.6886841-1.8346483-11.2348993-4.74-16.13z" fill="#d84315"/><path id="Shape" d="m40 20c.0040309 2.4032879-.862791 4.7266548-2.44 6.54-5.0142857-.72-10.1057143-.72-15.12 0-3.0453024-3.5459367-3.2280175-8.7284013-.44-12.48 5.2666998-1.4143398 10.8133002-1.4143398 16.08 0 1.2574538 1.7243908 1.9302477 3.8058471 1.92 5.94z" fill="#f5f5f5"/><path id="Shape" d="m38 14.06c-2.6077819-.7069294-5.2980999-1.0633965-8-1.06-.51 0-1 0-1.5-.000024 2.2103118.0900739 4.4037721.4254654 6.54 1.000024 2.6831664 3.6372682 2.592979 8.6221686-.22 12.16 1.06.09 2 .21 2.74.32 3.0136964-3.5352476 3.1959706-8.680352.44-12.42z" fill="#cfd8dc"/><circle id="Oval" cx="30" cy="19" fill="#37474f" r="3"/><path id="Shape" d="m12.3 9.19c-2.56916246 2.5833375-4.77595549 5.5033015-6.56 8.68-2.71733022-.5840371-4.67784617-2.9578472-4.73781275-5.7365856-.05996657-2.77873833 1.79631577-5.2349168 4.48592025-5.93563833 2.68960449-.70072154 5.5083786.53746643 6.8118925 2.99222393z" fill="#d84315"/><path id="Shape" d="m59 12c.001788 2.8295647-1.97353 5.2757918-4.74 5.87-1.7840445-3.1766985-3.9908375-6.0966625-6.56-8.68 1.2914306-2.43365439 4.0742852-3.67506207 6.7479386-3.01019783 2.6736533.66486425 4.5509266 3.06511788 4.5520614 5.82019783z" fill="#d84315"/><path id="Shape" d="m50.51 36.5c-.387035 1.5454346-.915947 3.0518295-1.58 4.5h-37.86c-.664053-1.4481705-1.19296503-2.9545654-1.58-4.5-.15436267-.5978306-.02394607-1.2334434.35336205-1.7221845.37730815-.4887411.95920355-.7758122 1.57663795-.7778155h12.79c.48 1.5 1.93 3 5.79 3s5.31-1.5 5.79-3h12.79c.6174344.0020033 1.1993298.2890744 1.5766379.7778155.3773082.4887411.5077248 1.1243539.3533621 1.7221845z" fill="#f5f5f5"/><path id="Shape" d="m48.58 34h-3c.6174344.0020033 1.1993298.2890744 1.5766379.7778155.3773082.4887411.5077248 1.1243539.3533621 1.7221845-.387035 1.5454346-.915947 3.0518295-1.58 4.5h3c.664053-1.4481705 1.192965-2.9545654 1.58-4.5.1543627-.5978306.0239461-1.2334434-.3533621-1.7221845-.3773081-.4887411-.9592035-.7758122-1.5766379-.7778155z" fill="#cfd8dc"/><path id="Shape" d="m39.57 51c-2.9974391 1.3826116-6.2697216 2.0664742-9.57 2-3.3002784.0664742-6.5725609-.6173884-9.57-2 1.24-2.88 5.06-5 9.57-5s8.33 2.09 9.57 5z" fill="#e91e63"/><path id="Shape" d="m48.93 41c-1.8332168 4.3392602-5.1512857 7.8842056-9.36 10-1.24-2.88-5.06-5-9.57-5s-8.33 2.09-9.57 5c-4.2087143-2.1157944-7.5267832-5.6607398-9.36-10z" fill="#37474f"/></g><path id="Shape" d="m16 41v-7" stroke="#000" stroke-linecap="round" stroke-linejoin="round" stroke-width="2"/><path id="Shape" d="m23 41v-7" stroke="#000" stroke-linecap="round" stroke-linejoin="round" stroke-width="2"/><path id="Shape" d="m30 41v-4" stroke="#000" stroke-linecap="round" stroke-linejoin="round" stroke-width="2"/><path id="Shape" d="m37 41v-7" stroke="#000" stroke-linecap="round" stroke-linejoin="round" stroke-width="2"/><path id="Shape" d="m44 41v-7" stroke="#000" stroke-linecap="round" stroke-linejoin="round" stroke-width="2"/><path id="Shape" d="m17.51 16.86c.7485565-.3881061 1.5238597-.7222885 2.32-1-.5453581 1.3122552-.8273738 2.7189362-.83 4.14.0023907 2.0623993.584537 4.0825856 1.68 5.83-.56.11-.89.19-.93.2-.2630435.059229-.4910229.2221703-.6322299.4518669-.1412069.2296966-.1836743.5066822-.1177701.7681331.0659011.2575067.2316107.4781813.4605245.6132779.2289138.1350967.5021944.1734983.7594755.1067221 3.2125817-.6937101 6.4937408-1.019142 9.78-.97 3.2773845-.0370115 6.5483629.2984735 9.75 1 .0830471.0097686.1669529.0097686.25 0 .4677664.0148006.883234-.2968001 1-.75.0752976-.2656024.0374442-.550517-.1045923-.7872446-.1420366-.2367276-.3756185-.4042051-.6454077-.4627554 0 0-.37-.09-.93-.2 1.0900735-1.7387671 1.6720015-3.7478043 1.68-5.8.0039678-1.437892-.2781754-2.8622053-.83-4.19.7961403.2777115 1.5714435.6118939 2.32 1 .1491649.1092656.3257035.1750349.51.19.4503352-.0001324.8450264-.3012616.96411-.7355666s-.0668217-.8946301-.45411-1.1244334c-4.1675226-2.1663948-8.8142367-3.2463861-13.51-3.14-4.6957633-.1063861-9.3424774.9736052-13.51 3.14-.3478371.1572029-.5758412.4987108-.5876816.8802382-.0118403.3815275.1945486.7365164.5319684.9149856.3374198.1784693.7470071.1492845 1.0557132-.0752238zm19.92-1.92c2.1820899 3.205897 2.0652316 7.4490625-.29 10.53-4.7393755-.6266506-9.5406245-.6266506-14.28 0-2.3552316-3.0809375-2.4720899-7.324103-.29-10.53 4.8740275-1.2535202 9.9859725-1.2535202 14.86 0z" fill="#000" fill-rule="nonzero"/><path id="Shape" d="m24.9 10.42h.17c2.9438581-.48163988 5.9424495-.52880873 8.9-.14.5522847.071797 1.058203-.31771526 1.13-.87s-.3177153-1.05820297-.87-1.13c-3.1535797-.41553172-6.3511282-.36499092-9.49.15-.5522847.04418279-.9641828.52771526-.92 1.08.0441828.5522847.5277153.9641828 1.08.92z" fill="#000" fill-rule="nonzero"/><path id="Shape" d="m30 23c2.209139 0 4-1.790861 4-4s-1.790861-4-4-4-4 1.790861-4 4 1.790861 4 4 4zm0-6c1.1045695 0 2 .8954305 2 2s-.8954305 2-2 2-2-.8954305-2-2 .8954305-2 2-2z" fill="#000" fill-rule="nonzero"/><path id="Shape" d="m60 12c-.0104651-2.98428005-1.9117852-5.63376942-4.7356389-6.59911239s-5.9492107-.03423841-7.7843611 2.31911239c-5.01-4.65-11.1-7.72-17.48-7.72s-12.47 3.07-17.48 7.72c-1.8351504-2.3533508-4.96050738-3.28445536-7.78436111-2.31911239-2.82385372.96534297-4.72517381 3.61483234-4.73563889 6.59911239.00335563 2.8198426 1.698359 5.3623477 4.3 6.45-2.6675231 4.7602449-4.1428833 10.0955591-4.3 15.55 0 14.34 13.46 26 30 26s30-11.66 30-26c-.1571167-5.4544409-1.6324769-10.7897551-4.3-15.55 2.601641-1.0876523 4.2966444-3.6301574 4.3-6.45zm-58 0c.00445703-2.17528268 1.41481865-4.09809129 3.4883049-4.75576094s4.33427262.10072198 5.5916951 1.87576094c-2.21436516 2.2925563-4.15717912 4.832643-5.79 7.57-1.97235476-.7178271-3.28643083-2.5910845-3.29-4.69zm28 46c-15.44 0-28-10.77-28-24 0-7.46 4.22-17.31 11-24.11.0357971-.03077502.069225-.06420293.1-.1 4.63-4.61 10.44-7.79 16.9-7.79s12.27 3.18 16.91 7.79l.1.1c6.77 6.8 10.99 16.65 10.99 24.11 0 13.23-12.56 24-28 24zm24.71-41.31c-1.6328209-2.737357-3.5756348-5.2774437-5.79-7.57 1.236665-1.76870373 3.4686096-2.54433384 5.5356026-1.92369472s3.5025058 2.49746674 3.5603161 4.65485202c.0578103 2.1573852-1.2751299 4.1083975-3.3059187 4.8388427z" fill="#000" fill-rule="nonzero"/><path id="Shape" d="m6.25 9c-.55228475 0-1 .44771525-1 1 .08832024.803849-.20389455 1.602816-.79 2.16-.37201306.2402935-.54166334.6966564-.41695017 1.1216049.12471316.4249486.51408072.7172519.95695017.7183951.17948334-.0000528.35564432-.0484107.51-.14 1.21558047-.89347 1.8755241-2.3574829 1.74-3.86 0-.55228475-.44771525-1-1-1z" fill="#000" fill-rule="nonzero"/><path id="Shape" d="m54.75 10c0-.55228475-.4477153-1-1-1s-1 .44771525-1 1c-.1355241 1.5025171.5244195 2.96653 1.74 3.86.46316.2652187 1.0529679.1199675 1.34-.33.2925741-.459436.1636434-1.0685225-.29-1.37-.5928966-.5527044-.8863991-1.355192-.79-2.16z" fill="#000" fill-rule="nonzero"/><path id="Shape" d="m37 33c.0534556-.7780725-.0277352-1.5595348-.24-2.31-.1684468-.5274319-.7325681-.8184468-1.26-.65s-.8184468.7325681-.65 1.26c.3157279 1.0694187.1707383 2.2220865-.4 3.18-.76 1.01-2.25 1.52-4.45 1.52s-3.69-.51-4.43-1.52c-.5762408-.9523388-.7216073-2.104368-.4-3.17.1712083-.5274319-.1175681-1.0937917-.645-1.265s-1.0937917.1175681-1.265.645c-.2190056.7492901-.3069648 1.5307739-.26 2.31h-11.58c-.9215412.0005141-1.79171631.4245401-2.36 1.15-.57152323.7330559-.77096345 1.6896303-.54 2.59 1.31 5.19 6.02 17.26 21.48 17.26s20.17-12.07 21.48-17.26c.2309634-.9003697.0315232-1.8569441-.54-2.59-.5682837-.7254599-1.4384588-1.1494859-2.36-1.15zm1 7v-5h5v5zm-2-4.28v4.28h-5v-2c2.32-.1866667 3.9866667-.9466667 5-2.28zm-7 2.28v2h-5v-4.28c1.0133333 1.3266667 2.68 2.0866667 5 2.28zm-7 2h-5v-5h5zm-11.36-4.62c.1886474-.2387374.475728-.3785972.78-.38h3.58v5h-3.28c-.510906-1.2141723-.9320366-2.4641947-1.26-3.74-.0825259-.3052935-.0157749-.6316317.18-.88zm11.2 15.11c1.47-2.09 4.64-3.49 8.16-3.49s6.69 1.4 8.16 3.49c-2.5932279 1.0385263-5.3668617 1.5517845-8.16 1.51-2.7931383.0417845-5.5667721-.4714737-8.16-1.51zm18.16-.88c-1.8-2.79-5.64-4.61-10-4.61s-8.2 1.82-10 4.61c-3.1156353-1.7836708-5.6530139-4.4251826-7.31-7.61h34.62c-1.6569861 3.1848174-4.1943647 5.8263292-7.31 7.61zm9.39-14.23c.1957749.2483683.2625259.5747065.18.88-.3377221 1.2766084-.7688853 2.5266473-1.29 3.74h-3.28v-5h3.58c.304272.0014028.5913526.1412626.78.38z" fill="#000" fill-rule="nonzero"/></g></g></svg>