<svg height="512" viewBox="0 0 60 60" width="512" xmlns="http://www.w3.org/2000/svg"><g id="Page-1" fill="none" fill-rule="evenodd"><g id="040---Sad" fill-rule="nonzero" transform="translate(0 -1)"><path id="Shape" d="m59 31c-.0010648 14.4943337-10.7280115 26.7507853-25.0943889 28.6724799-14.3663775 1.9216947-27.93749562-7.0845666-31.74798276-21.0690544-3.81048713-13.9844878 3.31589827-28.63039577 16.67131316-34.26232301 13.3554148-5.63192724 28.8172385-.51138037 36.1710585 11.97889751 2.6161217 4.4501099 3.9969834 9.5178724 4 14.68z" fill="#f44335"/><path id="Shape" d="m30 2c-.5 0-1 0-1.5 0 16.0162576.00000024 28.9999996 12.9837424 28.9999996 29s-12.983742 28.9999998-28.9999996 29h1.5c16.0162576-.0000002 28.9999996-12.9837424 28.9999996-29s-12.983742-28.99999976-28.9999996-29z" fill="#c81e1e"/><path id="Shape" d="m23 25c-.001472 2.0123062-1.0116057 3.889878-2.69 5h-6.62c-2.3908635-1.5813649-3.3292034-4.6330382-2.2398677-7.2845077 1.0893357-2.6514696 3.9020437-4.1620539 6.7140849-3.6058458 2.8120412.556208 4.8378787 3.0238332 4.8357828 5.8903535z" fill="#f5f5f5"/><path id="Shape" d="m17 19c-.5066588-.0001775-1.0110876.0670797-1.5.2 2.2877925.5970198 4.0116486 2.4819653 4.4024556 4.8138523.390807 2.3318871-.6243129 4.6758647-2.5924556 5.9861477h3c2.2044607-1.4622703 3.1911473-4.1957303 2.4288989-6.7288823-.7622485-2.533152-3.0935495-4.2681993-5.7388989-4.2711177z" fill="#cfd8dc"/><path id="Shape" d="m49 25c-.001472 2.0123062-1.0116057 3.889878-2.69 5h-6.62c-2.3908635-1.5813649-3.3292034-4.6330382-2.2398677-7.2845077 1.0893357-2.6514696 3.9020437-4.1620539 6.7140849-3.6058458 2.8120412.556208 4.8378787 3.0238332 4.8357828 5.8903535z" fill="#f5f5f5"/><path id="Shape" d="m43 19c-.5066588-.0001775-1.0110876.0670797-1.5.2 2.2877925.5970198 4.0116486 2.4819653 4.4024556 4.8138523.390807 2.3318871-.6243129 4.6758647-2.5924556 5.9861477h3c2.2044607-1.4622703 3.1911473-4.1957303 2.4288989-6.7288823-.7622485-2.533152-3.0935495-4.2681993-5.7388989-4.2711177z" fill="#cfd8dc"/><path id="Shape" d="m47.86 40.47-.86 2.12c-1.7526883-.9829329-3.6247852-1.7358049-5.57-2.24l.82-2.08c.4039739-1.0264728 1.5627716-1.5320486 2.59-1.13l1.86.73c.5008735.1880427.9055259.5689239 1.1235107 1.0575106s.2311271 1.0441417.0364893 1.5424894z" fill="#ffeb3a"/><path id="Shape" d="m18.54 40.35c-1.9348781.5066257-3.7967488 1.2594399-5.54 2.24l-.83-2.12c-.1962132-.4945279-.187301-1.0468543.0247653-1.5347943.2120662-.48794.609807-.8712756 1.1052347-1.0652057l1.86-.73c1.0272284-.4020486 2.1860261.1035272 2.59 1.13z" fill="#ffeb3a"/><path id="Shape" d="m11.64 8.55c-2.65263263 2.1797854-4.90034362 4.8100135-6.64 7.77-3-4.44-1.89-10.41-.94-13.63.08978457-.37152331.40443969-.64581242.78473879-.68406736.38029909-.03825494.74327985.16786962.90526121.51406736 1.20803595 2.62989625 3.28920198 4.76052972 5.89 6.03z" fill="#ffeb3a"/><path id="Shape" d="m5.75 2.52c-.16198136-.34619774-.52496212-.5523223-.90526121-.51406736-.3802991.03825494-.69495422.31254405-.78473879.68406736-.13.43-.26.92-.38 1.44 1.18892625 1.93870651 2.93008314 3.4778892 5 4.42-1.84653078 1.5180361-3.49898048 3.2578104-4.92 5.18.29497092.9151715.71206632 1.7863627 1.24 2.59 1.74563675-2.9616151 4.00020714-5.5919472 6.66-7.77-2.60828332-1.26574497-4.69693322-3.396804-5.91-6.03z" fill="#fdd834"/><path id="Shape" d="m55 16.32c-1.7456368-2.9616151-4.0002071-5.5919472-6.66-7.77 2.5957805-1.26193025 4.6763112-3.38131635 5.89-6 .1619814-.34619774.5249621-.5523223.9052612-.51406736s.6949542.31254405.7847388.68406736c.97 3.19 2.08 9.16-.92 13.6z" fill="#ffeb3a"/><path id="Shape" d="m55.94 2.69c-.0897846-.37152331-.4044397-.64581242-.7847388-.68406736s-.7432798.16786962-.9052612.51406736c-.2776724.55470215-.5882253 1.09232591-.93 1.61.8660731 3.14139979.8660731 6.4586002 0 9.6.604079.8339287 1.1648212 1.6984063 1.68 2.59 3-4.44 1.89-10.41.94-13.63z" fill="#fdd834"/><path id="Shape" d="m36 12c-.001472 2.0123062-1.0116057 3.889878-2.69 5h-6.62c-2.3908635-1.5813649-3.3292034-4.6330382-2.2398677-7.28450773 1.0893357-2.65146957 3.9020437-4.16205391 6.7140849-3.60584582s4.8378787 3.02383323 4.8357828 5.89035355z" fill="#f5f5f5"/><path id="Shape" d="m30 6c-.5066588-.00017747-1.0110876.0670797-1.5.2 2.2877925.59701983 4.0116486 2.48196532 4.4024556 4.8138523.390807 2.3318871-.6243129 4.6758647-2.5924556 5.9861477h3c2.2044607-1.4622703 3.1911473-4.1957303 2.4288989-6.7288823-.7622485-2.53315198-3.0935495-4.26819931-5.7388989-4.2711177z" fill="#cfd8dc"/><circle id="Oval" cx="17" cy="24" fill="#37474f" r="2"/><circle id="Oval" cx="43" cy="24" fill="#37474f" r="2"/><circle id="Oval" cx="30" cy="11" fill="#37474f" r="2"/><g fill="#000"><path id="Shape" d="m30 61c10.6443488-.0034468 20.4898493-5.6469688 25.872271-14.8301986 5.3824216-9.1832299 5.4957202-20.5309338.297729-29.8198014 2.8-4.71 1.68-10.71.73-13.94-.2066869-.76361133-.8648904-1.31925372-1.6523556-1.39488597s-1.5393942.34457368-1.8876444 1.05488597c-1.0418517 2.23618529-2.754555 4.09219646-4.9 5.31-10.8371332-8.50530615-26.0828668-8.50530615-36.92 0-2.14544497-1.21780354-3.85814831-3.07381471-4.9-5.31-.34042737-.71548044-1.09099906-1.14266752-1.88-1.07-.79334954.0775544-1.45510858.63965093-1.66 1.41-1 3.23-2.07 9.23.73 13.94-5.19799116 9.2888676-5.08469259 20.6365715.29772904 29.8198014 5.38242162 9.1832298 15.22792216 14.8267518 25.87227096 14.8301986zm25-57.83c.78 2.72 1.63 7.38-.09 11.2-1.3767926-2.0616934-3.0023732-3.9458891-4.84-5.61 2.1095284-1.39368606 3.810898-3.32282515 4.93-5.59zm-50.08-.07c1.12894221 2.30091036 2.8559226 4.25585217 5 5.66-1.83762681 1.6641109-3.46320745 3.5483066-4.84 5.61-1.77-3.87-.88-8.59-.16-11.27zm25.08-.1c15.463973 0 28 12.536027 28 28s-12.536027 28-28 28-28-12.536027-28-28 12.536027-28 28-28z"/><path id="Shape" d="m17 27c1.6568542 0 3-1.3431458 3-3s-1.3431458-3-3-3-3 1.3431458-3 3 1.3431458 3 3 3zm0-4c.5522847 0 1 .4477153 1 1s-.4477153 1-1 1-1-.4477153-1-1 .4477153-1 1-1z"/><path id="Shape" d="m11 30c0 .5522847.4477153 1 1 1h10c.5522847 0 1-.4477153 1-1-.00782-.3147701-.1634348-.6074741-.42-.79.9218926-1.2098068 1.4208044-2.6889747 1.42-4.21-.0000001-3.8659932-3.1340068-6.9999999-7-6.9999999s-6.9999999 3.1340067-7 6.9999999c-.00080438 1.5210253.4981074 3.0001932 1.42 4.21-.2565652.1825259-.41218.4752299-.42.79zm6-10c2.152152 0 4.0628463 1.3771505 4.7434165 3.4188612s-.0216949 4.2898476-1.7434165 5.5811388h-6c-1.7217216-1.2912912-2.4239867-3.5394281-1.7434165-5.5811388s2.5912645-3.4188612 4.7434165-3.4188612z"/><path id="Shape" d="m37.42 29.21c-.2565652.1825259-.41218.4752299-.42.79 0 .5522847.4477153 1 1 1h10c.5522847 0 1-.4477153 1-1-.00782-.3147701-.1634348-.6074741-.42-.79.9218926-1.2098068 1.4208044-2.6889747 1.42-4.21-.0000001-3.8659932-3.1340068-6.9999998-7-6.9999998s-6.9999999 3.1340066-7 6.9999998c-.0008044 1.5210253.4981074 3.0001932 1.42 4.21zm5.58-9.21c2.152152 0 4.0628463 1.3771505 4.7434165 3.4188612s-.0216949 4.2898476-1.7434165 5.5811388h-6c-1.7217216-1.2912912-2.4239867-3.5394281-1.7434165-5.5811388s2.5912645-3.4188612 4.7434165-3.4188612z"/><path id="Shape" d="m43 27c1.6568542 0 3-1.3431458 3-3s-1.3431458-3-3-3-3 1.3431458-3 3 1.3431458 3 3 3zm0-4c.5522847 0 1 .4477153 1 1s-.4477153 1-1 1-1-.4477153-1-1 .4477153-1 1-1z"/><path id="Shape" d="m30 40c16 0 20.07 6.4 20.14 6.5.1775523.3075445.5048889.4978565.86.5.3579753.0014245.6894063-.1886117.8690104-.498274.1796041-.3096622.1799815-.6917095.0009896-1.001726-.9380067-1.3634061-2.1677462-2.5009152-3.6-3.33l.52-1.33c.2945908-.7411583.2819298-1.5691155-.0351854-2.3009197-.3171151-.7318042-.9125795-1.3072132-1.6548146-1.5990803l-1.86-.73c-.736221-.3055597-1.563779-.3055597-2.3 0-.7274432.3179527-1.2991984.9112836-1.59 1.65l-.5 1.26c-3.5592473-.8035476-7.20166-1.1795386-10.85-1.12-3.6499389-.0464203-7.2923714.3430011-10.85 1.16l-.5-1.25c-.2900115-.7415978-.8629589-1.337473-1.5926128-1.6563449-.7296538-.3188719-1.556146-.3345769-2.2973872-.0436551l-1.86.73c-1.5404661.6079357-2.2969257 2.3491357-1.69 3.89l.52 1.34c-1.4322538.8290848-2.66199334 1.9665939-3.6 3.33-.27614237.4804877-.11048773 1.0938576.37 1.37s1.09385763.1104877 1.37-.37c.04-.07 3.9-6.5 20.13-6.5zm13.21-1.37c.0969339-.2462388.2875189-.4440158.53-.55.2434614-.100018.5165386-.100018.76 0l1.86.73c.2510897.0958724.4530168.2887828.5602514.5352341.1072346.2464514.1107482.5256944.0097486.7747659l-.42 1.07c-1.1966159-.5960791-2.4409443-1.0911345-3.72-1.48zm-30.14 1.47c-.0983792-.246631-.0946309-.5222628.0104184-.7661274.1050494-.2438647.3027739-.4359375.5495816-.5338726l1.87-.73c.5135854-.197185 1.0899933.0575069 1.29.57l.42 1.06c-1.2790557.3888655-2.5233841.8839209-3.72 1.48z"/><path id="Shape" d="m32 43h-4c-.5522847 0-1 .4477153-1 1s.4477153 1 1 1h4c.5522847 0 1-.4477153 1-1s-.4477153-1-1-1z"/><path id="Shape" d="m30 14c1.6568542 0 3-1.3431458 3-3 0-1.65685425-1.3431458-3-3-3s-3 1.34314575-3 3c0 1.6568542 1.3431458 3 3 3zm0-4c.5522847 0 1 .4477153 1 1s-.4477153 1-1 1-1-.4477153-1-1 .4477153-1 1-1z"/><path id="Shape" d="m24 17c0 .5522847.4477153 1 1 1h10c.5522847 0 1-.4477153 1-1-.00782-.3147701-.1634348-.6074741-.42-.79.9218926-1.2098068 1.4208044-2.6889747 1.42-4.21 0-3.86599325-3.1340068-7-7-7s-7 3.13400675-7 7c-.0008044 1.5210253.4981074 3.0001932 1.42 4.21-.2565652.1825259-.41218.4752299-.42.79zm6-10c2.152152 0 4.0628463 1.37715047 4.7434165 3.4188612.6805702 2.0417107-.0216949 4.2898476-1.7434165 5.5811388h-6c-1.7217216-1.2912912-2.4239867-3.5394281-1.7434165-5.5811388.6805702-2.04171073 2.5912645-3.4188612 4.7434165-3.4188612z"/></g></g></g></svg>