<svg height="512" viewBox="0 0 60 60" width="512" xmlns="http://www.w3.org/2000/svg"><g id="Page-1" fill="none" fill-rule="evenodd"><g id="041---Amazed" fill-rule="nonzero"><circle id="Oval" cx="30" cy="30" fill="#02a9f4" r="29"/><path id="Shape" d="m30 1c-.5 0-1 0-1.5 0 16.0162576.00000024 28.9999996 12.9837424 28.9999996 29s-12.983742 28.9999998-28.9999996 29h1.5c16.0162576-.0000002 28.9999996-12.9837424 28.9999996-29s-12.983742-28.99999976-28.9999996-29z" fill="#0377bc"/><path id="Shape" d="m28 24c-.0041837 6.0208224-4.8480041 10.919538-10.868397 10.9915691-6.020393.0720311-10.98003154-4.7093908-11.12826597-10.7283896-.14823442-6.0189988 4.57002287-11.0387655 10.58666297-11.2631795-4.3326951.2223428-7.69857923 3.8575834-7.58737128 8.1945542.11120795 4.3369709 3.65897488 7.7949326 7.99737128 7.7949326s7.8861633-3.4579617 7.9973713-7.7949326c.1112079-4.3369708-3.2546762-7.9722114-7.5873713-8.1945542 5.9144425.2205993 10.5941126 5.0814464 10.59 11z" fill="#f5f5f5"/><path id="Shape" d="m17.41 13c4.2573943.2184749 7.595602 3.7370074 7.59 8-.0026721.4695526-.0461693.9379836-.13 1.4.0842154.5292206.1276764 1.0641257.13 1.6-.0036191 5.4927444-4.0585628 10.1409904-9.5 10.89.4972906.0672058.9982253.103941 1.5.11 6.0751322.1132183 11.0917815-4.7198678 11.2049998-10.795.1132184-6.0751322-4.7198676-11.0917815-10.7949998-11.205z" fill="#cfd8dc"/><path id="Shape" d="m25 21c-.0057346 4.3636086-3.5072402 7.917682-7.8702789 7.9884348s-7.97794149-3.3679181-8.12515995-7.7290463c-.14721847-4.3611282 3.22756115-8.0357496 7.58543885-8.2593885h.82c4.2573943.2184749 7.595602 3.7370074 7.59 8z" fill="#37474f"/><path id="Shape" d="m54 24c-.0041837 6.0208224-4.8480041 10.919538-10.868397 10.9915691-6.020393.0720311-10.9800315-4.7093908-11.128266-10.7283896-.1482344-6.0189988 4.5700229-11.0387655 10.586663-11.2631795-4.3326951.2223428-7.6985792 3.8575834-7.5873713 8.1945542.111208 4.3369709 3.6589749 7.7949326 7.9973713 7.7949326s7.8861633-3.4579617 7.9973713-7.7949326c.1112079-4.3369708-3.2546762-7.9722114-7.5873713-8.1945542 5.9144425.2205993 10.5941126 5.0814464 10.59 11z" fill="#f5f5f5"/><path id="Shape" d="m43.41 13c4.2573943.2184749 7.595602 3.7370074 7.59 8-.0026721.4695526-.0461693.9379836-.13 1.4.0842154.5292206.1276764 1.0641257.13 1.6-.0036191 5.4927444-4.0585628 10.1409904-9.5 10.89.4972906.0672058.9982253.103941 1.5.11 6.0751322.1132184 11.0917816-4.7198678 11.205-10.795s-4.7198678-11.0917816-10.795-11.205z" fill="#cfd8dc"/><path id="Shape" d="m51 21c-.0057346 4.3636086-3.5072402 7.917682-7.8702789 7.9884348s-7.9779415-3.3679181-8.12516-7.7290463c-.1472184-4.3611282 3.2275612-8.0357496 7.5854389-8.2593885h.82c4.2573943.2184749 7.595602 3.7370074 7.59 8z" fill="#37474f"/><path id="Shape" d="m43.92 49.71c-.1048802.7934284-.4544185 1.5344496-1 2.12-.3423214.353824-.7590482.6270874-1.22.8l-3.22-3.9c-.3945524-.4613333-.9772777-.718502-1.5840082-.6990555s-1.1717915.3134032-1.5359918.7990555l-1.8 2.5c-1.13629-.4281469-2.3465709-.6253274-3.56-.58-1.2134291-.0453274-2.42371.1518531-3.56.58l-1.8-2.5c-.3642003-.4856523-.9292613-.779609-1.5359918-.7990555s-1.1894558.2377222-1.5840082.6990555l-3.22 3.9c-.4609518-.1729126-.8776786-.446176-1.22-.8-.5455815-.5855504-.8951198-1.3265716-1-2.12-.1973833-2.0875332.2604988-4.1847032 1.31-6 2.4299228-4.7246689 7.2970893-7.6946087 12.61-7.6946087s10.1800772 2.9699398 12.61 7.6946087c1.0495012 1.8152968 1.5073833 3.9124668 1.31 6z" fill="#37474f"/><path id="Shape" d="m26.44 51.33c-1.9994595 1.0189475-4.1973421 1.5888953-6.44 1.67-.5839824-.014445-1.1602909-.1364868-1.7-.36l3.22-3.9c.3945524-.4613333.9772777-.718502 1.5840082-.6990555s1.1717915.3134032 1.5359918.7990555z" fill="#ffdc00"/><path id="Shape" d="m41.7 52.63c-.5390544.226944-1.1153866.352381-1.7.37-2.2268105-.0775439-4.4103201-.6370683-6.4-1.64l1.8-2.5c.3642003-.4856523.9292613-.779609 1.5359918-.7990555s1.1894558.2377222 1.5840082.6990555z" fill="#ffdc00"/><g fill="#000"><path id="Shape" d="m30 0c-16.5685425 0-30 13.4314575-30 30s13.4314575 30 30 30 30-13.4314575 30-30c0-7.9564947-3.1607052-15.5871121-8.7867966-21.21320344-5.6260913-5.62609135-13.2567087-8.78679656-21.2132034-8.78679656zm0 58c-15.463973 0-28-12.536027-28-28s12.536027-28 28-28 28 12.536027 28 28-12.536027 28-28 28z"/><path id="Shape" d="m29 24c0-6.627417-5.372583-12-12-12s-12 5.372583-12 12 5.372583 12 12 12c3.1825979 0 6.2348448-1.2642821 8.4852814-3.5147186 2.2504365-2.2504366 3.5147186-5.3026835 3.5147186-8.4852814zm-5-3c-.0199884 3.7675664-3.0184048 6.8434616-6.7842357 6.9595397-3.7658308.1160781-6.9479979-2.7693066-7.1999911-6.5284894-.25199323-3.7591828 2.5165958-7.0434707 6.2642268-7.4310503.4786976-.0500054.9613024-.0500054 1.44 0 3.582379.3703869 6.2990965 3.3985751 6.28 7zm-17 3c-.00164162-1.6249943.39674493-3.2254092 1.16-4.66-.68026099 3.5593477.84052627 7.1794998 3.8586097 9.1852125 3.0180835 2.0057126 6.9446971 2.0057126 9.9627806 0 3.0180834-2.0057127 4.5388707-5.6258648 3.8586097-9.1852125.7632551 1.4345908 1.1616416 3.0350057 1.16 4.66-.0000002 5.5228474-4.4771526 9.9999997-10 9.9999997s-9.99999984-4.4771523-10-9.9999997z"/><path id="Shape" d="m31 24c0 6.627417 5.372583 12 12 12s12-5.372583 12-12-5.372583-12-12-12-12 5.372583-12 12zm12.72-10c3.7061335.3832349 6.4625841 3.6023999 6.2707121 7.3233513-.1918721 3.7209514-3.264817 6.6395217-6.9907121 6.6395217s-6.79884-2.9185703-6.9907121-6.6395217c-.191872-3.7209514 2.5645786-6.9401164 6.2707121-7.3233513.4786976-.0500054.9613024-.0500054 1.44 0zm-.72 20c-5.5228475 0-10-4.4771525-10-10-.0016416-1.6249943.3967449-3.2254092 1.16-4.66-.680261 3.5593477.8405263 7.1794998 3.8586097 9.1852125 3.0180835 2.0057126 6.9446971 2.0057126 9.9627806 0 3.0180834-2.0057127 4.5388707-5.6258648 3.8586097-9.1852125.7632551 1.4345908 1.1616416 3.0350057 1.16 4.66 0 2.6521649-1.0535684 5.195704-2.9289322 7.0710678s-4.4189029 2.9289322-7.0710678 2.9289322z"/><path id="Shape" d="m30 35c-5.6795136.0318832-10.8753121 3.2032446-13.5 8.24-1.1639907 2.003478-1.6579719 4.3262404-1.41 6.63.1464214.9941399.5889905 1.9210958 1.27 2.66.9740762.947671 2.2810023 1.4754681 3.64 1.47 2.48.11 4.89-.91 6.83-1.72 1.0091109-.3922922 2.0881615-.5727013 3.17-.53 1.0944994-.0514381 2.1877145.125656 3.21.52 2.0297229.9946263 4.2345059 1.582342 6.49 1.73 1.4594823.0718971 2.8842847-.4596916 3.94-1.47.6810095-.7389042 1.1235786-1.6658601 1.27-2.66.2479719-2.3037596-.2460093-4.626522-1.41-6.63-2.6246879-5.0367554-7.8204864-8.2081168-13.5-8.24zm-9.88 17 2.17-2.62c.1906301-.2349915.4774116-.3710289.78-.37.3023276.0146053.5817713.1653578.76.41l1.06 1.48c-1.5022152.67671-3.1231431 1.0505089-4.77 1.1zm15-1.1 1.06-1.47c.1761626-.248423.4559288-.4030307.76-.42.3025884-.0010289.5893699.1350085.78.37l2.16 2.62c-1.6475341-.0526412-3.2684911-.429845-4.77-1.11zm7.82-1.33c-.0809007.5826001-.3312797 1.1285655-.72 1.57-.0854794.0787131-.1756442.1521807-.27.22l-2.7-3.26c-.5748644-.7222491-1.4573926-1.1301403-2.38-1.1-.9247414.0365171-1.7808678.4977921-2.32 1.25l-1.37 1.9c-1.035531-.2841481-2.1063569-.4188431-3.18-.4-1.0736431-.0188431-2.144469.1158519-3.18.4l-1.37-1.91c-.545849-.7358322-1.3980191-1.1818996-2.3137407-1.2111247-.9157216-.0292252-1.7946009.3615959-2.3862593 1.0611247l-2.69 3.26c-.0943558-.0678193-.1845206-.1412869-.27-.22-.3887203-.4414345-.6390993-.9873999-.72-1.57-.1738002-1.882407.2495522-3.7717486 1.21-5.4 2.2569774-4.3960771 6.7833969-7.1603011 11.725-7.1603011s9.4680226 2.764224 11.725 7.1603011c.9512823 1.6316237 1.3707092 3.5190449 1.2 5.4z"/></g></g></g></svg>