<svg height="512" viewBox="0 0 60 61" width="512" xmlns="http://www.w3.org/2000/svg"><g id="Page-1" fill="none" fill-rule="evenodd"><g id="044---Happy" fill-rule="nonzero"><path id="Shape" d="m10.91 7.63c-.4142945-.43383703-.5530362-1.0620286-.36-1.63.5115507-1.1023559.3567181-2.39907917-.4-3.35-1.36-1.39-4.37-.6-6.71 1.74s-3.14 5.36-1.77 6.72c.91937109.7358667 2.1708913.9014525 3.25.43.69312618-.1874802 1.43356264.0109873 1.94.52l.23.23c1.01645076 1.0211724 1.16339192 2.6207318.35 3.81-4 6-6.44 13-6.44 18.9 0 13.81 13 25 29 25s29-11.19 29-25c0-5.95-2.41-12.91-6.44-18.9-.8133919-1.1892682-.6664508-2.7888276.35-3.81l.41-.41c.4416503-.4372477 1.0955246-.5812558 1.68-.37 1.1023559.5115507 2.3990792.3567181 3.35-.4 1.37-1.36.57-4.38-1.77-6.72s-5.37-3.13-6.73-1.76c-.7647754.95526563-.919907 2.26224981-.4 3.37.2012412.57385083.0619814 1.212125-.36 1.65-1.109597 1.11952268-2.8963368 1.18941959-4.09.16-4.1849175-3.60095591-9.4813415-5.65243745-15-5.81-5.5186585.15756255-10.8150825 2.20904409-15 5.81-1.1924542.99920944-2.950891.92105669-4.05-.18z" fill="#02a9f4"/><path id="Shape" d="m53.56 4.39c2.34 2.34 3.14 5.36 1.77 6.72-.1502251.1485156-.3221977.2732801-.51.37.0532276-.0047501.1067724-.0047501.16 0 1.1023559.5115507 2.3990792.3567181 3.35-.4 1.37-1.36.57-4.38-1.77-6.72-2.1-2.1-4.73-2.94-6.24-2.1 1.2241701.46177332 2.3307253 1.18923091 3.24 2.13z" fill="#0377bc"/><path id="Shape" d="m52.56 16.1c-.8133919-1.1892682-.6664508-2.7888276.35-3.81l.41-.41c0-.05.1-.07.14-.11-.497181-.0106725-.9896999-.0983813-1.46-.26-.5786449-.2028327-1.2222687-.0593744-1.66.37l-.41.41c-1.0164508 1.0211724-1.1633919 2.6207318-.35 3.81 4 6 6.44 13 6.44 18.9 0 13.38-12.18 24.29-27.5 25h1.5c16 0 29-11.19 29-25-.02-5.95-2.43-12.91-6.46-18.9z" fill="#0377bc"/><path id="Shape" d="m46 21c.0128222 3.1855702-2.1268571 5.9780537-5.2060732 6.7944173-3.0792162.8163637-6.3213064-.549302-7.8883595-3.3228136-1.5670531-2.7735115-1.0638152-6.2553133 1.2244327-8.4716037 2.3999359.0280814 4.7664153-.5643996 6.87-1.72 2.9708167.8857216 5.0052227 3.6199633 5 6.72z" fill="#f5f5f5"/><path id="Shape" d="m41 14.28c-.4563516.2727298-.9346802.5068766-1.43.7 2.4739146 1.455224 3.8088177 4.2731898 3.3677467 7.1092763s-2.5687316 5.115551-5.3677467 5.7507237c.4702656.1001038.9492395.1536952 1.43.16 3.491247.0201497 6.4635768-2.5353556 6.9671907-5.9901471.5036139-3.4547916-1.6154796-6.7524868-4.9671907-7.7298529z" fill="#cfd8dc"/><path id="Shape" d="m28 21c-.0060732 3.6030161-2.7461628 6.6129059-6.3327797 6.9563306-3.586617.3434247-6.8480862-2.0918056-7.5377703-5.6282018-.689684-3.5363961 1.4177228-7.0186891 4.87055-8.0481288 2.1035847 1.1556004 4.4700641 1.7480814 6.87 1.72 1.3602048 1.3077976 2.1292524 3.1130736 2.13 5z" fill="#f5f5f5"/><path id="Shape" d="m25.87 16c-2.3999359.0280814-4.7664153-.5643996-6.87-1.72-.5511419.1651606-1.0787911.4004182-1.57.7 1.7326277.6285098 3.5572049.9663945 5.4 1 1.848609 1.7884849 2.5674436 4.4467371 1.8721298 6.9231401-.6953139 2.4764031-2.6927561 4.3719907-5.2021298 4.9368599.4931668.1047782.995828.1583954 1.5.16 2.8389667-.0117285 5.3896994-1.7370086 6.4572895-4.3676208 1.0675901-2.6306123.4405854-5.6455242-1.5872895-7.6323792z" fill="#cfd8dc"/><circle id="Oval" cx="39" cy="21" fill="#37474f" r="2"/><circle id="Oval" cx="21" cy="21" fill="#37474f" r="2"/><path id="Shape" d="m49.47 34.52c-1.13 4-4.5 11.76-14 13.9l-4-4c-.7800749-.7754472-2.0399251-.7754472-2.82 0l-4 4c-9.55-2.14-12.92-9.85-14-13.9-.1575457-.580769-.0452211-1.2016063.305827-1.6903584.3510481-.488752.9035029-.793464 1.504173-.8296416h3.4l3.52 4.11c.396027.4601925.9796542.7155767 1.5864136.6941846.6067593-.0213922 1.1709519-.3172444 1.5335864-.8041846l3-4h9l3 4c.3642003.4856523.9292613.779609 1.5359918.7990555s1.1894558-.2377222 1.5840082-.6990555l3.52-4.1h3.4c.6219953.0003785 1.2084091.2901217 1.5866039.7839304.3781947.4938087.505115 1.1354655.3433961 1.7360696z" fill="#37474f"/><path id="Shape" d="m25.5 32-3 4c-.3642003.4856523-.9292613.779609-1.5359918.7990555s-1.1894558-.2377222-1.5840082-.6990555l-3.52-4.1z" fill="#ffeb3a"/><path id="Shape" d="m35.42 48.42c-3.5719409.7734718-7.2680591.7734718-10.84 0l4-4c.7800749-.7754472 2.0399251-.7754472 2.82 0z" fill="#ffeb3a"/><path id="Shape" d="m44.14 32-3.52 4.11c-.396027.4601925-.9796542.7155767-1.5864136.6941846-.6067593-.0213922-1.1709519-.3172444-1.5335864-.8041846l-3-4z" fill="#ffeb3a"/><g fill="#000"><path id="Shape" d="m47.54 31h-35.08c-.9344114.0012814-1.814869.4378834-2.3814586 1.1809195-.5665895.7430361-.75460418 1.7076486-.5085414 2.6090805 1.27 4.58 5.81 15.21 20.43 15.21s19.16-10.63 20.43-15.21c.2460628-.9014319.0580481-1.8660444-.5085414-2.6090805-.5665896-.7430361-1.4470472-1.1796381-2.3814586-1.1809195zm-5.54 2-2.11 2.46c-.1967402.230285-.4872509.3589923-.79.35-.3041575-.009234-.5875616-.1564569-.77-.4l-1.83-2.41zm-18.5 0-1.8 2.41c-.1824384.2435431-.4658425.390766-.77.4-.3027491.0089923-.5932598-.119715-.79-.35l-2.14-2.46zm3.15 14.76 2.65-2.64c.3888435-.3811429 1.0111565-.3811429 1.4 0l2.65 2.64c-2.2218704.3200029-4.4781296.3200029-6.7 0zm21.86-13.5c-1.19 4.27-4.39 10.93-12.78 13.05l-3.61-3.61c-1.1712702-1.1698135-3.0687298-1.1698135-4.24 0l-3.61 3.61c-8.39-2.12-11.59-8.78-12.78-13.05-.0787004-.2975529-.0159946-.6147705.17-.86.1888544-.2518058.4852427-.4.8-.4h2.94l3.22 3.76c.570008.6664133 1.4030645 1.0500577 2.28 1.05h.1c.9124725-.0277019 1.7626847-.4693706 2.31-1.2l2.69-3.61h8l2.7 3.61c.545147.7279424 1.391076 1.1692967 2.3 1.2h.09c.8769355.0000577 1.709992-.3835867 2.28-1.05l3.23-3.76h2.94c.3147573 0 .6111456.1481942.8.4.1859946.2452295.2487004.5624471.17.86z"/><path id="Shape" d="m32 53h-4c-.5522847 0-1 .4477153-1 1s.4477153 1 1 1h4c.5522847 0 1-.4477153 1-1s-.4477153-1-1-1z"/><path id="Shape" d="m53.61 13 .42-.42c.1745217-.1556938.4209304-.2018954.64-.12 1.4485989.6197997 3.122645.3723656 4.33-.64 1.78-1.79 1-5.36-1.77-8.13-1.1371709-1.19038268-2.5635961-2.06553246-4.14-2.54-1.3739601-.49230227-2.9069929-.19719345-4 .77-1.0374004 1.21172885-1.2863634 2.91167874-.64 4.37.0818954.21906964.0356938.46547832-.12.64-.7402761.69534605-1.8841767.7254487-2.66.07-4.88-3.91-10.3-6-15.67-6s-10.79 2.09-15.67 6c-.7940247.67499609-1.973294.62712907-2.71-.11-.1556938-.17452168-.2018954-.42093036-.12-.64.6294692-1.44733212.3812552-3.12665486-.64-4.33-1.08228297-.9485454-2.59068586-1.24258849-3.95-.77-1.59076786.46817294-3.03165918 1.34373847-4.18 2.54-2.73 2.77-3.55 6.31-1.73 8.13 1.18040999 1.0079877 2.82716484 1.2669843 4.26.67.33798544-.0888087.69722783.0193503.93.28l.24.23c.6734097.6841477.76574977 1.7502558.22 2.54-4.24 6.24-6.65 13.33-6.65 19.46 0 14.34 13.46 26 30 26s30-11.66 30-26c0-6.13-2.41-13.22-6.61-19.46-.5457498-.7897442-.4534097-1.8558523.22-2.54zm-23.61 46c-15.44 0-28-10.77-28-24 0-5.66 2.35-12.52 6.27-18.34 1.08365377-1.5864659.88632645-3.7192803-.47-5.08l-.23-.23c-.5579811-.5639977-1.31665239-.884006-2.11-.89-.28427125 0-.5670996.0404041-.84.12-.72607282.339721-1.57749163.2713034-2.24-.18-.84-.83-.32-3.22 1.76-5.3.90569476-.93446037 2.03452844-1.62277358 3.28-2 .6647623-.260207 1.41567425-.17009756 2 .24.46536278.69104254.53370402 1.57568191.18 2.33-.31762117.93203675-.0858406 1.96346028.6 2.67 1.4601908 1.45902122 3.790797 1.56732077 5.38.25 4.53-3.66 9.51-5.59 14.42-5.59s9.89 1.93 14.42 5.59c1.589203 1.31732077 3.9198092 1.20902122 5.38-.25.6879539-.70539515.920021-1.73809365.6-2.67-.3663848-.7518284-.3093799-1.64110523.15-2.34.5843257-.41009756 1.3352377-.500207 2-.24 1.2454716.37722642 2.3743052 1.06553963 3.28 2 2.08 2.08 2.6 4.47 1.76 5.3-.6905243.4709372-1.5815829.5321258-2.33.16-.9335099-.3223479-1.9690903-.0857546-2.67.61l-.42.41c-1.3563265 1.3607197-1.5536538 3.4935341-.47 5.08 3.95 5.83 6.3 12.69 6.3 18.35 0 13.23-12.56 24-28 24z"/><path id="Shape" d="m39 29c3.6437169-.0104411 6.8200464-2.4817665 7.7259087-6.0111001s-.6876283-7.2249128-3.8759087-8.9888999c.5237022-.4819279.9189599-1.086844 1.15-1.76.1210621-.5229319-.1923149-1.0481694-.71-1.19-.5238126-.1419329-1.0652242.1598375-1.22.68 0 0-1.13 3.27-9.07 3.27-.5522847 0-1 .4477153-1 1 .0008725.2526349.0973348.4955769.27.68-1.5792685 2.4615088-1.6894902 5.5886175-.2874479 8.155209s4.0928773 4.1635774 7.0174479 4.164791zm6-8c0 3.3137085-2.6862915 6-6 6s-6-2.6862915-6-6c.0053773-1.4863727.5734782-2.9155573 1.59-4 2.230684-.0642817 4.4195752-.6208952 6.41-1.63 2.3880136.8442617 3.9886547 3.0971641 4 5.63z"/><path id="Shape" d="m39 18c-1.6568542 0-3 1.3431458-3 3s1.3431458 3 3 3 3-1.3431458 3-3-1.3431458-3-3-3zm0 4c-.5522847 0-1-.4477153-1-1s.4477153-1 1-1 1 .4477153 1 1-.4477153 1-1 1z"/><path id="Shape" d="m21 29c2.9245706-.0012136 5.6154056-1.5981995 7.0174479-4.164791s1.2918206-5.6937002-.2874479-8.155209c.1726652-.1844231.2691275-.4273651.27-.68 0-.5522847-.4477153-1-1-1-7.85 0-9-3.16-9-3.26-.1418527-.5224856-.6737537-.8371938-1.2-.71-.2700531.0477987-.5086241.20441-.6598772.4331804-.1512532.2287703-.2019129.5096204-.1401228.7768196.2310401.673156.6262978 1.2780721 1.15 1.76-3.1882804 1.7639871-4.781771 5.4595663-3.8759087 8.9888999s4.0821918 6.000659 7.7259087 6.0111001zm-2-13.63c1.9904248 1.0091048 4.179316 1.5657183 6.41 1.63 1.0165218 1.0844427 1.5846227 2.5136273 1.59 4 .0136611 3.0546645-2.269854 5.6319754-5.3039267 5.9863268s-5.8500423-1.6273873-6.5406601-4.6029896.9646035-5.995075 3.8445868-7.0133372z"/><path id="Shape" d="m21 24c1.6568542 0 3-1.3431458 3-3s-1.3431458-3-3-3-3 1.3431458-3 3 1.3431458 3 3 3zm0-4c.5522847 0 1 .4477153 1 1s-.4477153 1-1 1-1-.4477153-1-1 .4477153-1 1-1z"/></g></g></g></svg>