<svg height="512" viewBox="0 0 60 60" width="512" xmlns="http://www.w3.org/2000/svg"><g id="Page-1" fill="none" fill-rule="evenodd"><g id="049---Grumpy" fill-rule="nonzero"><path id="Shape" d="m59 34c0 13.81-13 25-29 25s-29-11.19-29-25c.20482431-5.6886841 1.83464825-11.2348993 4.74-16.13 1.78404451-3.1766985 3.99083754-6.0966625 6.56-8.68 4.9-4.87 11.04-8.19 17.7-8.19s12.8 3.32 17.7 8.19c2.5691625 2.5833375 4.7759555 5.5033015 6.56 8.68 2.9053517 4.8951007 4.5351757 10.4413159 4.74 16.13z" fill="#ff5722"/><path id="Shape" d="m54.26 17.87c-1.7840445-3.1766985-3.9908375-6.0966625-6.56-8.68-4.9-4.87-11.04-8.19-17.7-8.19-.5 0-1 0-1.5.06 6.08.46 11.67 3.63 16.2 8.13 2.5691625 2.5833375 4.7759555 5.5033015 6.56 8.68 2.9053517 4.8951007 4.5351757 10.4413159 4.74 16.13 0 13.38-12.18 24.29-27.5 25h1.5c16 0 29-11.19 29-25-.2048243-5.6886841-1.8346483-11.2348993-4.74-16.13z" fill="#d84315"/><path id="Shape" d="m12.3 9.19c-2.56916246 2.5833375-4.77595549 5.5033015-6.56 8.68-2.71733022-.5840371-4.67784617-2.9578472-4.73781275-5.7365856-.05996657-2.77873833 1.79631577-5.2349168 4.48592025-5.93563833 2.68960449-.70072154 5.5083786.53746643 6.8118925 2.99222393z" fill="#d84315"/><path id="Shape" d="m59 12c.001788 2.8295647-1.97353 5.2757918-4.74 5.87-1.7840445-3.1766985-3.9908375-6.0966625-6.56-8.68 1.2914306-2.43365439 4.0742852-3.67506207 6.7479386-3.01019783 2.6736533.66486425 4.5509266 3.06511788 4.5520614 5.82019783z" fill="#d84315"/><path id="Shape" d="m26 22c0 3.3137085-2.6862915 6-6 6s-6-2.6862915-6-6h11c.3416805.0033445.6809318-.0577207 1-.18.0049626.0598974.0049626.1201026 0 .18z" fill="#f5f5f5"/><path id="Shape" d="m46 22c0 3.3137085-2.6862915 6-6 6s-6-2.6862915-6-6c-.0049626-.0598974-.0049626-.1201026 0-.18.3190682.1222793.6583195.1833445 1 .18z" fill="#f5f5f5"/><path id="Shape" d="m47.86 36.47-.86 2.12c-1.7526883-.9829329-3.6247852-1.7358049-5.57-2.24l.82-2.08c.4039739-1.0264728 1.5627716-1.5320486 2.59-1.13l1.86.73c.5008735.1880427.9055259.5689239 1.1235107 1.0575106s.2311271 1.0441417.0364893 1.5424894z" fill="#ffdc00"/><path id="Shape" d="m18.54 36.35c-1.9348781.5066257-3.7967488 1.2594399-5.54 2.24l-.83-2.12c-.1962132-.4945279-.187301-1.0468543.0247653-1.5347943.2120662-.48794.609807-.8712756 1.1052347-1.0652057l1.86-.73c1.0272284-.4020486 2.1860261.1035272 2.59 1.13z" fill="#ffdc00"/><g fill="#000"><path id="Shape" d="m60 12c-.0104651-2.98428005-1.9117852-5.63376942-4.7356389-6.59911239s-5.9492107-.03423841-7.7843611 2.31911239c-5.01-4.65-11.1-7.72-17.48-7.72s-12.47 3.07-17.48 7.72c-1.8351504-2.3533508-4.96050738-3.28445536-7.78436111-2.31911239-2.82385372.96534297-4.72517381 3.61483234-4.73563889 6.59911239.00335563 2.8198426 1.698359 5.3623477 4.3 6.45-2.6675231 4.7602449-4.1428833 10.0955591-4.3 15.55 0 14.34 13.46 26 30 26s30-11.66 30-26c-.1571167-5.4544409-1.6324769-10.7897551-4.3-15.55 2.601641-1.0876523 4.2966444-3.6301574 4.3-6.45zm-58 0c.00445703-2.17528268 1.41481865-4.09809129 3.4883049-4.75576094s4.33427262.10072198 5.5916951 1.87576094c-2.21436516 2.2925563-4.15717912 4.832643-5.79 7.57-1.97235476-.7178271-3.28643083-2.5910845-3.29-4.69zm28 46c-15.44 0-28-10.77-28-24 0-7.46 4.22-17.31 11-24.1l.1-.11c4.63-4.61 10.44-7.79 16.9-7.79s12.27 3.18 16.91 7.79l.1.11c6.77 6.79 10.99 16.64 10.99 24.1 0 13.23-12.56 24-28 24zm24.71-41.31c-1.6328209-2.737357-3.5756348-5.2774437-5.79-7.57 1.236665-1.76870373 3.4686096-2.54433384 5.5356026-1.92369472s3.5025058 2.49746674 3.5603161 4.65485202c.0578103 2.1573852-1.2751299 4.1083975-3.3059187 4.8388427z"/><path id="Shape" d="m6.25 9c-.55228475 0-1 .44771525-1 1 .09312093.8044237-.19985589 1.6054742-.79 2.16-.37201306.2402935-.54166334.6966564-.41695017 1.1216049.12471316.4249486.51408072.7172519.95695017.7183951.17948334-.0000528.35564432-.0484107.51-.14 1.21558047-.89347 1.8755241-2.3574829 1.74-3.86 0-.55228475-.44771525-1-1-1z"/><path id="Shape" d="m54.75 10c0-.55228475-.4477153-1-1-1s-1 .44771525-1 1c-.1355241 1.5025171.5244195 2.96653 1.74 3.86.1543557.0915893.3305167.1399472.51.14.4447253.0033163.8381997-.2874712.9655691-.7135799.1273694-.4261086-.0419771-.8851307-.4155691-1.1264201-.5965682-.5507547-.8938888-1.3535205-.8-2.16z"/><path id="Shape" d="m13 23h.08c.4964013 3.5617376 3.6108776 6.1678856 7.2043377 6.0284842 3.5934602-.1394015 6.4966793-2.9789946 6.7156623-6.5684842 1.2363362-.713798 1.9985357-2.0324032 2-3.46v-2c0-.5522847-.4477153-1-1-1s-1 .4477153-1 1v2c0 1.1045695-.8954305 2-2 2h-12c-.5522847 0-1 .4477153-1 1s.4477153 1 1 1zm7 4c-2.3763431.000485-4.4247314-1.6716687-4.9-4h9.8c-.4752686 2.3283313-2.5236569 4.000485-4.9 4z"/><path id="Shape" d="m47 21h-12c-1.1045695 0-2-.8954305-2-2v-2c0-.5522847-.4477153-1-1-1s-1 .4477153-1 1v2c.0014643 1.4275968.7636638 2.746202 2 3.46.2643297 3.550371 3.1514286 6.3367974 6.7089423 6.475003 3.5575138.1382055 6.6520842-2.4158394 7.1910577-5.935003h.1c.5522847 0 1-.4477153 1-1s-.4477153-1-1-1zm-7 6c-2.3763431.000485-4.4247314-1.6716687-4.9-4h9.8c-.4752686 2.3283313-2.5236569 4.000485-4.9 4z"/><path id="Shape" d="m14 18c.2163702 0 .4269038-.0701779.6-.2 3.45-2.59 8.9.07 9 .1.4943143.2454836 1.0940469.0440809 1.34-.45.2469243-.4916536.050313-1.0904244-.44-1.34-.27-.14-6.61-3.24-11 .09-.4418278.3313708-.5313708.9581722-.2 1.4.1668659.225653.4208747.3708009.7.4z"/><path id="Shape" d="m36.45 17.9s5.5-2.69 8.95-.1c.1730962.1298221.3836298.2.6.2.3147573 0 .6111456-.1481942.8-.4.3313708-.4418278.2418278-1.0686292-.2-1.4-4.44-3.33-10.78-.23-11.05-.09-.490313.2495756-.6869243.8483464-.44 1.34.2459531.4940809.8456857.6954836 1.34.45z"/><path id="Shape" d="m25 31c0 .5522847.4477153 1 1 1s1-.4477153 1-1c0-1.6568542 1.3431458-3 3-3s3 1.3431458 3 3c0 .5522847.4477153 1 1 1s1-.4477153 1-1c.0510915-1.3410933-.4592672-2.6427646-1.4082513-3.5917487s-2.2506554-1.4593428-3.5917487-1.4082513c-1.3410933-.0510915-2.6427646.4592672-3.5917487 1.4082513s-1.4593428 2.2506554-1.4082513 3.5917487z"/><path id="Shape" d="m45.24 32.21c-1.5408643-.6069257-3.2820643.1495339-3.89 1.69l-.5 1.26c-3.5584542-.8120646-7.2002974-1.201423-10.85-1.16-3.6497026-.041423-7.2915458.3479354-10.85 1.16l-.5-1.25c-.2900115-.7415978-.8629589-1.337473-1.5926128-1.6563449-.7296538-.3188719-1.556146-.3345769-2.2973872-.0436551l-1.86.73c-.7422351.2918671-1.3376995.8672761-1.6548146 1.5990803-.3171152.7318042-.3297762 1.5597614-.0351854 2.3009197l.52 1.33c-1.4363575.8278263-2.6670217 1.9696092-3.6 3.34-.27614234.4804877-.11048769 1.0938576.37000003 1.37.48048771.2761423 1.09385758.1104877 1.36999997-.37.9073613-1.2527008 2.0913689-2.279297 3.46-3 2.95-1.7 8.08-3.51 16.67-3.51 16 0 20.07 6.4 20.14 6.5.1775523.3075445.5048889.4978565.86.5.1751764.0012098.3475971-.0436196.5-.13.4761364-.2746085.6413883-.8820208.37-1.36-.9329783-1.3703908-2.1636425-2.5121737-3.6-3.34l.52-1.33c.2945908-.7411583.2819298-1.5691155-.0351854-2.3009197-.3171151-.7318042-.9125795-1.3072132-1.6548146-1.5990803zm-32.17 3.89c-.0983792-.246631-.0946309-.5222628.0104184-.7661274.1050494-.2438647.3027739-.4359375.5495816-.5338726l1.87-.73c.5135854-.197185 1.0899933.0575069 1.29.57l.42 1.06c-1.2775717.3930911-2.5215597.8880111-3.72 1.48zm29.72-.4.42-1.07c.0969339-.2462388.2875189-.4440158.53-.55.2434614-.100018.5165386-.100018.76 0l1.86.73c.2510897.0958724.4530168.2887828.5602514.5352341.1072346.2464514.1107482.5256944.0097486.7747659l-.42 1.07c-1.1981323-.5954078-2.4421276-1.0936748-3.72-1.49z"/><path id="Shape" d="m32 39h-4c-.5522847 0-1 .4477153-1 1s.4477153 1 1 1h4c.5522847 0 1-.4477153 1-1s-.4477153-1-1-1z"/></g></g></g></svg>