<svg id="Capa_1" enable-background="new 0 0 60 60" height="512" viewBox="0 0 60 60" width="512" xmlns="http://www.w3.org/2000/svg"><g id="Page-1"><g id="_x30_05---Lovey"><path id="Shape" d="m59 34v.34c-.642-.227-1.319-.342-2-.34-3.026.009-5.571 2.271-5.937 5.274s1.562 5.81 4.497 6.546c-4.89 7.85-14.5 13.18-25.56 13.18s-20.67-5.33-25.56-13.18c2.153-.527 3.841-2.198 4.388-4.346s-.134-4.423-1.773-5.916-3.967-1.962-6.055-1.218c0-.11 0-.23 0-.34.153-5.198 1.523-10.287 4-14.86-2.41-3.72-2.27-8.58-1.52-12.49.192-.816.843-1.445 1.666-1.609.822-.163 1.664.168 2.154.849 1.166 1.611 2.676 2.943 4.42 3.9 4.98-5.19 11.35-8.79 18.28-8.79s13.3 3.6 18.28 8.79c1.744-.957 3.254-2.289 4.42-3.9.49-.681 1.332-1.012 2.154-.849.822.164 1.473.792 1.666 1.609.75 3.91.89 8.77-1.56 12.49 2.491 4.569 3.874 9.659 4.04 14.86z" fill="#9d27b0"/><path id="Shape_1_" d="m45.28 9.79c.622-.36 1.22-.761 1.79-1.2-4.78-4.53-10.69-7.59-17.07-7.59-.5 0-1 .02-1.5.06 6.35.48 12.16 3.94 16.78 8.73z" fill="#6a1b9a"/><path id="Shape_2_" d="m53.22 44.7c-4.45 8.09-13.78 13.77-24.72 14.3h1.5c11.06 0 20.67-5.33 25.56-13.18z" fill="#6a1b9a"/><path id="Shape_3_" d="m55 19.14c2.45-3.72 2.31-8.58 1.56-12.49-.18-.745-.749-1.335-1.487-1.542-.738-.208-1.531 0-2.073.542.287.266.483.616.56 1 .75 3.91.89 8.77-1.56 12.49 2.477 4.573 3.847 9.662 4 14.86v.09c.331-.056.665-.086 1-.09.681-.002 1.358.113 2 .34 0-.11 0-.23 0-.34-.153-5.198-1.523-10.287-4-14.86z" fill="#6a1b9a"/><path id="Shape_4_" d="m9 40c-.002 2.757-1.883 5.158-4.56 5.82-2.179-3.438-3.369-7.41-3.44-11.48.642-.227 1.319-.342 2-.34 1.591 0 3.117.632 4.243 1.757s1.757 2.652 1.757 4.243z" fill="#ffdc00"/><path id="Shape_5_" d="m59 34.34c-.068 4.069-1.255 8.041-3.43 11.48-2.162-.517-3.861-2.187-4.415-4.341s.128-4.436 1.772-5.932 3.981-1.961 6.073-1.207z" fill="#ffdc00"/><path id="Shape_6_" d="m57 34c-.516.005-1 .09-1 .09s.002.122-.01.25c-.057 3.61-1.001 7.151-2.75 10.31.677.557 1.47.957 2.32 1.17 2.179-3.438 3.369-7.41 3.44-11.48-.642-.227-1.319-.342-2-.34z" fill="#fec108"/><g fill="#ffdc00"><circle id="Oval" cx="11" cy="29" r="3"/><circle id="Oval_1_" cx="14" cy="37" r="2"/><circle id="Oval_2_" cx="49" cy="29" r="3"/><circle id="Oval_3_" cx="46" cy="37" r="2"/></g><path id="Shape_7_" d="m30 12.63c1.546-1.675 3.721-2.629 6-2.63 3.55 0 6 3.4 6 7.32s-2.53 10.68-12 13.68c-9.47-3-12-9.75-12-13.68s2.45-7.32 6-7.32c2.279.001 4.454.955 6 2.63z" fill="#e91e63"/><path id="Shape_8_" d="m36 10c-.557.003-1.113.06-1.66.17 2.81.74 4.66 3.75 4.66 7.15 0 3.71-2.27 10-10.5 13.15.48.18 1 .37 1.5.53 9.47-3 12-9.75 12-13.68s-2.45-7.32-6-7.32z" fill="#ad1457"/><path id="Shape_9_" d="m41 37c-.079 2.295-1.23 4.42-3.11 5.74l-.11-.18-.73-1.46c-.356-.711-1.098-1.143-1.892-1.102s-1.488.548-1.768 1.292l-1 2.59v.12h-4.81v-.12l-1-2.59c-.301-.699-.972-1.166-1.731-1.206-.759-.041-1.476.353-1.849 1.016l-.73 1.46-.11.18c-1.899-1.309-3.07-3.436-3.16-5.74z" fill="#37474f"/><path id="Shape_10_" d="m27.58 43.88v.12h-.58c-1.718.069-3.419-.369-4.89-1.26l.11-.18.78-1.46c.356-.711 1.098-1.143 1.892-1.102s1.488.548 1.768 1.292z" fill="#f5f5f5"/><path id="Shape_11_" d="m37.89 42.74c-1.471.891-3.172 1.329-4.89 1.26h-.58v-.12l1-2.59c.28-.744.974-1.251 1.768-1.292s1.536.391 1.892 1.102l.73 1.46z" fill="#f5f5f5"/><path id="Shape_12_" d="m33.32 48.27s-.88.73-3.32.73-3.29-.71-3.29-.71c-.392-.392-1.028-.392-1.42 0s-.392 1.028 0 1.42c.22.21 1.46 1.29 4.71 1.29s4.49-1.08 4.71-1.29c.368-.386.368-.994 0-1.38-.371-.392-.986-.418-1.39-.06z"/><path id="Shape_13_" d="m57.51 6.46c-.228-1.209-1.172-2.157-2.38-2.39-1.236-.277-2.518.216-3.25 1.25-.93 1.285-2.102 2.375-3.45 3.21-5.51-5.53-12.03-8.53-18.43-8.53s-12.92 3-18.43 8.53c-1.348-.835-2.52-1.925-3.45-3.21-.732-1.034-2.014-1.527-3.25-1.25-1.208.233-2.152 1.181-2.38 2.39-.98 5.16-.49 9.54 1.42 12.73-2.416 4.574-3.754 9.64-3.91 14.81.012 4.346 1.246 8.601 3.56 12.28l.09.14c5.09 8.08 14.99 13.58 26.35 13.58s21.26-5.5 26.35-13.58c.032-.043.059-.09.08-.14 2.322-3.676 3.559-7.932 3.57-12.28-.156-5.17-1.493-10.236-3.91-14.81 1.91-3.19 2.4-7.57 1.42-12.73zm-55.51 28.64c.329-.065.664-.099 1-.1 2.383.006 4.431 1.693 4.893 4.031s-.791 4.677-2.993 5.589c-1.707-2.899-2.701-6.162-2.9-9.52zm53.1 9.52c-2.202-.911-3.455-3.251-2.993-5.589s2.51-4.025 4.893-4.031c.336.001.671.035 1 .1-.199 3.358-1.193 6.621-2.9 9.52zm2.9-11.54c-.331-.049-.665-.076-1-.08-3.27.004-6.101 2.272-6.819 5.462s.867 6.452 3.819 7.858c-4.88 6.99-13.81 11.68-24 11.68s-19.12-4.69-24-11.68c2.441-1.158 3.998-3.618 4-6.32 0-3.866-3.134-7-7-7-.335.004-.669.031-1 .08.269-4.2 1.367-8.306 3.23-12.08.22.24.44.47.67.69.188.189.443.296.71.296s.522-.106.71-.296c.388-.39.388-1.02 0-1.41-3.8-3.59-3.65-9.28-2.86-13.45.068-.427.403-.762.83-.83.45-.114.923.061 1.19.44 1.824 2.425 4.295 4.287 7.13 5.37.473.114.96-.13 1.152-.576s.036-.968-.372-1.234c-.35-.14-.68-.3-1-.46 5.03-4.87 10.89-7.54 16.61-7.54s11.58 2.67 16.62 7.54c-.33.16-.66.32-1 .46-.486.229-.705.801-.495 1.295.21.495.773.735 1.275.545 2.835-1.087 5.307-2.952 7.13-5.38.264-.378.73-.559 1.18-.46.418.064.75.385.83.8.79 4.16.94 9.86-2.82 13.45-.316.278-.424.725-.269 1.117s.538.645.959.633c.257-.001.505-.101.69-.28.23-.22.45-.45.67-.69 1.859 3.765 2.957 7.86 3.23 12.05z"/><path id="Shape_14_" d="m15 29c0-2.209-1.791-4-4-4s-4 1.791-4 4 1.791 4 4 4 4-1.791 4-4zm-6 0c0-1.105.895-2 2-2s2 .895 2 2-.895 2-2 2-2-.895-2-2z"/><path id="Shape_15_" d="m14 34c-1.657 0-3 1.343-3 3s1.343 3 3 3 3-1.343 3-3-1.343-3-3-3zm0 4c-.552 0-1-.448-1-1s.448-1 1-1 1 .448 1 1-.448 1-1 1z"/><path id="Shape_16_" d="m49 25c-2.209 0-4 1.791-4 4s1.791 4 4 4 4-1.791 4-4-1.791-4-4-4zm0 6c-1.105 0-2-.895-2-2s.895-2 2-2 2 .895 2 2-.895 2-2 2z"/><path id="Shape_17_" d="m46 34c-1.657 0-3 1.343-3 3s1.343 3 3 3 3-1.343 3-3-1.343-3-3-3zm0 4c-.552 0-1-.448-1-1s.448-1 1-1 1 .448 1 1-.448 1-1 1z"/><path id="Shape_18_" d="m29.7 32c.194.067.406.067.6 0 9.37-3 12.7-9.78 12.7-14.68 0-4.67-3.07-8.32-7-8.32-2.202.001-4.331.792-6 2.23-1.669-1.438-3.798-2.229-6-2.23-3.93 0-7 3.65-7 8.32 0 4.9 3.33 11.68 12.7 14.68zm-5.7-21c1.981-.003 3.874.816 5.23 2.26.19.229.473.36.77.36s.58-.131.77-.36c1.355-1.445 3.249-2.264 5.23-2.26 3.13 0 5 3.21 5 6.32 0 4.18-2.89 10-11 12.63-8.11-2.67-11-8.45-11-12.63 0-3.11 1.87-6.32 5-6.32z"/><path id="Shape_19_" d="m41 36h-22c-.552 0-1 .448-1 1 0 .08.1 8 9 8h6c8.9 0 9-7.92 9-8 0-.552-.448-1-1-1zm-17.55 6.33.39-.78c.179-.356.552-.572.95-.55.394.021.739.272.88.64l.5 1.33c-.937-.053-1.858-.27-2.72-.64zm10.38.67.5-1.33c.141-.368.486-.619.88-.64.398-.022.771.194.95.55l.39.78c-.862.37-1.783.587-2.72.64zm4.39-1.75-.28-.56c-.533-1.066-1.646-1.716-2.837-1.655-1.19.061-2.232.82-2.653 1.935l-.77 2.03h-3.36l-.77-2.06c-.421-1.115-1.463-1.875-2.653-1.935s-2.304.589-2.837 1.655l-.28.56c-.876-.875-1.459-2-1.67-3.22h19.78c-.211 1.22-.794 2.345-1.67 3.22z"/></g></g></svg>