<svg height="512" viewBox="0 0 60 60" width="512" xmlns="http://www.w3.org/2000/svg"><g id="Page-1" fill="none" fill-rule="evenodd"><g id="007---Open-Mouthed" fill-rule="nonzero" transform="translate(0 -1)"><path id="Shape" d="m59 35c-.0150139 4.6258566-1.4650145 9.1330877-4.15 12.9-2.2919836-1.5712058-5.3629417-1.3630241-7.4219048.5031344-2.0589631 1.8661584-2.5671115 4.9019299-1.2280952 7.3368656-4.9301676 2.8229659-10.5189238 4.2926018-16.2 4.26-5.6810762.0326018-11.2698324-1.4370341-16.2-4.26 1.3390163-2.4349357.8308679-5.4707072-1.2280952-7.3368656-2.0589631-1.8661585-5.12992122-2.0743402-7.4219048-.5031344-2.68498545-3.7669123-4.13498614-8.2741434-4.15-12.9 0-6.9 3.24-15.16 8.49-21.68.85-1 1.74-2 2.67-3 4.92-4.93 11.11-8.32 17.84-8.32s12.92 3.39 17.84 8.34c.93.93 1.82 1.93 2.67 3 5.24 6.5 8.49 14.75 8.49 21.66z" fill="#a4c400"/><path id="Shape" d="m50.51 13.31c-.85-1-1.74-2-2.67-3-4.92-4.92-11.11-8.31-17.84-8.31-.5 0-1 0-1.5.06 6.15.46 11.79 3.7 16.34 8.28.93.93 1.82 1.93 2.67 3 5.24 6.5 8.49 14.75 8.49 21.66-.0038512 4.2554189-1.2290257 8.4203181-3.53 12 .853794.1368794 1.6666268.4613295 2.38.95 2.6948554-3.7808251 4.1453487-8.3070631 4.15-12.95 0-6.91-3.25-15.16-8.49-21.69z" fill="#90ac00"/><path id="Shape" d="m13.8 55.74c-3.4139761-1.9603347-6.36451615-4.6345814-8.65-7.84 2.29198358-1.5712058 5.3629417-1.3630241 7.4219048.5031344 2.0589631 1.8661584 2.5671115 4.9019299 1.2280952 7.3368656z" fill="#ef314c"/><path id="Shape" d="m54.85 47.9c-2.2854839 3.2054186-5.2360239 5.8796653-8.65 7.84-1.3390163-2.4349357-.8308679-5.4707072 1.2280952-7.3368656 2.0589631-1.8661585 5.1299212-2.0743402 7.4219048-.5031344z" fill="#ef314c"/><path id="Shape" d="m50 47.05c.6717276.1707111 1.3081229.458443 1.88.85-1.7110085 2.4211975-3.8170498 4.5373803-6.23 6.26.1198898.5507936.3150563 1.0824541.58 1.58 3.4139761-1.9603347 6.3645161-4.6345814 8.65-7.84-1.4242451-.9829703-3.2072847-1.2935407-4.88-.85z" fill="#bb193b"/><path id="Shape" d="m12.16 10.34c-.93.93-1.82 1.93-2.67 3l-2.25-2.28c-.68558133-.6442894-1.58001493-1.0205194-2.52-1.06-.7916684-.06166211-1.54707066-.357557-2.17-.85-.79179796-.60470357-1.32437429-1.48756499-1.49-2.47-.22401223-1.28844247.19595979-2.60502538 1.12467096-3.52576479.92871118-.9207394 2.24886555-1.32934617 3.53532904-1.09423521.97647128.17939729 1.8484974.72262668 2.44 1.52.4846761.61119402.77702296 1.35250213.84 2.13.04072647.94458619.42061621 1.84283015 1.07 2.53z" fill="#60a917"/><path id="Shape" d="m58.94 6.68c-.1680017.97880875-.7003494 1.85771839-1.49 2.46-.6217436.49603572-1.3772514.79545357-2.17.86-.9412974.0422112-1.8358966.4220609-2.52 1.07l-2.25 2.25c-.85-1-1.74-2-2.67-3l2.1-2.1c.6413361-.68349758 1.0172786-1.57370102 1.06-2.51.0600887-.77642321.3489147-1.51762711.83-2.13.5915026-.79737332 1.4635287-1.34060271 2.44-1.52 1.2880022-.2388894 2.6113546.16802747 3.5426142 1.08931642.9312596.92128894 1.3523974 2.24018462 1.1273858 3.53068358z" fill="#60a917"/><path id="Shape" d="m33.31 17c2.2086392-1.4608371 3.1984535-4.1968207 2.4357083-6.7326345-.7627451-2.53581385-3.0976653-4.27175357-5.7457083-4.27175357s-4.9829632 1.73593972-5.7457083 4.27175357c-.7627452 2.5358138.2270691 5.2717974 2.4357083 6.7326345z" fill="#f5f5f5"/><circle id="Oval" cx="30" cy="11" fill="#37474f" r="2"/><path id="Shape" d="m42 37c0 1.83-1.64 3.47-4.22 4.56l-.73-1.46c-.3557289-.7106718-1.0984818-1.1432933-1.8921441-1.1020922-.7936624.041201-1.4876265.5484061-1.7678559 1.2920922l-1 2.59c-1.6093658.160011-3.2306342.160011-4.84 0l-1-2.59c-.307054-.6826757-.9696227-1.1367397-1.7171038-1.1767457-.747481-.040006-1.4547299.3407437-1.8328962.9867457l-.73 1.46c-2.63-1.09-4.27-2.73-4.27-4.56 0-3.31 5.37-6 12-6s12 2.69 12 6z" fill="#37474f"/><path id="Shape" d="m27.58 42.88c-1.8425015-.1702097-3.6491674-.6151349-5.36-1.32l.78-1.46c.3557289-.7106718 1.0984818-1.1432933 1.8921441-1.1020922.7936624.041201 1.4876265.5484061 1.7678559 1.2920922z" fill="#f5f5f5"/><path id="Shape" d="m37.78 41.56c-1.7108326.7048651-3.5174985 1.1497903-5.36 1.32l1-2.59c.2802294-.7436861.9741935-1.2508912 1.7678559-1.2920922.7936623-.0412011 1.5364152.3914204 1.8921441 1.1020922z" fill="#f5f5f5"/><path id="Shape" d="m18.31 28c2.2086392-1.4608371 3.1984535-4.1968207 2.4357083-6.7326345-.7627451-2.5358139-3.0976653-4.2717536-5.7457083-4.2717536s-4.9829632 1.7359397-5.74570833 4.2717536c-.76274516 2.5358138.22706916 5.2717974 2.43570833 6.7326345z" fill="#f5f5f5"/><circle id="Oval" cx="15" cy="22" fill="#37474f" r="2"/><path id="Shape" d="m48.31 28c2.2086392-1.4608371 3.1984535-4.1968207 2.4357083-6.7326345-.7627451-2.5358139-3.0976653-4.2717536-5.7457083-4.2717536s-4.9829632 1.7359397-5.7457083 4.2717536c-.7627452 2.5358138.2270691 5.2717974 2.4357083 6.7326345z" fill="#f5f5f5"/><circle id="Oval" cx="45" cy="22" fill="#37474f" r="2"/><circle id="Oval" cx="24" cy="52" fill="#ef314c" r="3"/><circle id="Oval" cx="36" cy="52" fill="#ef314c" r="3"/><g fill="#000"><path id="Shape" d="m24 48c-2.209139 0-4 1.790861-4 4s1.790861 4 4 4 4-1.790861 4-4-1.790861-4-4-4zm0 6c-1.1045695 0-2-.8954305-2-2s.8954305-2 2-2 2 .8954305 2 2-.8954305 2-2 2z"/><path id="Shape" d="m36 48c-2.209139 0-4 1.790861-4 4s1.790861 4 4 4 4-1.790861 4-4-1.790861-4-4-4zm0 6c-1.1045695 0-2-.8954305-2-2s.8954305-2 2-2 2 .8954305 2 2-.8954305 2-2 2z"/><path id="Shape" d="m4.29 48.39v.08l.06.06c2.35115418 3.266091 5.37162632 5.9933796 8.86 8l.07.06h.11c5.0529257 2.9041002 10.7819965 4.4251841 16.61 4.41 5.8081043.0294679 11.5220735-1.4671299 16.57-4.34h.11l.07-.06c3.4883737-2.0066204 6.5088458-4.733909 8.86-8l.06-.06s0-.06 0-.08c2.7985308-3.9319394 4.3111121-8.6338665 4.33-13.46 0-7.1-3.18-15.11-8.2-21.56l1.67-1.68c.5167056-.468271 1.1830334-.7376376 1.88-.76.987771-.0797812 1.9302383-.4484215 2.71-1.06 1.5544654-1.18743586 2.2737271-3.17230227 1.8408208-5.07990773-.4329064-1.90760546-1.9384682-3.38757699-3.8532141-3.78772032-1.9147458-.40014332-3.8869913.35303653-5.0476067 1.92762805-.5835902.77128518-.9309554 1.69527663-1 2.66-.0279075.70062603-.3003481 1.36934392-.77 1.89l-1.45 1.45c-5.07-4.81-11.28-8-17.78-8-7.75 0-13.88 4.16-17.83 7.93l-1.41-1.4c-.4660197-.52207393-.7348613-1.1906406-.76-1.89-.07282784-.95778649-.42000106-1.87432378-1-2.64-1.17385238-1.56513651-3.15271129-2.30185661-5.06429637-1.88541434-1.91158508.41644228-3.40467569 1.90953289-3.82111797 3.82111797-.41644227 1.91158508.32027783 3.89044399 1.88541434 5.06429637.76985509.5792987 1.68935986.9262817 2.65 1 .69825472.0251165 1.36473979.2980917 1.88.77l1.64 1.63c-5.05 6.6-8.17 14.76-8.17 21.6.0215911 4.7978874 1.51939896 9.4728634 4.29 13.39zm2.36-.16c1.76852479-.707852 3.7856181-.3492935 5.2018534.9246813 1.4162354 1.2739748 1.9855303 3.2420024 1.4681466 5.0753187-2.5503258-1.6035412-4.80642758-3.633018-6.67-6zm40 6c-.5173837-1.8333163.0519112-3.8013439 1.4681466-5.0753187 1.4162353-1.2739748 3.4333286-1.6325333 5.2018534-.9246813-1.8511607 2.3786819-4.097149 4.4217194-6.64 6.04zm4-45.23c.8201087-.87366413 1.299185-2.01280114 1.35-3.21.0445654-.58579724.2601483-1.14561735.62-1.61.5236682-.68036108 1.3137398-1.10375573 2.1702484-1.16302307.8565086-.05926733 1.6973659.25127286 2.3097516.85302307.839812.82689169 1.1176557 2.06891094.7102168 3.1748167-.407439 1.10590576-1.4246692 1.87079253-2.6002168 1.9551833-1.1814818.05069606-2.3028828.53485651-3.15 1.36l-1.54 1.53c-.43-.5-.88-1-1.33-1.47zm-3.58 2c.023397.0275909.0435303.0577909.06.09h.08c6.65 6.79 10.79 16.52 10.79 23.91-.0139 4.1078962-1.2192864 8.1235349-3.47 11.56-2.5727993-1.2447084-5.6439166-.8002912-7.7583229 1.1226964s-2.8473892 4.9382827-1.8516771 7.6173036c-9.3348755 4.9336734-20.5051245 4.9336734-29.84 0 .9957121-2.6790209.2627292-5.694316-1.8516771-7.6173036s-5.1855236-2.3674048-7.7583229-1.1226964c-2.25071358-3.4364651-3.45609995-7.4521038-3.47-11.56 0-6.65 3.17-14.72 8.27-21l.06-.08c.84-1 1.7-2 2.54-2.83 3.65-3.71 9.58-8.09 17.13-8.09 6.54 0 12.41 3.25 17.07 8zm-42.28-2c-1.17295989-.08424476-2.1885331-.84604507-2.59766955-1.94856013-.40913644-1.10251506-.13637869-2.34240693.69766955-3.17143987.61238569-.60175021 1.45324302-.9122904 2.3097516-.85302307.85650857.05926734 1.64658023.48266199 2.1702484 1.16302307.36162579.4604335.58062356 1.01661832.63 1.6.05705918 1.17806324.53627088 2.29622388 1.35 3.15l1.42 1.42c-.45.47-.89 1-1.34 1.48l-1.49-1.49c-.84863896-.82148389-1.9698641-1.30200895-3.15-1.35z"/><path id="Shape" d="m30 14c1.6568542 0 3-1.3431458 3-3 0-1.65685425-1.3431458-3-3-3s-3 1.34314575-3 3c0 1.6568542 1.3431458 3 3 3zm0-4c.5522847 0 1 .4477153 1 1s-.4477153 1-1 1-1-.4477153-1-1 .4477153-1 1-1z"/><path id="Shape" d="m30 30c-7.29 0-13 3.07-13 7s5.71 7 13 7 13-3.07 13-7-5.71-7-13-7zm-6.39 11 .23-.47c.1787459-.3562883.5520176-.572393.95-.55.3938848.0211045.7385631.2717796.88.64l.38 1c-.8272666-.147342-1.6427436-.3545534-2.44-.62zm10.39.64.38-1c.1414369-.3682204.4861152-.6188955.88-.64.3979824-.022393.7712541.1937117.95.55l.23.47c-.7972564.2654466-1.6127334.472658-2.44.62zm4.28-1.41-.29-.58c-.5344985-1.0656867-1.6493076-1.7137406-2.8398628-1.6508516-1.1905553.0628891-2.2308861.8247847-2.6501372 1.9408516l-.74 2c-.56 0-1.12.07-1.71.07s-1.15 0-1.71-.07l-.74-2c-.4192511-1.1160669-1.4595819-1.8779625-2.6501372-1.9408516-1.1905552-.062889-2.3053643.5851649-2.8398628 1.6508516l-.29.58c-1.82-.94-2.82-2.11-2.82-3.23 0-2.36 4.52-5 11-5s11 2.64 11 5c0 1.12-1 2.29-2.77 3.23z"/><path id="Shape" d="m24 17c0 .5522847.4477153 1 1 1h10c.5522847 0 1-.4477153 1-1-.00782-.3147701-.1634348-.6074741-.42-.79.9218926-1.2098068 1.4208044-2.6889747 1.42-4.21 0-3.86599325-3.1340068-7-7-7s-7 3.13400675-7 7c-.0008044 1.5210253.4981074 3.0001932 1.42 4.21-.2565652.1825259-.41218.4752299-.42.79zm6-10c2.152152 0 4.0628463 1.37715047 4.7434165 3.4188612.6805702 2.0417107-.0216949 4.2898476-1.7434165 5.5811388h-6c-1.7217216-1.2912912-2.4239867-3.5394281-1.7434165-5.5811388.6805702-2.04171073 2.5912645-3.4188612 4.7434165-3.4188612z"/><path id="Shape" d="m8 23c-.00080438 1.5210253.49810737 3.0001932 1.42 4.21-.25656518.1825259-.41217995.4752299-.42.79 0 .5522847.44771525 1 1 1h10c.5522847 0 1-.4477153 1-1-.00782-.3147701-.1634348-.6074741-.42-.79.9218926-1.2098068 1.4208044-2.6889747 1.42-4.21 0-3.8659932-3.1340068-7-7-7s-7 3.1340068-7 7zm7-5c2.152152 0 4.0628463 1.3771505 4.7434165 3.4188612s-.0216949 4.2898476-1.7434165 5.5811388h-6c-1.7217216-1.2912912-2.42398672-3.5394281-1.7434165-5.5811388.6805702-2.0417107 2.5912645-3.4188612 4.7434165-3.4188612z"/><path id="Shape" d="m15 25c1.6568542 0 3-1.3431458 3-3s-1.3431458-3-3-3-3 1.3431458-3 3 1.3431458 3 3 3zm0-4c.5522847 0 1 .4477153 1 1s-.4477153 1-1 1-1-.4477153-1-1 .4477153-1 1-1z"/><path id="Shape" d="m45 25c1.6568542 0 3-1.3431458 3-3s-1.3431458-3-3-3-3 1.3431458-3 3 1.3431458 3 3 3zm0-4c.5522847 0 1 .4477153 1 1s-.4477153 1-1 1-1-.4477153-1-1 .4477153-1 1-1z"/><path id="Shape" d="m39 28c0 .5522847.4477153 1 1 1h10c.5522847 0 1-.4477153 1-1-.00782-.3147701-.1634348-.6074741-.42-.79.9218926-1.2098068 1.4208044-2.6889747 1.42-4.21 0-3.8659932-3.1340068-7-7-7s-7 3.1340068-7 7c-.0008044 1.5210253.4981074 3.0001932 1.42 4.21-.2565652.1825259-.41218.4752299-.42.79zm6-10c2.152152 0 4.0628463 1.3771505 4.7434165 3.4188612s-.0216949 4.2898476-1.7434165 5.5811388h-6c-1.7217216-1.2912912-2.4239867-3.5394281-1.7434165-5.5811388s2.5912645-3.4188612 4.7434165-3.4188612z"/></g></g></g></svg>