<svg height="512" viewBox="0 0 60 60" width="512" xmlns="http://www.w3.org/2000/svg"><g id="Page-1" fill="none" fill-rule="evenodd"><g id="009---Death" fill-rule="nonzero"><path id="Shape" d="m30 1c-6.73 0-12.92 3.39-17.84 8.34-.93.93-1.82 1.93-2.67 3-5.25 6.5-8.49 14.76-8.49 21.66 0 13.81 13 25 29 25s29-11.19 29-25-13-33-29-33zm-11 37c-4.418278 0-8-3.581722-8-8-.0032479-1.4057998.369642-2.7868738 1.08-4h11.92c.5817039.0035927 1.1564676-.1264134 1.68-.38.8623363 1.2978676 1.3215944 2.8217697 1.32 4.38 0 4.418278-3.581722 8-8 8zm22 0c-4.418278 0-8-3.581722-8-8-.0045988-1.5586701.4549166-3.0834259 1.32-4.38.5235324.2535866 1.0982961.3835927 1.68.38h11.92c.710358 1.2131262 1.0832479 2.5942002 1.08 4 0 2.1217319-.8428547 4.1565632-2.3431458 5.6568542-1.500291 1.5002911-3.5351223 2.3431458-5.6568542 2.3431458z" fill="#cfd8dc"/><path id="Shape" d="m30 1c-.4866667 0-.9766667.02-1.47.06 15.31 1.16 27.47 19.57 27.47 32.94s-12.18 24.29-27.5 25h1.5c16 0 29-11.19 29-25s-13-33-29-33z" fill="#9e9e9e"/><path id="Shape" d="m30 43h2.61c.3313201.0176044.6497991-.1302685.8501516-.3947337.2003524-.2644652.2564878-.6110833.1498484-.9252663l-1.33-4c-.1375721-.4073117-.5200841-.6811098-.95-.68h-2.61c-.4299159-.0011098-.8124279.2726883-.95.68l-1.33 4c-.1032336.3056381-.0526799.6423061.1357655.9041461.1884454.2618399.4916339.4166874.8142345.4158539z" fill="#37474f"/><path id="Shape" d="m42 48v3c0 1.1045695-.8954305 2-2 2h-2c-1.1045695 0-2-.8954305-2-2 0 1.1045695-.8954305 2-2 2h-2c-1.1045695 0-2-.8954305-2-2 0 1.1045695-.8954305 2-2 2h-2c-1.1045695 0-2-.8954305-2-2 0 1.1045695-.8954305 2-2 2h-2c-1.1045695 0-2-.8954305-2-2v-3z" fill="#f5f5f5"/><path id="Shape" d="m39 48v3c-.0029536.9095785-.6192985 1.702609-1.5 1.93.163206.0435492.3311093.0670557.5.07h2c1.1045695 0 2-.8954305 2-2v-3z" fill="#cfd8dc"/><path id="Shape" d="m27 30c0 4.418278-3.581722 8-8 8s-8-3.581722-8-8c-.0032479-1.4057998.369642-2.7868738 1.08-4h11.92c.5817039.0035927 1.1564676-.1264134 1.68-.38.8623363 1.2978676 1.3215944 2.8217697 1.32 4.38z" fill="#f5f5f5"/><path id="Shape" d="m25.68 25.62c-.5235324.2535866-1.0982961.3835927-1.68.38h-1.11c.7213131 1.2099654 1.1046488 2.5913551 1.11 4-.0038932 3.8368157-2.7312294 7.1305987-6.5 7.85.493673.1003847.9962245.1506399 1.5.15 4.418278 0 8-3.581722 8-8 .0015944-1.5582303-.4576637-3.0821324-1.32-4.38z" fill="#cfd8dc"/><path id="Shape" d="m49 30c0 4.418278-3.581722 8-8 8s-8-3.581722-8-8c-.0045988-1.5586701.4549166-3.0834259 1.32-4.38.5235324.2535866 1.0982961.3835927 1.68.38h11.92c.710358 1.2131262 1.0832479 2.5942002 1.08 4z" fill="#f5f5f5"/><path id="Shape" d="m47.92 26h-3c.710358 1.2131262 1.0832479 2.5942002 1.08 4-.0038932 3.8368157-2.7312294 7.1305987-6.5 7.85.493673.1003847.9962245.1506399 1.5.15 4.418278 0 8-3.581722 8-8 .0032479-1.4057998-.369642-2.7868738-1.08-4z" fill="#cfd8dc"/><g fill="#000"><path id="Shape" d="m30 60c16.54 0 30-11.66 30-26 0-15-14.12-34-30-34-8.24 0-14.63 4.7-18.55 8.63-.9605752.9527799-1.87176656 1.9540891-2.73 3l-.07.09c-5.34 6.71-8.65 15.22-8.65 22.28 0 14.34 13.46 26 30 26zm-19.73-47 .06-.08c.84-1 1.7-2 2.54-2.83 3.65-3.71 9.58-8.09 17.13-8.09 16 0 28 19.41 28 32 0 13.23-12.56 24-28 24s-28-10.77-28-24c0-6.65 3.17-14.72 8.27-21z"/><path id="Shape" d="m15 13.17c.2672459-.0011094.5229286-.1091444.71-.3 2.4235379-2.5561945 5.3707856-4.55854915 8.64-5.87.5150215-.19201199.7785312-.7636942.59-1.28-.0921513-.24981943-.2801309-.45257069-.5222796-.56332087-.2421487-.11075019-.5184677-.12035258-.7677204-.02667913-3.5421273 1.39310364-6.7392241 3.53928708-9.37 6.29-.1893127.1877666-.2957983.4433625-.2957983.71s.1064856.5222334.2957983.71c.1843536.2044053.4448108.3237815.72.33z"/><path id="Shape" d="m19 43c.5522847 0 1-.4477153 1-1s-.4477153-1-1-1c-6.0751322 0-11-4.9248678-11-11 0-.5522847-.44771525-1-1-1s-1 .4477153-1 1c0 7.1797017 5.8202983 13 13 13z"/><path id="Shape" d="m41 41c-.5522847 0-1 .4477153-1 1s.4477153 1 1 1c7.1797017 0 13-5.8202983 13-13 0-.5522847-.4477153-1-1-1s-1 .4477153-1 1c0 2.9173814-1.1589252 5.7152744-3.2218254 7.7781746s-4.8607932 3.2218254-7.7781746 3.2218254z"/><path id="Shape" d="m26.82 37.37-1.33 4c-.2024669.6100296-.0994099 1.2801942.2769872 1.801207.376397.5210127.9802619.8293769 1.6230128.828793h5.22c.6427509.0005839 1.2466158-.3077803 1.6230128-.828793.3763971-.5210128.4794541-1.1911774.2769872-1.801207l-1.33-4c-.2716816-.8185751-1.0375179-1.3707833-1.9-1.37h-2.56c-.8624821-.0007833-1.6283184.5514249-1.9 1.37zm5.79 4.63h-5.22l1.33-4h2.56z"/><path id="Shape" d="m42 47c-.5522847 0-1 .4477153-1 1v3c0 .5522847-.4477153 1-1 1h-2c-.5522847 0-1-.4477153-1-1v-3c0-.5522847-.4477153-1-1-1s-1 .4477153-1 1v3c0 .5522847-.4477153 1-1 1h-2c-.5522847 0-1-.4477153-1-1v-3c0-.5522847-.4477153-1-1-1s-1 .4477153-1 1v3c0 .5522847-.4477153 1-1 1h-2c-.5522847 0-1-.4477153-1-1v-3c0-.5522847-.4477153-1-1-1s-1 .4477153-1 1v3c0 .5522847-.4477153 1-1 1h-2c-.5522847 0-1-.4477153-1-1v-3c0-.5522847-.4477153-1-1-1s-1 .4477153-1 1v3c0 1.6568542 1.3431458 3 3 3h2c.7400546-.0044106 1.452363-.2822109 2-.78.547637.4977891 1.2599454.7755894 2 .78h2c.7400546-.0044106 1.452363-.2822109 2-.78.547637.4977891 1.2599454.7755894 2 .78h2c.7400546-.0044106 1.452363-.2822109 2-.78.547637.4977891 1.2599454.7755894 2 .78h2c1.6568542 0 3-1.3431458 3-3v-3c0-.5522847-.4477153-1-1-1z"/><path id="Shape" d="m9 27h1.54c-.3541388.9607032-.5369116 1.9761077-.54 3-.05057373 3.7454433 2.2239785 7.1306185 5.7107766 8.4992463 3.4867982 1.3686277 7.4567413.4345235 9.9674381-2.3452796 2.5106968-2.779803 3.0371523-6.8240388 1.3217853-10.1539667 1.2590292-.9442719 2-2.4262135 2-4v-5c0-.5522847-.4477153-1-1-1s-1 .4477153-1 1v5c0 1.6568542-1.3431458 3-3 3h-15c-.55228475 0-1 .4477153-1 1s.44771525 1 1 1zm16.22-.17c1.3337244 2.5836469.9314336 5.7227755-1.0106977 7.8866096s-5.0196916 2.9017967-7.731928 1.8540251c-2.7122365-1.0477716-4.4943779-3.6630992-4.4773743-6.5706347-.0010279-1.0405882.238544-2.0673247.7-3h11.3c.4121825-.0053347.8220607-.0624489 1.22-.17z"/><path id="Shape" d="m33 26c-1.715367 3.3299279-1.1889115 7.3741637 1.3217853 10.1539667 2.5106968 2.7798031 6.4806399 3.7139073 9.9674381 2.3452796 3.4867981-1.3686278 5.7613503-4.753803 5.7107766-8.4992463-.0030884-1.0238923-.1858612-2.0392968-.54-3h1.54c.5522847 0 1-.4477153 1-1s-.4477153-1-1-1h-15c-1.6568542 0-3-1.3431458-3-3v-5c0-.5522847-.4477153-1-1-1s-1 .4477153-1 1v5c0 1.5737865.7409708 3.0557281 2 4zm14.3 1c.461456.9326753.7010279 1.9594118.7 3 .0170036 2.9075355-1.7651378 5.5228631-4.4773743 6.5706347-2.7122364 1.0477716-5.7897967.309809-7.731928-1.8540251s-2.3444221-5.3029627-1.0106977-7.8866096c.3979393.1075511.8078175.1646653 1.22.17z"/></g></g></g></svg>