<?xml version="1.0" encoding="iso-8859-1"?>
<!-- Generator: Adobe Illustrator 19.0.0, SVG Export Plug-In . SVG Version: 6.00 Build 0)  -->
<svg version="1.1" id="Layer_1" xmlns="http://www.w3.org/2000/svg" xmlns:xlink="http://www.w3.org/1999/xlink" x="0px" y="0px"
	 viewBox="0 0 512 512" style="enable-background:new 0 0 512 512;" xml:space="preserve">
<path style="fill:#A4A8AB;" d="M130.718,202.685c-28.807-31.702-77.997-37.033-103.586-37.505
	c-9.673-0.179-17.785,7.192-18.532,16.839c-1.973,25.517-1.364,74.991,27.443,106.694c40.214,44.255,120.15,37.118,120.15,37.118
	S170.931,246.941,130.718,202.685z"/>
<path style="fill:#4A5058;" d="M27.133,165.18c-9.673-0.179-17.785,7.192-18.532,16.839c-0.745,9.641-1.119,22.702,0.254,36.931
	l55.016-49.991C49.837,166.234,36.8,165.358,27.133,165.18z M100.416,321.938l57.229-52.003c-1.425-12.931-4.333-26.7-9.737-39.67
	l-86.052,78.193C74.252,315.076,87.68,319.285,100.416,321.938z M100.163,180.557l-83.228,75.627
	c4.151,11.391,10.081,22.33,18.443,31.759l94.638-85.995C121.429,192.725,111.106,185.777,100.163,180.557z"/>
<path style="opacity:0.05;enable-background:new    ;" d="M158.808,289.157c-18.827,5.489-34.514,18.344-43.701,35.256
	c23.151,3.017,41.087,1.419,41.087,1.419S159.091,310.297,158.808,289.157z"/>
<path style="fill:#A4A8AB;" d="M308.439,376.219c0-11.619-9.419-21.036-21.037-21.036l0,0c-11.619,0-21.037,9.419-21.037,21.036
	v61.261c0,7.608,6.168,13.775,13.775,13.775h28.298v-75.036H308.439z"/>
<path style="fill:#4A5058;" d="M323.396,418.107H308.44v33.149h14.956c9.153,0,16.574-7.421,16.574-16.574l0,0
	C339.97,425.527,332.549,418.107,323.396,418.107z"/>
<path style="opacity:0.1;enable-background:new    ;" d="M323.395,418.107h-14.956v-41.887c0-11.619-9.419-21.037-21.036-21.037l0,0
	c-11.619,0-21.037,9.419-21.037,21.037v61.261c0,7.608,6.168,13.775,13.775,13.775h43.254c9.154,0,16.574-7.421,16.574-16.574
	C339.97,425.527,332.549,418.107,323.395,418.107z"/>
<path style="fill:#A4A8AB;" d="M281.507,286.229h-86.837c-40.294,0-72.96,32.665-72.96,72.96c0,12.491,4.856,23.842,12.773,32.29v46
	c0,7.608,6.168,13.775,13.775,13.775h28.298v-44.821h47.736v31.045c0,7.608,6.168,13.775,13.775,13.775h28.298V404.59
	c33.97-7.577,59.37-37.88,59.37-74.134l0,0C325.736,306.032,305.933,286.229,281.507,286.229z"/>
<path style="opacity:0.05;enable-background:new    ;" d="M281.507,286.229h-86.837c-5.043,0-9.967,0.512-14.723,1.486
	c26.067,43.325,90.125,68.969,139.482,73.058c4.048-9.289,6.306-19.536,6.306-30.315l0,0
	C325.736,306.032,305.933,286.229,281.507,286.229z"/>
<path style="fill:#4A5058;" d="M294.732,115.532c23.752,40.713-9.549,70.04-22.988,77.881c-13.44,7.841-55.357,22.398-79.109-18.315
	s-19.07-97.29,3.86-110.667C219.424,51.052,270.979,74.819,294.732,115.532z"/>
<path style="fill:#EDBCB9;" d="M265.084,129.315c11.424,19.583-2.496,32.465-9.433,36.511c-6.937,4.047-25.003,9.826-36.427-9.757
	s-14.872-49.076-2.207-56.464C229.681,92.218,253.66,109.734,265.084,129.315z"/>
<path style="fill:#4A5058;" d="M383.813,115.532c-23.752,40.713,9.549,70.04,22.988,77.881c13.44,7.841,55.357,22.398,79.109-18.315
	s19.07-97.29-3.86-110.667C459.121,51.052,407.565,74.819,383.813,115.532z"/>
<path style="fill:#EDBCB9;" d="M413.46,129.315c-11.424,19.583,2.496,32.465,9.433,36.511c6.937,4.047,25.002,9.826,36.427-9.757
	c11.424-19.583,14.872-49.076,2.207-56.464C448.864,92.218,424.885,109.734,413.46,129.315z"/>
<path style="fill:#A4A8AB;" d="M504.071,228.711c0,73.325-101.14,115.083-164.798,115.083s-164.798-41.758-164.798-115.083
	c0-73.325,73.783-120.434,164.798-120.434S504.071,155.386,504.071,228.711z"/>
<path style="fill:#EDBCB9;" d="M350.209,278.195c-6.04,0-10.937-4.897-10.937-10.937c0,6.04-4.897,10.937-10.937,10.937
	c-2.961,0-5.643-1.182-7.613-3.094v15.798c0,10.244,8.304,18.55,18.55,18.55c10.244,0,18.55-8.304,18.55-18.55V275.1
	C355.852,277.013,353.17,278.195,350.209,278.195z"/>
<path style="fill:#D46D59;" d="M339.272,296.99c-5.999,0-11.37,1.825-15.064,4.705c3.366,4.689,8.852,7.754,15.064,7.754
	c6.212,0,11.697-3.065,15.064-7.754C350.642,298.815,345.272,296.99,339.272,296.99z"/>
<path style="fill:#E8E8E8;" d="M245.632,156.775h-41.471c-18.705,19.282-29.687,43.656-29.687,71.935
	c0,11.837,2.649,22.847,7.338,32.997h63.82c28.976,0,52.466-23.49,52.466-52.466l0,0
	C298.098,180.266,274.608,156.775,245.632,156.775z"/>
<g>
	<path style="fill:#4A5058;" d="M236.515,183.512h-51.505c-6.804,13.587-10.537,28.729-10.537,45.198
		c0,11.837,2.649,22.847,7.338,32.997h54.704c21.593,0,39.098-17.505,39.098-39.098
		C275.614,201.017,258.109,183.512,236.515,183.512z"/>
	<path style="fill:#4A5058;" d="M365.792,226.856l-6.172,7.351c-10.616,12.644-30.074,12.644-40.691,0l-6.172-7.351
		c-3.18-3.788-0.487-9.564,4.458-9.564h44.119C366.279,217.291,368.972,223.068,365.792,226.856z"/>
</g>
<path style="fill:#E8E8E8;" d="M432.913,156.775h41.47c18.705,19.282,29.688,43.656,29.688,71.935
	c0,11.837-2.649,22.847-7.338,32.997h-63.82c-28.976,0-52.466-23.49-52.466-52.466l0,0
	C380.447,180.266,403.936,156.775,432.913,156.775z"/>
<path style="fill:#4A5058;" d="M442.029,183.512h51.505c6.804,13.587,10.537,28.729,10.537,45.198
	c0,11.837-2.649,22.847-7.338,32.997h-54.704c-21.593,0-39.098-17.505-39.098-39.098
	C402.93,201.017,420.435,183.512,442.029,183.512z"/>
<g>
	<path style="fill:#FFFFFF;" d="M236.515,236.604c-4.379,0-7.929-3.549-7.929-7.929v-11.808c0-4.38,3.55-7.929,7.929-7.929
		s7.929,3.549,7.929,7.929v11.808C244.444,233.055,240.895,236.604,236.515,236.604z"/>
	<path style="fill:#FFFFFF;" d="M442.029,236.604c-4.379,0-7.929-3.549-7.929-7.929v-11.808c0-4.38,3.55-7.929,7.929-7.929
		c4.379,0,7.929,3.549,7.929,7.929v11.808C449.958,233.055,446.408,236.604,442.029,236.604z"/>
</g>
<g>
	<path style="fill:#4A5058;" d="M191.513,418.107h-14.956v33.149h14.956c9.153,0,16.574-7.421,16.574-16.574l0,0
		C208.087,425.527,200.667,418.107,191.513,418.107z"/>
	<path style="fill:#4A5058;" d="M281.322,418.107h-14.956v33.149h14.956c9.153,0,16.574-7.421,16.574-16.574l0,0
		C297.896,425.527,290.476,418.107,281.322,418.107z"/>
</g>
<path d="M496.364,172.389c21.056-42.481,16.346-99.251-10.317-114.808c-26.238-15.305-77.341,7.889-104.148,46.281
	c-13.68-2.319-27.97-3.514-42.625-3.514c-14.656,0-28.945,1.196-42.626,3.514c-26.807-38.392-77.91-61.587-104.148-46.281
	c-26.665,15.557-31.375,72.326-10.317,114.808c-10.238,16.973-15.636,36.072-15.636,56.322c0,17.8,5.577,34.877,16.209,50.474
	c-5.596,0.83-11.007,2.233-16.171,4.152c-1.081-27.623-7.714-61.459-29.997-85.983c-30.622-33.699-81.627-39.589-109.307-40.102
	c-0.164-0.003-0.327-0.004-0.489-0.004c-13.624,0-25.04,10.522-26.094,24.159c-2.134,27.601-1.143,78.937,29.479,112.637
	c13.712,15.089,39.935,33.494,88.056,38.737c-2.869,8.282-4.45,17.162-4.45,26.408c0,12.972,4.514,25.382,12.772,35.287v43.003
	c0,11.969,9.737,21.705,21.704,21.705h28.298c0.006,0,0.014-0.001,0.02-0.001h14.936c13.511,0,24.504-10.992,24.504-24.503
	c0-8.447-4.296-15.91-10.819-20.317h11.166v23.115c0,11.969,9.737,21.705,21.704,21.705h28.298c0.007,0,0.014-0.001,0.02-0.001
	h13.755v0.001h43.254c13.511,0,24.503-10.992,24.503-24.504c0-13.511-10.993-24.504-24.503-24.504h-7.027v-28.72
	c6.853-8.923,11.804-19.076,14.609-29.953c2.798,0.139,5.569,0.218,8.295,0.218c35.462,0,77.726-11.934,110.299-31.144
	C489.829,296.835,512,264.209,512,228.709C512,208.459,506.602,189.362,496.364,172.389z M438.065,76.168
	c16.331-7.88,31.653-9.754,39.99-4.89c16.252,9.481,21.446,51.068,7.586,86.182c-7.095-8.408-15.544-16.114-25.283-22.953
	c-17.34-12.178-38.241-21.324-61.354-27.075C409.367,94.465,423.143,83.368,438.065,76.168z M200.489,71.278
	c8.336-4.866,23.659-2.991,39.99,4.89c14.921,7.2,28.699,18.297,39.059,31.266c-23.112,5.751-44.012,14.897-61.354,27.075
	c-9.739,6.839-18.187,14.545-25.283,22.952C179.043,122.347,184.237,80.76,200.489,71.278z M125.356,317.541
	c-26.988-2.277-61.686-10.217-83.444-34.162c-11.425-12.573-29.918-42.382-25.406-100.75c0.42-5.44,5.052-9.642,10.48-9.522
	c58.532,1.081,86.439,22.337,97.864,34.91c11.923,13.121,25.912,38.121,26.049,83.203
	C140.514,297.931,131.75,306.94,125.356,317.541z M191.513,443.325h-7.027v-17.289h7.027c4.767,0,8.646,3.879,8.646,8.646
	C200.158,439.447,196.279,443.325,191.513,443.325z M281.322,443.325h-7.027v-17.289h7.027c4.767,0,8.645,3.879,8.645,8.646
	C289.967,439.447,286.089,443.325,281.322,443.325z M300.51,419.469c-4.493-5.655-11.422-9.292-19.188-9.292h-5.417
	c8.88-2.904,17.181-7.256,24.605-12.912V419.469z M264.639,396.853c-3.625,0.809-6.203,4.026-6.203,7.739v38.735h-20.369
	c-3.223,0-5.846-2.624-5.846-5.847v-31.044c0-4.38-3.55-7.929-7.929-7.929h-47.736c-4.379,0-7.929,3.549-7.929,7.929v36.892h-20.369
	c-3.223,0-5.846-2.624-5.846-5.847v-46c0-2.014-0.766-3.952-2.143-5.421c-6.854-7.315-10.629-16.857-10.629-26.869
	c0-35.858,29.172-65.032,65.031-65.032h0.301c9.238,9.641,20.613,18.524,34.003,26.421c25.368,14.96,56.612,25.506,85.945,29.44
	C307.906,373.183,288.576,391.514,264.639,396.853z M323.396,426.036c4.767,0,8.645,3.879,8.645,8.646
	c0,4.767-3.879,8.646-8.645,8.646h-7.027v-17.291h7.027V426.036z M441.515,306.92c-30.273,17.854-69.45,28.945-102.243,28.945
	s-71.97-11.091-102.243-28.945c-45.15-26.627-54.627-57.227-54.627-78.21c0-32.512,15.525-60.599,44.896-81.225
	c28.724-20.171,68.491-31.28,111.973-31.28s83.249,11.109,111.973,31.28c29.371,20.626,44.896,48.713,44.896,81.225
	C496.142,249.692,486.665,280.293,441.515,306.92z M361.334,209.363h-44.119c-5.404,0-10.18,3.043-12.463,7.942
	c-2.282,4.899-1.541,10.512,1.933,14.649l6.172,7.352c6.57,7.824,16.199,12.312,26.418,12.312c10.218,0,19.846-4.488,26.416-12.312
	l6.172-7.351c3.475-4.139,4.215-9.753,1.933-14.65C371.514,212.406,366.738,209.363,361.334,209.363z M353.548,229.108
	c-3.55,4.228-8.752,6.652-14.272,6.652s-10.723-2.424-14.272-6.652l-3.264-3.887h35.073L353.548,229.108z M361.146,259.329
	c-4.379,0-7.929,3.549-7.929,7.929c0,1.658-1.349,3.008-3.008,3.008c-1.658,0-3.008-1.349-3.008-3.008
	c0-4.38-3.55-7.929-7.929-7.929c-4.379,0-7.929,3.549-7.929,7.929c0,1.658-1.349,3.008-3.008,3.008
	c-1.658,0-3.008-1.349-3.008-3.008c0-4.38-3.55-7.929-7.929-7.929c-4.379,0-7.929,3.549-7.929,7.929
	c0,3.959,1.232,7.633,3.324,10.67v12.97c0,14.601,11.878,26.479,26.479,26.479c14.601,0,26.479-11.878,26.479-26.479v-12.97
	c2.092-3.037,3.324-6.711,3.324-10.67C369.075,262.879,365.525,259.329,361.146,259.329z M349.893,290.899
	c0,5.856-4.764,10.621-10.621,10.621c-5.857,0-10.621-4.765-10.621-10.621v-4.787c3.952-0.066,7.614-1.343,10.621-3.489
	c3.007,2.145,6.669,3.422,10.621,3.489V290.899z"/>
<g>
</g>
<g>
</g>
<g>
</g>
<g>
</g>
<g>
</g>
<g>
</g>
<g>
</g>
<g>
</g>
<g>
</g>
<g>
</g>
<g>
</g>
<g>
</g>
<g>
</g>
<g>
</g>
<g>
</g>
</svg>
