<?xml version="1.0" encoding="iso-8859-1"?>
<!-- Generator: Adobe Illustrator 19.0.0, SVG Export Plug-In . SVG Version: 6.00 Build 0)  -->
<svg version="1.1" id="Layer_1" xmlns="http://www.w3.org/2000/svg" xmlns:xlink="http://www.w3.org/1999/xlink" x="0px" y="0px"
	 viewBox="0 0 511.998 511.998" style="enable-background:new 0 0 511.998 511.998;" xml:space="preserve">
<path style="fill:#6E614F;" d="M34.675,346.328c0-7.369-5.973-13.343-13.343-13.343S7.99,338.959,7.99,346.328
	c0,7.369,5.973,23.589,13.343,23.589S34.675,353.697,34.675,346.328z"/>
<path style="fill:#7D7060;" d="M250.867,366.049l1.708,6.317c1.359,5.026,3.438,9.829,6.174,14.26l0,0
	c4.406,7.136,6.739,15.357,6.739,23.744v59.099c0,4.702,3.811,8.514,8.514,8.514h27.124v-67.612c0-8.387,2.333-16.608,6.739-23.744
	l0,0c2.735-4.43,4.815-9.234,6.174-14.26l1.708-6.317c5.774-21.36-10.313-42.374-32.44-42.374l0,0
	C261.181,323.675,245.093,344.688,250.867,366.049z"/>
<path style="opacity:0.08;enable-background:new    ;" d="M283.307,323.675c-22.127,0-38.214,21.013-32.44,42.374l1.708,6.317
	c1.359,5.026,3.438,9.829,6.174,14.26l0,0c1.717,2.78,3.108,5.728,4.18,8.783c17.939-3.16,34.739-9.625,49.746-18.748
	c0.511-1.412,0.972-2.843,1.365-4.296l1.708-6.317C321.521,344.688,305.434,323.675,283.307,323.675z"/>
<path style="fill:#4A5058;" d="M301.126,452.651h-5.832c-4.827,0-8.739,3.913-8.739,8.739v7.434c0,5.058,4.1,9.157,9.157,9.157
	h19.657c5.404,0,9.143-5.401,7.24-10.459l0,0C319.244,458.576,310.685,452.651,301.126,452.651z"/>
<path style="fill:#7D7060;" d="M471.573,118.212h-30.857v-13.68c0-38.945-31.572-70.516-70.516-70.516h-31.122
	c-38.945,0-70.516,31.572-70.516,70.516v133.17c0,0.155-0.001,0.309-0.003,0.462c-0.303,20.564-27.59,27.644-38.061,9.942
	l-16.693-28.222c-11.209-18.951-38.634-18.951-49.843,0l-9.258,15.654c-2.142,3.622-7.382,3.622-9.524,0l-9.259-15.654
	c-11.209-18.951-38.633-18.953-49.843,0l-11.349,19.187c-11.431,19.325-17.462,41.366-17.462,63.819v54.277l0.015,0.009
	c-0.003,2.914,0.362,5.889,1.169,8.873l1.708,6.317c1.359,5.026,3.438,9.829,6.174,14.26l0,0c4.406,7.137,6.739,15.357,6.739,23.744
	v59.099c0,4.702,3.811,8.514,8.514,8.514h27.124v-67.612c0-8.387,2.334-16.608,6.739-23.744c1.642-2.66,3.042-5.456,4.197-8.351
	h55.883c1.155,2.896,2.555,5.691,4.198,8.351l0,0c4.406,7.137,6.739,15.357,6.739,23.744v59.099c0,4.702,3.811,8.514,8.514,8.514
	h27.124v-67.612c0-8.387,2.334-16.608,6.739-23.744c1.642-2.66,3.042-5.456,4.198-8.351h4.631
	c79.86,0,144.599-64.739,144.599-144.599v-15.676h54.387c37.197,0,67.353-30.155,67.353-67.353l0,0
	C504.009,132.733,489.487,118.212,471.573,118.212z"/>
<g>
	<path style="fill:#4A5058;" d="M108.708,452.651h-5.832c-4.827,0-8.739,3.913-8.739,8.739v7.434c0,5.058,4.1,9.157,9.157,9.157
		h19.657c5.404,0,9.143-5.401,7.24-10.459l0,0C126.826,458.576,118.267,452.651,108.708,452.651z"/>
	<path style="fill:#4A5058;" d="M222.101,452.651h-5.832c-4.827,0-8.739,3.913-8.739,8.739v7.434c0,5.058,4.1,9.157,9.157,9.157
		h19.657c5.404,0,9.143-5.401,7.24-10.459l0,0C240.22,458.576,231.661,452.651,222.101,452.651z"/>
</g>
<path style="opacity:0.15;enable-background:new    ;" d="M293.206,89.183c-2.338-3.652-7.522-4.096-10.587-1.03l-13.998,13.998
	c-0.027,0.793-0.061,1.582-0.061,2.381v60.379c3.118-0.991,6.222-2.762,9.169-5.478c0.734-0.677,1.458-1.371,2.172-2.085
	C300.28,136.968,305.374,108.189,293.206,89.183z"/>
<path style="fill:#7D7060;" d="M245.547,108.059c-21.485,21.485,9.84,54.801,32.182,34.209c0.734-0.677,1.458-1.371,2.172-2.085
	c20.379-20.378,25.474-49.157,13.305-68.164c-2.338-3.652-7.522-4.096-10.587-1.03L245.547,108.059z"/>
<g style="opacity:0.15;">
	<path d="M433.588,156.723c-4.414,0-7.991-3.578-7.991-7.991v-4.969c0-4.413,3.577-7.991,7.991-7.991
		c4.414,0,7.991,3.578,7.991,7.991v4.969C441.579,153.145,438.001,156.723,433.588,156.723z"/>
	<path d="M469.652,156.723c-4.414,0-7.991-3.578-7.991-7.991v-4.969c0-4.413,3.577-7.991,7.991-7.991
		c4.413,0,7.991,3.578,7.991,7.991v4.969C477.643,153.145,474.065,156.723,469.652,156.723z"/>
</g>
<path style="opacity:0.15;enable-background:new    ;" d="M323.483,217.999h58.785v15.676h-43.109
	C330.502,233.675,323.483,226.656,323.483,217.999L323.483,217.999z"/>
<path d="M425.622,103.784V91.883c0-4.413-3.577-7.991-7.991-7.991s-7.991,3.578-7.991,7.991v11.901c0,4.413,3.577,7.991,7.991,7.991
	S425.622,108.198,425.622,103.784z M471.573,110.22h-22.865v-5.689c0-43.289-35.219-78.508-78.509-78.508h-31.122
	c-32.569,0-61.8,20.243-73.353,50.557l-25.828,25.828c-14.325,14.325-10.979,33.112-0.27,44.266
	c5.429,5.655,12.934,9.46,20.943,9.966v81.061l-0.003,0.345c-0.101,6.846-4.807,10.526-9.175,11.688
	c-4.451,1.181-10.465,0.307-14.016-5.696l-16.693-28.222c-6.717-11.356-18.605-18.136-31.8-18.136
	c-13.194,0-25.082,6.78-31.8,18.136l-7.142,12.076l-7.143-12.076c-6.718-11.356-18.605-18.136-31.801-18.136
	c-13.194,0-25.082,6.78-31.8,18.136l-11.348,19.187c-8.476,14.329-14.156,30.087-16.821,46.409
	c-19.052,7.793-32.762,24.592-36.597,44.75C6.05,329.04,0,336.982,0,346.328c0,9.445,7.258,31.58,21.333,31.58
	c14.076,0,21.334-22.135,21.334-31.58c0-8.455-4.957-15.755-12.105-19.205c2.645-11.072,9.385-20.61,18.756-26.813
	c-0.017,0.86-0.044,1.719-0.044,2.58v54.277c0,0.169,0.005,0.337,0.016,0.504c0.038,3.541,0.524,7.058,1.444,10.462l1.708,6.319
	c1.562,5.774,3.947,11.283,7.088,16.372c3.629,5.88,5.548,12.638,5.548,19.546v59.1c0,9.101,7.404,16.505,16.505,16.505h41.367
	c5.16,0,9.995-2.533,12.932-6.776c2.937-4.243,3.605-9.659,1.788-14.489c-3.547-9.428-11.508-16.404-20.973-18.964v-35.374
	c0-6.908,1.919-13.668,5.548-19.546c0.91-1.475,1.762-2.997,2.552-4.558h45.575c0.788,1.56,1.641,3.083,2.552,4.557
	c3.629,5.88,5.548,12.638,5.548,19.546v59.099c0,9.101,7.403,16.505,16.504,16.505h41.368c5.159,0,9.994-2.533,12.93-6.775
	c2.938-4.242,3.607-9.659,1.79-14.49c-3.547-9.428-11.508-16.404-20.973-18.964v-35.374c0-6.908,1.919-13.668,5.548-19.546
	c0.91-1.475,1.762-2.997,2.552-4.559c3.696-0.013,7.362-0.164,10.993-0.437c0.849,1.713,1.77,3.384,2.764,4.995
	c3.628,5.877,5.547,12.636,5.547,19.546v59.099c0,9.101,7.404,16.505,16.505,16.505h41.367c5.16,0,9.995-2.533,12.932-6.776
	c2.937-4.243,3.605-9.659,1.788-14.488c-3.546-9.43-11.507-16.406-20.973-18.965v-35.374c0-6.908,1.919-13.668,5.548-19.546
	c3.142-5.09,5.529-10.599,7.089-16.374l1.708-6.319c0.827-3.061,1.294-6.18,1.412-9.315c39.497-27.607,65.386-73.404,65.386-125.142
	v-7.685h46.395c41.545,0,75.344-33.8,75.344-75.344C512,128.355,493.864,110.22,471.573,110.22z M21.318,361.167
	c-2.515-3.026-5.335-11.03-5.335-14.84c0-2.95,2.401-5.351,5.35-5.351c2.952,0,5.351,2.401,5.351,5.351
	C26.685,350.717,23.642,358.3,21.318,361.167z M251.156,135.606c-3.975-4.142-8.441-13.413,0.043-21.895l36.071-36.07
	c9.145,16.013,3.719,40.155-13.02,56.893c-0.637,0.637-1.283,1.257-1.936,1.86C264.323,143.756,255.922,140.571,251.156,135.606z
	 M122.577,469.991h-19.283c-0.644,0-1.166-0.523-1.166-1.166v-7.434c0-0.412,0.335-0.748,0.747-0.748h5.832
	C114.777,460.643,120.303,464.384,122.577,469.991z M235.971,469.991h-19.283c-0.644,0-1.167-0.523-1.167-1.166v-7.434
	c0-0.412,0.336-0.748,0.748-0.748h5.832C228.173,460.643,233.699,464.384,235.971,469.991z M293.134,444.815
	c-8.206,1.066-14.57,8.083-14.57,16.575v7.434c0,0.393,0.033,0.779,0.059,1.166h-4.621c-0.289,0-0.522-0.234-0.522-0.522v-59.099
	c0-9.432-2.507-18.665-7.25-26.795c14.192-2.698,27.692-7.367,40.207-13.712l-0.112,0.416c-1.158,4.284-2.927,8.371-5.261,12.148
	c-5.188,8.404-7.931,18.067-7.931,27.942v34.447H293.134z M314.995,469.991h-19.283c-0.644,0-1.166-0.523-1.166-1.166v-7.434
	c0-0.412,0.335-0.748,0.747-0.748h5.833C307.196,460.643,312.721,464.383,314.995,469.991z M436.656,210.008H323.483
	c-4.414,0-7.991,3.578-7.991,7.991s3.577,7.991,7.991,7.991h50.795v7.685c0,75.325-61.283,136.608-136.608,136.608h-4.631
	c-3.27,0-6.211,1.994-7.424,5.031c-0.99,2.482-2.193,4.875-3.574,7.113c-5.188,8.404-7.931,18.067-7.931,27.942v34.445
	c-8.207,1.066-14.571,8.083-14.571,16.575v7.434c0,0.393,0.033,0.779,0.059,1.166h-4.621c-0.288,0-0.521-0.234-0.521-0.522v-59.099
	c0-9.875-2.743-19.539-7.931-27.942c-1.383-2.24-2.586-4.633-3.575-7.113c-1.213-3.038-4.152-5.031-7.424-5.031h-55.883
	c-3.27,0-6.211,1.994-7.424,5.031c-0.99,2.482-2.193,4.875-3.574,7.113c-5.188,8.404-7.931,18.067-7.931,27.942v34.445
	c-8.206,1.066-14.57,8.083-14.57,16.575v7.434c0,0.393,0.033,0.779,0.059,1.166h-4.621c-0.289,0-0.522-0.234-0.522-0.522v-59.099
	c0-9.875-2.743-19.539-7.931-27.943c-2.331-3.775-4.101-7.861-5.259-12.146l-1.708-6.317c-0.596-2.2-0.895-4.482-0.893-6.779
	c0-0.158-0.004-0.314-0.014-0.471v-53.823c0-21.009,5.654-41.67,16.348-59.75l11.348-19.187
	c3.811-6.444,10.556-10.291,18.044-10.291c7.486,0,14.232,3.847,18.045,10.291l9.258,15.653c2.459,4.158,6.81,6.64,11.64,6.64h0.001
	c4.829,0,9.182-2.482,11.641-6.639l9.258-15.653c3.811-6.444,10.556-10.291,18.044-10.291c7.486,0,14.231,3.847,18.044,10.291
	l16.693,28.222c6.567,11.102,19.378,16.326,31.877,13.006c12.598-3.348,20.861-13.907,21.051-26.855
	c0.004-0.208,0.006-0.416,0.006-0.624v-84.749c2.251-1.256,4.462-2.844,6.593-4.81c0.813-0.749,1.615-1.519,2.406-2.31
	c22.751-22.751,28.8-55.607,14.384-78.122c-1.639-2.56-4.001-4.484-6.748-5.613c11.606-12.522,28.121-20.09,45.889-20.09H370.2
	c34.476,0,62.526,28.049,62.526,62.525v13.68c0,4.413,3.577,7.991,7.991,7.991h30.857c13.478,0,24.443,10.965,24.443,24.444
	C496.017,183.379,469.386,210.008,436.656,210.008z M364.442,83.892c-4.414,0-7.991,3.578-7.991,7.991v11.901
	c0,4.413,3.577,7.991,7.991,7.991c4.414,0,7.991-3.578,7.991-7.991V91.883C372.433,87.47,368.856,83.892,364.442,83.892z
	 M477.837,164.743c-4.414,0-7.991,3.578-7.991,7.991c0,2.822-2.295,5.117-5.118,5.117c-2.823,0-5.118-2.295-5.118-5.117
	c0-4.413-3.577-7.991-7.991-7.991c-4.413,0-7.991,3.578-7.991,7.991c0,2.822-2.295,5.117-5.118,5.117
	c-2.822,0-5.118-2.295-5.118-5.117c0-4.413-3.577-7.991-7.991-7.991s-7.991,3.578-7.991,7.991c0,11.634,9.466,21.1,21.101,21.1
	c4.949,0,9.507-1.712,13.109-4.576c3.603,2.864,8.159,4.576,13.109,4.576c11.634,0,21.101-9.465,21.101-21.1
	C485.829,168.321,482.252,164.743,477.837,164.743z"/>
<g>
</g>
<g>
</g>
<g>
</g>
<g>
</g>
<g>
</g>
<g>
</g>
<g>
</g>
<g>
</g>
<g>
</g>
<g>
</g>
<g>
</g>
<g>
</g>
<g>
</g>
<g>
</g>
<g>
</g>
</svg>
