<svg id="Capa_1" enable-background="new 0 0 60 60" height="512" viewBox="0 0 60 60" width="512" xmlns="http://www.w3.org/2000/svg"><g id="Page-1"><g id="_x30_01---Bored"><path id="Shape" d="m55 19.14c2.45-3.72 2.31-8.58 1.56-12.49-.192-.816-.843-1.445-1.666-1.609-.822-.163-1.664.168-2.154.849-1.166 1.611-2.676 2.943-4.42 3.9-5.02-5.19-11.39-8.79-18.32-8.79s-13.3 3.6-18.28 8.79c-1.744-.957-3.254-2.289-4.42-3.9-.49-.681-1.332-1.012-2.154-.849-.823.164-1.474.793-1.666 1.609-.75 3.91-.89 8.77 1.52 12.49-2.477 4.573-3.847 9.662-4 14.86v.34c.642-.227 1.319-.342 2-.34 3.026.009 5.572 2.271 5.937 5.274s-1.562 5.81-4.497 6.546c4.89 7.85 14.5 13.18 25.56 13.18s20.67-5.33 25.56-13.18c-2.153-.527-3.841-2.198-4.388-4.346s.134-4.423 1.773-5.916 3.967-1.961 6.055-1.217c0-.11 0-.23 0-.34-.153-5.199-1.523-10.288-4-14.861zm-25 29.86c-6.63 0-12-2.69-12-6 0-1.83 1.64-3.47 4.22-4.56 1.711-.705 3.517-1.15 5.36-1.32 1.609-.16 3.231-.16 4.84 0 1.843.17 3.649.615 5.36 1.32 2.58 1.09 4.22 2.73 4.22 4.56 0 3.31-5.37 6-12 6z" fill="#02a9f4"/><path id="Shape_1_" d="m55 19.14c2.45-3.72 2.31-8.58 1.56-12.49-.18-.745-.749-1.335-1.487-1.542-.738-.208-1.531 0-2.073.542.287.266.483.616.56 1 .75 3.91.89 8.77-1.56 12.49 2.477 4.573 3.847 9.662 4 14.86v.09c.331-.056.665-.086 1-.09.681-.002 1.358.113 2 .34 0-.11 0-.23 0-.34-.153-5.198-1.523-10.287-4-14.86z" fill="#0377bc"/><path id="Shape_2_" d="m48.12 9.63c-4.95-5.1-11.26-8.63-18.12-8.63-.5 0-1 .02-1.5.06 6.77.51 12.93 4.38 17.68 9.7z" fill="#0377bc"/><path id="Shape_3_" d="m53.25 44.64c-4.43 8.12-13.79 13.83-24.75 14.36h1.5c11.06 0 20.67-5.33 25.56-13.18z" fill="#0377bc"/><path id="Shape_4_" d="m40 20c0 7.18-4.48 13-10 13s-10-5.82-10-13c0-.35 0-.69 0-1 6.405-2.644 13.595-2.644 20 0z" fill="#f5f5f5"/><path id="Shape_5_" d="m40 19c-3.171-1.312-6.568-1.992-10-2-3.432.008-6.829.688-10 2 .41-6.7 4.72-12 10-12s9.56 5.27 10 12z" fill="#00bcd4"/><path id="Shape_6_" d="m36.86 17.9c1.071.294 2.12.661 3.14 1.1-.41-6.7-4.72-12-10-12-.504.003-1.007.056-1.5.16 4.28.84 7.67 5.19 8.36 10.74z" fill="#00838f"/><path id="Shape_7_" d="m33 20c0 2.76-1.34 5-3 5s-3-2.24-3-5c-.004-.964.173-1.921.52-2.82v-.06c1.663-.161 3.337-.161 5 0v.06c.334.902.497 1.858.48 2.82z" fill="#37474f"/><path id="Shape_8_" d="m42 43c0 3.31-5.37 6-12 6s-12-2.69-12-6c0-1.83 1.64-3.47 4.22-4.56l.78 1.46c.356.711 1.098 1.143 1.892 1.102s1.488-.548 1.768-1.292l1-2.59c1.609-.16 3.231-.16 4.84 0l1 2.59c.28.744.974 1.251 1.768 1.292s1.536-.391 1.892-1.102l.73-1.46c2.47 1.09 4.11 2.73 4.11 4.56z" fill="#283593"/><path id="Shape_9_" d="m27.58 37.12-1 2.59c-.301.699-.972 1.166-1.731 1.206-.759.041-1.476-.353-1.849-1.016l-.73-1.46c1.695-.7 3.484-1.145 5.31-1.32z" fill="#f5f5f5"/><path id="Shape_10_" d="m37.78 38.44-.73 1.46c-.356.711-1.098 1.143-1.892 1.102s-1.488-.548-1.768-1.292l-1-2.59c1.853.167 3.67.612 5.39 1.32z" fill="#f5f5f5"/><g fill="#e91e63"><circle id="Oval" cx="11" cy="29" r="3"/><circle id="Oval_1_" cx="14" cy="37" r="2"/><path id="Shape_11_" d="m9 40c-.002 2.757-1.883 5.158-4.56 5.82-2.179-3.438-3.369-7.41-3.44-11.48.642-.227 1.319-.342 2-.34 1.591 0 3.117.632 4.243 1.757s1.757 2.652 1.757 4.243z"/><circle id="Oval_2_" cx="49" cy="29" r="3"/><circle id="Oval_3_" cx="46" cy="37" r="2"/><path id="Shape_12_" d="m59 34.34c-.068 4.069-1.255 8.041-3.43 11.48-2.162-.517-3.861-2.187-4.415-4.341s.128-4.436 1.772-5.932 3.981-1.961 6.073-1.207z"/></g><path id="Shape_13_" d="m57 34c-.516.005-1 .09-1 .09s0 .098-.01.25c-.057 3.61-1.001 7.151-2.75 10.31.677.557 1.47.957 2.32 1.17 2.179-3.438 3.369-7.41 3.44-11.48-.642-.227-1.319-.342-2-.34z" fill="#ad1457"/><path id="Shape_14_" d="m18.54 20.84.48-.28c.24 7.44 5.06 13.44 10.98 13.44s10.74-6 11-13.43l.48.27c.155.1.335.156.52.16.443-.001.832-.293.957-.718s-.045-.881-.417-1.122c-.524-.322-1.068-.61-1.63-.86-.66-6.92-5.3-12.3-10.91-12.3s-10.25 5.38-10.91 12.3c-.562.25-1.106.538-1.63.86-.431.311-.544.905-.257 1.352s.875.591 1.337.328zm20.46-.84c0 6.62-4 12-9 12s-9-5.38-9-12c0-.12 0-.23 0-.35 1.661-.642 3.388-1.098 5.15-1.36-.101.564-.151 1.137-.15 1.71 0 3.36 1.76 6 4 6s4-2.64 4-6c-.003-.574-.056-1.146-.16-1.71 1.765.264 3.496.723 5.16 1.37zm-7.27-1.94c.182.631.273 1.284.27 1.94 0 2.29-1.06 4-2 4s-2-1.71-2-4c-.003-.656.088-1.309.27-1.94.56-.06 1.13-.06 1.73-.06s1.17 0 1.73.06zm-1.73-10.06c4.3 0 7.91 4.05 8.79 9.45-5.701-1.933-11.879-1.933-17.58 0 .88-5.4 4.49-9.45 8.79-9.45z"/><path id="Shape_15_" d="m30 36c-7.29 0-13 3.07-13 7s5.71 7 13 7 13-3.07 13-7-5.71-7-13-7zm6.39 3-.23.47c-.177.356-.548.573-.944.553-.397-.02-.744-.272-.886-.643l-.38-1c.827.147 1.643.355 2.44.62zm-10.34-.62-.38 1c-.141.371-.489.624-.886.643-.397.02-.767-.198-.944-.553l-.23-.47c.797-.272 1.612-.486 2.44-.64zm3.95 9.62c-6.48 0-11-2.64-11-5 0-1.12 1-2.29 2.77-3.23l.29.58c.508 1.009 1.54 1.647 2.67 1.65h.17c1.19-.063 2.231-.824 2.65-1.94l.74-2c.56-.06 1.12-.06 1.71-.06s1.15 0 1.71.07l.74 2c.423 1.112 1.462 1.869 2.65 1.93h.17c1.13-.003 2.162-.641 2.67-1.65l.29-.58c1.77.94 2.77 2.11 2.77 3.23 0 2.36-4.52 5-11 5z"/><path id="Shape_16_" d="m33.32 52.27s-.88.73-3.32.73-3.29-.71-3.29-.71c-.392-.392-1.028-.392-1.42 0s-.392 1.028 0 1.42c.22.21 1.46 1.29 4.71 1.29s4.49-1.08 4.71-1.29c.368-.386.368-.994 0-1.38-.371-.392-.986-.418-1.39-.06z"/><path id="Shape_17_" d="m57.51 6.46c-.228-1.209-1.172-2.157-2.38-2.39-1.236-.277-2.518.216-3.25 1.25-.93 1.285-2.102 2.375-3.45 3.21-5.51-5.53-12.03-8.53-18.43-8.53s-12.92 3-18.43 8.53c-1.348-.835-2.52-1.925-3.45-3.21-.732-1.034-2.014-1.527-3.25-1.25-1.208.233-2.152 1.181-2.38 2.39-.98 5.16-.49 9.54 1.42 12.73-2.416 4.574-3.754 9.64-3.91 14.81.012 4.346 1.246 8.601 3.56 12.28l.09.14c5.09 8.08 14.99 13.58 26.35 13.58s21.26-5.5 26.35-13.58l.09-.14c2.314-3.679 3.548-7.934 3.56-12.28-.156-5.17-1.493-10.236-3.91-14.81 1.91-3.19 2.4-7.57 1.42-12.73zm-55.51 28.64c.329-.065.664-.099 1-.1 2.383.006 4.431 1.693 4.893 4.031s-.791 4.677-2.993 5.589c-1.707-2.899-2.701-6.162-2.9-9.52zm53.1 9.52c-2.202-.911-3.455-3.251-2.993-5.589s2.51-4.025 4.893-4.031c.336.001.671.035 1 .1-.199 3.358-1.193 6.621-2.9 9.52zm2.9-11.54c-.331-.049-.665-.076-1-.08-3.27.004-6.101 2.272-6.819 5.462s.867 6.452 3.819 7.858c-4.88 6.99-13.81 11.68-24 11.68s-19.12-4.69-24-11.68c2.441-1.158 3.998-3.618 4-6.32 0-3.866-3.134-7-7-7-.335.004-.669.031-1 .08.269-4.2 1.367-8.306 3.23-12.08.22.24.44.47.67.69.188.189.443.296.71.296s.522-.106.71-.296c.388-.39.388-1.02 0-1.41-3.8-3.59-3.65-9.28-2.86-13.45.068-.427.403-.762.83-.83.45-.114.923.061 1.19.44 1.824 2.425 4.295 4.287 7.13 5.37.473.114.96-.13 1.152-.576s.036-.968-.372-1.234c-.35-.14-.68-.3-1-.46 5.03-4.87 10.89-7.54 16.61-7.54s11.58 2.67 16.62 7.54c-.33.16-.66.32-1 .46-.486.229-.705.801-.495 1.295.21.495.773.735 1.275.545 2.837-1.084 5.309-2.949 7.13-5.38.264-.378.73-.559 1.18-.46.418.064.75.385.83.8.79 4.16.94 9.86-2.82 13.45-.316.278-.424.725-.269 1.117s.538.645.959.633c.257-.001.505-.101.69-.28.23-.22.45-.45.67-.69 1.859 3.765 2.957 7.86 3.23 12.05z"/><path id="Shape_18_" d="m15 29c0-2.209-1.791-4-4-4s-4 1.791-4 4 1.791 4 4 4 4-1.791 4-4zm-6 0c0-1.105.895-2 2-2s2 .895 2 2-.895 2-2 2-2-.895-2-2z"/><path id="Shape_19_" d="m14 34c-1.657 0-3 1.343-3 3s1.343 3 3 3 3-1.343 3-3-1.343-3-3-3zm0 4c-.552 0-1-.448-1-1s.448-1 1-1 1 .448 1 1-.448 1-1 1z"/><path id="Shape_20_" d="m49 25c-2.209 0-4 1.791-4 4s1.791 4 4 4 4-1.791 4-4-1.791-4-4-4zm0 6c-1.105 0-2-.895-2-2s.895-2 2-2 2 .895 2 2-.895 2-2 2z"/><path id="Shape_21_" d="m46 34c-1.657 0-3 1.343-3 3s1.343 3 3 3 3-1.343 3-3-1.343-3-3-3zm0 4c-.552 0-1-.448-1-1s.448-1 1-1 1 .448 1 1-.448 1-1 1z"/></g></g></svg>