<svg id="Capa_1" enable-background="new 0 0 60 60" height="512" viewBox="0 0 60 60" width="512" xmlns="http://www.w3.org/2000/svg"><g id="Page-1"><g id="_x30_10---Happy-Evil"><path id="Shape" d="m59 34v.34c-.642-.227-1.319-.342-2-.34-3.026.009-5.571 2.271-5.937 5.274s1.562 5.81 4.497 6.546c-4.89 7.85-14.5 13.18-25.56 13.18s-20.67-5.33-25.56-13.18c2.153-.527 3.841-2.198 4.388-4.346s-.134-4.423-1.773-5.916-3.967-1.962-6.055-1.218c0-.11 0-.23 0-.34.153-5.198 1.523-10.287 4-14.86-2.41-3.72-2.27-8.58-1.52-12.49.192-.816.843-1.445 1.666-1.609.822-.163 1.664.168 2.154.849 1.166 1.611 2.676 2.943 4.42 3.9 4.98-5.19 11.35-8.79 18.28-8.79s13.3 3.6 18.28 8.79c1.744-.957 3.254-2.289 4.42-3.9.49-.681 1.332-1.012 2.154-.849.822.164 1.473.792 1.666 1.609.75 3.91.89 8.77-1.56 12.49 2.491 4.569 3.874 9.659 4.04 14.86z" fill="#a4c400"/><path id="Shape_1_" d="m48.12 9.63c-4.95-5.1-11.26-8.63-18.12-8.63-.5 0-1 .02-1.5.06 6.8.51 13 4.42 17.74 9.77z" fill="#90ac00"/><path id="Shape_2_" d="m53.21 44.71c-4.45 8.09-13.78 13.76-24.71 14.29h1.5c11.06 0 20.67-5.33 25.56-13.18z" fill="#90ac00"/><path id="Shape_3_" d="m55 19.14c2.45-3.72 2.31-8.58 1.56-12.49-.18-.745-.749-1.335-1.487-1.542-.738-.208-1.531 0-2.073.542.287.266.483.616.56 1 .75 3.91.89 8.77-1.56 12.49 2.477 4.573 3.847 9.662 4 14.86v.09c.331-.056.665-.086 1-.09.681-.002 1.358.113 2 .34 0-.11 0-.23 0-.34-.153-5.198-1.523-10.287-4-14.86z" fill="#90ac00"/><path id="Shape_4_" d="m9 40c-.002 2.757-1.883 5.158-4.56 5.82-2.179-3.438-3.369-7.41-3.44-11.48.642-.227 1.319-.342 2-.34 1.591 0 3.117.632 4.243 1.757s1.757 2.652 1.757 4.243z" fill="#60a917"/><path id="Shape_5_" d="m59 34.34c-.068 4.069-1.255 8.041-3.43 11.48-2.162-.517-3.861-2.187-4.415-4.341s.128-4.436 1.772-5.932 3.981-1.961 6.073-1.207z" fill="#60a917"/><path id="Shape_6_" d="m57 34c-.516.005-1 .09-1 .09s-.005.128-.01.25c-.057 3.61-1.001 7.151-2.75 10.31.677.557 1.47.957 2.32 1.17 2.179-3.438 3.369-7.41 3.44-11.48-.642-.227-1.319-.342-2-.34z" fill="#549414"/><g fill="#60a917"><circle id="Oval" cx="14" cy="46" r="2"/><circle id="Oval_1_" cx="46" cy="46" r="2"/><circle id="Oval_2_" cx="53" cy="29" r="2"/><circle id="Oval_3_" cx="7" cy="29" r="2"/></g><circle id="Oval_4_" cx="19" cy="26" fill="#f5f5f5" r="7"/><path id="Shape_7_" d="m19 19c-.505 0-1.008.057-1.5.17 3.196.717 5.467 3.555 5.467 6.83s-2.271 6.113-5.467 6.83c.492.113.995.17 1.5.17 3.866 0 7-3.134 7-7s-3.134-7-7-7z" fill="#cfd8dc"/><circle id="Oval_5_" cx="41" cy="26" fill="#f5f5f5" r="7"/><path id="Shape_8_" d="m41 19c-.505 0-1.008.057-1.5.17 3.196.717 5.467 3.555 5.467 6.83s-2.271 6.113-5.467 6.83c.492.113.995.17 1.5.17 3.866 0 7-3.134 7-7s-3.134-7-7-7z" fill="#cfd8dc"/><circle id="Oval_6_" cx="19" cy="26" fill="#606060" r="2"/><circle id="Oval_7_" cx="41" cy="26" fill="#606060" r="2"/><path id="Shape_9_" d="m41 37c-.079 2.303-1.239 4.434-3.13 5.75l-.82-1.65c-.356-.711-1.098-1.143-1.892-1.102s-1.488.548-1.768 1.292l-1 2.71h-4.76l-1-2.71c-.289-.726-.974-1.218-1.754-1.259s-1.513.377-1.876 1.069l-.82 1.65c-1.91-1.305-3.09-3.438-3.18-5.75z" fill="#37474f"/><path id="Shape_10_" d="m27.63 44h-.63c-1.71.066-3.403-.369-4.87-1.25l.87-1.65c.356-.711 1.098-1.143 1.892-1.102s1.488.548 1.768 1.292z" fill="#ffeb3a"/><path id="Shape_11_" d="m37.87 42.75c-1.467.881-3.16 1.316-4.87 1.25h-.62l1-2.71c.28-.744.974-1.251 1.768-1.292s1.536.391 1.892 1.102z" fill="#ffeb3a"/><path id="Shape_12_" d="m3.57 46.28c.021.05.048.097.08.14 5.09 8.08 14.99 13.58 26.35 13.58s21.26-5.5 26.35-13.58c.032-.043.059-.09.08-.14 2.322-3.676 3.559-7.932 3.57-12.28-.156-5.17-1.493-10.236-3.91-14.81 1.91-3.19 2.4-7.57 1.42-12.73-.228-1.209-1.172-2.157-2.38-2.39-1.236-.277-2.518.216-3.25 1.25-.93 1.285-2.102 2.375-3.45 3.21-5.51-5.53-12.03-8.53-18.43-8.53s-12.92 3-18.43 8.53c-1.348-.835-2.52-1.925-3.45-3.21-.732-1.034-2.014-1.527-3.25-1.25-1.208.233-2.152 1.181-2.38 2.39-.98 5.16-.49 9.54 1.42 12.73-2.416 4.574-3.754 9.64-3.91 14.81.011 4.348 1.248 8.604 3.57 12.28zm-1.57-11.18c.329-.065.664-.099 1-.1 2.383.006 4.431 1.693 4.893 4.031s-.791 4.677-2.993 5.589c-1.707-2.899-2.701-6.162-2.9-9.52zm53.1 9.52c-2.202-.911-3.455-3.251-2.993-5.589s2.51-4.025 4.893-4.031c.336.001.671.035 1 .1-.199 3.358-1.193 6.621-2.9 9.52zm-49.2-22.9c.188.189.443.296.71.296s.522-.106.71-.296c.388-.39.388-1.02 0-1.41-3.8-3.62-3.65-9.31-2.86-13.48.068-.427.403-.762.83-.83.447-.11.917.059 1.19.43 1.823 2.428 4.295 4.293 7.13 5.38.473.114.96-.13 1.152-.576s.036-.968-.372-1.234c-.35-.14-.68-.3-1-.46 5.04-4.87 10.89-7.54 16.61-7.54s11.57 2.67 16.62 7.54c-.33.16-.66.32-1 .46-.486.229-.705.801-.495 1.295.21.495.773.735 1.275.545 2.835-1.087 5.307-2.952 7.13-5.38.264-.378.73-.559 1.18-.46.418.064.75.385.83.8.79 4.16.94 9.86-2.82 13.45-.316.278-.424.725-.269 1.117s.538.645.959.633c.257-.001.505-.101.69-.28.23-.22.45-.45.67-.69 1.839 3.752 2.923 7.83 3.19 12-.319-.031-.64-.041-.96-.03-3.27.004-6.101 2.272-6.819 5.462s.867 6.452 3.819 7.858c-4.88 6.99-13.81 11.68-24 11.68s-19.12-4.69-24-11.68c2.441-1.158 3.998-3.618 4-6.32 0-3.866-3.134-7-7-7-.335.004-.669.031-1 .08.269-4.2 1.367-8.306 3.23-12.08.22.27.44.5.67.72z"/><path id="Shape_13_" d="m33.32 48.27s-.88.73-3.32.73-3.29-.71-3.29-.71c-.392-.392-1.028-.392-1.42 0s-.392 1.028 0 1.42c.22.21 1.46 1.29 4.71 1.29s4.49-1.08 4.71-1.29c.368-.386.368-.994 0-1.38-.371-.392-.986-.418-1.39-.06z"/><path id="Shape_14_" d="m14 49c1.657 0 3-1.343 3-3s-1.343-3-3-3-3 1.343-3 3 1.343 3 3 3zm0-4c.552 0 1 .448 1 1s-.448 1-1 1-1-.448-1-1 .448-1 1-1z"/><path id="Shape_15_" d="m46 43c-1.657 0-3 1.343-3 3s1.343 3 3 3 3-1.343 3-3-1.343-3-3-3zm0 4c-.552 0-1-.448-1-1s.448-1 1-1 1 .448 1 1-.448 1-1 1z"/><path id="Shape_16_" d="m53 32c1.657 0 3-1.343 3-3s-1.343-3-3-3-3 1.343-3 3 1.343 3 3 3zm0-4c.552 0 1 .448 1 1s-.448 1-1 1-1-.448-1-1 .448-1 1-1z"/><path id="Shape_17_" d="m7 32c1.657 0 3-1.343 3-3s-1.343-3-3-3-3 1.343-3 3 1.343 3 3 3zm0-4c.552 0 1 .448 1 1s-.448 1-1 1-1-.448-1-1 .448-1 1-1z"/><path id="Shape_18_" d="m18 37c0 .08.1 8 9 8h6c8.9 0 9-7.92 9-8 0-.552-.448-1-1-1h-22c-.552 0-1 .448-1 1zm5.45 5.33.39-.78c.179-.356.552-.572.95-.55.394.021.739.272.88.64l.5 1.33c-.937-.053-1.858-.27-2.72-.64zm10.38.67.5-1.33c.141-.368.486-.619.88-.64.398-.022.771.194.95.55l.39.78c-.862.37-1.783.587-2.72.64zm6.06-5c-.211 1.22-.794 2.345-1.67 3.22l-.28-.56c-.533-1.066-1.646-1.716-2.837-1.655-1.19.061-2.232.82-2.653 1.935l-.77 2.06h-3.36l-.77-2.06c-.421-1.115-1.463-1.875-2.653-1.935s-2.304.589-2.837 1.655l-.28.56c-.876-.875-1.459-2-1.67-3.22z"/><path id="Shape_19_" d="m13.46 17.68c4.147-2.754 9.689-2.038 13 1.68.368.411.998.446 1.41.08.214-.17.348-.42.373-.692.024-.272-.063-.542-.243-.748-3.98-4.468-10.643-5.321-15.62-2-.458.309-.579.932-.27 1.39s.932.579 1.39.27z"/><path id="Shape_20_" d="m19 34c4.418 0 8-3.582 8-8s-3.582-8-8-8-8 3.582-8 8 3.582 8 8 8zm0-14c3.314 0 6 2.686 6 6s-2.686 6-6 6-6-2.686-6-6 2.686-6 6-6z"/><path id="Shape_21_" d="m19 29c1.657 0 3-1.343 3-3s-1.343-3-3-3-3 1.343-3 3 1.343 3 3 3zm0-4c.552 0 1 .448 1 1s-.448 1-1 1-1-.448-1-1 .448-1 1-1z"/><path id="Shape_22_" d="m41 23c-1.657 0-3 1.343-3 3s1.343 3 3 3 3-1.343 3-3-1.343-3-3-3zm0 4c-.552 0-1-.448-1-1s.448-1 1-1 1 .448 1 1-.448 1-1 1z"/><path id="Shape_23_" d="m32.78 19.7c.287 0 .56-.124.75-.34 3.311-3.718 8.853-4.434 13-1.68.3.202.685.228 1.01.069s.54-.479.565-.84-.145-.707-.445-.909c-4.985-3.344-11.675-2.49-15.66 2-.264.293-.332.714-.172 1.075s.517.594.912.595z"/><path id="Shape_24_" d="m41 18c-4.418 0-8 3.582-8 8s3.582 8 8 8 8-3.582 8-8c0-2.122-.843-4.157-2.343-5.657s-3.535-2.343-5.657-2.343zm0 14c-3.314 0-6-2.686-6-6s2.686-6 6-6 6 2.686 6 6-2.686 6-6 6z"/></g></g></svg>