<svg height="512" viewBox="0 0 60 60" width="512" xmlns="http://www.w3.org/2000/svg"><g id="Page-1" fill="none" fill-rule="evenodd"><g id="011---Excided" fill-rule="nonzero" transform="translate(-1 -1)"><path id="Shape" d="m60 31c.0044119 12.0260883-7.4141353 22.8070719-18.647901 27.1000113-11.2337656 4.2929393-23.951517 1.2069632-31.96843808-7.7571763-8.01692109-8.9641394-9.66933923-21.9462026-4.15366092-32.632835 4.9765438-9.64205532 14.9194139-15.69935716 25.77-15.69935716s20.7934562 6.05730184 25.77 15.69935716c2.1315353 4.1051224 3.2396425 8.664486 3.23 13.29z" fill="#00bcd4"/><path id="Shape" d="m56.77 17.71c-4.9736303-9.64618248-14.9170819-15.70794522-25.77-15.71-.5 0-1 0-1.5 0 10.3075084.54131666 19.5504533 6.5204776 24.27 15.7 2.1331017 4.108122 3.2412549 8.6711057 3.23 13.3.0206782 15.4482999-12.0723645 28.2009631-27.5 29h1.5c10.1138166-.0019147 19.4960563-5.2728214 24.758915-13.9094646 5.2628588-8.6366433 5.6460033-19.3912739 1.011085-28.3805354z" fill="#00838f"/><path id="Shape" d="m50.47 40.52c-1.13 4-4.5 11.76-14 13.9l-4-4c-.7800749-.7754472-2.0399251-.7754472-2.82 0l-4 4c-9.55-2.14-12.92-9.85-14-13.9-.1575457-.580769-.0452211-1.2016063.305827-1.6903584.3510481-.488752.9035029-.793464 1.504173-.8296416h3.4l3.52 4.11c.396027.4601925.9796542.7155767 1.5864136.6941846.6067593-.0213922 1.1709519-.3172444 1.5335864-.8041846l3-4h9l3 4c.3642003.4856523.9292613.779609 1.5359918.7990555s1.1894558-.2377222 1.5840082-.6990555l3.52-4.1h3.4c.6219953.0003785 1.2084091.2901217 1.5866039.7839304.3781947.4938087.505115 1.1354655.3433961 1.7360696z" fill="#37474f"/><path id="Shape" d="m26.5 38-3 4c-.3642003.4856523-.9292613.779609-1.5359918.7990555s-1.1894558-.2377222-1.5840082-.6990555l-3.52-4.1z" fill="#f5f5f5"/><path id="Shape" d="m45.14 38-3.52 4.11c-.396027.4601925-.9796542.7155767-1.5864136.6941846-.6067593-.0213922-1.1709519-.3172444-1.5335864-.8041846l-3-4z" fill="#f5f5f5"/><path id="Shape" d="m36.42 54.42c-3.5719409.7734718-7.2680591.7734718-10.84 0l4-4c.7800749-.7754472 2.0399251-.7754472 2.82 0z" fill="#f5f5f5"/><circle id="Oval" cx="31" cy="20" fill="#f5f5f5" r="14"/><path id="Shape" d="m31 6c-.5010337.00119028-1.0016819.02789151-1.5.08 7.1126167.76364739 12.5054767 6.7665061 12.5054767 13.92s-5.39286 13.1563526-12.5054767 13.92c.4983181.0521085.9989663.0788097 1.5.08 7.7319865 0 14-6.2680135 14-14s-6.2680135-14-14-14z" fill="#cfd8dc"/><circle id="Oval" cx="31" cy="20" fill="#37474f" r="2"/><path id="Shape" d="m18.2 5c-5.5852155 2.73628147-10.14277489 7.195678-13 12.72l-3.14-13.24c-.16716829-.6747117.02797919-1.38783061.51540203-1.88341117.48742285-.49558055 1.19720481-.70253633 1.87459797-.54658883z" fill="#00838f"/><path id="Shape" d="m59.94 4.48-3.17 13.22c-2.8528801-5.512207-7.3990053-9.96369424-12.97-12.7l13.75-2.95c.6773932-.1559475 1.3871751.05100828 1.874598.54658883.4874228.49558056.6825703 1.20869947.515402 1.88341117z" fill="#00838f"/><circle id="Oval" cx="11" cy="23" fill="#ffdc00" r="2"/><circle id="Oval" cx="8" cy="30" fill="#ffdc00" r="2"/><circle id="Oval" cx="15" cy="32" fill="#ffdc00" r="2"/><circle id="Oval" cx="51" cy="23" fill="#ffdc00" r="2"/><circle id="Oval" cx="54" cy="30" fill="#ffdc00" r="2"/><circle id="Oval" cx="47" cy="32" fill="#ffdc00" r="2"/><g fill="#000"><path id="Shape" d="m48.54 37h-35.08c-.9344114.0012814-1.814869.4378834-2.3814586 1.1809195-.5665895.7430361-.7546042 1.7076486-.5085414 2.6090805 1.27 4.58 5.81 15.21 20.43 15.21s19.16-10.63 20.43-15.21c.2460628-.9014319.0580481-1.8660444-.5085414-2.6090805-.5665896-.7430361-1.4470472-1.1796381-2.3814586-1.1809195zm-5.54 2-2.11 2.46c-.2016735.2235711-.4889094.3508275-.79.35-.3041575-.009234-.5875616-.1564569-.77-.4l-1.83-2.41zm-18.5 0-1.8 2.41c-.1824384.2435431-.4658425.390766-.77.4-.3027491.0089923-.5932598-.119715-.79-.35l-2.14-2.46zm3.15 14.76 2.65-2.64c.3888435-.3811429 1.0111565-.3811429 1.4 0l2.65 2.64c-2.2218704.3200029-4.4781296.3200029-6.7 0zm21.86-13.5c-1.19 4.27-4.39 10.93-12.78 13.05l-3.61-3.61c-1.1712702-1.1698135-3.0687298-1.1698135-4.24 0l-3.61 3.61c-8.39-2.12-11.59-8.78-12.78-13.05-.0787004-.2975529-.0159946-.6147705.17-.86.1888544-.2518058.4852427-.4.8-.4h2.94l3.22 3.76c.570008.6664133 1.4030645 1.0500577 2.28 1.05h.1c.9124725-.0277019 1.7626847-.4693706 2.31-1.2l2.69-3.61h8l2.7 3.61c.545147.7279424 1.391076 1.1692967 2.3 1.2h.09c.8769355.0000577 1.709992-.3835867 2.28-1.05l3.23-3.76h2.94c.3147573 0 .6111456.1481942.8.4.1859946.2452295.2487004.5624471.17.86z"/><path id="Shape" d="m31 35c8.2842712 0 15-6.7157288 15-15s-6.7157288-15-15-15-15 6.7157288-15 15 6.7157288 15 15 15zm0-28c7.1797017 0 13 5.8202983 13 13s-5.8202983 13-13 13-13-5.8202983-13-13 5.8202983-13 13-13z"/><path id="Shape" d="m31 23c1.6568542 0 3-1.3431458 3-3s-1.3431458-3-3-3-3 1.3431458-3 3 1.3431458 3 3 3zm0-4c.5522847 0 1 .4477153 1 1s-.4477153 1-1 1-1-.4477153-1-1 .4477153-1 1-1z"/><path id="Shape" d="m60.91 4.72c.2459421-1.00679023-.0451857-2.06921776-.77-2.81-.7245502-.74655313-1.7841536-1.06443414-2.8-.84l-13.42 2.86c-8.1719668-3.8995574-17.6680332-3.8995574-25.84 0l-13.41-2.86c-1.02219741-.23186353-2.09128857.08658916-2.82.84-.71781144.74063437-1.00483153 1.79807683-.76 2.8l3.09 12.88c-5.55600167 11.085578-3.71926198 24.4470477 4.62189544 33.6222473 8.34115736 9.1751995 21.46766096 12.2731652 33.03098806 7.7955922 11.563327-4.4775731 19.1803327-15.6078791 19.1671165-28.0078395.0035193-4.6572037-1.0856651-9.250274-3.18-13.41zm-3.14-1.72c.3389717-.07981273.6950534.02246605.94.27.2655008.25927003.3655944.64424522.26 1l-2.59 10.73c-2.4764135-3.9042465-5.8153572-7.1884534-9.76-9.6zm-54.77 1.24c-.10223786-.35052981-.00529637-.72891719.25289322-.98710678s.63657697-.35513108.98710678-.25289322l11.14 2.4c-3.9446428 2.4115466-7.28358655 5.6957535-9.76 9.6zm28 54.76c-15.463973 0-28-12.536027-28-28s12.536027-28 28-28 28 12.536027 28 28-12.536027 28-28 28z"/><path id="Shape" d="m11 26c1.2133867 0 2.3072956-.7309265 2.7716386-1.8519497s.2076757-2.4113767-.6503183-3.2693706c-.8579939-.857994-2.1483474-1.1146613-3.2693706-.6503183-1.12102317.464343-1.8519497 1.5582519-1.8519497 2.7716386 0 1.6568542 1.34314575 3 3 3zm0-4c.5522847 0 1 .4477153 1 1s-.4477153 1-1 1-1-.4477153-1-1 .4477153-1 1-1z"/><path id="Shape" d="m8 27c-1.65685425 0-3 1.3431458-3 3s1.34314575 3 3 3 3-1.3431458 3-3-1.34314575-3-3-3zm0 4c-.55228475 0-1-.4477153-1-1s.44771525-1 1-1 1 .4477153 1 1-.44771525 1-1 1z"/><path id="Shape" d="m12 32c0 1.6568542 1.3431458 3 3 3s3-1.3431458 3-3-1.3431458-3-3-3-3 1.3431458-3 3zm3-1c.5522847 0 1 .4477153 1 1s-.4477153 1-1 1-1-.4477153-1-1 .4477153-1 1-1z"/><path id="Shape" d="m48 23c0 1.6568542 1.3431458 3 3 3s3-1.3431458 3-3-1.3431458-3-3-3-3 1.3431458-3 3zm3-1c.5522847 0 1 .4477153 1 1s-.4477153 1-1 1-1-.4477153-1-1 .4477153-1 1-1z"/><path id="Shape" d="m51 30c0 1.6568542 1.3431458 3 3 3s3-1.3431458 3-3-1.3431458-3-3-3-3 1.3431458-3 3zm4 0c0 .5522847-.4477153 1-1 1s-1-.4477153-1-1 .4477153-1 1-1 1 .4477153 1 1z"/><path id="Shape" d="m44 32c0 1.6568542 1.3431458 3 3 3s3-1.3431458 3-3-1.3431458-3-3-3-3 1.3431458-3 3zm3-1c.5522847 0 1 .4477153 1 1s-.4477153 1-1 1-1-.4477153-1-1 .4477153-1 1-1z"/></g></g></g></svg>