<svg height="512" viewBox="0 0 60 60" width="512" xmlns="http://www.w3.org/2000/svg"><g id="Page-1" fill="none" fill-rule="evenodd"><g id="015---Heart-Eyed" fill-rule="nonzero"><path id="Shape" d="m59 34c0 13.81-13 25-29 25s-29-11.19-29-25c.20482431-5.6886841 1.83464825-11.2348993 4.74-16.13 1.78404451-3.1766985 3.99083754-6.0966625 6.56-8.68 4.9-4.87 11.04-8.19 17.7-8.19s12.8 3.32 17.7 8.19c2.5691625 2.5833375 4.7759555 5.5033015 6.56 8.68 2.9053517 4.8951007 4.5351757 10.4413159 4.74 16.13z" fill="#ff5722"/><path id="Shape" d="m54.26 17.87c-1.7840445-3.1766985-3.9908375-6.0966625-6.56-8.68-4.9-4.87-11.04-8.19-17.7-8.19-.5 0-1 0-1.5.06 6.08.46 11.67 3.63 16.2 8.13 2.5691625 2.5833375 4.7759555 5.5033015 6.56 8.68 2.9053517 4.8951007 4.5351757 10.4413159 4.74 16.13 0 13.38-12.18 24.29-27.5 25h1.5c16 0 29-11.19 29-25-.2048243-5.6886841-1.8346483-11.2348993-4.74-16.13z" fill="#d84315"/><path id="Shape" d="m12.3 9.19c-2.56916246 2.5833375-4.77595549 5.5033015-6.56 8.68-2.71733022-.5840371-4.67784617-2.9578472-4.73781275-5.7365856-.05996657-2.77873833 1.79631577-5.2349168 4.48592025-5.93563833 2.68960449-.70072154 5.5083786.53746643 6.8118925 2.99222393z" fill="#d84315"/><path id="Shape" d="m59 12c.001788 2.8295647-1.97353 5.2757918-4.74 5.87-1.7840445-3.1766985-3.9908375-6.0966625-6.56-8.68 1.2914306-2.43365439 4.0742852-3.67506207 6.7479386-3.01019783 2.6736533.66486425 4.5509266 3.06511788 4.5520614 5.82019783z" fill="#d84315"/><path id="Shape" d="m30 9.63c1.5455739-1.67523918 3.7206968-2.62866802 6-2.63 3.55 0 6 3.4 6 7.32s-2.53 10.68-12 13.68c-9.47-3-12-9.75-12-13.68s2.45-7.32 6-7.32c2.2793032.00133198 4.4544261.95476082 6 2.63z" fill="#e91e63"/><path id="Shape" d="m36 7c-.5574955.00347098-1.1133733.06039823-1.66.17 2.81.74 4.66 3.75 4.66 7.15 0 3.71-2.27 10-10.5 13.15.48.18 1 .37 1.5.53 9.47-3 12-9.75 12-13.68s-2.45-7.32-6-7.32z" fill="#ad1457"/><circle id="Oval" cx="30" cy="46" fill="#37474f" r="4"/><g fill="#000"><path id="Shape" d="m29.7 29c.1943804.0670499.4056196.0670499.6 0 9.37-3 12.7-9.78 12.7-14.68 0-4.67-3.07-8.32-7-8.32-2.2024529.00117891-4.3314026.79243854-6 2.23-1.6685974-1.43756146-3.7975471-2.22882109-6-2.23-3.93 0-7 3.65-7 8.32 0 4.9 3.33 11.68 12.7 14.68zm-5.7-21c1.9809029-.00257427 3.8743547.8156286 5.23 2.26.1903565.2285401.4725678.360483.77.36.2974322.000483.5796435-.1314599.77-.36 1.3549396-1.44537553 3.2488495-2.26377637 5.23-2.26 3.13 0 5 3.21 5 6.32 0 4.18-2.89 10-11 12.63-8.11-2.67-11-8.45-11-12.63 0-3.11 1.87-6.32 5-6.32z"/><path id="Shape" d="m35.48 31.05c-.5232343.1673923-.8134633.725525-.65 1.25.3157279 1.0694187.1707383 2.2220865-.4 3.18-.74 1.01-2.23 1.52-4.43 1.52s-3.69-.51-4.43-1.52c-.5762408-.9523388-.7216073-2.104368-.4-3.17.1107523-.3411886.0310697-.7155456-.2090321-.9820543-.2401019-.2665086-.6041458-.3846799-.955-.31-.3508542.07468-.6352156.3308657-.7459679.6720543-.5192542 1.6856011-.2705521 3.5142926.68 5 1.14 1.52 3.18 2.31 6.06 2.31s4.92-.79 6.06-2.35c.9505521-1.4857074 1.1992542-3.3143989.68-5-.1879541-.5084519-.7467983-.7745681-1.26-.6z"/><path id="Shape" d="m20.68 35.05c-4.0866475 1.5954844-6.7506101 5.5635125-6.68 9.95 0 .5522847.4477153 1 1 1s1-.4477153 1-1c-.094997-3.522835 2.0345504-6.725162 5.32-8 .5246705-.1767311.806731-.7453295.6299999-1.27s-.7453294-.8067311-1.2699999-.63z"/><path id="Shape" d="m39.32 35.05c-.5246705-.1767311-1.0932688.1053295-1.2699999.63s.1053294 1.0932688.6299999 1.27c3.3031544 1.2809848 5.4364982 4.5090708 5.32 8.05 0 .5522847.4477153 1 1 1s1-.4477153 1-1c.0706101-4.3864875-2.5933525-8.3545156-6.68-9.95z"/><path id="Shape" d="m60 12c-.0104651-2.98428005-1.9117852-5.63376942-4.7356389-6.59911239s-5.9492107-.03423841-7.7843611 2.31911239c-5.01-4.65-11.1-7.72-17.48-7.72s-12.47 3.07-17.48 7.72c-1.8351504-2.3533508-4.96050738-3.28445536-7.78436111-2.31911239-2.82385372.96534297-4.72517381 3.61483234-4.73563889 6.59911239.00335563 2.8198426 1.698359 5.3623477 4.3 6.45-2.6675231 4.7602449-4.1428833 10.0955591-4.3 15.55 0 14.34 13.46 26 30 26s30-11.66 30-26c-.1571167-5.4544409-1.6324769-10.7897551-4.3-15.55 2.601641-1.0876523 4.2966444-3.6301574 4.3-6.45zm-58 0c.00445703-2.17528268 1.41481865-4.09809129 3.4883049-4.75576094s4.33427262.10072198 5.5916951 1.87576094c-2.21436516 2.2925563-4.15717912 4.832643-5.79 7.57-1.97235476-.7178271-3.28643083-2.5910845-3.29-4.69zm28 46c-15.44 0-28-10.77-28-24 0-7.46 4.22-17.31 11-24.11.0357971-.03077502.069225-.06420293.1-.1 4.63-4.61 10.44-7.79 16.9-7.79s12.27 3.18 16.91 7.79l.1.1c6.77 6.8 10.99 16.65 10.99 24.11 0 13.23-12.56 24-28 24zm24.71-41.31c-1.6328209-2.737357-3.5756348-5.2774437-5.79-7.57 1.236665-1.76870373 3.4686096-2.54433384 5.5356026-1.92369472s3.5025058 2.49746674 3.5603161 4.65485202c.0578103 2.1573852-1.2751299 4.1083975-3.3059187 4.8388427z"/><path id="Shape" d="m6.25 9c-.55228475 0-1 .44771525-1 1 .08832024.803849-.20389455 1.602816-.79 2.16-.37201306.2402935-.54166334.6966564-.41695017 1.1216049.12471316.4249486.51408072.7172519.95695017.7183951.17948334-.0000528.35564432-.0484107.51-.14 1.21558047-.89347 1.8755241-2.3574829 1.74-3.86 0-.55228475-.44771525-1-1-1z"/><path id="Shape" d="m54.75 10c0-.55228475-.4477153-1-1-1s-1 .44771525-1 1c-.1355241 1.5025171.5244195 2.96653 1.74 3.86.1543557.0915893.3305167.1399472.51.14.4447253.0033163.8381997-.2874712.9655691-.7135799.1273694-.4261086-.0419771-.8851307-.4155691-1.1264201-.5965682-.5507547-.8938888-1.3535205-.8-2.16z"/><path id="Shape" d="m30 41c-2.7614237 0-5 2.2385763-5 5s2.2385763 5 5 5 5-2.2385763 5-5-2.2385763-5-5-5zm0 8c-1.6568542 0-3-1.3431458-3-3s1.3431458-3 3-3 3 1.3431458 3 3-1.3431458 3-3 3z"/><path id="Shape" d="m31 53h-2c-.5522847 0-1 .4477153-1 1s.4477153 1 1 1h2c.5522847 0 1-.4477153 1-1s-.4477153-1-1-1z"/></g></g></g></svg>