<svg height="512" viewBox="0 0 60 60" width="512" xmlns="http://www.w3.org/2000/svg"><g id="Page-1" fill="none" fill-rule="evenodd"><g id="017---Angry" transform="translate(0 -1)"><path id="Shape" d="m59 35c-.0150139 4.6258566-1.4650145 9.1330877-4.15 12.9-2.2919836-1.5712058-5.3629417-1.3630241-7.4219048.5031344-2.0589631 1.8661584-2.5671115 4.9019299-1.2280952 7.3368656-4.9301676 2.8229659-10.5189238 4.2926018-16.2 4.26-5.6810762.0326018-11.2698324-1.4370341-16.2-4.26 1.3390163-2.4349357.8308679-5.4707072-1.2280952-7.3368656-2.0589631-1.8661585-5.12992122-2.0743402-7.4219048-.5031344-2.68498545-3.7669123-4.13498614-8.2741434-4.15-12.9 0-6.9 3.24-15.16 8.49-21.68.85-1 1.74-2 2.67-3 4.92-4.93 11.11-8.32 17.84-8.32s12.92 3.39 17.84 8.34c.93.93 1.82 1.93 2.67 3 5.24 6.5 8.49 14.75 8.49 21.66z" fill="#a4c400" fill-rule="nonzero"/><path id="Shape" d="m50.51 13.31c-.85-1-1.74-2-2.67-3-4.92-4.92-11.11-8.31-17.84-8.31-.5 0-1 0-1.5.06 6.15.46 11.79 3.7 16.34 8.28.93.93 1.82 1.93 2.67 3 5.24 6.5 8.49 14.75 8.49 21.66-.0038512 4.2554189-1.2290257 8.4203181-3.53 12 .853794.1368794 1.6666268.4613295 2.38.95 2.6948554-3.7808251 4.1453487-8.3070631 4.15-12.95 0-6.91-3.25-15.16-8.49-21.69z" fill="#90ac00" fill-rule="nonzero"/><path id="Shape" d="m13.8 55.74c-3.4139761-1.9603347-6.36451615-4.6345814-8.65-7.84 2.29198358-1.5712058 5.3629417-1.3630241 7.4219048.5031344 2.0589631 1.8661584 2.5671115 4.9019299 1.2280952 7.3368656z" fill="#ef314c" fill-rule="nonzero"/><path id="Shape" d="m54.85 47.9c-2.2854839 3.2054186-5.2360239 5.8796653-8.65 7.84-1.3390163-2.4349357-.8308679-5.4707072 1.2280952-7.3368656 2.0589631-1.8661585 5.1299212-2.0743402 7.4219048-.5031344z" fill="#ef314c" fill-rule="nonzero"/><path id="Shape" d="m50 47.05c.6717276.1707111 1.3081229.458443 1.88.85-1.7110085 2.4211975-3.8170498 4.5373803-6.23 6.26.1198898.5507936.3150563 1.0824541.58 1.58 3.4139761-1.9603347 6.3645161-4.6345814 8.65-7.84-1.4242451-.9829703-3.2072847-1.2935407-4.88-.85z" fill="#bb193b" fill-rule="nonzero"/><path id="Shape" d="m9.49 13.32v-.01" stroke="#000" stroke-linecap="round" stroke-linejoin="round" stroke-width="2"/><g fill-rule="nonzero"><path id="Shape" d="m12.16 10.34c-.93.93-1.82 1.93-2.67 3l-2.25-2.28c-.68558133-.6442894-1.58001493-1.0205194-2.52-1.06-.7916684-.06166211-1.54707066-.357557-2.17-.85-.79179796-.60470357-1.32437429-1.48756499-1.49-2.47-.22401223-1.28844247.19595979-2.60502538 1.12467096-3.52576479.92871118-.9207394 2.24886555-1.32934617 3.53532904-1.09423521.97647128.17939729 1.8484974.72262668 2.44 1.52.4846761.61119402.77702296 1.35250213.84 2.13.04072647.94458619.42061621 1.84283015 1.07 2.53z" fill="#60a917"/><path id="Shape" d="m58.94 6.68c-.1680017.97880875-.7003494 1.85771839-1.49 2.46-.6217436.49603572-1.3772514.79545357-2.17.86-.9412974.0422112-1.8358966.4220609-2.52 1.07l-2.25 2.25c-.85-1-1.74-2-2.67-3l2.1-2.1c.6413361-.68349758 1.0172786-1.57370102 1.06-2.51.0600887-.77642321.3489147-1.51762711.83-2.13.5915026-.79737332 1.4635287-1.34060271 2.44-1.52 1.2880022-.2388894 2.6113546.16802747 3.5426142 1.08931642.9312596.92128894 1.3523974 2.24018462 1.1273858 3.53068358z" fill="#60a917"/><path id="Shape" d="m30 46c13.93 0 15-6.43 15-6.43s-5.36-8.57-15-8.57-15 8.57-15 8.57 1.07 6.43 15 6.43z" fill="#f5f5f5"/><path id="Shape" d="m30 31c-.51 0-1 0-1.5.08 8.69.82 13.5 8.49 13.5 8.49s-1 6-13.5 6.4h1.5c13.93 0 15-6.43 15-6.43s-5.36-8.54-15-8.54z" fill="#cfd8dc"/><circle id="Oval" cx="24" cy="52" fill="#ef314c" r="3"/><circle id="Oval" cx="36" cy="52" fill="#ef314c" r="3"/><path id="Shape" d="m33.31 8c2.2086392 1.46083708 3.1984535 4.1968207 2.4357083 6.7326345-.7627451 2.5358139-3.0976653 4.2717536-5.7457083 4.2717536s-4.9829632-1.7359397-5.7457083-4.2717536c-.7627452-2.5358138.2270691-5.27179742 2.4357083-6.7326345z" fill="#f5f5f5"/><path id="Shape" d="m33.31 8h-3c1.9681427 1.31028304 2.9832626 3.6542606 2.5924556 5.9861477-.390807 2.331887-2.1146631 4.2168325-4.4024556 4.8138523.4889124.1329203.9933412.2001775 1.5.2 2.6453494-.0029184 4.9766504-1.7379657 5.7388989-4.2711177.7622484-2.533152-.2244382-5.26661196-2.4288989-6.7288823z" fill="#cfd8dc"/><circle id="Oval" cx="30" cy="14" fill="#37474f" r="2"/><path id="Shape" d="m23.08 20.83c.6045959.94645.9239779 2.0469292.92 3.17.0092578 2.8177394-1.9434783 5.2622923-4.6936375 5.8757786-2.7501593.6134863-5.5566942-.7694018-6.7458461-3.3239387-1.189152-2.5545369-.4404967-5.5923869 1.7994836-7.3018399z" fill="#f5f5f5"/><path id="Shape" d="m23.08 20.83-8.72-1.58c-.1824043.1391861-.3560661.2894704-.52.45l6.24 1.13c.6045959.94645.9239779 2.0469292.92 3.17-.0043159 2.7324612-1.8543017 5.1168873-4.5 5.8.4889124.1329203.9933412.2001775 1.5.2 3.3137085 0 6-2.6862915 6-6 .0039779-1.1230708-.3154041-2.22355-.92-3.17z" fill="#cfd8dc"/><circle id="Oval" cx="18" cy="25" fill="#37474f" r="2"/><path id="Shape" d="m45.64 19.25c2.2399803 1.709453 2.9886356 4.747303 1.7994836 7.3018399-1.1891519 2.5545369-3.9956868 3.937425-6.7458461 3.3239387-2.7501592-.6134863-4.7028953-3.0580392-4.6936375-5.8757786-.0039779-1.1230708.3154041-2.22355.92-3.17z" fill="#f5f5f5"/><path id="Shape" d="m45.64 19.25-2.48.45c1.175571 1.1213905 1.8405216 2.6753512 1.84 4.3-.0043159 2.7324612-1.8543017 5.1168873-4.5 5.8.4889124.1329203.9933412.2001775 1.5.2 2.5626724-.0109549 4.8354981-1.6483176 5.6574003-4.0756384.8219021-2.4273209.0114239-5.1087046-2.0174003-6.6743616z" fill="#cfd8dc"/><circle id="Oval" cx="42" cy="25" fill="#37474f" r="2"/><path id="Shape" d="m24 48c-2.209139 0-4 1.790861-4 4s1.790861 4 4 4 4-1.790861 4-4-1.790861-4-4-4zm0 6c-1.1045695 0-2-.8954305-2-2s.8954305-2 2-2 2 .8954305 2 2-.8954305 2-2 2z" fill="#000"/><path id="Shape" d="m4.33 48.47c.01834224.0251785.0423124.0457244.07.06 2.34503204 3.2679066 5.36269269 5.9957354 8.85 8l.07.06h.11c5.0411729 2.8973131 10.7555541 4.4181593 16.57 4.41 5.8081043.0294679 11.5220735-1.4671299 16.57-4.34h.11l.07-.06c3.4883737-2.0066204 6.5088458-4.733909 8.86-8l.06-.06s0-.06 0-.08c2.7985308-3.9319394 4.3111121-8.6338665 4.33-13.46 0-7.1-3.18-15.11-8.2-21.56l1.67-1.68c.5167056-.468271 1.1830334-.7376376 1.88-.76.987771-.0797812 1.9302383-.4484215 2.71-1.06 1.5544654-1.18743586 2.2737271-3.17230227 1.8408208-5.07990773-.4329064-1.90760546-1.9384682-3.38757699-3.8532141-3.78772032-1.9147458-.40014332-3.8869913.35303653-5.0476067 1.92762805-.5835902.77128518-.9309554 1.69527663-1 2.66-.0279075.70062603-.3003481 1.36934392-.77 1.89l-1.45 1.45c-5.07-4.81-11.28-8-17.78-8-7.75 0-13.88 4.16-17.83 7.93l-1.41-1.4c-.4660197-.52207393-.7348613-1.1906406-.76-1.89-.07282784-.95778649-.42000106-1.87432378-1-2.64-1.17385238-1.56513651-3.15271129-2.30185661-5.06429637-1.88541434-1.91158508.41644228-3.40467569 1.90953289-3.82111797 3.82111797-.41644227 1.91158508.32027783 3.89044399 1.88541434 5.06429637.76985509.5792987 1.68935986.9262817 2.65 1 .69825472.0251165 1.36473979.2980917 1.88.77l1.64 1.63c-5.05 6.6-8.17 14.76-8.17 21.6.0215911 4.7978874 1.51939896 9.4728634 4.29 13.39 0 0 .02.05.04.08zm2.32-.24c1.76852479-.707852 3.7856181-.3492935 5.2018534.9246813 1.4162354 1.2739748 1.9855303 3.2420024 1.4681466 5.0753187-2.5503258-1.6035412-4.80642758-3.633018-6.67-6zm40 6c-.5173837-1.8333163.0519112-3.8013439 1.4681466-5.0753187 1.4162353-1.2739748 3.4333286-1.6325333 5.2018534-.9246813-1.8511607 2.3786819-4.097149 4.4217194-6.64 6.04zm4-45.23c.8201087-.87366413 1.299185-2.01280114 1.35-3.21.0445654-.58579724.2601483-1.14561735.62-1.61.5236682-.68036108 1.3137398-1.10375573 2.1702484-1.16302307.8565086-.05926733 1.6973659.25127286 2.3097516.85302307.839812.82689169 1.1176557 2.06891094.7102168 3.1748167-.407439 1.10590576-1.4246692 1.87079253-2.6002168 1.9551833-1.1814818.05069606-2.3028828.53485651-3.15 1.36l-1.54 1.53c-.43-.5-.88-1-1.33-1.47zm-45.86 0c-1.17295989-.08424476-2.1885331-.84604507-2.59766955-1.94856013-.40913644-1.10251506-.13637869-2.34240693.69766955-3.17143987.61238569-.60175021 1.45324302-.9122904 2.3097516-.85302307.85650857.05926734 1.64658023.48266199 2.1702484 1.16302307.36162579.4604335.58062356 1.01661832.63 1.6.05705918 1.17806324.53627088 2.29622388 1.35 3.15l1.42 1.42c-.45.47-.89 1-1.34 1.48l-1.49-1.49c-.84863896-.82148389-1.9698641-1.30200895-3.15-1.35zm5.48 5 .06-.08c.84-1 1.7-2 2.54-2.83 3.65-3.71 9.58-8.09 17.13-8.09 6.54 0 12.41 3.25 17.07 8 .023397.0275909.0435303.0577909.06.09h.08c6.65 6.79 10.79 16.52 10.79 23.91-.0139 4.1078962-1.2192864 8.1235349-3.47 11.56-2.5727993-1.2447084-5.6439166-.8002912-7.7583229 1.1226964s-2.8473892 4.9382827-1.8516771 7.6173036c-9.3348755 4.9336734-20.5051245 4.9336734-29.84 0 .9957121-2.6790209.2627292-5.694316-1.8516771-7.6173036s-5.1855236-2.3674048-7.7583229-1.1226964c-2.25071358-3.4364651-3.45609995-7.4521038-3.47-11.56 0-6.65 3.17-14.72 8.27-21z" fill="#000"/><path id="Shape" d="m36 48c-2.209139 0-4 1.790861-4 4s1.790861 4 4 4 4-1.790861 4-4-1.790861-4-4-4zm0 6c-1.1045695 0-2-.8954305-2-2s.8954305-2 2-2 2 .8954305 2 2-.8954305 2-2 2z" fill="#000"/><path id="Shape" d="m30 20c3.8659932 0 7-3.1340068 7-7 .0008044-1.5210253-.4981074-3.0001932-1.42-4.21.2565652-.18252589.41218-.47522986.42-.79 0-.55228475-.4477153-1-1-1h-10c-.5522847 0-1 .44771525-1 1 .00782.31477014.1634348.60747411.42.79-.9218926 1.2098068-1.4208044 2.6889747-1.42 4.21 0 3.8659932 3.1340068 7 7 7zm0-2c-2.152152 0-4.0628463-1.3771505-4.7434165-3.4188612s.0216949-4.2898476 1.7434165-5.5811388h6c1.7217216 1.2912912 2.4239867 3.5394281 1.7434165 5.5811388s-2.5912645 3.4188612-4.7434165 3.4188612z" fill="#000"/><path id="Shape" d="m30 11c-1.6568542 0-3 1.3431458-3 3s1.3431458 3 3 3 3-1.3431458 3-3-1.3431458-3-3-3zm0 4c-.5522847 0-1-.4477153-1-1s.4477153-1 1-1 1 .4477153 1 1-.4477153 1-1 1z" fill="#000"/><path id="Shape" d="m18 31c3.8659932 0 7-3.1340068 7-7-.0042217-.7558181-.1325983-1.5058073-.38-2.22.3159734-.2417875.4585518-.6478867.3630757-1.0341311-.0954762-.3862444-.4108408-.6791441-.8030757-.7458689l-.88-.16-10.12-1.84c-.4559615-.0762632-.9047646.1699564-1.0854361.5954852-.1806714.4255289-.046111.9194335.3254361 1.1945148-1.5946394 2.1182807-1.8556039 4.955712-.6740929 7.329321s3.6026847 3.8759528 6.2540929 3.880679zm0-2c-2.7614237 0-5-2.2385763-5-5 .0089564-1.4039163.6077402-2.7393855 1.65-3.68l7.78 1.41c.3740009.698195.5697969 1.4779439.57 2.27 0 1.3260824-.5267842 2.597852-1.4644661 3.5355339s-2.2094515 1.4644661-3.5355339 1.4644661z" fill="#000"/><path id="Shape" d="m18 22c-1.6568542 0-3 1.3431458-3 3s1.3431458 3 3 3 3-1.3431458 3-3-1.3431458-3-3-3zm0 4c-.5522847 0-1-.4477153-1-1s.4477153-1 1-1 1 .4477153 1 1-.4477153 1-1 1z" fill="#000"/><path id="Shape" d="m36.7 19.86-.88.16c-.3823261.0733367-.6873415.3618873-.7817598.7395601-.0944182.3776728.0389246.7758129.3417598 1.0204399-.2474017.7141927-.3757783 1.4641819-.38 2.22-.0158862 3.0541478 1.9502062 5.7660358 4.857888 6.7006252 2.9076819.9345895 6.0856491-.1238909 7.8522295-2.6153292 1.7665805-2.4914383 1.7139191-5.8406296-.1301175-8.275296.3976543-.2662317.5509541-.7768756.3656862-1.2181058s-.6571684-.689359-1.1256862-.5918942l-10.1 1.83zm5.3 9.14c-2.7614237 0-5-2.2385763-5-5 .0002031-.7920561.1959991-1.571805.57-2.27l7.78-1.41c1.0422598.9406145 1.6410436 2.2760837 1.65 3.68 0 2.7614237-2.2385763 5-5 5z" fill="#000"/><path id="Shape" d="m42 22c-1.6568542 0-3 1.3431458-3 3s1.3431458 3 3 3 3-1.3431458 3-3-1.3431458-3-3-3zm0 4c-.5522847 0-1-.4477153-1-1s.4477153-1 1-1 1 .4477153 1 1-.4477153 1-1 1z" fill="#000"/><path id="Shape" d="m30 30c-10.08 0-15.62 8.67-15.85 9-.1311977.2081628-.181043.4573891-.14.7.05.3 1.38 7.3 15.99 7.3s15.94-7 16-7.26c.041043-.2426109-.0088023-.4918372-.14-.7-.24-.37-5.78-9.04-15.86-9.04zm-5 2.88c1.2885206-.4603639 2.6346923-.7396945 4-.83v4.95h-4zm-2 4.12h-4.5c1.3352893-1.2948326 2.8510112-2.3895206 4.5-3.25zm6 2v6c-1.3384103-.0290142-2.6739996-.1358613-4-.32v-5.68zm2 0h4v5.66c-1.3256089.1908315-2.6612001.3043567-4 .34zm0-2v-4.95c1.3653077.0903055 2.7114794.3696361 4 .83v4.12zm6-3.25c1.6489888.8604794 3.1647107 1.9551674 4.5 3.25h-4.5zm-20.9 6c.13-.19.32-.44.56-.74h6.34v5.27c-5.08-1.28-6.54-3.66-6.9-4.54zm20.9 4.52v-5.27h6.34c.24.29.43.55.56.73-.37.9-1.84 3.32-6.9 4.54z" fill="#000"/></g></g></g></svg>