<svg height="512" viewBox="0 0 60 60" width="512" xmlns="http://www.w3.org/2000/svg"><g id="Page-1" fill="none" fill-rule="evenodd"><g id="018---Evil" fill-rule="nonzero"><path id="Shape" d="m58.46 35.58c-2.6638825 13.6103808-14.5913758 23.4296858-28.46 23.4296858s-25.79611745-9.819305-28.46-23.4296858c1.93303161 1.7461748 4.18393149 3.1041838 6.63 4 2.6707484 1.0544284 5.4416109 1.8350946 8.27 2.33l1.54.26c3.4424526.5254817 6.9178358.8061857 10.4.84h1.62 1.62c3.4761951-.0446876 6.9448657-.3354144 10.38-.87l1.54-.26c2.8283891-.4949054 5.5992516-1.2755716 8.27-2.33 2.4507977-.8845246 4.7085061-2.2323595 6.65-3.97z" fill="#d84315"/><path id="Shape" d="m59 30c.0035573 1.8732142-.177315 3.7422286-.54 5.58-1.9330316 1.7461748-4.1839315 3.1041838-6.63 4-2.6707484 1.0544284-5.4416109 1.8350946-8.27 2.33l-1.56.23c-3.4424526.5254817-6.9178358.8061857-10.4.84-.53 0-1.07 0-1.62 0s-1.09 0-1.62 0c-3.4688048-.0357006-6.9307547-.3163993-10.36-.84l-1.54-.26c-2.8283891-.4949054-5.5992516-1.2755716-8.27-2.33-2.44606851-.8958162-4.69696839-2.2538252-6.63-4-.36744505-1.8272759-.55500736-3.6861523-.56-5.55 0-16.0162577 12.9837423-29 29-29s29 12.9837423 29 29z" fill="#ff5722"/><path id="Shape" d="m30 1c-.5 0-1 0-1.5 0 15.4276355.79903687 27.5206782 13.5517001 27.5 29 .0035573 1.8732142-.177315 3.7422286-.54 5.58-1.9330316 1.7461748-4.1839315 3.1041838-6.63 4-2.6707484 1.0544284-5.4416109 1.8350946-8.27 2.33l-1.56.23c-3.4424526.5254817-6.9178358.8061857-10.4.84h-.1 1.5 1.62c3.4754846-.0347584 6.944151-.3154597 10.38-.84l1.54-.26c2.8283891-.4949054 5.5992516-1.2755716 8.27-2.33 2.4460685-.8958162 4.6969684-2.2538252 6.63-4 .367445-1.8272759.5550074-3.6861523.56-5.55 0-7.6912782-3.0553484-15.0675417-8.4939033-20.50609665-5.438555-5.43855498-12.8148185-8.49390335-20.5060967-8.49390335z" fill="#d84315"/><path id="Shape" d="m24.88 28.9c-.3448522 1.9893402-1.4721234 3.7576794-3.13 4.91-.9430528.6187293-2.0189395 1.0059115-3.14 1.13-2.2440706.3454486-4.5306036-.2597036-6.31-1.67-1.673381-1.3775228-2.51664367-3.5216033-2.23-5.67.44-2.91 3-4.91 5.87-5.42.6597842-.1208528 1.3292397-.1811038 2-.18h.06c1.6250266.5438421 3.299838.9256992 5 1.14.6697865.4231878 1.1988151 1.0357472 1.52 1.76.5081268 1.2695485.6332787 2.660125.36 4z" fill="#f5f5f5"/><path id="Shape" d="m24.5 24.93c-.3158138-.7215541-.837624-1.3338114-1.5-1.76-1.7011908-.2240559-3.3760239-.6159668-5-1.17h-.08c-.6707603-.0011038-1.3402158.0591472-2 .18l-.24.06c1.3975914.4312723 2.8294605.7424028 4.28.93.6697865.4231878 1.1988151 1.0357472 1.52 1.76.5148349 1.2675498.6469449 2.6581812.38 4-.3448522 1.9893402-1.4721234 3.7576794-3.13 4.91-.8561755.5635911-1.8256782.9322752-2.84 1.08.8956625.1249596 1.8043375.1249596 2.7 0 1.1210605-.1240885 2.1969472-.5112707 3.14-1.13 1.6578766-1.1523206 2.7851478-2.9206598 3.13-4.91.2633392-1.3238376.1383197-2.6955794-.36-3.95z" fill="#cfd8dc"/><path id="Shape" d="m26.23 22.61c-.19.59-1.44.77-3.25.56-1.6944243-.2253493-3.3624962-.6172457-4.98-1.17h-.08c-4.16-1.37-7.24-3.31-6.9-4.35s4-.8 8.23.57 7.33 3.34 6.98 4.39z" fill="#ffdc00"/><path id="Shape" d="m47.7 33.27c-1.7793964 1.4102964-4.0659294 2.0154486-6.31 1.67-1.1210605-.1240885-2.1969472-.5112707-3.14-1.13-1.6578766-1.1523206-2.7851478-2.9206598-3.13-4.91-.2669449-1.3418188-.1348349-2.7324502.38-4 .3207395-.7105125.8421041-1.3118196 1.5-1.73 1.7011908-.2240559 3.3760239-.6159668 5-1.17h.08c.6707603-.0011038 1.3402158.0591472 2 .18 2.88.51 5.43 2.51 5.87 5.42.2819171 2.1520394-.569187 4.2968218-2.25 5.67z" fill="#f5f5f5"/><path id="Shape" d="m49.93 27.6c-.44-2.91-3-4.91-5.87-5.42-.6597842-.1208528-1.3292397-.1811038-2-.18h-.06l-.69.21c2.8122172.4349001 5.057528 2.5725317 5.63 5.36.2866437 2.1483967-.556619 4.2924772-2.23 5.67-1.0371436.8525756-2.2836279 1.4119397-3.61 1.62h.3c2.2440706.3454486 4.5306036-.2597036 6.31-1.67 1.6437633-1.3636218 2.4803571-3.4701801 2.22-5.59z" fill="#cfd8dc"/><path id="Shape" d="m42.08 22h-.08c-1.6250266.5438421-3.299838.9256992-5 1.14-1.81.21-3.06 0-3.25-.56-.35-1.05 2.78-3 7-4.39s7.88-1.63 8.23-.57-2.74 3.01-6.9 4.38z" fill="#ffdc00"/><path id="Shape" d="m16.44 41.88-3 2.62c-.4661839.4096267-1.0961084.5796403-1.7050864.4601944-.6089779-.1194458-1.1280071-.5148168-1.4049136-1.0701944l-2.16-4.34c2.6707484 1.0544284 5.4416109 1.8350946 8.27 2.33z" fill="#f5f5f5"/><path id="Shape" d="m28.38 43-4.29 4.41c-.4384263.4180279-1.0426928.6148174-1.643206.5351377s-1.1325518-.4272412-1.446794-.9451377l-3-4.9c3.434419.544633 6.9030938.8453852 10.38.9z" fill="#f5f5f5"/><path id="Shape" d="m18 42.14.25.42c2.17.23 4.53.38 7.15.42l-4.22 4.33c.3671592.4176839.8916485.6636372 1.4475579.6788156.5559095.0151784 1.0930383-.2017887 1.4824421-.5988156l4.27-4.39c-3.4759582-.0413781-6.9446274-.328763-10.38-.86z" fill="#cfd8dc"/><path id="Shape" d="m51.83 39.55-2.17 4.34c-.2769065.5553776-.7959357.9507486-1.4049136 1.0701944-.608978.1194459-1.2389025-.0505677-1.7050864-.4601944l-3-2.62c2.8317866-.4942471 5.6060316-1.2749224 8.28-2.33z" fill="#f5f5f5"/><path id="Shape" d="m42 42.14-3 4.9c-.3224792.526915-.8703587.875234-1.4843203.9436692s-1.2250918-.1506948-1.6556797-.5936692l-4.24-4.39c3.4759582-.0413781 6.9446274-.328763 10.38-.86z" fill="#f5f5f5"/><path id="Shape" d="m38.77 42.56-2.72 4.44c-.0619138.0960075-.1321869.1863586-.21.27l.07.08c.4305879.4429744 1.0417181.6621044 1.6556797.5936692s1.1618411-.4167542 1.4843203-.9436692l3-4.9c-1.05.2-2.15.34-3.28.46z" fill="#cfd8dc"/><circle id="Oval" cx="19" cy="29" fill="#37474f" r="2"/><circle id="Oval" cx="41" cy="29" fill="#37474f" r="2"/><g fill="#000"><path id="Shape" d="m30 0c-16.5685425 0-30 13.4314575-30 30s13.4314575 30 30 30 30-13.4314575 30-30c0-7.9564947-3.1607052-15.5871121-8.7867966-21.21320344-5.6260913-5.62609135-13.2567087-8.78679656-21.2132034-8.78679656zm0 58c-12.3229886-.0165733-23.19195881-8.0739734-26.79-19.86 1.33876059.8572857 2.75495959 1.5871471 4.23 2.18l2 4c.39776091.8624174 1.1803931 1.4855558 2.11 1.68.1930653.014396.3869347.014396.58 0 .7361032.0038377 1.4479251-.2630955 2-.75l2.63-2.31.62.11 2.74 4.51c.4658727.7994533 1.2809237 1.3329412 2.2 1.44h.34c.8101399-.0005902 1.5856026-.3288093 2.15-.91l4-4.1h2.4l4 4.1c.5643974.5811907 1.3398601.9094098 2.15.91h.34c.9230639-.1026293 1.7465453-.6269986 2.23-1.42l2.73-4.51.62-.11 2.63 2.31c.5520749.4869045 1.2638968.7538377 2 .75.1930653.014396.3869347.014396.58 0 .9116543-.1822807 1.687284-.7769302 2.1-1.61l2-4c1.4750404-.5928529 2.8912394-1.3227143 4.23-2.18-3.633605 11.7609882-14.5104975 19.7787423-26.82 19.77zm-19.82-16.66c1.29.41 2.65.79 4.09 1.11l-1.48 1.3c-.2325127.2040015-.5463437.2889204-.85.23-.3082858-.0586264-.571172-.258568-.71-.54zm9.74 2.08c2 .24 4 .4 6.16.49l-2.71 2.78c-.2151872.2232812-.5217837.3340992-.83.3-.3021997-.0373534-.5709151-.210362-.73-.47zm14 .49c2.1466667-.0866667 4.2-.25 6.16-.49l-1.88 3.1c-.1611932.2621988-.4341479.4355619-.74.47-.3082163.0340992-.6148128-.0767188-.83-.3zm11.81-1.46c1.44-.32 2.8-.7 4.09-1.11l-1 2.1c-.138828.281432-.4017142.4813736-.71.54-.3036563.0589204-.6174873-.0259985-.85-.23zm11.8-7.37c-1.7990925 1.5334907-3.8582594 2.7324135-6.08 3.54-2.6064448 1.0295594-5.3101455 1.7934302-8.07 2.28l-1.52.25c-3.4023055.5256458-6.8375647.8096896-10.28.85-.52 0-1.07 0-1.58 0s-1.06 0-1.61 0c-3.4352501-.035331-6.8637409-.3126845-10.26-.83l-1.51-.25c-2.7627235-.4882271-5.4695768-1.2520421-8.08-2.28-2.21594484-.8134807-4.2708293-2.0118812-6.07-3.54-.30994743-1.6823751-.46725358-3.3893142-.47-5.1 0-15.463973 12.536027-28 28-28s28 12.536027 28 28c-.0039486 1.7040044-.1612498 3.4041958-.47 5.08z"/><path id="Shape" d="m19.56 17.27c-1.43-.46-8.6-2.65-9.49.07-.54 1.66 1.93 3.2 4.17 4.27-2.6643624.8476718-4.64694034 3.0915197-5.16 5.84-.32342098 2.4796093.64664284 4.951951 2.57 6.55 1.6181139 1.3287544 3.656569 2.0377823 5.75 2 .4481618-.0004423.8958043-.0305078 1.34-.09 1.2752928-.1415319 2.4988043-.5836411 3.57-1.29 1.8769802-1.306206 3.1548769-3.3076442 3.55-5.56.301165-1.5278964.1446242-3.1106981-.45-4.55-.0539815-.1164187-.1140649-.2299096-.18-.34.8434849-.0020399 1.6070894-.4993618 1.95-1.27.89-2.7-6.18-5.16-7.62-5.63zm-.62 1.9c2.2033094.5928859 4.2689573 1.6121201 6.08 3-2.2855486.0623558-4.561332-.3214704-6.7-1.13-2.2067307-.5919133-4.2758357-1.6111768-6.09-3 2.2887708-.0618682 4.5677329.3219213 6.71 1.13zm4.95 9.55c-.2916746 1.7327974-1.2683705 3.2753283-2.71 4.28-.8054958.547536-1.7321757.8907508-2.7 1-1.9542583.2848337-3.9390297-.2548213-5.48-1.49-1.4072648-1.1556214-2.121245-2.9537939-1.89-4.76.39-2.62 2.82-4.19 5.06-4.59.5343142-.1003801 1.0763725-.1539167 1.62-.16 1.5654076.5085479 3.1711781.8832277 4.8 1.12.4430343.2984705.7903143.7186794 1 1.21.4308082 1.076003.5351498 2.2550627.3 3.39z"/><path id="Shape" d="m19 26c-1.6568542 0-3 1.3431458-3 3s1.3431458 3 3 3 3-1.3431458 3-3-1.3431458-3-3-3zm0 4c-.5522847 0-1-.4477153-1-1s.4477153-1 1-1 1 .4477153 1 1-.4477153 1-1 1z"/><path id="Shape" d="m40.44 17.27c-1.43.47-8.51 2.93-7.63 5.65.350151.7874073 1.1384357 1.2879681 2 1.27-.06.11-.13.22-.18.33-.5914071 1.4436098-.7478243 3.0286371-.45 4.56.3951231 2.2523558 1.6730198 4.253794 3.55 5.56 1.0741362.707841 2.3012464 1.150012 3.58 1.29.4280417.0511138.8589407.0744959 1.29.07 2.093431.0377823 4.1318861-.6712456 5.75-2 1.9331071-1.604067 2.9042022-4.0903729 2.57-6.58-.5171539-2.7464798-2.4981272-4.9885115-5.16-5.84 2.29-1.07 4.71-2.62 4.17-4.28-.93-2.68-8.06-.49-9.49-.03zm8.5 10.48c.231245 1.8062061-.4827352 3.6043786-1.89 4.76-1.5535111 1.2488284-3.5593662 1.7892848-5.53 1.49-.9678243-.1092492-1.8945042-.452464-2.7-1-1.4371391-1.0000075-2.4133057-2.5344982-2.71-4.26-.2296087-1.1360442-.1218495-2.3144432.31-3.39.2127502-.4867629.5595817-.9029606 1-1.2 1.6263285-.2471161 3.228747-.6318303 4.79-1.15.5638647-.0012979 1.1265172.0522881 1.68.16 2.23.4 4.66 1.97 5.05 4.59zm-7.26-6.67c-2.1324069.8059668-4.4011469 1.1897507-6.68 1.13 1.8110427-1.3878799 3.8766906-2.4071141 6.08-3 2.1303758-.8335559 4.4026163-1.2445292 6.69-1.21-1.8076383 1.4172648-3.8771641 2.4639215-6.09 3.08z"/><path id="Shape" d="m41 26c-1.6568542 0-3 1.3431458-3 3s1.3431458 3 3 3 3-1.3431458 3-3-1.3431458-3-3-3zm0 4c-.5522847 0-1-.4477153-1-1s.4477153-1 1-1 1 .4477153 1 1-.4477153 1-1 1z"/></g></g></g></svg>