<svg height="512" viewBox="0 0 60 60" width="512" xmlns="http://www.w3.org/2000/svg"><g id="Page-1" fill="none" fill-rule="evenodd"><g id="019---Worried" fill-rule="nonzero" transform="translate(-1 -1)"><path id="Shape" d="m60 31c.0044119 12.0260883-7.4141353 22.8070719-18.647901 27.1000113-11.2337656 4.2929393-23.951517 1.2069632-31.96843808-7.7571763-8.01692109-8.9641394-9.66933923-21.9462026-4.15366092-32.632835 4.9765438-9.64205532 14.9194139-15.69935716 25.77-15.69935716s20.7934562 6.05730184 25.77 15.69935716c2.1315353 4.1051224 3.2396425 8.664486 3.23 13.29z" fill="#00bcd4"/><path id="Shape" d="m56.77 17.71c-4.9736303-9.64618248-14.9170819-15.70794522-25.77-15.71-.5 0-1 0-1.5 0 10.3075084.54131666 19.5504533 6.5204776 24.27 15.7 2.1331017 4.108122 3.2412549 8.6711057 3.23 13.3.0206782 15.4482999-12.0723645 28.2009631-27.5 29h1.5c10.1138166-.0019147 19.4960563-5.2728214 24.758915-13.9094646 5.2628588-8.6366433 5.6460033-19.3912739 1.011085-28.3805354z" fill="#00838f"/><path id="Shape" d="m18.2 5c-5.5852155 2.73628147-10.14277489 7.195678-13 12.72l-3.14-13.24c-.16716829-.6747117.02797919-1.38783061.51540203-1.88341117.48742285-.49558055 1.19720481-.70253633 1.87459797-.54658883z" fill="#00838f"/><path id="Shape" d="m59.94 4.48-3.17 13.22c-2.8528801-5.512207-7.3990053-9.96369424-12.97-12.7l13.75-2.95c.6773932-.1559475 1.3871751.05100828 1.874598.54658883.4874228.49558056.6825703 1.20869947.515402 1.88341117z" fill="#00838f"/><circle id="Oval" cx="8" cy="30" fill="#ffdc00" r="2"/><circle id="Oval" cx="15" cy="32" fill="#ffdc00" r="2"/><circle id="Oval" cx="54" cy="30" fill="#ffdc00" r="2"/><circle id="Oval" cx="47" cy="32" fill="#ffdc00" r="2"/><path id="Shape" d="m44.92 50.71c-.1048802.7934284-.4544185 1.5344496-1 2.12-.3423214.353824-.7590482.6270874-1.22.8l-3.22-3.9c-.3945524-.4613333-.9772777-.718502-1.5840082-.6990555s-1.1717915.3134032-1.5359918.7990555l-1.8 2.5c-1.13629-.4281469-2.3465709-.6253274-3.56-.58-1.2134291-.0453274-2.42371.1518531-3.56.58l-1.8-2.5c-.3642003-.4856523-.9292613-.779609-1.5359918-.7990555s-1.1894558.2377222-1.5840082.6990555l-3.22 3.9c-.4609518-.1729126-.8776786-.446176-1.22-.8-.5455815-.5855504-.8951198-1.3265716-1-2.12-.1973833-2.0875332.2604988-4.1847032 1.31-6 2.4299228-4.7246689 7.2970893-7.6946087 12.61-7.6946087s10.1800772 2.9699398 12.61 7.6946087c1.0495012 1.8152968 1.5073833 3.9124668 1.31 6z" fill="#37474f"/><path id="Shape" d="m27.44 52.33c-1.9994595 1.0189475-4.1973421 1.5888953-6.44 1.67-.5839824-.014445-1.1602909-.1364868-1.7-.36l3.22-3.9c.3945524-.4613333.9772777-.718502 1.5840082-.6990555s1.1717915.3134032 1.5359918.7990555z" fill="#f5f5f5"/><path id="Shape" d="m42.7 53.63c-.5390544.226944-1.1153866.352381-1.7.37-2.2268105-.0775439-4.4103201-.6370683-6.4-1.64l1.8-2.5c.3642003-.4856523.9292613-.779609 1.5359918-.7990555s1.1894558.2377222 1.5840082.6990555z" fill="#f5f5f5"/><path id="Shape" d="m43.6 26.11c-2.41.96-6.35 1.89-12.6 1.89s-10.19-.93-12.6-1.89c-2.850515-5.885577-1.2467644-12.960488 3.8630167-17.04161403 5.1097811-4.08112599 12.3641855-4.08112599 17.4739666 0 5.1097811 4.08112603 6.7135317 11.15603703 3.8630167 17.04161403z" fill="#f5f5f5"/><path id="Shape" d="m31 6c-.5010337.00119028-1.0016819.02789151-1.5.08 4.521986.49060509 8.5237742 3.14745994 10.7310431 7.1245211 2.207269 3.9770611 2.3448592 8.7785458.3689569 12.8754789-3.560451 1.2796516-7.3165846 1.9293612-11.1 1.9200997.49-.0000997 1-.0000997 1.5-.0000997 6.25 0 10.19-.93 12.6-1.89 2.1048084-4.3392617 1.8279835-9.4563678-.7326613-13.5432381-2.5606447-4.08687029-7.0445378-6.56802118-11.8673387-6.5667619z" fill="#cfd8dc"/><circle id="Oval" cx="31" cy="15" fill="#37474f" r="2"/><g fill="#000"><path id="Shape" d="m31 18c1.6568542 0 3-1.3431458 3-3s-1.3431458-3-3-3-3 1.3431458-3 3 1.3431458 3 3 3zm0-4c.5522847 0 1 .4477153 1 1s-.4477153 1-1 1-1-.4477153-1-1 .4477153-1 1-1z"/><path id="Shape" d="m60.15 1.91c-.7266343-.74997422-1.7909756-1.06814028-2.81-.84l-13.41 2.86c-8.1747506-3.90273941-17.6752494-3.90273941-25.85 0l-13.41-2.86c-1.01902444-.22814028-2.08336566.09002578-2.81.84-.73186563.73259655-1.02435462 1.79619288-.77 2.8l3.09 12.88c-5.55600167 11.085578-3.71926198 24.4470477 4.62189544 33.6222473 8.34115736 9.1751995 21.46766096 12.2731652 33.03098806 7.7955922 11.563327-4.4775731 19.1803327-15.6078791 19.1671165-28.0078395.0035193-4.6572037-1.0856651-9.250274-3.18-13.41l3.09-12.87c.2485161-1.00505715-.0387607-2.06722546-.76-2.81zm-57.15 2.33c-.10223786-.35052981-.00529637-.72891719.25289322-.98710678s.63657697-.35513108.98710678-.25289322l11.14 2.4c-3.9446428 2.4115466-7.28358655 5.6957535-9.76 9.6zm28 54.76c-15.463973 0-28-12.536027-28-28s12.536027-28 28-28 28 12.536027 28 28-12.536027 28-28 28zm28-54.75-2.62 10.75c-2.4764135-3.9042465-5.8153572-7.1884534-9.76-9.6l11.15-2.4c.3389717-.07981273.6950534.02246605.94.27.2689002.24887207.380166.62487364.29.98z"/><path id="Shape" d="m8 27c-1.65685425 0-3 1.3431458-3 3s1.34314575 3 3 3 3-1.3431458 3-3-1.34314575-3-3-3zm0 4c-.55228475 0-1-.4477153-1-1s.44771525-1 1-1 1 .4477153 1 1-.44771525 1-1 1z"/><path id="Shape" d="m18 32c0-1.6568542-1.3431458-3-3-3s-3 1.3431458-3 3 1.3431458 3 3 3 3-1.3431458 3-3zm-3 1c-.5522847 0-1-.4477153-1-1s.4477153-1 1-1 1 .4477153 1 1-.4477153 1-1 1z"/><path id="Shape" d="m54 33c1.6568542 0 3-1.3431458 3-3s-1.3431458-3-3-3-3 1.3431458-3 3 1.3431458 3 3 3zm0-4c.5522847 0 1 .4477153 1 1s-.4477153 1-1 1-1-.4477153-1-1 .4477153-1 1-1z"/><path id="Shape" d="m47 29c-1.6568542 0-3 1.3431458-3 3s1.3431458 3 3 3 3-1.3431458 3-3-1.3431458-3-3-3zm0 4c-.5522847 0-1-.4477153-1-1s.4477153-1 1-1 1 .4477153 1 1-.4477153 1-1 1z"/><path id="Shape" d="m31 36c-5.6807825.0274136-10.8787072 3.2000729-13.5 8.24-1.1639907 2.003478-1.6579719 4.3262404-1.41 6.63.1415373.9956218.5847674 1.923962 1.27 2.66.9740762.947671 2.2810023 1.4754681 3.64 1.47h.34c2.2554941-.147658 4.4602771-.7353737 6.49-1.73 1.0113544-.3832272 2.0892142-.5600371 3.17-.52 1.09415-.0454395 2.1861523.1314581 3.21.52 2.113593 1.0555487 4.4290012 1.6454834 6.79 1.73 1.3437573-.0022719 2.6342559-.5256408 3.6-1.46.6852326-.736038 1.1284627-1.6643782 1.27-2.66.2479719-2.3037596-.2460093-4.626522-1.41-6.63-2.6118883-5.0311531-7.7914453-8.2058444-13.46-8.25zm-9.88 17 2.17-2.62c.1824003-.245239.4746817-.3838853.78-.37.3023276.0146053.5817713.1653578.76.41l1.06 1.48c-1.4986318.6872878-3.1217324 1.0615877-4.77 1.1zm15-1.1 1.06-1.47c.1761626-.248423.4559288-.4030307.76-.42.304609-.0104144.5953603.127506.78.37l2.16 2.62c-1.6489678-.0415546-3.2720995-.4192645-4.77-1.11zm7.82-1.33c-.0773924.5836182-.3282192 1.1305599-.72 1.57-.0854794.0787131-.1756442.1521807-.27.22l-2.69-3.26c-.5749369-.7277456-1.4632711-1.1366023-2.39-1.1-.9247414.0365171-1.7808678.4977921-2.32 1.25l-1.37 1.9c-1.035531-.2841481-2.1063569-.4188431-3.18-.4-1.0736431-.0188431-2.144469.1158519-3.18.4l-1.37-1.91c-.5412216-.7484267-1.3970178-1.205835-2.32-1.24-.9211975-.0341439-1.8040928.3702073-2.38 1.09l-2.69 3.26c-.0943558-.0678193-.1845206-.1412869-.27-.22-.3917808-.4394401-.6426076-.9863818-.72-1.57-.1704877-1.8853764.2525688-3.7768938 1.21-5.41 2.2588253-4.390704 6.7823312-7.1505722 11.72-7.1505722s9.4611747 2.7598682 11.72 7.1505722c.9625139 1.6311005 1.3859407 3.5242729 1.21 5.41z"/><path id="Shape" d="m18 27c3.27 1.3 7.63 2 13 2s9.7-.66 13-2c.2315087-.0916546.4204972-.2663798.53-.49.9792598-2.0297759 1.4820418-4.2563818 1.47-6.51 0-8.2842712-6.7157288-15-15-15s-15 6.7157288-15 15c-.0088124 2.2694624.5044143 4.5105524 1.5 6.55.1097012.2032381.2863692.3622393.5.45zm13-20c4.4098972-.00284924 8.5205514 2.23011018 10.9184954 5.931065 2.3979439 3.7009548 2.7561715 8.365208.9515046 12.388935-2.16.8-5.87 1.68-11.87 1.68s-9.71-.88-11.87-1.68c-1.8046669-4.023727-1.4464393-8.6879802.9515046-12.388935 2.397944-3.70095482 6.5085982-5.93391424 10.9184954-5.931065z"/></g></g></g></svg>