<svg height="512" viewBox="0 0 60 60" width="512" xmlns="http://www.w3.org/2000/svg"><g id="Page-1" fill="none" fill-rule="evenodd"><g id="002---Scared" fill-rule="nonzero"><path id="Shape" d="m59 34c0 13.81-13 25-29 25s-29-11.19-29-25c.20482431-5.6886841 1.83464825-11.2348993 4.74-16.13 1.78404451-3.1766985 3.99083754-6.0966625 6.56-8.68 4.9-4.87 11.04-8.19 17.7-8.19s12.8 3.32 17.7 8.19c2.5691625 2.5833375 4.7759555 5.5033015 6.56 8.68 2.9053517 4.8951007 4.5351757 10.4413159 4.74 16.13z" fill="#ff5722"/><path id="Shape" d="m54.26 17.87c-1.7840445-3.1766985-3.9908375-6.0966625-6.56-8.68-4.9-4.87-11.04-8.19-17.7-8.19-.5 0-1 0-1.5.06 6.08.46 11.67 3.63 16.2 8.13 2.5691625 2.5833375 4.7759555 5.5033015 6.56 8.68 2.9053517 4.8951007 4.5351757 10.4413159 4.74 16.13 0 13.38-12.18 24.29-27.5 25h1.5c16 0 29-11.19 29-25-.2048243-5.6886841-1.8346483-11.2348993-4.74-16.13z" fill="#d84315"/><path id="Shape" d="m40 20c.0058856 2.7290258-1.1116346 5.3401896-3.09 7.22-2.2658266.5239734-4.5843849.785692-6.91.78-2.3256151.005692-4.6441734-.2560266-6.91-.78-3.6197733-3.4889875-4.0864215-9.1230146-1.09-13.16 5.2666998-1.4143398 10.8133002-1.4143398 16.08 0 1.2574538 1.7243908 1.9302477 3.8058471 1.92 5.94z" fill="#f5f5f5"/><path id="Shape" d="m38 14.06c-2.6077819-.7069294-5.2980999-1.0633965-8-1.06-.51 0-1 0-1.5-.000024 2.2103118.0900739 4.4037721.4254654 6.54 1.000024 2.9861417 4.0467138 2.5022962 9.6815868-1.13 13.16-1.773704.4455778-3.5846935.7267665-5.41.84.49 0 1 .05 1.5.05 2.3256151.005692 4.6441734-.2560266 6.91-.78 3.6485399-3.4955849 4.1162311-9.1636581 1.09-13.21z" fill="#cfd8dc"/><circle id="Oval" cx="30" cy="20" fill="#37474f" r="3"/><path id="Shape" d="m34.25 37h4.75c2.7614237 0 5 2.2385763 5 5s-2.2385763 5-5 5h-18c-2.7614237 0-5-2.2385763-5-5s2.2385763-5 5-5z" fill="#f5f5f5"/><path id="Shape" d="m39 37h-3c2.7614237 0 5 2.2385763 5 5s-2.2385763 5-5 5h3c2.7614237 0 5-2.2385763 5-5s-2.2385763-5-5-5z" fill="#cfd8dc"/><path id="Shape" d="m12.3 9.19c-2.56916246 2.5833375-4.77595549 5.5033015-6.56 8.68-2.71733022-.5840371-4.67784617-2.9578472-4.73781275-5.7365856-.05996657-2.77873833 1.79631577-5.2349168 4.48592025-5.93563833 2.68960449-.70072154 5.5083786.53746643 6.8118925 2.99222393z" fill="#d84315"/><path id="Shape" d="m59 12c.001788 2.8295647-1.97353 5.2757918-4.74 5.87-1.7840445-3.1766985-3.9908375-6.0966625-6.56-8.68 1.2914306-2.43365439 4.0742852-3.67506207 6.7479386-3.01019783 2.6736533.66486425 4.5509266 3.06511788 4.5520614 5.82019783z" fill="#d84315"/><g fill="#000"><path id="Shape" d="m24.9 10.42h.17c2.9438581-.48163988 5.9424495-.52880873 8.9-.14.5522847.071797 1.058203-.31771526 1.13-.87s-.3177153-1.05820297-.87-1.13c-3.1535797-.41553172-6.3511282-.36499092-9.49.15-.5522847.04418279-.9641828.52771526-.92 1.08.0441828.5522847.5277153.9641828 1.08.92z"/><path id="Shape" d="m16.14 24.49c-.2815765.4749776-.1248931 1.088281.35 1.37 4.1675226 2.1663948 8.8142367 3.2463861 13.51 3.14 4.6957633.1063861 9.3424774-.9736052 13.51-3.14.4147221-.3016091.5340875-.8680449.2763444-1.311363-.2577431-.4433182-.8090528-.6198266-1.2763444-.408637-.9338463.5017702-1.9070749.9265126-2.91 1.27.9245872-1.652753 1.4068149-3.5162187 1.4-5.41.0039678-1.437892-.2781754-2.8622053-.83-4.19.7961403.2777115 1.5714435.6118939 2.32 1 .1491649.1092656.3257035.1750349.51.19.4503352-.0001324.8450264-.3012616.96411-.7355666s-.0668217-.8946301-.45411-1.1244334c-4.1675226-2.1663948-8.8142367-3.2463861-13.51-3.14-4.6957633-.1063861-9.3424774.9736052-13.51 3.14-.3478371.1572029-.5758412.4987108-.5876816.8802382-.0118403.3815275.1945486.7365164.5319684.9149856.3374198.1784693.7470071.1492845 1.0557132-.0752238.7485565-.3881061 1.5238597-.7222885 2.32-1-.5385062 1.313641-.8137166 2.7202719-.81 4.14-.0007088 1.8955608.4884374 3.7591388 1.42 5.41-1.0029251-.3434874-1.9761537-.7682298-2.91-1.27-.4749776-.2815765-1.088281-.1248931-1.37.35zm4.86-4.49c.0037959-1.8059861.5508363-3.5690588 1.57-5.06 4.8740275-1.2535202 9.9859725-1.2535202 14.86 0 2.4401215 3.5384322 2.0202988 8.3118158-1 11.37-2.1117522.4638299-4.2679157.6952067-6.43.69-2.1520565.003023-4.298042-.228341-6.4-.69-1.6697742-1.6749051-2.6051365-3.9449574-2.6-6.31z"/><path id="Shape" d="m34 20c0-2.209139-1.790861-4-4-4s-4 1.790861-4 4 1.790861 4 4 4 4-1.790861 4-4zm-6 0c0-1.1045695.8954305-2 2-2s2 .8954305 2 2-.8954305 2-2 2-2-.8954305-2-2z"/><path id="Shape" d="m39 36h-2.55c.5998897-1.358012.7025573-2.8838651.29-4.31-.1684469-.5274319-.7325681-.8184468-1.26-.6499999-.5274319.1684468-.8184468.732568-.65 1.2599999.3157279 1.0694187.1707383 2.2220865-.4 3.18-.74 1.01-2.23 1.52-4.43 1.52s-3.69-.51-4.43-1.52c-.5762408-.9523388-.7216073-2.104368-.4-3.17.1107523-.3411886.0310697-.7155456-.2090321-.9820543-.2401019-.2665086-.6041458-.3846799-.955-.31-.3508542.07468-.6352156.3308657-.7459679.6720543-.4125573 1.4261349-.3098897 2.951988.29 4.31h-2.55c-3.3137085 0-6 2.6862915-6 6s2.6862915 6 6 6h18c3.3137085 0 6-2.6862915 6-6s-2.6862915-6-6-6zm3.86 5h-2.86v-2.86c1.4005993.3656133 2.4943867 1.4594007 2.86 2.86zm-8.33-3h3.47v3h-4v-2.74c.1814476-.0765605.3583993-.163367.53-.26zm3.47 8h-4v-3h4zm-6-7.15v2.15h-4v-2.15c1.3258352.1999749 2.6741648.1999749 4 0zm-6-.59v2.74h-4v-3h3.47c.1716007.096633.3485524.1834395.53.26zm-4 4.74h4v3h-4zm-2-4.86v2.86h-2.86c.3375695-1.4164711 1.4435289-2.5224305 2.86-2.86zm-2.86 4.86h2.86v2.86c-1.4005993-.3656133-2.4943867-1.4594007-2.86-2.86zm10.86 3v-3h4v3zm12-.14v-2.86h2.86c-.3375695 1.4164711-1.4435289 2.5224305-2.86 2.86z"/><path id="Shape" d="m33 51h-6c-.5522847 0-1 .4477153-1 1s.4477153 1 1 1h6c.5522847 0 1-.4477153 1-1s-.4477153-1-1-1z"/><path id="Shape" d="m18 32.68c-.0843151-.2523526-.26572-.4607006-.5040704-.5789374-.2383505-.1182369-.5139931-.1366133-.7659296-.0510626-4.1063304 1.5791904-6.79274023 5.5509256-6.73 9.95 0 .5522847.4477153 1 1 1s1-.4477153 1-1c-.094997-3.522835 2.0345504-6.725162 5.32-8 .2736383-.0723289.5038097-.2572283.6334279-.5088401s.1465413-.5463665.0465721-.8111599z"/><path id="Shape" d="m42.05 32.68c-.1015601.2580489-.0914031.5466842.0280448.7969559.1194478.2502717.3374593.4397037.6019552.5230441 3.2854496 1.274838 5.414997 4.477165 5.32 8 0 .5522847.4477153 1 1 1s1-.4477153 1-1c.0917375-4.4046431-2.5759295-8.3981566-6.68-10-.2585747-.0835811-.5400296-.0583299-.7795976.0699427s-.4166159.3485191-.4904024.6100573z"/><path id="Shape" d="m60 12c-.0104651-2.98428005-1.9117852-5.63376942-4.7356389-6.59911239s-5.9492107-.03423841-7.7843611 2.31911239c-5.01-4.65-11.1-7.72-17.48-7.72s-12.47 3.07-17.48 7.72c-1.8351504-2.3533508-4.96050738-3.28445536-7.78436111-2.31911239-2.82385372.96534297-4.72517381 3.61483234-4.73563889 6.59911239.00335563 2.8198426 1.698359 5.3623477 4.3 6.45-2.6675231 4.7602449-4.1428833 10.0955591-4.3 15.55 0 14.34 13.46 26 30 26s30-11.66 30-26c-.1571167-5.4544409-1.6324769-10.7897551-4.3-15.55 2.601641-1.0876523 4.2966444-3.6301574 4.3-6.45zm-58 0c.00445703-2.17528268 1.41481865-4.09809129 3.4883049-4.75576094s4.33427262.10072198 5.5916951 1.87576094c-2.21436516 2.2925563-4.15717912 4.832643-5.79 7.57-1.97235476-.7178271-3.28643083-2.5910845-3.29-4.69zm28 46c-15.44 0-28-10.77-28-24 0-12.59 12-32 28-32s28 19.41 28 32c0 13.23-12.56 24-28 24zm24.71-41.31c-1.6328209-2.737357-3.5756348-5.2774437-5.79-7.57 1.236665-1.76870373 3.4686096-2.54433384 5.5356026-1.92369472s3.5025058 2.49746674 3.5603161 4.65485202c.0578103 2.1573852-1.2751299 4.1083975-3.3059187 4.8388427z"/><path id="Shape" d="m6.25 9c-.55228475 0-1 .44771525-1 1 .08832024.803849-.20389455 1.602816-.79 2.16-.37201306.2402935-.54166334.6966564-.41695017 1.1216049.12471316.4249486.51408072.7172519.95695017.7183951.17948334-.0000528.35564432-.0484107.51-.14 1.21558047-.89347 1.8755241-2.3574829 1.74-3.86 0-.55228475-.44771525-1-1-1z"/><path id="Shape" d="m54.75 10c0-.55228475-.4477153-1-1-1s-1 .44771525-1 1c-.1355241 1.5025171.5244195 2.96653 1.74 3.86.46316.2652187 1.0529679.1199675 1.34-.33.2925741-.459436.1636434-1.0685225-.29-1.37-.5928966-.5527044-.8863991-1.355192-.79-2.16z"/></g></g></g></svg>