<svg height="512" viewBox="0 0 61 60" width="512" xmlns="http://www.w3.org/2000/svg"><g id="Page-1" fill="none" fill-rule="evenodd"><g id="020---Cheerful" fill-rule="nonzero" transform="translate(-1)"><path id="Shape" d="m58.21 40.05c1.4610908 2.3952909 2.0608215 5.2175528 1.7 8 0 0-3-6-8-5 1.9186174 3.6879442 2.6188183 7.8891498 2 12 0 0-4-6-8-6 1.2022265 2.8795543 1.2022265 6.1204457 0 9 0 0-.61-1.06-1.47-2.3-8.4190339 4.4032064-18.4609661 4.4032064-26.88 0-.86 1.24-1.47 2.3-1.47 2.3-1.2022265-2.8795543-1.2022265-6.1204457 0-9-4 0-8 6-8 6-.61881833-4.1108502.08138261-8.3120558 2-12-5-1-8 5-8 5-.36082148-2.7824472.23890917-5.6047091 1.7-8-4.44196243-12.0495302-.43001193-25.5855524 9.8604788-33.26852117 10.2904907-7.68296875 24.4085517-7.68296875 34.6990424 0 10.2904907 7.68296877 14.3024412 21.21899097 9.8604788 33.26852117z" fill="#ffdc00"/><path id="Shape" d="m59.93 28c-1.0709506-15.798396-14.6164409-27.81706972-30.43-27 9.0970411.45201159 17.453199 5.15168922 22.5643769 12.6906767 5.1111779 7.5389874 6.3834758 17.041282 3.4356231 25.6593233-.1445779.419841-.1046116.8812699.11 1.27.5973221 1.1320587 1.0156182 2.3498399 1.24 3.61 1.2630764 1.0381705 2.3038212 2.3203954 3.06 3.77.3608215-2.7824472-.2389092-5.6047091-1.7-8 1.4155531-3.8333418 2.0017908-7.9233723 1.72-12z" fill="#fec108"/><path id="Shape" d="m49.9 45.21c.7457445 2.0883598 1.1509138 4.2830264 1.2 6.5 1.0415087 1.0026006 1.9826399 2.1044944 2.81 3.29.5840552-3.9995863-.0574608-8.0822782-1.84-11.71l-.21-.08c-.5657757-.1950216-1.1932772-.0469192-1.6121455.3804974s-.554265 1.0577818-.3478545 1.6195026z" fill="#fec108"/><path id="Shape" d="m46 50.06c-.5084383-.3302505-1.1627507-.3337453-1.6746878-.0089449-.511937.3248004-.7875075.918263-.7053122 1.5189449.244713 1.5259059.1903712 3.0848377-.16 4.59l.95-.46c.86 1.24 1.47 2.3 1.47 2.3 1.0010773-2.452057 1.1628137-5.1664158.46-7.72z" fill="#fec108"/><path id="Shape" d="m42 31c-.0787877 2.3028525-1.2387432 4.4337612-3.13 5.75l-.82-1.65c-.3557289-.7106718-1.0984818-1.1432933-1.8921441-1.1020922-.7936624.041201-1.4876265.5484061-1.7678559 1.2920922l-1 2.71h-4.76l-1-2.71c-.288582-.7262198-.9737019-1.2178447-1.7540905-1.2586915s-1.5130891.3765671-1.8759095 1.0686915l-.82 1.65c-1.9102299-1.3054151-3.0896914-3.4380892-3.18-5.75z" fill="#37474f"/><path id="Shape" d="m28.63 38h-.63c-1.7103526.0658126-3.402775-.3685874-4.87-1.25l.87-1.65c.3557289-.7106718 1.0984818-1.1432933 1.8921441-1.1020922.7936624.041201 1.4876265.5484061 1.7678559 1.2920922z" fill="#f5f5f5"/><path id="Shape" d="m38.87 36.75c-1.467225.8814126-3.1596474 1.3158126-4.87 1.25h-.62l1-2.71c.2802294-.7436861.9741935-1.2508912 1.7678559-1.2920922.7936623-.0412011 1.5364152.3914204 1.8921441 1.1020922z" fill="#f5f5f5"/><path id="Shape" d="m10.14 21.18c-.68-3.57 5.1-8.26 9.17-9s7.91 1.5 8.59 5.07-2.08 7.09-6.15 7.86-10.94-.36-11.61-3.93z" fill="#f5f5f5"/><path id="Shape" d="m27.9 17.22c-.67-3.55-4.48-5.81-8.52-5.08 2.7157528.3840883 4.9121621 2.4054215 5.52 5.08.67 3.57-2.08 7.09-6.15 7.86-.39.07-.81.12-1.25.16 1.4175874.1320483 2.8463536.0782594 4.25-.16 4.07-.77 6.82-4.29 6.15-7.86z" fill="#cfd8dc"/><circle id="Oval" cx="22" cy="19" fill="#37474f" r="2"/><path id="Shape" d="m51.86 21.18c.68-3.57-5.1-8.26-9.17-9s-7.91 1.5-8.59 5.07 2.08 7.09 6.15 7.86 10.94-.36 11.61-3.93z" fill="#f5f5f5"/><path id="Shape" d="m42.69 12.15c-1.0145169-.18997-2.0554831-.18997-3.07 0h.07c4.07.77 9.85 5.46 9.17 9-.47 2.48-3.93 3.77-7.36 4.06 4.09.37 9.75-.83 10.36-4.06.68-3.54-5.1-8.23-9.17-9z" fill="#cfd8dc"/><circle id="Oval" cx="40" cy="19" fill="#37474f" r="2"/><g fill="#000"><path id="Shape" d="m19.14 26.3c.9386465.004239 1.8757667-.0760856 2.8-.24 2.149539-.3831539 4.0864923-1.5346637 5.45-3.24 1.3405432-1.6055425 1.8928899-3.7264255 1.5057947-5.7819011s-1.6730702-3.8301586-3.5057947-4.8380989c-1.8963266-1.0815205-4.1211115-1.4369174-6.26-1-4.44.8-10.8 5.8-9.98 10.17.68 3.63 5.85 4.93 9.99 4.93zm.35-13.17c1.6687651-.3306603 3.4007914-.0502708 4.88.79 1.3372879.7127492 2.2791782 1.9935195 2.5610252 3.4824495.2818471 1.48893-.1267642 3.0253437-1.1110252 4.1775505-1.0657361 1.3307479-2.5804999 2.2268054-4.26 2.52-3.75.71-9.93-.4-10.44-3.1s4.61-7.16 8.37-7.87z"/><path id="Shape" d="m22 22c1.6568542 0 3-1.3431458 3-3s-1.3431458-3-3-3-3 1.3431458-3 3 1.3431458 3 3 3zm0-4c.5522847 0 1 .4477153 1 1s-.4477153 1-1 1-1-.4477153-1-1 .4477153-1 1-1z"/><path id="Shape" d="m40.06 26.06c.9242333.1639144 1.8613535.244239 2.8.24 4.11 0 9.31-1.33 10-4.93.82-4.36-5.54-9.37-10-10.2-2.1388885-.4369174-4.3636734-.0815205-6.26 1-1.8327245 1.0079403-3.1186995 2.7826233-3.5057947 4.8380989s.1652515 4.1763586 1.5057947 5.7819011c1.3610016 1.7186013 3.3024845 2.8813576 5.46 3.27zm-5-8.65c.3045771-1.4776795 1.2347682-2.7507645 2.55-3.49 1.0592254-.6154346 2.2650342-.9332982 3.49-.92.4730347-.0009332.9451103.0425915 1.41.13 3.76.71 8.9 5 8.37 7.87s-6.69 3.8-10.44 3.1c-1.6795001-.2931946-3.1942639-1.1892521-4.26-2.52-.9578064-1.1627827-1.3596329-2.6860703-1.1-4.17z"/><path id="Shape" d="m40 22c1.6568542 0 3-1.3431458 3-3s-1.3431458-3-3-3-3 1.3431458-3 3 1.3431458 3 3 3zm0-4c.5522847 0 1 .4477153 1 1s-.4477153 1-1 1-1-.4477153-1-1 .4477153-1 1-1z"/><path id="Shape" d="m36.4 41.2s-1.22.8-5.4.8-5.35-.77-5.36-.77c-.2750945-.22865-.6512756-.2931701-.9868396-.1692563-.3355639.1239139-.5795305.4174362-.64.77-.0604694.3525639.0717451.7106063.3468396.9392563.25.23 1.73 1.23 6.64 1.23s6.39-1 6.64-1.23c.3976684-.3456577.4589101-.9405769.14-1.36-.3269805-.4325776-.9391461-.5257332-1.38-.21z"/><path id="Shape" d="m1.09 48.11c.03178195.4575662.37077122.8348471.82234103.9152312.45156982.0803842.89992968-.1567403 1.08765897-.5752312 0-.05 2.15-4.18 5.55-4.54-1.49354772 3.5423688-1.99479512 7.4244435-1.45 11.23.05732024.4103703.36178275.7428834.7655258.8360549.40374306.0931714.82312521-.0723006 1.0544742-.4160549.85-1.28 3.25-4.24 5.66-5.23-.6547305 2.6611411-.4517315 5.4611274.58 8 .1260447.3675678.4536076.6288382.84.67h.07c.3586848.001424.690659-.1893658.87-.5.29-.52.61-1 .93-1.53 8.2732486 4.0395084 17.9467514 4.0395084 26.22 0 .32.5.64 1 .93 1.53.179341.3106342.5113152.501424.87.5h.11c.3840368-.0269507.7185014-.2719654.86-.63 1.0317315-2.5388726 1.2347305-5.3388589.58-8 2.41 1 4.81 4 5.66 5.23.231349.3437543.6507311.5092263 1.0544742.4160549.4037431-.0931715.7082056-.4256846.7655258-.8360549.5510965-3.8037435.0567711-7.6857535-1.43-11.23 3.4.36 5.53 4.49 5.55 4.54.1978796.3982133.6349369.6179264 1.0725804.5391968.4376434-.0787295.7707273-.4369865.8174196-.8791968.344688-2.8223683-.2304709-5.6806275-1.64-8.15 3.9727595-11.2572096.893179-23.7985945-7.8418396-31.93536517-8.7350186-8.13677062-21.4630267-10.32033695-32.4105822-5.56023025-10.94755539 4.76010669-18.03111969 15.55794302-18.0375782 27.49559542-.00615813 3.4066033.57223304 6.7890078 1.71 10-1.39411396 2.4602601-1.9619519 5.3029549-1.62 8.11zm1.91-18.11c-.02037104-10.975037 6.37307189-20.9500555 16.3537156-25.51498739 9.9806437-4.5649319 21.7080185-2.87798591 29.9973198 4.31502011 8.2893013 7.19300608 11.6119496 18.56565368 8.4989646 29.08996728-1.2479545-1.5288692-2.7707913-2.810901-4.49-3.78-.4835272-.2013504-1.0404963.0045141-1.2768341.4719378s-.0719586 1.0380149.3768341 1.3080622c.26.13 5.58 2.9 6.43 8.93-1.55-1.7-4-3.44-7.17-2.8-.3170679.0647372-.5832078.2789053-.7142693.5747867-.1310616.2958814-.1108406.636894.0542693.9152133 1.4125234 2.7325763 2.1205937 5.7745286 2.06 8.85-1.66-1.89-4.37-4.36-7.21-4.36-.3472767-.0041807-.6718537.1721223-.8573871.4657137-.1855335.2935914-.2054509.6624224-.0526129.9742863.8076512 1.9379478 1.0098485 4.0749642.58 6.13-1.75-2.66-4.16-5.45-6.13-4.46-.4940809.2459531-.6954836.8456857-.45 1.34.2455629.4826806.8307374.6821719 1.32.45.46 0 1.49 1 2.6 2.42-7.555617 3.5726842-16.314383 3.5726842-23.87 0 1.1-1.46 2.13-2.46 2.58-2.43.2391141.1282371.5200731.1538047.7784072.0708361s.4718642-.2673503.5915928-.5108361c.2454836-.4943143.0440809-1.0940469-.45-1.34-2-1-4.38 1.8-6.13 4.46-.4315798-2.051625-.2293048-4.1859752.58-6.12.1786328-.3094011.1786328-.6905989 0-1-.1831155-.2929855-.5044985-.4706914-.85-.47-2.84 0-5.55 2.47-7.2 4.36-.05905708-3.0741371.64530595-6.1149239 2.05-8.85.1659276-.2868877.1789407-.6373466.034746-.9357497-.1441948-.2984031-.4268638-.5059821-.754746-.5542503-3.19-.64-5.62 1.1-7.17 2.8.85-6 6.17-8.8 6.43-8.93.34603864-.1440974.5824323-.4696151.6123817-.8432591s-.1515756-.73266-.47024336-.9300368c-.3186678-.1973769-.72095757-.1999648-1.04213834-.0067041-1.71920874.969099-3.24204545 2.2511308-4.49 3.78-.75734245-2.5549225-1.14461277-5.2051984-1.15-7.87z"/><path id="Shape" d="m19 31c0 .08.1 8 9 8h6c8.9 0 9-7.92 9-8 0-.5522847-.4477153-1-1-1h-22c-.5522847 0-1 .4477153-1 1zm5.45 5.33.39-.78c.1787459-.3562883.5520176-.572393.95-.55.3938848.0211045.7385631.2717796.88.64l.5 1.33c-.9370133-.0533438-1.8575102-.2699313-2.72-.64zm10.38.67.5-1.33c.1414369-.3682204.4861152-.6188955.88-.64.3979824-.022393.7712541.1937117.95.55l.39.78c-.8624898.3700687-1.7829867.5866562-2.72.64zm6.06-5c-.2111225 1.2199236-.7944533 2.3446691-1.67 3.22l-.28-.56c-.5326868-1.066331-1.6461371-1.7161431-2.8365701-1.6554289-1.190433.0607143-2.2319946.820436-2.6534299 1.9354289l-.77 2.06h-3.36l-.77-2.06c-.4214353-1.1149929-1.4629969-1.8747146-2.6534299-1.9354289-1.190433-.0607142-2.3038833.5890979-2.8365701 1.6554289l-.28.56c-.8755467-.8753309-1.4588775-2.0000764-1.67-3.22z"/></g></g></g></svg>