<svg height="512" viewBox="0 0 60 62" width="512" xmlns="http://www.w3.org/2000/svg"><g id="Page-1" fill="none" fill-rule="evenodd"><g id="021---Not-Amused" fill-rule="nonzero" transform="translate(-1)"><path id="Shape" d="m58.7 39.63c1.6036066 2.4589775 1.7315976 5.5987397.3334575 8.1800821-1.3981402 2.5813423-4.0977933 4.1895592-7.0334575 4.1899179-.3343012.0024294-.6683876-.0176158-1-.06-11.2131836 10.7303104-28.8868164 10.7303104-40.1 0-.2985152.038135-.5990644.0581716-.9.06-2.93566421-.0003587-5.63531728-1.6085756-7.03345746-4.1899179-1.39814018-2.5813424-1.27014915-5.7211046.33345746-8.1800821-.8615841-2.7956706-1.2997739-5.7045767-1.3-8.63.00000024-16.0162576 12.9837424-28.99999957 29-28.99999957s28.9999998 12.98374197 29 28.99999957c-.0002261 2.9254233-.4384159 5.8343294-1.3 8.63z" fill="#60a917"/><path id="Shape" d="m60 31c0-16.0162577-12.9837423-29-29-29-.5 0-1 0-1.5 0 15.4276355.79903687 27.5206782 13.5517001 27.5 29-.0002261 2.9254233-.4384159 5.8343294-1.3 8.63 1.6036066 2.4589775 1.7315976 5.5987397.3334575 8.1800821-1.3981402 2.5813423-4.0977933 4.1895592-7.0334575 4.1899179-.3343012.0024294-.6683876-.0176158-1-.06-4.9938308 4.828347-11.563515 7.6905986-18.5 8.06h1.5c7.4578471-.0006359 14.625697-2.8892794 20-8.06.3316124.0423842.6656988.0624294 1 .06 2.9356642-.0003587 5.6353173-1.6085756 7.0334575-4.1899179 1.3981401-2.5813424 1.2701491-5.7211046-.3334575-8.1800821.8615841-2.7956706 1.2997739-5.7045767 1.3-8.63z" fill="#549414"/><path id="Shape" d="m22.86 28.48c-.7159313 3.7764028-4.016333 6.5098993-7.86 6.5098993s-7.14406865-2.7334965-7.86-6.5098993c.69-2.55 3.95-4.48 7.86-4.48s7.17 1.93 7.86 4.48z" fill="#f5f5f5"/><path id="Shape" d="m23 27c-.0006291.4966093-.0474981.9920813-.14 1.48-.69-2.55-3.95-4.48-7.86-4.48s-7.17 1.93-7.86 4.48c-.56596308-2.9854179.60824818-6.0337483 3.0307455-7.8680168 2.4224974-1.8342684 5.6750301-2.1377834 8.3950814-.7833997 2.7200513 1.3543836 4.4379969 4.1328281 4.4341731 7.1714165z" fill="#549414"/><path id="Shape" d="m55 27c-.0006291.4966093-.0474981.9920813-.14 1.48-.69-2.55-3.95-4.48-7.86-4.48s-7.17 1.93-7.86 4.48c-.5659631-2.9854179.6082482-6.0337483 3.0307455-7.8680168 2.4224974-1.8342684 5.6750301-2.1377834 8.3950814-.7833997 2.7200513 1.3543836 4.4379969 4.1328281 4.4341731 7.1714165z" fill="#549414"/><path id="Shape" d="m54.86 28.48c-.7159313 3.7764028-4.016333 6.5098993-7.86 6.5098993s-7.1440687-2.7334965-7.86-6.5098993c.69-2.55 4-4.48 7.86-4.48s7.17 1.93 7.86 4.48z" fill="#f5f5f5"/><path id="Shape" d="m38.86 16.48c-.7159313 3.7764028-4.016333 6.5098993-7.86 6.5098993s-7.1440687-2.7334965-7.86-6.5098993c.69-2.55 3.95-4.48 7.86-4.48s7.17 1.93 7.86 4.48z" fill="#f5f5f5"/><path id="Shape" d="m39 15c-.0006291.4966093-.0474981.9920813-.14 1.48-.69-2.55-3.95-4.48-7.86-4.48s-7.17 1.93-7.86 4.48c-.5659631-2.9854179.6082482-6.0337483 3.0307455-7.86801677 2.4224974-1.83426844 5.6750301-2.13778348 8.3950814-.78339978s4.4379969 4.13282815 4.4341731 7.17141655z" fill="#549414"/><circle id="Oval" cx="15" cy="29" fill="#37474f" r="2"/><circle id="Oval" cx="47" cy="29" fill="#37474f" r="2"/><circle id="Oval" cx="31" cy="17" fill="#37474f" r="2"/><g fill="#000"><path id="Shape" d="m61 31c.0086801-11.7540442-6.8476758-22.43036476-17.5399674-27.31222201-10.6922915-4.88185725-23.2505526-3.06980937-32.1266124 4.63559083-8.87605974 7.70540018-12.43457771 19.88449658-9.1034202 31.15663118-1.6157838 2.7820891-1.62360406 6.2150924-.02051195 9.0045139s4.57325281 4.5109668 7.79051195 4.5154861h.6c11.4931992 10.7056043 29.3068008 10.7056043 40.8 0h.6c3.2172591-.0045193 6.1874198-1.7260646 7.7905119-4.5154861 1.6030922-2.7894215 1.5952719-6.2224248-.0205119-9.0045139.8123025-2.7535455 1.2264984-5.6091402 1.23-8.48zm-4.52 7.62c2.8663579 2.6040226 3.0790226 7.0386421.475 9.905s-7.0386421 3.0790226-9.905.475c-.3967603-.3397768-.9881942-.3169323-1.3575632.0524368-.3693691.369369-.3922136.9608029-.0524368 1.3575632.951708.9271578 2.1001724 1.6278578 3.36 2.05-10.385572 8.7202743-25.534428 8.7202743-35.92 0 1.2501647-.4421318 2.3848457-1.1598517 3.32-2.1.2451177-.3989344.1806106-.9145375-.155235-1.2407875s-.8531016-.3757882-1.244765-.1192125c-1.8542084 1.6934389-4.4710065 2.2690326-6.86467185 1.5099604-2.39366531-.7590721-4.2005431-2.7374889-4.74-5.19-.53945689-2.452511.27046344-5.0065215 2.12467185-6.6999604.30375525-.2189996.45969946-.5893556.40408546-.9596733-.05561399-.3703177-.31346506-.6785303-.66814838-.7986461-.35468333-.1201159-.74675262-.0320031-1.01593708.2283194-.16603465.1327454-.32304844.2763963-.47.43-2.69899555-11.2698186 1.82330792-23.0377386 11.3749166-29.59976256 9.5516088-6.56202399 22.158558-6.56202399 31.7101668 0 9.5516087 6.56202396 14.0739121 18.32994396 11.3749166 29.59976256-.1469516-.1536037-.3039654-.2972546-.47-.43-.2691845-.2603225-.6612537-.3484353-1.0159371-.2283194-.3546833.1201158-.6125344.4283284-.6681484.7986461s.1003302.7406737.4040855.9596733z"/><path id="Shape" d="m45.84 38c-1.699989.2733818-3.3593868.7570928-4.94 1.44-2 .8-3.82 1.55-9.9 1.55s-7.94-.75-9.9-1.55c-1.5806132-.6829072-3.240011-1.1666182-4.94-1.44-5.42-.9-8.32 3.32-9.11 5.67-.11432499.3394023-.03889666.7140146.19787187.9827241s.59890648.3906928.95.32.63780314-.3233218.75212813-.6627241c.05-.2 1.82-5.17 6.89-4.31 1.5534511.2459699 3.0690747.689567 4.51 1.32 2.15.86 4.18 1.68 10.65 1.68s8.5-.82 10.65-1.69c1.4413924-.627 2.9570013-1.0672323 4.51-1.31 5.07-.85 6.82 4.12 6.89 4.33.141.4033622.5227115.6725692.95.67.1062261.0137097.2137739.0137097.32 0 .2736383-.0723289.5038097-.2572283.6334279-.5088401s.1465413-.5463665.0465721-.8111599c-.84-2.35-3.75-6.57-9.16-5.68z"/><path id="Shape" d="m15.07 36c4.9705627 0 9-4.0294373 9-9s-4.0294373-9-9-9-9 4.0294373-9 9 4.0294373 9 9 9zm0-2c-3.259748-.0065013-6.08354691-2.2622232-6.81-5.44.74-2.04 3.56-3.56 6.81-3.56s6.13 1.52 6.82 3.55c-.7232899 3.1853915-3.553525 5.4470897-6.82 5.45zm0-14c3.1710392.0020903 5.9445904 2.1355912 6.76 5.2-1.9397543-1.4766029-4.3227299-2.2521275-6.76-2.2-2.4342157-.0522336-4.814064.7234207-6.75 2.2.81444839-3.0608216 3.5826808-5.1933858 6.75-5.2z"/><path id="Shape" d="m15 26c-1.6568542 0-3 1.3431458-3 3s1.3431458 3 3 3 3-1.3431458 3-3-1.3431458-3-3-3zm0 4c-.5522847 0-1-.4477153-1-1s.4477153-1 1-1 1 .4477153 1 1-.4477153 1-1 1z"/><path id="Shape" d="m47.07 18c-4.9705627 0-9 4.0294373-9 9s4.0294373 9 9 9 9-4.0294373 9-9-4.0294373-9-9-9zm0 2c3.1710392.0020903 5.9445904 2.1355912 6.76 5.2-1.9397543-1.4766029-4.3227299-2.2521275-6.76-2.2-2.4342157-.0522336-4.814064.7234207-6.75 2.2.8144484-3.0608216 3.5826808-5.1933858 6.75-5.2zm0 14c-3.259748-.0065013-6.0835469-2.2622232-6.81-5.44.69-2 3.56-3.56 6.81-3.56s6.13 1.52 6.82 3.55c-.7232899 3.1853915-3.553525 5.4470897-6.82 5.45z"/><path id="Shape" d="m47 26c-1.6568542 0-3 1.3431458-3 3s1.3431458 3 3 3 3-1.3431458 3-3-1.3431458-3-3-3zm0 4c-.5522847 0-1-.4477153-1-1s.4477153-1 1-1 1 .4477153 1 1-.4477153 1-1 1z"/><path id="Shape" d="m31 24c4.9705627 0 9-4.0294373 9-9s-4.0294373-9-9-9-9 4.0294373-9 9 4.0294373 9 9 9zm0-2c-3.2634906-.0018453-6.0927082-2.258582-6.82-5.44.7-2 3.56-3.56 6.82-3.56s6.12 1.52 6.82 3.55c-.7232899 3.1853915-3.553525 5.4470897-6.82 5.45zm0-14c3.1710392.00209027 5.9445904 2.1355912 6.76 5.2-1.9404962-1.4751865-4.3229637-2.2505458-6.76-2.2-2.4370363-.0505458-4.8195038.7248135-6.76 2.2.8154096-3.0644088 3.5889608-5.19790973 6.76-5.2z"/><path id="Shape" d="m31 14c-1.6568542 0-3 1.3431458-3 3s1.3431458 3 3 3 3-1.3431458 3-3-1.3431458-3-3-3zm0 4c-.5522847 0-1-.4477153-1-1s.4477153-1 1-1 1 .4477153 1 1-.4477153 1-1 1z"/><path id="Shape" d="m34 46h-6c-.5522847 0-1 .4477153-1 1s.4477153 1 1 1h6c.5522847 0 1-.4477153 1-1s-.4477153-1-1-1z"/></g></g></g></svg>