<svg height="512" viewBox="0 0 60 60" width="512" xmlns="http://www.w3.org/2000/svg"><g id="Page-1" fill="none" fill-rule="evenodd"><g id="026---Zombie" fill-rule="nonzero"><path id="Shape" d="m59 34c0-13.81-13-33-29-33s-29 19.19-29 33 13 25 29 25 29-11.19 29-25z" fill="#a4c400"/><path id="Shape" d="m30 1c-.5 0-1 .02-1.5.06 15.32 1.14 27.5 19.57 27.5 32.94s-12.18 24.29-27.5 25h1.5c16 0 29-11.19 29-25s-13-33-29-33z" fill="#90ac00"/><path id="Shape" d="m27 29c0 4.418278-3.581722 8-8 8s-8-3.581722-8-8c-.0032479-1.4057998.369642-2.7868738 1.08-4h11.92c.5817039.0035927 1.1564676-.1264134 1.68-.38.8607053 1.298634 1.3198116 2.8220321 1.32 4.38z" fill="#f5f5f5"/><path id="Shape" d="m25.68 24.62c-.5235324.2535866-1.0982961.3835927-1.68.38h-1.11c.7199565 1.2105452 1.1031874 2.5915574 1.11 4-.0038932 3.8368157-2.7312294 7.1305987-6.5 7.85.493673.1003847.9962245.1506399 1.5.15 2.9353906-.0052973 5.6321325-1.6177617 7.0260422-4.2010854 1.3939098-2.5833238 1.2610915-5.7225622-.3460422-8.1789146z" fill="#cfd8dc"/><path id="Shape" d="m49 29c.0028992 3.4195972-2.1680371 6.4629344-5.4023438 7.5733008s-6.8167532.0422169-8.9148664-2.6580746c-2.0981132-2.7002914-2.2479191-6.4355858-.3727898-9.2952262.5288156.2485858 1.1056732.3782934 1.69.38h11.91c.717978 1.2103972 1.0946518 2.5926862 1.09 4z" fill="#f5f5f5"/><path id="Shape" d="m47.91 25h-3c.717978 1.2103972 1.0946518 2.5926862 1.09 4-.0038932 3.8368157-2.7312294 7.1305987-6.5 7.85.493673.1003847.9962245.1506399 1.5.15 4.418278 0 8-3.581722 8-8 .0046518-1.4073138-.372022-2.7896028-1.09-4z" fill="#cfd8dc"/><path id="Shape" d="m36 25c-.5843268-.0017066-1.1611844-.1314142-1.69-.38-.08.12-.14.25-.21.38z" fill="#cfd8dc"/><path id="Shape" d="m17 42h2c1.1045695 0 2 .8954305 2 2v4h-6v-4c0-1.1045695.8954305-2 2-2z" fill="#ffeb3a"/><path id="Shape" d="m19 42h-2c-.1688907.0029443-.336794.0264508-.5.07.8807015.227391 1.4970464 1.0204215 1.5 1.93v4h3v-4c0-1.1045695-.8954305-2-2-2z" fill="#fdd834"/><path id="Shape" d="m41 42h2c1.1045695 0 2 .8954305 2 2v4h-6v-4c0-1.1045695.8954305-2 2-2z" fill="#ffeb3a"/><path id="Shape" d="m43 42h-2c-.1688907.0029443-.336794.0264508-.5.07.8807015.227391 1.4970464 1.0204215 1.5 1.93v4h3v-4c0-1.1045695-.8954305-2-2-2z" fill="#fdd834"/><g fill="#000"><path id="Shape" d="m53.13 14.25c-5.62-8.08-14.13-14.25-23.13-14.25s-17.51 6.17-23.13 14.25c-.13875901.1119791-.24280694.2611144-.3.43-4.07 6.01-6.57 13.02-6.57 19.32 0 14.34 13.46 26 30 26s30-11.66 30-26c0-6.3-2.5-13.31-6.57-19.32-.0571931-.1688856-.161241-.3180209-.3-.43zm-23.13-12.25c8.28 0 15.5 5.22 20.53 12h-3.53v-1c0-.5522847-.4477153-1-1-1s-1 .4477153-1 1v1h-2v-1c0-.5522847-.4477153-1-1-1s-1 .4477153-1 1v1h-2v-1c0-.5522847-.4477153-1-1-1s-1 .4477153-1 1v1h-2v-1c0-.5522847-.4477153-1-1-1s-1 .4477153-1 1v1h-2v-1c0-.5522847-.4477153-1-1-1s-1 .4477153-1 1v1h-2v-1c0-.5522847-.4477153-1-1-1s-1 .4477153-1 1v1h-2v-1c0-.5522847-.4477153-1-1-1s-1 .4477153-1 1v1h-2v-1c0-.5522847-.4477153-1-1-1s-1 .4477153-1 1v1h-2v-1c0-.5522847-.4477153-1-1-1s-1 .4477153-1 1v1h-3.53c5.03-6.78 12.25-12 20.53-12zm0 56c-15.44 0-28-10.77-28-24 0-5.43 2.24-12.13 6.07-18h4.93v1c0 .5522847.4477153 1 1 1s1-.4477153 1-1v-1h2v1c0 .5522847.4477153 1 1 1s1-.4477153 1-1v-1h2v1c0 .5522847.4477153 1 1 1s1-.4477153 1-1v-1h2v1c0 .5522847.4477153 1 1 1s1-.4477153 1-1v-1h2v1c0 .5522847.4477153 1 1 1s1-.4477153 1-1v-1h2v1c0 .5522847.4477153 1 1 1s1-.4477153 1-1v-1h2v1c0 .5522847.4477153 1 1 1s1-.4477153 1-1v-1h2v1c0 .5522847.4477153 1 1 1s1-.4477153 1-1v-1h2v1c0 .5522847.4477153 1 1 1s1-.4477153 1-1v-1h4.93c3.83 5.87 6.07 12.57 6.07 18 0 13.23-12.56 24-28 24z"/><path id="Shape" d="m19 38c3.1031598-.02143 5.9763767-1.6400137 7.6027736-4.2829086 1.6263968-2.6428948 1.7765154-5.9372314.3972264-8.7170914 1.2590292-.9442719 2-2.4262135 2-4v-1c0-.5522847-.4477153-1-1-1s-1 .4477153-1 1v1c0 1.6568542-1.3431458 3-3 3h-15c-.55228475 0-1 .4477153-1 1s.44771525 1 1 1h1.54c-.3541388.9607032-.5369116 1.9761077-.54 3 0 2.3869484.9482116 4.6761336 2.636039 6.363961s3.9770126 2.636039 6.363961 2.636039zm6.22-12.17c1.3337244 2.5836469.9314336 5.7227755-1.0106977 7.8866096s-5.0196916 2.9017967-7.731928 1.8540251c-2.7122365-1.0477716-4.4943779-3.6630992-4.4773743-6.5706347-.0010279-1.0405882.238544-2.0673247.7-3h11.3c.4121825-.0053347.8220607-.0624489 1.22-.17z"/><path id="Shape" d="m51 24h-15c-1.6568542 0-3-1.3431458-3-3v-1c0-.5522847-.4477153-1-1-1s-1 .4477153-1 1v1c0 1.5737865.7409708 3.0557281 2 4-1.715367 3.3299279-1.1889115 7.3741637 1.3217853 10.1539667 2.5106968 2.7798031 6.4806399 3.7139073 9.9674381 2.3452796 3.4867981-1.3686278 5.7613503-4.753803 5.7107766-8.4992463-.0030884-1.0238923-.1858612-2.0392968-.54-3h1.54c.5522847 0 1-.4477153 1-1s-.4477153-1-1-1zm-3 5c.0170036 2.9075355-1.7651378 5.5228631-4.4773743 6.5706347-2.7122364 1.0477716-5.7897967.309809-7.731928-1.8540251s-2.3444221-5.3029627-1.0106977-7.8866096c.3979393.1075511.8078175.1646653 1.22.17h11.3c.461456.9326753.7010279 1.9594118.7 3z"/><path id="Shape" d="m47 47h-1v-3c0-1.6568542-1.3431458-3-3-3h-2c-1.6568542 0-3 1.3431458-3 3v3h-16v-3c0-1.6568542-1.3431458-3-3-3h-2c-1.6568542 0-3 1.3431458-3 3v3h-1c-.5522847 0-1 .4477153-1 1s.4477153 1 1 1h34c.5522847 0 1-.4477153 1-1s-.4477153-1-1-1zm-31 0v-3c0-.5522847.4477153-1 1-1h2c.5522847 0 1 .4477153 1 1v3zm24 0v-3c0-.5522847.4477153-1 1-1h2c.5522847 0 1 .4477153 1 1v3z"/></g></g></g></svg>