<svg height="512" viewBox="0 0 60 61" width="512" xmlns="http://www.w3.org/2000/svg"><g id="Page-1" fill="none" fill-rule="evenodd"><g id="028---Worried" fill-rule="nonzero"><path id="Shape" d="m57.7 38.63c1.6036066 2.4589775 1.7315976 5.5987397.3334575 8.1800821-1.3981402 2.5813423-4.0977933 4.1895592-7.0334575 4.1899179-.3343012.0024294-.6683876-.0176158-1-.06-11.2131836 10.7303104-28.8868164 10.7303104-40.1 0-.29851516.038135-.5990644.0581716-.9.06-2.93566421-.0003587-5.63531728-1.6085756-7.03345746-4.1899179-1.39814017-2.5813424-1.27014915-5.7211046.33345746-8.1800821-.8615841-2.7956706-1.2997739-5.7045767-1.3-8.63.00000024-16.0162576 12.9837424-28.99999957 29-28.99999957s28.9999998 12.98374197 29 28.99999957c-.0002261 2.9254233-.4384159 5.8343294-1.3 8.63z" fill="#60a917"/><path id="Shape" d="m59 30c0-16.0162577-12.9837423-29-29-29-.5 0-1 0-1.5 0 8.6428532.44326333 16.6361052 4.72337464 21.7960718 11.6710461 5.1599665 6.9476715 6.9473774 15.8367993 4.8739282 24.2389539-.2496348.9969909-.1760984 2.0475105.21 3 .4115819.9780652.6224222 2.0288661.62 3.09 0 4.418278-3.581722 8-8 8-.3343012.0024294-.6683876-.0176158-1-.06-4.9938308 4.828347-11.563515 7.6905986-18.5 8.06h1.5c7.4578471-.0006359 14.625697-2.8892794 20-8.06.3316124.0423842.6656988.0624294 1 .06 2.9356642-.0003587 5.6353173-1.6085756 7.0334575-4.1899179 1.3981401-2.5813424 1.2701491-5.7211046-.3334575-8.1800821.8615841-2.7956706 1.2997739-5.7045767 1.3-8.63z" fill="#549414"/><circle id="Oval" cx="30" cy="20" fill="#f5f5f5" r="14"/><path id="Shape" d="m30 6c-.5010337.00119028-1.0016819.02789151-1.5.08 7.1126167.76364739 12.5054767 6.7665061 12.5054767 13.92s-5.39286 13.1563526-12.5054767 13.92c.4983181.0521085.9989663.0788097 1.5.08 7.7319865 0 14-6.2680135 14-14s-6.2680135-14-14-14z" fill="#cfd8dc"/><circle id="Oval" cx="30" cy="20" fill="#37474f" r="2"/><g fill="#000"><path id="Shape" d="m30 0c-16.5685425 0-30 13.4314575-30 30 .00499663 2.8700364.41572766 5.7249537 1.22 8.48-1.61667668 2.7836334-1.62354524 6.2187657-.0180132 9.0088419 1.60553203 2.7900763 4.57896712 4.5102113 7.7980132 4.5111581h.6c11.4931992 10.7056043 29.3068008 10.7056043 40.8 0h.6c3.2190461-.0009468 6.1924812-1.7210818 7.7980132-4.5111581 1.605532-2.7900762 1.5986635-6.2252085-.0180132-9.0088419.8042723-2.7550463 1.2150034-5.6099636 1.22-8.48 0-16.5685425-13.4314575-30-30-30zm21 50c-1.8666814.0267463-3.6667109-.6932655-5-2-.3967603-.3397768-.9881942-.3169323-1.3575632.0524368-.3693691.369369-.3922136.9608029-.0524368 1.3575632.9661211.9335781 2.1323236 1.6346676 3.41 2.05-10.385572 8.7202743-25.534428 8.7202743-35.92 0 1.2501647-.4421318 2.3848457-1.1598517 3.32-2.1.2451177-.3989344.1806106-.9145375-.155235-1.2407875s-.8531016-.3757882-1.244765-.1192125c-1.8542084 1.6934389-4.47100654 2.2690326-6.86467185 1.5099604-2.39366531-.7590721-4.2005431-2.7374889-4.74-5.19-.53945689-2.452511.27046344-5.0065215 2.12467185-6.6999604.30375525-.2189996.45969946-.5893556.40408546-.9596733-.05561399-.3703177-.31346506-.6785303-.66814838-.7986461-.35468333-.1201159-.74675262-.0320031-1.01593708.2283194-.16603465.1327454-.32304844.2763963-.47.43-2.69899555-11.2698186 1.82330792-23.0377386 11.3749166-29.59976256 9.5516088-6.56202399 22.158558-6.56202399 31.7101668 0 9.5516087 6.56202396 14.0739121 18.32994396 11.3749166 29.59976256-.1469516-.1536037-.3039654-.2972546-.47-.43-.2691845-.2603225-.6612537-.3484353-1.0159371-.2283194-.3546833.1201158-.6125344.4283284-.6681484.7986461s.1003302.7406737.4040855.9596733c2.2658614 1.886118 3.1071164 4.9897384 2.103924 7.7619531s-3.6357773 4.6187428-6.583924 4.6180469z"/><path id="Shape" d="m44.84 37c-1.699989.2733818-3.3593868.7570928-4.94 1.44-2 .8-3.82 1.55-9.9 1.55s-7.94-.75-9.9-1.55c-1.5806132-.6829072-3.240011-1.1666182-4.94-1.44-5.41-.89-8.32 3.32-9.11 5.67-.11432499.3394023-.03889666.7140146.19787187.9827241s.59890648.3906928.95.32.63780314-.3233218.75212813-.6627241c.05-.2 1.81-5.17 6.89-4.31 1.5534511.2459699 3.0690747.689567 4.51 1.32 2.15.86 4.18 1.68 10.65 1.68s8.5-.82 10.65-1.69c1.4413924-.627 2.9570013-1.0672323 4.51-1.31 5.07-.85 6.82 4.12 6.89 4.33.141.4033622.5227115.6725692.95.67.1062261.0137097.2137739.0137097.32 0 .2736383-.0723289.5038097-.2572283.6334279-.5088401s.1465413-.5463665.0465721-.8111599c-.84-2.35-3.77-6.57-9.16-5.68z"/><path id="Shape" d="m33 45h-6c-.5522847 0-1 .4477153-1 1s.4477153 1 1 1h6c.5522847 0 1-.4477153 1-1s-.4477153-1-1-1z"/><path id="Shape" d="m30 35c8.2842712 0 15-6.7157288 15-15s-6.7157288-15-15-15-15 6.7157288-15 15 6.7157288 15 15 15zm0-28c7.1797017 0 13 5.8202983 13 13s-5.8202983 13-13 13-13-5.8202983-13-13 5.8202983-13 13-13z"/><path id="Shape" d="m30 23c1.6568542 0 3-1.3431458 3-3s-1.3431458-3-3-3-3 1.3431458-3 3 1.3431458 3 3 3zm0-4c.5522847 0 1 .4477153 1 1s-.4477153 1-1 1-1-.4477153-1-1 .4477153-1 1-1z"/></g></g></g></svg>