<svg height="512" viewBox="0 0 60 60" width="512" xmlns="http://www.w3.org/2000/svg"><g id="Page-1" fill="none" fill-rule="evenodd"><g id="029---Heart-Eyed" fill-rule="nonzero"><circle id="Oval" cx="30" cy="30" fill="#02a9f4" r="29"/><path id="Shape" d="m30 1c-.5 0-1 0-1.5 0 16.0162576.00000024 28.9999996 12.9837424 28.9999996 29s-12.983742 28.9999998-28.9999996 29h1.5c16.0162576-.0000002 28.9999996-12.9837424 28.9999996-29s-12.983742-28.99999976-28.9999996-29z" fill="#0377bc"/><path id="Shape" d="m19 14c1.1523018-1.2694098 2.7855966-1.9953187 4.5-2 2.66 0 4.5 2.59 4.5 5.58s-1.9 8.15-9 10.42c-7.1-2.27-9-7.43-9-10.42s1.84-5.58 4.5-5.58c1.7144034.0046813 3.3476982.7305902 4.5 2z" fill="#e91e63"/><path id="Shape" d="m23.5 12c-.5552464.0022986-1.1073785.0830984-1.64.24 1.91.76 3.14 2.89 3.14 5.34 0 2.77-1.63 7.38-7.5 9.86.47.2 1 .39 1.5.56 7.1-2.27 9-7.43 9-10.42s-1.84-5.58-4.5-5.58z" fill="#ad1457"/><path id="Shape" d="m41 14c1.1523018-1.2694098 2.7855966-1.9953187 4.5-2 2.66 0 4.5 2.59 4.5 5.58s-1.9 8.15-9 10.42c-7.1-2.27-9-7.43-9-10.42s1.84-5.58 4.5-5.58c1.7144034.0046813 3.3476982.7305902 4.5 2z" fill="#e91e63"/><path id="Shape" d="m45.5 12c-.5552464.0022986-1.1073785.0830984-1.64.24 1.91.76 3.14 2.89 3.14 5.34 0 2.77-1.63 7.38-7.5 9.86.47.2 1 .39 1.5.56 7.1-2.27 9-7.43 9-10.42s-1.84-5.58-4.5-5.58z" fill="#ad1457"/><path id="Shape" d="m42 37c0 1.83-1.64 3.47-4.22 4.56l-.73-1.46c-.3557289-.7106718-1.0984818-1.1432933-1.8921441-1.1020922-.7936624.041201-1.4876265.5484061-1.7678559 1.2920922l-1 2.59c-1.6093658.160011-3.2306342.160011-4.84 0l-1-2.59c-.307054-.6826757-.9696227-1.1367397-1.7171038-1.1767457-.747481-.040006-1.4547299.3407437-1.8328962.9867457l-.73 1.46c-2.63-1.09-4.27-2.73-4.27-4.56 0-3.31 5.37-6 12-6s12 2.69 12 6z" fill="#3f51b5"/><path id="Shape" d="m27.58 42.88c-1.8425015-.1702097-3.6491674-.6151349-5.36-1.32l.78-1.46c.3557289-.7106718 1.0984818-1.1432933 1.8921441-1.1020922.7936624.041201 1.4876265.5484061 1.7678559 1.2920922z" fill="#f5f5f5"/><path id="Shape" d="m37.78 41.56c-1.7108326.7048651-3.5174985 1.1497903-5.36 1.32l1-2.59c.2802294-.7436861.9741935-1.2508912 1.7678559-1.2920922.7936623-.0412011 1.5364152.3914204 1.8921441 1.1020922z" fill="#f5f5f5"/><g fill="#000"><path id="Shape" d="m30 0c-16.5685425 0-30 13.4314575-30 30s13.4314575 30 30 30 30-13.4314575 30-30c0-7.9564947-3.1607052-15.5871121-8.7867966-21.21320344-5.6260913-5.62609135-13.2567087-8.78679656-21.2132034-8.78679656zm0 58c-15.463973 0-28-12.536027-28-28s12.536027-28 28-28 28 12.536027 28 28-12.536027 28-28 28z"/><path id="Shape" d="m19 29c.1019644-.0012733.2031342-.018135.3-.05 7.16-2.29 9.7-7.56 9.7-11.37s-2.42-6.58-5.5-6.58c-1.6427945 0-3.234164.572893-4.5 1.62-1.265836-1.047107-2.8572055-1.62-4.5-1.62-3.08 0-5.5 2.89-5.5 6.58s2.54 9.08 9.7 11.42c.0994311.0150853.2005689.0150853.3 0zm-8-11.42c0-2.25 1.31-4.58 3.5-4.58 1.41517.0044949 2.7653649.5945265 3.73 1.63.18842.232277.4709167.3680222.77.37.2990833-.0019778.58158-.137723.77-.37.9646351-1.0354735 2.31483-1.6255051 3.73-1.63 2.19 0 3.5 2.33 3.5 4.58 0 3.09-2.1 7.36-8 9.37-5.9-2.01-8-6.28-8-9.37z"/><path id="Shape" d="m45.5 11c-1.6427945 0-3.234164.572893-4.5 1.62-1.265836-1.047107-2.8572055-1.62-4.5-1.62-3.08 0-5.5 2.89-5.5 6.58s2.54 9.08 9.7 11.42c.1943804.0670499.4056196.0670499.6 0 7.16-2.29 9.7-7.56 9.7-11.37s-2.42-6.63-5.5-6.63zm-4.5 16c-5.9-2-8-6.28-8-9.37 0-2.3 1.31-4.63 3.5-4.63 1.41517.0044949 2.7653649.5945265 3.73 1.63.18842.232277.4709167.3680222.77.37.2990833-.0019778.58158-.137723.77-.37.9646351-1.0354735 2.31483-1.6255051 3.73-1.63 2.19 0 3.5 2.33 3.5 4.58 0 3.09-2.1 7.36-8 9.42z"/><path id="Shape" d="m30 30c-7.29 0-13 3.07-13 7s5.71 7 13 7 13-3.07 13-7-5.71-7-13-7zm-6.39 11 .23-.47c.1787459-.3562883.5520176-.572393.95-.55.3938848.0211045.7385631.2717796.88.64l.38 1c-.8272666-.147342-1.6427436-.3545534-2.44-.62zm10.39.64.38-1c.1414369-.3682204.4861152-.6188955.88-.64.3979824-.022393.7712541.1937117.95.55l.23.47c-.7972564.2654466-1.6127334.472658-2.44.62zm4.28-1.41-.29-.58c-.5344985-1.0656867-1.6493076-1.7137406-2.8398628-1.6508516-1.1905553.0628891-2.2308861.8247847-2.6501372 1.9408516l-.74 2c-.56 0-1.12.07-1.71.07s-1.15 0-1.71-.07l-.74-2c-.4192511-1.1160669-1.4595819-1.8779625-2.6501372-1.9408516-1.1905552-.062889-2.3053643.5851649-2.8398628 1.6508516l-.29.58c-1.82-.94-2.82-2.11-2.82-3.23 0-2.36 4.52-5 11-5s11 2.64 11 5c0 1.12-1 2.29-2.77 3.23z"/></g></g></g></svg>