<svg height="512" viewBox="0 0 60 61" width="512" xmlns="http://www.w3.org/2000/svg"><g id="Page-1" fill="none" fill-rule="evenodd"><g id="031---Glum" fill-rule="nonzero"><path id="Shape" d="m57.7 38.63c1.6036066 2.4589775 1.7315976 5.5987397.3334575 8.1800821-1.3981402 2.5813423-4.0977933 4.1895592-7.0334575 4.1899179-.3343012.0024294-.6683876-.0176158-1-.06-11.2131836 10.7303104-28.8868164 10.7303104-40.1 0-.29851516.038135-.5990644.0581716-.9.06-2.93566421-.0003587-5.63531728-1.6085756-7.03345746-4.1899179-1.39814017-2.5813424-1.27014915-5.7211046.33345746-8.1800821-.8615841-2.7956706-1.2997739-5.7045767-1.3-8.63-.00662826-4.2112727.91166726-8.3726194 2.69-12.19 2.47005456 2.7632017 6.26580229 3.9336409 9.863055 3.041326 3.5972528-.8923149 6.4059561-3.7010182 7.298271-7.298271.8923149-3.59725271-.2781243-7.39300044-3.041326-9.863055 7.7319763-3.58190834 16.6480237-3.58190834 24.38 0-2.7632017 2.47005456-3.9336409 6.26580229-3.041326 9.863055.8923149 3.5972528 3.7010182 6.4059561 7.298271 7.298271 3.5972527.8923149 7.3930004-.2781243 9.863055-3.041326 1.7783327 3.8173806 2.6966283 7.9787273 2.69 12.19-.0002261 2.9254233-.4384159 5.8343294-1.3 8.63z" fill="#60a917"/><path id="Shape" d="m39.19 3.69c-3.0006002 2.80100717-3.9847519 7.1512154-2.4819851 10.9710236s5.1872061 6.3333264 9.2919851 6.3389764c.5026938-.0026779 1.0043408-.046154 1.5-.13-3.7808622-.5843171-6.8969952-3.2745645-8.0267271-6.9297048-1.129732-3.6551403-.0750452-7.63450612 2.7167271-10.2502952-3.8173806-1.77833274-7.9787273-2.69662826-12.19-2.69-.5 0-1 0-1.5-.00003563 3.7032586.20029026 7.3330211 1.11367296 10.69 2.69003563z" fill="#549414"/><path id="Shape" d="m59 30c.0066283-4.2112727-.9116673-8.3726194-2.69-12.19-.6561151.7047117-1.4105695 1.3109697-2.24 1.8 1.2760166 3.315399 1.9302707 6.8375236 1.93 10.39-.0002261 2.9254233-.4384159 5.8343294-1.3 8.63 1.6036066 2.4589775 1.7315976 5.5987397.3334575 8.1800821-1.3981402 2.5813423-4.0977933 4.1895592-7.0334575 4.1899179-.3343012.0024294-.6683876-.0176158-1-.06-4.9938308 4.828347-11.563515 7.6905986-18.5 8.06h1.5c7.4578471-.0006359 14.625697-2.8892794 20-8.06.3316124.0423842.6656988.0624294 1 .06 2.9356642-.0003587 5.6353173-1.6085756 7.0334575-4.1899179 1.3981401-2.5813424 1.2701491-5.7211046-.3334575-8.1800821.8615841-2.7956706 1.2997739-5.7045767 1.3-8.63z" fill="#549414"/><path id="Shape" d="m21 11c0 5.5228475-4.4771525 10-10 10s-10-4.4771525-10-10c-.00260588-1.75705833.46340534-3.48302582 1.35-5-.23295206.64100925-.35142115 1.31797544-.35 2 0 3.3137085 2.6862915 6 6 6s6-2.6862915 6-6-2.6862915-6-6-6c-.68202456-.00142115-1.35899075.11704794-2 .35 3.09242484-1.78541482 6.902222-1.78639291 9.9955632-.00256616 3.0933411 1.78382674 5.0007763 5.08174216 5.0044368 8.65256616z" fill="#f5f5f5"/><path id="Shape" d="m17.81 3.69c-1.8444719-1.7313944-4.2802192-2.69353247-6.81-2.69-.5055318.00437775-1.01012211.04447765-1.51.12 4.8529549.77460041 8.42381 4.96061534 8.42381 9.875 0 4.9143847-3.5708551 9.1003996-8.42381 9.875.49895263.0843868 1.0039661.1278648 1.51.13 4.104779-.00565 7.7892183-2.5191682 9.2919851-6.3389764s.5186151-8.17001643-2.4819851-10.9710236z" fill="#cfd8dc"/><path id="Shape" d="m14 8c0 3.3137085-2.6862915 5.9999999-6 5.9999999-3.31370846 0-5.99999995-2.6862914-6-5.9999999-.00142115-.68202456.11704794-1.35899075.35-2 .60438052-1.70459032 1.94540968-3.04561948 3.65-3.65.64100925-.23295206 1.31797544-.35142115 2-.35 3.3137085 0 6 2.6862915 6 6z" fill="#a4c400"/><path id="Shape" d="m8 2c-.49724006.0032274-.99174587.07387109-1.47.21 2.62208059.70358812 4.4450161 3.08016246 4.4450161 5.795 0 2.7148375-1.82293551 5.0914119-4.4450161 5.795.47921772.1303085.97338759.1975425 1.47.2 3.3137085 0 6-2.6862915 6-6s-2.6862915-6-6-6z" fill="#90ac00"/><path id="Shape" d="m19.39 16.43c.3029651 1.7313575 1.0123938 3.3661282 2.07 4.77.7727991 1.0481856.5686767 2.5214165-.46 3.32-1.0408382.7587529-2.4943229.5649549-3.3-.44-1.2841145-1.6470347-3.1138469-2.7817525-5.16-3.2z" fill="#549414"/><path id="Shape" d="m59 11c0 5.5228475-4.4771525 10-10 10s-10-4.4771525-10-10 4.4771525-10 10-10c1.7570583-.00260588 3.4830258.46340534 5 1.35-.6410092-.23295206-1.3179754-.35142115-2-.35-3.3137085 0-6 2.6862915-6 6s2.6862915 6 6 6 6-2.6862915 6-6c.0014211-.68202456-.1170479-1.35899075-.35-2 .8865947 1.51697418 1.3526059 3.24294167 1.35 5z" fill="#f5f5f5"/><path id="Shape" d="m57.65 6c.2329521.64100925.3514211 1.31797544.35 2-.0039853 1.76733388-.7869464 3.4430168-2.14 4.58-.6923002 4.2847744-4.0695561 7.6337518-8.36 8.29.4956592.083846.9973062.1273221 1.5.13 3.570824-.0036605 6.8687394-1.9110957 8.6525662-5.0044368 1.7838267-3.0933412 1.7828486-6.90313836-.0025662-9.9955632z" fill="#cfd8dc"/><path id="Shape" d="m58 8c0 3.3137085-2.6862915 6-6 6s-6-2.6862915-6-6 2.6862915-6 6-6c.6820246-.00142115 1.3589908.11704794 2 .35 1.7045903.60438052 3.0456195 1.94540968 3.65 3.65.2329521.64100925.3514211 1.31797544.35 2z" fill="#a4c400"/><path id="Shape" d="m57.65 6c-.6043805-1.70459032-1.9454097-3.04561948-3.65-3.65-.6410092-.23295206-1.3179754-.35142115-2-.35-.5169169.00379905-1.0311757.07438358-1.53.21.1825873.03604739.3628981.08279466.54.14 1.7007812.60690774 3.0377606 1.94756011 3.64 3.65.2329521.64100925.3514211 1.31797544.35 2-.0043159 2.7324612-1.8543017 5.1168873-4.5 5.8.4889124.1329203.9933412.2001775 1.5.2 3.3137085 0 6-2.6862915 6-6 .0014211-.68202456-.1170479-1.35899075-.35-2z" fill="#90ac00"/><path id="Shape" d="m40.61 16.43c-.3029651 1.7313575-1.0123938 3.3661282-2.07 4.77-.7727991 1.0481856-.5686767 2.5214165.46 3.32 1.0408382.7587529 2.4943229.5649549 3.3-.44 1.2841145-1.6470347 3.1138469-2.7817525 5.16-3.2z" fill="#549414"/><circle id="Oval" cx="26" cy="32" fill="#007900" r="2"/><circle id="Oval" cx="34" cy="32" fill="#007900" r="2"/><g fill="#000"><path id="Shape" d="m44.84 37c-1.699989.2733818-3.3593868.7570928-4.94 1.44-2 .8-3.82 1.55-9.9 1.55s-7.94-.75-9.9-1.55c-1.5806132-.6829072-3.240011-1.1666182-4.94-1.44-5.42-.9-8.32 3.32-9.11 5.67-.11432499.3394023-.03889666.7140146.19787187.9827241s.59890648.3906928.95.32.63780314-.3233218.75212813-.6627241c.05-.2 1.82-5.17 6.89-4.31 1.5534511.2459699 3.0690747.689567 4.51 1.32 2.15.86 4.18 1.68 10.65 1.68s8.5-.82 10.65-1.69c1.4413924-.627 2.9570013-1.0672323 4.51-1.31 5.07-.85 6.82 4.12 6.89 4.33.141.4033622.5227115.6725692.95.67.1062261.0137097.2137739.0137097.32 0 .2736383-.0723289.5038097-.2572283.6334279-.5088401s.1465413-.5463665.0465721-.8111599c-.84-2.35-3.75-6.57-9.16-5.68z"/><path id="Shape" d="m33 45h-6c-.5522847 0-1 .4477153-1 1s.4477153 1 1 1h6c.5522847 0 1-.4477153 1-1s-.4477153-1-1-1z"/><circle id="Oval" cx="7" cy="6" r="1"/><path id="Shape" d="m58.56 5.58c-.7146381-1.9148755-2.2251245-3.4253619-4.14-4.14-3.9640742-2.24724306-8.903316-1.81774377-12.42 1.08-7.6471631-3.36017576-16.3528369-3.36017576-24 0-3.516684-2.89774377-8.45592584-3.32724306-12.42-1.08-1.9148755.7146381-3.4253619 2.2251245-4.14 4.14-2.24724306 3.96407416-1.81774377 8.903316 1.08 12.42-1.67063951 3.779532-2.52915702 7.8677107-2.52 12 .00350155 2.8708598.41769748 5.7264545 1.23 8.48-1.6157838 2.7820891-1.62360406 6.2150924-.02051195 9.0045139s4.57325281 4.5109668 7.79051195 4.5154861h.6c11.4931992 10.7056043 29.3068008 10.7056043 40.8 0h.6c3.2172591-.0045193 6.1874198-1.7260646 7.7905119-4.5154861 1.6030922-2.7894215 1.5952719-6.2224248-.0205119-9.0045139.8123025-2.7535455 1.2264984-5.6091402 1.23-8.48.009157-4.1322893-.8493605-8.220468-2.52-12 2.8977438-3.516684 3.3272431-8.45592584 1.08-12.42zm-9.56 14.42c-4.9705627.1767311-9.1432689-3.7094373-9.32-8.68-.1767311-4.97056275 3.7094373-9.14326888 8.68-9.32-2.452753 1.52387438-3.7180732 4.39747662-3.1860325 7.23563153.5320406 2.83815487 2.7522461 5.05836037 5.590401 5.59040097 2.8381549.5320407 5.7117571-.7332795 7.2356315-3.1860325-.3364118 4.7190277-4.2690116 8.3719759-9 8.36zm8-12c0 2.7614237-2.2385763 5-5 5s-5-2.2385763-5-5c0-2.76142375 2.2385763-5 5-5s5 2.23857625 5 5zm-46 12c-4.73098844.0119759-8.66358824-3.6409723-9-8.36 1.52387438 2.452753 4.39747662 3.7180732 7.23563153 3.1860325 2.83815487-.5320406 5.05836037-2.7522461 5.59040097-5.59040097.5320407-2.83815491-.7332795-5.71175715-3.1860325-7.23563153 4.9705627.17673112 8.8567311 4.34943725 8.68 9.32-.1767311 4.9705627-4.3494373 8.8567311-9.32 8.68zm-3-17c2.7614237 0 5 2.23857625 5 5 0 2.7614237-2.2385763 5-5 5-2.76142375 0-5-2.2385763-5-5 0-2.76142375 2.23857625-5 5-5zm49.23 33.52c-.1469516-.1536037-.3039654-.2972546-.47-.43-.2691845-.2603225-.6612537-.3484353-1.0159371-.2283194-.3546833.1201158-.6125344.4283284-.6681484.7986461s.1003302.7406737.4040855.9596733c1.8542085 1.6845072 2.6688938 4.2302646 2.1371719 6.6783098-.5317218 2.4480453-2.3290697 4.4264621-4.715 5.1900001-2.3859303.7635379-4.9979635.1961974-6.8521719-1.4883099-.3967603-.3397768-.9881942-.3169323-1.3575632.0524368-.3693691.369369-.3922136.9608029-.0524368 1.3575632.951708.9271578 2.1001724 1.6278578 3.36 2.05-10.385572 8.7202743-25.534428 8.7202743-35.92 0 1.2501647-.4421318 2.3848457-1.1598517 3.32-2.1.2451177-.3989344.1806106-.9145375-.155235-1.2407875s-.8531016-.3757882-1.244765-.1192125c-1.8542084 1.6934389-4.47100654 2.2690326-6.86467185 1.5099604-2.39366531-.7590721-4.2005431-2.7374889-4.74-5.19-.53945689-2.452511.27046344-5.0065215 2.12467185-6.6999604.30375525-.2189996.45969946-.5893556.40408546-.9596733-.05561399-.3703177-.31346506-.6785303-.66814838-.7986461-.35468333-.1201159-.74675262-.0320031-1.01593708.2283194-.16603465.1327454-.32304844.2763963-.47.43-.51072839-2.1357482-.76916101-4.3240348-.77-6.52-.01851849-3.5931513.66071383-7.1557247 2-10.49 1.97057824 1.6226552 4.44735402 2.5036798 7 2.49.4853764-.0010718.9700167-.0378376 1.45-.11 2.29.48 4.2 2 5.68 4.61.2761424.4804877.8895123.6461424 1.37.37s.6461424-.8895123.37-1.37c-1.0012481-1.8538181-2.4786532-3.4071646-4.28-4.5 1.2525148-.5866618 2.3877055-1.3965441 3.35-2.39.7220247 1.931638 1.8665816 3.6775144 3.35 5.11.1877666.1893127.4433625.2957983.71.2957983s.5222334-.1064856.71-.2957983c.1893127-.1877666.2957983-.4433625.2957983-.71s-.1064856-.5222334-.2957983-.71c-1.6252215-1.5327251-2.7596679-3.5127865-3.26-5.69 2.3936044-3.9770957 2.0168105-9.03174568-.94-12.61 6.7349145-2.72440706 14.2650855-2.72440706 21 0-2.9336522 3.56831894-3.3098352 8.594764-.94 12.56-.5003321 2.1772135-1.6347785 4.1572749-3.26 5.69-.1893127.1877666-.2957983.4433625-.2957983.71s.1064856.5222334.2957983.71c.1877666.1893127.4433625.2957983.71.2957983s.5222334-.1064856.71-.2957983c1.4834184-1.4324856 2.6279753-3.178362 3.35-5.11.9521086 1.0093802 2.0806413 1.8362931 3.33 2.44-1.8026594 1.0955844-3.2801873 2.6525122-4.28 4.51-.2761424.4804877-.1104877 1.0938576.37 1.37s1.0938576.1104877 1.37-.37c1.48-2.58 3.38-4.13 5.67-4.61.4835712.0689463.9715442.1023691 1.46.1 2.552646.0136798 5.0294218-.8673448 7-2.49 1.3392862 3.3342753 2.0185185 6.8968487 2 10.49-.000839 2.1959652-.2592716 4.3842518-.77 6.52z"/><circle id="Oval" cx="53" cy="6" r="1"/><path id="Shape" d="m26 35c1.6568542 0 3-1.3431458 3-3s-1.3431458-3-3-3-3 1.3431458-3 3 1.3431458 3 3 3zm0-4c.5522847 0 1 .4477153 1 1s-.4477153 1-1 1-1-.4477153-1-1 .4477153-1 1-1z"/><path id="Shape" d="m34 35c1.6568542 0 3-1.3431458 3-3s-1.3431458-3-3-3-3 1.3431458-3 3 1.3431458 3 3 3zm0-4c.5522847 0 1 .4477153 1 1s-.4477153 1-1 1-1-.4477153-1-1 .4477153-1 1-1z"/></g></g></g></svg>