<svg height="512" viewBox="0 0 61 60" width="512" xmlns="http://www.w3.org/2000/svg"><g id="Page-1" fill="none" fill-rule="evenodd"><g id="032---Crying" fill-rule="nonzero"><path id="Shape" d="m55.72 45.17c.06.15.11.31.17.46.8 2.25 2 5.65.09 9.08-1.1754309 2.0130953-3.1227025 3.4581948-5.39 4-.8698995.2180205-1.7631963.3288431-2.66.33-2.2440713.001791-4.4326552-.6974371-6.26-2-6.8488717 2.7070745-14.4711283 2.7070745-21.32 0-1.8273448 1.3025629-4.0159287 2.001791-6.26 2-.8968037-.0011569-1.7901005-.1119795-2.66-.33-2.26729748-.5418052-4.21456906-1.9869047-5.39-4-1.92-3.43-.71-6.83.09-9.08.06-.15.11-.31.17-.46-5.74629493-9.3603301-5.71145372-21.1637564.09-30.49-1.39-1.75-4.39-1.75-4.39-1.75 4-8.1 11-6.08 11-6.08-3-4-6-4-6-4 4.5608327-2.31020993 9.9314513-2.39135939 14.56-.22 6.1101701-2.1067276 12.7498299-2.1067276 18.86 0 4.626438-2.19353937 10.0059653-2.13081512 14.58.17 0 0-3 0-6 4.05 0 0 7-2 11 6.08 0 0-3 0-4.37 1.75 5.8014537 9.3262436 5.8362949 21.1296699.09 30.49z" fill="#a4c400"/><path id="Shape" d="m18.56 2.58c.57-.2 1.16-.36 1.74-.53-2.3527418-.87323301-4.8696365-1.2147384-7.37-1 1.9512814.17916097 3.8564316.69690164 5.63 1.53z" fill="#90ac00"/><path id="Shape" d="m37.43 2.58c.29-.14.71-.33 1.25-.53-2.5006636-.69605268-5.0842714-1.04928031-7.68-1.05-.51 0-1 0-1.5.06 2.7019456.12883766 5.3719181.64061043 7.93 1.52z" fill="#90ac00"/><path id="Shape" d="m52 2.8s-3 0-6 4.05c1.0216412-.2434576 2.0797153-.29432654 3.12-.15 2.96-3.89 5.88-3.9 5.88-3.9-2.7573126-1.40795061-5.8564969-2.0076809-8.94-1.73 2.0704684.20166975 4.0850323.78840301 5.94 1.73z" fill="#90ac00"/><path id="Shape" d="m60 30c.0106529-5.4156823-1.5038008-10.7249341-4.37-15.32 1.42-1.75 4.37-1.75 4.37-1.75-3.38-6.85-8.91-6.46-10.54-6.18 2.34.38 5.38 1.8 7.54 6.18 0 0-3 0-4.37 1.75 5.8014537 9.3262436 5.8362949 21.1296699.09 30.49.06.15.11.31.17.46.8 2.25 2 5.65.09 9.08-1.1754309 2.0130953-3.1227025 3.4581948-5.39 4-.39.1-.78.16-1.17.22.5001545.0718146 1.0047181.1085709 1.51.11.8968037-.0011569 1.7901005-.1119795 2.66-.33 2.2672975-.5418052 4.2145691-1.9869047 5.39-4 1.92-3.43.71-6.83-.09-9.08-.06-.15-.11-.31-.17-.46 2.809097-4.5604932 4.2912398-9.8137889 4.28-15.17z" fill="#90ac00"/><path id="Shape" d="m10 6.85-.12-.15h-.34c.15589595.04176986.30944825.09184126.46.15z" fill="#90ac00"/><path id="Shape" d="m51.08 54.17c-.4548944.2816256-.9508207.4907917-1.47.62-2.2947479.5692743-4.7211887-.0760156-6.43-1.71-1.5294449-1.5179777-3.3001566-2.7716686-5.24-3.71-2.2051853-.8801134-4.5664802-1.3020163-6.94-1.24-2.3735198-.0620163-4.7348147.3598866-6.94 1.24-1.9398434.9383314-3.7105551 2.1920223-5.24 3.71-1.7088113 1.6339844-4.1352521 2.2792743-6.43 1.71-.5191793-.1292083-1.0151056-.3383744-1.47-.62 1.3486366-2.3523272 3.1101144-4.4423883 5.2-6.17l.63-5c.0481845-.3787115.3077878-.6969456.6691022-.8202176.3613145-.123272.7612899-.0300706 1.0308978.2402176l2.55 2.58c3.151569-1.3753434 6.5618812-2.0574058 10-2 3.4381188-.0574058 6.848431.6246566 10 2l2.57-2.57c.2696079-.2702882.6695833-.3634896 1.0308978-.2402176.3613144.123272.6209177.4415061.6691022.8202176l.63 5c2.081788 1.7263975 3.836346 3.8128989 5.18 6.16z" fill="#f5f5f5"/><path id="Shape" d="m45.88 48-.63-5c-.0481845-.3787115-.3077878-.6969456-.6691022-.8202176-.3613145-.123272-.7612899-.0300706-1.0308978.2402176l-1.22 1.22.45 3.6c.0738979.4883349.3183475.9347212.69 1.26 1.8321676 1.6177409 3.3891437 3.522588 4.61 5.64-.4548944.2816256-.9508207.4907917-1.47.62h-.16c1.0385409.2496507 2.1214591.2496507 3.16 0 .5191793-.1292083 1.0151056-.3383744 1.47-.62-1.3515843-2.3416026-3.1128999-4.4213098-5.2-6.14z" fill="#cfd8dc"/><path id="Shape" d="m52.49 52.75c-.3420963.5851531-.8272792 1.0737769-1.41 1.42-1.3486366-2.3523272-3.1101144-4.4423883-5.2-6.17l-.63-5c-.0481845-.3787115-.3077878-.6969456-.6691022-.8202176-.3613145-.123272-.7612899-.0300706-1.0308978.2402176l-2.55 2.58c-3.151569-1.3753434-6.5618812-2.0574058-10-2-3.4381188-.0574058-6.848431.6246566-10 2l-2.57-2.57c-.2696079-.2702882-.6695833-.3634896-1.0308978-.2402176-.3613144.123272-.6209177.4415061-.6691022.8202176l-.63 5c-2.0871001 1.7186902-3.8484157 3.7983974-5.2 6.14-.5827208-.3462231-1.0679037-.8348469-1.41-1.42-1.23-2.2.07-4.73.75-6.87 1.111328-3.2308414 2.3897167-6.4017796 3.83-9.5 2.125516-1.1530915 4.3196184-2.1750022 6.57-3.06l2.21 4.42c.1840246.3651286.5717982.5814437.9791589.5462125s.7522375-.3149106.8708411-.7062125l1.82-6.07c1.4728233-.3150172 2.9739032-.4791978 4.48-.49 1.4967424.0194052 2.9876761.1902763 4.45.51l1.82 6.07c.1186036.3913019.4634804.6709813.8708411.7062125s.7951343-.1810839.9791589-.5462125l2.21-4.42c2.2503816.8849978 4.444484 1.9069085 6.57 3.06 1.4402833 3.0982204 2.718672 6.2691586 3.83 9.5.69 2.12 1.99 4.67.76 6.87z" fill="#37474f"/><path id="Shape" d="m47.91 36.38c-2.125516-1.1530915-4.3196184-2.1750022-6.57-3.06l-2.21 4.42c-.1840246.3651286-.5717982.5814437-.9791589.5462125s-.7522375-.3149106-.8708411-.7062125l-1.82-6.07c-1.4655933-.3203947-2.9599114-.4912697-4.46-.51-1.4967424.0194052-2.9876761.1902763-4.45.51l-1.82 6.07c-.1186036.3913019-.4634804.6709813-.8708411.7062125s-.7951343-.1810839-.9791589-.5462125l-2.21-4.42c-2.2503816.8849978-4.444484 1.9069085-6.57 3.06l.57-1.32c4.33-10.06 16.33-10.06 16.33-10.06s12 0 16.34 10.06z" fill="#f5f5f5"/><path id="Shape" d="m43.6 33.58c.3181702.5699141.8081114 1.0248595 1.4 1.3 1.22.58 2.24 1.12 2.95 1.5l-.57-1.32c-4.38-10.06-16.38-10.06-16.38-10.06s-.57 0-1.5.1c3.13.35 10.39 1.9 14.1 8.48z" fill="#cfd8dc"/><path id="Shape" d="m12.5 27.66c-.9167927 1.3807119-2.77928813 1.7567927-4.16.84s-1.75679268-2.7792881-.84-4.16c.59-.88 3-2.34 4.71-3.28.3296411-.1843624.7350307-.1672708 1.0479838.044184s.4800691.5811913.4320162.955816c-.21 1.94-.6 4.71-1.19 5.6z" fill="#02a9f4"/><path id="Shape" d="m49.5 27.66c.9167927 1.3807119 2.7792881 1.7567927 4.16.84s1.7567927-2.7792881.84-4.16c-.59-.88-3-2.34-4.71-3.28-.3296411-.1843624-.7350307-.1672708-1.0479838.044184s-.4800691.5811913-.4320162.955816c.21 1.94.6 4.71 1.19 5.6z" fill="#02a9f4"/><g fill="#000"><path id="Shape" d="m60 13.93c.3455015.0006914.6668845-.1770145.85-.47.1786328-.3094011.1786328-.6905989 0-1-2.68-5.46-6.78-6.68-9.45-6.8.9544618-1.01015924 2.2238506-1.66601012 3.6-1.86.4608398-.0027311.8601381-.32004622.96688-.76836191.1067418-.44831569-.1067173-.91152544-.51688-1.12163809-4.7062055-2.39820862-10.2432003-2.54517596-15.07-.4-6.0934395-1.99986937-12.6665605-1.99986937-18.76 0-4.8267997-2.14517596-10.3637945-1.99820862-15.07.4-.40959364.19627059-.6354741.64392459-.55 1.09.09647363.47312322.51723924.80973571 1 .8 1.37639419.19322113 2.64602349.84919627 3.6 1.86-2.67.12-6.77 1.34-9.5 6.83-.17863279.3094011-.17863279.6905989 0 1 .18311545.2929855.50449853.4706914.85.47 1.09682292.0251361 2.1670313.3427464 3.1.92-5.49441025 9.4045001-5.45996151 21.0481755.09 30.42-.81 2.28-2.17 6.09 0 9.91 1.31486254 2.2326675 3.48049125 3.8352328 6 4.44.9482616.2383867 1.9222333.3592935 2.9.36 2.2710361-.0073699 4.4910127-.6744051 6.39-1.92 6.7866894 2.559563 14.2733106 2.559563 21.06 0 1.9114779 1.2495133 4.1463582 1.9133735 6.43 1.91.9777667-.0007065 1.9517384-.1216133 2.9-.36 2.5195088-.6047672 4.6851375-2.2073325 6-4.44 2.15-3.82.79-7.62 0-9.93 5.5499615-9.3718245 5.5844103-21.0154999.09-30.42.9267744-.582837 1.9953547-.9009903 3.09-.92zm-1 16.07c.0003392 4.796103-1.2361387 9.5112513-3.59 13.69-.0565639-.0048254-.1134361-.0048254-.17 0-.2656667.0793162-.4864801.2653685-.609713.5137302s-.1378232.5367384-.040287.7962698c.1.31.22.64.35 1 .78 2.2 1.86 5.22.16 8.25-1.0481771 1.7626078-2.7715549 3.0199148-4.77 3.48-3.2688957.7950996-6.7185131-.1067612-9.18-2.4-.52-.47-1-.91-1.51-1.32-.4252593-.3534622-1.0565378-.2952593-1.41.13s-.2952593 1.0565378.13 1.41c.41.34.84.72 1.28 1.11-5.6177657 1.8102699-11.6622343 1.8102699-17.28 0 .44-.39.86-.77 1.28-1.11.4280207-.3534622.4884622-.9869793.135-1.415s-.9869793-.4884622-1.415-.135c-.49.41-1 .85-1.52 1.33-2.461203 2.286331-5.9059267 3.184138-9.17 2.39-2.00192503-.464842-3.72588383-1.7298013-4.77-3.5-1.7-3-.62-6 .17-8.28.12-.33.24-.66.34-1 .08159355-.253273.05888008-.5286212-.06311312-.7651004-.12199321-.2364791-.33320505-.4145861-.58688688-.4948996-.05656394-.0048254-.11343606-.0048254-.17 0-4.99575992-8.8987805-4.75437666-19.8108362.63-28.48.22679146-.3619368.19866927-.8279617-.07-1.16-.93461066-1.0217083-2.18434666-1.7011422-3.55-1.93 3.59-5.76 8.89-4.36 9.12-4.3.4123699.11963715.8550859-.03732579 1.1-.39.2519556-.34930665.2519556-.82069335 0-1.17-1.0325336-1.45835393-2.3745145-2.67057586-3.93-3.55 3.7097202-1.14868927 7.7147037-.87051589 11.23.78.250355.10015386.529645.10015386.78 0 5.8985495-2.01981248 12.3014505-2.01981248 18.2 0 .250355.10015386.529645.10015386.78 0 3.5155431-1.64956567 7.5201668-1.92771407 11.23-.78-1.5482414.88180596-2.8832106 2.09386241-3.91 3.55-.2519556.34930665-.2519556.82069335 0 1.17.2449141.35267421.6876301.50963715 1.1.39.24-.07 5.51-1.51 9.13 4.3-1.3707993.2286952-2.624759.9120328-3.56 1.94-.2686693.3320383-.2967915.7980632-.07 1.16 2.7575604 4.4393395 4.212822 9.5639393 4.2 14.79z"/><path id="Shape" d="m15.45 17.9c.29-.15 7.36-3.57 11.78 1.74.1903565.2285401.4725678.360483.77.36.2336522.0004565.4600879-.0809188.64-.23.2045071-.1695482.3331478-.4135008.3575369-.6780285s-.057478-.5278889-.2275369-.7319715c-5.45-6.53-14.13-2.3-14.22-2.25-.490313.2495756-.6869243.8483464-.44 1.34.2459531.4940809.8456857.6954836 1.34.45z"/><path id="Shape" d="m33.23 18.36c-.1700589.2040826-.251926.4674438-.2275369.7319715s.1530298.5084803.3575369.6780285c.1799121.1490812.4063478.2304565.64.23.2974322.000483.5796435-.1314599.77-.36 4.42-5.31 11.49-1.89 11.78-1.74.4943143.2454836 1.0940469.0440809 1.34-.45.2469243-.4916536.050313-1.0904244-.44-1.34-.09-.05-8.77-4.28-14.22 2.25z"/><path id="Shape" d="m26.17 14c1.1247065-.0034708 2.234661-.2561989 3.25-.74.241764-.1109242.4293726-.3135989.5213289-.5631946.0919563-.2495958.0806821-.525543-.0313289-.7668054-.2347915-.4997404-.8301775-.7146165-1.33-.48-4.24 2-7.67-1.91-7.82-2.09-.2322226-.27152186-.5916604-.39852911-.9429165-.33317934-.3512562.06534977-.6409665.31312838-.76.65000002-.1190335.33687162-.0493062.71165752.1829165.98317932 1.7523837 2.0189804 4.2589748 3.2270632 6.93 3.34z"/><path id="Shape" d="m32.58 13.25c1.015339.4838011 2.1252935.7365292 3.25.74 2.6710252-.1129368 5.1776163-1.3210196 6.93-3.34.3589851-.4197364.3097364-1.05101491-.11-1.41s-1.0510149-.30973641-1.41.11c-.14.17-3.58 4.07-7.82 2.09-.3273278-.1797555-.7275413-.1621492-1.0378195.0456561-.3102781.2078052-.4789165.5711808-.4373072.9422929.0416093.3711122.2865327.688119.6351267.822051z"/><path id="Shape" d="m52.69 45.58c-1.0025036-2.9544694-2.1573845-5.8550228-3.46-8.69-.33-.74-.66-1.48-1-2.23-4.52-10.54-16.71-10.66-17.23-10.66s-12.71.12-17.25 10.66c-.32.75-.65 1.49-1 2.23-1.4530451 3.1682208-2.7055144 6.4246409-3.75 9.75-.7 1.94-1.56 4.37-.31 6.6.79788659 1.2643818 2.0568754 2.1682712 3.51 2.52 2.6253562.6492423 5.4005104-.0860228 7.36-1.95 1.4414282-1.4375573 3.1105996-2.6269264 4.94-3.52 2.0659256-.8222575 4.2771818-1.2168817 6.5-1.16 2.2395671-.0636958 4.4685197.33105 6.55 1.16 1.8517264.8940835 3.5415324 2.0904662 5 3.54 1.4639262 1.3627349 3.3802629 2.1356811 5.38 2.17.6474228-.0009231 1.2922707-.081529 1.92-.24 1.4474216-.3640885 2.7022261-1.2649737 3.51-2.52 1.25-2.23.39-4.66-.31-6.6-.12-.37-.25-.72-.36-1.06zm-21.69-19.58c.11 0 10.33.13 14.78 8.17-.9-.43-1.93-.9-3.06-1.37l.17-.35c.1932607-.3211808.1906728-.7234705-.0067041-1.0421383-.1973768-.3186678-.5563928-.5001928-.9300368-.4702434s-.6991617.2663431-.8432591.6123817l-2.88 5.75-2.23-7.59c-.1787235-.4920617-.7067054-.7629979-1.2106665-.6212588-.5039612.141739-.8133075.6481738-.7093335 1.1612588-1.019134-.1588593-2.048587-.2424187-3.08-.25-1.004693.0114576-2.0072684.0950055-3 .25.1491169-.5522847-.1777153-1.1208831-.73-1.27-.5522847-.1491168-1.1208831.1777153-1.27.73l-.43 1.44-1.8 6.15-2.88-5.75c-.1440974-.3460386-.4696151-.5824323-.8432591-.6123817s-.73266.1515756-.9300368.4702434c-.1973769.3186678-.1999648.7209575-.0067041 1.0421383l.17.35c-1.13.47-2.16.94-3.06 1.37 4.45-8.04 14.67-8.17 14.78-8.17zm-20.17 21.31c.14-.38.27-.76.39-1.12.9783962-2.8868021 2.1065932-5.7206462 3.38-8.49.09-.2.18-.4.26-.6 1.12-.6 3-1.56 5.32-2.51l1.8 3.6c.3361186.6764437 1.0246628 1.1058167 1.78 1.11h.18c.8161011-.0722608 1.5055976-.6349534 1.74-1.42l1.65-5.49c1.2089118-.2414407 2.4373457-.3719827 3.67-.39 1.2323481.0147227 2.4607791.1419172 3.67.38l1.65 5.49c.2344024.7850466.9238989 1.3477392 1.74 1.42h.18c.7458983-.0097509 1.4243808-.4338025 1.76-1.1l1.8-3.6c2.3.95 4.2 1.91 5.32 2.51.08.2.17.4.26.6 1.2734068 2.7693538 2.4016038 5.6031979 3.38 8.49.12.36.25.74.39 1.12.62 1.72 1.25 3.51.45 4.95-.0854422.1405761-.1860436.2713579-.3.39-1.243647-1.9159554-2.759536-3.6407002-4.5-5.12l-.57-4.63c-.0968298-.7577064-.616798-1.3940855-1.34-1.64-.722018-.2459031-1.5210406-.0597231-2.06.48l-2.1 2.1c-3.0908397-1.2469994-6.3972449-1.87226-9.73-1.84-3.3394737-.034896-6.6529313.5904129-9.75 1.84l-2.1-2.1c-.5389594-.5397231-1.337982-.7259031-2.06-.48-.723202.2459145-1.2431702.8822936-1.34 1.64l-.57 4.63c-1.740464 1.4792998-3.256353 3.2040446-4.5 5.12-.1139564-.1186421-.2145578-.2494239-.3-.39-.8-1.44-.17-3.26.45-4.95zm33 5c-1.5981848-1.5864355-3.4503903-2.8944711-5.48-3.87-2.3348161-.9340732-4.8362434-1.3799058-7.35-1.31-2.5110983-.0653602-5.0090088.3838553-7.34 1.32-2.0378614.9801562-3.8969655 2.2950499-5.5 3.89-1.4661845 1.4042238-3.5479849 1.9623877-5.52 1.48l-.27-.1c.9075701-1.3989362 1.9747371-2.6875906 3.18-3.84.1020043.0573177.2140059.0946515.33.11h.12c.5086257.0036739.9389766-.3750349 1-.88l.75-6 3.55 3.56c.1877666.1893127.4433625.2957983.71.2957983s.5222334-.1064856.71-.2957983c.3492535-.3622387.3749504-.9275702.06-1.32 2.6393823-.9295332 5.4219584-1.3865256 8.22-1.35 2.8037777-.0248672 5.58991.4456947 8.23 1.39-.3149504.3924298-.2892535.9577613.06 1.32.1877666.1893127.4433625.2957983.71.2957983s.5222334-.1064856.71-.2957983l3.55-3.56.75 6c.0742284.4892598.4951419.8506502.99.85h.12c.1159941-.0153485.2279957-.0526823.33-.11 1.2052629 1.1524094 2.2724299 2.4410638 3.18 3.84l-.27.1c-1.9832732.4703485-4.0696949-.0983333-5.54-1.51z"/><path id="Shape" d="m10.79 29.92c1.0399562-.2105536 1.9536456-.8256753 2.54-1.71.21-.31.83-1.24 1.36-6.06.1074315-.7614096-.2311779-1.5169864-.8709841-1.9435239s-1.467496-.4484935-2.1290159-.0564761c-4.23 2.35-4.85 3.29-5.05 3.6-.83912126 1.2331102-.92246117 2.8306694-.21620089 4.1443976s2.08479416 2.125384 3.57620089 2.1056024c.2652497-.0020131.5297317-.028796.79-.08zm-2.79-3.52c-.10840585-.5218676-.00401528-1.0654185.29-1.51.1-.14.74-.94 4.37-3-.45 4.13-.94 5-1 5.17-.4325861.6970096-1.2469397 1.0591812-2.05425568.9135997-.80731601-.1455816-1.44386949-.7693922-1.60574432-1.5735997z"/><path id="Shape" d="m48.2 20.26c-.628266.4126914-.9720776 1.1428081-.89 1.89.53 4.82 1.15 5.75 1.36 6.06.5863544.8843247 1.5000438 1.4994464 2.54 1.71.2602683.051204.5247503.0779869.79.08 1.4707643-.0051607 2.8200586-.8170387 3.5134878-2.1140854.6934292-1.2970468.6191235-2.870012-.1934878-4.0959146-.2-.31-.82-1.25-5-3.6-.6618593-.3841885-1.4849256-.3570118-2.12.07zm5.47 4.63c.2948441.4437128.4004764.9867223.2934712 1.5086074s-.4178038.9795113-.8634712 1.2713926c-.4419236.2913544-.9813244.3956386-1.5.29-.5208006-.1064993-.977778-.4159486-1.27-.86-.09-.14-.58-1-1-5.17 3.6 2.07 4.24 2.82 4.34 2.96z"/></g></g></g></svg>