<svg height="512" viewBox="0 0 60 60" width="512" xmlns="http://www.w3.org/2000/svg"><g id="Page-1" fill="none" fill-rule="evenodd"><g id="033---Angry" fill-rule="nonzero"><circle id="Oval" cx="30" cy="30" fill="#ff9801" r="29"/><path id="Shape" d="m30 1c-.5 0-1 0-1.5 0 16.0162576.00000024 28.9999996 12.9837424 28.9999996 29s-12.983742 28.9999998-28.9999996 29h1.5c16.0162576-.0000002 28.9999996-12.9837424 28.9999996-29s-12.983742-28.99999976-28.9999996-29z" fill="#f57c00"/><path id="Shape" d="m43 18c.0007989 5.6126197-3.6005463 10.5920239-8.9311744 12.3486986-5.330628 1.7566747-11.1867623-.1060771-14.52295-4.6195406-3.3361876-4.5134636-3.3990418-10.6583967-.1558756-15.239158.2892297-.3763074.8031314-.49747124 1.23-.29 1.2673915.558807 2.5918645.977944 3.95 1.25-.3788453.7964922-.5736546 1.6680078-.57 2.55 0 3.3137085 2.6862915 6 6 6s6-2.6862915 6-6c.0036546-.8819922-.1911547-1.7535078-.57-2.55 1.3553066-.2705018 2.676633-.6897043 3.94-1.25.4294159-.21302546.949596-.0913704 1.24.29 1.5611839 2.1924215 2.3969259 4.8185396 2.39 7.51z" fill="#f5f5f5"/><path id="Shape" d="m40.61 10.49c-.290404-.3813704-.8105841-.50302546-1.24-.29-.49.22-1 .42-1.55.6 2.499792 3.7693621 2.8607529 8.5670818.9530919 12.6680428-1.9076609 4.1009609-5.8097117 6.9156378-10.3030919 7.4319572.33 0 .67.08 1 .09 4.9490456.1977183 9.5804398-2.4340006 11.943707-6.7868288s2.0477372-9.670365-.813707-13.7131712z" fill="#cfd8dc"/><path id="Shape" d="m36 14c0 3.3137085-2.6862915 6-6 6s-6-2.6862915-6-6c-.0036546-.8819922.1911547-1.7535078.57-2.55 1.7855553.3742081 3.6056738.5585663 5.43.55 1.8243262.0085663 3.6444447-.1757919 5.43-.55.3788453.7964922.5736546 1.6680078.57 2.55z" fill="#f44335"/><circle id="Oval" cx="30" cy="14" fill="#37474f" r="2"/><path id="Shape" d="m41 49c-2.88-2.16-3-4-11-4s-8.12 1.84-11 4c-4 3-8.24-1-7-6 .6293778-2.1225133 2.1101672-3.889323 4.09-4.88.0478543.2611885.1146983.5185381.2.77.71 2.11 2.58 3.31 4.15 2.76s2.24-2.65 1.56-4.76c-.1056489-.3003134-.2360987-.591317-.39-.87 2.7531595-.6332772 5.5653024-.9751587 8.39-1.02 2.8204875.0413171 5.6289901.3764607 8.38 1-.1330909.2509335-.246757.5116969-.34.78-.72 2.09 0 4.22 1.52 4.76s3.43-.7 4.15-2.79c.0785997-.2213304.1388039-.4487686.18-.68 1.9980751.9976217 3.4881856 2.7850291 4.11 4.93 1.24 4.92-3 9-7 6z" fill="#37474f"/><path id="Shape" d="m20.44 41.65c-1.57.55-3.43-.7-4.15-2.79-.0853017-.2514619-.1521457-.5088115-.2-.77 1.7160455-.9578782 3.561916-1.6618689 5.48-2.09.1539013.278683.2843511.5696866.39.87.72 2.13.04 4.24-1.52 4.78z" fill="#f5f5f5"/><path id="Shape" d="m22 36.89c-.1056489-.3003134-.2360987-.591317-.39-.87-.8970025.2110795-1.7816796.471475-2.65.78v.09c.6303348 1.4990774.2903638 3.2305575-.86 4.38.676699.4879443 1.5436694.6287344 2.34.38 1.56-.54 2.24-2.65 1.56-4.76z" fill="#cfd8dc"/><path id="Shape" d="m43.89 38.07c-.0411961.2312314-.1014003.4586696-.18.68-.72 2.09-2.58 3.34-4.15 2.79s-2.24-2.67-1.56-4.76c.093243-.2683031.2069091-.5290665.34-.78 1.9376428.4272539 3.8058226 1.1240345 5.55 2.07z" fill="#f5f5f5"/><path id="Shape" d="m38.38 36c-.1330909.2509335-.246757.5116969-.34.78.9871302.3386498 1.9411248.7671105 2.85 1.28-.0411961.2312314-.1014003.4586696-.18.68-.3210681.980948-.9574162 1.8282401-1.81 2.41.1959991.1644114.4194075.2930404.66.38 1.57.55 3.43-.7 4.15-2.79.0785997-.2213304.1388039-.4487686.18-.68-1.7321748-.9390279-3.5866391-1.6323485-5.51-2.06z" fill="#cfd8dc"/><ellipse id="Oval" cx="10" cy="31" fill="#ef314c" rx="5" ry="3"/><ellipse id="Oval" cx="50" cy="31" fill="#ef314c" rx="5" ry="3"/><g fill="#000"><path id="Shape" d="m30 0c-16.5685425 0-30 13.4314575-30 30s13.4314575 30 30 30 30-13.4314575 30-30c0-7.9564947-3.1607052-15.5871121-8.7867966-21.21320344-5.6260913-5.62609135-13.2567087-8.78679656-21.2132034-8.78679656zm0 58c-15.463973 0-28-12.536027-28-28s12.536027-28 28-28 28 12.536027 28 28-12.536027 28-28 28z"/><path id="Shape" d="m29.44 32h.56c5.2327155-.0022165 10.0274069-2.9223878 12.4304633-7.5706817s2.0132995-10.2487007-1.0104633-14.5193183c-.5625282-.74699978-1.567585-1.00449366-2.42-.62-2.8504945 1.1828177-5.9143303 1.7649465-9 1.71-3.0856697.0549465-6.1495055-.5271823-9-1.71-.862933-.4063826-1.8927557-.1468338-2.46.62-1.8687961 2.6131167-2.7703203 5.794967-2.55 9 .5195515 7.1407202 6.2978148 12.7643237 13.45 13.09zm5.56-18c0 2.7614237-2.2385763 5-5 5s-5-2.2385763-5-5c.0039067-.4774931.0745917-.9520922.21-1.41.66.11 1.33.21 2 .27-.1460069.361995-.2174336.7497397-.21 1.14 0 1.6568542 1.3431458 3 3 3s3-1.3431458 3-3c.0010961-.391632-.0771436-.7794285-.23-1.14.69-.06 1.36-.16 2-.27.1421843.4569417.2196045.9315609.23 1.41zm-4 0c0 .5522847-.4477153 1-1 1s-1-.4477153-1-1 .4477153-1 1-1 1 .4477153 1 1zm-10.79-2.89c.9689183.4331757 1.9724287.7844044 3 1.05-.150033.6015344-.2206334 1.2201287-.21 1.84 0 3.8659932 3.1340068 7 7 7s7-3.1340068 7-7c-.0031106-.621585-.0871505-1.2401187-.25-1.84 1.0503867-.2652504 2.0771805-.616434 3.07-1.05 2.6248966 3.7351587 2.9030188 8.6362082.7175346 12.6443439-2.1854843 4.0081357-6.4559694 6.4290023-11.0175346 6.2456561-6.1222269-.2772514-11.0704356-5.08801-11.52-11.2-.1951648-2.7439465.587789-5.4683423 2.21-7.69z"/><path id="Shape" d="m44.45 37.25h-.06c-5.53-3.25-13.9-3.25-14.39-3.25-.69 0-16.81.1-19 8.76-.8278541 2.748436.1510845 5.7212126 2.45 7.44 1.9047857 1.2316643 4.391736 1.0691186 6.12-.4.5290295-.3958264 1.0364263-.8197698 1.52-1.27 1.73-1.53 2.85-2.53 8.91-2.53s7.18 1 8.88 2.53c.4835737.4502302.9909705.8741736 1.52 1.27.9790775.7614414 2.1798032 1.1827487 3.42 1.2.96297.001024 1.9038913-.2882222 2.7-.83 2.3099798-1.7109915 3.3013889-4.6852189 2.48-7.44-.6920993-2.3780705-2.3397225-4.3624606-4.55-5.48zm-5.45-.07c1.2888074.3365503 2.5414772.7987653 3.74 1.38-.2854713.8174668-.8622313 1.5010342-1.62 1.92-.3670536.2014708-.8003196.2447974-1.2.12-1.04-.35-1.45-1.91-.92-3.42zm-18 0c.53 1.54.12 3.14-.9 3.49-.3996804.1247974-.8329464.0814708-1.2-.12-.7895359-.42888-1.3838935-1.1449735-1.66-2 1.205323-.5764444 2.4648126-1.0320044 3.76-1.36zm24.41 11.32c-1.197367.7688343-2.7626568.6332581-3.81-.33-.4802653-.3654478-.9409061-.7559911-1.38-1.17-2.11-1.88-3.73-3-10.22-3s-8.11 1.16-10.22 3c-.439345.4105931-.8999812.7977946-1.38 1.16-1.0473432.9632581-2.612633 1.0988343-3.81.33-1.5821418-1.2498024-2.2169072-3.3537103-1.59-5.27.4053081-1.4628666 1.3158544-2.734797 2.57-3.59.4599402 1.1773104 1.3204247 2.1546509 2.43 2.76.5136097.2526049 1.0776474.3859229 1.65.39.3707612.0003684.7390421-.0604486 1.09-.18 2-.7 3-3.31 2.18-5.87 2.3343031-.4486081 4.7032709-.6928661 7.08-.73 2.3508873.0509445 4.692957.3052264 7 .76-.75 2.52.2 5.06 2.2 5.76.3541787.1204614.7258986.1812883 1.1.18.5916832-.0053756 1.1738886-.1492146 1.7-.42 1.1030826-.5817485 1.969299-1.5292832 2.45-2.68 1.2517767.8667073 2.1553917 2.1494863 2.55 3.62.6315741 1.9192617-.0036364 4.02864-1.59 5.28z"/><path id="Shape" d="m16 31c0-2.24-2.64-4-6-4s-6 1.76-6 4 2.64 4 6 4 6-1.76 6-4zm-6 2c-2.29 0-4-1.06-4-2s1.71-2 4-2 4 1.06 4 2-1.71 2-4 2z"/><path id="Shape" d="m44 31c0 2.24 2.64 4 6 4s6-1.76 6-4-2.64-4-6-4-6 1.76-6 4zm6-2c2.29 0 4 1.06 4 2s-1.71 2-4 2-4-1.06-4-2 1.71-2 4-2z"/></g></g></g></svg>