<svg height="512" viewBox="0 0 60 60" width="512" xmlns="http://www.w3.org/2000/svg"><g id="Page-1" fill="none" fill-rule="evenodd"><g id="035---Happy" fill-rule="nonzero"><circle id="Oval" cx="30" cy="30" fill="#ff9801" r="29"/><path id="Shape" d="m30 1c-.5 0-1 0-1.5 0 16.0162576.00000024 28.9999996 12.9837424 28.9999996 29s-12.983742 28.9999998-28.9999996 29h1.5c16.0162576-.0000002 28.9999996-12.9837424 28.9999996-29s-12.983742-28.99999976-28.9999996-29z" fill="#f57c00"/><circle id="Oval" cx="30" cy="19" fill="#cfd8dc" r="14"/><path id="Shape" d="m38 19c.0021051 2.6899927-1.3478415 5.2009582-3.5928428 6.6828605-2.2450013 1.4819022-5.0844683 1.7363253-7.5571572.6771395.9162687-.7129933 1.3388895-1.8906596 1.0850449-3.0235633s-1.1385779-2.017637-2.2714816-2.2714816-2.31057.1687762-3.0235633 1.0850449c-1.0591858-2.4726889-.8047627-5.3121559.6771395-7.5571572 1.4819023-2.2450013 3.9928678-3.5949479 6.6828605-3.5928428-1.703113 1.2773347-2.4106496 3.4930002-1.7630411 5.5209995s2.5083234 3.4235355 4.6365331 3.4773998c2.1282097.0538644 4.0571383-1.2457571 4.806508-3.2383993.2138721.7273842.3216497 1.481827.32 2.24z" fill="#37474f"/><path id="Shape" d="m38 15c.0020046.601312-.1064618 1.1978776-.32 1.76-.7493697 1.9926422-2.6782983 3.2922637-4.806508 3.2383993-2.1282097-.0538643-3.9889246-1.4494005-4.6365331-3.4773998s.0599281-4.2436648 1.7630411-5.5209995c.8634151-.6530436 1.9174418-1.00438582 3-1 2.7614237 0 5 2.2385763 5 5z" fill="#f5f5f5"/><path id="Shape" d="m28 24c0 1.6568542-1.3431458 3-3 3s-3-1.3431458-3-3 1.3431458-3 3-3 3 1.3431458 3 3z" fill="#f5f5f5"/><path id="Shape" d="m51 34.9v.1c-.066879 7.0434795-3.8762394 13.519392-10 17-1.87-3-6.08-5-11-5s-9.1 2.07-11 5c-6.1237606-3.480608-9.93312095-9.9565205-10-17v-.1c.0270869-1.2885925.65134908-2.4914579 1.6894592-3.2553503 1.0381102-.7638923 2.37222-1.0020931 3.6105408-.6446497l2.86 9.31c.1244765.3931049.4774782.6695009.8889646.6960484.4114865.0265475.7970778-.2021973.9710354-.5760484.8217952-1.7875893 1.9755653-3.4028674 3.4-4.76 4.8954249 1.7865768 10.2645751 1.7865768 15.16 0 1.4305803 1.3524127 2.5911625 2.9643324 3.42 4.75.1739576.3738511.5595489.6025959.9710354.5760484.4114864-.0265475.7644881-.3029435.8889646-.6960484l2.84-9.3c1.2383208-.3574434 2.5724306-.1192426 3.6105408.6446497 1.0381101.7638924 1.6623723 1.9667578 1.6894592 3.2553503z" fill="#37474f"/><path id="Shape" d="m22.42 35.66c-1.4316105 1.3553695-2.5922509 2.9707637-3.42 4.76-.1739576.3738511-.5595489.6025959-.9710354.5760484-.4114864-.0265475-.7644881-.3029435-.8889646-.6960484l-2.84-9.3c.6157246.1692892 1.1861385.4732822 1.67.89 1.9092572 1.6294492 4.0933243 2.906028 6.45 3.77z" fill="#f5f5f5"/><path id="Shape" d="m41 52.05c-6.7843682 3.9336998-15.1556318 3.9336998-21.94 0 1.87-3 6.08-5 11-5s9.04 2.02 10.94 5z" fill="#ef314c"/><path id="Shape" d="m30 47c-.51 0-1 0-1.5.08 4.24.37 7.79 2.3 9.47 5-2.8862207 1.6974779-6.1290216 2.6973701-9.47 2.9200005.5-.0000005 1-.0000005 1.5-.0000005 3.8688534.0008123 7.6672464-1.0351131 11-3-1.9-2.93-6.11-5-11-5z" fill="#bb193b"/><path id="Shape" d="m45.7 31-2.86 9.3c-.1244765.3931049-.4774782.6695009-.8889646.6960484-.4114865.0265475-.7970778-.2021973-.9710354-.5760484-.8217952-1.7875893-1.9755653-3.4028674-3.4-4.76 2.3468092-.8701938 4.5205262-2.1500459 6.42-3.78.4935377-.4170567 1.0745328-.7178071 1.7-.88z" fill="#f5f5f5"/><g fill="#000"><path id="Shape" d="m30 0c-16.5685425 0-30 13.4314575-30 30s13.4314575 30 30 30 30-13.4314575 30-30c0-7.9564947-3.1607052-15.5871121-8.7867966-21.21320344-5.6260913-5.62609135-13.2567087-8.78679656-21.2132034-8.78679656zm0 58c-15.463973 0-28-12.536027-28-28s12.536027-28 28-28 28 12.536027 28 28-12.536027 28-28 28z"/><path id="Shape" d="m30 34c8.2842712 0 15-6.7157288 15-15s-6.7157288-15-15-15-15 6.7157288-15 15 6.7157288 15 15 15zm0-28c7.1797017 0 13 5.8202983 13 13s-5.8202983 13-13 13-13-5.8202983-13-13 5.8202983-13 13-13z"/><path id="Shape" d="m25 28c.703548.0066228 1.3953928-.1801753 2-.54 2.7504141.9724312 5.8015538.5514283 8.1858514-1.1295015 2.3842977-1.6809298 3.805958-4.413251 3.8141486-7.3304985-.0058597-.7358831-.1032749-1.4681769-.29-2.18.1940636-.5870869.2919922-1.2016735.29-1.82.0057663-2.2181146-1.2126816-4.2584557-3.168223-5.30531941s-4.3291082-.92944274-6.171777.30531941c-2.8567849.1152198-5.4888762 1.5809662-7.0911794 3.9489019-1.6023032 2.3679358-1.984179 5.356328-1.0288206 8.0510981-.3598247.6046072-.5466228 1.296452-.54 2 0 2.209139 1.790861 4 4 4zm-2-4c0-1.1045695.8954305-2 2-2s2 .8954305 2 2-.8954305 2-2 2-2-.8954305-2-2zm14-9c0 2.209139-1.790861 4-4 4s-4-1.790861-4-4 1.790861-4 4-4 4 1.790861 4 4zm-9.42-2.56c-.3821388.7992933-.5803268 1.6740543-.58 2.56-.0031049 2.3675327 1.3862973 4.5155305 3.5469172 5.4834883 2.16062.9679577 4.6884284.5748703 6.4530828-1.0034883-.2527478 3.6773788-3.3139559 6.5286755-7 6.52-.4944641.0022388-.9875961-.0514355-1.47-.16.3047285-.5656891.4661066-1.1974671.47-1.84 0-2.209139-1.790861-4-4-4-.6425329.0038934-1.2743109.1652715-1.84.47-.1085645-.4824039-.1622388-.9755359-.16-1.47.0035075-2.9296306 1.8310082-5.5471862 4.58-6.56z"/><path id="Shape" d="m43.38 31.12c-7.7330353 6.5077568-19.0269647 6.5077568-26.76 0-1.5645014-1.3580087-3.7804144-1.671212-5.66-.8-1.81464577.7919523-2.99105151 2.580089-3 4.56v.12c0 11.58 9.87 21 22 21s22-9.42 22-21v-.1c-.0049916-1.9835445-1.182043-3.776586-3-4.57-1.8560583-.8393574-4.0298828-.5315937-5.58.79zm.62 2.07-2.12 6.81c-.6715731-1.4412896-1.5325072-2.786499-2.56-4 1.6712821-.7374435 3.2435377-1.6814687 4.68-2.81zm-23.32 2.81c-1.0297336 1.2118451-1.890869 2.5573692-2.56 4l-2.12-6.81c1.4383462 1.1257945 3.010248 2.0696073 4.68 2.81zm-.15 15.71c1.97-2.27 5.54-3.71 9.47-3.71s7.51 1.44 9.47 3.73c-5.9490756 3.0329394-12.9909244 3.0329394-18.94 0zm29.47-16.81v.1c-.0558027 6.3888399-3.3609971 12.3095475-8.77 15.71-2.3-2.89-6.58-4.71-11.23-4.71s-8.93 1.82-11.23 4.71c-5.423395-3.4341056-8.7277162-9.3909263-8.77-15.81-.00590162-1.194284.6971469-2.2783142 1.79-2.76.4403668-.1973712.9174255-.2995981 1.4-.3h.33l2.69 8.73c.2374865.8050516.9523784 1.3761664 1.79 1.43h.14c.775221-.0001499 1.4805311-.4482751 1.81-1.15.6861421-1.4929284 1.6154503-2.8615459 2.75-4.05 4.7351091 1.6003086 9.8648909 1.6003086 14.6 0 1.1452214 1.1861888 2.0847572 2.554937 2.78 4.05.3294689.7017249 1.034779 1.1498501 1.81 1.15h.11c.8220853-.0574396 1.5247774-.6132412 1.77-1.4l2.68-8.73c.5911691-.057587 1.1871771.0388767 1.73.28 1.101261.471133 1.8167289 1.5521972 1.82 2.75z"/></g></g></g></svg>