<svg id="Capa_1" enable-background="new 0 0 60 60" height="512" viewBox="0 0 60 60" width="512" xmlns="http://www.w3.org/2000/svg"><g id="Page-1"><g id="_x30_36---Crying-Laughter"><path id="Shape" d="m59 34v.34c-.642-.227-1.319-.342-2-.34-3.026.009-5.571 2.271-5.937 5.274s1.562 5.81 4.497 6.546c-4.89 7.85-14.5 13.18-25.56 13.18s-20.67-5.33-25.56-13.18c2.153-.527 3.841-2.198 4.388-4.346s-.134-4.423-1.773-5.916-3.967-1.962-6.055-1.218c0-.11 0-.23 0-.34.153-5.198 1.523-10.287 4-14.86-2.41-3.72-2.27-8.58-1.52-12.49.192-.816.843-1.445 1.666-1.609.822-.163 1.664.168 2.154.849 1.166 1.611 2.676 2.943 4.42 3.9 4.98-5.19 11.35-8.79 18.28-8.79s13.3 3.6 18.28 8.79c1.744-.957 3.254-2.289 4.42-3.9.49-.681 1.332-1.012 2.154-.849.822.164 1.473.792 1.666 1.609.75 3.91.89 8.77-1.56 12.49 2.491 4.569 3.874 9.659 4.04 14.86z" fill="#60a917"/><path id="Shape_1_" d="m48.36 9.88c-4.99-5.23-11.36-8.88-18.36-8.88-.5 0-1 .02-1.5.06 6.81.51 13 4.44 17.78 9.81z" fill="#549414"/><path id="Shape_2_" d="m55 19.14c2.45-3.72 2.31-8.58 1.56-12.49-.18-.745-.749-1.335-1.487-1.542-.738-.208-1.531 0-2.073.542.287.266.483.616.56 1 .67 3.48.85 7.71-.84 11.22-.405.851-.405 1.839 0 2.69 2.053 4.19 3.172 8.775 3.28 13.44 0 13.38-12.18 24.29-27.5 25h1.5c16 0 29-11.19 29-25-.153-5.198-1.523-10.287-4-14.86z" fill="#549414"/><g fill="#ffdc00"><circle id="Oval" cx="14" cy="46" r="2"/><path id="Shape_3_" d="m9 40c-.002 2.757-1.883 5.158-4.56 5.82-2.179-3.438-3.369-7.41-3.44-11.48.642-.227 1.319-.342 2-.34 1.591 0 3.117.632 4.243 1.757s1.757 2.652 1.757 4.243z"/><circle id="Oval_1_" cx="46" cy="46" r="2"/><circle id="Oval_2_" cx="53" cy="29" r="2"/><circle id="Oval_3_" cx="7" cy="29" r="2"/><path id="Shape_4_" d="m59 34.34c-.068 4.069-1.255 8.041-3.43 11.48-2.162-.517-3.861-2.187-4.415-4.341s.128-4.436 1.772-5.932 3.981-1.961 6.073-1.207z"/></g><path id="Shape_5_" d="m57 34c-.516.005-1 .088-1 .088s-.001.142-.01.252c-.057 3.61-1.001 7.151-2.75 10.31.677.557 1.47.957 2.32 1.17 2.179-3.438 3.369-7.41 3.44-11.48-.642-.227-1.319-.342-2-.34z" fill="#fec108"/><path id="Shape_6_" d="m45.94 31.09c-.25 2.91-1.57 10.91-8.5 14.33-1.41-2.794-4.312-4.518-7.44-4.42-3.128-.098-6.03 1.626-7.44 4.42-6.93-3.42-8.25-11.42-8.5-14.33-.025-.28.069-.559.259-.766s.459-.325.741-.324h4.51l2.56 4.48c.178.313.51.507.87.507s.692-.194.87-.507l2.56-4.48h7.14l2.56 4.48c.178.313.51.507.87.507s.692-.194.87-.507l2.56-4.48h4.51c.282-.001.551.116.741.324s.284.486.259.766z" fill="#37474f"/><path id="Shape_7_" d="m26.43 30-2.56 4.48c-.178.313-.51.507-.87.507s-.692-.194-.87-.507l-2.56-4.48z" fill="#f5f5f5"/><path id="Shape_8_" d="m37.44 45.42c-2.324 1.095-4.871 1.636-7.44 1.58-2.569.056-5.116-.485-7.44-1.58 1.41-2.794 4.312-4.518 7.44-4.42 3.128-.098 6.03 1.626 7.44 4.42z" fill="#ef314c"/><path id="Shape_9_" d="m30 41c-.503.006-1.005.053-1.5.14 2.567.353 4.793 1.956 5.94 4.28-1.863.883-3.881 1.392-5.94 1.5.49 0 1 .08 1.5.08 2.569.056 5.116-.485 7.44-1.58-1.41-2.794-4.312-4.518-7.44-4.42z" fill="#ad1457"/><path id="Shape_10_" d="m40.43 30-2.56 4.48c-.178.313-.51.507-.87.507s-.692-.194-.87-.507l-2.56-4.48z" fill="#f5f5f5"/><path id="Shape_11_" d="m57.51 6.46c-.228-1.209-1.172-2.157-2.38-2.39-1.236-.277-2.518.216-3.25 1.25-.93 1.285-2.102 2.375-3.45 3.21-5.51-5.53-12.03-8.53-18.43-8.53s-12.92 3-18.43 8.53c-1.348-.835-2.52-1.925-3.45-3.21-.732-1.034-2.014-1.527-3.25-1.25-1.208.233-2.152 1.181-2.38 2.39-.98 5.16-.49 9.54 1.42 12.73-2.416 4.574-3.754 9.64-3.91 14.81.011 4.348 1.248 8.604 3.57 12.28.021.05.048.097.08.14 5.09 8.08 14.99 13.58 26.35 13.58s21.26-5.5 26.35-13.58c.032-.043.059-.09.08-.14 2.322-3.676 3.559-7.932 3.57-12.28-.156-5.17-1.493-10.236-3.91-14.81 1.91-3.19 2.4-7.57 1.42-12.73zm-55.51 28.64c.329-.065.664-.099 1-.1 2.383.006 4.431 1.693 4.893 4.031s-.791 4.677-2.993 5.589c-1.707-2.899-2.701-6.162-2.9-9.52zm53.1 9.52c-2.202-.911-3.455-3.251-2.993-5.589s2.51-4.025 4.893-4.031c.336.001.671.035 1 .1-.199 3.358-1.193 6.621-2.9 9.52zm2.9-11.54c-.331-.049-.665-.076-1-.08-3.27.004-6.101 2.272-6.819 5.462s.867 6.452 3.819 7.858c-4.88 6.99-13.81 11.68-24 11.68s-19.12-4.69-24-11.68c2.441-1.158 3.998-3.618 4-6.32 0-3.866-3.134-7-7-7-.335.004-.669.031-1 .08.269-4.2 1.367-8.306 3.23-12.08.22.24.44.47.67.69.188.189.443.296.71.296s.522-.106.71-.296c.388-.39.388-1.02 0-1.41-3.8-3.59-3.65-9.28-2.86-13.45.068-.427.403-.762.83-.83.447-.11.917.059 1.19.43 1.823 2.428 4.295 4.293 7.13 5.38.473.114.96-.13 1.152-.576s.036-.968-.372-1.234c-.35-.14-.68-.3-1-.46 5.03-4.87 10.89-7.54 16.61-7.54s11.58 2.67 16.62 7.54c-.33.16-.66.32-1 .46-.486.229-.705.801-.495 1.295.21.495.773.735 1.275.545 2.835-1.087 5.307-2.952 7.13-5.38.264-.378.73-.559 1.18-.46.418.064.75.385.83.8.79 4.16.94 9.86-2.82 13.45-.316.278-.424.725-.269 1.117s.538.645.959.633c.257-.001.505-.101.69-.28.23-.22.45-.45.67-.69 1.859 3.765 2.957 7.86 3.23 12.05z"/><path id="Shape_12_" d="m14 43c-1.657 0-3 1.343-3 3s1.343 3 3 3 3-1.343 3-3-1.343-3-3-3zm0 4c-.552 0-1-.448-1-1s.448-1 1-1 1 .448 1 1-.448 1-1 1z"/><path id="Shape_13_" d="m46 43c-1.657 0-3 1.343-3 3s1.343 3 3 3 3-1.343 3-3-1.343-3-3-3zm0 4c-.552 0-1-.448-1-1s.448-1 1-1 1 .448 1 1-.448 1-1 1z"/><path id="Shape_14_" d="m50 29c0 1.657 1.343 3 3 3s3-1.343 3-3-1.343-3-3-3-3 1.343-3 3zm4 0c0 .552-.448 1-1 1s-1-.448-1-1 .448-1 1-1 1 .448 1 1z"/><path id="Shape_15_" d="m7 26c-1.657 0-3 1.343-3 3s1.343 3 3 3 3-1.343 3-3-1.343-3-3-3zm0 4c-.552 0-1-.448-1-1s.448-1 1-1 1 .448 1 1-.448 1-1 1z"/><path id="Shape_16_" d="m14 26c.159.09.338.138.52.14.351.002.677-.18.86-.48 3.31-5.5 10.07-3.76 10.36-3.66.406.11.838-.046 1.08-.39.247-.347.247-.813 0-1.16-4.1-5.63-11.06-4.31-11.35-4.25-.552.105-.915.638-.81 1.19s.638.915 1.19.81c2.585-.434 5.238.123 7.43 1.56-3.867-.253-7.562 1.636-9.62 4.92-.251.461-.102 1.037.34 1.32z"/><path id="Shape_17_" d="m34.26 22c.07 0 7-1.84 10.37 3.68.183.3.509.482.86.48.181-.009.356-.064.51-.16.229-.137.394-.36.458-.619s.021-.533-.118-.761c-2.058-3.284-5.753-5.173-9.62-4.92 2.189-1.436 4.838-1.993 7.42-1.56.357.07.725-.057.964-.331.239-.275.313-.656.195-1s-.411-.599-.769-.669c-.29-.06-7.25-1.38-11.35 4.25-.247.347-.247.813 0 1.16.226.367.661.548 1.08.45z"/><path id="Shape_18_" d="m46.42 29.65c-.38-.415-.917-.651-1.48-.65h-29.88c-.563-.001-1.1.235-1.48.65-.378.412-.567.963-.52 1.52.34 3.95 2.57 16.83 16.94 16.83s16.6-12.88 16.94-16.83c.047-.557-.142-1.108-.52-1.52zm-7.71 1.35-1.71 3-1.71-3zm-14 0-1.71 3-1.71-3zm-.71 13.94c1.442-1.848 3.656-2.929 6-2.929s4.558 1.081 6 2.929c-1.915.729-3.951 1.089-6 1.06-2.049.029-4.085-.331-6-1.06zm13.82-.94c-1.76-2.573-4.704-4.079-7.82-4-3.116-.079-6.06 1.427-7.82 4-5.75-3.43-6.9-10.43-7.12-13h3.94l2.28 4c.355.615 1.01.996 1.72 1 .717.003 1.381-.379 1.74-1l2.26-4h6l2.28 4c.355.615 1.01.996 1.72 1 .717.003 1.381-.379 1.74-1l2.26-4h4c-.28 2.61-1.43 9.61-7.18 13z"/></g></g></svg>