<svg height="512" viewBox="0 0 60 60" width="512" xmlns="http://www.w3.org/2000/svg"><g id="Page-1" fill="none" fill-rule="evenodd"><g id="038---Heart-Eyed"><path id="Shape" d="m36 7s3 1 3 5c-2.1128254-1.2357795-4.6256693-1.5947572-7-1" stroke="#000" stroke-linecap="round" stroke-linejoin="round" stroke-width="2"/><path id="Shape" d="m24 7s-3 1-3 5c2.1128254-1.2357795 4.6256693-1.5947572 7-1" stroke="#000" stroke-linecap="round" stroke-linejoin="round" stroke-width="2"/><g fill-rule="nonzero"><path id="Shape" d="m58.91 27.76c.0239877.3809301-.1709582.7422929-.502484.9314326-.3315257.1891397-.7418044.1730653-1.057516-.0414326l-.57-.37c-.3971234-.2477922-.9129988-.1869518-1.2415811.1464273-.3285822.3333791-.3819402.850082-.1284189 1.2435727 1.5537346 2.5448208 2.2544199 5.5192299 2 8.49-.0313831.4012774-.3002902.7446271-.6823557.8712545-.3820654.1266274-.8028096.0118479-1.0676443-.2912545-.2405996-.2632678-.5013926-.5073432-.78-.73-.3087906-.2320913-.7236411-.2655771-1.0656592-.0860176s-.5500317.540049-.5343408.9260176c.215778 4.3960367-1.2950163 8.7023389-4.21 12-.2069277.2428286-.5173023.3723469-.8354572.3486335-.3181548-.0237134-.6058995-.197812-.7745428-.4686335-.2631459-.4565398-.601193-.8655768-1-1.21-.2649895-.2250526-.6278494-.2963245-.9582763-.1882218-.3304269.1081026-.5809945.3800637-.6617237.7182218-.58 2.44-3 8.15-12.79 8.84.95-2.89-2.05-4.89-2.05-4.89s-2.95 2-2 4.93c-9.79-.69-12.21-6.4-12.79-8.84-.0807292-.3381581-.3312968-.6101192-.6617237-.7182218-.3304269-.1081027-.6932868-.0368308-.9582763.1882218-.398807.3444232-.7368541.7534602-1 1.21-.1686433.2708215-.456388.4449201-.7745428.4686335-.3181549.0237134-.6285295-.1058049-.8354572-.3486335-2.9149837-3.2976611-4.42577804-7.6039633-4.21-12 .04070927-.3985689-.16039391-.7829618-.51102862-.9767909-.35063472-.1938291-.7831088-.1596746-1.09897138.0867909-.27860744.2226568-.53940035.4667322-.78.73-.26483468.3031024-.68557892.4178819-1.06764434.2912545s-.65097258-.4699771-.68235566-.8712545c-.25441987-2.9707701.44626543-5.9451792 2-8.49.25352126-.3934907.20016335-.9101936-.12841892-1.2435727-.32858226-.3333791-.84445772-.3942195-1.24158108-.1464273l-.57.37c-.31571158.2144979-.72599027.2305723-1.05751603.0414326s-.52647171-.5505025-.50248397-.9314326c.30304237-4.1638077 1.51115161-8.2113149 3.54-11.86-2.67-4.39-1.57-10.09-.67-13.2.09523425-.36954865.41093212-.64041966.79066075-.67839253.37972863-.03797286.74281288.16501994.90933925.50839253 1.11906868 2.36864606 2.91911193 4.34973816 5.17 5.69 10.9380582-9.58263821 27.2819418-9.58263821 38.22 0 2.2440018-1.33374872 4.0375908-3.30843798 5.15-5.67.1619814-.34619774.5249621-.5523223.9052612-.51406736s.6949542.31254405.7847388.68406736c.92 3.11 2 8.78-.63 13.17 2.05578 3.6491447 3.2879447 7.7040248 3.61 11.88z" fill="#ff9801"/><path id="Shape" d="m48.92 8c-5.2569406-4.53727329-11.9758126-7.02311387-18.92-7-.5 0-1 0-1.5 0 6.948695.34241814 13.5398225 3.18342135 18.56 8z" fill="#f57c00"/><path id="Shape" d="m55.31 15.86c2.62-4.39 1.55-10.06.63-13.17-.0897846-.37152331-.4044397-.64581242-.7847388-.68406736s-.7432798.16786962-.9052612.51406736c-.2800428.55019215-.590524 1.08435336-.93 1.6.76 3.23 1.25 8-1 11.74 2.0550706 3.6559819 3.2838992 7.7179432 3.6 11.9.0100044.1574978-.0174094.3151274-.08.46.3200418-.1604458.7014387-.137562 1 .06l.57.37c.3157116.2144979.7259903.2305723 1.057516.0414326.3315258-.1891397.5264717-.5505025.502484-.9314326-.3345641-4.1866889-1.5839578-8.2489253-3.66-11.9z" fill="#f57c00"/><path id="Shape" d="m55.33 28.73c-.3235674.1545544-.7051194.1240302-1-.08l-.57-.37c-.3971234-.2477922-.9129988-.1869518-1.2415811.1464273-.3285822.3333791-.3819402.850082-.1284189 1.2435727 1.4903931 2.4457402 2.1889018 5.2921629 2 8.15.1677472.0203667.3267754.0860523.46.19.2786074.2226568.5394004.4667322.78.73.2648347.3031024.6855789.4178819 1.0676443.2912545.3820655-.1266274.6509726-.4699771.6823557-.8712545.2544199-2.9707701-.4462654-5.9451792-2-8.49-.17232-.285408-.1910708-.6379223-.05-.94z" fill="#f57c00"/><path id="Shape" d="m44.42 50.77c-.2631459-.4565398-.601193-.8655768-1-1.21-.2649895-.2250526-.6278494-.2963245-.9582763-.1882218-.3304269.1081026-.5809945.3800637-.6617237.7182218-.51 2.16-2.47 6.86-9.69 8.4-.0190199.1495565-.0525102.2969139-.1.44 8.81-.62 11.65-5.3 12.55-8-.0519108-.0485068-.0988133-.1021097-.14-.16z" fill="#f57c00"/><path id="Shape" d="m52.62 38.74c-.2405996-.2632678-.5013926-.5073432-.78-.73-.3087906-.2320913-.7236411-.2655771-1.0656592-.0860176s-.5500317.540049-.5343408.9260176c.2094308 3.9898187-1.0141767 7.9230962-3.45 11.09.236507.255508.4475076.5334929.63.83.1686433.2708215.456388.4449201.7745428.4686335.3181549.0237134.6285295-.1058049.8354572-.3486335 2.8750989-3.2542406 4.3863677-7.4908068 4.22-11.83-.2436253-.0206735-.469609-.1354589-.63-.32z" fill="#f57c00"/><path id="Shape" d="m19 21c1.1523018-1.2694098 2.7855966-1.9953187 4.5-2 2.66 0 4.5 2.59 4.5 5.58s-1.9 8.15-9 10.42c-7.1-2.27-9-7.43-9-10.42s1.84-5.58 4.5-5.58c1.7144034.0046813 3.3476982.7305902 4.5 2z" fill="#ef314c"/><path id="Shape" d="m23.5 19c-.5552464.0022986-1.1073785.0830984-1.64.24 1.91.76 3.14 2.89 3.14 5.34 0 2.77-1.63 7.38-7.5 9.86.47.2 1 .39 1.5.56 7.1-2.27 9-7.43 9-10.42s-1.84-5.58-4.5-5.58z" fill="#bb193b"/><path id="Shape" d="m41 21c1.1523018-1.2694098 2.7855966-1.9953187 4.5-2 2.66 0 4.5 2.59 4.5 5.58s-1.9 8.15-9 10.42c-7.1-2.27-9-7.43-9-10.42s1.84-5.58 4.5-5.58c1.7144034.0046813 3.3476982.7305902 4.5 2z" fill="#ef314c"/><path id="Shape" d="m45.5 19c-.5552464.0022986-1.1073785.0830984-1.64.24 1.91.76 3.14 2.89 3.14 5.34 0 2.77-1.63 7.38-7.5 9.86.47.2 1 .39 1.5.56 7.1-2.27 9-7.43 9-10.42s-1.84-5.58-4.5-5.58z" fill="#bb193b"/><path id="Shape" d="m42 43c0 1.83-1.64 3.47-4.22 4.56l-.73-1.46c-.3557289-.7106718-1.0984818-1.1432933-1.8921441-1.1020922-.7936624.041201-1.4876265.5484061-1.7678559 1.2920922l-1 2.59c-1.6093658.160011-3.2306342.160011-4.84 0l-1-2.59c-.307054-.6826757-.9696227-1.1367397-1.7171038-1.1767457-.747481-.040006-1.4547299.3407437-1.8328962.9867457l-.73 1.46c-2.63-1.09-4.27-2.73-4.27-4.56 0-3.31 5.37-6 12-6s12 2.69 12 6z" fill="#37474f"/><path id="Shape" d="m27.58 48.88c-1.8425015-.1702097-3.6491674-.6151349-5.36-1.32l.78-1.46c.3557289-.7106718 1.0984818-1.1432933 1.8921441-1.1020922.7936624.041201 1.4876265.5484061 1.7678559 1.2920922z" fill="#ffeb3a"/><path id="Shape" d="m37.78 47.56c-1.7108326.7048651-3.5174985 1.1497903-5.36 1.32l1-2.59c.2802294-.7436861.9741935-1.2508912 1.7678559-1.2920922.7936623-.0412011 1.5364152.3914204 1.8921441 1.1020922z" fill="#ffeb3a"/><path id="Shape" d="m32.24 12c2.1041201-.511994 4.3242086-.2045422 6.21.86.3108941.2049076.7098886.2201145 1.0354775.0394652.3255888-.1806493.5238468-.527235.5145225-.8994652 0-4.67-3.53-5.9-3.68-5.95-.5384776-.17673112-1.1182689.11652237-1.295.655s.1165224 1.11826888.655 1.295c1.0129667.43905891 1.7761234 1.30861727 2.08 2.37-1.9282844-.6829724-4.0148372-.78382245-6-.29-.3899991.0392297-.7211202.3026916-.8469704.6739059-.1258501.3712142-.0232219.7817271.2625114 1.0500455.2857333.2683185.7018811.3449632 1.064459.1960486z" fill="#000"/><path id="Shape" d="m20.53 12.88c.1444437.0779674.3058591.1191798.47.12.1960334-.0015308.3872933-.0606475.55-.17 1.8897766-1.0543718 4.109657-1.3510708 6.21-.83.5522847.1325483 1.1074517-.2077153 1.24-.76s-.2077153-1.1074517-.76-1.24c-1.9849284-.49620537-4.0721788-.3953216-6 .29.3220166-1.03253923 1.0830963-1.8704587 2.08-2.29.5246705-.17673112.8067311-.74532949.63-1.27s-.7453295-.80673112-1.27-.63c-.15 0-3.68 1.23-3.68 5.9.0009835.3685937.2046528.7067616.53.88z" fill="#000"/><path id="Shape" d="m1.09 29.56c.66375264.3812103 1.48686472.3501495 2.12-.08l.08-.06c.14-.09.29-.19.46-.28-1.65790066 2.7227271-2.40081011 5.9046223-2.12 9.08.04890425.817961.59181051 1.5233428 1.37 1.78.76780065.2765675 1.62662487.0588932 2.17-.55.20059233-.2225622.41430665-.4329372.64-.63-.23606111 4.6676839 1.36078049 9.2429042 4.45 12.75.4257505.4977809 1.0682681.7555351 1.72.69.6288246-.0494079 1.1932715-.4045235 1.51-.95.197684-.3775687.4619236-.7163374.78-1 .62 2.64 3.21 8.87 13.69 9.61.3320514.0243987.6544683-.1180646.86-.38.2020341-.2614075.2619165-.6057315.16-.92-.3194202-1.210598.0759745-2.4975691 1.02-3.32.9660306.8127692 1.3817799 2.106643 1.07 3.33-.0983996.3116604-.038293.6517384.1609758.9107878.1992688.2590495.5125511.4043769.8390242.3892122h.07c10.48-.74 13.07-7 13.7-9.6.3153069.283768.5762394.6226414.77 1 .3167285.5454765.8811754.9005921 1.51.95.6517319.0655351 1.2942495-.1922191 1.72-.69 3.0942186-3.5030447 4.6855541-8.0830735 4.43-12.75.2345418.1906196.4551078.397818.66.62.5410011.6124591 1.4001876.8341846 2.17.56.7489533-.2688016 1.26731-.9560169 1.32-1.75.2755905-3.1724281-.4594783-6.3507256-2.1-9.08l.44.28h.06c.6333156.4426065 1.4649299.480826 2.1361729.0981748s1.0620339-1.1177197 1.0038271-1.8881748c-.3173703-4.1424737-1.4994486-8.1724408-3.47-11.83 2.5-4.76 1.28-10.66.46-13.45-.2066869-.76361133-.8648904-1.31925372-1.6523556-1.39488597s-1.5393942.34457368-1.8876444 1.05488597c-.9518163 1.986489-2.4066185 3.68950394-4.22 4.94-11.113198-9.29323751-27.286802-9.29323751-38.4 0-1.80142992-1.25544784-3.24536183-2.95784012-4.19-4.94-.34825016-.71031229-1.10017918-1.13051822-1.88764442-1.05488597-.78746523.07563225-1.44566871.63127464-1.65235558 1.39488597-.83 2.79-2 8.71.48 13.49-1.96209749 3.6453866-3.1374218 7.6619297-3.45 11.79-.05570899.7667802.33303579 1.4976204 1 1.88zm3.71-11.77c.64490387.7578921 1.38425683 1.4300311 2.2 2 .16999974.1186733.37268193.1815747.58.18.32185737-.0014883.62332417-.1578044.81-.42.15499054-.2170921.21682506-.4871088.17175539-.7500152s-.19330778-.4969107-.41175539-.6499848c-5.42-3.83-4.4-10.95-3.23-15 1.43 2.72 4.56 7.05 10 7.05.5522847 0 1-.44771525 1-1s-.4477153-1-1-1c-.7243834-.00189267-1.4448561-.10626022-2.14-.31 10.0965581-7.87322285 24.2534419-7.87322285 34.35 0-.6905016.21157298-1.4078488.32271128-2.13.33-.5522847 0-1 .44771525-1 1s.4477153 1 1 1c5.47 0 8.61-4.32 10-7 1.16 4 2.2 11.18-3.23 15-.3289013.2637659-.4570438.705478-.3203652 1.1043106.1366785.3988326.5088144.6691009.9303652.6756894.2073181.0015747.4100003-.0613267.58-.18.8290819-.5839424 1.5757865-1.2768305 2.22-2.06 1.5411832 3.1493182 2.4677287 6.5636213 2.73 10.06l-.09-.06-.51-.33c-.7922051-.4875164-1.8159402-.3644996-2.470096.2968184-.6541557.661318-.7660178 1.686332-.269904 2.4731816 1.4216491 2.361247 2.0490057 5.1160085 1.79 7.86-.2765032-.2975274-.5739283-.5749015-.89-.83-.6098829-.4908551-1.4500863-.5807373-2.15-.23-.7013454.361758-1.1243992 1.1021022-1.08 1.89.1944789 4.1597094-1.2404618 8.2313539-4 11.35-.317434-.5548092-.7265544-1.0518397-1.21-1.47-.5313453-.4451321-1.2552889-.5834019-1.9132843-.3654282-.6579953.2179737-1.1562109.7611073-1.3167157 1.4354282-.5 2.11-2.53 6.94-10.63 8 0-2.81-2.53-4.56-2.65-4.64-.3383157-.2286765-.7816843-.2286765-1.12 0-.12.08-2.68 1.83-2.65 4.64-8.1-1-10.13-5.84-10.63-8-.1631398-.6725992-.662424-1.2130491-1.3200199-1.4288546-.6575958-.2158054-1.3800266-.0762899-1.9099801.3688546-.4781227.4129726-.8837294.9030808-1.2 1.45-2.76391955-3.1081166-4.199897-7.1755227-4-11.33.06173955-.7759117-.33229361-1.5171622-1.01-1.9-.69348917-.3520374-1.52817205-.2701293-2.14.21-.33243458.257946-.63738102.5494882-.91.87-.25474157-2.7545257.37582238-5.5184977 1.8-7.89.50214902-.7832638.39784779-1.8093524-.25163837-2.4755533-.64948617-.6662009-1.67259386-.7965354-2.46836163-.3144467-.19.11-.36.23-.53.34l-.09.08c.25758303-3.4851965 1.17734008-6.8893158 2.71-10.03z" fill="#000"/><path id="Shape" d="m18.7 36c.1943804.0670499.4056196.0670499.6 0 7.16-2.29 9.7-7.56 9.7-11.37s-2.42-6.63-5.5-6.63c-1.6427945 0-3.234164.572893-4.5 1.62-1.265836-1.047107-2.8572055-1.62-4.5-1.62-3.08 0-5.5 2.89-5.5 6.58s2.54 9.08 9.7 11.42zm-4.2-16c1.41517.0044949 2.7653649.5945265 3.73 1.63.18842.232277.4709167.3680222.77.37.2990833-.0019778.58158-.137723.77-.37.9646351-1.0354735 2.31483-1.6255051 3.73-1.63 2.19 0 3.5 2.33 3.5 4.58 0 3.09-2.1 7.36-8 9.37-5.9-2-8-6.28-8-9.37 0-2.25 1.31-4.58 3.5-4.58z" fill="#000"/><path id="Shape" d="m40.7 36c.1945074.0662879.4054926.0662879.6 0 7.16-2.29 9.7-7.56 9.7-11.37s-2.42-6.63-5.5-6.63c-1.6427945 0-3.234164.572893-4.5 1.62-1.265836-1.047107-2.8572055-1.62-4.5-1.62-3.08 0-5.5 2.89-5.5 6.58s2.54 9.08 9.7 11.42zm-4.2-16c1.41517.0044949 2.7653649.5945265 3.73 1.63.18842.232277.4709167.3680222.77.37.2990833-.0019778.58158-.137723.77-.37.9646351-1.0354735 2.31483-1.6255051 3.73-1.63 2.19 0 3.5 2.33 3.5 4.58 0 3.09-2.1 7.36-8 9.37-5.9-2-8-6.28-8-9.37 0-2.25 1.31-4.58 3.5-4.58z" fill="#000"/><path id="Shape" d="m17 43c0 3.93 5.71 7 13 7s13-3.07 13-7-5.71-7-13-7-13 3.07-13 7zm6.61 4 .23-.47c.1787459-.3562883.5520176-.572393.95-.55.3938848.0211045.7385631.2717796.88.64l.38 1c-.8272666-.147342-1.6427436-.3545534-2.44-.62zm10.39.64.38-1c.1414369-.3682204.4861152-.6188955.88-.64.3979824-.022393.7712541.1937117.95.55l.23.47c-.7972564.2654466-1.6127334.472658-2.44.62zm-4-9.64c6.48 0 11 2.64 11 5 0 1.12-1 2.29-2.77 3.23l-.29-.58c-.5344985-1.0656867-1.6493076-1.7137406-2.8398628-1.6508516-1.1905553.0628891-2.2308861.8247847-2.6501372 1.9408516l-.74 2c-.56 0-1.12.07-1.71.07s-1.15 0-1.71-.07l-.74-2c-.4192511-1.1160669-1.4595819-1.8779625-2.6501372-1.9408516-1.1905552-.062889-2.3053643.5851649-2.8398628 1.6508516l-.29.58c-1.77-.94-2.77-2.11-2.77-3.23 0-2.36 4.52-5 11-5z" fill="#000"/></g></g></g></svg>