<svg height="512" viewBox="0 0 60 60" width="512" xmlns="http://www.w3.org/2000/svg"><g id="Page-1" fill="none" fill-rule="evenodd"><g id="042---Freaked" fill-rule="nonzero"><path id="Shape" d="m59 30c.0103621 5.8478342-1.7578621 11.5605587-5.07 16.38-2.2608031-1.0356172-4.9261329-.5693291-6.7010647 1.1723226-1.7749317 1.7416518-2.2915796 4.3976794-1.2989353 6.6776774-9.6821728 6.3605052-22.2178272 6.3605052-31.9 0 .9926443-2.279998.4759964-4.9360256-1.2989353-6.6776774-1.7749318-1.7416517-4.44026163-2.2079398-6.7010647-1.1723226-7.00649318-10.2889955-6.66513595-23.9017565.84824604-33.8266477 7.51338196-9.92489119 20.52262166-13.94775972 32.32694426-9.996514s19.7702912 14.9951188 19.7948097 27.4431617z" fill="#60a917"/><path id="Shape" d="m30 1c-.5 0-1 0-1.5 0 10.373409.53498319 19.6684964 6.57717041 24.3682248 15.8403434 4.6997284 9.2631729 4.0862824 20.3325162-1.6082248 29.0196566.9180729-.0333585 1.8315459.1445464 2.67.52 6.0766934-8.8780043 6.7391407-20.3904855 1.7208934-29.9069112-5.0182474-9.51642558-14.8924008-15.47269582-25.6508934-15.4730888z" fill="#549414"/><path id="Shape" d="m14.05 54.23c-3.1480733-2.0761198-5.86467239-4.7417827-8-7.85 2.26080307-1.0356172 4.9261329-.5693291 6.7010647 1.1723226 1.7749317 1.7416518 2.2915796 4.3976794 1.2989353 6.6776774z" fill="#ef314c"/><path id="Shape" d="m53.93 46.38c-2.1353276 3.1082173-4.8519267 5.7738802-8 7.85-.9926443-2.279998-.4759964-4.9360256 1.2989353-6.6776774 1.7749318-1.7416517 4.4402616-2.2079398 6.7010647-1.1723226z" fill="#bb193b"/><circle id="Oval" cx="24" cy="51" fill="#ef314c" r="3"/><circle id="Oval" cx="36" cy="51" fill="#ef314c" r="3"/><path id="Shape" d="m42 36c0 1.83-1.64 3.47-4.22 4.56l-.73-1.46c-.3557289-.7106718-1.0984818-1.1432933-1.8921441-1.1020922-.7936624.041201-1.4876265.5484061-1.7678559 1.2920922l-1 2.59c-1.6093658.160011-3.2306342.160011-4.84 0l-1-2.59c-.307054-.6826757-.9696227-1.1367397-1.7171038-1.1767457-.747481-.040006-1.4547299.3407437-1.8328962.9867457l-.73 1.46c-2.63-1.09-4.27-2.73-4.27-4.56 0-3.31 5.37-6 12-6s12 2.69 12 6z" fill="#37474f"/><path id="Shape" d="m37.78 40.56c-1.7108326.7048651-3.5174985 1.1497903-5.36 1.32l1-2.59c.2802294-.7436861.9741935-1.2508912 1.7678559-1.2920922.7936623-.0412011 1.5364152.3914204 1.8921441 1.1020922z" fill="#ffdc00"/><path id="Shape" d="m27.58 41.88c-1.8425015-.1702097-3.6491674-.6151349-5.36-1.32l.78-1.46c.3557289-.7106718 1.0984818-1.1432933 1.8921441-1.1020922.7936624.041201 1.4876265.5484061 1.7678559 1.2920922z" fill="#ffdc00"/><circle id="Oval" cx="20" cy="20" fill="#f5f5f5" r="8"/><path id="Shape" d="m20 12c-.5037755-.0006399-1.006327.0496153-1.5.15 3.7521084.7369975 6.4580856 4.0261952 6.4580856 7.85s-2.7059772 7.1130025-6.4580856 7.85c.493673.1003847.9962245.1506399 1.5.15 4.418278 0 8-3.581722 8-8s-3.581722-8-8-8z" fill="#cfd8dc"/><circle id="Oval" cx="40" cy="20" fill="#f5f5f5" r="8"/><path id="Shape" d="m40 12c-.5037755-.0006399-1.006327.0496153-1.5.15 3.7521084.7369975 6.4580856 4.0261952 6.4580856 7.85s-2.7059772 7.1130025-6.4580856 7.85c.493673.1003847.9962245.1506399 1.5.15 4.418278 0 8-3.581722 8-8s-3.581722-8-8-8z" fill="#cfd8dc"/><circle id="Oval" cx="20" cy="20" fill="#37474f" r="2"/><circle id="Oval" cx="40" cy="20" fill="#37474f" r="2"/><g fill="#000"><path id="Shape" d="m30 0c-16.5685425 0-30 13.4314575-30 30s13.4314575 30 30 30 30-13.4314575 30-30c0-7.9564947-3.1607052-15.5871121-8.7867966-21.21320344-5.6260913-5.62609135-13.2567087-8.78679656-21.2132034-8.78679656zm-22.29 46.92c1.57487981-.259552 3.1790399.2483879 4.3175097 1.3670926s1.6744235 2.7137239 1.4424903 4.2929074c-2.1802475-1.6021447-4.11992091-3.5081432-5.76-5.66zm38.82 5.66c-.2319332-1.5791835.3040205-3.1742027 1.4424903-4.2929074s2.7426299-1.6266446 4.3175097-1.3670926c-1.6400791 2.1518568-3.5797525 4.0578553-5.76 5.66zm7-7.42c-2.4549687-.7489797-5.1229651-.0943301-6.9524249 1.7059251s-2.5269551 4.4573723-1.8175751 6.9240749c-9.0319891 5.6142267-20.4680109 5.6142267-29.5 0 .70938-2.4667026.0118847-5.1238197-1.8175751-6.9240749s-4.49745622-2.4549048-6.9524249-1.7059251c-6.49059817-10.0339276-5.89771079-23.0813078 1.47616423-32.4852185 7.37387507-9.4039106 19.90333947-13.09147965 31.19571777-9.18126732 11.2923783 3.91021232 18.8585299 14.55629122 18.838118 26.50648582.0057326 5.3804712-1.5505764 10.64691-4.48 15.16z"/><path id="Shape" d="m24 47c-2.209139 0-4 1.790861-4 4s1.790861 4 4 4 4-1.790861 4-4-1.790861-4-4-4zm0 6c-1.1045695 0-2-.8954305-2-2s.8954305-2 2-2 2 .8954305 2 2-.8954305 2-2 2z"/><path id="Shape" d="m36 47c-2.209139 0-4 1.790861-4 4s1.790861 4 4 4 4-1.790861 4-4-1.790861-4-4-4zm0 6c-1.1045695 0-2-.8954305-2-2s.8954305-2 2-2 2 .8954305 2 2-.8954305 2-2 2z"/><path id="Shape" d="m30 29c-7.29 0-13 3.08-13 7s5.71 7 13 7 13-3.08 13-7-5.71-7-13-7zm-6.39 11 .23-.47c.1787459-.3562883.5520176-.572393.95-.55.3938848.0211045.7385631.2717796.88.64l.38 1c-.8272666-.147342-1.6427436-.3545534-2.44-.62zm10.39.64.38-1c.1414369-.3682204.4861152-.6188955.88-.64.3979824-.022393.7712541.1937117.95.55l.23.47c-.7972564.2654466-1.6127334.472658-2.44.62zm4.28-1.41-.29-.58c-.5344985-1.0656867-1.6493076-1.7137406-2.8398628-1.6508516-1.1905553.0628891-2.2308861.8247847-2.6501372 1.9408516l-.74 2c-.56 0-1.12.07-1.71.07s-1.15 0-1.71-.07l-.74-2c-.4192511-1.1160669-1.4595819-1.8779625-2.6501372-1.9408516-1.1905552-.062889-2.3053643.5851649-2.8398628 1.6508516l-.29.58c-1.82-.94-2.82-2.11-2.82-3.23 0-2.37 4.52-5 11-5s11 2.63 11 5c0 1.12-1 2.29-2.77 3.23z"/><path id="Shape" d="m29 20c0-4.9705627-4.0294373-9-9-9s-9 4.0294373-9 9 4.0294373 9 9 9 9-4.0294373 9-9zm-16 0c0-3.8659932 3.1340068-7 7-7s7 3.1340068 7 7-3.1340068 7-7 7-7-3.1340068-7-7z"/><path id="Shape" d="m23 20c0-1.6568542-1.3431458-3-3-3s-3 1.3431458-3 3 1.3431458 3 3 3 3-1.3431458 3-3zm-4 0c0-.5522847.4477153-1 1-1s1 .4477153 1 1-.4477153 1-1 1-1-.4477153-1-1z"/><path id="Shape" d="m40 17c-1.6568542 0-3 1.3431458-3 3s1.3431458 3 3 3 3-1.3431458 3-3-1.3431458-3-3-3zm0 4c-.5522847 0-1-.4477153-1-1s.4477153-1 1-1 1 .4477153 1 1-.4477153 1-1 1z"/><path id="Shape" d="m40 11c-4.9705627 0-9 4.0294373-9 9s4.0294373 9 9 9 9-4.0294373 9-9-4.0294373-9-9-9zm0 16c-3.8659932 0-7-3.1340068-7-7s3.1340068-7 7-7 7 3.1340068 7 7c0 1.8565154-.7374979 3.6369928-2.0502525 4.9497475-1.3127547 1.3127546-3.0932321 2.0502525-4.9497475 2.0502525z"/></g></g></g></svg>