<svg height="512" viewBox="0 0 60 60" width="512" xmlns="http://www.w3.org/2000/svg"><g id="Page-1" fill="none" fill-rule="evenodd"><g id="043---Angry" fill-rule="nonzero"><path id="Shape" d="m59 34c0 13.81-13 25-29 25s-29-11.19-29-25c.20482431-5.6886841 1.83464825-11.2348993 4.74-16.13 1.78404451-3.1766985 3.99083754-6.0966625 6.56-8.68 4.9-4.87 11.04-8.19 17.7-8.19s12.8 3.32 17.7 8.19c2.5691625 2.5833375 4.7759555 5.5033015 6.56 8.68 2.9053517 4.8951007 4.5351757 10.4413159 4.74 16.13z" fill="#ff5722"/><path id="Shape" d="m54.26 17.87c-1.7840445-3.1766985-3.9908375-6.0966625-6.56-8.68-4.9-4.87-11.04-8.19-17.7-8.19-.5 0-1 0-1.5.06 6.08.46 11.67 3.63 16.2 8.13 2.5691625 2.5833375 4.7759555 5.5033015 6.56 8.68 2.9053517 4.8951007 4.5351757 10.4413159 4.74 16.13 0 13.38-12.18 24.29-27.5 25h1.5c16 0 29-11.19 29-25-.2048243-5.6886841-1.8346483-11.2348993-4.74-16.13z" fill="#d84315"/><path id="Shape" d="m12.3 9.19c-2.56916246 2.5833375-4.77595549 5.5033015-6.56 8.68-2.71733022-.5840371-4.67784617-2.9578472-4.73781275-5.7365856-.05996657-2.77873833 1.79631577-5.2349168 4.48592025-5.93563833 2.68960449-.70072154 5.5083786.53746643 6.8118925 2.99222393z" fill="#d84315"/><path id="Shape" d="m59 12c.001788 2.8295647-1.97353 5.2757918-4.74 5.87-1.7840445-3.1766985-3.9908375-6.0966625-6.56-8.68 1.2914306-2.43365439 4.0742852-3.67506207 6.7479386-3.01019783 2.6736533.66486425 4.5509266 3.06511788 4.5520614 5.82019783z" fill="#d84315"/><path id="Shape" d="m26 22c0 3.3137085-2.6862915 6-6 6s-6-2.6862915-6-6h11c.3416805.0033445.6809318-.0577207 1-.18.0049626.0598974.0049626.1201026 0 .18z" fill="#f5f5f5"/><path id="Shape" d="m46 22c0 3.3137085-2.6862915 6-6 6s-6-2.6862915-6-6c-.0049626-.0598974-.0049626-.1201026 0-.18.3190682.1222793.6583195.1833445 1 .18z" fill="#f5f5f5"/><path id="Shape" d="m41.53 52.51c-3.5846498 1.7524195-7.541641 2.6069649-11.53 2.49-3.988359.1169649-7.9453502-.7375805-11.53-2.49 1.43-3.76 6.05-6.51 11.53-6.51s10.1 2.75 11.53 6.51z" fill="#ef314c"/><path id="Shape" d="m30 46c-.5010337.0011903-1.0016819.0278915-1.5.08 4.81.45 8.73 3 10 6.43-3.1093181 1.5562194-6.523982 2.4064707-10 2.49h1.5c3.988359.1169649 7.9453502-.7375805 11.53-2.49-1.43-3.76-6.05-6.51-11.53-6.51z" fill="#bb193b"/><path id="Shape" d="m49 44.67c-1.5300251 3.3940171-4.1771064 6.1610994-7.5 7.84-1.4-3.76-6.02-6.51-11.5-6.51s-10.1 2.75-11.53 6.51c-3.311669-1.6843712-5.9475693-4.4508315-7.47-7.84-.7814805-1.7432197-.1998186-3.7958959 1.38-4.87l.74-.47 1.44 3.09c.2309651.4979098.8200883.7165995 1.32.49l2.73-1.27c.4940805-.2346755.7079343-.8227736.48-1.32l-1.44-3.11c1.7435595-.6196579 3.5321581-1.1044183 5.35-1.45v3.24c0 .5522847.4477153 1 1 1h3c.5522847 0 1-.4477153 1-1v-3.9c1.25-.1 2-.1 2-.1s.75 0 2 .1v3.9c0 .5522847.4477153 1 1 1h3c.5522847 0 1-.4477153 1-1v-3.24c1.8279939.3440836 3.6266777.828859 5.38 1.45l-1.44 3.11c-.2279343.4972264-.0140805 1.0853245.48 1.32l2.73 1.27c.4999117.2265995 1.0890349.0079098 1.32-.49l1.44-3.09.74.47c1.5689268 1.082954 2.137448 3.1338414 1.35 4.87z" fill="#37474f"/><path id="Shape" d="m18.58 41.64-2.73 1.27c-.4999117.2265995-1.0890349.0079098-1.32-.49l-1.44-3.09c1.4369728-.8532304 2.9542519-1.5633036 4.53-2.12l1.44 3.11c.2279343.4972264.0140805 1.0853245-.48 1.32z" fill="#f5f5f5"/><path id="Shape" d="m28 35.1v3.9c0 .5522847-.4477153 1-1 1h-3c-.5522847 0-1-.4477153-1-1v-3.24c1.65255-.3162029 3.3220038-.5365708 5-.66z" fill="#f5f5f5"/><path id="Shape" d="m37 35.76v3.24c0 .5522847-.4477153 1-1 1h-3c-.5522847 0-1-.4477153-1-1v-3.9c1.6779962.1234292 3.34745.3437971 5 .66z" fill="#f5f5f5"/><path id="Shape" d="m46.91 39.33-1.44 3.09c-.2309651.4979098-.8200883.7165995-1.32.49l-2.73-1.27c-.4940805-.2346755-.7079343-.8227736-.48-1.32l1.44-3.11c1.5757481.5566964 3.0930272 1.2667696 4.53 2.12z" fill="#f5f5f5"/><g fill="#000"><path id="Shape" d="m60 12c-.0104651-2.98428005-1.9117852-5.63376942-4.7356389-6.59911239s-5.9492107-.03423841-7.7843611 2.31911239c-5.01-4.65-11.1-7.72-17.48-7.72s-12.47 3.07-17.48 7.72c-1.8351504-2.3533508-4.96050738-3.28445536-7.78436111-2.31911239-2.82385372.96534297-4.72517381 3.61483234-4.73563889 6.59911239.00335563 2.8198426 1.698359 5.3623477 4.3 6.45-2.6675231 4.7602449-4.1428833 10.0955591-4.3 15.55 0 14.34 13.46 26 30 26s30-11.66 30-26c-.1571167-5.4544409-1.6324769-10.7897551-4.3-15.55 2.601641-1.0876523 4.2966444-3.6301574 4.3-6.45zm-58 0c.00445703-2.17528268 1.41481865-4.09809129 3.4883049-4.75576094s4.33427262.10072198 5.5916951 1.87576094c-2.21436516 2.2925563-4.15717912 4.832643-5.79 7.57-1.97235476-.7178271-3.28643083-2.5910845-3.29-4.69zm28 46c-15.44 0-28-10.77-28-24 0-7.46 4.22-17.31 11-24.1.0391286-.03411922.0758808-.07087144.11-.11 4.62-4.61 10.43-7.79 16.89-7.79s12.27 3.18 16.91 7.79c.0276829.03850289.0577413.07524093.09.11 6.78 6.79 11 16.64 11 24.1 0 13.23-12.56 24-28 24zm24.71-41.31c-1.6328209-2.737357-3.5756348-5.2774437-5.79-7.57 1.236665-1.76870373 3.4686096-2.54433384 5.5356026-1.92369472s3.5025058 2.49746674 3.5603161 4.65485202c.0578103 2.1573852-1.2751299 4.1083975-3.3059187 4.8388427z"/><path id="Shape" d="m6.25 9c-.55228475 0-1 .44771525-1 1 .08832024.803849-.20389455 1.602816-.79 2.16-.37201306.2402935-.54166334.6966564-.41695017 1.1216049.12471316.4249486.51408072.7172519.95695017.7183951.17948334-.0000528.35564432-.0484107.51-.14 1.21558047-.89347 1.8755241-2.3574829 1.74-3.86 0-.55228475-.44771525-1-1-1z"/><path id="Shape" d="m54.75 10c0-.55228475-.4477153-1-1-1s-1 .44771525-1 1c-.1355241 1.5025171.5244195 2.96653 1.74 3.86.46316.2652187 1.0529679.1199675 1.34-.33.2925741-.459436.1636434-1.0685225-.29-1.37-.5928966-.5527044-.8863991-1.355192-.79-2.16z"/><path id="Shape" d="m13 23h.08c.4964013 3.5617376 3.6108776 6.1678856 7.2043377 6.0284842 3.5934602-.1394015 6.4966793-2.9789946 6.7156623-6.5684842 1.2363362-.713798 1.9985357-2.0324032 2-3.46v-2c0-.5522847-.4477153-1-1-1s-1 .4477153-1 1v2c0 1.1045695-.8954305 2-2 2h-12c-.5522847 0-1 .4477153-1 1s.4477153 1 1 1zm7 4c-2.3763431.000485-4.4247314-1.6716687-4.9-4h9.8c-.4752686 2.3283313-2.5236569 4.000485-4.9 4z"/><path id="Shape" d="m47 21h-12c-1.1045695 0-2-.8954305-2-2v-2c0-.5522847-.4477153-1-1-1s-1 .4477153-1 1v2c.0014643 1.4275968.7636638 2.746202 2 3.46.2643297 3.550371 3.1514286 6.3367974 6.7089423 6.475003 3.5575138.1382055 6.6520842-2.4158394 7.1910577-5.935003h.1c.5522847 0 1-.4477153 1-1s-.4477153-1-1-1zm-7 6c-2.3763431.000485-4.4247314-1.6716687-4.9-4h9.8c-.4752686 2.3283313-2.5236569 4.000485-4.9 4z"/><path id="Shape" d="m14 18c.2163702 0 .4269038-.0701779.6-.2 3.45-2.59 8.9.07 9 .1.4943143.2454836 1.0940469.0440809 1.34-.45.2469243-.4916536.050313-1.0904244-.44-1.34-.27-.14-6.61-3.24-11 .09-.4418278.3313708-.5313708.9581722-.2 1.4.1668659.225653.4208747.3708009.7.4z"/><path id="Shape" d="m36.45 17.9s5.5-2.69 8.95-.1c.1730962.1298221.3836298.2.6.2.3147573 0 .6111456-.1481942.8-.4.3313708-.4418278.2418278-1.0686292-.2-1.4-4.44-3.33-10.78-.23-11.05-.09-.490313.2495756-.6869243.8483464-.44 1.34.2459531.4940809.8456857.6954836 1.34.45z"/><path id="Shape" d="m25 31c0 .5522847.4477153 1 1 1s1-.4477153 1-1c0-1.6568542 1.3431458-3 3-3s3 1.3431458 3 3c0 .5522847.4477153 1 1 1s1-.4477153 1-1c.0510915-1.3410933-.4592672-2.6427646-1.4082513-3.5917487s-2.2506554-1.4593428-3.5917487-1.4082513c-1.3410933-.0510915-2.6427646.4592672-3.5917487 1.4082513s-1.4593428 2.2506554-1.4082513 3.5917487z"/><path id="Shape" d="m11.8 39c-1.96561001 1.3591479-2.69466465 3.9192191-1.74 6.11 1.84 4.05 6.87 10.89 19.94 10.89s18.1-6.84 19.94-10.92c.938099-2.1826731.2107882-4.7240809-1.74-6.08-7.37-4.91-17.76-5-18.2-5s-10.83.06-18.2 5zm12.2-2.4c1.11-.19 2.13-.32 3-.41v2.81h-3zm-5.84 4.13-2.72 1.27-1-2.26c.8784048-.4784981 1.7869873-.8993856 2.72-1.26zm1.64 11.27c1.65-3 5.68-5 10.2-5s8.55 2 10.2 5c-3.2160474 1.3942399-6.6955723 2.0764997-10.2 2-3.5044277.0764997-6.9839526-.6057601-10.2-2zm23.1-13.52c.9321904.3625494 1.840651.7833804 2.72 1.26l-1 2.26-2.72-1.26zm-9.9-2.29c.87.09 1.89.22 3 .41v2.4h-3zm-2-.19v3c0 1.1045695.8954305 2 2 2h3c1.1045695 0 2-.8954305 2-2v-2c1 .22 2 .49 3 .81l-1 2.1c-.1973078.4839971-.1973078 1.0260029 0 1.51.173005.4927868.5319105.89835 1 1.13l2.73 1.27c.2605899.1187283.5436375.1801121.83.18.781142.0019329 1.4919217-.4510915 1.82-1.16l.94-2c1.001923.8416248 1.3243407 2.2455705.79 3.44-1.287721 2.849596-3.4208531 5.2340954-6.11 6.83-2-3.65-6.75-6.11-12-6.11s-10 2.46-12 6.11c-2.7033819-1.5963856-4.8477637-3.9887335-6.14-6.85-.5343407-1.1944295-.211923-2.5983752.79-3.44l.94 2c.3265888.7267057 1.0533469 1.1902595 1.85 1.18.2863625.0001121.5694101-.0612717.83-.18l2.73-1.27c.4680895-.23165.826995-.6372132 1-1.13.200036-.4869227.200036-1.0330773 0-1.52l-1-2.1c1-.32 2-.59 3-.8v2c0 1.1045695.8954305 2 2 2h3c1.1045695 0 2-.8954305 2-2v-3h1z"/></g></g></g></svg>