<svg height="512" viewBox="0 0 60 61" width="512" xmlns="http://www.w3.org/2000/svg"><g id="Page-1" fill="none" fill-rule="evenodd"><g id="045---Sad"><g fill-rule="nonzero"><path id="Shape" d="m10.91 7.63c-.4142945-.43383703-.5530362-1.0620286-.36-1.63.5115507-1.1023559.3567181-2.39907917-.4-3.35-1.36-1.39-4.37-.6-6.71 1.74s-3.14 5.36-1.77 6.72c.91937109.7358667 2.1708913.9014525 3.25.43.69312618-.1874802 1.43356264.0109873 1.94.52l.23.23c1.01645076 1.0211724 1.16339192 2.6207318.35 3.81-4 6-6.44 13-6.44 18.9 0 13.81 13 25 29 25s29-11.19 29-25c0-5.95-2.41-12.91-6.44-18.9-.8133919-1.1892682-.6664508-2.7888276.35-3.81l.41-.41c.4416503-.4372477 1.0955246-.5812558 1.68-.37 1.1023559.5115507 2.3990792.3567181 3.35-.4 1.37-1.36.57-4.38-1.77-6.72s-5.37-3.13-6.73-1.76c-.7647754.95526563-.919907 2.26224981-.4 3.37.2012412.57385083.0619814 1.212125-.36 1.65-1.109597 1.11952268-2.8963368 1.18941959-4.09.16-4.1849175-3.60095591-9.4813415-5.65243745-15-5.81-5.5186585.15756255-10.8150825 2.20904409-15 5.81-1.1924542.99920944-2.950891.92105669-4.05-.18z" fill="#02a9f4"/><path id="Shape" d="m53.56 4.39c2.34 2.34 3.14 5.36 1.77 6.72-.1502251.1485156-.3221977.2732801-.51.37.0532276-.0047501.1067724-.0047501.16 0 1.1023559.5115507 2.3990792.3567181 3.35-.4 1.37-1.36.57-4.38-1.77-6.72-2.1-2.1-4.73-2.94-6.24-2.1 1.2241701.46177332 2.3307253 1.18923091 3.24 2.13z" fill="#0377bc"/><path id="Shape" d="m52.56 16.1c-.8133919-1.1892682-.6664508-2.7888276.35-3.81l.41-.41c0-.05.1-.07.14-.11-.497181-.0106725-.9896999-.0983813-1.46-.26-.5786449-.2028327-1.2222687-.0593744-1.66.37l-.41.41c-1.0164508 1.0211724-1.1633919 2.6207318-.35 3.81 4 6 6.44 13 6.44 18.9 0 13.38-12.18 24.29-27.5 25h1.5c16 0 29-11.19 29-25-.02-5.95-2.43-12.91-6.46-18.9z" fill="#0377bc"/><path id="Shape" d="m42.6 28.11c-2.41.96-6.35 1.89-12.6 1.89s-10.19-.93-12.6-1.89c-2.850515-5.885577-1.2467644-12.960488 3.8630167-17.041614 5.1097811-4.08112602 12.3641855-4.08112602 17.4739666 0 5.1097811 4.081126 6.7135317 11.156037 3.8630167 17.041614z" fill="#f5f5f5"/><path id="Shape" d="m30 8c-.5010337.00119028-1.0016819.02789151-1.5.08 4.521986.49060509 8.5237742 3.1474599 10.7310431 7.1245211 2.207269 3.9770611 2.3448592 8.7785458.3689569 12.8754789-3.560451 1.2796516-7.3165846 1.9293612-11.1 1.9200997.49-.0000997 1-.0000997 1.5-.0000997 6.25 0 10.19-.93 12.6-1.89 2.1048084-4.3392617 1.8279835-9.4563678-.7326613-13.5432381-2.5606447-4.0868703-7.0445378-6.56802118-11.8673387-6.5667619z" fill="#cfd8dc"/><path id="Shape" d="m47.86 36.47-.86 2.12c-1.7526883-.9829329-3.6247852-1.7358049-5.57-2.24l.82-2.08c.4039739-1.0264728 1.5627716-1.5320486 2.59-1.13l1.86.73c.5008735.1880427.9055259.5689239 1.1235107 1.0575106s.2311271 1.0441417.0364893 1.5424894z" fill="#ffeb3a"/><path id="Shape" d="m18.54 36.35c-1.9348781.5066257-3.7967488 1.2594399-5.54 2.24l-.83-2.12c-.1962132-.4945279-.187301-1.0468543.0247653-1.5347943.2120662-.48794.609807-.8712756 1.1052347-1.0652057l1.86-.73c1.0272284-.4020486 2.1860261.1035272 2.59 1.13z" fill="#ffeb3a"/></g><path id="Shape" d="m28 40h4" stroke="#000" stroke-linecap="round" stroke-linejoin="round" stroke-width="2"/><circle id="Oval" cx="30" cy="17" fill="#37474f" fill-rule="nonzero" r="2"/><path id="Shape" d="m53.62 13 .41-.42c.1745217-.1556938.4209304-.2018954.64-.12 1.4485989.6197997 3.122645.3723656 4.33-.64 1.78-1.79 1-5.36-1.77-8.13-1.1371709-1.19038268-2.5635961-2.06553246-4.14-2.54-1.3739601-.49230227-2.9069929-.19719345-4 .77-1.0374004 1.21172885-1.2863634 2.91167874-.64 4.37.0818954.21906964.0356938.46547832-.12.64-.7402761.69534605-1.8841767.7254487-2.66.07-4.88-3.91-10.3-6-15.67-6s-10.79 2.09-15.67 6c-.7940247.67499609-1.973294.62712907-2.71-.11-.1556938-.17452168-.2018954-.42093036-.12-.64.6294692-1.44733212.3812552-3.12665486-.64-4.33-1.08228297-.9485454-2.59068586-1.24258849-3.95-.77-1.59076786.46817294-3.03165918 1.34373847-4.18 2.54-2.73 2.77-3.55 6.31-1.73 8.13 1.18040999 1.0079877 2.82716484 1.2669843 4.26.67.33798544-.0888087.69722783.0193503.93.28l.24.23c.6734097.6841477.76574977 1.7502558.22 2.54-4.24 6.24-6.65 13.33-6.65 19.46 0 14.34 13.46 26 30 26s30-11.66 30-26c0-6.13-2.41-13.23-6.62-19.46-.5405259-.7943953-.4397532-1.8609067.24-2.54zm-23.62 46c-15.44 0-28-10.77-28-24 0-5.66 2.35-12.52 6.27-18.34 1.08365377-1.5864659.88632645-3.7192803-.47-5.08l-.23-.23c-.5579811-.5639977-1.31665239-.884006-2.11-.89-.28427125 0-.5670996.0404041-.84.12-.72607282.339721-1.57749163.2713034-2.24-.18-.84-.83-.32-3.22 1.76-5.3.90569476-.93446037 2.03452844-1.62277358 3.28-2 .6647623-.260207 1.41567425-.17009756 2 .24.46536278.69104254.53370402 1.57568191.18 2.33-.31762117.93203675-.0858406 1.96346028.6 2.67 1.4601908 1.45902122 3.790797 1.56732077 5.38.25 4.53-3.66 9.51-5.59 14.42-5.59s9.89 1.93 14.42 5.59c1.589203 1.31732077 3.9198092 1.20902122 5.38-.25.6879539-.70539515.920021-1.73809365.6-2.67-.3663848-.7518284-.3093799-1.64110523.15-2.34.5843257-.41009756 1.3352377-.500207 2-.24 1.2454716.37722642 2.3743052 1.06553963 3.28 2 2.08 2.08 2.6 4.47 1.77 5.3-.6950376.4686119-1.5876457.5296449-2.34.16-.9332347-.3273324-1.9715028-.0901251-2.67.61l-.42.41c-1.3563265 1.3607197-1.5536538 3.4935341-.47 5.08 3.96 5.83 6.3 12.69 6.3 18.35 0 13.23-12.56 24-28 24z" fill="#000" fill-rule="nonzero"/><path id="Shape" d="m30 20c1.6568542 0 3-1.3431458 3-3s-1.3431458-3-3-3-3 1.3431458-3 3 1.3431458 3 3 3zm0-4c.5522847 0 1 .4477153 1 1s-.4477153 1-1 1-1-.4477153-1-1 .4477153-1 1-1z" fill="#000" fill-rule="nonzero"/><path id="Shape" d="m17 29c3.27 1.3 7.63 2 13 2s9.7-.66 13-2c.2315087-.0916546.4204972-.2663798.53-.49.9792598-2.0297759 1.4820418-4.2563818 1.47-6.51 0-8.2842712-6.7157288-15-15-15s-15 6.7157288-15 15c-.0088124 2.2694624.5044143 4.5105524 1.5 6.55.1097012.2032381.2863692.3622393.5.45zm13-20c4.4098972-.00284924 8.5205514 2.2301102 10.9184954 5.931065 2.3979439 3.7009548 2.7561715 8.365208.9515046 12.388935-2.16.8-5.87 1.68-11.87 1.68s-9.71-.88-11.87-1.68c-1.8046669-4.023727-1.4464393-8.6879802.9515046-12.388935 2.397944-3.7009548 6.5085982-5.93391424 10.9184954-5.931065z" fill="#000" fill-rule="nonzero"/><path id="Shape" d="m48.27 38.17.52-1.33c.2945908-.7411583.2819298-1.5691155-.0351854-2.3009197-.3171151-.7318042-.9125795-1.3072132-1.6548146-1.5990803l-1.86-.73c-1.5408643-.6069257-3.2820643.1495339-3.89 1.69l-.5 1.26c-3.5576286-.8169989-7.2000611-1.2064203-10.85-1.16-3.6499389-.0464203-7.2923714.3430011-10.85 1.16l-.5-1.25c-.2900115-.7415978-.8629589-1.337473-1.5926128-1.6563449-.7296538-.3188719-1.556146-.3345769-2.2973872-.0436551l-1.86.73c-.7405922.2931486-1.334208.8687762-1.65 1.6-.309503.7319604-.309503 1.5580396 0 2.29l.52 1.34c-1.4322538.8290848-2.66199334 1.9665939-3.6 3.33-.27614234.4804877-.11048769 1.0938576.37000003 1.37.48048771.2761423 1.09385758.1104877 1.36999997-.37.9041176-1.2556683 2.088891-2.2829284 3.46-3 2.92-1.7 8.04-3.5 16.63-3.5 16 0 20.07 6.4 20.14 6.5.1775523.3075445.5048889.4978565.86.5.3579753.0014245.6894063-.1886117.8690104-.498274.1796041-.3096622.1799815-.6917095.0009896-1.001726-.9380067-1.3634061-2.1677462-2.5009152-3.6-3.33zm-35.2-2.07c-.100018-.2434614-.100018-.5165386 0-.76.1061303-.2482064.3080997-.4429626.56-.54l1.86-.73c.2434614-.100018.5165386-.100018.76 0 .2444208.1083153.4352928.3099915.53.56l.42 1.06c-1.2790557.3888655-2.5233841.8839209-3.72 1.48zm30.14-1.47c.0969339-.2462388.2875189-.4440158.53-.55.2434614-.100018.5165386-.100018.76 0l1.86.73c.2510897.0958724.4530168.2887828.5602514.5352341.1072346.2464514.1107482.5256944.0097486.7747659l-.42 1.07c-1.1966159-.5960791-2.4409443-1.0911345-3.72-1.48z" fill="#000" fill-rule="nonzero"/><path id="Shape" d="m32 39h-4c-.5522847 0-1 .4477153-1 1s.4477153 1 1 1h4c.5522847 0 1-.4477153 1-1s-.4477153-1-1-1z" fill="#000" fill-rule="nonzero"/></g></g></svg>