<svg height="512" viewBox="0 0 60 60" width="512" xmlns="http://www.w3.org/2000/svg"><g id="Page-1" fill="none" fill-rule="evenodd"><g id="046---Goofy" fill-rule="nonzero"><path id="Shape" d="m59 30.7c0 16.02-13 28.3-29 28.3s-29-12.28-29-28.3c-.01317349-4.3989482.9787243-8.7427764 2.9-12.7 3.89098654 3.5584881 9.8764401 3.4843762 13.6781248-.1693625 3.8016848-3.6537387 4.1131965-9.63153993.7118752-13.6606375 7.4595194-3.29245384 15.9604806-3.29245384 23.42 0-3.4013213 4.02909757-3.0898096 10.0068988.7118752 13.6606375 3.8016847 3.6537387 9.7871383 3.7278506 13.6781248.1693625 1.9212757 3.9572236 2.9131735 8.3010518 2.9 12.7z" fill="#60a917"/><path id="Shape" d="m38.71 4.17c-2.7190899 2.90785909-3.4543421 7.1515963-1.8719785 10.8047073 1.5823635 3.653111 5.1808904 6.0196498 9.1619785 6.0252927.5022129-.0043806 1.0034781-.0444818 1.5-.12-3.6645603-.5628114-6.716977-3.1069023-7.9308283-6.61009-1.2138514-3.5031877-.3898896-7.3904403 2.1408283-10.09991-3.6870439-1.63505525-7.6766819-2.47659291-11.71-2.47-.5 0-1 0-1.5-.00003844 3.5267093.18548416 6.9885043 1.02296051 10.21 2.47003844z" fill="#549414"/><path id="Shape" d="m56.1 18c-.6647637.6714414-1.4224959 1.2439502-2.25 1.7 1.4251504 3.4919718 2.1554542 7.22841 2.15 11 0 15.52-12.18 27.48-27.5 28.3h1.5c16 0 29-12.28 29-28.3.0131735-4.3989482-.9787243-8.7427764-2.9-12.7z" fill="#549414"/><path id="Shape" d="m21 11c0 5.5228475-4.4771525 10-10 10s-10-4.4771525-10-10c-.00260588-1.75705833.46340534-3.48302582 1.35-5-.23295206.64100925-.35142115 1.31797544-.35 2 0 3.3137085 2.6862915 6 6 6s6-2.6862915 6-6-2.6862915-6-6-6c-.68202456-.00142115-1.35899075.11704794-2 .35 3.09242484-1.78541482 6.902222-1.78639291 9.9955632-.00256616 3.0933411 1.78382674 5.0007763 5.08174216 5.0044368 8.65256616z" fill="#f5f5f5"/><path id="Shape" d="m18.29 4.17c-1.8833016-2.02464983-4.5248561-3.1733093-7.29-3.17-.5055495.00397326-1.0101685.04407544-1.51.12 4.8674023.7609202 8.4554612 4.95347944 8.4554612 9.88 0 4.9265206-3.5880589 9.1190798-8.4554612 9.88.49982365.0759925 1.0044475.116095 1.51.12 3.9810881-.0056429 7.579615-2.3721817 9.1619785-6.0252927 1.5823636-3.653111.8471114-7.89684821-1.8719785-10.8047073z" fill="#cfd8dc"/><path id="Shape" d="m14 8c0 3.3137085-2.6862915 5.9999999-6 5.9999999-3.31370846 0-5.99999995-2.6862914-6-5.9999999-.00142115-.68202456.11704794-1.35899075.35-2 .60438052-1.70459032 1.94540968-3.04561948 3.65-3.65.64100925-.23295206 1.31797544-.35142115 2-.35 3.3137085 0 6 2.6862915 6 6z" fill="#a4c400"/><path id="Shape" d="m8 2c-.49724006.0032274-.99174587.07387109-1.47.21 2.62208059.70358812 4.4450161 3.08016246 4.4450161 5.795 0 2.7148375-1.82293551 5.0914119-4.4450161 5.795.47921772.1303085.97338759.1975425 1.47.2 3.3137085 0 6-2.6862915 6-6s-2.6862915-6-6-6z" fill="#90ac00"/><path id="Shape" d="m19.39 16.43c.3029651 1.7313575 1.0123938 3.3661282 2.07 4.77.7727991 1.0481856.5686767 2.5214165-.46 3.32-1.0408382.7587529-2.4943229.5649549-3.3-.44-1.2841145-1.6470347-3.1138469-2.7817525-5.16-3.2z" fill="#549414"/><path id="Shape" d="m59 11c0 5.5228475-4.4771525 10-10 10s-10-4.4771525-10-10 4.4771525-10 10-10c1.7570583-.00260588 3.4830258.46340534 5 1.35-.6410092-.23295206-1.3179754-.35142115-2-.35-3.3137085 0-6 2.6862915-6 6s2.6862915 6 6 6 6-2.6862915 6-6c.0014211-.68202456-.1170479-1.35899075-.35-2 .8865947 1.51697418 1.3526059 3.24294167 1.35 5z" fill="#f5f5f5"/><path id="Shape" d="m57.65 6c.2329521.64100925.3514211 1.31797544.35 2-.0010383 1.77083209-.7842749 3.4507648-2.14 4.59-.6923002 4.2847744-4.0695561 7.6337518-8.36 8.29.4965219.0755182.9977871.1156194 1.5.12 3.570824-.0036605 6.8687394-1.9110957 8.6525662-5.0044368 1.7838267-3.0933412 1.7828486-6.90313836-.0025662-9.9955632z" fill="#cfd8dc"/><path id="Shape" d="m58 8c0 3.3137085-2.6862915 6-6 6s-6-2.6862915-6-6 2.6862915-6 6-6c.6820246-.00142115 1.3589908.11704794 2 .35 1.7045903.60438052 3.0456195 1.94540968 3.65 3.65.2329521.64100925.3514211 1.31797544.35 2z" fill="#a4c400"/><path id="Shape" d="m57.65 6c-.6043805-1.70459032-1.9454097-3.04561948-3.65-3.65-.6410092-.23295206-1.3179754-.35142115-2-.35-.5169169.00379905-1.0311757.07438358-1.53.21.1825873.03604739.3628981.08279466.54.14 1.7007812.60690774 3.0377606 1.94756011 3.64 3.65.2329521.64100925.3514211 1.31797544.35 2-.0043159 2.7324612-1.8543017 5.1168873-4.5 5.8.4889124.1329203.9933412.2001775 1.5.2 3.3137085 0 6-2.6862915 6-6 .0014211-.68202456-.1170479-1.35899075-.35-2z" fill="#90ac00"/><path id="Shape" d="m40.61 16.43c-.3029651 1.7313575-1.0123938 3.3661282-2.07 4.77-.7727991 1.0481856-.5686767 2.5214165.46 3.32 1.0408382.7587529 2.4943229.5649549 3.3-.44 1.2841145-1.6470347 3.1138469-2.7817525 5.16-3.2z" fill="#549414"/><path id="Shape" d="m42.66 51.48c-3.975926 1.7840865-8.3039491 2.6455888-12.66 2.52-4.3560509.1255888-8.684074-.7359135-12.66-2.52 1.35-4.86 6.5-8.48 12.66-8.48s11.31 3.62 12.66 8.48z" fill="#ef314c"/><path id="Shape" d="m30 43c-.5010337.0011903-1.0016819.0278915-1.5.08 5.48.53 9.92 3.94 11.16 8.4-3.5055142 1.6032834-7.3056892 2.4613874-11.16 2.52h1.5c4.3560509.1255888 8.684074-.7359135 12.66-2.52-1.35-4.86-6.5-8.48-12.66-8.48z" fill="#bb193b"/><path id="Shape" d="m54.19 30c.08 5.35-1.11 16.51-11.53 21.5-1.35-4.88-6.5-8.5-12.66-8.5s-11.31 3.62-12.66 8.48c-10.42-4.99-11.61-16.15-11.53-21.48.00941037-.406202.26366425-.7663287.64328731-.911156.37962305-.1448273.80913707-.04556 1.08671269.251156 1.57424291 1.6424162 3.4750559 2.9368766 5.58 3.8-.37681 2.670825.0623917 5.3931785 1.26 7.81.3624274.7577936 1.1597539 1.2083631 1.9958921 1.1278792s1.5328811-.6748675 1.7441079-1.4878792c.4708661-1.9147342 1.3247007-3.7142501 2.51-5.29 3.0981037.4963064 6.2325427.7304694 9.37.7 3.138021.0238573 6.2724635-.2169964 9.37-.72 1.1852993 1.5757499 2.0391339 3.3752658 2.51 5.29.2112268.8130117.9079697 1.4073953 1.7441079 1.4878792s1.6334647-.3700856 1.9958921-1.1278792c1.1976083-2.4168215 1.63681-5.139175 1.26-7.81 2.1049441-.8631234 4.0057571-2.1575838 5.58-3.8.2800985-.2991826.7143962-.3971709 1.0958247-.2472453.3814286.1499257.6327651.5174119.6341753.9272453z" fill="#37474f"/><path id="Shape" d="m20.63 35.28c-1.1852993 1.5757499-2.0391339 3.3752658-2.51 5.29-.2112268.8130117-.9079697 1.4073953-1.7441079 1.4878792s-1.6334647-.3700856-1.9958921-1.1278792c-1.1976083-2.4168215-1.63681-5.139175-1.26-7.81 2.4021998 1.0338998 4.9255766 1.7596647 7.51 2.16z" fill="#ffeb3a"/><path id="Shape" d="m13.12 33.12c0 .31-.07.68-.09 1.08 1.5071023.4637713 3.0439752.8246024 4.6 1.08-1.1852993 1.5757499-2.0391339 3.3752658-2.51 5.29-.0856466.2840696-.2362948.5442801-.44.76.4803149.5578917 1.2282819.8068164 1.9471172.648004.7188352-.1588125 1.2923123-.6996842 1.4928828-1.408004.4708661-1.9147342 1.3247007-3.7142501 2.51-5.29-2.5844234-.4003353-5.1078002-1.1261002-7.51-2.16z" fill="#fdd834"/><path id="Shape" d="m45.62 40.93c-.3624274.7577936-1.1597539 1.2083631-1.9958921 1.1278792s-1.5328811-.6748675-1.7441079-1.4878792c-.4708661-1.9147342-1.3247007-3.7142501-2.51-5.29 2.5844234-.4003353 5.1078002-1.1261002 7.51-2.16.37681 2.670825-.0623917 5.3931785-1.26 7.81z" fill="#ffeb3a"/><path id="Shape" d="m46.88 33.12c-.9360862.420806-1.8980352.7815369-2.88 1.08.1655455 2.3240533-.3009438 4.6495889-1.35 6.73-.0802215.1470808-.1812645.2818047-.3.4.4352708.5059478 1.0942363.761432 1.7568025.6811209.6625663-.080311 1.2414099-.4858327 1.5431975-1.0811209 1.1873567-2.4199972 1.6160778-5.142202 1.23-7.81z" fill="#fdd834"/><g fill="#000"><circle id="Oval" cx="7" cy="6" r="1"/><path id="Shape" d="m58.56 5.57c-.7171025-1.90755293-2.2224471-3.41289746-4.13-4.13-4.1926279-2.3714525-9.4404871-1.73927795-12.95 1.56-7.3604439-3.06444612-15.6395561-3.06444612-23 0-3.5024064-3.28026894-8.72705819-3.91159789-12.91-1.56-1.90755293.71710254-3.41289746 2.22244707-4.13 4.13-2.31582943 4.05791725-1.80177273 9.1382433 1.28 12.65-1.79984424 3.9139025-2.72791275 8.1720992-2.72 12.48 0 16.54 13.46 29.3 30 29.3s30-12.76 30-29.3c.0079127-4.3079008-.9201558-8.5660975-2.72-12.48 3.0817727-3.5117567 3.5958294-8.59208275 1.28-12.65zm-9.56 14.43c-4.9705627.1767311-9.1432689-3.7094373-9.32-8.68-.1767311-4.97056275 3.7094373-9.14326888 8.68-9.32-2.452753 1.52387438-3.7180732 4.39747662-3.1860325 7.23563153.5320406 2.83815487 2.7522461 5.05836037 5.590401 5.59040097 2.8381549.5320407 5.7117571-.7332795 7.2356315-3.1860325-.3364118 4.7190277-4.2690116 8.3719759-9 8.36zm8-12c0 2.7614237-2.2385763 5-5 5s-5-2.2385763-5-5c0-2.76142375 2.2385763-5 5-5s5 2.23857625 5 5zm-46 12c-4.73098844.0119759-8.66358824-3.6409723-9-8.36 1.52387438 2.452753 4.39747662 3.7180732 7.23563153 3.1860325 2.83815487-.5320406 5.05836037-2.7522461 5.59040097-5.59040097.5320407-2.83815491-.7332795-5.71175715-3.1860325-7.23563153 4.9705627.17673112 8.8567311 4.34943725 8.68 9.32-.1767311 4.9705627-4.3494373 8.8567311-9.32 8.68zm-3-17c2.7614237 0 5 2.23857625 5 5 0 2.7614237-2.2385763 5-5 5-2.76142375 0-5-2.2385763-5-5 0-2.76142375 2.23857625-5 5-5zm22 55c-15.44 0-28-11.86-28-27.3-.00476229-3.7824271.76433923-7.5258416 2.26-11 1.92502952 1.501069 4.2989301 2.3111537 6.74 2.3.4853764-.0010718.9700167-.0378376 1.45-.11 2.29.48 4.2 2 5.68 4.61.2761424.4804877.8895123.6461424 1.37.37s.6461424-.8895123.37-1.37c-1.0012481-1.8538181-2.4786532-3.4071646-4.28-4.5 1.2525148-.5866618 2.3877055-1.3965441 3.35-2.39.7220247 1.931638 1.8665816 3.6775144 3.35 5.11.1877666.1893127.4433625.2957983.71.2957983s.5222334-.1064856.71-.2957983c.1893127-.1877666.2957983-.4433625.2957983-.71s-.1064856-.5222334-.2957983-.71c-1.6252215-1.5327251-2.7596679-3.5127865-3.26-5.69 2.2391494-3.7472574 2.0266708-8.46900452-.54-12 6.4928444-2.5082619 13.6871556-2.5082619 20.18 0-2.5666708 3.53099548-2.7791494 8.2527426-.54 12-.5003321 2.1772135-1.6347785 4.1572749-3.26 5.69-.1893127.1877666-.2957983.4433625-.2957983.71s.1064856.5222334.2957983.71c.1877666.1893127.4433625.2957983.71.2957983s.5222334-.1064856.71-.2957983c1.4834184-1.4324856 2.6279753-3.178362 3.35-5.11.9622945.9934559 2.0974852 1.8033382 3.35 2.39-1.8026594 1.0955844-3.2801873 2.6525122-4.28 4.51-.2761424.4804877-.1104877 1.0938576.37 1.37s1.0938576.1104877 1.37-.37c1.48-2.58 3.38-4.13 5.67-4.61.4835712.0689463.9715442.1023691 1.46.1 2.4446295.0025957 4.8188989-.8181828 6.74-2.33 1.499675 3.4834359 2.268861 7.2374715 2.26 11.03 0 15.44-12.56 27.3-28 27.3z"/><circle id="Oval" cx="53" cy="6" r="1"/><path id="Shape" d="m55.19 30c-.0106261-.8188457-.5193671-1.5484835-1.2840378-1.8415705-.7646707-.2930871-1.6307578-.0904007-2.1859622.5115705-2.17 2.33-7.87 6.33-21.72 6.33s-19.55-4-21.72-6.36c-.55893758-.6058713-1.43234213-.8067552-2.199814-.5059593-.76747188.3007959-1.27178098 1.0416483-1.270186 1.8659593-.06 4.38.7 12.6 6.47 18.44 4.32 4.34 10.62 6.56 18.72 6.56s14.4-2.22 18.72-6.6c5.77-5.84 6.53-14.06 6.47-18.4zm-10.45 10.46c-.1916764.3664454-.589143.5771028-1 .53-.3990237-.0369119-.7374782-.3084626-.86-.69-.413593-1.5060079-1.0220703-2.9515617-1.81-4.3 1.6781843-.3426834 3.3266525-.8174958 4.93-1.42.0925774 2.035736-.3413961 4.0609457-1.26 5.88zm-30.74-5.88c1.6033475.6025042 3.2518157 1.0773166 4.93 1.42-.7748468 1.3536167-1.3698638 2.8024998-1.77 4.31-.1225218.3815374-.4609763.6530881-.86.69-.410857.0471028-.8083236-.1635546-1-.53-.9341212-1.818336-1.3819623-3.8474011-1.3-5.89zm4.57 16.34c1.6-4.12 6.16-6.92 11.43-6.92s9.83 2.8 11.42 6.92c-3.6267386 1.4588199-7.5118141 2.1664344-11.42 2.08-3.9081859.0864344-7.7932614-.6211801-11.42-2.08zm28.73-3.92c-1.2105125 1.1888214-2.5843355 2.1989854-4.08 3-1.95-4.75-7.22-8-13.22-8s-11.27 3.25-13.22 8c-1.4956645-.8010146-2.8694875-1.8111786-4.08-3-5.25-5.33-5.95-12.94-5.9-17 1.49369716 1.5772492 3.2758433 2.8536053 5.25 3.76-.2429127 2.6322638.2595596 5.2797731 1.45 7.64.5237133.9926561 1.5577066 1.6099655 2.68 1.6.1131279.0096508.2268721.0096508.34 0 1.2079056-.1292261 2.2186507-.9741459 2.56-2.14.4148792-1.590351 1.0907208-3.100857 2-4.47 2.9533395.4313243 5.9354369.635257 8.92.61 3.0117683.0227512 6.0207727-.1878791 9-.63.9092792 1.369143 1.5851208 2.879649 2 4.47.3232063 1.1493427 1.2971695 1.9976332 2.48 2.16.1131279.0096508.2268721.0096508.34 0 1.1222934.0099655 2.1562867-.6073439 2.68-1.6 1.2090001-2.3583587 1.728872-5.0097056 1.5-7.65 1.954665-.9052807 3.7167392-2.1784558 5.19-3.75.06 4.06-.64 11.67-5.89 17z"/></g></g></g></svg>