<svg height="512" viewBox="0 0 60 60" width="512" xmlns="http://www.w3.org/2000/svg"><g id="Page-1" fill="none" fill-rule="evenodd"><g id="048---Happy" fill-rule="nonzero"><circle id="Oval" cx="30" cy="30" fill="#02a9f4" r="29"/><path id="Shape" d="m30 1c-.5 0-1 0-1.5 0 16.0162576.00000024 28.9999996 12.9837424 28.9999996 29s-12.983742 28.9999998-28.9999996 29h1.5c16.0162576-.0000002 28.9999996-12.9837424 28.9999996-29s-12.983742-28.99999976-28.9999996-29z" fill="#0377bc"/><path id="Shape" d="m28 23c-.0041837 6.0208224-4.8480041 10.919538-10.868397 10.9915691-6.020393.0720311-10.98003154-4.7093908-11.12826597-10.7283896-.14823442-6.0189988 4.57002287-11.0387655 10.58666297-11.2631795-4.3326951.2223428-7.69857923 3.8575834-7.58737128 8.1945542.11120795 4.3369709 3.65897488 7.7949326 7.99737128 7.7949326s7.8861633-3.4579617 7.9973713-7.7949326c.1112079-4.3369708-3.2546762-7.9722114-7.5873713-8.1945542 5.9144425.2205993 10.5941126 5.0814464 10.59 11z" fill="#f5f5f5"/><path id="Shape" d="m17.41 12c4.2573943.2184749 7.595602 3.7370074 7.59 8-.0026721.4695526-.0461693.9379836-.13 1.4.0842154.5292206.1276764 1.0641257.13 1.6-.0036191 5.4927444-4.0585628 10.1409904-9.5 10.89.4972906.0672058.9982253.103941 1.5.11 6.0751322.1132183 11.0917815-4.7198678 11.2049998-10.795.1132184-6.0751322-4.7198676-11.0917815-10.7949998-11.205z" fill="#cfd8dc"/><path id="Shape" d="m25 20c-.0057346 4.3636086-3.5072402 7.917682-7.8702789 7.9884348s-7.97794149-3.3679181-8.12515995-7.7290463c-.14721847-4.3611282 3.22756115-8.0357496 7.58543885-8.2593885h.82c4.2573943.2184749 7.595602 3.7370074 7.59 8z" fill="#37474f"/><path id="Shape" d="m54 23c-.0041837 6.0208224-4.8480041 10.919538-10.868397 10.9915691-6.020393.0720311-10.9800315-4.7093908-11.128266-10.7283896-.1482344-6.0189988 4.5700229-11.0387655 10.586663-11.2631795-4.3326951.2223428-7.6985792 3.8575834-7.5873713 8.1945542.111208 4.3369709 3.6589749 7.7949326 7.9973713 7.7949326s7.8861633-3.4579617 7.9973713-7.7949326c.1112079-4.3369708-3.2546762-7.9722114-7.5873713-8.1945542 5.9144425.2205993 10.5941126 5.0814464 10.59 11z" fill="#f5f5f5"/><path id="Shape" d="m43.41 12c4.2573943.2184749 7.595602 3.7370074 7.59 8-.0026721.4695526-.0461693.9379836-.13 1.4.0842154.5292206.1276764 1.0641257.13 1.6-.0036191 5.4927444-4.0585628 10.1409904-9.5 10.89.4972906.0672058.9982253.103941 1.5.11 6.0751322.1132183 11.0917815-4.7198678 11.2049998-10.795.1132184-6.0751322-4.7198676-11.0917815-10.7949998-11.205z" fill="#cfd8dc"/><path id="Shape" d="m51 20c-.0057346 4.3636086-3.5072402 7.917682-7.8702789 7.9884348s-7.9779415-3.3679181-8.12516-7.7290463c-.1472184-4.3611282 3.2275612-8.0357496 7.5854389-8.2593885h.82c4.2573943.2184749 7.595602 3.7370074 7.59 8z" fill="#37474f"/><path id="Shape" d="m45.89 39.09c-.26 2.91-1.57 10.91-8.5 14.33-1.4020946-2.7777303-4.2794596-4.4986982-7.39-4.42-3.1283847-.0983297-6.0301605 1.6255748-7.44 4.42-6.99-3.42-8.3-11.42-8.56-14.33-.0253441-.280432.0687143-.5585539.2590676-.7660389.1903532-.2074851.4593598-.325104.7409324-.3239611h4.52l2.56 4.48c.1775612.3133105.509873.5069483.87.5069483s.6924388-.1936378.87-.5069483l2.56-4.48h7.14l2.56 4.48c.1775612.3133105.509873.5069483.87.5069483s.6924388-.1936378.87-.5069483l2.56-4.48h4.51c.2815726-.0011429.5505792.116476.7409324.3239611.1903533.207485.2844117.4856069.2590676.7660389z" fill="#37474f"/><path id="Shape" d="m37.39 53.42c-2.308633 1.0892004-4.8378148 1.6299457-7.39 1.58-2.5689965.0577055-5.1161749-.4832275-7.44-1.58 1.4098395-2.7944252 4.3116153-4.5183297 7.44-4.42 3.1105404-.0786982 5.9879054 1.6422697 7.39 4.42z" fill="#ef314c"/><path id="Shape" d="m30 49c-.5029633.0060254-1.0046088.0528457-1.5.14 2.5674818.3527627 4.7927563 1.9561592 5.94 4.28-1.8627301.8839845-3.880904 1.3936244-5.94 1.5.49 0 1 .08 1.5.08 2.5689965.0577055 5.1161749-.4832275 7.44-1.58-1.4098395-2.7944252-4.3116153-4.5183297-7.44-4.42z" fill="#bb193b"/><path id="Shape" d="m26.38 38-2.56 4.48c-.1775612.3133105-.509873.5069483-.87.5069483s-.6924388-.1936378-.87-.5069483l-2.56-4.48z" fill="#ffdc00"/><path id="Shape" d="m40.38 38-2.56 4.48c-.1775612.3133105-.509873.5069483-.87.5069483s-.6924388-.1936378-.87-.5069483l-2.56-4.48z" fill="#ffdc00"/><g fill="#000"><path id="Shape" d="m30 0c-16.5685425 0-30 13.4314575-30 30s13.4314575 30 30 30 30-13.4314575 30-30c0-7.9564947-3.1607052-15.5871121-8.7867966-21.21320344-5.6260913-5.62609135-13.2567087-8.78679656-21.2132034-8.78679656zm0 58c-15.463973 0-28-12.536027-28-28s12.536027-28 28-28 28 12.536027 28 28-12.536027 28-28 28z"/><path id="Shape" d="m29 23c0-6.627417-5.372583-12-12-12s-12 5.372583-12 12 5.372583 12 12 12c3.1825979 0 6.2348448-1.2642821 8.4852814-3.5147186 2.2504365-2.2504366 3.5147186-5.3026835 3.5147186-8.4852814zm-5-3c-.0194428 3.7690018-3.0196008 6.8459623-6.7869074 6.9606489-3.7673067.1146865-6.9490769-2.7740802-7.1977475-6.5349199s2.5250458-7.0433893 6.2746549-7.425729h.71.71c3.5863443.3655951 6.3085864 3.3951172 6.29 7zm-17 3c-.00164162-1.6249943.39674493-3.2254092 1.16-4.66-.68026099 3.5593477.84052627 7.1794998 3.8586097 9.1852125 3.0180835 2.0057126 6.9446971 2.0057126 9.9627806 0 3.0180834-2.0057127 4.5388707-5.6258648 3.8586097-9.1852125.7632551 1.4345908 1.1616416 3.0350057 1.16 4.66 0 5.5228475-4.4771525 10-10 10s-10-4.4771525-10-10z"/><path id="Shape" d="m31 23c0 6.627417 5.372583 12 12 12s12-5.372583 12-12-5.372583-12-12-12-12 5.372583-12 12zm12.71-10c3.7086126.3781092 6.470268 3.5963301 6.2809691 7.3193584-.1892988 3.7230282-3.2631314 6.6445414-6.9909691 6.6445414s-6.8016703-2.9215132-6.9909691-6.6445414c-.1892989-3.7230283 2.5723565-6.9412492 6.2809691-7.3193584h.71zm-.71 20c-5.5228475 0-10-4.4771525-10-10-.0016416-1.6249943.3967449-3.2254092 1.16-4.66-.680261 3.5593477.8405263 7.1794998 3.8586097 9.1852125 3.0180835 2.0057126 6.9446971 2.0057126 9.9627806 0 3.0180834-2.0057127 4.5388707-5.6258648 3.8586097-9.1852125.7632551 1.4345908 1.1616416 3.0350057 1.16 4.66 0 2.6521649-1.0535684 5.195704-2.9289322 7.0710678s-4.4189029 2.9289322-7.0710678 2.9289322z"/><path id="Shape" d="m44.89 37h-29.89c-.5612451-.0020315-1.0975172.231854-1.477885.644553-.3803678.4126991-.5698248.9662298-.522115 1.525447.35 3.95 2.57 16.83 17 16.83s16.54-12.88 16.88-16.83c.0477098-.5592172-.1417472-1.1127479-.522115-1.525447-.3803678-.412699-.9166399-.6465845-1.477885-.644553zm-6.24 2-1.71 3-1.7-3zm-14 0-1.71 3-1.7-3zm-.72 13.94c1.4420729-1.8484022 3.6556099-2.9289638 6-2.9289638s4.5579271 1.0805616 6 2.9289638c-1.8928837.7214298-3.9044065 1.0809938-5.93 1.06-2.072343.0360421-4.1325259-.3237263-6.07-1.06zm13.83-.94c-1.7478057-2.5552842-4.6647069-4.0588415-7.76-4-3.1163803-.079299-6.0604811 1.4266349-7.82 4-5.81-3.39-6.96-10.39-7.18-13h3.93l2.28 4c.356899.6181681 1.0162016.9992679 1.73 1 .7137984-.0007321 1.373101-.3818319 1.73-1l2.33-4h6l2.28 4c.356899.6181681 1.0162016.9992679 1.73 1 .7137984-.0007321 1.373101-.3818319 1.73-1l2.26-4h3.93c-.26 2.61-1.41 9.61-7.17 13z"/></g></g></g></svg>