<svg height="512" viewBox="0 0 60 61" width="512" xmlns="http://www.w3.org/2000/svg"><g id="Page-1" fill="none" fill-rule="evenodd"><g id="050---Perplexed" fill-rule="nonzero"><path id="Shape" d="m18.83 18.81c-2.38 6.12-8.07 9.62-12.7 7.81-1.86364771-.7683014-3.34813246-2.242003-4.13-4.1-1.35287311-3.2758163-1.35287311-6.9541837 0-10.23 2.38-6.12 8.07-9.62 12.7-7.82.675309.26576784 1.3059482.63335971 1.87 1.09 3.26 2.61 4.28 8.04 2.26 13.25z" fill="#f5f5f5"/><path id="Shape" d="m16.61 5.56c-.5640518-.45664029-1.194691-.82423216-1.87-1.09-1.2953151-.49182763-2.7050295-.59946592-4.06-.31.3612186.07416243.7157418.17784373 1.06.31.675309.26576784 1.3059482.63335971 1.87 1.09 3.22 2.61 4.24 8 2.22 13.25-1.71 4.39-5.12 7.42-8.63 8.12 4.41.94 9.43-2.46 11.63-8.12 2.02-5.21 1-10.64-2.22-13.25z" fill="#cfd8dc"/><path id="Shape" d="m58 22.55c-.7804826 1.8763008-2.2780996 3.3631177-4.16 4.13-4.63 1.8-10.32-1.7-12.7-7.81-2-5.24-1-10.69 2.26-13.28.5498442-.44826463 1.167584-.80608113 1.83-1.06 4.63-1.8 10.32 1.69 12.7 7.81 1.3698261 3.2607331 1.3949881 6.9307912.07 10.21z" fill="#f5f5f5"/><path id="Shape" d="m58 12.34c-2.2-5.66-7.23-9.06-11.64-8.12 3.51.7 6.93 3.72 8.64 8.12 1.3473729 3.2699778 1.3473729 6.9400222 0 10.21-.7804826 1.8763008-2.2780996 3.3631177-4.16 4.13-.3442582.1321563-.6987814.2358376-1.06.31 1.3549705.2894659 2.7646849.1818276 4.06-.31 1.8819004-.7668823 3.3795174-2.2536992 4.16-4.13 1.3473729-3.2699778 1.3473729-6.9400222 0-10.21z" fill="#cfd8dc"/><ellipse id="Oval" cx="10.17" cy="14.859" fill="#a4c400" rx="6" ry="5" transform="matrix(.401 -.916 .916 .401 -7.518 18.227)"/><path id="Shape" d="m12.58 9.35c-1.0342597-.43398131-2.1933079-.46607803-3.25-.09l.25.09c2.53 1.11 3.5 4.47 2.18 7.51-.6996232 1.6652041-2.0625042 2.9628409-3.76 3.58 2.48.91 5.45-.65 6.74-3.58s.37-6.4-2.16-7.51z" fill="#90ac00"/><ellipse id="Oval" cx="49.826" cy="14.85" fill="#a4c400" rx="5" ry="6" transform="matrix(.916 -.401 .401 .916 -1.777 21.199)"/><path id="Shape" d="m54.41 12.85c-1.29-2.94-4.26-4.49-6.74-3.59 1.6886271.62933619 3.042108 1.9285331 3.74 3.59 1.32 3 .35 6.39-2.18 7.5-.0816791.0344104-.1651302.0644528-.25.09 1.0566921.376078 2.2157403.3439813 3.25-.09 2.53-1.11 3.5-4.46 2.18-7.5z" fill="#90ac00"/><path id="Shape" d="m57.7 38.63c1.6036066 2.4589775 1.7315976 5.5987397.3334575 8.1800821-1.3981402 2.5813423-4.0977933 4.1895592-7.0334575 4.1899179-.3343012.0024294-.6683876-.0176158-1-.06-11.2131836 10.7303104-28.8868164 10.7303104-40.1 0-.29851516.038135-.5990644.0581716-.9.06-2.93566421-.0003587-5.63531728-1.6085756-7.03345746-4.1899179-1.39814017-2.5813424-1.27014915-5.7211046.33345746-8.1800821-.8615841-2.7956706-1.2997739-5.7045767-1.3-8.63.00496384-2.5263241.34116277-5.0410921 1-7.48.78655767 1.8617987 2.27880438 3.3360665 4.15 4.1 4.63 1.81 10.32-1.69 12.7-7.81 2-5.21 1-10.64-2.22-13.25 3.8783447-2.86514522 8.5491858-4.458192 13.37-4.56 4.8448283.09748689 9.5389566 1.70180924 13.43 4.59-3.25 2.59-4.29 8-2.26 13.28 2.38 6.11 8.07 9.61 12.7 7.81 1.8705701-.7734761 3.3565239-2.2594299 4.13-4.13.6595302 2.4285465.9957649 4.9334945 1 7.45-.0002261 2.9254233-.4384159 5.8343294-1.3 8.63z" fill="#00bcd4"/><circle id="Oval" cx="26" cy="24" fill="#00838f" r="2"/><circle id="Oval" cx="34" cy="24" fill="#00838f" r="2"/><g fill="#000"><path id="Shape" d="m7.37 21.27c.66365736.2840667 1.37810332.430358 2.1.43 2.7578454-.1380985 5.1811866-1.8735235 6.2-4.44.7337439-1.620019.8753127-3.4462557.4-5.16-.4066923-1.6343495-1.548734-2.9874715-3.0915375-3.66293751-1.5428035-.67546602-3.31170451-.59680499-4.7884625.21293751-1.57679479.81930161-2.81818485 2.1632567-3.51 3.8-1.55 3.55-.34 7.49 2.69 8.82zm-.86-8c.50640468-1.205383 1.41449628-2.198277 2.57-2.81.55035449-.2874221 1.1592986-.4447897 1.78-.46.4538292-.00116533.9030787.0907266 1.32.27.9966365.4494799 1.7332517 1.329735 2 2.39.3443095 1.263936.2346147 2.6085815-.31 3.8-1.1 2.52-3.65 3.86-5.67 3s-2.79-3.68-1.69-6.21z"/><path id="Shape" d="m8.9 16.6c.1393223.0713839.29345775.1090614.45.11.37878551-.0030355.7233412-.2198346.89-.56l1-2c.2469243-.4916536.050313-1.0904244-.44-1.34-.2384026-.1210697-.5153611-.1416226-.7690229-.0570687-.25366178.0845539-.46289688.2671714-.5809771.5070687l-1 2c-.24548361.4943143-.04408087 1.0940469.45 1.34z"/><path id="Shape" d="m44.33 17.26c1.0188134 2.5664765 3.4421546 4.3019015 6.2 4.44.7218967.000358 1.4363426-.1459333 2.1-.43 3-1.33 4.24-5.28 2.69-8.82-.6918152-1.6367433-1.9332052-2.98069839-3.51-3.8-1.476758-.8097425-3.245659-.88840353-4.7884625-.21293751-1.5428035.67546601-2.6848452 2.02858801-3.0915375 3.66293751-.4753127 1.7137443-.3337439 3.539981.4 5.16zm1.52-4.6c.2707539-1.058217 1.0060855-1.9369383 2-2.39.407636-.1753026.8462774-.2671113 1.29-.27.6191227.0090144 1.2279815.1595188 1.78.44 1.1555037.611723 2.0635953 1.604617 2.57 2.81 1.1 2.53.36 5.3-1.66 6.18s-4.57-.45-5.67-3c-.5374836-1.1826705-.6470728-2.5154163-.31-3.77z"/><path id="Shape" d="m49.76 16.15c.1666588.3401654.5112145.5569645.89.56.1565423-.0009386.3106777-.0386161.45-.11.4940809-.2459531.6954836-.8456857.45-1.34l-1-2c-.1180802-.2398973-.3273153-.4225148-.5809771-.5070687s-.5306203-.064001-.7690229.0570687c-.490313.2495756-.6869243.8483464-.44 1.34z"/><path id="Shape" d="m59.08 22.63c.16-.39.3-.8.43-1.23.8124532-3.1182049.5949708-6.4155188-.62-9.4-1.115827-3.0336019-3.181723-5.62561743-5.89-7.39-2.3799895-1.60214672-5.3812315-1.97358757-8.08-1-.5241655.20369803-1.023932.46532079-1.49.78-3.9394707-2.76836136-8.6159985-4.29702533-13.43-4.39-4.7890549.09428908-9.4423104 1.60825029-13.37 4.35-.4779741-.32658245-.9912086-.59829484-1.53-.81-5.13-2-11.41 1.76-14 8.38-1.40409914 3.4042925-1.46129703 7.2151012-.16 10.66-.62339104 2.4241014-.93920617 4.9170251-.94 7.42.00499663 2.8700364.41572766 5.7249537 1.22 8.48-1.61667668 2.7836334-1.62354524 6.2187657-.0180132 9.0088419 1.60553203 2.7900763 4.57896712 4.5102113 7.7980132 4.5111581h.6c11.4931992 10.7056043 29.3068008 10.7056043 40.8 0h.6c3.2190461-.0009468 6.1924812-1.7210818 7.7980132-4.5111581 1.605532-2.7900762 1.5986635-6.2252085-.0180132-9.0088419.8042723-2.7550463 1.2150034-5.6099636 1.22-8.48-.0014414-2.4852137-.3104568-4.9606959-.92-7.37zm-13.46-17.17c.7017118-.27138828 1.4476365-.41040153 2.2-.41 1.4612718.03395693 2.8843013.47367649 4.11 1.27 2.3301106 1.52831405 4.1074687 3.7649106 5.07 6.38 1.0542485 2.5870065 1.247106 5.4448039.55 8.15-.5023504 2.1865894-2.012712 4.0049608-4.07 4.9-2.1206722.7304868-4.4621629.4113613-6.31-.86-2.3426545-1.5239453-4.128493-3.7658918-5.09-6.39-1.064647-2.5842647-1.2611719-5.444403-.56-8.15.5009965-2.19437575 2.0266307-4.01397362 4.1-4.89zm-42.62 7.19c1.77-4.65 5.59-7.65 9.18-7.65.7525564-.00251217 1.4988686.13657327 2.2.41 4.11 1.6 5.69 7.45 3.51 13-.9659289 2.621621-2.7507585 4.862301-5.09 6.39-1.8489195 1.2695248-4.19105383 1.5850263-6.31.85-4.11-1.56-5.69-7.41-3.49-13zm48 37.35c-1.8666814.0267463-3.6667109-.6932655-5-2-.3967603-.3397768-.9881942-.3169323-1.3575632.0524368-.3693691.369369-.3922136.9608029-.0524368 1.3575632.9661211.9335781 2.1323236 1.6346676 3.41 2.05-10.385572 8.7202743-25.534428 8.7202743-35.92 0 1.2501647-.4421318 2.3848457-1.1598517 3.32-2.1.2451177-.3989344.1806106-.9145375-.155235-1.2407875s-.8531016-.3757882-1.244765-.1192125c-1.8542084 1.6934389-4.47100654 2.2690326-6.86467185 1.5099604-2.39366531-.7590721-4.2005431-2.7374889-4.74-5.19-.53945689-2.452511.27046344-5.0065215 2.12467185-6.6999604.30375525-.2189996.45969946-.5893556.40408546-.9596733-.05561399-.3703177-.31346506-.6785303-.66814838-.7986461-.35468333-.1201159-.74675262-.0320031-1.01593708.2283194-.16603465.1327454-.32304844.2763963-.47.43-.51072839-2.1357482-.76916101-4.3240348-.77-6.52.00573043-1.6396221.15294321-3.2756915.44-4.89.87819625 1.0879225 2.02150308 1.9316278 3.32 2.45.93537537.3578443 1.92851169.5408797 2.93.54 1.8315975-.0300705 3.618522-.5703035 5.16-1.56 2.7123733-1.7560024 4.7852123-4.3409134 5.91-7.37 2-5.06 1.2-10.35-1.57-13.45 7.68-4.92 16-4.91 23.64 0-1.0430184 1.17027069-1.7996102 2.56705552-2.21 4.08-.8169023 3.1244791-.5993716 6.4295432.62 9.42 1.1209493 3.0286284 3.19492 5.6114413 5.91 7.36 1.5406535.9927375 3.3275118 1.5364133 5.16 1.57 1.0025007.0018693 1.9964214-.1847028 2.93-.55 1.3018893-.5124741 2.4490553-1.3530401 3.33-2.44.2851924 1.5975748.429082 3.2171694.43 4.84-.000839 2.1959652-.2592716 4.3842518-.77 6.52-.1469516-.1536037-.3039654-.2972546-.47-.43-.2691845-.2603225-.6612537-.3484353-1.0159371-.2283194-.3546833.1201158-.6125344.4283284-.6681484.7986461s.1003302.7406737.4040855.9596733c2.2658614 1.886118 3.1071164 4.9897384 2.103924 7.7619531s-3.6357773 4.6187428-6.583924 4.6180469z"/><path id="Shape" d="m44.84 37c-1.699989.2733818-3.3593868.7570928-4.94 1.44-2 .8-3.82 1.55-9.9 1.55s-7.94-.75-9.9-1.55c-1.5806132-.6829072-3.240011-1.1666182-4.94-1.44-5.4-.89-8.32 3.32-9.11 5.67-.11432499.3394023-.03889666.7140146.19787187.9827241s.59890648.3906928.95.32.63780314-.3233218.75212813-.6627241c.05-.2 1.82-5.18 6.89-4.31 1.5534511.2459699 3.0690747.689567 4.51 1.32 2.15.86 4.18 1.68 10.65 1.68s8.5-.82 10.65-1.69c1.4413924-.627 2.9570013-1.0672323 4.51-1.31 5.07-.85 6.82 4.12 6.89 4.33.141.4033622.5227115.6725692.95.67.1062261.0137097.2137739.0137097.32 0 .2736383-.0723289.5038097-.2572283.6334279-.5088401s.1465413-.5463665.0465721-.8111599c-.84-2.35-3.76-6.57-9.16-5.68z"/><path id="Shape" d="m33 45h-6c-.5522847 0-1 .4477153-1 1s.4477153 1 1 1h6c.5522847 0 1-.4477153 1-1s-.4477153-1-1-1z"/><path id="Shape" d="m26 27c1.6568542 0 3-1.3431458 3-3s-1.3431458-3-3-3-3 1.3431458-3 3 1.3431458 3 3 3zm0-4c.5522847 0 1 .4477153 1 1s-.4477153 1-1 1-1-.4477153-1-1 .4477153-1 1-1z"/><path id="Shape" d="m34 27c1.6568542 0 3-1.3431458 3-3s-1.3431458-3-3-3-3 1.3431458-3 3 1.3431458 3 3 3zm0-4c.5522847 0 1 .4477153 1 1s-.4477153 1-1 1-1-.4477153-1-1 .4477153-1 1-1z"/></g></g></g></svg>