<?xml version="1.0" encoding="iso-8859-1"?>
<!-- Generator: Adobe Illustrator 19.0.0, SVG Export Plug-In . SVG Version: 6.00 Build 0)  -->
<svg version="1.1" id="Layer_1" xmlns="http://www.w3.org/2000/svg" xmlns:xlink="http://www.w3.org/1999/xlink" x="0px" y="0px"
	 viewBox="0 0 512.001 512.001" style="enable-background:new 0 0 512.001 512.001;" xml:space="preserve">
<path style="fill:#E8E8E8;" d="M288.604,449.385h-41.703c-9.587,0-17.359-7.772-17.359-17.359v-89.497h76.421v89.497
	C305.963,441.612,298.191,449.385,288.604,449.385z"/>
<path style="fill:#A4A8AB;" d="M283.369,449.385h-31.232v49.976c0,2.578,2.09,4.669,4.669,4.669h21.895
	c2.578,0,4.669-2.09,4.669-4.669V449.385z"/>
<rect x="252.14" y="449.387" style="opacity:0.08;enable-background:new    ;" width="31.232" height="15.6"/>
<path style="opacity:0.08;enable-background:new    ;" d="M229.543,342.529v89.497c0,9.587,7.772,17.359,17.359,17.359h5.235v49.976
	c0,2.578,2.09,4.669,4.669,4.669h21.895c2.578,0,4.669-2.09,4.669-4.669v-49.976h5.235c9.587,0,17.359-7.772,17.359-17.359v-89.497
	L229.543,342.529L229.543,342.529z"/>
<circle style="fill:#E8E8E8;" cx="70.781" cy="298.316" r="25.214"/>
<path style="opacity:0.05;enable-background:new    ;" d="M76.285,316.019c-13.925,0-25.214-11.289-25.214-25.214
	c0-3.896,0.885-7.585,2.462-10.878c-4.902,4.6-7.971,11.133-7.971,18.387c0,13.925,11.289,25.213,25.214,25.213
	c10.029,0,18.689-5.856,22.75-14.334C89.018,313.423,82.956,316.019,76.285,316.019z"/>
<g>
	<path style="fill:#E8E8E8;" d="M196.614,173.636v113.34h-73.212c-36.242,0-65.622,29.38-65.622,65.622v13.367
		c0,25.037,20.297,45.334,45.334,45.334h175.005c25.037,0,45.334-20.297,45.334-45.334V173.636H196.614z"/>
	<path style="fill:#E8E8E8;" d="M369.875,7.971L369.875,7.971c11.787,0,21.342,9.555,21.342,21.342v59.099h-57.083V43.711
		C334.136,23.972,350.137,7.971,369.875,7.971z"/>
</g>
<path style="opacity:0.2;enable-background:new    ;" d="M368.169,63.851c-4.403,0-7.971-3.569-7.971-7.971V42.193
	c0-4.402,3.568-7.971,7.971-7.971s7.971,3.569,7.971,7.971v13.688C376.139,60.283,372.572,63.851,368.169,63.851z"/>
<path style="fill:#E8E8E8;" d="M374.511,58.412H286.04V29.314c0-11.787-9.555-21.342-21.342-21.342l0,0
	c-19.739,0-35.741,16.001-35.741,35.741v18.988c-19.016,8.144-32.342,27.025-32.342,49.022v79.25c0,31.989,25.932,57.92,57.92,57.92
	h97.847c41.536,0,75.206-33.671,75.206-75.206v-62.196C427.587,82.176,403.824,58.412,374.511,58.412z"/>
<path style="fill:#A4A8AB;" d="M463.771,175.77L463.771,175.77c-4.182-13.241-16.465-22.243-30.35-22.243h-5.832v-21.964
	c0-10.045-8.144-18.189-18.189-18.189h-94.695c-25.376,0-45.948,20.572-45.948,45.948v89.564h141.431
	C448.167,248.886,475.208,211.988,463.771,175.77z"/>
<circle style="fill:#EDBCB9;" cx="427.591" cy="206.324" r="18.883"/>
<path style="fill:#D46D59;" d="M413.739,204.859c-1.7,0-3.363,0.155-4.982,0.436c-0.018,0.344-0.052,0.684-0.052,1.032
	c0,10.429,8.454,18.883,18.884,18.883c4.578,0,8.775-1.631,12.044-4.342C434.881,211.378,425.074,204.859,413.739,204.859z"/>
<path style="opacity:0.2;enable-background:new    ;" d="M262.991,63.851c-4.402,0-7.971-3.569-7.971-7.971V42.193
	c0-4.402,3.569-7.971,7.971-7.971c4.403,0,7.971,3.569,7.971,7.971v13.688C270.962,60.283,267.393,63.851,262.991,63.851z"/>
<path style="fill:#E8E8E8;" d="M284.367,196.473h-23.399v56.753l43.341,0.354v-4.693c10.709,0,18.93-9.497,17.394-20.096l0,0
	C319.016,210.238,303.113,196.473,284.367,196.473z"/>
<path style="fill:#4A5058;" d="M442.528,171.588l-3.477,4.142c-5.981,7.124-16.944,7.124-22.926,0l-3.477-4.142
	c-1.792-2.134-0.274-5.388,2.511-5.388h24.858C442.803,166.199,444.319,169.454,442.528,171.588z"/>
<path style="fill:#E8E8E8;" d="M116.842,449.385H75.139c-9.587,0-17.359-7.772-17.359-17.359v-72.258
	c0-21.103,17.107-38.21,38.21-38.21l0,0c21.103,0,38.21,17.107,38.21,38.21v72.258C134.201,441.612,126.429,449.385,116.842,449.385
	z"/>
<path style="fill:#A4A8AB;" d="M111.606,449.385H80.374v49.976c0,2.578,2.09,4.669,4.669,4.669h21.895
	c2.578,0,4.669-2.09,4.669-4.669C111.606,499.361,111.606,449.385,111.606,449.385z"/>
<rect x="80.377" y="449.387" style="opacity:0.08;enable-background:new    ;" width="31.232" height="15.6"/>
<path style="fill:#E8E8E8;" d="M230.993,449.385h-41.703c-9.587,0-17.359-7.772-17.359-17.359v-72.258
	c0-21.103,17.107-38.21,38.21-38.21l0,0c21.103,0,38.21,17.107,38.21,38.21v72.258C248.352,441.612,240.581,449.385,230.993,449.385
	z"/>
<path style="fill:#A4A8AB;" d="M225.758,449.385h-31.232v49.976c0,2.578,2.09,4.669,4.669,4.669h21.895
	c2.578,0,4.669-2.09,4.669-4.669L225.758,449.385L225.758,449.385z"/>
<rect x="194.528" y="449.387" style="opacity:0.08;enable-background:new    ;" width="31.232" height="15.6"/>
<path d="M338.841,132.814c-4.402,0-7.971,3.569-7.971,7.971v11.87c0,4.402,3.569,7.971,7.971,7.971c4.403,0,7.971-3.569,7.971-7.971
	v-11.87C346.812,136.382,343.243,132.814,338.841,132.814z M471.371,173.37l-7.6,2.4l7.601-2.401
	c-5.039-15.952-19.27-26.886-35.813-27.757v-34.123c0-24.881-14.97-46.319-36.37-55.818V29.313C399.19,13.149,386.04,0,369.877,0
	c-24.102,0-43.711,19.609-43.711,43.71v6.73H294.01V29.313C294.01,13.149,280.86,0,264.697,0c-24.102,0-43.711,19.609-43.711,43.71
	v13.985c-19.811,10.603-32.342,31.266-32.342,54.026v167.284h-65.242c-8.142,0-15.971,1.349-23.298,3.801
	c-5.643-10.618-16.846-17.678-29.328-17.678c-18.299,0-33.185,14.886-33.185,33.185c0,12.22,6.572,23.078,16.753,28.845
	c-2.931,7.932-4.537,16.501-4.537,25.44v79.426c0,13.043,9.909,23.812,22.595,25.18v42.155c0,6.97,5.67,12.639,12.639,12.639h21.895
	c6.971,0,12.64-5.67,12.64-12.639v-42.155c12.685-1.369,22.594-12.138,22.594-25.18V419.27h21.79v12.755
	c0,13.043,9.91,23.811,22.595,25.18v42.155c0,6.97,5.67,12.639,12.639,12.639h21.895c6.971,0,12.64-5.67,12.64-12.639v-42.155
	c1.811-0.196,3.563-0.586,5.242-1.144c1.689,0.558,3.432,0.942,5.196,1.137v42.163c0,6.97,5.67,12.639,12.64,12.639h21.895
	c6.971,0,12.639-5.67,12.639-12.639v-42.155c12.685-1.369,22.594-12.138,22.594-25.18v-26.613
	c10.737-9.758,17.489-23.828,17.489-39.446V256.857h78.762c20.671,0,39.535-9.563,51.754-26.236
	C474.158,213.949,477.596,193.082,471.371,173.37z M342.107,43.71c0-15.312,12.458-27.769,27.77-27.769
	c7.373,0,13.372,5.998,13.372,13.372v21.763c-2.856-0.411-5.771-0.634-8.738-0.634h-32.403V43.71z M53.534,298.313
	c0-9.507,7.735-17.243,17.243-17.243c6.185,0,11.762,3.335,14.808,8.423c-9.707,5.839-17.951,13.859-24.078,23.37
	C56.636,309.776,53.534,304.366,53.534,298.313z M103.636,496.059h-15.29v-38.703h15.291v38.703H103.636z M126.23,432.024
	c0,5.178-4.212,9.388-9.388,9.388H75.139c-5.177,0-9.388-4.212-9.388-9.388v-72.258c0-16.675,13.566-30.24,30.24-30.24
	s30.24,13.566,30.24,30.24C126.23,359.767,126.23,432.024,126.23,432.024z M217.788,496.059h-15.291v-38.703h15.291V496.059z
	 M240.382,432.024c0,5.178-4.212,9.388-9.388,9.388h-41.702c-5.178,0-9.389-4.212-9.389-9.388v-72.258
	c0-16.675,13.566-30.24,30.24-30.24s30.24,13.566,30.24,30.24L240.382,432.024L240.382,432.024z M275.399,496.059h-15.292v-38.703
	h15.292V496.059z M297.993,432.024c0,5.178-4.212,9.388-9.389,9.388h-34.091c1.164-2.906,1.811-6.073,1.811-9.388v-12.755h21.796
	c7.024,0,13.728-1.378,19.874-3.858V432.024z M315.481,365.966c0,20.602-16.761,37.363-37.362,37.363h-21.796v-43.562
	c0-25.465-20.716-46.181-46.181-46.181s-46.181,20.717-46.181,46.181v43.562h-21.79v-43.562c0-25.465-20.716-46.181-46.181-46.181
	c-6.426,0-12.549,1.323-18.115,3.706c10.557-13.581,27.033-22.344,45.526-22.344h73.212c4.403,0,7.971-3.569,7.971-7.971V111.721
	c0-18.172,10.798-34.537,27.509-41.694c2.931-1.256,4.832-4.138,4.832-7.328V43.71c0-15.312,12.458-27.769,27.77-27.769
	c7.373,0,13.372,5.999,13.372,13.372v29.098c0,4.402,3.569,7.971,7.971,7.971h88.471c23.494,0,42.841,18.057,44.913,41.021
	c-3.089-1.287-6.475-2-10.025-2h-94.695c-29.732,0-53.919,24.188-53.919,53.919v37.151c0,4.402,3.568,7.971,7.971,7.971h15.612
	c14.682,0,27.343,10.958,29.448,25.49c0.407,2.801-0.39,5.523-2.242,7.664c-1.851,2.14-4.431,3.319-7.261,3.319
	c-4.403,0-7.971,3.569-7.971,7.971c0,4.402,3.569,7.971,7.971,7.971h11.171v109.108H315.481z M453.107,214.674
	c0.862-2.628,1.335-5.432,1.335-8.346c0-12.941-9.202-23.774-21.407-26.298c2.25-0.877,4.333-2.296,6.016-4.3l3.477-4.142
	c1.792-2.134,0.274-5.388-2.511-5.388H415.16c-2.787,0-4.303,3.255-2.512,5.388l3.477,4.142c1.682,2.004,3.766,3.424,6.016,4.3
	c-12.205,2.524-21.407,13.357-21.407,26.298c0,14.807,12.046,26.854,26.854,26.854c5.266,0,10.178-1.529,14.328-4.159
	c-8.682,7.641-19.8,11.892-31.73,11.892h-82.202c1.687-4.155,2.267-8.728,1.609-13.267c-3.234-22.317-22.676-39.146-45.226-39.146
	h-7.641v-29.18c0-20.941,17.037-37.978,37.978-37.978h94.695c5.635,0,10.218,4.584,10.218,10.218v21.965
	c0,4.402,3.568,7.971,7.971,7.971h5.832c10.458,0,19.599,6.701,22.748,16.673c0.001,0,0.001,0.001,0.001,0.001
	C460.067,190.512,458.908,203.451,453.107,214.674z M438.5,206.328c0,6.017-4.895,10.912-10.912,10.912
	c-6.016,0-10.912-4.895-10.912-10.912c0-6.017,4.896-10.912,10.912-10.912C433.605,195.415,438.5,200.311,438.5,206.328z
	 M403.179,132.814c-4.403,0-7.971,3.569-7.971,7.971v11.87c0,4.402,3.568,7.971,7.971,7.971c4.403,0,7.971-3.569,7.971-7.971v-11.87
	C411.15,136.382,407.581,132.814,403.179,132.814z"/>
<g>
</g>
<g>
</g>
<g>
</g>
<g>
</g>
<g>
</g>
<g>
</g>
<g>
</g>
<g>
</g>
<g>
</g>
<g>
</g>
<g>
</g>
<g>
</g>
<g>
</g>
<g>
</g>
<g>
</g>
</svg>
