<?xml version="1.0" encoding="iso-8859-1"?>
<!-- Generator: Adobe Illustrator 19.0.0, SVG Export Plug-In . SVG Version: 6.00 Build 0)  -->
<svg version="1.1" id="Layer_1" xmlns="http://www.w3.org/2000/svg" xmlns:xlink="http://www.w3.org/1999/xlink" x="0px" y="0px"
	 viewBox="0 0 512.001 512.001" style="enable-background:new 0 0 512.001 512.001;" xml:space="preserve">
<g>
	<path style="fill:#97B05F;" d="M455.989,213.116c-7.673,1.087-14.922,4.386-20.297,10.134c-5.106,5.444-7.824,12.463-8.087,19.171
		c-0.378,9.609,1.453,19.85,2.263,29.464l2.747,32.607c1.088,12.908-8.494,24.253-21.402,25.341s-24.253-8.494-25.341-21.402
		c-0.109-1.288-0.096-2.691,0-3.939l2.747-32.607l1.374-16.304c0.549-6.512,1.084-12.956,2.4-19.357
		c3.512-14.683,12.214-27.663,23.846-36.15c5.81-4.254,12.305-7.445,19.081-9.417c6.775-1.98,13.817-2.724,20.666-2.312
		c6.831,0.411,12.035,6.282,11.624,13.113c-0.365,6.064-5.032,10.845-10.853,11.556C456.501,213.046,456.245,213.08,455.989,213.116
		z"/>
	<rect x="197.133" y="139.54" style="fill:#97B05F;" width="117.744" height="164.952"/>
</g>
<rect x="223.719" y="139.54" style="fill:#F8E9B4;" width="64.562" height="164.952"/>
<rect x="197.133" y="139.54" style="opacity:0.2;enable-background:new    ;" width="117.744" height="57.979"/>
<g>
	<path style="fill:#BDD186;" d="M410.491,280.889H101.509c-32.515,0-58.873,26.359-58.873,58.873l0,0
		c0,32.515,26.359,58.873,58.873,58.873h308.981c32.515,0,58.873-26.359,58.873-58.873l0,0
		C469.364,307.248,443.005,280.889,410.491,280.889z"/>
	<path style="fill:#BDD186;" d="M316.413,181.778H195.589c-36.125,0-62.562-34.053-53.607-69.05l0,0
		c12.007-46.925,54.287-79.749,102.723-79.749h22.591c48.438,0,90.717,32.823,102.723,79.749l0,0
		C378.973,147.726,352.536,181.778,316.413,181.778z"/>
</g>
<path style="fill:#D46D59;" d="M273.652,110.066h-35.303v50.297c0,1.982,2.155,3.212,3.862,2.203l11.303-6.684
	c1.533-0.907,3.44-0.907,4.974,0l11.303,6.684c1.706,1.009,3.862-0.221,3.862-2.203V110.066z"/>
<rect x="238.344" y="110.067" style="opacity:0.1;enable-background:new    ;" width="35.303" height="20.252"/>
<g>
	<circle style="fill:#F7DA70;" cx="256.005" cy="339.76" r="30.668"/>
	<circle style="fill:#F7DA70;" cx="382.601" cy="339.76" r="30.668"/>
	<circle style="fill:#F7DA70;" cx="129.398" cy="339.76" r="30.668"/>
</g>
<path style="opacity:0.1;enable-background:new    ;" d="M420.833,388.293H111.852c-32.515,0-58.873-26.359-58.873-58.873l0,0
	c0-13.621,4.638-26.151,12.405-36.126c-13.837,10.773-22.747,27.575-22.747,46.469l0,0c0,32.515,26.359,58.873,58.873,58.873
	h308.981c18.894,0,35.697-8.911,46.469-22.747C446.985,383.655,434.454,388.293,420.833,388.293z"/>
<g style="opacity:0.1;">
	<rect x="223.708" y="203.287" width="64.583" height="15.863"/>
	<rect x="223.708" y="241.062" width="64.583" height="15.863"/>
</g>
<path style="fill:#97B05F;" d="M445.195,361.275H66.805c-32.515,0-58.873,26.359-58.873,58.873l0,0
	c0,32.515,26.359,58.873,58.873,58.873h378.391c32.515,0,58.873-26.359,58.873-58.873l0,0
	C504.069,387.632,477.711,361.275,445.195,361.275z"/>
<g>
	<circle style="fill:#F7DA70;" cx="256.005" cy="420.153" r="30.668"/>
	<circle style="fill:#F7DA70;" cx="98.73" cy="420.153" r="30.668"/>
	<circle style="fill:#F7DA70;" cx="413.269" cy="420.153" r="30.668"/>
</g>
<path style="opacity:0.1;enable-background:new    ;" d="M461.145,461.595H82.753c-32.515,0-58.873-26.359-58.873-58.873l0,0
	c0-11.044,3.048-21.374,8.337-30.206c-14.713,10.703-24.286,28.044-24.286,47.632l0,0c0,32.515,26.359,58.873,58.873,58.873h378.391
	c21.471,0,40.25-11.497,50.536-28.667C486.019,457.417,474.073,461.595,461.145,461.595z"/>
<path d="M230.417,120.269v40.094c0,3.758,2.028,7.25,5.293,9.113c1.608,0.917,3.403,1.375,5.198,1.375
	c1.85,0,3.698-0.486,5.339-1.457l9.752-5.767l9.752,5.767c3.235,1.913,7.272,1.946,10.538,0.082
	c3.265-1.862,5.293-5.354,5.293-9.113v-40.094c5.071-3.825,8.369-9.881,8.369-16.708c0-4.38-3.551-7.931-7.931-7.931
	s-7.931,3.551-7.931,7.931c0,2.8-2.278,5.079-5.079,5.079c-2.8,0-5.079-2.278-5.079-5.079c0-4.38-3.551-7.931-7.931-7.931
	c-4.38,0-7.931,3.551-7.931,7.931c0,2.8-2.278,5.079-5.079,5.079c-2.8,0-5.078-2.278-5.078-5.079c0-4.38-3.551-7.931-7.931-7.931
	s-7.931,3.551-7.931,7.931C222.049,110.387,225.347,116.444,230.417,120.269z M246.28,124.233c3.633-0.576,6.96-2.079,9.72-4.273
	c2.76,2.194,6.088,3.697,9.72,4.273v26.712l-3.198-1.891c-4.023-2.378-9.022-2.378-13.046,0.001l-3.197,1.891v-26.713H246.28z
	 M302.884,94.348c4.38,0,7.931-3.551,7.931-7.931c0-1.807,1.471-3.278,3.278-3.278c1.808,0,3.278,1.471,3.278,3.278
	c0,4.38,3.551,7.931,7.931,7.931s7.931-3.551,7.931-7.931c0-10.554-8.587-19.141-19.141-19.141s-19.141,8.587-19.141,19.141
	C294.952,90.797,298.503,94.348,302.884,94.348z M205.838,88.534V76.722c0-4.38-3.551-7.931-7.931-7.931s-7.931,3.551-7.931,7.931
	v11.811c0,4.38,3.551,7.931,7.931,7.931S205.838,92.914,205.838,88.534z M474.159,359.954c2.071-6.504,3.137-13.262,3.137-20.191
	c0-26.862-15.944-50.056-38.859-60.655l-0.664-7.889c-0.259-3.073-0.619-6.21-0.967-9.243c-0.743-6.488-1.512-13.197-1.275-19.243
	c0.201-5.118,2.369-10.242,5.955-14.065c4.889-5.227,11.19-7.073,15.612-7.699c0.208-0.03,0.417-0.056,0.622-0.081
	c9.73-1.187,17.221-9.157,17.81-18.952c0.327-5.419-1.477-10.64-5.078-14.702c-3.601-4.062-8.568-6.478-13.987-6.804
	c-7.93-0.48-15.794,0.402-23.359,2.613c-7.738,2.251-14.989,5.829-21.541,10.625c-13.2,9.632-23,24.471-26.885,40.712
	c-0.02,0.082-0.038,0.165-0.055,0.247c-1.396,6.789-1.965,13.536-2.515,20.062l-1.54,18.269H322.8v-83.583
	c17.201-1.711,32.832-10.281,43.585-24.133c12.073-15.551,16.197-35.407,11.318-54.479c-12.913-50.468-58.315-85.715-110.407-85.715
	h-22.59c-52.093,0-97.494,35.247-110.407,85.714c-4.879,19.072-0.755,38.929,11.318,54.479
	c10.754,13.851,26.385,22.422,43.585,24.133v83.583h-87.691c-36.836,0-66.805,29.968-66.805,66.805
	c0,6.928,1.065,13.686,3.137,20.191C15.47,370.762,0,393.681,0,420.148c0,36.837,29.968,66.805,66.805,66.805h378.392
	c36.836,0,66.805-29.968,66.805-66.805C512,393.682,496.531,370.762,474.159,359.954z M397.918,256.022
	c0.531-6.298,1.032-12.247,2.22-18.073c3.04-12.582,10.609-24.047,20.789-31.474c5.064-3.708,10.653-6.468,16.62-8.203
	c5.817-1.699,11.863-2.373,17.965-2.007c1.189,0.072,2.279,0.602,3.069,1.493s1.185,2.037,1.115,3.225
	c-0.129,2.151-1.768,3.9-3.9,4.16c-0.306,0.037-0.61,0.077-0.918,0.121c-9.971,1.412-18.608,5.759-24.969,12.561
	c-6.151,6.558-9.878,15.408-10.227,24.285c-0.287,7.265,0.554,14.59,1.366,21.673c0.349,3.051,0.68,5.933,0.919,8.769l0.121,1.435
	c-3.769-0.663-7.64-1.028-11.595-1.028h-14.001L397.918,256.022z M158.145,155.514c-9.045-11.652-12.136-26.529-8.479-40.819
	c11.116-43.443,50.197-73.783,95.039-73.783h22.59c44.842,0,83.924,30.341,95.039,73.784c3.656,14.289,0.566,29.167-8.479,40.819
	c-9.046,11.652-22.693,18.333-37.444,18.333H195.589C180.838,173.848,167.191,167.166,158.145,155.514z M306.937,189.711v83.248
	h-10.718v-83.248H306.937z M280.356,189.711v83.248h-48.703v-83.248H280.356z M215.79,189.711v83.248h-10.727v-83.248H215.79z
	 M101.509,288.821h308.981c28.089,0,50.942,22.852,50.942,50.942c0,5.164-0.779,10.202-2.287,15.056
	c-4.502-0.96-9.166-1.476-13.95-1.476h-26.458c1.611-4.288,2.462-8.87,2.462-13.58c0-21.284-17.316-38.601-38.601-38.601
	c-21.285,0-38.601,17.316-38.601,38.601c0,4.709,0.851,9.291,2.462,13.58h-54.323c1.611-4.288,2.462-8.87,2.462-13.58
	c0-21.284-17.316-38.601-38.601-38.601s-38.601,17.316-38.601,38.601c0,4.709,0.851,9.291,2.462,13.58h-54.323
	c1.611-4.288,2.462-8.87,2.462-13.58c0-21.284-17.316-38.601-38.601-38.601c-21.284,0-38.6,17.316-38.6,38.601
	c0,4.709,0.851,9.291,2.462,13.58H66.805c-4.783,0-9.448,0.516-13.949,1.476c-1.508-4.855-2.287-9.893-2.287-15.056
	C50.568,311.674,73.421,288.821,101.509,288.821z M405.337,339.763c0,4.958-1.606,9.672-4.534,13.58h-36.407
	c-2.927-3.908-4.534-8.622-4.534-13.58c0-12.537,10.2-22.738,22.738-22.738S405.337,327.226,405.337,339.763z M278.738,339.763
	c0,4.958-1.606,9.672-4.534,13.58h-36.407c-2.927-3.908-4.534-8.622-4.534-13.58c0-12.537,10.2-22.738,22.738-22.738
	S278.738,327.226,278.738,339.763z M152.138,339.763c0,4.958-1.606,9.672-4.534,13.58h-36.407c-2.927-3.908-4.534-8.622-4.534-13.58
	c0-12.537,10.2-22.738,22.737-22.738C141.938,317.025,152.138,327.226,152.138,339.763z M445.195,471.09H66.805
	c-28.09,0-50.942-22.852-50.942-50.942c0-28.09,22.852-50.942,50.942-50.942h378.392c28.089,0,50.942,22.852,50.942,50.942
	C496.137,448.238,473.285,471.09,445.195,471.09z M413.269,381.547c-21.284,0-38.6,17.317-38.6,38.601
	c0,21.285,17.316,38.601,38.6,38.601c21.285,0,38.601-17.316,38.601-38.601C451.868,398.864,434.553,381.547,413.269,381.547z
	 M413.269,442.885c-12.537,0-22.737-10.2-22.737-22.738c0-12.537,10.2-22.738,22.737-22.738s22.738,10.201,22.738,22.738
	C436.005,432.685,425.806,442.885,413.269,442.885z M98.732,381.547c-21.285,0-38.601,17.317-38.601,38.601
	c0,21.285,17.316,38.601,38.601,38.601s38.601-17.316,38.601-38.601C137.333,398.864,120.017,381.547,98.732,381.547z
	 M98.732,442.885c-12.537,0-22.738-10.2-22.738-22.738c0-12.537,10.201-22.738,22.738-22.738s22.738,10.201,22.738,22.738
	C121.47,432.685,111.269,442.885,98.732,442.885z M256.001,381.547c-21.285,0-38.601,17.317-38.601,38.601
	c0,21.285,17.316,38.601,38.601,38.601s38.601-17.316,38.601-38.601C294.601,398.864,277.285,381.547,256.001,381.547z
	 M256.001,442.885c-12.537,0-22.738-10.2-22.738-22.738c0-12.537,10.2-22.738,22.738-22.738c12.538,0,22.738,10.201,22.738,22.738
	C278.738,432.685,268.537,442.885,256.001,442.885z"/>
<g>
</g>
<g>
</g>
<g>
</g>
<g>
</g>
<g>
</g>
<g>
</g>
<g>
</g>
<g>
</g>
<g>
</g>
<g>
</g>
<g>
</g>
<g>
</g>
<g>
</g>
<g>
</g>
<g>
</g>
</svg>
