<?xml version="1.0" encoding="iso-8859-1"?>
<!-- Generator: Adobe Illustrator 19.0.0, SVG Export Plug-In . SVG Version: 6.00 Build 0)  -->
<svg version="1.1" id="Layer_1" xmlns="http://www.w3.org/2000/svg" xmlns:xlink="http://www.w3.org/1999/xlink" x="0px" y="0px"
	 viewBox="0 0 512 512" style="enable-background:new 0 0 512 512;" xml:space="preserve">
<circle style="fill:#FDDF6D;" cx="255.996" cy="241.757" r="232.306"/>
<path style="fill:#FCC56B;" d="M305.782,439.765c-128.299,0-232.305-104.006-232.305-232.305
	c0-68.545,29.694-130.147,76.912-172.669C75.182,73.247,23.696,151.488,23.696,241.756c0,128.299,104.006,232.305,232.305,232.305
	c59.754,0,114.232-22.568,155.393-59.635C379.708,430.626,343.812,439.765,305.782,439.765z"/>
<path style="fill:#7F184C;" d="M304.682,259.426L304.682,259.426c50.142,0,90.79,40.649,90.79,90.79v27.614H213.89v-27.614
	C213.89,300.074,254.539,259.426,304.682,259.426z"/>
<path style="fill:#F2F2F2;" d="M250.179,292.018h115.637c2.339,0,4.497-0.978,6.266-2.622
	c-16.615-18.402-40.655-29.971-67.401-29.971l0,0c-24.787,0-47.243,9.943-63.626,26.047
	C242.975,289.404,246.34,292.018,250.179,292.018z"/>
<path style="fill:#FC4C59;" d="M356.25,346.012h-66.076l-19.115,0.11c-12.761,0.612-28.645,4.239-28.645,31.71
	c16.904-0.089,13.066,0.006,25.923-0.343c9.044-0.246,21.836,13.687,21.836,22.247v50.049c0,29.143,23.625,52.767,52.767,52.767l0,0
	c29.143,0,52.767-23.625,52.767-52.767v-64.311C395.711,363.679,378.043,346.012,356.25,346.012z"/>
<path style="fill:#BC3B4A;" d="M342.737,481.351c-5.22,0-9.451-4.23-9.451-9.451v-89.798c0-1.118-2.723-3.819-4.64-4.88
	c-4.566-2.526-6.221-8.277-3.695-12.844c2.526-4.568,8.28-6.221,12.844-3.695c1.473,0.814,14.39,8.339,14.39,21.419v89.798
	C352.188,477.12,347.958,481.351,342.737,481.351z"/>
<path d="M255.999,0C122.695,0,14.245,108.45,14.245,241.754c0,133.305,108.45,241.756,241.754,241.756
	c11.14,0,22.306-0.776,33.287-2.287C300.108,499.619,320.102,512,342.944,512c34.307,0,62.217-27.911,62.217-62.217v-64.311
	c0-2.043-0.141-4.051-0.384-6.028c0.091-0.525,0.147-1.061,0.147-1.612v-27.614c0-55.273-44.968-100.242-100.241-100.242
	s-100.242,44.969-100.242,100.242v27.614c0,5.22,4.23,9.451,9.451,9.451h28.525c11.706,0,16.552,0,26.264-0.349
	c0.008,0,0.015,0,0.023,0c0.503,0,2.438,0.568,5.139,3.175c4.253,4.102,6.885,9.783,6.885,12.694v46.982
	c0,4.563,0.508,9.008,1.444,13.295c-8.659,1.011-17.422,1.532-26.17,1.532c-122.883,0-222.853-99.973-222.853-222.855
	s99.97-222.856,222.852-222.856s222.854,99.971,222.854,222.853c0,41.022-11.235,81.111-32.49,115.935
	c-2.719,4.454-1.313,10.271,3.143,12.99c4.453,2.719,10.271,1.313,12.99-3.143c23.067-37.789,35.258-81.286,35.258-125.781
	C497.755,108.45,389.305,0,255.999,0z M223.341,350.217c0-44.852,36.489-81.341,81.341-81.341c43.649,0,79.365,34.562,81.248,77.756
	c-8.237-6.31-18.526-10.072-29.68-10.072h-66.13l-19.115,0.11c-0.132,0.001-0.266,0.005-0.398,0.011
	c-8.497,0.407-32.825,1.59-37.013,31.698h-10.253L223.341,350.217L223.341,350.217z M268.708,368.031
	c-0.237,0-0.474,0.004-0.709,0.013c-6.012,0.217-10.12,0.294-15.319,0.321c2.268-10.96,9.122-12.323,18.635-12.793l18.859-0.108
	h66.076c16.546,0,30.007,13.463,30.007,30.009v64.311c0,23.885-19.432,43.316-43.316,43.316c-23.885,0-43.317-19.431-43.317-43.316
	v-46.982c0-8.555-4.971-18.877-12.664-26.298C281.205,370.949,274.909,368.031,268.708,368.031z"/>
<path d="M249.94,142.957c-3.692-3.689-9.675-3.689-13.366,0l-17.969,17.969l-17.969-17.969c-3.692-3.689-9.675-3.689-13.366,0
	c-3.691,3.692-3.691,9.675,0,13.366l17.969,17.969l-17.969,17.969c-3.691,3.692-3.691,9.675,0,13.366
	c1.846,1.845,4.265,2.767,6.683,2.767s4.837-0.922,6.683-2.767l17.969-17.969l17.969,17.969c1.846,1.845,4.265,2.767,6.683,2.767
	c2.418,0,4.837-0.922,6.683-2.767c3.691-3.692,3.691-9.675,0-13.366l-17.969-17.969l17.969-17.969
	C253.63,152.632,253.63,146.649,249.94,142.957z"/>
<path d="M428.87,192.26l-17.969-17.969l17.969-17.969c3.691-3.692,3.691-9.675,0-13.366c-3.692-3.689-9.675-3.689-13.366,0
	l-17.969,17.969l-17.969-17.969c-3.692-3.689-9.675-3.689-13.366,0c-3.691,3.692-3.691,9.675,0,13.366l17.969,17.969l-17.969,17.969
	c-3.691,3.692-3.691,9.675,0,13.366c1.846,1.845,4.265,2.767,6.683,2.767c2.418,0,4.837-0.922,6.683-2.767l17.969-17.969
	l17.969,17.969c1.846,1.845,4.265,2.767,6.683,2.767c2.418,0,4.837-0.922,6.683-2.767C432.56,201.935,432.56,195.952,428.87,192.26z
	"/>
<circle cx="434.472" cy="389.676" r="9.451"/>
<g>
</g>
<g>
</g>
<g>
</g>
<g>
</g>
<g>
</g>
<g>
</g>
<g>
</g>
<g>
</g>
<g>
</g>
<g>
</g>
<g>
</g>
<g>
</g>
<g>
</g>
<g>
</g>
<g>
</g>
</svg>
