<?xml version="1.0" encoding="iso-8859-1"?>
<!-- Generator: Adobe Illustrator 19.0.0, SVG Export Plug-In . SVG Version: 6.00 Build 0)  -->
<svg version="1.1" id="Layer_1" xmlns="http://www.w3.org/2000/svg" xmlns:xlink="http://www.w3.org/1999/xlink" x="0px" y="0px"
	 viewBox="0 0 511.999 511.999" style="enable-background:new 0 0 511.999 511.999;" xml:space="preserve">
<circle style="fill:#FDDF6D;" cx="255.999" cy="236.99" r="227.726"/>
<path style="fill:#FCC56B;" d="M304.801,431.095c-125.769,0-227.725-101.955-227.725-227.724
	c0-67.194,29.108-127.581,75.396-169.264C78.746,71.802,28.275,148.501,28.275,236.989c0,125.769,101.955,227.724,227.725,227.724
	c58.576,0,111.979-22.123,152.329-58.459C377.269,422.135,342.081,431.095,304.801,431.095z"/>
<circle style="fill:#FFFFFF;" cx="376.829" cy="166.496" r="51.448"/>
<g>
	<circle style="fill:#7F184C;" cx="385.475" cy="166.496" r="18.528"/>
	<path style="fill:#7F184C;" d="M245.696,191.891c-3.252,0.001-6.407-1.714-8.102-4.758c-5.944-10.67-17.213-17.298-29.412-17.298
		c-11.896,0-23.319,6.726-29.811,17.554c-2.631,4.389-8.322,5.812-12.709,3.182c-4.389-2.631-5.813-8.32-3.182-12.709
		c9.82-16.38,27.332-26.555,45.702-26.555c18.915,0,36.387,10.272,45.598,26.811c2.49,4.469,0.884,10.112-3.585,12.601
		C248.768,191.513,247.222,191.891,245.696,191.891z"/>
	<path style="fill:#7F184C;" d="M300.236,395.375L300.236,395.375c-50.908,0-92.179-41.27-92.179-92.179l0,0h184.357l0,0
		C392.415,354.105,351.145,395.375,300.236,395.375z"/>
</g>
<path style="fill:#F2F2F2;" d="M230.549,303.195v14.389c0,6.067,4.919,10.985,10.985,10.985h117.404
	c6.067,0,10.985-4.919,10.985-10.985v-14.389H230.549z"/>
<path style="fill:#FC4C59;" d="M327.597,349.285h-64.773v0.107c-12.509,0.6-24.7,3.992-35.642,9.852
	c6.495,8.465,14.425,15.769,23.425,21.551c7.552,4.852,12.218,13.117,12.218,22.093v48.119c0,28.568,23.159,51.726,51.726,51.726
	l0,0c28.568,0,51.726-23.159,51.726-51.726v-63.043C366.278,366.603,348.96,349.285,327.597,349.285z"/>
<path style="fill:#BC3B4A;" d="M314.35,481.956c-5.116,0-9.264-4.147-9.264-9.264v-88.027c0-1.03-2.415-3.554-4.615-4.821
	c-4.476-2.478-6.065-8.097-3.587-12.573s8.148-6.079,12.624-3.602c1.444,0.799,14.105,8.176,14.105,20.996v88.027
	C323.614,477.808,319.466,481.956,314.35,481.956z"/>
<path d="M255.999,0C125.323,0,19.011,106.312,19.011,236.989c0,130.676,106.312,236.987,236.989,236.987
	c0.683,0,1.371-0.014,2.058-0.02c9.086,22.287,30.979,38.042,56.494,38.042c33.63,0,60.99-27.36,60.99-60.99v-63.043
	c0-5.029-0.782-9.876-2.225-14.434c18.092-18.821,28.361-44.105,28.361-70.337c0-5.118-4.148-9.264-9.264-9.264H208.057
	c-5.116,0-9.264,4.147-9.264,9.264c0,34.207,17.07,65.888,45.662,84.742c0.208,0.137,0.427,0.24,0.642,0.358
	c5.309,3.798,8.461,9.965,8.461,16.657v46.055c0,1.485,0.072,2.952,0.177,4.411c-119.42-1.22-216.199-98.728-216.199-218.431
	C37.539,116.53,135.539,18.528,255.999,18.528s218.46,98.001,218.46,218.46c0,52.377-18.817,103.034-52.986,142.636
	c-3.343,3.874-2.911,9.724,0.962,13.066c3.874,3.341,9.724,2.909,13.066-0.962c37.07-42.965,57.486-97.919,57.486-154.739
	C492.988,106.312,386.676,0,255.999,0z M357.013,451.01c0,23.414-19.048,42.462-42.462,42.462
	c-19.378,0-35.754-13.053-40.828-30.824c-0.088-0.421-0.198-0.833-0.34-1.229c-0.842-3.333-1.295-6.818-1.295-10.409v-46.055
	c0-13.185-6.497-25.349-17.378-32.543c-4.368-2.887-8.432-6.158-12.158-9.784c6.676-2.289,13.685-3.644,20.717-3.982
	c0.324-0.016,0.644-0.048,0.957-0.096h63.371c16.221,0,29.417,13.197,29.417,29.417v63.045H357.013z M382.627,312.46
	c-1.833,16.199-8.437,31.555-18.9,44.041c-8.796-10.087-21.726-16.48-36.13-16.48h-64.773c-0.651,0-1.286,0.069-1.899,0.199
	c-10.543,0.674-20.999,3.205-30.727,7.35c-6.671-10.523-10.955-22.491-12.362-35.11h164.791V312.46z"/>
<path d="M437.536,166.499c0-33.478-27.235-60.712-60.712-60.712s-60.712,27.235-60.712,60.712s27.235,60.712,60.712,60.712
	S437.536,199.978,437.536,166.499z M376.824,208.684c-23.26,0-42.184-18.924-42.184-42.184s18.924-42.184,42.184-42.184
	s42.184,18.924,42.184,42.184S400.084,208.684,376.824,208.684z"/>
<path d="M208.183,151.307c-18.37,0-35.882,10.175-45.702,26.555c-2.631,4.389-1.206,10.078,3.182,12.709
	c4.389,2.629,10.078,1.204,12.709-3.182c6.491-10.828,17.913-17.554,29.811-17.554c12.198,0,23.468,6.628,29.412,17.298
	c1.695,3.044,4.849,4.759,8.102,4.758c1.525,0,3.072-0.378,4.5-1.172c4.47-2.49,6.075-8.131,3.585-12.601
	C244.57,161.581,227.098,151.307,208.183,151.307z"/>
<circle cx="405.029" cy="409.069" r="9.264"/>
<g>
	<path style="fill:#F9A880;" d="M158.138,239.57c-16.911,0-30.621,13.71-30.621,30.621h61.244
		C188.759,253.28,175.049,239.57,158.138,239.57z"/>
	<path style="fill:#F9A880;" d="M425.237,239.57c-16.911,0-30.621,13.71-30.621,30.621h61.244
		C455.86,253.28,442.15,239.57,425.237,239.57z"/>
</g>
<g>
</g>
<g>
</g>
<g>
</g>
<g>
</g>
<g>
</g>
<g>
</g>
<g>
</g>
<g>
</g>
<g>
</g>
<g>
</g>
<g>
</g>
<g>
</g>
<g>
</g>
<g>
</g>
<g>
</g>
</svg>
