<?xml version="1.0" encoding="iso-8859-1"?>
<!-- Generator: Adobe Illustrator 19.0.0, SVG Export Plug-In . SVG Version: 6.00 Build 0)  -->
<svg version="1.1" id="Layer_1" xmlns="http://www.w3.org/2000/svg" xmlns:xlink="http://www.w3.org/1999/xlink" x="0px" y="0px"
	 viewBox="0 0 512 512" style="enable-background:new 0 0 512 512;" xml:space="preserve">
<circle style="fill:#FDDF6D;" cx="256.001" cy="256.001" r="245.994"/>
<path style="fill:#FCC56B;" d="M308.715,465.678c-135.858,0-245.993-110.134-245.993-245.993
	c0-72.584,31.443-137.816,81.444-182.842C64.527,77.562,10.007,160.414,10.007,256c0,135.858,110.134,245.993,245.993,245.993
	c63.274,0,120.962-23.898,164.549-63.149C386.996,455.999,348.987,465.678,308.715,465.678z"/>
<g>
	<path style="fill:#7F184C;" d="M300.329,392.87c-26.51,0-51-14.4-63.911-37.58c-2.69-4.829-0.955-10.924,3.872-13.613
		c4.828-2.69,10.923-0.955,13.613,3.872c9.382,16.843,27.171,27.304,46.426,27.304c18.764,0,36.755-10.568,46.954-27.58
		c2.842-4.739,8.989-6.281,13.729-3.437c4.741,2.842,6.279,8.989,3.437,13.729C350.654,378.577,326.083,392.87,300.329,392.87z"/>
	<path style="fill:#7F184C;" d="M416.461,224.021c-3.513,0-6.921-1.853-8.752-5.14c-6.421-11.527-18.595-18.687-31.771-18.687
		c-12.851,0-25.189,7.265-32.202,18.962c-2.841,4.741-8.987,6.281-13.729,3.437c-4.741-2.842-6.279-8.988-3.437-13.729
		c10.608-17.694,29.524-28.686,49.368-28.686c20.431,0,39.305,11.097,49.256,28.961c2.69,4.829,0.955,10.924-3.872,13.613
		C419.78,223.612,418.108,224.021,416.461,224.021z"/>
</g>
<circle style="fill:#FFFFFF;" cx="215.278" cy="210.194" r="30.022"/>
<g>
	<path style="fill:#F9A880;" d="M177.438,280.574c-18.268,0-33.079,14.81-33.079,33.078h66.157
		C210.516,295.384,195.706,280.574,177.438,280.574z"/>
	<path style="fill:#F9A880;" d="M420.549,280.574c-18.268,0-33.078,14.81-33.078,33.078h66.157
		C453.626,295.384,438.817,280.574,420.549,280.574z"/>
</g>
<path d="M341.638,14.677c-5.208-1.845-10.929,0.877-12.777,6.084c-1.849,5.209,0.875,10.929,6.084,12.779
	C428.876,66.874,491.987,156.273,491.987,256c0,130.124-105.862,235.985-235.985,235.985S20.015,386.122,20.015,256
	S125.876,20.015,256,20.015c5.527,0,10.007-4.481,10.007-10.007S261.527,0,256,0C114.84,0,0,114.84,0,256s114.84,256,256,256
	s256-114.84,256-256C512,147.819,443.536,50.84,341.638,14.677z"/>
<path d="M300.329,392.871c25.756,0,50.326-14.293,64.122-37.303c2.842-4.739,1.304-10.887-3.437-13.729
	c-4.74-2.842-10.887-1.304-13.729,3.437c-10.199,17.012-28.191,27.579-46.954,27.579c-19.255,0-37.045-10.462-46.426-27.304
	c-2.69-4.828-8.785-6.562-13.613-3.872c-4.829,2.69-6.562,8.784-3.872,13.613C249.328,378.471,273.817,392.871,300.329,392.871z"/>
<path d="M330.006,222.594c4.741,2.842,10.888,1.302,13.729-3.437c7.012-11.697,19.352-18.962,32.202-18.962
	c13.176,0,25.351,7.16,31.771,18.686c1.831,3.286,5.238,5.14,8.752,5.14c1.648,0,3.32-0.408,4.861-1.266
	c4.829-2.69,6.562-8.784,3.872-13.613c-9.951-17.864-28.825-28.961-49.256-28.961c-19.844,0-38.76,10.991-49.368,28.685
	C323.727,213.605,325.267,219.752,330.006,222.594z"/>
<path d="M255.307,210.194c0-22.072-17.957-40.029-40.029-40.029s-40.029,17.957-40.029,40.029s17.957,40.029,40.029,40.029
	S255.307,232.267,255.307,210.194z M215.278,230.209c-11.036,0-20.015-8.979-20.015-20.015s8.979-20.015,20.015-20.015
	c11.036,0,20.015,8.979,20.015,20.015S226.314,230.209,215.278,230.209z"/>
<circle cx="303.61" cy="14.784" r="10.007"/>
<g>
</g>
<g>
</g>
<g>
</g>
<g>
</g>
<g>
</g>
<g>
</g>
<g>
</g>
<g>
</g>
<g>
</g>
<g>
</g>
<g>
</g>
<g>
</g>
<g>
</g>
<g>
</g>
<g>
</g>
</svg>
